<svg xmlns="http://www.w3.org/2000/svg" xmlns:xlink="http://www.w3.org/1999/xlink" contentStyleType="text/css" data-diagram-type="SEQUENCE" height="1528px" preserveAspectRatio="none" style="width:1329px;height:1528px;background:#FEFEFE;" version="1.1" viewBox="0 0 1329 1528" width="1329px" zoomAndPan="magnify"><title>NovaTrek Adventures - Scheduling Orchestration Flow</title><defs/><g><rect fill="#FEFEFE" height="1528" style="stroke:none;stroke-width:1;" width="1329" x="0" y="0"/><text fill="#000000" font-family="Segoe UI" font-size="14" font-weight="bold" lengthAdjust="spacing" textLength="395.7256" x="467.9341" y="28.5352">NovaTrek Adventures - Scheduling Orchestration Flow</text><rect fill="none" height="251.7949" style="stroke:#000000;stroke-width:1.5;" width="909.918" x="344.7432" y="223.9082"/><rect fill="none" height="475.5918" style="stroke:#000000;stroke-width:1.5;" width="667.668" x="344.7432" y="532.0137"/><rect fill="none" height="322.0605" style="stroke:#000000;stroke-width:1.5;" width="1312.5938" x="10" y="1108.5371"/><g><title>Admin Dashboard</title><rect fill="#000000" fill-opacity="0.00000" height="1328.6211" width="8" x="80.2158" y="118.9766"/><line style="stroke:#A23B72;stroke-width:0.5;stroke-dasharray:5,5;" x1="84" x2="84" y1="118.9766" y2="1447.5977"/></g><g><title>svc-scheduling-</title><rect fill="#000000" fill-opacity="0.00000" height="1328.6211" width="8" x="413.5244" y="118.9766"/><line style="stroke:#A23B72;stroke-width:0.5;stroke-dasharray:5,5;" x1="416.7432" x2="416.7432" y1="118.9766" y2="1447.5977"/></g><g><title>svc-guide-management</title><rect fill="#000000" fill-opacity="0.00000" height="1328.6211" width="8" x="732.1318" y="118.9766"/><line style="stroke:#A23B72;stroke-width:0.5;stroke-dasharray:5,5;" x1="735.9434" x2="735.9434" y1="118.9766" y2="1447.5977"/></g><g><title>svc-trail-management</title><rect fill="#000000" fill-opacity="0.00000" height="1328.6211" width="8" x="914.8657" y="118.9766"/><line style="stroke:#A23B72;stroke-width:0.5;stroke-dasharray:5,5;" x1="918.3203" x2="918.3203" y1="118.9766" y2="1447.5977"/></g><g><title>svc-weather</title><rect fill="#000000" fill-opacity="0.00000" height="1328.6211" width="8" x="1057.124" y="118.9766"/><line style="stroke:#A23B72;stroke-width:0.5;stroke-dasharray:5,5;" x1="1060.4111" x2="1060.4111" y1="118.9766" y2="1447.5977"/></g><g><title>svc-trip-catalog</title><rect fill="#000000" fill-opacity="0.00000" height="1328.6211" width="8" x="1178.249" y="118.9766"/><line style="stroke:#A23B72;stroke-width:0.5;stroke-dasharray:5,5;" x1="1181.8369" x2="1181.8369" y1="118.9766" y2="1447.5977"/></g><g><title>Kafka</title><rect fill="#000000" fill-opacity="0.00000" height="1328.6211" width="8" x="1279.6274" y="118.9766"/><line style="stroke:#A23B72;stroke-width:0.5;stroke-dasharray:5,5;" x1="1282.6611" x2="1282.6611" y1="118.9766" y2="1447.5977"/></g><g class="participant participant-head" data-participant="admin"><text fill="#000000" font-family="Segoe UI" font-size="14" lengthAdjust="spacing" textLength="122.4316" x="20" y="116.0234">Admin Dashboard</text><ellipse cx="84.2158" cy="50.9883" fill="#E2E2F0" rx="8" ry="8" style="stroke:#181818;stroke-width:0.5;"/><path d="M84.2158,58.9883 L84.2158,85.9883 M71.2158,66.9883 L97.2158,66.9883 M84.2158,85.9883 L71.2158,100.9883 M84.2158,85.9883 L97.2158,100.9883" fill="none" style="stroke:#181818;stroke-width:0.5;"/></g><g class="participant participant-tail" data-participant="admin"><text fill="#000000" font-family="Segoe UI" font-size="14" lengthAdjust="spacing" textLength="122.4316" x="20" y="1460.1328">Admin Dashboard</text><ellipse cx="84.2158" cy="1471.5859" fill="#E2E2F0" rx="8" ry="8" style="stroke:#181818;stroke-width:0.5;"/><path d="M84.2158,1479.5859 L84.2158,1506.5859 M71.2158,1487.5859 L97.2158,1487.5859 M84.2158,1506.5859 L71.2158,1521.5859 M84.2158,1506.5859 L97.2158,1521.5859" fill="none" style="stroke:#181818;stroke-width:0.5;"/></g><g class="participant participant-head" data-participant="scheduler"><rect fill="#E8F4F8" height="46.9766" rx="2.5" ry="2.5" style="stroke:#2E86AB;stroke-width:0.5;" width="125.5625" x="354.7432" y="71"/><text fill="#000000" font-family="Segoe UI" font-size="14" lengthAdjust="spacing" textLength="111.5625" x="361.7432" y="91.5352">svc-scheduling-</text><text fill="#000000" font-family="Segoe UI" font-size="14" lengthAdjust="spacing" textLength="83.3848" x="375.832" y="108.0234">orchestrator</text></g><g class="participant participant-tail" data-participant="scheduler"><rect fill="#E8F4F8" height="46.9766" rx="2.5" ry="2.5" style="stroke:#2E86AB;stroke-width:0.5;" width="125.5625" x="354.7432" y="1446.5977"/><text fill="#000000" font-family="Segoe UI" font-size="14" lengthAdjust="spacing" textLength="111.5625" x="361.7432" y="1467.1328">svc-scheduling-</text><text fill="#000000" font-family="Segoe UI" font-size="14" lengthAdjust="spacing" textLength="83.3848" x="375.832" y="1483.6211">orchestrator</text></g><g class="participant participant-head" data-participant="guides"><rect fill="#E8F4F8" height="30.4883" rx="2.5" ry="2.5" style="stroke:#2E86AB;stroke-width:0.5;" width="178.377" x="646.9434" y="87.4883"/><text fill="#000000" font-family="Segoe UI" font-size="14" lengthAdjust="spacing" textLength="164.377" x="653.9434" y="108.0234">svc-guide-management</text></g><g class="participant participant-tail" data-participant="guides"><rect fill="#E8F4F8" height="30.4883" rx="2.5" ry="2.5" style="stroke:#2E86AB;stroke-width:0.5;" width="178.377" x="646.9434" y="1446.5977"/><text fill="#000000" font-family="Segoe UI" font-size="14" lengthAdjust="spacing" textLength="164.377" x="653.9434" y="1467.1328">svc-guide-management</text></g><g class="participant participant-head" data-participant="trails"><rect fill="#E8F4F8" height="30.4883" rx="2.5" ry="2.5" style="stroke:#2E86AB;stroke-width:0.5;" width="167.0908" x="835.3203" y="87.4883"/><text fill="#000000" font-family="Segoe UI" font-size="14" lengthAdjust="spacing" textLength="153.0908" x="842.3203" y="108.0234">svc-trail-management</text></g><g class="participant participant-tail" data-participant="trails"><rect fill="#E8F4F8" height="30.4883" rx="2.5" ry="2.5" style="stroke:#2E86AB;stroke-width:0.5;" width="167.0908" x="835.3203" y="1446.5977"/><text fill="#000000" font-family="Segoe UI" font-size="14" lengthAdjust="spacing" textLength="153.0908" x="842.3203" y="1467.1328">svc-trail-management</text></g><g class="participant participant-head" data-participant="weather"><rect fill="#E8F4F8" height="30.4883" rx="2.5" ry="2.5" style="stroke:#2E86AB;stroke-width:0.5;" width="97.4258" x="1012.4111" y="87.4883"/><text fill="#000000" font-family="Segoe UI" font-size="14" lengthAdjust="spacing" textLength="83.4258" x="1019.4111" y="108.0234">svc-weather</text></g><g class="participant participant-tail" data-participant="weather"><rect fill="#E8F4F8" height="30.4883" rx="2.5" ry="2.5" style="stroke:#2E86AB;stroke-width:0.5;" width="97.4258" x="1012.4111" y="1446.5977"/><text fill="#000000" font-family="Segoe UI" font-size="14" lengthAdjust="spacing" textLength="83.4258" x="1019.4111" y="1467.1328">svc-weather</text></g><g class="participant participant-head" data-participant="catalog"><rect fill="#E8F4F8" height="30.4883" rx="2.5" ry="2.5" style="stroke:#2E86AB;stroke-width:0.5;" width="124.8242" x="1119.8369" y="87.4883"/><text fill="#000000" font-family="Segoe UI" font-size="14" lengthAdjust="spacing" textLength="110.8242" x="1126.8369" y="108.0234">svc-trip-catalog</text></g><g class="participant participant-tail" data-participant="catalog"><rect fill="#E8F4F8" height="30.4883" rx="2.5" ry="2.5" style="stroke:#2E86AB;stroke-width:0.5;" width="124.8242" x="1119.8369" y="1446.5977"/><text fill="#000000" font-family="Segoe UI" font-size="14" lengthAdjust="spacing" textLength="110.8242" x="1126.8369" y="1467.1328">svc-trip-catalog</text></g><g class="participant participant-head" data-participant="kafka"><path d="M1259.6611,92.4883 L1307.5938,92.4883 C1312.5938,92.4883 1312.5938,105.7324 1312.5938,105.7324 C1312.5938,105.7324 1312.5938,118.9766 1307.5938,118.9766 L1259.6611,118.9766 C1254.6611,118.9766 1254.6611,105.7324 1254.6611,105.7324 C1254.6611,105.7324 1254.6611,92.4883 1259.6611,92.4883" fill="#E2E2F0" style="stroke:#181818;stroke-width:0.5;"/><path d="M1307.5938,92.4883 C1302.5938,92.4883 1302.5938,105.7324 1302.5938,105.7324 C1302.5938,118.9766 1307.5938,118.9766 1307.5938,118.9766" fill="none" style="stroke:#181818;stroke-width:0.5;"/><text fill="#000000" font-family="Segoe UI" font-size="14" lengthAdjust="spacing" textLength="37.9326" x="1259.6611" y="111.0234">Kafka</text></g><g class="participant participant-tail" data-participant="kafka"><path d="M1259.6611,1446.5977 L1307.5938,1446.5977 C1312.5938,1446.5977 1312.5938,1459.8418 1312.5938,1459.8418 C1312.5938,1459.8418 1312.5938,1473.0859 1307.5938,1473.0859 L1259.6611,1473.0859 C1254.6611,1473.0859 1254.6611,1459.8418 1254.6611,1459.8418 C1254.6611,1459.8418 1254.6611,1446.5977 1259.6611,1446.5977" fill="#E2E2F0" style="stroke:#181818;stroke-width:0.5;"/><path d="M1307.5938,1446.5977 C1302.5938,1446.5977 1302.5938,1459.8418 1302.5938,1459.8418 C1302.5938,1473.0859 1307.5938,1473.0859 1307.5938,1473.0859" fill="none" style="stroke:#181818;stroke-width:0.5;"/><text fill="#000000" font-family="Segoe UI" font-size="14" lengthAdjust="spacing" textLength="37.9326" x="1259.6611" y="1465.1328">Kafka</text></g><g class="message" data-participant-1="admin" data-participant-2="scheduler"><polygon fill="#2E86AB" points="405.5244,146.2871,415.5244,150.2871,405.5244,154.2871,409.5244,150.2871" style="stroke:#2E86AB;stroke-width:1;"/><line style="stroke:#2E86AB;stroke-width:1;" x1="84.2158" x2="411.5244" y1="150.2871" y2="150.2871"/><text fill="#000000" font-family="Segoe UI" font-size="13" lengthAdjust="spacing" textLength="309.3086" x="91.2158" y="145.5449">requestScheduleOptimization(dateRange, region)</text></g><g class="message" data-participant-1="scheduler" data-participant-2="catalog"><polygon fill="#2E86AB" points="1170.249,175.5977,1180.249,179.5977,1170.249,183.5977,1174.249,179.5977" style="stroke:#2E86AB;stroke-width:1;"/><line style="stroke:#2E86AB;stroke-width:1;" x1="417.5244" x2="1176.249" y1="179.5977" y2="179.5977"/><text fill="#000000" font-family="Segoe UI" font-size="13" lengthAdjust="spacing" textLength="240.1636" x="424.5244" y="174.8555">getScheduledTrips(dateRange, region)</text></g><g class="message" data-participant-1="catalog" data-participant-2="scheduler"><polygon fill="#2E86AB" points="428.5244,204.9082,418.5244,208.9082,428.5244,212.9082,424.5244,208.9082" style="stroke:#2E86AB;stroke-width:1;"/><line style="stroke:#2E86AB;stroke-width:1;stroke-dasharray:2,2;" x1="422.5244" x2="1181.249" y1="208.9082" y2="208.9082"/><text fill="#000000" font-family="Segoe UI" font-size="13" lengthAdjust="spacing" textLength="203.3281" x="434.5244" y="204.166">list of trips requiring scheduling</text></g><path d="M344.7432,223.9082 L419.1899,223.9082 L419.1899,231.2188 L409.1899,241.2188 L344.7432,241.2188 L344.7432,223.9082" fill="#EEEEEE" style="stroke:#000000;stroke-width:1.5;"/><rect fill="none" height="251.7949" style="stroke:#000000;stroke-width:1.5;" width="909.918" x="344.7432" y="223.9082"/><text fill="#000000" font-family="Segoe UI" font-size="13" font-weight="bold" lengthAdjust="spacing" textLength="29.4468" x="359.7432" y="237.4766">loop</text><text fill="#000000" font-family="Segoe UI" font-size="11" font-weight="bold" lengthAdjust="spacing" textLength="184.0942" x="434.1899" y="236.543">[for each trip in scheduled trips]</text><g class="message" data-participant-1="scheduler" data-participant-2="catalog"><polygon fill="#2E86AB" points="1170.249,258.5293,1180.249,262.5293,1170.249,266.5293,1174.249,262.5293" style="stroke:#2E86AB;stroke-width:1;"/><line style="stroke:#2E86AB;stroke-width:1;" x1="417.5244" x2="1176.249" y1="262.5293" y2="262.5293"/><text fill="#000000" font-family="Segoe UI" font-size="13" lengthAdjust="spacing" textLength="175.1636" x="424.5244" y="257.7871">getTripRequirements(tripId)</text></g><g class="message" data-participant-1="catalog" data-participant-2="scheduler"><polygon fill="#2E86AB" points="428.5244,287.8398,418.5244,291.8398,428.5244,295.8398,424.5244,291.8398" style="stroke:#2E86AB;stroke-width:1;"/><line style="stroke:#2E86AB;stroke-width:1;stroke-dasharray:2,2;" x1="422.5244" x2="1181.249" y1="291.8398" y2="291.8398"/><text fill="#000000" font-family="Segoe UI" font-size="13" lengthAdjust="spacing" textLength="277.6465" x="434.5244" y="287.0977">required certifications, group size, difficulty</text></g><g class="message" data-participant-1="scheduler" data-participant-2="guides"><polygon fill="#2E86AB" points="724.1318,317.1504,734.1318,321.1504,724.1318,325.1504,728.1318,321.1504" style="stroke:#2E86AB;stroke-width:1;"/><line style="stroke:#2E86AB;stroke-width:1;" x1="417.5244" x2="730.1318" y1="321.1504" y2="321.1504"/><text fill="#000000" font-family="Segoe UI" font-size="13" lengthAdjust="spacing" textLength="294.6074" x="424.5244" y="316.4082">getAvailableGuides(date, region, certifications)</text></g><g class="message" data-participant-1="guides" data-participant-2="scheduler"><polygon fill="#2E86AB" points="428.5244,346.4609,418.5244,350.4609,428.5244,354.4609,424.5244,350.4609" style="stroke:#2E86AB;stroke-width:1;"/><line style="stroke:#2E86AB;stroke-width:1;stroke-dasharray:2,2;" x1="422.5244" x2="735.1318" y1="350.4609" y2="350.4609"/><text fill="#000000" font-family="Segoe UI" font-size="13" lengthAdjust="spacing" textLength="220.6128" x="434.5244" y="345.7188">available guides with qualifications</text></g><g class="message" data-participant-1="scheduler" data-participant-2="trails"><polygon fill="#2E86AB" points="906.8657,375.7715,916.8657,379.7715,906.8657,383.7715,910.8657,379.7715" style="stroke:#2E86AB;stroke-width:1;"/><line style="stroke:#2E86AB;stroke-width:1;" x1="417.5244" x2="912.8657" y1="379.7715" y2="379.7715"/><text fill="#000000" font-family="Segoe UI" font-size="13" lengthAdjust="spacing" textLength="197.6851" x="424.5244" y="375.0293">getTrailConditions(trailId, date)</text></g><g class="message" data-participant-1="trails" data-participant-2="scheduler"><polygon fill="#2E86AB" points="428.5244,405.082,418.5244,409.082,428.5244,413.082,424.5244,409.082" style="stroke:#2E86AB;stroke-width:1;"/><line style="stroke:#2E86AB;stroke-width:1;stroke-dasharray:2,2;" x1="422.5244" x2="917.8657" y1="409.082" y2="409.082"/><text fill="#000000" font-family="Segoe UI" font-size="13" lengthAdjust="spacing" textLength="305.4556" x="434.5244" y="404.3398">trail status (open/closed, hazards, maintenance)</text></g><g class="message" data-participant-1="scheduler" data-participant-2="weather"><polygon fill="#2E86AB" points="1049.124,434.3926,1059.124,438.3926,1049.124,442.3926,1053.124,438.3926" style="stroke:#2E86AB;stroke-width:1;"/><line style="stroke:#2E86AB;stroke-width:1;" x1="417.5244" x2="1055.124" y1="438.3926" y2="438.3926"/><text fill="#000000" font-family="Segoe UI" font-size="13" lengthAdjust="spacing" textLength="157.6821" x="424.5244" y="433.6504">getForecast(region, date)</text></g><g class="message" data-participant-1="weather" data-participant-2="scheduler"><polygon fill="#2E86AB" points="428.5244,463.7031,418.5244,467.7031,428.5244,471.7031,424.5244,467.7031" style="stroke:#2E86AB;stroke-width:1;"/><line style="stroke:#2E86AB;stroke-width:1;stroke-dasharray:2,2;" x1="422.5244" x2="1060.124" y1="467.7031" y2="467.7031"/><text fill="#000000" font-family="Segoe UI" font-size="13" lengthAdjust="spacing" textLength="278.7256" x="434.5244" y="462.9609">weather forecast (temp, precip, wind, alerts)</text></g><g class="message" data-participant-1="scheduler" data-participant-2="scheduler"><line style="stroke:#2E86AB;stroke-width:1;" x1="417.5244" x2="459.5244" y1="504.0137" y2="504.0137"/><line style="stroke:#2E86AB;stroke-width:1;" x1="459.5244" x2="459.5244" y1="504.0137" y2="517.0137"/><line style="stroke:#2E86AB;stroke-width:1;" x1="418.5244" x2="459.5244" y1="517.0137" y2="517.0137"/><polygon fill="#2E86AB" points="428.5244,513.0137,418.5244,517.0137,428.5244,521.0137,424.5244,517.0137" style="stroke:#2E86AB;stroke-width:1;"/><text fill="#000000" font-family="Segoe UI" font-size="13" lengthAdjust="spacing" textLength="170.8408" x="424.5244" y="499.2715">run optimization algorithm</text></g><path d="M344.7432,532.0137 L406.8818,532.0137 L406.8818,539.3242 L396.8818,549.3242 L344.7432,549.3242 L344.7432,532.0137" fill="#EEEEEE" style="stroke:#000000;stroke-width:1.5;"/><rect fill="none" height="475.5918" style="stroke:#000000;stroke-width:1.5;" width="667.668" x="344.7432" y="532.0137"/><text fill="#000000" font-family="Segoe UI" font-size="13" font-weight="bold" lengthAdjust="spacing" textLength="17.1387" x="359.7432" y="545.582">alt</text><text fill="#000000" font-family="Segoe UI" font-size="11" font-weight="bold" lengthAdjust="spacing" textLength="127.918" x="421.8818" y="544.6484">[No conflicts detected]</text><g class="message" data-participant-1="scheduler" data-participant-2="scheduler"><line style="stroke:#2E86AB;stroke-width:1;" x1="417.5244" x2="459.5244" y1="570.6348" y2="570.6348"/><line style="stroke:#2E86AB;stroke-width:1;" x1="459.5244" x2="459.5244" y1="570.6348" y2="583.6348"/><line style="stroke:#2E86AB;stroke-width:1;" x1="418.5244" x2="459.5244" y1="583.6348" y2="583.6348"/><polygon fill="#2E86AB" points="428.5244,579.6348,418.5244,583.6348,428.5244,587.6348,424.5244,583.6348" style="stroke:#2E86AB;stroke-width:1;"/><text fill="#000000" font-family="Segoe UI" font-size="13" lengthAdjust="spacing" textLength="167.1973" x="424.5244" y="565.8926">generate optimal schedule</text></g><line style="stroke:#000000;stroke-width:1;stroke-dasharray:2,2;" x1="344.7432" x2="1012.4111" y1="592.6348" y2="592.6348"/><text fill="#000000" font-family="Segoe UI" font-size="11" font-weight="bold" lengthAdjust="spacing" textLength="152.2437" x="349.7432" y="603.2695">[Guide availability conflict]</text><g class="message" data-participant-1="scheduler" data-participant-2="scheduler"><line style="stroke:#2E86AB;stroke-width:1;" x1="417.5244" x2="459.5244" y1="627.9004" y2="627.9004"/><line style="stroke:#2E86AB;stroke-width:1;" x1="459.5244" x2="459.5244" y1="627.9004" y2="640.9004"/><line style="stroke:#2E86AB;stroke-width:1;" x1="418.5244" x2="459.5244" y1="640.9004" y2="640.9004"/><polygon fill="#2E86AB" points="428.5244,636.9004,418.5244,640.9004,428.5244,644.9004,424.5244,640.9004" style="stroke:#2E86AB;stroke-width:1;"/><text fill="#000000" font-family="Segoe UI" font-size="13" lengthAdjust="spacing" textLength="243.2358" x="424.5244" y="623.1582">reassign guides by qualification match</text></g><g class="message" data-participant-1="scheduler" data-participant-2="guides"><polygon fill="#2E86AB" points="724.1318,666.2109,734.1318,670.2109,724.1318,674.2109,728.1318,670.2109" style="stroke:#2E86AB;stroke-width:1;"/><line style="stroke:#2E86AB;stroke-width:1;" x1="417.5244" x2="730.1318" y1="670.2109" y2="670.2109"/><text fill="#000000" font-family="Segoe UI" font-size="13" lengthAdjust="spacing" textLength="262.666" x="424.5244" y="665.4688">checkAlternateGuides(date, certifications)</text></g><g class="message" data-participant-1="guides" data-participant-2="scheduler"><polygon fill="#2E86AB" points="428.5244,695.5215,418.5244,699.5215,428.5244,703.5215,424.5244,699.5215" style="stroke:#2E86AB;stroke-width:1;"/><line style="stroke:#2E86AB;stroke-width:1;stroke-dasharray:2,2;" x1="422.5244" x2="735.1318" y1="699.5215" y2="699.5215"/><text fill="#000000" font-family="Segoe UI" font-size="13" lengthAdjust="spacing" textLength="146.7642" x="434.5244" y="694.7793">alternate guide options</text></g><g class="message" data-participant-1="scheduler" data-participant-2="scheduler"><line style="stroke:#2E86AB;stroke-width:1;" x1="417.5244" x2="459.5244" y1="728.832" y2="728.832"/><line style="stroke:#2E86AB;stroke-width:1;" x1="459.5244" x2="459.5244" y1="728.832" y2="741.832"/><line style="stroke:#2E86AB;stroke-width:1;" x1="418.5244" x2="459.5244" y1="741.832" y2="741.832"/><polygon fill="#2E86AB" points="428.5244,737.832,418.5244,741.832,428.5244,745.832,424.5244,741.832" style="stroke:#2E86AB;stroke-width:1;"/><text fill="#000000" font-family="Segoe UI" font-size="13" lengthAdjust="spacing" textLength="167.1401" x="424.5244" y="724.0898">resolve with best-fit guide</text></g><line style="stroke:#000000;stroke-width:1;stroke-dasharray:2,2;" x1="344.7432" x2="1012.4111" y1="750.832" y2="750.832"/><text fill="#000000" font-family="Segoe UI" font-size="11" font-weight="bold" lengthAdjust="spacing" textLength="137.5591" x="349.7432" y="761.4668">[Trail closure or hazard]</text><g class="message" data-participant-1="scheduler" data-participant-2="scheduler"><line style="stroke:#2E86AB;stroke-width:1;" x1="417.5244" x2="459.5244" y1="786.0977" y2="786.0977"/><line style="stroke:#2E86AB;stroke-width:1;" x1="459.5244" x2="459.5244" y1="786.0977" y2="799.0977"/><line style="stroke:#2E86AB;stroke-width:1;" x1="418.5244" x2="459.5244" y1="799.0977" y2="799.0977"/><polygon fill="#2E86AB" points="428.5244,795.0977,418.5244,799.0977,428.5244,803.0977,424.5244,799.0977" style="stroke:#2E86AB;stroke-width:1;"/><text fill="#000000" font-family="Segoe UI" font-size="13" lengthAdjust="spacing" textLength="142.8857" x="424.5244" y="781.3555">identify alternate trails</text></g><g class="message" data-participant-1="scheduler" data-participant-2="trails"><polygon fill="#2E86AB" points="906.8657,824.4082,916.8657,828.4082,906.8657,832.4082,910.8657,828.4082" style="stroke:#2E86AB;stroke-width:1;"/><line style="stroke:#2E86AB;stroke-width:1;" x1="417.5244" x2="912.8657" y1="828.4082" y2="828.4082"/><text fill="#000000" font-family="Segoe UI" font-size="13" lengthAdjust="spacing" textLength="225.1323" x="424.5244" y="823.666">getAlternateTrails(difficulty, region)</text></g><g class="message" data-participant-1="trails" data-participant-2="scheduler"><polygon fill="#2E86AB" points="428.5244,853.7188,418.5244,857.7188,428.5244,861.7188,424.5244,857.7188" style="stroke:#2E86AB;stroke-width:1;"/><line style="stroke:#2E86AB;stroke-width:1;stroke-dasharray:2,2;" x1="422.5244" x2="917.8657" y1="857.7188" y2="857.7188"/><text fill="#000000" font-family="Segoe UI" font-size="13" lengthAdjust="spacing" textLength="136.2842" x="434.5244" y="852.9766">alternate trail options</text></g><g class="message" data-participant-1="scheduler" data-participant-2="scheduler"><line style="stroke:#2E86AB;stroke-width:1;" x1="417.5244" x2="459.5244" y1="887.0293" y2="887.0293"/><line style="stroke:#2E86AB;stroke-width:1;" x1="459.5244" x2="459.5244" y1="887.0293" y2="900.0293"/><line style="stroke:#2E86AB;stroke-width:1;" x1="418.5244" x2="459.5244" y1="900.0293" y2="900.0293"/><polygon fill="#2E86AB" points="428.5244,896.0293,418.5244,900.0293,428.5244,904.0293,424.5244,900.0293" style="stroke:#2E86AB;stroke-width:1;"/><text fill="#000000" font-family="Segoe UI" font-size="13" lengthAdjust="spacing" textLength="133.9419" x="424.5244" y="882.2871">reroute affected trips</text></g><line style="stroke:#000000;stroke-width:1;stroke-dasharray:2,2;" x1="344.7432" x2="1012.4111" y1="909.0293" y2="909.0293"/><text fill="#000000" font-family="Segoe UI" font-size="11" font-weight="bold" lengthAdjust="spacing" textLength="124.0293" x="349.7432" y="919.6641">[Severe weather alert]</text><g class="message" data-participant-1="scheduler" data-participant-2="scheduler"><line style="stroke:#2E86AB;stroke-width:1;" x1="417.5244" x2="459.5244" y1="944.2949" y2="944.2949"/><line style="stroke:#2E86AB;stroke-width:1;" x1="459.5244" x2="459.5244" y1="944.2949" y2="957.2949"/><line style="stroke:#2E86AB;stroke-width:1;" x1="418.5244" x2="459.5244" y1="957.2949" y2="957.2949"/><polygon fill="#2E86AB" points="428.5244,953.2949,418.5244,957.2949,428.5244,961.2949,424.5244,957.2949" style="stroke:#2E86AB;stroke-width:1;"/><text fill="#000000" font-family="Segoe UI" font-size="13" lengthAdjust="spacing" textLength="202.5918" x="424.5244" y="939.5527">flag trips for cancellation review</text></g><g class="message" data-participant-1="scheduler" data-participant-2="scheduler"><line style="stroke:#2E86AB;stroke-width:1;" x1="417.5244" x2="459.5244" y1="986.6055" y2="986.6055"/><line style="stroke:#2E86AB;stroke-width:1;" x1="459.5244" x2="459.5244" y1="986.6055" y2="999.6055"/><line style="stroke:#2E86AB;stroke-width:1;" x1="418.5244" x2="459.5244" y1="999.6055" y2="999.6055"/><polygon fill="#2E86AB" points="428.5244,995.6055,418.5244,999.6055,428.5244,1003.6055,424.5244,999.6055" style="stroke:#2E86AB;stroke-width:1;"/><text fill="#000000" font-family="Segoe UI" font-size="13" lengthAdjust="spacing" textLength="162.2524" x="424.5244" y="981.8633">propose reschedule dates</text></g><g class="message" data-participant-1="scheduler" data-participant-2="admin"><polygon fill="#2E86AB" points="95.2158,1047.2266,85.2158,1051.2266,95.2158,1055.2266,91.2158,1051.2266" style="stroke:#2E86AB;stroke-width:1;"/><line style="stroke:#2E86AB;stroke-width:1;stroke-dasharray:2,2;" x1="89.2158" x2="416.5244" y1="1051.2266" y2="1051.2266"/><text fill="#000000" font-family="Segoe UI" font-size="13" lengthAdjust="spacing" textLength="187.3384" x="101.2158" y="1031.1738">proposed optimized schedule</text><text fill="#000000" font-family="Segoe UI" font-size="13" lengthAdjust="spacing" textLength="249.5518" x="101.2158" y="1046.4844">(assignments, conflicts resolved, alerts)</text></g><g class="message" data-participant-1="admin" data-participant-2="admin"><line style="stroke:#2E86AB;stroke-width:1;" x1="84.2158" x2="126.2158" y1="1080.5371" y2="1080.5371"/><line style="stroke:#2E86AB;stroke-width:1;" x1="126.2158" x2="126.2158" y1="1080.5371" y2="1093.5371"/><line style="stroke:#2E86AB;stroke-width:1;" x1="85.2158" x2="126.2158" y1="1093.5371" y2="1093.5371"/><polygon fill="#2E86AB" points="95.2158,1089.5371,85.2158,1093.5371,95.2158,1097.5371,91.2158,1093.5371" style="stroke:#2E86AB;stroke-width:1;"/><text fill="#000000" font-family="Segoe UI" font-size="13" lengthAdjust="spacing" textLength="164.0869" x="91.2158" y="1075.7949">review proposed schedule</text></g><path d="M10,1108.5371 L72.1387,1108.5371 L72.1387,1115.8477 L62.1387,1125.8477 L10,1125.8477 L10,1108.5371" fill="#EEEEEE" style="stroke:#000000;stroke-width:1.5;"/><rect fill="none" height="322.0605" style="stroke:#000000;stroke-width:1.5;" width="1312.5938" x="10" y="1108.5371"/><text fill="#000000" font-family="Segoe UI" font-size="13" font-weight="bold" lengthAdjust="spacing" textLength="17.1387" x="25" y="1122.1055">alt</text><text fill="#000000" font-family="Segoe UI" font-size="11" font-weight="bold" lengthAdjust="spacing" textLength="154.8003" x="87.1387" y="1121.1719">[Admin approves schedule]</text><g class="message" data-participant-1="admin" data-participant-2="scheduler"><polygon fill="#2E86AB" points="405.5244,1143.1582,415.5244,1147.1582,405.5244,1151.1582,409.5244,1147.1582" style="stroke:#2E86AB;stroke-width:1;"/><line style="stroke:#2E86AB;stroke-width:1;" x1="84.2158" x2="411.5244" y1="1147.1582" y2="1147.1582"/><text fill="#000000" font-family="Segoe UI" font-size="13" lengthAdjust="spacing" textLength="183.2695" x="91.2158" y="1142.416">approveSchedule(scheduleId)</text></g><g class="message" data-participant-1="scheduler" data-participant-2="scheduler"><line style="stroke:#2E86AB;stroke-width:1;" x1="417.5244" x2="459.5244" y1="1176.4688" y2="1176.4688"/><line style="stroke:#2E86AB;stroke-width:1;" x1="459.5244" x2="459.5244" y1="1176.4688" y2="1189.4688"/><line style="stroke:#2E86AB;stroke-width:1;" x1="418.5244" x2="459.5244" y1="1189.4688" y2="1189.4688"/><polygon fill="#2E86AB" points="428.5244,1185.4688,418.5244,1189.4688,428.5244,1193.4688,424.5244,1189.4688" style="stroke:#2E86AB;stroke-width:1;"/><text fill="#000000" font-family="Segoe UI" font-size="13" lengthAdjust="spacing" textLength="129.4097" x="424.5244" y="1171.7266">finalize assignments</text></g><g class="message" data-participant-1="scheduler" data-participant-2="guides"><polygon fill="#2E86AB" points="724.1318,1214.7793,734.1318,1218.7793,724.1318,1222.7793,728.1318,1218.7793" style="stroke:#2E86AB;stroke-width:1;"/><line style="stroke:#2E86AB;stroke-width:1;" x1="417.5244" x2="730.1318" y1="1218.7793" y2="1218.7793"/><text fill="#000000" font-family="Segoe UI" font-size="13" lengthAdjust="spacing" textLength="206.1782" x="424.5244" y="1214.0371">assignTrips(guideId, tripId, date)</text></g><g class="message" data-participant-1="guides" data-participant-2="scheduler"><polygon fill="#2E86AB" points="428.5244,1244.0898,418.5244,1248.0898,428.5244,1252.0898,424.5244,1248.0898" style="stroke:#2E86AB;stroke-width:1;"/><line style="stroke:#2E86AB;stroke-width:1;stroke-dasharray:2,2;" x1="422.5244" x2="735.1318" y1="1248.0898" y2="1248.0898"/><text fill="#000000" font-family="Segoe UI" font-size="13" lengthAdjust="spacing" textLength="147.5449" x="434.5244" y="1243.3477">assignments confirmed</text></g><g class="message" data-participant-1="scheduler" data-participant-2="kafka"><polygon fill="#2E86AB" points="1271.6274,1273.4004,1281.6274,1277.4004,1271.6274,1281.4004,1275.6274,1277.4004" style="stroke:#2E86AB;stroke-width:1;"/><line style="stroke:#2E86AB;stroke-width:1;" x1="417.5244" x2="1277.6274" y1="1277.4004" y2="1277.4004"/><text fill="#000000" font-family="Segoe UI" font-size="13" lengthAdjust="spacing" textLength="174.2749" x="424.5244" y="1272.6582">publish schedule.optimized</text></g><g class="message" data-participant-1="scheduler" data-participant-2="admin"><polygon fill="#2E86AB" points="95.2158,1302.7109,85.2158,1306.7109,95.2158,1310.7109,91.2158,1306.7109" style="stroke:#2E86AB;stroke-width:1;"/><line style="stroke:#2E86AB;stroke-width:1;stroke-dasharray:2,2;" x1="89.2158" x2="416.5244" y1="1306.7109" y2="1306.7109"/><text fill="#000000" font-family="Segoe UI" font-size="13" lengthAdjust="spacing" textLength="201.8047" x="101.2158" y="1301.9688">schedule published successfully</text></g><line style="stroke:#000000;stroke-width:1;stroke-dasharray:2,2;" x1="10" x2="1322.5938" y1="1315.7109" y2="1315.7109"/><text fill="#000000" font-family="Segoe UI" font-size="11" font-weight="bold" lengthAdjust="spacing" textLength="148.2529" x="15" y="1326.3457">[Admin requests changes]</text><g class="message" data-participant-1="admin" data-participant-2="scheduler"><polygon fill="#2E86AB" points="405.5244,1346.9766,415.5244,1350.9766,405.5244,1354.9766,409.5244,1350.9766" style="stroke:#2E86AB;stroke-width:1;"/><line style="stroke:#2E86AB;stroke-width:1;" x1="84.2158" x2="411.5244" y1="1350.9766" y2="1350.9766"/><text fill="#000000" font-family="Segoe UI" font-size="13" lengthAdjust="spacing" textLength="186.1196" x="91.2158" y="1346.2344">requestModification(changes)</text></g><g class="message" data-participant-1="scheduler" data-participant-2="scheduler"><line style="stroke:#2E86AB;stroke-width:1;" x1="417.5244" x2="459.5244" y1="1380.2871" y2="1380.2871"/><line style="stroke:#2E86AB;stroke-width:1;" x1="459.5244" x2="459.5244" y1="1380.2871" y2="1393.2871"/><line style="stroke:#2E86AB;stroke-width:1;" x1="418.5244" x2="459.5244" y1="1393.2871" y2="1393.2871"/><polygon fill="#2E86AB" points="428.5244,1389.2871,418.5244,1393.2871,428.5244,1397.2871,424.5244,1393.2871" style="stroke:#2E86AB;stroke-width:1;"/><text fill="#000000" font-family="Segoe UI" font-size="13" lengthAdjust="spacing" textLength="180.4067" x="424.5244" y="1375.5449">re-optimize with constraints</text></g><g class="message" data-participant-1="scheduler" data-participant-2="admin"><polygon fill="#2E86AB" points="95.2158,1418.5977,85.2158,1422.5977,95.2158,1426.5977,91.2158,1422.5977" style="stroke:#2E86AB;stroke-width:1;"/><line style="stroke:#2E86AB;stroke-width:1;stroke-dasharray:2,2;" x1="89.2158" x2="416.5244" y1="1422.5977" y2="1422.5977"/><text fill="#000000" font-family="Segoe UI" font-size="13" lengthAdjust="spacing" textLength="164.3916" x="101.2158" y="1417.8555">revised schedule proposal</text></g><!--SRC=[hLPHRzis47xNho2oXpf0lAtPi0K3Di1fug9OrWP9zzQNCtcI2TEaIb9sas7_VKTIb6JPSRSboKCKykvu_FXzT_UAlJSR-6XnnMPYWzet5XsRidk-HD4egIlsmTAtynQyD9hDbTaMhyXuBVLKM4a-p2LZPARsSYqVaoLmQvnZLIC5kZD60QIYlw05soBu9TgYyDAJs_z9eN0hgMkmi6OBuAlAcaQBDqOPoxwPNuVVWOLRWZ3R4Aa4vN2m8x24HlcvqVuzh96Tt6DbaFtvxcJeZfyRr1pPNmMZdvcrPjiUTNvzyTFiCYxVWlMIongqlpHMe3rkCaxw-cB-u_mYcjt84c-anfqmi_CVBdy-Z_kNvilErlprnVpxrztM7XppEUqNVnVqRhy-uuVS1nTmpuq6t5Ds9v59x0hSSc70YXC6Za5OA-h-C7RYDdpgEaPCFsdJSSBOw9HPQFST8mUdQz1GuPeO5kqJCVUD8r77necz-yOjawDDPlM1YBAUSl2WJ1Kjs- -2QDKGvtw7SWLnOnM-Nk2TxhCYFmmLUHTuxFop7ow-sFIt7d7s2xCfTZvuUEv4WCSxq1MUaLb5AwT5xqfnMZWeIeLT1F6HK7E7VBFvT9I2aiupKx80jui9IHiqtzFc1P2zeiFPs_ZG8VQDCVLpWogAmKhI0W9VnkoPx8kgIFU9wduQjG3MNRnnvAoR1ATtuZIwFGLOWeXEu4YCBIMFpqKrEfIFcZdvIAWBMT8ErSY7OZ-7fA6Kmcn34e65mhTnCRvSVhIpqH4fhzPxd1RaGDbWA_sIVMv0zG4Ev98ack6WxpT62ncj9t7ldQ3RK5BfyDPyV7XSPiw3RnoRc1hrTrmPX-IxX4SgK0JF6gJsg85Qmkc1HDewa3AP6uiSd9za8FeCijquXRnUjgviud5Tdx6Q_fNqbnePPGDax0b8rE85Q4rObKfopwxG8q_zcnhr7JgZcl3lSu_OGMY7X8qUpGsgCfPUV5qKe3mD1uotoJbgro4x5FkW3qDMg97wGZkFWEes2wJkpo8_CykaalwXE-5uN8lWdAnqvkNYOPULH0pFbqTKGejyDLCUhQRqTdJoN_IH0oI3UCiWYQ_aJY-vmQIb1LNgQIbz2f1GYP9XWUiqVp6gHedknwEIjwQq7mOvjPtog3mx2EAX145NO_egVqIZeyF-BG1KrCW5oZ9Ig2shyUxtk46wT1PUbDRnQAM2gcqqeNBpK0kKIYomk96uFUvVMrDJLGdFabjru85x8JdVfl2Y7mHkwIHwAtXXBTErqZZGNKbaDTDNDloa9qaviJUT3GJTqd9Gpxhf8iTDSFRXEp77yf36HwXfUuFz41ZHFpYejAOPc4dUoytowIUNchJ-I0pght94wyag3J5nCRIVr9M7JU0fZVTdHBIaNH-gUd5U3DWt2vf-bjtcjzqRZ7q6m7RCQxq3jWtdw5pPAFMGf97mRQSxocKPPZ7tDBojvHz6TDLiqZgTVasWqvnrgb9qxp3VomCuZ-Wnf4LB551HIly0]--></g></svg>