<svg xmlns="http://www.w3.org/2000/svg" viewBox="-20 -20 1040 740" width="100%">
<rect x="-20" y="-20" width="1040" height="740" fill="#fafafa" stroke="#e0e0e0" stroke-width="1"/>
<rect x="0" y="0" width="240" height="700" fill="#2C3E50" stroke="#2C3E50" stroke-width="2" rx="4"/>
<text x="15" y="31" font-size="16" fill="#FFFFFF" font-family="sans-serif">Operations Dashboard</text>
<text x="15" y="94" font-size="14" fill="#4CAF50" font-family="sans-serif">Daily Schedule</text>
<text x="15" y="134" font-size="14" fill="#CCCCCC" font-family="sans-serif">Check-In Station</text>
<text x="15" y="174" font-size="14" fill="#CCCCCC" font-family="sans-serif">Guide Assignment</text>
<text x="15" y="214" font-size="14" fill="#CCCCCC" font-family="sans-serif">Safety Incidents</text>
<text x="15" y="254" font-size="14" fill="#CCCCCC" font-family="sans-serif">Inventory</text>
<text x="15" y="294" font-size="14" fill="#CCCCCC" font-family="sans-serif">Transport Dispatch</text>
<text x="15" y="334" font-size="14" fill="#CCCCCC" font-family="sans-serif">Analytics</text>
<text x="15" y="374" font-size="14" fill="#CCCCCC" font-family="sans-serif">Partner Bookings</text>
<rect x="240" y="0" width="760" height="60" fill="#FFFFFF" stroke="#E0E0E0" stroke-width="2" rx="4"/>
<text x="260" y="33" font-size="18" fill="#333333" font-family="sans-serif">Daily Schedule Board - March 19, 2026</text>
<rect x="260" y="80" width="220" height="90" fill="#E3F2FD" stroke="#2196F3" stroke-width="2" rx="4"/>
<text x="275" y="102" font-size="12" fill="#1565C0" font-family="sans-serif">Weather Forecast</text>
<text x="275" y="129" font-size="14" fill="#333333" font-family="sans-serif">72F  Partly Cloudy
Wind: 8 mph NW</text>
<rect x="500" y="80" width="220" height="90" fill="#E8F5E9" stroke="#4CAF50" stroke-width="2" rx="4"/>
<text x="515" y="102" font-size="12" fill="#2E7D32" font-family="sans-serif">Trail Conditions</text>
<text x="515" y="129" font-size="14" fill="#333333" font-family="sans-serif">12 Open  |  2 Restricted
1 Closed (maintenance)</text>
<rect x="740" y="80" width="220" height="90" fill="#FFF3E0" stroke="#FF9800" stroke-width="2" rx="4"/>
<text x="755" y="102" font-size="12" fill="#E65100" font-family="sans-serif">Location Capacity</text>
<text x="755" y="129" font-size="14" fill="#333333" font-family="sans-serif">Base Camp: 78%
Summit Lodge: 45%</text>
<rect x="260" y="190" width="700" height="40" fill="#F5F5F5" stroke="#E0E0E0" stroke-width="2" rx="4"/>
<text x="275" y="212" font-size="12" fill="#666666" font-family="sans-serif">Time</text>
<text x="365" y="212" font-size="12" fill="#666666" font-family="sans-serif">Adventure</text>
<text x="535" y="212" font-size="12" fill="#666666" font-family="sans-serif">Guide</text>
<text x="665" y="212" font-size="12" fill="#666666" font-family="sans-serif">Guests</text>
<text x="775" y="212" font-size="12" fill="#666666" font-family="sans-serif">Status</text>
<text x="885" y="212" font-size="12" fill="#666666" font-family="sans-serif">Action</text>
<rect x="260" y="230" width="700" height="45" fill="#FFFFFF" stroke="#E0E0E0" stroke-width="2" rx="4"/>
<text x="275" y="255" font-size="13" fill="#333333" font-family="sans-serif">07:00 AM</text>
<text x="365" y="255" font-size="13" fill="#333333" font-family="sans-serif">Sunrise Peak Hike</text>
<text x="535" y="255" font-size="13" fill="#333333" font-family="sans-serif">Maria Chen</text>
<text x="665" y="255" font-size="13" fill="#333333" font-family="sans-serif">8 / 12</text>
<rect x="770" y="240" width="80" height="24" fill="#E8F5E9" stroke="#4CAF50" stroke-width="2" rx="4"/>
<text x="785" y="256" font-size="11" fill="#2E7D32" font-family="sans-serif">On Track</text>
<text x="885" y="255" font-size="13" fill="#1565C0" font-family="sans-serif">[Edit]</text>
<rect x="260" y="275" width="700" height="45" fill="#FFF8E1" stroke="#E0E0E0" stroke-width="2" rx="4"/>
<text x="275" y="300" font-size="13" fill="#333333" font-family="sans-serif">08:30 AM</text>
<text x="365" y="300" font-size="13" fill="#333333" font-family="sans-serif">River Kayaking Exped.</text>
<text x="535" y="300" font-size="13" fill="#333333" font-family="sans-serif">Jake Morrison</text>
<text x="665" y="300" font-size="13" fill="#333333" font-family="sans-serif">6 / 6</text>
<rect x="770" y="285" width="80" height="24" fill="#FFF3E0" stroke="#FF9800" stroke-width="2" rx="4"/>
<text x="779" y="301" font-size="11" fill="#E65100" font-family="sans-serif">Weather</text>
<text x="885" y="300" font-size="13" fill="#1565C0" font-family="sans-serif">[Edit]</text>
<rect x="260" y="320" width="700" height="45" fill="#FFFFFF" stroke="#E0E0E0" stroke-width="2" rx="4"/>
<text x="275" y="345" font-size="13" fill="#333333" font-family="sans-serif">09:00 AM</text>
<text x="365" y="345" font-size="13" fill="#333333" font-family="sans-serif">Canopy Zipline Tour</text>
<text x="535" y="345" font-size="13" fill="#E91E63" font-family="sans-serif">Unassigned</text>
<text x="665" y="345" font-size="13" fill="#333333" font-family="sans-serif">10 / 15</text>
<rect x="770" y="330" width="100" height="24" fill="#FCE4EC" stroke="#E91E63" stroke-width="2" rx="4"/>
<text x="778" y="346" font-size="11" fill="#AD1457" font-family="sans-serif">Needs Guide</text>
<text x="885" y="345" font-size="13" fill="#1565C0" font-family="sans-serif">[Assign]</text>
<rect x="260" y="365" width="700" height="45" fill="#FFFFFF" stroke="#E0E0E0" stroke-width="2" rx="4"/>
<text x="275" y="390" font-size="13" fill="#333333" font-family="sans-serif">10:00 AM</text>
<text x="365" y="390" font-size="13" fill="#333333" font-family="sans-serif">Wildlife Safari Walk</text>
<text x="535" y="390" font-size="13" fill="#333333" font-family="sans-serif">Arun Patel</text>
<text x="665" y="390" font-size="13" fill="#333333" font-family="sans-serif">4 / 8</text>
<rect x="770" y="375" width="80" height="24" fill="#E8F5E9" stroke="#4CAF50" stroke-width="2" rx="4"/>
<text x="785" y="391" font-size="11" fill="#2E7D32" font-family="sans-serif">On Track</text>
<text x="885" y="390" font-size="13" fill="#1565C0" font-family="sans-serif">[Edit]</text>
<rect x="260" y="410" width="700" height="45" fill="#FFEBEE" stroke="#E0E0E0" stroke-width="2" rx="4"/>
<text x="275" y="435" font-size="13" fill="#333333" font-family="sans-serif">01:00 PM</text>
<text x="365" y="435" font-size="13" fill="#333333" font-family="sans-serif">Mountain Rappelling</text>
<text x="535" y="435" font-size="13" fill="#333333" font-family="sans-serif">Lisa Torres</text>
<text x="665" y="435" font-size="13" fill="#333333" font-family="sans-serif">3 / 4</text>
<rect x="770" y="420" width="100" height="24" fill="#FFEBEE" stroke="#E91E63" stroke-width="2" rx="4"/>
<text x="778" y="436" font-size="11" fill="#C62828" font-family="sans-serif">Trail Closed</text>
<text x="885" y="435" font-size="13" fill="#1565C0" font-family="sans-serif">[Reroute]</text>
<rect x="260" y="480" width="340" height="200" fill="#FFFFFF" stroke="#E0E0E0" stroke-width="2" rx="4"/>
<text x="275" y="504" font-size="14" fill="#333333" font-family="sans-serif">Guide Availability Summary</text>
<text x="275" y="533" font-size="13" fill="#555555" font-family="sans-serif">Total Guides On Duty:     14
Assigned:                 11
Available:                 3
On Break:                  2
Certified for Rappelling:  4</text>
<rect x="620" y="480" width="340" height="200" fill="#FFFFFF" stroke="#E0E0E0" stroke-width="2" rx="4"/>
<text x="635" y="504" font-size="14" fill="#333333" font-family="sans-serif">Today&#x27;s Schedule Summary</text>
<text x="635" y="533" font-size="13" fill="#555555" font-family="sans-serif">Total Adventures:         18
Completed:                 3
In Progress:               2
Upcoming:                 12
Cancelled:                 1
Total Guests Booked:     142</text>
</svg>