<svg xmlns="http://www.w3.org/2000/svg" viewBox="-20 -20 840 640" width="100%">
<rect x="-20" y="-20" width="840" height="640" fill="#fafafa" stroke="#e0e0e0" stroke-width="1"/>
<rect x="0" y="0" width="240" height="600" fill="#2C3E50" stroke="#2C3E50" stroke-width="2" rx="4"/>
<text x="15" y="31" font-size="16" fill="#FFFFFF" font-family="sans-serif">Operations Dashboard</text>
<text x="15" y="94" font-size="14" fill="#4CAF50" font-family="sans-serif">Live Tracking</text>
<text x="15" y="134" font-size="14" fill="#CCCCCC" font-family="sans-serif">Adventures Today</text>
<text x="15" y="174" font-size="14" fill="#CCCCCC" font-family="sans-serif">Alerts &amp; Incidents</text>
<rect x="240" y="0" width="560" height="60" fill="#FFFFFF" stroke="#E0E0E0" stroke-width="2" rx="4"/>
<text x="260" y="33" font-size="18" fill="#333333" font-family="sans-serif">Live Adventure Tracking - 15 Active Adventures</text>
<rect x="240" y="80" width="560" height="350" fill="#E8F5E9" stroke="#4CAF50" stroke-width="2" rx="4"/>
<text x="400" y="264" font-size="14" fill="#666666" font-family="sans-serif">[ Live Map with Guest Positions ]</text>
<rect x="240" y="450" width="560" height="150" fill="#FFFFFF" stroke="#E0E0E0" stroke-width="2" rx="4"/>
<rect x="260" y="470" width="130" height="100" fill="#E3F2FD" stroke="#2196F3" stroke-width="2" rx="4"/>
<text x="275" y="497" font-size="12" fill="#1565C0" font-family="sans-serif">Guests on Trail</text>
<text x="310" y="540" font-size="20" fill="#1565C0" font-family="sans-serif">245</text>
<rect x="420" y="470" width="130" height="100" fill="#FCE4EC" stroke="#E91E63" stroke-width="2" rx="4"/>
<text x="440" y="497" font-size="12" fill="#AD1457" font-family="sans-serif">Critical Alerts</text>
<text x="465" y="540" font-size="20" fill="#AD1457" font-family="sans-serif">2</text>
<rect x="580" y="470" width="200" height="100" fill="#FFF3E0" stroke="#FF9800" stroke-width="2" rx="4"/>
<text x="600" y="497" font-size="12" fill="#E65100" font-family="sans-serif">Avg Response Time</text>
<text x="650" y="540" font-size="20" fill="#E65100" font-family="sans-serif">4.2 min</text>
</svg>