<svg xmlns="http://www.w3.org/2000/svg" viewBox="-20 -20 1040 740" width="100%">
<rect x="-20" y="-20" width="1040" height="740" fill="#fafafa" stroke="#e0e0e0" stroke-width="1"/>
<rect x="0" y="0" width="240" height="700" fill="#2C3E50" stroke="#2C3E50" stroke-width="2" rx="4"/>
<text x="15" y="31" font-size="16" fill="#FFFFFF" font-family="sans-serif">Operations Dashboard</text>
<text x="15" y="94" font-size="14" fill="#CCCCCC" font-family="sans-serif">Daily Schedule</text>
<text x="15" y="134" font-size="14" fill="#CCCCCC" font-family="sans-serif">Check-In Station</text>
<text x="15" y="174" font-size="14" fill="#CCCCCC" font-family="sans-serif">Guide Assignment</text>
<text x="15" y="214" font-size="14" fill="#CCCCCC" font-family="sans-serif">Safety Incidents</text>
<text x="15" y="254" font-size="14" fill="#CCCCCC" font-family="sans-serif">Inventory</text>
<text x="15" y="294" font-size="14" fill="#CCCCCC" font-family="sans-serif">Transport Dispatch</text>
<text x="15" y="334" font-size="14" fill="#CCCCCC" font-family="sans-serif">Analytics</text>
<text x="15" y="374" font-size="14" fill="#4CAF50" font-family="sans-serif">Partner Bookings</text>
<rect x="240" y="0" width="760" height="60" fill="#FFFFFF" stroke="#E0E0E0" stroke-width="2" rx="4"/>
<text x="260" y="33" font-size="18" fill="#333333" font-family="sans-serif">Partner Bookings</text>
<rect x="260" y="80" width="700" height="45" fill="#F5F5F5" stroke="#E0E0E0" stroke-width="2" rx="4"/>
<text x="275" y="105" font-size="13" fill="#666666" font-family="sans-serif">Partner:</text>
<rect x="345" y="87" width="200" height="30" fill="#FFFFFF" stroke="#BDBDBD" stroke-width="2" rx="4"/>
<text x="360" y="106" font-size="12" fill="#333333" font-family="sans-serif">All Partners</text>
<text x="575" y="105" font-size="13" fill="#666666" font-family="sans-serif">Status:</text>
<rect x="635" y="87" width="150" height="30" fill="#FFFFFF" stroke="#BDBDBD" stroke-width="2" rx="4"/>
<text x="650" y="106" font-size="12" fill="#333333" font-family="sans-serif">Pending Review</text>
<rect x="260" y="145" width="160" height="80" fill="#FFF3E0" stroke="#FF9800" stroke-width="2" rx="4"/>
<text x="275" y="167" font-size="12" fill="#E65100" font-family="sans-serif">Pending Review</text>
<text x="320" y="205" font-size="22" fill="#E65100" font-family="sans-serif">14</text>
<rect x="440" y="145" width="160" height="80" fill="#E8F5E9" stroke="#4CAF50" stroke-width="2" rx="4"/>
<text x="455" y="167" font-size="12" fill="#2E7D32" font-family="sans-serif">Confirmed</text>
<text x="500" y="205" font-size="22" fill="#2E7D32" font-family="sans-serif">89</text>
<rect x="620" y="145" width="170" height="80" fill="#E3F2FD" stroke="#2196F3" stroke-width="2" rx="4"/>
<text x="635" y="167" font-size="12" fill="#1565C0" font-family="sans-serif">Commission MTD</text>
<text x="660" y="203" font-size="20" fill="#1565C0" font-family="sans-serif">$18,420</text>
<rect x="810" y="145" width="150" height="80" fill="#FFEBEE" stroke="#E91E63" stroke-width="2" rx="4"/>
<text x="825" y="167" font-size="12" fill="#AD1457" font-family="sans-serif">Disputes</text>
<text x="870" y="205" font-size="22" fill="#C62828" font-family="sans-serif">3</text>
<rect x="260" y="250" width="700" height="35" fill="#F5F5F5" stroke="#E0E0E0" stroke-width="2" rx="4"/>
<text x="275" y="270" font-size="12" fill="#666666" font-family="sans-serif">Booking ID</text>
<text x="380" y="270" font-size="12" fill="#666666" font-family="sans-serif">Partner</text>
<text x="490" y="270" font-size="12" fill="#666666" font-family="sans-serif">Adventure</text>
<text x="635" y="270" font-size="12" fill="#666666" font-family="sans-serif">Guests</text>
<text x="715" y="270" font-size="12" fill="#666666" font-family="sans-serif">Amount</text>
<text x="800" y="270" font-size="12" fill="#666666" font-family="sans-serif">Payment</text>
<text x="905" y="270" font-size="12" fill="#666666" font-family="sans-serif">Action</text>
<rect x="260" y="285" width="700" height="45" fill="#FFF3E0" stroke="#E0E0E0" stroke-width="2" rx="4"/>
<text x="275" y="310" font-size="12" fill="#333333" font-family="sans-serif">PB-4210</text>
<text x="380" y="310" font-size="12" fill="#333333" font-family="sans-serif">TravelMax</text>
<text x="490" y="310" font-size="12" fill="#333333" font-family="sans-serif">Sunrise Peak Hike</text>
<text x="655" y="310" font-size="12" fill="#333333" font-family="sans-serif">4</text>
<text x="715" y="310" font-size="12" fill="#333333" font-family="sans-serif">$480</text>
<text x="800" y="310" font-size="12" fill="#FF9800" font-family="sans-serif">Pending</text>
<rect x="892" y="293" width="60" height="25" fill="#4CAF50" stroke="#4CAF50" stroke-width="2" rx="4"/>
<text x="900" y="308" font-size="10" fill="#FFFFFF" font-family="sans-serif">Confirm</text>
<rect x="260" y="330" width="700" height="45" fill="#FFFFFF" stroke="#E0E0E0" stroke-width="2" rx="4"/>
<text x="275" y="355" font-size="12" fill="#333333" font-family="sans-serif">PB-4209</text>
<text x="380" y="355" font-size="12" fill="#333333" font-family="sans-serif">AdventureHub</text>
<text x="490" y="355" font-size="12" fill="#333333" font-family="sans-serif">River Kayaking</text>
<text x="655" y="355" font-size="12" fill="#333333" font-family="sans-serif">2</text>
<text x="715" y="355" font-size="12" fill="#333333" font-family="sans-serif">$320</text>
<text x="800" y="355" font-size="12" fill="#4CAF50" font-family="sans-serif">Paid</text>
<rect x="892" y="338" width="60" height="25" fill="#4CAF50" stroke="#4CAF50" stroke-width="2" rx="4"/>
<text x="900" y="353" font-size="10" fill="#FFFFFF" font-family="sans-serif">Confirm</text>
<rect x="260" y="375" width="700" height="45" fill="#FFEBEE" stroke="#E0E0E0" stroke-width="2" rx="4"/>
<text x="275" y="400" font-size="12" fill="#333333" font-family="sans-serif">PB-4205</text>
<text x="380" y="400" font-size="12" fill="#333333" font-family="sans-serif">TravelMax</text>
<text x="490" y="400" font-size="12" fill="#333333" font-family="sans-serif">Wildlife Safari</text>
<text x="655" y="400" font-size="12" fill="#333333" font-family="sans-serif">6</text>
<text x="715" y="400" font-size="12" fill="#333333" font-family="sans-serif">$540</text>
<text x="800" y="400" font-size="12" fill="#C62828" font-family="sans-serif">Disputed</text>
<text x="900" y="400" font-size="12" fill="#1565C0" font-family="sans-serif">[Review]</text>
<rect x="260" y="445" width="340" height="235" fill="#FFFFFF" stroke="#E0E0E0" stroke-width="2" rx="4"/>
<text x="275" y="469" font-size="14" fill="#333333" font-family="sans-serif">Commission Reconciliation</text>
<text x="275" y="496" font-size="11" fill="#555555" font-family="sans-serif">Partner          Bookings  Commission  Paid

TravelMax           42      $6,300    $5,880
AdventureHub        31      $4,650    $4,650
ExploreMore         22      $3,960    $3,520
WildTrails          18      $2,340    $2,340
Summit Partners     12      $1,170    $1,170</text>
<rect x="275" y="640" width="130" height="30" fill="#1565C0" stroke="#1565C0" stroke-width="2" rx="4"/>
<text x="295" y="660" font-size="12" fill="#FFFFFF" font-family="sans-serif">Export CSV</text>
<rect x="620" y="445" width="340" height="235" fill="#FFFFFF" stroke="#E0E0E0" stroke-width="2" rx="4"/>
<text x="635" y="469" font-size="14" fill="#333333" font-family="sans-serif">Payment Status - PB-4210</text>
<text x="635" y="502" font-size="12" fill="#555555" font-family="sans-serif">Partner:       TravelMax
Booking Total: $480.00
Commission:    $72.00 (15%)
Net Amount:    $408.00

Payment ID:    PAY-8821
Status:        Awaiting Partner Payment
Due Date:      March 25, 2026</text>
<rect x="635" y="640" width="130" height="30" fill="#4CAF50" stroke="#4CAF50" stroke-width="2" rx="4"/>
<text x="653" y="660" font-size="12" fill="#FFFFFF" font-family="sans-serif">Mark Paid</text>
</svg>