<svg xmlns="http://www.w3.org/2000/svg" viewBox="-20 -20 1040 740" width="100%" height="auto">
<rect x="-20" y="-20" width="1040" height="740" fill="#fafafa" stroke="#e0e0e0" stroke-width="1"/>
<rect x="0" y="0" width="240" height="700" fill="#2C3E50" stroke="#2C3E50" stroke-width="2" rx="4"/>
<text x="15" y="31" font-size="16" fill="#FFFFFF" font-family="sans-serif">Operations Dashboard</text>
<text x="15" y="94" font-size="14" fill="#CCCCCC" font-family="sans-serif">Daily Schedule</text>
<text x="15" y="134" font-size="14" fill="#CCCCCC" font-family="sans-serif">Check-In Station</text>
<text x="15" y="174" font-size="14" fill="#CCCCCC" font-family="sans-serif">Guide Assignment</text>
<text x="15" y="214" font-size="14" fill="#E91E63" font-family="sans-serif">Safety Incidents</text>
<rect x="240" y="0" width="760" height="60" fill="#FFFFFF" stroke="#E0E0E0" stroke-width="2" rx="4"/>
<text x="260" y="33" font-size="18" fill="#333333" font-family="sans-serif">Safety Incident Board</text>
<rect x="830" y="12" width="150" height="35" fill="#E91E63" stroke="#E91E63" stroke-width="2" rx="4"/>
<text x="852" y="33" font-size="13" fill="#FFFFFF" font-family="sans-serif">Log Incident</text>
<rect x="260" y="80" width="160" height="80" fill="#FFEBEE" stroke="#E91E63" stroke-width="2" rx="4"/>
<text x="275" y="102" font-size="12" fill="#AD1457" font-family="sans-serif">Active Incidents</text>
<text x="315" y="142" font-size="24" fill="#C62828" font-family="sans-serif">3</text>
<rect x="440" y="80" width="160" height="80" fill="#FFF3E0" stroke="#FF9800" stroke-width="2" rx="4"/>
<text x="455" y="102" font-size="12" fill="#E65100" font-family="sans-serif">Logged Today</text>
<text x="500" y="142" font-size="24" fill="#E65100" font-family="sans-serif">5</text>
<rect x="620" y="80" width="160" height="80" fill="#E8F5E9" stroke="#4CAF50" stroke-width="2" rx="4"/>
<text x="635" y="102" font-size="12" fill="#2E7D32" font-family="sans-serif">Resolved Today</text>
<text x="680" y="142" font-size="24" fill="#2E7D32" font-family="sans-serif">2</text>
<rect x="800" y="80" width="160" height="80" fill="#E3F2FD" stroke="#2196F3" stroke-width="2" rx="4"/>
<text x="815" y="102" font-size="12" fill="#1565C0" font-family="sans-serif">Avg Resolution</text>
<text x="845" y="138" font-size="20" fill="#1565C0" font-family="sans-serif">18 min</text>
<rect x="260" y="185" width="700" height="35" fill="#F5F5F5" stroke="#E0E0E0" stroke-width="2" rx="4"/>
<text x="275" y="205" font-size="12" fill="#666666" font-family="sans-serif">ID</text>
<text x="345" y="205" font-size="12" fill="#666666" font-family="sans-serif">Severity</text>
<text x="445" y="205" font-size="12" fill="#666666" font-family="sans-serif">Description</text>
<text x="635" y="205" font-size="12" fill="#666666" font-family="sans-serif">Guest</text>
<text x="755" y="205" font-size="12" fill="#666666" font-family="sans-serif">Guide</text>
<text x="885" y="205" font-size="12" fill="#666666" font-family="sans-serif">Status</text>
<rect x="260" y="220" width="700" height="50" fill="#FFEBEE" stroke="#E0E0E0" stroke-width="2" rx="4"/>
<text x="275" y="247" font-size="12" fill="#333333" font-family="sans-serif">INC-042</text>
<rect x="345" y="230" width="65" height="22" fill="#E91E63" stroke="#E91E63" stroke-width="2" rx="4"/>
<text x="355" y="245" font-size="11" fill="#FFFFFF" font-family="sans-serif">Critical</text>
<text x="445" y="239" font-size="11" fill="#333333" font-family="sans-serif">Guest ankle injury on
Ridge Trail descent</text>
<text x="635" y="247" font-size="12" fill="#333333" font-family="sans-serif">J. Williams</text>
<text x="755" y="247" font-size="12" fill="#333333" font-family="sans-serif">M. Chen</text>
<text x="885" y="247" font-size="12" fill="#C62828" font-family="sans-serif">Active</text>
<rect x="260" y="270" width="700" height="50" fill="#FFF3E0" stroke="#E0E0E0" stroke-width="2" rx="4"/>
<text x="275" y="297" font-size="12" fill="#333333" font-family="sans-serif">INC-041</text>
<rect x="345" y="280" width="65" height="22" fill="#FF9800" stroke="#FF9800" stroke-width="2" rx="4"/>
<text x="352" y="295" font-size="11" fill="#FFFFFF" font-family="sans-serif">Warning</text>
<text x="445" y="289" font-size="11" fill="#333333" font-family="sans-serif">Equipment malfunction
zipline harness #7</text>
<text x="635" y="297" font-size="12" fill="#999999" font-family="sans-serif">N/A</text>
<text x="755" y="297" font-size="12" fill="#333333" font-family="sans-serif">C. Rivera</text>
<text x="885" y="297" font-size="12" fill="#E65100" font-family="sans-serif">Active</text>
<rect x="260" y="320" width="700" height="50" fill="#E8F5E9" stroke="#E0E0E0" stroke-width="2" rx="4"/>
<text x="275" y="347" font-size="12" fill="#333333" font-family="sans-serif">INC-040</text>
<rect x="345" y="330" width="50" height="22" fill="#4CAF50" stroke="#4CAF50" stroke-width="2" rx="4"/>
<text x="355" y="345" font-size="11" fill="#FFFFFF" font-family="sans-serif">Low</text>
<text x="445" y="339" font-size="11" fill="#333333" font-family="sans-serif">Minor trail obstruction
fallen branch, Sunset Loop</text>
<text x="635" y="347" font-size="12" fill="#999999" font-family="sans-serif">N/A</text>
<text x="755" y="347" font-size="12" fill="#333333" font-family="sans-serif">A. Patel</text>
<text x="885" y="347" font-size="12" fill="#2E7D32" font-family="sans-serif">Resolved</text>
<rect x="260" y="395" width="700" height="285" fill="#FFFFFF" stroke="#E0E0E0" stroke-width="2" rx="4"/>
<text x="275" y="419" font-size="14" fill="#333333" font-family="sans-serif">Incident Detail - INC-042</text>
<text x="275" y="447" font-size="12" fill="#555555" font-family="sans-serif">Reported:      2026-03-19 09:45 AM
Location:      Ridge Trail, marker 14
Severity:      Critical
Guest:         James Williams (guest-4821)
Guide:         Maria Chen
Description:   Guest twisted ankle on steep descent.
               Assessed on-site, moderate swelling.
               Medical transport requested.</text>
<rect x="275" y="600" width="160" height="35" fill="#FF9800" stroke="#FF9800" stroke-width="2" rx="4"/>
<text x="300" y="621" font-size="13" fill="#FFFFFF" font-family="sans-serif">Send Alert</text>
<rect x="460" y="600" width="160" height="35" fill="#4CAF50" stroke="#4CAF50" stroke-width="2" rx="4"/>
<text x="490" y="621" font-size="13" fill="#FFFFFF" font-family="sans-serif">Resolve</text>
<rect x="645" y="600" width="180" height="35" fill="#1565C0" stroke="#1565C0" stroke-width="2" rx="4"/>
<text x="660" y="621" font-size="13" fill="#FFFFFF" font-family="sans-serif">Regulatory Report</text>
</svg>