<svg xmlns="http://www.w3.org/2000/svg" viewBox="-20 -20 1040 740" width="100%">
<rect x="-20" y="-20" width="1040" height="740" fill="#fafafa" stroke="#e0e0e0" stroke-width="1"/>
<rect x="0" y="0" width="240" height="700" fill="#2C3E50" stroke="#2C3E50" stroke-width="2" rx="4"/>
<rect x="240" y="0" width="760" height="60" fill="#FFFFFF" stroke="#E0E0E0" stroke-width="2" rx="4"/>
<rect x="830" y="12" width="150" height="35" fill="#1565C0" stroke="#1565C0" stroke-width="2" rx="4"/>
<rect x="260" y="80" width="480" height="300" fill="#E8F5E9" stroke="#4CAF50" stroke-width="2" rx="4"/>
<rect x="760" y="80" width="240" height="300" fill="#FFFFFF" stroke="#E0E0E0" stroke-width="2" rx="4"/>
<rect x="770" y="120" width="215" height="65" fill="#E8F5E9" stroke="#4CAF50" stroke-width="2" rx="4"/>
<rect x="770" y="195" width="215" height="65" fill="#FFF3E0" stroke="#FF9800" stroke-width="2" rx="4"/>
<rect x="770" y="270" width="215" height="65" fill="#E3F2FD" stroke="#2196F3" stroke-width="2" rx="4"/>
<rect x="260" y="400" width="700" height="35" fill="#F5F5F5" stroke="#E0E0E0" stroke-width="2" rx="4"/>
<rect x="260" y="435" width="700" height="40" fill="#FFFFFF" stroke="#E0E0E0" stroke-width="2" rx="4"/>
<rect x="260" y="475" width="700" height="40" fill="#FFF3E0" stroke="#E0E0E0" stroke-width="2" rx="4"/>
<rect x="260" y="515" width="700" height="40" fill="#FFFFFF" stroke="#E0E0E0" stroke-width="2" rx="4"/>
<rect x="260" y="580" width="700" height="100" fill="#FFFFFF" stroke="#E0E0E0" stroke-width="2" rx="4"/>
<rect x="275" y="645" width="140" height="30" fill="#4CAF50" stroke="#4CAF50" stroke-width="2" rx="4"/>
</svg>