<svg xmlns="http://www.w3.org/2000/svg" xmlns:xlink="http://www.w3.org/1999/xlink" contentStyleType="text/css" data-diagram-type="DESCRIPTION" height="615px" preserveAspectRatio="none" style="width:2068px;height:615px;background:#FEFEFE;" version="1.1" viewBox="0 0 2068 615" width="2068px" zoomAndPan="magnify"><title>NovaTrek Adventures - Booking Domain Components</title><defs/><g><rect fill="#FEFEFE" height="615" style="stroke:none;stroke-width:1;" width="2068" x="0" y="0"/><g class="title" data-source-line="4"><text fill="#000000" font-family="Segoe UI" font-size="14" font-weight="bold" lengthAdjust="spacing" textLength="389.0059" x="832.5597" y="23.5352">NovaTrek Adventures - Booking Domain Components</text></g><!--cluster svc-reservations--><g class="cluster" data-entity="svc-reservations" data-source-line="14" data-uid="ent0002" id="cluster_svc-reservations"><path d="M1218.51,43.4883 L1338.9895,43.4883 A6,6 0 0 1 1342.9895,47.4883 L1349.9895,65.9766 L1686.51,65.9766 A4,4 0 0 1 1690.51,69.9766 L1690.51,495.9383 A4,4 0 0 1 1686.51,499.9383 L1218.51,499.9383 A4,4 0 0 1 1214.51,495.9383 L1214.51,47.4883 A4,4 0 0 1 1218.51,43.4883" fill="#E8F4F8" style="stroke:#000000;stroke-width:1.5;"/><line style="stroke:#000000;stroke-width:1.5;" x1="1214.51" x2="1349.9895" y1="65.9766" y2="65.9766"/><text fill="#000000" font-family="Segoe UI" font-size="14" font-weight="bold" lengthAdjust="spacing" textLength="122.4795" x="1218.51" y="59.0234">svc-reservations</text></g><!--cluster svc-trip-catalog--><g class="cluster" data-entity="svc-trip-catalog" data-source-line="25" data-uid="ent0008" id="cluster_svc-trip-catalog"><path d="M827.51,171.9783 L945.2483,171.9783 A6,6 0 0 1 949.2483,175.9783 L956.2483,194.4666 L1186.51,194.4666 A4,4 0 0 1 1190.51,198.4666 L1190.51,604.4283 A4,4 0 0 1 1186.51,608.4283 L827.51,608.4283 A4,4 0 0 1 823.51,604.4283 L823.51,175.9783 A4,4 0 0 1 827.51,171.9783" fill="#E8F0F8" style="stroke:#000000;stroke-width:1.5;"/><line style="stroke:#000000;stroke-width:1.5;" x1="823.51" x2="956.2483" y1="194.4666" y2="194.4666"/><text fill="#000000" font-family="Segoe UI" font-size="14" font-weight="bold" lengthAdjust="spacing" textLength="119.7383" x="827.51" y="187.5134">svc-trip-catalog</text></g><!--cluster svc-scheduling-orchestrator--><g class="cluster" data-entity="svc-scheduling-orchestrator" data-source-line="36" data-uid="ent0014" id="cluster_svc-scheduling-orchestrator"><path d="M179.51,43.4883 L387.1545,43.4883 A6,6 0 0 1 391.1545,47.4883 L398.1545,65.9766 L795.51,65.9766 A4,4 0 0 1 799.51,69.9766 L799.51,495.9383 A4,4 0 0 1 795.51,499.9383 L179.51,499.9383 A4,4 0 0 1 175.51,495.9383 L175.51,47.4883 A4,4 0 0 1 179.51,43.4883" fill="#E8ECF8" style="stroke:#000000;stroke-width:1.5;"/><line style="stroke:#000000;stroke-width:1.5;" x1="175.51" x2="398.1545" y1="65.9766" y2="65.9766"/><text fill="#000000" font-family="Segoe UI" font-size="14" font-weight="bold" lengthAdjust="spacing" textLength="209.6445" x="179.51" y="59.0234">svc-scheduling-orchestrator</text></g><!--entity res_ctrl--><g class="entity" data-entity="res_ctrl" data-source-line="15" data-uid="ent0003" id="entity_res_ctrl"><rect fill="#F1F1F1" height="46.4883" rx="4" ry="4" style="stroke:#181818;stroke-width:0.5;" width="187.0273" x="1232" y="78.4883"/><rect fill="#F1F1F1" height="10" style="stroke:#181818;stroke-width:0.5;" width="15" x="1399.0273" y="83.4883"/><rect fill="#F1F1F1" height="2" style="stroke:#181818;stroke-width:0.5;" width="4" x="1397.0273" y="85.4883"/><rect fill="#F1F1F1" height="2" style="stroke:#181818;stroke-width:0.5;" width="4" x="1397.0273" y="89.4883"/><text fill="#000000" font-family="Segoe UI" font-size="14" lengthAdjust="spacing" textLength="147.0273" x="1247" y="112.0234">ReservationController</text></g><!--entity res_svc--><g class="entity" data-entity="res_svc" data-source-line="16" data-uid="ent0004" id="entity_res_svc"><rect fill="#F1F1F1" height="46.4883" rx="4" ry="4" style="stroke:#181818;stroke-width:0.5;" width="166.1982" x="1242.41" y="206.9783"/><rect fill="#F1F1F1" height="10" style="stroke:#181818;stroke-width:0.5;" width="15" x="1388.6082" y="211.9783"/><rect fill="#F1F1F1" height="2" style="stroke:#181818;stroke-width:0.5;" width="4" x="1386.6082" y="213.9783"/><rect fill="#F1F1F1" height="2" style="stroke:#181818;stroke-width:0.5;" width="4" x="1386.6082" y="217.9783"/><text fill="#000000" font-family="Segoe UI" font-size="14" lengthAdjust="spacing" textLength="126.1982" x="1257.41" y="240.5134">ReservationService</text></g><!--entity res_repo--><g class="entity" data-entity="res_repo" data-source-line="17" data-uid="ent0005" id="entity_res_repo"><rect fill="#F1F1F1" height="46.4883" rx="4" ry="4" style="stroke:#181818;stroke-width:0.5;" width="190.9922" x="1230.01" y="330.4683"/><rect fill="#F1F1F1" height="10" style="stroke:#181818;stroke-width:0.5;" width="15" x="1401.0022" y="335.4683"/><rect fill="#F1F1F1" height="2" style="stroke:#181818;stroke-width:0.5;" width="4" x="1399.0022" y="337.4683"/><rect fill="#F1F1F1" height="2" style="stroke:#181818;stroke-width:0.5;" width="4" x="1399.0022" y="341.4683"/><text fill="#000000" font-family="Segoe UI" font-size="14" lengthAdjust="spacing" textLength="150.9922" x="1245.01" y="364.0034">ReservationRepository</text></g><!--entity res_pub--><g class="entity" data-entity="res_pub" data-source-line="18" data-uid="ent0006" id="entity_res_pub"><rect fill="#F1F1F1" height="46.4883" rx="4" ry="4" style="stroke:#181818;stroke-width:0.5;" width="218.1104" x="1456.46" y="330.4683"/><rect fill="#F1F1F1" height="10" style="stroke:#181818;stroke-width:0.5;" width="15" x="1654.5704" y="335.4683"/><rect fill="#F1F1F1" height="2" style="stroke:#181818;stroke-width:0.5;" width="4" x="1652.5704" y="337.4683"/><rect fill="#F1F1F1" height="2" style="stroke:#181818;stroke-width:0.5;" width="4" x="1652.5704" y="341.4683"/><text fill="#000000" font-family="Segoe UI" font-size="14" lengthAdjust="spacing" textLength="178.1104" x="1471.46" y="364.0034">ReservationEventPublisher</text></g><!--entity res_db--><g class="entity" data-entity="res_db" data-source-line="19" data-uid="ent0007" id="entity_res_db"><path d="M1261.21,448.4483 C1261.21,438.4483 1325.5113,438.4483 1325.5113,438.4483 C1325.5113,438.4483 1389.8125,438.4483 1389.8125,448.4483 L1389.8125,473.9366 C1389.8125,483.9366 1325.5113,483.9366 1325.5113,483.9366 C1325.5113,483.9366 1261.21,483.9366 1261.21,473.9366 L1261.21,448.4483" fill="#F1F1F1" style="stroke:#181818;stroke-width:0.5;"/><path d="M1261.21,448.4483 C1261.21,458.4483 1325.5113,458.4483 1325.5113,458.4483 C1325.5113,458.4483 1389.8125,458.4483 1389.8125,448.4483" fill="none" style="stroke:#181818;stroke-width:0.5;"/><text fill="#000000" font-family="Segoe UI" font-size="14" lengthAdjust="spacing" textLength="108.6025" x="1271.21" y="475.9834">reservations-db</text></g><!--entity trip_ctrl--><g class="entity" data-entity="trip_ctrl" data-source-line="26" data-uid="ent0009" id="entity_trip_ctrl"><rect fill="#F1F1F1" height="46.4883" rx="4" ry="4" style="stroke:#181818;stroke-width:0.5;" width="187.3623" x="912.83" y="206.9783"/><rect fill="#F1F1F1" height="10" style="stroke:#181818;stroke-width:0.5;" width="15" x="1080.1923" y="211.9783"/><rect fill="#F1F1F1" height="2" style="stroke:#181818;stroke-width:0.5;" width="4" x="1078.1923" y="213.9783"/><rect fill="#F1F1F1" height="2" style="stroke:#181818;stroke-width:0.5;" width="4" x="1078.1923" y="217.9783"/><text fill="#000000" font-family="Segoe UI" font-size="14" lengthAdjust="spacing" textLength="147.3623" x="927.83" y="240.5134">TripCatalogController</text></g><!--entity trip_svc--><g class="entity" data-entity="trip_svc" data-source-line="27" data-uid="ent0010" id="entity_trip_svc"><rect fill="#F1F1F1" height="46.4883" rx="4" ry="4" style="stroke:#181818;stroke-width:0.5;" width="166.5332" x="923.24" y="330.4683"/><rect fill="#F1F1F1" height="10" style="stroke:#181818;stroke-width:0.5;" width="15" x="1069.7732" y="335.4683"/><rect fill="#F1F1F1" height="2" style="stroke:#181818;stroke-width:0.5;" width="4" x="1067.7732" y="337.4683"/><rect fill="#F1F1F1" height="2" style="stroke:#181818;stroke-width:0.5;" width="4" x="1067.7732" y="341.4683"/><text fill="#000000" font-family="Segoe UI" font-size="14" lengthAdjust="spacing" textLength="126.5332" x="938.24" y="364.0034">TripCatalogService</text></g><!--entity trip_repo--><g class="entity" data-entity="trip_repo" data-source-line="28" data-uid="ent0011" id="entity_trip_repo"><rect fill="#F1F1F1" height="46.4883" rx="4" ry="4" style="stroke:#181818;stroke-width:0.5;" width="139.5654" x="839.73" y="437.9483"/><rect fill="#F1F1F1" height="10" style="stroke:#181818;stroke-width:0.5;" width="15" x="959.2954" y="442.9483"/><rect fill="#F1F1F1" height="2" style="stroke:#181818;stroke-width:0.5;" width="4" x="957.2954" y="444.9483"/><rect fill="#F1F1F1" height="2" style="stroke:#181818;stroke-width:0.5;" width="4" x="957.2954" y="448.9483"/><text fill="#000000" font-family="Segoe UI" font-size="14" lengthAdjust="spacing" textLength="99.5654" x="854.73" y="471.4834">TripRepository</text></g><!--entity trip_avail--><g class="entity" data-entity="trip_avail" data-source-line="29" data-uid="ent0012" id="entity_trip_avail"><rect fill="#F1F1F1" height="46.4883" rx="4" ry="4" style="stroke:#181818;stroke-width:0.5;" width="159.5059" x="1014.76" y="437.9483"/><rect fill="#F1F1F1" height="10" style="stroke:#181818;stroke-width:0.5;" width="15" x="1154.2659" y="442.9483"/><rect fill="#F1F1F1" height="2" style="stroke:#181818;stroke-width:0.5;" width="4" x="1152.2659" y="444.9483"/><rect fill="#F1F1F1" height="2" style="stroke:#181818;stroke-width:0.5;" width="4" x="1152.2659" y="448.9483"/><text fill="#000000" font-family="Segoe UI" font-size="14" lengthAdjust="spacing" textLength="119.5059" x="1029.76" y="471.4834">AvailabilityEngine</text></g><!--entity trip_db--><g class="entity" data-entity="trip_db" data-source-line="30" data-uid="ent0013" id="entity_trip_db"><path d="M846.06,556.9383 C846.06,546.9383 909.5068,546.9383 909.5068,546.9383 C909.5068,546.9383 972.9536,546.9383 972.9536,556.9383 L972.9536,582.4266 C972.9536,592.4266 909.5068,592.4266 909.5068,592.4266 C909.5068,592.4266 846.06,592.4266 846.06,582.4266 L846.06,556.9383" fill="#F1F1F1" style="stroke:#181818;stroke-width:0.5;"/><path d="M846.06,556.9383 C846.06,566.9383 909.5068,566.9383 909.5068,566.9383 C909.5068,566.9383 972.9536,566.9383 972.9536,556.9383" fill="none" style="stroke:#181818;stroke-width:0.5;"/><text fill="#000000" font-family="Segoe UI" font-size="14" lengthAdjust="spacing" textLength="106.8936" x="856.06" y="584.4734">trip-catalog-db</text></g><!--entity sched_ctrl--><g class="entity" data-entity="sched_ctrl" data-source-line="37" data-uid="ent0015" id="entity_sched_ctrl"><rect fill="#F1F1F1" height="46.4883" rx="4" ry="4" style="stroke:#181818;stroke-width:0.5;" width="168.707" x="502.16" y="78.4883"/><rect fill="#F1F1F1" height="10" style="stroke:#181818;stroke-width:0.5;" width="15" x="650.867" y="83.4883"/><rect fill="#F1F1F1" height="2" style="stroke:#181818;stroke-width:0.5;" width="4" x="648.867" y="85.4883"/><rect fill="#F1F1F1" height="2" style="stroke:#181818;stroke-width:0.5;" width="4" x="648.867" y="89.4883"/><text fill="#000000" font-family="Segoe UI" font-size="14" lengthAdjust="spacing" textLength="128.707" x="517.16" y="112.0234">ScheduleController</text></g><!--entity sched_svc--><g class="entity" data-entity="sched_svc" data-source-line="38" data-uid="ent0016" id="entity_sched_svc"><rect fill="#F1F1F1" height="46.4883" rx="4" ry="4" style="stroke:#181818;stroke-width:0.5;" width="233.5391" x="469.74" y="206.9783"/><rect fill="#F1F1F1" height="10" style="stroke:#181818;stroke-width:0.5;" width="15" x="683.2791" y="211.9783"/><rect fill="#F1F1F1" height="2" style="stroke:#181818;stroke-width:0.5;" width="4" x="681.2791" y="213.9783"/><rect fill="#F1F1F1" height="2" style="stroke:#181818;stroke-width:0.5;" width="4" x="681.2791" y="217.9783"/><text fill="#000000" font-family="Segoe UI" font-size="14" lengthAdjust="spacing" textLength="193.5391" x="484.74" y="240.5134">ScheduleOrchestratorService</text></g><!--entity sched_conflict--><g class="entity" data-entity="sched_conflict" data-source-line="39" data-uid="ent0017" id="entity_sched_conflict"><rect fill="#F1F1F1" height="46.4883" rx="4" ry="4" style="stroke:#181818;stroke-width:0.5;" width="149.833" x="191.59" y="330.4683"/><rect fill="#F1F1F1" height="10" style="stroke:#181818;stroke-width:0.5;" width="15" x="321.423" y="335.4683"/><rect fill="#F1F1F1" height="2" style="stroke:#181818;stroke-width:0.5;" width="4" x="319.423" y="337.4683"/><rect fill="#F1F1F1" height="2" style="stroke:#181818;stroke-width:0.5;" width="4" x="319.423" y="341.4683"/><text fill="#000000" font-family="Segoe UI" font-size="14" lengthAdjust="spacing" textLength="109.833" x="206.59" y="364.0034">ConflictResolver</text></g><!--entity sched_repo--><g class="entity" data-entity="sched_repo" data-source-line="40" data-uid="ent0018" id="entity_sched_repo"><rect fill="#F1F1F1" height="46.4883" rx="4" ry="4" style="stroke:#181818;stroke-width:0.5;" width="172.6719" x="611.17" y="330.4683"/><rect fill="#F1F1F1" height="10" style="stroke:#181818;stroke-width:0.5;" width="15" x="763.8419" y="335.4683"/><rect fill="#F1F1F1" height="2" style="stroke:#181818;stroke-width:0.5;" width="4" x="761.8419" y="337.4683"/><rect fill="#F1F1F1" height="2" style="stroke:#181818;stroke-width:0.5;" width="4" x="761.8419" y="341.4683"/><text fill="#000000" font-family="Segoe UI" font-size="14" lengthAdjust="spacing" textLength="132.6719" x="626.17" y="364.0034">ScheduleRepository</text></g><!--entity sched_pub--><g class="entity" data-entity="sched_pub" data-source-line="41" data-uid="ent0019" id="entity_sched_pub"><rect fill="#F1F1F1" height="46.4883" rx="4" ry="4" style="stroke:#181818;stroke-width:0.5;" width="199.79" x="376.62" y="330.4683"/><rect fill="#F1F1F1" height="10" style="stroke:#181818;stroke-width:0.5;" width="15" x="556.41" y="335.4683"/><rect fill="#F1F1F1" height="2" style="stroke:#181818;stroke-width:0.5;" width="4" x="554.41" y="337.4683"/><rect fill="#F1F1F1" height="2" style="stroke:#181818;stroke-width:0.5;" width="4" x="554.41" y="341.4683"/><text fill="#000000" font-family="Segoe UI" font-size="14" lengthAdjust="spacing" textLength="159.79" x="391.62" y="364.0034">ScheduleEventPublisher</text></g><!--entity sched_db--><g class="entity" data-entity="sched_db" data-source-line="42" data-uid="ent0020" id="entity_sched_db"><path d="M637.74,448.4483 C637.74,438.4483 697.5056,438.4483 697.5056,438.4483 C697.5056,438.4483 757.2713,438.4483 757.2713,448.4483 L757.2713,473.9366 C757.2713,483.9366 697.5056,483.9366 697.5056,483.9366 C697.5056,483.9366 637.74,483.9366 637.74,473.9366 L637.74,448.4483" fill="#F1F1F1" style="stroke:#181818;stroke-width:0.5;"/><path d="M637.74,448.4483 C637.74,458.4483 697.5056,458.4483 697.5056,458.4483 C697.5056,458.4483 757.2713,458.4483 757.2713,448.4483" fill="none" style="stroke:#181818;stroke-width:0.5;"/><text fill="#000000" font-family="Segoe UI" font-size="14" lengthAdjust="spacing" textLength="99.5313" x="647.74" y="475.9834">scheduling-db</text></g><!--entity topic_res_created--><g class="entity" data-entity="topic_res_created" data-source-line="48" data-uid="ent0021" id="entity_topic_res_created"><path d="M1711.29,447.9483 L1851.7402,447.9483 C1856.7402,447.9483 1856.7402,461.1924 1856.7402,461.1924 C1856.7402,461.1924 1856.7402,474.4366 1851.7402,474.4366 L1711.29,474.4366 C1706.29,474.4366 1706.29,461.1924 1706.29,461.1924 C1706.29,461.1924 1706.29,447.9483 1711.29,447.9483" fill="#F1F1F1" style="stroke:#181818;stroke-width:0.5;"/><path d="M1851.7402,447.9483 C1846.7402,447.9483 1846.7402,461.1924 1846.7402,461.1924 C1846.7402,474.4366 1851.7402,474.4366 1851.7402,474.4366" fill="none" style="stroke:#181818;stroke-width:0.5;"/><text fill="#000000" font-family="Segoe UI" font-size="14" lengthAdjust="spacing" textLength="130.4502" x="1711.29" y="466.4834">reservation.created</text></g><!--entity topic_res_confirmed--><g class="entity" data-entity="topic_res_confirmed" data-source-line="49" data-uid="ent0022" id="entity_topic_res_confirmed"><path d="M1896.89,447.9483 L2056.1254,447.9483 C2061.1254,447.9483 2061.1254,461.1924 2061.1254,461.1924 C2061.1254,461.1924 2061.1254,474.4366 2056.1254,474.4366 L1896.89,474.4366 C1891.89,474.4366 1891.89,461.1924 1891.89,461.1924 C1891.89,461.1924 1891.89,447.9483 1896.89,447.9483" fill="#F1F1F1" style="stroke:#181818;stroke-width:0.5;"/><path d="M2056.1254,447.9483 C2051.1254,447.9483 2051.1254,461.1924 2051.1254,461.1924 C2051.1254,474.4366 2056.1254,474.4366 2056.1254,474.4366" fill="none" style="stroke:#181818;stroke-width:0.5;"/><text fill="#000000" font-family="Segoe UI" font-size="14" lengthAdjust="spacing" textLength="149.2354" x="1896.89" y="466.4834">reservation.confirmed</text></g><!--entity topic_sched_optimized--><g class="entity" data-entity="topic_sched_optimized" data-source-line="50" data-uid="ent0023" id="entity_topic_sched_optimized"><path d="M11,447.9483 L154.0205,447.9483 C159.0205,447.9483 159.0205,461.1924 159.0205,461.1924 C159.0205,461.1924 159.0205,474.4366 154.0205,474.4366 L11,474.4366 C6,474.4366 6,461.1924 6,461.1924 C6,461.1924 6,447.9483 11,447.9483" fill="#F1F1F1" style="stroke:#181818;stroke-width:0.5;"/><path d="M154.0205,447.9483 C149.0205,447.9483 149.0205,461.1924 149.0205,461.1924 C149.0205,474.4366 154.0205,474.4366 154.0205,474.4366" fill="none" style="stroke:#181818;stroke-width:0.5;"/><text fill="#000000" font-family="Segoe UI" font-size="14" lengthAdjust="spacing" textLength="133.0205" x="11" y="466.4834">schedule.optimized</text></g><!--link res_ctrl to res_svc--><g class="link" data-entity-1="res_ctrl" data-entity-2="res_svc" data-source-line="55" data-uid="lnk24" id="link_res_ctrl_res_svc"><path d="M1325.51,125.3483 C1325.51,148.3683 1325.51,177.8483 1325.51,200.7983" fill="none" id="res_ctrl-to-res_svc" style="stroke:#181818;stroke-width:1;"/><polygon fill="#181818" points="1325.51,206.7983,1329.51,197.7983,1325.51,201.7983,1321.51,197.7983,1325.51,206.7983" style="stroke:#181818;stroke-width:1;"/></g><!--link res_svc to res_repo--><g class="link" data-entity-1="res_svc" data-entity-2="res_repo" data-source-line="56" data-uid="lnk25" id="link_res_svc_res_repo"><path d="M1325.51,253.7883 C1325.51,275.6083 1325.51,302.4783 1325.51,324.2583" fill="none" id="res_svc-to-res_repo" style="stroke:#181818;stroke-width:1;"/><polygon fill="#181818" points="1325.51,330.2583,1329.51,321.2583,1325.51,325.2583,1321.51,321.2583,1325.51,330.2583" style="stroke:#181818;stroke-width:1;"/></g><!--link res_repo to res_db--><g class="link" data-entity-1="res_repo" data-entity-2="res_db" data-source-line="57" data-uid="lnk26" id="link_res_repo_res_db"><path d="M1325.51,377.3383 C1325.51,395.2583 1325.51,414.1483 1325.51,431.9683" fill="none" id="res_repo-to-res_db" style="stroke:#181818;stroke-width:1;"/><polygon fill="#181818" points="1325.51,437.9683,1329.51,428.9683,1325.51,432.9683,1321.51,428.9683,1325.51,437.9683" style="stroke:#181818;stroke-width:1;"/></g><!--link res_svc to res_pub--><g class="link" data-entity-1="res_svc" data-entity-2="res_pub" data-source-line="58" data-uid="lnk27" id="link_res_svc_res_pub"><path d="M1370.37,253.9283 C1413.38,275.6983 1472.5765,305.6691 1515.5165,327.3991" fill="none" id="res_svc-to-res_pub" style="stroke:#181818;stroke-width:1;"/><polygon fill="#181818" points="1520.87,330.1083,1514.6458,322.4755,1516.4087,327.8506,1511.0336,329.6135,1520.87,330.1083" style="stroke:#181818;stroke-width:1;"/></g><!--link res_pub to topic_res_created--><g class="link" data-entity-1="res_pub" data-entity-2="topic_res_created" data-source-line="59" data-uid="lnk28" id="link_res_pub_topic_res_created"><path d="M1611.85,377.3383 C1655.73,398.7683 1714.6485,427.5455 1750.1585,444.8855" fill="none" id="res_pub-to-topic_res_created" style="stroke:#181818;stroke-width:1;"/><polygon fill="#181818" points="1755.55,447.5183,1749.2179,439.9748,1751.0571,445.3243,1745.7075,447.1635,1755.55,447.5183" style="stroke:#181818;stroke-width:1;"/></g><!--link res_pub to topic_res_confirmed--><g class="link" data-entity-1="res_pub" data-entity-2="topic_res_confirmed" data-source-line="60" data-uid="lnk29" id="link_res_pub_topic_res_confirmed"><path d="M1653.93,377.3983 C1737.33,398.8083 1853.5284,428.6265 1921.0784,445.9665" fill="none" id="res_pub-to-topic_res_confirmed" style="stroke:#181818;stroke-width:1;"/><polygon fill="#181818" points="1926.89,447.4583,1919.1672,441.3462,1922.047,446.2151,1917.1781,449.0949,1926.89,447.4583" style="stroke:#181818;stroke-width:1;"/></g><!--link trip_ctrl to trip_svc--><g class="link" data-entity-1="trip_ctrl" data-entity-2="trip_svc" data-source-line="65" data-uid="lnk30" id="link_trip_ctrl_trip_svc"><path d="M1006.51,253.7883 C1006.51,275.6083 1006.51,302.4783 1006.51,324.2583" fill="none" id="trip_ctrl-to-trip_svc" style="stroke:#181818;stroke-width:1;"/><polygon fill="#181818" points="1006.51,330.2583,1010.51,321.2583,1006.51,325.2583,1002.51,321.2583,1006.51,330.2583" style="stroke:#181818;stroke-width:1;"/></g><!--link trip_svc to trip_repo--><g class="link" data-entity-1="trip_svc" data-entity-2="trip_repo" data-source-line="66" data-uid="lnk31" id="link_trip_svc_trip_repo"><path d="M985.7,377.3383 C969.34,395.1383 950.7014,415.4019 934.3414,433.1919" fill="none" id="trip_svc-to-trip_repo" style="stroke:#181818;stroke-width:1;"/><polygon fill="#181818" points="930.28,437.6083,939.3164,433.6913,933.6645,433.9279,933.4279,428.276,930.28,437.6083" style="stroke:#181818;stroke-width:1;"/></g><!--link trip_svc to trip_avail--><g class="link" data-entity-1="trip_svc" data-entity-2="trip_avail" data-source-line="67" data-uid="lnk32" id="link_trip_svc_trip_avail"><path d="M1025.39,377.3383 C1040.24,395.1383 1056.9766,415.2109 1071.8166,433.0009" fill="none" id="trip_svc-to-trip_avail" style="stroke:#181818;stroke-width:1;"/><polygon fill="#181818" points="1075.66,437.6083,1072.9665,428.1349,1072.4572,433.7688,1066.8233,433.2594,1075.66,437.6083" style="stroke:#181818;stroke-width:1;"/></g><!--link trip_repo to trip_db--><g class="link" data-entity-1="trip_repo" data-entity-2="trip_db" data-source-line="68" data-uid="lnk33" id="link_trip_repo_trip_db"><path d="M909.51,484.7783 C909.51,502.9683 909.51,522.4083 909.51,540.4983" fill="none" id="trip_repo-to-trip_db" style="stroke:#181818;stroke-width:1;"/><polygon fill="#181818" points="909.51,546.4983,913.51,537.4983,909.51,541.4983,905.51,537.4983,909.51,546.4983" style="stroke:#181818;stroke-width:1;"/></g><!--link sched_ctrl to sched_svc--><g class="link" data-entity-1="sched_ctrl" data-entity-2="sched_svc" data-source-line="73" data-uid="lnk34" id="link_sched_ctrl_sched_svc"><path d="M586.51,125.3483 C586.51,148.3683 586.51,177.8483 586.51,200.7983" fill="none" id="sched_ctrl-to-sched_svc" style="stroke:#181818;stroke-width:1;"/><polygon fill="#181818" points="586.51,206.7983,590.51,197.7983,586.51,201.7983,582.51,197.7983,586.51,206.7983" style="stroke:#181818;stroke-width:1;"/></g><!--link sched_svc to sched_conflict--><g class="link" data-entity-1="sched_svc" data-entity-2="sched_conflict" data-source-line="74" data-uid="lnk35" id="link_sched_svc_sched_conflict"><path d="M526.7,253.9283 C469.44,275.6683 389.1595,306.1491 331.9095,327.8791" fill="none" id="sched_svc-to-sched_conflict" style="stroke:#181818;stroke-width:1;"/><polygon fill="#181818" points="326.3,330.0083,336.1337,330.5542,330.9746,328.234,333.2948,323.0749,326.3,330.0083" style="stroke:#181818;stroke-width:1;"/></g><!--link sched_svc to sched_repo--><g class="link" data-entity-1="sched_svc" data-entity-2="sched_repo" data-source-line="75" data-uid="lnk36" id="link_sched_svc_sched_repo"><path d="M607.13,253.7883 C627.07,275.6083 653.0528,304.0488 672.9528,325.8288" fill="none" id="sched_svc-to-sched_repo" style="stroke:#181818;stroke-width:1;"/><polygon fill="#181818" points="677,330.2583,673.8823,320.9159,673.6274,326.567,667.9763,326.3121,677,330.2583" style="stroke:#181818;stroke-width:1;"/></g><!--link sched_repo to sched_db--><g class="link" data-entity-1="sched_repo" data-entity-2="sched_db" data-source-line="76" data-uid="lnk37" id="link_sched_repo_sched_db"><path d="M697.51,377.3383 C697.51,395.2583 697.51,414.1483 697.51,431.9683" fill="none" id="sched_repo-to-sched_db" style="stroke:#181818;stroke-width:1;"/><polygon fill="#181818" points="697.51,437.9683,701.51,428.9683,697.51,432.9683,693.51,428.9683,697.51,437.9683" style="stroke:#181818;stroke-width:1;"/></g><!--link sched_svc to sched_pub--><g class="link" data-entity-1="sched_svc" data-entity-2="sched_pub" data-source-line="77" data-uid="lnk38" id="link_sched_svc_sched_pub"><path d="M566.08,253.7883 C546.32,275.6083 520.5771,304.0305 500.8571,325.8105" fill="none" id="sched_svc-to-sched_pub" style="stroke:#181818;stroke-width:1;"/><polygon fill="#181818" points="496.83,330.2583,505.8358,326.2714,500.1859,326.5518,499.9055,320.9019,496.83,330.2583" style="stroke:#181818;stroke-width:1;"/></g><!--link sched_pub to topic_sched_optimized--><g class="link" data-entity-1="sched_pub" data-entity-2="topic_sched_optimized" data-source-line="78" data-uid="lnk39" id="link_sched_pub_topic_sched_optimized"><path d="M391.99,377.3383 C311.94,398.7683 200.4359,428.6266 135.6659,445.9666" fill="none" id="sched_pub-to-topic_sched_optimized" style="stroke:#181818;stroke-width:1;"/><polygon fill="#181818" points="129.87,447.5183,139.5983,449.0547,134.6999,446.2252,137.5294,441.3269,129.87,447.5183" style="stroke:#181818;stroke-width:1;"/></g><!--link res_svc to trip_svc--><g class="link" data-entity-1="res_svc" data-entity-2="trip_svc" data-source-line="83" data-uid="lnk40" id="link_res_svc_trip_svc"><path d="M1265.88,253.9283 C1208.81,275.6683 1128.7872,306.1429 1071.7272,327.8729" fill="none" id="res_svc-to-trip_svc" style="stroke:#181818;stroke-width:1;"/><polygon fill="#181818" points="1066.12,330.0083,1075.9543,330.5433,1070.7926,328.2288,1073.1072,323.0671,1066.12,330.0083" style="stroke:#181818;stroke-width:1;"/><text fill="#000000" font-family="Segoe UI" font-size="13" lengthAdjust="spacing" textLength="107.231" x="1186.11" y="297.0366">check availability</text></g><!--link sched_svc to trip_svc--><g class="link" data-entity-1="sched_svc" data-entity-2="trip_svc" data-source-line="84" data-uid="lnk41" id="link_sched_svc_trip_svc"><path d="M665.02,253.9283 C740.16,275.6683 847.1362,306.6112 922.2662,328.3412" fill="none" id="sched_svc-to-trip_svc" style="stroke:#181818;stroke-width:1;"/><polygon fill="#181818" points="928.03,330.0083,920.4957,323.6652,923.2269,328.6191,918.273,331.3502,928.03,330.0083" style="stroke:#181818;stroke-width:1;"/><text fill="#000000" font-family="Segoe UI" font-size="13" lengthAdjust="spacing" textLength="96.2495" x="822.66" y="297.0366">trip constraints</text></g><!--SRC=[jLPHRziW47xthpYv3tsPgpti8PgqIMsQIDMaRcgxvmfZag9Wy02dwgRzznrW4-8uqQGwpeF9tNq7VDzn-1BkrPOyQRQ1wshBf6qrCr30ZL8RBjTmgsh29TmoIxXW5SnLtIY9SIQxX3jfcPP4WB6wfGuAQWLcImjCmlIMMAwa-U0jLlEceCGIeTR1OkWBgrg1inHAunYJ4Ajqbbbk1Vk_TINBoGmw6g993IMXcxLMhQpcIYWD5yk5-oKHveLKwjKbMX5XMEBfO5eo3RF4Nh4LQOLTAcdlISqWVsHhnU3dNPuX4r_UyI1yIDbxCpP805dZ8eU9SxXOp9QVbZFuam4-jESFyeTTs1mtgPKGJET03622PsgrE85un06dB8RZl2UY7rYZ34Ujto90e-a4Ok5Au4TR2cvUabKrRUb15TPLIGnkEDriKPKniYgplnC9bLRof4AbYODG7yU4UiAmUOWQ2EKIZ2gLG5AbVFo8L2vye94F7HFfUekDWPHSSFksa6ikazJ4-GO2fPli1VB14ofqhBDCATQHERnkY_cORey1mGQY-KIZglM0xqd-LBw07D4FPrW9JYqU82Ms-_DqhcDp3MGFe37TUy38oGoWmxEPKDO97o8dKluRMMq8FAc6qtStq5yjQ_UxoHNLZ5XMXO9rappxlXYiem2acklw4DBRUr372xjIZUKr_xs721H5pmGynLjxATIhkrEdldtw-mAAucky3RftjFcQwWVHYgKm37HrrBszxP3x8zv8yvaec_8UY9qxRABlo_rWP_Mq7Pf3fuqHEmSIUgRjdwd9xjgXtyIknyLHOe_TRCpfgTeD4m-ICWPmbHP7IJMTwGWMNIzt7x5rApdrfs-AmxTN6kxFPyXn3tG39Bcjym49QRGROxUNJbIENzTvzWy0]--></g></svg>