<?plantuml 1.2026.2?><svg xmlns="http://www.w3.org/2000/svg" xmlns:xlink="http://www.w3.org/1999/xlink" contentStyleType="text/css" data-diagram-type="DESCRIPTION" height="265px" preserveAspectRatio="none" style="width:4576px;height:265px;background:#FAFAFA;" version="1.1" viewBox="0 0 4576 265" width="4576px" zoomAndPan="magnify"><title>NovaTrek Event Flow</title><defs/><g><rect fill="#FAFAFA" height="265" style="stroke:none;stroke-width:1;" width="4576" x="0" y="0"/><g class="title" data-source-line="7"><text fill="#000000" font-family="Inter" font-size="22" font-weight="bold" lengthAdjust="spacing" textLength="238.7773" x="2164.1113" y="36.2695">NovaTrek Event Flow</text></g><!--cluster Producers--><g class="cluster" data-qualified-name="Producers" data-source-line="9" id="ent0002"><rect fill="#FFFFFF" height="100.13" rx="4" ry="4" style="stroke:#000000;stroke-width:1;" width="1371" x="12" y="115.0302"/><text fill="#000000" font-family="Inter" font-size="12" font-weight="bold" lengthAdjust="spacing" textLength="61.9688" x="666.5156" y="128.6317">Producers</text></g><!--cluster Consumers--><g class="cluster" data-qualified-name="Consumers" data-source-line="22" id="ent0012"><rect fill="#FFFFFF" height="100.13" rx="4" ry="4" style="stroke:#000000;stroke-width:1;" width="835" x="3735" y="115.0302"/><text fill="#000000" font-family="Inter" font-size="12" font-weight="bold" lengthAdjust="spacing" textLength="69.668" x="4117.666" y="128.6317">Consumers</text></g><!--entity svc_check_in--><g class="entity" data-qualified-name="Producers.svc_check_in" data-source-line="10" id="ent0003"><a href="/microservices/svc-check-in/" target="_top" title="/microservices/svc-check-in/" xlink:actuate="onRequest" xlink:href="/microservices/svc-check-in/" xlink:show="new" xlink:title="/microservices/svc-check-in/" xlink:type="simple"><rect fill="#2563EB" height="34.1328" rx="4" ry="4" style="stroke:#000000;stroke-width:1;" width="96.7168" x="27.64" y="165.0302"/><text fill="#000000" font-family="Inter" font-size="12" lengthAdjust="spacing" textLength="76.7168" x="37.64" y="186.6317">svc-check-in</text></a></g><!--entity svc_emergency_response--><g class="entity" data-qualified-name="Producers.svc_emergency_response" data-source-line="11" id="ent0004"><a href="/microservices/svc-emergency-response/" target="_top" title="/microservices/svc-emergency-response/" xlink:actuate="onRequest" xlink:href="/microservices/svc-emergency-response/" xlink:show="new" xlink:title="/microservices/svc-emergency-response/" xlink:type="simple"><rect fill="#DC2626" height="34.1328" rx="4" ry="4" style="stroke:#000000;stroke-width:1;" width="168.7637" x="159.62" y="165.0302"/><text fill="#000000" font-family="Inter" font-size="12" lengthAdjust="spacing" textLength="148.7637" x="169.62" y="186.6317">svc-emergency-response</text></a></g><!--entity svc_guest_profiles--><g class="entity" data-qualified-name="Producers.svc_guest_profiles" data-source-line="12" id="ent0005"><a href="/microservices/svc-guest-profiles/" target="_top" title="/microservices/svc-guest-profiles/" xlink:actuate="onRequest" xlink:href="/microservices/svc-guest-profiles/" xlink:show="new" xlink:title="/microservices/svc-guest-profiles/" xlink:type="simple"><rect fill="#7C3AED" height="34.1328" rx="4" ry="4" style="stroke:#000000;stroke-width:1;" width="128.5684" x="363.72" y="165.0302"/><text fill="#000000" font-family="Inter" font-size="12" lengthAdjust="spacing" textLength="108.5684" x="373.72" y="186.6317">svc-guest-profiles</text></a></g><!--entity svc_payments--><g class="entity" data-qualified-name="Producers.svc_payments" data-source-line="13" id="ent0006"><a href="/microservices/svc-payments/" target="_top" title="/microservices/svc-payments/" xlink:actuate="onRequest" xlink:href="/microservices/svc-payments/" xlink:show="new" xlink:title="/microservices/svc-payments/" xlink:type="simple"><rect fill="#64748B" height="34.1328" rx="4" ry="4" style="stroke:#000000;stroke-width:1;" width="101.8086" x="715.1" y="165.0302"/><text fill="#000000" font-family="Inter" font-size="12" lengthAdjust="spacing" textLength="81.8086" x="725.1" y="186.6317">svc-payments</text></a></g><!--entity svc_reservations--><g class="entity" data-qualified-name="Producers.svc_reservations" data-source-line="14" id="ent0007"><a href="/microservices/svc-reservations/" target="_top" title="/microservices/svc-reservations/" xlink:actuate="onRequest" xlink:href="/microservices/svc-reservations/" xlink:show="new" xlink:title="/microservices/svc-reservations/" xlink:type="simple"><rect fill="#059669" height="34.1328" rx="4" ry="4" style="stroke:#000000;stroke-width:1;" width="116.457" x="851.77" y="165.0302"/><text fill="#000000" font-family="Inter" font-size="12" lengthAdjust="spacing" textLength="96.457" x="861.77" y="186.6317">svc-reservations</text></a></g><!--entity svc_safety_compliance--><g class="entity" data-qualified-name="Producers.svc_safety_compliance" data-source-line="15" id="ent0008"><a href="/microservices/svc-safety-compliance/" target="_top" title="/microservices/svc-safety-compliance/" xlink:actuate="onRequest" xlink:href="/microservices/svc-safety-compliance/" xlink:show="new" xlink:title="/microservices/svc-safety-compliance/" xlink:type="simple"><rect fill="#DC2626" height="34.1328" rx="4" ry="4" style="stroke:#000000;stroke-width:1;" width="153.0781" x="527.46" y="165.0302"/><text fill="#000000" font-family="Inter" font-size="12" lengthAdjust="spacing" textLength="133.0781" x="537.46" y="186.6317">svc-safety-compliance</text></a></g><!--entity svc_scheduling_orchestrator--><g class="entity" data-qualified-name="Producers.svc_scheduling_orchestrator" data-source-line="16" id="ent0009"><a href="/microservices/svc-scheduling-orchestrator/" target="_top" title="/microservices/svc-scheduling-orchestrator/" xlink:actuate="onRequest" xlink:href="/microservices/svc-scheduling-orchestrator/" xlink:show="new" xlink:title="/microservices/svc-scheduling-orchestrator/" xlink:type="simple"><rect fill="#2563EB" height="34.1328" rx="4" ry="4" style="stroke:#000000;stroke-width:1;" width="187.0977" x="1003.45" y="165.0302"/><text fill="#000000" font-family="Inter" font-size="12" lengthAdjust="spacing" textLength="167.0977" x="1013.45" y="186.6317">svc-scheduling-orchestrator</text></a></g><!--entity svc_wildlife_tracking--><g class="entity" data-qualified-name="Producers.svc_wildlife_tracking" data-source-line="17" id="ent0010"><a href="/microservices/svc-wildlife-tracking/" target="_top" title="/microservices/svc-wildlife-tracking/" xlink:actuate="onRequest" xlink:href="/microservices/svc-wildlife-tracking/" xlink:show="new" xlink:title="/microservices/svc-wildlife-tracking/" xlink:type="simple"><rect fill="#DC2626" height="34.1328" rx="4" ry="4" style="stroke:#000000;stroke-width:1;" width="141.7168" x="1225.14" y="165.0302"/><text fill="#000000" font-family="Inter" font-size="12" lengthAdjust="spacing" textLength="121.7168" x="1235.14" y="186.6317">svc-wildlife-tracking</text></a></g><!--entity svc_analytics--><g class="entity" data-qualified-name="Consumers.svc_analytics" data-source-line="23" id="ent0013"><a href="/microservices/svc-analytics/" target="_top" title="/microservices/svc-analytics/" xlink:actuate="onRequest" xlink:href="/microservices/svc-analytics/" xlink:show="new" xlink:title="/microservices/svc-analytics/" xlink:type="simple"><rect fill="#64748B" height="34.1328" rx="4" ry="4" style="stroke:#000000;stroke-width:1;" width="96.0781" x="3750.96" y="165.0302"/><text fill="#000000" font-family="Inter" font-size="12" lengthAdjust="spacing" textLength="76.0781" x="3760.96" y="186.6317">svc-analytics</text></a></g><!--entity svc_guide_management--><g class="entity" data-qualified-name="Consumers.svc_guide_management" data-source-line="24" id="ent0014"><a href="/microservices/svc-guide-management/" target="_top" title="/microservices/svc-guide-management/" xlink:actuate="onRequest" xlink:href="/microservices/svc-guide-management/" xlink:show="new" xlink:title="/microservices/svc-guide-management/" xlink:type="simple"><rect fill="#4F46E5" height="34.1328" rx="4" ry="4" style="stroke:#000000;stroke-width:1;" width="160.8945" x="4206.55" y="165.0302"/><text fill="#000000" font-family="Inter" font-size="12" lengthAdjust="spacing" textLength="140.8945" x="4216.55" y="186.6317">svc-guide-management</text></a></g><!--entity svc_loyalty_rewards--><g class="entity" data-qualified-name="Consumers.svc_loyalty_rewards" data-source-line="25" id="ent0015"><a href="/microservices/svc-loyalty-rewards/" target="_top" title="/microservices/svc-loyalty-rewards/" xlink:actuate="onRequest" xlink:href="/microservices/svc-loyalty-rewards/" xlink:show="new" xlink:title="/microservices/svc-loyalty-rewards/" xlink:type="simple"><rect fill="#64748B" height="34.1328" rx="4" ry="4" style="stroke:#000000;stroke-width:1;" width="136.373" x="4034.81" y="165.0302"/><text fill="#000000" font-family="Inter" font-size="12" lengthAdjust="spacing" textLength="116.373" x="4044.81" y="186.6317">svc-loyalty-rewards</text></a></g><!--entity svc_notifications--><g class="entity" data-qualified-name="Consumers.svc_notifications" data-source-line="26" id="ent0016"><a href="/microservices/svc-notifications/" target="_top" title="/microservices/svc-notifications/" xlink:actuate="onRequest" xlink:href="/microservices/svc-notifications/" xlink:show="new" xlink:title="/microservices/svc-notifications/" xlink:type="simple"><rect fill="#64748B" height="34.1328" rx="4" ry="4" style="stroke:#000000;stroke-width:1;" width="117.7402" x="3882.13" y="165.0302"/><text fill="#000000" font-family="Inter" font-size="12" lengthAdjust="spacing" textLength="97.7402" x="3892.13" y="186.6317">svc-notifications</text></a></g><!--entity svc_trail_management--><g class="entity" data-qualified-name="Consumers.svc_trail_management" data-source-line="30" id="ent0017"><a href="/microservices/svc-trail-management/" target="_top" title="/microservices/svc-trail-management/" xlink:actuate="onRequest" xlink:href="/microservices/svc-trail-management/" xlink:show="new" xlink:title="/microservices/svc-trail-management/" xlink:type="simple"><rect fill="#D97706" height="34.1328" rx="4" ry="4" style="stroke:#000000;stroke-width:1;" width="151.2207" x="4402.39" y="165.0302"/><text fill="#000000" font-family="Inter" font-size="12" lengthAdjust="spacing" textLength="131.2207" x="4412.39" y="186.6317">svc-trail-management</text></a></g><!--entity kafka--><g class="entity" data-qualified-name="kafka" data-source-line="20" id="ent0011"><path d="M2559.04,170.0302 L2660.9502,170.0302 C2665.9502,170.0302 2665.9502,182.0966 2665.9502,182.0966 C2665.9502,182.0966 2665.9502,194.163 2660.9502,194.163 L2559.04,194.163 C2554.04,194.163 2554.04,182.0966 2554.04,182.0966 C2554.04,182.0966 2554.04,170.0302 2559.04,170.0302" fill="#F0E6FF" style="stroke:#000000;stroke-width:1;"/><path d="M2660.9502,170.0302 C2655.9502,170.0302 2655.9502,182.0966 2655.9502,182.0966 C2655.9502,194.163 2660.9502,194.163 2660.9502,194.163" fill="none" style="stroke:#000000;stroke-width:1;"/><text fill="#000000" font-family="Inter" font-size="12" lengthAdjust="spacing" textLength="91.9102" x="2559.04" y="186.6317">Kafka Event Bus</text></g><!--link svc_check_in to kafka--><g class="link" data-entity-1="ent0003" data-entity-2="ent0011" data-link-type="dependency" data-source-line="33" id="lnk18"><path d="M85.4,164.5302 C96.29,146.2902 116.09,118.7902 142,107.0302 C206.63,77.6902 1348.57,101.5402 1419.5,103.8702 C1856.83,118.2202 2377.0828,161.6274 2547.6928,176.5474" fill="none" id="svc_check_in-to-kafka" style="stroke:#000000;stroke-width:1;"/><polygon fill="#000000" points="2553.67,177.0702,2545.0527,172.3013,2548.689,176.6346,2544.3557,180.2709,2553.67,177.0702" style="stroke:#000000;stroke-width:1;"/><text fill="#000000" font-family="Inter" font-size="12" lengthAdjust="spacing" textLength="109.3066" x="1309.5" y="95.6317">checkin.completed</text></g><!--link svc_emergency_response to kafka--><g class="link" data-entity-1="ent0004" data-entity-2="ent0011" data-link-type="dependency" data-source-line="34" id="lnk19"><path d="M260.44,164.6802 C279.13,146.2802 311.54,118.3702 346,107.0302 C435.34,77.6002 1944.94,103.9602 2039,103.8702 C2093.22,103.8202 2106.98,99.2002 2161,103.8702 C2304.87,116.3102 2465.9443,149.4624 2549.9443,168.2224" fill="none" id="svc_emergency_response-to-kafka" style="stroke:#000000;stroke-width:1;"/><polygon fill="#000000" points="2555.8,169.5302,2547.8882,163.6647,2550.9202,168.4403,2546.1445,171.4723,2555.8,169.5302" style="stroke:#000000;stroke-width:1;"/><text fill="#000000" font-family="Inter" font-size="12" lengthAdjust="spacing" textLength="120.9785" x="2040" y="95.6317">emergency.triggered</text></g><!--link svc_guest_profiles to kafka--><g class="link" data-entity-1="ent0005" data-entity-2="ent0011" data-link-type="dependency" data-source-line="35" id="lnk20"><path d="M440.48,164.7802 C454.85,146.4602 480.34,118.6302 510,107.0302 C582.07,78.8302 1129.11,104.0502 1206.5,103.8702 C1249.61,103.7702 1260.4,103.0202 1303.5,103.8702 C1338.85,104.5702 1347.68,105.2402 1383,107.0302 C1834.87,129.8102 2373.8139,165.9314 2547.7839,177.8114" fill="none" id="svc_guest_profiles-to-kafka" style="stroke:#000000;stroke-width:1;"/><polygon fill="#000000" points="2553.77,178.2202,2545.0634,173.6163,2548.7816,177.8795,2544.5184,181.5977,2553.77,178.2202" style="stroke:#000000;stroke-width:1;"/><text fill="#000000" font-family="Inter" font-size="12" lengthAdjust="spacing" textLength="95.0039" x="1207.5" y="95.6317">guest.registered</text></g><!--link svc_safety_compliance to kafka--><g class="link" data-entity-1="ent0008" data-entity-2="ent0011" data-link-type="dependency" data-source-line="36" id="lnk21"><path d="M618.87,164.7102 C635.84,146.3302 665.49,118.4502 698,107.0302 C774.94,79.9802 2084.44,103.9602 2166,103.8702 C2211.33,103.8202 2222.95,98.7802 2268,103.8702 C2378.46,116.3402 2499.4742,149.0859 2563.1742,167.8359" fill="none" id="svc_safety_compliance-to-kafka" style="stroke:#000000;stroke-width:1;"/><polygon fill="#000000" points="2568.93,169.5302,2561.4257,163.1516,2564.1335,168.1183,2559.1668,170.826,2568.93,169.5302" style="stroke:#000000;stroke-width:1;"/><text fill="#000000" font-family="Inter" font-size="12" lengthAdjust="spacing" textLength="100.6582" x="2167" y="95.6317">incident.reported</text></g><!--link kafka to svc_safety_compliance--><g class="link" data-entity-1="ent0011" data-entity-2="ent0008" data-link-type="dependency" data-source-line="47" id="lnk31"><path d="M2553.84,171.9002 C2451.11,153.8202 2225.81,116.8302 2034,103.8702 C1959.95,98.8602 768.02,82.4002 698,107.0302 C665.49,118.4602 639.9114,141.9329 622.9414,160.3029" fill="none" id="kafka-to-svc_safety_compliance" style="stroke:#000000;stroke-width:1;"/><polygon fill="#000000" points="618.87,164.7102,627.9152,160.8135,622.2628,161.0374,622.0389,155.385,618.87,164.7102" style="stroke:#000000;stroke-width:1;"/><text fill="#000000" font-family="Inter" font-size="12" lengthAdjust="spacing" textLength="120.9785" x="1913" y="95.6317">emergency.triggered</text></g><!--link svc_payments to kafka--><g class="link" data-entity-1="ent0006" data-entity-2="ent0011" data-link-type="dependency" data-source-line="37" id="lnk22"><path d="M775.85,164.5702 C787.2,146.3502 807.71,118.8802 834,107.0302 C936.31,60.8902 974.27,104.5702 1086.5,103.8702 C1218.28,103.0502 1251.32,101.8602 1383,107.0302 C1835.1,124.7802 2373.8971,164.1574 2547.8071,177.3174" fill="none" id="svc_payments-to-kafka" style="stroke:#000000;stroke-width:1;"/><polygon fill="#000000" points="2553.79,177.7702,2545.1175,173.1025,2548.8043,177.3929,2544.5138,181.0797,2553.79,177.7702" style="stroke:#000000;stroke-width:1;"/><text fill="#000000" font-family="Inter" font-size="12" lengthAdjust="spacing" textLength="113.209" x="1087.5" y="95.6317">payment.processed</text></g><!--link svc_reservations to kafka--><g class="link" data-entity-1="ent0007" data-entity-2="ent0011" data-link-type="dependency" data-source-line="38" id="lnk23"><path d="M917.27,164.5602 C926.2,145.6202 943.33,116.4802 968.5,103.8702 C979.49,98.3702 1104.95,97.0702 1383,107.0302 C1835.16,123.2102 2373.9182,163.6033 2547.8082,177.1733" fill="none" id="svc_reservations-to-kafka" style="stroke:#000000;stroke-width:1;"/><polygon fill="#000000" points="2553.79,177.6402,2545.1285,172.9521,2548.8052,177.2511,2544.5061,180.9278,2553.79,177.6402" style="stroke:#000000;stroke-width:1;"/><text fill="#000000" font-family="Inter" font-size="12" lengthAdjust="spacing" textLength="111.8145" x="969.5" y="95.6317">reservation.created</text></g><!--link svc_reservations to kafka--><g class="link" data-entity-1="ent0007" data-entity-2="ent0011" data-link-type="dependency" data-source-line="39" id="lnk24"><path d="M917.27,164.5602 C926.2,145.6202 943.33,116.4802 968.5,103.8702 C979.49,98.3702 1104.95,97.0702 1383,107.0302 C1835.16,123.2102 2373.9182,163.6033 2547.8082,177.1733" fill="none" id="svc_reservations-to-kafka-1" style="stroke:#000000;stroke-width:1;"/><polygon fill="#000000" points="2553.79,177.6402,2545.1285,172.9521,2548.8052,177.2511,2544.5061,180.9278,2553.79,177.6402" style="stroke:#000000;stroke-width:1;"/><text fill="#000000" font-family="Inter" font-size="12" lengthAdjust="spacing" textLength="159.3926" x="945.5" y="95.6317">reservation.status_changed</text></g><!--link kafka to svc_reservations--><g class="link" data-entity-1="ent0011" data-entity-2="ent0007" data-link-type="dependency" data-source-line="53" id="lnk37"><path d="M2553.74,174.9502 C2419.87,158.3702 2071.72,117.6002 1779.5,103.8702 C1691.43,99.7302 1067.48,73.3502 986,107.0302 C957.72,118.7102 937.8067,141.6372 924.7467,159.9272" fill="none" id="kafka-to-svc_reservations" style="stroke:#000000;stroke-width:1;"/><polygon fill="#000000" points="921.26,164.8102,929.7453,159.8102,924.1656,160.741,923.2347,155.1613,921.26,164.8102" style="stroke:#000000;stroke-width:1;"/><text fill="#000000" font-family="Inter" font-size="12" lengthAdjust="spacing" textLength="113.209" x="1665.5" y="95.6317">payment.processed</text></g><!--link svc_scheduling_orchestrator to kafka--><g class="link" data-entity-1="ent0009" data-entity-2="ent0011" data-link-type="dependency" data-source-line="40" id="lnk25"><path d="M1115.2,164.6602 C1135.81,146.2402 1171.31,118.3202 1208,107.0302 C1338.83,66.7602 2303.11,104.0502 2440,103.8702 C2490.67,103.8102 2508.94,80.7102 2554,103.8702 C2581.04,117.7602 2595.6531,145.889 2603.1631,164.199" fill="none" id="svc_scheduling_orchestrator-to-kafka" style="stroke:#000000;stroke-width:1;"/><polygon fill="#000000" points="2605.44,169.7502,2605.7255,159.9054,2603.5426,165.1242,2598.3239,162.9413,2605.44,169.7502" style="stroke:#000000;stroke-width:1;"/><text fill="#000000" font-family="Inter" font-size="12" lengthAdjust="spacing" textLength="112.6406" x="2441" y="95.6317">schedule.published</text></g><!--link kafka to svc_scheduling_orchestrator--><g class="link" data-entity-1="ent0011" data-entity-2="ent0009" data-link-type="dependency" data-source-line="46" id="lnk30"><path d="M2553.68,173.6802 C2434.64,156.3702 2148.55,117.2702 1907,103.8702 C1751.9,95.2702 1356.39,61.1102 1208,107.0302 C1171.33,118.3702 1140.2968,142.2854 1119.6768,160.6854" fill="none" id="kafka-to-svc_scheduling_orchestrator" style="stroke:#000000;stroke-width:1;"/><polygon fill="#000000" points="1115.2,164.6802,1124.5784,161.6725,1118.9307,161.3512,1119.252,155.7034,1115.2,164.6802" style="stroke:#000000;stroke-width:1;"/><text fill="#000000" font-family="Inter" font-size="12" lengthAdjust="spacing" textLength="120.9785" x="1786" y="95.6317">emergency.triggered</text></g><!--link kafka to svc_scheduling_orchestrator--><g class="link" data-entity-1="ent0011" data-entity-2="ent0009" data-link-type="dependency" data-source-line="55" id="lnk39"><path d="M2553.68,173.6802 C2434.64,156.3702 2148.55,117.2702 1907,103.8702 C1751.9,95.2702 1356.39,61.1102 1208,107.0302 C1171.33,118.3702 1140.2968,142.2854 1119.6768,160.6854" fill="none" id="kafka-to-svc_scheduling_orchestrator-1" style="stroke:#000000;stroke-width:1;"/><polygon fill="#000000" points="1115.2,164.6802,1124.5784,161.6725,1118.9307,161.3512,1119.252,155.7034,1115.2,164.6802" style="stroke:#000000;stroke-width:1;"/><text fill="#000000" font-family="Inter" font-size="12" lengthAdjust="spacing" textLength="111.8145" x="1790.5" y="95.6317">reservation.created</text></g><!--link kafka to svc_scheduling_orchestrator--><g class="link" data-entity-1="ent0011" data-entity-2="ent0009" data-link-type="dependency" data-source-line="62" id="lnk46"><path d="M2553.68,173.6802 C2434.64,156.3702 2148.55,117.2702 1907,103.8702 C1751.9,95.2702 1356.39,61.1102 1208,107.0302 C1171.33,118.3702 1140.2968,142.2854 1119.6768,160.6854" fill="none" id="kafka-to-svc_scheduling_orchestrator-2" style="stroke:#000000;stroke-width:1;"/><polygon fill="#000000" points="1115.2,164.6802,1124.5784,161.6725,1118.9307,161.3512,1119.252,155.7034,1115.2,164.6802" style="stroke:#000000;stroke-width:1;"/><text fill="#000000" font-family="Inter" font-size="12" lengthAdjust="spacing" textLength="115.1367" x="1788.5" y="95.6317">wildlife_alert.issued</text></g><!--link svc_wildlife_tracking to kafka--><g class="link" data-entity-1="ent0010" data-entity-2="ent0011" data-link-type="dependency" data-source-line="41" id="lnk26"><path d="M1367.11,182.0902 C1600.87,182.0902 2336.64,182.0902 2547.56,182.0902" fill="none" id="svc_wildlife_tracking-to-kafka" style="stroke:#000000;stroke-width:1;"/><polygon fill="#000000" points="2553.56,182.0902,2544.56,178.0902,2548.56,182.0902,2544.56,186.0902,2553.56,182.0902" style="stroke:#000000;stroke-width:1;"/><text fill="#000000" font-family="Inter" font-size="12" lengthAdjust="spacing" textLength="115.1367" x="1902.95" y="175.6917">wildlife_alert.issued</text></g><!--link kafka to svc_analytics--><g class="link" data-entity-1="ent0011" data-entity-2="ent0013" data-link-type="dependency" data-source-line="43" id="lnk27"><path d="M2666.29,174.8602 C2782.56,160.7802 3057.69,131.8102 3288.96,141.0902 C3458.94,147.9102 3654.0522,166.8492 3744.5822,176.2692" fill="none" id="kafka-to-svc_analytics" style="stroke:#000000;stroke-width:1;"/><polygon fill="#000000" points="3750.55,176.8902,3742.0123,171.9802,3745.5769,176.3727,3741.1843,179.9372,3750.55,176.8902" style="stroke:#000000;stroke-width:1;"/><text fill="#000000" font-family="Inter" font-size="12" lengthAdjust="spacing" textLength="109.3066" x="3153.96" y="131.6917">checkin.completed</text></g><!--link kafka to svc_analytics--><g class="link" data-entity-1="ent0011" data-entity-2="ent0013" data-link-type="dependency" data-source-line="48" id="lnk32"><path d="M2666.45,185.5002 C2780.41,191.9802 3046.15,205.1002 3269.46,201.0902 C3446.75,197.9102 3651.2665,189.0286 3744.4665,184.6986" fill="none" id="kafka-to-svc_analytics-1" style="stroke:#000000;stroke-width:1;"/><polygon fill="#000000" points="3750.46,184.4202,3741.2841,180.8421,3745.4654,184.6522,3741.6553,188.8335,3750.46,184.4202" style="stroke:#000000;stroke-width:1;"/><text fill="#000000" font-family="Inter" font-size="12" lengthAdjust="spacing" textLength="120.9785" x="3148.46" y="197.6917">emergency.triggered</text></g><!--link kafka to svc_analytics--><g class="link" data-entity-1="ent0011" data-entity-2="ent0013" data-link-type="dependency" data-source-line="50" id="lnk34"><path d="M2666.24,170.9802 C2782.41,149.3402 3057.37,104.8402 3288.96,119.0902 C3459.5,129.5802 3654.3756,158.6808 3744.7356,173.1608" fill="none" id="kafka-to-svc_analytics-2" style="stroke:#000000;stroke-width:1;"/><polygon fill="#000000" points="3750.66,174.1102,3742.4063,168.7365,3745.723,173.319,3741.1405,176.6357,3750.66,174.1102" style="stroke:#000000;stroke-width:1;"/><text fill="#000000" font-family="Inter" font-size="12" lengthAdjust="spacing" textLength="95.0039" x="3160.96" y="109.6917">guest.registered</text></g><!--link kafka to svc_analytics--><g class="link" data-entity-1="ent0011" data-entity-2="ent0013" data-link-type="dependency" data-source-line="52" id="lnk36"><path d="M2666.35,193.3802 C2780.14,214.8602 3045.58,258.3602 3269.46,245.0902 C3447.6,234.5302 3651.7504,205.0763 3744.6904,190.7163" fill="none" id="kafka-to-svc_analytics-3" style="stroke:#000000;stroke-width:1;"/><polygon fill="#000000" points="3750.62,189.8002,3741.1148,187.2213,3745.6786,190.5636,3742.3363,195.1275,3750.62,189.8002" style="stroke:#000000;stroke-width:1;"/><text fill="#000000" font-family="Inter" font-size="12" lengthAdjust="spacing" textLength="100.6582" x="3158.46" y="241.6917">incident.reported</text></g><!--link kafka to svc_analytics--><g class="link" data-entity-1="ent0011" data-entity-2="ent0013" data-link-type="dependency" data-source-line="56" id="lnk40"><path d="M2666.41,189.4402 C2780.31,203.4202 3045.94,231.7302 3269.46,223.0902 C3447.06,216.2302 3651.45,197.0597 3744.55,187.7097" fill="none" id="kafka-to-svc_analytics-4" style="stroke:#000000;stroke-width:1;"/><polygon fill="#000000" points="3750.52,187.1102,3741.1653,184.0295,3745.545,187.6098,3741.9648,191.9895,3750.52,187.1102" style="stroke:#000000;stroke-width:1;"/><text fill="#000000" font-family="Inter" font-size="12" lengthAdjust="spacing" textLength="111.8145" x="3152.96" y="219.6917">reservation.created</text></g><!--link kafka to svc_analytics--><g class="link" data-entity-1="ent0011" data-entity-2="ent0013" data-link-type="dependency" data-source-line="58" id="lnk42"><path d="M2666.15,182.0902 C2868.92,182.0902 3555.32,182.0902 3744.76,182.0902" fill="none" id="kafka-to-svc_analytics-5" style="stroke:#000000;stroke-width:1;"/><polygon fill="#000000" points="3750.76,182.0902,3741.76,178.0902,3745.76,182.0902,3741.76,186.0902,3750.76,182.0902" style="stroke:#000000;stroke-width:1;"/><text fill="#000000" font-family="Inter" font-size="12" lengthAdjust="spacing" textLength="159.3926" x="3128.96" y="175.6917">reservation.status_changed</text></g><!--link kafka to svc_analytics--><g class="link" data-entity-1="ent0011" data-entity-2="ent0013" data-link-type="dependency" data-source-line="64" id="lnk48"><path d="M2666.32,178.7402 C2782.64,172.2102 3057.87,158.7902 3288.96,163.0902 C3458.62,166.2502 3653.8669,175.0318 3744.4969,179.3918" fill="none" id="kafka-to-svc_analytics-6" style="stroke:#000000;stroke-width:1;"/><polygon fill="#000000" points="3750.49,179.6802,3741.6926,175.2523,3745.4958,179.4399,3741.3082,183.2431,3750.49,179.6802" style="stroke:#000000;stroke-width:1;"/><text fill="#000000" font-family="Inter" font-size="12" lengthAdjust="spacing" textLength="115.1367" x="3150.96" y="153.6917">wildlife_alert.issued</text></g><!--link kafka to svc_notifications--><g class="link" data-entity-1="ent0011" data-entity-2="ent0016" data-link-type="dependency" data-source-line="44" id="lnk28"><path d="M2666.44,176.9402 C2834.44,161.8902 3346.05,118.1802 3771.5,103.8702 C3820.81,102.2102 3838.39,81.7802 3882.5,103.8702 C3907.67,116.4802 3922.2412,140.1931 3931.1712,159.1331" fill="none" id="kafka-to-svc_notifications" style="stroke:#000000;stroke-width:1;"/><polygon fill="#000000" points="3933.73,164.5602,3933.5098,154.7138,3931.5977,160.0376,3926.2738,158.1255,3933.73,164.5602" style="stroke:#000000;stroke-width:1;"/><text fill="#000000" font-family="Inter" font-size="12" lengthAdjust="spacing" textLength="109.3066" x="3772.5" y="95.6317">checkin.completed</text></g><!--link kafka to svc_notifications--><g class="link" data-entity-1="ent0011" data-entity-2="ent0016" data-link-type="dependency" data-source-line="45" id="lnk29"><path d="M2666.44,176.9402 C2834.44,161.8902 3346.05,118.1802 3771.5,103.8702 C3820.81,102.2102 3838.39,81.7802 3882.5,103.8702 C3907.67,116.4802 3922.2412,140.1931 3931.1712,159.1331" fill="none" id="kafka-to-svc_notifications-1" style="stroke:#000000;stroke-width:1;"/><polygon fill="#000000" points="3933.73,164.5602,3933.5098,154.7138,3931.5977,160.0376,3926.2738,158.1255,3933.73,164.5602" style="stroke:#000000;stroke-width:1;"/><text fill="#000000" font-family="Inter" font-size="12" lengthAdjust="spacing" textLength="120.9785" x="3767" y="95.6317">emergency.triggered</text></g><!--link kafka to svc_notifications--><g class="link" data-entity-1="ent0011" data-entity-2="ent0016" data-link-type="dependency" data-source-line="51" id="lnk35"><path d="M2666.44,176.9402 C2834.44,161.8902 3346.05,118.1802 3771.5,103.8702 C3820.81,102.2102 3838.39,81.7802 3882.5,103.8702 C3907.67,116.4802 3922.2412,140.1931 3931.1712,159.1331" fill="none" id="kafka-to-svc_notifications-2" style="stroke:#000000;stroke-width:1;"/><polygon fill="#000000" points="3933.73,164.5602,3933.5098,154.7138,3931.5977,160.0376,3926.2738,158.1255,3933.73,164.5602" style="stroke:#000000;stroke-width:1;"/><text fill="#000000" font-family="Inter" font-size="12" lengthAdjust="spacing" textLength="100.6582" x="3777" y="95.6317">incident.reported</text></g><!--link kafka to svc_notifications--><g class="link" data-entity-1="ent0011" data-entity-2="ent0016" data-link-type="dependency" data-source-line="54" id="lnk38"><path d="M2666.44,176.9402 C2834.44,161.8902 3346.05,118.1802 3771.5,103.8702 C3820.81,102.2102 3838.39,81.7802 3882.5,103.8702 C3907.67,116.4802 3922.2412,140.1931 3931.1712,159.1331" fill="none" id="kafka-to-svc_notifications-3" style="stroke:#000000;stroke-width:1;"/><polygon fill="#000000" points="3933.73,164.5602,3933.5098,154.7138,3931.5977,160.0376,3926.2738,158.1255,3933.73,164.5602" style="stroke:#000000;stroke-width:1;"/><text fill="#000000" font-family="Inter" font-size="12" lengthAdjust="spacing" textLength="113.209" x="3770.5" y="95.6317">payment.processed</text></g><!--link kafka to svc_notifications--><g class="link" data-entity-1="ent0011" data-entity-2="ent0016" data-link-type="dependency" data-source-line="57" id="lnk41"><path d="M2666.44,176.9402 C2834.44,161.8902 3346.05,118.1802 3771.5,103.8702 C3820.81,102.2102 3838.39,81.7802 3882.5,103.8702 C3907.67,116.4802 3922.2412,140.1931 3931.1712,159.1331" fill="none" id="kafka-to-svc_notifications-4" style="stroke:#000000;stroke-width:1;"/><polygon fill="#000000" points="3933.73,164.5602,3933.5098,154.7138,3931.5977,160.0376,3926.2738,158.1255,3933.73,164.5602" style="stroke:#000000;stroke-width:1;"/><text fill="#000000" font-family="Inter" font-size="12" lengthAdjust="spacing" textLength="159.3926" x="3747.5" y="95.6317">reservation.status_changed</text></g><!--link kafka to svc_notifications--><g class="link" data-entity-1="ent0011" data-entity-2="ent0016" data-link-type="dependency" data-source-line="60" id="lnk44"><path d="M2666.44,176.9402 C2834.44,161.8902 3346.05,118.1802 3771.5,103.8702 C3820.81,102.2102 3838.39,81.7802 3882.5,103.8702 C3907.67,116.4802 3922.2412,140.1931 3931.1712,159.1331" fill="none" id="kafka-to-svc_notifications-5" style="stroke:#000000;stroke-width:1;"/><polygon fill="#000000" points="3933.73,164.5602,3933.5098,154.7138,3931.5977,160.0376,3926.2738,158.1255,3933.73,164.5602" style="stroke:#000000;stroke-width:1;"/><text fill="#000000" font-family="Inter" font-size="12" lengthAdjust="spacing" textLength="112.6406" x="3771" y="95.6317">schedule.published</text></g><!--link kafka to svc_notifications--><g class="link" data-entity-1="ent0011" data-entity-2="ent0016" data-link-type="dependency" data-source-line="61" id="lnk45"><path d="M2666.44,176.9402 C2834.44,161.8902 3346.05,118.1802 3771.5,103.8702 C3820.81,102.2102 3838.39,81.7802 3882.5,103.8702 C3907.67,116.4802 3922.2412,140.1931 3931.1712,159.1331" fill="none" id="kafka-to-svc_notifications-6" style="stroke:#000000;stroke-width:1;"/><polygon fill="#000000" points="3933.73,164.5602,3933.5098,154.7138,3931.5977,160.0376,3926.2738,158.1255,3933.73,164.5602" style="stroke:#000000;stroke-width:1;"/><text fill="#000000" font-family="Inter" font-size="12" lengthAdjust="spacing" textLength="115.1367" x="3769.5" y="95.6317">wildlife_alert.issued</text></g><!--link kafka to svc_loyalty_rewards--><g class="link" data-entity-1="ent0011" data-entity-2="ent0015" data-link-type="dependency" data-source-line="49" id="lnk33"><path d="M2614.48,169.7502 C2621.88,151.4502 2638.58,117.7802 2665.5,103.8702 C2703.8,84.0802 2719.39,103.8202 2762.5,103.8702 C2901.89,104.0502 3886.55,57.9102 4017,107.0302 C4047.6,118.5502 4070.6451,141.7857 4085.8951,160.1357" fill="none" id="kafka-to-svc_loyalty_rewards" style="stroke:#000000;stroke-width:1;"/><polygon fill="#000000" points="4089.73,164.7502,4087.0539,155.2718,4086.5342,160.9048,4080.9013,160.3851,4089.73,164.7502" style="stroke:#000000;stroke-width:1;"/><text fill="#000000" font-family="Inter" font-size="12" lengthAdjust="spacing" textLength="95.0039" x="2666.5" y="95.6317">guest.registered</text></g><!--link kafka to svc_guide_management--><g class="link" data-entity-1="ent0011" data-entity-2="ent0014" data-link-type="dependency" data-source-line="59" id="lnk43"><path d="M2627.91,169.7502 C2656.16,151.1202 2713.46,116.6302 2768,103.8702 C2817.33,92.3302 2831.33,103.8102 2882,103.8702 C3027.22,104.0502 4051.52,60.2402 4189,107.0302 C4222.48,118.4202 4249.3335,142.0024 4267.1635,160.3924" fill="none" id="kafka-to-svc_guide_management" style="stroke:#000000;stroke-width:1;"/><polygon fill="#000000" points="4271.34,164.7002,4267.947,155.4542,4267.8595,161.1104,4262.2034,161.0229,4271.34,164.7002" style="stroke:#000000;stroke-width:1;"/><text fill="#000000" font-family="Inter" font-size="12" lengthAdjust="spacing" textLength="112.6406" x="2769" y="95.6317">schedule.published</text></g><!--link kafka to svc_trail_management--><g class="link" data-entity-1="ent0011" data-entity-2="ent0017" data-link-type="dependency" data-source-line="63" id="lnk47"><path d="M2666.26,176.3602 C2822.2,160.8102 3273.33,118.0002 3649.5,103.8702 C3701.46,101.9202 3714.5,103.7402 3766.5,103.8702 C3903.95,104.2202 4255.52,60.9202 4385,107.0302 C4417.25,118.5102 4442.5135,141.94 4459.2835,160.3" fill="none" id="kafka-to-svc_trail_management" style="stroke:#000000;stroke-width:1;"/><polygon fill="#000000" points="4463.33,164.7302,4460.2137,155.3873,4459.9579,161.0384,4454.3069,160.7826,4463.33,164.7302" style="stroke:#000000;stroke-width:1;"/><text fill="#000000" font-family="Inter" font-size="12" lengthAdjust="spacing" textLength="115.1367" x="3650.5" y="95.6317">wildlife_alert.issued</text></g><?plantuml-src xLRBRjim4BphArZdB2Lr73dfeK0Rn41H82ZGte90OAYLJ9WYLP9ou1RzzzAotgHiEOUU2b_idPqPShbB-frUGmOePvXoJsqepx746Nh1P9DAKV3uNZ0XqSNgq_xJoOWXmGNJAy7r8pOANxW6wSQ_qr-0tiyxOAKiEKXqsuaJaUM2Ww7e7GCaWMZCKmQUfjhyVXHR_4F21ZriJGvQCV7gUKqIcdsJ8Yu8I3L3lptKgg6PsXAVh85iVCfd22ja0b4PY2X7Jq-N6ILIA91RIa1TTjCldv_HnVmcl8ONMzFKJgR0oSwNe0oWe55leAY6t3wsHEaOatau3st7j02b_LoAX39GZLiPZkgmswbFBLsMv1f3RBlaU9UP7wr-7N0hrsYf6IwMYrj7hSps30ThQlROw7Q3RkrkHgb_TNCNXdUsli89w9s_ZpAAEMcFue14BU9siWIE7eGo3H8NZFBK5z9yLrfYBMHhsk1H5n-nTeiTxRrNoc964_1DBZ4Zb3RMDHBLYDlK4kZkzu_d_IoWC5Fr5ISRN8tSv-9mT9ioTh6wUWXNgzuCtfjZAhAn6SGSivscf6s09k9UOmCVRQsqe37ucKbEOT-8dR4mGDG2OuFHfvTUYsGHmetjnSGECxsVrbSiutOZLJogucwd0VdefhZGDA5aC32zgDkab_9_9F_XI9eKobnzM08d-t18FspsRhcyAkUnzsRvagPhxN-iHl43AX7AWx9MeCsjFl8AMSmc9z06Ia5MtC6ROl5AF92GKgKRadsm5ezoOkQDxwcvaFLAcnV6og-GmAp4L4fL-RqsjJWTD20Ii3wRfJJMXJ85DnTRlRUH_h5qgaG8ykA5KRMk-FQzR36R5Cn0we0gLHYoTu2RxFx5wJfx1w5_SxoHvEeL1ssiKjC5h3QQJEqMPY9bU7SxUlk4qPJyOItjEJXXCedGwt3Ny4nOsIJI-1cxXk_4rYPIXWizCh1d69vcMlyZd3C-OS5lOxblXRFEPBA4zLITmUqMs4tw2m00?></g></svg>