<svg xmlns="http://www.w3.org/2000/svg" xmlns:xlink="http://www.w3.org/1999/xlink" contentStyleType="text/css" data-diagram-type="SEQUENCE" height="509px" preserveAspectRatio="none" style="width:727px;height:509px;background:#FEFEFE;" version="1.1" viewBox="0 0 727 509" width="727px" zoomAndPan="magnify"><title>GET /check-ins/{check_in_id}</title><defs/><g><rect fill="#FEFEFE" height="509" style="stroke:none;stroke-width:1;" width="727" x="0" y="0"/><text fill="#000000" font-family="Segoe UI" font-size="14" font-weight="bold" lengthAdjust="spacing" textLength="213.8281" x="252.6145" y="28.5352">GET /check-ins/{check_in_id}</text><text fill="#000000" font-family="Segoe UI" font-size="14" font-weight="bold" lengthAdjust="spacing" textLength="145.7969" x="286.6301" y="45.0234">Get check-in details</text><g><title>API Gateway</title><rect fill="#2563EB" height="225.1738" style="stroke:#A23B72;stroke-width:1;" width="10" x="236.8086" y="188.0859"/></g><g><title>svc-check-in</title><rect fill="#2563EB" height="166.5527" style="stroke:#A23B72;stroke-width:1;" width="10" x="350.9434" y="217.3965"/></g><g><title>PostgreSQL</title><rect fill="#FCE4EC" height="29.3105" style="stroke:#A23B72;stroke-width:1;" width="10" x="528.834" y="290.0176"/></g><g><title>Client</title><rect fill="#000000" fill-opacity="0.00000" height="309.7949" width="8" x="27.7524" y="121.4648"/><line style="stroke:#A23B72;stroke-width:0.5;stroke-dasharray:5,5;" x1="31" x2="31" y1="121.4648" y2="431.2598"/></g><g><title>API Gateway</title><rect fill="#000000" fill-opacity="0.00000" height="309.7949" width="8" x="237.8086" y="121.4648"/><line style="stroke:#A23B72;stroke-width:0.5;stroke-dasharray:5,5;" x1="241.5195" x2="241.5195" y1="121.4648" y2="431.2598"/></g><g><title>svc-check-in</title><rect fill="#000000" fill-opacity="0.00000" height="309.7949" width="8" x="351.9434" y="121.4648"/><line style="stroke:#A23B72;stroke-width:0.5;stroke-dasharray:5,5;" x1="355.1919" x2="355.1919" y1="121.4648" y2="431.2598"/></g><g><title>PostgreSQL</title><rect fill="#000000" fill-opacity="0.00000" height="309.7949" width="8" x="529.834" y="121.4648"/><line style="stroke:#A23B72;stroke-width:0.5;stroke-dasharray:5,5;" x1="533.4092" x2="533.4092" y1="121.4648" y2="431.2598"/></g><g class="participant participant-head" data-participant="Client"><rect fill="#E8F4F8" height="30.4883" rx="2.5" ry="2.5" style="stroke:#2E86AB;stroke-width:0.5;" width="53.5049" x="5" y="89.9766"/><text fill="#000000" font-family="Segoe UI" font-size="14" lengthAdjust="spacing" textLength="39.5049" x="12" y="110.5117">Client</text></g><g class="participant participant-tail" data-participant="Client"><rect fill="#E8F4F8" height="30.4883" rx="2.5" ry="2.5" style="stroke:#2E86AB;stroke-width:0.5;" width="53.5049" x="5" y="430.2598"/><text fill="#000000" font-family="Segoe UI" font-size="14" lengthAdjust="spacing" textLength="39.5049" x="12" y="450.7949">Client</text></g><g class="participant participant-head" data-participant="GW"><rect fill="#DBEAFE" height="30.4883" rx="2.5" ry="2.5" style="stroke:#2E86AB;stroke-width:0.5;" width="96.5781" x="193.5195" y="89.9766"/><text fill="#000000" font-family="Segoe UI" font-size="14" lengthAdjust="spacing" textLength="82.5781" x="200.5195" y="110.5117">API Gateway</text></g><g class="participant participant-tail" data-participant="GW"><rect fill="#DBEAFE" height="30.4883" rx="2.5" ry="2.5" style="stroke:#2E86AB;stroke-width:0.5;" width="96.5781" x="193.5195" y="430.2598"/><text fill="#000000" font-family="Segoe UI" font-size="14" lengthAdjust="spacing" textLength="82.5781" x="200.5195" y="450.7949">API Gateway</text></g><g class="participant participant-head" data-participant="Svc"><a href="/microservices/svc-check-in/" target="_top" title="/microservices/svc-check-in/" xlink:actuate="onRequest" xlink:href="/microservices/svc-check-in/" xlink:show="new" xlink:title="/microservices/svc-check-in/" xlink:type="simple"><rect fill="#E8F4F8" height="30.4883" rx="2.5" ry="2.5" style="stroke:#2E86AB;stroke-width:0.5;" width="103.5029" x="304.1919" y="89.9766"/><text fill="#000000" font-family="Segoe UI" font-size="14" lengthAdjust="spacing" textLength="89.5029" x="311.1919" y="110.5117">svc-check-in</text></a></g><g class="participant participant-tail" data-participant="Svc"><a href="/microservices/svc-check-in/" target="_top" title="/microservices/svc-check-in/" xlink:actuate="onRequest" xlink:href="/microservices/svc-check-in/" xlink:show="new" xlink:title="/microservices/svc-check-in/" xlink:type="simple"><rect fill="#E8F4F8" height="30.4883" rx="2.5" ry="2.5" style="stroke:#2E86AB;stroke-width:0.5;" width="103.5029" x="304.1919" y="430.2598"/><text fill="#000000" font-family="Segoe UI" font-size="14" lengthAdjust="spacing" textLength="89.5029" x="311.1919" y="450.7949">svc-check-in</text></a></g><g class="participant participant-head" data-participant="DB"><text fill="#000000" font-family="Segoe UI" font-size="14" lengthAdjust="spacing" textLength="76.8496" x="492.4092" y="118.5117">PostgreSQL</text><path d="M515.834,68.9766 C515.834,58.9766 533.834,58.9766 533.834,58.9766 C533.834,58.9766 551.834,58.9766 551.834,68.9766 L551.834,94.9766 C551.834,104.9766 533.834,104.9766 533.834,104.9766 C533.834,104.9766 515.834,104.9766 515.834,94.9766 L515.834,68.9766" fill="#FCE4EC" style="stroke:#181818;stroke-width:0.5;"/><path d="M515.834,68.9766 C515.834,78.9766 533.834,78.9766 533.834,78.9766 C533.834,78.9766 551.834,78.9766 551.834,68.9766" fill="none" style="stroke:#181818;stroke-width:0.5;"/></g><g class="participant participant-tail" data-participant="DB"><text fill="#000000" font-family="Segoe UI" font-size="14" lengthAdjust="spacing" textLength="76.8496" x="492.4092" y="443.7949">PostgreSQL</text><path d="M515.834,456.748 C515.834,446.748 533.834,446.748 533.834,446.748 C533.834,446.748 551.834,446.748 551.834,456.748 L551.834,482.748 C551.834,492.748 533.834,492.748 533.834,492.748 C533.834,492.748 515.834,492.748 515.834,482.748 L515.834,456.748" fill="#FCE4EC" style="stroke:#181818;stroke-width:0.5;"/><path d="M515.834,456.748 C515.834,466.748 533.834,466.748 533.834,466.748 C533.834,466.748 551.834,466.748 551.834,456.748" fill="none" style="stroke:#181818;stroke-width:0.5;"/></g><g><title>API Gateway</title><rect fill="#2563EB" height="225.1738" style="stroke:#A23B72;stroke-width:1;" width="10" x="236.8086" y="188.0859"/></g><g><title>svc-check-in</title><rect fill="#2563EB" height="166.5527" style="stroke:#A23B72;stroke-width:1;" width="10" x="350.9434" y="217.3965"/></g><g><title>PostgreSQL</title><rect fill="#FCE4EC" height="29.3105" style="stroke:#A23B72;stroke-width:1;" width="10" x="528.834" y="290.0176"/></g><path d="M285,136.4648 L285,161.4648 L425,161.4648 L425,146.4648 L415,136.4648 L285,136.4648" fill="#FEFFDD" style="stroke:#181818;stroke-width:0.5;"/><path d="M415,136.4648 L415,146.4648 L425,146.4648 L415,136.4648" fill="#FEFFDD" style="stroke:#181818;stroke-width:0.5;"/><a href="/services/api/svc-check-in.html#/Check-Ins/getCheckIn" target="_top" title="/services/api/svc-check-in.html#/Check-Ins/getCheckIn" xlink:actuate="onRequest" xlink:href="/services/api/svc-check-in.html#/Check-Ins/getCheckIn" xlink:show="new" xlink:title="/services/api/svc-check-in.html#/Check-Ins/getCheckIn" xlink:type="simple"><text fill="#0000FF" font-family="Segoe UI" font-size="13" lengthAdjust="spacing" text-decoration="underline" textLength="119.4058" x="291" y="154.0332">View in Swagger UI</text></a><g class="message" data-participant-1="Client" data-participant-2="GW"><polygon fill="#2563EB" points="224.8086,184.0859,234.8086,188.0859,224.8086,192.0859,228.8086,188.0859" style="stroke:#2563EB;stroke-width:1;"/><line style="stroke:#2563EB;stroke-width:1;" x1="31.7524" x2="230.8086" y1="188.0859" y2="188.0859"/><text fill="#000000" font-family="Segoe UI" font-size="13" lengthAdjust="spacing" textLength="186.0562" x="38.7524" y="183.3438">GET /check-ins/{check_in_id}</text></g><g class="message" data-participant-1="GW" data-participant-2="Svc"><polygon fill="#2563EB" points="338.9434,213.3965,348.9434,217.3965,338.9434,221.3965,342.9434,217.3965" style="stroke:#2563EB;stroke-width:1;"/><line style="stroke:#2563EB;stroke-width:1;" x1="246.8086" x2="344.9434" y1="217.3965" y2="217.3965"/><a href="/microservices/svc-check-in/#get-check-inscheck_in_id-get-check-in-details" target="_top" title="/microservices/svc-check-in/#get-check-inscheck_in_id-get-check-in-details" xlink:actuate="onRequest" xlink:href="/microservices/svc-check-in/#get-check-inscheck_in_id-get-check-in-details" xlink:show="new" xlink:title="/microservices/svc-check-in/#get-check-inscheck_in_id-get-check-in-details" xlink:type="simple"><text fill="#0000FF" font-family="Segoe UI" font-size="13" lengthAdjust="spacing" text-decoration="underline" textLength="85.1348" x="253.8086" y="212.6543">route request</text></a></g><rect fill="#EEEEEE" height="3" style="stroke:#EEEEEE;stroke-width:1;" width="720.0571" x="0" y="246.0518"/><line style="stroke:#000000;stroke-width:1;" x1="0" x2="720.0571" y1="246.0518" y2="246.0518"/><line style="stroke:#000000;stroke-width:1;" x1="0" x2="720.0571" y1="249.0518" y2="249.0518"/><rect fill="#EEEEEE" height="23.3105" style="stroke:#000000;stroke-width:2;" width="80.3711" x="319.843" y="235.3965"/><text fill="#000000" font-family="Segoe UI" font-size="13" font-weight="bold" lengthAdjust="spacing" textLength="62.0864" x="325.843" y="251.9648">Database</text><g class="message" data-participant-1="Svc" data-participant-2="DB"><polygon fill="#2563EB" points="516.834,286.0176,526.834,290.0176,516.834,294.0176,520.834,290.0176" style="stroke:#2563EB;stroke-width:1;"/><line style="stroke:#2563EB;stroke-width:1;" x1="360.9434" x2="522.834" y1="290.0176" y2="290.0176"/><text fill="#000000" font-family="Segoe UI" font-size="13" lengthAdjust="spacing" textLength="148.8906" x="367.9434" y="285.2754">SELECT ... WHERE id = ?</text></g><g class="message" data-participant-1="DB" data-participant-2="Svc"><polygon fill="#2563EB" points="371.9434,315.3281,361.9434,319.3281,371.9434,323.3281,367.9434,319.3281" style="stroke:#2563EB;stroke-width:1;"/><line style="stroke:#2563EB;stroke-width:1;stroke-dasharray:2,2;" x1="365.9434" x2="532.834" y1="319.3281" y2="319.3281"/><text fill="#000000" font-family="Segoe UI" font-size="13" lengthAdjust="spacing" textLength="26.2222" x="377.9434" y="314.5859">Row</text></g><path d="M538,332.3281 L538,357.3281 L715,357.3281 L715,342.3281 L705,332.3281 L538,332.3281" fill="#FEFFDD" style="stroke:#181818;stroke-width:0.5;"/><path d="M705,332.3281 L705,342.3281 L715,342.3281 L705,332.3281" fill="#FEFFDD" style="stroke:#181818;stroke-width:0.5;"/><text fill="#000000" font-family="Segoe UI" font-size="13" lengthAdjust="spacing" textLength="156.0571" x="544" y="349.8965">Returns 404 if not found</text><g class="message" data-participant-1="Svc" data-participant-2="GW"><polygon fill="#2563EB" points="257.8086,379.9492,247.8086,383.9492,257.8086,387.9492,253.8086,383.9492" style="stroke:#2563EB;stroke-width:1;"/><line style="stroke:#2563EB;stroke-width:1;stroke-dasharray:2,2;" x1="251.8086" x2="354.9434" y1="383.9492" y2="383.9492"/><text fill="#000000" font-family="Segoe UI" font-size="13" lengthAdjust="spacing" textLength="47.3599" x="263.8086" y="379.207">200 OK</text></g><g class="message" data-participant-1="GW" data-participant-2="Client"><polygon fill="#2563EB" points="42.7524,409.2598,32.7524,413.2598,42.7524,417.2598,38.7524,413.2598" style="stroke:#2563EB;stroke-width:1;"/><line style="stroke:#2563EB;stroke-width:1;stroke-dasharray:2,2;" x1="36.7524" x2="240.8086" y1="413.2598" y2="413.2598"/><text fill="#000000" font-family="Segoe UI" font-size="13" lengthAdjust="spacing" textLength="47.3599" x="48.7524" y="408.5176">200 OK</text></g><!--SRC=[XP9HRzem58NV_Ikku3c40Yi8YKqa90mDTGpQyT2XoYGtmIBOp3PaKzN_FYUGD5chBNcnSqxElVwkrPxn8vNq05iQx6CfJZnqHI8aD7qlUuag7Mf7Gv4o7aD44uKL9SI8dXBj2wxlw06XiS9O83pC6jNVyUS9UO3mJC0yOob5UYtL-N3RnMt-UK6bPW4xKguT8KEKXSKRt8wTDvQ_c_O6ViyVvBOvYt3EEDPYnfskq-_akYD-rIJ_Pk2tRqhf3GxVDtektmbTJmtw_Mstehs3iklroGiXcka4OUhTWntiCDXRZ2lxELy-CVx4mfSVV8eQ2j6WrPGbYf3ZwwcXuIOCkMu0LN1PrkNnOWPJgZ6bltFFT0tDYUEDpJXhFdKEhA9IRboT0tXyj0yia4AXFBC0bLrrsPjD2JcaccwfCkDU2ALZYQjlypnbufWZkrxFSmdXXWU8Cyeisn0owMKmFR9QU6kd3qdJTlFjp829KUUR6OVl35CmF5OfZMEJzZ3RR0Zo4B82X5meWFKnE-lmdu093JGx6pevbklLCqlpRtRyuNy0D4rJvKvLWgsgO5td1kOQc4eok_jAcvRBubcjeZePZM1Iq1oD2Cb4quy1EOILD_VSUsYrMh3-x2qzO26CuDDhKWMtMLhbEPOY9I5MR9TXI1RlD8Zeahv4VP9SGQ_T0nPbD27ARkwrXm9efzs6hr-gSTauCsh6SON_dckw9dy0]--></g></svg>