<svg xmlns="http://www.w3.org/2000/svg" xmlns:xlink="http://www.w3.org/1999/xlink" contentStyleType="text/css" data-diagram-type="SEQUENCE" height="509px" preserveAspectRatio="none" style="width:808px;height:509px;background:#FEFEFE;" version="1.1" viewBox="0 0 808 509" width="808px" zoomAndPan="magnify"><title>GET /transport-requests/{request_id}</title><defs/><g><rect fill="#FEFEFE" height="509" style="stroke:none;stroke-width:1;" width="808" x="0" y="0"/><text fill="#000000" font-family="Segoe UI" font-size="14" font-weight="bold" lengthAdjust="spacing" textLength="274.3125" x="262.8723" y="28.5352">GET /transport-requests/{request_id}</text><text fill="#000000" font-family="Segoe UI" font-size="14" font-weight="bold" lengthAdjust="spacing" textLength="209.0293" x="295.5139" y="45.0234">Get transport request details</text><g><title>API Gateway</title><rect fill="#2563EB" height="225.1738" style="stroke:#A23B72;stroke-width:1;" width="10" x="287.6978" y="188.0859"/></g><g><title>svc-transport-logistics</title><rect fill="#2563EB" height="166.5527" style="stroke:#A23B72;stroke-width:1;" width="10" x="431.3882" y="217.3965"/></g><g><title>PostgreSQL</title><rect fill="#FCE4EC" height="29.3105" style="stroke:#A23B72;stroke-width:1;" width="10" x="609.2788" y="290.0176"/></g><g><title>Client</title><rect fill="#000000" fill-opacity="0.00000" height="309.7949" width="8" x="27.7524" y="121.4648"/><line style="stroke:#A23B72;stroke-width:0.5;stroke-dasharray:5,5;" x1="31" x2="31" y1="121.4648" y2="431.2598"/></g><g><title>API Gateway</title><rect fill="#000000" fill-opacity="0.00000" height="309.7949" width="8" x="288.6978" y="121.4648"/><line style="stroke:#A23B72;stroke-width:0.5;stroke-dasharray:5,5;" x1="292.4087" x2="292.4087" y1="121.4648" y2="431.2598"/></g><g><title>svc-transport-logistics</title><rect fill="#000000" fill-opacity="0.00000" height="309.7949" width="8" x="432.3882" y="121.4648"/><line style="stroke:#A23B72;stroke-width:0.5;stroke-dasharray:5,5;" x1="435.9868" x2="435.9868" y1="121.4648" y2="431.2598"/></g><g><title>PostgreSQL</title><rect fill="#000000" fill-opacity="0.00000" height="309.7949" width="8" x="610.2788" y="121.4648"/><line style="stroke:#A23B72;stroke-width:0.5;stroke-dasharray:5,5;" x1="613.854" x2="613.854" y1="121.4648" y2="431.2598"/></g><g class="participant participant-head" data-participant="Client"><rect fill="#E8F4F8" height="30.4883" rx="2.5" ry="2.5" style="stroke:#2E86AB;stroke-width:0.5;" width="53.5049" x="5" y="89.9766"/><text fill="#000000" font-family="Segoe UI" font-size="14" lengthAdjust="spacing" textLength="39.5049" x="12" y="110.5117">Client</text></g><g class="participant participant-tail" data-participant="Client"><rect fill="#E8F4F8" height="30.4883" rx="2.5" ry="2.5" style="stroke:#2E86AB;stroke-width:0.5;" width="53.5049" x="5" y="430.2598"/><text fill="#000000" font-family="Segoe UI" font-size="14" lengthAdjust="spacing" textLength="39.5049" x="12" y="450.7949">Client</text></g><g class="participant participant-head" data-participant="GW"><rect fill="#DBEAFE" height="30.4883" rx="2.5" ry="2.5" style="stroke:#2E86AB;stroke-width:0.5;" width="96.5781" x="244.4087" y="89.9766"/><text fill="#000000" font-family="Segoe UI" font-size="14" lengthAdjust="spacing" textLength="82.5781" x="251.4087" y="110.5117">API Gateway</text></g><g class="participant participant-tail" data-participant="GW"><rect fill="#DBEAFE" height="30.4883" rx="2.5" ry="2.5" style="stroke:#2E86AB;stroke-width:0.5;" width="96.5781" x="244.4087" y="430.2598"/><text fill="#000000" font-family="Segoe UI" font-size="14" lengthAdjust="spacing" textLength="82.5781" x="251.4087" y="450.7949">API Gateway</text></g><g class="participant participant-head" data-participant="Svc"><a href="/microservices/svc-transport-logistics/" target="_top" title="/microservices/svc-transport-logistics/" xlink:actuate="onRequest" xlink:href="/microservices/svc-transport-logistics/" xlink:show="new" xlink:title="/microservices/svc-transport-logistics/" xlink:type="simple"><rect fill="#E8F4F8" height="30.4883" rx="2.5" ry="2.5" style="stroke:#2E86AB;stroke-width:0.5;" width="170.8027" x="350.9868" y="89.9766"/><text fill="#000000" font-family="Segoe UI" font-size="14" lengthAdjust="spacing" textLength="156.8027" x="357.9868" y="110.5117">svc-transport-logistics</text></a></g><g class="participant participant-tail" data-participant="Svc"><a href="/microservices/svc-transport-logistics/" target="_top" title="/microservices/svc-transport-logistics/" xlink:actuate="onRequest" xlink:href="/microservices/svc-transport-logistics/" xlink:show="new" xlink:title="/microservices/svc-transport-logistics/" xlink:type="simple"><rect fill="#E8F4F8" height="30.4883" rx="2.5" ry="2.5" style="stroke:#2E86AB;stroke-width:0.5;" width="170.8027" x="350.9868" y="430.2598"/><text fill="#000000" font-family="Segoe UI" font-size="14" lengthAdjust="spacing" textLength="156.8027" x="357.9868" y="450.7949">svc-transport-logistics</text></a></g><g class="participant participant-head" data-participant="DB"><text fill="#000000" font-family="Segoe UI" font-size="14" lengthAdjust="spacing" textLength="76.8496" x="572.854" y="118.5117">PostgreSQL</text><path d="M596.2788,68.9766 C596.2788,58.9766 614.2788,58.9766 614.2788,58.9766 C614.2788,58.9766 632.2788,58.9766 632.2788,68.9766 L632.2788,94.9766 C632.2788,104.9766 614.2788,104.9766 614.2788,104.9766 C614.2788,104.9766 596.2788,104.9766 596.2788,94.9766 L596.2788,68.9766" fill="#FCE4EC" style="stroke:#181818;stroke-width:0.5;"/><path d="M596.2788,68.9766 C596.2788,78.9766 614.2788,78.9766 614.2788,78.9766 C614.2788,78.9766 632.2788,78.9766 632.2788,68.9766" fill="none" style="stroke:#181818;stroke-width:0.5;"/></g><g class="participant participant-tail" data-participant="DB"><text fill="#000000" font-family="Segoe UI" font-size="14" lengthAdjust="spacing" textLength="76.8496" x="572.854" y="443.7949">PostgreSQL</text><path d="M596.2788,456.748 C596.2788,446.748 614.2788,446.748 614.2788,446.748 C614.2788,446.748 632.2788,446.748 632.2788,456.748 L632.2788,482.748 C632.2788,492.748 614.2788,492.748 614.2788,492.748 C614.2788,492.748 596.2788,492.748 596.2788,482.748 L596.2788,456.748" fill="#FCE4EC" style="stroke:#181818;stroke-width:0.5;"/><path d="M596.2788,456.748 C596.2788,466.748 614.2788,466.748 614.2788,466.748 C614.2788,466.748 632.2788,466.748 632.2788,456.748" fill="none" style="stroke:#181818;stroke-width:0.5;"/></g><g><title>API Gateway</title><rect fill="#2563EB" height="225.1738" style="stroke:#A23B72;stroke-width:1;" width="10" x="287.6978" y="188.0859"/></g><g><title>svc-transport-logistics</title><rect fill="#2563EB" height="166.5527" style="stroke:#A23B72;stroke-width:1;" width="10" x="431.3882" y="217.3965"/></g><g><title>PostgreSQL</title><rect fill="#FCE4EC" height="29.3105" style="stroke:#A23B72;stroke-width:1;" width="10" x="609.2788" y="290.0176"/></g><path d="M366,136.4648 L366,161.4648 L506,161.4648 L506,146.4648 L496,136.4648 L366,136.4648" fill="#FEFFDD" style="stroke:#181818;stroke-width:0.5;"/><path d="M496,136.4648 L496,146.4648 L506,146.4648 L496,136.4648" fill="#FEFFDD" style="stroke:#181818;stroke-width:0.5;"/><a href="/services/api/svc-transport-logistics.html" target="_top" title="/services/api/svc-transport-logistics.html" xlink:actuate="onRequest" xlink:href="/services/api/svc-transport-logistics.html" xlink:show="new" xlink:title="/services/api/svc-transport-logistics.html" xlink:type="simple"><text fill="#0000FF" font-family="Segoe UI" font-size="13" lengthAdjust="spacing" text-decoration="underline" textLength="119.4058" x="372" y="154.0332">View in Swagger UI</text></a><g class="message" data-participant-1="Client" data-participant-2="GW"><polygon fill="#2563EB" points="275.6978,184.0859,285.6978,188.0859,275.6978,192.0859,279.6978,188.0859" style="stroke:#2563EB;stroke-width:1;"/><line style="stroke:#2563EB;stroke-width:1;" x1="31.7524" x2="281.6978" y1="188.0859" y2="188.0859"/><text fill="#000000" font-family="Segoe UI" font-size="13" lengthAdjust="spacing" textLength="236.9453" x="38.7524" y="183.3438">GET /transport-requests/{request_id}</text></g><g class="message" data-participant-1="GW" data-participant-2="Svc"><polygon fill="#2563EB" points="419.3882,213.3965,429.3882,217.3965,419.3882,221.3965,423.3882,217.3965" style="stroke:#2563EB;stroke-width:1;"/><line style="stroke:#2563EB;stroke-width:1;" x1="297.6978" x2="425.3882" y1="217.3965" y2="217.3965"/><a href="/microservices/svc-transport-logistics/#get-transport-requestsrequest_id-get-transport-request-details" target="_top" title="/microservices/svc-transport-logistics/#get-transport-requestsrequest_id-get-transport-request-details" xlink:actuate="onRequest" xlink:href="/microservices/svc-transport-logistics/#get-transport-requestsrequest_id-get-transport-request-details" xlink:show="new" xlink:title="/microservices/svc-transport-logistics/#get-transport-requestsrequest_id-get-transport-request-details" xlink:type="simple"><text fill="#0000FF" font-family="Segoe UI" font-size="13" lengthAdjust="spacing" text-decoration="underline" textLength="85.1348" x="304.6978" y="212.6543">route request</text></a></g><rect fill="#EEEEEE" height="3" style="stroke:#EEEEEE;stroke-width:1;" width="801.0571" x="0" y="246.0518"/><line style="stroke:#000000;stroke-width:1;" x1="0" x2="801.0571" y1="246.0518" y2="246.0518"/><line style="stroke:#000000;stroke-width:1;" x1="0" x2="801.0571" y1="249.0518" y2="249.0518"/><rect fill="#EEEEEE" height="23.3105" style="stroke:#000000;stroke-width:2;" width="80.3711" x="360.343" y="235.3965"/><text fill="#000000" font-family="Segoe UI" font-size="13" font-weight="bold" lengthAdjust="spacing" textLength="62.0864" x="366.343" y="251.9648">Database</text><g class="message" data-participant-1="Svc" data-participant-2="DB"><polygon fill="#2563EB" points="597.2788,286.0176,607.2788,290.0176,597.2788,294.0176,601.2788,290.0176" style="stroke:#2563EB;stroke-width:1;"/><line style="stroke:#2563EB;stroke-width:1;" x1="441.3882" x2="603.2788" y1="290.0176" y2="290.0176"/><text fill="#000000" font-family="Segoe UI" font-size="13" lengthAdjust="spacing" textLength="148.8906" x="448.3882" y="285.2754">SELECT ... WHERE id = ?</text></g><g class="message" data-participant-1="DB" data-participant-2="Svc"><polygon fill="#2563EB" points="452.3882,315.3281,442.3882,319.3281,452.3882,323.3281,448.3882,319.3281" style="stroke:#2563EB;stroke-width:1;"/><line style="stroke:#2563EB;stroke-width:1;stroke-dasharray:2,2;" x1="446.3882" x2="613.2788" y1="319.3281" y2="319.3281"/><text fill="#000000" font-family="Segoe UI" font-size="13" lengthAdjust="spacing" textLength="26.2222" x="458.3882" y="314.5859">Row</text></g><path d="M619,332.3281 L619,357.3281 L796,357.3281 L796,342.3281 L786,332.3281 L619,332.3281" fill="#FEFFDD" style="stroke:#181818;stroke-width:0.5;"/><path d="M786,332.3281 L786,342.3281 L796,342.3281 L786,332.3281" fill="#FEFFDD" style="stroke:#181818;stroke-width:0.5;"/><text fill="#000000" font-family="Segoe UI" font-size="13" lengthAdjust="spacing" textLength="156.0571" x="625" y="349.8965">Returns 404 if not found</text><g class="message" data-participant-1="Svc" data-participant-2="GW"><polygon fill="#2563EB" points="308.6978,379.9492,298.6978,383.9492,308.6978,387.9492,304.6978,383.9492" style="stroke:#2563EB;stroke-width:1;"/><line style="stroke:#2563EB;stroke-width:1;stroke-dasharray:2,2;" x1="302.6978" x2="435.3882" y1="383.9492" y2="383.9492"/><text fill="#000000" font-family="Segoe UI" font-size="13" lengthAdjust="spacing" textLength="47.3599" x="314.6978" y="379.207">200 OK</text></g><g class="message" data-participant-1="GW" data-participant-2="Client"><polygon fill="#2563EB" points="42.7524,409.2598,32.7524,413.2598,42.7524,417.2598,38.7524,413.2598" style="stroke:#2563EB;stroke-width:1;"/><line style="stroke:#2563EB;stroke-width:1;stroke-dasharray:2,2;" x1="36.7524" x2="291.6978" y1="413.2598" y2="413.2598"/><text fill="#000000" font-family="Segoe UI" font-size="13" lengthAdjust="spacing" textLength="47.3599" x="48.7524" y="408.5176">200 OK</text></g><!--SRC=[ZP9HRzem58NV_Ikku3b0WHM4n2O22Qk6MWRjUEZGP9ARO3NOp3PaKzN_FZk440QLchnOFiVdNd_NweNnBPLq0oiQlCHIx7Wu58cGKFKz-nDLEDIQXY9bF8Q89WfBIeWHtINQ5rpVqmr2POwnG7YwgvIFu-yTyW3XbO3v1bAAD2_L_7JRmbMsFQLIiu1jATUka27AeyNhtWxS2yl_JNjTl-rtCzk4HJXX7CzY1isMssbckYl-d4d-JTTlt1JI1GxVDtectmjzdXfqEgjMIRk2ikLro1iXcka4OUmzGbrBojLMIEr8IqPfLN_DLxzO-FQJZr53OO9SCgmrPOaYP7l209LXmf3h2b05X-MvF9ZUmPXgJEdVp3DUG7NaUWCptpEVsWVEgQz4n4mPKMLdvli0df_h6nP8eL3kMO2g_iw1-d9Pp2AacgweCgzYAfIE9Sw_JxB0aMl83BssDoI46smWzYXj6GFI52fgq2rxhqvjhJS9_62O0kCmJsaScuYdk-MI80_1fX9o00BEPtljteVW4nfejZV0CbBvypHBas4nz3uEeXgZTYwhdMevLmrEFcOmpyXqaU-QQnMDsJwEdP5-7qP7pFq-8LOqlHh2FPXx4s_u2BLQ3HPVlPa7B8G-V3abbUPWbavnnvb8IOWbss5AaiLh3I8wfCzGxoHNq6wqWKMME4JsvUSz7A4t6mru-5QEitEsH8qZ7z0rrtX1_W40]--></g></svg>