<svg xmlns="http://www.w3.org/2000/svg" xmlns:xlink="http://www.w3.org/1999/xlink" contentStyleType="text/css" data-diagram-type="SEQUENCE" height="603px" preserveAspectRatio="none" style="width:905px;height:603px;background:#FEFEFE;" version="1.1" viewBox="0 0 905 603" width="905px" zoomAndPan="magnify"><title>POST /check-ins/{check_in_id}/wristband-assignment</title><defs/><g><rect fill="#FEFEFE" height="603" style="stroke:none;stroke-width:1;" width="905" x="0" y="0"/><text fill="#000000" font-family="Segoe UI" font-size="14" font-weight="bold" lengthAdjust="spacing" textLength="396.2041" x="250.6497" y="28.5352">POST /check-ins/{check_in_id}/wristband-assignment</text><text fill="#000000" font-family="Segoe UI" font-size="14" font-weight="bold" lengthAdjust="spacing" textLength="352.6182" x="272.4426" y="45.0234">Assign RFID wristband to checked-in participant</text><g><title>API Gateway</title><rect fill="#059669" height="319.1055" style="stroke:#A23B72;stroke-width:1;" width="10" x="393.8623" y="188.0859"/></g><g><title>svc-check-in</title><rect fill="#059669" height="260.4844" style="stroke:#A23B72;stroke-width:1;" width="10" x="507.9971" y="217.3965"/></g><g><title>PostgreSQL</title><rect fill="#FCE4EC" height="29.3105" style="stroke:#A23B72;stroke-width:1;" width="10" x="714.4014" y="325.3281"/></g><g><title>PostgreSQL</title><rect fill="#FCE4EC" height="29.3105" style="stroke:#A23B72;stroke-width:1;" width="10" x="714.4014" y="419.2598"/></g><g><title>Client</title><rect fill="#000000" fill-opacity="0.00000" height="403.7266" width="8" x="27.7524" y="121.4648"/><line style="stroke:#A23B72;stroke-width:0.5;stroke-dasharray:5,5;" x1="31" x2="31" y1="121.4648" y2="525.1914"/></g><g><title>API Gateway</title><rect fill="#000000" fill-opacity="0.00000" height="403.7266" width="8" x="394.8623" y="121.4648"/><line style="stroke:#A23B72;stroke-width:0.5;stroke-dasharray:5,5;" x1="398.5732" x2="398.5732" y1="121.4648" y2="525.1914"/></g><g><title>svc-check-in</title><rect fill="#000000" fill-opacity="0.00000" height="403.7266" width="8" x="508.9971" y="121.4648"/><line style="stroke:#A23B72;stroke-width:0.5;stroke-dasharray:5,5;" x1="512.2456" x2="512.2456" y1="121.4648" y2="525.1914"/></g><g><title>PostgreSQL</title><rect fill="#000000" fill-opacity="0.00000" height="403.7266" width="8" x="715.4014" y="121.4648"/><line style="stroke:#A23B72;stroke-width:0.5;stroke-dasharray:5,5;" x1="718.9766" x2="718.9766" y1="121.4648" y2="525.1914"/></g><g class="participant participant-head" data-participant="Client"><rect fill="#E8F4F8" height="30.4883" rx="2.5" ry="2.5" style="stroke:#2E86AB;stroke-width:0.5;" width="53.5049" x="5" y="89.9766"/><text fill="#000000" font-family="Segoe UI" font-size="14" lengthAdjust="spacing" textLength="39.5049" x="12" y="110.5117">Client</text></g><g class="participant participant-tail" data-participant="Client"><rect fill="#E8F4F8" height="30.4883" rx="2.5" ry="2.5" style="stroke:#2E86AB;stroke-width:0.5;" width="53.5049" x="5" y="524.1914"/><text fill="#000000" font-family="Segoe UI" font-size="14" lengthAdjust="spacing" textLength="39.5049" x="12" y="544.7266">Client</text></g><g class="participant participant-head" data-participant="GW"><rect fill="#DBEAFE" height="30.4883" rx="2.5" ry="2.5" style="stroke:#2E86AB;stroke-width:0.5;" width="96.5781" x="350.5732" y="89.9766"/><text fill="#000000" font-family="Segoe UI" font-size="14" lengthAdjust="spacing" textLength="82.5781" x="357.5732" y="110.5117">API Gateway</text></g><g class="participant participant-tail" data-participant="GW"><rect fill="#DBEAFE" height="30.4883" rx="2.5" ry="2.5" style="stroke:#2E86AB;stroke-width:0.5;" width="96.5781" x="350.5732" y="524.1914"/><text fill="#000000" font-family="Segoe UI" font-size="14" lengthAdjust="spacing" textLength="82.5781" x="357.5732" y="544.7266">API Gateway</text></g><g class="participant participant-head" data-participant="Svc"><a href="/microservices/svc-check-in/" target="_top" title="/microservices/svc-check-in/" xlink:actuate="onRequest" xlink:href="/microservices/svc-check-in/" xlink:show="new" xlink:title="/microservices/svc-check-in/" xlink:type="simple"><rect fill="#E8F4F8" height="30.4883" rx="2.5" ry="2.5" style="stroke:#2E86AB;stroke-width:0.5;" width="103.5029" x="461.2456" y="89.9766"/><text fill="#000000" font-family="Segoe UI" font-size="14" lengthAdjust="spacing" textLength="89.5029" x="468.2456" y="110.5117">svc-check-in</text></a></g><g class="participant participant-tail" data-participant="Svc"><a href="/microservices/svc-check-in/" target="_top" title="/microservices/svc-check-in/" xlink:actuate="onRequest" xlink:href="/microservices/svc-check-in/" xlink:show="new" xlink:title="/microservices/svc-check-in/" xlink:type="simple"><rect fill="#E8F4F8" height="30.4883" rx="2.5" ry="2.5" style="stroke:#2E86AB;stroke-width:0.5;" width="103.5029" x="461.2456" y="524.1914"/><text fill="#000000" font-family="Segoe UI" font-size="14" lengthAdjust="spacing" textLength="89.5029" x="468.2456" y="544.7266">svc-check-in</text></a></g><g class="participant participant-head" data-participant="DB"><text fill="#000000" font-family="Segoe UI" font-size="14" lengthAdjust="spacing" textLength="76.8496" x="677.9766" y="118.5117">PostgreSQL</text><path d="M701.4014,68.9766 C701.4014,58.9766 719.4014,58.9766 719.4014,58.9766 C719.4014,58.9766 737.4014,58.9766 737.4014,68.9766 L737.4014,94.9766 C737.4014,104.9766 719.4014,104.9766 719.4014,104.9766 C719.4014,104.9766 701.4014,104.9766 701.4014,94.9766 L701.4014,68.9766" fill="#FCE4EC" style="stroke:#181818;stroke-width:0.5;"/><path d="M701.4014,68.9766 C701.4014,78.9766 719.4014,78.9766 719.4014,78.9766 C719.4014,78.9766 737.4014,78.9766 737.4014,68.9766" fill="none" style="stroke:#181818;stroke-width:0.5;"/></g><g class="participant participant-tail" data-participant="DB"><text fill="#000000" font-family="Segoe UI" font-size="14" lengthAdjust="spacing" textLength="76.8496" x="677.9766" y="537.7266">PostgreSQL</text><path d="M701.4014,550.6797 C701.4014,540.6797 719.4014,540.6797 719.4014,540.6797 C719.4014,540.6797 737.4014,540.6797 737.4014,550.6797 L737.4014,576.6797 C737.4014,586.6797 719.4014,586.6797 719.4014,586.6797 C719.4014,586.6797 701.4014,586.6797 701.4014,576.6797 L701.4014,550.6797" fill="#FCE4EC" style="stroke:#181818;stroke-width:0.5;"/><path d="M701.4014,550.6797 C701.4014,560.6797 719.4014,560.6797 719.4014,560.6797 C719.4014,560.6797 737.4014,560.6797 737.4014,550.6797" fill="none" style="stroke:#181818;stroke-width:0.5;"/></g><g><title>API Gateway</title><rect fill="#059669" height="319.1055" style="stroke:#A23B72;stroke-width:1;" width="10" x="393.8623" y="188.0859"/></g><g><title>svc-check-in</title><rect fill="#059669" height="260.4844" style="stroke:#A23B72;stroke-width:1;" width="10" x="507.9971" y="217.3965"/></g><g><title>PostgreSQL</title><rect fill="#FCE4EC" height="29.3105" style="stroke:#A23B72;stroke-width:1;" width="10" x="714.4014" y="325.3281"/></g><g><title>PostgreSQL</title><rect fill="#FCE4EC" height="29.3105" style="stroke:#A23B72;stroke-width:1;" width="10" x="714.4014" y="419.2598"/></g><path d="M442,136.4648 L442,161.4648 L582,161.4648 L582,146.4648 L572,136.4648 L442,136.4648" fill="#FEFFDD" style="stroke:#181818;stroke-width:0.5;"/><path d="M572,136.4648 L572,146.4648 L582,146.4648 L572,136.4648" fill="#FEFFDD" style="stroke:#181818;stroke-width:0.5;"/><a href="/services/api/svc-check-in.html#/Check-Ins/assignWristband" target="_top" title="/services/api/svc-check-in.html#/Check-Ins/assignWristband" xlink:actuate="onRequest" xlink:href="/services/api/svc-check-in.html#/Check-Ins/assignWristband" xlink:show="new" xlink:title="/services/api/svc-check-in.html#/Check-Ins/assignWristband" xlink:type="simple"><text fill="#0000FF" font-family="Segoe UI" font-size="13" lengthAdjust="spacing" text-decoration="underline" textLength="119.4058" x="448" y="154.0332">View in Swagger UI</text></a><g class="message" data-participant-1="Client" data-participant-2="GW"><polygon fill="#059669" points="381.8623,184.0859,391.8623,188.0859,381.8623,192.0859,385.8623,188.0859" style="stroke:#059669;stroke-width:1;"/><line style="stroke:#059669;stroke-width:1;" x1="31.7524" x2="387.8623" y1="188.0859" y2="188.0859"/><text fill="#000000" font-family="Segoe UI" font-size="13" lengthAdjust="spacing" textLength="343.1099" x="38.7524" y="183.3438">POST /check-ins/{check_in_id}/wristband-assignment</text></g><g class="message" data-participant-1="GW" data-participant-2="Svc"><polygon fill="#059669" points="495.9971,213.3965,505.9971,217.3965,495.9971,221.3965,499.9971,217.3965" style="stroke:#059669;stroke-width:1;"/><line style="stroke:#059669;stroke-width:1;" x1="403.8623" x2="501.9971" y1="217.3965" y2="217.3965"/><a href="/microservices/svc-check-in/#post-check-inscheck_in_idwristband-assignment-assign-rfid-wristband-to-checked-in-participant" target="_top" title="/microservices/svc-check-in/#post-check-inscheck_in_idwristband-assignment-assign-rfid-wristband-to-checked-in-participant" xlink:actuate="onRequest" xlink:href="/microservices/svc-check-in/#post-check-inscheck_in_idwristband-assignment-assign-rfid-wristband-to-checked-in-participant" xlink:show="new" xlink:title="/microservices/svc-check-in/#post-check-inscheck_in_idwristband-assignment-assign-rfid-wristband-to-checked-in-participant" xlink:type="simple"><text fill="#0000FF" font-family="Segoe UI" font-size="13" lengthAdjust="spacing" text-decoration="underline" textLength="85.1348" x="410.8623" y="212.6543">route request</text></a></g><path d="M522,230.3965 L522,255.3965 L680,255.3965 L680,240.3965 L670,230.3965 L522,230.3965" fill="#FEFFDD" style="stroke:#181818;stroke-width:0.5;"/><path d="M670,230.3965 L670,240.3965 L680,240.3965 L670,230.3965" fill="#FEFFDD" style="stroke:#181818;stroke-width:0.5;"/><text fill="#000000" font-family="Segoe UI" font-size="13" lengthAdjust="spacing" textLength="137.5728" x="528" y="247.9648">Validate request body</text><rect fill="#EEEEEE" height="3" style="stroke:#EEEEEE;stroke-width:1;" width="898.5034" x="0" y="281.3623"/><line style="stroke:#000000;stroke-width:1;" x1="0" x2="898.5034" y1="281.3623" y2="281.3623"/><line style="stroke:#000000;stroke-width:1;" x1="0" x2="898.5034" y1="284.3623" y2="284.3623"/><rect fill="#EEEEEE" height="23.3105" style="stroke:#000000;stroke-width:2;" width="80.3711" x="409.0662" y="270.707"/><text fill="#000000" font-family="Segoe UI" font-size="13" font-weight="bold" lengthAdjust="spacing" textLength="62.0864" x="415.0662" y="287.2754">Database</text><g class="message" data-participant-1="Svc" data-participant-2="DB"><polygon fill="#059669" points="702.4014,321.3281,712.4014,325.3281,702.4014,329.3281,706.4014,325.3281" style="stroke:#059669;stroke-width:1;"/><line style="stroke:#059669;stroke-width:1;" x1="517.9971" x2="708.4014" y1="325.3281" y2="325.3281"/><text fill="#000000" font-family="Segoe UI" font-size="13" lengthAdjust="spacing" textLength="177.4043" x="524.9971" y="320.5859">SELECT parent WHERE id = ?</text></g><g class="message" data-participant-1="DB" data-participant-2="Svc"><polygon fill="#059669" points="528.9971,350.6387,518.9971,354.6387,528.9971,358.6387,524.9971,354.6387" style="stroke:#059669;stroke-width:1;"/><line style="stroke:#059669;stroke-width:1;stroke-dasharray:2,2;" x1="522.9971" x2="718.4014" y1="354.6387" y2="354.6387"/><text fill="#000000" font-family="Segoe UI" font-size="13" lengthAdjust="spacing" textLength="67.2915" x="534.9971" y="349.8965">Parent row</text></g><path d="M724,367.6387 L724,392.6387 L893,392.6387 L893,377.6387 L883,367.6387 L724,367.6387" fill="#FEFFDD" style="stroke:#181818;stroke-width:0.5;"/><path d="M883,367.6387 L883,377.6387 L893,377.6387 L883,367.6387" fill="#FEFFDD" style="stroke:#181818;stroke-width:0.5;"/><text fill="#000000" font-family="Segoe UI" font-size="13" lengthAdjust="spacing" textLength="148.5034" x="730" y="385.207">404 if parent not found</text><g class="message" data-participant-1="Svc" data-participant-2="DB"><polygon fill="#059669" points="702.4014,415.2598,712.4014,419.2598,702.4014,423.2598,706.4014,419.2598" style="stroke:#059669;stroke-width:1;"/><line style="stroke:#059669;stroke-width:1;" x1="517.9971" x2="708.4014" y1="419.2598" y2="419.2598"/><text fill="#000000" font-family="Segoe UI" font-size="13" lengthAdjust="spacing" textLength="96.0718" x="524.9971" y="414.5176">INSERT INTO ...</text></g><g class="message" data-participant-1="DB" data-participant-2="Svc"><polygon fill="#059669" points="528.9971,444.5703,518.9971,448.5703,528.9971,452.5703,524.9971,448.5703" style="stroke:#059669;stroke-width:1;"/><line style="stroke:#059669;stroke-width:1;stroke-dasharray:2,2;" x1="522.9971" x2="718.4014" y1="448.5703" y2="448.5703"/><text fill="#000000" font-family="Segoe UI" font-size="13" lengthAdjust="spacing" textLength="76.4575" x="534.9971" y="443.8281">Created row</text></g><g class="message" data-participant-1="Svc" data-participant-2="GW"><polygon fill="#059669" points="414.8623,473.8809,404.8623,477.8809,414.8623,481.8809,410.8623,477.8809" style="stroke:#059669;stroke-width:1;"/><line style="stroke:#059669;stroke-width:1;stroke-dasharray:2,2;" x1="408.8623" x2="511.9971" y1="477.8809" y2="477.8809"/><text fill="#000000" font-family="Segoe UI" font-size="13" lengthAdjust="spacing" textLength="77.7969" x="420.8623" y="473.1387">201 Created</text></g><g class="message" data-participant-1="GW" data-participant-2="Client"><polygon fill="#059669" points="42.7524,503.1914,32.7524,507.1914,42.7524,511.1914,38.7524,507.1914" style="stroke:#059669;stroke-width:1;"/><line style="stroke:#059669;stroke-width:1;stroke-dasharray:2,2;" x1="36.7524" x2="397.8623" y1="507.1914" y2="507.1914"/><text fill="#000000" font-family="Segoe UI" font-size="13" lengthAdjust="spacing" textLength="77.7969" x="48.7524" y="502.4492">201 Created</text></g><!--SRC=[dLJ1Rk8m4BtxAqPm3g6KBRGIkuAGT95GopQq7BgeCh4Jh0QRjLreLVNVTn8W96rNbJOvP9nvVlFyPXBpAEIQQhg21OqU4wsU9FDKgZJK0p-xYIaGPacPsWgPG4nJmqiPncFwbDf0INj5Lnng8KyKXzjHhRoT_tdYCkBmIW2lljPgko_L_7P-TdQUlvvGRKKarbJQWTACwpsavNVF-eCFaFUY_MxG3hevR2nYFXQILsZwhTD1fvNd1-gvaWfEka7pf4Xzi2C8C9-dhvIjiaQTpkAqbFl4obE_Gzu8iSAc72RNuHJSQCcZHqT8uxxcuOEG3uAzkLijZ5rGoHngZ4ZaYalxM_Rp66w2qH0A15W5-LxEa0ZMHsS8AIsWvgK2MMf03Up2Qhe_6S4bjNnBNtBCvGpgmu7Vn_vNS6OJEGVPEJ3SH71_xwv4f9NXUYCYRjmooftFYwumQkc26foFYJ8sqJpyDSvPXWFqoFFRlaU8H0D1RRZEkD5IP2-8wLfKo1jBkqhhhfSlHsZaph1POS-Tu5j0Oy8jJHAal1tDvuHZ8gj2oCuASBvd1xxuZxOG6bcnGUDon_PZZ24oPivSVE5DVOq-54jJAlTPiNtew5WmvmYmoZcEW5Dk5uuWAjFPTsSi7hmGcsaxgDqPhaMojA3YlUmxcWf6ZvjXeTWB8RqU30yzxFK8oS1uL6pV1OJ-sFUcsGXcbiv- -ZS-20Oz-76iM-epXaxXqcIt2Ny8XF4I-fssl4wxsGOH7-eW0EBiIwkA6Ls5_iqK7zDhQ3GQNolmDCSq-qJ2ZlSm8gtcoG5RncMZchKTOVkP-YVqSaR-0W00]--></g></svg>