<svg xmlns="http://www.w3.org/2000/svg" xmlns:xlink="http://www.w3.org/1999/xlink" contentStyleType="text/css" data-diagram-type="SEQUENCE" height="509px" preserveAspectRatio="none" style="width:668px;height:509px;background:#FEFEFE;" version="1.1" viewBox="0 0 668 509" width="668px" zoomAndPan="magnify"><title>GET /trips/{trip_id}</title><defs/><g><rect fill="#FEFEFE" height="509" style="stroke:none;stroke-width:1;" width="668" x="0" y="0"/><text fill="#000000" font-family="Segoe UI" font-size="14" font-weight="bold" lengthAdjust="spacing" textLength="139.8086" x="260.1243" y="28.5352">GET /trips/{trip_id}</text><text fill="#000000" font-family="Segoe UI" font-size="14" font-weight="bold" lengthAdjust="spacing" textLength="107.8164" x="276.1204" y="45.0234">Get trip details</text><g><title>API Gateway</title><rect fill="#2563EB" height="225.1738" style="stroke:#A23B72;stroke-width:1;" width="10" x="170.9263" y="188.0859"/></g><g><title>svc-trip-catalog</title><rect fill="#2563EB" height="166.5527" style="stroke:#A23B72;stroke-width:1;" width="10" x="291.6274" y="217.3965"/></g><g><title>PostgreSQL</title><rect fill="#FCE4EC" height="29.3105" style="stroke:#A23B72;stroke-width:1;" width="10" x="469.5181" y="290.0176"/></g><g><title>Client</title><rect fill="#000000" fill-opacity="0.00000" height="309.7949" width="8" x="27.7524" y="121.4648"/><line style="stroke:#A23B72;stroke-width:0.5;stroke-dasharray:5,5;" x1="31" x2="31" y1="121.4648" y2="431.2598"/></g><g><title>API Gateway</title><rect fill="#000000" fill-opacity="0.00000" height="309.7949" width="8" x="171.9263" y="121.4648"/><line style="stroke:#A23B72;stroke-width:0.5;stroke-dasharray:5,5;" x1="175.6372" x2="175.6372" y1="121.4648" y2="431.2598"/></g><g><title>svc-trip-catalog</title><rect fill="#000000" fill-opacity="0.00000" height="309.7949" width="8" x="292.6274" y="121.4648"/><line style="stroke:#A23B72;stroke-width:0.5;stroke-dasharray:5,5;" x1="296.2153" x2="296.2153" y1="121.4648" y2="431.2598"/></g><g><title>PostgreSQL</title><rect fill="#000000" fill-opacity="0.00000" height="309.7949" width="8" x="470.5181" y="121.4648"/><line style="stroke:#A23B72;stroke-width:0.5;stroke-dasharray:5,5;" x1="474.0933" x2="474.0933" y1="121.4648" y2="431.2598"/></g><g class="participant participant-head" data-participant="Client"><rect fill="#E8F4F8" height="30.4883" rx="2.5" ry="2.5" style="stroke:#2E86AB;stroke-width:0.5;" width="53.5049" x="5" y="89.9766"/><text fill="#000000" font-family="Segoe UI" font-size="14" lengthAdjust="spacing" textLength="39.5049" x="12" y="110.5117">Client</text></g><g class="participant participant-tail" data-participant="Client"><rect fill="#E8F4F8" height="30.4883" rx="2.5" ry="2.5" style="stroke:#2E86AB;stroke-width:0.5;" width="53.5049" x="5" y="430.2598"/><text fill="#000000" font-family="Segoe UI" font-size="14" lengthAdjust="spacing" textLength="39.5049" x="12" y="450.7949">Client</text></g><g class="participant participant-head" data-participant="GW"><rect fill="#DBEAFE" height="30.4883" rx="2.5" ry="2.5" style="stroke:#2E86AB;stroke-width:0.5;" width="96.5781" x="127.6372" y="89.9766"/><text fill="#000000" font-family="Segoe UI" font-size="14" lengthAdjust="spacing" textLength="82.5781" x="134.6372" y="110.5117">API Gateway</text></g><g class="participant participant-tail" data-participant="GW"><rect fill="#DBEAFE" height="30.4883" rx="2.5" ry="2.5" style="stroke:#2E86AB;stroke-width:0.5;" width="96.5781" x="127.6372" y="430.2598"/><text fill="#000000" font-family="Segoe UI" font-size="14" lengthAdjust="spacing" textLength="82.5781" x="134.6372" y="450.7949">API Gateway</text></g><g class="participant participant-head" data-participant="Svc"><a href="/microservices/svc-trip-catalog/" target="_top" title="/microservices/svc-trip-catalog/" xlink:actuate="onRequest" xlink:href="/microservices/svc-trip-catalog/" xlink:show="new" xlink:title="/microservices/svc-trip-catalog/" xlink:type="simple"><rect fill="#E8F4F8" height="30.4883" rx="2.5" ry="2.5" style="stroke:#2E86AB;stroke-width:0.5;" width="124.8242" x="234.2153" y="89.9766"/><text fill="#000000" font-family="Segoe UI" font-size="14" lengthAdjust="spacing" textLength="110.8242" x="241.2153" y="110.5117">svc-trip-catalog</text></a></g><g class="participant participant-tail" data-participant="Svc"><a href="/microservices/svc-trip-catalog/" target="_top" title="/microservices/svc-trip-catalog/" xlink:actuate="onRequest" xlink:href="/microservices/svc-trip-catalog/" xlink:show="new" xlink:title="/microservices/svc-trip-catalog/" xlink:type="simple"><rect fill="#E8F4F8" height="30.4883" rx="2.5" ry="2.5" style="stroke:#2E86AB;stroke-width:0.5;" width="124.8242" x="234.2153" y="430.2598"/><text fill="#000000" font-family="Segoe UI" font-size="14" lengthAdjust="spacing" textLength="110.8242" x="241.2153" y="450.7949">svc-trip-catalog</text></a></g><g class="participant participant-head" data-participant="DB"><text fill="#000000" font-family="Segoe UI" font-size="14" lengthAdjust="spacing" textLength="76.8496" x="433.0933" y="118.5117">PostgreSQL</text><path d="M456.5181,68.9766 C456.5181,58.9766 474.5181,58.9766 474.5181,58.9766 C474.5181,58.9766 492.5181,58.9766 492.5181,68.9766 L492.5181,94.9766 C492.5181,104.9766 474.5181,104.9766 474.5181,104.9766 C474.5181,104.9766 456.5181,104.9766 456.5181,94.9766 L456.5181,68.9766" fill="#FCE4EC" style="stroke:#181818;stroke-width:0.5;"/><path d="M456.5181,68.9766 C456.5181,78.9766 474.5181,78.9766 474.5181,78.9766 C474.5181,78.9766 492.5181,78.9766 492.5181,68.9766" fill="none" style="stroke:#181818;stroke-width:0.5;"/></g><g class="participant participant-tail" data-participant="DB"><text fill="#000000" font-family="Segoe UI" font-size="14" lengthAdjust="spacing" textLength="76.8496" x="433.0933" y="443.7949">PostgreSQL</text><path d="M456.5181,456.748 C456.5181,446.748 474.5181,446.748 474.5181,446.748 C474.5181,446.748 492.5181,446.748 492.5181,456.748 L492.5181,482.748 C492.5181,492.748 474.5181,492.748 474.5181,492.748 C474.5181,492.748 456.5181,492.748 456.5181,482.748 L456.5181,456.748" fill="#FCE4EC" style="stroke:#181818;stroke-width:0.5;"/><path d="M456.5181,456.748 C456.5181,466.748 474.5181,466.748 474.5181,466.748 C474.5181,466.748 492.5181,466.748 492.5181,456.748" fill="none" style="stroke:#181818;stroke-width:0.5;"/></g><g><title>API Gateway</title><rect fill="#2563EB" height="225.1738" style="stroke:#A23B72;stroke-width:1;" width="10" x="170.9263" y="188.0859"/></g><g><title>svc-trip-catalog</title><rect fill="#2563EB" height="166.5527" style="stroke:#A23B72;stroke-width:1;" width="10" x="291.6274" y="217.3965"/></g><g><title>PostgreSQL</title><rect fill="#FCE4EC" height="29.3105" style="stroke:#A23B72;stroke-width:1;" width="10" x="469.5181" y="290.0176"/></g><path d="M226,136.4648 L226,161.4648 L366,161.4648 L366,146.4648 L356,136.4648 L226,136.4648" fill="#FEFFDD" style="stroke:#181818;stroke-width:0.5;"/><path d="M356,136.4648 L356,146.4648 L366,146.4648 L356,136.4648" fill="#FEFFDD" style="stroke:#181818;stroke-width:0.5;"/><a href="/services/api/svc-trip-catalog.html#/Trips/getTripById" target="_top" title="/services/api/svc-trip-catalog.html#/Trips/getTripById" xlink:actuate="onRequest" xlink:href="/services/api/svc-trip-catalog.html#/Trips/getTripById" xlink:show="new" xlink:title="/services/api/svc-trip-catalog.html#/Trips/getTripById" xlink:type="simple"><text fill="#0000FF" font-family="Segoe UI" font-size="13" lengthAdjust="spacing" text-decoration="underline" textLength="119.4058" x="232" y="154.0332">View in Swagger UI</text></a><g class="message" data-participant-1="Client" data-participant-2="GW"><polygon fill="#2563EB" points="158.9263,184.0859,168.9263,188.0859,158.9263,192.0859,162.9263,188.0859" style="stroke:#2563EB;stroke-width:1;"/><line style="stroke:#2563EB;stroke-width:1;" x1="31.7524" x2="164.9263" y1="188.0859" y2="188.0859"/><text fill="#000000" font-family="Segoe UI" font-size="13" lengthAdjust="spacing" textLength="120.1738" x="38.7524" y="183.3438">GET /trips/{trip_id}</text></g><g class="message" data-participant-1="GW" data-participant-2="Svc"><polygon fill="#2563EB" points="279.6274,213.3965,289.6274,217.3965,279.6274,221.3965,283.6274,217.3965" style="stroke:#2563EB;stroke-width:1;"/><line style="stroke:#2563EB;stroke-width:1;" x1="180.9263" x2="285.6274" y1="217.3965" y2="217.3965"/><a href="/microservices/svc-trip-catalog/#get-tripstrip_id-get-trip-details" target="_top" title="/microservices/svc-trip-catalog/#get-tripstrip_id-get-trip-details" xlink:actuate="onRequest" xlink:href="/microservices/svc-trip-catalog/#get-tripstrip_id-get-trip-details" xlink:show="new" xlink:title="/microservices/svc-trip-catalog/#get-tripstrip_id-get-trip-details" xlink:type="simple"><text fill="#0000FF" font-family="Segoe UI" font-size="13" lengthAdjust="spacing" text-decoration="underline" textLength="85.1348" x="187.9263" y="212.6543">route request</text></a></g><rect fill="#EEEEEE" height="3" style="stroke:#EEEEEE;stroke-width:1;" width="661.0571" x="0" y="246.0518"/><line style="stroke:#000000;stroke-width:1;" x1="0" x2="661.0571" y1="246.0518" y2="246.0518"/><line style="stroke:#000000;stroke-width:1;" x1="0" x2="661.0571" y1="249.0518" y2="249.0518"/><rect fill="#EEEEEE" height="23.3105" style="stroke:#000000;stroke-width:2;" width="80.3711" x="290.343" y="235.3965"/><text fill="#000000" font-family="Segoe UI" font-size="13" font-weight="bold" lengthAdjust="spacing" textLength="62.0864" x="296.343" y="251.9648">Database</text><g class="message" data-participant-1="Svc" data-participant-2="DB"><polygon fill="#2563EB" points="457.5181,286.0176,467.5181,290.0176,457.5181,294.0176,461.5181,290.0176" style="stroke:#2563EB;stroke-width:1;"/><line style="stroke:#2563EB;stroke-width:1;" x1="301.6274" x2="463.5181" y1="290.0176" y2="290.0176"/><text fill="#000000" font-family="Segoe UI" font-size="13" lengthAdjust="spacing" textLength="148.8906" x="308.6274" y="285.2754">SELECT ... WHERE id = ?</text></g><g class="message" data-participant-1="DB" data-participant-2="Svc"><polygon fill="#2563EB" points="312.6274,315.3281,302.6274,319.3281,312.6274,323.3281,308.6274,319.3281" style="stroke:#2563EB;stroke-width:1;"/><line style="stroke:#2563EB;stroke-width:1;stroke-dasharray:2,2;" x1="306.6274" x2="473.5181" y1="319.3281" y2="319.3281"/><text fill="#000000" font-family="Segoe UI" font-size="13" lengthAdjust="spacing" textLength="26.2222" x="318.6274" y="314.5859">Row</text></g><path d="M479,332.3281 L479,357.3281 L656,357.3281 L656,342.3281 L646,332.3281 L479,332.3281" fill="#FEFFDD" style="stroke:#181818;stroke-width:0.5;"/><path d="M646,332.3281 L646,342.3281 L656,342.3281 L646,332.3281" fill="#FEFFDD" style="stroke:#181818;stroke-width:0.5;"/><text fill="#000000" font-family="Segoe UI" font-size="13" lengthAdjust="spacing" textLength="156.0571" x="485" y="349.8965">Returns 404 if not found</text><g class="message" data-participant-1="Svc" data-participant-2="GW"><polygon fill="#2563EB" points="191.9263,379.9492,181.9263,383.9492,191.9263,387.9492,187.9263,383.9492" style="stroke:#2563EB;stroke-width:1;"/><line style="stroke:#2563EB;stroke-width:1;stroke-dasharray:2,2;" x1="185.9263" x2="295.6274" y1="383.9492" y2="383.9492"/><text fill="#000000" font-family="Segoe UI" font-size="13" lengthAdjust="spacing" textLength="47.3599" x="197.9263" y="379.207">200 OK</text></g><g class="message" data-participant-1="GW" data-participant-2="Client"><polygon fill="#2563EB" points="42.7524,409.2598,32.7524,413.2598,42.7524,417.2598,38.7524,413.2598" style="stroke:#2563EB;stroke-width:1;"/><line style="stroke:#2563EB;stroke-width:1;stroke-dasharray:2,2;" x1="36.7524" x2="174.9263" y1="413.2598" y2="413.2598"/><text fill="#000000" font-family="Segoe UI" font-size="13" lengthAdjust="spacing" textLength="47.3599" x="48.7524" y="408.5176">200 OK</text></g><!--SRC=[ZP9HRzem4CVV_IbEy1n2WHM4n2O22KD37GCw7ZeqcUGIh0QRsOQiglhTPuT0G-5XoKCStz__k_kTrJFZEohf5jOqV4wasFDe858XeHhuzYNgh50R6ecCyGHYcYeiHIACwJxLWU3wWMuHAdDC1CBZk58-Zd_so4E4LmBcwKifiY9LuzDz4zVvzfHApKAsernxGaOeJnA_Sz_thYGVY_OxGIlevB89Yt72E5xOz1jDhzt8uvxuUn4AxZf1_UuSki8H12QUXn-4ldGDs-rrinIxWRBfjyaR8Phf567aBy3LaksK-se_lrdqzekFK8FzCpWrPQaYPFVUALG6AKEkAq0L79UNuVvq32EgCQClkMQqXEhGy_jcX1SwTGWTcyK9gQQfI7Bn_132qvExPQ4K2kM1XQZSZqftjJe3ZipMcYepwgbGEf4u_p79dOQUQNVWj_m18Tom0750QVqD7PFXR4vtx2f1RQEtQTLTv60Ir7RXlOmZ-Cam0yPXdj4aCNQFuzMA88_0PY3aY0ESpxRfxaswX8QQ7GoUd4jntypIdB6zT_-Z-wgfADzHXQbpsd2AWO6PkSaWxKLNsfHuJcfpdBAINW-69toz7Y4sQEemvBemzoV-O06rMWsMN_sP3oo27dnvTohnDKldNFzCP2J2akn8Nx9aeq74H_SPwhta2bhr5h3OqeFONjEYXXF0HhqEtx-LxUpyB2sZA63VKesMv1y0]--></g></svg>