<svg xmlns="http://www.w3.org/2000/svg" xmlns:xlink="http://www.w3.org/1999/xlink" contentStyleType="text/css" data-diagram-type="SEQUENCE" height="474px" preserveAspectRatio="none" style="width:770px;height:474px;background:#FEFEFE;" version="1.1" viewBox="0 0 770 474" width="770px" zoomAndPan="magnify"><title>GET /gear-items/{item_id}/maintenance-history</title><defs/><g><rect fill="#FEFEFE" height="474" style="stroke:none;stroke-width:1;" width="770" x="0" y="0"/><text fill="#000000" font-family="Segoe UI" font-size="14" font-weight="bold" lengthAdjust="spacing" textLength="352.4268" x="205.1714" y="28.5352">GET /gear-items/{item_id}/maintenance-history</text><text fill="#000000" font-family="Segoe UI" font-size="14" font-weight="bold" lengthAdjust="spacing" textLength="176.0527" x="293.3584" y="45.0234">Get maintenance history</text><g><title>API Gateway</title><rect fill="#2563EB" height="189.8633" style="stroke:#A23B72;stroke-width:1;" width="10" x="356.2651" y="188.0859"/></g><g><title>svc-gear-inventory</title><rect fill="#2563EB" height="131.2422" style="stroke:#A23B72;stroke-width:1;" width="10" x="487.1006" y="217.3965"/></g><g><title>PostgreSQL</title><rect fill="#FCE4EC" height="29.3105" style="stroke:#A23B72;stroke-width:1;" width="10" x="712.3447" y="290.0176"/></g><g><title>Client</title><rect fill="#000000" fill-opacity="0.00000" height="274.4844" width="8" x="27.7524" y="121.4648"/><line style="stroke:#A23B72;stroke-width:0.5;stroke-dasharray:5,5;" x1="31" x2="31" y1="121.4648" y2="395.9492"/></g><g><title>API Gateway</title><rect fill="#000000" fill-opacity="0.00000" height="274.4844" width="8" x="357.2651" y="121.4648"/><line style="stroke:#A23B72;stroke-width:0.5;stroke-dasharray:5,5;" x1="360.9761" x2="360.9761" y1="121.4648" y2="395.9492"/></g><g><title>svc-gear-inventory</title><rect fill="#000000" fill-opacity="0.00000" height="274.4844" width="8" x="488.1006" y="121.4648"/><line style="stroke:#A23B72;stroke-width:0.5;stroke-dasharray:5,5;" x1="491.5542" x2="491.5542" y1="121.4648" y2="395.9492"/></g><g><title>PostgreSQL</title><rect fill="#000000" fill-opacity="0.00000" height="274.4844" width="8" x="713.3447" y="121.4648"/><line style="stroke:#A23B72;stroke-width:0.5;stroke-dasharray:5,5;" x1="716.9199" x2="716.9199" y1="121.4648" y2="395.9492"/></g><g class="participant participant-head" data-participant="Client"><rect fill="#E8F4F8" height="30.4883" rx="2.5" ry="2.5" style="stroke:#2E86AB;stroke-width:0.5;" width="53.5049" x="5" y="89.9766"/><text fill="#000000" font-family="Segoe UI" font-size="14" lengthAdjust="spacing" textLength="39.5049" x="12" y="110.5117">Client</text></g><g class="participant participant-tail" data-participant="Client"><rect fill="#E8F4F8" height="30.4883" rx="2.5" ry="2.5" style="stroke:#2E86AB;stroke-width:0.5;" width="53.5049" x="5" y="394.9492"/><text fill="#000000" font-family="Segoe UI" font-size="14" lengthAdjust="spacing" textLength="39.5049" x="12" y="415.4844">Client</text></g><g class="participant participant-head" data-participant="GW"><rect fill="#DBEAFE" height="30.4883" rx="2.5" ry="2.5" style="stroke:#2E86AB;stroke-width:0.5;" width="96.5781" x="312.9761" y="89.9766"/><text fill="#000000" font-family="Segoe UI" font-size="14" lengthAdjust="spacing" textLength="82.5781" x="319.9761" y="110.5117">API Gateway</text></g><g class="participant participant-tail" data-participant="GW"><rect fill="#DBEAFE" height="30.4883" rx="2.5" ry="2.5" style="stroke:#2E86AB;stroke-width:0.5;" width="96.5781" x="312.9761" y="394.9492"/><text fill="#000000" font-family="Segoe UI" font-size="14" lengthAdjust="spacing" textLength="82.5781" x="319.9761" y="415.4844">API Gateway</text></g><g class="participant participant-head" data-participant="Svc"><a href="/microservices/svc-gear-inventory/" target="_top" title="/microservices/svc-gear-inventory/" xlink:actuate="onRequest" xlink:href="/microservices/svc-gear-inventory/" xlink:show="new" xlink:title="/microservices/svc-gear-inventory/" xlink:type="simple"><rect fill="#E8F4F8" height="30.4883" rx="2.5" ry="2.5" style="stroke:#2E86AB;stroke-width:0.5;" width="145.0928" x="419.5542" y="89.9766"/><text fill="#000000" font-family="Segoe UI" font-size="14" lengthAdjust="spacing" textLength="131.0928" x="426.5542" y="110.5117">svc-gear-inventory</text></a></g><g class="participant participant-tail" data-participant="Svc"><a href="/microservices/svc-gear-inventory/" target="_top" title="/microservices/svc-gear-inventory/" xlink:actuate="onRequest" xlink:href="/microservices/svc-gear-inventory/" xlink:show="new" xlink:title="/microservices/svc-gear-inventory/" xlink:type="simple"><rect fill="#E8F4F8" height="30.4883" rx="2.5" ry="2.5" style="stroke:#2E86AB;stroke-width:0.5;" width="145.0928" x="419.5542" y="394.9492"/><text fill="#000000" font-family="Segoe UI" font-size="14" lengthAdjust="spacing" textLength="131.0928" x="426.5542" y="415.4844">svc-gear-inventory</text></a></g><g class="participant participant-head" data-participant="DB"><text fill="#000000" font-family="Segoe UI" font-size="14" lengthAdjust="spacing" textLength="76.8496" x="675.9199" y="118.5117">PostgreSQL</text><path d="M699.3447,68.9766 C699.3447,58.9766 717.3447,58.9766 717.3447,58.9766 C717.3447,58.9766 735.3447,58.9766 735.3447,68.9766 L735.3447,94.9766 C735.3447,104.9766 717.3447,104.9766 717.3447,104.9766 C717.3447,104.9766 699.3447,104.9766 699.3447,94.9766 L699.3447,68.9766" fill="#FCE4EC" style="stroke:#181818;stroke-width:0.5;"/><path d="M699.3447,68.9766 C699.3447,78.9766 717.3447,78.9766 717.3447,78.9766 C717.3447,78.9766 735.3447,78.9766 735.3447,68.9766" fill="none" style="stroke:#181818;stroke-width:0.5;"/></g><g class="participant participant-tail" data-participant="DB"><text fill="#000000" font-family="Segoe UI" font-size="14" lengthAdjust="spacing" textLength="76.8496" x="675.9199" y="408.4844">PostgreSQL</text><path d="M699.3447,421.4375 C699.3447,411.4375 717.3447,411.4375 717.3447,411.4375 C717.3447,411.4375 735.3447,411.4375 735.3447,421.4375 L735.3447,447.4375 C735.3447,457.4375 717.3447,457.4375 717.3447,457.4375 C717.3447,457.4375 699.3447,457.4375 699.3447,447.4375 L699.3447,421.4375" fill="#FCE4EC" style="stroke:#181818;stroke-width:0.5;"/><path d="M699.3447,421.4375 C699.3447,431.4375 717.3447,431.4375 717.3447,431.4375 C717.3447,431.4375 735.3447,431.4375 735.3447,421.4375" fill="none" style="stroke:#181818;stroke-width:0.5;"/></g><g><title>API Gateway</title><rect fill="#2563EB" height="189.8633" style="stroke:#A23B72;stroke-width:1;" width="10" x="356.2651" y="188.0859"/></g><g><title>svc-gear-inventory</title><rect fill="#2563EB" height="131.2422" style="stroke:#A23B72;stroke-width:1;" width="10" x="487.1006" y="217.3965"/></g><g><title>PostgreSQL</title><rect fill="#FCE4EC" height="29.3105" style="stroke:#A23B72;stroke-width:1;" width="10" x="712.3447" y="290.0176"/></g><path d="M421,136.4648 L421,161.4648 L561,161.4648 L561,146.4648 L551,136.4648 L421,136.4648" fill="#FEFFDD" style="stroke:#181818;stroke-width:0.5;"/><path d="M551,136.4648 L551,146.4648 L561,146.4648 L551,136.4648" fill="#FEFFDD" style="stroke:#181818;stroke-width:0.5;"/><a href="/services/api/svc-gear-inventory.html#/Maintenance/getMaintenanceHistory" target="_top" title="/services/api/svc-gear-inventory.html#/Maintenance/getMaintenanceHistory" xlink:actuate="onRequest" xlink:href="/services/api/svc-gear-inventory.html#/Maintenance/getMaintenanceHistory" xlink:show="new" xlink:title="/services/api/svc-gear-inventory.html#/Maintenance/getMaintenanceHistory" xlink:type="simple"><text fill="#0000FF" font-family="Segoe UI" font-size="13" lengthAdjust="spacing" text-decoration="underline" textLength="119.4058" x="427" y="154.0332">View in Swagger UI</text></a><g class="message" data-participant-1="Client" data-participant-2="GW"><polygon fill="#2563EB" points="344.2651,184.0859,354.2651,188.0859,344.2651,192.0859,348.2651,188.0859" style="stroke:#2563EB;stroke-width:1;"/><line style="stroke:#2563EB;stroke-width:1;" x1="31.7524" x2="350.2651" y1="188.0859" y2="188.0859"/><text fill="#000000" font-family="Segoe UI" font-size="13" lengthAdjust="spacing" textLength="305.5127" x="38.7524" y="183.3438">GET /gear-items/{item_id}/maintenance-history</text></g><g class="message" data-participant-1="GW" data-participant-2="Svc"><polygon fill="#2563EB" points="475.1006,213.3965,485.1006,217.3965,475.1006,221.3965,479.1006,217.3965" style="stroke:#2563EB;stroke-width:1;"/><line style="stroke:#2563EB;stroke-width:1;" x1="366.2651" x2="481.1006" y1="217.3965" y2="217.3965"/><text fill="#000000" font-family="Segoe UI" font-size="13" lengthAdjust="spacing" textLength="85.1348" x="373.2651" y="212.6543">route request</text></g><rect fill="#EEEEEE" height="3" style="stroke:#EEEEEE;stroke-width:1;" width="763.7695" x="0" y="246.0518"/><line style="stroke:#000000;stroke-width:1;" x1="0" x2="763.7695" y1="246.0518" y2="246.0518"/><line style="stroke:#000000;stroke-width:1;" x1="0" x2="763.7695" y1="249.0518" y2="249.0518"/><rect fill="#EEEEEE" height="23.3105" style="stroke:#000000;stroke-width:2;" width="80.3711" x="341.6992" y="235.3965"/><text fill="#000000" font-family="Segoe UI" font-size="13" font-weight="bold" lengthAdjust="spacing" textLength="62.0864" x="347.6992" y="251.9648">Database</text><g class="message" data-participant-1="Svc" data-participant-2="DB"><polygon fill="#2563EB" points="700.3447,286.0176,710.3447,290.0176,700.3447,294.0176,704.3447,290.0176" style="stroke:#2563EB;stroke-width:1;"/><line style="stroke:#2563EB;stroke-width:1;" x1="497.1006" x2="706.3447" y1="290.0176" y2="290.0176"/><text fill="#000000" font-family="Segoe UI" font-size="13" lengthAdjust="spacing" textLength="196.2441" x="504.1006" y="285.2754">SELECT ... WHERE parent_id = ?</text></g><g class="message" data-participant-1="DB" data-participant-2="Svc"><polygon fill="#2563EB" points="508.1006,315.3281,498.1006,319.3281,508.1006,323.3281,504.1006,319.3281" style="stroke:#2563EB;stroke-width:1;"/><line style="stroke:#2563EB;stroke-width:1;stroke-dasharray:2,2;" x1="502.1006" x2="716.3447" y1="319.3281" y2="319.3281"/><text fill="#000000" font-family="Segoe UI" font-size="13" lengthAdjust="spacing" textLength="57.8843" x="514.1006" y="314.5859">ResultSet</text></g><g class="message" data-participant-1="Svc" data-participant-2="GW"><polygon fill="#2563EB" points="377.2651,344.6387,367.2651,348.6387,377.2651,352.6387,373.2651,348.6387" style="stroke:#2563EB;stroke-width:1;"/><line style="stroke:#2563EB;stroke-width:1;stroke-dasharray:2,2;" x1="371.2651" x2="491.1006" y1="348.6387" y2="348.6387"/><text fill="#000000" font-family="Segoe UI" font-size="13" lengthAdjust="spacing" textLength="47.3599" x="383.2651" y="343.8965">200 OK</text></g><g class="message" data-participant-1="GW" data-participant-2="Client"><polygon fill="#2563EB" points="42.7524,373.9492,32.7524,377.9492,42.7524,381.9492,38.7524,377.9492" style="stroke:#2563EB;stroke-width:1;"/><line style="stroke:#2563EB;stroke-width:1;stroke-dasharray:2,2;" x1="36.7524" x2="360.2651" y1="377.9492" y2="377.9492"/><text fill="#000000" font-family="Segoe UI" font-size="13" lengthAdjust="spacing" textLength="47.3599" x="48.7524" y="373.207">200 OK</text></g><!--SRC=[bPDFRzf04CNl-ob6S0OJI0D2eXK6cqGbAOsJSaXHjTY3MSNUfRkBQHJbktTi_fd2fVR1Qx_dUUFVhCsha2kkUGfp7hx6MgrbD529qb3rlVnavk0mInwfZP0nB7XYiAH4kE3hnFfAsWUU8bG2Z1N2yrsb_3h-NgCC4TuPqD7NMcrsKSrFDosS5uydN5iHYXMNrbKwGhstU9sRldjc-RTfh-DV-vt2DXOB70k99sNwpPRRRXQwg_wSIFvLnszS7QGp7BvFUY4_A7jQDMotvwsITW5boskp3yQii0d2o7i29qQkQy9YQfpt_F9BH1zEoeMqA3bngYs5iKg__PGZj50IO2SmjZgIWCeW4IXj1RY1xV9Kxa_kOCGjRlXRuHbDeJfqlJwD-CHdih2sRKrcL8Ho2dkGXV3ougGYrCgWpaI8nZdtEhFPOGWHjtpE3Ms7YJ8srXXy7nUrXYuX6NZNte0nIRn0PQZp12986OVoV2KkHDINDasgplqH2A6qfTlRBHxu8N03GaAmuN5C0Sztinb36K6UoTWM4jG-voYw_pSJnaChCg9PODnjNrfIiHnK5sZw9EfyonjxTEVYtivwFHZk4VLwZEKY5I0wNGYyiJTuWdgz3jDRxz43cX5rI_r03xuS2vPGqh9so7z4GpzaW9P5M3BlGlRVt6mquDlNiYKVGluTvDZnkUGQJTbV]--></g></svg>