<svg xmlns="http://www.w3.org/2000/svg" xmlns:xlink="http://www.w3.org/1999/xlink" contentStyleType="text/css" data-diagram-type="SEQUENCE" height="522px" preserveAspectRatio="none" style="width:695px;height:522px;background:#FEFEFE;" version="1.1" viewBox="0 0 695 522" width="695px" zoomAndPan="magnify"><title>GET /trails/{trail_id}</title><defs/><g><rect fill="#FEFEFE" height="522" style="stroke:none;stroke-width:1;" width="695" x="0" y="0"/><text fill="#000000" font-family="Segoe UI" font-size="14" font-weight="bold" lengthAdjust="spacing" textLength="146.8223" x="270.1174" y="41.3125">GET /trails/{trail_id}</text><text fill="#000000" font-family="Segoe UI" font-size="14" font-weight="bold" lengthAdjust="spacing" textLength="111.3232" x="287.8669" y="57.8008">Get trail details</text><g><title>API Gateway</title><rect fill="#2563EB" height="225.1738" style="stroke:#A23B72;stroke-width:1;" width="10" x="176.436" y="200.8633"/></g><g><title>svc-trail-management</title><rect fill="#2563EB" height="166.5527" style="stroke:#A23B72;stroke-width:1;" width="10" x="318.2705" y="230.1738"/></g><g><title>PostGIS</title><rect fill="#FCE4EC" height="29.3105" style="stroke:#A23B72;stroke-width:1;" width="10" x="496.1611" y="302.7949"/></g><g><title>Client</title><rect fill="#000000" fill-opacity="0.00000" height="309.7949" width="8" x="27.7524" y="134.2422"/><line style="stroke:#A23B72;stroke-width:0.5;stroke-dasharray:5,5;" x1="31" x2="31" y1="134.2422" y2="444.0371"/></g><g><title>API Gateway</title><rect fill="#000000" fill-opacity="0.00000" height="309.7949" width="8" x="177.436" y="134.2422"/><line style="stroke:#A23B72;stroke-width:0.5;stroke-dasharray:5,5;" x1="181.147" x2="181.147" y1="134.2422" y2="444.0371"/></g><g><title>svc-trail-management</title><rect fill="#000000" fill-opacity="0.00000" height="309.7949" width="8" x="319.2705" y="134.2422"/><line style="stroke:#A23B72;stroke-width:0.5;stroke-dasharray:5,5;" x1="322.7251" x2="322.7251" y1="134.2422" y2="444.0371"/></g><g><title>PostGIS</title><rect fill="#000000" fill-opacity="0.00000" height="309.7949" width="8" x="497.1611" y="134.2422"/><line style="stroke:#A23B72;stroke-width:0.5;stroke-dasharray:5,5;" x1="500.9604" x2="500.9604" y1="134.2422" y2="444.0371"/></g><g class="participant participant-head" data-participant="Client"><rect fill="#E8F4F8" height="30.4883" rx="2.5" ry="2.5" style="stroke:#2E86AB;stroke-width:0.5;" width="53.5049" x="5" y="102.7539"/><text fill="#000000" font-family="Segoe UI" font-size="14" lengthAdjust="spacing" textLength="39.5049" x="12" y="123.2891">Client</text></g><g class="participant participant-tail" data-participant="Client"><rect fill="#E8F4F8" height="30.4883" rx="2.5" ry="2.5" style="stroke:#2E86AB;stroke-width:0.5;" width="53.5049" x="5" y="443.0371"/><text fill="#000000" font-family="Segoe UI" font-size="14" lengthAdjust="spacing" textLength="39.5049" x="12" y="463.5723">Client</text></g><g class="participant participant-head" data-participant="GW"><rect fill="#DBEAFE" height="30.4883" rx="2.5" ry="2.5" style="stroke:#2E86AB;stroke-width:0.5;" width="96.5781" x="133.147" y="102.7539"/><text fill="#000000" font-family="Segoe UI" font-size="14" lengthAdjust="spacing" textLength="82.5781" x="140.147" y="123.2891">API Gateway</text></g><g class="participant participant-tail" data-participant="GW"><rect fill="#DBEAFE" height="30.4883" rx="2.5" ry="2.5" style="stroke:#2E86AB;stroke-width:0.5;" width="96.5781" x="133.147" y="443.0371"/><text fill="#000000" font-family="Segoe UI" font-size="14" lengthAdjust="spacing" textLength="82.5781" x="140.147" y="463.5723">API Gateway</text></g><g class="participant participant-head" data-participant="Svc"><a href="/microservices/svc-trail-management/" target="_top" title="/microservices/svc-trail-management/" xlink:actuate="onRequest" xlink:href="/microservices/svc-trail-management/" xlink:show="new" xlink:title="/microservices/svc-trail-management/" xlink:type="simple"><rect fill="#E8F4F8" height="30.4883" rx="2.5" ry="2.5" style="stroke:#2E86AB;stroke-width:0.5;" width="167.0908" x="239.7251" y="102.7539"/><text fill="#000000" font-family="Segoe UI" font-size="14" lengthAdjust="spacing" textLength="153.0908" x="246.7251" y="123.2891">svc-trail-management</text></a></g><g class="participant participant-tail" data-participant="Svc"><a href="/microservices/svc-trail-management/" target="_top" title="/microservices/svc-trail-management/" xlink:actuate="onRequest" xlink:href="/microservices/svc-trail-management/" xlink:show="new" xlink:title="/microservices/svc-trail-management/" xlink:type="simple"><rect fill="#E8F4F8" height="30.4883" rx="2.5" ry="2.5" style="stroke:#2E86AB;stroke-width:0.5;" width="167.0908" x="239.7251" y="443.0371"/><text fill="#000000" font-family="Segoe UI" font-size="14" lengthAdjust="spacing" textLength="153.0908" x="246.7251" y="463.5723">svc-trail-management</text></a></g><g class="participant participant-head" data-participant="DB"><text fill="#000000" font-family="Segoe UI" font-size="14" lengthAdjust="spacing" textLength="50.4014" x="472.9604" y="131.2891">PostGIS</text><path d="M483.1611,81.7539 C483.1611,71.7539 501.1611,71.7539 501.1611,71.7539 C501.1611,71.7539 519.1611,71.7539 519.1611,81.7539 L519.1611,107.7539 C519.1611,117.7539 501.1611,117.7539 501.1611,117.7539 C501.1611,117.7539 483.1611,117.7539 483.1611,107.7539 L483.1611,81.7539" fill="#FCE4EC" style="stroke:#181818;stroke-width:0.5;"/><path d="M483.1611,81.7539 C483.1611,91.7539 501.1611,91.7539 501.1611,91.7539 C501.1611,91.7539 519.1611,91.7539 519.1611,81.7539" fill="none" style="stroke:#181818;stroke-width:0.5;"/></g><g class="participant participant-tail" data-participant="DB"><text fill="#000000" font-family="Segoe UI" font-size="14" lengthAdjust="spacing" textLength="50.4014" x="472.9604" y="456.5723">PostGIS</text><path d="M483.1611,469.5254 C483.1611,459.5254 501.1611,459.5254 501.1611,459.5254 C501.1611,459.5254 519.1611,459.5254 519.1611,469.5254 L519.1611,495.5254 C519.1611,505.5254 501.1611,505.5254 501.1611,505.5254 C501.1611,505.5254 483.1611,505.5254 483.1611,495.5254 L483.1611,469.5254" fill="#FCE4EC" style="stroke:#181818;stroke-width:0.5;"/><path d="M483.1611,469.5254 C483.1611,479.5254 501.1611,479.5254 501.1611,479.5254 C501.1611,479.5254 519.1611,479.5254 519.1611,469.5254" fill="none" style="stroke:#181818;stroke-width:0.5;"/></g><g><title>API Gateway</title><rect fill="#2563EB" height="225.1738" style="stroke:#A23B72;stroke-width:1;" width="10" x="176.436" y="200.8633"/></g><g><title>svc-trail-management</title><rect fill="#2563EB" height="166.5527" style="stroke:#A23B72;stroke-width:1;" width="10" x="318.2705" y="230.1738"/></g><g><title>PostGIS</title><rect fill="#FCE4EC" height="29.3105" style="stroke:#A23B72;stroke-width:1;" width="10" x="496.1611" y="302.7949"/></g><path d="M253,149.2422 L253,174.2422 L393,174.2422 L393,159.2422 L383,149.2422 L253,149.2422" fill="#FEFFDD" style="stroke:#181818;stroke-width:0.5;"/><path d="M383,149.2422 L383,159.2422 L393,159.2422 L383,149.2422" fill="#FEFFDD" style="stroke:#181818;stroke-width:0.5;"/><a href="/services/api/svc-trail-management.html#/Trails/getTrail" target="_top" title="/services/api/svc-trail-management.html#/Trails/getTrail" xlink:actuate="onRequest" xlink:href="/services/api/svc-trail-management.html#/Trails/getTrail" xlink:show="new" xlink:title="/services/api/svc-trail-management.html#/Trails/getTrail" xlink:type="simple"><text fill="#0000FF" font-family="Segoe UI" font-size="13" lengthAdjust="spacing" text-decoration="underline" textLength="119.4058" x="259" y="166.8105">View in Swagger UI</text></a><g class="message" data-participant-1="Client" data-participant-2="GW"><polygon fill="#2563EB" points="164.436,196.8633,174.436,200.8633,164.436,204.8633,168.436,200.8633" style="stroke:#2563EB;stroke-width:1;"/><line style="stroke:#2563EB;stroke-width:1;" x1="31.7524" x2="170.436" y1="200.8633" y2="200.8633"/><text fill="#000000" font-family="Segoe UI" font-size="13" lengthAdjust="spacing" textLength="125.6836" x="38.7524" y="196.1211">GET /trails/{trail_id}</text></g><g class="message" data-participant-1="GW" data-participant-2="Svc"><polygon fill="#2563EB" points="306.2705,226.1738,316.2705,230.1738,306.2705,234.1738,310.2705,230.1738" style="stroke:#2563EB;stroke-width:1;"/><line style="stroke:#2563EB;stroke-width:1;" x1="186.436" x2="312.2705" y1="230.1738" y2="230.1738"/><text fill="#000000" font-family="Segoe UI" font-size="13" lengthAdjust="spacing" textLength="85.1348" x="193.436" y="225.4316">route request</text></g><rect fill="#EEEEEE" height="3" style="stroke:#EEEEEE;stroke-width:1;" width="688.0571" x="0" y="258.8291"/><line style="stroke:#000000;stroke-width:1;" x1="0" x2="688.0571" y1="258.8291" y2="258.8291"/><line style="stroke:#000000;stroke-width:1;" x1="0" x2="688.0571" y1="261.8291" y2="261.8291"/><rect fill="#EEEEEE" height="23.3105" style="stroke:#000000;stroke-width:2;" width="80.3711" x="303.843" y="248.1738"/><text fill="#000000" font-family="Segoe UI" font-size="13" font-weight="bold" lengthAdjust="spacing" textLength="62.0864" x="309.843" y="264.7422">Database</text><g class="message" data-participant-1="Svc" data-participant-2="DB"><polygon fill="#2563EB" points="484.1611,298.7949,494.1611,302.7949,484.1611,306.7949,488.1611,302.7949" style="stroke:#2563EB;stroke-width:1;"/><line style="stroke:#2563EB;stroke-width:1;" x1="328.2705" x2="490.1611" y1="302.7949" y2="302.7949"/><text fill="#000000" font-family="Segoe UI" font-size="13" lengthAdjust="spacing" textLength="148.8906" x="335.2705" y="298.0527">SELECT ... WHERE id = ?</text></g><g class="message" data-participant-1="DB" data-participant-2="Svc"><polygon fill="#2563EB" points="339.2705,328.1055,329.2705,332.1055,339.2705,336.1055,335.2705,332.1055" style="stroke:#2563EB;stroke-width:1;"/><line style="stroke:#2563EB;stroke-width:1;stroke-dasharray:2,2;" x1="333.2705" x2="500.1611" y1="332.1055" y2="332.1055"/><text fill="#000000" font-family="Segoe UI" font-size="13" lengthAdjust="spacing" textLength="26.2222" x="345.2705" y="327.3633">Row</text></g><path d="M506,345.1055 L506,370.1055 L683,370.1055 L683,355.1055 L673,345.1055 L506,345.1055" fill="#FEFFDD" style="stroke:#181818;stroke-width:0.5;"/><path d="M673,345.1055 L673,355.1055 L683,355.1055 L673,345.1055" fill="#FEFFDD" style="stroke:#181818;stroke-width:0.5;"/><text fill="#000000" font-family="Segoe UI" font-size="13" lengthAdjust="spacing" textLength="156.0571" x="512" y="362.6738">Returns 404 if not found</text><g class="message" data-participant-1="Svc" data-participant-2="GW"><polygon fill="#2563EB" points="197.436,392.7266,187.436,396.7266,197.436,400.7266,193.436,396.7266" style="stroke:#2563EB;stroke-width:1;"/><line style="stroke:#2563EB;stroke-width:1;stroke-dasharray:2,2;" x1="191.436" x2="322.2705" y1="396.7266" y2="396.7266"/><text fill="#000000" font-family="Segoe UI" font-size="13" lengthAdjust="spacing" textLength="47.3599" x="203.436" y="391.9844">200 OK</text></g><g class="message" data-participant-1="GW" data-participant-2="Client"><polygon fill="#2563EB" points="42.7524,422.0371,32.7524,426.0371,42.7524,430.0371,38.7524,426.0371" style="stroke:#2563EB;stroke-width:1;"/><line style="stroke:#2563EB;stroke-width:1;stroke-dasharray:2,2;" x1="36.7524" x2="180.436" y1="426.0371" y2="426.0371"/><text fill="#000000" font-family="Segoe UI" font-size="13" lengthAdjust="spacing" textLength="47.3599" x="48.7524" y="421.2949">200 OK</text></g><a href="/microservices/svc-trail-management/#integration-context" target="_top" title="/microservices/svc-trail-management/#integration-context" xlink:actuate="onRequest" xlink:href="/microservices/svc-trail-management/#integration-context" xlink:show="new" xlink:title="/microservices/svc-trail-management/#integration-context" xlink:type="simple"><text fill="#0000FF" font-family="Segoe UI" font-size="10" lengthAdjust="spacing" text-decoration="underline" textLength="220.5225" x="466.5347" y="14.668">&#11014; svc-trail-management Integration Context</text></a><!--SRC=[ZPFTZjem48Nl_HGZk8QmG1U4H2i2IOgwsY9WoyKMLIOPWhN1fhQ1hLPxswVfK_L9Eadu2LqgbLnWSiwSyNmsvad83TTy3GiUFiLQRMNKLudIKFQzz67cv30h7gcza34iUMAme4IuvDl4-ahQUxv6A4qmLWWFmrAn7BzlKOO8BmpeqzDQxG-jwkzk6xZ8Ne-ujY8K6owjgtI4-cZnshSzzutbxqrxRR_fjpFRdLZYdP1u4TEhDznMFTDTzNmX-JTjltPpajxWy7tIC_bUsSlKiDLQD0hQ5PGDhyLU6LiXfp9uV7JM8jJAeDw948rZTc75QYwIoffB7kCQfNNAGbgCDRT2oKf8SF7PmkzVF-6Q6uPdC_HpytpEc1KsGGYyAJXPYN5Uikzl8dhzAWEqaFsaCxIfojZcZ1TA_KHGTWcuWNnvAVT6GmYunJt_aNc26PG7hjUZUtFXkxRXh62o2_yJndn-Ejs8MxxWXkxPI1aR32TPrC0bq7slwVKPatGAe7P4cXhGkL2BKphVYAiTgYkxJihED8SKeyrMy4NW7eI4oPx7CGK-38agoWZI7epbLA3oFfszym_EZ8TMx8XJ1kXmssb9LIc03j1b8L6d_n1Zp-vKFDfPjmk3u-3TBcEfI04qTWSctftNdqArMeNPHs_iWOYW2n_EIGKujAoS6e_LdaLOiENej8XN5jGoJn-ZtMffe5bhWbYcWyColTs7FHndhzTgyFbJCIw5duv9ZWEdQwvWnlu0]--></g></svg>