<svg xmlns="http://www.w3.org/2000/svg" xmlns:xlink="http://www.w3.org/1999/xlink" contentStyleType="text/css" data-diagram-type="SEQUENCE" height="487px" preserveAspectRatio="none" style="width:540px;height:487px;background:#FEFEFE;" version="1.1" viewBox="0 0 540 487" width="540px" zoomAndPan="magnify"><title>GET /suppliers</title><defs/><g><rect fill="#FEFEFE" height="487" style="stroke:none;stroke-width:1;" width="540" x="0" y="0"/><text fill="#000000" font-family="Segoe UI" font-size="14" font-weight="bold" lengthAdjust="spacing" textLength="108.2881" x="211.9993" y="41.3125">GET /suppliers</text><text fill="#000000" font-family="Segoe UI" font-size="14" font-weight="bold" lengthAdjust="spacing" textLength="120.1006" x="206.093" y="57.8008">List all suppliers</text><g><title>API Gateway</title><rect fill="#2563EB" height="189.8633" style="stroke:#A23B72;stroke-width:1;" width="10" x="144.1074" y="200.8633"/></g><g><title>svc-inventory-procurement</title><rect fill="#2563EB" height="131.2422" style="stroke:#A23B72;stroke-width:1;" width="10" x="303.6094" y="230.1738"/></g><g><title>PostgreSQL</title><rect fill="#FCE4EC" height="29.3105" style="stroke:#A23B72;stroke-width:1;" width="10" x="481.8618" y="302.7949"/></g><g><title>Client</title><rect fill="#000000" fill-opacity="0.00000" height="274.4844" width="8" x="27.7524" y="134.2422"/><line style="stroke:#A23B72;stroke-width:0.5;stroke-dasharray:5,5;" x1="31" x2="31" y1="134.2422" y2="408.7266"/></g><g><title>API Gateway</title><rect fill="#000000" fill-opacity="0.00000" height="274.4844" width="8" x="145.1074" y="134.2422"/><line style="stroke:#A23B72;stroke-width:0.5;stroke-dasharray:5,5;" x1="148.8184" x2="148.8184" y1="134.2422" y2="408.7266"/></g><g><title>svc-inventory-procurement</title><rect fill="#000000" fill-opacity="0.00000" height="274.4844" width="8" x="304.6094" y="134.2422"/><line style="stroke:#A23B72;stroke-width:0.5;stroke-dasharray:5,5;" x1="308.3965" x2="308.3965" y1="134.2422" y2="408.7266"/></g><g><title>PostgreSQL</title><rect fill="#000000" fill-opacity="0.00000" height="274.4844" width="8" x="482.8618" y="134.2422"/><line style="stroke:#A23B72;stroke-width:0.5;stroke-dasharray:5,5;" x1="486.437" x2="486.437" y1="134.2422" y2="408.7266"/></g><g class="participant participant-head" data-participant="Client"><a href="/applications/" target="_top" title="/applications/" xlink:actuate="onRequest" xlink:href="/applications/" xlink:show="new" xlink:title="/applications/" xlink:type="simple"><rect fill="#E8F4F8" height="30.4883" rx="2.5" ry="2.5" style="stroke:#2E86AB;stroke-width:0.5;" width="53.5049" x="5" y="102.7539"/><text fill="#000000" font-family="Segoe UI" font-size="14" lengthAdjust="spacing" textLength="39.5049" x="12" y="123.2891">Client</text></a></g><g class="participant participant-tail" data-participant="Client"><a href="/applications/" target="_top" title="/applications/" xlink:actuate="onRequest" xlink:href="/applications/" xlink:show="new" xlink:title="/applications/" xlink:type="simple"><rect fill="#E8F4F8" height="30.4883" rx="2.5" ry="2.5" style="stroke:#2E86AB;stroke-width:0.5;" width="53.5049" x="5" y="407.7266"/><text fill="#000000" font-family="Segoe UI" font-size="14" lengthAdjust="spacing" textLength="39.5049" x="12" y="428.2617">Client</text></a></g><g class="participant participant-head" data-participant="GW"><rect fill="#DBEAFE" height="30.4883" rx="2.5" ry="2.5" style="stroke:#2E86AB;stroke-width:0.5;" width="96.5781" x="100.8184" y="102.7539"/><text fill="#000000" font-family="Segoe UI" font-size="14" lengthAdjust="spacing" textLength="82.5781" x="107.8184" y="123.2891">API Gateway</text></g><g class="participant participant-tail" data-participant="GW"><rect fill="#DBEAFE" height="30.4883" rx="2.5" ry="2.5" style="stroke:#2E86AB;stroke-width:0.5;" width="96.5781" x="100.8184" y="407.7266"/><text fill="#000000" font-family="Segoe UI" font-size="14" lengthAdjust="spacing" textLength="82.5781" x="107.8184" y="428.2617">API Gateway</text></g><g class="participant participant-head" data-participant="Svc"><a href="/microservices/svc-inventory-procurement/" target="_top" title="/microservices/svc-inventory-procurement/" xlink:actuate="onRequest" xlink:href="/microservices/svc-inventory-procurement/" xlink:show="new" xlink:title="/microservices/svc-inventory-procurement/" xlink:type="simple"><rect fill="#E8F4F8" height="30.4883" rx="2.5" ry="2.5" style="stroke:#2E86AB;stroke-width:0.5;" width="202.4258" x="207.3965" y="102.7539"/><text fill="#000000" font-family="Segoe UI" font-size="14" lengthAdjust="spacing" textLength="188.4258" x="214.3965" y="123.2891">svc-inventory-procurement</text></a></g><g class="participant participant-tail" data-participant="Svc"><a href="/microservices/svc-inventory-procurement/" target="_top" title="/microservices/svc-inventory-procurement/" xlink:actuate="onRequest" xlink:href="/microservices/svc-inventory-procurement/" xlink:show="new" xlink:title="/microservices/svc-inventory-procurement/" xlink:type="simple"><rect fill="#E8F4F8" height="30.4883" rx="2.5" ry="2.5" style="stroke:#2E86AB;stroke-width:0.5;" width="202.4258" x="207.3965" y="407.7266"/><text fill="#000000" font-family="Segoe UI" font-size="14" lengthAdjust="spacing" textLength="188.4258" x="214.3965" y="428.2617">svc-inventory-procurement</text></a></g><g class="participant participant-head" data-participant="DB"><text fill="#000000" font-family="Segoe UI" font-size="14" lengthAdjust="spacing" textLength="76.8496" x="445.437" y="131.2891">PostgreSQL</text><path d="M468.8618,81.7539 C468.8618,71.7539 486.8618,71.7539 486.8618,71.7539 C486.8618,71.7539 504.8618,71.7539 504.8618,81.7539 L504.8618,107.7539 C504.8618,117.7539 486.8618,117.7539 486.8618,117.7539 C486.8618,117.7539 468.8618,117.7539 468.8618,107.7539 L468.8618,81.7539" fill="#FCE4EC" style="stroke:#181818;stroke-width:0.5;"/><path d="M468.8618,81.7539 C468.8618,91.7539 486.8618,91.7539 486.8618,91.7539 C486.8618,91.7539 504.8618,91.7539 504.8618,81.7539" fill="none" style="stroke:#181818;stroke-width:0.5;"/></g><g class="participant participant-tail" data-participant="DB"><text fill="#000000" font-family="Segoe UI" font-size="14" lengthAdjust="spacing" textLength="76.8496" x="445.437" y="421.2617">PostgreSQL</text><path d="M468.8618,434.2148 C468.8618,424.2148 486.8618,424.2148 486.8618,424.2148 C486.8618,424.2148 504.8618,424.2148 504.8618,434.2148 L504.8618,460.2148 C504.8618,470.2148 486.8618,470.2148 486.8618,470.2148 C486.8618,470.2148 468.8618,470.2148 468.8618,460.2148 L468.8618,434.2148" fill="#FCE4EC" style="stroke:#181818;stroke-width:0.5;"/><path d="M468.8618,434.2148 C468.8618,444.2148 486.8618,444.2148 486.8618,444.2148 C486.8618,444.2148 504.8618,444.2148 504.8618,434.2148" fill="none" style="stroke:#181818;stroke-width:0.5;"/></g><g><title>API Gateway</title><rect fill="#2563EB" height="189.8633" style="stroke:#A23B72;stroke-width:1;" width="10" x="144.1074" y="200.8633"/></g><g><title>svc-inventory-procurement</title><rect fill="#2563EB" height="131.2422" style="stroke:#A23B72;stroke-width:1;" width="10" x="303.6094" y="230.1738"/></g><g><title>PostgreSQL</title><rect fill="#FCE4EC" height="29.3105" style="stroke:#A23B72;stroke-width:1;" width="10" x="481.8618" y="302.7949"/></g><path d="M238,149.2422 L238,174.2422 L378,174.2422 L378,159.2422 L368,149.2422 L238,149.2422" fill="#FEFFDD" style="stroke:#181818;stroke-width:0.5;"/><path d="M368,149.2422 L368,159.2422 L378,159.2422 L368,149.2422" fill="#FEFFDD" style="stroke:#181818;stroke-width:0.5;"/><a href="/services/api/svc-inventory-procurement.html" target="_top" title="/services/api/svc-inventory-procurement.html" xlink:actuate="onRequest" xlink:href="/services/api/svc-inventory-procurement.html" xlink:show="new" xlink:title="/services/api/svc-inventory-procurement.html" xlink:type="simple"><text fill="#0000FF" font-family="Segoe UI" font-size="13" lengthAdjust="spacing" text-decoration="underline" textLength="119.4058" x="244" y="166.8105">View in Swagger UI</text></a><g class="message" data-participant-1="Client" data-participant-2="GW"><polygon fill="#2563EB" points="132.1074,196.8633,142.1074,200.8633,132.1074,204.8633,136.1074,200.8633" style="stroke:#2563EB;stroke-width:1;"/><line style="stroke:#2563EB;stroke-width:1;" x1="31.7524" x2="138.1074" y1="200.8633" y2="200.8633"/><text fill="#000000" font-family="Segoe UI" font-size="13" lengthAdjust="spacing" textLength="93.355" x="38.7524" y="196.1211">GET /suppliers</text></g><g class="message" data-participant-1="GW" data-participant-2="Svc"><polygon fill="#2563EB" points="291.6094,226.1738,301.6094,230.1738,291.6094,234.1738,295.6094,230.1738" style="stroke:#2563EB;stroke-width:1;"/><line style="stroke:#2563EB;stroke-width:1;" x1="154.1074" x2="297.6094" y1="230.1738" y2="230.1738"/><text fill="#000000" font-family="Segoe UI" font-size="13" lengthAdjust="spacing" textLength="85.1348" x="161.1074" y="225.4316">route request</text></g><rect fill="#EEEEEE" height="3" style="stroke:#EEEEEE;stroke-width:1;" width="533.2866" x="0" y="258.8291"/><line style="stroke:#000000;stroke-width:1;" x1="0" x2="533.2866" y1="258.8291" y2="258.8291"/><line style="stroke:#000000;stroke-width:1;" x1="0" x2="533.2866" y1="261.8291" y2="261.8291"/><rect fill="#EEEEEE" height="23.3105" style="stroke:#000000;stroke-width:2;" width="80.3711" x="226.4578" y="248.1738"/><text fill="#000000" font-family="Segoe UI" font-size="13" font-weight="bold" lengthAdjust="spacing" textLength="62.0864" x="232.4578" y="264.7422">Database</text><g class="message" data-participant-1="Svc" data-participant-2="DB"><polygon fill="#2563EB" points="469.8618,298.7949,479.8618,302.7949,469.8618,306.7949,473.8618,302.7949" style="stroke:#2563EB;stroke-width:1;"/><line style="stroke:#2563EB;stroke-width:1;" x1="313.6094" x2="475.8618" y1="302.7949" y2="302.7949"/><text fill="#000000" font-family="Segoe UI" font-size="13" lengthAdjust="spacing" textLength="149.2524" x="320.6094" y="298.0527">SELECT ... WHERE filters</text></g><g class="message" data-participant-1="DB" data-participant-2="Svc"><polygon fill="#2563EB" points="324.6094,328.1055,314.6094,332.1055,324.6094,336.1055,320.6094,332.1055" style="stroke:#2563EB;stroke-width:1;"/><line style="stroke:#2563EB;stroke-width:1;stroke-dasharray:2,2;" x1="318.6094" x2="485.8618" y1="332.1055" y2="332.1055"/><text fill="#000000" font-family="Segoe UI" font-size="13" lengthAdjust="spacing" textLength="93.209" x="330.6094" y="327.3633">Page of results</text></g><g class="message" data-participant-1="Svc" data-participant-2="GW"><polygon fill="#2563EB" points="165.1074,357.416,155.1074,361.416,165.1074,365.416,161.1074,361.416" style="stroke:#2563EB;stroke-width:1;"/><line style="stroke:#2563EB;stroke-width:1;stroke-dasharray:2,2;" x1="159.1074" x2="307.6094" y1="361.416" y2="361.416"/><text fill="#000000" font-family="Segoe UI" font-size="13" lengthAdjust="spacing" textLength="47.3599" x="171.1074" y="356.6738">200 OK</text></g><g class="message" data-participant-1="GW" data-participant-2="Client"><polygon fill="#2563EB" points="42.7524,386.7266,32.7524,390.7266,42.7524,394.7266,38.7524,390.7266" style="stroke:#2563EB;stroke-width:1;"/><line style="stroke:#2563EB;stroke-width:1;stroke-dasharray:2,2;" x1="36.7524" x2="148.1074" y1="390.7266" y2="390.7266"/><text fill="#000000" font-family="Segoe UI" font-size="13" lengthAdjust="spacing" textLength="47.3599" x="48.7524" y="385.9844">200 OK</text></g><a href="/microservices/svc-inventory-procurement/#integration-context" target="_top" title="/microservices/svc-inventory-procurement/#integration-context" xlink:actuate="onRequest" xlink:href="/microservices/svc-inventory-procurement/#integration-context" xlink:show="new" xlink:title="/microservices/svc-inventory-procurement/#integration-context" xlink:type="simple"><text fill="#0000FF" font-family="Segoe UI" font-size="10" lengthAdjust="spacing" text-decoration="underline" textLength="245.7617" x="286.5249" y="14.668">&#11014; svc-inventory-procurement Integration Context</text></a><!--SRC=[bLDDSzem4BthL-p0cOz06XXcw0msDcNA9BGavP1o4FRYQ68aLn8ccKwl_JNzLVqbNJjWx2GSQbzalVVsUTzAvb78X6k-XJKF7YEjTZ9qLQmqr7qlUvaf6EQ1XselP0GR7Xii8I5k-2wslfBsccyHQWkC5CBTj5QMuuyToW3X9mDwHbgh_S6gy-6gY-jyUywr5O58kBIEqY7g8yNhNusSDvJNF-tr_Kk_dzDcOeCp8R5IPjJfEhrEZZlggGBv5ts_VL50R-BmVS9p-5hPQjMWrrjtIzWxKNQz7ll5s0Doai7zVMih0gqCwbG4Q5ec3Hf2fYYjqi-DHAjWft5Bdwswa1OZpQrGiX5GmlXauU-Vtt1M0jEJ0jmNnMh5c1KsHfXujz0okoI91MhpNSw4iS3Z68eznf9Jmb1pQLFQ6d03Bylixtd63N8BqwBY5SLeFeK9jxZdpxbiieJwsF56T9eglBCTvAf56lnFJgjLCVsGMxxcXixXN1aRQLnycUKbnmxDmlKkFPSnIOC2bT8mo8X6HrQ52q_4UQVcWzt6y4tW7eI4nPv74HMvcr8AA4F8wZ9sIAhnCMj-y2fqnWChKWeeJ-Pm-6b9xApf0T3P8L1d5yRO4pi3ZtGs7CBusETmo5W6KW5gSG0BR-Qvjz1iDc7voVlgmKR4jc9SIeAMZS9vpYDAPKFUXYwqOI6M90UJOrETTXjkFfSfMP9P7yGu1F0UQx9a_m00]--></g></svg>