<svg xmlns="http://www.w3.org/2000/svg" xmlns:xlink="http://www.w3.org/1999/xlink" contentStyleType="text/css" data-diagram-type="SEQUENCE" height="474px" preserveAspectRatio="none" style="width:561px;height:474px;background:#FEFEFE;" version="1.1" viewBox="0 0 561 474" width="561px" zoomAndPan="magnify"><title>GET /analytics/bookings</title><defs/><g><rect fill="#FEFEFE" height="474" style="stroke:none;stroke-width:1;" width="561" x="0" y="0"/><text fill="#000000" font-family="Segoe UI" font-size="14" font-weight="bold" lengthAdjust="spacing" textLength="179.833" x="187.002" y="28.5352">GET /analytics/bookings</text><text fill="#000000" font-family="Segoe UI" font-size="14" font-weight="bold" lengthAdjust="spacing" textLength="246.3057" x="153.7656" y="45.0234">Get booking analytics for a period</text><g><title>API Gateway</title><rect fill="#2563EB" height="189.8633" style="stroke:#A23B72;stroke-width:1;" width="10" x="206.3525" y="188.0859"/></g><g><title>svc-analytics</title><rect fill="#2563EB" height="131.2422" style="stroke:#A23B72;stroke-width:1;" width="10" x="320.4873" y="217.3965"/></g><g><title>TimescaleDB</title><rect fill="#FCE4EC" height="29.3105" style="stroke:#A23B72;stroke-width:1;" width="10" x="498.7397" y="290.0176"/></g><g><title>Client</title><rect fill="#000000" fill-opacity="0.00000" height="274.4844" width="8" x="27.7524" y="121.4648"/><line style="stroke:#A23B72;stroke-width:0.5;stroke-dasharray:5,5;" x1="31" x2="31" y1="121.4648" y2="395.9492"/></g><g><title>API Gateway</title><rect fill="#000000" fill-opacity="0.00000" height="274.4844" width="8" x="207.3525" y="121.4648"/><line style="stroke:#A23B72;stroke-width:0.5;stroke-dasharray:5,5;" x1="211.0635" x2="211.0635" y1="121.4648" y2="395.9492"/></g><g><title>svc-analytics</title><rect fill="#000000" fill-opacity="0.00000" height="274.4844" width="8" x="321.4873" y="121.4648"/><line style="stroke:#A23B72;stroke-width:0.5;stroke-dasharray:5,5;" x1="325.1084" x2="325.1084" y1="121.4648" y2="395.9492"/></g><g><title>TimescaleDB</title><rect fill="#000000" fill-opacity="0.00000" height="274.4844" width="8" x="499.7397" y="121.4648"/><line style="stroke:#A23B72;stroke-width:0.5;stroke-dasharray:5,5;" x1="503.6426" x2="503.6426" y1="121.4648" y2="395.9492"/></g><g class="participant participant-head" data-participant="Client"><rect fill="#E8F4F8" height="30.4883" rx="2.5" ry="2.5" style="stroke:#2E86AB;stroke-width:0.5;" width="53.5049" x="5" y="89.9766"/><text fill="#000000" font-family="Segoe UI" font-size="14" lengthAdjust="spacing" textLength="39.5049" x="12" y="110.5117">Client</text></g><g class="participant participant-tail" data-participant="Client"><rect fill="#E8F4F8" height="30.4883" rx="2.5" ry="2.5" style="stroke:#2E86AB;stroke-width:0.5;" width="53.5049" x="5" y="394.9492"/><text fill="#000000" font-family="Segoe UI" font-size="14" lengthAdjust="spacing" textLength="39.5049" x="12" y="415.4844">Client</text></g><g class="participant participant-head" data-participant="GW"><rect fill="#DBEAFE" height="30.4883" rx="2.5" ry="2.5" style="stroke:#2E86AB;stroke-width:0.5;" width="96.5781" x="163.0635" y="89.9766"/><text fill="#000000" font-family="Segoe UI" font-size="14" lengthAdjust="spacing" textLength="82.5781" x="170.0635" y="110.5117">API Gateway</text></g><g class="participant participant-tail" data-participant="GW"><rect fill="#DBEAFE" height="30.4883" rx="2.5" ry="2.5" style="stroke:#2E86AB;stroke-width:0.5;" width="96.5781" x="163.0635" y="394.9492"/><text fill="#000000" font-family="Segoe UI" font-size="14" lengthAdjust="spacing" textLength="82.5781" x="170.0635" y="415.4844">API Gateway</text></g><g class="participant participant-head" data-participant="Svc"><a href="/microservices/svc-analytics/" target="_top" title="/microservices/svc-analytics/" xlink:actuate="onRequest" xlink:href="/microservices/svc-analytics/" xlink:show="new" xlink:title="/microservices/svc-analytics/" xlink:type="simple"><rect fill="#E8F4F8" height="30.4883" rx="2.5" ry="2.5" style="stroke:#2E86AB;stroke-width:0.5;" width="102.7578" x="274.1084" y="89.9766"/><text fill="#000000" font-family="Segoe UI" font-size="14" lengthAdjust="spacing" textLength="88.7578" x="281.1084" y="110.5117">svc-analytics</text></a></g><g class="participant participant-tail" data-participant="Svc"><a href="/microservices/svc-analytics/" target="_top" title="/microservices/svc-analytics/" xlink:actuate="onRequest" xlink:href="/microservices/svc-analytics/" xlink:show="new" xlink:title="/microservices/svc-analytics/" xlink:type="simple"><rect fill="#E8F4F8" height="30.4883" rx="2.5" ry="2.5" style="stroke:#2E86AB;stroke-width:0.5;" width="102.7578" x="274.1084" y="394.9492"/><text fill="#000000" font-family="Segoe UI" font-size="14" lengthAdjust="spacing" textLength="88.7578" x="281.1084" y="415.4844">svc-analytics</text></a></g><g class="participant participant-head" data-participant="DB"><text fill="#000000" font-family="Segoe UI" font-size="14" lengthAdjust="spacing" textLength="86.1943" x="457.6426" y="118.5117">TimescaleDB</text><path d="M485.7397,68.9766 C485.7397,58.9766 503.7397,58.9766 503.7397,58.9766 C503.7397,58.9766 521.7397,58.9766 521.7397,68.9766 L521.7397,94.9766 C521.7397,104.9766 503.7397,104.9766 503.7397,104.9766 C503.7397,104.9766 485.7397,104.9766 485.7397,94.9766 L485.7397,68.9766" fill="#FCE4EC" style="stroke:#181818;stroke-width:0.5;"/><path d="M485.7397,68.9766 C485.7397,78.9766 503.7397,78.9766 503.7397,78.9766 C503.7397,78.9766 521.7397,78.9766 521.7397,68.9766" fill="none" style="stroke:#181818;stroke-width:0.5;"/></g><g class="participant participant-tail" data-participant="DB"><text fill="#000000" font-family="Segoe UI" font-size="14" lengthAdjust="spacing" textLength="86.1943" x="457.6426" y="408.4844">TimescaleDB</text><path d="M485.7397,421.4375 C485.7397,411.4375 503.7397,411.4375 503.7397,411.4375 C503.7397,411.4375 521.7397,411.4375 521.7397,421.4375 L521.7397,447.4375 C521.7397,457.4375 503.7397,457.4375 503.7397,457.4375 C503.7397,457.4375 485.7397,457.4375 485.7397,447.4375 L485.7397,421.4375" fill="#FCE4EC" style="stroke:#181818;stroke-width:0.5;"/><path d="M485.7397,421.4375 C485.7397,431.4375 503.7397,431.4375 503.7397,431.4375 C503.7397,431.4375 521.7397,431.4375 521.7397,421.4375" fill="none" style="stroke:#181818;stroke-width:0.5;"/></g><g><title>API Gateway</title><rect fill="#2563EB" height="189.8633" style="stroke:#A23B72;stroke-width:1;" width="10" x="206.3525" y="188.0859"/></g><g><title>svc-analytics</title><rect fill="#2563EB" height="131.2422" style="stroke:#A23B72;stroke-width:1;" width="10" x="320.4873" y="217.3965"/></g><g><title>TimescaleDB</title><rect fill="#FCE4EC" height="29.3105" style="stroke:#A23B72;stroke-width:1;" width="10" x="498.7397" y="290.0176"/></g><path d="M255,136.4648 L255,161.4648 L395,161.4648 L395,146.4648 L385,136.4648 L255,136.4648" fill="#FEFFDD" style="stroke:#181818;stroke-width:0.5;"/><path d="M385,136.4648 L385,146.4648 L395,146.4648 L385,136.4648" fill="#FEFFDD" style="stroke:#181818;stroke-width:0.5;"/><a href="/services/api/svc-analytics.html#/Bookings/getBookingAnalytics" target="_top" title="/services/api/svc-analytics.html#/Bookings/getBookingAnalytics" xlink:actuate="onRequest" xlink:href="/services/api/svc-analytics.html#/Bookings/getBookingAnalytics" xlink:show="new" xlink:title="/services/api/svc-analytics.html#/Bookings/getBookingAnalytics" xlink:type="simple"><text fill="#0000FF" font-family="Segoe UI" font-size="13" lengthAdjust="spacing" text-decoration="underline" textLength="119.4058" x="261" y="154.0332">View in Swagger UI</text></a><g class="message" data-participant-1="Client" data-participant-2="GW"><polygon fill="#2563EB" points="194.3525,184.0859,204.3525,188.0859,194.3525,192.0859,198.3525,188.0859" style="stroke:#2563EB;stroke-width:1;"/><line style="stroke:#2563EB;stroke-width:1;" x1="31.7524" x2="200.3525" y1="188.0859" y2="188.0859"/><text fill="#000000" font-family="Segoe UI" font-size="13" lengthAdjust="spacing" textLength="155.6001" x="38.7524" y="183.3438">GET /analytics/bookings</text></g><g class="message" data-participant-1="GW" data-participant-2="Svc"><polygon fill="#2563EB" points="308.4873,213.3965,318.4873,217.3965,308.4873,221.3965,312.4873,217.3965" style="stroke:#2563EB;stroke-width:1;"/><line style="stroke:#2563EB;stroke-width:1;" x1="216.3525" x2="314.4873" y1="217.3965" y2="217.3965"/><a href="/microservices/svc-analytics/#get-analyticsbookings-get-booking-analytics-for-a-period" target="_top" title="/microservices/svc-analytics/#get-analyticsbookings-get-booking-analytics-for-a-period" xlink:actuate="onRequest" xlink:href="/microservices/svc-analytics/#get-analyticsbookings-get-booking-analytics-for-a-period" xlink:show="new" xlink:title="/microservices/svc-analytics/#get-analyticsbookings-get-booking-analytics-for-a-period" xlink:type="simple"><text fill="#0000FF" font-family="Segoe UI" font-size="13" lengthAdjust="spacing" text-decoration="underline" textLength="85.1348" x="223.3525" y="212.6543">route request</text></a></g><rect fill="#EEEEEE" height="3" style="stroke:#EEEEEE;stroke-width:1;" width="554.8369" x="0" y="246.0518"/><line style="stroke:#000000;stroke-width:1;" x1="0" x2="554.8369" y1="246.0518" y2="246.0518"/><line style="stroke:#000000;stroke-width:1;" x1="0" x2="554.8369" y1="249.0518" y2="249.0518"/><rect fill="#EEEEEE" height="23.3105" style="stroke:#000000;stroke-width:2;" width="80.3711" x="237.2329" y="235.3965"/><text fill="#000000" font-family="Segoe UI" font-size="13" font-weight="bold" lengthAdjust="spacing" textLength="62.0864" x="243.2329" y="251.9648">Database</text><g class="message" data-participant-1="Svc" data-participant-2="DB"><polygon fill="#2563EB" points="486.7397,286.0176,496.7397,290.0176,486.7397,294.0176,490.7397,290.0176" style="stroke:#2563EB;stroke-width:1;"/><line style="stroke:#2563EB;stroke-width:1;" x1="330.4873" x2="492.7397" y1="290.0176" y2="290.0176"/><text fill="#000000" font-family="Segoe UI" font-size="13" lengthAdjust="spacing" textLength="149.2524" x="337.4873" y="285.2754">SELECT ... WHERE filters</text></g><g class="message" data-participant-1="DB" data-participant-2="Svc"><polygon fill="#2563EB" points="341.4873,315.3281,331.4873,319.3281,341.4873,323.3281,337.4873,319.3281" style="stroke:#2563EB;stroke-width:1;"/><line style="stroke:#2563EB;stroke-width:1;stroke-dasharray:2,2;" x1="335.4873" x2="502.7397" y1="319.3281" y2="319.3281"/><text fill="#000000" font-family="Segoe UI" font-size="13" lengthAdjust="spacing" textLength="93.209" x="347.4873" y="314.5859">Page of results</text></g><g class="message" data-participant-1="Svc" data-participant-2="GW"><polygon fill="#2563EB" points="227.3525,344.6387,217.3525,348.6387,227.3525,352.6387,223.3525,348.6387" style="stroke:#2563EB;stroke-width:1;"/><line style="stroke:#2563EB;stroke-width:1;stroke-dasharray:2,2;" x1="221.3525" x2="324.4873" y1="348.6387" y2="348.6387"/><text fill="#000000" font-family="Segoe UI" font-size="13" lengthAdjust="spacing" textLength="47.3599" x="233.3525" y="343.8965">200 OK</text></g><g class="message" data-participant-1="GW" data-participant-2="Client"><polygon fill="#2563EB" points="42.7524,373.9492,32.7524,377.9492,42.7524,381.9492,38.7524,377.9492" style="stroke:#2563EB;stroke-width:1;"/><line style="stroke:#2563EB;stroke-width:1;stroke-dasharray:2,2;" x1="36.7524" x2="210.3525" y1="377.9492" y2="377.9492"/><text fill="#000000" font-family="Segoe UI" font-size="13" lengthAdjust="spacing" textLength="47.3599" x="48.7524" y="373.207">200 OK</text></g><!--SRC=[XPDTRzem58Rl_IkEu3g4GbSG4fCII1WQwj2WuwBZmYGdgTLWCzk5LTF- -qv22CdQQScDdVVr-NXER9w5F73Dzx3ZqNEgrOkC9ofJ6jfXaB_CL0xpn6Dr4ZA5X6S6QqgC2N_9RAYalUTxXDOAKuNmC6_LZ-EF5vGHmYy6z7XQgrEPglVXhe-xulEIQoiYSU3I-ah7g2-MO7Zd-MyiVnST3CFRS5ZO5YB1XP3O2EFr-lwWL-Y- -jcGmfjXsBsff3Sumf3qGhvNjXar6Wns_Phs3if-C62_6RF2PWYpO0qkbpnxfKQCkrEAAANckvoXXN87bGu9nU1mG2rKpDZXsZwq9fb0QLl03PoNJTbRpc76BPxuQ-6PRQ0zzGEFvjhmcMFaLFaAv-eOmUEZknUHLWRrKKHet8RDtMuhtZ6tVCSDJNujzcWYdk7KB-9CVMf_4jm64yOaiG5rH9r79reKlmhD3w8PllDazrdRzKisRegsN7iLc6y2Jo0ah4uyJIdimtoxPIXZo3CnTYO2piUyxz6_g3CUMN4aI0MTybUa9HtB8Op-Xw5DbLstbwXE_hNSN5M7HkbmvpnAe5-4ikhyNXXBbLU5v7albR3n6AONlECnOxb8jH7O4Qo2HJ1PGwVJWSsdu6i0YSWiwbfFDVwqTAgcbZobMIIKtT3DDIp6sf4ooGLShzk5Bv_hbdn-EI9ob93VSyqsx0y0]--></g></svg>