<svg xmlns="http://www.w3.org/2000/svg" xmlns:xlink="http://www.w3.org/1999/xlink" contentStyleType="text/css" data-diagram-type="SEQUENCE" height="474px" preserveAspectRatio="none" style="width:512px;height:474px;background:#FEFEFE;" version="1.1" viewBox="0 0 512 474" width="512px" zoomAndPan="magnify"><title>GET /guides</title><defs/><g><rect fill="#FEFEFE" height="474" style="stroke:none;stroke-width:1;" width="512" x="0" y="0"/><text fill="#000000" font-family="Segoe UI" font-size="14" font-weight="bold" lengthAdjust="spacing" textLength="89.4141" x="207.5339" y="28.5352">GET /guides</text><text fill="#000000" font-family="Segoe UI" font-size="14" font-weight="bold" lengthAdjust="spacing" textLength="184.2285" x="160.1267" y="45.0234">Search guides with filters</text><g><title>API Gateway</title><rect fill="#2563EB" height="189.8633" style="stroke:#A23B72;stroke-width:1;" width="10" x="128.3271" y="188.0859"/></g><g><title>svc-guide-management</title><rect fill="#2563EB" height="131.2422" style="stroke:#A23B72;stroke-width:1;" width="10" x="275.8047" y="217.3965"/></g><g><title>PostgreSQL</title><rect fill="#FCE4EC" height="29.3105" style="stroke:#A23B72;stroke-width:1;" width="10" x="454.0571" y="290.0176"/></g><g><title>Client</title><rect fill="#000000" fill-opacity="0.00000" height="274.4844" width="8" x="27.7524" y="121.4648"/><line style="stroke:#A23B72;stroke-width:0.5;stroke-dasharray:5,5;" x1="31" x2="31" y1="121.4648" y2="395.9492"/></g><g><title>API Gateway</title><rect fill="#000000" fill-opacity="0.00000" height="274.4844" width="8" x="129.3271" y="121.4648"/><line style="stroke:#A23B72;stroke-width:0.5;stroke-dasharray:5,5;" x1="133.0381" x2="133.0381" y1="121.4648" y2="395.9492"/></g><g><title>svc-guide-management</title><rect fill="#000000" fill-opacity="0.00000" height="274.4844" width="8" x="276.8047" y="121.4648"/><line style="stroke:#A23B72;stroke-width:0.5;stroke-dasharray:5,5;" x1="280.6162" x2="280.6162" y1="121.4648" y2="395.9492"/></g><g><title>PostgreSQL</title><rect fill="#000000" fill-opacity="0.00000" height="274.4844" width="8" x="455.0571" y="121.4648"/><line style="stroke:#A23B72;stroke-width:0.5;stroke-dasharray:5,5;" x1="458.6323" x2="458.6323" y1="121.4648" y2="395.9492"/></g><g class="participant participant-head" data-participant="Client"><rect fill="#E8F4F8" height="30.4883" rx="2.5" ry="2.5" style="stroke:#2E86AB;stroke-width:0.5;" width="53.5049" x="5" y="89.9766"/><text fill="#000000" font-family="Segoe UI" font-size="14" lengthAdjust="spacing" textLength="39.5049" x="12" y="110.5117">Client</text></g><g class="participant participant-tail" data-participant="Client"><rect fill="#E8F4F8" height="30.4883" rx="2.5" ry="2.5" style="stroke:#2E86AB;stroke-width:0.5;" width="53.5049" x="5" y="394.9492"/><text fill="#000000" font-family="Segoe UI" font-size="14" lengthAdjust="spacing" textLength="39.5049" x="12" y="415.4844">Client</text></g><g class="participant participant-head" data-participant="GW"><rect fill="#DBEAFE" height="30.4883" rx="2.5" ry="2.5" style="stroke:#2E86AB;stroke-width:0.5;" width="96.5781" x="85.0381" y="89.9766"/><text fill="#000000" font-family="Segoe UI" font-size="14" lengthAdjust="spacing" textLength="82.5781" x="92.0381" y="110.5117">API Gateway</text></g><g class="participant participant-tail" data-participant="GW"><rect fill="#DBEAFE" height="30.4883" rx="2.5" ry="2.5" style="stroke:#2E86AB;stroke-width:0.5;" width="96.5781" x="85.0381" y="394.9492"/><text fill="#000000" font-family="Segoe UI" font-size="14" lengthAdjust="spacing" textLength="82.5781" x="92.0381" y="415.4844">API Gateway</text></g><g class="participant participant-head" data-participant="Svc"><a href="/microservices/svc-guide-management/" target="_top" title="/microservices/svc-guide-management/" xlink:actuate="onRequest" xlink:href="/microservices/svc-guide-management/" xlink:show="new" xlink:title="/microservices/svc-guide-management/" xlink:type="simple"><rect fill="#E8F4F8" height="30.4883" rx="2.5" ry="2.5" style="stroke:#2E86AB;stroke-width:0.5;" width="178.377" x="191.6162" y="89.9766"/><text fill="#000000" font-family="Segoe UI" font-size="14" lengthAdjust="spacing" textLength="164.377" x="198.6162" y="110.5117">svc-guide-management</text></a></g><g class="participant participant-tail" data-participant="Svc"><a href="/microservices/svc-guide-management/" target="_top" title="/microservices/svc-guide-management/" xlink:actuate="onRequest" xlink:href="/microservices/svc-guide-management/" xlink:show="new" xlink:title="/microservices/svc-guide-management/" xlink:type="simple"><rect fill="#E8F4F8" height="30.4883" rx="2.5" ry="2.5" style="stroke:#2E86AB;stroke-width:0.5;" width="178.377" x="191.6162" y="394.9492"/><text fill="#000000" font-family="Segoe UI" font-size="14" lengthAdjust="spacing" textLength="164.377" x="198.6162" y="415.4844">svc-guide-management</text></a></g><g class="participant participant-head" data-participant="DB"><text fill="#000000" font-family="Segoe UI" font-size="14" lengthAdjust="spacing" textLength="76.8496" x="417.6323" y="118.5117">PostgreSQL</text><path d="M441.0571,68.9766 C441.0571,58.9766 459.0571,58.9766 459.0571,58.9766 C459.0571,58.9766 477.0571,58.9766 477.0571,68.9766 L477.0571,94.9766 C477.0571,104.9766 459.0571,104.9766 459.0571,104.9766 C459.0571,104.9766 441.0571,104.9766 441.0571,94.9766 L441.0571,68.9766" fill="#FCE4EC" style="stroke:#181818;stroke-width:0.5;"/><path d="M441.0571,68.9766 C441.0571,78.9766 459.0571,78.9766 459.0571,78.9766 C459.0571,78.9766 477.0571,78.9766 477.0571,68.9766" fill="none" style="stroke:#181818;stroke-width:0.5;"/></g><g class="participant participant-tail" data-participant="DB"><text fill="#000000" font-family="Segoe UI" font-size="14" lengthAdjust="spacing" textLength="76.8496" x="417.6323" y="408.4844">PostgreSQL</text><path d="M441.0571,421.4375 C441.0571,411.4375 459.0571,411.4375 459.0571,411.4375 C459.0571,411.4375 477.0571,411.4375 477.0571,421.4375 L477.0571,447.4375 C477.0571,457.4375 459.0571,457.4375 459.0571,457.4375 C459.0571,457.4375 441.0571,457.4375 441.0571,447.4375 L441.0571,421.4375" fill="#FCE4EC" style="stroke:#181818;stroke-width:0.5;"/><path d="M441.0571,421.4375 C441.0571,431.4375 459.0571,431.4375 459.0571,431.4375 C459.0571,431.4375 477.0571,431.4375 477.0571,421.4375" fill="none" style="stroke:#181818;stroke-width:0.5;"/></g><g><title>API Gateway</title><rect fill="#2563EB" height="189.8633" style="stroke:#A23B72;stroke-width:1;" width="10" x="128.3271" y="188.0859"/></g><g><title>svc-guide-management</title><rect fill="#2563EB" height="131.2422" style="stroke:#A23B72;stroke-width:1;" width="10" x="275.8047" y="217.3965"/></g><g><title>PostgreSQL</title><rect fill="#FCE4EC" height="29.3105" style="stroke:#A23B72;stroke-width:1;" width="10" x="454.0571" y="290.0176"/></g><path d="M210,136.4648 L210,161.4648 L350,161.4648 L350,146.4648 L340,136.4648 L210,136.4648" fill="#FEFFDD" style="stroke:#181818;stroke-width:0.5;"/><path d="M340,136.4648 L340,146.4648 L350,146.4648 L340,136.4648" fill="#FEFFDD" style="stroke:#181818;stroke-width:0.5;"/><a href="/services/api/svc-guide-management.html#/Guides/searchGuides" target="_top" title="/services/api/svc-guide-management.html#/Guides/searchGuides" xlink:actuate="onRequest" xlink:href="/services/api/svc-guide-management.html#/Guides/searchGuides" xlink:show="new" xlink:title="/services/api/svc-guide-management.html#/Guides/searchGuides" xlink:type="simple"><text fill="#0000FF" font-family="Segoe UI" font-size="13" lengthAdjust="spacing" text-decoration="underline" textLength="119.4058" x="216" y="154.0332">View in Swagger UI</text></a><g class="message" data-participant-1="Client" data-participant-2="GW"><polygon fill="#2563EB" points="116.3271,184.0859,126.3271,188.0859,116.3271,192.0859,120.3271,188.0859" style="stroke:#2563EB;stroke-width:1;"/><line style="stroke:#2563EB;stroke-width:1;" x1="31.7524" x2="122.3271" y1="188.0859" y2="188.0859"/><text fill="#000000" font-family="Segoe UI" font-size="13" lengthAdjust="spacing" textLength="77.5747" x="38.7524" y="183.3438">GET /guides</text></g><g class="message" data-participant-1="GW" data-participant-2="Svc"><polygon fill="#2563EB" points="263.8047,213.3965,273.8047,217.3965,263.8047,221.3965,267.8047,217.3965" style="stroke:#2563EB;stroke-width:1;"/><line style="stroke:#2563EB;stroke-width:1;" x1="138.3271" x2="269.8047" y1="217.3965" y2="217.3965"/><text fill="#000000" font-family="Segoe UI" font-size="13" lengthAdjust="spacing" textLength="85.1348" x="145.3271" y="212.6543">route request</text></g><rect fill="#EEEEEE" height="3" style="stroke:#EEEEEE;stroke-width:1;" width="505.4819" x="0" y="246.0518"/><line style="stroke:#000000;stroke-width:1;" x1="0" x2="505.4819" y1="246.0518" y2="246.0518"/><line style="stroke:#000000;stroke-width:1;" x1="0" x2="505.4819" y1="249.0518" y2="249.0518"/><rect fill="#EEEEEE" height="23.3105" style="stroke:#000000;stroke-width:2;" width="80.3711" x="212.5554" y="235.3965"/><text fill="#000000" font-family="Segoe UI" font-size="13" font-weight="bold" lengthAdjust="spacing" textLength="62.0864" x="218.5554" y="251.9648">Database</text><g class="message" data-participant-1="Svc" data-participant-2="DB"><polygon fill="#2563EB" points="442.0571,286.0176,452.0571,290.0176,442.0571,294.0176,446.0571,290.0176" style="stroke:#2563EB;stroke-width:1;"/><line style="stroke:#2563EB;stroke-width:1;" x1="285.8047" x2="448.0571" y1="290.0176" y2="290.0176"/><text fill="#000000" font-family="Segoe UI" font-size="13" lengthAdjust="spacing" textLength="149.2524" x="292.8047" y="285.2754">SELECT ... WHERE filters</text></g><g class="message" data-participant-1="DB" data-participant-2="Svc"><polygon fill="#2563EB" points="296.8047,315.3281,286.8047,319.3281,296.8047,323.3281,292.8047,319.3281" style="stroke:#2563EB;stroke-width:1;"/><line style="stroke:#2563EB;stroke-width:1;stroke-dasharray:2,2;" x1="290.8047" x2="458.0571" y1="319.3281" y2="319.3281"/><text fill="#000000" font-family="Segoe UI" font-size="13" lengthAdjust="spacing" textLength="93.209" x="302.8047" y="314.5859">Page of results</text></g><g class="message" data-participant-1="Svc" data-participant-2="GW"><polygon fill="#2563EB" points="149.3271,344.6387,139.3271,348.6387,149.3271,352.6387,145.3271,348.6387" style="stroke:#2563EB;stroke-width:1;"/><line style="stroke:#2563EB;stroke-width:1;stroke-dasharray:2,2;" x1="143.3271" x2="279.8047" y1="348.6387" y2="348.6387"/><text fill="#000000" font-family="Segoe UI" font-size="13" lengthAdjust="spacing" textLength="47.3599" x="155.3271" y="343.8965">200 OK</text></g><g class="message" data-participant-1="GW" data-participant-2="Client"><polygon fill="#2563EB" points="42.7524,373.9492,32.7524,377.9492,42.7524,381.9492,38.7524,377.9492" style="stroke:#2563EB;stroke-width:1;"/><line style="stroke:#2563EB;stroke-width:1;stroke-dasharray:2,2;" x1="36.7524" x2="132.3271" y1="377.9492" y2="377.9492"/><text fill="#000000" font-family="Segoe UI" font-size="13" lengthAdjust="spacing" textLength="47.3599" x="48.7524" y="373.207">200 OK</text></g><!--SRC=[RLDDZzem5BpxLpp1cO-5xOAGg9I0Gr7HbZQxvR3bO997i3QngMr8gwh_lIy1ig5BSh4puvdClCI-IhKNHcIm4T5hOlH1nHETQWFDW1StinN3xaIiSwaIs8hKOWs9SIiEgGkqSeyYGsY4c6Y4vtcZVXn_7b1527yOqEKPe_EpLU_3GnytvUEbC4v6SY-KyxM9qLmeVFZW-Uye_xyq7mRtmR2aBUGM5rBXbOpNw_k3Nedx-jSL5DmDW-vT1Rsh8mW8B-57xQvLey5WqwzXDwhiym7xovYJBaMOyIVe90SPe_sXGXGcsi5f2xbqEzZArA6nZEtVea9ZaafKhW72mcbv3NlBESo4mrpyBZcp5JIdFlTeXbSyUunQfLah4qeac5r4msC4Bo-TJ4P6MpH76Q7jt69trkkgwLWuiH6MPhxKrYK6mw-BKctgK-u9l-SJnXIL0lg8fl2WciYbCX1xUTEalNDPskpCobg8NfHqsi1tYJb81M4kaeH4d-VhDKCLG-73sAaSQ7qiAXZLosOYSl987PNbdBywMXAr23y26Xg1flXIhNjZ5-25piPZc5v2ZyUC5I09KDuHX7p19q_GRhTXzOb_uzKaAwbQBRHiLSvBYWrwIzwM_YJBOgmTEPjS4lMwNVZokKufQYro4EES_XPhjcB_0000]--></g></svg>