<svg xmlns="http://www.w3.org/2000/svg" xmlns:xlink="http://www.w3.org/1999/xlink" contentStyleType="text/css" data-diagram-type="SEQUENCE" height="640px" preserveAspectRatio="none" style="width:876px;height:640px;background:#FEFEFE;" version="1.1" viewBox="0 0 876 640" width="876px" zoomAndPan="magnify"><title>POST /notifications</title><defs/><g><rect fill="#FEFEFE" height="640" style="stroke:none;stroke-width:1;" width="876" x="0" y="0"/><text fill="#000000" font-family="Segoe UI" font-size="14" font-weight="bold" lengthAdjust="spacing" textLength="140.9775" x="363.9539" y="28.5352">POST /notifications</text><text fill="#000000" font-family="Segoe UI" font-size="14" font-weight="bold" lengthAdjust="spacing" textLength="134.8936" x="366.9958" y="45.0234">Send a notification</text><g><title>API Gateway</title><rect fill="#059669" height="356.416" style="stroke:#A23B72;stroke-width:1;" width="10" x="172.5386" y="188.0859"/></g><g><title>svc-notifications</title><rect fill="#059669" height="297.7949" style="stroke:#A23B72;stroke-width:1;" width="10" x="294.8428" y="217.3965"/></g><g><title>PG . Valkey</title><rect fill="#FCE4EC" height="29.3105" style="stroke:#A23B72;stroke-width:1;" width="10" x="815.8491" y="325.3281"/></g><g><title>Client</title><rect fill="#000000" fill-opacity="0.00000" height="441.0371" width="8" x="27.7524" y="121.4648"/><line style="stroke:#A23B72;stroke-width:0.5;stroke-dasharray:5,5;" x1="31" x2="31" y1="121.4648" y2="562.502"/></g><g><title>API Gateway</title><rect fill="#000000" fill-opacity="0.00000" height="441.0371" width="8" x="173.5386" y="121.4648"/><line style="stroke:#A23B72;stroke-width:0.5;stroke-dasharray:5,5;" x1="177.2495" x2="177.2495" y1="121.4648" y2="562.502"/></g><g><title>svc-notifications</title><rect fill="#000000" fill-opacity="0.00000" height="441.0371" width="8" x="295.8428" y="121.4648"/><line style="stroke:#A23B72;stroke-width:0.5;stroke-dasharray:5,5;" x1="299.8276" x2="299.8276" y1="121.4648" y2="562.502"/></g><g><title>SendGrid API</title><rect fill="#000000" fill-opacity="0.00000" height="441.0371" width="8" x="420.5601" y="121.4648"/><line style="stroke:#A23B72;stroke-width:0.5;stroke-dasharray:5,5;" x1="423.8579" x2="423.8579" y1="121.4648" y2="562.502"/></g><g><title>Twilio API</title><rect fill="#000000" fill-opacity="0.00000" height="441.0371" width="8" x="521.3823" y="121.4648"/><line style="stroke:#A23B72;stroke-width:0.5;stroke-dasharray:5,5;" x1="525.2622" x2="525.2622" y1="121.4648" y2="562.502"/></g><g><title>Firebase Cloud Messaging</title><rect fill="#000000" fill-opacity="0.00000" height="441.0371" width="8" x="667.1577" y="121.4648"/><line style="stroke:#A23B72;stroke-width:0.5;stroke-dasharray:5,5;" x1="670.5024" x2="670.5024" y1="121.4648" y2="562.502"/></g><g><title>PG . Valkey</title><rect fill="#000000" fill-opacity="0.00000" height="441.0371" width="8" x="816.8491" y="121.4648"/><line style="stroke:#A23B72;stroke-width:0.5;stroke-dasharray:5,5;" x1="820.813" x2="820.813" y1="121.4648" y2="562.502"/></g><g class="participant participant-head" data-participant="Client"><rect fill="#E8F4F8" height="30.4883" rx="2.5" ry="2.5" style="stroke:#2E86AB;stroke-width:0.5;" width="53.5049" x="5" y="89.9766"/><text fill="#000000" font-family="Segoe UI" font-size="14" lengthAdjust="spacing" textLength="39.5049" x="12" y="110.5117">Client</text></g><g class="participant participant-tail" data-participant="Client"><rect fill="#E8F4F8" height="30.4883" rx="2.5" ry="2.5" style="stroke:#2E86AB;stroke-width:0.5;" width="53.5049" x="5" y="561.502"/><text fill="#000000" font-family="Segoe UI" font-size="14" lengthAdjust="spacing" textLength="39.5049" x="12" y="582.0371">Client</text></g><g class="participant participant-head" data-participant="GW"><rect fill="#DBEAFE" height="30.4883" rx="2.5" ry="2.5" style="stroke:#2E86AB;stroke-width:0.5;" width="96.5781" x="129.2495" y="89.9766"/><text fill="#000000" font-family="Segoe UI" font-size="14" lengthAdjust="spacing" textLength="82.5781" x="136.2495" y="110.5117">API Gateway</text></g><g class="participant participant-tail" data-participant="GW"><rect fill="#DBEAFE" height="30.4883" rx="2.5" ry="2.5" style="stroke:#2E86AB;stroke-width:0.5;" width="96.5781" x="129.2495" y="561.502"/><text fill="#000000" font-family="Segoe UI" font-size="14" lengthAdjust="spacing" textLength="82.5781" x="136.2495" y="582.0371">API Gateway</text></g><g class="participant participant-head" data-participant="Svc"><a href="/microservices/svc-notifications/" target="_top" title="/microservices/svc-notifications/" xlink:actuate="onRequest" xlink:href="/microservices/svc-notifications/" xlink:show="new" xlink:title="/microservices/svc-notifications/" xlink:type="simple"><rect fill="#E8F4F8" height="30.4883" rx="2.5" ry="2.5" style="stroke:#2E86AB;stroke-width:0.5;" width="128.0303" x="235.8276" y="89.9766"/><text fill="#000000" font-family="Segoe UI" font-size="14" lengthAdjust="spacing" textLength="114.0303" x="242.8276" y="110.5117">svc-notifications</text></a></g><g class="participant participant-tail" data-participant="Svc"><a href="/microservices/svc-notifications/" target="_top" title="/microservices/svc-notifications/" xlink:actuate="onRequest" xlink:href="/microservices/svc-notifications/" xlink:show="new" xlink:title="/microservices/svc-notifications/" xlink:type="simple"><rect fill="#E8F4F8" height="30.4883" rx="2.5" ry="2.5" style="stroke:#2E86AB;stroke-width:0.5;" width="128.0303" x="235.8276" y="561.502"/><text fill="#000000" font-family="Segoe UI" font-size="14" lengthAdjust="spacing" textLength="114.0303" x="242.8276" y="582.0371">svc-notifications</text></a></g><g class="participant participant-head" data-participant="SG"><rect fill="#F5F5F5" height="30.4883" rx="2.5" ry="2.5" style="stroke:#2E86AB;stroke-width:0.5;" width="101.4043" x="373.8579" y="89.9766"/><text fill="#000000" font-family="Segoe UI" font-size="14" lengthAdjust="spacing" textLength="87.4043" x="380.8579" y="110.5117">SendGrid API</text></g><g class="participant participant-tail" data-participant="SG"><rect fill="#F5F5F5" height="30.4883" rx="2.5" ry="2.5" style="stroke:#2E86AB;stroke-width:0.5;" width="101.4043" x="373.8579" y="561.502"/><text fill="#000000" font-family="Segoe UI" font-size="14" lengthAdjust="spacing" textLength="87.4043" x="380.8579" y="582.0371">SendGrid API</text></g><g class="participant participant-head" data-participant="TW"><rect fill="#F5F5F5" height="30.4883" rx="2.5" ry="2.5" style="stroke:#2E86AB;stroke-width:0.5;" width="80.2402" x="485.2622" y="89.9766"/><text fill="#000000" font-family="Segoe UI" font-size="14" lengthAdjust="spacing" textLength="66.2402" x="492.2622" y="110.5117">Twilio API</text></g><g class="participant participant-tail" data-participant="TW"><rect fill="#F5F5F5" height="30.4883" rx="2.5" ry="2.5" style="stroke:#2E86AB;stroke-width:0.5;" width="80.2402" x="485.2622" y="561.502"/><text fill="#000000" font-family="Segoe UI" font-size="14" lengthAdjust="spacing" textLength="66.2402" x="492.2622" y="582.0371">Twilio API</text></g><g class="participant participant-head" data-participant="FCM"><rect fill="#F5F5F5" height="30.4883" rx="2.5" ry="2.5" style="stroke:#2E86AB;stroke-width:0.5;" width="191.3105" x="575.5024" y="89.9766"/><text fill="#000000" font-family="Segoe UI" font-size="14" lengthAdjust="spacing" textLength="177.3105" x="582.5024" y="110.5117">Firebase Cloud Messaging</text></g><g class="participant participant-tail" data-participant="FCM"><rect fill="#F5F5F5" height="30.4883" rx="2.5" ry="2.5" style="stroke:#2E86AB;stroke-width:0.5;" width="191.3105" x="575.5024" y="561.502"/><text fill="#000000" font-family="Segoe UI" font-size="14" lengthAdjust="spacing" textLength="177.3105" x="582.5024" y="582.0371">Firebase Cloud Messaging</text></g><g class="participant participant-head" data-participant="DB"><text fill="#000000" font-family="Segoe UI" font-size="14" lengthAdjust="spacing" textLength="82.0723" x="776.813" y="118.5117">PG + Valkey</text><path d="M802.8491,68.9766 C802.8491,58.9766 820.8491,58.9766 820.8491,58.9766 C820.8491,58.9766 838.8491,58.9766 838.8491,68.9766 L838.8491,94.9766 C838.8491,104.9766 820.8491,104.9766 820.8491,104.9766 C820.8491,104.9766 802.8491,104.9766 802.8491,94.9766 L802.8491,68.9766" fill="#FCE4EC" style="stroke:#181818;stroke-width:0.5;"/><path d="M802.8491,68.9766 C802.8491,78.9766 820.8491,78.9766 820.8491,78.9766 C820.8491,78.9766 838.8491,78.9766 838.8491,68.9766" fill="none" style="stroke:#181818;stroke-width:0.5;"/></g><g class="participant participant-tail" data-participant="DB"><text fill="#000000" font-family="Segoe UI" font-size="14" lengthAdjust="spacing" textLength="82.0723" x="776.813" y="575.0371">PG + Valkey</text><path d="M802.8491,587.9902 C802.8491,577.9902 820.8491,577.9902 820.8491,577.9902 C820.8491,577.9902 838.8491,577.9902 838.8491,587.9902 L838.8491,613.9902 C838.8491,623.9902 820.8491,623.9902 820.8491,623.9902 C820.8491,623.9902 802.8491,623.9902 802.8491,613.9902 L802.8491,587.9902" fill="#FCE4EC" style="stroke:#181818;stroke-width:0.5;"/><path d="M802.8491,587.9902 C802.8491,597.9902 820.8491,597.9902 820.8491,597.9902 C820.8491,597.9902 838.8491,597.9902 838.8491,587.9902" fill="none" style="stroke:#181818;stroke-width:0.5;"/></g><g><title>API Gateway</title><rect fill="#059669" height="356.416" style="stroke:#A23B72;stroke-width:1;" width="10" x="172.5386" y="188.0859"/></g><g><title>svc-notifications</title><rect fill="#059669" height="297.7949" style="stroke:#A23B72;stroke-width:1;" width="10" x="294.8428" y="217.3965"/></g><g><title>PG . Valkey</title><rect fill="#FCE4EC" height="29.3105" style="stroke:#A23B72;stroke-width:1;" width="10" x="815.8491" y="325.3281"/></g><path d="M229,136.4648 L229,161.4648 L369,161.4648 L369,146.4648 L359,136.4648 L229,136.4648" fill="#FEFFDD" style="stroke:#181818;stroke-width:0.5;"/><path d="M359,136.4648 L359,146.4648 L369,146.4648 L359,136.4648" fill="#FEFFDD" style="stroke:#181818;stroke-width:0.5;"/><a href="/services/api/svc-notifications.html#/Notifications/sendNotification" target="_top" title="/services/api/svc-notifications.html#/Notifications/sendNotification" xlink:actuate="onRequest" xlink:href="/services/api/svc-notifications.html#/Notifications/sendNotification" xlink:show="new" xlink:title="/services/api/svc-notifications.html#/Notifications/sendNotification" xlink:type="simple"><text fill="#0000FF" font-family="Segoe UI" font-size="13" lengthAdjust="spacing" text-decoration="underline" textLength="119.4058" x="235" y="154.0332">View in Swagger UI</text></a><g class="message" data-participant-1="Client" data-participant-2="GW"><polygon fill="#059669" points="160.5386,184.0859,170.5386,188.0859,160.5386,192.0859,164.5386,188.0859" style="stroke:#059669;stroke-width:1;"/><line style="stroke:#059669;stroke-width:1;" x1="31.7524" x2="166.5386" y1="188.0859" y2="188.0859"/><text fill="#000000" font-family="Segoe UI" font-size="13" lengthAdjust="spacing" textLength="121.7861" x="38.7524" y="183.3438">POST /notifications</text></g><g class="message" data-participant-1="GW" data-participant-2="Svc"><polygon fill="#059669" points="282.8428,213.3965,292.8428,217.3965,282.8428,221.3965,286.8428,217.3965" style="stroke:#059669;stroke-width:1;"/><line style="stroke:#059669;stroke-width:1;" x1="182.5386" x2="288.8428" y1="217.3965" y2="217.3965"/><text fill="#000000" font-family="Segoe UI" font-size="13" lengthAdjust="spacing" textLength="85.1348" x="189.5386" y="212.6543">route request</text></g><path d="M309,230.3965 L309,255.3965 L467,255.3965 L467,240.3965 L457,230.3965 L309,230.3965" fill="#FEFFDD" style="stroke:#181818;stroke-width:0.5;"/><path d="M457,230.3965 L457,240.3965 L467,240.3965 L457,230.3965" fill="#FEFFDD" style="stroke:#181818;stroke-width:0.5;"/><text fill="#000000" font-family="Segoe UI" font-size="13" lengthAdjust="spacing" textLength="137.5728" x="315" y="247.9648">Validate request body</text><rect fill="#EEEEEE" height="3" style="stroke:#EEEEEE;stroke-width:1;" width="869.8853" x="0" y="281.3623"/><line style="stroke:#000000;stroke-width:1;" x1="0" x2="869.8853" y1="281.3623" y2="281.3623"/><line style="stroke:#000000;stroke-width:1;" x1="0" x2="869.8853" y1="284.3623" y2="284.3623"/><rect fill="#EEEEEE" height="23.3105" style="stroke:#000000;stroke-width:2;" width="80.3711" x="394.7571" y="270.707"/><text fill="#000000" font-family="Segoe UI" font-size="13" font-weight="bold" lengthAdjust="spacing" textLength="62.0864" x="400.7571" y="287.2754">Database</text><g class="message" data-participant-1="Svc" data-participant-2="DB"><polygon fill="#059669" points="803.8491,321.3281,813.8491,325.3281,803.8491,329.3281,807.8491,325.3281" style="stroke:#059669;stroke-width:1;"/><line style="stroke:#059669;stroke-width:1;" x1="304.8428" x2="809.8491" y1="325.3281" y2="325.3281"/><text fill="#000000" font-family="Segoe UI" font-size="13" lengthAdjust="spacing" textLength="96.0718" x="311.8428" y="320.5859">INSERT INTO ...</text></g><g class="message" data-participant-1="DB" data-participant-2="Svc"><polygon fill="#059669" points="315.8428,350.6387,305.8428,354.6387,315.8428,358.6387,311.8428,354.6387" style="stroke:#059669;stroke-width:1;"/><line style="stroke:#059669;stroke-width:1;stroke-dasharray:2,2;" x1="309.8428" x2="819.8491" y1="354.6387" y2="354.6387"/><text fill="#000000" font-family="Segoe UI" font-size="13" lengthAdjust="spacing" textLength="76.4575" x="321.8428" y="349.8965">Created row</text></g><rect fill="#EEEEEE" height="3" style="stroke:#EEEEEE;stroke-width:1;" width="869.8853" x="0" y="383.2939"/><line style="stroke:#000000;stroke-width:1;" x1="0" x2="869.8853" y1="383.2939" y2="383.2939"/><line style="stroke:#000000;stroke-width:1;" x1="0" x2="869.8853" y1="386.2939" y2="386.2939"/><rect fill="#EEEEEE" height="23.3105" style="stroke:#000000;stroke-width:2;" width="106.8218" x="381.5317" y="372.6387"/><text fill="#000000" font-family="Segoe UI" font-size="13" font-weight="bold" lengthAdjust="spacing" textLength="88.5371" x="387.5317" y="389.207">Async Events</text><g class="message" data-participant-1="Svc" data-participant-2="SG"><line style="stroke:#059669;stroke-width:1;" x1="422.5601" x2="412.5601" y1="427.2598" y2="423.2598"/><line style="stroke:#059669;stroke-width:1;" x1="422.5601" x2="412.5601" y1="427.2598" y2="431.2598"/><line style="stroke:#059669;stroke-width:1;" x1="304.8428" x2="423.5601" y1="427.2598" y2="427.2598"/><text fill="#000000" font-family="Segoe UI" font-size="13" lengthAdjust="spacing" textLength="81.9736" x="311.8428" y="422.5176">Deliver email</text></g><g class="message" data-participant-1="Svc" data-participant-2="TW"><line style="stroke:#059669;stroke-width:1;" x1="523.3823" x2="513.3823" y1="456.5703" y2="452.5703"/><line style="stroke:#059669;stroke-width:1;" x1="523.3823" x2="513.3823" y1="456.5703" y2="460.5703"/><line style="stroke:#059669;stroke-width:1;" x1="304.8428" x2="524.3823" y1="456.5703" y2="456.5703"/><text fill="#000000" font-family="Segoe UI" font-size="13" lengthAdjust="spacing" textLength="73.0996" x="311.8428" y="451.8281">Deliver SMS</text></g><g class="message" data-participant-1="Svc" data-participant-2="FCM"><line style="stroke:#059669;stroke-width:1;" x1="669.1577" x2="659.1577" y1="485.8809" y2="481.8809"/><line style="stroke:#059669;stroke-width:1;" x1="669.1577" x2="659.1577" y1="485.8809" y2="489.8809"/><line style="stroke:#059669;stroke-width:1;" x1="304.8428" x2="670.1577" y1="485.8809" y2="485.8809"/><text fill="#000000" font-family="Segoe UI" font-size="13" lengthAdjust="spacing" textLength="141.3877" x="311.8428" y="481.1387">Send push notification</text></g><g class="message" data-participant-1="Svc" data-participant-2="GW"><polygon fill="#059669" points="193.5386,511.1914,183.5386,515.1914,193.5386,519.1914,189.5386,515.1914" style="stroke:#059669;stroke-width:1;"/><line style="stroke:#059669;stroke-width:1;stroke-dasharray:2,2;" x1="187.5386" x2="298.8428" y1="515.1914" y2="515.1914"/><text fill="#000000" font-family="Segoe UI" font-size="13" lengthAdjust="spacing" textLength="77.7969" x="199.5386" y="510.4492">201 Created</text></g><g class="message" data-participant-1="GW" data-participant-2="Client"><polygon fill="#059669" points="42.7524,540.502,32.7524,544.502,42.7524,548.502,38.7524,544.502" style="stroke:#059669;stroke-width:1;"/><line style="stroke:#059669;stroke-width:1;stroke-dasharray:2,2;" x1="36.7524" x2="176.5386" y1="544.502" y2="544.502"/><text fill="#000000" font-family="Segoe UI" font-size="13" lengthAdjust="spacing" textLength="77.7969" x="48.7524" y="539.7598">201 Created</text></g><!--SRC=[TLDDR-8m4BtxLupeSLLewGSKYKfy90YffMX3ow7BmIH3i1firZQaQBN_VSS1GbAwv83bzyOpxptRV0YvvfglOCx3ZrYhZOnwAb4QBdpFVSpa3BFaaKg5Z6714uC59C85toJMLzAE-0gX4c2i45w7bM8v_jwW317-CA1VHskL7bfTtJtStpzassEkhGZ5calRLJf2VQ3KlUPzftj6-Jgqr_Hl_MP6Un8BV18IIyTqwZVTHZt3k-gp1FdNJV_gEeVExF1zmZDuf6pvrB3HcDyKi6-ilF4Qx2zZLjW4OVmIJA0cbHKB4N8hb3I_P80o0Wx5NSRM9wrGwIK2fQq0Dx1Vbk7EU0W3RZ7bkumpcC95l-jrACGIpsp3orBlZ1riGtX_hwr4g9L1lHKXcjePjJQRvIQN3dNJ3xI8WAROdpSWtNVkAnCdgKY4occJwVSqNsYSSuEaL6qYU4PZU4ntBoloUyzvLSGjpuYLyG1-m1jFFd2llzybKi-xzNgCaGW4jKNjT59Gf3GNoTVYN6XrQLV9HMrK4cz8P747tWIc82G4AOzZElnrE9inbwFhnzW-9RXyT5cqlekTyT2ABOMMfNLu1xIa4XT82-WQ4QZTsp7sn7RWaRuNfqMyjA0MXphoGKJyL0fp5UqOQxUXVpIitMRCaQaNMTM2uIZmVaxeR_82rMhrrAnW92qlyzbw6WcEQCQKHLYWPtqwPYT3yBRaW2dqUdGtemLzJ8IB0rTS93aqcHQWu3d80PTu2x8dijwOvPTNah6EBjUlhe-J5QTokJjZYNQ8vR_KmPJz0m00]--></g></svg>