<svg xmlns="http://www.w3.org/2000/svg" xmlns:xlink="http://www.w3.org/1999/xlink" contentStyleType="text/css" data-diagram-type="SEQUENCE" height="603px" preserveAspectRatio="none" style="width:782px;height:603px;background:#FEFEFE;" version="1.1" viewBox="0 0 782 603" width="782px" zoomAndPan="magnify"><title>POST /trails/{trail_id}/closures</title><defs/><g><rect fill="#FEFEFE" height="603" style="stroke:none;stroke-width:1;" width="782" x="0" y="0"/><text fill="#000000" font-family="Segoe UI" font-size="14" font-weight="bold" lengthAdjust="spacing" textLength="224.54" x="274.9817" y="28.5352">POST /trails/{trail_id}/closures</text><text fill="#000000" font-family="Segoe UI" font-size="14" font-weight="bold" lengthAdjust="spacing" textLength="150.7188" x="311.8923" y="45.0234">Create a trail closure</text><g><title>API Gateway</title><rect fill="#059669" height="319.1055" style="stroke:#A23B72;stroke-width:1;" width="10" x="243.3848" y="188.0859"/></g><g><title>svc-trail-management</title><rect fill="#059669" height="260.4844" style="stroke:#A23B72;stroke-width:1;" width="10" x="385.2192" y="217.3965"/></g><g><title>PostGIS</title><rect fill="#FCE4EC" height="29.3105" style="stroke:#A23B72;stroke-width:1;" width="10" x="591.6235" y="325.3281"/></g><g><title>PostGIS</title><rect fill="#FCE4EC" height="29.3105" style="stroke:#A23B72;stroke-width:1;" width="10" x="591.6235" y="419.2598"/></g><g><title>Client</title><rect fill="#000000" fill-opacity="0.00000" height="403.7266" width="8" x="27.7524" y="121.4648"/><line style="stroke:#A23B72;stroke-width:0.5;stroke-dasharray:5,5;" x1="31" x2="31" y1="121.4648" y2="525.1914"/></g><g><title>API Gateway</title><rect fill="#000000" fill-opacity="0.00000" height="403.7266" width="8" x="244.3848" y="121.4648"/><line style="stroke:#A23B72;stroke-width:0.5;stroke-dasharray:5,5;" x1="248.0957" x2="248.0957" y1="121.4648" y2="525.1914"/></g><g><title>svc-trail-management</title><rect fill="#000000" fill-opacity="0.00000" height="403.7266" width="8" x="386.2192" y="121.4648"/><line style="stroke:#A23B72;stroke-width:0.5;stroke-dasharray:5,5;" x1="389.6738" x2="389.6738" y1="121.4648" y2="525.1914"/></g><g><title>PostGIS</title><rect fill="#000000" fill-opacity="0.00000" height="403.7266" width="8" x="592.6235" y="121.4648"/><line style="stroke:#A23B72;stroke-width:0.5;stroke-dasharray:5,5;" x1="596.4229" x2="596.4229" y1="121.4648" y2="525.1914"/></g><g class="participant participant-head" data-participant="Client"><rect fill="#E8F4F8" height="30.4883" rx="2.5" ry="2.5" style="stroke:#2E86AB;stroke-width:0.5;" width="53.5049" x="5" y="89.9766"/><text fill="#000000" font-family="Segoe UI" font-size="14" lengthAdjust="spacing" textLength="39.5049" x="12" y="110.5117">Client</text></g><g class="participant participant-tail" data-participant="Client"><rect fill="#E8F4F8" height="30.4883" rx="2.5" ry="2.5" style="stroke:#2E86AB;stroke-width:0.5;" width="53.5049" x="5" y="524.1914"/><text fill="#000000" font-family="Segoe UI" font-size="14" lengthAdjust="spacing" textLength="39.5049" x="12" y="544.7266">Client</text></g><g class="participant participant-head" data-participant="GW"><rect fill="#DBEAFE" height="30.4883" rx="2.5" ry="2.5" style="stroke:#2E86AB;stroke-width:0.5;" width="96.5781" x="200.0957" y="89.9766"/><text fill="#000000" font-family="Segoe UI" font-size="14" lengthAdjust="spacing" textLength="82.5781" x="207.0957" y="110.5117">API Gateway</text></g><g class="participant participant-tail" data-participant="GW"><rect fill="#DBEAFE" height="30.4883" rx="2.5" ry="2.5" style="stroke:#2E86AB;stroke-width:0.5;" width="96.5781" x="200.0957" y="524.1914"/><text fill="#000000" font-family="Segoe UI" font-size="14" lengthAdjust="spacing" textLength="82.5781" x="207.0957" y="544.7266">API Gateway</text></g><g class="participant participant-head" data-participant="Svc"><a href="/microservices/svc-trail-management/" target="_top" title="/microservices/svc-trail-management/" xlink:actuate="onRequest" xlink:href="/microservices/svc-trail-management/" xlink:show="new" xlink:title="/microservices/svc-trail-management/" xlink:type="simple"><rect fill="#E8F4F8" height="30.4883" rx="2.5" ry="2.5" style="stroke:#2E86AB;stroke-width:0.5;" width="167.0908" x="306.6738" y="89.9766"/><text fill="#000000" font-family="Segoe UI" font-size="14" lengthAdjust="spacing" textLength="153.0908" x="313.6738" y="110.5117">svc-trail-management</text></a></g><g class="participant participant-tail" data-participant="Svc"><a href="/microservices/svc-trail-management/" target="_top" title="/microservices/svc-trail-management/" xlink:actuate="onRequest" xlink:href="/microservices/svc-trail-management/" xlink:show="new" xlink:title="/microservices/svc-trail-management/" xlink:type="simple"><rect fill="#E8F4F8" height="30.4883" rx="2.5" ry="2.5" style="stroke:#2E86AB;stroke-width:0.5;" width="167.0908" x="306.6738" y="524.1914"/><text fill="#000000" font-family="Segoe UI" font-size="14" lengthAdjust="spacing" textLength="153.0908" x="313.6738" y="544.7266">svc-trail-management</text></a></g><g class="participant participant-head" data-participant="DB"><text fill="#000000" font-family="Segoe UI" font-size="14" lengthAdjust="spacing" textLength="50.4014" x="568.4229" y="118.5117">PostGIS</text><path d="M578.6235,68.9766 C578.6235,58.9766 596.6235,58.9766 596.6235,58.9766 C596.6235,58.9766 614.6235,58.9766 614.6235,68.9766 L614.6235,94.9766 C614.6235,104.9766 596.6235,104.9766 596.6235,104.9766 C596.6235,104.9766 578.6235,104.9766 578.6235,94.9766 L578.6235,68.9766" fill="#FCE4EC" style="stroke:#181818;stroke-width:0.5;"/><path d="M578.6235,68.9766 C578.6235,78.9766 596.6235,78.9766 596.6235,78.9766 C596.6235,78.9766 614.6235,78.9766 614.6235,68.9766" fill="none" style="stroke:#181818;stroke-width:0.5;"/></g><g class="participant participant-tail" data-participant="DB"><text fill="#000000" font-family="Segoe UI" font-size="14" lengthAdjust="spacing" textLength="50.4014" x="568.4229" y="537.7266">PostGIS</text><path d="M578.6235,550.6797 C578.6235,540.6797 596.6235,540.6797 596.6235,540.6797 C596.6235,540.6797 614.6235,540.6797 614.6235,550.6797 L614.6235,576.6797 C614.6235,586.6797 596.6235,586.6797 596.6235,586.6797 C596.6235,586.6797 578.6235,586.6797 578.6235,576.6797 L578.6235,550.6797" fill="#FCE4EC" style="stroke:#181818;stroke-width:0.5;"/><path d="M578.6235,550.6797 C578.6235,560.6797 596.6235,560.6797 596.6235,560.6797 C596.6235,560.6797 614.6235,560.6797 614.6235,550.6797" fill="none" style="stroke:#181818;stroke-width:0.5;"/></g><g><title>API Gateway</title><rect fill="#059669" height="319.1055" style="stroke:#A23B72;stroke-width:1;" width="10" x="243.3848" y="188.0859"/></g><g><title>svc-trail-management</title><rect fill="#059669" height="260.4844" style="stroke:#A23B72;stroke-width:1;" width="10" x="385.2192" y="217.3965"/></g><g><title>PostGIS</title><rect fill="#FCE4EC" height="29.3105" style="stroke:#A23B72;stroke-width:1;" width="10" x="591.6235" y="325.3281"/></g><g><title>PostGIS</title><rect fill="#FCE4EC" height="29.3105" style="stroke:#A23B72;stroke-width:1;" width="10" x="591.6235" y="419.2598"/></g><path d="M320,136.4648 L320,161.4648 L460,161.4648 L460,146.4648 L450,136.4648 L320,136.4648" fill="#FEFFDD" style="stroke:#181818;stroke-width:0.5;"/><path d="M450,136.4648 L450,146.4648 L460,146.4648 L450,136.4648" fill="#FEFFDD" style="stroke:#181818;stroke-width:0.5;"/><a href="/services/api/svc-trail-management.html#/Closures/createTrailClosure" target="_top" title="/services/api/svc-trail-management.html#/Closures/createTrailClosure" xlink:actuate="onRequest" xlink:href="/services/api/svc-trail-management.html#/Closures/createTrailClosure" xlink:show="new" xlink:title="/services/api/svc-trail-management.html#/Closures/createTrailClosure" xlink:type="simple"><text fill="#0000FF" font-family="Segoe UI" font-size="13" lengthAdjust="spacing" text-decoration="underline" textLength="119.4058" x="326" y="154.0332">View in Swagger UI</text></a><g class="message" data-participant-1="Client" data-participant-2="GW"><polygon fill="#059669" points="231.3848,184.0859,241.3848,188.0859,231.3848,192.0859,235.3848,188.0859" style="stroke:#059669;stroke-width:1;"/><line style="stroke:#059669;stroke-width:1;" x1="31.7524" x2="237.3848" y1="188.0859" y2="188.0859"/><text fill="#000000" font-family="Segoe UI" font-size="13" lengthAdjust="spacing" textLength="192.6323" x="38.7524" y="183.3438">POST /trails/{trail_id}/closures</text></g><g class="message" data-participant-1="GW" data-participant-2="Svc"><polygon fill="#059669" points="373.2192,213.3965,383.2192,217.3965,373.2192,221.3965,377.2192,217.3965" style="stroke:#059669;stroke-width:1;"/><line style="stroke:#059669;stroke-width:1;" x1="253.3848" x2="379.2192" y1="217.3965" y2="217.3965"/><text fill="#000000" font-family="Segoe UI" font-size="13" lengthAdjust="spacing" textLength="85.1348" x="260.3848" y="212.6543">route request</text></g><path d="M400,230.3965 L400,255.3965 L558,255.3965 L558,240.3965 L548,230.3965 L400,230.3965" fill="#FEFFDD" style="stroke:#181818;stroke-width:0.5;"/><path d="M548,230.3965 L548,240.3965 L558,240.3965 L548,230.3965" fill="#FEFFDD" style="stroke:#181818;stroke-width:0.5;"/><text fill="#000000" font-family="Segoe UI" font-size="13" lengthAdjust="spacing" textLength="137.5728" x="406" y="247.9648">Validate request body</text><rect fill="#EEEEEE" height="3" style="stroke:#EEEEEE;stroke-width:1;" width="775.5034" x="0" y="281.3623"/><line style="stroke:#000000;stroke-width:1;" x1="0" x2="775.5034" y1="281.3623" y2="281.3623"/><line style="stroke:#000000;stroke-width:1;" x1="0" x2="775.5034" y1="284.3623" y2="284.3623"/><rect fill="#EEEEEE" height="23.3105" style="stroke:#000000;stroke-width:2;" width="80.3711" x="347.5662" y="270.707"/><text fill="#000000" font-family="Segoe UI" font-size="13" font-weight="bold" lengthAdjust="spacing" textLength="62.0864" x="353.5662" y="287.2754">Database</text><g class="message" data-participant-1="Svc" data-participant-2="DB"><polygon fill="#059669" points="579.6235,321.3281,589.6235,325.3281,579.6235,329.3281,583.6235,325.3281" style="stroke:#059669;stroke-width:1;"/><line style="stroke:#059669;stroke-width:1;" x1="395.2192" x2="585.6235" y1="325.3281" y2="325.3281"/><text fill="#000000" font-family="Segoe UI" font-size="13" lengthAdjust="spacing" textLength="177.4043" x="402.2192" y="320.5859">SELECT parent WHERE id = ?</text></g><g class="message" data-participant-1="DB" data-participant-2="Svc"><polygon fill="#059669" points="406.2192,350.6387,396.2192,354.6387,406.2192,358.6387,402.2192,354.6387" style="stroke:#059669;stroke-width:1;"/><line style="stroke:#059669;stroke-width:1;stroke-dasharray:2,2;" x1="400.2192" x2="595.6235" y1="354.6387" y2="354.6387"/><text fill="#000000" font-family="Segoe UI" font-size="13" lengthAdjust="spacing" textLength="67.2915" x="412.2192" y="349.8965">Parent row</text></g><path d="M601,367.6387 L601,392.6387 L770,392.6387 L770,377.6387 L760,367.6387 L601,367.6387" fill="#FEFFDD" style="stroke:#181818;stroke-width:0.5;"/><path d="M760,367.6387 L760,377.6387 L770,377.6387 L760,367.6387" fill="#FEFFDD" style="stroke:#181818;stroke-width:0.5;"/><text fill="#000000" font-family="Segoe UI" font-size="13" lengthAdjust="spacing" textLength="148.5034" x="607" y="385.207">404 if parent not found</text><g class="message" data-participant-1="Svc" data-participant-2="DB"><polygon fill="#059669" points="579.6235,415.2598,589.6235,419.2598,579.6235,423.2598,583.6235,419.2598" style="stroke:#059669;stroke-width:1;"/><line style="stroke:#059669;stroke-width:1;" x1="395.2192" x2="585.6235" y1="419.2598" y2="419.2598"/><text fill="#000000" font-family="Segoe UI" font-size="13" lengthAdjust="spacing" textLength="96.0718" x="402.2192" y="414.5176">INSERT INTO ...</text></g><g class="message" data-participant-1="DB" data-participant-2="Svc"><polygon fill="#059669" points="406.2192,444.5703,396.2192,448.5703,406.2192,452.5703,402.2192,448.5703" style="stroke:#059669;stroke-width:1;"/><line style="stroke:#059669;stroke-width:1;stroke-dasharray:2,2;" x1="400.2192" x2="595.6235" y1="448.5703" y2="448.5703"/><text fill="#000000" font-family="Segoe UI" font-size="13" lengthAdjust="spacing" textLength="76.4575" x="412.2192" y="443.8281">Created row</text></g><g class="message" data-participant-1="Svc" data-participant-2="GW"><polygon fill="#059669" points="264.3848,473.8809,254.3848,477.8809,264.3848,481.8809,260.3848,477.8809" style="stroke:#059669;stroke-width:1;"/><line style="stroke:#059669;stroke-width:1;stroke-dasharray:2,2;" x1="258.3848" x2="389.2192" y1="477.8809" y2="477.8809"/><text fill="#000000" font-family="Segoe UI" font-size="13" lengthAdjust="spacing" textLength="77.7969" x="270.3848" y="473.1387">201 Created</text></g><g class="message" data-participant-1="GW" data-participant-2="Client"><polygon fill="#059669" points="42.7524,503.1914,32.7524,507.1914,42.7524,511.1914,38.7524,507.1914" style="stroke:#059669;stroke-width:1;"/><line style="stroke:#059669;stroke-width:1;stroke-dasharray:2,2;" x1="36.7524" x2="247.3848" y1="507.1914" y2="507.1914"/><text fill="#000000" font-family="Segoe UI" font-size="13" lengthAdjust="spacing" textLength="77.7969" x="48.7524" y="502.4492">201 Created</text></g><!--SRC=[XLDTR-8m47pthrZ1CuIl0uh4dI0u71AYgA7beOTE9Z71Qc9pje6hglxtiqC2eULKU8YLcPrPpsxK2-Cx8aa2QnAyH5BiUUYAM4WeUzZ-aJepr9Q4uiXu11iIArf0GheX-rXxWkiPIIYKV1e92e-JKh6S_jbJ7b1uGs1-0od5CREgVRjhj-_IrtCYDGlOZd0z53AaCgCqSBSz67wYV6mQTxsMrqrfKxQXKyRfbSoWqHns6Ya-57-l8A_UzMhrC_Gf3iypU0hFXBvM3JgTTRE0tOYoYJle7I7DT4nXVkylmD6Ii5WvR-dpDmlVdI0MQY-f-iLTIOccG2058GCGsbtk3YKtPfJh4X05f-CrF9XFO6nKZkGrvOoNK1uDyS0CzOgd3a4bjQaaX9E89hceVmZW-Tb9M225elB00ggSMsndjJf77n9DraIP9PWBfSSJFvKQ3KqABcvX5o5k8W9neD8QcD2CnLcTxDXDX-fM9t7PSRE0d23DPs5PsJjuOlG8Z8D_955an1ydgnMYF0JhXz0f8QXyjpdqlXm18e5c1pi36rkseEPewcqiFJ3pDQ2qIwtqXMt1d7wwgMJHLeFOP7LF96OXkPJ2MeIl2FNxCCgJw_SHicJZPNBhWO-ds5s06PgzmV8dVi30GkZ3Zujl8M1ph9pRd9-ApBU6GbfWV-WjzMdLMi0skOyXmCOkyNKpavcF7nRciRY7QhNwTGUdLGvlj73IpIVIgDLpRf5dTyJcRcZP2FzB7I_HFm00]--></g></svg>