<svg xmlns="http://www.w3.org/2000/svg" xmlns:xlink="http://www.w3.org/1999/xlink" contentStyleType="text/css" data-diagram-type="SEQUENCE" height="705px" preserveAspectRatio="none" style="width:845px;height:705px;background:#FEFEFE;" version="1.1" viewBox="0 0 845 705" width="845px" zoomAndPan="magnify"><title>POST /payments/{payment_id}/refund</title><defs/><g><rect fill="#FEFEFE" height="705" style="stroke:none;stroke-width:1;" width="845" x="0" y="0"/><text fill="#000000" font-family="Segoe UI" font-size="14" font-weight="bold" lengthAdjust="spacing" textLength="277.9219" x="279.7908" y="28.5352">POST /payments/{payment_id}/refund</text><text fill="#000000" font-family="Segoe UI" font-size="14" font-weight="bold" lengthAdjust="spacing" textLength="116.2178" x="360.6428" y="45.0234">Initiate a refund</text><g><title>API Gateway</title><rect fill="#059669" height="421.0371" style="stroke:#A23B72;stroke-width:1;" width="10" x="291.9316" y="188.0859"/></g><g><title>svc-payments</title><rect fill="#059669" height="362.416" style="stroke:#A23B72;stroke-width:1;" width="10" x="406.0664" y="217.3965"/></g><g><title>Payment Gateway</title><rect fill="#DBEAFE" height="29.3105" style="stroke:#A23B72;stroke-width:1;" width="10" x="537.1514" y="325.3281"/></g><g><title>PostgreSQL</title><rect fill="#FCE4EC" height="29.3105" style="stroke:#A23B72;stroke-width:1;" width="10" x="654.9395" y="427.2598"/></g><g><title>PostgreSQL</title><rect fill="#FCE4EC" height="29.3105" style="stroke:#A23B72;stroke-width:1;" width="10" x="654.9395" y="521.1914"/></g><g><title>Client</title><rect fill="#000000" fill-opacity="0.00000" height="505.6582" width="8" x="27.7524" y="121.4648"/><line style="stroke:#A23B72;stroke-width:0.5;stroke-dasharray:5,5;" x1="31" x2="31" y1="121.4648" y2="627.123"/></g><g><title>API Gateway</title><rect fill="#000000" fill-opacity="0.00000" height="505.6582" width="8" x="292.9316" y="121.4648"/><line style="stroke:#A23B72;stroke-width:0.5;stroke-dasharray:5,5;" x1="296.6426" x2="296.6426" y1="121.4648" y2="627.123"/></g><g><title>svc-payments</title><rect fill="#000000" fill-opacity="0.00000" height="505.6582" width="8" x="407.0664" y="121.4648"/><line style="stroke:#A23B72;stroke-width:0.5;stroke-dasharray:5,5;" x1="410.3447" x2="410.3447" y1="121.4648" y2="627.123"/></g><g><title>Payment Gateway</title><rect fill="#000000" fill-opacity="0.00000" height="505.6582" width="8" x="538.1514" y="121.4648"/><line style="stroke:#A23B72;stroke-width:0.5;stroke-dasharray:5,5;" x1="541.7881" x2="541.7881" y1="121.4648" y2="627.123"/></g><g><title>PostgreSQL</title><rect fill="#000000" fill-opacity="0.00000" height="505.6582" width="8" x="655.9395" y="121.4648"/><line style="stroke:#A23B72;stroke-width:0.5;stroke-dasharray:5,5;" x1="659.5146" x2="659.5146" y1="121.4648" y2="627.123"/></g><g class="participant participant-head" data-participant="Client"><rect fill="#E8F4F8" height="30.4883" rx="2.5" ry="2.5" style="stroke:#2E86AB;stroke-width:0.5;" width="53.5049" x="5" y="89.9766"/><text fill="#000000" font-family="Segoe UI" font-size="14" lengthAdjust="spacing" textLength="39.5049" x="12" y="110.5117">Client</text></g><g class="participant participant-tail" data-participant="Client"><rect fill="#E8F4F8" height="30.4883" rx="2.5" ry="2.5" style="stroke:#2E86AB;stroke-width:0.5;" width="53.5049" x="5" y="626.123"/><text fill="#000000" font-family="Segoe UI" font-size="14" lengthAdjust="spacing" textLength="39.5049" x="12" y="646.6582">Client</text></g><g class="participant participant-head" data-participant="GW"><rect fill="#DBEAFE" height="30.4883" rx="2.5" ry="2.5" style="stroke:#2E86AB;stroke-width:0.5;" width="96.5781" x="248.6426" y="89.9766"/><text fill="#000000" font-family="Segoe UI" font-size="14" lengthAdjust="spacing" textLength="82.5781" x="255.6426" y="110.5117">API Gateway</text></g><g class="participant participant-tail" data-participant="GW"><rect fill="#DBEAFE" height="30.4883" rx="2.5" ry="2.5" style="stroke:#2E86AB;stroke-width:0.5;" width="96.5781" x="248.6426" y="626.123"/><text fill="#000000" font-family="Segoe UI" font-size="14" lengthAdjust="spacing" textLength="82.5781" x="255.6426" y="646.6582">API Gateway</text></g><g class="participant participant-head" data-participant="Svc"><a href="/microservices/svc-payments/" target="_top" title="/microservices/svc-payments/" xlink:actuate="onRequest" xlink:href="/microservices/svc-payments/" xlink:show="new" xlink:title="/microservices/svc-payments/" xlink:type="simple"><rect fill="#E8F4F8" height="30.4883" rx="2.5" ry="2.5" style="stroke:#2E86AB;stroke-width:0.5;" width="109.4434" x="356.3447" y="89.9766"/><text fill="#000000" font-family="Segoe UI" font-size="14" lengthAdjust="spacing" textLength="95.4434" x="363.3447" y="110.5117">svc-payments</text></a></g><g class="participant participant-tail" data-participant="Svc"><a href="/microservices/svc-payments/" target="_top" title="/microservices/svc-payments/" xlink:actuate="onRequest" xlink:href="/microservices/svc-payments/" xlink:show="new" xlink:title="/microservices/svc-payments/" xlink:type="simple"><rect fill="#E8F4F8" height="30.4883" rx="2.5" ry="2.5" style="stroke:#2E86AB;stroke-width:0.5;" width="109.4434" x="356.3447" y="626.123"/><text fill="#000000" font-family="Segoe UI" font-size="14" lengthAdjust="spacing" textLength="95.4434" x="363.3447" y="646.6582">svc-payments</text></a></g><g class="participant participant-head" data-participant="ExtPay"><rect fill="#F5F5F5" height="30.4883" rx="2.5" ry="2.5" style="stroke:#2E86AB;stroke-width:0.5;" width="132.7266" x="475.7881" y="89.9766"/><text fill="#000000" font-family="Segoe UI" font-size="14" lengthAdjust="spacing" textLength="118.7266" x="482.7881" y="110.5117">Payment Gateway</text></g><g class="participant participant-tail" data-participant="ExtPay"><rect fill="#F5F5F5" height="30.4883" rx="2.5" ry="2.5" style="stroke:#2E86AB;stroke-width:0.5;" width="132.7266" x="475.7881" y="626.123"/><text fill="#000000" font-family="Segoe UI" font-size="14" lengthAdjust="spacing" textLength="118.7266" x="482.7881" y="646.6582">Payment Gateway</text></g><g class="participant participant-head" data-participant="DB"><text fill="#000000" font-family="Segoe UI" font-size="14" lengthAdjust="spacing" textLength="76.8496" x="618.5146" y="118.5117">PostgreSQL</text><path d="M641.9395,68.9766 C641.9395,58.9766 659.9395,58.9766 659.9395,58.9766 C659.9395,58.9766 677.9395,58.9766 677.9395,68.9766 L677.9395,94.9766 C677.9395,104.9766 659.9395,104.9766 659.9395,104.9766 C659.9395,104.9766 641.9395,104.9766 641.9395,94.9766 L641.9395,68.9766" fill="#FCE4EC" style="stroke:#181818;stroke-width:0.5;"/><path d="M641.9395,68.9766 C641.9395,78.9766 659.9395,78.9766 659.9395,78.9766 C659.9395,78.9766 677.9395,78.9766 677.9395,68.9766" fill="none" style="stroke:#181818;stroke-width:0.5;"/></g><g class="participant participant-tail" data-participant="DB"><text fill="#000000" font-family="Segoe UI" font-size="14" lengthAdjust="spacing" textLength="76.8496" x="618.5146" y="639.6582">PostgreSQL</text><path d="M641.9395,652.6113 C641.9395,642.6113 659.9395,642.6113 659.9395,642.6113 C659.9395,642.6113 677.9395,642.6113 677.9395,652.6113 L677.9395,678.6113 C677.9395,688.6113 659.9395,688.6113 659.9395,688.6113 C659.9395,688.6113 641.9395,688.6113 641.9395,678.6113 L641.9395,652.6113" fill="#FCE4EC" style="stroke:#181818;stroke-width:0.5;"/><path d="M641.9395,652.6113 C641.9395,662.6113 659.9395,662.6113 659.9395,662.6113 C659.9395,662.6113 677.9395,662.6113 677.9395,652.6113" fill="none" style="stroke:#181818;stroke-width:0.5;"/></g><g><title>API Gateway</title><rect fill="#059669" height="421.0371" style="stroke:#A23B72;stroke-width:1;" width="10" x="291.9316" y="188.0859"/></g><g><title>svc-payments</title><rect fill="#059669" height="362.416" style="stroke:#A23B72;stroke-width:1;" width="10" x="406.0664" y="217.3965"/></g><g><title>Payment Gateway</title><rect fill="#DBEAFE" height="29.3105" style="stroke:#A23B72;stroke-width:1;" width="10" x="537.1514" y="325.3281"/></g><g><title>PostgreSQL</title><rect fill="#FCE4EC" height="29.3105" style="stroke:#A23B72;stroke-width:1;" width="10" x="654.9395" y="427.2598"/></g><g><title>PostgreSQL</title><rect fill="#FCE4EC" height="29.3105" style="stroke:#A23B72;stroke-width:1;" width="10" x="654.9395" y="521.1914"/></g><path d="M340,136.4648 L340,161.4648 L480,161.4648 L480,146.4648 L470,136.4648 L340,136.4648" fill="#FEFFDD" style="stroke:#181818;stroke-width:0.5;"/><path d="M470,136.4648 L470,146.4648 L480,146.4648 L470,136.4648" fill="#FEFFDD" style="stroke:#181818;stroke-width:0.5;"/><a href="/services/api/svc-payments.html#/Refunds/refundPayment" target="_top" title="/services/api/svc-payments.html#/Refunds/refundPayment" xlink:actuate="onRequest" xlink:href="/services/api/svc-payments.html#/Refunds/refundPayment" xlink:show="new" xlink:title="/services/api/svc-payments.html#/Refunds/refundPayment" xlink:type="simple"><text fill="#0000FF" font-family="Segoe UI" font-size="13" lengthAdjust="spacing" text-decoration="underline" textLength="119.4058" x="346" y="154.0332">View in Swagger UI</text></a><g class="message" data-participant-1="Client" data-participant-2="GW"><polygon fill="#059669" points="279.9316,184.0859,289.9316,188.0859,279.9316,192.0859,283.9316,188.0859" style="stroke:#059669;stroke-width:1;"/><line style="stroke:#059669;stroke-width:1;" x1="31.7524" x2="285.9316" y1="188.0859" y2="188.0859"/><text fill="#000000" font-family="Segoe UI" font-size="13" lengthAdjust="spacing" textLength="241.1792" x="38.7524" y="183.3438">POST /payments/{payment_id}/refund</text></g><g class="message" data-participant-1="GW" data-participant-2="Svc"><polygon fill="#059669" points="394.0664,213.3965,404.0664,217.3965,394.0664,221.3965,398.0664,217.3965" style="stroke:#059669;stroke-width:1;"/><line style="stroke:#059669;stroke-width:1;" x1="301.9316" x2="400.0664" y1="217.3965" y2="217.3965"/><text fill="#000000" font-family="Segoe UI" font-size="13" lengthAdjust="spacing" textLength="85.1348" x="308.9316" y="212.6543">route request</text></g><path d="M421,230.3965 L421,255.3965 L579,255.3965 L579,240.3965 L569,230.3965 L421,230.3965" fill="#FEFFDD" style="stroke:#181818;stroke-width:0.5;"/><path d="M569,230.3965 L569,240.3965 L579,240.3965 L569,230.3965" fill="#FEFFDD" style="stroke:#181818;stroke-width:0.5;"/><text fill="#000000" font-family="Segoe UI" font-size="13" lengthAdjust="spacing" textLength="137.5728" x="427" y="247.9648">Validate request body</text><rect fill="#EEEEEE" height="3" style="stroke:#EEEEEE;stroke-width:1;" width="838.5034" x="0" y="281.3623"/><line style="stroke:#000000;stroke-width:1;" x1="0" x2="838.5034" y1="281.3623" y2="281.3623"/><line style="stroke:#000000;stroke-width:1;" x1="0" x2="838.5034" y1="284.3623" y2="284.3623"/><rect fill="#EEEEEE" height="23.3105" style="stroke:#000000;stroke-width:2;" width="190.6743" x="323.9146" y="270.707"/><text fill="#000000" font-family="Segoe UI" font-size="13" font-weight="bold" lengthAdjust="spacing" textLength="172.3896" x="329.9146" y="287.2754">Cross-Service Integration</text><g class="message" data-participant-1="Svc" data-participant-2="ExtPay"><polygon fill="#059669" points="525.1514,321.3281,535.1514,325.3281,525.1514,329.3281,529.1514,325.3281" style="stroke:#059669;stroke-width:1;"/><line style="stroke:#059669;stroke-width:1;" x1="416.0664" x2="531.1514" y1="325.3281" y2="325.3281"/><text fill="#000000" font-family="Segoe UI" font-size="13" lengthAdjust="spacing" textLength="93.4185" x="423.0664" y="320.5859">Process refund</text></g><g class="message" data-participant-1="ExtPay" data-participant-2="Svc"><polygon fill="#059669" points="427.0664,350.6387,417.0664,354.6387,427.0664,358.6387,423.0664,354.6387" style="stroke:#059669;stroke-width:1;"/><line style="stroke:#059669;stroke-width:1;stroke-dasharray:2,2;" x1="421.0664" x2="541.1514" y1="354.6387" y2="354.6387"/><text fill="#000000" font-family="Segoe UI" font-size="13" lengthAdjust="spacing" textLength="18.5859" x="433.0664" y="349.8965">OK</text></g><rect fill="#EEEEEE" height="3" style="stroke:#EEEEEE;stroke-width:1;" width="838.5034" x="0" y="383.2939"/><line style="stroke:#000000;stroke-width:1;" x1="0" x2="838.5034" y1="383.2939" y2="383.2939"/><line style="stroke:#000000;stroke-width:1;" x1="0" x2="838.5034" y1="386.2939" y2="386.2939"/><rect fill="#EEEEEE" height="23.3105" style="stroke:#000000;stroke-width:2;" width="80.3711" x="379.0662" y="372.6387"/><text fill="#000000" font-family="Segoe UI" font-size="13" font-weight="bold" lengthAdjust="spacing" textLength="62.0864" x="385.0662" y="389.207">Database</text><g class="message" data-participant-1="Svc" data-participant-2="DB"><polygon fill="#059669" points="642.9395,423.2598,652.9395,427.2598,642.9395,431.2598,646.9395,427.2598" style="stroke:#059669;stroke-width:1;"/><line style="stroke:#059669;stroke-width:1;" x1="416.0664" x2="648.9395" y1="427.2598" y2="427.2598"/><text fill="#000000" font-family="Segoe UI" font-size="13" lengthAdjust="spacing" textLength="177.4043" x="423.0664" y="422.5176">SELECT parent WHERE id = ?</text></g><g class="message" data-participant-1="DB" data-participant-2="Svc"><polygon fill="#059669" points="427.0664,452.5703,417.0664,456.5703,427.0664,460.5703,423.0664,456.5703" style="stroke:#059669;stroke-width:1;"/><line style="stroke:#059669;stroke-width:1;stroke-dasharray:2,2;" x1="421.0664" x2="658.9395" y1="456.5703" y2="456.5703"/><text fill="#000000" font-family="Segoe UI" font-size="13" lengthAdjust="spacing" textLength="67.2915" x="433.0664" y="451.8281">Parent row</text></g><path d="M664,469.5703 L664,494.5703 L833,494.5703 L833,479.5703 L823,469.5703 L664,469.5703" fill="#FEFFDD" style="stroke:#181818;stroke-width:0.5;"/><path d="M823,469.5703 L823,479.5703 L833,479.5703 L823,469.5703" fill="#FEFFDD" style="stroke:#181818;stroke-width:0.5;"/><text fill="#000000" font-family="Segoe UI" font-size="13" lengthAdjust="spacing" textLength="148.5034" x="670" y="487.1387">404 if parent not found</text><g class="message" data-participant-1="Svc" data-participant-2="DB"><polygon fill="#059669" points="642.9395,517.1914,652.9395,521.1914,642.9395,525.1914,646.9395,521.1914" style="stroke:#059669;stroke-width:1;"/><line style="stroke:#059669;stroke-width:1;" x1="416.0664" x2="648.9395" y1="521.1914" y2="521.1914"/><text fill="#000000" font-family="Segoe UI" font-size="13" lengthAdjust="spacing" textLength="96.0718" x="423.0664" y="516.4492">INSERT INTO ...</text></g><g class="message" data-participant-1="DB" data-participant-2="Svc"><polygon fill="#059669" points="427.0664,546.502,417.0664,550.502,427.0664,554.502,423.0664,550.502" style="stroke:#059669;stroke-width:1;"/><line style="stroke:#059669;stroke-width:1;stroke-dasharray:2,2;" x1="421.0664" x2="658.9395" y1="550.502" y2="550.502"/><text fill="#000000" font-family="Segoe UI" font-size="13" lengthAdjust="spacing" textLength="76.4575" x="433.0664" y="545.7598">Created row</text></g><g class="message" data-participant-1="Svc" data-participant-2="GW"><polygon fill="#059669" points="312.9316,575.8125,302.9316,579.8125,312.9316,583.8125,308.9316,579.8125" style="stroke:#059669;stroke-width:1;"/><line style="stroke:#059669;stroke-width:1;stroke-dasharray:2,2;" x1="306.9316" x2="410.0664" y1="579.8125" y2="579.8125"/><text fill="#000000" font-family="Segoe UI" font-size="13" lengthAdjust="spacing" textLength="77.7969" x="318.9316" y="575.0703">201 Created</text></g><g class="message" data-participant-1="GW" data-participant-2="Client"><polygon fill="#059669" points="42.7524,605.123,32.7524,609.123,42.7524,613.123,38.7524,609.123" style="stroke:#059669;stroke-width:1;"/><line style="stroke:#059669;stroke-width:1;stroke-dasharray:2,2;" x1="36.7524" x2="295.9316" y1="609.123" y2="609.123"/><text fill="#000000" font-family="Segoe UI" font-size="13" lengthAdjust="spacing" textLength="77.7969" x="48.7524" y="604.3809">201 Created</text></g><!--SRC=[ZLDTJzim57tthxWgp_sW55gGkgb94rQjWeuKU63Lv2PEi4ZjpZOj2F7VTvsFDYbCM_DGn_TSd-DpRlGJ5skgw0gMD7nAb7mMaIjJgU38z-n3z0wX7saajrma4DDKiqebOZ5zJeqlXRcYAmQDW2MImUsaKMrdlv-P21cy4S3VI2cvBQWwf-TdP-VPzemgmqE-fi8uKaLC5P2kDpWREHyWXwAzWT_p1nbiocCsvOBLZXbrJvn-DwixygLMyey7VkTuL_fWX-zZFIjVILC_DUptboULsYTMddXzyaw8uIPbCBiEvj1UqzSL4qQttuhLBnwzjnMBiV6dc0XkE3KCAEHRXApt5uU6ct9iQG3La2_hvT5i0fVOlgMl6URo7ex6ZZV2H6iulGcRfP0C66n2U7XehtYef6PgmqEcsrLKUx7O-LmxQfO3QhJUYy5jTE3KFYIYXYwfnWcPIMqInO8VqmmtTX3ZUZtF9KIWXI0tJ5ajQ2ggsGcXQruJqteqg_IeVPCvf0lpIY5td6s12mYsD4dmkDl9Oa6OYC0o49BR1iqlrfoB_mY5qD3mZSt4kbaCBIxn1ElQ1M3cM5HsqBNPessnXEUtKpnvD23Zek-EfZoY-rPOokYLaE4GN0n1DuFy-Z0HXYMA6Yu538U4s6uaBqp6AoY99caub5kcK0n0yThSwRx-JY9sWCxensLU5JQCwW82R-gvSy3yhONttxmR3tW4G_YwPwraYiizsonlmi-_oZfs3gp9U7gT7l2uv440n3Bx5gfY9bU1TpF7l_arj5gjVojm5SDoz8c4_Dno9BgTun9RnTcnjB4Zh9YXlq8lxyaV]--></g></svg>