<svg xmlns="http://www.w3.org/2000/svg" xmlns:xlink="http://www.w3.org/1999/xlink" contentStyleType="text/css" data-diagram-type="SEQUENCE" height="616px" preserveAspectRatio="none" style="width:556px;height:616px;background:#FEFEFE;" version="1.1" viewBox="0 0 556 616" width="556px" zoomAndPan="magnify"><title>PATCH /trails/{trail_id}</title><defs/><g><rect fill="#FEFEFE" height="616" style="stroke:none;stroke-width:1;" width="556" x="0" y="0"/><text fill="#000000" font-family="Segoe UI" font-size="14" font-weight="bold" lengthAdjust="spacing" textLength="167.7676" x="190.1699" y="41.3125">PATCH /trails/{trail_id}</text><text fill="#000000" font-family="Segoe UI" font-size="14" font-weight="bold" lengthAdjust="spacing" textLength="137.9766" x="205.0654" y="57.8008">Update trail details</text><g><title>API Gateway</title><rect fill="#7C3AED" height="319.1055" style="stroke:#A23B72;stroke-width:1;" width="10" x="194.6982" y="200.8633"/></g><g><title>svc-trail-management</title><rect fill="#7C3AED" height="260.4844" style="stroke:#A23B72;stroke-width:1;" width="10" x="336.5327" y="230.1738"/></g><g><title>PostGIS</title><rect fill="#FCE4EC" height="29.3105" style="stroke:#A23B72;stroke-width:1;" width="10" x="510.9067" y="338.1055"/></g><g><title>PostGIS</title><rect fill="#FCE4EC" height="29.3105" style="stroke:#A23B72;stroke-width:1;" width="10" x="510.9067" y="432.0371"/></g><g><title>Client</title><rect fill="#000000" fill-opacity="0.00000" height="403.7266" width="8" x="27.7524" y="134.2422"/><line style="stroke:#A23B72;stroke-width:0.5;stroke-dasharray:5,5;" x1="31" x2="31" y1="134.2422" y2="537.9688"/></g><g><title>API Gateway</title><rect fill="#000000" fill-opacity="0.00000" height="403.7266" width="8" x="195.6982" y="134.2422"/><line style="stroke:#A23B72;stroke-width:0.5;stroke-dasharray:5,5;" x1="199.4092" x2="199.4092" y1="134.2422" y2="537.9688"/></g><g><title>svc-trail-management</title><rect fill="#000000" fill-opacity="0.00000" height="403.7266" width="8" x="337.5327" y="134.2422"/><line style="stroke:#A23B72;stroke-width:0.5;stroke-dasharray:5,5;" x1="340.9873" x2="340.9873" y1="134.2422" y2="537.9688"/></g><g><title>PostGIS</title><rect fill="#000000" fill-opacity="0.00000" height="403.7266" width="8" x="511.9067" y="134.2422"/><line style="stroke:#A23B72;stroke-width:0.5;stroke-dasharray:5,5;" x1="515.7061" x2="515.7061" y1="134.2422" y2="537.9688"/></g><g class="participant participant-head" data-participant="Client"><a href="/applications/" target="_top" title="/applications/" xlink:actuate="onRequest" xlink:href="/applications/" xlink:show="new" xlink:title="/applications/" xlink:type="simple"><rect fill="#E8F4F8" height="30.4883" rx="2.5" ry="2.5" style="stroke:#2E86AB;stroke-width:0.5;" width="53.5049" x="5" y="102.7539"/><text fill="#000000" font-family="Segoe UI" font-size="14" lengthAdjust="spacing" textLength="39.5049" x="12" y="123.2891">Client</text></a></g><g class="participant participant-tail" data-participant="Client"><a href="/applications/" target="_top" title="/applications/" xlink:actuate="onRequest" xlink:href="/applications/" xlink:show="new" xlink:title="/applications/" xlink:type="simple"><rect fill="#E8F4F8" height="30.4883" rx="2.5" ry="2.5" style="stroke:#2E86AB;stroke-width:0.5;" width="53.5049" x="5" y="536.9688"/><text fill="#000000" font-family="Segoe UI" font-size="14" lengthAdjust="spacing" textLength="39.5049" x="12" y="557.5039">Client</text></a></g><g class="participant participant-head" data-participant="GW"><rect fill="#DBEAFE" height="30.4883" rx="2.5" ry="2.5" style="stroke:#2E86AB;stroke-width:0.5;" width="96.5781" x="151.4092" y="102.7539"/><text fill="#000000" font-family="Segoe UI" font-size="14" lengthAdjust="spacing" textLength="82.5781" x="158.4092" y="123.2891">API Gateway</text></g><g class="participant participant-tail" data-participant="GW"><rect fill="#DBEAFE" height="30.4883" rx="2.5" ry="2.5" style="stroke:#2E86AB;stroke-width:0.5;" width="96.5781" x="151.4092" y="536.9688"/><text fill="#000000" font-family="Segoe UI" font-size="14" lengthAdjust="spacing" textLength="82.5781" x="158.4092" y="557.5039">API Gateway</text></g><g class="participant participant-head" data-participant="Svc"><a href="/microservices/svc-trail-management/" target="_top" title="/microservices/svc-trail-management/" xlink:actuate="onRequest" xlink:href="/microservices/svc-trail-management/" xlink:show="new" xlink:title="/microservices/svc-trail-management/" xlink:type="simple"><rect fill="#E8F4F8" height="30.4883" rx="2.5" ry="2.5" style="stroke:#2E86AB;stroke-width:0.5;" width="167.0908" x="257.9873" y="102.7539"/><text fill="#000000" font-family="Segoe UI" font-size="14" lengthAdjust="spacing" textLength="153.0908" x="264.9873" y="123.2891">svc-trail-management</text></a></g><g class="participant participant-tail" data-participant="Svc"><a href="/microservices/svc-trail-management/" target="_top" title="/microservices/svc-trail-management/" xlink:actuate="onRequest" xlink:href="/microservices/svc-trail-management/" xlink:show="new" xlink:title="/microservices/svc-trail-management/" xlink:type="simple"><rect fill="#E8F4F8" height="30.4883" rx="2.5" ry="2.5" style="stroke:#2E86AB;stroke-width:0.5;" width="167.0908" x="257.9873" y="536.9688"/><text fill="#000000" font-family="Segoe UI" font-size="14" lengthAdjust="spacing" textLength="153.0908" x="264.9873" y="557.5039">svc-trail-management</text></a></g><g class="participant participant-head" data-participant="DB"><text fill="#000000" font-family="Segoe UI" font-size="14" lengthAdjust="spacing" textLength="50.4014" x="487.7061" y="131.2891">PostGIS</text><path d="M497.9067,81.7539 C497.9067,71.7539 515.9067,71.7539 515.9067,71.7539 C515.9067,71.7539 533.9067,71.7539 533.9067,81.7539 L533.9067,107.7539 C533.9067,117.7539 515.9067,117.7539 515.9067,117.7539 C515.9067,117.7539 497.9067,117.7539 497.9067,107.7539 L497.9067,81.7539" fill="#FCE4EC" style="stroke:#181818;stroke-width:0.5;"/><path d="M497.9067,81.7539 C497.9067,91.7539 515.9067,91.7539 515.9067,91.7539 C515.9067,91.7539 533.9067,91.7539 533.9067,81.7539" fill="none" style="stroke:#181818;stroke-width:0.5;"/></g><g class="participant participant-tail" data-participant="DB"><text fill="#000000" font-family="Segoe UI" font-size="14" lengthAdjust="spacing" textLength="50.4014" x="487.7061" y="550.5039">PostGIS</text><path d="M497.9067,563.457 C497.9067,553.457 515.9067,553.457 515.9067,553.457 C515.9067,553.457 533.9067,553.457 533.9067,563.457 L533.9067,589.457 C533.9067,599.457 515.9067,599.457 515.9067,599.457 C515.9067,599.457 497.9067,599.457 497.9067,589.457 L497.9067,563.457" fill="#FCE4EC" style="stroke:#181818;stroke-width:0.5;"/><path d="M497.9067,563.457 C497.9067,573.457 515.9067,573.457 515.9067,573.457 C515.9067,573.457 533.9067,573.457 533.9067,563.457" fill="none" style="stroke:#181818;stroke-width:0.5;"/></g><g><title>API Gateway</title><rect fill="#7C3AED" height="319.1055" style="stroke:#A23B72;stroke-width:1;" width="10" x="194.6982" y="200.8633"/></g><g><title>svc-trail-management</title><rect fill="#7C3AED" height="260.4844" style="stroke:#A23B72;stroke-width:1;" width="10" x="336.5327" y="230.1738"/></g><g><title>PostGIS</title><rect fill="#FCE4EC" height="29.3105" style="stroke:#A23B72;stroke-width:1;" width="10" x="510.9067" y="338.1055"/></g><g><title>PostGIS</title><rect fill="#FCE4EC" height="29.3105" style="stroke:#A23B72;stroke-width:1;" width="10" x="510.9067" y="432.0371"/></g><path d="M271,149.2422 L271,174.2422 L411,174.2422 L411,159.2422 L401,149.2422 L271,149.2422" fill="#FEFFDD" style="stroke:#181818;stroke-width:0.5;"/><path d="M401,149.2422 L401,159.2422 L411,159.2422 L401,149.2422" fill="#FEFFDD" style="stroke:#181818;stroke-width:0.5;"/><a href="/services/api/svc-trail-management.html#/Trails/updateTrail" target="_top" title="/services/api/svc-trail-management.html#/Trails/updateTrail" xlink:actuate="onRequest" xlink:href="/services/api/svc-trail-management.html#/Trails/updateTrail" xlink:show="new" xlink:title="/services/api/svc-trail-management.html#/Trails/updateTrail" xlink:type="simple"><text fill="#0000FF" font-family="Segoe UI" font-size="13" lengthAdjust="spacing" text-decoration="underline" textLength="119.4058" x="277" y="166.8105">View in Swagger UI</text></a><g class="message" data-participant-1="Client" data-participant-2="GW"><polygon fill="#7C3AED" points="182.6982,196.8633,192.6982,200.8633,182.6982,204.8633,186.6982,200.8633" style="stroke:#7C3AED;stroke-width:1;"/><line style="stroke:#7C3AED;stroke-width:1;" x1="31.7524" x2="188.6982" y1="200.8633" y2="200.8633"/><text fill="#000000" font-family="Segoe UI" font-size="13" lengthAdjust="spacing" textLength="143.9458" x="38.7524" y="196.1211">PATCH /trails/{trail_id}</text></g><g class="message" data-participant-1="GW" data-participant-2="Svc"><polygon fill="#7C3AED" points="324.5327,226.1738,334.5327,230.1738,324.5327,234.1738,328.5327,230.1738" style="stroke:#7C3AED;stroke-width:1;"/><line style="stroke:#7C3AED;stroke-width:1;" x1="204.6982" x2="330.5327" y1="230.1738" y2="230.1738"/><text fill="#000000" font-family="Segoe UI" font-size="13" lengthAdjust="spacing" textLength="85.1348" x="211.6982" y="225.4316">route request</text></g><path d="M351,243.1738 L351,268.1738 L509,268.1738 L509,253.1738 L499,243.1738 L351,243.1738" fill="#FEFFDD" style="stroke:#181818;stroke-width:0.5;"/><path d="M499,243.1738 L499,253.1738 L509,253.1738 L499,243.1738" fill="#FEFFDD" style="stroke:#181818;stroke-width:0.5;"/><text fill="#000000" font-family="Segoe UI" font-size="13" lengthAdjust="spacing" textLength="137.5728" x="357" y="260.7422">Validate request body</text><rect fill="#EEEEEE" height="3" style="stroke:#EEEEEE;stroke-width:1;" width="549.1074" x="0" y="294.1396"/><line style="stroke:#000000;stroke-width:1;" x1="0" x2="549.1074" y1="294.1396" y2="294.1396"/><line style="stroke:#000000;stroke-width:1;" x1="0" x2="549.1074" y1="297.1396" y2="297.1396"/><rect fill="#EEEEEE" height="23.3105" style="stroke:#000000;stroke-width:2;" width="80.3711" x="234.3682" y="283.4844"/><text fill="#000000" font-family="Segoe UI" font-size="13" font-weight="bold" lengthAdjust="spacing" textLength="62.0864" x="240.3682" y="300.0527">Database</text><g class="message" data-participant-1="Svc" data-participant-2="DB"><polygon fill="#7C3AED" points="498.9067,334.1055,508.9067,338.1055,498.9067,342.1055,502.9067,338.1055" style="stroke:#7C3AED;stroke-width:1;"/><line style="stroke:#7C3AED;stroke-width:1;" x1="346.5327" x2="504.9067" y1="338.1055" y2="338.1055"/><text fill="#000000" font-family="Segoe UI" font-size="13" lengthAdjust="spacing" textLength="145.374" x="353.5327" y="333.3633">SELECT ... FOR UPDATE</text></g><g class="message" data-participant-1="DB" data-participant-2="Svc"><polygon fill="#7C3AED" points="357.5327,363.416,347.5327,367.416,357.5327,371.416,353.5327,367.416" style="stroke:#7C3AED;stroke-width:1;"/><line style="stroke:#7C3AED;stroke-width:1;stroke-dasharray:2,2;" x1="351.5327" x2="514.9067" y1="367.416" y2="367.416"/><text fill="#000000" font-family="Segoe UI" font-size="13" lengthAdjust="spacing" textLength="75.3086" x="363.5327" y="362.6738">Current row</text></g><path d="M351,380.416 L351,405.416 L537,405.416 L537,390.416 L527,380.416 L351,380.416" fill="#FEFFDD" style="stroke:#181818;stroke-width:0.5;"/><path d="M527,380.416 L527,390.416 L537,390.416 L527,380.416" fill="#FEFFDD" style="stroke:#181818;stroke-width:0.5;"/><text fill="#000000" font-family="Segoe UI" font-size="13" lengthAdjust="spacing" textLength="165.9023" x="357" y="397.9844">Merge changed fields only</text><g class="message" data-participant-1="Svc" data-participant-2="DB"><polygon fill="#7C3AED" points="498.9067,428.0371,508.9067,432.0371,498.9067,436.0371,502.9067,432.0371" style="stroke:#7C3AED;stroke-width:1;"/><line style="stroke:#7C3AED;stroke-width:1;" x1="346.5327" x2="504.9067" y1="432.0371" y2="432.0371"/><text fill="#000000" font-family="Segoe UI" font-size="13" lengthAdjust="spacing" textLength="109.4526" x="353.5327" y="427.2949">UPDATE ... SET ...</text></g><g class="message" data-participant-1="DB" data-participant-2="Svc"><polygon fill="#7C3AED" points="357.5327,457.3477,347.5327,461.3477,357.5327,465.3477,353.5327,461.3477" style="stroke:#7C3AED;stroke-width:1;"/><line style="stroke:#7C3AED;stroke-width:1;stroke-dasharray:2,2;" x1="351.5327" x2="514.9067" y1="461.3477" y2="461.3477"/><text fill="#000000" font-family="Segoe UI" font-size="13" lengthAdjust="spacing" textLength="80.2725" x="363.5327" y="456.6055">Updated row</text></g><g class="message" data-participant-1="Svc" data-participant-2="GW"><polygon fill="#7C3AED" points="215.6982,486.6582,205.6982,490.6582,215.6982,494.6582,211.6982,490.6582" style="stroke:#7C3AED;stroke-width:1;"/><line style="stroke:#7C3AED;stroke-width:1;stroke-dasharray:2,2;" x1="209.6982" x2="340.5327" y1="490.6582" y2="490.6582"/><text fill="#000000" font-family="Segoe UI" font-size="13" lengthAdjust="spacing" textLength="47.3599" x="221.6982" y="485.916">200 OK</text></g><g class="message" data-participant-1="GW" data-participant-2="Client"><polygon fill="#7C3AED" points="42.7524,515.9688,32.7524,519.9688,42.7524,523.9688,38.7524,519.9688" style="stroke:#7C3AED;stroke-width:1;"/><line style="stroke:#7C3AED;stroke-width:1;stroke-dasharray:2,2;" x1="36.7524" x2="198.6982" y1="519.9688" y2="519.9688"/><text fill="#000000" font-family="Segoe UI" font-size="13" lengthAdjust="spacing" textLength="47.3599" x="48.7524" y="515.2266">200 OK</text></g><a href="/microservices/svc-trail-management/#integration-context" target="_top" title="/microservices/svc-trail-management/#integration-context" xlink:actuate="onRequest" xlink:href="/microservices/svc-trail-management/#integration-context" xlink:show="new" xlink:title="/microservices/svc-trail-management/#integration-context" xlink:type="simple"><text fill="#0000FF" font-family="Segoe UI" font-size="10" lengthAdjust="spacing" text-decoration="underline" textLength="220.5225" x="327.585" y="14.668">&#11014; svc-trail-management Integration Context</text></a><!--SRC=[ZLFRRjf047tVhnZ1CpY1gA18L3B6fgXfWW8a3ocg5dimgvXTTtU1H55U-pNzgdv9TzSEbyPLQnwyUCxCcJbdLZqodbD9rx2WyMCgnOOdWSY4X7eKsXzHUuHQqKJi64zXIJE5Hv44btIJwKXmVKtN2BK9fW9XDgeTf-Ft3V8OuOM0UNmfnQwawiHjYedxFAPIivZbbEk-a0dA4j8Akn_y_Zl8dqs7tUWYwZhO5LlY5UDuKiPljVkTbeltnTD9A3hlHcVd-z0xEQB8n5tuMkZJgd6disWVnIgaR8STyah82gb9WuS7RyrYAHJABOjHUMeRDxIaB6kiAQSfhf5hhywunbHIpGHln4PSVDBmw-SFg4B3w026e03FvuHefZE4iJyDFe7dafJtujxVMFBwbS_oX6e4zyKOgIs0aFoWCTI2Z1c26b05nT7sJ_CyOx6ZKvuXEidmnoCOch8x-kpIXlTG7_H3t-pJ2Qvg49SmsSR_AT9yldVT348NL9dz6mkbXwE9ApNe6mE2y28C2E767H1Ruu0XC7uPYdrrchDAXkPAhxEwDosaspYvt1-uOxW3nc6oesbgQiv6HWVa2LWQGagj6X_j-9T_jO3GMBEjzS2gL5u5SpHvLeLBC9jaWj9U7wKFQ1jyWnU3IPQkD8XbcNT7C-QyBLDX8P9dGdez6Bm9rUiHOi66oyXq2PFmAWocq6ms8RgvXTbuu4_30-MHbEROs7SORAIqeveRJH8yWbVszGLbYX2lA4ynWIN3B54WUFPysaj1xdgPXAwdVpTIB7DIqKXH-isBrjaPt7m-XjXziA8RHEbR5MfuJtu3]--></g></svg>