<svg xmlns="http://www.w3.org/2000/svg" xmlns:xlink="http://www.w3.org/1999/xlink" contentStyleType="text/css" data-diagram-type="SEQUENCE" height="755px" preserveAspectRatio="none" style="width:797px;height:755px;background:#FEFEFE;" version="1.1" viewBox="0 0 797 755" width="797px" zoomAndPan="magnify"><title>POST /payments</title><defs/><g><rect fill="#FEFEFE" height="755" style="stroke:none;stroke-width:1;" width="797" x="0" y="0"/><text fill="#000000" font-family="Segoe UI" font-size="14" font-weight="bold" lengthAdjust="spacing" textLength="120.5313" x="334.4546" y="41.3125">POST /payments</text><text fill="#000000" font-family="Segoe UI" font-size="14" font-weight="bold" lengthAdjust="spacing" textLength="135.1533" x="327.1436" y="57.8008">Process a payment</text><g><title>API Gateway</title><rect fill="#059669" height="458.3477" style="stroke:#A23B72;stroke-width:1;" width="10" x="155.2793" y="200.8633"/></g><g><title>svc-payments</title><rect fill="#059669" height="399.7266" style="stroke:#A23B72;stroke-width:1;" width="10" x="269.4141" y="230.1738"/></g><g><title>Fraud Detection API</title><rect fill="#DBEAFE" height="29.3105" style="stroke:#A23B72;stroke-width:1;" width="10" x="414.627" y="338.1055"/></g><g><title>Stripe API</title><rect fill="#DBEAFE" height="29.3105" style="stroke:#A23B72;stroke-width:1;" width="10" x="538.0488" y="396.7266"/></g><g><title>PostgreSQL</title><rect fill="#FCE4EC" height="29.3105" style="stroke:#A23B72;stroke-width:1;" width="10" x="739.0156" y="498.6582"/></g><g><title>Client</title><rect fill="#000000" fill-opacity="0.00000" height="542.9688" width="8" x="27.7524" y="134.2422"/><line style="stroke:#A23B72;stroke-width:0.5;stroke-dasharray:5,5;" x1="31" x2="31" y1="134.2422" y2="677.2109"/></g><g><title>API Gateway</title><rect fill="#000000" fill-opacity="0.00000" height="542.9688" width="8" x="156.2793" y="134.2422"/><line style="stroke:#A23B72;stroke-width:0.5;stroke-dasharray:5,5;" x1="159.9902" x2="159.9902" y1="134.2422" y2="677.2109"/></g><g><title>svc-payments</title><rect fill="#000000" fill-opacity="0.00000" height="542.9688" width="8" x="270.4141" y="134.2422"/><line style="stroke:#A23B72;stroke-width:0.5;stroke-dasharray:5,5;" x1="273.6924" x2="273.6924" y1="134.2422" y2="677.2109"/></g><g><title>Fraud Detection API</title><rect fill="#000000" fill-opacity="0.00000" height="542.9688" width="8" x="415.627" y="134.2422"/><line style="stroke:#A23B72;stroke-width:0.5;stroke-dasharray:5,5;" x1="418.7168" x2="418.7168" y1="134.2422" y2="677.2109"/></g><g><title>Stripe API</title><rect fill="#000000" fill-opacity="0.00000" height="542.9688" width="8" x="539.0488" y="134.2422"/><line style="stroke:#A23B72;stroke-width:0.5;stroke-dasharray:5,5;" x1="542.5371" x2="542.5371" y1="134.2422" y2="677.2109"/></g><g><title>Notifications</title><rect fill="#000000" fill-opacity="0.00000" height="542.9688" width="8" x="638.5757" y="134.2422"/><line style="stroke:#A23B72;stroke-width:0.5;stroke-dasharray:5,5;" x1="642.5605" x2="642.5605" y1="134.2422" y2="677.2109"/></g><g><title>PostgreSQL</title><rect fill="#000000" fill-opacity="0.00000" height="542.9688" width="8" x="740.0156" y="134.2422"/><line style="stroke:#A23B72;stroke-width:0.5;stroke-dasharray:5,5;" x1="743.5908" x2="743.5908" y1="134.2422" y2="677.2109"/></g><g class="participant participant-head" data-participant="Client"><a href="/applications/" target="_top" title="/applications/" xlink:actuate="onRequest" xlink:href="/applications/" xlink:show="new" xlink:title="/applications/" xlink:type="simple"><rect fill="#E8F4F8" height="30.4883" rx="2.5" ry="2.5" style="stroke:#2E86AB;stroke-width:0.5;" width="53.5049" x="5" y="102.7539"/><text fill="#000000" font-family="Segoe UI" font-size="14" lengthAdjust="spacing" textLength="39.5049" x="12" y="123.2891">Client</text></a></g><g class="participant participant-tail" data-participant="Client"><a href="/applications/" target="_top" title="/applications/" xlink:actuate="onRequest" xlink:href="/applications/" xlink:show="new" xlink:title="/applications/" xlink:type="simple"><rect fill="#E8F4F8" height="30.4883" rx="2.5" ry="2.5" style="stroke:#2E86AB;stroke-width:0.5;" width="53.5049" x="5" y="676.2109"/><text fill="#000000" font-family="Segoe UI" font-size="14" lengthAdjust="spacing" textLength="39.5049" x="12" y="696.7461">Client</text></a></g><g class="participant participant-head" data-participant="GW"><rect fill="#DBEAFE" height="30.4883" rx="2.5" ry="2.5" style="stroke:#2E86AB;stroke-width:0.5;" width="96.5781" x="111.9902" y="102.7539"/><text fill="#000000" font-family="Segoe UI" font-size="14" lengthAdjust="spacing" textLength="82.5781" x="118.9902" y="123.2891">API Gateway</text></g><g class="participant participant-tail" data-participant="GW"><rect fill="#DBEAFE" height="30.4883" rx="2.5" ry="2.5" style="stroke:#2E86AB;stroke-width:0.5;" width="96.5781" x="111.9902" y="676.2109"/><text fill="#000000" font-family="Segoe UI" font-size="14" lengthAdjust="spacing" textLength="82.5781" x="118.9902" y="696.7461">API Gateway</text></g><g class="participant participant-head" data-participant="Svc"><a href="/microservices/svc-payments/" target="_top" title="/microservices/svc-payments/" xlink:actuate="onRequest" xlink:href="/microservices/svc-payments/" xlink:show="new" xlink:title="/microservices/svc-payments/" xlink:type="simple"><rect fill="#E8F4F8" height="30.4883" rx="2.5" ry="2.5" style="stroke:#2E86AB;stroke-width:0.5;" width="109.4434" x="219.6924" y="102.7539"/><text fill="#000000" font-family="Segoe UI" font-size="14" lengthAdjust="spacing" textLength="95.4434" x="226.6924" y="123.2891">svc-payments</text></a></g><g class="participant participant-tail" data-participant="Svc"><a href="/microservices/svc-payments/" target="_top" title="/microservices/svc-payments/" xlink:actuate="onRequest" xlink:href="/microservices/svc-payments/" xlink:show="new" xlink:title="/microservices/svc-payments/" xlink:type="simple"><rect fill="#E8F4F8" height="30.4883" rx="2.5" ry="2.5" style="stroke:#2E86AB;stroke-width:0.5;" width="109.4434" x="219.6924" y="676.2109"/><text fill="#000000" font-family="Segoe UI" font-size="14" lengthAdjust="spacing" textLength="95.4434" x="226.6924" y="696.7461">svc-payments</text></a></g><g class="participant participant-head" data-participant="FD"><rect fill="#F5F5F5" height="30.4883" rx="2.5" ry="2.5" style="stroke:#2E86AB;stroke-width:0.5;" width="147.8203" x="345.7168" y="102.7539"/><text fill="#000000" font-family="Segoe UI" font-size="14" lengthAdjust="spacing" textLength="133.8203" x="352.7168" y="123.2891">Fraud Detection API</text></g><g class="participant participant-tail" data-participant="FD"><rect fill="#F5F5F5" height="30.4883" rx="2.5" ry="2.5" style="stroke:#2E86AB;stroke-width:0.5;" width="147.8203" x="345.7168" y="676.2109"/><text fill="#000000" font-family="Segoe UI" font-size="14" lengthAdjust="spacing" textLength="133.8203" x="352.7168" y="696.7461">Fraud Detection API</text></g><g class="participant participant-head" data-participant="ExtPay"><rect fill="#F5F5F5" height="30.4883" rx="2.5" ry="2.5" style="stroke:#2E86AB;stroke-width:0.5;" width="79.0234" x="503.5371" y="102.7539"/><text fill="#000000" font-family="Segoe UI" font-size="14" lengthAdjust="spacing" textLength="65.0234" x="510.5371" y="123.2891">Stripe API</text></g><g class="participant participant-tail" data-participant="ExtPay"><rect fill="#F5F5F5" height="30.4883" rx="2.5" ry="2.5" style="stroke:#2E86AB;stroke-width:0.5;" width="79.0234" x="503.5371" y="676.2109"/><text fill="#000000" font-family="Segoe UI" font-size="14" lengthAdjust="spacing" textLength="65.0234" x="510.5371" y="696.7461">Stripe API</text></g><g class="participant participant-head" data-participant="Ntfy"><a href="/microservices/svc-notifications/" target="_top" title="/microservices/svc-notifications/" xlink:actuate="onRequest" xlink:href="/microservices/svc-notifications/" xlink:show="new" xlink:title="/microservices/svc-notifications/" xlink:type="simple"><rect fill="#FFF8F0" height="30.4883" rx="2.5" ry="2.5" style="stroke:#2E86AB;stroke-width:0.5;" width="100.0303" x="592.5605" y="102.7539"/><text fill="#000000" font-family="Segoe UI" font-size="14" lengthAdjust="spacing" textLength="86.0303" x="599.5605" y="123.2891">Notifications</text></a></g><g class="participant participant-tail" data-participant="Ntfy"><a href="/microservices/svc-notifications/" target="_top" title="/microservices/svc-notifications/" xlink:actuate="onRequest" xlink:href="/microservices/svc-notifications/" xlink:show="new" xlink:title="/microservices/svc-notifications/" xlink:type="simple"><rect fill="#FFF8F0" height="30.4883" rx="2.5" ry="2.5" style="stroke:#2E86AB;stroke-width:0.5;" width="100.0303" x="592.5605" y="676.2109"/><text fill="#000000" font-family="Segoe UI" font-size="14" lengthAdjust="spacing" textLength="86.0303" x="599.5605" y="696.7461">Notifications</text></a></g><g class="participant participant-head" data-participant="DB"><text fill="#000000" font-family="Segoe UI" font-size="14" lengthAdjust="spacing" textLength="76.8496" x="702.5908" y="131.2891">PostgreSQL</text><path d="M726.0156,81.7539 C726.0156,71.7539 744.0156,71.7539 744.0156,71.7539 C744.0156,71.7539 762.0156,71.7539 762.0156,81.7539 L762.0156,107.7539 C762.0156,117.7539 744.0156,117.7539 744.0156,117.7539 C744.0156,117.7539 726.0156,117.7539 726.0156,107.7539 L726.0156,81.7539" fill="#FCE4EC" style="stroke:#181818;stroke-width:0.5;"/><path d="M726.0156,81.7539 C726.0156,91.7539 744.0156,91.7539 744.0156,91.7539 C744.0156,91.7539 762.0156,91.7539 762.0156,81.7539" fill="none" style="stroke:#181818;stroke-width:0.5;"/></g><g class="participant participant-tail" data-participant="DB"><text fill="#000000" font-family="Segoe UI" font-size="14" lengthAdjust="spacing" textLength="76.8496" x="702.5908" y="689.7461">PostgreSQL</text><path d="M726.0156,702.6992 C726.0156,692.6992 744.0156,692.6992 744.0156,692.6992 C744.0156,692.6992 762.0156,692.6992 762.0156,702.6992 L762.0156,728.6992 C762.0156,738.6992 744.0156,738.6992 744.0156,738.6992 C744.0156,738.6992 726.0156,738.6992 726.0156,728.6992 L726.0156,702.6992" fill="#FCE4EC" style="stroke:#181818;stroke-width:0.5;"/><path d="M726.0156,702.6992 C726.0156,712.6992 744.0156,712.6992 744.0156,712.6992 C744.0156,712.6992 762.0156,712.6992 762.0156,702.6992" fill="none" style="stroke:#181818;stroke-width:0.5;"/></g><g><title>API Gateway</title><rect fill="#059669" height="458.3477" style="stroke:#A23B72;stroke-width:1;" width="10" x="155.2793" y="200.8633"/></g><g><title>svc-payments</title><rect fill="#059669" height="399.7266" style="stroke:#A23B72;stroke-width:1;" width="10" x="269.4141" y="230.1738"/></g><g><title>Fraud Detection API</title><rect fill="#DBEAFE" height="29.3105" style="stroke:#A23B72;stroke-width:1;" width="10" x="414.627" y="338.1055"/></g><g><title>Stripe API</title><rect fill="#DBEAFE" height="29.3105" style="stroke:#A23B72;stroke-width:1;" width="10" x="538.0488" y="396.7266"/></g><g><title>PostgreSQL</title><rect fill="#FCE4EC" height="29.3105" style="stroke:#A23B72;stroke-width:1;" width="10" x="739.0156" y="498.6582"/></g><path d="M204,149.2422 L204,174.2422 L344,174.2422 L344,159.2422 L334,149.2422 L204,149.2422" fill="#FEFFDD" style="stroke:#181818;stroke-width:0.5;"/><path d="M334,149.2422 L334,159.2422 L344,159.2422 L334,149.2422" fill="#FEFFDD" style="stroke:#181818;stroke-width:0.5;"/><a href="/services/api/svc-payments.html#/Payments/processPayment" target="_top" title="/services/api/svc-payments.html#/Payments/processPayment" xlink:actuate="onRequest" xlink:href="/services/api/svc-payments.html#/Payments/processPayment" xlink:show="new" xlink:title="/services/api/svc-payments.html#/Payments/processPayment" xlink:type="simple"><text fill="#0000FF" font-family="Segoe UI" font-size="13" lengthAdjust="spacing" text-decoration="underline" textLength="119.4058" x="210" y="166.8105">View in Swagger UI</text></a><g class="message" data-participant-1="Client" data-participant-2="GW"><polygon fill="#059669" points="143.2793,196.8633,153.2793,200.8633,143.2793,204.8633,147.2793,200.8633" style="stroke:#059669;stroke-width:1;"/><line style="stroke:#059669;stroke-width:1;" x1="31.7524" x2="149.2793" y1="200.8633" y2="200.8633"/><text fill="#000000" font-family="Segoe UI" font-size="13" lengthAdjust="spacing" textLength="104.5269" x="38.7524" y="196.1211">POST /payments</text></g><g class="message" data-participant-1="GW" data-participant-2="Svc"><polygon fill="#059669" points="257.4141,226.1738,267.4141,230.1738,257.4141,234.1738,261.4141,230.1738" style="stroke:#059669;stroke-width:1;"/><line style="stroke:#059669;stroke-width:1;" x1="165.2793" x2="263.4141" y1="230.1738" y2="230.1738"/><text fill="#000000" font-family="Segoe UI" font-size="13" lengthAdjust="spacing" textLength="85.1348" x="172.2793" y="225.4316">route request</text></g><path d="M284,243.1738 L284,268.1738 L442,268.1738 L442,253.1738 L432,243.1738 L284,243.1738" fill="#FEFFDD" style="stroke:#181818;stroke-width:0.5;"/><path d="M432,243.1738 L432,253.1738 L442,253.1738 L432,243.1738" fill="#FEFFDD" style="stroke:#181818;stroke-width:0.5;"/><text fill="#000000" font-family="Segoe UI" font-size="13" lengthAdjust="spacing" textLength="137.5728" x="290" y="260.7422">Validate request body</text><rect fill="#EEEEEE" height="3" style="stroke:#EEEEEE;stroke-width:1;" width="790.4404" x="0" y="294.1396"/><line style="stroke:#000000;stroke-width:1;" x1="0" x2="790.4404" y1="294.1396" y2="294.1396"/><line style="stroke:#000000;stroke-width:1;" x1="0" x2="790.4404" y1="297.1396" y2="297.1396"/><rect fill="#EEEEEE" height="23.3105" style="stroke:#000000;stroke-width:2;" width="190.6743" x="299.8831" y="283.4844"/><text fill="#000000" font-family="Segoe UI" font-size="13" font-weight="bold" lengthAdjust="spacing" textLength="172.3896" x="305.8831" y="300.0527">Cross-Service Integration</text><g class="message" data-participant-1="Svc" data-participant-2="FD"><polygon fill="#059669" points="402.627,334.1055,412.627,338.1055,402.627,342.1055,406.627,338.1055" style="stroke:#059669;stroke-width:1;"/><line style="stroke:#059669;stroke-width:1;" x1="279.4141" x2="408.627" y1="338.1055" y2="338.1055"/><text fill="#000000" font-family="Segoe UI" font-size="13" lengthAdjust="spacing" textLength="116.2129" x="286.4141" y="333.3633">Screen transaction</text></g><g class="message" data-participant-1="FD" data-participant-2="Svc"><polygon fill="#059669" points="290.4141,363.416,280.4141,367.416,290.4141,371.416,286.4141,367.416" style="stroke:#059669;stroke-width:1;"/><line style="stroke:#059669;stroke-width:1;stroke-dasharray:2,2;" x1="284.4141" x2="418.627" y1="367.416" y2="367.416"/><text fill="#000000" font-family="Segoe UI" font-size="13" lengthAdjust="spacing" textLength="18.5859" x="296.4141" y="362.6738">OK</text></g><g class="message" data-participant-1="Svc" data-participant-2="ExtPay"><polygon fill="#059669" points="526.0488,392.7266,536.0488,396.7266,526.0488,400.7266,530.0488,396.7266" style="stroke:#059669;stroke-width:1;"/><line style="stroke:#059669;stroke-width:1;" x1="279.4141" x2="532.0488" y1="396.7266" y2="396.7266"/><text fill="#000000" font-family="Segoe UI" font-size="13" lengthAdjust="spacing" textLength="106.2217" x="286.4141" y="391.9844">Process payment</text></g><g class="message" data-participant-1="ExtPay" data-participant-2="Svc"><polygon fill="#059669" points="290.4141,422.0371,280.4141,426.0371,290.4141,430.0371,286.4141,426.0371" style="stroke:#059669;stroke-width:1;"/><line style="stroke:#059669;stroke-width:1;stroke-dasharray:2,2;" x1="284.4141" x2="542.0488" y1="426.0371" y2="426.0371"/><text fill="#000000" font-family="Segoe UI" font-size="13" lengthAdjust="spacing" textLength="18.5859" x="296.4141" y="421.2949">OK</text></g><rect fill="#EEEEEE" height="3" style="stroke:#EEEEEE;stroke-width:1;" width="790.4404" x="0" y="454.6924"/><line style="stroke:#000000;stroke-width:1;" x1="0" x2="790.4404" y1="454.6924" y2="454.6924"/><line style="stroke:#000000;stroke-width:1;" x1="0" x2="790.4404" y1="457.6924" y2="457.6924"/><rect fill="#EEEEEE" height="23.3105" style="stroke:#000000;stroke-width:2;" width="80.3711" x="355.0347" y="444.0371"/><text fill="#000000" font-family="Segoe UI" font-size="13" font-weight="bold" lengthAdjust="spacing" textLength="62.0864" x="361.0347" y="460.6055">Database</text><g class="message" data-participant-1="Svc" data-participant-2="DB"><polygon fill="#059669" points="727.0156,494.6582,737.0156,498.6582,727.0156,502.6582,731.0156,498.6582" style="stroke:#059669;stroke-width:1;"/><line style="stroke:#059669;stroke-width:1;" x1="279.4141" x2="733.0156" y1="498.6582" y2="498.6582"/><text fill="#000000" font-family="Segoe UI" font-size="13" lengthAdjust="spacing" textLength="96.0718" x="286.4141" y="493.916">INSERT INTO ...</text></g><g class="message" data-participant-1="DB" data-participant-2="Svc"><polygon fill="#059669" points="290.4141,523.9688,280.4141,527.9688,290.4141,531.9688,286.4141,527.9688" style="stroke:#059669;stroke-width:1;"/><line style="stroke:#059669;stroke-width:1;stroke-dasharray:2,2;" x1="284.4141" x2="743.0156" y1="527.9688" y2="527.9688"/><text fill="#000000" font-family="Segoe UI" font-size="13" lengthAdjust="spacing" textLength="76.4575" x="296.4141" y="523.2266">Created row</text></g><rect fill="#EEEEEE" height="3" style="stroke:#EEEEEE;stroke-width:1;" width="790.4404" x="0" y="556.624"/><line style="stroke:#000000;stroke-width:1;" x1="0" x2="790.4404" y1="556.624" y2="556.624"/><line style="stroke:#000000;stroke-width:1;" x1="0" x2="790.4404" y1="559.624" y2="559.624"/><rect fill="#EEEEEE" height="23.3105" style="stroke:#000000;stroke-width:2;" width="106.8218" x="341.8093" y="545.9688"/><text fill="#000000" font-family="Segoe UI" font-size="13" font-weight="bold" lengthAdjust="spacing" textLength="88.5371" x="347.8093" y="562.5371">Async Events</text><g class="message" data-participant-1="Svc" data-participant-2="Ntfy"><line style="stroke:#059669;stroke-width:1;" x1="640.5757" x2="630.5757" y1="600.5898" y2="596.5898"/><line style="stroke:#059669;stroke-width:1;" x1="640.5757" x2="630.5757" y1="600.5898" y2="604.5898"/><line style="stroke:#059669;stroke-width:1;" x1="279.4141" x2="641.5757" y1="600.5898" y2="600.5898"/><a href="/microservices/svc-notifications/#post-notifications-send-a-notification" target="_top" title="/microservices/svc-notifications/#post-notifications-send-a-notification" xlink:actuate="onRequest" xlink:href="/microservices/svc-notifications/#post-notifications-send-a-notification" xlink:show="new" xlink:title="/microservices/svc-notifications/#post-notifications-send-a-notification" xlink:type="simple"><text fill="#0000FF" font-family="Segoe UI" font-size="13" lengthAdjust="spacing" text-decoration="underline" textLength="136.4492" x="286.4141" y="595.8477">Send payment receipt</text></a></g><g class="message" data-participant-1="Svc" data-participant-2="GW"><polygon fill="#059669" points="176.2793,625.9004,166.2793,629.9004,176.2793,633.9004,172.2793,629.9004" style="stroke:#059669;stroke-width:1;"/><line style="stroke:#059669;stroke-width:1;stroke-dasharray:2,2;" x1="170.2793" x2="273.4141" y1="629.9004" y2="629.9004"/><text fill="#000000" font-family="Segoe UI" font-size="13" lengthAdjust="spacing" textLength="77.7969" x="182.2793" y="625.1582">201 Created</text></g><g class="message" data-participant-1="GW" data-participant-2="Client"><polygon fill="#059669" points="42.7524,655.2109,32.7524,659.2109,42.7524,663.2109,38.7524,659.2109" style="stroke:#059669;stroke-width:1;"/><line style="stroke:#059669;stroke-width:1;stroke-dasharray:2,2;" x1="36.7524" x2="159.2793" y1="659.2109" y2="659.2109"/><text fill="#000000" font-family="Segoe UI" font-size="13" lengthAdjust="spacing" textLength="77.7969" x="48.7524" y="654.4688">201 Created</text></g><a href="/microservices/svc-payments/#integration-context" target="_top" title="/microservices/svc-payments/#integration-context" xlink:actuate="onRequest" xlink:href="/microservices/svc-payments/#integration-context" xlink:show="new" xlink:title="/microservices/svc-payments/#integration-context" xlink:type="simple"><text fill="#0000FF" font-family="Segoe UI" font-size="10" lengthAdjust="spacing" text-decoration="underline" textLength="179.3457" x="610.0947" y="14.668">&#11014; svc-payments Integration Context</text></a><!--SRC=[ZLJBSjem5DthA-x06aX86WWpP0Q3dM6Q8RJEOv6o4BOmcXZ9bGI4wNJRh-bNzKjwBVpCOrgyGDOzzw5pZgoVkKYeeXjOqk0vKd8hmh6CfOAcvwOFqGL2hsaezrn4iAAnPfL8o5Pq6njF2ZEZ6mODdqMImVsqKKrdtxTC10n-4C3VI2cvprgTVBgykBYqstEg30zuGeLnf0gPoY1TjtynSjv0NW_jzhrphszXDtp5RhXWjJAZxfdJwzgu8rzg8U-qxvsS5g4tT7WUncru9aszQj3hBSygiNUeF7Dxv2SXQqOn3PwUEXiUAAcPsl60wOxU1Qs47ZPC6DrfSc5OfAZXKhG299Mz6FZp-nTKKJ0jGJ0-WXOBGWmtCOFvhNy7dHpxJSoLn3OQA6HxX2GbZT0Onnmt6q0r79VfY3H9OXxO3hg3jMiPe_aKhgbXUtgmQTUFq9muxWWjKyDLPxP0VnVyu_oBHI5ahPIdw3Q42JCiiAV64Mn5Ru8KVqgVEjutYYUiWBalPauFxqDHDhxApshHCxCwl3-dg6Bji9atGcheachq_rng4odcVxcnjIOEOiRkkJic1BCPo1sQ08b0os2BeZfDU8s9zjfiucPddXEJ75NCtk61iprm0VwUHX4Ml9-YI4o4aFOW91EoTPLgCtXb2KAHmntgPuNBBY0k4PqAD03qBmPLUccrAT5fC8SVpw9uj3OWLrdU0urvICjKMChmGCXm26FaKRVyus5hzXqE2KcpiJbgEG0_K8m9C8eAJQtMvG2fs9dFSDagvhtzJ49MGHKLCzcHWEmEv3UW0EV6oCfchn-LFeRjYIQvu9K3eDO3cCvyz-iT_jtTGhlTBbjLd83BiiLOCGo7oFg-sclYs3uZVH01k3jxxyjULqUJ3lx7fiq4BLdVQsdqIelMDi5F_PCnX186Z2Vsis8xvbRgdfpc4rUdJGsTMWXXcVS-X5u_ahy0]--></g></svg>