<svg xmlns="http://www.w3.org/2000/svg" xmlns:xlink="http://www.w3.org/1999/xlink" contentStyleType="text/css" data-diagram-type="SEQUENCE" height="522px" preserveAspectRatio="none" style="width:482px;height:522px;background:#FEFEFE;" version="1.1" viewBox="0 0 482 522" width="482px" zoomAndPan="magnify"><title>POST /guides</title><defs/><g><rect fill="#FEFEFE" height="522" style="stroke:none;stroke-width:1;" width="482" x="0" y="0"/><text fill="#000000" font-family="Segoe UI" font-size="14" font-weight="bold" lengthAdjust="spacing" textLength="98.6768" x="188.0059" y="41.3125">POST /guides</text><text fill="#000000" font-family="Segoe UI" font-size="14" font-weight="bold" lengthAdjust="spacing" textLength="190.9688" x="141.8599" y="57.8008">Create a new guide profile</text><g><title>API Gateway</title><rect fill="#059669" height="225.1738" style="stroke:#A23B72;stroke-width:1;" width="10" x="136.1729" y="200.8633"/></g><g><title>svc-guide-management</title><rect fill="#059669" height="166.5527" style="stroke:#A23B72;stroke-width:1;" width="10" x="283.6504" y="230.1738"/></g><g><title>PostgreSQL</title><rect fill="#FCE4EC" height="29.3105" style="stroke:#A23B72;stroke-width:1;" width="10" x="424.2637" y="338.1055"/></g><g><title>Client</title><rect fill="#000000" fill-opacity="0.00000" height="309.7949" width="8" x="27.7524" y="134.2422"/><line style="stroke:#A23B72;stroke-width:0.5;stroke-dasharray:5,5;" x1="31" x2="31" y1="134.2422" y2="444.0371"/></g><g><title>API Gateway</title><rect fill="#000000" fill-opacity="0.00000" height="309.7949" width="8" x="137.1729" y="134.2422"/><line style="stroke:#A23B72;stroke-width:0.5;stroke-dasharray:5,5;" x1="140.8838" x2="140.8838" y1="134.2422" y2="444.0371"/></g><g><title>svc-guide-management</title><rect fill="#000000" fill-opacity="0.00000" height="309.7949" width="8" x="284.6504" y="134.2422"/><line style="stroke:#A23B72;stroke-width:0.5;stroke-dasharray:5,5;" x1="288.4619" x2="288.4619" y1="134.2422" y2="444.0371"/></g><g><title>PostgreSQL</title><rect fill="#000000" fill-opacity="0.00000" height="309.7949" width="8" x="425.2637" y="134.2422"/><line style="stroke:#A23B72;stroke-width:0.5;stroke-dasharray:5,5;" x1="428.8389" x2="428.8389" y1="134.2422" y2="444.0371"/></g><g class="participant participant-head" data-participant="Client"><a href="/applications/" target="_top" title="/applications/" xlink:actuate="onRequest" xlink:href="/applications/" xlink:show="new" xlink:title="/applications/" xlink:type="simple"><rect fill="#E8F4F8" height="30.4883" rx="2.5" ry="2.5" style="stroke:#2E86AB;stroke-width:0.5;" width="53.5049" x="5" y="102.7539"/><text fill="#000000" font-family="Segoe UI" font-size="14" lengthAdjust="spacing" textLength="39.5049" x="12" y="123.2891">Client</text></a></g><g class="participant participant-tail" data-participant="Client"><a href="/applications/" target="_top" title="/applications/" xlink:actuate="onRequest" xlink:href="/applications/" xlink:show="new" xlink:title="/applications/" xlink:type="simple"><rect fill="#E8F4F8" height="30.4883" rx="2.5" ry="2.5" style="stroke:#2E86AB;stroke-width:0.5;" width="53.5049" x="5" y="443.0371"/><text fill="#000000" font-family="Segoe UI" font-size="14" lengthAdjust="spacing" textLength="39.5049" x="12" y="463.5723">Client</text></a></g><g class="participant participant-head" data-participant="GW"><rect fill="#DBEAFE" height="30.4883" rx="2.5" ry="2.5" style="stroke:#2E86AB;stroke-width:0.5;" width="96.5781" x="92.8838" y="102.7539"/><text fill="#000000" font-family="Segoe UI" font-size="14" lengthAdjust="spacing" textLength="82.5781" x="99.8838" y="123.2891">API Gateway</text></g><g class="participant participant-tail" data-participant="GW"><rect fill="#DBEAFE" height="30.4883" rx="2.5" ry="2.5" style="stroke:#2E86AB;stroke-width:0.5;" width="96.5781" x="92.8838" y="443.0371"/><text fill="#000000" font-family="Segoe UI" font-size="14" lengthAdjust="spacing" textLength="82.5781" x="99.8838" y="463.5723">API Gateway</text></g><g class="participant participant-head" data-participant="Svc"><a href="/microservices/svc-guide-management/" target="_top" title="/microservices/svc-guide-management/" xlink:actuate="onRequest" xlink:href="/microservices/svc-guide-management/" xlink:show="new" xlink:title="/microservices/svc-guide-management/" xlink:type="simple"><rect fill="#E8F4F8" height="30.4883" rx="2.5" ry="2.5" style="stroke:#2E86AB;stroke-width:0.5;" width="178.377" x="199.4619" y="102.7539"/><text fill="#000000" font-family="Segoe UI" font-size="14" lengthAdjust="spacing" textLength="164.377" x="206.4619" y="123.2891">svc-guide-management</text></a></g><g class="participant participant-tail" data-participant="Svc"><a href="/microservices/svc-guide-management/" target="_top" title="/microservices/svc-guide-management/" xlink:actuate="onRequest" xlink:href="/microservices/svc-guide-management/" xlink:show="new" xlink:title="/microservices/svc-guide-management/" xlink:type="simple"><rect fill="#E8F4F8" height="30.4883" rx="2.5" ry="2.5" style="stroke:#2E86AB;stroke-width:0.5;" width="178.377" x="199.4619" y="443.0371"/><text fill="#000000" font-family="Segoe UI" font-size="14" lengthAdjust="spacing" textLength="164.377" x="206.4619" y="463.5723">svc-guide-management</text></a></g><g class="participant participant-head" data-participant="DB"><text fill="#000000" font-family="Segoe UI" font-size="14" lengthAdjust="spacing" textLength="76.8496" x="387.8389" y="131.2891">PostgreSQL</text><path d="M411.2637,81.7539 C411.2637,71.7539 429.2637,71.7539 429.2637,71.7539 C429.2637,71.7539 447.2637,71.7539 447.2637,81.7539 L447.2637,107.7539 C447.2637,117.7539 429.2637,117.7539 429.2637,117.7539 C429.2637,117.7539 411.2637,117.7539 411.2637,107.7539 L411.2637,81.7539" fill="#FCE4EC" style="stroke:#181818;stroke-width:0.5;"/><path d="M411.2637,81.7539 C411.2637,91.7539 429.2637,91.7539 429.2637,91.7539 C429.2637,91.7539 447.2637,91.7539 447.2637,81.7539" fill="none" style="stroke:#181818;stroke-width:0.5;"/></g><g class="participant participant-tail" data-participant="DB"><text fill="#000000" font-family="Segoe UI" font-size="14" lengthAdjust="spacing" textLength="76.8496" x="387.8389" y="456.5723">PostgreSQL</text><path d="M411.2637,469.5254 C411.2637,459.5254 429.2637,459.5254 429.2637,459.5254 C429.2637,459.5254 447.2637,459.5254 447.2637,469.5254 L447.2637,495.5254 C447.2637,505.5254 429.2637,505.5254 429.2637,505.5254 C429.2637,505.5254 411.2637,505.5254 411.2637,495.5254 L411.2637,469.5254" fill="#FCE4EC" style="stroke:#181818;stroke-width:0.5;"/><path d="M411.2637,469.5254 C411.2637,479.5254 429.2637,479.5254 429.2637,479.5254 C429.2637,479.5254 447.2637,479.5254 447.2637,469.5254" fill="none" style="stroke:#181818;stroke-width:0.5;"/></g><g><title>API Gateway</title><rect fill="#059669" height="225.1738" style="stroke:#A23B72;stroke-width:1;" width="10" x="136.1729" y="200.8633"/></g><g><title>svc-guide-management</title><rect fill="#059669" height="166.5527" style="stroke:#A23B72;stroke-width:1;" width="10" x="283.6504" y="230.1738"/></g><g><title>PostgreSQL</title><rect fill="#FCE4EC" height="29.3105" style="stroke:#A23B72;stroke-width:1;" width="10" x="424.2637" y="338.1055"/></g><path d="M218,149.2422 L218,174.2422 L358,174.2422 L358,159.2422 L348,149.2422 L218,149.2422" fill="#FEFFDD" style="stroke:#181818;stroke-width:0.5;"/><path d="M348,149.2422 L348,159.2422 L358,159.2422 L348,149.2422" fill="#FEFFDD" style="stroke:#181818;stroke-width:0.5;"/><a href="/services/api/svc-guide-management.html#/Guides/createGuide" target="_top" title="/services/api/svc-guide-management.html#/Guides/createGuide" xlink:actuate="onRequest" xlink:href="/services/api/svc-guide-management.html#/Guides/createGuide" xlink:show="new" xlink:title="/services/api/svc-guide-management.html#/Guides/createGuide" xlink:type="simple"><text fill="#0000FF" font-family="Segoe UI" font-size="13" lengthAdjust="spacing" text-decoration="underline" textLength="119.4058" x="224" y="166.8105">View in Swagger UI</text></a><g class="message" data-participant-1="Client" data-participant-2="GW"><polygon fill="#059669" points="124.1729,196.8633,134.1729,200.8633,124.1729,204.8633,128.1729,200.8633" style="stroke:#059669;stroke-width:1;"/><line style="stroke:#059669;stroke-width:1;" x1="31.7524" x2="130.1729" y1="200.8633" y2="200.8633"/><text fill="#000000" font-family="Segoe UI" font-size="13" lengthAdjust="spacing" textLength="85.4204" x="38.7524" y="196.1211">POST /guides</text></g><g class="message" data-participant-1="GW" data-participant-2="Svc"><polygon fill="#059669" points="271.6504,226.1738,281.6504,230.1738,271.6504,234.1738,275.6504,230.1738" style="stroke:#059669;stroke-width:1;"/><line style="stroke:#059669;stroke-width:1;" x1="146.1729" x2="277.6504" y1="230.1738" y2="230.1738"/><text fill="#000000" font-family="Segoe UI" font-size="13" lengthAdjust="spacing" textLength="85.1348" x="153.1729" y="225.4316">route request</text></g><path d="M298,243.1738 L298,268.1738 L456,268.1738 L456,253.1738 L446,243.1738 L298,243.1738" fill="#FEFFDD" style="stroke:#181818;stroke-width:0.5;"/><path d="M446,243.1738 L446,253.1738 L456,253.1738 L446,243.1738" fill="#FEFFDD" style="stroke:#181818;stroke-width:0.5;"/><text fill="#000000" font-family="Segoe UI" font-size="13" lengthAdjust="spacing" textLength="137.5728" x="304" y="260.7422">Validate request body</text><rect fill="#EEEEEE" height="3" style="stroke:#EEEEEE;stroke-width:1;" width="475.6885" x="0" y="294.1396"/><line style="stroke:#000000;stroke-width:1;" x1="0" x2="475.6885" y1="294.1396" y2="294.1396"/><line style="stroke:#000000;stroke-width:1;" x1="0" x2="475.6885" y1="297.1396" y2="297.1396"/><rect fill="#EEEEEE" height="23.3105" style="stroke:#000000;stroke-width:2;" width="80.3711" x="197.6587" y="283.4844"/><text fill="#000000" font-family="Segoe UI" font-size="13" font-weight="bold" lengthAdjust="spacing" textLength="62.0864" x="203.6587" y="300.0527">Database</text><g class="message" data-participant-1="Svc" data-participant-2="DB"><polygon fill="#059669" points="412.2637,334.1055,422.2637,338.1055,412.2637,342.1055,416.2637,338.1055" style="stroke:#059669;stroke-width:1;"/><line style="stroke:#059669;stroke-width:1;" x1="293.6504" x2="418.2637" y1="338.1055" y2="338.1055"/><text fill="#000000" font-family="Segoe UI" font-size="13" lengthAdjust="spacing" textLength="96.0718" x="300.6504" y="333.3633">INSERT INTO ...</text></g><g class="message" data-participant-1="DB" data-participant-2="Svc"><polygon fill="#059669" points="304.6504,363.416,294.6504,367.416,304.6504,371.416,300.6504,367.416" style="stroke:#059669;stroke-width:1;"/><line style="stroke:#059669;stroke-width:1;stroke-dasharray:2,2;" x1="298.6504" x2="428.2637" y1="367.416" y2="367.416"/><text fill="#000000" font-family="Segoe UI" font-size="13" lengthAdjust="spacing" textLength="76.4575" x="310.6504" y="362.6738">Created row</text></g><g class="message" data-participant-1="Svc" data-participant-2="GW"><polygon fill="#059669" points="157.1729,392.7266,147.1729,396.7266,157.1729,400.7266,153.1729,396.7266" style="stroke:#059669;stroke-width:1;"/><line style="stroke:#059669;stroke-width:1;stroke-dasharray:2,2;" x1="151.1729" x2="287.6504" y1="396.7266" y2="396.7266"/><text fill="#000000" font-family="Segoe UI" font-size="13" lengthAdjust="spacing" textLength="77.7969" x="163.1729" y="391.9844">201 Created</text></g><g class="message" data-participant-1="GW" data-participant-2="Client"><polygon fill="#059669" points="42.7524,422.0371,32.7524,426.0371,42.7524,430.0371,38.7524,426.0371" style="stroke:#059669;stroke-width:1;"/><line style="stroke:#059669;stroke-width:1;stroke-dasharray:2,2;" x1="36.7524" x2="140.1729" y1="426.0371" y2="426.0371"/><text fill="#000000" font-family="Segoe UI" font-size="13" lengthAdjust="spacing" textLength="77.7969" x="48.7524" y="421.2949">201 Created</text></g><a href="/microservices/svc-guide-management/#integration-context" target="_top" title="/microservices/svc-guide-management/#integration-context" xlink:actuate="onRequest" xlink:href="/microservices/svc-guide-management/#integration-context" xlink:show="new" xlink:title="/microservices/svc-guide-management/#integration-context" xlink:type="simple"><text fill="#0000FF" font-family="Segoe UI" font-size="10" lengthAdjust="spacing" text-decoration="underline" textLength="228.584" x="246.1045" y="14.668">&#11014; svc-guide-management Integration Context</text></a><!--SRC=[ZPFDRjf04CVl-nGZE8CJaWOIYKf0R8GK9RJauv1o6Ep1h69stTq54aMzzcdwL7sIZXVprL2fzi5hpt_cl_FRiNsHAaU3SvXW_98QlL19JsVQG3KAYrlOhSBECD4hgLAOOcPfBvBG51UPYxHojpWdg8merGGFWyf-EdrVa8e9tWNmrJ56hqghaq-N5nUN_lCGZPEnp56vhZO9cLBI25iNdUu7oT-R3blHUTJoiXivfHkfwA1Cft7MRJPylAjV3qBHQIiwETs6Fk288exxyArsXrNZPdDojXSxWl8iR8eVGim8EGsUduEvZ8ssP9Oo9XlOPLnB5pAXsXmLfZGdvOAgL8vIWqvgLOiPBhqw-Fth9nnJms0dXjvQF1uBuQJB28Pteti8V8xzfdg6q14WA5g1_mYvqLEPaH3vZYvKUfdaqXL02-jbiNFCyqp6tiW6R76GqHaEeC_5L_Zcq_fFKBtkXXsUf0FTiHPymcWP_oUUyNXxtWawdA3boHjgwr93eoytljfrb-dtmlEm9uJYem6zPFpimOV5Bbi3pELHa_hCpRDgqFVWWjXpyo_mA9cTL31QOPfopOS1eo2LG64ZH8chzhaWS7N0Ns3ivB8uW09EEVkyP6tH_1Nmw73G5F-BTJjr4Tp8ryqOcSuSw6cPzuYPJ72N2XETl0dHRiFrXa-xBKGXPYz6SmM3sr7uzPuVztTGhzTtPdlWU5dRxcqzEWdlSIKIsfENTJSDDqvEDzfzNK6-Q9Lb9Q5_IljFuWy0]--></g></svg>