<svg xmlns="http://www.w3.org/2000/svg" xmlns:xlink="http://www.w3.org/1999/xlink" contentStyleType="text/css" data-diagram-type="SEQUENCE" height="487px" preserveAspectRatio="none" style="width:509px;height:487px;background:#FEFEFE;" version="1.1" viewBox="0 0 509 487" width="509px" zoomAndPan="magnify"><title>GET /tiers</title><defs/><g><rect fill="#FEFEFE" height="487" style="stroke:none;stroke-width:1;" width="509" x="0" y="0"/><text fill="#000000" font-family="Segoe UI" font-size="14" font-weight="bold" lengthAdjust="spacing" textLength="73.7461" x="213.8088" y="41.3125">GET /tiers</text><text fill="#000000" font-family="Segoe UI" font-size="14" font-weight="bold" lengthAdjust="spacing" textLength="290.2129" x="105.5754" y="57.8008">List all loyalty tiers and their thresholds</text><g><title>API Gateway</title><rect fill="#2563EB" height="189.8633" style="stroke:#A23B72;stroke-width:1;" width="10" x="114.1528" y="200.8633"/></g><g><title>svc-loyalty-rewards</title><rect fill="#2563EB" height="131.2422" style="stroke:#A23B72;stroke-width:1;" width="10" x="247.3262" y="230.1738"/></g><g><title>Couchbase</title><rect fill="#FCE4EC" height="29.3105" style="stroke:#A23B72;stroke-width:1;" width="10" x="452.207" y="302.7949"/></g><g><title>Client</title><rect fill="#000000" fill-opacity="0.00000" height="274.4844" width="8" x="27.7524" y="134.2422"/><line style="stroke:#A23B72;stroke-width:0.5;stroke-dasharray:5,5;" x1="31" x2="31" y1="134.2422" y2="408.7266"/></g><g><title>API Gateway</title><rect fill="#000000" fill-opacity="0.00000" height="274.4844" width="8" x="115.1528" y="134.2422"/><line style="stroke:#A23B72;stroke-width:0.5;stroke-dasharray:5,5;" x1="118.8638" x2="118.8638" y1="134.2422" y2="408.7266"/></g><g><title>svc-loyalty-rewards</title><rect fill="#000000" fill-opacity="0.00000" height="274.4844" width="8" x="248.3262" y="134.2422"/><line style="stroke:#A23B72;stroke-width:0.5;stroke-dasharray:5,5;" x1="251.4419" x2="251.4419" y1="134.2422" y2="408.7266"/></g><g><title>Couchbase</title><rect fill="#000000" fill-opacity="0.00000" height="274.4844" width="8" x="453.207" y="134.2422"/><line style="stroke:#A23B72;stroke-width:0.5;stroke-dasharray:5,5;" x1="457.0503" x2="457.0503" y1="134.2422" y2="408.7266"/></g><g class="participant participant-head" data-participant="Client"><a href="/applications/" target="_top" title="/applications/" xlink:actuate="onRequest" xlink:href="/applications/" xlink:show="new" xlink:title="/applications/" xlink:type="simple"><rect fill="#E8F4F8" height="30.4883" rx="2.5" ry="2.5" style="stroke:#2E86AB;stroke-width:0.5;" width="53.5049" x="5" y="102.7539"/><text fill="#000000" font-family="Segoe UI" font-size="14" lengthAdjust="spacing" textLength="39.5049" x="12" y="123.2891">Client</text></a></g><g class="participant participant-tail" data-participant="Client"><a href="/applications/" target="_top" title="/applications/" xlink:actuate="onRequest" xlink:href="/applications/" xlink:show="new" xlink:title="/applications/" xlink:type="simple"><rect fill="#E8F4F8" height="30.4883" rx="2.5" ry="2.5" style="stroke:#2E86AB;stroke-width:0.5;" width="53.5049" x="5" y="407.7266"/><text fill="#000000" font-family="Segoe UI" font-size="14" lengthAdjust="spacing" textLength="39.5049" x="12" y="428.2617">Client</text></a></g><g class="participant participant-head" data-participant="GW"><rect fill="#DBEAFE" height="30.4883" rx="2.5" ry="2.5" style="stroke:#2E86AB;stroke-width:0.5;" width="96.5781" x="70.8638" y="102.7539"/><text fill="#000000" font-family="Segoe UI" font-size="14" lengthAdjust="spacing" textLength="82.5781" x="77.8638" y="123.2891">API Gateway</text></g><g class="participant participant-tail" data-participant="GW"><rect fill="#DBEAFE" height="30.4883" rx="2.5" ry="2.5" style="stroke:#2E86AB;stroke-width:0.5;" width="96.5781" x="70.8638" y="407.7266"/><text fill="#000000" font-family="Segoe UI" font-size="14" lengthAdjust="spacing" textLength="82.5781" x="77.8638" y="428.2617">API Gateway</text></g><g class="participant participant-head" data-participant="Svc"><a href="/microservices/svc-loyalty-rewards/" target="_top" title="/microservices/svc-loyalty-rewards/" xlink:actuate="onRequest" xlink:href="/microservices/svc-loyalty-rewards/" xlink:show="new" xlink:title="/microservices/svc-loyalty-rewards/" xlink:type="simple"><rect fill="#E8F4F8" height="30.4883" rx="2.5" ry="2.5" style="stroke:#2E86AB;stroke-width:0.5;" width="149.7686" x="177.4419" y="102.7539"/><text fill="#000000" font-family="Segoe UI" font-size="14" lengthAdjust="spacing" textLength="135.7686" x="184.4419" y="123.2891">svc-loyalty-rewards</text></a></g><g class="participant participant-tail" data-participant="Svc"><a href="/microservices/svc-loyalty-rewards/" target="_top" title="/microservices/svc-loyalty-rewards/" xlink:actuate="onRequest" xlink:href="/microservices/svc-loyalty-rewards/" xlink:show="new" xlink:title="/microservices/svc-loyalty-rewards/" xlink:type="simple"><rect fill="#E8F4F8" height="30.4883" rx="2.5" ry="2.5" style="stroke:#2E86AB;stroke-width:0.5;" width="149.7686" x="177.4419" y="407.7266"/><text fill="#000000" font-family="Segoe UI" font-size="14" lengthAdjust="spacing" textLength="135.7686" x="184.4419" y="428.2617">svc-loyalty-rewards</text></a></g><g class="participant participant-head" data-participant="DB"><text fill="#000000" font-family="Segoe UI" font-size="14" lengthAdjust="spacing" textLength="74.3135" x="417.0503" y="131.2891">Couchbase</text><path d="M439.207,81.7539 C439.207,71.7539 457.207,71.7539 457.207,71.7539 C457.207,71.7539 475.207,71.7539 475.207,81.7539 L475.207,107.7539 C475.207,117.7539 457.207,117.7539 457.207,117.7539 C457.207,117.7539 439.207,117.7539 439.207,107.7539 L439.207,81.7539" fill="#FCE4EC" style="stroke:#181818;stroke-width:0.5;"/><path d="M439.207,81.7539 C439.207,91.7539 457.207,91.7539 457.207,91.7539 C457.207,91.7539 475.207,91.7539 475.207,81.7539" fill="none" style="stroke:#181818;stroke-width:0.5;"/></g><g class="participant participant-tail" data-participant="DB"><text fill="#000000" font-family="Segoe UI" font-size="14" lengthAdjust="spacing" textLength="74.3135" x="417.0503" y="421.2617">Couchbase</text><path d="M439.207,434.2148 C439.207,424.2148 457.207,424.2148 457.207,424.2148 C457.207,424.2148 475.207,424.2148 475.207,434.2148 L475.207,460.2148 C475.207,470.2148 457.207,470.2148 457.207,470.2148 C457.207,470.2148 439.207,470.2148 439.207,460.2148 L439.207,434.2148" fill="#FCE4EC" style="stroke:#181818;stroke-width:0.5;"/><path d="M439.207,434.2148 C439.207,444.2148 457.207,444.2148 457.207,444.2148 C457.207,444.2148 475.207,444.2148 475.207,434.2148" fill="none" style="stroke:#181818;stroke-width:0.5;"/></g><g><title>API Gateway</title><rect fill="#2563EB" height="189.8633" style="stroke:#A23B72;stroke-width:1;" width="10" x="114.1528" y="200.8633"/></g><g><title>svc-loyalty-rewards</title><rect fill="#2563EB" height="131.2422" style="stroke:#A23B72;stroke-width:1;" width="10" x="247.3262" y="230.1738"/></g><g><title>Couchbase</title><rect fill="#FCE4EC" height="29.3105" style="stroke:#A23B72;stroke-width:1;" width="10" x="452.207" y="302.7949"/></g><path d="M182,149.2422 L182,174.2422 L322,174.2422 L322,159.2422 L312,149.2422 L182,149.2422" fill="#FEFFDD" style="stroke:#181818;stroke-width:0.5;"/><path d="M312,149.2422 L312,159.2422 L322,159.2422 L312,149.2422" fill="#FEFFDD" style="stroke:#181818;stroke-width:0.5;"/><a href="/services/api/svc-loyalty-rewards.html#/Tiers/listTiers" target="_top" title="/services/api/svc-loyalty-rewards.html#/Tiers/listTiers" xlink:actuate="onRequest" xlink:href="/services/api/svc-loyalty-rewards.html#/Tiers/listTiers" xlink:show="new" xlink:title="/services/api/svc-loyalty-rewards.html#/Tiers/listTiers" xlink:type="simple"><text fill="#0000FF" font-family="Segoe UI" font-size="13" lengthAdjust="spacing" text-decoration="underline" textLength="119.4058" x="188" y="166.8105">View in Swagger UI</text></a><g class="message" data-participant-1="Client" data-participant-2="GW"><polygon fill="#2563EB" points="102.1528,196.8633,112.1528,200.8633,102.1528,204.8633,106.1528,200.8633" style="stroke:#2563EB;stroke-width:1;"/><line style="stroke:#2563EB;stroke-width:1;" x1="31.7524" x2="108.1528" y1="200.8633" y2="200.8633"/><text fill="#000000" font-family="Segoe UI" font-size="13" lengthAdjust="spacing" textLength="63.4004" x="38.7524" y="196.1211">GET /tiers</text></g><g class="message" data-participant-1="GW" data-participant-2="Svc"><polygon fill="#2563EB" points="235.3262,226.1738,245.3262,230.1738,235.3262,234.1738,239.3262,230.1738" style="stroke:#2563EB;stroke-width:1;"/><line style="stroke:#2563EB;stroke-width:1;" x1="124.1528" x2="241.3262" y1="230.1738" y2="230.1738"/><text fill="#000000" font-family="Segoe UI" font-size="13" lengthAdjust="spacing" textLength="85.1348" x="131.1528" y="225.4316">route request</text></g><rect fill="#EEEEEE" height="3" style="stroke:#EEEEEE;stroke-width:1;" width="502.3638" x="0" y="258.8291"/><line style="stroke:#000000;stroke-width:1;" x1="0" x2="502.3638" y1="258.8291" y2="258.8291"/><line style="stroke:#000000;stroke-width:1;" x1="0" x2="502.3638" y1="261.8291" y2="261.8291"/><rect fill="#EEEEEE" height="23.3105" style="stroke:#000000;stroke-width:2;" width="80.3711" x="210.9963" y="248.1738"/><text fill="#000000" font-family="Segoe UI" font-size="13" font-weight="bold" lengthAdjust="spacing" textLength="62.0864" x="216.9963" y="264.7422">Database</text><g class="message" data-participant-1="Svc" data-participant-2="DB"><polygon fill="#2563EB" points="440.207,298.7949,450.207,302.7949,440.207,306.7949,444.207,302.7949" style="stroke:#2563EB;stroke-width:1;"/><line style="stroke:#2563EB;stroke-width:1;" x1="257.3262" x2="446.207" y1="302.7949" y2="302.7949"/><text fill="#000000" font-family="Segoe UI" font-size="13" lengthAdjust="spacing" textLength="175.8809" x="264.3262" y="298.0527">N1QL: SELECT WHERE filters</text></g><g class="message" data-participant-1="DB" data-participant-2="Svc"><polygon fill="#2563EB" points="268.3262,328.1055,258.3262,332.1055,268.3262,336.1055,264.3262,332.1055" style="stroke:#2563EB;stroke-width:1;"/><line style="stroke:#2563EB;stroke-width:1;stroke-dasharray:2,2;" x1="262.3262" x2="456.207" y1="332.1055" y2="332.1055"/><text fill="#000000" font-family="Segoe UI" font-size="13" lengthAdjust="spacing" textLength="87.604" x="274.3262" y="327.3633">Document set</text></g><g class="message" data-participant-1="Svc" data-participant-2="GW"><polygon fill="#2563EB" points="135.1528,357.416,125.1528,361.416,135.1528,365.416,131.1528,361.416" style="stroke:#2563EB;stroke-width:1;"/><line style="stroke:#2563EB;stroke-width:1;stroke-dasharray:2,2;" x1="129.1528" x2="251.3262" y1="361.416" y2="361.416"/><text fill="#000000" font-family="Segoe UI" font-size="13" lengthAdjust="spacing" textLength="47.3599" x="141.1528" y="356.6738">200 OK</text></g><g class="message" data-participant-1="GW" data-participant-2="Client"><polygon fill="#2563EB" points="42.7524,386.7266,32.7524,390.7266,42.7524,394.7266,38.7524,390.7266" style="stroke:#2563EB;stroke-width:1;"/><line style="stroke:#2563EB;stroke-width:1;stroke-dasharray:2,2;" x1="36.7524" x2="118.1528" y1="390.7266" y2="390.7266"/><text fill="#000000" font-family="Segoe UI" font-size="13" lengthAdjust="spacing" textLength="47.3599" x="48.7524" y="385.9844">200 OK</text></g><a href="/microservices/svc-loyalty-rewards/#integration-context" target="_top" title="/microservices/svc-loyalty-rewards/#integration-context" xlink:actuate="onRequest" xlink:href="/microservices/svc-loyalty-rewards/#integration-context" xlink:show="new" xlink:title="/microservices/svc-loyalty-rewards/#integration-context" xlink:type="simple"><text fill="#0000FF" font-family="Segoe UI" font-size="10" lengthAdjust="spacing" text-decoration="underline" textLength="208.1494" x="293.2144" y="14.668">&#11014; svc-loyalty-rewards Integration Context</text></a><!--SRC=[ZLF1RXen4BtxAqPmfXiW3GY9Ih3iKbIKf2KfXvI3yGvWnTZKDf2ewhLVqw_gbtIyMSZISEYkj1hvFS_pU-DrZr9lkELhc7FnkBHcgxFOA6EXcYRXPUx8S2kUcRtKIrXmvR24PBZWM-LJe_qrNoDK9hWq2FUZIdaxVj-Y5WW_6D3JizRi2wd6-wicplFbMswz57B3jUyRcw4zK9BsLQ__XlBlePDsUfcsSzfOBd0iDPwqwJMQ_LOZn_lcwGHAw-tqedw4tiIHfeJdyBNnfrr5gpLlbh0pKJQJ5ll9s0evROE7XsWjXJKExKuAT97RYPeoprpvvvh5FRUPYwfIUrnQxgNHDK7PufE7Fxz_mHaoZ5wv4BzmPpF6lFGAOPZSGUGbMlTDZwNpm9M2eWFawy1r1dw5qjBNebiPbJd6DgzHGoLM4hMl07VmKWORVBDHKkIwBYB5anszsn4CkQSZFkVRXbEe3lf9ZwxL2U-CePm_sOd_YsesEuu-uvxFkQDB69kjM8KoxpNeqnpYv3A96TCq930x6WGfqDX8uzYUR-GvYNShlrRLw2w45IdACA_WgyGzI0sJFLykgT_zY390oZ98C5RaLFiGh7TASs1SUBcZQF9CYljF9J63wGxGzI7GXd_6-LTs00zqrkt2uE2sssKiWDI0d7RWklvvt859CaxYEvX-JBuai93AdqYN8g6oTjGU6B5TXtCxz2p34h_GEFXfN5p0pQSo9UGPR12Zy7wEDPoolm00]--></g></svg>