<svg xmlns="http://www.w3.org/2000/svg" xmlns:xlink="http://www.w3.org/1999/xlink" contentStyleType="text/css" data-diagram-type="SEQUENCE" height="509px" preserveAspectRatio="none" style="width:548px;height:509px;background:#FEFEFE;" version="1.1" viewBox="0 0 548 509" width="548px" zoomAndPan="magnify"><title>POST /safety-inspections</title><defs/><g><rect fill="#FEFEFE" height="509" style="stroke:none;stroke-width:1;" width="548" x="0" y="0"/><text fill="#000000" font-family="Segoe UI" font-size="14" font-weight="bold" lengthAdjust="spacing" textLength="186.1016" x="177.1628" y="28.5352">POST /safety-inspections</text><text fill="#000000" font-family="Segoe UI" font-size="14" font-weight="bold" lengthAdjust="spacing" textLength="190.9141" x="174.7566" y="45.0234">Record a safety inspection</text><g><title>API Gateway</title><rect fill="#059669" height="225.1738" style="stroke:#A23B72;stroke-width:1;" width="10" x="211.0308" y="188.0859"/></g><g><title>svc-safety-compliance</title><rect fill="#059669" height="166.5527" style="stroke:#A23B72;stroke-width:1;" width="10" x="353.9487" y="217.3965"/></g><g><title>PostgreSQL</title><rect fill="#FCE4EC" height="29.3105" style="stroke:#A23B72;stroke-width:1;" width="10" x="490.0024" y="325.3281"/></g><g><title>Client</title><rect fill="#000000" fill-opacity="0.00000" height="309.7949" width="8" x="27.7524" y="121.4648"/><line style="stroke:#A23B72;stroke-width:0.5;stroke-dasharray:5,5;" x1="31" x2="31" y1="121.4648" y2="431.2598"/></g><g><title>API Gateway</title><rect fill="#000000" fill-opacity="0.00000" height="309.7949" width="8" x="212.0308" y="121.4648"/><line style="stroke:#A23B72;stroke-width:0.5;stroke-dasharray:5,5;" x1="215.7417" x2="215.7417" y1="121.4648" y2="431.2598"/></g><g><title>svc-safety-compliance</title><rect fill="#000000" fill-opacity="0.00000" height="309.7949" width="8" x="354.9487" y="121.4648"/><line style="stroke:#A23B72;stroke-width:0.5;stroke-dasharray:5,5;" x1="358.3198" x2="358.3198" y1="121.4648" y2="431.2598"/></g><g><title>PostgreSQL</title><rect fill="#000000" fill-opacity="0.00000" height="309.7949" width="8" x="491.0024" y="121.4648"/><line style="stroke:#A23B72;stroke-width:0.5;stroke-dasharray:5,5;" x1="494.5776" x2="494.5776" y1="121.4648" y2="431.2598"/></g><g class="participant participant-head" data-participant="Client"><rect fill="#E8F4F8" height="30.4883" rx="2.5" ry="2.5" style="stroke:#2E86AB;stroke-width:0.5;" width="53.5049" x="5" y="89.9766"/><text fill="#000000" font-family="Segoe UI" font-size="14" lengthAdjust="spacing" textLength="39.5049" x="12" y="110.5117">Client</text></g><g class="participant participant-tail" data-participant="Client"><rect fill="#E8F4F8" height="30.4883" rx="2.5" ry="2.5" style="stroke:#2E86AB;stroke-width:0.5;" width="53.5049" x="5" y="430.2598"/><text fill="#000000" font-family="Segoe UI" font-size="14" lengthAdjust="spacing" textLength="39.5049" x="12" y="450.7949">Client</text></g><g class="participant participant-head" data-participant="GW"><rect fill="#DBEAFE" height="30.4883" rx="2.5" ry="2.5" style="stroke:#2E86AB;stroke-width:0.5;" width="96.5781" x="167.7417" y="89.9766"/><text fill="#000000" font-family="Segoe UI" font-size="14" lengthAdjust="spacing" textLength="82.5781" x="174.7417" y="110.5117">API Gateway</text></g><g class="participant participant-tail" data-participant="GW"><rect fill="#DBEAFE" height="30.4883" rx="2.5" ry="2.5" style="stroke:#2E86AB;stroke-width:0.5;" width="96.5781" x="167.7417" y="430.2598"/><text fill="#000000" font-family="Segoe UI" font-size="14" lengthAdjust="spacing" textLength="82.5781" x="174.7417" y="450.7949">API Gateway</text></g><g class="participant participant-head" data-participant="Svc"><a href="/microservices/svc-safety-compliance/" target="_top" title="/microservices/svc-safety-compliance/" xlink:actuate="onRequest" xlink:href="/microservices/svc-safety-compliance/" xlink:show="new" xlink:title="/microservices/svc-safety-compliance/" xlink:type="simple"><rect fill="#E8F4F8" height="30.4883" rx="2.5" ry="2.5" style="stroke:#2E86AB;stroke-width:0.5;" width="169.2578" x="274.3198" y="89.9766"/><text fill="#000000" font-family="Segoe UI" font-size="14" lengthAdjust="spacing" textLength="155.2578" x="281.3198" y="110.5117">svc-safety-compliance</text></a></g><g class="participant participant-tail" data-participant="Svc"><a href="/microservices/svc-safety-compliance/" target="_top" title="/microservices/svc-safety-compliance/" xlink:actuate="onRequest" xlink:href="/microservices/svc-safety-compliance/" xlink:show="new" xlink:title="/microservices/svc-safety-compliance/" xlink:type="simple"><rect fill="#E8F4F8" height="30.4883" rx="2.5" ry="2.5" style="stroke:#2E86AB;stroke-width:0.5;" width="169.2578" x="274.3198" y="430.2598"/><text fill="#000000" font-family="Segoe UI" font-size="14" lengthAdjust="spacing" textLength="155.2578" x="281.3198" y="450.7949">svc-safety-compliance</text></a></g><g class="participant participant-head" data-participant="DB"><text fill="#000000" font-family="Segoe UI" font-size="14" lengthAdjust="spacing" textLength="76.8496" x="453.5776" y="118.5117">PostgreSQL</text><path d="M477.0024,68.9766 C477.0024,58.9766 495.0024,58.9766 495.0024,58.9766 C495.0024,58.9766 513.0024,58.9766 513.0024,68.9766 L513.0024,94.9766 C513.0024,104.9766 495.0024,104.9766 495.0024,104.9766 C495.0024,104.9766 477.0024,104.9766 477.0024,94.9766 L477.0024,68.9766" fill="#FCE4EC" style="stroke:#181818;stroke-width:0.5;"/><path d="M477.0024,68.9766 C477.0024,78.9766 495.0024,78.9766 495.0024,78.9766 C495.0024,78.9766 513.0024,78.9766 513.0024,68.9766" fill="none" style="stroke:#181818;stroke-width:0.5;"/></g><g class="participant participant-tail" data-participant="DB"><text fill="#000000" font-family="Segoe UI" font-size="14" lengthAdjust="spacing" textLength="76.8496" x="453.5776" y="443.7949">PostgreSQL</text><path d="M477.0024,456.748 C477.0024,446.748 495.0024,446.748 495.0024,446.748 C495.0024,446.748 513.0024,446.748 513.0024,456.748 L513.0024,482.748 C513.0024,492.748 495.0024,492.748 495.0024,492.748 C495.0024,492.748 477.0024,492.748 477.0024,482.748 L477.0024,456.748" fill="#FCE4EC" style="stroke:#181818;stroke-width:0.5;"/><path d="M477.0024,456.748 C477.0024,466.748 495.0024,466.748 495.0024,466.748 C495.0024,466.748 513.0024,466.748 513.0024,456.748" fill="none" style="stroke:#181818;stroke-width:0.5;"/></g><g><title>API Gateway</title><rect fill="#059669" height="225.1738" style="stroke:#A23B72;stroke-width:1;" width="10" x="211.0308" y="188.0859"/></g><g><title>svc-safety-compliance</title><rect fill="#059669" height="166.5527" style="stroke:#A23B72;stroke-width:1;" width="10" x="353.9487" y="217.3965"/></g><g><title>PostgreSQL</title><rect fill="#FCE4EC" height="29.3105" style="stroke:#A23B72;stroke-width:1;" width="10" x="490.0024" y="325.3281"/></g><path d="M288,136.4648 L288,161.4648 L428,161.4648 L428,146.4648 L418,136.4648 L288,136.4648" fill="#FEFFDD" style="stroke:#181818;stroke-width:0.5;"/><path d="M418,136.4648 L418,146.4648 L428,146.4648 L418,136.4648" fill="#FEFFDD" style="stroke:#181818;stroke-width:0.5;"/><a href="/services/api/svc-safety-compliance.html#/Inspections/createSafetyInspection" target="_top" title="/services/api/svc-safety-compliance.html#/Inspections/createSafetyInspection" xlink:actuate="onRequest" xlink:href="/services/api/svc-safety-compliance.html#/Inspections/createSafetyInspection" xlink:show="new" xlink:title="/services/api/svc-safety-compliance.html#/Inspections/createSafetyInspection" xlink:type="simple"><text fill="#0000FF" font-family="Segoe UI" font-size="13" lengthAdjust="spacing" text-decoration="underline" textLength="119.4058" x="294" y="154.0332">View in Swagger UI</text></a><g class="message" data-participant-1="Client" data-participant-2="GW"><polygon fill="#059669" points="199.0308,184.0859,209.0308,188.0859,199.0308,192.0859,203.0308,188.0859" style="stroke:#059669;stroke-width:1;"/><line style="stroke:#059669;stroke-width:1;" x1="31.7524" x2="205.0308" y1="188.0859" y2="188.0859"/><text fill="#000000" font-family="Segoe UI" font-size="13" lengthAdjust="spacing" textLength="160.2783" x="38.7524" y="183.3438">POST /safety-inspections</text></g><g class="message" data-participant-1="GW" data-participant-2="Svc"><polygon fill="#059669" points="341.9487,213.3965,351.9487,217.3965,341.9487,221.3965,345.9487,217.3965" style="stroke:#059669;stroke-width:1;"/><line style="stroke:#059669;stroke-width:1;" x1="221.0308" x2="347.9487" y1="217.3965" y2="217.3965"/><text fill="#000000" font-family="Segoe UI" font-size="13" lengthAdjust="spacing" textLength="85.1348" x="228.0308" y="212.6543">route request</text></g><path d="M368,230.3965 L368,255.3965 L526,255.3965 L526,240.3965 L516,230.3965 L368,230.3965" fill="#FEFFDD" style="stroke:#181818;stroke-width:0.5;"/><path d="M516,230.3965 L516,240.3965 L526,240.3965 L516,230.3965" fill="#FEFFDD" style="stroke:#181818;stroke-width:0.5;"/><text fill="#000000" font-family="Segoe UI" font-size="13" lengthAdjust="spacing" textLength="137.5728" x="374" y="247.9648">Validate request body</text><rect fill="#EEEEEE" height="3" style="stroke:#EEEEEE;stroke-width:1;" width="541.4272" x="0" y="281.3623"/><line style="stroke:#000000;stroke-width:1;" x1="0" x2="541.4272" y1="281.3623" y2="281.3623"/><line style="stroke:#000000;stroke-width:1;" x1="0" x2="541.4272" y1="284.3623" y2="284.3623"/><rect fill="#EEEEEE" height="23.3105" style="stroke:#000000;stroke-width:2;" width="80.3711" x="230.5281" y="270.707"/><text fill="#000000" font-family="Segoe UI" font-size="13" font-weight="bold" lengthAdjust="spacing" textLength="62.0864" x="236.5281" y="287.2754">Database</text><g class="message" data-participant-1="Svc" data-participant-2="DB"><polygon fill="#059669" points="478.0024,321.3281,488.0024,325.3281,478.0024,329.3281,482.0024,325.3281" style="stroke:#059669;stroke-width:1;"/><line style="stroke:#059669;stroke-width:1;" x1="363.9487" x2="484.0024" y1="325.3281" y2="325.3281"/><text fill="#000000" font-family="Segoe UI" font-size="13" lengthAdjust="spacing" textLength="96.0718" x="370.9487" y="320.5859">INSERT INTO ...</text></g><g class="message" data-participant-1="DB" data-participant-2="Svc"><polygon fill="#059669" points="374.9487,350.6387,364.9487,354.6387,374.9487,358.6387,370.9487,354.6387" style="stroke:#059669;stroke-width:1;"/><line style="stroke:#059669;stroke-width:1;stroke-dasharray:2,2;" x1="368.9487" x2="494.0024" y1="354.6387" y2="354.6387"/><text fill="#000000" font-family="Segoe UI" font-size="13" lengthAdjust="spacing" textLength="76.4575" x="380.9487" y="349.8965">Created row</text></g><g class="message" data-participant-1="Svc" data-participant-2="GW"><polygon fill="#059669" points="232.0308,379.9492,222.0308,383.9492,232.0308,387.9492,228.0308,383.9492" style="stroke:#059669;stroke-width:1;"/><line style="stroke:#059669;stroke-width:1;stroke-dasharray:2,2;" x1="226.0308" x2="357.9487" y1="383.9492" y2="383.9492"/><text fill="#000000" font-family="Segoe UI" font-size="13" lengthAdjust="spacing" textLength="77.7969" x="238.0308" y="379.207">201 Created</text></g><g class="message" data-participant-1="GW" data-participant-2="Client"><polygon fill="#059669" points="42.7524,409.2598,32.7524,413.2598,42.7524,417.2598,38.7524,413.2598" style="stroke:#059669;stroke-width:1;"/><line style="stroke:#059669;stroke-width:1;stroke-dasharray:2,2;" x1="36.7524" x2="215.0308" y1="413.2598" y2="413.2598"/><text fill="#000000" font-family="Segoe UI" font-size="13" lengthAdjust="spacing" textLength="77.7969" x="48.7524" y="408.5176">201 Created</text></g><!--SRC=[TP9DR-8m48Rl_XKZEFFT1Oh4Idma20bHjg7jeSl194Em6koiRM3HQl_xJa8WOKkJWos_xynudh7v43BcckzWpVsFKAkz34OgKXhAhfFyp5mTPii3THGoX0sF31QK03Ty7rbNIJldEuIIXw52U9cMYk7uQu_IH_Z3WBw1rkgObQf_Usot7zFZ1TTM-2BcqWwL3b1dbgRJRG-6dop_NzhfkWzkDxNDn0PdGk9Dca6pDUmqKtseVjz8RgFhrXjNwHCEroKzbUVAtcRrEvrrgw3TGTboEkmlOrRO267nv2sXPlW6xQaYf8dHjq99yrC-eq-9WSDPX5naBCxxXj8e4YXj2RY1y_PM7YocCE4MZ_oKUYPlK1uFdG4DzCPd3dubkuUlTd4aE4qeZV0EFho_rtR2rygWFWWVJUsklRPQNS47tF8rD_G45ihOKAFtOvQc6my9myXvS4QCIM84we0wAKBKgCor0e_5_IhLhTr5vTeqfrNpDLABNkhCp-5Lu970WNVaOKX5NgQh5KCPG5ANiJCkg7nFeFI-d0NZj1ueVyekUw6qfRW4JGzem2Jgv5KRcxiJyM8_Twf5kBMWDbdSAuz4mFDGMAlWn5Y_3-CBl7wViSHCjOXR3wPpptbUqh9yWcgrcXShKALjvNgtKKece3iUMO05UvRtqdopthXuYxvaB4chPCjeVMcTlB5_]--></g></svg>