<svg xmlns="http://www.w3.org/2000/svg" xmlns:xlink="http://www.w3.org/1999/xlink" contentStyleType="text/css" data-diagram-type="SEQUENCE" height="576px" preserveAspectRatio="none" style="width:665px;height:576px;background:#FEFEFE;" version="1.1" viewBox="0 0 665 576" width="665px" zoomAndPan="magnify"><title>GET /weather/current</title><defs/><g><rect fill="#FEFEFE" height="576" style="stroke:none;stroke-width:1;" width="665" x="0" y="0"/><text fill="#000000" font-family="Segoe UI" font-size="14" font-weight="bold" lengthAdjust="spacing" textLength="159.3457" x="249.2539" y="28.5352">GET /weather/current</text><text fill="#000000" font-family="Segoe UI" font-size="14" font-weight="bold" lengthAdjust="spacing" textLength="224.2461" x="216.8037" y="45.0234">Get current weather conditions</text><g><title>API Gateway</title><rect fill="#2563EB" height="291.7949" style="stroke:#A23B72;stroke-width:1;" width="10" x="188.6299" y="188.0859"/></g><g><title>svc-weather</title><rect fill="#2563EB" height="233.1738" style="stroke:#A23B72;stroke-width:1;" width="10" x="302.7646" y="217.3965"/></g><g><title>OpenWeather API</title><rect fill="#DBEAFE" height="29.3105" style="stroke:#A23B72;stroke-width:1;" width="10" x="485.2827" y="290.0176"/></g><g><title>Valkey . PG</title><rect fill="#FCE4EC" height="29.3105" style="stroke:#A23B72;stroke-width:1;" width="10" x="604.8174" y="391.9492"/></g><g><title>Client</title><rect fill="#000000" fill-opacity="0.00000" height="376.416" width="8" x="27.7524" y="121.4648"/><line style="stroke:#A23B72;stroke-width:0.5;stroke-dasharray:5,5;" x1="31" x2="31" y1="121.4648" y2="497.8809"/></g><g><title>API Gateway</title><rect fill="#000000" fill-opacity="0.00000" height="376.416" width="8" x="189.6299" y="121.4648"/><line style="stroke:#A23B72;stroke-width:0.5;stroke-dasharray:5,5;" x1="193.3408" x2="193.3408" y1="121.4648" y2="497.8809"/></g><g><title>svc-weather</title><rect fill="#000000" fill-opacity="0.00000" height="376.416" width="8" x="303.7646" y="121.4648"/><line style="stroke:#A23B72;stroke-width:0.5;stroke-dasharray:5,5;" x1="307.0518" x2="307.0518" y1="121.4648" y2="497.8809"/></g><g><title>OpenWeather API</title><rect fill="#000000" fill-opacity="0.00000" height="376.416" width="8" x="486.2827" y="121.4648"/><line style="stroke:#A23B72;stroke-width:0.5;stroke-dasharray:5,5;" x1="489.7842" x2="489.7842" y1="121.4648" y2="497.8809"/></g><g><title>Valkey . PG</title><rect fill="#000000" fill-opacity="0.00000" height="376.416" width="8" x="605.8174" y="121.4648"/><line style="stroke:#A23B72;stroke-width:0.5;stroke-dasharray:5,5;" x1="609.7813" x2="609.7813" y1="121.4648" y2="497.8809"/></g><g class="participant participant-head" data-participant="Client"><rect fill="#E8F4F8" height="30.4883" rx="2.5" ry="2.5" style="stroke:#2E86AB;stroke-width:0.5;" width="53.5049" x="5" y="89.9766"/><text fill="#000000" font-family="Segoe UI" font-size="14" lengthAdjust="spacing" textLength="39.5049" x="12" y="110.5117">Client</text></g><g class="participant participant-tail" data-participant="Client"><rect fill="#E8F4F8" height="30.4883" rx="2.5" ry="2.5" style="stroke:#2E86AB;stroke-width:0.5;" width="53.5049" x="5" y="496.8809"/><text fill="#000000" font-family="Segoe UI" font-size="14" lengthAdjust="spacing" textLength="39.5049" x="12" y="517.416">Client</text></g><g class="participant participant-head" data-participant="GW"><rect fill="#DBEAFE" height="30.4883" rx="2.5" ry="2.5" style="stroke:#2E86AB;stroke-width:0.5;" width="96.5781" x="145.3408" y="89.9766"/><text fill="#000000" font-family="Segoe UI" font-size="14" lengthAdjust="spacing" textLength="82.5781" x="152.3408" y="110.5117">API Gateway</text></g><g class="participant participant-tail" data-participant="GW"><rect fill="#DBEAFE" height="30.4883" rx="2.5" ry="2.5" style="stroke:#2E86AB;stroke-width:0.5;" width="96.5781" x="145.3408" y="496.8809"/><text fill="#000000" font-family="Segoe UI" font-size="14" lengthAdjust="spacing" textLength="82.5781" x="152.3408" y="517.416">API Gateway</text></g><g class="participant participant-head" data-participant="Svc"><a href="/microservices/svc-weather/" target="_top" title="/microservices/svc-weather/" xlink:actuate="onRequest" xlink:href="/microservices/svc-weather/" xlink:show="new" xlink:title="/microservices/svc-weather/" xlink:type="simple"><rect fill="#E8F4F8" height="30.4883" rx="2.5" ry="2.5" style="stroke:#2E86AB;stroke-width:0.5;" width="97.4258" x="259.0518" y="89.9766"/><text fill="#000000" font-family="Segoe UI" font-size="14" lengthAdjust="spacing" textLength="83.4258" x="266.0518" y="110.5117">svc-weather</text></a></g><g class="participant participant-tail" data-participant="Svc"><a href="/microservices/svc-weather/" target="_top" title="/microservices/svc-weather/" xlink:actuate="onRequest" xlink:href="/microservices/svc-weather/" xlink:show="new" xlink:title="/microservices/svc-weather/" xlink:type="simple"><rect fill="#E8F4F8" height="30.4883" rx="2.5" ry="2.5" style="stroke:#2E86AB;stroke-width:0.5;" width="97.4258" x="259.0518" y="496.8809"/><text fill="#000000" font-family="Segoe UI" font-size="14" lengthAdjust="spacing" textLength="83.4258" x="266.0518" y="517.416">svc-weather</text></a></g><g class="participant participant-head" data-participant="ExtWx"><rect fill="#F5F5F5" height="30.4883" rx="2.5" ry="2.5" style="stroke:#2E86AB;stroke-width:0.5;" width="130.9971" x="424.7842" y="89.9766"/><text fill="#000000" font-family="Segoe UI" font-size="14" lengthAdjust="spacing" textLength="116.9971" x="431.7842" y="110.5117">OpenWeather API</text></g><g class="participant participant-tail" data-participant="ExtWx"><rect fill="#F5F5F5" height="30.4883" rx="2.5" ry="2.5" style="stroke:#2E86AB;stroke-width:0.5;" width="130.9971" x="424.7842" y="496.8809"/><text fill="#000000" font-family="Segoe UI" font-size="14" lengthAdjust="spacing" textLength="116.9971" x="431.7842" y="517.416">OpenWeather API</text></g><g class="participant participant-head" data-participant="DB"><text fill="#000000" font-family="Segoe UI" font-size="14" lengthAdjust="spacing" textLength="82.0723" x="565.7813" y="118.5117">Valkey + PG</text><path d="M591.8174,68.9766 C591.8174,58.9766 609.8174,58.9766 609.8174,58.9766 C609.8174,58.9766 627.8174,58.9766 627.8174,68.9766 L627.8174,94.9766 C627.8174,104.9766 609.8174,104.9766 609.8174,104.9766 C609.8174,104.9766 591.8174,104.9766 591.8174,94.9766 L591.8174,68.9766" fill="#FCE4EC" style="stroke:#181818;stroke-width:0.5;"/><path d="M591.8174,68.9766 C591.8174,78.9766 609.8174,78.9766 609.8174,78.9766 C609.8174,78.9766 627.8174,78.9766 627.8174,68.9766" fill="none" style="stroke:#181818;stroke-width:0.5;"/></g><g class="participant participant-tail" data-participant="DB"><text fill="#000000" font-family="Segoe UI" font-size="14" lengthAdjust="spacing" textLength="82.0723" x="565.7813" y="510.416">Valkey + PG</text><path d="M591.8174,523.3691 C591.8174,513.3691 609.8174,513.3691 609.8174,513.3691 C609.8174,513.3691 627.8174,513.3691 627.8174,523.3691 L627.8174,549.3691 C627.8174,559.3691 609.8174,559.3691 609.8174,559.3691 C609.8174,559.3691 591.8174,559.3691 591.8174,549.3691 L591.8174,523.3691" fill="#FCE4EC" style="stroke:#181818;stroke-width:0.5;"/><path d="M591.8174,523.3691 C591.8174,533.3691 609.8174,533.3691 609.8174,533.3691 C609.8174,533.3691 627.8174,533.3691 627.8174,523.3691" fill="none" style="stroke:#181818;stroke-width:0.5;"/></g><g><title>API Gateway</title><rect fill="#2563EB" height="291.7949" style="stroke:#A23B72;stroke-width:1;" width="10" x="188.6299" y="188.0859"/></g><g><title>svc-weather</title><rect fill="#2563EB" height="233.1738" style="stroke:#A23B72;stroke-width:1;" width="10" x="302.7646" y="217.3965"/></g><g><title>OpenWeather API</title><rect fill="#DBEAFE" height="29.3105" style="stroke:#A23B72;stroke-width:1;" width="10" x="485.2827" y="290.0176"/></g><g><title>Valkey . PG</title><rect fill="#FCE4EC" height="29.3105" style="stroke:#A23B72;stroke-width:1;" width="10" x="604.8174" y="391.9492"/></g><path d="M237,136.4648 L237,161.4648 L377,161.4648 L377,146.4648 L367,136.4648 L237,136.4648" fill="#FEFFDD" style="stroke:#181818;stroke-width:0.5;"/><path d="M367,136.4648 L367,146.4648 L377,146.4648 L367,136.4648" fill="#FEFFDD" style="stroke:#181818;stroke-width:0.5;"/><a href="/services/api/svc-weather.html#/Weather/getCurrentWeather" target="_top" title="/services/api/svc-weather.html#/Weather/getCurrentWeather" xlink:actuate="onRequest" xlink:href="/services/api/svc-weather.html#/Weather/getCurrentWeather" xlink:show="new" xlink:title="/services/api/svc-weather.html#/Weather/getCurrentWeather" xlink:type="simple"><text fill="#0000FF" font-family="Segoe UI" font-size="13" lengthAdjust="spacing" text-decoration="underline" textLength="119.4058" x="243" y="154.0332">View in Swagger UI</text></a><g class="message" data-participant-1="Client" data-participant-2="GW"><polygon fill="#2563EB" points="176.6299,184.0859,186.6299,188.0859,176.6299,192.0859,180.6299,188.0859" style="stroke:#2563EB;stroke-width:1;"/><line style="stroke:#2563EB;stroke-width:1;" x1="31.7524" x2="182.6299" y1="188.0859" y2="188.0859"/><text fill="#000000" font-family="Segoe UI" font-size="13" lengthAdjust="spacing" textLength="137.8774" x="38.7524" y="183.3438">GET /weather/current</text></g><g class="message" data-participant-1="GW" data-participant-2="Svc"><polygon fill="#2563EB" points="290.7646,213.3965,300.7646,217.3965,290.7646,221.3965,294.7646,217.3965" style="stroke:#2563EB;stroke-width:1;"/><line style="stroke:#2563EB;stroke-width:1;" x1="198.6299" x2="296.7646" y1="217.3965" y2="217.3965"/><text fill="#000000" font-family="Segoe UI" font-size="13" lengthAdjust="spacing" textLength="85.1348" x="205.6299" y="212.6543">route request</text></g><rect fill="#EEEEEE" height="3" style="stroke:#EEEEEE;stroke-width:1;" width="658.8535" x="0" y="246.0518"/><line style="stroke:#000000;stroke-width:1;" x1="0" x2="658.8535" y1="246.0518" y2="246.0518"/><line style="stroke:#000000;stroke-width:1;" x1="0" x2="658.8535" y1="249.0518" y2="249.0518"/><rect fill="#EEEEEE" height="23.3105" style="stroke:#000000;stroke-width:2;" width="190.6743" x="234.0896" y="235.3965"/><text fill="#000000" font-family="Segoe UI" font-size="13" font-weight="bold" lengthAdjust="spacing" textLength="172.3896" x="240.0896" y="251.9648">Cross-Service Integration</text><g class="message" data-participant-1="Svc" data-participant-2="ExtWx"><polygon fill="#2563EB" points="473.2827,286.0176,483.2827,290.0176,473.2827,294.0176,477.2827,290.0176" style="stroke:#2563EB;stroke-width:1;"/><line style="stroke:#2563EB;stroke-width:1;" x1="312.7646" x2="479.2827" y1="290.0176" y2="290.0176"/><text fill="#000000" font-family="Segoe UI" font-size="13" lengthAdjust="spacing" textLength="153.5181" x="319.7646" y="285.2754">Fetch current conditions</text></g><g class="message" data-participant-1="ExtWx" data-participant-2="Svc"><polygon fill="#2563EB" points="323.7646,315.3281,313.7646,319.3281,323.7646,323.3281,319.7646,319.3281" style="stroke:#2563EB;stroke-width:1;"/><line style="stroke:#2563EB;stroke-width:1;stroke-dasharray:2,2;" x1="317.7646" x2="489.2827" y1="319.3281" y2="319.3281"/><text fill="#000000" font-family="Segoe UI" font-size="13" lengthAdjust="spacing" textLength="18.5859" x="329.7646" y="314.5859">OK</text></g><rect fill="#EEEEEE" height="3" style="stroke:#EEEEEE;stroke-width:1;" width="658.8535" x="0" y="347.9834"/><line style="stroke:#000000;stroke-width:1;" x1="0" x2="658.8535" y1="347.9834" y2="347.9834"/><line style="stroke:#000000;stroke-width:1;" x1="0" x2="658.8535" y1="350.9834" y2="350.9834"/><rect fill="#EEEEEE" height="23.3105" style="stroke:#000000;stroke-width:2;" width="80.3711" x="289.2412" y="337.3281"/><text fill="#000000" font-family="Segoe UI" font-size="13" font-weight="bold" lengthAdjust="spacing" textLength="62.0864" x="295.2412" y="353.8965">Database</text><g class="message" data-participant-1="Svc" data-participant-2="DB"><polygon fill="#2563EB" points="592.8174,387.9492,602.8174,391.9492,592.8174,395.9492,596.8174,391.9492" style="stroke:#2563EB;stroke-width:1;"/><line style="stroke:#2563EB;stroke-width:1;" x1="312.7646" x2="598.8174" y1="391.9492" y2="391.9492"/><text fill="#000000" font-family="Segoe UI" font-size="13" lengthAdjust="spacing" textLength="149.2524" x="319.7646" y="387.207">SELECT ... WHERE filters</text></g><g class="message" data-participant-1="DB" data-participant-2="Svc"><polygon fill="#2563EB" points="323.7646,417.2598,313.7646,421.2598,323.7646,425.2598,319.7646,421.2598" style="stroke:#2563EB;stroke-width:1;"/><line style="stroke:#2563EB;stroke-width:1;stroke-dasharray:2,2;" x1="317.7646" x2="608.8174" y1="421.2598" y2="421.2598"/><text fill="#000000" font-family="Segoe UI" font-size="13" lengthAdjust="spacing" textLength="93.209" x="329.7646" y="416.5176">Page of results</text></g><g class="message" data-participant-1="Svc" data-participant-2="GW"><polygon fill="#2563EB" points="209.6299,446.5703,199.6299,450.5703,209.6299,454.5703,205.6299,450.5703" style="stroke:#2563EB;stroke-width:1;"/><line style="stroke:#2563EB;stroke-width:1;stroke-dasharray:2,2;" x1="203.6299" x2="306.7646" y1="450.5703" y2="450.5703"/><text fill="#000000" font-family="Segoe UI" font-size="13" lengthAdjust="spacing" textLength="47.3599" x="215.6299" y="445.8281">200 OK</text></g><g class="message" data-participant-1="GW" data-participant-2="Client"><polygon fill="#2563EB" points="42.7524,475.8809,32.7524,479.8809,42.7524,483.8809,38.7524,479.8809" style="stroke:#2563EB;stroke-width:1;"/><line style="stroke:#2563EB;stroke-width:1;stroke-dasharray:2,2;" x1="36.7524" x2="192.6299" y1="479.8809" y2="479.8809"/><text fill="#000000" font-family="Segoe UI" font-size="13" lengthAdjust="spacing" textLength="47.3599" x="48.7524" y="475.1387">200 OK</text></g><!--SRC=[RLDDR-8m5BpxLppHumhIGbiG4YkHuB1egnOjRJbqEPZa4Qm6cxNDHxNQ_xul8QH9MtAncScRyOnZNwNQ2YCsi1JHQsBqJiM1JhM1Yv1d3xCbmwv5h0zI9R0IgSKA4kDAx58NQkNknGQXCSD48pnD6jNNySyELOJmbm7zXiReGo7Llhdju3B_UogCav7S2kLyRM8qPmhltGxzJvIFfdall0vxEUrEhl1EAgoD6ROxVhUTuxu-rg3mgXTUNfNGfpZ2aF0SljUkFZNgTfUT2lP5b1tUPVyOSzAb26F-2Du1XLkZyQATCQZSRpL61yK62X0YhMBff5QMiUtxkQ4Hf99u3H0MJiiwF9nEO2mS7iHRpXdFuMBayo4LMkFPVTGij7BUR1_1ouktaP7H5irUHcYz2ibRBCgGQuCUjgZcXMaIpuVneviVwVGtsSDYuSHIMBeTpo9znJVu1jDnpXlvH0huDGyOKvGVw3rD8IkKA9afVOYjh7ffhTqclV0ALIz15vpIE_jubdW0gM1s44b2-wV9Oi5GnP29C7RA3PhVitJwNvR2HEJaddBC0ookAItfdIofFb3B19hiQjiAEmFFT3OOG41fskRiT12OA8U94LcjC1Wmbh5fuYckFeJeedLv4oete1nV15iKUjerIqyFFrcCTMvkOdGkeA99qVTXnkzuy0YjLWlcF_Wl3YkPEZGLmKf3j7oNceg4sbfH09Q-VrlL7Vc5o3dVzkNb1sjPmrcOn2Yw-8erdhF_]--></g></svg>