<svg xmlns="http://www.w3.org/2000/svg" xmlns:xlink="http://www.w3.org/1999/xlink" contentStyleType="text/css" data-diagram-type="SEQUENCE" height="611px" preserveAspectRatio="none" style="width:693px;height:611px;background:#FEFEFE;" version="1.1" viewBox="0 0 693 611" width="693px" zoomAndPan="magnify"><title>POST /purchase-orders</title><defs/><g><rect fill="#FEFEFE" height="611" style="stroke:none;stroke-width:1;" width="693" x="0" y="0"/><text fill="#000000" font-family="Segoe UI" font-size="14" font-weight="bold" lengthAdjust="spacing" textLength="172.1357" x="256.6511" y="28.5352">POST /purchase-orders</text><text fill="#000000" font-family="Segoe UI" font-size="14" font-weight="bold" lengthAdjust="spacing" textLength="207.792" x="238.823" y="45.0234">Create a new purchase order</text><g><title>API Gateway</title><rect fill="#059669" height="327.1055" style="stroke:#A23B72;stroke-width:1;" width="10" x="199.7319" y="188.0859"/></g><g><title>svc-inventory-procurement</title><rect fill="#059669" height="268.4844" style="stroke:#A23B72;stroke-width:1;" width="10" x="359.2339" y="217.3965"/></g><g><title>Gear Inventory</title><rect fill="#DBEAFE" height="29.3105" style="stroke:#A23B72;stroke-width:1;" width="10" x="527.0176" y="325.3281"/></g><g><title>PostgreSQL</title><rect fill="#FCE4EC" height="29.3105" style="stroke:#A23B72;stroke-width:1;" width="10" x="635.0132" y="427.2598"/></g><g><title>Client</title><rect fill="#000000" fill-opacity="0.00000" height="411.7266" width="8" x="27.7524" y="121.4648"/><line style="stroke:#A23B72;stroke-width:0.5;stroke-dasharray:5,5;" x1="31" x2="31" y1="121.4648" y2="533.1914"/></g><g><title>API Gateway</title><rect fill="#000000" fill-opacity="0.00000" height="411.7266" width="8" x="200.7319" y="121.4648"/><line style="stroke:#A23B72;stroke-width:0.5;stroke-dasharray:5,5;" x1="204.4429" x2="204.4429" y1="121.4648" y2="533.1914"/></g><g><title>svc-inventory-procurement</title><rect fill="#000000" fill-opacity="0.00000" height="411.7266" width="8" x="360.2339" y="121.4648"/><line style="stroke:#A23B72;stroke-width:0.5;stroke-dasharray:5,5;" x1="364.021" x2="364.021" y1="121.4648" y2="533.1914"/></g><g><title>Gear Inventory</title><rect fill="#000000" fill-opacity="0.00000" height="411.7266" width="8" x="528.0176" y="121.4648"/><line style="stroke:#A23B72;stroke-width:0.5;stroke-dasharray:5,5;" x1="531.4468" x2="531.4468" y1="121.4648" y2="533.1914"/></g><g><title>PostgreSQL</title><rect fill="#000000" fill-opacity="0.00000" height="411.7266" width="8" x="636.0132" y="121.4648"/><line style="stroke:#A23B72;stroke-width:0.5;stroke-dasharray:5,5;" x1="639.5884" x2="639.5884" y1="121.4648" y2="533.1914"/></g><g class="participant participant-head" data-participant="Client"><rect fill="#E8F4F8" height="30.4883" rx="2.5" ry="2.5" style="stroke:#2E86AB;stroke-width:0.5;" width="53.5049" x="5" y="89.9766"/><text fill="#000000" font-family="Segoe UI" font-size="14" lengthAdjust="spacing" textLength="39.5049" x="12" y="110.5117">Client</text></g><g class="participant participant-tail" data-participant="Client"><rect fill="#E8F4F8" height="30.4883" rx="2.5" ry="2.5" style="stroke:#2E86AB;stroke-width:0.5;" width="53.5049" x="5" y="532.1914"/><text fill="#000000" font-family="Segoe UI" font-size="14" lengthAdjust="spacing" textLength="39.5049" x="12" y="552.7266">Client</text></g><g class="participant participant-head" data-participant="GW"><rect fill="#DBEAFE" height="30.4883" rx="2.5" ry="2.5" style="stroke:#2E86AB;stroke-width:0.5;" width="96.5781" x="156.4429" y="89.9766"/><text fill="#000000" font-family="Segoe UI" font-size="14" lengthAdjust="spacing" textLength="82.5781" x="163.4429" y="110.5117">API Gateway</text></g><g class="participant participant-tail" data-participant="GW"><rect fill="#DBEAFE" height="30.4883" rx="2.5" ry="2.5" style="stroke:#2E86AB;stroke-width:0.5;" width="96.5781" x="156.4429" y="532.1914"/><text fill="#000000" font-family="Segoe UI" font-size="14" lengthAdjust="spacing" textLength="82.5781" x="163.4429" y="552.7266">API Gateway</text></g><g class="participant participant-head" data-participant="Svc"><a href="/microservices/svc-inventory-procurement/" target="_top" title="/microservices/svc-inventory-procurement/" xlink:actuate="onRequest" xlink:href="/microservices/svc-inventory-procurement/" xlink:show="new" xlink:title="/microservices/svc-inventory-procurement/" xlink:type="simple"><rect fill="#E8F4F8" height="30.4883" rx="2.5" ry="2.5" style="stroke:#2E86AB;stroke-width:0.5;" width="202.4258" x="263.021" y="89.9766"/><text fill="#000000" font-family="Segoe UI" font-size="14" lengthAdjust="spacing" textLength="188.4258" x="270.021" y="110.5117">svc-inventory-procurement</text></a></g><g class="participant participant-tail" data-participant="Svc"><a href="/microservices/svc-inventory-procurement/" target="_top" title="/microservices/svc-inventory-procurement/" xlink:actuate="onRequest" xlink:href="/microservices/svc-inventory-procurement/" xlink:show="new" xlink:title="/microservices/svc-inventory-procurement/" xlink:type="simple"><rect fill="#E8F4F8" height="30.4883" rx="2.5" ry="2.5" style="stroke:#2E86AB;stroke-width:0.5;" width="202.4258" x="263.021" y="532.1914"/><text fill="#000000" font-family="Segoe UI" font-size="14" lengthAdjust="spacing" textLength="188.4258" x="270.021" y="552.7266">svc-inventory-procurement</text></a></g><g class="participant participant-head" data-participant="GI"><a href="/microservices/svc-gear-inventory/" target="_top" title="/microservices/svc-gear-inventory/" xlink:actuate="onRequest" xlink:href="/microservices/svc-gear-inventory/" xlink:show="new" xlink:title="/microservices/svc-gear-inventory/" xlink:type="simple"><rect fill="#FFF8F0" height="30.4883" rx="2.5" ry="2.5" style="stroke:#2E86AB;stroke-width:0.5;" width="113.1416" x="475.4468" y="89.9766"/><text fill="#000000" font-family="Segoe UI" font-size="14" lengthAdjust="spacing" textLength="99.1416" x="482.4468" y="110.5117">Gear Inventory</text></a></g><g class="participant participant-tail" data-participant="GI"><a href="/microservices/svc-gear-inventory/" target="_top" title="/microservices/svc-gear-inventory/" xlink:actuate="onRequest" xlink:href="/microservices/svc-gear-inventory/" xlink:show="new" xlink:title="/microservices/svc-gear-inventory/" xlink:type="simple"><rect fill="#FFF8F0" height="30.4883" rx="2.5" ry="2.5" style="stroke:#2E86AB;stroke-width:0.5;" width="113.1416" x="475.4468" y="532.1914"/><text fill="#000000" font-family="Segoe UI" font-size="14" lengthAdjust="spacing" textLength="99.1416" x="482.4468" y="552.7266">Gear Inventory</text></a></g><g class="participant participant-head" data-participant="DB"><text fill="#000000" font-family="Segoe UI" font-size="14" lengthAdjust="spacing" textLength="76.8496" x="598.5884" y="118.5117">PostgreSQL</text><path d="M622.0132,68.9766 C622.0132,58.9766 640.0132,58.9766 640.0132,58.9766 C640.0132,58.9766 658.0132,58.9766 658.0132,68.9766 L658.0132,94.9766 C658.0132,104.9766 640.0132,104.9766 640.0132,104.9766 C640.0132,104.9766 622.0132,104.9766 622.0132,94.9766 L622.0132,68.9766" fill="#FCE4EC" style="stroke:#181818;stroke-width:0.5;"/><path d="M622.0132,68.9766 C622.0132,78.9766 640.0132,78.9766 640.0132,78.9766 C640.0132,78.9766 658.0132,78.9766 658.0132,68.9766" fill="none" style="stroke:#181818;stroke-width:0.5;"/></g><g class="participant participant-tail" data-participant="DB"><text fill="#000000" font-family="Segoe UI" font-size="14" lengthAdjust="spacing" textLength="76.8496" x="598.5884" y="545.7266">PostgreSQL</text><path d="M622.0132,558.6797 C622.0132,548.6797 640.0132,548.6797 640.0132,548.6797 C640.0132,548.6797 658.0132,548.6797 658.0132,558.6797 L658.0132,584.6797 C658.0132,594.6797 640.0132,594.6797 640.0132,594.6797 C640.0132,594.6797 622.0132,594.6797 622.0132,584.6797 L622.0132,558.6797" fill="#FCE4EC" style="stroke:#181818;stroke-width:0.5;"/><path d="M622.0132,558.6797 C622.0132,568.6797 640.0132,568.6797 640.0132,568.6797 C640.0132,568.6797 658.0132,568.6797 658.0132,558.6797" fill="none" style="stroke:#181818;stroke-width:0.5;"/></g><g><title>API Gateway</title><rect fill="#059669" height="327.1055" style="stroke:#A23B72;stroke-width:1;" width="10" x="199.7319" y="188.0859"/></g><g><title>svc-inventory-procurement</title><rect fill="#059669" height="268.4844" style="stroke:#A23B72;stroke-width:1;" width="10" x="359.2339" y="217.3965"/></g><g><title>Gear Inventory</title><rect fill="#DBEAFE" height="29.3105" style="stroke:#A23B72;stroke-width:1;" width="10" x="527.0176" y="325.3281"/></g><g><title>PostgreSQL</title><rect fill="#FCE4EC" height="29.3105" style="stroke:#A23B72;stroke-width:1;" width="10" x="635.0132" y="427.2598"/></g><path d="M294,136.4648 L294,161.4648 L434,161.4648 L434,146.4648 L424,136.4648 L294,136.4648" fill="#FEFFDD" style="stroke:#181818;stroke-width:0.5;"/><path d="M424,136.4648 L424,146.4648 L434,146.4648 L424,136.4648" fill="#FEFFDD" style="stroke:#181818;stroke-width:0.5;"/><a href="/services/api/svc-inventory-procurement.html" target="_top" title="/services/api/svc-inventory-procurement.html" xlink:actuate="onRequest" xlink:href="/services/api/svc-inventory-procurement.html" xlink:show="new" xlink:title="/services/api/svc-inventory-procurement.html" xlink:type="simple"><text fill="#0000FF" font-family="Segoe UI" font-size="13" lengthAdjust="spacing" text-decoration="underline" textLength="119.4058" x="300" y="154.0332">View in Swagger UI</text></a><g class="message" data-participant-1="Client" data-participant-2="GW"><polygon fill="#059669" points="187.7319,184.0859,197.7319,188.0859,187.7319,192.0859,191.7319,188.0859" style="stroke:#059669;stroke-width:1;"/><line style="stroke:#059669;stroke-width:1;" x1="31.7524" x2="193.7319" y1="188.0859" y2="188.0859"/><text fill="#000000" font-family="Segoe UI" font-size="13" lengthAdjust="spacing" textLength="148.9795" x="38.7524" y="183.3438">POST /purchase-orders</text></g><g class="message" data-participant-1="GW" data-participant-2="Svc"><polygon fill="#059669" points="347.2339,213.3965,357.2339,217.3965,347.2339,221.3965,351.2339,217.3965" style="stroke:#059669;stroke-width:1;"/><line style="stroke:#059669;stroke-width:1;" x1="209.7319" x2="353.2339" y1="217.3965" y2="217.3965"/><text fill="#000000" font-family="Segoe UI" font-size="13" lengthAdjust="spacing" textLength="85.1348" x="216.7319" y="212.6543">route request</text></g><path d="M374,230.3965 L374,255.3965 L532,255.3965 L532,240.3965 L522,230.3965 L374,230.3965" fill="#FEFFDD" style="stroke:#181818;stroke-width:0.5;"/><path d="M522,230.3965 L522,240.3965 L532,240.3965 L522,230.3965" fill="#FEFFDD" style="stroke:#181818;stroke-width:0.5;"/><text fill="#000000" font-family="Segoe UI" font-size="13" lengthAdjust="spacing" textLength="137.5728" x="380" y="247.9648">Validate request body</text><rect fill="#EEEEEE" height="3" style="stroke:#EEEEEE;stroke-width:1;" width="686.438" x="0" y="281.3623"/><line style="stroke:#000000;stroke-width:1;" x1="0" x2="686.438" y1="281.3623" y2="281.3623"/><line style="stroke:#000000;stroke-width:1;" x1="0" x2="686.438" y1="284.3623" y2="284.3623"/><rect fill="#EEEEEE" height="23.3105" style="stroke:#000000;stroke-width:2;" width="190.6743" x="247.8818" y="270.707"/><text fill="#000000" font-family="Segoe UI" font-size="13" font-weight="bold" lengthAdjust="spacing" textLength="172.3896" x="253.8818" y="287.2754">Cross-Service Integration</text><g class="message" data-participant-1="Svc" data-participant-2="GI"><polygon fill="#059669" points="515.0176,321.3281,525.0176,325.3281,515.0176,329.3281,519.0176,325.3281" style="stroke:#059669;stroke-width:1;"/><line style="stroke:#059669;stroke-width:1;" x1="369.2339" x2="521.0176" y1="325.3281" y2="325.3281"/><a href="/microservices/svc-gear-inventory/" target="_top" title="/microservices/svc-gear-inventory/" xlink:actuate="onRequest" xlink:href="/microservices/svc-gear-inventory/" xlink:show="new" xlink:title="/microservices/svc-gear-inventory/" xlink:type="simple"><text fill="#0000FF" font-family="Segoe UI" font-size="13" lengthAdjust="spacing" text-decoration="underline" textLength="118.3457" x="376.2339" y="320.5859">Verify item catalog</text></a></g><g class="message" data-participant-1="GI" data-participant-2="Svc"><polygon fill="#059669" points="380.2339,350.6387,370.2339,354.6387,380.2339,358.6387,376.2339,354.6387" style="stroke:#059669;stroke-width:1;"/><line style="stroke:#059669;stroke-width:1;stroke-dasharray:2,2;" x1="374.2339" x2="531.0176" y1="354.6387" y2="354.6387"/><text fill="#000000" font-family="Segoe UI" font-size="13" lengthAdjust="spacing" textLength="18.5859" x="386.2339" y="349.8965">OK</text></g><rect fill="#EEEEEE" height="3" style="stroke:#EEEEEE;stroke-width:1;" width="686.438" x="0" y="383.2939"/><line style="stroke:#000000;stroke-width:1;" x1="0" x2="686.438" y1="383.2939" y2="383.2939"/><line style="stroke:#000000;stroke-width:1;" x1="0" x2="686.438" y1="386.2939" y2="386.2939"/><rect fill="#EEEEEE" height="23.3105" style="stroke:#000000;stroke-width:2;" width="80.3711" x="303.0334" y="372.6387"/><text fill="#000000" font-family="Segoe UI" font-size="13" font-weight="bold" lengthAdjust="spacing" textLength="62.0864" x="309.0334" y="389.207">Database</text><g class="message" data-participant-1="Svc" data-participant-2="DB"><polygon fill="#059669" points="623.0132,423.2598,633.0132,427.2598,623.0132,431.2598,627.0132,427.2598" style="stroke:#059669;stroke-width:1;"/><line style="stroke:#059669;stroke-width:1;" x1="369.2339" x2="629.0132" y1="427.2598" y2="427.2598"/><text fill="#000000" font-family="Segoe UI" font-size="13" lengthAdjust="spacing" textLength="96.0718" x="376.2339" y="422.5176">INSERT INTO ...</text></g><g class="message" data-participant-1="DB" data-participant-2="Svc"><polygon fill="#059669" points="380.2339,452.5703,370.2339,456.5703,380.2339,460.5703,376.2339,456.5703" style="stroke:#059669;stroke-width:1;"/><line style="stroke:#059669;stroke-width:1;stroke-dasharray:2,2;" x1="374.2339" x2="639.0132" y1="456.5703" y2="456.5703"/><text fill="#000000" font-family="Segoe UI" font-size="13" lengthAdjust="spacing" textLength="76.4575" x="386.2339" y="451.8281">Created row</text></g><g class="message" data-participant-1="Svc" data-participant-2="GW"><polygon fill="#059669" points="220.7319,481.8809,210.7319,485.8809,220.7319,489.8809,216.7319,485.8809" style="stroke:#059669;stroke-width:1;"/><line style="stroke:#059669;stroke-width:1;stroke-dasharray:2,2;" x1="214.7319" x2="363.2339" y1="485.8809" y2="485.8809"/><text fill="#000000" font-family="Segoe UI" font-size="13" lengthAdjust="spacing" textLength="77.7969" x="226.7319" y="481.1387">201 Created</text></g><g class="message" data-participant-1="GW" data-participant-2="Client"><polygon fill="#059669" points="42.7524,511.1914,32.7524,515.1914,42.7524,519.1914,38.7524,515.1914" style="stroke:#059669;stroke-width:1;"/><line style="stroke:#059669;stroke-width:1;stroke-dasharray:2,2;" x1="36.7524" x2="203.7319" y1="515.1914" y2="515.1914"/><text fill="#000000" font-family="Segoe UI" font-size="13" lengthAdjust="spacing" textLength="77.7969" x="48.7524" y="510.4492">201 Created</text></g><!--SRC=[ZLDTRzem57tthxYYpq1Bkq8hCOb0Wg9LXItzUEXuCCabM0qsimqKJVllkmu92MihBNc8bNFkyRtdsEPLo3NNV0Lp7h-cMcraCbIPqd0M-EvbviWmIvwedP0fB7Xci8OakE2Rp0PAsdk-GcX4c2g4nx1HByTV6vGnmcy6z0oqLhjYg_ClDzVND_dlATTMn6BDfVMKJb0Nb8xVknvuxoZ_DkttWgkWbzFkn0BlXCGJcK7dqkjsSjnJRoTGSD4BpY-Eq3ixWe3m7BvNzbGrxdRdbpNi0oil_IxxmvWLDaEOJg87QAytEbvoWyrSoloKGutS8d2Gk8CIXHnbR5rD3OrX9b3Q1d03X-KfF9Y6C2Qf7T_ddF4pd8qyVq1ndl3CDcuAkQLwfVVDjLRnHkEgL8wsCRoyj5SYrigWteeOJVlJalPiThJ_P9CnSWrXMNBe9_nOE2LgfPuh5hOdtFAvSwCnLSQc6gFlTxdKo2FEqB_oXun9yXxK5hLhdTAWFOxoV2q-xxsrjAiCdWJPBYH4Evwc9F8OpcOCPG9Ebx63qT3ywkoy_JX3ncChjYv4Ptbnh6b9HSxDMw1JGQ1sLy7OYkt0aduOGujqQK4jYheddec4LwKmLycUiNuVXkIXQKQ7ESbdYwdcLYW9_JvZhjfr79B6_rWEJwZ5OW_2uWfYCZrJARbGZHKUJn8jcyUv9jzOWZLMtjge3AtM2ULr2-5zvFzueC_315gjLYLVIvEMbVpXPYHatww-pyWhTCjGEkSN9RVESyV1fK2q8iLFgUDdzXS0]--></g></svg>