<svg xmlns="http://www.w3.org/2000/svg" xmlns:xlink="http://www.w3.org/1999/xlink" contentStyleType="text/css" data-diagram-type="SEQUENCE" height="603px" preserveAspectRatio="none" style="width:595px;height:603px;background:#FEFEFE;" version="1.1" viewBox="0 0 595 603" width="595px" zoomAndPan="magnify"><title>PATCH /guides/{guide_id}</title><defs/><g><rect fill="#FEFEFE" height="603" style="stroke:none;stroke-width:1;" width="595" x="0" y="0"/><text fill="#000000" font-family="Segoe UI" font-size="14" font-weight="bold" lengthAdjust="spacing" textLength="189.9434" x="198.9956" y="28.5352">PATCH /guides/{guide_id}</text><text fill="#000000" font-family="Segoe UI" font-size="14" font-weight="bold" lengthAdjust="spacing" textLength="148.3535" x="219.7905" y="45.0234">Update guide profile</text><g><title>API Gateway</title><rect fill="#7C3AED" height="319.1055" style="stroke:#A23B72;stroke-width:1;" width="10" x="215.6582" y="188.0859"/></g><g><title>svc-guide-management</title><rect fill="#7C3AED" height="260.4844" style="stroke:#A23B72;stroke-width:1;" width="10" x="363.1357" y="217.3965"/></g><g><title>PostgreSQL</title><rect fill="#FCE4EC" height="29.3105" style="stroke:#A23B72;stroke-width:1;" width="10" x="537.5098" y="325.3281"/></g><g><title>PostgreSQL</title><rect fill="#FCE4EC" height="29.3105" style="stroke:#A23B72;stroke-width:1;" width="10" x="537.5098" y="419.2598"/></g><g><title>Client</title><rect fill="#000000" fill-opacity="0.00000" height="403.7266" width="8" x="27.7524" y="121.4648"/><line style="stroke:#A23B72;stroke-width:0.5;stroke-dasharray:5,5;" x1="31" x2="31" y1="121.4648" y2="525.1914"/></g><g><title>API Gateway</title><rect fill="#000000" fill-opacity="0.00000" height="403.7266" width="8" x="216.6582" y="121.4648"/><line style="stroke:#A23B72;stroke-width:0.5;stroke-dasharray:5,5;" x1="220.3691" x2="220.3691" y1="121.4648" y2="525.1914"/></g><g><title>svc-guide-management</title><rect fill="#000000" fill-opacity="0.00000" height="403.7266" width="8" x="364.1357" y="121.4648"/><line style="stroke:#A23B72;stroke-width:0.5;stroke-dasharray:5,5;" x1="367.9473" x2="367.9473" y1="121.4648" y2="525.1914"/></g><g><title>PostgreSQL</title><rect fill="#000000" fill-opacity="0.00000" height="403.7266" width="8" x="538.5098" y="121.4648"/><line style="stroke:#A23B72;stroke-width:0.5;stroke-dasharray:5,5;" x1="542.085" x2="542.085" y1="121.4648" y2="525.1914"/></g><g class="participant participant-head" data-participant="Client"><rect fill="#E8F4F8" height="30.4883" rx="2.5" ry="2.5" style="stroke:#2E86AB;stroke-width:0.5;" width="53.5049" x="5" y="89.9766"/><text fill="#000000" font-family="Segoe UI" font-size="14" lengthAdjust="spacing" textLength="39.5049" x="12" y="110.5117">Client</text></g><g class="participant participant-tail" data-participant="Client"><rect fill="#E8F4F8" height="30.4883" rx="2.5" ry="2.5" style="stroke:#2E86AB;stroke-width:0.5;" width="53.5049" x="5" y="524.1914"/><text fill="#000000" font-family="Segoe UI" font-size="14" lengthAdjust="spacing" textLength="39.5049" x="12" y="544.7266">Client</text></g><g class="participant participant-head" data-participant="GW"><rect fill="#DBEAFE" height="30.4883" rx="2.5" ry="2.5" style="stroke:#2E86AB;stroke-width:0.5;" width="96.5781" x="172.3691" y="89.9766"/><text fill="#000000" font-family="Segoe UI" font-size="14" lengthAdjust="spacing" textLength="82.5781" x="179.3691" y="110.5117">API Gateway</text></g><g class="participant participant-tail" data-participant="GW"><rect fill="#DBEAFE" height="30.4883" rx="2.5" ry="2.5" style="stroke:#2E86AB;stroke-width:0.5;" width="96.5781" x="172.3691" y="524.1914"/><text fill="#000000" font-family="Segoe UI" font-size="14" lengthAdjust="spacing" textLength="82.5781" x="179.3691" y="544.7266">API Gateway</text></g><g class="participant participant-head" data-participant="Svc"><a href="/microservices/svc-guide-management/" target="_top" title="/microservices/svc-guide-management/" xlink:actuate="onRequest" xlink:href="/microservices/svc-guide-management/" xlink:show="new" xlink:title="/microservices/svc-guide-management/" xlink:type="simple"><rect fill="#E8F4F8" height="30.4883" rx="2.5" ry="2.5" style="stroke:#2E86AB;stroke-width:0.5;" width="178.377" x="278.9473" y="89.9766"/><text fill="#000000" font-family="Segoe UI" font-size="14" lengthAdjust="spacing" textLength="164.377" x="285.9473" y="110.5117">svc-guide-management</text></a></g><g class="participant participant-tail" data-participant="Svc"><a href="/microservices/svc-guide-management/" target="_top" title="/microservices/svc-guide-management/" xlink:actuate="onRequest" xlink:href="/microservices/svc-guide-management/" xlink:show="new" xlink:title="/microservices/svc-guide-management/" xlink:type="simple"><rect fill="#E8F4F8" height="30.4883" rx="2.5" ry="2.5" style="stroke:#2E86AB;stroke-width:0.5;" width="178.377" x="278.9473" y="524.1914"/><text fill="#000000" font-family="Segoe UI" font-size="14" lengthAdjust="spacing" textLength="164.377" x="285.9473" y="544.7266">svc-guide-management</text></a></g><g class="participant participant-head" data-participant="DB"><text fill="#000000" font-family="Segoe UI" font-size="14" lengthAdjust="spacing" textLength="76.8496" x="501.085" y="118.5117">PostgreSQL</text><path d="M524.5098,68.9766 C524.5098,58.9766 542.5098,58.9766 542.5098,58.9766 C542.5098,58.9766 560.5098,58.9766 560.5098,68.9766 L560.5098,94.9766 C560.5098,104.9766 542.5098,104.9766 542.5098,104.9766 C542.5098,104.9766 524.5098,104.9766 524.5098,94.9766 L524.5098,68.9766" fill="#FCE4EC" style="stroke:#181818;stroke-width:0.5;"/><path d="M524.5098,68.9766 C524.5098,78.9766 542.5098,78.9766 542.5098,78.9766 C542.5098,78.9766 560.5098,78.9766 560.5098,68.9766" fill="none" style="stroke:#181818;stroke-width:0.5;"/></g><g class="participant participant-tail" data-participant="DB"><text fill="#000000" font-family="Segoe UI" font-size="14" lengthAdjust="spacing" textLength="76.8496" x="501.085" y="537.7266">PostgreSQL</text><path d="M524.5098,550.6797 C524.5098,540.6797 542.5098,540.6797 542.5098,540.6797 C542.5098,540.6797 560.5098,540.6797 560.5098,550.6797 L560.5098,576.6797 C560.5098,586.6797 542.5098,586.6797 542.5098,586.6797 C542.5098,586.6797 524.5098,586.6797 524.5098,576.6797 L524.5098,550.6797" fill="#FCE4EC" style="stroke:#181818;stroke-width:0.5;"/><path d="M524.5098,550.6797 C524.5098,560.6797 542.5098,560.6797 542.5098,560.6797 C542.5098,560.6797 560.5098,560.6797 560.5098,550.6797" fill="none" style="stroke:#181818;stroke-width:0.5;"/></g><g><title>API Gateway</title><rect fill="#7C3AED" height="319.1055" style="stroke:#A23B72;stroke-width:1;" width="10" x="215.6582" y="188.0859"/></g><g><title>svc-guide-management</title><rect fill="#7C3AED" height="260.4844" style="stroke:#A23B72;stroke-width:1;" width="10" x="363.1357" y="217.3965"/></g><g><title>PostgreSQL</title><rect fill="#FCE4EC" height="29.3105" style="stroke:#A23B72;stroke-width:1;" width="10" x="537.5098" y="325.3281"/></g><g><title>PostgreSQL</title><rect fill="#FCE4EC" height="29.3105" style="stroke:#A23B72;stroke-width:1;" width="10" x="537.5098" y="419.2598"/></g><path d="M297,136.4648 L297,161.4648 L437,161.4648 L437,146.4648 L427,136.4648 L297,136.4648" fill="#FEFFDD" style="stroke:#181818;stroke-width:0.5;"/><path d="M427,136.4648 L427,146.4648 L437,146.4648 L427,136.4648" fill="#FEFFDD" style="stroke:#181818;stroke-width:0.5;"/><a href="/services/api/svc-guide-management.html#/Guides/updateGuide" target="_top" title="/services/api/svc-guide-management.html#/Guides/updateGuide" xlink:actuate="onRequest" xlink:href="/services/api/svc-guide-management.html#/Guides/updateGuide" xlink:show="new" xlink:title="/services/api/svc-guide-management.html#/Guides/updateGuide" xlink:type="simple"><text fill="#0000FF" font-family="Segoe UI" font-size="13" lengthAdjust="spacing" text-decoration="underline" textLength="119.4058" x="303" y="154.0332">View in Swagger UI</text></a><g class="message" data-participant-1="Client" data-participant-2="GW"><polygon fill="#7C3AED" points="203.6582,184.0859,213.6582,188.0859,203.6582,192.0859,207.6582,188.0859" style="stroke:#7C3AED;stroke-width:1;"/><line style="stroke:#7C3AED;stroke-width:1;" x1="31.7524" x2="209.6582" y1="188.0859" y2="188.0859"/><text fill="#000000" font-family="Segoe UI" font-size="13" lengthAdjust="spacing" textLength="164.9058" x="38.7524" y="183.3438">PATCH /guides/{guide_id}</text></g><g class="message" data-participant-1="GW" data-participant-2="Svc"><polygon fill="#7C3AED" points="351.1357,213.3965,361.1357,217.3965,351.1357,221.3965,355.1357,217.3965" style="stroke:#7C3AED;stroke-width:1;"/><line style="stroke:#7C3AED;stroke-width:1;" x1="225.6582" x2="357.1357" y1="217.3965" y2="217.3965"/><a href="/microservices/svc-guide-management/#patch-guidesguide_id-update-guide-profile" target="_top" title="/microservices/svc-guide-management/#patch-guidesguide_id-update-guide-profile" xlink:actuate="onRequest" xlink:href="/microservices/svc-guide-management/#patch-guidesguide_id-update-guide-profile" xlink:show="new" xlink:title="/microservices/svc-guide-management/#patch-guidesguide_id-update-guide-profile" xlink:type="simple"><text fill="#0000FF" font-family="Segoe UI" font-size="13" lengthAdjust="spacing" text-decoration="underline" textLength="85.1348" x="232.6582" y="212.6543">route request</text></a></g><path d="M378,230.3965 L378,255.3965 L536,255.3965 L536,240.3965 L526,230.3965 L378,230.3965" fill="#FEFFDD" style="stroke:#181818;stroke-width:0.5;"/><path d="M526,230.3965 L526,240.3965 L536,240.3965 L526,230.3965" fill="#FEFFDD" style="stroke:#181818;stroke-width:0.5;"/><text fill="#000000" font-family="Segoe UI" font-size="13" lengthAdjust="spacing" textLength="137.5728" x="384" y="247.9648">Validate request body</text><rect fill="#EEEEEE" height="3" style="stroke:#EEEEEE;stroke-width:1;" width="588.9346" x="0" y="281.3623"/><line style="stroke:#000000;stroke-width:1;" x1="0" x2="588.9346" y1="281.3623" y2="281.3623"/><line style="stroke:#000000;stroke-width:1;" x1="0" x2="588.9346" y1="284.3623" y2="284.3623"/><rect fill="#EEEEEE" height="23.3105" style="stroke:#000000;stroke-width:2;" width="80.3711" x="254.2817" y="270.707"/><text fill="#000000" font-family="Segoe UI" font-size="13" font-weight="bold" lengthAdjust="spacing" textLength="62.0864" x="260.2817" y="287.2754">Database</text><g class="message" data-participant-1="Svc" data-participant-2="DB"><polygon fill="#7C3AED" points="525.5098,321.3281,535.5098,325.3281,525.5098,329.3281,529.5098,325.3281" style="stroke:#7C3AED;stroke-width:1;"/><line style="stroke:#7C3AED;stroke-width:1;" x1="373.1357" x2="531.5098" y1="325.3281" y2="325.3281"/><text fill="#000000" font-family="Segoe UI" font-size="13" lengthAdjust="spacing" textLength="145.374" x="380.1357" y="320.5859">SELECT ... FOR UPDATE</text></g><g class="message" data-participant-1="DB" data-participant-2="Svc"><polygon fill="#7C3AED" points="384.1357,350.6387,374.1357,354.6387,384.1357,358.6387,380.1357,354.6387" style="stroke:#7C3AED;stroke-width:1;"/><line style="stroke:#7C3AED;stroke-width:1;stroke-dasharray:2,2;" x1="378.1357" x2="541.5098" y1="354.6387" y2="354.6387"/><text fill="#000000" font-family="Segoe UI" font-size="13" lengthAdjust="spacing" textLength="75.3086" x="390.1357" y="349.8965">Current row</text></g><path d="M378,367.6387 L378,392.6387 L564,392.6387 L564,377.6387 L554,367.6387 L378,367.6387" fill="#FEFFDD" style="stroke:#181818;stroke-width:0.5;"/><path d="M554,367.6387 L554,377.6387 L564,377.6387 L554,367.6387" fill="#FEFFDD" style="stroke:#181818;stroke-width:0.5;"/><text fill="#000000" font-family="Segoe UI" font-size="13" lengthAdjust="spacing" textLength="165.9023" x="384" y="385.207">Merge changed fields only</text><g class="message" data-participant-1="Svc" data-participant-2="DB"><polygon fill="#7C3AED" points="525.5098,415.2598,535.5098,419.2598,525.5098,423.2598,529.5098,419.2598" style="stroke:#7C3AED;stroke-width:1;"/><line style="stroke:#7C3AED;stroke-width:1;" x1="373.1357" x2="531.5098" y1="419.2598" y2="419.2598"/><text fill="#000000" font-family="Segoe UI" font-size="13" lengthAdjust="spacing" textLength="109.4526" x="380.1357" y="414.5176">UPDATE ... SET ...</text></g><g class="message" data-participant-1="DB" data-participant-2="Svc"><polygon fill="#7C3AED" points="384.1357,444.5703,374.1357,448.5703,384.1357,452.5703,380.1357,448.5703" style="stroke:#7C3AED;stroke-width:1;"/><line style="stroke:#7C3AED;stroke-width:1;stroke-dasharray:2,2;" x1="378.1357" x2="541.5098" y1="448.5703" y2="448.5703"/><text fill="#000000" font-family="Segoe UI" font-size="13" lengthAdjust="spacing" textLength="80.2725" x="390.1357" y="443.8281">Updated row</text></g><g class="message" data-participant-1="Svc" data-participant-2="GW"><polygon fill="#7C3AED" points="236.6582,473.8809,226.6582,477.8809,236.6582,481.8809,232.6582,477.8809" style="stroke:#7C3AED;stroke-width:1;"/><line style="stroke:#7C3AED;stroke-width:1;stroke-dasharray:2,2;" x1="230.6582" x2="367.1357" y1="477.8809" y2="477.8809"/><text fill="#000000" font-family="Segoe UI" font-size="13" lengthAdjust="spacing" textLength="47.3599" x="242.6582" y="473.1387">200 OK</text></g><g class="message" data-participant-1="GW" data-participant-2="Client"><polygon fill="#7C3AED" points="42.7524,503.1914,32.7524,507.1914,42.7524,511.1914,38.7524,507.1914" style="stroke:#7C3AED;stroke-width:1;"/><line style="stroke:#7C3AED;stroke-width:1;stroke-dasharray:2,2;" x1="36.7524" x2="219.6582" y1="507.1914" y2="507.1914"/><text fill="#000000" font-family="Segoe UI" font-size="13" lengthAdjust="spacing" textLength="47.3599" x="48.7524" y="502.4492">200 OK</text></g><!--SRC=[ZLFHRXen47ptLwpW6KWWAWY9IiTnHr5fGWia3ocgp7avh1psrJRGACg_r_OT11gg5Xumdl7EU7QjdxZ8gQ8RMDBaALLoArWeCwcW6aVkI_IHeTUKoJqNAQnefl44ORYYsyp4KfXRka6eJ36L2FDHvVGu_joYI11U2DXFe9JSbrBjf4MH-Uq9LOOdFAV2zALYg4fAC-fy2FhlA7-QZZhnJTpnj35VuPWBF2iJD5lzTjFZVVdh38glE_7LzH5w5qSSMzp3jzASLqtQxMNh1BiGPIjgarT233SPmYIOXP-WaMuvGzruyRy_E7lzBkOvemR1xq2kv8fdI4Z-TcEeX1b7OIf0DHJBSpYOZ61eQ-pfi-SC7w0ww4U1RUKPJ- -IcfUfRQYWAMuEHQUx11uV6nkUAAbHxNXYFLvYDnQBO-3MDLrIRLi_aTga2gTVnxxQe6-l7qOtKKY8iDc0tA5o6ZOjgt8Ke3c_A59VcqrMRGoBgBO-7ly7xZdkWGkOxccQsfhpqM91K31mCeGKsK3jeqkW-zV82KqCtxdCNL3b8DgbFUU2wFvd5DMSccHTxEj3yLfXjsINtGGx65PDkTUWZRLyDE3q3WwAh1HFrmRaghHoJpFknwCy34l9dWdfzM1mYB_N8yIHhNsRV1UcqJWAPr2lro6- -mRpoI2OHM-I9zsnozhnqk5MAPUUVQA4uGdzegylg5A4P4r5YWnM73EcGOhi-TnB8UwzJ2FlwTz6YlV0BXWfIX_QsxowWhlFfnGtOgwFbb6EmYNMy87y1W00]--></g></svg>