<svg xmlns="http://www.w3.org/2000/svg" xmlns:xlink="http://www.w3.org/1999/xlink" contentStyleType="text/css" data-diagram-type="SEQUENCE" height="616px" preserveAspectRatio="none" style="width:800px;height:616px;background:#FEFEFE;" version="1.1" viewBox="0 0 800 616" width="800px" zoomAndPan="magnify"><title>POST /guides/{guide_id}/ratings</title><defs/><g><rect fill="#FEFEFE" height="616" style="stroke:none;stroke-width:1;" width="800" x="0" y="0"/><text fill="#000000" font-family="Segoe UI" font-size="14" font-weight="bold" lengthAdjust="spacing" textLength="237.3438" x="277.5798" y="41.3125">POST /guides/{guide_id}/ratings</text><text fill="#000000" font-family="Segoe UI" font-size="14" font-weight="bold" lengthAdjust="spacing" textLength="155.8184" x="318.3425" y="57.8008">Submit a guest rating</text><g><title>API Gateway</title><rect fill="#059669" height="319.1055" style="stroke:#A23B72;stroke-width:1;" width="10" x="255.9785" y="200.8633"/></g><g><title>svc-guide-management</title><rect fill="#059669" height="260.4844" style="stroke:#A23B72;stroke-width:1;" width="10" x="403.4561" y="230.1738"/></g><g><title>PostgreSQL</title><rect fill="#FCE4EC" height="29.3105" style="stroke:#A23B72;stroke-width:1;" width="10" x="609.8604" y="338.1055"/></g><g><title>PostgreSQL</title><rect fill="#FCE4EC" height="29.3105" style="stroke:#A23B72;stroke-width:1;" width="10" x="609.8604" y="432.0371"/></g><g><title>Client</title><rect fill="#000000" fill-opacity="0.00000" height="403.7266" width="8" x="27.7524" y="134.2422"/><line style="stroke:#A23B72;stroke-width:0.5;stroke-dasharray:5,5;" x1="31" x2="31" y1="134.2422" y2="537.9688"/></g><g><title>API Gateway</title><rect fill="#000000" fill-opacity="0.00000" height="403.7266" width="8" x="256.9785" y="134.2422"/><line style="stroke:#A23B72;stroke-width:0.5;stroke-dasharray:5,5;" x1="260.6895" x2="260.6895" y1="134.2422" y2="537.9688"/></g><g><title>svc-guide-management</title><rect fill="#000000" fill-opacity="0.00000" height="403.7266" width="8" x="404.4561" y="134.2422"/><line style="stroke:#A23B72;stroke-width:0.5;stroke-dasharray:5,5;" x1="408.2676" x2="408.2676" y1="134.2422" y2="537.9688"/></g><g><title>PostgreSQL</title><rect fill="#000000" fill-opacity="0.00000" height="403.7266" width="8" x="610.8604" y="134.2422"/><line style="stroke:#A23B72;stroke-width:0.5;stroke-dasharray:5,5;" x1="614.4355" x2="614.4355" y1="134.2422" y2="537.9688"/></g><g class="participant participant-head" data-participant="Client"><a href="/applications/" target="_top" title="/applications/" xlink:actuate="onRequest" xlink:href="/applications/" xlink:show="new" xlink:title="/applications/" xlink:type="simple"><rect fill="#E8F4F8" height="30.4883" rx="2.5" ry="2.5" style="stroke:#2E86AB;stroke-width:0.5;" width="53.5049" x="5" y="102.7539"/><text fill="#000000" font-family="Segoe UI" font-size="14" lengthAdjust="spacing" textLength="39.5049" x="12" y="123.2891">Client</text></a></g><g class="participant participant-tail" data-participant="Client"><a href="/applications/" target="_top" title="/applications/" xlink:actuate="onRequest" xlink:href="/applications/" xlink:show="new" xlink:title="/applications/" xlink:type="simple"><rect fill="#E8F4F8" height="30.4883" rx="2.5" ry="2.5" style="stroke:#2E86AB;stroke-width:0.5;" width="53.5049" x="5" y="536.9688"/><text fill="#000000" font-family="Segoe UI" font-size="14" lengthAdjust="spacing" textLength="39.5049" x="12" y="557.5039">Client</text></a></g><g class="participant participant-head" data-participant="GW"><rect fill="#DBEAFE" height="30.4883" rx="2.5" ry="2.5" style="stroke:#2E86AB;stroke-width:0.5;" width="96.5781" x="212.6895" y="102.7539"/><text fill="#000000" font-family="Segoe UI" font-size="14" lengthAdjust="spacing" textLength="82.5781" x="219.6895" y="123.2891">API Gateway</text></g><g class="participant participant-tail" data-participant="GW"><rect fill="#DBEAFE" height="30.4883" rx="2.5" ry="2.5" style="stroke:#2E86AB;stroke-width:0.5;" width="96.5781" x="212.6895" y="536.9688"/><text fill="#000000" font-family="Segoe UI" font-size="14" lengthAdjust="spacing" textLength="82.5781" x="219.6895" y="557.5039">API Gateway</text></g><g class="participant participant-head" data-participant="Svc"><a href="/microservices/svc-guide-management/" target="_top" title="/microservices/svc-guide-management/" xlink:actuate="onRequest" xlink:href="/microservices/svc-guide-management/" xlink:show="new" xlink:title="/microservices/svc-guide-management/" xlink:type="simple"><rect fill="#E8F4F8" height="30.4883" rx="2.5" ry="2.5" style="stroke:#2E86AB;stroke-width:0.5;" width="178.377" x="319.2676" y="102.7539"/><text fill="#000000" font-family="Segoe UI" font-size="14" lengthAdjust="spacing" textLength="164.377" x="326.2676" y="123.2891">svc-guide-management</text></a></g><g class="participant participant-tail" data-participant="Svc"><a href="/microservices/svc-guide-management/" target="_top" title="/microservices/svc-guide-management/" xlink:actuate="onRequest" xlink:href="/microservices/svc-guide-management/" xlink:show="new" xlink:title="/microservices/svc-guide-management/" xlink:type="simple"><rect fill="#E8F4F8" height="30.4883" rx="2.5" ry="2.5" style="stroke:#2E86AB;stroke-width:0.5;" width="178.377" x="319.2676" y="536.9688"/><text fill="#000000" font-family="Segoe UI" font-size="14" lengthAdjust="spacing" textLength="164.377" x="326.2676" y="557.5039">svc-guide-management</text></a></g><g class="participant participant-head" data-participant="DB"><text fill="#000000" font-family="Segoe UI" font-size="14" lengthAdjust="spacing" textLength="76.8496" x="573.4355" y="131.2891">PostgreSQL</text><path d="M596.8604,81.7539 C596.8604,71.7539 614.8604,71.7539 614.8604,71.7539 C614.8604,71.7539 632.8604,71.7539 632.8604,81.7539 L632.8604,107.7539 C632.8604,117.7539 614.8604,117.7539 614.8604,117.7539 C614.8604,117.7539 596.8604,117.7539 596.8604,107.7539 L596.8604,81.7539" fill="#FCE4EC" style="stroke:#181818;stroke-width:0.5;"/><path d="M596.8604,81.7539 C596.8604,91.7539 614.8604,91.7539 614.8604,91.7539 C614.8604,91.7539 632.8604,91.7539 632.8604,81.7539" fill="none" style="stroke:#181818;stroke-width:0.5;"/></g><g class="participant participant-tail" data-participant="DB"><text fill="#000000" font-family="Segoe UI" font-size="14" lengthAdjust="spacing" textLength="76.8496" x="573.4355" y="550.5039">PostgreSQL</text><path d="M596.8604,563.457 C596.8604,553.457 614.8604,553.457 614.8604,553.457 C614.8604,553.457 632.8604,553.457 632.8604,563.457 L632.8604,589.457 C632.8604,599.457 614.8604,599.457 614.8604,599.457 C614.8604,599.457 596.8604,599.457 596.8604,589.457 L596.8604,563.457" fill="#FCE4EC" style="stroke:#181818;stroke-width:0.5;"/><path d="M596.8604,563.457 C596.8604,573.457 614.8604,573.457 614.8604,573.457 C614.8604,573.457 632.8604,573.457 632.8604,563.457" fill="none" style="stroke:#181818;stroke-width:0.5;"/></g><g><title>API Gateway</title><rect fill="#059669" height="319.1055" style="stroke:#A23B72;stroke-width:1;" width="10" x="255.9785" y="200.8633"/></g><g><title>svc-guide-management</title><rect fill="#059669" height="260.4844" style="stroke:#A23B72;stroke-width:1;" width="10" x="403.4561" y="230.1738"/></g><g><title>PostgreSQL</title><rect fill="#FCE4EC" height="29.3105" style="stroke:#A23B72;stroke-width:1;" width="10" x="609.8604" y="338.1055"/></g><g><title>PostgreSQL</title><rect fill="#FCE4EC" height="29.3105" style="stroke:#A23B72;stroke-width:1;" width="10" x="609.8604" y="432.0371"/></g><path d="M338,149.2422 L338,174.2422 L478,174.2422 L478,159.2422 L468,149.2422 L338,149.2422" fill="#FEFFDD" style="stroke:#181818;stroke-width:0.5;"/><path d="M468,149.2422 L468,159.2422 L478,159.2422 L468,149.2422" fill="#FEFFDD" style="stroke:#181818;stroke-width:0.5;"/><a href="/services/api/svc-guide-management.html#/Ratings/submitGuideRating" target="_top" title="/services/api/svc-guide-management.html#/Ratings/submitGuideRating" xlink:actuate="onRequest" xlink:href="/services/api/svc-guide-management.html#/Ratings/submitGuideRating" xlink:show="new" xlink:title="/services/api/svc-guide-management.html#/Ratings/submitGuideRating" xlink:type="simple"><text fill="#0000FF" font-family="Segoe UI" font-size="13" lengthAdjust="spacing" text-decoration="underline" textLength="119.4058" x="344" y="166.8105">View in Swagger UI</text></a><g class="message" data-participant-1="Client" data-participant-2="GW"><polygon fill="#059669" points="243.9785,196.8633,253.9785,200.8633,243.9785,204.8633,247.9785,200.8633" style="stroke:#059669;stroke-width:1;"/><line style="stroke:#059669;stroke-width:1;" x1="31.7524" x2="249.9785" y1="200.8633" y2="200.8633"/><text fill="#000000" font-family="Segoe UI" font-size="13" lengthAdjust="spacing" textLength="205.2261" x="38.7524" y="196.1211">POST /guides/{guide_id}/ratings</text></g><g class="message" data-participant-1="GW" data-participant-2="Svc"><polygon fill="#059669" points="391.4561,226.1738,401.4561,230.1738,391.4561,234.1738,395.4561,230.1738" style="stroke:#059669;stroke-width:1;"/><line style="stroke:#059669;stroke-width:1;" x1="265.9785" x2="397.4561" y1="230.1738" y2="230.1738"/><text fill="#000000" font-family="Segoe UI" font-size="13" lengthAdjust="spacing" textLength="85.1348" x="272.9785" y="225.4316">route request</text></g><path d="M418,243.1738 L418,268.1738 L576,268.1738 L576,253.1738 L566,243.1738 L418,243.1738" fill="#FEFFDD" style="stroke:#181818;stroke-width:0.5;"/><path d="M566,243.1738 L566,253.1738 L576,253.1738 L566,243.1738" fill="#FEFFDD" style="stroke:#181818;stroke-width:0.5;"/><text fill="#000000" font-family="Segoe UI" font-size="13" lengthAdjust="spacing" textLength="137.5728" x="424" y="260.7422">Validate request body</text><rect fill="#EEEEEE" height="3" style="stroke:#EEEEEE;stroke-width:1;" width="793.5034" x="0" y="294.1396"/><line style="stroke:#000000;stroke-width:1;" x1="0" x2="793.5034" y1="294.1396" y2="294.1396"/><line style="stroke:#000000;stroke-width:1;" x1="0" x2="793.5034" y1="297.1396" y2="297.1396"/><rect fill="#EEEEEE" height="23.3105" style="stroke:#000000;stroke-width:2;" width="80.3711" x="356.5662" y="283.4844"/><text fill="#000000" font-family="Segoe UI" font-size="13" font-weight="bold" lengthAdjust="spacing" textLength="62.0864" x="362.5662" y="300.0527">Database</text><g class="message" data-participant-1="Svc" data-participant-2="DB"><polygon fill="#059669" points="597.8604,334.1055,607.8604,338.1055,597.8604,342.1055,601.8604,338.1055" style="stroke:#059669;stroke-width:1;"/><line style="stroke:#059669;stroke-width:1;" x1="413.4561" x2="603.8604" y1="338.1055" y2="338.1055"/><text fill="#000000" font-family="Segoe UI" font-size="13" lengthAdjust="spacing" textLength="177.4043" x="420.4561" y="333.3633">SELECT parent WHERE id = ?</text></g><g class="message" data-participant-1="DB" data-participant-2="Svc"><polygon fill="#059669" points="424.4561,363.416,414.4561,367.416,424.4561,371.416,420.4561,367.416" style="stroke:#059669;stroke-width:1;"/><line style="stroke:#059669;stroke-width:1;stroke-dasharray:2,2;" x1="418.4561" x2="613.8604" y1="367.416" y2="367.416"/><text fill="#000000" font-family="Segoe UI" font-size="13" lengthAdjust="spacing" textLength="67.2915" x="430.4561" y="362.6738">Parent row</text></g><path d="M619,380.416 L619,405.416 L788,405.416 L788,390.416 L778,380.416 L619,380.416" fill="#FEFFDD" style="stroke:#181818;stroke-width:0.5;"/><path d="M778,380.416 L778,390.416 L788,390.416 L778,380.416" fill="#FEFFDD" style="stroke:#181818;stroke-width:0.5;"/><text fill="#000000" font-family="Segoe UI" font-size="13" lengthAdjust="spacing" textLength="148.5034" x="625" y="397.9844">404 if parent not found</text><g class="message" data-participant-1="Svc" data-participant-2="DB"><polygon fill="#059669" points="597.8604,428.0371,607.8604,432.0371,597.8604,436.0371,601.8604,432.0371" style="stroke:#059669;stroke-width:1;"/><line style="stroke:#059669;stroke-width:1;" x1="413.4561" x2="603.8604" y1="432.0371" y2="432.0371"/><text fill="#000000" font-family="Segoe UI" font-size="13" lengthAdjust="spacing" textLength="96.0718" x="420.4561" y="427.2949">INSERT INTO ...</text></g><g class="message" data-participant-1="DB" data-participant-2="Svc"><polygon fill="#059669" points="424.4561,457.3477,414.4561,461.3477,424.4561,465.3477,420.4561,461.3477" style="stroke:#059669;stroke-width:1;"/><line style="stroke:#059669;stroke-width:1;stroke-dasharray:2,2;" x1="418.4561" x2="613.8604" y1="461.3477" y2="461.3477"/><text fill="#000000" font-family="Segoe UI" font-size="13" lengthAdjust="spacing" textLength="76.4575" x="430.4561" y="456.6055">Created row</text></g><g class="message" data-participant-1="Svc" data-participant-2="GW"><polygon fill="#059669" points="276.9785,486.6582,266.9785,490.6582,276.9785,494.6582,272.9785,490.6582" style="stroke:#059669;stroke-width:1;"/><line style="stroke:#059669;stroke-width:1;stroke-dasharray:2,2;" x1="270.9785" x2="407.4561" y1="490.6582" y2="490.6582"/><text fill="#000000" font-family="Segoe UI" font-size="13" lengthAdjust="spacing" textLength="77.7969" x="282.9785" y="485.916">201 Created</text></g><g class="message" data-participant-1="GW" data-participant-2="Client"><polygon fill="#059669" points="42.7524,515.9688,32.7524,519.9688,42.7524,523.9688,38.7524,519.9688" style="stroke:#059669;stroke-width:1;"/><line style="stroke:#059669;stroke-width:1;stroke-dasharray:2,2;" x1="36.7524" x2="259.9785" y1="519.9688" y2="519.9688"/><text fill="#000000" font-family="Segoe UI" font-size="13" lengthAdjust="spacing" textLength="77.7969" x="48.7524" y="515.2266">201 Created</text></g><a href="/microservices/svc-guide-management/#integration-context" target="_top" title="/microservices/svc-guide-management/#integration-context" xlink:actuate="onRequest" xlink:href="/microservices/svc-guide-management/#integration-context" xlink:show="new" xlink:title="/microservices/svc-guide-management/#integration-context" xlink:type="simple"><text fill="#0000FF" font-family="Segoe UI" font-size="10" lengthAdjust="spacing" text-decoration="underline" textLength="228.584" x="563.9194" y="14.668">&#11014; svc-guide-management Integration Context</text></a><!--SRC=[ZLDTRzem57tthxY2PmYbhD1AR88qOKYePGrj7peqcSG4gudDR0Ejghxkr-nNxPVisk6pPUhW8PRFEVTSdslhHoxcLD4S9ZH-J9LSYCINcLHG3WFx9thBq3EQo1KNAKnffjaUah0fNMGcbC9SqPn1AMAfP73RB-tBsSy54p635mBuwoWbLskhsgVpixDpjpsaol2OpwamNQaIfjQKUj0wwtJVKTus7RJ2HjXoj06ViW4NxA1CftxQRTOTtfLF1r1uqWfh9rleNHnXYBY3hwGvh1etcvFJFUn8bAT1axmICcCKPV3muEKyLb8pjUGnqvvUnfLqmHDMoQcWASkPC5wP2yDIHGsNeX9ZkEp9m9_Vl-0O6_exClW5UJmcn72JCHXUHoFmd4PxB-xxWoUldkMBL7yNqMAISmCKqWNJ1efzGkQxhA7aPnoDIa0r54jx3ZgVPpnsjjf3mmD5PzY77ZLiHP-Th7SFvSjkqC5xTS0xTY0dY9RnVuOr7c-ddr139rJZFHnARLB5ecy3L-soYxFmWqRW4o9mK22NE0pqmD6XozQ0plbHa-hCv5dPkob2yxJBh6T9nHRSSRO2BY1QqJJ5qhTzJ8I91AmR8UlKAfzj41SV3ONGsF0bfkTYMxyHNABSnd81UCKGLFPTQRDZMt13BuwfU3ep8AThtHtDU49tKfZ8v9cGTXikDycrsuHOCdfXQ1SG1OF07m4EpHxW_cjm4m1Fe0rVThvxwUAoicrpM8ZmkPE4xR7VzEPy6hK6yEd61mamjU_ei9d-LHJSZF0pkePgjVfn1xvY22T7MYZgRWPIhvrikFiyUq5ixaXRJ_2VrDuz-Gi0]--></g></svg>