<?plantuml 1.2026.2?><svg xmlns="http://www.w3.org/2000/svg" xmlns:xlink="http://www.w3.org/1999/xlink" contentStyleType="text/css" data-diagram-type="SEQUENCE" height="616px" preserveAspectRatio="none" style="width:595px;height:616px;background:#FEFEFE;" version="1.1" viewBox="0 0 595 616" width="595px" zoomAndPan="magnify"><title>PATCH /guides/{guide_id}
Update guide profile</title><defs/><g><rect fill="#FEFEFE" height="616" style="stroke:none;stroke-width:1;" width="595" x="0" y="0"/><text fill="#000000" font-family="'Segoe UI'" font-size="14" font-weight="bold" lengthAdjust="spacing" textLength="189.9434" x="198.9956" y="41.3125">PATCH /guides/{guide_id}</text><text fill="#000000" font-family="'Segoe UI'" font-size="14" font-weight="bold" lengthAdjust="spacing" textLength="148.3535" x="219.7905" y="57.8008">Update guide profile</text><g><title>API Gateway</title><rect fill="#7C3AED" height="319.1055" style="stroke:#181818;stroke-width:1;" width="10" x="215.6582" y="200.8633"/></g><g><title>svc-guide-management</title><rect fill="#7C3AED" height="260.4844" style="stroke:#181818;stroke-width:1;" width="10" x="363.1357" y="230.1738"/></g><g><title>PostgreSQL</title><rect fill="#FCE4EC" height="29.3105" style="stroke:#181818;stroke-width:1;" width="10" x="537.5098" y="338.1055"/></g><g><title>PostgreSQL</title><rect fill="#FCE4EC" height="29.3105" style="stroke:#181818;stroke-width:1;" width="10" x="537.5098" y="432.0371"/></g><g class="participant-lifeline" data-entity-uid="part1" data-qualified-name="Client" id="part1-lifeline"><g><title>Client</title><rect fill="#000000" fill-opacity="0.00000" height="403.7266" width="8" x="27.7524" y="134.2422"/><line style="stroke:#A23B72;stroke-width:0.5;stroke-dasharray:5,5;" x1="31" x2="31" y1="134.2422" y2="537.9688"/></g></g><g class="participant-lifeline" data-entity-uid="part2" data-qualified-name="GW" id="part2-lifeline"><g><title>API Gateway</title><rect fill="#000000" fill-opacity="0.00000" height="403.7266" width="8" x="216.6582" y="134.2422"/><line style="stroke:#A23B72;stroke-width:0.5;stroke-dasharray:5,5;" x1="220.3691" x2="220.3691" y1="134.2422" y2="537.9688"/></g></g><g class="participant-lifeline" data-entity-uid="part3" data-qualified-name="Svc" id="part3-lifeline"><g><title>svc-guide-management</title><rect fill="#000000" fill-opacity="0.00000" height="403.7266" width="8" x="364.1357" y="134.2422"/><line style="stroke:#A23B72;stroke-width:0.5;stroke-dasharray:5,5;" x1="367.9473" x2="367.9473" y1="134.2422" y2="537.9688"/></g></g><g class="participant-lifeline" data-entity-uid="part4" data-qualified-name="DB" id="part4-lifeline"><g><title>PostgreSQL</title><rect fill="#000000" fill-opacity="0.00000" height="403.7266" width="8" x="538.5098" y="134.2422"/><line style="stroke:#A23B72;stroke-width:0.5;stroke-dasharray:5,5;" x1="542.085" x2="542.085" y1="134.2422" y2="537.9688"/></g></g><g class="participant participant-head" data-entity-uid="part1" data-qualified-name="Client" id="part1-head"><a href="/applications/" target="_top" title="/applications/" xlink:actuate="onRequest" xlink:href="/applications/" xlink:show="new" xlink:title="/applications/" xlink:type="simple"><rect fill="#E8F4F8" height="30.4883" rx="2.5" ry="2.5" style="stroke:#2E86AB;stroke-width:0.5;" width="53.5049" x="5" y="102.7539"/><text fill="#000000" font-family="'Segoe UI'" font-size="14" lengthAdjust="spacing" textLength="39.5049" x="12" y="123.2891">Client</text></a></g><g class="participant participant-tail" data-entity-uid="part1" data-qualified-name="Client" id="part1-tail"><a href="/applications/" target="_top" title="/applications/" xlink:actuate="onRequest" xlink:href="/applications/" xlink:show="new" xlink:title="/applications/" xlink:type="simple"><rect fill="#E8F4F8" height="30.4883" rx="2.5" ry="2.5" style="stroke:#2E86AB;stroke-width:0.5;" width="53.5049" x="5" y="536.9688"/><text fill="#000000" font-family="'Segoe UI'" font-size="14" lengthAdjust="spacing" textLength="39.5049" x="12" y="557.5039">Client</text></a></g><g class="participant participant-head" data-entity-uid="part2" data-qualified-name="GW" id="part2-head"><a href="/actors/#api-gateway" target="_top" title="/actors/#api-gateway" xlink:actuate="onRequest" xlink:href="/actors/#api-gateway" xlink:show="new" xlink:title="/actors/#api-gateway" xlink:type="simple"><rect fill="#DBEAFE" height="30.4883" rx="2.5" ry="2.5" style="stroke:#2E86AB;stroke-width:0.5;" width="96.5781" x="172.3691" y="102.7539"/><text fill="#000000" font-family="'Segoe UI'" font-size="14" lengthAdjust="spacing" textLength="82.5781" x="179.3691" y="123.2891">API Gateway</text></a></g><g class="participant participant-tail" data-entity-uid="part2" data-qualified-name="GW" id="part2-tail"><a href="/actors/#api-gateway" target="_top" title="/actors/#api-gateway" xlink:actuate="onRequest" xlink:href="/actors/#api-gateway" xlink:show="new" xlink:title="/actors/#api-gateway" xlink:type="simple"><rect fill="#DBEAFE" height="30.4883" rx="2.5" ry="2.5" style="stroke:#2E86AB;stroke-width:0.5;" width="96.5781" x="172.3691" y="536.9688"/><text fill="#000000" font-family="'Segoe UI'" font-size="14" lengthAdjust="spacing" textLength="82.5781" x="179.3691" y="557.5039">API Gateway</text></a></g><g class="participant participant-head" data-entity-uid="part3" data-qualified-name="Svc" id="part3-head"><a href="/microservices/svc-guide-management/" target="_top" title="/microservices/svc-guide-management/" xlink:actuate="onRequest" xlink:href="/microservices/svc-guide-management/" xlink:show="new" xlink:title="/microservices/svc-guide-management/" xlink:type="simple"><rect fill="#E8F4F8" height="30.4883" rx="2.5" ry="2.5" style="stroke:#2E86AB;stroke-width:0.5;" width="178.377" x="278.9473" y="102.7539"/><text fill="#000000" font-family="'Segoe UI'" font-size="14" lengthAdjust="spacing" textLength="164.377" x="285.9473" y="123.2891">svc-guide-management</text></a></g><g class="participant participant-tail" data-entity-uid="part3" data-qualified-name="Svc" id="part3-tail"><a href="/microservices/svc-guide-management/" target="_top" title="/microservices/svc-guide-management/" xlink:actuate="onRequest" xlink:href="/microservices/svc-guide-management/" xlink:show="new" xlink:title="/microservices/svc-guide-management/" xlink:type="simple"><rect fill="#E8F4F8" height="30.4883" rx="2.5" ry="2.5" style="stroke:#2E86AB;stroke-width:0.5;" width="178.377" x="278.9473" y="536.9688"/><text fill="#000000" font-family="'Segoe UI'" font-size="14" lengthAdjust="spacing" textLength="164.377" x="285.9473" y="557.5039">svc-guide-management</text></a></g><g class="participant participant-head" data-entity-uid="part4" data-qualified-name="DB" id="part4-head"><text fill="#000000" font-family="'Segoe UI'" font-size="14" lengthAdjust="spacing" textLength="76.8496" x="501.085" y="131.2891">PostgreSQL</text><path d="M524.5098,81.7539 C524.5098,71.7539 542.5098,71.7539 542.5098,71.7539 C542.5098,71.7539 560.5098,71.7539 560.5098,81.7539 L560.5098,107.7539 C560.5098,117.7539 542.5098,117.7539 542.5098,117.7539 C542.5098,117.7539 524.5098,117.7539 524.5098,107.7539 L524.5098,81.7539" fill="#FCE4EC" style="stroke:#181818;stroke-width:0.5;"/><path d="M524.5098,81.7539 C524.5098,91.7539 542.5098,91.7539 542.5098,91.7539 C542.5098,91.7539 560.5098,91.7539 560.5098,81.7539" fill="none" style="stroke:#181818;stroke-width:0.5;"/></g><g class="participant participant-tail" data-entity-uid="part4" data-qualified-name="DB" id="part4-tail"><text fill="#000000" font-family="'Segoe UI'" font-size="14" lengthAdjust="spacing" textLength="76.8496" x="501.085" y="550.5039">PostgreSQL</text><path d="M524.5098,563.457 C524.5098,553.457 542.5098,553.457 542.5098,553.457 C542.5098,553.457 560.5098,553.457 560.5098,563.457 L560.5098,589.457 C560.5098,599.457 542.5098,599.457 542.5098,599.457 C542.5098,599.457 524.5098,599.457 524.5098,589.457 L524.5098,563.457" fill="#FCE4EC" style="stroke:#181818;stroke-width:0.5;"/><path d="M524.5098,563.457 C524.5098,573.457 542.5098,573.457 542.5098,573.457 C542.5098,573.457 560.5098,573.457 560.5098,563.457" fill="none" style="stroke:#181818;stroke-width:0.5;"/></g><g><title>API Gateway</title><rect fill="#7C3AED" height="319.1055" style="stroke:#181818;stroke-width:1;" width="10" x="215.6582" y="200.8633"/></g><g><title>svc-guide-management</title><rect fill="#7C3AED" height="260.4844" style="stroke:#181818;stroke-width:1;" width="10" x="363.1357" y="230.1738"/></g><g><title>PostgreSQL</title><rect fill="#FCE4EC" height="29.3105" style="stroke:#181818;stroke-width:1;" width="10" x="537.5098" y="338.1055"/></g><g><title>PostgreSQL</title><rect fill="#FCE4EC" height="29.3105" style="stroke:#181818;stroke-width:1;" width="10" x="537.5098" y="432.0371"/></g><path d="M297,149.2422 L297,174.2422 L437,174.2422 L437,159.2422 L427,149.2422 L297,149.2422" fill="#FEFFDD" style="stroke:#181818;stroke-width:0.5;"/><path d="M427,149.2422 L427,159.2422 L437,159.2422 L427,149.2422" fill="#FEFFDD" style="stroke:#181818;stroke-width:0.5;"/><a href="/services/api/svc-guide-management.html#/Guides/updateGuide" target="_top" title="/services/api/svc-guide-management.html#/Guides/updateGuide" xlink:actuate="onRequest" xlink:href="/services/api/svc-guide-management.html#/Guides/updateGuide" xlink:show="new" xlink:title="/services/api/svc-guide-management.html#/Guides/updateGuide" xlink:type="simple"><text fill="#0000FF" font-family="'Segoe UI'" font-size="13" lengthAdjust="spacing" text-decoration="underline" textLength="119.4058" x="303" y="166.8105">View in Swagger UI</text></a><g class="message" data-entity-1="part1" data-entity-2="part2" id="msg1"><polygon fill="#7C3AED" points="203.6582,196.8633,213.6582,200.8633,203.6582,204.8633,207.6582,200.8633" style="stroke:#7C3AED;stroke-width:1;"/><line style="stroke:#7C3AED;stroke-width:1;" x1="31.7524" x2="209.6582" y1="200.8633" y2="200.8633"/><text fill="#000000" font-family="'Segoe UI'" font-size="13" lengthAdjust="spacing" textLength="164.9058" x="38.7524" y="196.1211">PATCH /guides/{guide_id}</text></g><g class="message" data-entity-1="part2" data-entity-2="part3" id="msg2"><polygon fill="#7C3AED" points="351.1357,226.1738,361.1357,230.1738,351.1357,234.1738,355.1357,230.1738" style="stroke:#7C3AED;stroke-width:1;"/><line style="stroke:#7C3AED;stroke-width:1;" x1="225.6582" x2="357.1357" y1="230.1738" y2="230.1738"/><text fill="#000000" font-family="'Segoe UI'" font-size="13" lengthAdjust="spacing" textLength="85.1348" x="232.6582" y="225.4316">route request</text></g><path d="M378,243.1738 L378,268.1738 L536,268.1738 L536,253.1738 L526,243.1738 L378,243.1738" fill="#FEFFDD" style="stroke:#181818;stroke-width:0.5;"/><path d="M526,243.1738 L526,253.1738 L536,253.1738 L526,243.1738" fill="#FEFFDD" style="stroke:#181818;stroke-width:0.5;"/><text fill="#000000" font-family="'Segoe UI'" font-size="13" lengthAdjust="spacing" textLength="137.5728" x="384" y="260.7422">Validate request body</text><rect fill="#EEEEEE" height="3" style="stroke:#EEEEEE;stroke-width:1;" width="588.9346" x="0" y="294.1396"/><line style="stroke:#000000;stroke-width:1;" x1="0" x2="588.9346" y1="294.1396" y2="294.1396"/><line style="stroke:#000000;stroke-width:1;" x1="0" x2="588.9346" y1="297.1396" y2="297.1396"/><rect fill="#EEEEEE" height="23.3105" style="stroke:#000000;stroke-width:2;" width="80.3711" x="254.2817" y="283.4844"/><text fill="#000000" font-family="'Segoe UI'" font-size="13" font-weight="bold" lengthAdjust="spacing" textLength="62.0864" x="260.2817" y="300.0527">Database</text><g class="message" data-entity-1="part3" data-entity-2="part4" id="msg3"><polygon fill="#7C3AED" points="525.5098,334.1055,535.5098,338.1055,525.5098,342.1055,529.5098,338.1055" style="stroke:#7C3AED;stroke-width:1;"/><line style="stroke:#7C3AED;stroke-width:1;" x1="373.1357" x2="531.5098" y1="338.1055" y2="338.1055"/><text fill="#000000" font-family="'Segoe UI'" font-size="13" lengthAdjust="spacing" textLength="145.374" x="380.1357" y="333.3633">SELECT ... FOR UPDATE</text></g><g class="message" data-entity-1="part4" data-entity-2="part3" id="msg4"><polygon fill="#7C3AED" points="384.1357,363.416,374.1357,367.416,384.1357,371.416,380.1357,367.416" style="stroke:#7C3AED;stroke-width:1;"/><line style="stroke:#7C3AED;stroke-width:1;stroke-dasharray:2,2;" x1="378.1357" x2="541.5098" y1="367.416" y2="367.416"/><text fill="#000000" font-family="'Segoe UI'" font-size="13" lengthAdjust="spacing" textLength="75.3086" x="390.1357" y="362.6738">Current row</text></g><path d="M378,380.416 L378,405.416 L564,405.416 L564,390.416 L554,380.416 L378,380.416" fill="#FEFFDD" style="stroke:#181818;stroke-width:0.5;"/><path d="M554,380.416 L554,390.416 L564,390.416 L554,380.416" fill="#FEFFDD" style="stroke:#181818;stroke-width:0.5;"/><text fill="#000000" font-family="'Segoe UI'" font-size="13" lengthAdjust="spacing" textLength="165.9023" x="384" y="397.9844">Merge changed fields only</text><g class="message" data-entity-1="part3" data-entity-2="part4" id="msg5"><polygon fill="#7C3AED" points="525.5098,428.0371,535.5098,432.0371,525.5098,436.0371,529.5098,432.0371" style="stroke:#7C3AED;stroke-width:1;"/><line style="stroke:#7C3AED;stroke-width:1;" x1="373.1357" x2="531.5098" y1="432.0371" y2="432.0371"/><text fill="#000000" font-family="'Segoe UI'" font-size="13" lengthAdjust="spacing" textLength="109.4526" x="380.1357" y="427.2949">UPDATE ... SET ...</text></g><g class="message" data-entity-1="part4" data-entity-2="part3" id="msg6"><polygon fill="#7C3AED" points="384.1357,457.3477,374.1357,461.3477,384.1357,465.3477,380.1357,461.3477" style="stroke:#7C3AED;stroke-width:1;"/><line style="stroke:#7C3AED;stroke-width:1;stroke-dasharray:2,2;" x1="378.1357" x2="541.5098" y1="461.3477" y2="461.3477"/><text fill="#000000" font-family="'Segoe UI'" font-size="13" lengthAdjust="spacing" textLength="80.2725" x="390.1357" y="456.6055">Updated row</text></g><g class="message" data-entity-1="part3" data-entity-2="part2" id="msg7"><polygon fill="#7C3AED" points="236.6582,486.6582,226.6582,490.6582,236.6582,494.6582,232.6582,490.6582" style="stroke:#7C3AED;stroke-width:1;"/><line style="stroke:#7C3AED;stroke-width:1;stroke-dasharray:2,2;" x1="230.6582" x2="367.1357" y1="490.6582" y2="490.6582"/><text fill="#000000" font-family="'Segoe UI'" font-size="13" lengthAdjust="spacing" textLength="47.3599" x="242.6582" y="485.916">200 OK</text></g><g class="message" data-entity-1="part2" data-entity-2="part1" id="msg8"><polygon fill="#7C3AED" points="42.7524,515.9688,32.7524,519.9688,42.7524,523.9688,38.7524,519.9688" style="stroke:#7C3AED;stroke-width:1;"/><line style="stroke:#7C3AED;stroke-width:1;stroke-dasharray:2,2;" x1="36.7524" x2="219.6582" y1="519.9688" y2="519.9688"/><text fill="#000000" font-family="'Segoe UI'" font-size="13" lengthAdjust="spacing" textLength="47.3599" x="48.7524" y="515.2266">200 OK</text></g><a href="/microservices/svc-guide-management/#integration-context" target="_top" title="/microservices/svc-guide-management/#integration-context" xlink:actuate="onRequest" xlink:href="/microservices/svc-guide-management/#integration-context" xlink:show="new" xlink:title="/microservices/svc-guide-management/#integration-context" xlink:type="simple"><text fill="#0000FF" font-family="'Segoe UI'" font-size="10" lengthAdjust="spacing" text-decoration="underline" textLength="228.584" x="359.3506" y="14.668">&#11014; svc-guide-management Integration Context</text></a><?plantuml-src ZLFRRjf047tVhnZ1CpY1g20aAe6nAIfDQ0d9GuggnHxCAcRNtLqWKPJNVas_gb_IyPfhGzN20yRdp9opPsRDev0Prtm9Cnuz9bgjPEohL6aeXq7-PMRFC0iUgusG2SnvQl08YN7ELwaDbRJNV8bG6cEY42Q3qd4vVb-XZ11U6D2dexNQRAKQKPrZx5wFkBOY4XcNjgjqZ7fBgGNDTvtk6ygVfeDcU1Ks7MqevZWK4a_QT6hrRgFcyAvwEe72osPuSRc7tiGHXeGx-5hPqwvHep6h7s5degm73VRAs08vbS73WxSKaLO6zLf4Q3opZYh9IiHOMNB94roYj5vPI8k9vbOeMOaeN7ooyEld3pZ7Xi6137v1dauPiyAc2AFEhVy1F5Tal1Vt-qt4hr_b98kvHN1l8DDgBb9aB3ja32K_5IHG0cwWUCpzyonBHUJaZ4T29nMTqG3wr7R3drrP_zwLH5PfuvLv9Yf9WKwdKEvrWmujsac3SoTqdSRhw3_Jorjlru5Eo6VSq6AEbB69nl7deUlMwz9m_E0gy1cJD3bGQveEQT0iIMKlG8xFYbGNTfcMlNuHwyf5wVx0dS0D20dZ3KyIwZaPK4OeOyXb6DlcM7cVHzFwwtWOHIRM-No8jhicz4XrUH0je2qZKETNozW3EmTtzE9WMYGB2sg-hRlZgN1ptvR2JCNFZBNRqDjbrMupbfD9Ys9gmJWO1lujLAjL26--m6JKwzm61ycZAEcnidVehxJEZqgtdSLuH3_hwnFg125QS9bW37E1QMn0oVJvr4iXxhoC0-VftqQAHO_F62bQxsPHkxY0cu_7b7mVyj29iPtRELR_dlq6?></g></svg>