<svg xmlns="http://www.w3.org/2000/svg" xmlns:xlink="http://www.w3.org/1999/xlink" contentStyleType="text/css" data-diagram-type="SEQUENCE" height="474px" preserveAspectRatio="none" style="width:574px;height:474px;background:#FEFEFE;" version="1.1" viewBox="0 0 574 474" width="574px" zoomAndPan="magnify"><title>GET /guides/available</title><defs/><g><rect fill="#FEFEFE" height="474" style="stroke:none;stroke-width:1;" width="574" x="0" y="0"/><text fill="#000000" font-family="Segoe UI" font-size="14" font-weight="bold" lengthAdjust="spacing" textLength="161.4648" x="202.3994" y="28.5352">GET /guides/available</text><text fill="#000000" font-family="Segoe UI" font-size="14" font-weight="bold" lengthAdjust="spacing" textLength="373.9258" x="96.1689" y="45.0234">Find available guides for a date, activity, and region</text><g><title>API Gateway</title><rect fill="#2563EB" height="189.8633" style="stroke:#A23B72;stroke-width:1;" width="10" x="190.1089" y="188.0859"/></g><g><title>svc-guide-management</title><rect fill="#2563EB" height="131.2422" style="stroke:#A23B72;stroke-width:1;" width="10" x="337.5864" y="217.3965"/></g><g><title>PostgreSQL</title><rect fill="#FCE4EC" height="29.3105" style="stroke:#A23B72;stroke-width:1;" width="10" x="515.8389" y="290.0176"/></g><g><title>Client</title><rect fill="#000000" fill-opacity="0.00000" height="274.4844" width="8" x="27.7524" y="121.4648"/><line style="stroke:#A23B72;stroke-width:0.5;stroke-dasharray:5,5;" x1="31" x2="31" y1="121.4648" y2="395.9492"/></g><g><title>API Gateway</title><rect fill="#000000" fill-opacity="0.00000" height="274.4844" width="8" x="191.1089" y="121.4648"/><line style="stroke:#A23B72;stroke-width:0.5;stroke-dasharray:5,5;" x1="194.8198" x2="194.8198" y1="121.4648" y2="395.9492"/></g><g><title>svc-guide-management</title><rect fill="#000000" fill-opacity="0.00000" height="274.4844" width="8" x="338.5864" y="121.4648"/><line style="stroke:#A23B72;stroke-width:0.5;stroke-dasharray:5,5;" x1="342.3979" x2="342.3979" y1="121.4648" y2="395.9492"/></g><g><title>PostgreSQL</title><rect fill="#000000" fill-opacity="0.00000" height="274.4844" width="8" x="516.8389" y="121.4648"/><line style="stroke:#A23B72;stroke-width:0.5;stroke-dasharray:5,5;" x1="520.4141" x2="520.4141" y1="121.4648" y2="395.9492"/></g><g class="participant participant-head" data-participant="Client"><rect fill="#E8F4F8" height="30.4883" rx="2.5" ry="2.5" style="stroke:#2E86AB;stroke-width:0.5;" width="53.5049" x="5" y="89.9766"/><text fill="#000000" font-family="Segoe UI" font-size="14" lengthAdjust="spacing" textLength="39.5049" x="12" y="110.5117">Client</text></g><g class="participant participant-tail" data-participant="Client"><rect fill="#E8F4F8" height="30.4883" rx="2.5" ry="2.5" style="stroke:#2E86AB;stroke-width:0.5;" width="53.5049" x="5" y="394.9492"/><text fill="#000000" font-family="Segoe UI" font-size="14" lengthAdjust="spacing" textLength="39.5049" x="12" y="415.4844">Client</text></g><g class="participant participant-head" data-participant="GW"><rect fill="#DBEAFE" height="30.4883" rx="2.5" ry="2.5" style="stroke:#2E86AB;stroke-width:0.5;" width="96.5781" x="146.8198" y="89.9766"/><text fill="#000000" font-family="Segoe UI" font-size="14" lengthAdjust="spacing" textLength="82.5781" x="153.8198" y="110.5117">API Gateway</text></g><g class="participant participant-tail" data-participant="GW"><rect fill="#DBEAFE" height="30.4883" rx="2.5" ry="2.5" style="stroke:#2E86AB;stroke-width:0.5;" width="96.5781" x="146.8198" y="394.9492"/><text fill="#000000" font-family="Segoe UI" font-size="14" lengthAdjust="spacing" textLength="82.5781" x="153.8198" y="415.4844">API Gateway</text></g><g class="participant participant-head" data-participant="Svc"><a href="/microservices/svc-guide-management/" target="_top" title="/microservices/svc-guide-management/" xlink:actuate="onRequest" xlink:href="/microservices/svc-guide-management/" xlink:show="new" xlink:title="/microservices/svc-guide-management/" xlink:type="simple"><rect fill="#E8F4F8" height="30.4883" rx="2.5" ry="2.5" style="stroke:#2E86AB;stroke-width:0.5;" width="178.377" x="253.3979" y="89.9766"/><text fill="#000000" font-family="Segoe UI" font-size="14" lengthAdjust="spacing" textLength="164.377" x="260.3979" y="110.5117">svc-guide-management</text></a></g><g class="participant participant-tail" data-participant="Svc"><a href="/microservices/svc-guide-management/" target="_top" title="/microservices/svc-guide-management/" xlink:actuate="onRequest" xlink:href="/microservices/svc-guide-management/" xlink:show="new" xlink:title="/microservices/svc-guide-management/" xlink:type="simple"><rect fill="#E8F4F8" height="30.4883" rx="2.5" ry="2.5" style="stroke:#2E86AB;stroke-width:0.5;" width="178.377" x="253.3979" y="394.9492"/><text fill="#000000" font-family="Segoe UI" font-size="14" lengthAdjust="spacing" textLength="164.377" x="260.3979" y="415.4844">svc-guide-management</text></a></g><g class="participant participant-head" data-participant="DB"><text fill="#000000" font-family="Segoe UI" font-size="14" lengthAdjust="spacing" textLength="76.8496" x="479.4141" y="118.5117">PostgreSQL</text><path d="M502.8389,68.9766 C502.8389,58.9766 520.8389,58.9766 520.8389,58.9766 C520.8389,58.9766 538.8389,58.9766 538.8389,68.9766 L538.8389,94.9766 C538.8389,104.9766 520.8389,104.9766 520.8389,104.9766 C520.8389,104.9766 502.8389,104.9766 502.8389,94.9766 L502.8389,68.9766" fill="#FCE4EC" style="stroke:#181818;stroke-width:0.5;"/><path d="M502.8389,68.9766 C502.8389,78.9766 520.8389,78.9766 520.8389,78.9766 C520.8389,78.9766 538.8389,78.9766 538.8389,68.9766" fill="none" style="stroke:#181818;stroke-width:0.5;"/></g><g class="participant participant-tail" data-participant="DB"><text fill="#000000" font-family="Segoe UI" font-size="14" lengthAdjust="spacing" textLength="76.8496" x="479.4141" y="408.4844">PostgreSQL</text><path d="M502.8389,421.4375 C502.8389,411.4375 520.8389,411.4375 520.8389,411.4375 C520.8389,411.4375 538.8389,411.4375 538.8389,421.4375 L538.8389,447.4375 C538.8389,457.4375 520.8389,457.4375 520.8389,457.4375 C520.8389,457.4375 502.8389,457.4375 502.8389,447.4375 L502.8389,421.4375" fill="#FCE4EC" style="stroke:#181818;stroke-width:0.5;"/><path d="M502.8389,421.4375 C502.8389,431.4375 520.8389,431.4375 520.8389,431.4375 C520.8389,431.4375 538.8389,431.4375 538.8389,421.4375" fill="none" style="stroke:#181818;stroke-width:0.5;"/></g><g><title>API Gateway</title><rect fill="#2563EB" height="189.8633" style="stroke:#A23B72;stroke-width:1;" width="10" x="190.1089" y="188.0859"/></g><g><title>svc-guide-management</title><rect fill="#2563EB" height="131.2422" style="stroke:#A23B72;stroke-width:1;" width="10" x="337.5864" y="217.3965"/></g><g><title>PostgreSQL</title><rect fill="#FCE4EC" height="29.3105" style="stroke:#A23B72;stroke-width:1;" width="10" x="515.8389" y="290.0176"/></g><path d="M272,136.4648 L272,161.4648 L412,161.4648 L412,146.4648 L402,136.4648 L272,136.4648" fill="#FEFFDD" style="stroke:#181818;stroke-width:0.5;"/><path d="M402,136.4648 L402,146.4648 L412,146.4648 L402,136.4648" fill="#FEFFDD" style="stroke:#181818;stroke-width:0.5;"/><a href="/services/api/svc-guide-management.html#/Availability/findAvailableGuides" target="_top" title="/services/api/svc-guide-management.html#/Availability/findAvailableGuides" xlink:actuate="onRequest" xlink:href="/services/api/svc-guide-management.html#/Availability/findAvailableGuides" xlink:show="new" xlink:title="/services/api/svc-guide-management.html#/Availability/findAvailableGuides" xlink:type="simple"><text fill="#0000FF" font-family="Segoe UI" font-size="13" lengthAdjust="spacing" text-decoration="underline" textLength="119.4058" x="278" y="154.0332">View in Swagger UI</text></a><g class="message" data-participant-1="Client" data-participant-2="GW"><polygon fill="#2563EB" points="178.1089,184.0859,188.1089,188.0859,178.1089,192.0859,182.1089,188.0859" style="stroke:#2563EB;stroke-width:1;"/><line style="stroke:#2563EB;stroke-width:1;" x1="31.7524" x2="184.1089" y1="188.0859" y2="188.0859"/><text fill="#000000" font-family="Segoe UI" font-size="13" lengthAdjust="spacing" textLength="139.3564" x="38.7524" y="183.3438">GET /guides/available</text></g><g class="message" data-participant-1="GW" data-participant-2="Svc"><polygon fill="#2563EB" points="325.5864,213.3965,335.5864,217.3965,325.5864,221.3965,329.5864,217.3965" style="stroke:#2563EB;stroke-width:1;"/><line style="stroke:#2563EB;stroke-width:1;" x1="200.1089" x2="331.5864" y1="217.3965" y2="217.3965"/><a href="/microservices/svc-guide-management/#get-guidesavailable-find-available-guides-for-a-date-activity-and-region" target="_top" title="/microservices/svc-guide-management/#get-guidesavailable-find-available-guides-for-a-date-activity-and-region" xlink:actuate="onRequest" xlink:href="/microservices/svc-guide-management/#get-guidesavailable-find-available-guides-for-a-date-activity-and-region" xlink:show="new" xlink:title="/microservices/svc-guide-management/#get-guidesavailable-find-available-guides-for-a-date-activity-and-region" xlink:type="simple"><text fill="#0000FF" font-family="Segoe UI" font-size="13" lengthAdjust="spacing" text-decoration="underline" textLength="85.1348" x="207.1089" y="212.6543">route request</text></a></g><rect fill="#EEEEEE" height="3" style="stroke:#EEEEEE;stroke-width:1;" width="567.2637" x="0" y="246.0518"/><line style="stroke:#000000;stroke-width:1;" x1="0" x2="567.2637" y1="246.0518" y2="246.0518"/><line style="stroke:#000000;stroke-width:1;" x1="0" x2="567.2637" y1="249.0518" y2="249.0518"/><rect fill="#EEEEEE" height="23.3105" style="stroke:#000000;stroke-width:2;" width="80.3711" x="243.4463" y="235.3965"/><text fill="#000000" font-family="Segoe UI" font-size="13" font-weight="bold" lengthAdjust="spacing" textLength="62.0864" x="249.4463" y="251.9648">Database</text><g class="message" data-participant-1="Svc" data-participant-2="DB"><polygon fill="#2563EB" points="503.8389,286.0176,513.8389,290.0176,503.8389,294.0176,507.8389,290.0176" style="stroke:#2563EB;stroke-width:1;"/><line style="stroke:#2563EB;stroke-width:1;" x1="347.5864" x2="509.8389" y1="290.0176" y2="290.0176"/><text fill="#000000" font-family="Segoe UI" font-size="13" lengthAdjust="spacing" textLength="149.2524" x="354.5864" y="285.2754">SELECT ... WHERE filters</text></g><g class="message" data-participant-1="DB" data-participant-2="Svc"><polygon fill="#2563EB" points="358.5864,315.3281,348.5864,319.3281,358.5864,323.3281,354.5864,319.3281" style="stroke:#2563EB;stroke-width:1;"/><line style="stroke:#2563EB;stroke-width:1;stroke-dasharray:2,2;" x1="352.5864" x2="519.8389" y1="319.3281" y2="319.3281"/><text fill="#000000" font-family="Segoe UI" font-size="13" lengthAdjust="spacing" textLength="93.209" x="364.5864" y="314.5859">Page of results</text></g><g class="message" data-participant-1="Svc" data-participant-2="GW"><polygon fill="#2563EB" points="211.1089,344.6387,201.1089,348.6387,211.1089,352.6387,207.1089,348.6387" style="stroke:#2563EB;stroke-width:1;"/><line style="stroke:#2563EB;stroke-width:1;stroke-dasharray:2,2;" x1="205.1089" x2="341.5864" y1="348.6387" y2="348.6387"/><text fill="#000000" font-family="Segoe UI" font-size="13" lengthAdjust="spacing" textLength="47.3599" x="217.1089" y="343.8965">200 OK</text></g><g class="message" data-participant-1="GW" data-participant-2="Client"><polygon fill="#2563EB" points="42.7524,373.9492,32.7524,377.9492,42.7524,381.9492,38.7524,377.9492" style="stroke:#2563EB;stroke-width:1;"/><line style="stroke:#2563EB;stroke-width:1;stroke-dasharray:2,2;" x1="36.7524" x2="194.1089" y1="377.9492" y2="377.9492"/><text fill="#000000" font-family="Segoe UI" font-size="13" lengthAdjust="spacing" textLength="47.3599" x="48.7524" y="373.207">200 OK</text></g><!--SRC=[ZPD1Szem48Nl-XKxSAs1G1eOPkYC3JPbogIq9EMGSX3ssj74I5GI9fbE_tlNDZRGS2XSPB-dtTNtPFCYv8vhleKD3ryIhVOo6gjKQMW6VlvdfdQOPnwfWv09n3mrUAP46FDzQWCbxJtV8ZIMc2Y4nrdZV3l-sgCC4Nupe9-hjJeSMtK_tlLmKxnUS6r5A7PSMa_f27LbyGTthlVEyk_G_Y2u3GQ5RIvYd0k95sNSRi_hTmlTKwyNKd0p23etjVGEHn2GNiZtobvM3VlzJUzCkuAov_VP7yQii2d2r7-0Th8N4PespxX8-IR5dp8GCeBw6Ke3n5I1GyGjVW0UMf49-qOhicfCX9ACxKv0e35E1KhR06wWN5xAxc86Kwfru6-5Pxg2viJpNKhwmcUoq2a6SBPSyWItLT5b5iBJKtihGgqCwao4T8XhxlPwNUT1q_CDDtGp5ihOHEFosxoeDl68pjY_zSUCIK87AaETzo2OrALkm7VYQfFMizscpRPRGXCfiMd7XD6jA4vBY3y47a18M1vuab27nzbwpP0OvaqPAqc1yoddCRoU3olW4xg2sV7Aqf8svKo6_qcbcQ0jtvgwj9EFx9mUIzcXv1tkvCaxLV0EvUwKkGFTC1f6vv-LiNISUhvyd6f0DXh1fA8_6Z6MYpGoWH_2qf_xumTejLgm-kn_zo4MgKLjJgNEyg6bKvzrGSS15LDtGn- -OH6URJasgMXsEntu-kNSakURaoF7aVmrrtJ5_W80]--></g></svg>