<svg xmlns="http://www.w3.org/2000/svg" xmlns:xlink="http://www.w3.org/1999/xlink" contentStyleType="text/css" data-diagram-type="SEQUENCE" height="616px" preserveAspectRatio="none" style="width:838px;height:616px;background:#FEFEFE;" version="1.1" viewBox="0 0 838 616" width="838px" zoomAndPan="magnify"><title>POST /guides/{guide_id}/certifications</title><defs/><g><rect fill="#FEFEFE" height="616" style="stroke:none;stroke-width:1;" width="838" x="0" y="0"/><text fill="#000000" font-family="Segoe UI" font-size="14" font-weight="bold" lengthAdjust="spacing" textLength="280.7383" x="274.8826" y="41.3125">POST /guides/{guide_id}/certifications</text><text fill="#000000" font-family="Segoe UI" font-size="14" font-weight="bold" lengthAdjust="spacing" textLength="210.1162" x="310.1936" y="57.8008">Add a certification to a guide</text><g><title>API Gateway</title><rect fill="#059669" height="319.1055" style="stroke:#A23B72;stroke-width:1;" width="10" x="293.5757" y="200.8633"/></g><g><title>svc-guide-management</title><rect fill="#059669" height="260.4844" style="stroke:#A23B72;stroke-width:1;" width="10" x="441.0532" y="230.1738"/></g><g><title>PostgreSQL</title><rect fill="#FCE4EC" height="29.3105" style="stroke:#A23B72;stroke-width:1;" width="10" x="647.4575" y="338.1055"/></g><g><title>PostgreSQL</title><rect fill="#FCE4EC" height="29.3105" style="stroke:#A23B72;stroke-width:1;" width="10" x="647.4575" y="432.0371"/></g><g><title>Client</title><rect fill="#000000" fill-opacity="0.00000" height="403.7266" width="8" x="27.7524" y="134.2422"/><line style="stroke:#A23B72;stroke-width:0.5;stroke-dasharray:5,5;" x1="31" x2="31" y1="134.2422" y2="537.9688"/></g><g><title>API Gateway</title><rect fill="#000000" fill-opacity="0.00000" height="403.7266" width="8" x="294.5757" y="134.2422"/><line style="stroke:#A23B72;stroke-width:0.5;stroke-dasharray:5,5;" x1="298.2866" x2="298.2866" y1="134.2422" y2="537.9688"/></g><g><title>svc-guide-management</title><rect fill="#000000" fill-opacity="0.00000" height="403.7266" width="8" x="442.0532" y="134.2422"/><line style="stroke:#A23B72;stroke-width:0.5;stroke-dasharray:5,5;" x1="445.8647" x2="445.8647" y1="134.2422" y2="537.9688"/></g><g><title>PostgreSQL</title><rect fill="#000000" fill-opacity="0.00000" height="403.7266" width="8" x="648.4575" y="134.2422"/><line style="stroke:#A23B72;stroke-width:0.5;stroke-dasharray:5,5;" x1="652.0327" x2="652.0327" y1="134.2422" y2="537.9688"/></g><g class="participant participant-head" data-participant="Client"><rect fill="#E8F4F8" height="30.4883" rx="2.5" ry="2.5" style="stroke:#2E86AB;stroke-width:0.5;" width="53.5049" x="5" y="102.7539"/><text fill="#000000" font-family="Segoe UI" font-size="14" lengthAdjust="spacing" textLength="39.5049" x="12" y="123.2891">Client</text></g><g class="participant participant-tail" data-participant="Client"><rect fill="#E8F4F8" height="30.4883" rx="2.5" ry="2.5" style="stroke:#2E86AB;stroke-width:0.5;" width="53.5049" x="5" y="536.9688"/><text fill="#000000" font-family="Segoe UI" font-size="14" lengthAdjust="spacing" textLength="39.5049" x="12" y="557.5039">Client</text></g><g class="participant participant-head" data-participant="GW"><rect fill="#DBEAFE" height="30.4883" rx="2.5" ry="2.5" style="stroke:#2E86AB;stroke-width:0.5;" width="96.5781" x="250.2866" y="102.7539"/><text fill="#000000" font-family="Segoe UI" font-size="14" lengthAdjust="spacing" textLength="82.5781" x="257.2866" y="123.2891">API Gateway</text></g><g class="participant participant-tail" data-participant="GW"><rect fill="#DBEAFE" height="30.4883" rx="2.5" ry="2.5" style="stroke:#2E86AB;stroke-width:0.5;" width="96.5781" x="250.2866" y="536.9688"/><text fill="#000000" font-family="Segoe UI" font-size="14" lengthAdjust="spacing" textLength="82.5781" x="257.2866" y="557.5039">API Gateway</text></g><g class="participant participant-head" data-participant="Svc"><a href="/microservices/svc-guide-management/" target="_top" title="/microservices/svc-guide-management/" xlink:actuate="onRequest" xlink:href="/microservices/svc-guide-management/" xlink:show="new" xlink:title="/microservices/svc-guide-management/" xlink:type="simple"><rect fill="#E8F4F8" height="30.4883" rx="2.5" ry="2.5" style="stroke:#2E86AB;stroke-width:0.5;" width="178.377" x="356.8647" y="102.7539"/><text fill="#000000" font-family="Segoe UI" font-size="14" lengthAdjust="spacing" textLength="164.377" x="363.8647" y="123.2891">svc-guide-management</text></a></g><g class="participant participant-tail" data-participant="Svc"><a href="/microservices/svc-guide-management/" target="_top" title="/microservices/svc-guide-management/" xlink:actuate="onRequest" xlink:href="/microservices/svc-guide-management/" xlink:show="new" xlink:title="/microservices/svc-guide-management/" xlink:type="simple"><rect fill="#E8F4F8" height="30.4883" rx="2.5" ry="2.5" style="stroke:#2E86AB;stroke-width:0.5;" width="178.377" x="356.8647" y="536.9688"/><text fill="#000000" font-family="Segoe UI" font-size="14" lengthAdjust="spacing" textLength="164.377" x="363.8647" y="557.5039">svc-guide-management</text></a></g><g class="participant participant-head" data-participant="DB"><text fill="#000000" font-family="Segoe UI" font-size="14" lengthAdjust="spacing" textLength="76.8496" x="611.0327" y="131.2891">PostgreSQL</text><path d="M634.4575,81.7539 C634.4575,71.7539 652.4575,71.7539 652.4575,71.7539 C652.4575,71.7539 670.4575,71.7539 670.4575,81.7539 L670.4575,107.7539 C670.4575,117.7539 652.4575,117.7539 652.4575,117.7539 C652.4575,117.7539 634.4575,117.7539 634.4575,107.7539 L634.4575,81.7539" fill="#FCE4EC" style="stroke:#181818;stroke-width:0.5;"/><path d="M634.4575,81.7539 C634.4575,91.7539 652.4575,91.7539 652.4575,91.7539 C652.4575,91.7539 670.4575,91.7539 670.4575,81.7539" fill="none" style="stroke:#181818;stroke-width:0.5;"/></g><g class="participant participant-tail" data-participant="DB"><text fill="#000000" font-family="Segoe UI" font-size="14" lengthAdjust="spacing" textLength="76.8496" x="611.0327" y="550.5039">PostgreSQL</text><path d="M634.4575,563.457 C634.4575,553.457 652.4575,553.457 652.4575,553.457 C652.4575,553.457 670.4575,553.457 670.4575,563.457 L670.4575,589.457 C670.4575,599.457 652.4575,599.457 652.4575,599.457 C652.4575,599.457 634.4575,599.457 634.4575,589.457 L634.4575,563.457" fill="#FCE4EC" style="stroke:#181818;stroke-width:0.5;"/><path d="M634.4575,563.457 C634.4575,573.457 652.4575,573.457 652.4575,573.457 C652.4575,573.457 670.4575,573.457 670.4575,563.457" fill="none" style="stroke:#181818;stroke-width:0.5;"/></g><g><title>API Gateway</title><rect fill="#059669" height="319.1055" style="stroke:#A23B72;stroke-width:1;" width="10" x="293.5757" y="200.8633"/></g><g><title>svc-guide-management</title><rect fill="#059669" height="260.4844" style="stroke:#A23B72;stroke-width:1;" width="10" x="441.0532" y="230.1738"/></g><g><title>PostgreSQL</title><rect fill="#FCE4EC" height="29.3105" style="stroke:#A23B72;stroke-width:1;" width="10" x="647.4575" y="338.1055"/></g><g><title>PostgreSQL</title><rect fill="#FCE4EC" height="29.3105" style="stroke:#A23B72;stroke-width:1;" width="10" x="647.4575" y="432.0371"/></g><path d="M375,149.2422 L375,174.2422 L515,174.2422 L515,159.2422 L505,149.2422 L375,149.2422" fill="#FEFFDD" style="stroke:#181818;stroke-width:0.5;"/><path d="M505,149.2422 L505,159.2422 L515,159.2422 L505,149.2422" fill="#FEFFDD" style="stroke:#181818;stroke-width:0.5;"/><a href="/services/api/svc-guide-management.html#/Certifications/addGuideCertification" target="_top" title="/services/api/svc-guide-management.html#/Certifications/addGuideCertification" xlink:actuate="onRequest" xlink:href="/services/api/svc-guide-management.html#/Certifications/addGuideCertification" xlink:show="new" xlink:title="/services/api/svc-guide-management.html#/Certifications/addGuideCertification" xlink:type="simple"><text fill="#0000FF" font-family="Segoe UI" font-size="13" lengthAdjust="spacing" text-decoration="underline" textLength="119.4058" x="381" y="166.8105">View in Swagger UI</text></a><g class="message" data-participant-1="Client" data-participant-2="GW"><polygon fill="#059669" points="281.5757,196.8633,291.5757,200.8633,281.5757,204.8633,285.5757,200.8633" style="stroke:#059669;stroke-width:1;"/><line style="stroke:#059669;stroke-width:1;" x1="31.7524" x2="287.5757" y1="200.8633" y2="200.8633"/><text fill="#000000" font-family="Segoe UI" font-size="13" lengthAdjust="spacing" textLength="242.8232" x="38.7524" y="196.1211">POST /guides/{guide_id}/certifications</text></g><g class="message" data-participant-1="GW" data-participant-2="Svc"><polygon fill="#059669" points="429.0532,226.1738,439.0532,230.1738,429.0532,234.1738,433.0532,230.1738" style="stroke:#059669;stroke-width:1;"/><line style="stroke:#059669;stroke-width:1;" x1="303.5757" x2="435.0532" y1="230.1738" y2="230.1738"/><text fill="#000000" font-family="Segoe UI" font-size="13" lengthAdjust="spacing" textLength="85.1348" x="310.5757" y="225.4316">route request</text></g><path d="M456,243.1738 L456,268.1738 L614,268.1738 L614,253.1738 L604,243.1738 L456,243.1738" fill="#FEFFDD" style="stroke:#181818;stroke-width:0.5;"/><path d="M604,243.1738 L604,253.1738 L614,253.1738 L604,243.1738" fill="#FEFFDD" style="stroke:#181818;stroke-width:0.5;"/><text fill="#000000" font-family="Segoe UI" font-size="13" lengthAdjust="spacing" textLength="137.5728" x="462" y="260.7422">Validate request body</text><rect fill="#EEEEEE" height="3" style="stroke:#EEEEEE;stroke-width:1;" width="831.5034" x="0" y="294.1396"/><line style="stroke:#000000;stroke-width:1;" x1="0" x2="831.5034" y1="294.1396" y2="294.1396"/><line style="stroke:#000000;stroke-width:1;" x1="0" x2="831.5034" y1="297.1396" y2="297.1396"/><rect fill="#EEEEEE" height="23.3105" style="stroke:#000000;stroke-width:2;" width="80.3711" x="375.5662" y="283.4844"/><text fill="#000000" font-family="Segoe UI" font-size="13" font-weight="bold" lengthAdjust="spacing" textLength="62.0864" x="381.5662" y="300.0527">Database</text><g class="message" data-participant-1="Svc" data-participant-2="DB"><polygon fill="#059669" points="635.4575,334.1055,645.4575,338.1055,635.4575,342.1055,639.4575,338.1055" style="stroke:#059669;stroke-width:1;"/><line style="stroke:#059669;stroke-width:1;" x1="451.0532" x2="641.4575" y1="338.1055" y2="338.1055"/><text fill="#000000" font-family="Segoe UI" font-size="13" lengthAdjust="spacing" textLength="177.4043" x="458.0532" y="333.3633">SELECT parent WHERE id = ?</text></g><g class="message" data-participant-1="DB" data-participant-2="Svc"><polygon fill="#059669" points="462.0532,363.416,452.0532,367.416,462.0532,371.416,458.0532,367.416" style="stroke:#059669;stroke-width:1;"/><line style="stroke:#059669;stroke-width:1;stroke-dasharray:2,2;" x1="456.0532" x2="651.4575" y1="367.416" y2="367.416"/><text fill="#000000" font-family="Segoe UI" font-size="13" lengthAdjust="spacing" textLength="67.2915" x="468.0532" y="362.6738">Parent row</text></g><path d="M657,380.416 L657,405.416 L826,405.416 L826,390.416 L816,380.416 L657,380.416" fill="#FEFFDD" style="stroke:#181818;stroke-width:0.5;"/><path d="M816,380.416 L816,390.416 L826,390.416 L816,380.416" fill="#FEFFDD" style="stroke:#181818;stroke-width:0.5;"/><text fill="#000000" font-family="Segoe UI" font-size="13" lengthAdjust="spacing" textLength="148.5034" x="663" y="397.9844">404 if parent not found</text><g class="message" data-participant-1="Svc" data-participant-2="DB"><polygon fill="#059669" points="635.4575,428.0371,645.4575,432.0371,635.4575,436.0371,639.4575,432.0371" style="stroke:#059669;stroke-width:1;"/><line style="stroke:#059669;stroke-width:1;" x1="451.0532" x2="641.4575" y1="432.0371" y2="432.0371"/><text fill="#000000" font-family="Segoe UI" font-size="13" lengthAdjust="spacing" textLength="96.0718" x="458.0532" y="427.2949">INSERT INTO ...</text></g><g class="message" data-participant-1="DB" data-participant-2="Svc"><polygon fill="#059669" points="462.0532,457.3477,452.0532,461.3477,462.0532,465.3477,458.0532,461.3477" style="stroke:#059669;stroke-width:1;"/><line style="stroke:#059669;stroke-width:1;stroke-dasharray:2,2;" x1="456.0532" x2="651.4575" y1="461.3477" y2="461.3477"/><text fill="#000000" font-family="Segoe UI" font-size="13" lengthAdjust="spacing" textLength="76.4575" x="468.0532" y="456.6055">Created row</text></g><g class="message" data-participant-1="Svc" data-participant-2="GW"><polygon fill="#059669" points="314.5757,486.6582,304.5757,490.6582,314.5757,494.6582,310.5757,490.6582" style="stroke:#059669;stroke-width:1;"/><line style="stroke:#059669;stroke-width:1;stroke-dasharray:2,2;" x1="308.5757" x2="445.0532" y1="490.6582" y2="490.6582"/><text fill="#000000" font-family="Segoe UI" font-size="13" lengthAdjust="spacing" textLength="77.7969" x="320.5757" y="485.916">201 Created</text></g><g class="message" data-participant-1="GW" data-participant-2="Client"><polygon fill="#059669" points="42.7524,515.9688,32.7524,519.9688,42.7524,523.9688,38.7524,519.9688" style="stroke:#059669;stroke-width:1;"/><line style="stroke:#059669;stroke-width:1;stroke-dasharray:2,2;" x1="36.7524" x2="297.5757" y1="519.9688" y2="519.9688"/><text fill="#000000" font-family="Segoe UI" font-size="13" lengthAdjust="spacing" textLength="77.7969" x="48.7524" y="515.2266">201 Created</text></g><a href="/microservices/svc-guide-management/#integration-context" target="_top" title="/microservices/svc-guide-management/#integration-context" xlink:actuate="onRequest" xlink:href="/microservices/svc-guide-management/#integration-context" xlink:show="new" xlink:title="/microservices/svc-guide-management/#integration-context" xlink:type="simple"><text fill="#0000FF" font-family="Segoe UI" font-size="10" lengthAdjust="spacing" text-decoration="underline" textLength="228.584" x="601.9194" y="14.668">&#11014; svc-guide-management Integration Context</text></a><!--SRC=[ZLDTRzem57tthxY2PmYbhD1AR88qOKYePGrj7peqcVWcM0qsSmoqglgwNxDVjL-oc_2Pbcc5XrW-vzvpVOwTFaervuRFOCB3nzZeXHAkJhI1ikzbVvRk6EcK2xsIAeQ89oaU808ZlaYihvMzuZE4Ke2nHhZjbmxByUS2LOZmme1-7MFqQYDL-tH-TdQURm-viJAKSwviLnk1PaEfUwspJlSTvUtGNijl-AsSDf0H3gJ2GfjE_RJRhETuLpyL8F-avTTETj0xEtoVy1o-qhRODMms9wS7s14hJxqcUsLiYfpAuE71cSdGw1JDKeQOEkaohCGBAR0ouuh7E4DbdR9K5cF3hTIg4fAv-6JXp-zVS8mD_JqPt3LvF6RCIfiW3A-34JXvJUgyvDyVKhmw8PANaGppilIxwWW170gxO3LjvIMCpVVUGybD90cNWAUmNXRXph0FFMvnnPzpJkyUofTThqENgi0xTfgy85Y67tHgFDv5BxZb4vxI9HpgrCO6Ws-3lDjbbu9mlORdCgOe9T1BIe8qA3TIsGdmkJmgKftQML9st89Z3XUYbn4Bst0dSGLIGR3YSKmgjtsA0fM0J9YnjLjG-PnvSl71S1WFhLoIdxcHcoT3I-gI6NK1TEC8DDapI-sUdO5R-lhWHiPJ2phQrDtnH0g-BuM95i-CjTjmkVMotMOi8vCMsNW1WJVmt15GZDavxhzwDnv80MtuijSzy9kMbTsOmtKHlNucy83zPhPSfr5hW8osEaI0A7jMnM7wLu5tCwBFw1ggrUh_9t0D4YoEZB3kkysbNZlPSWzvsPN9V2VQ9iX_Kdltx2y0]--></g></svg>