<svg xmlns="http://www.w3.org/2000/svg" xmlns:xlink="http://www.w3.org/1999/xlink" contentStyleType="text/css" data-diagram-type="SEQUENCE" height="509px" preserveAspectRatio="none" style="width:498px;height:509px;background:#FEFEFE;" version="1.1" viewBox="0 0 498 509" width="498px" zoomAndPan="magnify"><title>POST /partners</title><defs/><g><rect fill="#FEFEFE" height="509" style="stroke:none;stroke-width:1;" width="498" x="0" y="0"/><text fill="#000000" font-family="Segoe UI" font-size="14" font-weight="bold" lengthAdjust="spacing" textLength="111.5215" x="189.3774" y="28.5352">POST /partners</text><text fill="#000000" font-family="Segoe UI" font-size="14" font-weight="bold" lengthAdjust="spacing" textLength="164.6641" x="162.8062" y="45.0234">Register a new partner</text><g><title>API Gateway</title><rect fill="#059669" height="225.1738" style="stroke:#A23B72;stroke-width:1;" width="10" x="146.9893" y="188.0859"/></g><g><title>svc-partner-integrations</title><rect fill="#059669" height="166.5527" style="stroke:#A23B72;stroke-width:1;" width="10" x="296.8525" y="217.3965"/></g><g><title>PostgreSQL</title><rect fill="#FCE4EC" height="29.3105" style="stroke:#A23B72;stroke-width:1;" width="10" x="439.8516" y="325.3281"/></g><g><title>Client</title><rect fill="#000000" fill-opacity="0.00000" height="309.7949" width="8" x="27.7524" y="121.4648"/><line style="stroke:#A23B72;stroke-width:0.5;stroke-dasharray:5,5;" x1="31" x2="31" y1="121.4648" y2="431.2598"/></g><g><title>API Gateway</title><rect fill="#000000" fill-opacity="0.00000" height="309.7949" width="8" x="147.9893" y="121.4648"/><line style="stroke:#A23B72;stroke-width:0.5;stroke-dasharray:5,5;" x1="151.7002" x2="151.7002" y1="121.4648" y2="431.2598"/></g><g><title>svc-partner-integrations</title><rect fill="#000000" fill-opacity="0.00000" height="309.7949" width="8" x="297.8525" y="121.4648"/><line style="stroke:#A23B72;stroke-width:0.5;stroke-dasharray:5,5;" x1="301.2783" x2="301.2783" y1="121.4648" y2="431.2598"/></g><g><title>PostgreSQL</title><rect fill="#000000" fill-opacity="0.00000" height="309.7949" width="8" x="440.8516" y="121.4648"/><line style="stroke:#A23B72;stroke-width:0.5;stroke-dasharray:5,5;" x1="444.4268" x2="444.4268" y1="121.4648" y2="431.2598"/></g><g class="participant participant-head" data-participant="Client"><rect fill="#E8F4F8" height="30.4883" rx="2.5" ry="2.5" style="stroke:#2E86AB;stroke-width:0.5;" width="53.5049" x="5" y="89.9766"/><text fill="#000000" font-family="Segoe UI" font-size="14" lengthAdjust="spacing" textLength="39.5049" x="12" y="110.5117">Client</text></g><g class="participant participant-tail" data-participant="Client"><rect fill="#E8F4F8" height="30.4883" rx="2.5" ry="2.5" style="stroke:#2E86AB;stroke-width:0.5;" width="53.5049" x="5" y="430.2598"/><text fill="#000000" font-family="Segoe UI" font-size="14" lengthAdjust="spacing" textLength="39.5049" x="12" y="450.7949">Client</text></g><g class="participant participant-head" data-participant="GW"><rect fill="#DBEAFE" height="30.4883" rx="2.5" ry="2.5" style="stroke:#2E86AB;stroke-width:0.5;" width="96.5781" x="103.7002" y="89.9766"/><text fill="#000000" font-family="Segoe UI" font-size="14" lengthAdjust="spacing" textLength="82.5781" x="110.7002" y="110.5117">API Gateway</text></g><g class="participant participant-tail" data-participant="GW"><rect fill="#DBEAFE" height="30.4883" rx="2.5" ry="2.5" style="stroke:#2E86AB;stroke-width:0.5;" width="96.5781" x="103.7002" y="430.2598"/><text fill="#000000" font-family="Segoe UI" font-size="14" lengthAdjust="spacing" textLength="82.5781" x="110.7002" y="450.7949">API Gateway</text></g><g class="participant participant-head" data-participant="Svc"><a href="/microservices/svc-partner-integrations/" target="_top" title="/microservices/svc-partner-integrations/" xlink:actuate="onRequest" xlink:href="/microservices/svc-partner-integrations/" xlink:show="new" xlink:title="/microservices/svc-partner-integrations/" xlink:type="simple"><rect fill="#E8F4F8" height="30.4883" rx="2.5" ry="2.5" style="stroke:#2E86AB;stroke-width:0.5;" width="183.1484" x="210.2783" y="89.9766"/><text fill="#000000" font-family="Segoe UI" font-size="14" lengthAdjust="spacing" textLength="169.1484" x="217.2783" y="110.5117">svc-partner-integrations</text></a></g><g class="participant participant-tail" data-participant="Svc"><a href="/microservices/svc-partner-integrations/" target="_top" title="/microservices/svc-partner-integrations/" xlink:actuate="onRequest" xlink:href="/microservices/svc-partner-integrations/" xlink:show="new" xlink:title="/microservices/svc-partner-integrations/" xlink:type="simple"><rect fill="#E8F4F8" height="30.4883" rx="2.5" ry="2.5" style="stroke:#2E86AB;stroke-width:0.5;" width="183.1484" x="210.2783" y="430.2598"/><text fill="#000000" font-family="Segoe UI" font-size="14" lengthAdjust="spacing" textLength="169.1484" x="217.2783" y="450.7949">svc-partner-integrations</text></a></g><g class="participant participant-head" data-participant="DB"><text fill="#000000" font-family="Segoe UI" font-size="14" lengthAdjust="spacing" textLength="76.8496" x="403.4268" y="118.5117">PostgreSQL</text><path d="M426.8516,68.9766 C426.8516,58.9766 444.8516,58.9766 444.8516,58.9766 C444.8516,58.9766 462.8516,58.9766 462.8516,68.9766 L462.8516,94.9766 C462.8516,104.9766 444.8516,104.9766 444.8516,104.9766 C444.8516,104.9766 426.8516,104.9766 426.8516,94.9766 L426.8516,68.9766" fill="#FCE4EC" style="stroke:#181818;stroke-width:0.5;"/><path d="M426.8516,68.9766 C426.8516,78.9766 444.8516,78.9766 444.8516,78.9766 C444.8516,78.9766 462.8516,78.9766 462.8516,68.9766" fill="none" style="stroke:#181818;stroke-width:0.5;"/></g><g class="participant participant-tail" data-participant="DB"><text fill="#000000" font-family="Segoe UI" font-size="14" lengthAdjust="spacing" textLength="76.8496" x="403.4268" y="443.7949">PostgreSQL</text><path d="M426.8516,456.748 C426.8516,446.748 444.8516,446.748 444.8516,446.748 C444.8516,446.748 462.8516,446.748 462.8516,456.748 L462.8516,482.748 C462.8516,492.748 444.8516,492.748 444.8516,492.748 C444.8516,492.748 426.8516,492.748 426.8516,482.748 L426.8516,456.748" fill="#FCE4EC" style="stroke:#181818;stroke-width:0.5;"/><path d="M426.8516,456.748 C426.8516,466.748 444.8516,466.748 444.8516,466.748 C444.8516,466.748 462.8516,466.748 462.8516,456.748" fill="none" style="stroke:#181818;stroke-width:0.5;"/></g><g><title>API Gateway</title><rect fill="#059669" height="225.1738" style="stroke:#A23B72;stroke-width:1;" width="10" x="146.9893" y="188.0859"/></g><g><title>svc-partner-integrations</title><rect fill="#059669" height="166.5527" style="stroke:#A23B72;stroke-width:1;" width="10" x="296.8525" y="217.3965"/></g><g><title>PostgreSQL</title><rect fill="#FCE4EC" height="29.3105" style="stroke:#A23B72;stroke-width:1;" width="10" x="439.8516" y="325.3281"/></g><path d="M231,136.4648 L231,161.4648 L371,161.4648 L371,146.4648 L361,136.4648 L231,136.4648" fill="#FEFFDD" style="stroke:#181818;stroke-width:0.5;"/><path d="M361,136.4648 L361,146.4648 L371,146.4648 L361,136.4648" fill="#FEFFDD" style="stroke:#181818;stroke-width:0.5;"/><a href="/services/api/svc-partner-integrations.html#/Partners/registerPartner" target="_top" title="/services/api/svc-partner-integrations.html#/Partners/registerPartner" xlink:actuate="onRequest" xlink:href="/services/api/svc-partner-integrations.html#/Partners/registerPartner" xlink:show="new" xlink:title="/services/api/svc-partner-integrations.html#/Partners/registerPartner" xlink:type="simple"><text fill="#0000FF" font-family="Segoe UI" font-size="13" lengthAdjust="spacing" text-decoration="underline" textLength="119.4058" x="237" y="154.0332">View in Swagger UI</text></a><g class="message" data-participant-1="Client" data-participant-2="GW"><polygon fill="#059669" points="134.9893,184.0859,144.9893,188.0859,134.9893,192.0859,138.9893,188.0859" style="stroke:#059669;stroke-width:1;"/><line style="stroke:#059669;stroke-width:1;" x1="31.7524" x2="140.9893" y1="188.0859" y2="188.0859"/><text fill="#000000" font-family="Segoe UI" font-size="13" lengthAdjust="spacing" textLength="96.2368" x="38.7524" y="183.3438">POST /partners</text></g><g class="message" data-participant-1="GW" data-participant-2="Svc"><polygon fill="#059669" points="284.8525,213.3965,294.8525,217.3965,284.8525,221.3965,288.8525,217.3965" style="stroke:#059669;stroke-width:1;"/><line style="stroke:#059669;stroke-width:1;" x1="156.9893" x2="290.8525" y1="217.3965" y2="217.3965"/><text fill="#000000" font-family="Segoe UI" font-size="13" lengthAdjust="spacing" textLength="85.1348" x="163.9893" y="212.6543">route request</text></g><path d="M311,230.3965 L311,255.3965 L469,255.3965 L469,240.3965 L459,230.3965 L311,230.3965" fill="#FEFFDD" style="stroke:#181818;stroke-width:0.5;"/><path d="M459,230.3965 L459,240.3965 L469,240.3965 L459,230.3965" fill="#FEFFDD" style="stroke:#181818;stroke-width:0.5;"/><text fill="#000000" font-family="Segoe UI" font-size="13" lengthAdjust="spacing" textLength="137.5728" x="317" y="247.9648">Validate request body</text><rect fill="#EEEEEE" height="3" style="stroke:#EEEEEE;stroke-width:1;" width="491.2764" x="0" y="281.3623"/><line style="stroke:#000000;stroke-width:1;" x1="0" x2="491.2764" y1="281.3623" y2="281.3623"/><line style="stroke:#000000;stroke-width:1;" x1="0" x2="491.2764" y1="284.3623" y2="284.3623"/><rect fill="#EEEEEE" height="23.3105" style="stroke:#000000;stroke-width:2;" width="80.3711" x="205.4526" y="270.707"/><text fill="#000000" font-family="Segoe UI" font-size="13" font-weight="bold" lengthAdjust="spacing" textLength="62.0864" x="211.4526" y="287.2754">Database</text><g class="message" data-participant-1="Svc" data-participant-2="DB"><polygon fill="#059669" points="427.8516,321.3281,437.8516,325.3281,427.8516,329.3281,431.8516,325.3281" style="stroke:#059669;stroke-width:1;"/><line style="stroke:#059669;stroke-width:1;" x1="306.8525" x2="433.8516" y1="325.3281" y2="325.3281"/><text fill="#000000" font-family="Segoe UI" font-size="13" lengthAdjust="spacing" textLength="96.0718" x="313.8525" y="320.5859">INSERT INTO ...</text></g><g class="message" data-participant-1="DB" data-participant-2="Svc"><polygon fill="#059669" points="317.8525,350.6387,307.8525,354.6387,317.8525,358.6387,313.8525,354.6387" style="stroke:#059669;stroke-width:1;"/><line style="stroke:#059669;stroke-width:1;stroke-dasharray:2,2;" x1="311.8525" x2="443.8516" y1="354.6387" y2="354.6387"/><text fill="#000000" font-family="Segoe UI" font-size="13" lengthAdjust="spacing" textLength="76.4575" x="323.8525" y="349.8965">Created row</text></g><g class="message" data-participant-1="Svc" data-participant-2="GW"><polygon fill="#059669" points="167.9893,379.9492,157.9893,383.9492,167.9893,387.9492,163.9893,383.9492" style="stroke:#059669;stroke-width:1;"/><line style="stroke:#059669;stroke-width:1;stroke-dasharray:2,2;" x1="161.9893" x2="300.8525" y1="383.9492" y2="383.9492"/><text fill="#000000" font-family="Segoe UI" font-size="13" lengthAdjust="spacing" textLength="77.7969" x="173.9893" y="379.207">201 Created</text></g><g class="message" data-participant-1="GW" data-participant-2="Client"><polygon fill="#059669" points="42.7524,409.2598,32.7524,413.2598,42.7524,417.2598,38.7524,413.2598" style="stroke:#059669;stroke-width:1;"/><line style="stroke:#059669;stroke-width:1;stroke-dasharray:2,2;" x1="36.7524" x2="150.9893" y1="413.2598" y2="413.2598"/><text fill="#000000" font-family="Segoe UI" font-size="13" lengthAdjust="spacing" textLength="77.7969" x="48.7524" y="408.5176">201 Created</text></g><!--SRC=[TP9FR-8m4CNl_XGZE4FuqmMAn4e44eI4ADlGzj3bO98XM0qsQxjagzL-zvs40A5TaaCSlpT-dfzjteJSSyrtiERXMwpLkun6Ab4QghwNlSoS7MRB8vKA6SE69mPBIeGR_fvONqaxvpk4Ie2nGdYQLihb-EiTPOZmXm4zGwrLMaGrljrtElVvz89hAqAnvzAwIaUe2qlBwtM6xXVBvqrxFV_Ex-MscTZWJ4YyMcROQhlTLgwxwlULv3TxVgDvbhxWy7tIStckxFMgORUxRfUq_w1iUrtsbp4hR8AmU0YMu10MAr6Rd_8HOs4iQk0WCOL2O6n_wHGgeqIWj1NW1ex3QtcucCA4MqpvH-wPl41rx7f3Ei8hdpc4jIAW9gJ5M7Chb3HvKN08uVNLsObGAuFw848qpgqAPxKw0u-uvMjkwEWNojXOO_1ZbgyuTgdzaNVdZHYJn0RKWVga7A95IUSGlXStW-fRkqkgpgBWvUW2Lp41puAW2Gb1okEO_f-cgnL36K4MoDYH5jI-Pqpwd-0p7bfn86uviE8Yqf3S6Om-q3cIgBFBQ-p5dOad-x4nBUAj1RKfwfvv8Y9-AOMrYZuO6mnWV68r632McIcBCFLXEW-ynoLzbWzGhzSlOIM8DAoTzpRII794UqnPX2LxiUwfvLQZUVAMVTafPAsIhM1qqpfvOVy0]--></g></svg>