<svg xmlns="http://www.w3.org/2000/svg" xmlns:xlink="http://www.w3.org/1999/xlink" contentStyleType="text/css" data-diagram-type="SEQUENCE" height="603px" preserveAspectRatio="none" style="width:576px;height:603px;background:#FEFEFE;" version="1.1" viewBox="0 0 576 603" width="576px" zoomAndPan="magnify"><title>PATCH /guests/{guest_id}</title><defs/><g><rect fill="#FEFEFE" height="603" style="stroke:none;stroke-width:1;" width="576" x="0" y="0"/><text fill="#000000" font-family="Segoe UI" font-size="14" font-weight="bold" lengthAdjust="spacing" textLength="189.4648" x="189.3557" y="28.5352">PATCH /guests/{guest_id}</text><text fill="#000000" font-family="Segoe UI" font-size="14" font-weight="bold" lengthAdjust="spacing" textLength="148.1143" x="210.031" y="45.0234">Update guest profile</text><g><title>API Gateway</title><rect fill="#7C3AED" height="319.1055" style="stroke:#A23B72;stroke-width:1;" width="10" x="214.7568" y="188.0859"/></g><g><title>svc-guest-profiles</title><rect fill="#7C3AED" height="260.4844" style="stroke:#A23B72;stroke-width:1;" width="10" x="343.3774" y="217.3965"/></g><g><title>PostgreSQL</title><rect fill="#FCE4EC" height="29.3105" style="stroke:#A23B72;stroke-width:1;" width="10" x="517.7515" y="325.3281"/></g><g><title>PostgreSQL</title><rect fill="#FCE4EC" height="29.3105" style="stroke:#A23B72;stroke-width:1;" width="10" x="517.7515" y="419.2598"/></g><g><title>Client</title><rect fill="#000000" fill-opacity="0.00000" height="403.7266" width="8" x="27.7524" y="121.4648"/><line style="stroke:#A23B72;stroke-width:0.5;stroke-dasharray:5,5;" x1="31" x2="31" y1="121.4648" y2="525.1914"/></g><g><title>API Gateway</title><rect fill="#000000" fill-opacity="0.00000" height="403.7266" width="8" x="215.7568" y="121.4648"/><line style="stroke:#A23B72;stroke-width:0.5;stroke-dasharray:5,5;" x1="219.4678" x2="219.4678" y1="121.4648" y2="525.1914"/></g><g><title>svc-guest-profiles</title><rect fill="#000000" fill-opacity="0.00000" height="403.7266" width="8" x="344.3774" y="121.4648"/><line style="stroke:#A23B72;stroke-width:0.5;stroke-dasharray:5,5;" x1="348.0459" x2="348.0459" y1="121.4648" y2="525.1914"/></g><g><title>PostgreSQL</title><rect fill="#000000" fill-opacity="0.00000" height="403.7266" width="8" x="518.7515" y="121.4648"/><line style="stroke:#A23B72;stroke-width:0.5;stroke-dasharray:5,5;" x1="522.3267" x2="522.3267" y1="121.4648" y2="525.1914"/></g><g class="participant participant-head" data-participant="Client"><rect fill="#E8F4F8" height="30.4883" rx="2.5" ry="2.5" style="stroke:#2E86AB;stroke-width:0.5;" width="53.5049" x="5" y="89.9766"/><text fill="#000000" font-family="Segoe UI" font-size="14" lengthAdjust="spacing" textLength="39.5049" x="12" y="110.5117">Client</text></g><g class="participant participant-tail" data-participant="Client"><rect fill="#E8F4F8" height="30.4883" rx="2.5" ry="2.5" style="stroke:#2E86AB;stroke-width:0.5;" width="53.5049" x="5" y="524.1914"/><text fill="#000000" font-family="Segoe UI" font-size="14" lengthAdjust="spacing" textLength="39.5049" x="12" y="544.7266">Client</text></g><g class="participant participant-head" data-participant="GW"><rect fill="#DBEAFE" height="30.4883" rx="2.5" ry="2.5" style="stroke:#2E86AB;stroke-width:0.5;" width="96.5781" x="171.4678" y="89.9766"/><text fill="#000000" font-family="Segoe UI" font-size="14" lengthAdjust="spacing" textLength="82.5781" x="178.4678" y="110.5117">API Gateway</text></g><g class="participant participant-tail" data-participant="GW"><rect fill="#DBEAFE" height="30.4883" rx="2.5" ry="2.5" style="stroke:#2E86AB;stroke-width:0.5;" width="96.5781" x="171.4678" y="524.1914"/><text fill="#000000" font-family="Segoe UI" font-size="14" lengthAdjust="spacing" textLength="82.5781" x="178.4678" y="544.7266">API Gateway</text></g><g class="participant participant-head" data-participant="Svc"><a href="/microservices/svc-guest-profiles/" target="_top" title="/microservices/svc-guest-profiles/" xlink:actuate="onRequest" xlink:href="/microservices/svc-guest-profiles/" xlink:show="new" xlink:title="/microservices/svc-guest-profiles/" xlink:type="simple"><rect fill="#E8F4F8" height="30.4883" rx="2.5" ry="2.5" style="stroke:#2E86AB;stroke-width:0.5;" width="140.6631" x="278.0459" y="89.9766"/><text fill="#000000" font-family="Segoe UI" font-size="14" lengthAdjust="spacing" textLength="126.6631" x="285.0459" y="110.5117">svc-guest-profiles</text></a></g><g class="participant participant-tail" data-participant="Svc"><a href="/microservices/svc-guest-profiles/" target="_top" title="/microservices/svc-guest-profiles/" xlink:actuate="onRequest" xlink:href="/microservices/svc-guest-profiles/" xlink:show="new" xlink:title="/microservices/svc-guest-profiles/" xlink:type="simple"><rect fill="#E8F4F8" height="30.4883" rx="2.5" ry="2.5" style="stroke:#2E86AB;stroke-width:0.5;" width="140.6631" x="278.0459" y="524.1914"/><text fill="#000000" font-family="Segoe UI" font-size="14" lengthAdjust="spacing" textLength="126.6631" x="285.0459" y="544.7266">svc-guest-profiles</text></a></g><g class="participant participant-head" data-participant="DB"><text fill="#000000" font-family="Segoe UI" font-size="14" lengthAdjust="spacing" textLength="76.8496" x="481.3267" y="118.5117">PostgreSQL</text><path d="M504.7515,68.9766 C504.7515,58.9766 522.7515,58.9766 522.7515,58.9766 C522.7515,58.9766 540.7515,58.9766 540.7515,68.9766 L540.7515,94.9766 C540.7515,104.9766 522.7515,104.9766 522.7515,104.9766 C522.7515,104.9766 504.7515,104.9766 504.7515,94.9766 L504.7515,68.9766" fill="#FCE4EC" style="stroke:#181818;stroke-width:0.5;"/><path d="M504.7515,68.9766 C504.7515,78.9766 522.7515,78.9766 522.7515,78.9766 C522.7515,78.9766 540.7515,78.9766 540.7515,68.9766" fill="none" style="stroke:#181818;stroke-width:0.5;"/></g><g class="participant participant-tail" data-participant="DB"><text fill="#000000" font-family="Segoe UI" font-size="14" lengthAdjust="spacing" textLength="76.8496" x="481.3267" y="537.7266">PostgreSQL</text><path d="M504.7515,550.6797 C504.7515,540.6797 522.7515,540.6797 522.7515,540.6797 C522.7515,540.6797 540.7515,540.6797 540.7515,550.6797 L540.7515,576.6797 C540.7515,586.6797 522.7515,586.6797 522.7515,586.6797 C522.7515,586.6797 504.7515,586.6797 504.7515,576.6797 L504.7515,550.6797" fill="#FCE4EC" style="stroke:#181818;stroke-width:0.5;"/><path d="M504.7515,550.6797 C504.7515,560.6797 522.7515,560.6797 522.7515,560.6797 C522.7515,560.6797 540.7515,560.6797 540.7515,550.6797" fill="none" style="stroke:#181818;stroke-width:0.5;"/></g><g><title>API Gateway</title><rect fill="#7C3AED" height="319.1055" style="stroke:#A23B72;stroke-width:1;" width="10" x="214.7568" y="188.0859"/></g><g><title>svc-guest-profiles</title><rect fill="#7C3AED" height="260.4844" style="stroke:#A23B72;stroke-width:1;" width="10" x="343.3774" y="217.3965"/></g><g><title>PostgreSQL</title><rect fill="#FCE4EC" height="29.3105" style="stroke:#A23B72;stroke-width:1;" width="10" x="517.7515" y="325.3281"/></g><g><title>PostgreSQL</title><rect fill="#FCE4EC" height="29.3105" style="stroke:#A23B72;stroke-width:1;" width="10" x="517.7515" y="419.2598"/></g><path d="M278,136.4648 L278,161.4648 L418,161.4648 L418,146.4648 L408,136.4648 L278,136.4648" fill="#FEFFDD" style="stroke:#181818;stroke-width:0.5;"/><path d="M408,136.4648 L408,146.4648 L418,146.4648 L408,136.4648" fill="#FEFFDD" style="stroke:#181818;stroke-width:0.5;"/><a href="/services/api/svc-guest-profiles.html#/Guests/updateGuest" target="_top" title="/services/api/svc-guest-profiles.html#/Guests/updateGuest" xlink:actuate="onRequest" xlink:href="/services/api/svc-guest-profiles.html#/Guests/updateGuest" xlink:show="new" xlink:title="/services/api/svc-guest-profiles.html#/Guests/updateGuest" xlink:type="simple"><text fill="#0000FF" font-family="Segoe UI" font-size="13" lengthAdjust="spacing" text-decoration="underline" textLength="119.4058" x="284" y="154.0332">View in Swagger UI</text></a><g class="message" data-participant-1="Client" data-participant-2="GW"><polygon fill="#7C3AED" points="202.7568,184.0859,212.7568,188.0859,202.7568,192.0859,206.7568,188.0859" style="stroke:#7C3AED;stroke-width:1;"/><line style="stroke:#7C3AED;stroke-width:1;" x1="31.7524" x2="208.7568" y1="188.0859" y2="188.0859"/><text fill="#000000" font-family="Segoe UI" font-size="13" lengthAdjust="spacing" textLength="164.0044" x="38.7524" y="183.3438">PATCH /guests/{guest_id}</text></g><g class="message" data-participant-1="GW" data-participant-2="Svc"><polygon fill="#7C3AED" points="331.3774,213.3965,341.3774,217.3965,331.3774,221.3965,335.3774,217.3965" style="stroke:#7C3AED;stroke-width:1;"/><line style="stroke:#7C3AED;stroke-width:1;" x1="224.7568" x2="337.3774" y1="217.3965" y2="217.3965"/><a href="/microservices/svc-guest-profiles/#patch-guestsguest_id-update-guest-profile" target="_top" title="/microservices/svc-guest-profiles/#patch-guestsguest_id-update-guest-profile" xlink:actuate="onRequest" xlink:href="/microservices/svc-guest-profiles/#patch-guestsguest_id-update-guest-profile" xlink:show="new" xlink:title="/microservices/svc-guest-profiles/#patch-guestsguest_id-update-guest-profile" xlink:type="simple"><text fill="#0000FF" font-family="Segoe UI" font-size="13" lengthAdjust="spacing" text-decoration="underline" textLength="85.1348" x="231.7568" y="212.6543">route request</text></a></g><path d="M358,230.3965 L358,255.3965 L516,255.3965 L516,240.3965 L506,230.3965 L358,230.3965" fill="#FEFFDD" style="stroke:#181818;stroke-width:0.5;"/><path d="M506,230.3965 L506,240.3965 L516,240.3965 L506,230.3965" fill="#FEFFDD" style="stroke:#181818;stroke-width:0.5;"/><text fill="#000000" font-family="Segoe UI" font-size="13" lengthAdjust="spacing" textLength="137.5728" x="364" y="247.9648">Validate request body</text><rect fill="#EEEEEE" height="3" style="stroke:#EEEEEE;stroke-width:1;" width="569.1763" x="0" y="281.3623"/><line style="stroke:#000000;stroke-width:1;" x1="0" x2="569.1763" y1="281.3623" y2="281.3623"/><line style="stroke:#000000;stroke-width:1;" x1="0" x2="569.1763" y1="284.3623" y2="284.3623"/><rect fill="#EEEEEE" height="23.3105" style="stroke:#000000;stroke-width:2;" width="80.3711" x="244.4026" y="270.707"/><text fill="#000000" font-family="Segoe UI" font-size="13" font-weight="bold" lengthAdjust="spacing" textLength="62.0864" x="250.4026" y="287.2754">Database</text><g class="message" data-participant-1="Svc" data-participant-2="DB"><polygon fill="#7C3AED" points="505.7515,321.3281,515.7515,325.3281,505.7515,329.3281,509.7515,325.3281" style="stroke:#7C3AED;stroke-width:1;"/><line style="stroke:#7C3AED;stroke-width:1;" x1="353.3774" x2="511.7515" y1="325.3281" y2="325.3281"/><text fill="#000000" font-family="Segoe UI" font-size="13" lengthAdjust="spacing" textLength="145.374" x="360.3774" y="320.5859">SELECT ... FOR UPDATE</text></g><g class="message" data-participant-1="DB" data-participant-2="Svc"><polygon fill="#7C3AED" points="364.3774,350.6387,354.3774,354.6387,364.3774,358.6387,360.3774,354.6387" style="stroke:#7C3AED;stroke-width:1;"/><line style="stroke:#7C3AED;stroke-width:1;stroke-dasharray:2,2;" x1="358.3774" x2="521.7515" y1="354.6387" y2="354.6387"/><text fill="#000000" font-family="Segoe UI" font-size="13" lengthAdjust="spacing" textLength="75.3086" x="370.3774" y="349.8965">Current row</text></g><path d="M358,367.6387 L358,392.6387 L544,392.6387 L544,377.6387 L534,367.6387 L358,367.6387" fill="#FEFFDD" style="stroke:#181818;stroke-width:0.5;"/><path d="M534,367.6387 L534,377.6387 L544,377.6387 L534,367.6387" fill="#FEFFDD" style="stroke:#181818;stroke-width:0.5;"/><text fill="#000000" font-family="Segoe UI" font-size="13" lengthAdjust="spacing" textLength="165.9023" x="364" y="385.207">Merge changed fields only</text><g class="message" data-participant-1="Svc" data-participant-2="DB"><polygon fill="#7C3AED" points="505.7515,415.2598,515.7515,419.2598,505.7515,423.2598,509.7515,419.2598" style="stroke:#7C3AED;stroke-width:1;"/><line style="stroke:#7C3AED;stroke-width:1;" x1="353.3774" x2="511.7515" y1="419.2598" y2="419.2598"/><text fill="#000000" font-family="Segoe UI" font-size="13" lengthAdjust="spacing" textLength="109.4526" x="360.3774" y="414.5176">UPDATE ... SET ...</text></g><g class="message" data-participant-1="DB" data-participant-2="Svc"><polygon fill="#7C3AED" points="364.3774,444.5703,354.3774,448.5703,364.3774,452.5703,360.3774,448.5703" style="stroke:#7C3AED;stroke-width:1;"/><line style="stroke:#7C3AED;stroke-width:1;stroke-dasharray:2,2;" x1="358.3774" x2="521.7515" y1="448.5703" y2="448.5703"/><text fill="#000000" font-family="Segoe UI" font-size="13" lengthAdjust="spacing" textLength="80.2725" x="370.3774" y="443.8281">Updated row</text></g><g class="message" data-participant-1="Svc" data-participant-2="GW"><polygon fill="#7C3AED" points="235.7568,473.8809,225.7568,477.8809,235.7568,481.8809,231.7568,477.8809" style="stroke:#7C3AED;stroke-width:1;"/><line style="stroke:#7C3AED;stroke-width:1;stroke-dasharray:2,2;" x1="229.7568" x2="347.3774" y1="477.8809" y2="477.8809"/><text fill="#000000" font-family="Segoe UI" font-size="13" lengthAdjust="spacing" textLength="47.3599" x="241.7568" y="473.1387">200 OK</text></g><g class="message" data-participant-1="GW" data-participant-2="Client"><polygon fill="#7C3AED" points="42.7524,503.1914,32.7524,507.1914,42.7524,511.1914,38.7524,507.1914" style="stroke:#7C3AED;stroke-width:1;"/><line style="stroke:#7C3AED;stroke-width:1;stroke-dasharray:2,2;" x1="36.7524" x2="218.7568" y1="507.1914" y2="507.1914"/><text fill="#000000" font-family="Segoe UI" font-size="13" lengthAdjust="spacing" textLength="47.3599" x="48.7524" y="502.4492">200 OK</text></g><!--SRC=[ZLDHRzem47xthpZ1Cz12DH0Iaq98M3NMib7QXmvD9Zw2rM1dje5LLV_xR2TGiZ9joKCSt-Vxlllkh9-uoAcY6rZIv2bLSYjOA3Efe1v7xYNwYD1hokIUYnHMDDDu4c6uejlCn5AO6xf1gCqmbGZpwzhfSVovHP4Wl12mJw2Kt9TKtQH3aVdjALM69podmWobOgXAI3lgVGY6xo1_YevwyLNSyx09N-642woa2TgTORVjuqFvgnAABtlnnUKnzCwEEBPn7xwHfferwNQNdPFO6IixKPUy4cAuoH2cmLtu2Lhf5hNHhHV__S7PwtSnpnar27u7SYLNF4D2yhUAeHPc78Mf0TLGBAlXO7eDOvjZJvyzPlm0zT4m2cmhApYzIngUfb7IQ0-VxH9uV6njUAAaHhNZ2UhMUsnhiJYQRHNJ9TMsxLEfJQfmzdNYSus6jlGmkef2GeJr1UGEbMEmJbcEOtgQypCKpRNPPFNMk31fwutnFt3FSGzSm6nFqzHcd5yl5WG50qT2IE4AD3wwslj_DPlGnF2TSzjPL8wWNTfppeJ-VzbGpwb9riMkFgHk56AhMB03ORcKkmNQMC57UiTsu2zyKZnT6v2hKiWzpRWVY_8mB2Lx9cGmWD71-i6040UsugthVPX5aoYyWsQp2V7jDvXFHy5Tz4PvqXcxR1nB3hTAEU_irIGCJ-1dTNr1bI8aQofIPB3Yc34DKcJFLIq5kTSoYxocVmifxW4x8wH8VMXk- -82RZ-VGjnukIvQH3a8vr3Z1_8R]--></g></svg>