<svg xmlns="http://www.w3.org/2000/svg" xmlns:xlink="http://www.w3.org/1999/xlink" contentStyleType="text/css" data-diagram-type="SEQUENCE" height="487px" preserveAspectRatio="none" style="width:526px;height:487px;background:#FEFEFE;" version="1.1" viewBox="0 0 526 487" width="526px" zoomAndPan="magnify"><title>GET /notifications</title><defs/><g><rect fill="#FEFEFE" height="487" style="stroke:none;stroke-width:1;" width="526" x="0" y="0"/><text fill="#000000" font-family="Segoe UI" font-size="14" font-weight="bold" lengthAdjust="spacing" textLength="131.7148" x="193.2854" y="41.3125">GET /notifications</text><text fill="#000000" font-family="Segoe UI" font-size="14" font-weight="bold" lengthAdjust="spacing" textLength="121.5771" x="198.3542" y="57.8008">List notifications</text><g><title>API Gateway</title><rect fill="#2563EB" height="189.8633" style="stroke:#A23B72;stroke-width:1;" width="10" x="164.6929" y="200.8633"/></g><g><title>svc-notifications</title><rect fill="#2563EB" height="131.2422" style="stroke:#A23B72;stroke-width:1;" width="10" x="286.9971" y="230.1738"/></g><g><title>PG . Valkey</title><rect fill="#FCE4EC" height="29.3105" style="stroke:#A23B72;stroke-width:1;" width="10" x="465.2495" y="302.7949"/></g><g><title>Client</title><rect fill="#000000" fill-opacity="0.00000" height="274.4844" width="8" x="27.7524" y="134.2422"/><line style="stroke:#A23B72;stroke-width:0.5;stroke-dasharray:5,5;" x1="31" x2="31" y1="134.2422" y2="408.7266"/></g><g><title>API Gateway</title><rect fill="#000000" fill-opacity="0.00000" height="274.4844" width="8" x="165.6929" y="134.2422"/><line style="stroke:#A23B72;stroke-width:0.5;stroke-dasharray:5,5;" x1="169.4038" x2="169.4038" y1="134.2422" y2="408.7266"/></g><g><title>svc-notifications</title><rect fill="#000000" fill-opacity="0.00000" height="274.4844" width="8" x="287.9971" y="134.2422"/><line style="stroke:#A23B72;stroke-width:0.5;stroke-dasharray:5,5;" x1="291.9819" x2="291.9819" y1="134.2422" y2="408.7266"/></g><g><title>PG . Valkey</title><rect fill="#000000" fill-opacity="0.00000" height="274.4844" width="8" x="466.2495" y="134.2422"/><line style="stroke:#A23B72;stroke-width:0.5;stroke-dasharray:5,5;" x1="470.2134" x2="470.2134" y1="134.2422" y2="408.7266"/></g><g class="participant participant-head" data-participant="Client"><a href="/applications/" target="_top" title="/applications/" xlink:actuate="onRequest" xlink:href="/applications/" xlink:show="new" xlink:title="/applications/" xlink:type="simple"><rect fill="#E8F4F8" height="30.4883" rx="2.5" ry="2.5" style="stroke:#2E86AB;stroke-width:0.5;" width="53.5049" x="5" y="102.7539"/><text fill="#000000" font-family="Segoe UI" font-size="14" lengthAdjust="spacing" textLength="39.5049" x="12" y="123.2891">Client</text></a></g><g class="participant participant-tail" data-participant="Client"><a href="/applications/" target="_top" title="/applications/" xlink:actuate="onRequest" xlink:href="/applications/" xlink:show="new" xlink:title="/applications/" xlink:type="simple"><rect fill="#E8F4F8" height="30.4883" rx="2.5" ry="2.5" style="stroke:#2E86AB;stroke-width:0.5;" width="53.5049" x="5" y="407.7266"/><text fill="#000000" font-family="Segoe UI" font-size="14" lengthAdjust="spacing" textLength="39.5049" x="12" y="428.2617">Client</text></a></g><g class="participant participant-head" data-participant="GW"><rect fill="#DBEAFE" height="30.4883" rx="2.5" ry="2.5" style="stroke:#2E86AB;stroke-width:0.5;" width="96.5781" x="121.4038" y="102.7539"/><text fill="#000000" font-family="Segoe UI" font-size="14" lengthAdjust="spacing" textLength="82.5781" x="128.4038" y="123.2891">API Gateway</text></g><g class="participant participant-tail" data-participant="GW"><rect fill="#DBEAFE" height="30.4883" rx="2.5" ry="2.5" style="stroke:#2E86AB;stroke-width:0.5;" width="96.5781" x="121.4038" y="407.7266"/><text fill="#000000" font-family="Segoe UI" font-size="14" lengthAdjust="spacing" textLength="82.5781" x="128.4038" y="428.2617">API Gateway</text></g><g class="participant participant-head" data-participant="Svc"><a href="/microservices/svc-notifications/" target="_top" title="/microservices/svc-notifications/" xlink:actuate="onRequest" xlink:href="/microservices/svc-notifications/" xlink:show="new" xlink:title="/microservices/svc-notifications/" xlink:type="simple"><rect fill="#E8F4F8" height="30.4883" rx="2.5" ry="2.5" style="stroke:#2E86AB;stroke-width:0.5;" width="128.0303" x="227.9819" y="102.7539"/><text fill="#000000" font-family="Segoe UI" font-size="14" lengthAdjust="spacing" textLength="114.0303" x="234.9819" y="123.2891">svc-notifications</text></a></g><g class="participant participant-tail" data-participant="Svc"><a href="/microservices/svc-notifications/" target="_top" title="/microservices/svc-notifications/" xlink:actuate="onRequest" xlink:href="/microservices/svc-notifications/" xlink:show="new" xlink:title="/microservices/svc-notifications/" xlink:type="simple"><rect fill="#E8F4F8" height="30.4883" rx="2.5" ry="2.5" style="stroke:#2E86AB;stroke-width:0.5;" width="128.0303" x="227.9819" y="407.7266"/><text fill="#000000" font-family="Segoe UI" font-size="14" lengthAdjust="spacing" textLength="114.0303" x="234.9819" y="428.2617">svc-notifications</text></a></g><g class="participant participant-head" data-participant="DB"><text fill="#000000" font-family="Segoe UI" font-size="14" lengthAdjust="spacing" textLength="82.0723" x="426.2134" y="131.2891">PG + Valkey</text><path d="M452.2495,81.7539 C452.2495,71.7539 470.2495,71.7539 470.2495,71.7539 C470.2495,71.7539 488.2495,71.7539 488.2495,81.7539 L488.2495,107.7539 C488.2495,117.7539 470.2495,117.7539 470.2495,117.7539 C470.2495,117.7539 452.2495,117.7539 452.2495,107.7539 L452.2495,81.7539" fill="#FCE4EC" style="stroke:#181818;stroke-width:0.5;"/><path d="M452.2495,81.7539 C452.2495,91.7539 470.2495,91.7539 470.2495,91.7539 C470.2495,91.7539 488.2495,91.7539 488.2495,81.7539" fill="none" style="stroke:#181818;stroke-width:0.5;"/></g><g class="participant participant-tail" data-participant="DB"><text fill="#000000" font-family="Segoe UI" font-size="14" lengthAdjust="spacing" textLength="82.0723" x="426.2134" y="421.2617">PG + Valkey</text><path d="M452.2495,434.2148 C452.2495,424.2148 470.2495,424.2148 470.2495,424.2148 C470.2495,424.2148 488.2495,424.2148 488.2495,434.2148 L488.2495,460.2148 C488.2495,470.2148 470.2495,470.2148 470.2495,470.2148 C470.2495,470.2148 452.2495,470.2148 452.2495,460.2148 L452.2495,434.2148" fill="#FCE4EC" style="stroke:#181818;stroke-width:0.5;"/><path d="M452.2495,434.2148 C452.2495,444.2148 470.2495,444.2148 470.2495,444.2148 C470.2495,444.2148 488.2495,444.2148 488.2495,434.2148" fill="none" style="stroke:#181818;stroke-width:0.5;"/></g><g><title>API Gateway</title><rect fill="#2563EB" height="189.8633" style="stroke:#A23B72;stroke-width:1;" width="10" x="164.6929" y="200.8633"/></g><g><title>svc-notifications</title><rect fill="#2563EB" height="131.2422" style="stroke:#A23B72;stroke-width:1;" width="10" x="286.9971" y="230.1738"/></g><g><title>PG . Valkey</title><rect fill="#FCE4EC" height="29.3105" style="stroke:#A23B72;stroke-width:1;" width="10" x="465.2495" y="302.7949"/></g><path d="M221,149.2422 L221,174.2422 L361,174.2422 L361,159.2422 L351,149.2422 L221,149.2422" fill="#FEFFDD" style="stroke:#181818;stroke-width:0.5;"/><path d="M351,149.2422 L351,159.2422 L361,159.2422 L351,149.2422" fill="#FEFFDD" style="stroke:#181818;stroke-width:0.5;"/><a href="/services/api/svc-notifications.html#/Notifications/listNotifications" target="_top" title="/services/api/svc-notifications.html#/Notifications/listNotifications" xlink:actuate="onRequest" xlink:href="/services/api/svc-notifications.html#/Notifications/listNotifications" xlink:show="new" xlink:title="/services/api/svc-notifications.html#/Notifications/listNotifications" xlink:type="simple"><text fill="#0000FF" font-family="Segoe UI" font-size="13" lengthAdjust="spacing" text-decoration="underline" textLength="119.4058" x="227" y="166.8105">View in Swagger UI</text></a><g class="message" data-participant-1="Client" data-participant-2="GW"><polygon fill="#2563EB" points="152.6929,196.8633,162.6929,200.8633,152.6929,204.8633,156.6929,200.8633" style="stroke:#2563EB;stroke-width:1;"/><line style="stroke:#2563EB;stroke-width:1;" x1="31.7524" x2="158.6929" y1="200.8633" y2="200.8633"/><text fill="#000000" font-family="Segoe UI" font-size="13" lengthAdjust="spacing" textLength="113.9404" x="38.7524" y="196.1211">GET /notifications</text></g><g class="message" data-participant-1="GW" data-participant-2="Svc"><polygon fill="#2563EB" points="274.9971,226.1738,284.9971,230.1738,274.9971,234.1738,278.9971,230.1738" style="stroke:#2563EB;stroke-width:1;"/><line style="stroke:#2563EB;stroke-width:1;" x1="174.6929" x2="280.9971" y1="230.1738" y2="230.1738"/><text fill="#000000" font-family="Segoe UI" font-size="13" lengthAdjust="spacing" textLength="85.1348" x="181.6929" y="225.4316">route request</text></g><rect fill="#EEEEEE" height="3" style="stroke:#EEEEEE;stroke-width:1;" width="519.2856" x="0" y="258.8291"/><line style="stroke:#000000;stroke-width:1;" x1="0" x2="519.2856" y1="258.8291" y2="258.8291"/><line style="stroke:#000000;stroke-width:1;" x1="0" x2="519.2856" y1="261.8291" y2="261.8291"/><rect fill="#EEEEEE" height="23.3105" style="stroke:#000000;stroke-width:2;" width="80.3711" x="219.4573" y="248.1738"/><text fill="#000000" font-family="Segoe UI" font-size="13" font-weight="bold" lengthAdjust="spacing" textLength="62.0864" x="225.4573" y="264.7422">Database</text><g class="message" data-participant-1="Svc" data-participant-2="DB"><polygon fill="#2563EB" points="453.2495,298.7949,463.2495,302.7949,453.2495,306.7949,457.2495,302.7949" style="stroke:#2563EB;stroke-width:1;"/><line style="stroke:#2563EB;stroke-width:1;" x1="296.9971" x2="459.2495" y1="302.7949" y2="302.7949"/><text fill="#000000" font-family="Segoe UI" font-size="13" lengthAdjust="spacing" textLength="149.2524" x="303.9971" y="298.0527">SELECT ... WHERE filters</text></g><g class="message" data-participant-1="DB" data-participant-2="Svc"><polygon fill="#2563EB" points="307.9971,328.1055,297.9971,332.1055,307.9971,336.1055,303.9971,332.1055" style="stroke:#2563EB;stroke-width:1;"/><line style="stroke:#2563EB;stroke-width:1;stroke-dasharray:2,2;" x1="301.9971" x2="469.2495" y1="332.1055" y2="332.1055"/><text fill="#000000" font-family="Segoe UI" font-size="13" lengthAdjust="spacing" textLength="93.209" x="313.9971" y="327.3633">Page of results</text></g><g class="message" data-participant-1="Svc" data-participant-2="GW"><polygon fill="#2563EB" points="185.6929,357.416,175.6929,361.416,185.6929,365.416,181.6929,361.416" style="stroke:#2563EB;stroke-width:1;"/><line style="stroke:#2563EB;stroke-width:1;stroke-dasharray:2,2;" x1="179.6929" x2="290.9971" y1="361.416" y2="361.416"/><text fill="#000000" font-family="Segoe UI" font-size="13" lengthAdjust="spacing" textLength="47.3599" x="191.6929" y="356.6738">200 OK</text></g><g class="message" data-participant-1="GW" data-participant-2="Client"><polygon fill="#2563EB" points="42.7524,386.7266,32.7524,390.7266,42.7524,394.7266,38.7524,390.7266" style="stroke:#2563EB;stroke-width:1;"/><line style="stroke:#2563EB;stroke-width:1;stroke-dasharray:2,2;" x1="36.7524" x2="168.6929" y1="390.7266" y2="390.7266"/><text fill="#000000" font-family="Segoe UI" font-size="13" lengthAdjust="spacing" textLength="47.3599" x="48.7524" y="385.9844">200 OK</text></g><a href="/microservices/svc-notifications/#integration-context" target="_top" title="/microservices/svc-notifications/#integration-context" xlink:actuate="onRequest" xlink:href="/microservices/svc-notifications/#integration-context" xlink:show="new" xlink:title="/microservices/svc-notifications/#integration-context" xlink:type="simple"><text fill="#0000FF" font-family="Segoe UI" font-size="10" lengthAdjust="spacing" text-decoration="underline" textLength="192.6221" x="325.6636" y="14.668">&#11014; svc-notifications Integration Context</text></a><!--SRC=[ZPFDZjem58NtVeehM5Ry34m7X4Gb4XAAYYWgCyDYoi8aDy4YsDJsm5HLjtsQFbMVf3S1Gb9ODDauFkVUOtzsp4R87TTy2oiUR6AjNcNegaHfgFfU-ZAJEyoQX-eWP0mHJmmMb10Z_ffONqaxvLk4oXnZXV0qhXJByTihoW3X1mDw1bghmocgzVwXZQjiUiQr5O7OSMaTfKFKPulNVHWuLvP_5-rr_Nk_czac8iA9a5XgCsYrdKuhqntrLfBykwxVlCkbAno-JtecJvKjTmqwdLMxeDr0sVOwx2TZQ-HK1YylZQq8j3Aezo90qp3xe2QL5P48k1LAcaPLI8knphvg0P75Dmj_Vl-2AokCBqvmZyxbaZ4hR88myXwXKV9_bHDXB9Jc6DjTg4B5JGHAMm5ku3XCLyntkoHV7WMKAWQpCOounGF_dfMD5b0TEjw0Rb39TxNwp3tV1__3PBdCJpZabg-ueRis6y4xUER91e_9GuU0kzwzvp96vGXgJyGfWSw7ClBsV2Uk8-fhkqsgZMafDY5SfHbu5dW08M5-u75CtP_6n0Dbc495naxCQXzI3BqRHy1uOCMUS6MSJjUVXbIHekW1tHuITVhB67jnf-BPplfz69ufzFkCfI8reFttOEvDFFSHwlKwB3vwNpo8H69H5u8Bc6XOovDdF2Pa4MKR-gKD2x5GSWevRwpLRCBdJqLBYZdT1pbE46wvHWls5m00]--></g></svg>