<svg xmlns="http://www.w3.org/2000/svg" xmlns:xlink="http://www.w3.org/1999/xlink" contentStyleType="text/css" data-diagram-type="SEQUENCE" height="522px" preserveAspectRatio="none" style="width:831px;height:522px;background:#FEFEFE;" version="1.1" viewBox="0 0 831 522" width="831px" zoomAndPan="magnify"><title>GET /analytics/guide-performance/{guide_id}</title><defs/><g><rect fill="#FEFEFE" height="522" style="stroke:none;stroke-width:1;" width="831" x="0" y="0"/><text fill="#000000" font-family="Segoe UI" font-size="14" font-weight="bold" lengthAdjust="spacing" textLength="333.5117" x="244.7727" y="41.3125">GET /analytics/guide-performance/{guide_id}</text><text fill="#000000" font-family="Segoe UI" font-size="14" font-weight="bold" lengthAdjust="spacing" textLength="322.3555" x="250.3508" y="57.8008">Get performance metrics for a specific guide</text><g><title>API Gateway</title><rect fill="#2563EB" height="225.1738" style="stroke:#A23B72;stroke-width:1;" width="10" x="340.104" y="200.8633"/></g><g><title>svc-analytics</title><rect fill="#2563EB" height="166.5527" style="stroke:#A23B72;stroke-width:1;" width="10" x="454.2388" y="230.1738"/></g><g><title>Oracle</title><rect fill="#FCE4EC" height="29.3105" style="stroke:#A23B72;stroke-width:1;" width="10" x="632.1294" y="302.7949"/></g><g><title>Client</title><rect fill="#000000" fill-opacity="0.00000" height="309.7949" width="8" x="27.7524" y="134.2422"/><line style="stroke:#A23B72;stroke-width:0.5;stroke-dasharray:5,5;" x1="31" x2="31" y1="134.2422" y2="444.0371"/></g><g><title>API Gateway</title><rect fill="#000000" fill-opacity="0.00000" height="309.7949" width="8" x="341.104" y="134.2422"/><line style="stroke:#A23B72;stroke-width:0.5;stroke-dasharray:5,5;" x1="344.8149" x2="344.8149" y1="134.2422" y2="444.0371"/></g><g><title>svc-analytics</title><rect fill="#000000" fill-opacity="0.00000" height="309.7949" width="8" x="455.2388" y="134.2422"/><line style="stroke:#A23B72;stroke-width:0.5;stroke-dasharray:5,5;" x1="458.8599" x2="458.8599" y1="134.2422" y2="444.0371"/></g><g><title>Oracle</title><rect fill="#000000" fill-opacity="0.00000" height="309.7949" width="8" x="633.1294" y="134.2422"/><line style="stroke:#A23B72;stroke-width:0.5;stroke-dasharray:5,5;" x1="636.4526" x2="636.4526" y1="134.2422" y2="444.0371"/></g><g class="participant participant-head" data-participant="Client"><rect fill="#E8F4F8" height="30.4883" rx="2.5" ry="2.5" style="stroke:#2E86AB;stroke-width:0.5;" width="53.5049" x="5" y="102.7539"/><text fill="#000000" font-family="Segoe UI" font-size="14" lengthAdjust="spacing" textLength="39.5049" x="12" y="123.2891">Client</text></g><g class="participant participant-tail" data-participant="Client"><rect fill="#E8F4F8" height="30.4883" rx="2.5" ry="2.5" style="stroke:#2E86AB;stroke-width:0.5;" width="53.5049" x="5" y="443.0371"/><text fill="#000000" font-family="Segoe UI" font-size="14" lengthAdjust="spacing" textLength="39.5049" x="12" y="463.5723">Client</text></g><g class="participant participant-head" data-participant="GW"><rect fill="#DBEAFE" height="30.4883" rx="2.5" ry="2.5" style="stroke:#2E86AB;stroke-width:0.5;" width="96.5781" x="296.8149" y="102.7539"/><text fill="#000000" font-family="Segoe UI" font-size="14" lengthAdjust="spacing" textLength="82.5781" x="303.8149" y="123.2891">API Gateway</text></g><g class="participant participant-tail" data-participant="GW"><rect fill="#DBEAFE" height="30.4883" rx="2.5" ry="2.5" style="stroke:#2E86AB;stroke-width:0.5;" width="96.5781" x="296.8149" y="443.0371"/><text fill="#000000" font-family="Segoe UI" font-size="14" lengthAdjust="spacing" textLength="82.5781" x="303.8149" y="463.5723">API Gateway</text></g><g class="participant participant-head" data-participant="Svc"><a href="/microservices/svc-analytics/" target="_top" title="/microservices/svc-analytics/" xlink:actuate="onRequest" xlink:href="/microservices/svc-analytics/" xlink:show="new" xlink:title="/microservices/svc-analytics/" xlink:type="simple"><rect fill="#E8F4F8" height="30.4883" rx="2.5" ry="2.5" style="stroke:#2E86AB;stroke-width:0.5;" width="102.7578" x="407.8599" y="102.7539"/><text fill="#000000" font-family="Segoe UI" font-size="14" lengthAdjust="spacing" textLength="88.7578" x="414.8599" y="123.2891">svc-analytics</text></a></g><g class="participant participant-tail" data-participant="Svc"><a href="/microservices/svc-analytics/" target="_top" title="/microservices/svc-analytics/" xlink:actuate="onRequest" xlink:href="/microservices/svc-analytics/" xlink:show="new" xlink:title="/microservices/svc-analytics/" xlink:type="simple"><rect fill="#E8F4F8" height="30.4883" rx="2.5" ry="2.5" style="stroke:#2E86AB;stroke-width:0.5;" width="102.7578" x="407.8599" y="443.0371"/><text fill="#000000" font-family="Segoe UI" font-size="14" lengthAdjust="spacing" textLength="88.7578" x="414.8599" y="463.5723">svc-analytics</text></a></g><g class="participant participant-head" data-participant="DB"><text fill="#000000" font-family="Segoe UI" font-size="14" lengthAdjust="spacing" textLength="43.3535" x="612.4526" y="131.2891">Oracle</text><path d="M619.1294,81.7539 C619.1294,71.7539 637.1294,71.7539 637.1294,71.7539 C637.1294,71.7539 655.1294,71.7539 655.1294,81.7539 L655.1294,107.7539 C655.1294,117.7539 637.1294,117.7539 637.1294,117.7539 C637.1294,117.7539 619.1294,117.7539 619.1294,107.7539 L619.1294,81.7539" fill="#FCE4EC" style="stroke:#181818;stroke-width:0.5;"/><path d="M619.1294,81.7539 C619.1294,91.7539 637.1294,91.7539 637.1294,91.7539 C637.1294,91.7539 655.1294,91.7539 655.1294,81.7539" fill="none" style="stroke:#181818;stroke-width:0.5;"/></g><g class="participant participant-tail" data-participant="DB"><text fill="#000000" font-family="Segoe UI" font-size="14" lengthAdjust="spacing" textLength="43.3535" x="612.4526" y="456.5723">Oracle</text><path d="M619.1294,469.5254 C619.1294,459.5254 637.1294,459.5254 637.1294,459.5254 C637.1294,459.5254 655.1294,459.5254 655.1294,469.5254 L655.1294,495.5254 C655.1294,505.5254 637.1294,505.5254 637.1294,505.5254 C637.1294,505.5254 619.1294,505.5254 619.1294,495.5254 L619.1294,469.5254" fill="#FCE4EC" style="stroke:#181818;stroke-width:0.5;"/><path d="M619.1294,469.5254 C619.1294,479.5254 637.1294,479.5254 637.1294,479.5254 C637.1294,479.5254 655.1294,479.5254 655.1294,469.5254" fill="none" style="stroke:#181818;stroke-width:0.5;"/></g><g><title>API Gateway</title><rect fill="#2563EB" height="225.1738" style="stroke:#A23B72;stroke-width:1;" width="10" x="340.104" y="200.8633"/></g><g><title>svc-analytics</title><rect fill="#2563EB" height="166.5527" style="stroke:#A23B72;stroke-width:1;" width="10" x="454.2388" y="230.1738"/></g><g><title>Oracle</title><rect fill="#FCE4EC" height="29.3105" style="stroke:#A23B72;stroke-width:1;" width="10" x="632.1294" y="302.7949"/></g><path d="M389,149.2422 L389,174.2422 L529,174.2422 L529,159.2422 L519,149.2422 L389,149.2422" fill="#FEFFDD" style="stroke:#181818;stroke-width:0.5;"/><path d="M519,149.2422 L519,159.2422 L529,159.2422 L519,149.2422" fill="#FEFFDD" style="stroke:#181818;stroke-width:0.5;"/><a href="/services/api/svc-analytics.html#/Staff/getGuidePerformance" target="_top" title="/services/api/svc-analytics.html#/Staff/getGuidePerformance" xlink:actuate="onRequest" xlink:href="/services/api/svc-analytics.html#/Staff/getGuidePerformance" xlink:show="new" xlink:title="/services/api/svc-analytics.html#/Staff/getGuidePerformance" xlink:type="simple"><text fill="#0000FF" font-family="Segoe UI" font-size="13" lengthAdjust="spacing" text-decoration="underline" textLength="119.4058" x="395" y="166.8105">View in Swagger UI</text></a><g class="message" data-participant-1="Client" data-participant-2="GW"><polygon fill="#2563EB" points="328.104,196.8633,338.104,200.8633,328.104,204.8633,332.104,200.8633" style="stroke:#2563EB;stroke-width:1;"/><line style="stroke:#2563EB;stroke-width:1;" x1="31.7524" x2="334.104" y1="200.8633" y2="200.8633"/><text fill="#000000" font-family="Segoe UI" font-size="13" lengthAdjust="spacing" textLength="289.3516" x="38.7524" y="196.1211">GET /analytics/guide-performance/{guide_id}</text></g><g class="message" data-participant-1="GW" data-participant-2="Svc"><polygon fill="#2563EB" points="442.2388,226.1738,452.2388,230.1738,442.2388,234.1738,446.2388,230.1738" style="stroke:#2563EB;stroke-width:1;"/><line style="stroke:#2563EB;stroke-width:1;" x1="350.104" x2="448.2388" y1="230.1738" y2="230.1738"/><text fill="#000000" font-family="Segoe UI" font-size="13" lengthAdjust="spacing" textLength="85.1348" x="357.104" y="225.4316">route request</text></g><rect fill="#EEEEEE" height="3" style="stroke:#EEEEEE;stroke-width:1;" width="824.0571" x="0" y="258.8291"/><line style="stroke:#000000;stroke-width:1;" x1="0" x2="824.0571" y1="258.8291" y2="258.8291"/><line style="stroke:#000000;stroke-width:1;" x1="0" x2="824.0571" y1="261.8291" y2="261.8291"/><rect fill="#EEEEEE" height="23.3105" style="stroke:#000000;stroke-width:2;" width="80.3711" x="371.843" y="248.1738"/><text fill="#000000" font-family="Segoe UI" font-size="13" font-weight="bold" lengthAdjust="spacing" textLength="62.0864" x="377.843" y="264.7422">Database</text><g class="message" data-participant-1="Svc" data-participant-2="DB"><polygon fill="#2563EB" points="620.1294,298.7949,630.1294,302.7949,620.1294,306.7949,624.1294,302.7949" style="stroke:#2563EB;stroke-width:1;"/><line style="stroke:#2563EB;stroke-width:1;" x1="464.2388" x2="626.1294" y1="302.7949" y2="302.7949"/><text fill="#000000" font-family="Segoe UI" font-size="13" lengthAdjust="spacing" textLength="148.8906" x="471.2388" y="298.0527">SELECT ... WHERE id = ?</text></g><g class="message" data-participant-1="DB" data-participant-2="Svc"><polygon fill="#2563EB" points="475.2388,328.1055,465.2388,332.1055,475.2388,336.1055,471.2388,332.1055" style="stroke:#2563EB;stroke-width:1;"/><line style="stroke:#2563EB;stroke-width:1;stroke-dasharray:2,2;" x1="469.2388" x2="636.1294" y1="332.1055" y2="332.1055"/><text fill="#000000" font-family="Segoe UI" font-size="13" lengthAdjust="spacing" textLength="26.2222" x="481.2388" y="327.3633">Row</text></g><path d="M642,345.1055 L642,370.1055 L819,370.1055 L819,355.1055 L809,345.1055 L642,345.1055" fill="#FEFFDD" style="stroke:#181818;stroke-width:0.5;"/><path d="M809,345.1055 L809,355.1055 L819,355.1055 L809,345.1055" fill="#FEFFDD" style="stroke:#181818;stroke-width:0.5;"/><text fill="#000000" font-family="Segoe UI" font-size="13" lengthAdjust="spacing" textLength="156.0571" x="648" y="362.6738">Returns 404 if not found</text><g class="message" data-participant-1="Svc" data-participant-2="GW"><polygon fill="#2563EB" points="361.104,392.7266,351.104,396.7266,361.104,400.7266,357.104,396.7266" style="stroke:#2563EB;stroke-width:1;"/><line style="stroke:#2563EB;stroke-width:1;stroke-dasharray:2,2;" x1="355.104" x2="458.2388" y1="396.7266" y2="396.7266"/><text fill="#000000" font-family="Segoe UI" font-size="13" lengthAdjust="spacing" textLength="47.3599" x="367.104" y="391.9844">200 OK</text></g><g class="message" data-participant-1="GW" data-participant-2="Client"><polygon fill="#2563EB" points="42.7524,422.0371,32.7524,426.0371,42.7524,430.0371,38.7524,426.0371" style="stroke:#2563EB;stroke-width:1;"/><line style="stroke:#2563EB;stroke-width:1;stroke-dasharray:2,2;" x1="36.7524" x2="344.104" y1="426.0371" y2="426.0371"/><text fill="#000000" font-family="Segoe UI" font-size="13" lengthAdjust="spacing" textLength="47.3599" x="48.7524" y="421.2949">200 OK</text></g><a href="/microservices/svc-analytics/#integration-context" target="_top" title="/microservices/svc-analytics/#integration-context" xlink:actuate="onRequest" xlink:href="/microservices/svc-analytics/#integration-context" xlink:show="new" xlink:title="/microservices/svc-analytics/#integration-context" xlink:type="simple"><text fill="#0000FF" font-family="Segoe UI" font-size="10" lengthAdjust="spacing" text-decoration="underline" textLength="174.5703" x="648.4868" y="14.668">&#11014; svc-analytics Integration Context</text></a><!--SRC=[bPFVRjem5CRl_HH7S0sXm0ggn2QW2KEhsggqwqM7feDp4gm6cpa6MbMztTFigVOaEmd_ahNIjEJ6ylVviy_lsEcZqakqk80PoiVOcfKEXoOn5gg1d_qYFJZIEOPcetGC4IOf5PIG8bmbBZ3QNUA2e3AXs13SZIl5vVHZHLeIl0ZWhs-jsUosQduuRT4idxv6wvHKIzHkO6n8Tc_nkwVzmHlBtuVskq4xwEQs2nNHXT9KYkatMuDECzS7vgaa1IVTe75oaDxW20BMS_dIk7Agx7HchOBs3igMtn6lGim9UHayF7WB9Qr9oQwLfDHBrxA66fDdhYprgaexYYqwPNHDCbLwSl3xrqyesM1yTC5mwvfEXN3A9GGZ_nQyOsIyKY7LbcGZOnV8RV1UygdlAdpzfaVaeA31WfpDTk09G4YN95Ma9EGhX5WU6m2LOQ98kmfW2jjXMUvVZs64ZZRud7j6zr0z7_XzlbabNwcot3bPotzncauF7G_HuGnJldjN5cL2USJvWDaF_RO_549pOy2i6Ju7Swiu-f2AIrLEhi_T8gbw4uTHvCNaHbdXrmL0NnLjG6cOR32EEVDkpEH9Xv1j8yIM1DG-PlMU_Kyl14gdrWmi9xLx63pag0p86V2zOj5cZobrHtScxksYruFpFOzUJuXCv036SGOJ_y8VtaAzNeVxp_wD3og47dmw9XMWyR1ssFZ6R4H81TiMgLNnt869jkatv5PMfz1kj4556Gs-G_mGTcVO0sas6d3rfHYNDIKhanqxUE-vHlVY3m00]--></g></svg>