<svg xmlns="http://www.w3.org/2000/svg" xmlns:xlink="http://www.w3.org/1999/xlink" contentStyleType="text/css" data-diagram-type="SEQUENCE" height="509px" preserveAspectRatio="none" style="width:460px;height:509px;background:#FEFEFE;" version="1.1" viewBox="0 0 460 509" width="460px" zoomAndPan="magnify"><title>POST /trails</title><defs/><g><rect fill="#FEFEFE" height="509" style="stroke:none;stroke-width:1;" width="460" x="0" y="0"/><text fill="#000000" font-family="Segoe UI" font-size="14" font-weight="bold" lengthAdjust="spacing" textLength="87.5889" x="182.4919" y="28.5352">POST /trails</text><text fill="#000000" font-family="Segoe UI" font-size="14" font-weight="bold" lengthAdjust="spacing" textLength="127.5723" x="162.5002" y="45.0234">Create a new trail</text><g><title>API Gateway</title><rect fill="#059669" height="225.1738" style="stroke:#A23B72;stroke-width:1;" width="10" x="133.5493" y="188.0859"/></g><g><title>svc-trail-management</title><rect fill="#059669" height="166.5527" style="stroke:#A23B72;stroke-width:1;" width="10" x="275.3838" y="217.3965"/></g><g><title>PostGIS</title><rect fill="#FCE4EC" height="29.3105" style="stroke:#A23B72;stroke-width:1;" width="10" x="400.4556" y="325.3281"/></g><g><title>Client</title><rect fill="#000000" fill-opacity="0.00000" height="309.7949" width="8" x="27.7524" y="121.4648"/><line style="stroke:#A23B72;stroke-width:0.5;stroke-dasharray:5,5;" x1="31" x2="31" y1="121.4648" y2="431.2598"/></g><g><title>API Gateway</title><rect fill="#000000" fill-opacity="0.00000" height="309.7949" width="8" x="134.5493" y="121.4648"/><line style="stroke:#A23B72;stroke-width:0.5;stroke-dasharray:5,5;" x1="138.2603" x2="138.2603" y1="121.4648" y2="431.2598"/></g><g><title>svc-trail-management</title><rect fill="#000000" fill-opacity="0.00000" height="309.7949" width="8" x="276.3838" y="121.4648"/><line style="stroke:#A23B72;stroke-width:0.5;stroke-dasharray:5,5;" x1="279.8384" x2="279.8384" y1="121.4648" y2="431.2598"/></g><g><title>PostGIS</title><rect fill="#000000" fill-opacity="0.00000" height="309.7949" width="8" x="401.4556" y="121.4648"/><line style="stroke:#A23B72;stroke-width:0.5;stroke-dasharray:5,5;" x1="405.2549" x2="405.2549" y1="121.4648" y2="431.2598"/></g><g class="participant participant-head" data-participant="Client"><rect fill="#E8F4F8" height="30.4883" rx="2.5" ry="2.5" style="stroke:#2E86AB;stroke-width:0.5;" width="53.5049" x="5" y="89.9766"/><text fill="#000000" font-family="Segoe UI" font-size="14" lengthAdjust="spacing" textLength="39.5049" x="12" y="110.5117">Client</text></g><g class="participant participant-tail" data-participant="Client"><rect fill="#E8F4F8" height="30.4883" rx="2.5" ry="2.5" style="stroke:#2E86AB;stroke-width:0.5;" width="53.5049" x="5" y="430.2598"/><text fill="#000000" font-family="Segoe UI" font-size="14" lengthAdjust="spacing" textLength="39.5049" x="12" y="450.7949">Client</text></g><g class="participant participant-head" data-participant="GW"><rect fill="#DBEAFE" height="30.4883" rx="2.5" ry="2.5" style="stroke:#2E86AB;stroke-width:0.5;" width="96.5781" x="90.2603" y="89.9766"/><text fill="#000000" font-family="Segoe UI" font-size="14" lengthAdjust="spacing" textLength="82.5781" x="97.2603" y="110.5117">API Gateway</text></g><g class="participant participant-tail" data-participant="GW"><rect fill="#DBEAFE" height="30.4883" rx="2.5" ry="2.5" style="stroke:#2E86AB;stroke-width:0.5;" width="96.5781" x="90.2603" y="430.2598"/><text fill="#000000" font-family="Segoe UI" font-size="14" lengthAdjust="spacing" textLength="82.5781" x="97.2603" y="450.7949">API Gateway</text></g><g class="participant participant-head" data-participant="Svc"><a href="/microservices/svc-trail-management/" target="_top" title="/microservices/svc-trail-management/" xlink:actuate="onRequest" xlink:href="/microservices/svc-trail-management/" xlink:show="new" xlink:title="/microservices/svc-trail-management/" xlink:type="simple"><rect fill="#E8F4F8" height="30.4883" rx="2.5" ry="2.5" style="stroke:#2E86AB;stroke-width:0.5;" width="167.0908" x="196.8384" y="89.9766"/><text fill="#000000" font-family="Segoe UI" font-size="14" lengthAdjust="spacing" textLength="153.0908" x="203.8384" y="110.5117">svc-trail-management</text></a></g><g class="participant participant-tail" data-participant="Svc"><a href="/microservices/svc-trail-management/" target="_top" title="/microservices/svc-trail-management/" xlink:actuate="onRequest" xlink:href="/microservices/svc-trail-management/" xlink:show="new" xlink:title="/microservices/svc-trail-management/" xlink:type="simple"><rect fill="#E8F4F8" height="30.4883" rx="2.5" ry="2.5" style="stroke:#2E86AB;stroke-width:0.5;" width="167.0908" x="196.8384" y="430.2598"/><text fill="#000000" font-family="Segoe UI" font-size="14" lengthAdjust="spacing" textLength="153.0908" x="203.8384" y="450.7949">svc-trail-management</text></a></g><g class="participant participant-head" data-participant="DB"><text fill="#000000" font-family="Segoe UI" font-size="14" lengthAdjust="spacing" textLength="50.4014" x="377.2549" y="118.5117">PostGIS</text><path d="M387.4556,68.9766 C387.4556,58.9766 405.4556,58.9766 405.4556,58.9766 C405.4556,58.9766 423.4556,58.9766 423.4556,68.9766 L423.4556,94.9766 C423.4556,104.9766 405.4556,104.9766 405.4556,104.9766 C405.4556,104.9766 387.4556,104.9766 387.4556,94.9766 L387.4556,68.9766" fill="#FCE4EC" style="stroke:#181818;stroke-width:0.5;"/><path d="M387.4556,68.9766 C387.4556,78.9766 405.4556,78.9766 405.4556,78.9766 C405.4556,78.9766 423.4556,78.9766 423.4556,68.9766" fill="none" style="stroke:#181818;stroke-width:0.5;"/></g><g class="participant participant-tail" data-participant="DB"><text fill="#000000" font-family="Segoe UI" font-size="14" lengthAdjust="spacing" textLength="50.4014" x="377.2549" y="443.7949">PostGIS</text><path d="M387.4556,456.748 C387.4556,446.748 405.4556,446.748 405.4556,446.748 C405.4556,446.748 423.4556,446.748 423.4556,456.748 L423.4556,482.748 C423.4556,492.748 405.4556,492.748 405.4556,492.748 C405.4556,492.748 387.4556,492.748 387.4556,482.748 L387.4556,456.748" fill="#FCE4EC" style="stroke:#181818;stroke-width:0.5;"/><path d="M387.4556,456.748 C387.4556,466.748 405.4556,466.748 405.4556,466.748 C405.4556,466.748 423.4556,466.748 423.4556,456.748" fill="none" style="stroke:#181818;stroke-width:0.5;"/></g><g><title>API Gateway</title><rect fill="#059669" height="225.1738" style="stroke:#A23B72;stroke-width:1;" width="10" x="133.5493" y="188.0859"/></g><g><title>svc-trail-management</title><rect fill="#059669" height="166.5527" style="stroke:#A23B72;stroke-width:1;" width="10" x="275.3838" y="217.3965"/></g><g><title>PostGIS</title><rect fill="#FCE4EC" height="29.3105" style="stroke:#A23B72;stroke-width:1;" width="10" x="400.4556" y="325.3281"/></g><path d="M210,136.4648 L210,161.4648 L350,161.4648 L350,146.4648 L340,136.4648 L210,136.4648" fill="#FEFFDD" style="stroke:#181818;stroke-width:0.5;"/><path d="M340,136.4648 L340,146.4648 L350,146.4648 L340,136.4648" fill="#FEFFDD" style="stroke:#181818;stroke-width:0.5;"/><a href="/services/api/svc-trail-management.html#/Trails/createTrail" target="_top" title="/services/api/svc-trail-management.html#/Trails/createTrail" xlink:actuate="onRequest" xlink:href="/services/api/svc-trail-management.html#/Trails/createTrail" xlink:show="new" xlink:title="/services/api/svc-trail-management.html#/Trails/createTrail" xlink:type="simple"><text fill="#0000FF" font-family="Segoe UI" font-size="13" lengthAdjust="spacing" text-decoration="underline" textLength="119.4058" x="216" y="154.0332">View in Swagger UI</text></a><g class="message" data-participant-1="Client" data-participant-2="GW"><polygon fill="#059669" points="121.5493,184.0859,131.5493,188.0859,121.5493,192.0859,125.5493,188.0859" style="stroke:#059669;stroke-width:1;"/><line style="stroke:#059669;stroke-width:1;" x1="31.7524" x2="127.5493" y1="188.0859" y2="188.0859"/><text fill="#000000" font-family="Segoe UI" font-size="13" lengthAdjust="spacing" textLength="74.9404" x="38.7524" y="183.3438">POST /trails</text></g><g class="message" data-participant-1="GW" data-participant-2="Svc"><polygon fill="#059669" points="263.3838,213.3965,273.3838,217.3965,263.3838,221.3965,267.3838,217.3965" style="stroke:#059669;stroke-width:1;"/><line style="stroke:#059669;stroke-width:1;" x1="143.5493" x2="269.3838" y1="217.3965" y2="217.3965"/><text fill="#000000" font-family="Segoe UI" font-size="13" lengthAdjust="spacing" textLength="85.1348" x="150.5493" y="212.6543">route request</text></g><path d="M290,230.3965 L290,255.3965 L448,255.3965 L448,240.3965 L438,230.3965 L290,230.3965" fill="#FEFFDD" style="stroke:#181818;stroke-width:0.5;"/><path d="M438,230.3965 L438,240.3965 L448,240.3965 L438,230.3965" fill="#FEFFDD" style="stroke:#181818;stroke-width:0.5;"/><text fill="#000000" font-family="Segoe UI" font-size="13" lengthAdjust="spacing" textLength="137.5728" x="296" y="247.9648">Validate request body</text><rect fill="#EEEEEE" height="3" style="stroke:#EEEEEE;stroke-width:1;" width="453.5728" x="0" y="281.3623"/><line style="stroke:#000000;stroke-width:1;" x1="0" x2="453.5728" y1="281.3623" y2="281.3623"/><line style="stroke:#000000;stroke-width:1;" x1="0" x2="453.5728" y1="284.3623" y2="284.3623"/><rect fill="#EEEEEE" height="23.3105" style="stroke:#000000;stroke-width:2;" width="80.3711" x="186.6008" y="270.707"/><text fill="#000000" font-family="Segoe UI" font-size="13" font-weight="bold" lengthAdjust="spacing" textLength="62.0864" x="192.6008" y="287.2754">Database</text><g class="message" data-participant-1="Svc" data-participant-2="DB"><polygon fill="#059669" points="388.4556,321.3281,398.4556,325.3281,388.4556,329.3281,392.4556,325.3281" style="stroke:#059669;stroke-width:1;"/><line style="stroke:#059669;stroke-width:1;" x1="285.3838" x2="394.4556" y1="325.3281" y2="325.3281"/><text fill="#000000" font-family="Segoe UI" font-size="13" lengthAdjust="spacing" textLength="96.0718" x="292.3838" y="320.5859">INSERT INTO ...</text></g><g class="message" data-participant-1="DB" data-participant-2="Svc"><polygon fill="#059669" points="296.3838,350.6387,286.3838,354.6387,296.3838,358.6387,292.3838,354.6387" style="stroke:#059669;stroke-width:1;"/><line style="stroke:#059669;stroke-width:1;stroke-dasharray:2,2;" x1="290.3838" x2="404.4556" y1="354.6387" y2="354.6387"/><text fill="#000000" font-family="Segoe UI" font-size="13" lengthAdjust="spacing" textLength="76.4575" x="302.3838" y="349.8965">Created row</text></g><g class="message" data-participant-1="Svc" data-participant-2="GW"><polygon fill="#059669" points="154.5493,379.9492,144.5493,383.9492,154.5493,387.9492,150.5493,383.9492" style="stroke:#059669;stroke-width:1;"/><line style="stroke:#059669;stroke-width:1;stroke-dasharray:2,2;" x1="148.5493" x2="279.3838" y1="383.9492" y2="383.9492"/><text fill="#000000" font-family="Segoe UI" font-size="13" lengthAdjust="spacing" textLength="77.7969" x="160.5493" y="379.207">201 Created</text></g><g class="message" data-participant-1="GW" data-participant-2="Client"><polygon fill="#059669" points="42.7524,409.2598,32.7524,413.2598,42.7524,417.2598,38.7524,413.2598" style="stroke:#059669;stroke-width:1;"/><line style="stroke:#059669;stroke-width:1;stroke-dasharray:2,2;" x1="36.7524" x2="137.5493" y1="413.2598" y2="413.2598"/><text fill="#000000" font-family="Segoe UI" font-size="13" lengthAdjust="spacing" textLength="77.7969" x="48.7524" y="408.5176">201 Created</text></g><!--SRC=[TPBDRk8m58NtVeehM4FuwG15OYG22KAgA9hGTj6ok2GcM4rinZQarMZUVUmG86cPP177v_XStyzMxuplKM8A6mpVOoaEF9g8H4Ye-vvzYReur0uZaJ4UmnOJHKjAHBTuIBGlk5vWIg4Mq5XGU9hNoilfxmFb8OK_1Cmpbb9aHQdMZ_jUxpwVNgBKB6HxvDeLCgAoi7IyGM_iVhDytRGtyE_yGMvxO5lwm3Yjn8mxNRVVoNLNV5GalptmM-sBz0s7xnizbnT2LrF3Vd_JBMatK7QzFlbBY6OweR1y35RWQ8aiKMzy8Ybg2WYSPf1F4hA_zWYrIS8erpL01QTXLHulvp0p2Hb-vfxP2zIdhZSsXrVngMFOoECRANACQNeE3OuXlBuwAGkbK5GUMKYLSyljhDSNn15gtA0oXxqKIi_cGHurTKst4-_Ecn323GeGHofj0GF7bBYauvxThD3SwJIfEwiSZHFcPF8VU6Q63kCGP1Z79lDflbuJoYEmPGWvWO76Jzl-i4AOOAZPqIAsP8gxPeR6QpiVWZag8qfxFvM-kgrujf-QaIpUQH3ROjqp9Yp2wrBOYEYJaD48fcSuen4Xrcng6JH3c2y2xzVAV5QFq6mshyLAuComSTdRwN94PeyPYMZ9NkIU6-wqscTlsMV9srQDhI3qN-liXVm3]--></g></svg>