<svg xmlns="http://www.w3.org/2000/svg" xmlns:xlink="http://www.w3.org/1999/xlink" contentStyleType="text/css" data-diagram-type="SEQUENCE" height="509px" preserveAspectRatio="none" style="width:769px;height:509px;background:#FEFEFE;" version="1.1" viewBox="0 0 769 509" width="769px" zoomAndPan="magnify"><title>GET /notifications/{notification_id}</title><defs/><g><rect fill="#FEFEFE" height="509" style="stroke:none;stroke-width:1;" width="769" x="0" y="0"/><text fill="#000000" font-family="Segoe UI" font-size="14" font-weight="bold" lengthAdjust="spacing" textLength="253.5996" x="253.7288" y="28.5352">GET /notifications/{notification_id}</text><text fill="#000000" font-family="Segoe UI" font-size="14" font-weight="bold" lengthAdjust="spacing" textLength="199.5615" x="280.7478" y="45.0234">Retrieve notification details</text><g><title>API Gateway</title><rect fill="#2563EB" height="225.1738" style="stroke:#A23B72;stroke-width:1;" width="10" x="270.1274" y="188.0859"/></g><g><title>svc-notifications</title><rect fill="#2563EB" height="166.5527" style="stroke:#A23B72;stroke-width:1;" width="10" x="392.4316" y="217.3965"/></g><g><title>PG . Redis</title><rect fill="#FCE4EC" height="29.3105" style="stroke:#A23B72;stroke-width:1;" width="10" x="570.3223" y="290.0176"/></g><g><title>Client</title><rect fill="#000000" fill-opacity="0.00000" height="309.7949" width="8" x="27.7524" y="121.4648"/><line style="stroke:#A23B72;stroke-width:0.5;stroke-dasharray:5,5;" x1="31" x2="31" y1="121.4648" y2="431.2598"/></g><g><title>API Gateway</title><rect fill="#000000" fill-opacity="0.00000" height="309.7949" width="8" x="271.1274" y="121.4648"/><line style="stroke:#A23B72;stroke-width:0.5;stroke-dasharray:5,5;" x1="274.8384" x2="274.8384" y1="121.4648" y2="431.2598"/></g><g><title>svc-notifications</title><rect fill="#000000" fill-opacity="0.00000" height="309.7949" width="8" x="393.4316" y="121.4648"/><line style="stroke:#A23B72;stroke-width:0.5;stroke-dasharray:5,5;" x1="397.4165" x2="397.4165" y1="121.4648" y2="431.2598"/></g><g><title>PG . Redis</title><rect fill="#000000" fill-opacity="0.00000" height="309.7949" width="8" x="571.3223" y="121.4648"/><line style="stroke:#A23B72;stroke-width:0.5;stroke-dasharray:5,5;" x1="575.0767" x2="575.0767" y1="121.4648" y2="431.2598"/></g><g class="participant participant-head" data-participant="Client"><rect fill="#E8F4F8" height="30.4883" rx="2.5" ry="2.5" style="stroke:#2E86AB;stroke-width:0.5;" width="53.5049" x="5" y="89.9766"/><text fill="#000000" font-family="Segoe UI" font-size="14" lengthAdjust="spacing" textLength="39.5049" x="12" y="110.5117">Client</text></g><g class="participant participant-tail" data-participant="Client"><rect fill="#E8F4F8" height="30.4883" rx="2.5" ry="2.5" style="stroke:#2E86AB;stroke-width:0.5;" width="53.5049" x="5" y="430.2598"/><text fill="#000000" font-family="Segoe UI" font-size="14" lengthAdjust="spacing" textLength="39.5049" x="12" y="450.7949">Client</text></g><g class="participant participant-head" data-participant="GW"><rect fill="#DBEAFE" height="30.4883" rx="2.5" ry="2.5" style="stroke:#2E86AB;stroke-width:0.5;" width="96.5781" x="226.8384" y="89.9766"/><text fill="#000000" font-family="Segoe UI" font-size="14" lengthAdjust="spacing" textLength="82.5781" x="233.8384" y="110.5117">API Gateway</text></g><g class="participant participant-tail" data-participant="GW"><rect fill="#DBEAFE" height="30.4883" rx="2.5" ry="2.5" style="stroke:#2E86AB;stroke-width:0.5;" width="96.5781" x="226.8384" y="430.2598"/><text fill="#000000" font-family="Segoe UI" font-size="14" lengthAdjust="spacing" textLength="82.5781" x="233.8384" y="450.7949">API Gateway</text></g><g class="participant participant-head" data-participant="Svc"><a href="/microservices/svc-notifications/" target="_top" title="/microservices/svc-notifications/" xlink:actuate="onRequest" xlink:href="/microservices/svc-notifications/" xlink:show="new" xlink:title="/microservices/svc-notifications/" xlink:type="simple"><rect fill="#E8F4F8" height="30.4883" rx="2.5" ry="2.5" style="stroke:#2E86AB;stroke-width:0.5;" width="128.0303" x="333.4165" y="89.9766"/><text fill="#000000" font-family="Segoe UI" font-size="14" lengthAdjust="spacing" textLength="114.0303" x="340.4165" y="110.5117">svc-notifications</text></a></g><g class="participant participant-tail" data-participant="Svc"><a href="/microservices/svc-notifications/" target="_top" title="/microservices/svc-notifications/" xlink:actuate="onRequest" xlink:href="/microservices/svc-notifications/" xlink:show="new" xlink:title="/microservices/svc-notifications/" xlink:type="simple"><rect fill="#E8F4F8" height="30.4883" rx="2.5" ry="2.5" style="stroke:#2E86AB;stroke-width:0.5;" width="128.0303" x="333.4165" y="430.2598"/><text fill="#000000" font-family="Segoe UI" font-size="14" lengthAdjust="spacing" textLength="114.0303" x="340.4165" y="450.7949">svc-notifications</text></a></g><g class="participant participant-head" data-participant="DB"><text fill="#000000" font-family="Segoe UI" font-size="14" lengthAdjust="spacing" textLength="74.4912" x="535.0767" y="118.5117">PG + Redis</text><path d="M557.3223,68.9766 C557.3223,58.9766 575.3223,58.9766 575.3223,58.9766 C575.3223,58.9766 593.3223,58.9766 593.3223,68.9766 L593.3223,94.9766 C593.3223,104.9766 575.3223,104.9766 575.3223,104.9766 C575.3223,104.9766 557.3223,104.9766 557.3223,94.9766 L557.3223,68.9766" fill="#FCE4EC" style="stroke:#181818;stroke-width:0.5;"/><path d="M557.3223,68.9766 C557.3223,78.9766 575.3223,78.9766 575.3223,78.9766 C575.3223,78.9766 593.3223,78.9766 593.3223,68.9766" fill="none" style="stroke:#181818;stroke-width:0.5;"/></g><g class="participant participant-tail" data-participant="DB"><text fill="#000000" font-family="Segoe UI" font-size="14" lengthAdjust="spacing" textLength="74.4912" x="535.0767" y="443.7949">PG + Redis</text><path d="M557.3223,456.748 C557.3223,446.748 575.3223,446.748 575.3223,446.748 C575.3223,446.748 593.3223,446.748 593.3223,456.748 L593.3223,482.748 C593.3223,492.748 575.3223,492.748 575.3223,492.748 C575.3223,492.748 557.3223,492.748 557.3223,482.748 L557.3223,456.748" fill="#FCE4EC" style="stroke:#181818;stroke-width:0.5;"/><path d="M557.3223,456.748 C557.3223,466.748 575.3223,466.748 575.3223,466.748 C575.3223,466.748 593.3223,466.748 593.3223,456.748" fill="none" style="stroke:#181818;stroke-width:0.5;"/></g><g><title>API Gateway</title><rect fill="#2563EB" height="225.1738" style="stroke:#A23B72;stroke-width:1;" width="10" x="270.1274" y="188.0859"/></g><g><title>svc-notifications</title><rect fill="#2563EB" height="166.5527" style="stroke:#A23B72;stroke-width:1;" width="10" x="392.4316" y="217.3965"/></g><g><title>PG . Redis</title><rect fill="#FCE4EC" height="29.3105" style="stroke:#A23B72;stroke-width:1;" width="10" x="570.3223" y="290.0176"/></g><path d="M327,136.4648 L327,161.4648 L467,161.4648 L467,146.4648 L457,136.4648 L327,136.4648" fill="#FEFFDD" style="stroke:#181818;stroke-width:0.5;"/><path d="M457,136.4648 L457,146.4648 L467,146.4648 L457,136.4648" fill="#FEFFDD" style="stroke:#181818;stroke-width:0.5;"/><a href="/services/api/svc-notifications.html#/Notifications/getNotification" target="_top" title="/services/api/svc-notifications.html#/Notifications/getNotification" xlink:actuate="onRequest" xlink:href="/services/api/svc-notifications.html#/Notifications/getNotification" xlink:show="new" xlink:title="/services/api/svc-notifications.html#/Notifications/getNotification" xlink:type="simple"><text fill="#0000FF" font-family="Segoe UI" font-size="13" lengthAdjust="spacing" text-decoration="underline" textLength="119.4058" x="333" y="154.0332">View in Swagger UI</text></a><g class="message" data-participant-1="Client" data-participant-2="GW"><polygon fill="#2563EB" points="258.1274,184.0859,268.1274,188.0859,258.1274,192.0859,262.1274,188.0859" style="stroke:#2563EB;stroke-width:1;"/><line style="stroke:#2563EB;stroke-width:1;" x1="31.7524" x2="264.1274" y1="188.0859" y2="188.0859"/><text fill="#000000" font-family="Segoe UI" font-size="13" lengthAdjust="spacing" textLength="219.375" x="38.7524" y="183.3438">GET /notifications/{notification_id}</text></g><g class="message" data-participant-1="GW" data-participant-2="Svc"><polygon fill="#2563EB" points="380.4316,213.3965,390.4316,217.3965,380.4316,221.3965,384.4316,217.3965" style="stroke:#2563EB;stroke-width:1;"/><line style="stroke:#2563EB;stroke-width:1;" x1="280.1274" x2="386.4316" y1="217.3965" y2="217.3965"/><text fill="#000000" font-family="Segoe UI" font-size="13" lengthAdjust="spacing" textLength="85.1348" x="287.1274" y="212.6543">route request</text></g><rect fill="#EEEEEE" height="3" style="stroke:#EEEEEE;stroke-width:1;" width="762.0571" x="0" y="246.0518"/><line style="stroke:#000000;stroke-width:1;" x1="0" x2="762.0571" y1="246.0518" y2="246.0518"/><line style="stroke:#000000;stroke-width:1;" x1="0" x2="762.0571" y1="249.0518" y2="249.0518"/><rect fill="#EEEEEE" height="23.3105" style="stroke:#000000;stroke-width:2;" width="80.3711" x="340.843" y="235.3965"/><text fill="#000000" font-family="Segoe UI" font-size="13" font-weight="bold" lengthAdjust="spacing" textLength="62.0864" x="346.843" y="251.9648">Database</text><g class="message" data-participant-1="Svc" data-participant-2="DB"><polygon fill="#2563EB" points="558.3223,286.0176,568.3223,290.0176,558.3223,294.0176,562.3223,290.0176" style="stroke:#2563EB;stroke-width:1;"/><line style="stroke:#2563EB;stroke-width:1;" x1="402.4316" x2="564.3223" y1="290.0176" y2="290.0176"/><text fill="#000000" font-family="Segoe UI" font-size="13" lengthAdjust="spacing" textLength="148.8906" x="409.4316" y="285.2754">SELECT ... WHERE id = ?</text></g><g class="message" data-participant-1="DB" data-participant-2="Svc"><polygon fill="#2563EB" points="413.4316,315.3281,403.4316,319.3281,413.4316,323.3281,409.4316,319.3281" style="stroke:#2563EB;stroke-width:1;"/><line style="stroke:#2563EB;stroke-width:1;stroke-dasharray:2,2;" x1="407.4316" x2="574.3223" y1="319.3281" y2="319.3281"/><text fill="#000000" font-family="Segoe UI" font-size="13" lengthAdjust="spacing" textLength="26.2222" x="419.4316" y="314.5859">Row</text></g><path d="M580,332.3281 L580,357.3281 L757,357.3281 L757,342.3281 L747,332.3281 L580,332.3281" fill="#FEFFDD" style="stroke:#181818;stroke-width:0.5;"/><path d="M747,332.3281 L747,342.3281 L757,342.3281 L747,332.3281" fill="#FEFFDD" style="stroke:#181818;stroke-width:0.5;"/><text fill="#000000" font-family="Segoe UI" font-size="13" lengthAdjust="spacing" textLength="156.0571" x="586" y="349.8965">Returns 404 if not found</text><g class="message" data-participant-1="Svc" data-participant-2="GW"><polygon fill="#2563EB" points="291.1274,379.9492,281.1274,383.9492,291.1274,387.9492,287.1274,383.9492" style="stroke:#2563EB;stroke-width:1;"/><line style="stroke:#2563EB;stroke-width:1;stroke-dasharray:2,2;" x1="285.1274" x2="396.4316" y1="383.9492" y2="383.9492"/><text fill="#000000" font-family="Segoe UI" font-size="13" lengthAdjust="spacing" textLength="47.3599" x="297.1274" y="379.207">200 OK</text></g><g class="message" data-participant-1="GW" data-participant-2="Client"><polygon fill="#2563EB" points="42.7524,409.2598,32.7524,413.2598,42.7524,417.2598,38.7524,413.2598" style="stroke:#2563EB;stroke-width:1;"/><line style="stroke:#2563EB;stroke-width:1;stroke-dasharray:2,2;" x1="36.7524" x2="274.1274" y1="413.2598" y2="413.2598"/><text fill="#000000" font-family="Segoe UI" font-size="13" lengthAdjust="spacing" textLength="47.3599" x="48.7524" y="408.5176">200 OK</text></g><!--SRC=[ZP9RZzem48NV_Ij6y5X1MA0BGg8L5uUkYYY2tVAmHPL99i7QO5FR9ArM-zzhXrjIzg79Y-DpVCRvPlGB5tkcs0usB7Y9bJo8S2GJgQ3gK_SIVN7eBGjbnaKC4Kiq5fGG8tP8Z2-5cR4TGcM9iKHuUgWKZ-El0ue0uPM0VGPAoUnKgldnleMRV7lEbE41tpDXXbA5gCuMshqV36yi_rwQTlsstyrjKnxXb0iinGoQhM6dcUj3-Ria-NTTlt5taMvm-BxLStacJJarw7GshOBs3ieMxP0tGWmt2SA4Fe8dfE4H3vZXKcZljVZvauTlFyG2ZUAO8XGbozemdcX2zbSCK1ab78Mf0DDmN9RbmVm19inWnlxadiaAgkCX7TZ-bdmw3MgbU-NkPHh0yxEtuu6I6bNA0zJUZTLRho_yGsROXcax2VC9V805XlmODHvQ6YFQfYD2x6a4cQ9o1ImyM-AIplRyja9zQtP9rPkLgiPeYXlmdMC6NC0oOt5iivyUrck28dGKaP0Z7QXzSWnw_zK9mWB3KqilntQQLRkq6OvC3sohhQZSV6jpTJlnR2VzFepFKFfzGfne0ooF7Ypfb8uUeLwlm-eBNL3W8VJXypMfGCqkQvV22vcH40ks8rF5uwq16HtJxHWTbD3GRhI1Hmu3H6usJtSuasWs6l3jQp7ETSNzfdMSgBtdcgp8Nm00]--></g></svg>