<svg xmlns="http://www.w3.org/2000/svg" xmlns:xlink="http://www.w3.org/1999/xlink" contentStyleType="text/css" data-diagram-type="SEQUENCE" height="487px" preserveAspectRatio="none" style="width:604px;height:487px;background:#FEFEFE;" version="1.1" viewBox="0 0 604 487" width="604px" zoomAndPan="magnify"><title>GET /schedule-conflicts</title><defs/><g><rect fill="#FEFEFE" height="487" style="stroke:none;stroke-width:1;" width="604" x="0" y="0"/><text fill="#000000" font-family="Segoe UI" font-size="14" font-weight="bold" lengthAdjust="spacing" textLength="175.5059" x="210.7065" y="41.3125">GET /schedule-conflicts</text><text fill="#000000" font-family="Segoe UI" font-size="14" font-weight="bold" lengthAdjust="spacing" textLength="175.8203" x="210.5493" y="57.8008">List scheduling conflicts</text><g><title>API Gateway</title><rect fill="#2563EB" height="189.8633" style="stroke:#A23B72;stroke-width:1;" width="10" x="202.8677" y="200.8633"/></g><g><title>svc-scheduling-orchestrator</title><rect fill="#2563EB" height="131.2422" style="stroke:#A23B72;stroke-width:1;" width="10" x="365.6304" y="230.1738"/></g><g><title>PG . Valkey</title><rect fill="#FCE4EC" height="29.3105" style="stroke:#A23B72;stroke-width:1;" width="10" x="543.8828" y="302.7949"/></g><g><title>Client</title><rect fill="#000000" fill-opacity="0.00000" height="274.4844" width="8" x="27.7524" y="134.2422"/><line style="stroke:#A23B72;stroke-width:0.5;stroke-dasharray:5,5;" x1="31" x2="31" y1="134.2422" y2="408.7266"/></g><g><title>API Gateway</title><rect fill="#000000" fill-opacity="0.00000" height="274.4844" width="8" x="203.8677" y="134.2422"/><line style="stroke:#A23B72;stroke-width:0.5;stroke-dasharray:5,5;" x1="207.5786" x2="207.5786" y1="134.2422" y2="408.7266"/></g><g><title>svc-scheduling-orchestrator</title><rect fill="#000000" fill-opacity="0.00000" height="274.4844" width="8" x="366.6304" y="134.2422"/><line style="stroke:#A23B72;stroke-width:0.5;stroke-dasharray:5,5;" x1="370.1567" x2="370.1567" y1="134.2422" y2="408.7266"/></g><g><title>PG . Valkey</title><rect fill="#000000" fill-opacity="0.00000" height="274.4844" width="8" x="544.8828" y="134.2422"/><line style="stroke:#A23B72;stroke-width:0.5;stroke-dasharray:5,5;" x1="548.8467" x2="548.8467" y1="134.2422" y2="408.7266"/></g><g class="participant participant-head" data-participant="Client"><a href="/applications/" target="_top" title="/applications/" xlink:actuate="onRequest" xlink:href="/applications/" xlink:show="new" xlink:title="/applications/" xlink:type="simple"><rect fill="#E8F4F8" height="30.4883" rx="2.5" ry="2.5" style="stroke:#2E86AB;stroke-width:0.5;" width="53.5049" x="5" y="102.7539"/><text fill="#000000" font-family="Segoe UI" font-size="14" lengthAdjust="spacing" textLength="39.5049" x="12" y="123.2891">Client</text></a></g><g class="participant participant-tail" data-participant="Client"><a href="/applications/" target="_top" title="/applications/" xlink:actuate="onRequest" xlink:href="/applications/" xlink:show="new" xlink:title="/applications/" xlink:type="simple"><rect fill="#E8F4F8" height="30.4883" rx="2.5" ry="2.5" style="stroke:#2E86AB;stroke-width:0.5;" width="53.5049" x="5" y="407.7266"/><text fill="#000000" font-family="Segoe UI" font-size="14" lengthAdjust="spacing" textLength="39.5049" x="12" y="428.2617">Client</text></a></g><g class="participant participant-head" data-participant="GW"><rect fill="#DBEAFE" height="30.4883" rx="2.5" ry="2.5" style="stroke:#2E86AB;stroke-width:0.5;" width="96.5781" x="159.5786" y="102.7539"/><text fill="#000000" font-family="Segoe UI" font-size="14" lengthAdjust="spacing" textLength="82.5781" x="166.5786" y="123.2891">API Gateway</text></g><g class="participant participant-tail" data-participant="GW"><rect fill="#DBEAFE" height="30.4883" rx="2.5" ry="2.5" style="stroke:#2E86AB;stroke-width:0.5;" width="96.5781" x="159.5786" y="407.7266"/><text fill="#000000" font-family="Segoe UI" font-size="14" lengthAdjust="spacing" textLength="82.5781" x="166.5786" y="428.2617">API Gateway</text></g><g class="participant participant-head" data-participant="Svc"><a href="/microservices/svc-scheduling-orchestrator/" target="_top" title="/microservices/svc-scheduling-orchestrator/" xlink:actuate="onRequest" xlink:href="/microservices/svc-scheduling-orchestrator/" xlink:show="new" xlink:title="/microservices/svc-scheduling-orchestrator/" xlink:type="simple"><rect fill="#E8F4F8" height="30.4883" rx="2.5" ry="2.5" style="stroke:#2E86AB;stroke-width:0.5;" width="208.9473" x="266.1567" y="102.7539"/><text fill="#000000" font-family="Segoe UI" font-size="14" lengthAdjust="spacing" textLength="194.9473" x="273.1567" y="123.2891">svc-scheduling-orchestrator</text></a></g><g class="participant participant-tail" data-participant="Svc"><a href="/microservices/svc-scheduling-orchestrator/" target="_top" title="/microservices/svc-scheduling-orchestrator/" xlink:actuate="onRequest" xlink:href="/microservices/svc-scheduling-orchestrator/" xlink:show="new" xlink:title="/microservices/svc-scheduling-orchestrator/" xlink:type="simple"><rect fill="#E8F4F8" height="30.4883" rx="2.5" ry="2.5" style="stroke:#2E86AB;stroke-width:0.5;" width="208.9473" x="266.1567" y="407.7266"/><text fill="#000000" font-family="Segoe UI" font-size="14" lengthAdjust="spacing" textLength="194.9473" x="273.1567" y="428.2617">svc-scheduling-orchestrator</text></a></g><g class="participant participant-head" data-participant="DB"><text fill="#000000" font-family="Segoe UI" font-size="14" lengthAdjust="spacing" textLength="82.0723" x="504.8467" y="131.2891">PG + Valkey</text><path d="M530.8828,81.7539 C530.8828,71.7539 548.8828,71.7539 548.8828,71.7539 C548.8828,71.7539 566.8828,71.7539 566.8828,81.7539 L566.8828,107.7539 C566.8828,117.7539 548.8828,117.7539 548.8828,117.7539 C548.8828,117.7539 530.8828,117.7539 530.8828,107.7539 L530.8828,81.7539" fill="#FCE4EC" style="stroke:#181818;stroke-width:0.5;"/><path d="M530.8828,81.7539 C530.8828,91.7539 548.8828,91.7539 548.8828,91.7539 C548.8828,91.7539 566.8828,91.7539 566.8828,81.7539" fill="none" style="stroke:#181818;stroke-width:0.5;"/></g><g class="participant participant-tail" data-participant="DB"><text fill="#000000" font-family="Segoe UI" font-size="14" lengthAdjust="spacing" textLength="82.0723" x="504.8467" y="421.2617">PG + Valkey</text><path d="M530.8828,434.2148 C530.8828,424.2148 548.8828,424.2148 548.8828,424.2148 C548.8828,424.2148 566.8828,424.2148 566.8828,434.2148 L566.8828,460.2148 C566.8828,470.2148 548.8828,470.2148 548.8828,470.2148 C548.8828,470.2148 530.8828,470.2148 530.8828,460.2148 L530.8828,434.2148" fill="#FCE4EC" style="stroke:#181818;stroke-width:0.5;"/><path d="M530.8828,434.2148 C530.8828,444.2148 548.8828,444.2148 548.8828,444.2148 C548.8828,444.2148 566.8828,444.2148 566.8828,434.2148" fill="none" style="stroke:#181818;stroke-width:0.5;"/></g><g><title>API Gateway</title><rect fill="#2563EB" height="189.8633" style="stroke:#A23B72;stroke-width:1;" width="10" x="202.8677" y="200.8633"/></g><g><title>svc-scheduling-orchestrator</title><rect fill="#2563EB" height="131.2422" style="stroke:#A23B72;stroke-width:1;" width="10" x="365.6304" y="230.1738"/></g><g><title>PG . Valkey</title><rect fill="#FCE4EC" height="29.3105" style="stroke:#A23B72;stroke-width:1;" width="10" x="543.8828" y="302.7949"/></g><path d="M300,149.2422 L300,174.2422 L440,174.2422 L440,159.2422 L430,149.2422 L300,149.2422" fill="#FEFFDD" style="stroke:#181818;stroke-width:0.5;"/><path d="M430,149.2422 L430,159.2422 L440,159.2422 L430,149.2422" fill="#FEFFDD" style="stroke:#181818;stroke-width:0.5;"/><a href="/services/api/svc-scheduling-orchestrator.html" target="_top" title="/services/api/svc-scheduling-orchestrator.html" xlink:actuate="onRequest" xlink:href="/services/api/svc-scheduling-orchestrator.html" xlink:show="new" xlink:title="/services/api/svc-scheduling-orchestrator.html" xlink:type="simple"><text fill="#0000FF" font-family="Segoe UI" font-size="13" lengthAdjust="spacing" text-decoration="underline" textLength="119.4058" x="306" y="166.8105">View in Swagger UI</text></a><g class="message" data-participant-1="Client" data-participant-2="GW"><polygon fill="#2563EB" points="190.8677,196.8633,200.8677,200.8633,190.8677,204.8633,194.8677,200.8633" style="stroke:#2563EB;stroke-width:1;"/><line style="stroke:#2563EB;stroke-width:1;" x1="31.7524" x2="196.8677" y1="200.8633" y2="200.8633"/><text fill="#000000" font-family="Segoe UI" font-size="13" lengthAdjust="spacing" textLength="152.1152" x="38.7524" y="196.1211">GET /schedule-conflicts</text></g><g class="message" data-participant-1="GW" data-participant-2="Svc"><polygon fill="#2563EB" points="353.6304,226.1738,363.6304,230.1738,353.6304,234.1738,357.6304,230.1738" style="stroke:#2563EB;stroke-width:1;"/><line style="stroke:#2563EB;stroke-width:1;" x1="212.8677" x2="359.6304" y1="230.1738" y2="230.1738"/><text fill="#000000" font-family="Segoe UI" font-size="13" lengthAdjust="spacing" textLength="85.1348" x="219.8677" y="225.4316">route request</text></g><rect fill="#EEEEEE" height="3" style="stroke:#EEEEEE;stroke-width:1;" width="597.9189" x="0" y="258.8291"/><line style="stroke:#000000;stroke-width:1;" x1="0" x2="597.9189" y1="258.8291" y2="258.8291"/><line style="stroke:#000000;stroke-width:1;" x1="0" x2="597.9189" y1="261.8291" y2="261.8291"/><rect fill="#EEEEEE" height="23.3105" style="stroke:#000000;stroke-width:2;" width="80.3711" x="258.7739" y="248.1738"/><text fill="#000000" font-family="Segoe UI" font-size="13" font-weight="bold" lengthAdjust="spacing" textLength="62.0864" x="264.7739" y="264.7422">Database</text><g class="message" data-participant-1="Svc" data-participant-2="DB"><polygon fill="#2563EB" points="531.8828,298.7949,541.8828,302.7949,531.8828,306.7949,535.8828,302.7949" style="stroke:#2563EB;stroke-width:1;"/><line style="stroke:#2563EB;stroke-width:1;" x1="375.6304" x2="537.8828" y1="302.7949" y2="302.7949"/><text fill="#000000" font-family="Segoe UI" font-size="13" lengthAdjust="spacing" textLength="149.2524" x="382.6304" y="298.0527">SELECT ... WHERE filters</text></g><g class="message" data-participant-1="DB" data-participant-2="Svc"><polygon fill="#2563EB" points="386.6304,328.1055,376.6304,332.1055,386.6304,336.1055,382.6304,332.1055" style="stroke:#2563EB;stroke-width:1;"/><line style="stroke:#2563EB;stroke-width:1;stroke-dasharray:2,2;" x1="380.6304" x2="547.8828" y1="332.1055" y2="332.1055"/><text fill="#000000" font-family="Segoe UI" font-size="13" lengthAdjust="spacing" textLength="93.209" x="392.6304" y="327.3633">Page of results</text></g><g class="message" data-participant-1="Svc" data-participant-2="GW"><polygon fill="#2563EB" points="223.8677,357.416,213.8677,361.416,223.8677,365.416,219.8677,361.416" style="stroke:#2563EB;stroke-width:1;"/><line style="stroke:#2563EB;stroke-width:1;stroke-dasharray:2,2;" x1="217.8677" x2="369.6304" y1="361.416" y2="361.416"/><text fill="#000000" font-family="Segoe UI" font-size="13" lengthAdjust="spacing" textLength="47.3599" x="229.8677" y="356.6738">200 OK</text></g><g class="message" data-participant-1="GW" data-participant-2="Client"><polygon fill="#2563EB" points="42.7524,386.7266,32.7524,390.7266,42.7524,394.7266,38.7524,390.7266" style="stroke:#2563EB;stroke-width:1;"/><line style="stroke:#2563EB;stroke-width:1;stroke-dasharray:2,2;" x1="36.7524" x2="206.8677" y1="390.7266" y2="390.7266"/><text fill="#000000" font-family="Segoe UI" font-size="13" lengthAdjust="spacing" textLength="47.3599" x="48.7524" y="385.9844">200 OK</text></g><a href="/microservices/svc-scheduling-orchestrator/#integration-context" target="_top" title="/microservices/svc-scheduling-orchestrator/#integration-context" xlink:actuate="onRequest" xlink:href="/microservices/svc-scheduling-orchestrator/#integration-context" xlink:show="new" xlink:title="/microservices/svc-scheduling-orchestrator/#integration-context" xlink:type="simple"><text fill="#0000FF" font-family="Segoe UI" font-size="10" lengthAdjust="spacing" text-decoration="underline" textLength="250.4199" x="346.499" y="14.668">&#11014; svc-scheduling-orchestrator Integration Context</text></a><!--SRC=[bLDDRzf04BtlhnZ1iU8Za0Q4H2KmDaL5AIf9EAGS5djiLZ6xxku2YQfU-slwg_fBEZR6c2P5gdqP-Rqtp_Dcrpm9cN3DDx3Y_bEarLO6ZegLXghdfYyp1SEiUQ3sGaOGyjXW2GamvDlOUahQMxv1gCmnKWZtaqfPZj-sA7s4xmpe6MYjzhbLw_rD6rVPvndNLlWYuT8EbGvG7obkzsOmV4Nv-wVThdVjTJFQL8Gu5HBFsWnQxM6dbU53zNm6ULTThtbLGA_Yy3p2C_XMsVEkVgUpQfUmDw9ikntsWx4rSfB1usDZ8toj3EgTyD4qpCwl6N-DmJQcW6jAKssivbRfHbL8Yn7LGicQJndZiuNVltx21H5CJXfm3fhbaZ4hR8mmTk-WaIinRHd6mhVcgvmAO-7K4Wg8iUIKEbISMA2q5U063cKw4KyIucQMfa5cPuh1R09ZRd7FNpBPU07LqT0Tq0axursOATFDT_x_fRTS5gSYu9QlkA7pEHl3EtZWyHCU_cOqf2KvxhNhC2PfWw1sj2NoefsIMs744t79hBwscnWU1Ev1I9ZlUHHHc_i9XO4oWBGpOtbWjGzf1hr_xO9ntueT1PObbLyGAacMHj03Eby4wlHI6NjYf-2Hplfz61rdxlSPIq5gGDFsOEvENUSEwlKwB3wwNrm8HMnHbunBeL1PAvndFAA0Gl8sTEaD2x0aoKsEqxMQJVZygKn9Gqtd84QUn5kiyOBz0G00]--></g></svg>