<svg xmlns="http://www.w3.org/2000/svg" xmlns:xlink="http://www.w3.org/1999/xlink" contentStyleType="text/css" data-diagram-type="SEQUENCE" height="522px" preserveAspectRatio="none" style="width:810px;height:522px;background:#FEFEFE;" version="1.1" viewBox="0 0 810 522" width="810px" zoomAndPan="magnify"><title>GET /partner-bookings/{booking_id}</title><defs/><g><rect fill="#FEFEFE" height="522" style="stroke:none;stroke-width:1;" width="810" x="0" y="0"/><text fill="#000000" font-family="Segoe UI" font-size="14" font-weight="bold" lengthAdjust="spacing" textLength="268.3242" x="266.8665" y="41.3125">GET /partner-bookings/{booking_id}</text><text fill="#000000" font-family="Segoe UI" font-size="14" font-weight="bold" lengthAdjust="spacing" textLength="198.8711" x="301.593" y="57.8008">Get partner booking details</text><g><title>API Gateway</title><rect fill="#2563EB" height="225.1738" style="stroke:#A23B72;stroke-width:1;" width="10" x="283.7432" y="200.8633"/></g><g><title>svc-partner-integrations</title><rect fill="#2563EB" height="166.5527" style="stroke:#A23B72;stroke-width:1;" width="10" x="433.6064" y="230.1738"/></g><g><title>PostgreSQL</title><rect fill="#FCE4EC" height="29.3105" style="stroke:#A23B72;stroke-width:1;" width="10" x="611.4971" y="302.7949"/></g><g><title>Client</title><rect fill="#000000" fill-opacity="0.00000" height="309.7949" width="8" x="27.7524" y="134.2422"/><line style="stroke:#A23B72;stroke-width:0.5;stroke-dasharray:5,5;" x1="31" x2="31" y1="134.2422" y2="444.0371"/></g><g><title>API Gateway</title><rect fill="#000000" fill-opacity="0.00000" height="309.7949" width="8" x="284.7432" y="134.2422"/><line style="stroke:#A23B72;stroke-width:0.5;stroke-dasharray:5,5;" x1="288.4541" x2="288.4541" y1="134.2422" y2="444.0371"/></g><g><title>svc-partner-integrations</title><rect fill="#000000" fill-opacity="0.00000" height="309.7949" width="8" x="434.6064" y="134.2422"/><line style="stroke:#A23B72;stroke-width:0.5;stroke-dasharray:5,5;" x1="438.0322" x2="438.0322" y1="134.2422" y2="444.0371"/></g><g><title>PostgreSQL</title><rect fill="#000000" fill-opacity="0.00000" height="309.7949" width="8" x="612.4971" y="134.2422"/><line style="stroke:#A23B72;stroke-width:0.5;stroke-dasharray:5,5;" x1="616.0723" x2="616.0723" y1="134.2422" y2="444.0371"/></g><g class="participant participant-head" data-participant="Client"><a href="/applications/" target="_top" title="/applications/" xlink:actuate="onRequest" xlink:href="/applications/" xlink:show="new" xlink:title="/applications/" xlink:type="simple"><rect fill="#E8F4F8" height="30.4883" rx="2.5" ry="2.5" style="stroke:#2E86AB;stroke-width:0.5;" width="53.5049" x="5" y="102.7539"/><text fill="#000000" font-family="Segoe UI" font-size="14" lengthAdjust="spacing" textLength="39.5049" x="12" y="123.2891">Client</text></a></g><g class="participant participant-tail" data-participant="Client"><a href="/applications/" target="_top" title="/applications/" xlink:actuate="onRequest" xlink:href="/applications/" xlink:show="new" xlink:title="/applications/" xlink:type="simple"><rect fill="#E8F4F8" height="30.4883" rx="2.5" ry="2.5" style="stroke:#2E86AB;stroke-width:0.5;" width="53.5049" x="5" y="443.0371"/><text fill="#000000" font-family="Segoe UI" font-size="14" lengthAdjust="spacing" textLength="39.5049" x="12" y="463.5723">Client</text></a></g><g class="participant participant-head" data-participant="GW"><rect fill="#DBEAFE" height="30.4883" rx="2.5" ry="2.5" style="stroke:#2E86AB;stroke-width:0.5;" width="96.5781" x="240.4541" y="102.7539"/><text fill="#000000" font-family="Segoe UI" font-size="14" lengthAdjust="spacing" textLength="82.5781" x="247.4541" y="123.2891">API Gateway</text></g><g class="participant participant-tail" data-participant="GW"><rect fill="#DBEAFE" height="30.4883" rx="2.5" ry="2.5" style="stroke:#2E86AB;stroke-width:0.5;" width="96.5781" x="240.4541" y="443.0371"/><text fill="#000000" font-family="Segoe UI" font-size="14" lengthAdjust="spacing" textLength="82.5781" x="247.4541" y="463.5723">API Gateway</text></g><g class="participant participant-head" data-participant="Svc"><a href="/microservices/svc-partner-integrations/" target="_top" title="/microservices/svc-partner-integrations/" xlink:actuate="onRequest" xlink:href="/microservices/svc-partner-integrations/" xlink:show="new" xlink:title="/microservices/svc-partner-integrations/" xlink:type="simple"><rect fill="#E8F4F8" height="30.4883" rx="2.5" ry="2.5" style="stroke:#2E86AB;stroke-width:0.5;" width="183.1484" x="347.0322" y="102.7539"/><text fill="#000000" font-family="Segoe UI" font-size="14" lengthAdjust="spacing" textLength="169.1484" x="354.0322" y="123.2891">svc-partner-integrations</text></a></g><g class="participant participant-tail" data-participant="Svc"><a href="/microservices/svc-partner-integrations/" target="_top" title="/microservices/svc-partner-integrations/" xlink:actuate="onRequest" xlink:href="/microservices/svc-partner-integrations/" xlink:show="new" xlink:title="/microservices/svc-partner-integrations/" xlink:type="simple"><rect fill="#E8F4F8" height="30.4883" rx="2.5" ry="2.5" style="stroke:#2E86AB;stroke-width:0.5;" width="183.1484" x="347.0322" y="443.0371"/><text fill="#000000" font-family="Segoe UI" font-size="14" lengthAdjust="spacing" textLength="169.1484" x="354.0322" y="463.5723">svc-partner-integrations</text></a></g><g class="participant participant-head" data-participant="DB"><text fill="#000000" font-family="Segoe UI" font-size="14" lengthAdjust="spacing" textLength="76.8496" x="575.0723" y="131.2891">PostgreSQL</text><path d="M598.4971,81.7539 C598.4971,71.7539 616.4971,71.7539 616.4971,71.7539 C616.4971,71.7539 634.4971,71.7539 634.4971,81.7539 L634.4971,107.7539 C634.4971,117.7539 616.4971,117.7539 616.4971,117.7539 C616.4971,117.7539 598.4971,117.7539 598.4971,107.7539 L598.4971,81.7539" fill="#FCE4EC" style="stroke:#181818;stroke-width:0.5;"/><path d="M598.4971,81.7539 C598.4971,91.7539 616.4971,91.7539 616.4971,91.7539 C616.4971,91.7539 634.4971,91.7539 634.4971,81.7539" fill="none" style="stroke:#181818;stroke-width:0.5;"/></g><g class="participant participant-tail" data-participant="DB"><text fill="#000000" font-family="Segoe UI" font-size="14" lengthAdjust="spacing" textLength="76.8496" x="575.0723" y="456.5723">PostgreSQL</text><path d="M598.4971,469.5254 C598.4971,459.5254 616.4971,459.5254 616.4971,459.5254 C616.4971,459.5254 634.4971,459.5254 634.4971,469.5254 L634.4971,495.5254 C634.4971,505.5254 616.4971,505.5254 616.4971,505.5254 C616.4971,505.5254 598.4971,505.5254 598.4971,495.5254 L598.4971,469.5254" fill="#FCE4EC" style="stroke:#181818;stroke-width:0.5;"/><path d="M598.4971,469.5254 C598.4971,479.5254 616.4971,479.5254 616.4971,479.5254 C616.4971,479.5254 634.4971,479.5254 634.4971,469.5254" fill="none" style="stroke:#181818;stroke-width:0.5;"/></g><g><title>API Gateway</title><rect fill="#2563EB" height="225.1738" style="stroke:#A23B72;stroke-width:1;" width="10" x="283.7432" y="200.8633"/></g><g><title>svc-partner-integrations</title><rect fill="#2563EB" height="166.5527" style="stroke:#A23B72;stroke-width:1;" width="10" x="433.6064" y="230.1738"/></g><g><title>PostgreSQL</title><rect fill="#FCE4EC" height="29.3105" style="stroke:#A23B72;stroke-width:1;" width="10" x="611.4971" y="302.7949"/></g><path d="M368,149.2422 L368,174.2422 L508,174.2422 L508,159.2422 L498,149.2422 L368,149.2422" fill="#FEFFDD" style="stroke:#181818;stroke-width:0.5;"/><path d="M498,149.2422 L498,159.2422 L508,159.2422 L498,149.2422" fill="#FEFFDD" style="stroke:#181818;stroke-width:0.5;"/><a href="/services/api/svc-partner-integrations.html#/Partner%20Bookings/getPartnerBooking" target="_top" title="/services/api/svc-partner-integrations.html#/Partner%20Bookings/getPartnerBooking" xlink:actuate="onRequest" xlink:href="/services/api/svc-partner-integrations.html#/Partner%20Bookings/getPartnerBooking" xlink:show="new" xlink:title="/services/api/svc-partner-integrations.html#/Partner%20Bookings/getPartnerBooking" xlink:type="simple"><text fill="#0000FF" font-family="Segoe UI" font-size="13" lengthAdjust="spacing" text-decoration="underline" textLength="119.4058" x="374" y="166.8105">View in Swagger UI</text></a><g class="message" data-participant-1="Client" data-participant-2="GW"><polygon fill="#2563EB" points="271.7432,196.8633,281.7432,200.8633,271.7432,204.8633,275.7432,200.8633" style="stroke:#2563EB;stroke-width:1;"/><line style="stroke:#2563EB;stroke-width:1;" x1="31.7524" x2="277.7432" y1="200.8633" y2="200.8633"/><text fill="#000000" font-family="Segoe UI" font-size="13" lengthAdjust="spacing" textLength="232.9907" x="38.7524" y="196.1211">GET /partner-bookings/{booking_id}</text></g><g class="message" data-participant-1="GW" data-participant-2="Svc"><polygon fill="#2563EB" points="421.6064,226.1738,431.6064,230.1738,421.6064,234.1738,425.6064,230.1738" style="stroke:#2563EB;stroke-width:1;"/><line style="stroke:#2563EB;stroke-width:1;" x1="293.7432" x2="427.6064" y1="230.1738" y2="230.1738"/><text fill="#000000" font-family="Segoe UI" font-size="13" lengthAdjust="spacing" textLength="85.1348" x="300.7432" y="225.4316">route request</text></g><rect fill="#EEEEEE" height="3" style="stroke:#EEEEEE;stroke-width:1;" width="803.0571" x="0" y="258.8291"/><line style="stroke:#000000;stroke-width:1;" x1="0" x2="803.0571" y1="258.8291" y2="258.8291"/><line style="stroke:#000000;stroke-width:1;" x1="0" x2="803.0571" y1="261.8291" y2="261.8291"/><rect fill="#EEEEEE" height="23.3105" style="stroke:#000000;stroke-width:2;" width="80.3711" x="361.343" y="248.1738"/><text fill="#000000" font-family="Segoe UI" font-size="13" font-weight="bold" lengthAdjust="spacing" textLength="62.0864" x="367.343" y="264.7422">Database</text><g class="message" data-participant-1="Svc" data-participant-2="DB"><polygon fill="#2563EB" points="599.4971,298.7949,609.4971,302.7949,599.4971,306.7949,603.4971,302.7949" style="stroke:#2563EB;stroke-width:1;"/><line style="stroke:#2563EB;stroke-width:1;" x1="443.6064" x2="605.4971" y1="302.7949" y2="302.7949"/><text fill="#000000" font-family="Segoe UI" font-size="13" lengthAdjust="spacing" textLength="148.8906" x="450.6064" y="298.0527">SELECT ... WHERE id = ?</text></g><g class="message" data-participant-1="DB" data-participant-2="Svc"><polygon fill="#2563EB" points="454.6064,328.1055,444.6064,332.1055,454.6064,336.1055,450.6064,332.1055" style="stroke:#2563EB;stroke-width:1;"/><line style="stroke:#2563EB;stroke-width:1;stroke-dasharray:2,2;" x1="448.6064" x2="615.4971" y1="332.1055" y2="332.1055"/><text fill="#000000" font-family="Segoe UI" font-size="13" lengthAdjust="spacing" textLength="26.2222" x="460.6064" y="327.3633">Row</text></g><path d="M621,345.1055 L621,370.1055 L798,370.1055 L798,355.1055 L788,345.1055 L621,345.1055" fill="#FEFFDD" style="stroke:#181818;stroke-width:0.5;"/><path d="M788,345.1055 L788,355.1055 L798,355.1055 L788,345.1055" fill="#FEFFDD" style="stroke:#181818;stroke-width:0.5;"/><text fill="#000000" font-family="Segoe UI" font-size="13" lengthAdjust="spacing" textLength="156.0571" x="627" y="362.6738">Returns 404 if not found</text><g class="message" data-participant-1="Svc" data-participant-2="GW"><polygon fill="#2563EB" points="304.7432,392.7266,294.7432,396.7266,304.7432,400.7266,300.7432,396.7266" style="stroke:#2563EB;stroke-width:1;"/><line style="stroke:#2563EB;stroke-width:1;stroke-dasharray:2,2;" x1="298.7432" x2="437.6064" y1="396.7266" y2="396.7266"/><text fill="#000000" font-family="Segoe UI" font-size="13" lengthAdjust="spacing" textLength="47.3599" x="310.7432" y="391.9844">200 OK</text></g><g class="message" data-participant-1="GW" data-participant-2="Client"><polygon fill="#2563EB" points="42.7524,422.0371,32.7524,426.0371,42.7524,430.0371,38.7524,426.0371" style="stroke:#2563EB;stroke-width:1;"/><line style="stroke:#2563EB;stroke-width:1;stroke-dasharray:2,2;" x1="36.7524" x2="287.7432" y1="426.0371" y2="426.0371"/><text fill="#000000" font-family="Segoe UI" font-size="13" lengthAdjust="spacing" textLength="47.3599" x="48.7524" y="421.2949">200 OK</text></g><a href="/microservices/svc-partner-integrations/#integration-context" target="_top" title="/microservices/svc-partner-integrations/#integration-context" xlink:actuate="onRequest" xlink:href="/microservices/svc-partner-integrations/#integration-context" xlink:show="new" xlink:title="/microservices/svc-partner-integrations/#integration-context" xlink:type="simple"><text fill="#0000FF" font-family="Segoe UI" font-size="10" lengthAdjust="spacing" text-decoration="underline" textLength="231.9922" x="570.0649" y="14.668">&#11014; svc-partner-integrations Integration Context</text></a><!--SRC=[bPF1Zjem48RlVeeHg4S82tH1IBGYa51KjAMmMmvRL9ba2DO6cze6jbhjjK_Jf-gJT182XEuYjN1n_FypOtypDWz2hhdcAvZpu27IQYF3hegLXgBl9NzcZWwpvA7Q2Hd1WiS6Sqg82xw9hQ-alU4hXC848uLmDoZam_7x1cM0yCI0VXsjrIuhLNrxNSDvkZtYsef0hBcqhj8XweF5Qrvtt1UMlm_jDVswtqnjGx70eP1ubgPJhRcDQggxwl5Cyg-QVkNgABt0uVkaf_ADikTPWqPZNijfhw2iUGtspDWIEON1_Rsp4e5M1lLM16WSimrAXCbAr2KXBKQQMw6aSOgvhr90WF7HmkzVF-5I10nE7z3T1yncZ5bXOuI-TmlE8Mok57KdCivJjlecmkUlieyMCWja0dNOSX4RnjOd-53enWAbBG0ti5yc5-FhTIo2xFXK-IoYCnf0drlSyHzfM7yAnPxhTMZGpdoNRfS6JRR1Vn2SpOvZ4NBBvzpGW8wKiP76oUTXch7dKfEwNjthCYQfWw2sT7cgGpsbIiSYV2qk5YelxIekEgEzzAPQSGzu8xJPRhO5NmJkG4YOx7WKKQMx0O526K9IdB4CPkbTmgVr3qrZFB1YIrnJeDbpeYLbI62rWAQHH9qyGMDFxaGys5cx3Rq3e7QRiKIa1CIc1HDlw7LleLmkm_I3D_P0XD26zwTCEOAqB1qBZzMEXPYpxVbg4IqjgCK- -nZjHjFerYjr48i40YoIvvETuS2XMgd0fu_vT4c7ackI8sFscgi_PNy0]--></g></svg>