<svg xmlns="http://www.w3.org/2000/svg" xmlns:xlink="http://www.w3.org/1999/xlink" contentStyleType="text/css" data-diagram-type="SEQUENCE" height="487px" preserveAspectRatio="none" style="width:490px;height:487px;background:#FEFEFE;" version="1.1" viewBox="0 0 490 487" width="490px" zoomAndPan="magnify"><title>GET /regions</title><defs/><g><rect fill="#FEFEFE" height="487" style="stroke:none;stroke-width:1;" width="490" x="0" y="0"/><text fill="#000000" font-family="Segoe UI" font-size="14" font-weight="bold" lengthAdjust="spacing" textLength="95.4434" x="193.6924" y="41.3125">GET /regions</text><text fill="#000000" font-family="Segoe UI" font-size="14" font-weight="bold" lengthAdjust="spacing" textLength="159.5918" x="161.6182" y="57.8008">List operating regions</text><g><title>API Gateway</title><rect fill="#2563EB" height="189.8633" style="stroke:#A23B72;stroke-width:1;" width="10" x="133.4497" y="200.8633"/></g><g><title>svc-trip-catalog</title><rect fill="#2563EB" height="131.2422" style="stroke:#A23B72;stroke-width:1;" width="10" x="254.1509" y="230.1738"/></g><g><title>PostgreSQL</title><rect fill="#FCE4EC" height="29.3105" style="stroke:#A23B72;stroke-width:1;" width="10" x="432.4033" y="302.7949"/></g><g><title>Client</title><rect fill="#000000" fill-opacity="0.00000" height="274.4844" width="8" x="27.7524" y="134.2422"/><line style="stroke:#A23B72;stroke-width:0.5;stroke-dasharray:5,5;" x1="31" x2="31" y1="134.2422" y2="408.7266"/></g><g><title>API Gateway</title><rect fill="#000000" fill-opacity="0.00000" height="274.4844" width="8" x="134.4497" y="134.2422"/><line style="stroke:#A23B72;stroke-width:0.5;stroke-dasharray:5,5;" x1="138.1606" x2="138.1606" y1="134.2422" y2="408.7266"/></g><g><title>svc-trip-catalog</title><rect fill="#000000" fill-opacity="0.00000" height="274.4844" width="8" x="255.1509" y="134.2422"/><line style="stroke:#A23B72;stroke-width:0.5;stroke-dasharray:5,5;" x1="258.7388" x2="258.7388" y1="134.2422" y2="408.7266"/></g><g><title>PostgreSQL</title><rect fill="#000000" fill-opacity="0.00000" height="274.4844" width="8" x="433.4033" y="134.2422"/><line style="stroke:#A23B72;stroke-width:0.5;stroke-dasharray:5,5;" x1="436.9785" x2="436.9785" y1="134.2422" y2="408.7266"/></g><g class="participant participant-head" data-participant="Client"><a href="/applications/" target="_top" title="/applications/" xlink:actuate="onRequest" xlink:href="/applications/" xlink:show="new" xlink:title="/applications/" xlink:type="simple"><rect fill="#E8F4F8" height="30.4883" rx="2.5" ry="2.5" style="stroke:#2E86AB;stroke-width:0.5;" width="53.5049" x="5" y="102.7539"/><text fill="#000000" font-family="Segoe UI" font-size="14" lengthAdjust="spacing" textLength="39.5049" x="12" y="123.2891">Client</text></a></g><g class="participant participant-tail" data-participant="Client"><a href="/applications/" target="_top" title="/applications/" xlink:actuate="onRequest" xlink:href="/applications/" xlink:show="new" xlink:title="/applications/" xlink:type="simple"><rect fill="#E8F4F8" height="30.4883" rx="2.5" ry="2.5" style="stroke:#2E86AB;stroke-width:0.5;" width="53.5049" x="5" y="407.7266"/><text fill="#000000" font-family="Segoe UI" font-size="14" lengthAdjust="spacing" textLength="39.5049" x="12" y="428.2617">Client</text></a></g><g class="participant participant-head" data-participant="GW"><rect fill="#DBEAFE" height="30.4883" rx="2.5" ry="2.5" style="stroke:#2E86AB;stroke-width:0.5;" width="96.5781" x="90.1606" y="102.7539"/><text fill="#000000" font-family="Segoe UI" font-size="14" lengthAdjust="spacing" textLength="82.5781" x="97.1606" y="123.2891">API Gateway</text></g><g class="participant participant-tail" data-participant="GW"><rect fill="#DBEAFE" height="30.4883" rx="2.5" ry="2.5" style="stroke:#2E86AB;stroke-width:0.5;" width="96.5781" x="90.1606" y="407.7266"/><text fill="#000000" font-family="Segoe UI" font-size="14" lengthAdjust="spacing" textLength="82.5781" x="97.1606" y="428.2617">API Gateway</text></g><g class="participant participant-head" data-participant="Svc"><a href="/microservices/svc-trip-catalog/" target="_top" title="/microservices/svc-trip-catalog/" xlink:actuate="onRequest" xlink:href="/microservices/svc-trip-catalog/" xlink:show="new" xlink:title="/microservices/svc-trip-catalog/" xlink:type="simple"><rect fill="#E8F4F8" height="30.4883" rx="2.5" ry="2.5" style="stroke:#2E86AB;stroke-width:0.5;" width="124.8242" x="196.7388" y="102.7539"/><text fill="#000000" font-family="Segoe UI" font-size="14" lengthAdjust="spacing" textLength="110.8242" x="203.7388" y="123.2891">svc-trip-catalog</text></a></g><g class="participant participant-tail" data-participant="Svc"><a href="/microservices/svc-trip-catalog/" target="_top" title="/microservices/svc-trip-catalog/" xlink:actuate="onRequest" xlink:href="/microservices/svc-trip-catalog/" xlink:show="new" xlink:title="/microservices/svc-trip-catalog/" xlink:type="simple"><rect fill="#E8F4F8" height="30.4883" rx="2.5" ry="2.5" style="stroke:#2E86AB;stroke-width:0.5;" width="124.8242" x="196.7388" y="407.7266"/><text fill="#000000" font-family="Segoe UI" font-size="14" lengthAdjust="spacing" textLength="110.8242" x="203.7388" y="428.2617">svc-trip-catalog</text></a></g><g class="participant participant-head" data-participant="DB"><text fill="#000000" font-family="Segoe UI" font-size="14" lengthAdjust="spacing" textLength="76.8496" x="395.9785" y="131.2891">PostgreSQL</text><path d="M419.4033,81.7539 C419.4033,71.7539 437.4033,71.7539 437.4033,71.7539 C437.4033,71.7539 455.4033,71.7539 455.4033,81.7539 L455.4033,107.7539 C455.4033,117.7539 437.4033,117.7539 437.4033,117.7539 C437.4033,117.7539 419.4033,117.7539 419.4033,107.7539 L419.4033,81.7539" fill="#FCE4EC" style="stroke:#181818;stroke-width:0.5;"/><path d="M419.4033,81.7539 C419.4033,91.7539 437.4033,91.7539 437.4033,91.7539 C437.4033,91.7539 455.4033,91.7539 455.4033,81.7539" fill="none" style="stroke:#181818;stroke-width:0.5;"/></g><g class="participant participant-tail" data-participant="DB"><text fill="#000000" font-family="Segoe UI" font-size="14" lengthAdjust="spacing" textLength="76.8496" x="395.9785" y="421.2617">PostgreSQL</text><path d="M419.4033,434.2148 C419.4033,424.2148 437.4033,424.2148 437.4033,424.2148 C437.4033,424.2148 455.4033,424.2148 455.4033,434.2148 L455.4033,460.2148 C455.4033,470.2148 437.4033,470.2148 437.4033,470.2148 C437.4033,470.2148 419.4033,470.2148 419.4033,460.2148 L419.4033,434.2148" fill="#FCE4EC" style="stroke:#181818;stroke-width:0.5;"/><path d="M419.4033,434.2148 C419.4033,444.2148 437.4033,444.2148 437.4033,444.2148 C437.4033,444.2148 455.4033,444.2148 455.4033,434.2148" fill="none" style="stroke:#181818;stroke-width:0.5;"/></g><g><title>API Gateway</title><rect fill="#2563EB" height="189.8633" style="stroke:#A23B72;stroke-width:1;" width="10" x="133.4497" y="200.8633"/></g><g><title>svc-trip-catalog</title><rect fill="#2563EB" height="131.2422" style="stroke:#A23B72;stroke-width:1;" width="10" x="254.1509" y="230.1738"/></g><g><title>PostgreSQL</title><rect fill="#FCE4EC" height="29.3105" style="stroke:#A23B72;stroke-width:1;" width="10" x="432.4033" y="302.7949"/></g><path d="M188,149.2422 L188,174.2422 L328,174.2422 L328,159.2422 L318,149.2422 L188,149.2422" fill="#FEFFDD" style="stroke:#181818;stroke-width:0.5;"/><path d="M318,149.2422 L318,159.2422 L328,159.2422 L318,149.2422" fill="#FEFFDD" style="stroke:#181818;stroke-width:0.5;"/><a href="/services/api/svc-trip-catalog.html#/Reference%20Data/listRegions" target="_top" title="/services/api/svc-trip-catalog.html#/Reference%20Data/listRegions" xlink:actuate="onRequest" xlink:href="/services/api/svc-trip-catalog.html#/Reference%20Data/listRegions" xlink:show="new" xlink:title="/services/api/svc-trip-catalog.html#/Reference%20Data/listRegions" xlink:type="simple"><text fill="#0000FF" font-family="Segoe UI" font-size="13" lengthAdjust="spacing" text-decoration="underline" textLength="119.4058" x="194" y="166.8105">View in Swagger UI</text></a><g class="message" data-participant-1="Client" data-participant-2="GW"><polygon fill="#2563EB" points="121.4497,196.8633,131.4497,200.8633,121.4497,204.8633,125.4497,200.8633" style="stroke:#2563EB;stroke-width:1;"/><line style="stroke:#2563EB;stroke-width:1;" x1="31.7524" x2="127.4497" y1="200.8633" y2="200.8633"/><text fill="#000000" font-family="Segoe UI" font-size="13" lengthAdjust="spacing" textLength="82.6973" x="38.7524" y="196.1211">GET /regions</text></g><g class="message" data-participant-1="GW" data-participant-2="Svc"><polygon fill="#2563EB" points="242.1509,226.1738,252.1509,230.1738,242.1509,234.1738,246.1509,230.1738" style="stroke:#2563EB;stroke-width:1;"/><line style="stroke:#2563EB;stroke-width:1;" x1="143.4497" x2="248.1509" y1="230.1738" y2="230.1738"/><text fill="#000000" font-family="Segoe UI" font-size="13" lengthAdjust="spacing" textLength="85.1348" x="150.4497" y="225.4316">route request</text></g><rect fill="#EEEEEE" height="3" style="stroke:#EEEEEE;stroke-width:1;" width="483.8281" x="0" y="258.8291"/><line style="stroke:#000000;stroke-width:1;" x1="0" x2="483.8281" y1="258.8291" y2="258.8291"/><line style="stroke:#000000;stroke-width:1;" x1="0" x2="483.8281" y1="261.8291" y2="261.8291"/><rect fill="#EEEEEE" height="23.3105" style="stroke:#000000;stroke-width:2;" width="80.3711" x="201.7285" y="248.1738"/><text fill="#000000" font-family="Segoe UI" font-size="13" font-weight="bold" lengthAdjust="spacing" textLength="62.0864" x="207.7285" y="264.7422">Database</text><g class="message" data-participant-1="Svc" data-participant-2="DB"><polygon fill="#2563EB" points="420.4033,298.7949,430.4033,302.7949,420.4033,306.7949,424.4033,302.7949" style="stroke:#2563EB;stroke-width:1;"/><line style="stroke:#2563EB;stroke-width:1;" x1="264.1509" x2="426.4033" y1="302.7949" y2="302.7949"/><text fill="#000000" font-family="Segoe UI" font-size="13" lengthAdjust="spacing" textLength="149.2524" x="271.1509" y="298.0527">SELECT ... WHERE filters</text></g><g class="message" data-participant-1="DB" data-participant-2="Svc"><polygon fill="#2563EB" points="275.1509,328.1055,265.1509,332.1055,275.1509,336.1055,271.1509,332.1055" style="stroke:#2563EB;stroke-width:1;"/><line style="stroke:#2563EB;stroke-width:1;stroke-dasharray:2,2;" x1="269.1509" x2="436.4033" y1="332.1055" y2="332.1055"/><text fill="#000000" font-family="Segoe UI" font-size="13" lengthAdjust="spacing" textLength="93.209" x="281.1509" y="327.3633">Page of results</text></g><g class="message" data-participant-1="Svc" data-participant-2="GW"><polygon fill="#2563EB" points="154.4497,357.416,144.4497,361.416,154.4497,365.416,150.4497,361.416" style="stroke:#2563EB;stroke-width:1;"/><line style="stroke:#2563EB;stroke-width:1;stroke-dasharray:2,2;" x1="148.4497" x2="258.1509" y1="361.416" y2="361.416"/><text fill="#000000" font-family="Segoe UI" font-size="13" lengthAdjust="spacing" textLength="47.3599" x="160.4497" y="356.6738">200 OK</text></g><g class="message" data-participant-1="GW" data-participant-2="Client"><polygon fill="#2563EB" points="42.7524,386.7266,32.7524,390.7266,42.7524,394.7266,38.7524,390.7266" style="stroke:#2563EB;stroke-width:1;"/><line style="stroke:#2563EB;stroke-width:1;stroke-dasharray:2,2;" x1="36.7524" x2="137.4497" y1="390.7266" y2="390.7266"/><text fill="#000000" font-family="Segoe UI" font-size="13" lengthAdjust="spacing" textLength="47.3599" x="48.7524" y="385.9844">200 OK</text></g><a href="/microservices/svc-trip-catalog/#integration-context" target="_top" title="/microservices/svc-trip-catalog/#integration-context" xlink:actuate="onRequest" xlink:href="/microservices/svc-trip-catalog/#integration-context" xlink:show="new" xlink:title="/microservices/svc-trip-catalog/#integration-context" xlink:type="simple"><text fill="#0000FF" font-family="Segoe UI" font-size="10" lengthAdjust="spacing" text-decoration="underline" textLength="190.332" x="292.4961" y="14.668">&#11014; svc-trip-catalog Integration Context</text></a><!--SRC=[ZLDDZzem4BtxLun0FK9Os2u8YKeG4egAjXHsos7BmIIJhBN1Jcq3MrMzzjVqL_MNT1A-4jX3aulbz-Ozp_FOl0YPSitNiEB1IwpLHeQkIfI6gkzbFpCdXddceTe96KF44uC59CI8RnBhAsdl-HgXCiTO8JoEAyLo_Bv16I3yP41VNskrErWrtz-rS9LlJxcs8X0fbtQWT8ZwIF4wT_t15UNoq5x7l_KxEMqY8fm8YIMPVhCrQ3TpVA1UIv1_q_4RDoVeAWxV9po7xvKjgmRjzgfLmDw8ikMrsI_6df5J6JmzEMiHQ6LGRqM0nZ7Re6QrI6i1jpnHiLCLqcAikHLArW8A5byj_Ftp6owPC3uJmTqJbql6hB09miXx04TZJA3v9YV2M50fPcowniC-O-avKQYuYK1fAy0Dx9VPQNcQ9YB8JOn3ygMA_dGC8svnnt_aPQC5L8S3hq_JK-9T7ZqdpxV1VyInN9xkDgIj5JSqPLDbRAnn_cMIAmq7bBJhtNekOvAk0TIMeYPzkXXoE8dpL5mPr9_jEgawCunGPqFwhjaO4k8abDXi7nDy5RW38M6-ut5CoezZ2W9b29aPOuUmQX-o_hkbv1aFhDXIGdaqXscd9N6pzhj0mqAWpbw8iMTs1XxfhDU3uR7rNe-n32G1wheBSs_YkGzGhzTXyT6RUH29nA8k61V2eMNjv3pbCGKLaRUX5snOY8MIWycnfMQZ0Py_5IbPk5aVn3Yq_nPhj63_0000]--></g></svg>