<svg xmlns="http://www.w3.org/2000/svg" xmlns:xlink="http://www.w3.org/1999/xlink" contentStyleType="text/css" data-diagram-type="SEQUENCE" height="522px" preserveAspectRatio="none" style="width:473px;height:522px;background:#FEFEFE;" version="1.1" viewBox="0 0 473 522" width="473px" zoomAndPan="magnify"><title>POST /routes</title><defs/><g><rect fill="#FEFEFE" height="522" style="stroke:none;stroke-width:1;" width="473" x="0" y="0"/><text fill="#000000" font-family="Segoe UI" font-size="14" font-weight="bold" lengthAdjust="spacing" textLength="96.5918" x="184.3218" y="41.3125">POST /routes</text><text fill="#000000" font-family="Segoe UI" font-size="14" font-weight="bold" lengthAdjust="spacing" textLength="208.8242" x="128.2056" y="57.8008">Create a new transport route</text><g><title>API Gateway</title><rect fill="#059669" height="225.1738" style="stroke:#A23B72;stroke-width:1;" width="10" x="134.2939" y="200.8633"/></g><g><title>svc-transport-logistics</title><rect fill="#059669" height="166.5527" style="stroke:#A23B72;stroke-width:1;" width="10" x="277.9844" y="230.1738"/></g><g><title>PostgreSQL</title><rect fill="#FCE4EC" height="29.3105" style="stroke:#A23B72;stroke-width:1;" width="10" x="414.8105" y="338.1055"/></g><g><title>Client</title><rect fill="#000000" fill-opacity="0.00000" height="309.7949" width="8" x="27.7524" y="134.2422"/><line style="stroke:#A23B72;stroke-width:0.5;stroke-dasharray:5,5;" x1="31" x2="31" y1="134.2422" y2="444.0371"/></g><g><title>API Gateway</title><rect fill="#000000" fill-opacity="0.00000" height="309.7949" width="8" x="135.2939" y="134.2422"/><line style="stroke:#A23B72;stroke-width:0.5;stroke-dasharray:5,5;" x1="139.0049" x2="139.0049" y1="134.2422" y2="444.0371"/></g><g><title>svc-transport-logistics</title><rect fill="#000000" fill-opacity="0.00000" height="309.7949" width="8" x="278.9844" y="134.2422"/><line style="stroke:#A23B72;stroke-width:0.5;stroke-dasharray:5,5;" x1="282.583" x2="282.583" y1="134.2422" y2="444.0371"/></g><g><title>PostgreSQL</title><rect fill="#000000" fill-opacity="0.00000" height="309.7949" width="8" x="415.8105" y="134.2422"/><line style="stroke:#A23B72;stroke-width:0.5;stroke-dasharray:5,5;" x1="419.3857" x2="419.3857" y1="134.2422" y2="444.0371"/></g><g class="participant participant-head" data-participant="Client"><a href="/applications/" target="_top" title="/applications/" xlink:actuate="onRequest" xlink:href="/applications/" xlink:show="new" xlink:title="/applications/" xlink:type="simple"><rect fill="#E8F4F8" height="30.4883" rx="2.5" ry="2.5" style="stroke:#2E86AB;stroke-width:0.5;" width="53.5049" x="5" y="102.7539"/><text fill="#000000" font-family="Segoe UI" font-size="14" lengthAdjust="spacing" textLength="39.5049" x="12" y="123.2891">Client</text></a></g><g class="participant participant-tail" data-participant="Client"><a href="/applications/" target="_top" title="/applications/" xlink:actuate="onRequest" xlink:href="/applications/" xlink:show="new" xlink:title="/applications/" xlink:type="simple"><rect fill="#E8F4F8" height="30.4883" rx="2.5" ry="2.5" style="stroke:#2E86AB;stroke-width:0.5;" width="53.5049" x="5" y="443.0371"/><text fill="#000000" font-family="Segoe UI" font-size="14" lengthAdjust="spacing" textLength="39.5049" x="12" y="463.5723">Client</text></a></g><g class="participant participant-head" data-participant="GW"><rect fill="#DBEAFE" height="30.4883" rx="2.5" ry="2.5" style="stroke:#2E86AB;stroke-width:0.5;" width="96.5781" x="91.0049" y="102.7539"/><text fill="#000000" font-family="Segoe UI" font-size="14" lengthAdjust="spacing" textLength="82.5781" x="98.0049" y="123.2891">API Gateway</text></g><g class="participant participant-tail" data-participant="GW"><rect fill="#DBEAFE" height="30.4883" rx="2.5" ry="2.5" style="stroke:#2E86AB;stroke-width:0.5;" width="96.5781" x="91.0049" y="443.0371"/><text fill="#000000" font-family="Segoe UI" font-size="14" lengthAdjust="spacing" textLength="82.5781" x="98.0049" y="463.5723">API Gateway</text></g><g class="participant participant-head" data-participant="Svc"><a href="/microservices/svc-transport-logistics/" target="_top" title="/microservices/svc-transport-logistics/" xlink:actuate="onRequest" xlink:href="/microservices/svc-transport-logistics/" xlink:show="new" xlink:title="/microservices/svc-transport-logistics/" xlink:type="simple"><rect fill="#E8F4F8" height="30.4883" rx="2.5" ry="2.5" style="stroke:#2E86AB;stroke-width:0.5;" width="170.8027" x="197.583" y="102.7539"/><text fill="#000000" font-family="Segoe UI" font-size="14" lengthAdjust="spacing" textLength="156.8027" x="204.583" y="123.2891">svc-transport-logistics</text></a></g><g class="participant participant-tail" data-participant="Svc"><a href="/microservices/svc-transport-logistics/" target="_top" title="/microservices/svc-transport-logistics/" xlink:actuate="onRequest" xlink:href="/microservices/svc-transport-logistics/" xlink:show="new" xlink:title="/microservices/svc-transport-logistics/" xlink:type="simple"><rect fill="#E8F4F8" height="30.4883" rx="2.5" ry="2.5" style="stroke:#2E86AB;stroke-width:0.5;" width="170.8027" x="197.583" y="443.0371"/><text fill="#000000" font-family="Segoe UI" font-size="14" lengthAdjust="spacing" textLength="156.8027" x="204.583" y="463.5723">svc-transport-logistics</text></a></g><g class="participant participant-head" data-participant="DB"><text fill="#000000" font-family="Segoe UI" font-size="14" lengthAdjust="spacing" textLength="76.8496" x="378.3857" y="131.2891">PostgreSQL</text><path d="M401.8105,81.7539 C401.8105,71.7539 419.8105,71.7539 419.8105,71.7539 C419.8105,71.7539 437.8105,71.7539 437.8105,81.7539 L437.8105,107.7539 C437.8105,117.7539 419.8105,117.7539 419.8105,117.7539 C419.8105,117.7539 401.8105,117.7539 401.8105,107.7539 L401.8105,81.7539" fill="#FCE4EC" style="stroke:#181818;stroke-width:0.5;"/><path d="M401.8105,81.7539 C401.8105,91.7539 419.8105,91.7539 419.8105,91.7539 C419.8105,91.7539 437.8105,91.7539 437.8105,81.7539" fill="none" style="stroke:#181818;stroke-width:0.5;"/></g><g class="participant participant-tail" data-participant="DB"><text fill="#000000" font-family="Segoe UI" font-size="14" lengthAdjust="spacing" textLength="76.8496" x="378.3857" y="456.5723">PostgreSQL</text><path d="M401.8105,469.5254 C401.8105,459.5254 419.8105,459.5254 419.8105,459.5254 C419.8105,459.5254 437.8105,459.5254 437.8105,469.5254 L437.8105,495.5254 C437.8105,505.5254 419.8105,505.5254 419.8105,505.5254 C419.8105,505.5254 401.8105,505.5254 401.8105,495.5254 L401.8105,469.5254" fill="#FCE4EC" style="stroke:#181818;stroke-width:0.5;"/><path d="M401.8105,469.5254 C401.8105,479.5254 419.8105,479.5254 419.8105,479.5254 C419.8105,479.5254 437.8105,479.5254 437.8105,469.5254" fill="none" style="stroke:#181818;stroke-width:0.5;"/></g><g><title>API Gateway</title><rect fill="#059669" height="225.1738" style="stroke:#A23B72;stroke-width:1;" width="10" x="134.2939" y="200.8633"/></g><g><title>svc-transport-logistics</title><rect fill="#059669" height="166.5527" style="stroke:#A23B72;stroke-width:1;" width="10" x="277.9844" y="230.1738"/></g><g><title>PostgreSQL</title><rect fill="#FCE4EC" height="29.3105" style="stroke:#A23B72;stroke-width:1;" width="10" x="414.8105" y="338.1055"/></g><path d="M212,149.2422 L212,174.2422 L352,174.2422 L352,159.2422 L342,149.2422 L212,149.2422" fill="#FEFFDD" style="stroke:#181818;stroke-width:0.5;"/><path d="M342,149.2422 L342,159.2422 L352,159.2422 L342,149.2422" fill="#FEFFDD" style="stroke:#181818;stroke-width:0.5;"/><a href="/services/api/svc-transport-logistics.html" target="_top" title="/services/api/svc-transport-logistics.html" xlink:actuate="onRequest" xlink:href="/services/api/svc-transport-logistics.html" xlink:show="new" xlink:title="/services/api/svc-transport-logistics.html" xlink:type="simple"><text fill="#0000FF" font-family="Segoe UI" font-size="13" lengthAdjust="spacing" text-decoration="underline" textLength="119.4058" x="218" y="166.8105">View in Swagger UI</text></a><g class="message" data-participant-1="Client" data-participant-2="GW"><polygon fill="#059669" points="122.2939,196.8633,132.2939,200.8633,122.2939,204.8633,126.2939,200.8633" style="stroke:#059669;stroke-width:1;"/><line style="stroke:#059669;stroke-width:1;" x1="31.7524" x2="128.2939" y1="200.8633" y2="200.8633"/><text fill="#000000" font-family="Segoe UI" font-size="13" lengthAdjust="spacing" textLength="83.5415" x="38.7524" y="196.1211">POST /routes</text></g><g class="message" data-participant-1="GW" data-participant-2="Svc"><polygon fill="#059669" points="265.9844,226.1738,275.9844,230.1738,265.9844,234.1738,269.9844,230.1738" style="stroke:#059669;stroke-width:1;"/><line style="stroke:#059669;stroke-width:1;" x1="144.2939" x2="271.9844" y1="230.1738" y2="230.1738"/><text fill="#000000" font-family="Segoe UI" font-size="13" lengthAdjust="spacing" textLength="85.1348" x="151.2939" y="225.4316">route request</text></g><path d="M292,243.1738 L292,268.1738 L450,268.1738 L450,253.1738 L440,243.1738 L292,243.1738" fill="#FEFFDD" style="stroke:#181818;stroke-width:0.5;"/><path d="M440,243.1738 L440,253.1738 L450,253.1738 L440,243.1738" fill="#FEFFDD" style="stroke:#181818;stroke-width:0.5;"/><text fill="#000000" font-family="Segoe UI" font-size="13" lengthAdjust="spacing" textLength="137.5728" x="298" y="260.7422">Validate request body</text><rect fill="#EEEEEE" height="3" style="stroke:#EEEEEE;stroke-width:1;" width="466.2354" x="0" y="294.1396"/><line style="stroke:#000000;stroke-width:1;" x1="0" x2="466.2354" y1="294.1396" y2="294.1396"/><line style="stroke:#000000;stroke-width:1;" x1="0" x2="466.2354" y1="297.1396" y2="297.1396"/><rect fill="#EEEEEE" height="23.3105" style="stroke:#000000;stroke-width:2;" width="80.3711" x="192.9321" y="283.4844"/><text fill="#000000" font-family="Segoe UI" font-size="13" font-weight="bold" lengthAdjust="spacing" textLength="62.0864" x="198.9321" y="300.0527">Database</text><g class="message" data-participant-1="Svc" data-participant-2="DB"><polygon fill="#059669" points="402.8105,334.1055,412.8105,338.1055,402.8105,342.1055,406.8105,338.1055" style="stroke:#059669;stroke-width:1;"/><line style="stroke:#059669;stroke-width:1;" x1="287.9844" x2="408.8105" y1="338.1055" y2="338.1055"/><text fill="#000000" font-family="Segoe UI" font-size="13" lengthAdjust="spacing" textLength="96.0718" x="294.9844" y="333.3633">INSERT INTO ...</text></g><g class="message" data-participant-1="DB" data-participant-2="Svc"><polygon fill="#059669" points="298.9844,363.416,288.9844,367.416,298.9844,371.416,294.9844,367.416" style="stroke:#059669;stroke-width:1;"/><line style="stroke:#059669;stroke-width:1;stroke-dasharray:2,2;" x1="292.9844" x2="418.8105" y1="367.416" y2="367.416"/><text fill="#000000" font-family="Segoe UI" font-size="13" lengthAdjust="spacing" textLength="76.4575" x="304.9844" y="362.6738">Created row</text></g><g class="message" data-participant-1="Svc" data-participant-2="GW"><polygon fill="#059669" points="155.2939,392.7266,145.2939,396.7266,155.2939,400.7266,151.2939,396.7266" style="stroke:#059669;stroke-width:1;"/><line style="stroke:#059669;stroke-width:1;stroke-dasharray:2,2;" x1="149.2939" x2="281.9844" y1="396.7266" y2="396.7266"/><text fill="#000000" font-family="Segoe UI" font-size="13" lengthAdjust="spacing" textLength="77.7969" x="161.2939" y="391.9844">201 Created</text></g><g class="message" data-participant-1="GW" data-participant-2="Client"><polygon fill="#059669" points="42.7524,422.0371,32.7524,426.0371,42.7524,430.0371,38.7524,426.0371" style="stroke:#059669;stroke-width:1;"/><line style="stroke:#059669;stroke-width:1;stroke-dasharray:2,2;" x1="36.7524" x2="138.2939" y1="426.0371" y2="426.0371"/><text fill="#000000" font-family="Segoe UI" font-size="13" lengthAdjust="spacing" textLength="77.7969" x="48.7524" y="421.2949">201 Created</text></g><a href="/microservices/svc-transport-logistics/#integration-context" target="_top" title="/microservices/svc-transport-logistics/#integration-context" xlink:actuate="onRequest" xlink:href="/microservices/svc-transport-logistics/#integration-context" xlink:show="new" xlink:title="/microservices/svc-transport-logistics/#integration-context" xlink:type="simple"><text fill="#0000FF" font-family="Segoe UI" font-size="10" lengthAdjust="spacing" text-decoration="underline" textLength="223.1738" x="242.0615" y="14.668">&#11014; svc-transport-logistics Integration Context</text></a><!--SRC=[ZLDDRzf04BtlhnZ1cOz06aWaAe6n8wGeeOKaXvJ3O0zc5RFhxcuWKTHhVqr_LNz9nyQ0QOfKS_2Az-QzcJTh-onLYWPNCCVmEJRwHKMUJhI1Qk1dFs7t3Bl4I6-aYc61YQKI4j42Nn8NQELkSKLGcL2i2Uv7bN8vVNyX5HAy2-2dRupU55RDJvSN5vVvtsCqJeOoHUK6saHa2ahBxrxq1nyeVpVjTuFpe9lJRkI2RgIY8vb-gptej79ye5-FeE2i6pJFzj27E8A0yHo-rUvODUnqvkqIzeyestv7_11YISXbyFJKMCdGQ4jcBKEo3RiEQywWigashfReM5gUqJQgKZcA3JgfLItaVEdLmUzVF-540OmEVF2s_DbC22TTGZ2-cqoXmPqvij-KPmWT0OAY3Uor88U5I0yfGyLB92bN0RImFMOJO9ecCiojR8DDZYhwun5Si_m6t_AowqUe3WT-ds_K4U_477dDP1t-VrApsNxx4JgSe-LxEDRMnOOcNsvomU60T-7vvxudXE95WLxpCjY6LyT6UmzCvIcV-jAj4dYG79bKCDbW7BF4_OZd9nL1fYf4aL7jSpRsrL7i0aCdrrdkMIB5nUSZSxDnhxRnWya-5kiEx0pSqRUz6nal7UX5KVU0YOpmK0fp7Rq9qUl1S1T7hoT4HcOlJk8AHhSJ_-kKNzCxgDVh1xDIJdoixNlRtfY8Uzo8Y4hqGdStSAjvjkEMULdGsQXCAn8wIRr-57y0]--></g></svg>