<svg xmlns="http://www.w3.org/2000/svg" xmlns:xlink="http://www.w3.org/1999/xlink" contentStyleType="text/css" data-diagram-type="SEQUENCE" height="522px" preserveAspectRatio="none" style="width:439px;height:522px;background:#FEFEFE;" version="1.1" viewBox="0 0 439 522" width="439px" zoomAndPan="magnify"><title>POST /trips</title><defs/><g><rect fill="#FEFEFE" height="522" style="stroke:none;stroke-width:1;" width="439" x="0" y="0"/><text fill="#000000" font-family="Segoe UI" font-size="14" font-weight="bold" lengthAdjust="spacing" textLength="84.082" x="173.7454" y="41.3125">POST /trips</text><text fill="#000000" font-family="Segoe UI" font-size="14" font-weight="bold" lengthAdjust="spacing" textLength="198.625" x="116.4739" y="57.8008">Create a new trip definition</text><g><title>API Gateway</title><rect fill="#059669" height="225.1738" style="stroke:#A23B72;stroke-width:1;" width="10" x="133.5493" y="200.8633"/></g><g><title>svc-trip-catalog</title><rect fill="#059669" height="166.5527" style="stroke:#A23B72;stroke-width:1;" width="10" x="254.2505" y="230.1738"/></g><g><title>PostgreSQL</title><rect fill="#FCE4EC" height="29.3105" style="stroke:#A23B72;stroke-width:1;" width="10" x="379.3223" y="338.1055"/></g><g><title>Client</title><rect fill="#000000" fill-opacity="0.00000" height="309.7949" width="8" x="27.7524" y="134.2422"/><line style="stroke:#A23B72;stroke-width:0.5;stroke-dasharray:5,5;" x1="31" x2="31" y1="134.2422" y2="444.0371"/></g><g><title>API Gateway</title><rect fill="#000000" fill-opacity="0.00000" height="309.7949" width="8" x="134.5493" y="134.2422"/><line style="stroke:#A23B72;stroke-width:0.5;stroke-dasharray:5,5;" x1="138.2603" x2="138.2603" y1="134.2422" y2="444.0371"/></g><g><title>svc-trip-catalog</title><rect fill="#000000" fill-opacity="0.00000" height="309.7949" width="8" x="255.2505" y="134.2422"/><line style="stroke:#A23B72;stroke-width:0.5;stroke-dasharray:5,5;" x1="258.8384" x2="258.8384" y1="134.2422" y2="444.0371"/></g><g><title>PostgreSQL</title><rect fill="#000000" fill-opacity="0.00000" height="309.7949" width="8" x="380.3223" y="134.2422"/><line style="stroke:#A23B72;stroke-width:0.5;stroke-dasharray:5,5;" x1="383.8975" x2="383.8975" y1="134.2422" y2="444.0371"/></g><g class="participant participant-head" data-participant="Client"><a href="/applications/" target="_top" title="/applications/" xlink:actuate="onRequest" xlink:href="/applications/" xlink:show="new" xlink:title="/applications/" xlink:type="simple"><rect fill="#E8F4F8" height="30.4883" rx="2.5" ry="2.5" style="stroke:#2E86AB;stroke-width:0.5;" width="53.5049" x="5" y="102.7539"/><text fill="#000000" font-family="Segoe UI" font-size="14" lengthAdjust="spacing" textLength="39.5049" x="12" y="123.2891">Client</text></a></g><g class="participant participant-tail" data-participant="Client"><a href="/applications/" target="_top" title="/applications/" xlink:actuate="onRequest" xlink:href="/applications/" xlink:show="new" xlink:title="/applications/" xlink:type="simple"><rect fill="#E8F4F8" height="30.4883" rx="2.5" ry="2.5" style="stroke:#2E86AB;stroke-width:0.5;" width="53.5049" x="5" y="443.0371"/><text fill="#000000" font-family="Segoe UI" font-size="14" lengthAdjust="spacing" textLength="39.5049" x="12" y="463.5723">Client</text></a></g><g class="participant participant-head" data-participant="GW"><rect fill="#DBEAFE" height="30.4883" rx="2.5" ry="2.5" style="stroke:#2E86AB;stroke-width:0.5;" width="96.5781" x="90.2603" y="102.7539"/><text fill="#000000" font-family="Segoe UI" font-size="14" lengthAdjust="spacing" textLength="82.5781" x="97.2603" y="123.2891">API Gateway</text></g><g class="participant participant-tail" data-participant="GW"><rect fill="#DBEAFE" height="30.4883" rx="2.5" ry="2.5" style="stroke:#2E86AB;stroke-width:0.5;" width="96.5781" x="90.2603" y="443.0371"/><text fill="#000000" font-family="Segoe UI" font-size="14" lengthAdjust="spacing" textLength="82.5781" x="97.2603" y="463.5723">API Gateway</text></g><g class="participant participant-head" data-participant="Svc"><a href="/microservices/svc-trip-catalog/" target="_top" title="/microservices/svc-trip-catalog/" xlink:actuate="onRequest" xlink:href="/microservices/svc-trip-catalog/" xlink:show="new" xlink:title="/microservices/svc-trip-catalog/" xlink:type="simple"><rect fill="#E8F4F8" height="30.4883" rx="2.5" ry="2.5" style="stroke:#2E86AB;stroke-width:0.5;" width="124.8242" x="196.8384" y="102.7539"/><text fill="#000000" font-family="Segoe UI" font-size="14" lengthAdjust="spacing" textLength="110.8242" x="203.8384" y="123.2891">svc-trip-catalog</text></a></g><g class="participant participant-tail" data-participant="Svc"><a href="/microservices/svc-trip-catalog/" target="_top" title="/microservices/svc-trip-catalog/" xlink:actuate="onRequest" xlink:href="/microservices/svc-trip-catalog/" xlink:show="new" xlink:title="/microservices/svc-trip-catalog/" xlink:type="simple"><rect fill="#E8F4F8" height="30.4883" rx="2.5" ry="2.5" style="stroke:#2E86AB;stroke-width:0.5;" width="124.8242" x="196.8384" y="443.0371"/><text fill="#000000" font-family="Segoe UI" font-size="14" lengthAdjust="spacing" textLength="110.8242" x="203.8384" y="463.5723">svc-trip-catalog</text></a></g><g class="participant participant-head" data-participant="DB"><text fill="#000000" font-family="Segoe UI" font-size="14" lengthAdjust="spacing" textLength="76.8496" x="342.8975" y="131.2891">PostgreSQL</text><path d="M366.3223,81.7539 C366.3223,71.7539 384.3223,71.7539 384.3223,71.7539 C384.3223,71.7539 402.3223,71.7539 402.3223,81.7539 L402.3223,107.7539 C402.3223,117.7539 384.3223,117.7539 384.3223,117.7539 C384.3223,117.7539 366.3223,117.7539 366.3223,107.7539 L366.3223,81.7539" fill="#FCE4EC" style="stroke:#181818;stroke-width:0.5;"/><path d="M366.3223,81.7539 C366.3223,91.7539 384.3223,91.7539 384.3223,91.7539 C384.3223,91.7539 402.3223,91.7539 402.3223,81.7539" fill="none" style="stroke:#181818;stroke-width:0.5;"/></g><g class="participant participant-tail" data-participant="DB"><text fill="#000000" font-family="Segoe UI" font-size="14" lengthAdjust="spacing" textLength="76.8496" x="342.8975" y="456.5723">PostgreSQL</text><path d="M366.3223,469.5254 C366.3223,459.5254 384.3223,459.5254 384.3223,459.5254 C384.3223,459.5254 402.3223,459.5254 402.3223,469.5254 L402.3223,495.5254 C402.3223,505.5254 384.3223,505.5254 384.3223,505.5254 C384.3223,505.5254 366.3223,505.5254 366.3223,495.5254 L366.3223,469.5254" fill="#FCE4EC" style="stroke:#181818;stroke-width:0.5;"/><path d="M366.3223,469.5254 C366.3223,479.5254 384.3223,479.5254 384.3223,479.5254 C384.3223,479.5254 402.3223,479.5254 402.3223,469.5254" fill="none" style="stroke:#181818;stroke-width:0.5;"/></g><g><title>API Gateway</title><rect fill="#059669" height="225.1738" style="stroke:#A23B72;stroke-width:1;" width="10" x="133.5493" y="200.8633"/></g><g><title>svc-trip-catalog</title><rect fill="#059669" height="166.5527" style="stroke:#A23B72;stroke-width:1;" width="10" x="254.2505" y="230.1738"/></g><g><title>PostgreSQL</title><rect fill="#FCE4EC" height="29.3105" style="stroke:#A23B72;stroke-width:1;" width="10" x="379.3223" y="338.1055"/></g><path d="M189,149.2422 L189,174.2422 L329,174.2422 L329,159.2422 L319,149.2422 L189,149.2422" fill="#FEFFDD" style="stroke:#181818;stroke-width:0.5;"/><path d="M319,149.2422 L319,159.2422 L329,159.2422 L319,149.2422" fill="#FEFFDD" style="stroke:#181818;stroke-width:0.5;"/><a href="/services/api/svc-trip-catalog.html#/Trips/createTrip" target="_top" title="/services/api/svc-trip-catalog.html#/Trips/createTrip" xlink:actuate="onRequest" xlink:href="/services/api/svc-trip-catalog.html#/Trips/createTrip" xlink:show="new" xlink:title="/services/api/svc-trip-catalog.html#/Trips/createTrip" xlink:type="simple"><text fill="#0000FF" font-family="Segoe UI" font-size="13" lengthAdjust="spacing" text-decoration="underline" textLength="119.4058" x="195" y="166.8105">View in Swagger UI</text></a><g class="message" data-participant-1="Client" data-participant-2="GW"><polygon fill="#059669" points="121.5493,196.8633,131.5493,200.8633,121.5493,204.8633,125.5493,200.8633" style="stroke:#059669;stroke-width:1;"/><line style="stroke:#059669;stroke-width:1;" x1="31.7524" x2="127.5493" y1="200.8633" y2="200.8633"/><text fill="#000000" font-family="Segoe UI" font-size="13" lengthAdjust="spacing" textLength="72.1855" x="38.7524" y="196.1211">POST /trips</text></g><g class="message" data-participant-1="GW" data-participant-2="Svc"><polygon fill="#059669" points="242.2505,226.1738,252.2505,230.1738,242.2505,234.1738,246.2505,230.1738" style="stroke:#059669;stroke-width:1;"/><line style="stroke:#059669;stroke-width:1;" x1="143.5493" x2="248.2505" y1="230.1738" y2="230.1738"/><text fill="#000000" font-family="Segoe UI" font-size="13" lengthAdjust="spacing" textLength="85.1348" x="150.5493" y="225.4316">route request</text></g><path d="M269,243.1738 L269,268.1738 L427,268.1738 L427,253.1738 L417,243.1738 L269,243.1738" fill="#FEFFDD" style="stroke:#181818;stroke-width:0.5;"/><path d="M417,243.1738 L417,253.1738 L427,253.1738 L417,243.1738" fill="#FEFFDD" style="stroke:#181818;stroke-width:0.5;"/><text fill="#000000" font-family="Segoe UI" font-size="13" lengthAdjust="spacing" textLength="137.5728" x="275" y="260.7422">Validate request body</text><rect fill="#EEEEEE" height="3" style="stroke:#EEEEEE;stroke-width:1;" width="432.5728" x="0" y="294.1396"/><line style="stroke:#000000;stroke-width:1;" x1="0" x2="432.5728" y1="294.1396" y2="294.1396"/><line style="stroke:#000000;stroke-width:1;" x1="0" x2="432.5728" y1="297.1396" y2="297.1396"/><rect fill="#EEEEEE" height="23.3105" style="stroke:#000000;stroke-width:2;" width="80.3711" x="176.1008" y="283.4844"/><text fill="#000000" font-family="Segoe UI" font-size="13" font-weight="bold" lengthAdjust="spacing" textLength="62.0864" x="182.1008" y="300.0527">Database</text><g class="message" data-participant-1="Svc" data-participant-2="DB"><polygon fill="#059669" points="367.3223,334.1055,377.3223,338.1055,367.3223,342.1055,371.3223,338.1055" style="stroke:#059669;stroke-width:1;"/><line style="stroke:#059669;stroke-width:1;" x1="264.2505" x2="373.3223" y1="338.1055" y2="338.1055"/><text fill="#000000" font-family="Segoe UI" font-size="13" lengthAdjust="spacing" textLength="96.0718" x="271.2505" y="333.3633">INSERT INTO ...</text></g><g class="message" data-participant-1="DB" data-participant-2="Svc"><polygon fill="#059669" points="275.2505,363.416,265.2505,367.416,275.2505,371.416,271.2505,367.416" style="stroke:#059669;stroke-width:1;"/><line style="stroke:#059669;stroke-width:1;stroke-dasharray:2,2;" x1="269.2505" x2="383.3223" y1="367.416" y2="367.416"/><text fill="#000000" font-family="Segoe UI" font-size="13" lengthAdjust="spacing" textLength="76.4575" x="281.2505" y="362.6738">Created row</text></g><g class="message" data-participant-1="Svc" data-participant-2="GW"><polygon fill="#059669" points="154.5493,392.7266,144.5493,396.7266,154.5493,400.7266,150.5493,396.7266" style="stroke:#059669;stroke-width:1;"/><line style="stroke:#059669;stroke-width:1;stroke-dasharray:2,2;" x1="148.5493" x2="258.2505" y1="396.7266" y2="396.7266"/><text fill="#000000" font-family="Segoe UI" font-size="13" lengthAdjust="spacing" textLength="77.7969" x="160.5493" y="391.9844">201 Created</text></g><g class="message" data-participant-1="GW" data-participant-2="Client"><polygon fill="#059669" points="42.7524,422.0371,32.7524,426.0371,42.7524,430.0371,38.7524,426.0371" style="stroke:#059669;stroke-width:1;"/><line style="stroke:#059669;stroke-width:1;stroke-dasharray:2,2;" x1="36.7524" x2="137.5493" y1="426.0371" y2="426.0371"/><text fill="#000000" font-family="Segoe UI" font-size="13" lengthAdjust="spacing" textLength="77.7969" x="48.7524" y="421.2949">201 Created</text></g><a href="/microservices/svc-trip-catalog/#integration-context" target="_top" title="/microservices/svc-trip-catalog/#integration-context" xlink:actuate="onRequest" xlink:href="/microservices/svc-trip-catalog/#integration-context" xlink:show="new" xlink:title="/microservices/svc-trip-catalog/#integration-context" xlink:type="simple"><text fill="#0000FF" font-family="Segoe UI" font-size="10" lengthAdjust="spacing" text-decoration="underline" textLength="190.332" x="241.2407" y="14.668">&#11014; svc-trip-catalog Integration Context</text></a><!--SRC=[ZPFBRXen58RtVeeZMCDmIO4WKOdB3492X1QIB58MncC6AuCzjGqaYhhjq_If-YGz7WOOe9KA2op_txdzFfXN8HEgwGQMbBr6Mcrbs5Unqb0CVFSbvaIODGtLNiW8LZGsFAU4V4MtiGsKj1EwuL2OyKXnU1mLyk7y-vPBnk6307wwMgjzLghowRxHk4-lfrHRmKH2fUqf7NAT8JM_rUZsRf3hflrMS1UqKcmiLdmi9Bz8qwtLUyrQglVKsuKKL5j1fNgIRkm80jHJUQBiPLRMR2xhEUqlLjRz9lb1o9fJ38EN5syZc5Q6wvrWt7XcnqfMYwJ4gAMnYhoYa9P7cbgXP8cXiVpDmkzVF-6QXD4PXFu1N2m8iSB67AOFipbuZZVVP5zpQZbGa7mFxiuzd932XHAId6s5GZyMNDe2K0E7eskP9aaiM5h9U5ZZ8g8x7S4Gq-_fUnesV8RYeETtSOKkkEl-KtYsO__XoM9nUk0GhvRKuAfDbR6HvhClupJJe8Tsz_qxlq-8nBS0jKE_CJ- -3bOu9QU9k2bGNjjDNFJcpYsFfMQvCpm9z4j8cErf566snn4EpsK8hW0XcK6bpsxcTjvoGfaLE-UvSoFRSZmYwYPk0ou9YjhzCumzqquyueSfj8ZM5jGgYtkYiGZfEHIMAdmdfDE1mT6OJeSG1sCjzAGDeydC_ph7d_a3bClbSx6SOtWidNexR4k8FUv9o7DublSuRwrIFR9vpbdkHaKiC-YVwF2P_040]--></g></svg>