<svg xmlns="http://www.w3.org/2000/svg" xmlns:xlink="http://www.w3.org/1999/xlink" contentStyleType="text/css" data-diagram-type="SEQUENCE" height="603px" preserveAspectRatio="none" style="width:838px;height:603px;background:#FEFEFE;" version="1.1" viewBox="0 0 838 603" width="838px" zoomAndPan="magnify"><title>POST /guides/{guide_id}/certifications</title><defs/><g><rect fill="#FEFEFE" height="603" style="stroke:none;stroke-width:1;" width="838" x="0" y="0"/><text fill="#000000" font-family="Segoe UI" font-size="14" font-weight="bold" lengthAdjust="spacing" textLength="280.7383" x="274.8826" y="28.5352">POST /guides/{guide_id}/certifications</text><text fill="#000000" font-family="Segoe UI" font-size="14" font-weight="bold" lengthAdjust="spacing" textLength="210.1162" x="310.1936" y="45.0234">Add a certification to a guide</text><g><title>API Gateway</title><rect fill="#059669" height="319.1055" style="stroke:#A23B72;stroke-width:1;" width="10" x="293.5757" y="188.0859"/></g><g><title>svc-guide-management</title><rect fill="#059669" height="260.4844" style="stroke:#A23B72;stroke-width:1;" width="10" x="441.0532" y="217.3965"/></g><g><title>PostgreSQL</title><rect fill="#FCE4EC" height="29.3105" style="stroke:#A23B72;stroke-width:1;" width="10" x="647.4575" y="325.3281"/></g><g><title>PostgreSQL</title><rect fill="#FCE4EC" height="29.3105" style="stroke:#A23B72;stroke-width:1;" width="10" x="647.4575" y="419.2598"/></g><g><title>Client</title><rect fill="#000000" fill-opacity="0.00000" height="403.7266" width="8" x="27.7524" y="121.4648"/><line style="stroke:#A23B72;stroke-width:0.5;stroke-dasharray:5,5;" x1="31" x2="31" y1="121.4648" y2="525.1914"/></g><g><title>API Gateway</title><rect fill="#000000" fill-opacity="0.00000" height="403.7266" width="8" x="294.5757" y="121.4648"/><line style="stroke:#A23B72;stroke-width:0.5;stroke-dasharray:5,5;" x1="298.2866" x2="298.2866" y1="121.4648" y2="525.1914"/></g><g><title>svc-guide-management</title><rect fill="#000000" fill-opacity="0.00000" height="403.7266" width="8" x="442.0532" y="121.4648"/><line style="stroke:#A23B72;stroke-width:0.5;stroke-dasharray:5,5;" x1="445.8647" x2="445.8647" y1="121.4648" y2="525.1914"/></g><g><title>PostgreSQL</title><rect fill="#000000" fill-opacity="0.00000" height="403.7266" width="8" x="648.4575" y="121.4648"/><line style="stroke:#A23B72;stroke-width:0.5;stroke-dasharray:5,5;" x1="652.0327" x2="652.0327" y1="121.4648" y2="525.1914"/></g><g class="participant participant-head" data-participant="Client"><rect fill="#E8F4F8" height="30.4883" rx="2.5" ry="2.5" style="stroke:#2E86AB;stroke-width:0.5;" width="53.5049" x="5" y="89.9766"/><text fill="#000000" font-family="Segoe UI" font-size="14" lengthAdjust="spacing" textLength="39.5049" x="12" y="110.5117">Client</text></g><g class="participant participant-tail" data-participant="Client"><rect fill="#E8F4F8" height="30.4883" rx="2.5" ry="2.5" style="stroke:#2E86AB;stroke-width:0.5;" width="53.5049" x="5" y="524.1914"/><text fill="#000000" font-family="Segoe UI" font-size="14" lengthAdjust="spacing" textLength="39.5049" x="12" y="544.7266">Client</text></g><g class="participant participant-head" data-participant="GW"><rect fill="#DBEAFE" height="30.4883" rx="2.5" ry="2.5" style="stroke:#2E86AB;stroke-width:0.5;" width="96.5781" x="250.2866" y="89.9766"/><text fill="#000000" font-family="Segoe UI" font-size="14" lengthAdjust="spacing" textLength="82.5781" x="257.2866" y="110.5117">API Gateway</text></g><g class="participant participant-tail" data-participant="GW"><rect fill="#DBEAFE" height="30.4883" rx="2.5" ry="2.5" style="stroke:#2E86AB;stroke-width:0.5;" width="96.5781" x="250.2866" y="524.1914"/><text fill="#000000" font-family="Segoe UI" font-size="14" lengthAdjust="spacing" textLength="82.5781" x="257.2866" y="544.7266">API Gateway</text></g><g class="participant participant-head" data-participant="Svc"><a href="/microservices/svc-guide-management/" target="_top" title="/microservices/svc-guide-management/" xlink:actuate="onRequest" xlink:href="/microservices/svc-guide-management/" xlink:show="new" xlink:title="/microservices/svc-guide-management/" xlink:type="simple"><rect fill="#E8F4F8" height="30.4883" rx="2.5" ry="2.5" style="stroke:#2E86AB;stroke-width:0.5;" width="178.377" x="356.8647" y="89.9766"/><text fill="#000000" font-family="Segoe UI" font-size="14" lengthAdjust="spacing" textLength="164.377" x="363.8647" y="110.5117">svc-guide-management</text></a></g><g class="participant participant-tail" data-participant="Svc"><a href="/microservices/svc-guide-management/" target="_top" title="/microservices/svc-guide-management/" xlink:actuate="onRequest" xlink:href="/microservices/svc-guide-management/" xlink:show="new" xlink:title="/microservices/svc-guide-management/" xlink:type="simple"><rect fill="#E8F4F8" height="30.4883" rx="2.5" ry="2.5" style="stroke:#2E86AB;stroke-width:0.5;" width="178.377" x="356.8647" y="524.1914"/><text fill="#000000" font-family="Segoe UI" font-size="14" lengthAdjust="spacing" textLength="164.377" x="363.8647" y="544.7266">svc-guide-management</text></a></g><g class="participant participant-head" data-participant="DB"><text fill="#000000" font-family="Segoe UI" font-size="14" lengthAdjust="spacing" textLength="76.8496" x="611.0327" y="118.5117">PostgreSQL</text><path d="M634.4575,68.9766 C634.4575,58.9766 652.4575,58.9766 652.4575,58.9766 C652.4575,58.9766 670.4575,58.9766 670.4575,68.9766 L670.4575,94.9766 C670.4575,104.9766 652.4575,104.9766 652.4575,104.9766 C652.4575,104.9766 634.4575,104.9766 634.4575,94.9766 L634.4575,68.9766" fill="#FCE4EC" style="stroke:#181818;stroke-width:0.5;"/><path d="M634.4575,68.9766 C634.4575,78.9766 652.4575,78.9766 652.4575,78.9766 C652.4575,78.9766 670.4575,78.9766 670.4575,68.9766" fill="none" style="stroke:#181818;stroke-width:0.5;"/></g><g class="participant participant-tail" data-participant="DB"><text fill="#000000" font-family="Segoe UI" font-size="14" lengthAdjust="spacing" textLength="76.8496" x="611.0327" y="537.7266">PostgreSQL</text><path d="M634.4575,550.6797 C634.4575,540.6797 652.4575,540.6797 652.4575,540.6797 C652.4575,540.6797 670.4575,540.6797 670.4575,550.6797 L670.4575,576.6797 C670.4575,586.6797 652.4575,586.6797 652.4575,586.6797 C652.4575,586.6797 634.4575,586.6797 634.4575,576.6797 L634.4575,550.6797" fill="#FCE4EC" style="stroke:#181818;stroke-width:0.5;"/><path d="M634.4575,550.6797 C634.4575,560.6797 652.4575,560.6797 652.4575,560.6797 C652.4575,560.6797 670.4575,560.6797 670.4575,550.6797" fill="none" style="stroke:#181818;stroke-width:0.5;"/></g><g><title>API Gateway</title><rect fill="#059669" height="319.1055" style="stroke:#A23B72;stroke-width:1;" width="10" x="293.5757" y="188.0859"/></g><g><title>svc-guide-management</title><rect fill="#059669" height="260.4844" style="stroke:#A23B72;stroke-width:1;" width="10" x="441.0532" y="217.3965"/></g><g><title>PostgreSQL</title><rect fill="#FCE4EC" height="29.3105" style="stroke:#A23B72;stroke-width:1;" width="10" x="647.4575" y="325.3281"/></g><g><title>PostgreSQL</title><rect fill="#FCE4EC" height="29.3105" style="stroke:#A23B72;stroke-width:1;" width="10" x="647.4575" y="419.2598"/></g><path d="M375,136.4648 L375,161.4648 L515,161.4648 L515,146.4648 L505,136.4648 L375,136.4648" fill="#FEFFDD" style="stroke:#181818;stroke-width:0.5;"/><path d="M505,136.4648 L505,146.4648 L515,146.4648 L505,136.4648" fill="#FEFFDD" style="stroke:#181818;stroke-width:0.5;"/><a href="/services/api/svc-guide-management.html#/Certifications/addGuideCertification" target="_top" title="/services/api/svc-guide-management.html#/Certifications/addGuideCertification" xlink:actuate="onRequest" xlink:href="/services/api/svc-guide-management.html#/Certifications/addGuideCertification" xlink:show="new" xlink:title="/services/api/svc-guide-management.html#/Certifications/addGuideCertification" xlink:type="simple"><text fill="#0000FF" font-family="Segoe UI" font-size="13" lengthAdjust="spacing" text-decoration="underline" textLength="119.4058" x="381" y="154.0332">View in Swagger UI</text></a><g class="message" data-participant-1="Client" data-participant-2="GW"><polygon fill="#059669" points="281.5757,184.0859,291.5757,188.0859,281.5757,192.0859,285.5757,188.0859" style="stroke:#059669;stroke-width:1;"/><line style="stroke:#059669;stroke-width:1;" x1="31.7524" x2="287.5757" y1="188.0859" y2="188.0859"/><text fill="#000000" font-family="Segoe UI" font-size="13" lengthAdjust="spacing" textLength="242.8232" x="38.7524" y="183.3438">POST /guides/{guide_id}/certifications</text></g><g class="message" data-participant-1="GW" data-participant-2="Svc"><polygon fill="#059669" points="429.0532,213.3965,439.0532,217.3965,429.0532,221.3965,433.0532,217.3965" style="stroke:#059669;stroke-width:1;"/><line style="stroke:#059669;stroke-width:1;" x1="303.5757" x2="435.0532" y1="217.3965" y2="217.3965"/><a href="/microservices/svc-guide-management/#post-guidesguide_idcertifications-add-a-certification-to-a-guide" target="_top" title="/microservices/svc-guide-management/#post-guidesguide_idcertifications-add-a-certification-to-a-guide" xlink:actuate="onRequest" xlink:href="/microservices/svc-guide-management/#post-guidesguide_idcertifications-add-a-certification-to-a-guide" xlink:show="new" xlink:title="/microservices/svc-guide-management/#post-guidesguide_idcertifications-add-a-certification-to-a-guide" xlink:type="simple"><text fill="#0000FF" font-family="Segoe UI" font-size="13" lengthAdjust="spacing" text-decoration="underline" textLength="85.1348" x="310.5757" y="212.6543">route request</text></a></g><path d="M456,230.3965 L456,255.3965 L614,255.3965 L614,240.3965 L604,230.3965 L456,230.3965" fill="#FEFFDD" style="stroke:#181818;stroke-width:0.5;"/><path d="M604,230.3965 L604,240.3965 L614,240.3965 L604,230.3965" fill="#FEFFDD" style="stroke:#181818;stroke-width:0.5;"/><text fill="#000000" font-family="Segoe UI" font-size="13" lengthAdjust="spacing" textLength="137.5728" x="462" y="247.9648">Validate request body</text><rect fill="#EEEEEE" height="3" style="stroke:#EEEEEE;stroke-width:1;" width="831.5034" x="0" y="281.3623"/><line style="stroke:#000000;stroke-width:1;" x1="0" x2="831.5034" y1="281.3623" y2="281.3623"/><line style="stroke:#000000;stroke-width:1;" x1="0" x2="831.5034" y1="284.3623" y2="284.3623"/><rect fill="#EEEEEE" height="23.3105" style="stroke:#000000;stroke-width:2;" width="80.3711" x="375.5662" y="270.707"/><text fill="#000000" font-family="Segoe UI" font-size="13" font-weight="bold" lengthAdjust="spacing" textLength="62.0864" x="381.5662" y="287.2754">Database</text><g class="message" data-participant-1="Svc" data-participant-2="DB"><polygon fill="#059669" points="635.4575,321.3281,645.4575,325.3281,635.4575,329.3281,639.4575,325.3281" style="stroke:#059669;stroke-width:1;"/><line style="stroke:#059669;stroke-width:1;" x1="451.0532" x2="641.4575" y1="325.3281" y2="325.3281"/><text fill="#000000" font-family="Segoe UI" font-size="13" lengthAdjust="spacing" textLength="177.4043" x="458.0532" y="320.5859">SELECT parent WHERE id = ?</text></g><g class="message" data-participant-1="DB" data-participant-2="Svc"><polygon fill="#059669" points="462.0532,350.6387,452.0532,354.6387,462.0532,358.6387,458.0532,354.6387" style="stroke:#059669;stroke-width:1;"/><line style="stroke:#059669;stroke-width:1;stroke-dasharray:2,2;" x1="456.0532" x2="651.4575" y1="354.6387" y2="354.6387"/><text fill="#000000" font-family="Segoe UI" font-size="13" lengthAdjust="spacing" textLength="67.2915" x="468.0532" y="349.8965">Parent row</text></g><path d="M657,367.6387 L657,392.6387 L826,392.6387 L826,377.6387 L816,367.6387 L657,367.6387" fill="#FEFFDD" style="stroke:#181818;stroke-width:0.5;"/><path d="M816,367.6387 L816,377.6387 L826,377.6387 L816,367.6387" fill="#FEFFDD" style="stroke:#181818;stroke-width:0.5;"/><text fill="#000000" font-family="Segoe UI" font-size="13" lengthAdjust="spacing" textLength="148.5034" x="663" y="385.207">404 if parent not found</text><g class="message" data-participant-1="Svc" data-participant-2="DB"><polygon fill="#059669" points="635.4575,415.2598,645.4575,419.2598,635.4575,423.2598,639.4575,419.2598" style="stroke:#059669;stroke-width:1;"/><line style="stroke:#059669;stroke-width:1;" x1="451.0532" x2="641.4575" y1="419.2598" y2="419.2598"/><text fill="#000000" font-family="Segoe UI" font-size="13" lengthAdjust="spacing" textLength="96.0718" x="458.0532" y="414.5176">INSERT INTO ...</text></g><g class="message" data-participant-1="DB" data-participant-2="Svc"><polygon fill="#059669" points="462.0532,444.5703,452.0532,448.5703,462.0532,452.5703,458.0532,448.5703" style="stroke:#059669;stroke-width:1;"/><line style="stroke:#059669;stroke-width:1;stroke-dasharray:2,2;" x1="456.0532" x2="651.4575" y1="448.5703" y2="448.5703"/><text fill="#000000" font-family="Segoe UI" font-size="13" lengthAdjust="spacing" textLength="76.4575" x="468.0532" y="443.8281">Created row</text></g><g class="message" data-participant-1="Svc" data-participant-2="GW"><polygon fill="#059669" points="314.5757,473.8809,304.5757,477.8809,314.5757,481.8809,310.5757,477.8809" style="stroke:#059669;stroke-width:1;"/><line style="stroke:#059669;stroke-width:1;stroke-dasharray:2,2;" x1="308.5757" x2="445.0532" y1="477.8809" y2="477.8809"/><text fill="#000000" font-family="Segoe UI" font-size="13" lengthAdjust="spacing" textLength="77.7969" x="320.5757" y="473.1387">201 Created</text></g><g class="message" data-participant-1="GW" data-participant-2="Client"><polygon fill="#059669" points="42.7524,503.1914,32.7524,507.1914,42.7524,511.1914,38.7524,507.1914" style="stroke:#059669;stroke-width:1;"/><line style="stroke:#059669;stroke-width:1;stroke-dasharray:2,2;" x1="36.7524" x2="297.5757" y1="507.1914" y2="507.1914"/><text fill="#000000" font-family="Segoe UI" font-size="13" lengthAdjust="spacing" textLength="77.7969" x="48.7524" y="502.4492">201 Created</text></g><!--SRC=[ZLDHRzem47xthpZ1SmYbhD1AR88qOKYePGrj7peqcTX9hGQRsGPMLVtlEmT2ISkq9W-sxZxVz_cxitaISaarNS2S9a-PLYl90fKh3VKeT3ynUuHvf4njXCmWfRdX1nd6KxhARQIalQ8B3hMOPuh3xQXsU9p_Nd6PS7WXW5zVQxNPKJM_d9-TdHVX2TLM9699fHqepRZUGLfXzwm_-01vBphiHkseMy368kLZ8NcbJBzrEkYqYln0_QcaefDkr3pPfpxO4KMOBz9NobQh9ftE_FGWTyJAqx13NWcnmkOS9jVn5Fni9HWt_akn_XBirKyutYmL2RL2IVDJzXa32fKeM8MXuWWXopSde1RaWajR0sfWkwsc-vCH3Adb6_fSO8RtKBySX7riSGLdrebNbFSMLDACBygYyJg1XmT_8HAj3DThaQ3uOsX_DjitWb5BvzJWI4oKiPdcyOznKUroWBO4OJiC297e6QWrruu3NKIMFG5TYgCaZKUxoEj-K77CfumD7R0IXZl1Do0an1kQPSXoEvhD29SC734XMxV0- -eykVXaSmXDh5YZduMHkm76BLPnHbryqghw4ctPXar9LINoy4uUzIf1poeC5NZ0EKCHsZqkO_5UUrrEHYbiQx4MsQC5bUuKtj5SCFfs6EQAFHFIwy5bsRLUZn07nbjXmouW3iTXC0KS6EVO_VVm9WJ1e0VVtdWFEejRRs_8P7i8NprX_03zJbl1qswsGQGb3m8WTS-fAcPq5OStKrocrz1eDFwl8D0Sq-o8X6tTSW9QpPCIUuXpm-awZB3ToFmJEhmdVm40]--></g></svg>