<svg xmlns="http://www.w3.org/2000/svg" xmlns:xlink="http://www.w3.org/1999/xlink" contentStyleType="text/css" data-diagram-type="SEQUENCE" height="705px" preserveAspectRatio="none" style="width:926px;height:705px;background:#FEFEFE;" version="1.1" viewBox="0 0 926 705" width="926px" zoomAndPan="magnify"><title>POST /reservations/{reservation_id}/participants</title><defs/><g><rect fill="#FEFEFE" height="705" style="stroke:none;stroke-width:1;" width="926" x="0" y="0"/><text fill="#000000" font-family="Segoe UI" font-size="14" font-weight="bold" lengthAdjust="spacing" textLength="355.5439" x="281.4797" y="28.5352">POST /reservations/{reservation_id}/participants</text><text fill="#000000" font-family="Segoe UI" font-size="14" font-weight="bold" lengthAdjust="spacing" textLength="243.4346" x="337.5344" y="45.0234">Add a participant to a reservation</text><g><title>API Gateway</title><rect fill="#059669" height="421.0371" style="stroke:#A23B72;stroke-width:1;" width="10" x="356.646" y="188.0859"/></g><g><title>svc-reservations</title><rect fill="#059669" height="362.416" style="stroke:#A23B72;stroke-width:1;" width="10" x="478.2017" y="217.3965"/></g><g><title>Guest Profiles</title><rect fill="#DBEAFE" height="29.3105" style="stroke:#A23B72;stroke-width:1;" width="10" x="629.9844" y="325.3281"/></g><g><title>PostgreSQL</title><rect fill="#FCE4EC" height="29.3105" style="stroke:#A23B72;stroke-width:1;" width="10" x="735.2354" y="427.2598"/></g><g><title>PostgreSQL</title><rect fill="#FCE4EC" height="29.3105" style="stroke:#A23B72;stroke-width:1;" width="10" x="735.2354" y="521.1914"/></g><g><title>Client</title><rect fill="#000000" fill-opacity="0.00000" height="505.6582" width="8" x="27.7524" y="121.4648"/><line style="stroke:#A23B72;stroke-width:0.5;stroke-dasharray:5,5;" x1="31" x2="31" y1="121.4648" y2="627.123"/></g><g><title>API Gateway</title><rect fill="#000000" fill-opacity="0.00000" height="505.6582" width="8" x="357.646" y="121.4648"/><line style="stroke:#A23B72;stroke-width:0.5;stroke-dasharray:5,5;" x1="361.3569" x2="361.3569" y1="121.4648" y2="627.123"/></g><g><title>svc-reservations</title><rect fill="#000000" fill-opacity="0.00000" height="505.6582" width="8" x="479.2017" y="121.4648"/><line style="stroke:#A23B72;stroke-width:0.5;stroke-dasharray:5,5;" x1="482.9351" x2="482.9351" y1="121.4648" y2="627.123"/></g><g><title>Guest Profiles</title><rect fill="#000000" fill-opacity="0.00000" height="505.6582" width="8" x="630.9844" y="121.4648"/><line style="stroke:#A23B72;stroke-width:0.5;stroke-dasharray:5,5;" x1="634.1582" x2="634.1582" y1="121.4648" y2="627.123"/></g><g><title>PostgreSQL</title><rect fill="#000000" fill-opacity="0.00000" height="505.6582" width="8" x="736.2354" y="121.4648"/><line style="stroke:#A23B72;stroke-width:0.5;stroke-dasharray:5,5;" x1="739.8105" x2="739.8105" y1="121.4648" y2="627.123"/></g><g class="participant participant-head" data-participant="Client"><rect fill="#E8F4F8" height="30.4883" rx="2.5" ry="2.5" style="stroke:#2E86AB;stroke-width:0.5;" width="53.5049" x="5" y="89.9766"/><text fill="#000000" font-family="Segoe UI" font-size="14" lengthAdjust="spacing" textLength="39.5049" x="12" y="110.5117">Client</text></g><g class="participant participant-tail" data-participant="Client"><rect fill="#E8F4F8" height="30.4883" rx="2.5" ry="2.5" style="stroke:#2E86AB;stroke-width:0.5;" width="53.5049" x="5" y="626.123"/><text fill="#000000" font-family="Segoe UI" font-size="14" lengthAdjust="spacing" textLength="39.5049" x="12" y="646.6582">Client</text></g><g class="participant participant-head" data-participant="GW"><rect fill="#DBEAFE" height="30.4883" rx="2.5" ry="2.5" style="stroke:#2E86AB;stroke-width:0.5;" width="96.5781" x="313.3569" y="89.9766"/><text fill="#000000" font-family="Segoe UI" font-size="14" lengthAdjust="spacing" textLength="82.5781" x="320.3569" y="110.5117">API Gateway</text></g><g class="participant participant-tail" data-participant="GW"><rect fill="#DBEAFE" height="30.4883" rx="2.5" ry="2.5" style="stroke:#2E86AB;stroke-width:0.5;" width="96.5781" x="313.3569" y="626.123"/><text fill="#000000" font-family="Segoe UI" font-size="14" lengthAdjust="spacing" textLength="82.5781" x="320.3569" y="646.6582">API Gateway</text></g><g class="participant participant-head" data-participant="Svc"><a href="/microservices/svc-reservations/" target="_top" title="/microservices/svc-reservations/" xlink:actuate="onRequest" xlink:href="/microservices/svc-reservations/" xlink:show="new" xlink:title="/microservices/svc-reservations/" xlink:type="simple"><rect fill="#E8F4F8" height="30.4883" rx="2.5" ry="2.5" style="stroke:#2E86AB;stroke-width:0.5;" width="126.5332" x="419.9351" y="89.9766"/><text fill="#000000" font-family="Segoe UI" font-size="14" lengthAdjust="spacing" textLength="112.5332" x="426.9351" y="110.5117">svc-reservations</text></a></g><g class="participant participant-tail" data-participant="Svc"><a href="/microservices/svc-reservations/" target="_top" title="/microservices/svc-reservations/" xlink:actuate="onRequest" xlink:href="/microservices/svc-reservations/" xlink:show="new" xlink:title="/microservices/svc-reservations/" xlink:type="simple"><rect fill="#E8F4F8" height="30.4883" rx="2.5" ry="2.5" style="stroke:#2E86AB;stroke-width:0.5;" width="126.5332" x="419.9351" y="626.123"/><text fill="#000000" font-family="Segoe UI" font-size="14" lengthAdjust="spacing" textLength="112.5332" x="426.9351" y="646.6582">svc-reservations</text></a></g><g class="participant participant-head" data-participant="GP"><a href="/microservices/svc-guest-profiles/" target="_top" title="/microservices/svc-guest-profiles/" xlink:actuate="onRequest" xlink:href="/microservices/svc-guest-profiles/" xlink:show="new" xlink:title="/microservices/svc-guest-profiles/" xlink:type="simple"><rect fill="#FFF8F0" height="30.4883" rx="2.5" ry="2.5" style="stroke:#2E86AB;stroke-width:0.5;" width="107.6523" x="581.1582" y="89.9766"/><text fill="#000000" font-family="Segoe UI" font-size="14" lengthAdjust="spacing" textLength="93.6523" x="588.1582" y="110.5117">Guest Profiles</text></a></g><g class="participant participant-tail" data-participant="GP"><a href="/microservices/svc-guest-profiles/" target="_top" title="/microservices/svc-guest-profiles/" xlink:actuate="onRequest" xlink:href="/microservices/svc-guest-profiles/" xlink:show="new" xlink:title="/microservices/svc-guest-profiles/" xlink:type="simple"><rect fill="#FFF8F0" height="30.4883" rx="2.5" ry="2.5" style="stroke:#2E86AB;stroke-width:0.5;" width="107.6523" x="581.1582" y="626.123"/><text fill="#000000" font-family="Segoe UI" font-size="14" lengthAdjust="spacing" textLength="93.6523" x="588.1582" y="646.6582">Guest Profiles</text></a></g><g class="participant participant-head" data-participant="DB"><text fill="#000000" font-family="Segoe UI" font-size="14" lengthAdjust="spacing" textLength="76.8496" x="698.8105" y="118.5117">PostgreSQL</text><path d="M722.2354,68.9766 C722.2354,58.9766 740.2354,58.9766 740.2354,58.9766 C740.2354,58.9766 758.2354,58.9766 758.2354,68.9766 L758.2354,94.9766 C758.2354,104.9766 740.2354,104.9766 740.2354,104.9766 C740.2354,104.9766 722.2354,104.9766 722.2354,94.9766 L722.2354,68.9766" fill="#FCE4EC" style="stroke:#181818;stroke-width:0.5;"/><path d="M722.2354,68.9766 C722.2354,78.9766 740.2354,78.9766 740.2354,78.9766 C740.2354,78.9766 758.2354,78.9766 758.2354,68.9766" fill="none" style="stroke:#181818;stroke-width:0.5;"/></g><g class="participant participant-tail" data-participant="DB"><text fill="#000000" font-family="Segoe UI" font-size="14" lengthAdjust="spacing" textLength="76.8496" x="698.8105" y="639.6582">PostgreSQL</text><path d="M722.2354,652.6113 C722.2354,642.6113 740.2354,642.6113 740.2354,642.6113 C740.2354,642.6113 758.2354,642.6113 758.2354,652.6113 L758.2354,678.6113 C758.2354,688.6113 740.2354,688.6113 740.2354,688.6113 C740.2354,688.6113 722.2354,688.6113 722.2354,678.6113 L722.2354,652.6113" fill="#FCE4EC" style="stroke:#181818;stroke-width:0.5;"/><path d="M722.2354,652.6113 C722.2354,662.6113 740.2354,662.6113 740.2354,662.6113 C740.2354,662.6113 758.2354,662.6113 758.2354,652.6113" fill="none" style="stroke:#181818;stroke-width:0.5;"/></g><g><title>API Gateway</title><rect fill="#059669" height="421.0371" style="stroke:#A23B72;stroke-width:1;" width="10" x="356.646" y="188.0859"/></g><g><title>svc-reservations</title><rect fill="#059669" height="362.416" style="stroke:#A23B72;stroke-width:1;" width="10" x="478.2017" y="217.3965"/></g><g><title>Guest Profiles</title><rect fill="#DBEAFE" height="29.3105" style="stroke:#A23B72;stroke-width:1;" width="10" x="629.9844" y="325.3281"/></g><g><title>PostgreSQL</title><rect fill="#FCE4EC" height="29.3105" style="stroke:#A23B72;stroke-width:1;" width="10" x="735.2354" y="427.2598"/></g><g><title>PostgreSQL</title><rect fill="#FCE4EC" height="29.3105" style="stroke:#A23B72;stroke-width:1;" width="10" x="735.2354" y="521.1914"/></g><path d="M412,136.4648 L412,161.4648 L552,161.4648 L552,146.4648 L542,136.4648 L412,136.4648" fill="#FEFFDD" style="stroke:#181818;stroke-width:0.5;"/><path d="M542,136.4648 L542,146.4648 L552,146.4648 L542,136.4648" fill="#FEFFDD" style="stroke:#181818;stroke-width:0.5;"/><a href="/services/api/svc-reservations.html#/Reservations/addParticipant" target="_top" title="/services/api/svc-reservations.html#/Reservations/addParticipant" xlink:actuate="onRequest" xlink:href="/services/api/svc-reservations.html#/Reservations/addParticipant" xlink:show="new" xlink:title="/services/api/svc-reservations.html#/Reservations/addParticipant" xlink:type="simple"><text fill="#0000FF" font-family="Segoe UI" font-size="13" lengthAdjust="spacing" text-decoration="underline" textLength="119.4058" x="418" y="154.0332">View in Swagger UI</text></a><g class="message" data-participant-1="Client" data-participant-2="GW"><polygon fill="#059669" points="344.646,184.0859,354.646,188.0859,344.646,192.0859,348.646,188.0859" style="stroke:#059669;stroke-width:1;"/><line style="stroke:#059669;stroke-width:1;" x1="31.7524" x2="350.646" y1="188.0859" y2="188.0859"/><text fill="#000000" font-family="Segoe UI" font-size="13" lengthAdjust="spacing" textLength="305.8936" x="38.7524" y="183.3438">POST /reservations/{reservation_id}/participants</text></g><g class="message" data-participant-1="GW" data-participant-2="Svc"><polygon fill="#059669" points="466.2017,213.3965,476.2017,217.3965,466.2017,221.3965,470.2017,217.3965" style="stroke:#059669;stroke-width:1;"/><line style="stroke:#059669;stroke-width:1;" x1="366.646" x2="472.2017" y1="217.3965" y2="217.3965"/><text fill="#000000" font-family="Segoe UI" font-size="13" lengthAdjust="spacing" textLength="85.1348" x="373.646" y="212.6543">route request</text></g><path d="M493,230.3965 L493,255.3965 L651,255.3965 L651,240.3965 L641,230.3965 L493,230.3965" fill="#FEFFDD" style="stroke:#181818;stroke-width:0.5;"/><path d="M641,230.3965 L641,240.3965 L651,240.3965 L641,230.3965" fill="#FEFFDD" style="stroke:#181818;stroke-width:0.5;"/><text fill="#000000" font-family="Segoe UI" font-size="13" lengthAdjust="spacing" textLength="137.5728" x="499" y="247.9648">Validate request body</text><rect fill="#EEEEEE" height="3" style="stroke:#EEEEEE;stroke-width:1;" width="919.5034" x="0" y="281.3623"/><line style="stroke:#000000;stroke-width:1;" x1="0" x2="919.5034" y1="281.3623" y2="281.3623"/><line style="stroke:#000000;stroke-width:1;" x1="0" x2="919.5034" y1="284.3623" y2="284.3623"/><rect fill="#EEEEEE" height="23.3105" style="stroke:#000000;stroke-width:2;" width="190.6743" x="364.4146" y="270.707"/><text fill="#000000" font-family="Segoe UI" font-size="13" font-weight="bold" lengthAdjust="spacing" textLength="172.3896" x="370.4146" y="287.2754">Cross-Service Integration</text><g class="message" data-participant-1="Svc" data-participant-2="GP"><polygon fill="#059669" points="617.9844,321.3281,627.9844,325.3281,617.9844,329.3281,621.9844,325.3281" style="stroke:#059669;stroke-width:1;"/><line style="stroke:#059669;stroke-width:1;" x1="488.2017" x2="623.9844" y1="325.3281" y2="325.3281"/><a href="/microservices/svc-guest-profiles/" target="_top" title="/microservices/svc-guest-profiles/" xlink:actuate="onRequest" xlink:href="/microservices/svc-guest-profiles/" xlink:show="new" xlink:title="/microservices/svc-guest-profiles/" xlink:type="simple"><text fill="#0000FF" font-family="Segoe UI" font-size="13" lengthAdjust="spacing" text-decoration="underline" textLength="122.7827" x="495.2017" y="320.5859">Validate participant</text></a></g><g class="message" data-participant-1="GP" data-participant-2="Svc"><polygon fill="#059669" points="499.2017,350.6387,489.2017,354.6387,499.2017,358.6387,495.2017,354.6387" style="stroke:#059669;stroke-width:1;"/><line style="stroke:#059669;stroke-width:1;stroke-dasharray:2,2;" x1="493.2017" x2="633.9844" y1="354.6387" y2="354.6387"/><text fill="#000000" font-family="Segoe UI" font-size="13" lengthAdjust="spacing" textLength="18.5859" x="505.2017" y="349.8965">OK</text></g><rect fill="#EEEEEE" height="3" style="stroke:#EEEEEE;stroke-width:1;" width="919.5034" x="0" y="383.2939"/><line style="stroke:#000000;stroke-width:1;" x1="0" x2="919.5034" y1="383.2939" y2="383.2939"/><line style="stroke:#000000;stroke-width:1;" x1="0" x2="919.5034" y1="386.2939" y2="386.2939"/><rect fill="#EEEEEE" height="23.3105" style="stroke:#000000;stroke-width:2;" width="80.3711" x="419.5662" y="372.6387"/><text fill="#000000" font-family="Segoe UI" font-size="13" font-weight="bold" lengthAdjust="spacing" textLength="62.0864" x="425.5662" y="389.207">Database</text><g class="message" data-participant-1="Svc" data-participant-2="DB"><polygon fill="#059669" points="723.2354,423.2598,733.2354,427.2598,723.2354,431.2598,727.2354,427.2598" style="stroke:#059669;stroke-width:1;"/><line style="stroke:#059669;stroke-width:1;" x1="488.2017" x2="729.2354" y1="427.2598" y2="427.2598"/><text fill="#000000" font-family="Segoe UI" font-size="13" lengthAdjust="spacing" textLength="177.4043" x="495.2017" y="422.5176">SELECT parent WHERE id = ?</text></g><g class="message" data-participant-1="DB" data-participant-2="Svc"><polygon fill="#059669" points="499.2017,452.5703,489.2017,456.5703,499.2017,460.5703,495.2017,456.5703" style="stroke:#059669;stroke-width:1;"/><line style="stroke:#059669;stroke-width:1;stroke-dasharray:2,2;" x1="493.2017" x2="739.2354" y1="456.5703" y2="456.5703"/><text fill="#000000" font-family="Segoe UI" font-size="13" lengthAdjust="spacing" textLength="67.2915" x="505.2017" y="451.8281">Parent row</text></g><path d="M745,469.5703 L745,494.5703 L914,494.5703 L914,479.5703 L904,469.5703 L745,469.5703" fill="#FEFFDD" style="stroke:#181818;stroke-width:0.5;"/><path d="M904,469.5703 L904,479.5703 L914,479.5703 L904,469.5703" fill="#FEFFDD" style="stroke:#181818;stroke-width:0.5;"/><text fill="#000000" font-family="Segoe UI" font-size="13" lengthAdjust="spacing" textLength="148.5034" x="751" y="487.1387">404 if parent not found</text><g class="message" data-participant-1="Svc" data-participant-2="DB"><polygon fill="#059669" points="723.2354,517.1914,733.2354,521.1914,723.2354,525.1914,727.2354,521.1914" style="stroke:#059669;stroke-width:1;"/><line style="stroke:#059669;stroke-width:1;" x1="488.2017" x2="729.2354" y1="521.1914" y2="521.1914"/><text fill="#000000" font-family="Segoe UI" font-size="13" lengthAdjust="spacing" textLength="96.0718" x="495.2017" y="516.4492">INSERT INTO ...</text></g><g class="message" data-participant-1="DB" data-participant-2="Svc"><polygon fill="#059669" points="499.2017,546.502,489.2017,550.502,499.2017,554.502,495.2017,550.502" style="stroke:#059669;stroke-width:1;"/><line style="stroke:#059669;stroke-width:1;stroke-dasharray:2,2;" x1="493.2017" x2="739.2354" y1="550.502" y2="550.502"/><text fill="#000000" font-family="Segoe UI" font-size="13" lengthAdjust="spacing" textLength="76.4575" x="505.2017" y="545.7598">Created row</text></g><g class="message" data-participant-1="Svc" data-participant-2="GW"><polygon fill="#059669" points="377.646,575.8125,367.646,579.8125,377.646,583.8125,373.646,579.8125" style="stroke:#059669;stroke-width:1;"/><line style="stroke:#059669;stroke-width:1;stroke-dasharray:2,2;" x1="371.646" x2="482.2017" y1="579.8125" y2="579.8125"/><text fill="#000000" font-family="Segoe UI" font-size="13" lengthAdjust="spacing" textLength="77.7969" x="383.646" y="575.0703">201 Created</text></g><g class="message" data-participant-1="GW" data-participant-2="Client"><polygon fill="#059669" points="42.7524,605.123,32.7524,609.123,42.7524,613.123,38.7524,609.123" style="stroke:#059669;stroke-width:1;"/><line style="stroke:#059669;stroke-width:1;stroke-dasharray:2,2;" x1="36.7524" x2="360.646" y1="609.123" y2="609.123"/><text fill="#000000" font-family="Segoe UI" font-size="13" lengthAdjust="spacing" textLength="77.7969" x="48.7524" y="604.3809">201 Created</text></g><!--SRC=[bLHHRzem47xthpZHPmYbhD1AR28XOMYepHhQFdHeCh6JMWinimsiglhVPoU1E6sdRV20oVVTTtVVdID_i7o31Lx32iS_Ki6tEV5unWMS1Bxv8dbao4TC-9xbAIGuazH224tmDbC1pzKLNbDeHJJb56vdBJkS_jpIFARmZ41_naBmVPMg- -7Y_FoYU1nYeLZCDZXNBXU4YehIyuVdO_SDvNNH_Z3e1yE2DcS9dRESDcJ6lJDtq2jmb_zgGC7fCEYU7g4tTWI1nWluYgkcQZmOhCuix1qhp_m1Ua58CPLH2A-Z1JY2IYfsM36UI-VP-lUTaHTdKtSfl-LZGW23zGmKrm-i88HijELbZEQg1LX2UMp2ut06Kwpe7ZyLdEazd4nSVwm7tk39NToswop8qIw6XmTdpMB13SHYAftNJ6UvF8wZ8JdTKgaW53nX6Iq5f-7xUgcXjZSLjL2ina2mmYiizQg5NAfKqEZhl92Qk9hZ-NtVGoZNim2-ey9KhAUZSnpbyOQzARdpgDRPYNDZTu49iVODxXZT0yiXskCqrSAti-KIqPo0oOLGQJMqFnf3B_zxpWZ7YccC5lEeReK-QZtZ-INefTAWC3T9gffjm0Ezx5gmz541JwguEvmnWkjGM77oXD1e19wsNBQZqXQOvOgceYWEHYE4JBHf9jGQ_pAXEf7LbdQexYiyxfa-je-DNNz1X5giehR9OSXMANg-bn3vSzzRc1p6xVlF_eqFZC08FjMPh4NGnpfJM0Rfbu-TSUA-ygt8q-_sWIM7F9e0YRdLpM9cLv5_iz0_YsleT3f_hy0JLCFadH9AtSFszBgd1wxDCxjiTaBJgdNx8tLwZtu3]--></g></svg>