<svg xmlns="http://www.w3.org/2000/svg" xmlns:xlink="http://www.w3.org/1999/xlink" contentStyleType="text/css" data-diagram-type="SEQUENCE" height="670px" preserveAspectRatio="none" style="width:733px;height:670px;background:#FEFEFE;" version="1.1" viewBox="0 0 733 670" width="733px" zoomAndPan="magnify"><title>POST /media</title><defs/><g><rect fill="#FEFEFE" height="670" style="stroke:none;stroke-width:1;" width="733" x="0" y="0"/><text fill="#000000" font-family="Segoe UI" font-size="14" font-weight="bold" lengthAdjust="spacing" textLength="94.1377" x="315.873" y="28.5352">POST /media</text><text fill="#000000" font-family="Segoe UI" font-size="14" font-weight="bold" lengthAdjust="spacing" textLength="148.5039" x="288.6899" y="45.0234">Upload a media item</text><g><title>API Gateway</title><rect fill="#059669" height="385.7266" style="stroke:#A23B72;stroke-width:1;" width="10" x="133.5493" y="188.0859"/></g><g><title>svc-media-gallery</title><rect fill="#059669" height="327.1055" style="stroke:#A23B72;stroke-width:1;" width="10" x="261.1445" y="217.3965"/></g><g><title>Object Store</title><rect fill="#DBEAFE" height="29.3105" style="stroke:#A23B72;stroke-width:1;" width="10" x="401.5015" y="325.3281"/></g><g><title>Google Maps Platform</title><rect fill="#DBEAFE" height="29.3105" style="stroke:#A23B72;stroke-width:1;" width="10" x="542.1396" y="383.9492"/></g><g><title>PostgreSQL</title><rect fill="#FCE4EC" height="29.3105" style="stroke:#A23B72;stroke-width:1;" width="10" x="675.459" y="485.8809"/></g><g><title>Client</title><rect fill="#000000" fill-opacity="0.00000" height="470.3477" width="8" x="27.7524" y="121.4648"/><line style="stroke:#A23B72;stroke-width:0.5;stroke-dasharray:5,5;" x1="31" x2="31" y1="121.4648" y2="591.8125"/></g><g><title>API Gateway</title><rect fill="#000000" fill-opacity="0.00000" height="470.3477" width="8" x="134.5493" y="121.4648"/><line style="stroke:#A23B72;stroke-width:0.5;stroke-dasharray:5,5;" x1="138.2603" x2="138.2603" y1="121.4648" y2="591.8125"/></g><g><title>svc-media-gallery</title><rect fill="#000000" fill-opacity="0.00000" height="470.3477" width="8" x="262.1445" y="121.4648"/><line style="stroke:#A23B72;stroke-width:0.5;stroke-dasharray:5,5;" x1="265.8384" x2="265.8384" y1="121.4648" y2="591.8125"/></g><g><title>Object Store</title><rect fill="#000000" fill-opacity="0.00000" height="470.3477" width="8" x="402.5015" y="121.4648"/><line style="stroke:#A23B72;stroke-width:0.5;stroke-dasharray:5,5;" x1="405.7578" x2="405.7578" y1="121.4648" y2="591.8125"/></g><g><title>Google Maps Platform</title><rect fill="#000000" fill-opacity="0.00000" height="470.3477" width="8" x="543.1396" y="121.4648"/><line style="stroke:#A23B72;stroke-width:0.5;stroke-dasharray:5,5;" x1="546.2451" x2="546.2451" y1="121.4648" y2="591.8125"/></g><g><title>PostgreSQL</title><rect fill="#000000" fill-opacity="0.00000" height="470.3477" width="8" x="676.459" y="121.4648"/><line style="stroke:#A23B72;stroke-width:0.5;stroke-dasharray:5,5;" x1="680.0342" x2="680.0342" y1="121.4648" y2="591.8125"/></g><g class="participant participant-head" data-participant="Client"><rect fill="#E8F4F8" height="30.4883" rx="2.5" ry="2.5" style="stroke:#2E86AB;stroke-width:0.5;" width="53.5049" x="5" y="89.9766"/><text fill="#000000" font-family="Segoe UI" font-size="14" lengthAdjust="spacing" textLength="39.5049" x="12" y="110.5117">Client</text></g><g class="participant participant-tail" data-participant="Client"><rect fill="#E8F4F8" height="30.4883" rx="2.5" ry="2.5" style="stroke:#2E86AB;stroke-width:0.5;" width="53.5049" x="5" y="590.8125"/><text fill="#000000" font-family="Segoe UI" font-size="14" lengthAdjust="spacing" textLength="39.5049" x="12" y="611.3477">Client</text></g><g class="participant participant-head" data-participant="GW"><rect fill="#DBEAFE" height="30.4883" rx="2.5" ry="2.5" style="stroke:#2E86AB;stroke-width:0.5;" width="96.5781" x="90.2603" y="89.9766"/><text fill="#000000" font-family="Segoe UI" font-size="14" lengthAdjust="spacing" textLength="82.5781" x="97.2603" y="110.5117">API Gateway</text></g><g class="participant participant-tail" data-participant="GW"><rect fill="#DBEAFE" height="30.4883" rx="2.5" ry="2.5" style="stroke:#2E86AB;stroke-width:0.5;" width="96.5781" x="90.2603" y="590.8125"/><text fill="#000000" font-family="Segoe UI" font-size="14" lengthAdjust="spacing" textLength="82.5781" x="97.2603" y="611.3477">API Gateway</text></g><g class="participant participant-head" data-participant="Svc"><a href="/microservices/svc-media-gallery/" target="_top" title="/microservices/svc-media-gallery/" xlink:actuate="onRequest" xlink:href="/microservices/svc-media-gallery/" xlink:show="new" xlink:title="/microservices/svc-media-gallery/" xlink:type="simple"><rect fill="#E8F4F8" height="30.4883" rx="2.5" ry="2.5" style="stroke:#2E86AB;stroke-width:0.5;" width="138.6123" x="196.8384" y="89.9766"/><text fill="#000000" font-family="Segoe UI" font-size="14" lengthAdjust="spacing" textLength="124.6123" x="203.8384" y="110.5117">svc-media-gallery</text></a></g><g class="participant participant-tail" data-participant="Svc"><a href="/microservices/svc-media-gallery/" target="_top" title="/microservices/svc-media-gallery/" xlink:actuate="onRequest" xlink:href="/microservices/svc-media-gallery/" xlink:show="new" xlink:title="/microservices/svc-media-gallery/" xlink:type="simple"><rect fill="#E8F4F8" height="30.4883" rx="2.5" ry="2.5" style="stroke:#2E86AB;stroke-width:0.5;" width="138.6123" x="196.8384" y="590.8125"/><text fill="#000000" font-family="Segoe UI" font-size="14" lengthAdjust="spacing" textLength="124.6123" x="203.8384" y="611.3477">svc-media-gallery</text></a></g><g class="participant participant-head" data-participant="S3"><rect fill="#F5F5F5" height="30.4883" rx="2.5" ry="2.5" style="stroke:#2E86AB;stroke-width:0.5;" width="97.4873" x="357.7578" y="89.9766"/><text fill="#000000" font-family="Segoe UI" font-size="14" lengthAdjust="spacing" textLength="83.4873" x="364.7578" y="110.5117">Object Store</text></g><g class="participant participant-tail" data-participant="S3"><rect fill="#F5F5F5" height="30.4883" rx="2.5" ry="2.5" style="stroke:#2E86AB;stroke-width:0.5;" width="97.4873" x="357.7578" y="590.8125"/><text fill="#000000" font-family="Segoe UI" font-size="14" lengthAdjust="spacing" textLength="83.4873" x="364.7578" y="611.3477">Object Store</text></g><g class="participant participant-head" data-participant="ExtMap"><rect fill="#F5F5F5" height="30.4883" rx="2.5" ry="2.5" style="stroke:#2E86AB;stroke-width:0.5;" width="163.7891" x="465.2451" y="89.9766"/><text fill="#000000" font-family="Segoe UI" font-size="14" lengthAdjust="spacing" textLength="149.7891" x="472.2451" y="110.5117">Google Maps Platform</text></g><g class="participant participant-tail" data-participant="ExtMap"><rect fill="#F5F5F5" height="30.4883" rx="2.5" ry="2.5" style="stroke:#2E86AB;stroke-width:0.5;" width="163.7891" x="465.2451" y="590.8125"/><text fill="#000000" font-family="Segoe UI" font-size="14" lengthAdjust="spacing" textLength="149.7891" x="472.2451" y="611.3477">Google Maps Platform</text></g><g class="participant participant-head" data-participant="DB"><text fill="#000000" font-family="Segoe UI" font-size="14" lengthAdjust="spacing" textLength="76.8496" x="639.0342" y="118.5117">PostgreSQL</text><path d="M662.459,68.9766 C662.459,58.9766 680.459,58.9766 680.459,58.9766 C680.459,58.9766 698.459,58.9766 698.459,68.9766 L698.459,94.9766 C698.459,104.9766 680.459,104.9766 680.459,104.9766 C680.459,104.9766 662.459,104.9766 662.459,94.9766 L662.459,68.9766" fill="#FCE4EC" style="stroke:#181818;stroke-width:0.5;"/><path d="M662.459,68.9766 C662.459,78.9766 680.459,78.9766 680.459,78.9766 C680.459,78.9766 698.459,78.9766 698.459,68.9766" fill="none" style="stroke:#181818;stroke-width:0.5;"/></g><g class="participant participant-tail" data-participant="DB"><text fill="#000000" font-family="Segoe UI" font-size="14" lengthAdjust="spacing" textLength="76.8496" x="639.0342" y="604.3477">PostgreSQL</text><path d="M662.459,617.3008 C662.459,607.3008 680.459,607.3008 680.459,607.3008 C680.459,607.3008 698.459,607.3008 698.459,617.3008 L698.459,643.3008 C698.459,653.3008 680.459,653.3008 680.459,653.3008 C680.459,653.3008 662.459,653.3008 662.459,643.3008 L662.459,617.3008" fill="#FCE4EC" style="stroke:#181818;stroke-width:0.5;"/><path d="M662.459,617.3008 C662.459,627.3008 680.459,627.3008 680.459,627.3008 C680.459,627.3008 698.459,627.3008 698.459,617.3008" fill="none" style="stroke:#181818;stroke-width:0.5;"/></g><g><title>API Gateway</title><rect fill="#059669" height="385.7266" style="stroke:#A23B72;stroke-width:1;" width="10" x="133.5493" y="188.0859"/></g><g><title>svc-media-gallery</title><rect fill="#059669" height="327.1055" style="stroke:#A23B72;stroke-width:1;" width="10" x="261.1445" y="217.3965"/></g><g><title>Object Store</title><rect fill="#DBEAFE" height="29.3105" style="stroke:#A23B72;stroke-width:1;" width="10" x="401.5015" y="325.3281"/></g><g><title>Google Maps Platform</title><rect fill="#DBEAFE" height="29.3105" style="stroke:#A23B72;stroke-width:1;" width="10" x="542.1396" y="383.9492"/></g><g><title>PostgreSQL</title><rect fill="#FCE4EC" height="29.3105" style="stroke:#A23B72;stroke-width:1;" width="10" x="675.459" y="485.8809"/></g><path d="M195,136.4648 L195,161.4648 L335,161.4648 L335,146.4648 L325,136.4648 L195,136.4648" fill="#FEFFDD" style="stroke:#181818;stroke-width:0.5;"/><path d="M325,136.4648 L325,146.4648 L335,146.4648 L325,136.4648" fill="#FEFFDD" style="stroke:#181818;stroke-width:0.5;"/><a href="/services/api/svc-media-gallery.html#/Media/uploadMedia" target="_top" title="/services/api/svc-media-gallery.html#/Media/uploadMedia" xlink:actuate="onRequest" xlink:href="/services/api/svc-media-gallery.html#/Media/uploadMedia" xlink:show="new" xlink:title="/services/api/svc-media-gallery.html#/Media/uploadMedia" xlink:type="simple"><text fill="#0000FF" font-family="Segoe UI" font-size="13" lengthAdjust="spacing" text-decoration="underline" textLength="119.4058" x="201" y="154.0332">View in Swagger UI</text></a><g class="message" data-participant-1="Client" data-participant-2="GW"><polygon fill="#059669" points="121.5493,184.0859,131.5493,188.0859,121.5493,192.0859,125.5493,188.0859" style="stroke:#059669;stroke-width:1;"/><line style="stroke:#059669;stroke-width:1;" x1="31.7524" x2="127.5493" y1="188.0859" y2="188.0859"/><text fill="#000000" font-family="Segoe UI" font-size="13" lengthAdjust="spacing" textLength="81.9355" x="38.7524" y="183.3438">POST /media</text></g><g class="message" data-participant-1="GW" data-participant-2="Svc"><polygon fill="#059669" points="249.1445,213.3965,259.1445,217.3965,249.1445,221.3965,253.1445,217.3965" style="stroke:#059669;stroke-width:1;"/><line style="stroke:#059669;stroke-width:1;" x1="143.5493" x2="255.1445" y1="217.3965" y2="217.3965"/><text fill="#000000" font-family="Segoe UI" font-size="13" lengthAdjust="spacing" textLength="85.1348" x="150.5493" y="212.6543">route request</text></g><path d="M276,230.3965 L276,255.3965 L434,255.3965 L434,240.3965 L424,230.3965 L276,230.3965" fill="#FEFFDD" style="stroke:#181818;stroke-width:0.5;"/><path d="M424,230.3965 L424,240.3965 L434,240.3965 L424,230.3965" fill="#FEFFDD" style="stroke:#181818;stroke-width:0.5;"/><text fill="#000000" font-family="Segoe UI" font-size="13" lengthAdjust="spacing" textLength="137.5728" x="282" y="247.9648">Validate request body</text><rect fill="#EEEEEE" height="3" style="stroke:#EEEEEE;stroke-width:1;" width="726.8838" x="0" y="281.3623"/><line style="stroke:#000000;stroke-width:1;" x1="0" x2="726.8838" y1="281.3623" y2="281.3623"/><line style="stroke:#000000;stroke-width:1;" x1="0" x2="726.8838" y1="284.3623" y2="284.3623"/><rect fill="#EEEEEE" height="23.3105" style="stroke:#000000;stroke-width:2;" width="190.6743" x="268.1047" y="270.707"/><text fill="#000000" font-family="Segoe UI" font-size="13" font-weight="bold" lengthAdjust="spacing" textLength="172.3896" x="274.1047" y="287.2754">Cross-Service Integration</text><g class="message" data-participant-1="Svc" data-participant-2="S3"><polygon fill="#059669" points="389.5015,321.3281,399.5015,325.3281,389.5015,329.3281,393.5015,325.3281" style="stroke:#059669;stroke-width:1;"/><line style="stroke:#059669;stroke-width:1;" x1="271.1445" x2="395.5015" y1="325.3281" y2="325.3281"/><text fill="#000000" font-family="Segoe UI" font-size="13" lengthAdjust="spacing" textLength="111.3569" x="278.1445" y="320.5859">Upload binary file</text></g><g class="message" data-participant-1="S3" data-participant-2="Svc"><polygon fill="#059669" points="282.1445,350.6387,272.1445,354.6387,282.1445,358.6387,278.1445,354.6387" style="stroke:#059669;stroke-width:1;"/><line style="stroke:#059669;stroke-width:1;stroke-dasharray:2,2;" x1="276.1445" x2="405.5015" y1="354.6387" y2="354.6387"/><text fill="#000000" font-family="Segoe UI" font-size="13" lengthAdjust="spacing" textLength="18.5859" x="288.1445" y="349.8965">OK</text></g><g class="message" data-participant-1="Svc" data-participant-2="ExtMap"><polygon fill="#059669" points="530.1396,379.9492,540.1396,383.9492,530.1396,387.9492,534.1396,383.9492" style="stroke:#059669;stroke-width:1;"/><line style="stroke:#059669;stroke-width:1;" x1="271.1445" x2="536.1396" y1="383.9492" y2="383.9492"/><text fill="#000000" font-family="Segoe UI" font-size="13" lengthAdjust="spacing" textLength="196.771" x="278.1445" y="379.207">Reverse geocode GPS metadata</text></g><g class="message" data-participant-1="ExtMap" data-participant-2="Svc"><polygon fill="#059669" points="282.1445,409.2598,272.1445,413.2598,282.1445,417.2598,278.1445,413.2598" style="stroke:#059669;stroke-width:1;"/><line style="stroke:#059669;stroke-width:1;stroke-dasharray:2,2;" x1="276.1445" x2="546.1396" y1="413.2598" y2="413.2598"/><text fill="#000000" font-family="Segoe UI" font-size="13" lengthAdjust="spacing" textLength="18.5859" x="288.1445" y="408.5176">OK</text></g><rect fill="#EEEEEE" height="3" style="stroke:#EEEEEE;stroke-width:1;" width="726.8838" x="0" y="441.915"/><line style="stroke:#000000;stroke-width:1;" x1="0" x2="726.8838" y1="441.915" y2="441.915"/><line style="stroke:#000000;stroke-width:1;" x1="0" x2="726.8838" y1="444.915" y2="444.915"/><rect fill="#EEEEEE" height="23.3105" style="stroke:#000000;stroke-width:2;" width="80.3711" x="323.2563" y="431.2598"/><text fill="#000000" font-family="Segoe UI" font-size="13" font-weight="bold" lengthAdjust="spacing" textLength="62.0864" x="329.2563" y="447.8281">Database</text><g class="message" data-participant-1="Svc" data-participant-2="DB"><polygon fill="#059669" points="663.459,481.8809,673.459,485.8809,663.459,489.8809,667.459,485.8809" style="stroke:#059669;stroke-width:1;"/><line style="stroke:#059669;stroke-width:1;" x1="271.1445" x2="669.459" y1="485.8809" y2="485.8809"/><text fill="#000000" font-family="Segoe UI" font-size="13" lengthAdjust="spacing" textLength="96.0718" x="278.1445" y="481.1387">INSERT INTO ...</text></g><g class="message" data-participant-1="DB" data-participant-2="Svc"><polygon fill="#059669" points="282.1445,511.1914,272.1445,515.1914,282.1445,519.1914,278.1445,515.1914" style="stroke:#059669;stroke-width:1;"/><line style="stroke:#059669;stroke-width:1;stroke-dasharray:2,2;" x1="276.1445" x2="679.459" y1="515.1914" y2="515.1914"/><text fill="#000000" font-family="Segoe UI" font-size="13" lengthAdjust="spacing" textLength="76.4575" x="288.1445" y="510.4492">Created row</text></g><g class="message" data-participant-1="Svc" data-participant-2="GW"><polygon fill="#059669" points="154.5493,540.502,144.5493,544.502,154.5493,548.502,150.5493,544.502" style="stroke:#059669;stroke-width:1;"/><line style="stroke:#059669;stroke-width:1;stroke-dasharray:2,2;" x1="148.5493" x2="265.1445" y1="544.502" y2="544.502"/><text fill="#000000" font-family="Segoe UI" font-size="13" lengthAdjust="spacing" textLength="77.7969" x="160.5493" y="539.7598">201 Created</text></g><g class="message" data-participant-1="GW" data-participant-2="Client"><polygon fill="#059669" points="42.7524,569.8125,32.7524,573.8125,42.7524,577.8125,38.7524,573.8125" style="stroke:#059669;stroke-width:1;"/><line style="stroke:#059669;stroke-width:1;stroke-dasharray:2,2;" x1="36.7524" x2="137.5493" y1="573.8125" y2="573.8125"/><text fill="#000000" font-family="Segoe UI" font-size="13" lengthAdjust="spacing" textLength="77.7969" x="48.7524" y="569.0703">201 Created</text></g><!--SRC=[TLB9Sjf04BtFLtJXCs23RJ1Lf8f5egWuXbXU3Ww7HchaYSKC6GrWLoh_djQ2a48i7JIQztfxh-CtgJPeS0rBzDz2exSg6Eb86pXpdUGLSS68Np7GUwb2M64KKma9Q8NRoBfQsJjS4zGy2ZN1uxHM3gTVMr8-mMy1_0oCqVkyrFdLpVNrJNezHsEbBpUex52RW4nEQJdTwy7mXF9lqqxNlNIxAUrMhkXMAgga6RJQmquhnOVwlGAv5rtt_AA0JkHmNSPJ-4xRQbQ_qrcsIzX_f6mx7V5722jjH32VUG_GN5CWyOTwt4GQ0q18_q5QMWknESu8jL4aITaQO0pPiGeFvbEOeAKzVgISoJESZOVEWCshyEATNqzhr4EC8Z8PszlvyFBIN4lVw9ZCJleKDq-epSMY4BUITBRyIRu5psf3MRusptkLl5NYHEkGH_-6cnZc4TgLDkiqm7ctV5a41MXnYJ4lqLp7DZJaVRzDUUCXSqREfJCIGh7Ae7TaalPPTnwWw1qtyhJ_ngjTHsVDRybTSvigdfxXIT8Uf09lZs78-HwdYuKW5K1IGeXCRwX_ILJjbOqJw5kvOzbJlVCDvYDJ4qbxm0l0e4csFhP7TW8UwDaSHeQl5lGgZtl2I0Pu38Mb3Zw4wFTXn0x5TIyR5ARAKcZGIgsWtnSYYKwAjpb7lbDBgT1ym4f6L6gWNQm77-j5lxEl8g0IgyYO6zI3UsB5sPcGjAy37dpkyT9QJ2mxvZ_ucTV8Vp-hay7fUEE3ywLfsFGUJEyyv_w1FmypQ3GQnrAbbU3ZiSJ84CC1Mx0lrneFyxm7Erld5mTkPNRUgSH9fkN-VqgTF8k_]--></g></svg>