<svg xmlns="http://www.w3.org/2000/svg" xmlns:xlink="http://www.w3.org/1999/xlink" contentStyleType="text/css" data-diagram-type="SEQUENCE" height="764px" preserveAspectRatio="none" style="width:1093px;height:764px;background:#FEFEFE;" version="1.1" viewBox="0 0 1093 764" width="1093px" zoomAndPan="magnify"><title>POST /check-ins/{check_in_id}/gear-verification</title><defs/><g><rect fill="#FEFEFE" height="764" style="stroke:none;stroke-width:1;" width="1093" x="0" y="0"/><text fill="#000000" font-family="Segoe UI" font-size="14" font-weight="bold" lengthAdjust="spacing" textLength="353.8076" x="365.8479" y="28.5352">POST /check-ins/{check_in_id}/gear-verification</text><text fill="#000000" font-family="Segoe UI" font-size="14" font-weight="bold" lengthAdjust="spacing" textLength="299.3936" x="393.0549" y="45.0234">Verify gear has been picked up and fitted</text><g><title>API Gateway</title><rect fill="#059669" height="479.6582" style="stroke:#A23B72;stroke-width:1;" width="10" x="356.938" y="188.0859"/></g><g><title>svc-check-in</title><rect fill="#059669" height="421.0371" style="stroke:#A23B72;stroke-width:1;" width="10" x="471.0728" y="217.3965"/></g><g><title>Gear Inventory</title><rect fill="#DBEAFE" height="29.3105" style="stroke:#A23B72;stroke-width:1;" width="10" x="645.2119" y="325.3281"/></g><g><title>Safety Compliance</title><rect fill="#DBEAFE" height="29.3105" style="stroke:#A23B72;stroke-width:1;" width="10" x="781.2085" y="383.9492"/></g><g><title>PostgreSQL</title><rect fill="#FCE4EC" height="29.3105" style="stroke:#A23B72;stroke-width:1;" width="10" x="902.0591" y="485.8809"/></g><g><title>PostgreSQL</title><rect fill="#FCE4EC" height="29.3105" style="stroke:#A23B72;stroke-width:1;" width="10" x="902.0591" y="579.8125"/></g><g><title>Client</title><rect fill="#000000" fill-opacity="0.00000" height="564.2793" width="8" x="27.7524" y="121.4648"/><line style="stroke:#A23B72;stroke-width:0.5;stroke-dasharray:5,5;" x1="31" x2="31" y1="121.4648" y2="685.7441"/></g><g><title>API Gateway</title><rect fill="#000000" fill-opacity="0.00000" height="564.2793" width="8" x="357.938" y="121.4648"/><line style="stroke:#A23B72;stroke-width:0.5;stroke-dasharray:5,5;" x1="361.6489" x2="361.6489" y1="121.4648" y2="685.7441"/></g><g><title>svc-check-in</title><rect fill="#000000" fill-opacity="0.00000" height="564.2793" width="8" x="472.0728" y="121.4648"/><line style="stroke:#A23B72;stroke-width:0.5;stroke-dasharray:5,5;" x1="475.3213" x2="475.3213" y1="121.4648" y2="685.7441"/></g><g><title>Gear Inventory</title><rect fill="#000000" fill-opacity="0.00000" height="564.2793" width="8" x="646.2119" y="121.4648"/><line style="stroke:#A23B72;stroke-width:0.5;stroke-dasharray:5,5;" x1="649.6411" x2="649.6411" y1="121.4648" y2="685.7441"/></g><g><title>Safety Compliance</title><rect fill="#000000" fill-opacity="0.00000" height="564.2793" width="8" x="782.2085" y="121.4648"/><line style="stroke:#A23B72;stroke-width:0.5;stroke-dasharray:5,5;" x1="785.7827" x2="785.7827" y1="121.4648" y2="685.7441"/></g><g><title>PostgreSQL</title><rect fill="#000000" fill-opacity="0.00000" height="564.2793" width="8" x="903.0591" y="121.4648"/><line style="stroke:#A23B72;stroke-width:0.5;stroke-dasharray:5,5;" x1="906.6343" x2="906.6343" y1="121.4648" y2="685.7441"/></g><g class="participant participant-head" data-participant="Client"><rect fill="#E8F4F8" height="30.4883" rx="2.5" ry="2.5" style="stroke:#2E86AB;stroke-width:0.5;" width="53.5049" x="5" y="89.9766"/><text fill="#000000" font-family="Segoe UI" font-size="14" lengthAdjust="spacing" textLength="39.5049" x="12" y="110.5117">Client</text></g><g class="participant participant-tail" data-participant="Client"><rect fill="#E8F4F8" height="30.4883" rx="2.5" ry="2.5" style="stroke:#2E86AB;stroke-width:0.5;" width="53.5049" x="5" y="684.7441"/><text fill="#000000" font-family="Segoe UI" font-size="14" lengthAdjust="spacing" textLength="39.5049" x="12" y="705.2793">Client</text></g><g class="participant participant-head" data-participant="GW"><rect fill="#DBEAFE" height="30.4883" rx="2.5" ry="2.5" style="stroke:#2E86AB;stroke-width:0.5;" width="96.5781" x="313.6489" y="89.9766"/><text fill="#000000" font-family="Segoe UI" font-size="14" lengthAdjust="spacing" textLength="82.5781" x="320.6489" y="110.5117">API Gateway</text></g><g class="participant participant-tail" data-participant="GW"><rect fill="#DBEAFE" height="30.4883" rx="2.5" ry="2.5" style="stroke:#2E86AB;stroke-width:0.5;" width="96.5781" x="313.6489" y="684.7441"/><text fill="#000000" font-family="Segoe UI" font-size="14" lengthAdjust="spacing" textLength="82.5781" x="320.6489" y="705.2793">API Gateway</text></g><g class="participant participant-head" data-participant="Svc"><a href="/microservices/svc-check-in/" target="_top" title="/microservices/svc-check-in/" xlink:actuate="onRequest" xlink:href="/microservices/svc-check-in/" xlink:show="new" xlink:title="/microservices/svc-check-in/" xlink:type="simple"><rect fill="#E8F4F8" height="30.4883" rx="2.5" ry="2.5" style="stroke:#2E86AB;stroke-width:0.5;" width="103.5029" x="424.3213" y="89.9766"/><text fill="#000000" font-family="Segoe UI" font-size="14" lengthAdjust="spacing" textLength="89.5029" x="431.3213" y="110.5117">svc-check-in</text></a></g><g class="participant participant-tail" data-participant="Svc"><a href="/microservices/svc-check-in/" target="_top" title="/microservices/svc-check-in/" xlink:actuate="onRequest" xlink:href="/microservices/svc-check-in/" xlink:show="new" xlink:title="/microservices/svc-check-in/" xlink:type="simple"><rect fill="#E8F4F8" height="30.4883" rx="2.5" ry="2.5" style="stroke:#2E86AB;stroke-width:0.5;" width="103.5029" x="424.3213" y="684.7441"/><text fill="#000000" font-family="Segoe UI" font-size="14" lengthAdjust="spacing" textLength="89.5029" x="431.3213" y="705.2793">svc-check-in</text></a></g><g class="participant participant-head" data-participant="Gear"><a href="/microservices/svc-gear-inventory/" target="_top" title="/microservices/svc-gear-inventory/" xlink:actuate="onRequest" xlink:href="/microservices/svc-gear-inventory/" xlink:show="new" xlink:title="/microservices/svc-gear-inventory/" xlink:type="simple"><rect fill="#FFF8F0" height="30.4883" rx="2.5" ry="2.5" style="stroke:#2E86AB;stroke-width:0.5;" width="113.1416" x="593.6411" y="89.9766"/><text fill="#000000" font-family="Segoe UI" font-size="14" lengthAdjust="spacing" textLength="99.1416" x="600.6411" y="110.5117">Gear Inventory</text></a></g><g class="participant participant-tail" data-participant="Gear"><a href="/microservices/svc-gear-inventory/" target="_top" title="/microservices/svc-gear-inventory/" xlink:actuate="onRequest" xlink:href="/microservices/svc-gear-inventory/" xlink:show="new" xlink:title="/microservices/svc-gear-inventory/" xlink:type="simple"><rect fill="#FFF8F0" height="30.4883" rx="2.5" ry="2.5" style="stroke:#2E86AB;stroke-width:0.5;" width="113.1416" x="593.6411" y="684.7441"/><text fill="#000000" font-family="Segoe UI" font-size="14" lengthAdjust="spacing" textLength="99.1416" x="600.6411" y="705.2793">Gear Inventory</text></a></g><g class="participant participant-head" data-participant="Safety"><a href="/microservices/svc-safety-compliance/" target="_top" title="/microservices/svc-safety-compliance/" xlink:actuate="onRequest" xlink:href="/microservices/svc-safety-compliance/" xlink:show="new" xlink:title="/microservices/svc-safety-compliance/" xlink:type="simple"><rect fill="#FFF8F0" height="30.4883" rx="2.5" ry="2.5" style="stroke:#2E86AB;stroke-width:0.5;" width="138.8516" x="716.7827" y="89.9766"/><text fill="#000000" font-family="Segoe UI" font-size="14" lengthAdjust="spacing" textLength="124.8516" x="723.7827" y="110.5117">Safety Compliance</text></a></g><g class="participant participant-tail" data-participant="Safety"><a href="/microservices/svc-safety-compliance/" target="_top" title="/microservices/svc-safety-compliance/" xlink:actuate="onRequest" xlink:href="/microservices/svc-safety-compliance/" xlink:show="new" xlink:title="/microservices/svc-safety-compliance/" xlink:type="simple"><rect fill="#FFF8F0" height="30.4883" rx="2.5" ry="2.5" style="stroke:#2E86AB;stroke-width:0.5;" width="138.8516" x="716.7827" y="684.7441"/><text fill="#000000" font-family="Segoe UI" font-size="14" lengthAdjust="spacing" textLength="124.8516" x="723.7827" y="705.2793">Safety Compliance</text></a></g><g class="participant participant-head" data-participant="DB"><text fill="#000000" font-family="Segoe UI" font-size="14" lengthAdjust="spacing" textLength="76.8496" x="865.6343" y="118.5117">PostgreSQL</text><path d="M889.0591,68.9766 C889.0591,58.9766 907.0591,58.9766 907.0591,58.9766 C907.0591,58.9766 925.0591,58.9766 925.0591,68.9766 L925.0591,94.9766 C925.0591,104.9766 907.0591,104.9766 907.0591,104.9766 C907.0591,104.9766 889.0591,104.9766 889.0591,94.9766 L889.0591,68.9766" fill="#FCE4EC" style="stroke:#181818;stroke-width:0.5;"/><path d="M889.0591,68.9766 C889.0591,78.9766 907.0591,78.9766 907.0591,78.9766 C907.0591,78.9766 925.0591,78.9766 925.0591,68.9766" fill="none" style="stroke:#181818;stroke-width:0.5;"/></g><g class="participant participant-tail" data-participant="DB"><text fill="#000000" font-family="Segoe UI" font-size="14" lengthAdjust="spacing" textLength="76.8496" x="865.6343" y="698.2793">PostgreSQL</text><path d="M889.0591,711.2324 C889.0591,701.2324 907.0591,701.2324 907.0591,701.2324 C907.0591,701.2324 925.0591,701.2324 925.0591,711.2324 L925.0591,737.2324 C925.0591,747.2324 907.0591,747.2324 907.0591,747.2324 C907.0591,747.2324 889.0591,747.2324 889.0591,737.2324 L889.0591,711.2324" fill="#FCE4EC" style="stroke:#181818;stroke-width:0.5;"/><path d="M889.0591,711.2324 C889.0591,721.2324 907.0591,721.2324 907.0591,721.2324 C907.0591,721.2324 925.0591,721.2324 925.0591,711.2324" fill="none" style="stroke:#181818;stroke-width:0.5;"/></g><g><title>API Gateway</title><rect fill="#059669" height="479.6582" style="stroke:#A23B72;stroke-width:1;" width="10" x="356.938" y="188.0859"/></g><g><title>svc-check-in</title><rect fill="#059669" height="421.0371" style="stroke:#A23B72;stroke-width:1;" width="10" x="471.0728" y="217.3965"/></g><g><title>Gear Inventory</title><rect fill="#DBEAFE" height="29.3105" style="stroke:#A23B72;stroke-width:1;" width="10" x="645.2119" y="325.3281"/></g><g><title>Safety Compliance</title><rect fill="#DBEAFE" height="29.3105" style="stroke:#A23B72;stroke-width:1;" width="10" x="781.2085" y="383.9492"/></g><g><title>PostgreSQL</title><rect fill="#FCE4EC" height="29.3105" style="stroke:#A23B72;stroke-width:1;" width="10" x="902.0591" y="485.8809"/></g><g><title>PostgreSQL</title><rect fill="#FCE4EC" height="29.3105" style="stroke:#A23B72;stroke-width:1;" width="10" x="902.0591" y="579.8125"/></g><path d="M405,136.4648 L405,161.4648 L545,161.4648 L545,146.4648 L535,136.4648 L405,136.4648" fill="#FEFFDD" style="stroke:#181818;stroke-width:0.5;"/><path d="M535,136.4648 L535,146.4648 L545,146.4648 L535,136.4648" fill="#FEFFDD" style="stroke:#181818;stroke-width:0.5;"/><a href="/services/api/svc-check-in.html#/Check-Ins/verifyGear" target="_top" title="/services/api/svc-check-in.html#/Check-Ins/verifyGear" xlink:actuate="onRequest" xlink:href="/services/api/svc-check-in.html#/Check-Ins/verifyGear" xlink:show="new" xlink:title="/services/api/svc-check-in.html#/Check-Ins/verifyGear" xlink:type="simple"><text fill="#0000FF" font-family="Segoe UI" font-size="13" lengthAdjust="spacing" text-decoration="underline" textLength="119.4058" x="411" y="154.0332">View in Swagger UI</text></a><g class="message" data-participant-1="Client" data-participant-2="GW"><polygon fill="#059669" points="344.938,184.0859,354.938,188.0859,344.938,192.0859,348.938,188.0859" style="stroke:#059669;stroke-width:1;"/><line style="stroke:#059669;stroke-width:1;" x1="31.7524" x2="350.938" y1="188.0859" y2="188.0859"/><text fill="#000000" font-family="Segoe UI" font-size="13" lengthAdjust="spacing" textLength="306.1855" x="38.7524" y="183.3438">POST /check-ins/{check_in_id}/gear-verification</text></g><g class="message" data-participant-1="GW" data-participant-2="Svc"><polygon fill="#059669" points="459.0728,213.3965,469.0728,217.3965,459.0728,221.3965,463.0728,217.3965" style="stroke:#059669;stroke-width:1;"/><line style="stroke:#059669;stroke-width:1;" x1="366.938" x2="465.0728" y1="217.3965" y2="217.3965"/><text fill="#000000" font-family="Segoe UI" font-size="13" lengthAdjust="spacing" textLength="85.1348" x="373.938" y="212.6543">route request</text></g><path d="M486,230.3965 L486,255.3965 L644,255.3965 L644,240.3965 L634,230.3965 L486,230.3965" fill="#FEFFDD" style="stroke:#181818;stroke-width:0.5;"/><path d="M634,230.3965 L634,240.3965 L644,240.3965 L634,230.3965" fill="#FEFFDD" style="stroke:#181818;stroke-width:0.5;"/><text fill="#000000" font-family="Segoe UI" font-size="13" lengthAdjust="spacing" textLength="137.5728" x="492" y="247.9648">Validate request body</text><rect fill="#EEEEEE" height="3" style="stroke:#EEEEEE;stroke-width:1;" width="1086.5034" x="0" y="281.3623"/><line style="stroke:#000000;stroke-width:1;" x1="0" x2="1086.5034" y1="281.3623" y2="281.3623"/><line style="stroke:#000000;stroke-width:1;" x1="0" x2="1086.5034" y1="284.3623" y2="284.3623"/><rect fill="#EEEEEE" height="23.3105" style="stroke:#000000;stroke-width:2;" width="190.6743" x="447.9146" y="270.707"/><text fill="#000000" font-family="Segoe UI" font-size="13" font-weight="bold" lengthAdjust="spacing" textLength="172.3896" x="453.9146" y="287.2754">Cross-Service Integration</text><g class="message" data-participant-1="Svc" data-participant-2="Gear"><polygon fill="#059669" points="633.2119,321.3281,643.2119,325.3281,633.2119,329.3281,637.2119,325.3281" style="stroke:#059669;stroke-width:1;"/><line style="stroke:#059669;stroke-width:1;" x1="481.0728" x2="639.2119" y1="325.3281" y2="325.3281"/><a href="/microservices/svc-gear-inventory/#get-gear-assignmentsassignment_id-get-gear-assignment-details" target="_top" title="/microservices/svc-gear-inventory/#get-gear-assignmentsassignment_id-get-gear-assignment-details" xlink:actuate="onRequest" xlink:href="/microservices/svc-gear-inventory/#get-gear-assignmentsassignment_id-get-gear-assignment-details" xlink:show="new" xlink:title="/microservices/svc-gear-inventory/#get-gear-assignmentsassignment_id-get-gear-assignment-details" xlink:type="simple"><text fill="#0000FF" font-family="Segoe UI" font-size="13" lengthAdjust="spacing" text-decoration="underline" textLength="145.1392" x="488.0728" y="320.5859">Verify gear assignment</text></a></g><g class="message" data-participant-1="Gear" data-participant-2="Svc"><polygon fill="#059669" points="492.0728,350.6387,482.0728,354.6387,492.0728,358.6387,488.0728,354.6387" style="stroke:#059669;stroke-width:1;"/><line style="stroke:#059669;stroke-width:1;stroke-dasharray:2,2;" x1="486.0728" x2="649.2119" y1="354.6387" y2="354.6387"/><text fill="#000000" font-family="Segoe UI" font-size="13" lengthAdjust="spacing" textLength="18.5859" x="498.0728" y="349.8965">OK</text></g><g class="message" data-participant-1="Svc" data-participant-2="Safety"><polygon fill="#059669" points="769.2085,379.9492,779.2085,383.9492,769.2085,387.9492,773.2085,383.9492" style="stroke:#059669;stroke-width:1;"/><line style="stroke:#059669;stroke-width:1;" x1="481.0728" x2="775.2085" y1="383.9492" y2="383.9492"/><a href="/microservices/svc-safety-compliance/#post-incidents-file-an-incident-report" target="_top" title="/microservices/svc-safety-compliance/#post-incidents-file-an-incident-report" xlink:actuate="onRequest" xlink:href="/microservices/svc-safety-compliance/#post-incidents-file-an-incident-report" xlink:show="new" xlink:title="/microservices/svc-safety-compliance/#post-incidents-file-an-incident-report" xlink:type="simple"><text fill="#0000FF" font-family="Segoe UI" font-size="13" lengthAdjust="spacing" text-decoration="underline" textLength="129.1938" x="488.0728" y="379.207">Log gear verification</text></a></g><g class="message" data-participant-1="Safety" data-participant-2="Svc"><polygon fill="#059669" points="492.0728,409.2598,482.0728,413.2598,492.0728,417.2598,488.0728,413.2598" style="stroke:#059669;stroke-width:1;"/><line style="stroke:#059669;stroke-width:1;stroke-dasharray:2,2;" x1="486.0728" x2="785.2085" y1="413.2598" y2="413.2598"/><text fill="#000000" font-family="Segoe UI" font-size="13" lengthAdjust="spacing" textLength="18.5859" x="498.0728" y="408.5176">OK</text></g><rect fill="#EEEEEE" height="3" style="stroke:#EEEEEE;stroke-width:1;" width="1086.5034" x="0" y="441.915"/><line style="stroke:#000000;stroke-width:1;" x1="0" x2="1086.5034" y1="441.915" y2="441.915"/><line style="stroke:#000000;stroke-width:1;" x1="0" x2="1086.5034" y1="444.915" y2="444.915"/><rect fill="#EEEEEE" height="23.3105" style="stroke:#000000;stroke-width:2;" width="80.3711" x="503.0662" y="431.2598"/><text fill="#000000" font-family="Segoe UI" font-size="13" font-weight="bold" lengthAdjust="spacing" textLength="62.0864" x="509.0662" y="447.8281">Database</text><g class="message" data-participant-1="Svc" data-participant-2="DB"><polygon fill="#059669" points="890.0591,481.8809,900.0591,485.8809,890.0591,489.8809,894.0591,485.8809" style="stroke:#059669;stroke-width:1;"/><line style="stroke:#059669;stroke-width:1;" x1="481.0728" x2="896.0591" y1="485.8809" y2="485.8809"/><text fill="#000000" font-family="Segoe UI" font-size="13" lengthAdjust="spacing" textLength="177.4043" x="488.0728" y="481.1387">SELECT parent WHERE id = ?</text></g><g class="message" data-participant-1="DB" data-participant-2="Svc"><polygon fill="#059669" points="492.0728,511.1914,482.0728,515.1914,492.0728,519.1914,488.0728,515.1914" style="stroke:#059669;stroke-width:1;"/><line style="stroke:#059669;stroke-width:1;stroke-dasharray:2,2;" x1="486.0728" x2="906.0591" y1="515.1914" y2="515.1914"/><text fill="#000000" font-family="Segoe UI" font-size="13" lengthAdjust="spacing" textLength="67.2915" x="498.0728" y="510.4492">Parent row</text></g><path d="M912,528.1914 L912,553.1914 L1081,553.1914 L1081,538.1914 L1071,528.1914 L912,528.1914" fill="#FEFFDD" style="stroke:#181818;stroke-width:0.5;"/><path d="M1071,528.1914 L1071,538.1914 L1081,538.1914 L1071,528.1914" fill="#FEFFDD" style="stroke:#181818;stroke-width:0.5;"/><text fill="#000000" font-family="Segoe UI" font-size="13" lengthAdjust="spacing" textLength="148.5034" x="918" y="545.7598">404 if parent not found</text><g class="message" data-participant-1="Svc" data-participant-2="DB"><polygon fill="#059669" points="890.0591,575.8125,900.0591,579.8125,890.0591,583.8125,894.0591,579.8125" style="stroke:#059669;stroke-width:1;"/><line style="stroke:#059669;stroke-width:1;" x1="481.0728" x2="896.0591" y1="579.8125" y2="579.8125"/><text fill="#000000" font-family="Segoe UI" font-size="13" lengthAdjust="spacing" textLength="96.0718" x="488.0728" y="575.0703">INSERT INTO ...</text></g><g class="message" data-participant-1="DB" data-participant-2="Svc"><polygon fill="#059669" points="492.0728,605.123,482.0728,609.123,492.0728,613.123,488.0728,609.123" style="stroke:#059669;stroke-width:1;"/><line style="stroke:#059669;stroke-width:1;stroke-dasharray:2,2;" x1="486.0728" x2="906.0591" y1="609.123" y2="609.123"/><text fill="#000000" font-family="Segoe UI" font-size="13" lengthAdjust="spacing" textLength="76.4575" x="498.0728" y="604.3809">Created row</text></g><g class="message" data-participant-1="Svc" data-participant-2="GW"><polygon fill="#059669" points="377.938,634.4336,367.938,638.4336,377.938,642.4336,373.938,638.4336" style="stroke:#059669;stroke-width:1;"/><line style="stroke:#059669;stroke-width:1;stroke-dasharray:2,2;" x1="371.938" x2="475.0728" y1="638.4336" y2="638.4336"/><text fill="#000000" font-family="Segoe UI" font-size="13" lengthAdjust="spacing" textLength="77.7969" x="383.938" y="633.6914">201 Created</text></g><g class="message" data-participant-1="GW" data-participant-2="Client"><polygon fill="#059669" points="42.7524,663.7441,32.7524,667.7441,42.7524,671.7441,38.7524,667.7441" style="stroke:#059669;stroke-width:1;"/><line style="stroke:#059669;stroke-width:1;stroke-dasharray:2,2;" x1="36.7524" x2="360.938" y1="667.7441" y2="667.7441"/><text fill="#000000" font-family="Segoe UI" font-size="13" lengthAdjust="spacing" textLength="77.7969" x="48.7524" y="663.002">201 Created</text></g><!--SRC=[bLHTSzeu57tNhxWJdXtorIHbXks0Or9ccOIjq-IXpNI4VMqqCP9NKc2PJl_xNiass2sTjl20f7FkvxaNyo9aoJLVmO8dBxbMhp8DLQ4qz2QH-pApOvWbJzL6o1moNXXi8Ibc_BMm4oNj7LyX7CMOAuIFqwEsEVxxYZ91-Cg0FYEjrQOETVBcxUNbM_yyvzgAH9HSsh7IAUgQSXPTNux6Fr2-JpgwdbnChZrj9ZAS2OaTDwEpy_7LcSV7whyED3czdfoSxg0VsZ6P4ExXEsMxNfEhgyLv2plGolFeYdrZp0fR8CplumVe9qjCNW8XJV-hFtuHyej8l_Lpv3fOenQPIBWLIdwMZ-ws1OV0aXjO84eeHVA2ARoMm6KAcR0MKyRAVNVWA2m4Idi4P58Tk_1eFeLRRd73jvvp-mIzct4q8jaxFBDEWYPRJupN2Npwr5-9H2k3UYqIDFqsg__yl1EZu-hMbJ2LQyf5wJggUphepNT2D6JlivQXupFc6TejX6fL5eBJY5KvLgy77HkF1SdEekqxvPOlkA4ndYjZSutnFpFlyMPCd32wY4B69EaCYbHolI3bASmk0Yz5fnd7IxigUltGNwUajnTtw-j-5BW18I7Uy3mdRn-dpyyCIKyNWB5ADGZ-SjeC_dHm64-iM9F0Njbwo-X8xfo20w0X9L2xpJHsptPWGwygrI9VMb1PRVV82v7olIaiLBfbR3Y4a3fjWhXg1GbjCTS-5nWE6NFMhXPN-U2tDE_bQAitRep8vOhUpVv8TGS7646Abel2G7jnzZ2rUDyP1pLJxo_1hZttVxCKEynT2VLq3NvtldebpHBLbOZKLH1aei20ozrBeB5Ksi9CvLMsRHtR-TQ1cuphwyzohc2lp4qprYqXQA8744UpA7m0MYatQa_lemyHY1I6y6uVjJNwTDn7crT6z5VUZdep_cvgV9oBamiGMHE7292v_yXkCjExEFhmG3yFzt1yVFph34AD1AS7KgZyDgjpTdBQS3iDekrr6q6qUjT-IhrzOly3]--></g></svg>