<svg xmlns="http://www.w3.org/2000/svg" xmlns:xlink="http://www.w3.org/1999/xlink" contentStyleType="text/css" data-diagram-type="SEQUENCE" height="509px" preserveAspectRatio="none" style="width:725px;height:509px;background:#FEFEFE;" version="1.1" viewBox="0 0 725 509" width="725px" zoomAndPan="magnify"><title>GET /gear-items/{item_id}</title><defs/><g><rect fill="#FEFEFE" height="509" style="stroke:none;stroke-width:1;" width="725" x="0" y="0"/><text fill="#000000" font-family="Segoe UI" font-size="14" font-weight="bold" lengthAdjust="spacing" textLength="193.0605" x="261.9983" y="28.5352">GET /gear-items/{item_id}</text><text fill="#000000" font-family="Segoe UI" font-size="14" font-weight="bold" lengthAdjust="spacing" textLength="150.6025" x="283.2273" y="45.0234">Get gear item details</text><g><title>API Gateway</title><rect fill="#2563EB" height="225.1738" style="stroke:#A23B72;stroke-width:1;" width="10" x="218.0513" y="188.0859"/></g><g><title>svc-gear-inventory</title><rect fill="#2563EB" height="166.5527" style="stroke:#A23B72;stroke-width:1;" width="10" x="348.8867" y="217.3965"/></g><g><title>PostgreSQL</title><rect fill="#FCE4EC" height="29.3105" style="stroke:#A23B72;stroke-width:1;" width="10" x="526.7773" y="290.0176"/></g><g><title>Client</title><rect fill="#000000" fill-opacity="0.00000" height="309.7949" width="8" x="27.7524" y="121.4648"/><line style="stroke:#A23B72;stroke-width:0.5;stroke-dasharray:5,5;" x1="31" x2="31" y1="121.4648" y2="431.2598"/></g><g><title>API Gateway</title><rect fill="#000000" fill-opacity="0.00000" height="309.7949" width="8" x="219.0513" y="121.4648"/><line style="stroke:#A23B72;stroke-width:0.5;stroke-dasharray:5,5;" x1="222.7622" x2="222.7622" y1="121.4648" y2="431.2598"/></g><g><title>svc-gear-inventory</title><rect fill="#000000" fill-opacity="0.00000" height="309.7949" width="8" x="349.8867" y="121.4648"/><line style="stroke:#A23B72;stroke-width:0.5;stroke-dasharray:5,5;" x1="353.3403" x2="353.3403" y1="121.4648" y2="431.2598"/></g><g><title>PostgreSQL</title><rect fill="#000000" fill-opacity="0.00000" height="309.7949" width="8" x="527.7773" y="121.4648"/><line style="stroke:#A23B72;stroke-width:0.5;stroke-dasharray:5,5;" x1="531.3525" x2="531.3525" y1="121.4648" y2="431.2598"/></g><g class="participant participant-head" data-participant="Client"><rect fill="#E8F4F8" height="30.4883" rx="2.5" ry="2.5" style="stroke:#2E86AB;stroke-width:0.5;" width="53.5049" x="5" y="89.9766"/><text fill="#000000" font-family="Segoe UI" font-size="14" lengthAdjust="spacing" textLength="39.5049" x="12" y="110.5117">Client</text></g><g class="participant participant-tail" data-participant="Client"><rect fill="#E8F4F8" height="30.4883" rx="2.5" ry="2.5" style="stroke:#2E86AB;stroke-width:0.5;" width="53.5049" x="5" y="430.2598"/><text fill="#000000" font-family="Segoe UI" font-size="14" lengthAdjust="spacing" textLength="39.5049" x="12" y="450.7949">Client</text></g><g class="participant participant-head" data-participant="GW"><rect fill="#DBEAFE" height="30.4883" rx="2.5" ry="2.5" style="stroke:#2E86AB;stroke-width:0.5;" width="96.5781" x="174.7622" y="89.9766"/><text fill="#000000" font-family="Segoe UI" font-size="14" lengthAdjust="spacing" textLength="82.5781" x="181.7622" y="110.5117">API Gateway</text></g><g class="participant participant-tail" data-participant="GW"><rect fill="#DBEAFE" height="30.4883" rx="2.5" ry="2.5" style="stroke:#2E86AB;stroke-width:0.5;" width="96.5781" x="174.7622" y="430.2598"/><text fill="#000000" font-family="Segoe UI" font-size="14" lengthAdjust="spacing" textLength="82.5781" x="181.7622" y="450.7949">API Gateway</text></g><g class="participant participant-head" data-participant="Svc"><a href="/microservices/svc-gear-inventory/" target="_top" title="/microservices/svc-gear-inventory/" xlink:actuate="onRequest" xlink:href="/microservices/svc-gear-inventory/" xlink:show="new" xlink:title="/microservices/svc-gear-inventory/" xlink:type="simple"><rect fill="#E8F4F8" height="30.4883" rx="2.5" ry="2.5" style="stroke:#2E86AB;stroke-width:0.5;" width="145.0928" x="281.3403" y="89.9766"/><text fill="#000000" font-family="Segoe UI" font-size="14" lengthAdjust="spacing" textLength="131.0928" x="288.3403" y="110.5117">svc-gear-inventory</text></a></g><g class="participant participant-tail" data-participant="Svc"><a href="/microservices/svc-gear-inventory/" target="_top" title="/microservices/svc-gear-inventory/" xlink:actuate="onRequest" xlink:href="/microservices/svc-gear-inventory/" xlink:show="new" xlink:title="/microservices/svc-gear-inventory/" xlink:type="simple"><rect fill="#E8F4F8" height="30.4883" rx="2.5" ry="2.5" style="stroke:#2E86AB;stroke-width:0.5;" width="145.0928" x="281.3403" y="430.2598"/><text fill="#000000" font-family="Segoe UI" font-size="14" lengthAdjust="spacing" textLength="131.0928" x="288.3403" y="450.7949">svc-gear-inventory</text></a></g><g class="participant participant-head" data-participant="DB"><text fill="#000000" font-family="Segoe UI" font-size="14" lengthAdjust="spacing" textLength="76.8496" x="490.3525" y="118.5117">PostgreSQL</text><path d="M513.7773,68.9766 C513.7773,58.9766 531.7773,58.9766 531.7773,58.9766 C531.7773,58.9766 549.7773,58.9766 549.7773,68.9766 L549.7773,94.9766 C549.7773,104.9766 531.7773,104.9766 531.7773,104.9766 C531.7773,104.9766 513.7773,104.9766 513.7773,94.9766 L513.7773,68.9766" fill="#FCE4EC" style="stroke:#181818;stroke-width:0.5;"/><path d="M513.7773,68.9766 C513.7773,78.9766 531.7773,78.9766 531.7773,78.9766 C531.7773,78.9766 549.7773,78.9766 549.7773,68.9766" fill="none" style="stroke:#181818;stroke-width:0.5;"/></g><g class="participant participant-tail" data-participant="DB"><text fill="#000000" font-family="Segoe UI" font-size="14" lengthAdjust="spacing" textLength="76.8496" x="490.3525" y="443.7949">PostgreSQL</text><path d="M513.7773,456.748 C513.7773,446.748 531.7773,446.748 531.7773,446.748 C531.7773,446.748 549.7773,446.748 549.7773,456.748 L549.7773,482.748 C549.7773,492.748 531.7773,492.748 531.7773,492.748 C531.7773,492.748 513.7773,492.748 513.7773,482.748 L513.7773,456.748" fill="#FCE4EC" style="stroke:#181818;stroke-width:0.5;"/><path d="M513.7773,456.748 C513.7773,466.748 531.7773,466.748 531.7773,466.748 C531.7773,466.748 549.7773,466.748 549.7773,456.748" fill="none" style="stroke:#181818;stroke-width:0.5;"/></g><g><title>API Gateway</title><rect fill="#2563EB" height="225.1738" style="stroke:#A23B72;stroke-width:1;" width="10" x="218.0513" y="188.0859"/></g><g><title>svc-gear-inventory</title><rect fill="#2563EB" height="166.5527" style="stroke:#A23B72;stroke-width:1;" width="10" x="348.8867" y="217.3965"/></g><g><title>PostgreSQL</title><rect fill="#FCE4EC" height="29.3105" style="stroke:#A23B72;stroke-width:1;" width="10" x="526.7773" y="290.0176"/></g><path d="M283,136.4648 L283,161.4648 L423,161.4648 L423,146.4648 L413,136.4648 L283,136.4648" fill="#FEFFDD" style="stroke:#181818;stroke-width:0.5;"/><path d="M413,136.4648 L413,146.4648 L423,146.4648 L413,136.4648" fill="#FEFFDD" style="stroke:#181818;stroke-width:0.5;"/><a href="/services/api/svc-gear-inventory.html#/Gear%20Items/getGearItem" target="_top" title="/services/api/svc-gear-inventory.html#/Gear%20Items/getGearItem" xlink:actuate="onRequest" xlink:href="/services/api/svc-gear-inventory.html#/Gear%20Items/getGearItem" xlink:show="new" xlink:title="/services/api/svc-gear-inventory.html#/Gear%20Items/getGearItem" xlink:type="simple"><text fill="#0000FF" font-family="Segoe UI" font-size="13" lengthAdjust="spacing" text-decoration="underline" textLength="119.4058" x="289" y="154.0332">View in Swagger UI</text></a><g class="message" data-participant-1="Client" data-participant-2="GW"><polygon fill="#2563EB" points="206.0513,184.0859,216.0513,188.0859,206.0513,192.0859,210.0513,188.0859" style="stroke:#2563EB;stroke-width:1;"/><line style="stroke:#2563EB;stroke-width:1;" x1="31.7524" x2="212.0513" y1="188.0859" y2="188.0859"/><text fill="#000000" font-family="Segoe UI" font-size="13" lengthAdjust="spacing" textLength="167.2988" x="38.7524" y="183.3438">GET /gear-items/{item_id}</text></g><g class="message" data-participant-1="GW" data-participant-2="Svc"><polygon fill="#2563EB" points="336.8867,213.3965,346.8867,217.3965,336.8867,221.3965,340.8867,217.3965" style="stroke:#2563EB;stroke-width:1;"/><line style="stroke:#2563EB;stroke-width:1;" x1="228.0513" x2="342.8867" y1="217.3965" y2="217.3965"/><text fill="#000000" font-family="Segoe UI" font-size="13" lengthAdjust="spacing" textLength="85.1348" x="235.0513" y="212.6543">route request</text></g><rect fill="#EEEEEE" height="3" style="stroke:#EEEEEE;stroke-width:1;" width="718.0571" x="0" y="246.0518"/><line style="stroke:#000000;stroke-width:1;" x1="0" x2="718.0571" y1="246.0518" y2="246.0518"/><line style="stroke:#000000;stroke-width:1;" x1="0" x2="718.0571" y1="249.0518" y2="249.0518"/><rect fill="#EEEEEE" height="23.3105" style="stroke:#000000;stroke-width:2;" width="80.3711" x="318.843" y="235.3965"/><text fill="#000000" font-family="Segoe UI" font-size="13" font-weight="bold" lengthAdjust="spacing" textLength="62.0864" x="324.843" y="251.9648">Database</text><g class="message" data-participant-1="Svc" data-participant-2="DB"><polygon fill="#2563EB" points="514.7773,286.0176,524.7773,290.0176,514.7773,294.0176,518.7773,290.0176" style="stroke:#2563EB;stroke-width:1;"/><line style="stroke:#2563EB;stroke-width:1;" x1="358.8867" x2="520.7773" y1="290.0176" y2="290.0176"/><text fill="#000000" font-family="Segoe UI" font-size="13" lengthAdjust="spacing" textLength="148.8906" x="365.8867" y="285.2754">SELECT ... WHERE id = ?</text></g><g class="message" data-participant-1="DB" data-participant-2="Svc"><polygon fill="#2563EB" points="369.8867,315.3281,359.8867,319.3281,369.8867,323.3281,365.8867,319.3281" style="stroke:#2563EB;stroke-width:1;"/><line style="stroke:#2563EB;stroke-width:1;stroke-dasharray:2,2;" x1="363.8867" x2="530.7773" y1="319.3281" y2="319.3281"/><text fill="#000000" font-family="Segoe UI" font-size="13" lengthAdjust="spacing" textLength="26.2222" x="375.8867" y="314.5859">Row</text></g><path d="M536,332.3281 L536,357.3281 L713,357.3281 L713,342.3281 L703,332.3281 L536,332.3281" fill="#FEFFDD" style="stroke:#181818;stroke-width:0.5;"/><path d="M703,332.3281 L703,342.3281 L713,342.3281 L703,332.3281" fill="#FEFFDD" style="stroke:#181818;stroke-width:0.5;"/><text fill="#000000" font-family="Segoe UI" font-size="13" lengthAdjust="spacing" textLength="156.0571" x="542" y="349.8965">Returns 404 if not found</text><g class="message" data-participant-1="Svc" data-participant-2="GW"><polygon fill="#2563EB" points="239.0513,379.9492,229.0513,383.9492,239.0513,387.9492,235.0513,383.9492" style="stroke:#2563EB;stroke-width:1;"/><line style="stroke:#2563EB;stroke-width:1;stroke-dasharray:2,2;" x1="233.0513" x2="352.8867" y1="383.9492" y2="383.9492"/><text fill="#000000" font-family="Segoe UI" font-size="13" lengthAdjust="spacing" textLength="47.3599" x="245.0513" y="379.207">200 OK</text></g><g class="message" data-participant-1="GW" data-participant-2="Client"><polygon fill="#2563EB" points="42.7524,409.2598,32.7524,413.2598,42.7524,417.2598,38.7524,413.2598" style="stroke:#2563EB;stroke-width:1;"/><line style="stroke:#2563EB;stroke-width:1;stroke-dasharray:2,2;" x1="36.7524" x2="222.0513" y1="413.2598" y2="413.2598"/><text fill="#000000" font-family="Segoe UI" font-size="13" lengthAdjust="spacing" textLength="47.3599" x="48.7524" y="408.5176">200 OK</text></g><!--SRC=[TP9VRzem5CNV_IckG7k4K6058R69G9AXeOv1EnuwD9da9bWDDhDDqgdgTv-Ty7Umv26Ep_6vlZzRlJ2-fP9kO4N3bqIA7O-68XKIghvdNwAE3hMcaSWPJo2cgS8p9SAOxbBj2wuVw0QXCiT483oDA-VByVSEUOZmHi0y0ob5lY_L_7ZVmbKnFQLIiv1jATUka17AWyNhtW_SAyk_c_QwVjll5hO9Yt72E5x439ejjzCiT5UyNaZ-NTTlt1sbAno-R_H2VX3wCZNiT5QjC-q6ofRN8U-4QAPJXC1x12T1AcjCuqOvR_RpYqNlFtc06gm2Tig0rPIbYf3jgMUe35E6N5U0AYY7b_9WEeQ0Qipfdy8JBA0wShs1ESmBdyh2Mha9dfaG8KlxF0lX-TdPi50AXJ9Z8IhdskiibqVS4TLqHPKv-AbGEf4u_pufiaQkQNxejRqX8ToG0P6Xj1KCArFZ64-tx4Q9-bflqgeJcCaFpSQuG9MWjl_s1tump85ncESqIKpkqtYv9CWZiAK8ATb0xPCbqFi_T493pJ83h22rlujcQ1PQ5ZqmHsb4QU-lqYUt5Gzsqk_3w42XtoV4YYR00EZ1t9jumqUer-km-EBDF60HzE7pAUaCandMZeLd8YSHdjbAY98bQmqYBjDdg7UIAsWtsi1Yspl4zkxjzt1elzbemBUlvt7s66oRnh57TSiLBCXV]--></g></svg>