<svg xmlns="http://www.w3.org/2000/svg" xmlns:xlink="http://www.w3.org/1999/xlink" contentStyleType="text/css" data-diagram-type="SEQUENCE" height="603px" preserveAspectRatio="none" style="width:639px;height:603px;background:#FEFEFE;" version="1.1" viewBox="0 0 639 603" width="639px" zoomAndPan="magnify"><title>PATCH /reservations/{reservation_id}</title><defs/><g><rect fill="#FEFEFE" height="603" style="stroke:none;stroke-width:1;" width="639" x="0" y="0"/><text fill="#000000" font-family="Segoe UI" font-size="14" font-weight="bold" lengthAdjust="spacing" textLength="272.918" x="179.5229" y="28.5352">PATCH /reservations/{reservation_id}</text><text fill="#000000" font-family="Segoe UI" font-size="14" font-weight="bold" lengthAdjust="spacing" textLength="150.377" x="240.7935" y="45.0234">Update a reservation</text><g><title>API Gateway</title><rect fill="#7C3AED" height="319.1055" style="stroke:#A23B72;stroke-width:1;" width="10" x="285.6094" y="188.0859"/></g><g><title>svc-reservations</title><rect fill="#7C3AED" height="260.4844" style="stroke:#A23B72;stroke-width:1;" width="10" x="407.165" y="217.3965"/></g><g><title>PostgreSQL</title><rect fill="#FCE4EC" height="29.3105" style="stroke:#A23B72;stroke-width:1;" width="10" x="581.5391" y="325.3281"/></g><g><title>PostgreSQL</title><rect fill="#FCE4EC" height="29.3105" style="stroke:#A23B72;stroke-width:1;" width="10" x="581.5391" y="419.2598"/></g><g><title>Client</title><rect fill="#000000" fill-opacity="0.00000" height="403.7266" width="8" x="27.7524" y="121.4648"/><line style="stroke:#A23B72;stroke-width:0.5;stroke-dasharray:5,5;" x1="31" x2="31" y1="121.4648" y2="525.1914"/></g><g><title>API Gateway</title><rect fill="#000000" fill-opacity="0.00000" height="403.7266" width="8" x="286.6094" y="121.4648"/><line style="stroke:#A23B72;stroke-width:0.5;stroke-dasharray:5,5;" x1="290.3203" x2="290.3203" y1="121.4648" y2="525.1914"/></g><g><title>svc-reservations</title><rect fill="#000000" fill-opacity="0.00000" height="403.7266" width="8" x="408.165" y="121.4648"/><line style="stroke:#A23B72;stroke-width:0.5;stroke-dasharray:5,5;" x1="411.8984" x2="411.8984" y1="121.4648" y2="525.1914"/></g><g><title>PostgreSQL</title><rect fill="#000000" fill-opacity="0.00000" height="403.7266" width="8" x="582.5391" y="121.4648"/><line style="stroke:#A23B72;stroke-width:0.5;stroke-dasharray:5,5;" x1="586.1143" x2="586.1143" y1="121.4648" y2="525.1914"/></g><g class="participant participant-head" data-participant="Client"><rect fill="#E8F4F8" height="30.4883" rx="2.5" ry="2.5" style="stroke:#2E86AB;stroke-width:0.5;" width="53.5049" x="5" y="89.9766"/><text fill="#000000" font-family="Segoe UI" font-size="14" lengthAdjust="spacing" textLength="39.5049" x="12" y="110.5117">Client</text></g><g class="participant participant-tail" data-participant="Client"><rect fill="#E8F4F8" height="30.4883" rx="2.5" ry="2.5" style="stroke:#2E86AB;stroke-width:0.5;" width="53.5049" x="5" y="524.1914"/><text fill="#000000" font-family="Segoe UI" font-size="14" lengthAdjust="spacing" textLength="39.5049" x="12" y="544.7266">Client</text></g><g class="participant participant-head" data-participant="GW"><rect fill="#DBEAFE" height="30.4883" rx="2.5" ry="2.5" style="stroke:#2E86AB;stroke-width:0.5;" width="96.5781" x="242.3203" y="89.9766"/><text fill="#000000" font-family="Segoe UI" font-size="14" lengthAdjust="spacing" textLength="82.5781" x="249.3203" y="110.5117">API Gateway</text></g><g class="participant participant-tail" data-participant="GW"><rect fill="#DBEAFE" height="30.4883" rx="2.5" ry="2.5" style="stroke:#2E86AB;stroke-width:0.5;" width="96.5781" x="242.3203" y="524.1914"/><text fill="#000000" font-family="Segoe UI" font-size="14" lengthAdjust="spacing" textLength="82.5781" x="249.3203" y="544.7266">API Gateway</text></g><g class="participant participant-head" data-participant="Svc"><a href="/microservices/svc-reservations/" target="_top" title="/microservices/svc-reservations/" xlink:actuate="onRequest" xlink:href="/microservices/svc-reservations/" xlink:show="new" xlink:title="/microservices/svc-reservations/" xlink:type="simple"><rect fill="#E8F4F8" height="30.4883" rx="2.5" ry="2.5" style="stroke:#2E86AB;stroke-width:0.5;" width="126.5332" x="348.8984" y="89.9766"/><text fill="#000000" font-family="Segoe UI" font-size="14" lengthAdjust="spacing" textLength="112.5332" x="355.8984" y="110.5117">svc-reservations</text></a></g><g class="participant participant-tail" data-participant="Svc"><a href="/microservices/svc-reservations/" target="_top" title="/microservices/svc-reservations/" xlink:actuate="onRequest" xlink:href="/microservices/svc-reservations/" xlink:show="new" xlink:title="/microservices/svc-reservations/" xlink:type="simple"><rect fill="#E8F4F8" height="30.4883" rx="2.5" ry="2.5" style="stroke:#2E86AB;stroke-width:0.5;" width="126.5332" x="348.8984" y="524.1914"/><text fill="#000000" font-family="Segoe UI" font-size="14" lengthAdjust="spacing" textLength="112.5332" x="355.8984" y="544.7266">svc-reservations</text></a></g><g class="participant participant-head" data-participant="DB"><text fill="#000000" font-family="Segoe UI" font-size="14" lengthAdjust="spacing" textLength="76.8496" x="545.1143" y="118.5117">PostgreSQL</text><path d="M568.5391,68.9766 C568.5391,58.9766 586.5391,58.9766 586.5391,58.9766 C586.5391,58.9766 604.5391,58.9766 604.5391,68.9766 L604.5391,94.9766 C604.5391,104.9766 586.5391,104.9766 586.5391,104.9766 C586.5391,104.9766 568.5391,104.9766 568.5391,94.9766 L568.5391,68.9766" fill="#FCE4EC" style="stroke:#181818;stroke-width:0.5;"/><path d="M568.5391,68.9766 C568.5391,78.9766 586.5391,78.9766 586.5391,78.9766 C586.5391,78.9766 604.5391,78.9766 604.5391,68.9766" fill="none" style="stroke:#181818;stroke-width:0.5;"/></g><g class="participant participant-tail" data-participant="DB"><text fill="#000000" font-family="Segoe UI" font-size="14" lengthAdjust="spacing" textLength="76.8496" x="545.1143" y="537.7266">PostgreSQL</text><path d="M568.5391,550.6797 C568.5391,540.6797 586.5391,540.6797 586.5391,540.6797 C586.5391,540.6797 604.5391,540.6797 604.5391,550.6797 L604.5391,576.6797 C604.5391,586.6797 586.5391,586.6797 586.5391,586.6797 C586.5391,586.6797 568.5391,586.6797 568.5391,576.6797 L568.5391,550.6797" fill="#FCE4EC" style="stroke:#181818;stroke-width:0.5;"/><path d="M568.5391,550.6797 C568.5391,560.6797 586.5391,560.6797 586.5391,560.6797 C586.5391,560.6797 604.5391,560.6797 604.5391,550.6797" fill="none" style="stroke:#181818;stroke-width:0.5;"/></g><g><title>API Gateway</title><rect fill="#7C3AED" height="319.1055" style="stroke:#A23B72;stroke-width:1;" width="10" x="285.6094" y="188.0859"/></g><g><title>svc-reservations</title><rect fill="#7C3AED" height="260.4844" style="stroke:#A23B72;stroke-width:1;" width="10" x="407.165" y="217.3965"/></g><g><title>PostgreSQL</title><rect fill="#FCE4EC" height="29.3105" style="stroke:#A23B72;stroke-width:1;" width="10" x="581.5391" y="325.3281"/></g><g><title>PostgreSQL</title><rect fill="#FCE4EC" height="29.3105" style="stroke:#A23B72;stroke-width:1;" width="10" x="581.5391" y="419.2598"/></g><path d="M341,136.4648 L341,161.4648 L481,161.4648 L481,146.4648 L471,136.4648 L341,136.4648" fill="#FEFFDD" style="stroke:#181818;stroke-width:0.5;"/><path d="M471,136.4648 L471,146.4648 L481,146.4648 L471,136.4648" fill="#FEFFDD" style="stroke:#181818;stroke-width:0.5;"/><a href="/services/api/svc-reservations.html#/Reservations/updateReservation" target="_top" title="/services/api/svc-reservations.html#/Reservations/updateReservation" xlink:actuate="onRequest" xlink:href="/services/api/svc-reservations.html#/Reservations/updateReservation" xlink:show="new" xlink:title="/services/api/svc-reservations.html#/Reservations/updateReservation" xlink:type="simple"><text fill="#0000FF" font-family="Segoe UI" font-size="13" lengthAdjust="spacing" text-decoration="underline" textLength="119.4058" x="347" y="154.0332">View in Swagger UI</text></a><g class="message" data-participant-1="Client" data-participant-2="GW"><polygon fill="#7C3AED" points="273.6094,184.0859,283.6094,188.0859,273.6094,192.0859,277.6094,188.0859" style="stroke:#7C3AED;stroke-width:1;"/><line style="stroke:#7C3AED;stroke-width:1;" x1="31.7524" x2="279.6094" y1="188.0859" y2="188.0859"/><text fill="#000000" font-family="Segoe UI" font-size="13" lengthAdjust="spacing" textLength="234.8569" x="38.7524" y="183.3438">PATCH /reservations/{reservation_id}</text></g><g class="message" data-participant-1="GW" data-participant-2="Svc"><polygon fill="#7C3AED" points="395.165,213.3965,405.165,217.3965,395.165,221.3965,399.165,217.3965" style="stroke:#7C3AED;stroke-width:1;"/><line style="stroke:#7C3AED;stroke-width:1;" x1="295.6094" x2="401.165" y1="217.3965" y2="217.3965"/><a href="/microservices/svc-reservations/#patch-reservationsreservation_id-update-a-reservation" target="_top" title="/microservices/svc-reservations/#patch-reservationsreservation_id-update-a-reservation" xlink:actuate="onRequest" xlink:href="/microservices/svc-reservations/#patch-reservationsreservation_id-update-a-reservation" xlink:show="new" xlink:title="/microservices/svc-reservations/#patch-reservationsreservation_id-update-a-reservation" xlink:type="simple"><text fill="#0000FF" font-family="Segoe UI" font-size="13" lengthAdjust="spacing" text-decoration="underline" textLength="85.1348" x="302.6094" y="212.6543">route request</text></a></g><path d="M422,230.3965 L422,255.3965 L580,255.3965 L580,240.3965 L570,230.3965 L422,230.3965" fill="#FEFFDD" style="stroke:#181818;stroke-width:0.5;"/><path d="M570,230.3965 L570,240.3965 L580,240.3965 L570,230.3965" fill="#FEFFDD" style="stroke:#181818;stroke-width:0.5;"/><text fill="#000000" font-family="Segoe UI" font-size="13" lengthAdjust="spacing" textLength="137.5728" x="428" y="247.9648">Validate request body</text><rect fill="#EEEEEE" height="3" style="stroke:#EEEEEE;stroke-width:1;" width="632.9639" x="0" y="281.3623"/><line style="stroke:#000000;stroke-width:1;" x1="0" x2="632.9639" y1="281.3623" y2="281.3623"/><line style="stroke:#000000;stroke-width:1;" x1="0" x2="632.9639" y1="284.3623" y2="284.3623"/><rect fill="#EEEEEE" height="23.3105" style="stroke:#000000;stroke-width:2;" width="80.3711" x="276.2964" y="270.707"/><text fill="#000000" font-family="Segoe UI" font-size="13" font-weight="bold" lengthAdjust="spacing" textLength="62.0864" x="282.2964" y="287.2754">Database</text><g class="message" data-participant-1="Svc" data-participant-2="DB"><polygon fill="#7C3AED" points="569.5391,321.3281,579.5391,325.3281,569.5391,329.3281,573.5391,325.3281" style="stroke:#7C3AED;stroke-width:1;"/><line style="stroke:#7C3AED;stroke-width:1;" x1="417.165" x2="575.5391" y1="325.3281" y2="325.3281"/><text fill="#000000" font-family="Segoe UI" font-size="13" lengthAdjust="spacing" textLength="145.374" x="424.165" y="320.5859">SELECT ... FOR UPDATE</text></g><g class="message" data-participant-1="DB" data-participant-2="Svc"><polygon fill="#7C3AED" points="428.165,350.6387,418.165,354.6387,428.165,358.6387,424.165,354.6387" style="stroke:#7C3AED;stroke-width:1;"/><line style="stroke:#7C3AED;stroke-width:1;stroke-dasharray:2,2;" x1="422.165" x2="585.5391" y1="354.6387" y2="354.6387"/><text fill="#000000" font-family="Segoe UI" font-size="13" lengthAdjust="spacing" textLength="75.3086" x="434.165" y="349.8965">Current row</text></g><path d="M422,367.6387 L422,392.6387 L608,392.6387 L608,377.6387 L598,367.6387 L422,367.6387" fill="#FEFFDD" style="stroke:#181818;stroke-width:0.5;"/><path d="M598,367.6387 L598,377.6387 L608,377.6387 L598,367.6387" fill="#FEFFDD" style="stroke:#181818;stroke-width:0.5;"/><text fill="#000000" font-family="Segoe UI" font-size="13" lengthAdjust="spacing" textLength="165.9023" x="428" y="385.207">Merge changed fields only</text><g class="message" data-participant-1="Svc" data-participant-2="DB"><polygon fill="#7C3AED" points="569.5391,415.2598,579.5391,419.2598,569.5391,423.2598,573.5391,419.2598" style="stroke:#7C3AED;stroke-width:1;"/><line style="stroke:#7C3AED;stroke-width:1;" x1="417.165" x2="575.5391" y1="419.2598" y2="419.2598"/><text fill="#000000" font-family="Segoe UI" font-size="13" lengthAdjust="spacing" textLength="109.4526" x="424.165" y="414.5176">UPDATE ... SET ...</text></g><g class="message" data-participant-1="DB" data-participant-2="Svc"><polygon fill="#7C3AED" points="428.165,444.5703,418.165,448.5703,428.165,452.5703,424.165,448.5703" style="stroke:#7C3AED;stroke-width:1;"/><line style="stroke:#7C3AED;stroke-width:1;stroke-dasharray:2,2;" x1="422.165" x2="585.5391" y1="448.5703" y2="448.5703"/><text fill="#000000" font-family="Segoe UI" font-size="13" lengthAdjust="spacing" textLength="80.2725" x="434.165" y="443.8281">Updated row</text></g><g class="message" data-participant-1="Svc" data-participant-2="GW"><polygon fill="#7C3AED" points="306.6094,473.8809,296.6094,477.8809,306.6094,481.8809,302.6094,477.8809" style="stroke:#7C3AED;stroke-width:1;"/><line style="stroke:#7C3AED;stroke-width:1;stroke-dasharray:2,2;" x1="300.6094" x2="411.165" y1="477.8809" y2="477.8809"/><text fill="#000000" font-family="Segoe UI" font-size="13" lengthAdjust="spacing" textLength="47.3599" x="312.6094" y="473.1387">200 OK</text></g><g class="message" data-participant-1="GW" data-participant-2="Client"><polygon fill="#7C3AED" points="42.7524,503.1914,32.7524,507.1914,42.7524,511.1914,38.7524,507.1914" style="stroke:#7C3AED;stroke-width:1;"/><line style="stroke:#7C3AED;stroke-width:1;stroke-dasharray:2,2;" x1="36.7524" x2="289.6094" y1="507.1914" y2="507.1914"/><text fill="#000000" font-family="Segoe UI" font-size="13" lengthAdjust="spacing" textLength="47.3599" x="48.7524" y="502.4492">200 OK</text></g><!--SRC=[ZLDTRzem57tthxY2PpuArK18J0eXOMYiPGNQXmvD9hu4gy5cje6XglzzTW8qAKXhykBudDnpxhcsVk5YGnLTmu96Bx6IMy5ycKW5vJ1mBz5dXbvH9lTSnB2aYSOSmd19jua9fJ1tT8rGcc0i4MR3Klvt_BD54I6y4h2FfvJS7wLQKPCYIxV7L1aUyGqLfYSLGtMaD8Bs5wztGVbeEcY7js4xfOtu4aTSOA6CrsZsMeqKxyc_1IYyQOVrcpDq4KSOMZo5xwGfLerQhKKpXrs9iXcqo1iXXfi4OUnD_MzGKwXHxQZXKkZQQ-xhDsTllyHimwX1e9132DcyTmybF-4eJ0ceXcnPXBtn40QsnfuUKixW2ShzNk3PiHPuUXTLycPIycGNmVDpRSqZ9Ht48zIrZypQV7uEtRgb2whj-CTIcrZXvESehTJlsGZyu3Rm2H4s7v0xLAw-JSmgd8lJ3RyGgAxCEYdN7lAQspIOt1OySjm35p3PqpYsjMV3-PoWOE3a2CcoWSfNbq3dK_4J6Xc-S_cxq8u7r2vj3HTCvnFHb3VKHAl2Nb6aaZLIeNaEs8DZLPMxBThODiv6dEx9IPQZul7AW5mUBJtIXAT7vlWpB2Gx4DBjGlyqccwN44UsRTYfT60IZ09_2jLg5SBx1vYD-zuqU9VCJSukA-Vc_QrIBb5xXGd37Fsghn-eOeHeHKMC39OS4wP1YkHGz9A9frucGUhf_qQoEyAk6CbAdqRUgDVX_dkUuewVcwTb78_7DTRWYVm3]--></g></svg>