<svg xmlns="http://www.w3.org/2000/svg" xmlns:xlink="http://www.w3.org/1999/xlink" contentStyleType="text/css" data-diagram-type="SEQUENCE" height="581px" preserveAspectRatio="none" style="width:771px;height:581px;background:#FEFEFE;" version="1.1" viewBox="0 0 771 581" width="771px" zoomAndPan="magnify"><title>DELETE /media/{media_id}</title><defs/><g><rect fill="#FEFEFE" height="581" style="stroke:none;stroke-width:1;" width="771" x="0" y="0"/><text fill="#000000" font-family="Segoe UI" font-size="14" font-weight="bold" lengthAdjust="spacing" textLength="193.457" x="284.8" y="41.3125">DELETE /media/{media_id}</text><text fill="#000000" font-family="Segoe UI" font-size="14" font-weight="bold" lengthAdjust="spacing" textLength="143.8555" x="309.6008" y="57.8008">Delete a media item</text><g><title>API Gateway</title><rect fill="#DC2626" height="283.7949" style="stroke:#A23B72;stroke-width:1;" width="10" x="218.4194" y="200.8633"/></g><g><title>svc-media-gallery</title><rect fill="#DC2626" height="225.1738" style="stroke:#A23B72;stroke-width:1;" width="10" x="352.979" y="230.1738"/></g><g><title>PostgreSQL</title><rect fill="#FCE4EC" height="29.3105" style="stroke:#A23B72;stroke-width:1;" width="10" x="572.2563" y="302.7949"/></g><g><title>PostgreSQL</title><rect fill="#FCE4EC" height="29.3105" style="stroke:#A23B72;stroke-width:1;" width="10" x="572.2563" y="396.7266"/></g><g><title>Client</title><rect fill="#000000" fill-opacity="0.00000" height="368.416" width="8" x="27.7524" y="134.2422"/><line style="stroke:#A23B72;stroke-width:0.5;stroke-dasharray:5,5;" x1="31" x2="31" y1="134.2422" y2="502.6582"/></g><g><title>API Gateway</title><rect fill="#000000" fill-opacity="0.00000" height="368.416" width="8" x="219.4194" y="134.2422"/><line style="stroke:#A23B72;stroke-width:0.5;stroke-dasharray:5,5;" x1="223.1304" x2="223.1304" y1="134.2422" y2="502.6582"/></g><g><title>svc-media-gallery</title><rect fill="#000000" fill-opacity="0.00000" height="368.416" width="8" x="353.979" y="134.2422"/><line style="stroke:#A23B72;stroke-width:0.5;stroke-dasharray:5,5;" x1="357.6729" x2="357.6729" y1="134.2422" y2="502.6582"/></g><g><title>PostgreSQL</title><rect fill="#000000" fill-opacity="0.00000" height="368.416" width="8" x="573.2563" y="134.2422"/><line style="stroke:#A23B72;stroke-width:0.5;stroke-dasharray:5,5;" x1="576.8315" x2="576.8315" y1="134.2422" y2="502.6582"/></g><g class="participant participant-head" data-participant="Client"><rect fill="#E8F4F8" height="30.4883" rx="2.5" ry="2.5" style="stroke:#2E86AB;stroke-width:0.5;" width="53.5049" x="5" y="102.7539"/><text fill="#000000" font-family="Segoe UI" font-size="14" lengthAdjust="spacing" textLength="39.5049" x="12" y="123.2891">Client</text></g><g class="participant participant-tail" data-participant="Client"><rect fill="#E8F4F8" height="30.4883" rx="2.5" ry="2.5" style="stroke:#2E86AB;stroke-width:0.5;" width="53.5049" x="5" y="501.6582"/><text fill="#000000" font-family="Segoe UI" font-size="14" lengthAdjust="spacing" textLength="39.5049" x="12" y="522.1934">Client</text></g><g class="participant participant-head" data-participant="GW"><rect fill="#DBEAFE" height="30.4883" rx="2.5" ry="2.5" style="stroke:#2E86AB;stroke-width:0.5;" width="96.5781" x="175.1304" y="102.7539"/><text fill="#000000" font-family="Segoe UI" font-size="14" lengthAdjust="spacing" textLength="82.5781" x="182.1304" y="123.2891">API Gateway</text></g><g class="participant participant-tail" data-participant="GW"><rect fill="#DBEAFE" height="30.4883" rx="2.5" ry="2.5" style="stroke:#2E86AB;stroke-width:0.5;" width="96.5781" x="175.1304" y="501.6582"/><text fill="#000000" font-family="Segoe UI" font-size="14" lengthAdjust="spacing" textLength="82.5781" x="182.1304" y="522.1934">API Gateway</text></g><g class="participant participant-head" data-participant="Svc"><a href="/microservices/svc-media-gallery/" target="_top" title="/microservices/svc-media-gallery/" xlink:actuate="onRequest" xlink:href="/microservices/svc-media-gallery/" xlink:show="new" xlink:title="/microservices/svc-media-gallery/" xlink:type="simple"><rect fill="#E8F4F8" height="30.4883" rx="2.5" ry="2.5" style="stroke:#2E86AB;stroke-width:0.5;" width="138.6123" x="288.6729" y="102.7539"/><text fill="#000000" font-family="Segoe UI" font-size="14" lengthAdjust="spacing" textLength="124.6123" x="295.6729" y="123.2891">svc-media-gallery</text></a></g><g class="participant participant-tail" data-participant="Svc"><a href="/microservices/svc-media-gallery/" target="_top" title="/microservices/svc-media-gallery/" xlink:actuate="onRequest" xlink:href="/microservices/svc-media-gallery/" xlink:show="new" xlink:title="/microservices/svc-media-gallery/" xlink:type="simple"><rect fill="#E8F4F8" height="30.4883" rx="2.5" ry="2.5" style="stroke:#2E86AB;stroke-width:0.5;" width="138.6123" x="288.6729" y="501.6582"/><text fill="#000000" font-family="Segoe UI" font-size="14" lengthAdjust="spacing" textLength="124.6123" x="295.6729" y="522.1934">svc-media-gallery</text></a></g><g class="participant participant-head" data-participant="DB"><text fill="#000000" font-family="Segoe UI" font-size="14" lengthAdjust="spacing" textLength="76.8496" x="535.8315" y="131.2891">PostgreSQL</text><path d="M559.2563,81.7539 C559.2563,71.7539 577.2563,71.7539 577.2563,71.7539 C577.2563,71.7539 595.2563,71.7539 595.2563,81.7539 L595.2563,107.7539 C595.2563,117.7539 577.2563,117.7539 577.2563,117.7539 C577.2563,117.7539 559.2563,117.7539 559.2563,107.7539 L559.2563,81.7539" fill="#FCE4EC" style="stroke:#181818;stroke-width:0.5;"/><path d="M559.2563,81.7539 C559.2563,91.7539 577.2563,91.7539 577.2563,91.7539 C577.2563,91.7539 595.2563,91.7539 595.2563,81.7539" fill="none" style="stroke:#181818;stroke-width:0.5;"/></g><g class="participant participant-tail" data-participant="DB"><text fill="#000000" font-family="Segoe UI" font-size="14" lengthAdjust="spacing" textLength="76.8496" x="535.8315" y="515.1934">PostgreSQL</text><path d="M559.2563,528.1465 C559.2563,518.1465 577.2563,518.1465 577.2563,518.1465 C577.2563,518.1465 595.2563,518.1465 595.2563,528.1465 L595.2563,554.1465 C595.2563,564.1465 577.2563,564.1465 577.2563,564.1465 C577.2563,564.1465 559.2563,564.1465 559.2563,554.1465 L559.2563,528.1465" fill="#FCE4EC" style="stroke:#181818;stroke-width:0.5;"/><path d="M559.2563,528.1465 C559.2563,538.1465 577.2563,538.1465 577.2563,538.1465 C577.2563,538.1465 595.2563,538.1465 595.2563,528.1465" fill="none" style="stroke:#181818;stroke-width:0.5;"/></g><g><title>API Gateway</title><rect fill="#DC2626" height="283.7949" style="stroke:#A23B72;stroke-width:1;" width="10" x="218.4194" y="200.8633"/></g><g><title>svc-media-gallery</title><rect fill="#DC2626" height="225.1738" style="stroke:#A23B72;stroke-width:1;" width="10" x="352.979" y="230.1738"/></g><g><title>PostgreSQL</title><rect fill="#FCE4EC" height="29.3105" style="stroke:#A23B72;stroke-width:1;" width="10" x="572.2563" y="302.7949"/></g><g><title>PostgreSQL</title><rect fill="#FCE4EC" height="29.3105" style="stroke:#A23B72;stroke-width:1;" width="10" x="572.2563" y="396.7266"/></g><path d="M287,149.2422 L287,174.2422 L427,174.2422 L427,159.2422 L417,149.2422 L287,149.2422" fill="#FEFFDD" style="stroke:#181818;stroke-width:0.5;"/><path d="M417,149.2422 L417,159.2422 L427,159.2422 L417,149.2422" fill="#FEFFDD" style="stroke:#181818;stroke-width:0.5;"/><a href="/services/api/svc-media-gallery.html#/Media/deleteMedia" target="_top" title="/services/api/svc-media-gallery.html#/Media/deleteMedia" xlink:actuate="onRequest" xlink:href="/services/api/svc-media-gallery.html#/Media/deleteMedia" xlink:show="new" xlink:title="/services/api/svc-media-gallery.html#/Media/deleteMedia" xlink:type="simple"><text fill="#0000FF" font-family="Segoe UI" font-size="13" lengthAdjust="spacing" text-decoration="underline" textLength="119.4058" x="293" y="166.8105">View in Swagger UI</text></a><g class="message" data-participant-1="Client" data-participant-2="GW"><polygon fill="#DC2626" points="206.4194,196.8633,216.4194,200.8633,206.4194,204.8633,210.4194,200.8633" style="stroke:#DC2626;stroke-width:1;"/><line style="stroke:#DC2626;stroke-width:1;" x1="31.7524" x2="212.4194" y1="200.8633" y2="200.8633"/><text fill="#000000" font-family="Segoe UI" font-size="13" lengthAdjust="spacing" textLength="167.667" x="38.7524" y="196.1211">DELETE /media/{media_id}</text></g><g class="message" data-participant-1="GW" data-participant-2="Svc"><polygon fill="#DC2626" points="340.979,226.1738,350.979,230.1738,340.979,234.1738,344.979,230.1738" style="stroke:#DC2626;stroke-width:1;"/><line style="stroke:#DC2626;stroke-width:1;" x1="228.4194" x2="346.979" y1="230.1738" y2="230.1738"/><text fill="#000000" font-family="Segoe UI" font-size="13" lengthAdjust="spacing" textLength="85.1348" x="235.4194" y="225.4316">route request</text></g><rect fill="#EEEEEE" height="3" style="stroke:#EEEEEE;stroke-width:1;" width="764.0571" x="0" y="258.8291"/><line style="stroke:#000000;stroke-width:1;" x1="0" x2="764.0571" y1="258.8291" y2="258.8291"/><line style="stroke:#000000;stroke-width:1;" x1="0" x2="764.0571" y1="261.8291" y2="261.8291"/><rect fill="#EEEEEE" height="23.3105" style="stroke:#000000;stroke-width:2;" width="80.3711" x="341.843" y="248.1738"/><text fill="#000000" font-family="Segoe UI" font-size="13" font-weight="bold" lengthAdjust="spacing" textLength="62.0864" x="347.843" y="264.7422">Database</text><g class="message" data-participant-1="Svc" data-participant-2="DB"><polygon fill="#DC2626" points="560.2563,298.7949,570.2563,302.7949,560.2563,306.7949,564.2563,302.7949" style="stroke:#DC2626;stroke-width:1;"/><line style="stroke:#DC2626;stroke-width:1;" x1="362.979" x2="566.2563" y1="302.7949" y2="302.7949"/><text fill="#000000" font-family="Segoe UI" font-size="13" lengthAdjust="spacing" textLength="148.8906" x="369.979" y="298.0527">SELECT ... WHERE id = ?</text></g><g class="message" data-participant-1="DB" data-participant-2="Svc"><polygon fill="#DC2626" points="373.979,328.1055,363.979,332.1055,373.979,336.1055,369.979,332.1055" style="stroke:#DC2626;stroke-width:1;"/><line style="stroke:#DC2626;stroke-width:1;stroke-dasharray:2,2;" x1="367.979" x2="576.2563" y1="332.1055" y2="332.1055"/><text fill="#000000" font-family="Segoe UI" font-size="13" lengthAdjust="spacing" textLength="26.2222" x="379.979" y="327.3633">Row</text></g><path d="M582,345.1055 L582,370.1055 L759,370.1055 L759,355.1055 L749,345.1055 L582,345.1055" fill="#FEFFDD" style="stroke:#181818;stroke-width:0.5;"/><path d="M749,345.1055 L749,355.1055 L759,355.1055 L749,345.1055" fill="#FEFFDD" style="stroke:#181818;stroke-width:0.5;"/><text fill="#000000" font-family="Segoe UI" font-size="13" lengthAdjust="spacing" textLength="156.0571" x="588" y="362.6738">Returns 404 if not found</text><g class="message" data-participant-1="Svc" data-participant-2="DB"><polygon fill="#DC2626" points="560.2563,392.7266,570.2563,396.7266,560.2563,400.7266,564.2563,396.7266" style="stroke:#DC2626;stroke-width:1;"/><line style="stroke:#DC2626;stroke-width:1;" x1="362.979" x2="566.2563" y1="396.7266" y2="396.7266"/><text fill="#000000" font-family="Segoe UI" font-size="13" lengthAdjust="spacing" textLength="190.2773" x="369.979" y="391.9844">DELETE FROM ... WHERE id = ?</text></g><g class="message" data-participant-1="DB" data-participant-2="Svc"><polygon fill="#DC2626" points="373.979,422.0371,363.979,426.0371,373.979,430.0371,369.979,426.0371" style="stroke:#DC2626;stroke-width:1;"/><line style="stroke:#DC2626;stroke-width:1;stroke-dasharray:2,2;" x1="367.979" x2="576.2563" y1="426.0371" y2="426.0371"/><text fill="#000000" font-family="Segoe UI" font-size="13" lengthAdjust="spacing" textLength="18.5859" x="379.979" y="421.2949">OK</text></g><g class="message" data-participant-1="Svc" data-participant-2="GW"><polygon fill="#DC2626" points="239.4194,451.3477,229.4194,455.3477,239.4194,459.3477,235.4194,455.3477" style="stroke:#DC2626;stroke-width:1;"/><line style="stroke:#DC2626;stroke-width:1;stroke-dasharray:2,2;" x1="233.4194" x2="356.979" y1="455.3477" y2="455.3477"/><text fill="#000000" font-family="Segoe UI" font-size="13" lengthAdjust="spacing" textLength="100.5596" x="245.4194" y="450.6055">204 No Content</text></g><g class="message" data-participant-1="GW" data-participant-2="Client"><polygon fill="#DC2626" points="42.7524,480.6582,32.7524,484.6582,42.7524,488.6582,38.7524,484.6582" style="stroke:#DC2626;stroke-width:1;"/><line style="stroke:#DC2626;stroke-width:1;stroke-dasharray:2,2;" x1="36.7524" x2="222.4194" y1="484.6582" y2="484.6582"/><text fill="#000000" font-family="Segoe UI" font-size="13" lengthAdjust="spacing" textLength="100.5596" x="48.7524" y="479.916">204 No Content</text></g><a href="/microservices/svc-media-gallery/#integration-context" target="_top" title="/microservices/svc-media-gallery/#integration-context" xlink:actuate="onRequest" xlink:href="/microservices/svc-media-gallery/#integration-context" xlink:show="new" xlink:title="/microservices/svc-media-gallery/#integration-context" xlink:type="simple"><text fill="#0000FF" font-family="Segoe UI" font-size="10" lengthAdjust="spacing" text-decoration="underline" textLength="200.1807" x="562.8765" y="14.668">&#11014; svc-media-gallery Integration Context</text></a><!--SRC=[dPFRRjf048Rlzob6S0qaW00XqGg3JL49eP2KYnHLYpsOLSmkNI-GACfjdwPFrIVfUCt1XBQgQYwyyl_l7BuPuaSXrrpp5Sov_nXgjP51HqLAGzvpan-BZuvuoGEr4pA41OzYp2W1BlWcCfwIPiXN2Ba9XWhXlf_BNiTl6vG-mWi3UjfQgzq-LU2NQ-MQ_JpYsWXVhBaqZj81whsbx3PgRUV2yhPej-5LlOQr3SG21qBYMPXskUBKorPtrDEPv5qtlAlhetI1m_D8j_9GcVEeVhq-hsIqtw2ik7NsojWIELs3XuVIIlXQnQYtmiUu56_zmWe3mGiXZoBKpwMya0P3pOrGik0JMNmoyFF7TxYmGl_aX4xgdCqOCy9425rtuDwvKB9NIY_szLK4hrza5oCq21piDn06LuojJt0Xrua4IfC37aDwF9VRepxqkC4TVxQUtXJoNSTjqzQS-Iugjkx9rlyN3hFPSQe1DtpEOzglaOfDg77oQM13THrYt76hReSnIGC0jIN8b816GYcEqVbQN6OeBiqgofTkB9_0Ch5d-2nm1qB2PCV3aEBTzuagoW2I58obHA3mBkcx-KVEZFj6R8cInRFVT3hIlOH04sXHIDJ9loCs9tSY7koirOBkeVbMYx54f03KTnCcbBXp1yLY4QOVtB4B8e0Ml3z5oj2XO-6OUAnsBC2CBMMdHRWqe1Pfz36QZPOnLA-g81P9wx18DlkyXdtptlZsvZyAkVtufeuqze5icL8FLRhPj88PQpBX12KvzzFucxitPRy0]--></g></svg>