<?plantuml 1.2026.2?><svg xmlns="http://www.w3.org/2000/svg" xmlns:xlink="http://www.w3.org/1999/xlink" contentStyleType="text/css" data-diagram-type="SEQUENCE" height="616px" preserveAspectRatio="none" style="width:668px;height:616px;background:#FEFEFE;" version="1.1" viewBox="0 0 668 616" width="668px" zoomAndPan="magnify"><title>PUT /gear-items/{item_id}/maintenance
Log a maintenance event</title><defs/><g><rect fill="#FEFEFE" height="616" style="stroke:none;stroke-width:1;" width="668" x="0" y="0"/><text fill="#000000" font-family="'Segoe UI'" font-size="14" font-weight="bold" lengthAdjust="spacing" textLength="292.7285" x="183.9949" y="41.3125">PUT /gear-items/{item_id}/maintenance</text><text fill="#000000" font-family="'Segoe UI'" font-size="14" font-weight="bold" lengthAdjust="spacing" textLength="179.6758" x="240.5212" y="57.8008">Log a maintenance event</text><g><title>API Gateway</title><rect fill="#C77B30" height="319.1055" style="stroke:#181818;stroke-width:1;" width="10" x="305.084" y="200.8633"/></g><g><title>svc-gear-inventory</title><rect fill="#C77B30" height="260.4844" style="stroke:#181818;stroke-width:1;" width="10" x="435.9194" y="230.1738"/></g><g><title>PostgreSQL</title><rect fill="#FCE4EC" height="29.3105" style="stroke:#181818;stroke-width:1;" width="10" x="610.2935" y="338.1055"/></g><g><title>PostgreSQL</title><rect fill="#FCE4EC" height="29.3105" style="stroke:#181818;stroke-width:1;" width="10" x="610.2935" y="432.0371"/></g><g class="participant-lifeline" data-entity-uid="part1" data-qualified-name="Client" id="part1-lifeline"><g><title>Client</title><rect fill="#000000" fill-opacity="0.00000" height="403.7266" width="8" x="27.7524" y="134.2422"/><line style="stroke:#A23B72;stroke-width:0.5;stroke-dasharray:5,5;" x1="31" x2="31" y1="134.2422" y2="537.9688"/></g></g><g class="participant-lifeline" data-entity-uid="part2" data-qualified-name="GW" id="part2-lifeline"><g><title>API Gateway</title><rect fill="#000000" fill-opacity="0.00000" height="403.7266" width="8" x="306.084" y="134.2422"/><line style="stroke:#A23B72;stroke-width:0.5;stroke-dasharray:5,5;" x1="309.7949" x2="309.7949" y1="134.2422" y2="537.9688"/></g></g><g class="participant-lifeline" data-entity-uid="part3" data-qualified-name="Svc" id="part3-lifeline"><g><title>svc-gear-inventory</title><rect fill="#000000" fill-opacity="0.00000" height="403.7266" width="8" x="436.9194" y="134.2422"/><line style="stroke:#A23B72;stroke-width:0.5;stroke-dasharray:5,5;" x1="440.373" x2="440.373" y1="134.2422" y2="537.9688"/></g></g><g class="participant-lifeline" data-entity-uid="part4" data-qualified-name="DB" id="part4-lifeline"><g><title>PostgreSQL</title><rect fill="#000000" fill-opacity="0.00000" height="403.7266" width="8" x="611.2935" y="134.2422"/><line style="stroke:#A23B72;stroke-width:0.5;stroke-dasharray:5,5;" x1="614.8687" x2="614.8687" y1="134.2422" y2="537.9688"/></g></g><g class="participant participant-head" data-entity-uid="part1" data-qualified-name="Client" id="part1-head"><a href="/applications/" target="_top" title="/applications/" xlink:actuate="onRequest" xlink:href="/applications/" xlink:show="new" xlink:title="/applications/" xlink:type="simple"><rect fill="#E8F4F8" height="30.4883" rx="2.5" ry="2.5" style="stroke:#2E86AB;stroke-width:0.5;" width="53.5049" x="5" y="102.7539"/><text fill="#000000" font-family="'Segoe UI'" font-size="14" lengthAdjust="spacing" textLength="39.5049" x="12" y="123.2891">Client</text></a></g><g class="participant participant-tail" data-entity-uid="part1" data-qualified-name="Client" id="part1-tail"><a href="/applications/" target="_top" title="/applications/" xlink:actuate="onRequest" xlink:href="/applications/" xlink:show="new" xlink:title="/applications/" xlink:type="simple"><rect fill="#E8F4F8" height="30.4883" rx="2.5" ry="2.5" style="stroke:#2E86AB;stroke-width:0.5;" width="53.5049" x="5" y="536.9688"/><text fill="#000000" font-family="'Segoe UI'" font-size="14" lengthAdjust="spacing" textLength="39.5049" x="12" y="557.5039">Client</text></a></g><g class="participant participant-head" data-entity-uid="part2" data-qualified-name="GW" id="part2-head"><a href="/actors/#api-gateway" target="_top" title="/actors/#api-gateway" xlink:actuate="onRequest" xlink:href="/actors/#api-gateway" xlink:show="new" xlink:title="/actors/#api-gateway" xlink:type="simple"><rect fill="#DBEAFE" height="30.4883" rx="2.5" ry="2.5" style="stroke:#2E86AB;stroke-width:0.5;" width="96.5781" x="261.7949" y="102.7539"/><text fill="#000000" font-family="'Segoe UI'" font-size="14" lengthAdjust="spacing" textLength="82.5781" x="268.7949" y="123.2891">API Gateway</text></a></g><g class="participant participant-tail" data-entity-uid="part2" data-qualified-name="GW" id="part2-tail"><a href="/actors/#api-gateway" target="_top" title="/actors/#api-gateway" xlink:actuate="onRequest" xlink:href="/actors/#api-gateway" xlink:show="new" xlink:title="/actors/#api-gateway" xlink:type="simple"><rect fill="#DBEAFE" height="30.4883" rx="2.5" ry="2.5" style="stroke:#2E86AB;stroke-width:0.5;" width="96.5781" x="261.7949" y="536.9688"/><text fill="#000000" font-family="'Segoe UI'" font-size="14" lengthAdjust="spacing" textLength="82.5781" x="268.7949" y="557.5039">API Gateway</text></a></g><g class="participant participant-head" data-entity-uid="part3" data-qualified-name="Svc" id="part3-head"><a href="/microservices/svc-gear-inventory/" target="_top" title="/microservices/svc-gear-inventory/" xlink:actuate="onRequest" xlink:href="/microservices/svc-gear-inventory/" xlink:show="new" xlink:title="/microservices/svc-gear-inventory/" xlink:type="simple"><rect fill="#E8F4F8" height="30.4883" rx="2.5" ry="2.5" style="stroke:#2E86AB;stroke-width:0.5;" width="145.0928" x="368.373" y="102.7539"/><text fill="#000000" font-family="'Segoe UI'" font-size="14" lengthAdjust="spacing" textLength="131.0928" x="375.373" y="123.2891">svc-gear-inventory</text></a></g><g class="participant participant-tail" data-entity-uid="part3" data-qualified-name="Svc" id="part3-tail"><a href="/microservices/svc-gear-inventory/" target="_top" title="/microservices/svc-gear-inventory/" xlink:actuate="onRequest" xlink:href="/microservices/svc-gear-inventory/" xlink:show="new" xlink:title="/microservices/svc-gear-inventory/" xlink:type="simple"><rect fill="#E8F4F8" height="30.4883" rx="2.5" ry="2.5" style="stroke:#2E86AB;stroke-width:0.5;" width="145.0928" x="368.373" y="536.9688"/><text fill="#000000" font-family="'Segoe UI'" font-size="14" lengthAdjust="spacing" textLength="131.0928" x="375.373" y="557.5039">svc-gear-inventory</text></a></g><g class="participant participant-head" data-entity-uid="part4" data-qualified-name="DB" id="part4-head"><text fill="#000000" font-family="'Segoe UI'" font-size="14" lengthAdjust="spacing" textLength="76.8496" x="573.8687" y="131.2891">PostgreSQL</text><path d="M597.2935,81.7539 C597.2935,71.7539 615.2935,71.7539 615.2935,71.7539 C615.2935,71.7539 633.2935,71.7539 633.2935,81.7539 L633.2935,107.7539 C633.2935,117.7539 615.2935,117.7539 615.2935,117.7539 C615.2935,117.7539 597.2935,117.7539 597.2935,107.7539 L597.2935,81.7539" fill="#FCE4EC" style="stroke:#181818;stroke-width:0.5;"/><path d="M597.2935,81.7539 C597.2935,91.7539 615.2935,91.7539 615.2935,91.7539 C615.2935,91.7539 633.2935,91.7539 633.2935,81.7539" fill="none" style="stroke:#181818;stroke-width:0.5;"/></g><g class="participant participant-tail" data-entity-uid="part4" data-qualified-name="DB" id="part4-tail"><text fill="#000000" font-family="'Segoe UI'" font-size="14" lengthAdjust="spacing" textLength="76.8496" x="573.8687" y="550.5039">PostgreSQL</text><path d="M597.2935,563.457 C597.2935,553.457 615.2935,553.457 615.2935,553.457 C615.2935,553.457 633.2935,553.457 633.2935,563.457 L633.2935,589.457 C633.2935,599.457 615.2935,599.457 615.2935,599.457 C615.2935,599.457 597.2935,599.457 597.2935,589.457 L597.2935,563.457" fill="#FCE4EC" style="stroke:#181818;stroke-width:0.5;"/><path d="M597.2935,563.457 C597.2935,573.457 615.2935,573.457 615.2935,573.457 C615.2935,573.457 633.2935,573.457 633.2935,563.457" fill="none" style="stroke:#181818;stroke-width:0.5;"/></g><g><title>API Gateway</title><rect fill="#C77B30" height="319.1055" style="stroke:#181818;stroke-width:1;" width="10" x="305.084" y="200.8633"/></g><g><title>svc-gear-inventory</title><rect fill="#C77B30" height="260.4844" style="stroke:#181818;stroke-width:1;" width="10" x="435.9194" y="230.1738"/></g><g><title>PostgreSQL</title><rect fill="#FCE4EC" height="29.3105" style="stroke:#181818;stroke-width:1;" width="10" x="610.2935" y="338.1055"/></g><g><title>PostgreSQL</title><rect fill="#FCE4EC" height="29.3105" style="stroke:#181818;stroke-width:1;" width="10" x="610.2935" y="432.0371"/></g><path d="M370,149.2422 L370,174.2422 L510,174.2422 L510,159.2422 L500,149.2422 L370,149.2422" fill="#FEFFDD" style="stroke:#181818;stroke-width:0.5;"/><path d="M500,149.2422 L500,159.2422 L510,159.2422 L500,149.2422" fill="#FEFFDD" style="stroke:#181818;stroke-width:0.5;"/><a href="/services/api/svc-gear-inventory.html#/Maintenance/logMaintenanceEvent" target="_top" title="/services/api/svc-gear-inventory.html#/Maintenance/logMaintenanceEvent" xlink:actuate="onRequest" xlink:href="/services/api/svc-gear-inventory.html#/Maintenance/logMaintenanceEvent" xlink:show="new" xlink:title="/services/api/svc-gear-inventory.html#/Maintenance/logMaintenanceEvent" xlink:type="simple"><text fill="#0000FF" font-family="'Segoe UI'" font-size="13" lengthAdjust="spacing" text-decoration="underline" textLength="119.4058" x="376" y="166.8105">View in Swagger UI</text></a><g class="message" data-entity-1="part1" data-entity-2="part2" id="msg1"><polygon fill="#C77B30" points="293.084,196.8633,303.084,200.8633,293.084,204.8633,297.084,200.8633" style="stroke:#C77B30;stroke-width:1;"/><line style="stroke:#C77B30;stroke-width:1;" x1="31.7524" x2="299.084" y1="200.8633" y2="200.8633"/><text fill="#000000" font-family="'Segoe UI'" font-size="13" lengthAdjust="spacing" textLength="254.3315" x="38.7524" y="196.1211">PUT /gear-items/{item_id}/maintenance</text></g><g class="message" data-entity-1="part2" data-entity-2="part3" id="msg2"><polygon fill="#C77B30" points="423.9194,226.1738,433.9194,230.1738,423.9194,234.1738,427.9194,230.1738" style="stroke:#C77B30;stroke-width:1;"/><line style="stroke:#C77B30;stroke-width:1;" x1="315.084" x2="429.9194" y1="230.1738" y2="230.1738"/><text fill="#000000" font-family="'Segoe UI'" font-size="13" lengthAdjust="spacing" textLength="85.1348" x="322.084" y="225.4316">route request</text></g><path d="M450,243.1738 L450,268.1738 L608,268.1738 L608,253.1738 L598,243.1738 L450,243.1738" fill="#FEFFDD" style="stroke:#181818;stroke-width:0.5;"/><path d="M598,243.1738 L598,253.1738 L608,253.1738 L598,243.1738" fill="#FEFFDD" style="stroke:#181818;stroke-width:0.5;"/><text fill="#000000" font-family="'Segoe UI'" font-size="13" lengthAdjust="spacing" textLength="137.5728" x="456" y="260.7422">Validate request body</text><rect fill="#EEEEEE" height="3" style="stroke:#EEEEEE;stroke-width:1;" width="661.7183" x="0" y="294.1396"/><line style="stroke:#000000;stroke-width:1;" x1="0" x2="661.7183" y1="294.1396" y2="294.1396"/><line style="stroke:#000000;stroke-width:1;" x1="0" x2="661.7183" y1="297.1396" y2="297.1396"/><rect fill="#EEEEEE" height="23.3105" style="stroke:#000000;stroke-width:2;" width="80.3711" x="290.6736" y="283.4844"/><text fill="#000000" font-family="'Segoe UI'" font-size="13" font-weight="bold" lengthAdjust="spacing" textLength="62.0864" x="296.6736" y="300.0527">Database</text><g class="message" data-entity-1="part3" data-entity-2="part4" id="msg3"><polygon fill="#C77B30" points="598.2935,334.1055,608.2935,338.1055,598.2935,342.1055,602.2935,338.1055" style="stroke:#C77B30;stroke-width:1;"/><line style="stroke:#C77B30;stroke-width:1;" x1="445.9194" x2="604.2935" y1="338.1055" y2="338.1055"/><text fill="#000000" font-family="'Segoe UI'" font-size="13" lengthAdjust="spacing" textLength="145.374" x="452.9194" y="333.3633">SELECT ... FOR UPDATE</text></g><g class="message" data-entity-1="part4" data-entity-2="part3" id="msg4"><polygon fill="#C77B30" points="456.9194,363.416,446.9194,367.416,456.9194,371.416,452.9194,367.416" style="stroke:#C77B30;stroke-width:1;"/><line style="stroke:#C77B30;stroke-width:1;stroke-dasharray:2,2;" x1="450.9194" x2="614.2935" y1="367.416" y2="367.416"/><text fill="#000000" font-family="'Segoe UI'" font-size="13" lengthAdjust="spacing" textLength="75.3086" x="462.9194" y="362.6738">Current row</text></g><path d="M450,380.416 L450,405.416 L613,405.416 L613,390.416 L603,380.416 L450,380.416" fill="#FEFFDD" style="stroke:#181818;stroke-width:0.5;"/><path d="M603,380.416 L603,390.416 L613,390.416 L603,380.416" fill="#FEFFDD" style="stroke:#181818;stroke-width:0.5;"/><text fill="#000000" font-family="'Segoe UI'" font-size="13" lengthAdjust="spacing" textLength="142.4858" x="456" y="397.9844">Replace mutable fields</text><g class="message" data-entity-1="part3" data-entity-2="part4" id="msg5"><polygon fill="#C77B30" points="598.2935,428.0371,608.2935,432.0371,598.2935,436.0371,602.2935,432.0371" style="stroke:#C77B30;stroke-width:1;"/><line style="stroke:#C77B30;stroke-width:1;" x1="445.9194" x2="604.2935" y1="432.0371" y2="432.0371"/><text fill="#000000" font-family="'Segoe UI'" font-size="13" lengthAdjust="spacing" textLength="109.4526" x="452.9194" y="427.2949">UPDATE ... SET ...</text></g><g class="message" data-entity-1="part4" data-entity-2="part3" id="msg6"><polygon fill="#C77B30" points="456.9194,457.3477,446.9194,461.3477,456.9194,465.3477,452.9194,461.3477" style="stroke:#C77B30;stroke-width:1;"/><line style="stroke:#C77B30;stroke-width:1;stroke-dasharray:2,2;" x1="450.9194" x2="614.2935" y1="461.3477" y2="461.3477"/><text fill="#000000" font-family="'Segoe UI'" font-size="13" lengthAdjust="spacing" textLength="80.2725" x="462.9194" y="456.6055">Updated row</text></g><g class="message" data-entity-1="part3" data-entity-2="part2" id="msg7"><polygon fill="#C77B30" points="326.084,486.6582,316.084,490.6582,326.084,494.6582,322.084,490.6582" style="stroke:#C77B30;stroke-width:1;"/><line style="stroke:#C77B30;stroke-width:1;stroke-dasharray:2,2;" x1="320.084" x2="439.9194" y1="490.6582" y2="490.6582"/><text fill="#000000" font-family="'Segoe UI'" font-size="13" lengthAdjust="spacing" textLength="47.3599" x="332.084" y="485.916">200 OK</text></g><g class="message" data-entity-1="part2" data-entity-2="part1" id="msg8"><polygon fill="#C77B30" points="42.7524,515.9688,32.7524,519.9688,42.7524,523.9688,38.7524,519.9688" style="stroke:#C77B30;stroke-width:1;"/><line style="stroke:#C77B30;stroke-width:1;stroke-dasharray:2,2;" x1="36.7524" x2="309.084" y1="519.9688" y2="519.9688"/><text fill="#000000" font-family="'Segoe UI'" font-size="13" lengthAdjust="spacing" textLength="47.3599" x="48.7524" y="515.2266">200 OK</text></g><a href="/microservices/svc-gear-inventory/#integration-context" target="_top" title="/microservices/svc-gear-inventory/#integration-context" xlink:actuate="onRequest" xlink:href="/microservices/svc-gear-inventory/#integration-context" xlink:show="new" xlink:title="/microservices/svc-gear-inventory/#integration-context" xlink:type="simple"><text fill="#0000FF" font-family="'Segoe UI'" font-size="10" lengthAdjust="spacing" text-decoration="underline" textLength="204.8096" x="455.9087" y="14.668">&#11014; svc-gear-inventory Integration Context</text></a><?plantuml-src ZLJRRjf047tVhnZ1CvYGg20aAd6n8rIQq12IXnHLYpsOLSokkxj0eYYl_Pf-LR-aipONKv0QU63nd3ddx9a1yonaoZLVmeo7px5MAndrLA8qb0FVlPdP8yo2HseZP0npdXWiL2ASyrLY0oNj3LyYbCOOAuJ9e5Hinvyhb2726mDwTRHMcwrKs6ZCBclPun7NLeGYvT9sbOvGRo5rl_cfqps1_6lQRmPNGJE33SKSXqBY4KsdVjbjrBDwLxqSbOABPb2xs9TEuWW2gcVb6sMFMGl-izgPA2_z1djdR86Ssk3foLkAK2k3UYr2D9vPXvKOkQu8kKPfbNxroa9QZ3MtGibAID7YYuK_lt_1AHO61oZqSkXqofWLDa4OJUx1oniiBettvZv-YEZTMtAd8JbDvRiSgXWu51u1Edh6qaFUKEebWXwMW1l8Z-ukF4qJ4MRonYFXeuxEQ03NtEA6lsPjruzPIqZ6ZLVcgQZ4UNKwXNA_wtTewOu8Jk-RyOpNuOToTBJRjOYuvJDkQ457ojXOu_ZRCEFgTsb8FV_Axp4cQOAWrZGbKg2PaiQUdjoUaQWkx38fUryFqNc9YWjVVGU41u4R41B66nx7H3yPK5Ge8t2AZ6tZh7ns2RK-DZL6COernUTwTcj8Ho9nyRI0jf2AsltqZ3sWNN47po-iHRomeERRlWUUY8WVMc6cebV6sctexp9ijnbpODAY-5emzeT-xnwgrIe4jtSm6VKxz_v1iX0n7IjxXxsLrkxUz6_08Yp0p_gwmpJXj9hB5RcWtPuBJ29pR2HNpeoC_SpG_rrCKdVRw8oBd7etbNgj1hTVYX2t92vnGcmdU0vr_SZ-0W00?></g></svg>