<svg xmlns="http://www.w3.org/2000/svg" xmlns:xlink="http://www.w3.org/1999/xlink" contentStyleType="text/css" data-diagram-type="SEQUENCE" height="616px" preserveAspectRatio="none" style="width:599px;height:616px;background:#FEFEFE;" version="1.1" viewBox="0 0 599 616" width="599px" zoomAndPan="magnify"><title>PATCH /gear-items/{item_id}</title><defs/><g><rect fill="#FEFEFE" height="616" style="stroke:none;stroke-width:1;" width="599" x="0" y="0"/><text fill="#000000" font-family="Segoe UI" font-size="14" font-weight="bold" lengthAdjust="spacing" textLength="214.0059" x="188.9709" y="41.3125">PATCH /gear-items/{item_id}</text><text fill="#000000" font-family="Segoe UI" font-size="14" font-weight="bold" lengthAdjust="spacing" textLength="124.2363" x="233.8557" y="57.8008">Update gear item</text><g><title>API Gateway</title><rect fill="#7C3AED" height="319.1055" style="stroke:#A23B72;stroke-width:1;" width="10" x="236.3135" y="200.8633"/></g><g><title>svc-gear-inventory</title><rect fill="#7C3AED" height="260.4844" style="stroke:#A23B72;stroke-width:1;" width="10" x="367.1489" y="230.1738"/></g><g><title>PostgreSQL</title><rect fill="#FCE4EC" height="29.3105" style="stroke:#A23B72;stroke-width:1;" width="10" x="541.5229" y="338.1055"/></g><g><title>PostgreSQL</title><rect fill="#FCE4EC" height="29.3105" style="stroke:#A23B72;stroke-width:1;" width="10" x="541.5229" y="432.0371"/></g><g><title>Client</title><rect fill="#000000" fill-opacity="0.00000" height="403.7266" width="8" x="27.7524" y="134.2422"/><line style="stroke:#A23B72;stroke-width:0.5;stroke-dasharray:5,5;" x1="31" x2="31" y1="134.2422" y2="537.9688"/></g><g><title>API Gateway</title><rect fill="#000000" fill-opacity="0.00000" height="403.7266" width="8" x="237.3135" y="134.2422"/><line style="stroke:#A23B72;stroke-width:0.5;stroke-dasharray:5,5;" x1="241.0244" x2="241.0244" y1="134.2422" y2="537.9688"/></g><g><title>svc-gear-inventory</title><rect fill="#000000" fill-opacity="0.00000" height="403.7266" width="8" x="368.1489" y="134.2422"/><line style="stroke:#A23B72;stroke-width:0.5;stroke-dasharray:5,5;" x1="371.6025" x2="371.6025" y1="134.2422" y2="537.9688"/></g><g><title>PostgreSQL</title><rect fill="#000000" fill-opacity="0.00000" height="403.7266" width="8" x="542.5229" y="134.2422"/><line style="stroke:#A23B72;stroke-width:0.5;stroke-dasharray:5,5;" x1="546.0981" x2="546.0981" y1="134.2422" y2="537.9688"/></g><g class="participant participant-head" data-participant="Client"><rect fill="#E8F4F8" height="30.4883" rx="2.5" ry="2.5" style="stroke:#2E86AB;stroke-width:0.5;" width="53.5049" x="5" y="102.7539"/><text fill="#000000" font-family="Segoe UI" font-size="14" lengthAdjust="spacing" textLength="39.5049" x="12" y="123.2891">Client</text></g><g class="participant participant-tail" data-participant="Client"><rect fill="#E8F4F8" height="30.4883" rx="2.5" ry="2.5" style="stroke:#2E86AB;stroke-width:0.5;" width="53.5049" x="5" y="536.9688"/><text fill="#000000" font-family="Segoe UI" font-size="14" lengthAdjust="spacing" textLength="39.5049" x="12" y="557.5039">Client</text></g><g class="participant participant-head" data-participant="GW"><rect fill="#DBEAFE" height="30.4883" rx="2.5" ry="2.5" style="stroke:#2E86AB;stroke-width:0.5;" width="96.5781" x="193.0244" y="102.7539"/><text fill="#000000" font-family="Segoe UI" font-size="14" lengthAdjust="spacing" textLength="82.5781" x="200.0244" y="123.2891">API Gateway</text></g><g class="participant participant-tail" data-participant="GW"><rect fill="#DBEAFE" height="30.4883" rx="2.5" ry="2.5" style="stroke:#2E86AB;stroke-width:0.5;" width="96.5781" x="193.0244" y="536.9688"/><text fill="#000000" font-family="Segoe UI" font-size="14" lengthAdjust="spacing" textLength="82.5781" x="200.0244" y="557.5039">API Gateway</text></g><g class="participant participant-head" data-participant="Svc"><a href="/microservices/svc-gear-inventory/" target="_top" title="/microservices/svc-gear-inventory/" xlink:actuate="onRequest" xlink:href="/microservices/svc-gear-inventory/" xlink:show="new" xlink:title="/microservices/svc-gear-inventory/" xlink:type="simple"><rect fill="#E8F4F8" height="30.4883" rx="2.5" ry="2.5" style="stroke:#2E86AB;stroke-width:0.5;" width="145.0928" x="299.6025" y="102.7539"/><text fill="#000000" font-family="Segoe UI" font-size="14" lengthAdjust="spacing" textLength="131.0928" x="306.6025" y="123.2891">svc-gear-inventory</text></a></g><g class="participant participant-tail" data-participant="Svc"><a href="/microservices/svc-gear-inventory/" target="_top" title="/microservices/svc-gear-inventory/" xlink:actuate="onRequest" xlink:href="/microservices/svc-gear-inventory/" xlink:show="new" xlink:title="/microservices/svc-gear-inventory/" xlink:type="simple"><rect fill="#E8F4F8" height="30.4883" rx="2.5" ry="2.5" style="stroke:#2E86AB;stroke-width:0.5;" width="145.0928" x="299.6025" y="536.9688"/><text fill="#000000" font-family="Segoe UI" font-size="14" lengthAdjust="spacing" textLength="131.0928" x="306.6025" y="557.5039">svc-gear-inventory</text></a></g><g class="participant participant-head" data-participant="DB"><text fill="#000000" font-family="Segoe UI" font-size="14" lengthAdjust="spacing" textLength="76.8496" x="505.0981" y="131.2891">PostgreSQL</text><path d="M528.5229,81.7539 C528.5229,71.7539 546.5229,71.7539 546.5229,71.7539 C546.5229,71.7539 564.5229,71.7539 564.5229,81.7539 L564.5229,107.7539 C564.5229,117.7539 546.5229,117.7539 546.5229,117.7539 C546.5229,117.7539 528.5229,117.7539 528.5229,107.7539 L528.5229,81.7539" fill="#FCE4EC" style="stroke:#181818;stroke-width:0.5;"/><path d="M528.5229,81.7539 C528.5229,91.7539 546.5229,91.7539 546.5229,91.7539 C546.5229,91.7539 564.5229,91.7539 564.5229,81.7539" fill="none" style="stroke:#181818;stroke-width:0.5;"/></g><g class="participant participant-tail" data-participant="DB"><text fill="#000000" font-family="Segoe UI" font-size="14" lengthAdjust="spacing" textLength="76.8496" x="505.0981" y="550.5039">PostgreSQL</text><path d="M528.5229,563.457 C528.5229,553.457 546.5229,553.457 546.5229,553.457 C546.5229,553.457 564.5229,553.457 564.5229,563.457 L564.5229,589.457 C564.5229,599.457 546.5229,599.457 546.5229,599.457 C546.5229,599.457 528.5229,599.457 528.5229,589.457 L528.5229,563.457" fill="#FCE4EC" style="stroke:#181818;stroke-width:0.5;"/><path d="M528.5229,563.457 C528.5229,573.457 546.5229,573.457 546.5229,573.457 C546.5229,573.457 564.5229,573.457 564.5229,563.457" fill="none" style="stroke:#181818;stroke-width:0.5;"/></g><g><title>API Gateway</title><rect fill="#7C3AED" height="319.1055" style="stroke:#A23B72;stroke-width:1;" width="10" x="236.3135" y="200.8633"/></g><g><title>svc-gear-inventory</title><rect fill="#7C3AED" height="260.4844" style="stroke:#A23B72;stroke-width:1;" width="10" x="367.1489" y="230.1738"/></g><g><title>PostgreSQL</title><rect fill="#FCE4EC" height="29.3105" style="stroke:#A23B72;stroke-width:1;" width="10" x="541.5229" y="338.1055"/></g><g><title>PostgreSQL</title><rect fill="#FCE4EC" height="29.3105" style="stroke:#A23B72;stroke-width:1;" width="10" x="541.5229" y="432.0371"/></g><path d="M301,149.2422 L301,174.2422 L441,174.2422 L441,159.2422 L431,149.2422 L301,149.2422" fill="#FEFFDD" style="stroke:#181818;stroke-width:0.5;"/><path d="M431,149.2422 L431,159.2422 L441,159.2422 L431,149.2422" fill="#FEFFDD" style="stroke:#181818;stroke-width:0.5;"/><a href="/services/api/svc-gear-inventory.html#/Gear%20Items/updateGearItem" target="_top" title="/services/api/svc-gear-inventory.html#/Gear%20Items/updateGearItem" xlink:actuate="onRequest" xlink:href="/services/api/svc-gear-inventory.html#/Gear%20Items/updateGearItem" xlink:show="new" xlink:title="/services/api/svc-gear-inventory.html#/Gear%20Items/updateGearItem" xlink:type="simple"><text fill="#0000FF" font-family="Segoe UI" font-size="13" lengthAdjust="spacing" text-decoration="underline" textLength="119.4058" x="307" y="166.8105">View in Swagger UI</text></a><g class="message" data-participant-1="Client" data-participant-2="GW"><polygon fill="#7C3AED" points="224.3135,196.8633,234.3135,200.8633,224.3135,204.8633,228.3135,200.8633" style="stroke:#7C3AED;stroke-width:1;"/><line style="stroke:#7C3AED;stroke-width:1;" x1="31.7524" x2="230.3135" y1="200.8633" y2="200.8633"/><text fill="#000000" font-family="Segoe UI" font-size="13" lengthAdjust="spacing" textLength="185.561" x="38.7524" y="196.1211">PATCH /gear-items/{item_id}</text></g><g class="message" data-participant-1="GW" data-participant-2="Svc"><polygon fill="#7C3AED" points="355.1489,226.1738,365.1489,230.1738,355.1489,234.1738,359.1489,230.1738" style="stroke:#7C3AED;stroke-width:1;"/><line style="stroke:#7C3AED;stroke-width:1;" x1="246.3135" x2="361.1489" y1="230.1738" y2="230.1738"/><text fill="#000000" font-family="Segoe UI" font-size="13" lengthAdjust="spacing" textLength="85.1348" x="253.3135" y="225.4316">route request</text></g><path d="M382,243.1738 L382,268.1738 L540,268.1738 L540,253.1738 L530,243.1738 L382,243.1738" fill="#FEFFDD" style="stroke:#181818;stroke-width:0.5;"/><path d="M530,243.1738 L530,253.1738 L540,253.1738 L530,243.1738" fill="#FEFFDD" style="stroke:#181818;stroke-width:0.5;"/><text fill="#000000" font-family="Segoe UI" font-size="13" lengthAdjust="spacing" textLength="137.5728" x="388" y="260.7422">Validate request body</text><rect fill="#EEEEEE" height="3" style="stroke:#EEEEEE;stroke-width:1;" width="592.9478" x="0" y="294.1396"/><line style="stroke:#000000;stroke-width:1;" x1="0" x2="592.9478" y1="294.1396" y2="294.1396"/><line style="stroke:#000000;stroke-width:1;" x1="0" x2="592.9478" y1="297.1396" y2="297.1396"/><rect fill="#EEEEEE" height="23.3105" style="stroke:#000000;stroke-width:2;" width="80.3711" x="256.2883" y="283.4844"/><text fill="#000000" font-family="Segoe UI" font-size="13" font-weight="bold" lengthAdjust="spacing" textLength="62.0864" x="262.2883" y="300.0527">Database</text><g class="message" data-participant-1="Svc" data-participant-2="DB"><polygon fill="#7C3AED" points="529.5229,334.1055,539.5229,338.1055,529.5229,342.1055,533.5229,338.1055" style="stroke:#7C3AED;stroke-width:1;"/><line style="stroke:#7C3AED;stroke-width:1;" x1="377.1489" x2="535.5229" y1="338.1055" y2="338.1055"/><text fill="#000000" font-family="Segoe UI" font-size="13" lengthAdjust="spacing" textLength="145.374" x="384.1489" y="333.3633">SELECT ... FOR UPDATE</text></g><g class="message" data-participant-1="DB" data-participant-2="Svc"><polygon fill="#7C3AED" points="388.1489,363.416,378.1489,367.416,388.1489,371.416,384.1489,367.416" style="stroke:#7C3AED;stroke-width:1;"/><line style="stroke:#7C3AED;stroke-width:1;stroke-dasharray:2,2;" x1="382.1489" x2="545.5229" y1="367.416" y2="367.416"/><text fill="#000000" font-family="Segoe UI" font-size="13" lengthAdjust="spacing" textLength="75.3086" x="394.1489" y="362.6738">Current row</text></g><path d="M382,380.416 L382,405.416 L568,405.416 L568,390.416 L558,380.416 L382,380.416" fill="#FEFFDD" style="stroke:#181818;stroke-width:0.5;"/><path d="M558,380.416 L558,390.416 L568,390.416 L558,380.416" fill="#FEFFDD" style="stroke:#181818;stroke-width:0.5;"/><text fill="#000000" font-family="Segoe UI" font-size="13" lengthAdjust="spacing" textLength="165.9023" x="388" y="397.9844">Merge changed fields only</text><g class="message" data-participant-1="Svc" data-participant-2="DB"><polygon fill="#7C3AED" points="529.5229,428.0371,539.5229,432.0371,529.5229,436.0371,533.5229,432.0371" style="stroke:#7C3AED;stroke-width:1;"/><line style="stroke:#7C3AED;stroke-width:1;" x1="377.1489" x2="535.5229" y1="432.0371" y2="432.0371"/><text fill="#000000" font-family="Segoe UI" font-size="13" lengthAdjust="spacing" textLength="109.4526" x="384.1489" y="427.2949">UPDATE ... SET ...</text></g><g class="message" data-participant-1="DB" data-participant-2="Svc"><polygon fill="#7C3AED" points="388.1489,457.3477,378.1489,461.3477,388.1489,465.3477,384.1489,461.3477" style="stroke:#7C3AED;stroke-width:1;"/><line style="stroke:#7C3AED;stroke-width:1;stroke-dasharray:2,2;" x1="382.1489" x2="545.5229" y1="461.3477" y2="461.3477"/><text fill="#000000" font-family="Segoe UI" font-size="13" lengthAdjust="spacing" textLength="80.2725" x="394.1489" y="456.6055">Updated row</text></g><g class="message" data-participant-1="Svc" data-participant-2="GW"><polygon fill="#7C3AED" points="257.3135,486.6582,247.3135,490.6582,257.3135,494.6582,253.3135,490.6582" style="stroke:#7C3AED;stroke-width:1;"/><line style="stroke:#7C3AED;stroke-width:1;stroke-dasharray:2,2;" x1="251.3135" x2="371.1489" y1="490.6582" y2="490.6582"/><text fill="#000000" font-family="Segoe UI" font-size="13" lengthAdjust="spacing" textLength="47.3599" x="263.3135" y="485.916">200 OK</text></g><g class="message" data-participant-1="GW" data-participant-2="Client"><polygon fill="#7C3AED" points="42.7524,515.9688,32.7524,519.9688,42.7524,523.9688,38.7524,519.9688" style="stroke:#7C3AED;stroke-width:1;"/><line style="stroke:#7C3AED;stroke-width:1;stroke-dasharray:2,2;" x1="36.7524" x2="240.3135" y1="519.9688" y2="519.9688"/><text fill="#000000" font-family="Segoe UI" font-size="13" lengthAdjust="spacing" textLength="47.3599" x="48.7524" y="515.2266">200 OK</text></g><a href="/microservices/svc-gear-inventory/#integration-context" target="_top" title="/microservices/svc-gear-inventory/#integration-context" xlink:actuate="onRequest" xlink:href="/microservices/svc-gear-inventory/#integration-context" xlink:show="new" xlink:title="/microservices/svc-gear-inventory/#integration-context" xlink:type="simple"><text fill="#0000FF" font-family="Segoe UI" font-size="10" lengthAdjust="spacing" text-decoration="underline" textLength="204.8096" x="387.1382" y="14.668">&#11014; svc-gear-inventory Integration Context</text></a><!--SRC=[ZPFRRjf048Rlzob6e5vo24G5HQAICJP5fGaf8Rb8KRLu1xEAsQNh1OAYtFPf-bHzaixQX4D1RU62PVz_3lvcd3v9jU26ps72ewVOwAKIlawqWM8Ok2zBTuvqneLUInN3b2Sf7YW2ftoPs50hUytd28KXnXfXr2iSXkFt9Qe8uOK1VJnZz7fRgX7LEOhiUi2DbP5SS6NRsWWqMqijQBxtsYUMFviEck5bsCniVJd5lbHubCQhrTkDMgQtzVEH55uqm-h5JZh14OQaP_ArjiTPeqPZKZ_Gpg2i1mtsojWCEON1usDbBYEZKpGh6M5QILTHAKPkIbAjK5bjDfMYL1PZmwtKgXGHMdosyEld3pZrGczl1J-tZiUCMMaJX85tvt-4IXvYSPvMNjpFDobUlwhHGd2Bu4HmjumjzdYXu2UIIXI0fv0VZsLlq8CknQ_v9lDq7w3OQGSUxSsHxxJbp3vSHV-5OZpUJPQwvHEUqeuDT6fZWyFRVfQhqoREVd0P-8mf6WBe5O6c2ZGMgh5BpnVoJ8dopCwJOgLBb-zgrLv6QPcXSLVkFznBN8DKC5ppEARKenuXHYN0LMCinmEb3mx2rT-WCnvPkNBK7QxjxjEHGXsGAw3L8T6uzoMrUxSJt-pv8nePpopewJRkdYSoc-Os52PQR1XhjQ3pHgtLOioPgHO1ku9Xq0_yEoYNon3UV87HeEFT1VkI1r3fMDfrw2-DSKzBhp0JU60_szTdD352DECgHW5JYOb8GQjaSznBNZphPHXaFVsxaNnznPb6yjHluwXLgt3pwT3YDiD19yTsTETStGVs6m00]--></g></svg>