<svg xmlns="http://www.w3.org/2000/svg" xmlns:xlink="http://www.w3.org/1999/xlink" contentStyleType="text/css" data-diagram-type="SEQUENCE" height="487px" preserveAspectRatio="none" style="width:499px;height:487px;background:#FEFEFE;" version="1.1" viewBox="0 0 499 487" width="499px" zoomAndPan="magnify"><title>GET /check-ins</title><defs/><g><rect fill="#FEFEFE" height="487" style="stroke:none;stroke-width:1;" width="499" x="0" y="0"/><text fill="#000000" font-family="Segoe UI" font-size="14" font-weight="bold" lengthAdjust="spacing" textLength="112.7998" x="189.2783" y="41.3125">GET /check-ins</text><text fill="#000000" font-family="Segoe UI" font-size="14" font-weight="bold" lengthAdjust="spacing" textLength="211.2783" x="140.0391" y="57.8008">List check-ins by reservation</text><g><title>API Gateway</title><rect fill="#2563EB" height="189.8633" style="stroke:#A23B72;stroke-width:1;" width="10" x="148.5444" y="200.8633"/></g><g><title>svc-check-in</title><rect fill="#2563EB" height="131.2422" style="stroke:#A23B72;stroke-width:1;" width="10" x="262.6792" y="230.1738"/></g><g><title>PostgreSQL</title><rect fill="#FCE4EC" height="29.3105" style="stroke:#A23B72;stroke-width:1;" width="10" x="440.9316" y="302.7949"/></g><g><title>Client</title><rect fill="#000000" fill-opacity="0.00000" height="274.4844" width="8" x="27.7524" y="134.2422"/><line style="stroke:#A23B72;stroke-width:0.5;stroke-dasharray:5,5;" x1="31" x2="31" y1="134.2422" y2="408.7266"/></g><g><title>API Gateway</title><rect fill="#000000" fill-opacity="0.00000" height="274.4844" width="8" x="149.5444" y="134.2422"/><line style="stroke:#A23B72;stroke-width:0.5;stroke-dasharray:5,5;" x1="153.2554" x2="153.2554" y1="134.2422" y2="408.7266"/></g><g><title>svc-check-in</title><rect fill="#000000" fill-opacity="0.00000" height="274.4844" width="8" x="263.6792" y="134.2422"/><line style="stroke:#A23B72;stroke-width:0.5;stroke-dasharray:5,5;" x1="266.9277" x2="266.9277" y1="134.2422" y2="408.7266"/></g><g><title>PostgreSQL</title><rect fill="#000000" fill-opacity="0.00000" height="274.4844" width="8" x="441.9316" y="134.2422"/><line style="stroke:#A23B72;stroke-width:0.5;stroke-dasharray:5,5;" x1="445.5068" x2="445.5068" y1="134.2422" y2="408.7266"/></g><g class="participant participant-head" data-participant="Client"><rect fill="#E8F4F8" height="30.4883" rx="2.5" ry="2.5" style="stroke:#2E86AB;stroke-width:0.5;" width="53.5049" x="5" y="102.7539"/><text fill="#000000" font-family="Segoe UI" font-size="14" lengthAdjust="spacing" textLength="39.5049" x="12" y="123.2891">Client</text></g><g class="participant participant-tail" data-participant="Client"><rect fill="#E8F4F8" height="30.4883" rx="2.5" ry="2.5" style="stroke:#2E86AB;stroke-width:0.5;" width="53.5049" x="5" y="407.7266"/><text fill="#000000" font-family="Segoe UI" font-size="14" lengthAdjust="spacing" textLength="39.5049" x="12" y="428.2617">Client</text></g><g class="participant participant-head" data-participant="GW"><rect fill="#DBEAFE" height="30.4883" rx="2.5" ry="2.5" style="stroke:#2E86AB;stroke-width:0.5;" width="96.5781" x="105.2554" y="102.7539"/><text fill="#000000" font-family="Segoe UI" font-size="14" lengthAdjust="spacing" textLength="82.5781" x="112.2554" y="123.2891">API Gateway</text></g><g class="participant participant-tail" data-participant="GW"><rect fill="#DBEAFE" height="30.4883" rx="2.5" ry="2.5" style="stroke:#2E86AB;stroke-width:0.5;" width="96.5781" x="105.2554" y="407.7266"/><text fill="#000000" font-family="Segoe UI" font-size="14" lengthAdjust="spacing" textLength="82.5781" x="112.2554" y="428.2617">API Gateway</text></g><g class="participant participant-head" data-participant="Svc"><a href="/microservices/svc-check-in/" target="_top" title="/microservices/svc-check-in/" xlink:actuate="onRequest" xlink:href="/microservices/svc-check-in/" xlink:show="new" xlink:title="/microservices/svc-check-in/" xlink:type="simple"><rect fill="#E8F4F8" height="30.4883" rx="2.5" ry="2.5" style="stroke:#2E86AB;stroke-width:0.5;" width="103.5029" x="215.9277" y="102.7539"/><text fill="#000000" font-family="Segoe UI" font-size="14" lengthAdjust="spacing" textLength="89.5029" x="222.9277" y="123.2891">svc-check-in</text></a></g><g class="participant participant-tail" data-participant="Svc"><a href="/microservices/svc-check-in/" target="_top" title="/microservices/svc-check-in/" xlink:actuate="onRequest" xlink:href="/microservices/svc-check-in/" xlink:show="new" xlink:title="/microservices/svc-check-in/" xlink:type="simple"><rect fill="#E8F4F8" height="30.4883" rx="2.5" ry="2.5" style="stroke:#2E86AB;stroke-width:0.5;" width="103.5029" x="215.9277" y="407.7266"/><text fill="#000000" font-family="Segoe UI" font-size="14" lengthAdjust="spacing" textLength="89.5029" x="222.9277" y="428.2617">svc-check-in</text></a></g><g class="participant participant-head" data-participant="DB"><text fill="#000000" font-family="Segoe UI" font-size="14" lengthAdjust="spacing" textLength="76.8496" x="404.5068" y="131.2891">PostgreSQL</text><path d="M427.9316,81.7539 C427.9316,71.7539 445.9316,71.7539 445.9316,71.7539 C445.9316,71.7539 463.9316,71.7539 463.9316,81.7539 L463.9316,107.7539 C463.9316,117.7539 445.9316,117.7539 445.9316,117.7539 C445.9316,117.7539 427.9316,117.7539 427.9316,107.7539 L427.9316,81.7539" fill="#FCE4EC" style="stroke:#181818;stroke-width:0.5;"/><path d="M427.9316,81.7539 C427.9316,91.7539 445.9316,91.7539 445.9316,91.7539 C445.9316,91.7539 463.9316,91.7539 463.9316,81.7539" fill="none" style="stroke:#181818;stroke-width:0.5;"/></g><g class="participant participant-tail" data-participant="DB"><text fill="#000000" font-family="Segoe UI" font-size="14" lengthAdjust="spacing" textLength="76.8496" x="404.5068" y="421.2617">PostgreSQL</text><path d="M427.9316,434.2148 C427.9316,424.2148 445.9316,424.2148 445.9316,424.2148 C445.9316,424.2148 463.9316,424.2148 463.9316,434.2148 L463.9316,460.2148 C463.9316,470.2148 445.9316,470.2148 445.9316,470.2148 C445.9316,470.2148 427.9316,470.2148 427.9316,460.2148 L427.9316,434.2148" fill="#FCE4EC" style="stroke:#181818;stroke-width:0.5;"/><path d="M427.9316,434.2148 C427.9316,444.2148 445.9316,444.2148 445.9316,444.2148 C445.9316,444.2148 463.9316,444.2148 463.9316,434.2148" fill="none" style="stroke:#181818;stroke-width:0.5;"/></g><g><title>API Gateway</title><rect fill="#2563EB" height="189.8633" style="stroke:#A23B72;stroke-width:1;" width="10" x="148.5444" y="200.8633"/></g><g><title>svc-check-in</title><rect fill="#2563EB" height="131.2422" style="stroke:#A23B72;stroke-width:1;" width="10" x="262.6792" y="230.1738"/></g><g><title>PostgreSQL</title><rect fill="#FCE4EC" height="29.3105" style="stroke:#A23B72;stroke-width:1;" width="10" x="440.9316" y="302.7949"/></g><path d="M197,149.2422 L197,174.2422 L337,174.2422 L337,159.2422 L327,149.2422 L197,149.2422" fill="#FEFFDD" style="stroke:#181818;stroke-width:0.5;"/><path d="M327,149.2422 L327,159.2422 L337,159.2422 L327,149.2422" fill="#FEFFDD" style="stroke:#181818;stroke-width:0.5;"/><a href="/services/api/svc-check-in.html#/Check-Ins/listCheckIns" target="_top" title="/services/api/svc-check-in.html#/Check-Ins/listCheckIns" xlink:actuate="onRequest" xlink:href="/services/api/svc-check-in.html#/Check-Ins/listCheckIns" xlink:show="new" xlink:title="/services/api/svc-check-in.html#/Check-Ins/listCheckIns" xlink:type="simple"><text fill="#0000FF" font-family="Segoe UI" font-size="13" lengthAdjust="spacing" text-decoration="underline" textLength="119.4058" x="203" y="166.8105">View in Swagger UI</text></a><g class="message" data-participant-1="Client" data-participant-2="GW"><polygon fill="#2563EB" points="136.5444,196.8633,146.5444,200.8633,136.5444,204.8633,140.5444,200.8633" style="stroke:#2563EB;stroke-width:1;"/><line style="stroke:#2563EB;stroke-width:1;" x1="31.7524" x2="142.5444" y1="200.8633" y2="200.8633"/><text fill="#000000" font-family="Segoe UI" font-size="13" lengthAdjust="spacing" textLength="97.792" x="38.7524" y="196.1211">GET /check-ins</text></g><g class="message" data-participant-1="GW" data-participant-2="Svc"><polygon fill="#2563EB" points="250.6792,226.1738,260.6792,230.1738,250.6792,234.1738,254.6792,230.1738" style="stroke:#2563EB;stroke-width:1;"/><line style="stroke:#2563EB;stroke-width:1;" x1="158.5444" x2="256.6792" y1="230.1738" y2="230.1738"/><text fill="#000000" font-family="Segoe UI" font-size="13" lengthAdjust="spacing" textLength="85.1348" x="165.5444" y="225.4316">route request</text></g><rect fill="#EEEEEE" height="3" style="stroke:#EEEEEE;stroke-width:1;" width="492.3564" x="0" y="258.8291"/><line style="stroke:#000000;stroke-width:1;" x1="0" x2="492.3564" y1="258.8291" y2="258.8291"/><line style="stroke:#000000;stroke-width:1;" x1="0" x2="492.3564" y1="261.8291" y2="261.8291"/><rect fill="#EEEEEE" height="23.3105" style="stroke:#000000;stroke-width:2;" width="80.3711" x="205.9927" y="248.1738"/><text fill="#000000" font-family="Segoe UI" font-size="13" font-weight="bold" lengthAdjust="spacing" textLength="62.0864" x="211.9927" y="264.7422">Database</text><g class="message" data-participant-1="Svc" data-participant-2="DB"><polygon fill="#2563EB" points="428.9316,298.7949,438.9316,302.7949,428.9316,306.7949,432.9316,302.7949" style="stroke:#2563EB;stroke-width:1;"/><line style="stroke:#2563EB;stroke-width:1;" x1="272.6792" x2="434.9316" y1="302.7949" y2="302.7949"/><text fill="#000000" font-family="Segoe UI" font-size="13" lengthAdjust="spacing" textLength="149.2524" x="279.6792" y="298.0527">SELECT ... WHERE filters</text></g><g class="message" data-participant-1="DB" data-participant-2="Svc"><polygon fill="#2563EB" points="283.6792,328.1055,273.6792,332.1055,283.6792,336.1055,279.6792,332.1055" style="stroke:#2563EB;stroke-width:1;"/><line style="stroke:#2563EB;stroke-width:1;stroke-dasharray:2,2;" x1="277.6792" x2="444.9316" y1="332.1055" y2="332.1055"/><text fill="#000000" font-family="Segoe UI" font-size="13" lengthAdjust="spacing" textLength="93.209" x="289.6792" y="327.3633">Page of results</text></g><g class="message" data-participant-1="Svc" data-participant-2="GW"><polygon fill="#2563EB" points="169.5444,357.416,159.5444,361.416,169.5444,365.416,165.5444,361.416" style="stroke:#2563EB;stroke-width:1;"/><line style="stroke:#2563EB;stroke-width:1;stroke-dasharray:2,2;" x1="163.5444" x2="266.6792" y1="361.416" y2="361.416"/><text fill="#000000" font-family="Segoe UI" font-size="13" lengthAdjust="spacing" textLength="47.3599" x="175.5444" y="356.6738">200 OK</text></g><g class="message" data-participant-1="GW" data-participant-2="Client"><polygon fill="#2563EB" points="42.7524,386.7266,32.7524,390.7266,42.7524,394.7266,38.7524,390.7266" style="stroke:#2563EB;stroke-width:1;"/><line style="stroke:#2563EB;stroke-width:1;stroke-dasharray:2,2;" x1="36.7524" x2="152.5444" y1="390.7266" y2="390.7266"/><text fill="#000000" font-family="Segoe UI" font-size="13" lengthAdjust="spacing" textLength="47.3599" x="48.7524" y="385.9844">200 OK</text></g><a href="/microservices/svc-check-in/#integration-context" target="_top" title="/microservices/svc-check-in/#integration-context" xlink:actuate="onRequest" xlink:href="/microservices/svc-check-in/#integration-context" xlink:show="new" xlink:title="/microservices/svc-check-in/#integration-context" xlink:type="simple"><text fill="#0000FF" font-family="Segoe UI" font-size="10" lengthAdjust="spacing" text-decoration="underline" textLength="175.1025" x="316.2539" y="14.668">&#11014; svc-check-in Integration Context</text></a><!--SRC=[XPFFRjf04CRl-nGZEFCda0Q4H2LiR8gA4bgISaWvBEl1h32xT7S3YQfU-pHzgZv9nmQCdKIgVTdrz-qtdf_7TYFLZXk-XIKNczZe9nNvEj46gc6Gtipc3hlcaJv85SEA9nOBIeGh_fIuK2jtoxS8bHd66k5XN2aUnnzFg0J2JmPq3OpHXrEfreURDYwpnrDkd1HonvNpj8dGd2r1zsRWlR6yVkcW6rw7tSmsaIkSI8Mbc46hxNLQcUxfvv8KNdN3vbKklS4HXgHdygrsvLJHwIpR1UqTbEsWmtunjaPEn-3niR6LmcYBPYy5seRTYvfOezZKf6fKfN8O6-waLZL1KF7PmTy_lw7eWl751FxHj5WmvgHB44R1FJJELljTJQHraEzX-G86q-BPSSPs5wHGyHE9obM0MpWko_9WEeOHTtZWBvbdD8Vgq0i6D2ibN_5bC-DiB_xJ-6AHVy68ExxabcPfggsB3Sw-JBAKeKSy_U0wy1bJ11lqde1IDk6dz3oOxsGflBvsswJQyBFjMDb6GaYo7MtWcyG34DJPWSSnvJsCYIMg2D8IZ1qvGErZsctl5Lt6XPD44ZCKfrcc9RdJbdj0eq2YIUVVkeix5Szsrk_3yDnolyzOAb80TTk3MJ09_7ker-im_nHy3M0b4uUcKBW0XPQrlFAKnmHebNvi-ZyjYx1mv5Jat5IhsOIxpqLB2ZNjWnmd0E-vHdFs3m00]--></g></svg>