<svg xmlns="http://www.w3.org/2000/svg" xmlns:xlink="http://www.w3.org/1999/xlink" contentStyleType="text/css" data-diagram-type="SEQUENCE" height="603px" preserveAspectRatio="none" style="width:608px;height:603px;background:#FEFEFE;" version="1.1" viewBox="0 0 608 603" width="608px" zoomAndPan="magnify"><title>PATCH /vehicles/{vehicle_id}</title><defs/><g><rect fill="#FEFEFE" height="603" style="stroke:none;stroke-width:1;" width="608" x="0" y="0"/><text fill="#000000" font-family="Segoe UI" font-size="14" font-weight="bold" lengthAdjust="spacing" textLength="209.9453" x="195.2007" y="28.5352">PATCH /vehicles/{vehicle_id}</text><text fill="#000000" font-family="Segoe UI" font-size="14" font-weight="bold" lengthAdjust="spacing" textLength="195.6855" x="202.3306" y="45.0234">Update vehicle information</text><g><title>API Gateway</title><rect fill="#7C3AED" height="319.1055" style="stroke:#A23B72;stroke-width:1;" width="10" x="231.8574" y="188.0859"/></g><g><title>svc-transport-logistics</title><rect fill="#7C3AED" height="260.4844" style="stroke:#A23B72;stroke-width:1;" width="10" x="375.5479" y="217.3965"/></g><g><title>PostgreSQL</title><rect fill="#FCE4EC" height="29.3105" style="stroke:#A23B72;stroke-width:1;" width="10" x="549.9219" y="325.3281"/></g><g><title>PostgreSQL</title><rect fill="#FCE4EC" height="29.3105" style="stroke:#A23B72;stroke-width:1;" width="10" x="549.9219" y="419.2598"/></g><g><title>Client</title><rect fill="#000000" fill-opacity="0.00000" height="403.7266" width="8" x="27.7524" y="121.4648"/><line style="stroke:#A23B72;stroke-width:0.5;stroke-dasharray:5,5;" x1="31" x2="31" y1="121.4648" y2="525.1914"/></g><g><title>API Gateway</title><rect fill="#000000" fill-opacity="0.00000" height="403.7266" width="8" x="232.8574" y="121.4648"/><line style="stroke:#A23B72;stroke-width:0.5;stroke-dasharray:5,5;" x1="236.5684" x2="236.5684" y1="121.4648" y2="525.1914"/></g><g><title>svc-transport-logistics</title><rect fill="#000000" fill-opacity="0.00000" height="403.7266" width="8" x="376.5479" y="121.4648"/><line style="stroke:#A23B72;stroke-width:0.5;stroke-dasharray:5,5;" x1="380.1465" x2="380.1465" y1="121.4648" y2="525.1914"/></g><g><title>PostgreSQL</title><rect fill="#000000" fill-opacity="0.00000" height="403.7266" width="8" x="550.9219" y="121.4648"/><line style="stroke:#A23B72;stroke-width:0.5;stroke-dasharray:5,5;" x1="554.4971" x2="554.4971" y1="121.4648" y2="525.1914"/></g><g class="participant participant-head" data-participant="Client"><rect fill="#E8F4F8" height="30.4883" rx="2.5" ry="2.5" style="stroke:#2E86AB;stroke-width:0.5;" width="53.5049" x="5" y="89.9766"/><text fill="#000000" font-family="Segoe UI" font-size="14" lengthAdjust="spacing" textLength="39.5049" x="12" y="110.5117">Client</text></g><g class="participant participant-tail" data-participant="Client"><rect fill="#E8F4F8" height="30.4883" rx="2.5" ry="2.5" style="stroke:#2E86AB;stroke-width:0.5;" width="53.5049" x="5" y="524.1914"/><text fill="#000000" font-family="Segoe UI" font-size="14" lengthAdjust="spacing" textLength="39.5049" x="12" y="544.7266">Client</text></g><g class="participant participant-head" data-participant="GW"><rect fill="#DBEAFE" height="30.4883" rx="2.5" ry="2.5" style="stroke:#2E86AB;stroke-width:0.5;" width="96.5781" x="188.5684" y="89.9766"/><text fill="#000000" font-family="Segoe UI" font-size="14" lengthAdjust="spacing" textLength="82.5781" x="195.5684" y="110.5117">API Gateway</text></g><g class="participant participant-tail" data-participant="GW"><rect fill="#DBEAFE" height="30.4883" rx="2.5" ry="2.5" style="stroke:#2E86AB;stroke-width:0.5;" width="96.5781" x="188.5684" y="524.1914"/><text fill="#000000" font-family="Segoe UI" font-size="14" lengthAdjust="spacing" textLength="82.5781" x="195.5684" y="544.7266">API Gateway</text></g><g class="participant participant-head" data-participant="Svc"><a href="/microservices/svc-transport-logistics/" target="_top" title="/microservices/svc-transport-logistics/" xlink:actuate="onRequest" xlink:href="/microservices/svc-transport-logistics/" xlink:show="new" xlink:title="/microservices/svc-transport-logistics/" xlink:type="simple"><rect fill="#E8F4F8" height="30.4883" rx="2.5" ry="2.5" style="stroke:#2E86AB;stroke-width:0.5;" width="170.8027" x="295.1465" y="89.9766"/><text fill="#000000" font-family="Segoe UI" font-size="14" lengthAdjust="spacing" textLength="156.8027" x="302.1465" y="110.5117">svc-transport-logistics</text></a></g><g class="participant participant-tail" data-participant="Svc"><a href="/microservices/svc-transport-logistics/" target="_top" title="/microservices/svc-transport-logistics/" xlink:actuate="onRequest" xlink:href="/microservices/svc-transport-logistics/" xlink:show="new" xlink:title="/microservices/svc-transport-logistics/" xlink:type="simple"><rect fill="#E8F4F8" height="30.4883" rx="2.5" ry="2.5" style="stroke:#2E86AB;stroke-width:0.5;" width="170.8027" x="295.1465" y="524.1914"/><text fill="#000000" font-family="Segoe UI" font-size="14" lengthAdjust="spacing" textLength="156.8027" x="302.1465" y="544.7266">svc-transport-logistics</text></a></g><g class="participant participant-head" data-participant="DB"><text fill="#000000" font-family="Segoe UI" font-size="14" lengthAdjust="spacing" textLength="76.8496" x="513.4971" y="118.5117">PostgreSQL</text><path d="M536.9219,68.9766 C536.9219,58.9766 554.9219,58.9766 554.9219,58.9766 C554.9219,58.9766 572.9219,58.9766 572.9219,68.9766 L572.9219,94.9766 C572.9219,104.9766 554.9219,104.9766 554.9219,104.9766 C554.9219,104.9766 536.9219,104.9766 536.9219,94.9766 L536.9219,68.9766" fill="#FCE4EC" style="stroke:#181818;stroke-width:0.5;"/><path d="M536.9219,68.9766 C536.9219,78.9766 554.9219,78.9766 554.9219,78.9766 C554.9219,78.9766 572.9219,78.9766 572.9219,68.9766" fill="none" style="stroke:#181818;stroke-width:0.5;"/></g><g class="participant participant-tail" data-participant="DB"><text fill="#000000" font-family="Segoe UI" font-size="14" lengthAdjust="spacing" textLength="76.8496" x="513.4971" y="537.7266">PostgreSQL</text><path d="M536.9219,550.6797 C536.9219,540.6797 554.9219,540.6797 554.9219,540.6797 C554.9219,540.6797 572.9219,540.6797 572.9219,550.6797 L572.9219,576.6797 C572.9219,586.6797 554.9219,586.6797 554.9219,586.6797 C554.9219,586.6797 536.9219,586.6797 536.9219,576.6797 L536.9219,550.6797" fill="#FCE4EC" style="stroke:#181818;stroke-width:0.5;"/><path d="M536.9219,550.6797 C536.9219,560.6797 554.9219,560.6797 554.9219,560.6797 C554.9219,560.6797 572.9219,560.6797 572.9219,550.6797" fill="none" style="stroke:#181818;stroke-width:0.5;"/></g><g><title>API Gateway</title><rect fill="#7C3AED" height="319.1055" style="stroke:#A23B72;stroke-width:1;" width="10" x="231.8574" y="188.0859"/></g><g><title>svc-transport-logistics</title><rect fill="#7C3AED" height="260.4844" style="stroke:#A23B72;stroke-width:1;" width="10" x="375.5479" y="217.3965"/></g><g><title>PostgreSQL</title><rect fill="#FCE4EC" height="29.3105" style="stroke:#A23B72;stroke-width:1;" width="10" x="549.9219" y="325.3281"/></g><g><title>PostgreSQL</title><rect fill="#FCE4EC" height="29.3105" style="stroke:#A23B72;stroke-width:1;" width="10" x="549.9219" y="419.2598"/></g><path d="M310,136.4648 L310,161.4648 L450,161.4648 L450,146.4648 L440,136.4648 L310,136.4648" fill="#FEFFDD" style="stroke:#181818;stroke-width:0.5;"/><path d="M440,136.4648 L440,146.4648 L450,146.4648 L440,136.4648" fill="#FEFFDD" style="stroke:#181818;stroke-width:0.5;"/><a href="/services/api/svc-transport-logistics.html" target="_top" title="/services/api/svc-transport-logistics.html" xlink:actuate="onRequest" xlink:href="/services/api/svc-transport-logistics.html" xlink:show="new" xlink:title="/services/api/svc-transport-logistics.html" xlink:type="simple"><text fill="#0000FF" font-family="Segoe UI" font-size="13" lengthAdjust="spacing" text-decoration="underline" textLength="119.4058" x="316" y="154.0332">View in Swagger UI</text></a><g class="message" data-participant-1="Client" data-participant-2="GW"><polygon fill="#7C3AED" points="219.8574,184.0859,229.8574,188.0859,219.8574,192.0859,223.8574,188.0859" style="stroke:#7C3AED;stroke-width:1;"/><line style="stroke:#7C3AED;stroke-width:1;" x1="31.7524" x2="225.8574" y1="188.0859" y2="188.0859"/><text fill="#000000" font-family="Segoe UI" font-size="13" lengthAdjust="spacing" textLength="181.105" x="38.7524" y="183.3438">PATCH /vehicles/{vehicle_id}</text></g><g class="message" data-participant-1="GW" data-participant-2="Svc"><polygon fill="#7C3AED" points="363.5479,213.3965,373.5479,217.3965,363.5479,221.3965,367.5479,217.3965" style="stroke:#7C3AED;stroke-width:1;"/><line style="stroke:#7C3AED;stroke-width:1;" x1="241.8574" x2="369.5479" y1="217.3965" y2="217.3965"/><a href="/microservices/svc-transport-logistics/#patch-vehiclesvehicle_id-update-vehicle-information" target="_top" title="/microservices/svc-transport-logistics/#patch-vehiclesvehicle_id-update-vehicle-information" xlink:actuate="onRequest" xlink:href="/microservices/svc-transport-logistics/#patch-vehiclesvehicle_id-update-vehicle-information" xlink:show="new" xlink:title="/microservices/svc-transport-logistics/#patch-vehiclesvehicle_id-update-vehicle-information" xlink:type="simple"><text fill="#0000FF" font-family="Segoe UI" font-size="13" lengthAdjust="spacing" text-decoration="underline" textLength="85.1348" x="248.8574" y="212.6543">route request</text></a></g><path d="M390,230.3965 L390,255.3965 L548,255.3965 L548,240.3965 L538,230.3965 L390,230.3965" fill="#FEFFDD" style="stroke:#181818;stroke-width:0.5;"/><path d="M538,230.3965 L538,240.3965 L548,240.3965 L538,230.3965" fill="#FEFFDD" style="stroke:#181818;stroke-width:0.5;"/><text fill="#000000" font-family="Segoe UI" font-size="13" lengthAdjust="spacing" textLength="137.5728" x="396" y="247.9648">Validate request body</text><rect fill="#EEEEEE" height="3" style="stroke:#EEEEEE;stroke-width:1;" width="601.3467" x="0" y="281.3623"/><line style="stroke:#000000;stroke-width:1;" x1="0" x2="601.3467" y1="281.3623" y2="281.3623"/><line style="stroke:#000000;stroke-width:1;" x1="0" x2="601.3467" y1="284.3623" y2="284.3623"/><rect fill="#EEEEEE" height="23.3105" style="stroke:#000000;stroke-width:2;" width="80.3711" x="260.4878" y="270.707"/><text fill="#000000" font-family="Segoe UI" font-size="13" font-weight="bold" lengthAdjust="spacing" textLength="62.0864" x="266.4878" y="287.2754">Database</text><g class="message" data-participant-1="Svc" data-participant-2="DB"><polygon fill="#7C3AED" points="537.9219,321.3281,547.9219,325.3281,537.9219,329.3281,541.9219,325.3281" style="stroke:#7C3AED;stroke-width:1;"/><line style="stroke:#7C3AED;stroke-width:1;" x1="385.5479" x2="543.9219" y1="325.3281" y2="325.3281"/><text fill="#000000" font-family="Segoe UI" font-size="13" lengthAdjust="spacing" textLength="145.374" x="392.5479" y="320.5859">SELECT ... FOR UPDATE</text></g><g class="message" data-participant-1="DB" data-participant-2="Svc"><polygon fill="#7C3AED" points="396.5479,350.6387,386.5479,354.6387,396.5479,358.6387,392.5479,354.6387" style="stroke:#7C3AED;stroke-width:1;"/><line style="stroke:#7C3AED;stroke-width:1;stroke-dasharray:2,2;" x1="390.5479" x2="553.9219" y1="354.6387" y2="354.6387"/><text fill="#000000" font-family="Segoe UI" font-size="13" lengthAdjust="spacing" textLength="75.3086" x="402.5479" y="349.8965">Current row</text></g><path d="M390,367.6387 L390,392.6387 L576,392.6387 L576,377.6387 L566,367.6387 L390,367.6387" fill="#FEFFDD" style="stroke:#181818;stroke-width:0.5;"/><path d="M566,367.6387 L566,377.6387 L576,377.6387 L566,367.6387" fill="#FEFFDD" style="stroke:#181818;stroke-width:0.5;"/><text fill="#000000" font-family="Segoe UI" font-size="13" lengthAdjust="spacing" textLength="165.9023" x="396" y="385.207">Merge changed fields only</text><g class="message" data-participant-1="Svc" data-participant-2="DB"><polygon fill="#7C3AED" points="537.9219,415.2598,547.9219,419.2598,537.9219,423.2598,541.9219,419.2598" style="stroke:#7C3AED;stroke-width:1;"/><line style="stroke:#7C3AED;stroke-width:1;" x1="385.5479" x2="543.9219" y1="419.2598" y2="419.2598"/><text fill="#000000" font-family="Segoe UI" font-size="13" lengthAdjust="spacing" textLength="109.4526" x="392.5479" y="414.5176">UPDATE ... SET ...</text></g><g class="message" data-participant-1="DB" data-participant-2="Svc"><polygon fill="#7C3AED" points="396.5479,444.5703,386.5479,448.5703,396.5479,452.5703,392.5479,448.5703" style="stroke:#7C3AED;stroke-width:1;"/><line style="stroke:#7C3AED;stroke-width:1;stroke-dasharray:2,2;" x1="390.5479" x2="553.9219" y1="448.5703" y2="448.5703"/><text fill="#000000" font-family="Segoe UI" font-size="13" lengthAdjust="spacing" textLength="80.2725" x="402.5479" y="443.8281">Updated row</text></g><g class="message" data-participant-1="Svc" data-participant-2="GW"><polygon fill="#7C3AED" points="252.8574,473.8809,242.8574,477.8809,252.8574,481.8809,248.8574,477.8809" style="stroke:#7C3AED;stroke-width:1;"/><line style="stroke:#7C3AED;stroke-width:1;stroke-dasharray:2,2;" x1="246.8574" x2="379.5479" y1="477.8809" y2="477.8809"/><text fill="#000000" font-family="Segoe UI" font-size="13" lengthAdjust="spacing" textLength="47.3599" x="258.8574" y="473.1387">200 OK</text></g><g class="message" data-participant-1="GW" data-participant-2="Client"><polygon fill="#7C3AED" points="42.7524,503.1914,32.7524,507.1914,42.7524,511.1914,38.7524,507.1914" style="stroke:#7C3AED;stroke-width:1;"/><line style="stroke:#7C3AED;stroke-width:1;stroke-dasharray:2,2;" x1="36.7524" x2="235.8574" y1="507.1914" y2="507.1914"/><text fill="#000000" font-family="Segoe UI" font-size="13" lengthAdjust="spacing" textLength="47.3599" x="48.7524" y="502.4492">200 OK</text></g><!--SRC=[ZLFHRjem57ttLrpHvm25Qg1AJ0eXwQgnbWre7peq6ViIh0OximsiglhliqEWOQNRuCNAERxdt7ElpQEGETLq1NFA7bEjrf97AbCQpfBO_uavCCoIShKLCeK5pGnM48uBkiviegIzeIk4sXXJXJ2zhbMluyyrIeRmJC3zGgtLjfJgi3P5NdmUKMq54pcLjgyqHrrIMd7tGzX_G_dJTDnDBf9kGHkA1Gw5nACoOQlTxxGAlAz-7K79UJTfdX-WDt4aYSCB-4RPuwgiqvctAzY9ADjnXxmGOeND44RX9Fe4ZGqk1SlGD9xBqm_1NxxBQSwfHIY_WP0BfLVK2YK9oLzxXrgK2PIs1jJ0xdWCXwDhk7ALjlIfu5pTmzcW7uTkg4Syis61rLIQN6aRP2eLne6ck3FUC7XuQAm4qygWtWZcxBvpeJ6R7GRWEg1pQjmgZ9IngSRnrs5HSD1tSKJnHHmH8brMe3QelOnBpmaTD6WktjEfB-qgWpk1MvSDZBSqJLs9wVLiHb1oy5K9sGK2mKVVzkLV4oUKMR7naVk4obrqHtVNjt_v_m6SvTIoPR1NUTK8riLCzqXGcIcuHN7IshyEOrqF1pTUV6zdbvKMwTA2MfI-xcWcYbKfByDSyIT2UZqOxEFlzGZnPDUBI_uInl4mZYPGhzSXkVq6qz4WdCIlafNfk6DmI21QQ-tZT4-MSApGJ_hwWZf5O4igK-Im49Xn0qfcJyTUTkA5bt5SUFgtaTtRu2UCx4hlvzrgDk7sSvNYLymFrJ7AtJZ5khedlm40]--></g></svg>