<svg xmlns="http://www.w3.org/2000/svg" xmlns:xlink="http://www.w3.org/1999/xlink" contentStyleType="text/css" data-diagram-type="SEQUENCE" height="487px" preserveAspectRatio="none" style="width:472px;height:487px;background:#FEFEFE;" version="1.1" viewBox="0 0 472 487" width="472px" zoomAndPan="magnify"><title>GET /trips</title><defs/><g><rect fill="#FEFEFE" height="487" style="stroke:none;stroke-width:1;" width="472" x="0" y="0"/><text fill="#000000" font-family="Segoe UI" font-size="14" font-weight="bold" lengthAdjust="spacing" textLength="74.8193" x="194.8257" y="41.3125">GET /trips</text><text fill="#000000" font-family="Segoe UI" font-size="14" font-weight="bold" lengthAdjust="spacing" textLength="169.6338" x="147.4185" y="57.8008">Search trips with filters</text><g><title>API Gateway</title><rect fill="#2563EB" height="189.8633" style="stroke:#A23B72;stroke-width:1;" width="10" x="115.0923" y="200.8633"/></g><g><title>svc-trip-catalog</title><rect fill="#2563EB" height="131.2422" style="stroke:#A23B72;stroke-width:1;" width="10" x="235.7935" y="230.1738"/></g><g><title>PostgreSQL</title><rect fill="#FCE4EC" height="29.3105" style="stroke:#A23B72;stroke-width:1;" width="10" x="414.0459" y="302.7949"/></g><g><title>Client</title><rect fill="#000000" fill-opacity="0.00000" height="274.4844" width="8" x="27.7524" y="134.2422"/><line style="stroke:#A23B72;stroke-width:0.5;stroke-dasharray:5,5;" x1="31" x2="31" y1="134.2422" y2="408.7266"/></g><g><title>API Gateway</title><rect fill="#000000" fill-opacity="0.00000" height="274.4844" width="8" x="116.0923" y="134.2422"/><line style="stroke:#A23B72;stroke-width:0.5;stroke-dasharray:5,5;" x1="119.8032" x2="119.8032" y1="134.2422" y2="408.7266"/></g><g><title>svc-trip-catalog</title><rect fill="#000000" fill-opacity="0.00000" height="274.4844" width="8" x="236.7935" y="134.2422"/><line style="stroke:#A23B72;stroke-width:0.5;stroke-dasharray:5,5;" x1="240.3813" x2="240.3813" y1="134.2422" y2="408.7266"/></g><g><title>PostgreSQL</title><rect fill="#000000" fill-opacity="0.00000" height="274.4844" width="8" x="415.0459" y="134.2422"/><line style="stroke:#A23B72;stroke-width:0.5;stroke-dasharray:5,5;" x1="418.6211" x2="418.6211" y1="134.2422" y2="408.7266"/></g><g class="participant participant-head" data-participant="Client"><rect fill="#E8F4F8" height="30.4883" rx="2.5" ry="2.5" style="stroke:#2E86AB;stroke-width:0.5;" width="53.5049" x="5" y="102.7539"/><text fill="#000000" font-family="Segoe UI" font-size="14" lengthAdjust="spacing" textLength="39.5049" x="12" y="123.2891">Client</text></g><g class="participant participant-tail" data-participant="Client"><rect fill="#E8F4F8" height="30.4883" rx="2.5" ry="2.5" style="stroke:#2E86AB;stroke-width:0.5;" width="53.5049" x="5" y="407.7266"/><text fill="#000000" font-family="Segoe UI" font-size="14" lengthAdjust="spacing" textLength="39.5049" x="12" y="428.2617">Client</text></g><g class="participant participant-head" data-participant="GW"><rect fill="#DBEAFE" height="30.4883" rx="2.5" ry="2.5" style="stroke:#2E86AB;stroke-width:0.5;" width="96.5781" x="71.8032" y="102.7539"/><text fill="#000000" font-family="Segoe UI" font-size="14" lengthAdjust="spacing" textLength="82.5781" x="78.8032" y="123.2891">API Gateway</text></g><g class="participant participant-tail" data-participant="GW"><rect fill="#DBEAFE" height="30.4883" rx="2.5" ry="2.5" style="stroke:#2E86AB;stroke-width:0.5;" width="96.5781" x="71.8032" y="407.7266"/><text fill="#000000" font-family="Segoe UI" font-size="14" lengthAdjust="spacing" textLength="82.5781" x="78.8032" y="428.2617">API Gateway</text></g><g class="participant participant-head" data-participant="Svc"><a href="/microservices/svc-trip-catalog/" target="_top" title="/microservices/svc-trip-catalog/" xlink:actuate="onRequest" xlink:href="/microservices/svc-trip-catalog/" xlink:show="new" xlink:title="/microservices/svc-trip-catalog/" xlink:type="simple"><rect fill="#E8F4F8" height="30.4883" rx="2.5" ry="2.5" style="stroke:#2E86AB;stroke-width:0.5;" width="124.8242" x="178.3813" y="102.7539"/><text fill="#000000" font-family="Segoe UI" font-size="14" lengthAdjust="spacing" textLength="110.8242" x="185.3813" y="123.2891">svc-trip-catalog</text></a></g><g class="participant participant-tail" data-participant="Svc"><a href="/microservices/svc-trip-catalog/" target="_top" title="/microservices/svc-trip-catalog/" xlink:actuate="onRequest" xlink:href="/microservices/svc-trip-catalog/" xlink:show="new" xlink:title="/microservices/svc-trip-catalog/" xlink:type="simple"><rect fill="#E8F4F8" height="30.4883" rx="2.5" ry="2.5" style="stroke:#2E86AB;stroke-width:0.5;" width="124.8242" x="178.3813" y="407.7266"/><text fill="#000000" font-family="Segoe UI" font-size="14" lengthAdjust="spacing" textLength="110.8242" x="185.3813" y="428.2617">svc-trip-catalog</text></a></g><g class="participant participant-head" data-participant="DB"><text fill="#000000" font-family="Segoe UI" font-size="14" lengthAdjust="spacing" textLength="76.8496" x="377.6211" y="131.2891">PostgreSQL</text><path d="M401.0459,81.7539 C401.0459,71.7539 419.0459,71.7539 419.0459,71.7539 C419.0459,71.7539 437.0459,71.7539 437.0459,81.7539 L437.0459,107.7539 C437.0459,117.7539 419.0459,117.7539 419.0459,117.7539 C419.0459,117.7539 401.0459,117.7539 401.0459,107.7539 L401.0459,81.7539" fill="#FCE4EC" style="stroke:#181818;stroke-width:0.5;"/><path d="M401.0459,81.7539 C401.0459,91.7539 419.0459,91.7539 419.0459,91.7539 C419.0459,91.7539 437.0459,91.7539 437.0459,81.7539" fill="none" style="stroke:#181818;stroke-width:0.5;"/></g><g class="participant participant-tail" data-participant="DB"><text fill="#000000" font-family="Segoe UI" font-size="14" lengthAdjust="spacing" textLength="76.8496" x="377.6211" y="421.2617">PostgreSQL</text><path d="M401.0459,434.2148 C401.0459,424.2148 419.0459,424.2148 419.0459,424.2148 C419.0459,424.2148 437.0459,424.2148 437.0459,434.2148 L437.0459,460.2148 C437.0459,470.2148 419.0459,470.2148 419.0459,470.2148 C419.0459,470.2148 401.0459,470.2148 401.0459,460.2148 L401.0459,434.2148" fill="#FCE4EC" style="stroke:#181818;stroke-width:0.5;"/><path d="M401.0459,434.2148 C401.0459,444.2148 419.0459,444.2148 419.0459,444.2148 C419.0459,444.2148 437.0459,444.2148 437.0459,434.2148" fill="none" style="stroke:#181818;stroke-width:0.5;"/></g><g><title>API Gateway</title><rect fill="#2563EB" height="189.8633" style="stroke:#A23B72;stroke-width:1;" width="10" x="115.0923" y="200.8633"/></g><g><title>svc-trip-catalog</title><rect fill="#2563EB" height="131.2422" style="stroke:#A23B72;stroke-width:1;" width="10" x="235.7935" y="230.1738"/></g><g><title>PostgreSQL</title><rect fill="#FCE4EC" height="29.3105" style="stroke:#A23B72;stroke-width:1;" width="10" x="414.0459" y="302.7949"/></g><path d="M170,149.2422 L170,174.2422 L310,174.2422 L310,159.2422 L300,149.2422 L170,149.2422" fill="#FEFFDD" style="stroke:#181818;stroke-width:0.5;"/><path d="M300,149.2422 L300,159.2422 L310,159.2422 L300,149.2422" fill="#FEFFDD" style="stroke:#181818;stroke-width:0.5;"/><a href="/services/api/svc-trip-catalog.html#/Trips/searchTrips" target="_top" title="/services/api/svc-trip-catalog.html#/Trips/searchTrips" xlink:actuate="onRequest" xlink:href="/services/api/svc-trip-catalog.html#/Trips/searchTrips" xlink:show="new" xlink:title="/services/api/svc-trip-catalog.html#/Trips/searchTrips" xlink:type="simple"><text fill="#0000FF" font-family="Segoe UI" font-size="13" lengthAdjust="spacing" text-decoration="underline" textLength="119.4058" x="176" y="166.8105">View in Swagger UI</text></a><g class="message" data-participant-1="Client" data-participant-2="GW"><polygon fill="#2563EB" points="103.0923,196.8633,113.0923,200.8633,103.0923,204.8633,107.0923,200.8633" style="stroke:#2563EB;stroke-width:1;"/><line style="stroke:#2563EB;stroke-width:1;" x1="31.7524" x2="109.0923" y1="200.8633" y2="200.8633"/><text fill="#000000" font-family="Segoe UI" font-size="13" lengthAdjust="spacing" textLength="64.3398" x="38.7524" y="196.1211">GET /trips</text></g><g class="message" data-participant-1="GW" data-participant-2="Svc"><polygon fill="#2563EB" points="223.7935,226.1738,233.7935,230.1738,223.7935,234.1738,227.7935,230.1738" style="stroke:#2563EB;stroke-width:1;"/><line style="stroke:#2563EB;stroke-width:1;" x1="125.0923" x2="229.7935" y1="230.1738" y2="230.1738"/><text fill="#000000" font-family="Segoe UI" font-size="13" lengthAdjust="spacing" textLength="85.1348" x="132.0923" y="225.4316">route request</text></g><rect fill="#EEEEEE" height="3" style="stroke:#EEEEEE;stroke-width:1;" width="465.4707" x="0" y="258.8291"/><line style="stroke:#000000;stroke-width:1;" x1="0" x2="465.4707" y1="258.8291" y2="258.8291"/><line style="stroke:#000000;stroke-width:1;" x1="0" x2="465.4707" y1="261.8291" y2="261.8291"/><rect fill="#EEEEEE" height="23.3105" style="stroke:#000000;stroke-width:2;" width="80.3711" x="192.5498" y="248.1738"/><text fill="#000000" font-family="Segoe UI" font-size="13" font-weight="bold" lengthAdjust="spacing" textLength="62.0864" x="198.5498" y="264.7422">Database</text><g class="message" data-participant-1="Svc" data-participant-2="DB"><polygon fill="#2563EB" points="402.0459,298.7949,412.0459,302.7949,402.0459,306.7949,406.0459,302.7949" style="stroke:#2563EB;stroke-width:1;"/><line style="stroke:#2563EB;stroke-width:1;" x1="245.7935" x2="408.0459" y1="302.7949" y2="302.7949"/><text fill="#000000" font-family="Segoe UI" font-size="13" lengthAdjust="spacing" textLength="149.2524" x="252.7935" y="298.0527">SELECT ... WHERE filters</text></g><g class="message" data-participant-1="DB" data-participant-2="Svc"><polygon fill="#2563EB" points="256.7935,328.1055,246.7935,332.1055,256.7935,336.1055,252.7935,332.1055" style="stroke:#2563EB;stroke-width:1;"/><line style="stroke:#2563EB;stroke-width:1;stroke-dasharray:2,2;" x1="250.7935" x2="418.0459" y1="332.1055" y2="332.1055"/><text fill="#000000" font-family="Segoe UI" font-size="13" lengthAdjust="spacing" textLength="93.209" x="262.7935" y="327.3633">Page of results</text></g><g class="message" data-participant-1="Svc" data-participant-2="GW"><polygon fill="#2563EB" points="136.0923,357.416,126.0923,361.416,136.0923,365.416,132.0923,361.416" style="stroke:#2563EB;stroke-width:1;"/><line style="stroke:#2563EB;stroke-width:1;stroke-dasharray:2,2;" x1="130.0923" x2="239.7935" y1="361.416" y2="361.416"/><text fill="#000000" font-family="Segoe UI" font-size="13" lengthAdjust="spacing" textLength="47.3599" x="142.0923" y="356.6738">200 OK</text></g><g class="message" data-participant-1="GW" data-participant-2="Client"><polygon fill="#2563EB" points="42.7524,386.7266,32.7524,390.7266,42.7524,394.7266,38.7524,390.7266" style="stroke:#2563EB;stroke-width:1;"/><line style="stroke:#2563EB;stroke-width:1;stroke-dasharray:2,2;" x1="36.7524" x2="119.0923" y1="390.7266" y2="390.7266"/><text fill="#000000" font-family="Segoe UI" font-size="13" lengthAdjust="spacing" textLength="47.3599" x="48.7524" y="385.9844">200 OK</text></g><a href="/microservices/svc-trip-catalog/#integration-context" target="_top" title="/microservices/svc-trip-catalog/#integration-context" xlink:actuate="onRequest" xlink:href="/microservices/svc-trip-catalog/#integration-context" xlink:show="new" xlink:title="/microservices/svc-trip-catalog/#integration-context" xlink:type="simple"><text fill="#0000FF" font-family="Segoe UI" font-size="10" lengthAdjust="spacing" text-decoration="underline" textLength="190.332" x="274.1387" y="14.668">&#11014; svc-trip-catalog Integration Context</text></a><!--SRC=[ZPFFZjem4CRlVeeHdFcpi5qG4fL8I2WgsjA6BOSj1vCCmTfWKzkGhQfU-pHzgZv99m52W3qqkKpo_JpZ-JmsBq9kkUORMFBm9TPg9oDN9Kf3rVUobvc2C6iUgLJ865OyCLXI8bpnNM9z9UqZto1K0emLmjEuKbwEttSeGuIV3EWPQAtIOwdMkuSsBlFVKwwj2CMMI-ie7Q4-8LxtOU3S8DURzhh-lT_DiObOuKH8l4WpQBMTJYlN7VLw8VbtNRzvLqWtTlW-wRdygEnbrh3JMRPBsXjMjhqE-yNO6ZajW-VdnaQ4MXdKUn6YQPXzMBDQR6iXjpnHSQCgfCLOSokKh8LaBBvQ-FldDroJC3w3u1x0nO8nAso2CF9cqCXmyqq6o7MuXlmBKc7Ni1A9HMqOsvujXOgR29Is0jp08RoK1zCnZBZ5bF_8cT4SgaF76z2iN73N6ytXO1_-H_EBHN6I4VrQSaCpDLN6nXg3pvCyqz0XNrtltdCPasGwg3qPI_df6AX2aPnlnKs1-jfkacfZbZb1P6PB7iDNWIa82K7AuvZIFOt9IfGHP1KOEzW1jVTPqxsIkOo7Lkp9bDoDupXJI6JMSGze6aZKsHKmzanduWbd_JuCJzts-unb8YMWHdiGU1FFdK6zNeVv1- -BLnnTaQha1uMrelAKn-JDYceRkgA6HLXQSYnoQgZLRCAdZsKaypFhWuXZyszHepdx1m00]--></g></svg>