<svg xmlns="http://www.w3.org/2000/svg" xmlns:xlink="http://www.w3.org/1999/xlink" contentStyleType="text/css" data-diagram-type="SEQUENCE" height="676px" preserveAspectRatio="none" style="width:774px;height:676px;background:#FEFEFE;" version="1.1" viewBox="0 0 774 676" width="774px" zoomAndPan="magnify"><title>PUT /reservations/{reservation_id}/status</title><defs/><g><rect fill="#FEFEFE" height="676" style="stroke:none;stroke-width:1;" width="774" x="0" y="0"/><text fill="#000000" font-family="Segoe UI" font-size="14" font-weight="bold" lengthAdjust="spacing" textLength="304.541" x="230.8242" y="28.5352">PUT /reservations/{reservation_id}/status</text><text fill="#000000" font-family="Segoe UI" font-size="14" font-weight="bold" lengthAdjust="spacing" textLength="210.0615" x="278.064" y="45.0234">Transition reservation status</text><g><title>API Gateway</title><rect fill="#C77B30" height="391.7266" style="stroke:#A23B72;stroke-width:1;" width="10" x="312.1426" y="188.0859"/></g><g><title>svc-reservations</title><rect fill="#C77B30" height="333.1055" style="stroke:#A23B72;stroke-width:1;" width="10" x="433.6982" y="217.3965"/></g><g><title>PostgreSQL</title><rect fill="#FCE4EC" height="29.3105" style="stroke:#A23B72;stroke-width:1;" width="10" x="715.7646" y="325.3281"/></g><g><title>PostgreSQL</title><rect fill="#FCE4EC" height="29.3105" style="stroke:#A23B72;stroke-width:1;" width="10" x="715.7646" y="419.2598"/></g><g><title>Client</title><rect fill="#000000" fill-opacity="0.00000" height="476.3477" width="8" x="27.7524" y="121.4648"/><line style="stroke:#A23B72;stroke-width:0.5;stroke-dasharray:5,5;" x1="31" x2="31" y1="121.4648" y2="597.8125"/></g><g><title>API Gateway</title><rect fill="#000000" fill-opacity="0.00000" height="476.3477" width="8" x="313.1426" y="121.4648"/><line style="stroke:#A23B72;stroke-width:0.5;stroke-dasharray:5,5;" x1="316.8535" x2="316.8535" y1="121.4648" y2="597.8125"/></g><g><title>svc-reservations</title><rect fill="#000000" fill-opacity="0.00000" height="476.3477" width="8" x="434.6982" y="121.4648"/><line style="stroke:#A23B72;stroke-width:0.5;stroke-dasharray:5,5;" x1="438.4316" x2="438.4316" y1="121.4648" y2="597.8125"/></g><g><title>Kafka</title><rect fill="#000000" fill-opacity="0.00000" height="476.3477" width="8" x="636.3735" y="121.4648"/><line style="stroke:#A23B72;stroke-width:0.5;stroke-dasharray:5,5;" x1="639.4072" x2="639.4072" y1="121.4648" y2="597.8125"/></g><g><title>PostgreSQL</title><rect fill="#000000" fill-opacity="0.00000" height="476.3477" width="8" x="716.7646" y="121.4648"/><line style="stroke:#A23B72;stroke-width:0.5;stroke-dasharray:5,5;" x1="720.3398" x2="720.3398" y1="121.4648" y2="597.8125"/></g><g class="participant participant-head" data-participant="Client"><rect fill="#E8F4F8" height="30.4883" rx="2.5" ry="2.5" style="stroke:#2E86AB;stroke-width:0.5;" width="53.5049" x="5" y="89.9766"/><text fill="#000000" font-family="Segoe UI" font-size="14" lengthAdjust="spacing" textLength="39.5049" x="12" y="110.5117">Client</text></g><g class="participant participant-tail" data-participant="Client"><rect fill="#E8F4F8" height="30.4883" rx="2.5" ry="2.5" style="stroke:#2E86AB;stroke-width:0.5;" width="53.5049" x="5" y="596.8125"/><text fill="#000000" font-family="Segoe UI" font-size="14" lengthAdjust="spacing" textLength="39.5049" x="12" y="617.3477">Client</text></g><g class="participant participant-head" data-participant="GW"><rect fill="#DBEAFE" height="30.4883" rx="2.5" ry="2.5" style="stroke:#2E86AB;stroke-width:0.5;" width="96.5781" x="268.8535" y="89.9766"/><text fill="#000000" font-family="Segoe UI" font-size="14" lengthAdjust="spacing" textLength="82.5781" x="275.8535" y="110.5117">API Gateway</text></g><g class="participant participant-tail" data-participant="GW"><rect fill="#DBEAFE" height="30.4883" rx="2.5" ry="2.5" style="stroke:#2E86AB;stroke-width:0.5;" width="96.5781" x="268.8535" y="596.8125"/><text fill="#000000" font-family="Segoe UI" font-size="14" lengthAdjust="spacing" textLength="82.5781" x="275.8535" y="617.3477">API Gateway</text></g><g class="participant participant-head" data-participant="Svc"><a href="/microservices/svc-reservations/" target="_top" title="/microservices/svc-reservations/" xlink:actuate="onRequest" xlink:href="/microservices/svc-reservations/" xlink:show="new" xlink:title="/microservices/svc-reservations/" xlink:type="simple"><rect fill="#E8F4F8" height="30.4883" rx="2.5" ry="2.5" style="stroke:#2E86AB;stroke-width:0.5;" width="126.5332" x="375.4316" y="89.9766"/><text fill="#000000" font-family="Segoe UI" font-size="14" lengthAdjust="spacing" textLength="112.5332" x="382.4316" y="110.5117">svc-reservations</text></a></g><g class="participant participant-tail" data-participant="Svc"><a href="/microservices/svc-reservations/" target="_top" title="/microservices/svc-reservations/" xlink:actuate="onRequest" xlink:href="/microservices/svc-reservations/" xlink:show="new" xlink:title="/microservices/svc-reservations/" xlink:type="simple"><rect fill="#E8F4F8" height="30.4883" rx="2.5" ry="2.5" style="stroke:#2E86AB;stroke-width:0.5;" width="126.5332" x="375.4316" y="596.8125"/><text fill="#000000" font-family="Segoe UI" font-size="14" lengthAdjust="spacing" textLength="112.5332" x="382.4316" y="617.3477">svc-reservations</text></a></g><g class="participant participant-head" data-participant="Kafka"><path d="M616.4072,94.9766 L664.3398,94.9766 C669.3398,94.9766 669.3398,108.2207 669.3398,108.2207 C669.3398,108.2207 669.3398,121.4648 664.3398,121.4648 L616.4072,121.4648 C611.4072,121.4648 611.4072,108.2207 611.4072,108.2207 C611.4072,108.2207 611.4072,94.9766 616.4072,94.9766" fill="#F0E6FF" style="stroke:#181818;stroke-width:0.5;"/><path d="M664.3398,94.9766 C659.3398,94.9766 659.3398,108.2207 659.3398,108.2207 C659.3398,121.4648 664.3398,121.4648 664.3398,121.4648" fill="none" style="stroke:#181818;stroke-width:0.5;"/><text fill="#000000" font-family="Segoe UI" font-size="14" lengthAdjust="spacing" textLength="37.9326" x="616.4072" y="113.5117">Kafka</text></g><g class="participant participant-tail" data-participant="Kafka"><path d="M616.4072,596.8125 L664.3398,596.8125 C669.3398,596.8125 669.3398,610.0566 669.3398,610.0566 C669.3398,610.0566 669.3398,623.3008 664.3398,623.3008 L616.4072,623.3008 C611.4072,623.3008 611.4072,610.0566 611.4072,610.0566 C611.4072,610.0566 611.4072,596.8125 616.4072,596.8125" fill="#F0E6FF" style="stroke:#181818;stroke-width:0.5;"/><path d="M664.3398,596.8125 C659.3398,596.8125 659.3398,610.0566 659.3398,610.0566 C659.3398,623.3008 664.3398,623.3008 664.3398,623.3008" fill="none" style="stroke:#181818;stroke-width:0.5;"/><text fill="#000000" font-family="Segoe UI" font-size="14" lengthAdjust="spacing" textLength="37.9326" x="616.4072" y="615.3477">Kafka</text></g><g class="participant participant-head" data-participant="DB"><text fill="#000000" font-family="Segoe UI" font-size="14" lengthAdjust="spacing" textLength="76.8496" x="679.3398" y="118.5117">PostgreSQL</text><path d="M702.7646,68.9766 C702.7646,58.9766 720.7646,58.9766 720.7646,58.9766 C720.7646,58.9766 738.7646,58.9766 738.7646,68.9766 L738.7646,94.9766 C738.7646,104.9766 720.7646,104.9766 720.7646,104.9766 C720.7646,104.9766 702.7646,104.9766 702.7646,94.9766 L702.7646,68.9766" fill="#FCE4EC" style="stroke:#181818;stroke-width:0.5;"/><path d="M702.7646,68.9766 C702.7646,78.9766 720.7646,78.9766 720.7646,78.9766 C720.7646,78.9766 738.7646,78.9766 738.7646,68.9766" fill="none" style="stroke:#181818;stroke-width:0.5;"/></g><g class="participant participant-tail" data-participant="DB"><text fill="#000000" font-family="Segoe UI" font-size="14" lengthAdjust="spacing" textLength="76.8496" x="679.3398" y="610.3477">PostgreSQL</text><path d="M702.7646,623.3008 C702.7646,613.3008 720.7646,613.3008 720.7646,613.3008 C720.7646,613.3008 738.7646,613.3008 738.7646,623.3008 L738.7646,649.3008 C738.7646,659.3008 720.7646,659.3008 720.7646,659.3008 C720.7646,659.3008 702.7646,659.3008 702.7646,649.3008 L702.7646,623.3008" fill="#FCE4EC" style="stroke:#181818;stroke-width:0.5;"/><path d="M702.7646,623.3008 C702.7646,633.3008 720.7646,633.3008 720.7646,633.3008 C720.7646,633.3008 738.7646,633.3008 738.7646,623.3008" fill="none" style="stroke:#181818;stroke-width:0.5;"/></g><g><title>API Gateway</title><rect fill="#C77B30" height="391.7266" style="stroke:#A23B72;stroke-width:1;" width="10" x="312.1426" y="188.0859"/></g><g><title>svc-reservations</title><rect fill="#C77B30" height="333.1055" style="stroke:#A23B72;stroke-width:1;" width="10" x="433.6982" y="217.3965"/></g><g><title>PostgreSQL</title><rect fill="#FCE4EC" height="29.3105" style="stroke:#A23B72;stroke-width:1;" width="10" x="715.7646" y="325.3281"/></g><g><title>PostgreSQL</title><rect fill="#FCE4EC" height="29.3105" style="stroke:#A23B72;stroke-width:1;" width="10" x="715.7646" y="419.2598"/></g><path d="M368,136.4648 L368,161.4648 L508,161.4648 L508,146.4648 L498,136.4648 L368,136.4648" fill="#FEFFDD" style="stroke:#181818;stroke-width:0.5;"/><path d="M498,136.4648 L498,146.4648 L508,146.4648 L498,136.4648" fill="#FEFFDD" style="stroke:#181818;stroke-width:0.5;"/><a href="/services/api/svc-reservations.html#/Reservation%20Status/transitionStatus" target="_top" title="/services/api/svc-reservations.html#/Reservation%20Status/transitionStatus" xlink:actuate="onRequest" xlink:href="/services/api/svc-reservations.html#/Reservation%20Status/transitionStatus" xlink:show="new" xlink:title="/services/api/svc-reservations.html#/Reservation%20Status/transitionStatus" xlink:type="simple"><text fill="#0000FF" font-family="Segoe UI" font-size="13" lengthAdjust="spacing" text-decoration="underline" textLength="119.4058" x="374" y="154.0332">View in Swagger UI</text></a><g class="message" data-participant-1="Client" data-participant-2="GW"><polygon fill="#C77B30" points="300.1426,184.0859,310.1426,188.0859,300.1426,192.0859,304.1426,188.0859" style="stroke:#C77B30;stroke-width:1;"/><line style="stroke:#C77B30;stroke-width:1;" x1="31.7524" x2="306.1426" y1="188.0859" y2="188.0859"/><text fill="#000000" font-family="Segoe UI" font-size="13" lengthAdjust="spacing" textLength="261.3901" x="38.7524" y="183.3438">PUT /reservations/{reservation_id}/status</text></g><g class="message" data-participant-1="GW" data-participant-2="Svc"><polygon fill="#C77B30" points="421.6982,213.3965,431.6982,217.3965,421.6982,221.3965,425.6982,217.3965" style="stroke:#C77B30;stroke-width:1;"/><line style="stroke:#C77B30;stroke-width:1;" x1="322.1426" x2="427.6982" y1="217.3965" y2="217.3965"/><a href="/microservices/svc-reservations/#put-reservationsreservation_idstatus-transition-reservation-status" target="_top" title="/microservices/svc-reservations/#put-reservationsreservation_idstatus-transition-reservation-status" xlink:actuate="onRequest" xlink:href="/microservices/svc-reservations/#put-reservationsreservation_idstatus-transition-reservation-status" xlink:show="new" xlink:title="/microservices/svc-reservations/#put-reservationsreservation_idstatus-transition-reservation-status" xlink:type="simple"><text fill="#0000FF" font-family="Segoe UI" font-size="13" lengthAdjust="spacing" text-decoration="underline" textLength="85.1348" x="329.1426" y="212.6543">route request</text></a></g><path d="M448,230.3965 L448,255.3965 L606,255.3965 L606,240.3965 L596,230.3965 L448,230.3965" fill="#FEFFDD" style="stroke:#181818;stroke-width:0.5;"/><path d="M596,230.3965 L596,240.3965 L606,240.3965 L596,230.3965" fill="#FEFFDD" style="stroke:#181818;stroke-width:0.5;"/><text fill="#000000" font-family="Segoe UI" font-size="13" lengthAdjust="spacing" textLength="137.5728" x="454" y="247.9648">Validate request body</text><rect fill="#EEEEEE" height="3" style="stroke:#EEEEEE;stroke-width:1;" width="767.1895" x="0" y="281.3623"/><line style="stroke:#000000;stroke-width:1;" x1="0" x2="767.1895" y1="281.3623" y2="281.3623"/><line style="stroke:#000000;stroke-width:1;" x1="0" x2="767.1895" y1="284.3623" y2="284.3623"/><rect fill="#EEEEEE" height="23.3105" style="stroke:#000000;stroke-width:2;" width="80.3711" x="343.4092" y="270.707"/><text fill="#000000" font-family="Segoe UI" font-size="13" font-weight="bold" lengthAdjust="spacing" textLength="62.0864" x="349.4092" y="287.2754">Database</text><g class="message" data-participant-1="Svc" data-participant-2="DB"><polygon fill="#C77B30" points="703.7646,321.3281,713.7646,325.3281,703.7646,329.3281,707.7646,325.3281" style="stroke:#C77B30;stroke-width:1;"/><line style="stroke:#C77B30;stroke-width:1;" x1="443.6982" x2="709.7646" y1="325.3281" y2="325.3281"/><text fill="#000000" font-family="Segoe UI" font-size="13" lengthAdjust="spacing" textLength="145.374" x="450.6982" y="320.5859">SELECT ... FOR UPDATE</text></g><g class="message" data-participant-1="DB" data-participant-2="Svc"><polygon fill="#C77B30" points="454.6982,350.6387,444.6982,354.6387,454.6982,358.6387,450.6982,354.6387" style="stroke:#C77B30;stroke-width:1;"/><line style="stroke:#C77B30;stroke-width:1;stroke-dasharray:2,2;" x1="448.6982" x2="719.7646" y1="354.6387" y2="354.6387"/><text fill="#000000" font-family="Segoe UI" font-size="13" lengthAdjust="spacing" textLength="75.3086" x="460.6982" y="349.8965">Current row</text></g><path d="M448,367.6387 L448,392.6387 L611,392.6387 L611,377.6387 L601,367.6387 L448,367.6387" fill="#FEFFDD" style="stroke:#181818;stroke-width:0.5;"/><path d="M601,367.6387 L601,377.6387 L611,377.6387 L601,367.6387" fill="#FEFFDD" style="stroke:#181818;stroke-width:0.5;"/><text fill="#000000" font-family="Segoe UI" font-size="13" lengthAdjust="spacing" textLength="142.4858" x="454" y="385.207">Replace mutable fields</text><g class="message" data-participant-1="Svc" data-participant-2="DB"><polygon fill="#C77B30" points="703.7646,415.2598,713.7646,419.2598,703.7646,423.2598,707.7646,419.2598" style="stroke:#C77B30;stroke-width:1;"/><line style="stroke:#C77B30;stroke-width:1;" x1="443.6982" x2="709.7646" y1="419.2598" y2="419.2598"/><text fill="#000000" font-family="Segoe UI" font-size="13" lengthAdjust="spacing" textLength="109.4526" x="450.6982" y="414.5176">UPDATE ... SET ...</text></g><g class="message" data-participant-1="DB" data-participant-2="Svc"><polygon fill="#C77B30" points="454.6982,444.5703,444.6982,448.5703,454.6982,452.5703,450.6982,448.5703" style="stroke:#C77B30;stroke-width:1;"/><line style="stroke:#C77B30;stroke-width:1;stroke-dasharray:2,2;" x1="448.6982" x2="719.7646" y1="448.5703" y2="448.5703"/><text fill="#000000" font-family="Segoe UI" font-size="13" lengthAdjust="spacing" textLength="80.2725" x="460.6982" y="443.8281">Updated row</text></g><rect fill="#EEEEEE" height="3" style="stroke:#EEEEEE;stroke-width:1;" width="767.1895" x="0" y="477.2256"/><line style="stroke:#000000;stroke-width:1;" x1="0" x2="767.1895" y1="477.2256" y2="477.2256"/><line style="stroke:#000000;stroke-width:1;" x1="0" x2="767.1895" y1="480.2256" y2="480.2256"/><rect fill="#EEEEEE" height="23.3105" style="stroke:#000000;stroke-width:2;" width="106.8218" x="330.1838" y="466.5703"/><text fill="#000000" font-family="Segoe UI" font-size="13" font-weight="bold" lengthAdjust="spacing" textLength="88.5371" x="336.1838" y="483.1387">Async Events</text><g class="message" data-participant-1="Svc" data-participant-2="Kafka"><line style="stroke:#C77B30;stroke-width:1;" x1="638.3735" x2="628.3735" y1="521.1914" y2="517.1914"/><line style="stroke:#C77B30;stroke-width:1;" x1="638.3735" x2="628.3735" y1="521.1914" y2="525.1914"/><line style="stroke:#C77B30;stroke-width:1;" x1="443.6982" x2="639.3735" y1="521.1914" y2="521.1914"/><text fill="#000000" font-family="Segoe UI" font-size="13" lengthAdjust="spacing" textLength="172.6753" x="450.6982" y="516.4492">reservation.status_changed</text></g><g class="message" data-participant-1="Svc" data-participant-2="GW"><polygon fill="#C77B30" points="333.1426,546.502,323.1426,550.502,333.1426,554.502,329.1426,550.502" style="stroke:#C77B30;stroke-width:1;"/><line style="stroke:#C77B30;stroke-width:1;stroke-dasharray:2,2;" x1="327.1426" x2="437.6982" y1="550.502" y2="550.502"/><text fill="#000000" font-family="Segoe UI" font-size="13" lengthAdjust="spacing" textLength="47.3599" x="339.1426" y="545.7598">200 OK</text></g><g class="message" data-participant-1="GW" data-participant-2="Client"><polygon fill="#C77B30" points="42.7524,575.8125,32.7524,579.8125,42.7524,583.8125,38.7524,579.8125" style="stroke:#C77B30;stroke-width:1;"/><line style="stroke:#C77B30;stroke-width:1;stroke-dasharray:2,2;" x1="36.7524" x2="316.1426" y1="579.8125" y2="579.8125"/><text fill="#000000" font-family="Segoe UI" font-size="13" lengthAdjust="spacing" textLength="47.3599" x="48.7524" y="575.0703">200 OK</text></g><!--SRC=[ZLHHJ-em67tlh_W2kOymH2E419C1cp4IvJhG1oynPIkZSRIxRGSIut-_RJV7fYHNUEc-SzPpUhwlaw-KfLZWBQnm-1eBdh5ep1CkeEbxvezaoP0R7F4zPJ6iSI991Od86cU9yZbJTtXBe16Gc1DOt3IghvE_6M4XWNS4-kSAmVU5LDZhhSuxjZp3Gj6GffYf4HSH4GMbw_KltT4tobVJNj-_yFkMDgLhCgMCrBPnk-UZNjVY8_vMW_opljyvAw5lSVY-nYrynrLzruf_Yvs8yjpheG-455K9WTbY3euWaeWTLfGpwRnNdbvezE58XLKc_x2vm4nIKuOA1N8OeVIO1JJ62ILCDG1Bo9Trs9tTm3LMP8yFbdFz1Ct9o7DrasiykGjRLNEM7En2U7vsjZGKt40q9DBvodIMox85kjcPdeHRl7x5TWUxqbbql4lVHn5MU8MbPiouLB4WmU-ffKr6cZFsBhmnGao72Nn7X97NyMe3fJPEwJVzzaPjawRpS2pzwdO26vMZoY3p0ZnIiWVA8DZZEDOIYvlb4X4MWL55A4yGMbScfy7FMuPmgAYk4fjlCHbwgJSo6Gv-a68ppLIjKbVATLh70rMvhHm5FNxQWZ1tJYfziDALCV5fAmzOq7YZWAyBVuyueH4-lWmh7XqG6WvXyjcpuH0XGzPdqkqQGE1DlV4Sskqs-FSFi9XDtBbtbAoqL2zRPHBZJ0YJiVuGe8XKw2TzFP0qmVhpiSsq2ts9rfGaaQmRoPMjaS2pXlxlOf6QqqOdN9Wpk_B0Gl1ssgUidFkg6ET1zLQsy-nVmWrcCOaAxkS4TJiTkB-jIfYXDfEX6SMqdM9TFw5_]--></g></svg>