<svg xmlns="http://www.w3.org/2000/svg" xmlns:xlink="http://www.w3.org/1999/xlink" contentStyleType="text/css" data-diagram-type="SEQUENCE" height="474px" preserveAspectRatio="none" style="width:509px;height:474px;background:#FEFEFE;" version="1.1" viewBox="0 0 509 474" width="509px" zoomAndPan="magnify"><title>GET /tiers</title><defs/><g><rect fill="#FEFEFE" height="474" style="stroke:none;stroke-width:1;" width="509" x="0" y="0"/><text fill="#000000" font-family="Segoe UI" font-size="14" font-weight="bold" lengthAdjust="spacing" textLength="73.7461" x="213.8088" y="28.5352">GET /tiers</text><text fill="#000000" font-family="Segoe UI" font-size="14" font-weight="bold" lengthAdjust="spacing" textLength="290.2129" x="105.5754" y="45.0234">List all loyalty tiers and their thresholds</text><g><title>API Gateway</title><rect fill="#2563EB" height="189.8633" style="stroke:#A23B72;stroke-width:1;" width="10" x="114.1528" y="188.0859"/></g><g><title>svc-loyalty-rewards</title><rect fill="#2563EB" height="131.2422" style="stroke:#A23B72;stroke-width:1;" width="10" x="247.3262" y="217.3965"/></g><g><title>Couchbase</title><rect fill="#FCE4EC" height="29.3105" style="stroke:#A23B72;stroke-width:1;" width="10" x="452.207" y="290.0176"/></g><g><title>Client</title><rect fill="#000000" fill-opacity="0.00000" height="274.4844" width="8" x="27.7524" y="121.4648"/><line style="stroke:#A23B72;stroke-width:0.5;stroke-dasharray:5,5;" x1="31" x2="31" y1="121.4648" y2="395.9492"/></g><g><title>API Gateway</title><rect fill="#000000" fill-opacity="0.00000" height="274.4844" width="8" x="115.1528" y="121.4648"/><line style="stroke:#A23B72;stroke-width:0.5;stroke-dasharray:5,5;" x1="118.8638" x2="118.8638" y1="121.4648" y2="395.9492"/></g><g><title>svc-loyalty-rewards</title><rect fill="#000000" fill-opacity="0.00000" height="274.4844" width="8" x="248.3262" y="121.4648"/><line style="stroke:#A23B72;stroke-width:0.5;stroke-dasharray:5,5;" x1="251.4419" x2="251.4419" y1="121.4648" y2="395.9492"/></g><g><title>Couchbase</title><rect fill="#000000" fill-opacity="0.00000" height="274.4844" width="8" x="453.207" y="121.4648"/><line style="stroke:#A23B72;stroke-width:0.5;stroke-dasharray:5,5;" x1="457.0503" x2="457.0503" y1="121.4648" y2="395.9492"/></g><g class="participant participant-head" data-participant="Client"><rect fill="#E8F4F8" height="30.4883" rx="2.5" ry="2.5" style="stroke:#2E86AB;stroke-width:0.5;" width="53.5049" x="5" y="89.9766"/><text fill="#000000" font-family="Segoe UI" font-size="14" lengthAdjust="spacing" textLength="39.5049" x="12" y="110.5117">Client</text></g><g class="participant participant-tail" data-participant="Client"><rect fill="#E8F4F8" height="30.4883" rx="2.5" ry="2.5" style="stroke:#2E86AB;stroke-width:0.5;" width="53.5049" x="5" y="394.9492"/><text fill="#000000" font-family="Segoe UI" font-size="14" lengthAdjust="spacing" textLength="39.5049" x="12" y="415.4844">Client</text></g><g class="participant participant-head" data-participant="GW"><rect fill="#DBEAFE" height="30.4883" rx="2.5" ry="2.5" style="stroke:#2E86AB;stroke-width:0.5;" width="96.5781" x="70.8638" y="89.9766"/><text fill="#000000" font-family="Segoe UI" font-size="14" lengthAdjust="spacing" textLength="82.5781" x="77.8638" y="110.5117">API Gateway</text></g><g class="participant participant-tail" data-participant="GW"><rect fill="#DBEAFE" height="30.4883" rx="2.5" ry="2.5" style="stroke:#2E86AB;stroke-width:0.5;" width="96.5781" x="70.8638" y="394.9492"/><text fill="#000000" font-family="Segoe UI" font-size="14" lengthAdjust="spacing" textLength="82.5781" x="77.8638" y="415.4844">API Gateway</text></g><g class="participant participant-head" data-participant="Svc"><a href="/microservices/svc-loyalty-rewards/" target="_top" title="/microservices/svc-loyalty-rewards/" xlink:actuate="onRequest" xlink:href="/microservices/svc-loyalty-rewards/" xlink:show="new" xlink:title="/microservices/svc-loyalty-rewards/" xlink:type="simple"><rect fill="#E8F4F8" height="30.4883" rx="2.5" ry="2.5" style="stroke:#2E86AB;stroke-width:0.5;" width="149.7686" x="177.4419" y="89.9766"/><text fill="#000000" font-family="Segoe UI" font-size="14" lengthAdjust="spacing" textLength="135.7686" x="184.4419" y="110.5117">svc-loyalty-rewards</text></a></g><g class="participant participant-tail" data-participant="Svc"><a href="/microservices/svc-loyalty-rewards/" target="_top" title="/microservices/svc-loyalty-rewards/" xlink:actuate="onRequest" xlink:href="/microservices/svc-loyalty-rewards/" xlink:show="new" xlink:title="/microservices/svc-loyalty-rewards/" xlink:type="simple"><rect fill="#E8F4F8" height="30.4883" rx="2.5" ry="2.5" style="stroke:#2E86AB;stroke-width:0.5;" width="149.7686" x="177.4419" y="394.9492"/><text fill="#000000" font-family="Segoe UI" font-size="14" lengthAdjust="spacing" textLength="135.7686" x="184.4419" y="415.4844">svc-loyalty-rewards</text></a></g><g class="participant participant-head" data-participant="DB"><text fill="#000000" font-family="Segoe UI" font-size="14" lengthAdjust="spacing" textLength="74.3135" x="417.0503" y="118.5117">Couchbase</text><path d="M439.207,68.9766 C439.207,58.9766 457.207,58.9766 457.207,58.9766 C457.207,58.9766 475.207,58.9766 475.207,68.9766 L475.207,94.9766 C475.207,104.9766 457.207,104.9766 457.207,104.9766 C457.207,104.9766 439.207,104.9766 439.207,94.9766 L439.207,68.9766" fill="#FCE4EC" style="stroke:#181818;stroke-width:0.5;"/><path d="M439.207,68.9766 C439.207,78.9766 457.207,78.9766 457.207,78.9766 C457.207,78.9766 475.207,78.9766 475.207,68.9766" fill="none" style="stroke:#181818;stroke-width:0.5;"/></g><g class="participant participant-tail" data-participant="DB"><text fill="#000000" font-family="Segoe UI" font-size="14" lengthAdjust="spacing" textLength="74.3135" x="417.0503" y="408.4844">Couchbase</text><path d="M439.207,421.4375 C439.207,411.4375 457.207,411.4375 457.207,411.4375 C457.207,411.4375 475.207,411.4375 475.207,421.4375 L475.207,447.4375 C475.207,457.4375 457.207,457.4375 457.207,457.4375 C457.207,457.4375 439.207,457.4375 439.207,447.4375 L439.207,421.4375" fill="#FCE4EC" style="stroke:#181818;stroke-width:0.5;"/><path d="M439.207,421.4375 C439.207,431.4375 457.207,431.4375 457.207,431.4375 C457.207,431.4375 475.207,431.4375 475.207,421.4375" fill="none" style="stroke:#181818;stroke-width:0.5;"/></g><g><title>API Gateway</title><rect fill="#2563EB" height="189.8633" style="stroke:#A23B72;stroke-width:1;" width="10" x="114.1528" y="188.0859"/></g><g><title>svc-loyalty-rewards</title><rect fill="#2563EB" height="131.2422" style="stroke:#A23B72;stroke-width:1;" width="10" x="247.3262" y="217.3965"/></g><g><title>Couchbase</title><rect fill="#FCE4EC" height="29.3105" style="stroke:#A23B72;stroke-width:1;" width="10" x="452.207" y="290.0176"/></g><path d="M182,136.4648 L182,161.4648 L322,161.4648 L322,146.4648 L312,136.4648 L182,136.4648" fill="#FEFFDD" style="stroke:#181818;stroke-width:0.5;"/><path d="M312,136.4648 L312,146.4648 L322,146.4648 L312,136.4648" fill="#FEFFDD" style="stroke:#181818;stroke-width:0.5;"/><a href="/services/api/svc-loyalty-rewards.html#/Tiers/listTiers" target="_top" title="/services/api/svc-loyalty-rewards.html#/Tiers/listTiers" xlink:actuate="onRequest" xlink:href="/services/api/svc-loyalty-rewards.html#/Tiers/listTiers" xlink:show="new" xlink:title="/services/api/svc-loyalty-rewards.html#/Tiers/listTiers" xlink:type="simple"><text fill="#0000FF" font-family="Segoe UI" font-size="13" lengthAdjust="spacing" text-decoration="underline" textLength="119.4058" x="188" y="154.0332">View in Swagger UI</text></a><g class="message" data-participant-1="Client" data-participant-2="GW"><polygon fill="#2563EB" points="102.1528,184.0859,112.1528,188.0859,102.1528,192.0859,106.1528,188.0859" style="stroke:#2563EB;stroke-width:1;"/><line style="stroke:#2563EB;stroke-width:1;" x1="31.7524" x2="108.1528" y1="188.0859" y2="188.0859"/><text fill="#000000" font-family="Segoe UI" font-size="13" lengthAdjust="spacing" textLength="63.4004" x="38.7524" y="183.3438">GET /tiers</text></g><g class="message" data-participant-1="GW" data-participant-2="Svc"><polygon fill="#2563EB" points="235.3262,213.3965,245.3262,217.3965,235.3262,221.3965,239.3262,217.3965" style="stroke:#2563EB;stroke-width:1;"/><line style="stroke:#2563EB;stroke-width:1;" x1="124.1528" x2="241.3262" y1="217.3965" y2="217.3965"/><text fill="#000000" font-family="Segoe UI" font-size="13" lengthAdjust="spacing" textLength="85.1348" x="131.1528" y="212.6543">route request</text></g><rect fill="#EEEEEE" height="3" style="stroke:#EEEEEE;stroke-width:1;" width="502.3638" x="0" y="246.0518"/><line style="stroke:#000000;stroke-width:1;" x1="0" x2="502.3638" y1="246.0518" y2="246.0518"/><line style="stroke:#000000;stroke-width:1;" x1="0" x2="502.3638" y1="249.0518" y2="249.0518"/><rect fill="#EEEEEE" height="23.3105" style="stroke:#000000;stroke-width:2;" width="80.3711" x="210.9963" y="235.3965"/><text fill="#000000" font-family="Segoe UI" font-size="13" font-weight="bold" lengthAdjust="spacing" textLength="62.0864" x="216.9963" y="251.9648">Database</text><g class="message" data-participant-1="Svc" data-participant-2="DB"><polygon fill="#2563EB" points="440.207,286.0176,450.207,290.0176,440.207,294.0176,444.207,290.0176" style="stroke:#2563EB;stroke-width:1;"/><line style="stroke:#2563EB;stroke-width:1;" x1="257.3262" x2="446.207" y1="290.0176" y2="290.0176"/><text fill="#000000" font-family="Segoe UI" font-size="13" lengthAdjust="spacing" textLength="175.8809" x="264.3262" y="285.2754">N1QL: SELECT WHERE filters</text></g><g class="message" data-participant-1="DB" data-participant-2="Svc"><polygon fill="#2563EB" points="268.3262,315.3281,258.3262,319.3281,268.3262,323.3281,264.3262,319.3281" style="stroke:#2563EB;stroke-width:1;"/><line style="stroke:#2563EB;stroke-width:1;stroke-dasharray:2,2;" x1="262.3262" x2="456.207" y1="319.3281" y2="319.3281"/><text fill="#000000" font-family="Segoe UI" font-size="13" lengthAdjust="spacing" textLength="87.604" x="274.3262" y="314.5859">Document set</text></g><g class="message" data-participant-1="Svc" data-participant-2="GW"><polygon fill="#2563EB" points="135.1528,344.6387,125.1528,348.6387,135.1528,352.6387,131.1528,348.6387" style="stroke:#2563EB;stroke-width:1;"/><line style="stroke:#2563EB;stroke-width:1;stroke-dasharray:2,2;" x1="129.1528" x2="251.3262" y1="348.6387" y2="348.6387"/><text fill="#000000" font-family="Segoe UI" font-size="13" lengthAdjust="spacing" textLength="47.3599" x="141.1528" y="343.8965">200 OK</text></g><g class="message" data-participant-1="GW" data-participant-2="Client"><polygon fill="#2563EB" points="42.7524,373.9492,32.7524,377.9492,42.7524,381.9492,38.7524,377.9492" style="stroke:#2563EB;stroke-width:1;"/><line style="stroke:#2563EB;stroke-width:1;stroke-dasharray:2,2;" x1="36.7524" x2="118.1528" y1="377.9492" y2="377.9492"/><text fill="#000000" font-family="Segoe UI" font-size="13" lengthAdjust="spacing" textLength="47.3599" x="48.7524" y="373.207">200 OK</text></g><!--SRC=[RP9VRzem5CNV_Icku9c5Frr1I4mYmM5eYBM3ZeUE1-DSmAgncMrWQDfthvq2JLOIARho-UKUtsFR5w5spB0jB1b_MHkzLrcYfJPGJMbuYRqITiCoVHHg3IicBHQK35TiBrsgbPkmBK9bYckDy3Ig57_7ttjK7E4l0V_qZT77irNpytqBb_do0pDESB5ZoiNQP6Wk2EtSz-CFoF-RfftqBktas5YiS2mKbjhqcwsutSprMFyfIMcZazORL-b376dgzLoUQ5VkojljPQkWtOYoHTla7o5EE8amf3E8d41ZVwcni0wOb23rYKbtWdmTcCh0RL0O_pLeDrfcbf3T- -XGIQH0vIh0BBoLPRd_C88XStXafvmPpg4wY6dVdsc9imTUEtlNZATDPdD-Uk3m_1nj1JVQeZa8ZZQw0KUBnJNtZ3csPDRVW4Jl-IQKUQz1x4D8w1rD254-8T07DC71P-OzhktPJjoo-BHnMrcDPY6PIFh0yWf-2Zo2K30zilNQztiQBHO4VN31Wf2tKA3s9OpUBOHE67VYuAF9CpbVFbzwCWpT1NzsNZJXmbhtJWVnWfDU3mQNQNizGeBe6_X9kp1fF8wxCALZcinW_fN-eB0IqfMi2v7uidRr7cY-tuPzMtGamm9_zhZCqwpNuVkt8XBo36DuuZpxBMeu9wy0]--></g></svg>