<svg xmlns="http://www.w3.org/2000/svg" xmlns:xlink="http://www.w3.org/1999/xlink" contentStyleType="text/css" data-diagram-type="SEQUENCE" height="522px" preserveAspectRatio="none" style="width:464px;height:522px;background:#FEFEFE;" version="1.1" viewBox="0 0 464 522" width="464px" zoomAndPan="magnify"><title>POST /templates</title><defs/><g><rect fill="#FEFEFE" height="522" style="stroke:none;stroke-width:1;" width="464" x="0" y="0"/><text fill="#000000" font-family="Segoe UI" font-size="14" font-weight="bold" lengthAdjust="spacing" textLength="121.6045" x="167.5449" y="41.3125">POST /templates</text><text fill="#000000" font-family="Segoe UI" font-size="14" font-weight="bold" lengthAdjust="spacing" textLength="214.874" x="120.9102" y="57.8008">Create a notification template</text><g><title>API Gateway</title><rect fill="#059669" height="225.1738" style="stroke:#A23B72;stroke-width:1;" width="10" x="156.2822" y="200.8633"/></g><g><title>svc-notifications</title><rect fill="#059669" height="166.5527" style="stroke:#A23B72;stroke-width:1;" width="10" x="278.5864" y="230.1738"/></g><g><title>PG . Valkey</title><rect fill="#FCE4EC" height="29.3105" style="stroke:#A23B72;stroke-width:1;" width="10" x="403.6582" y="338.1055"/></g><g><title>Client</title><rect fill="#000000" fill-opacity="0.00000" height="309.7949" width="8" x="27.7524" y="134.2422"/><line style="stroke:#A23B72;stroke-width:0.5;stroke-dasharray:5,5;" x1="31" x2="31" y1="134.2422" y2="444.0371"/></g><g><title>API Gateway</title><rect fill="#000000" fill-opacity="0.00000" height="309.7949" width="8" x="157.2822" y="134.2422"/><line style="stroke:#A23B72;stroke-width:0.5;stroke-dasharray:5,5;" x1="160.9932" x2="160.9932" y1="134.2422" y2="444.0371"/></g><g><title>svc-notifications</title><rect fill="#000000" fill-opacity="0.00000" height="309.7949" width="8" x="279.5864" y="134.2422"/><line style="stroke:#A23B72;stroke-width:0.5;stroke-dasharray:5,5;" x1="283.5713" x2="283.5713" y1="134.2422" y2="444.0371"/></g><g><title>PG . Valkey</title><rect fill="#000000" fill-opacity="0.00000" height="309.7949" width="8" x="404.6582" y="134.2422"/><line style="stroke:#A23B72;stroke-width:0.5;stroke-dasharray:5,5;" x1="408.6221" x2="408.6221" y1="134.2422" y2="444.0371"/></g><g class="participant participant-head" data-participant="Client"><a href="/applications/" target="_top" title="/applications/" xlink:actuate="onRequest" xlink:href="/applications/" xlink:show="new" xlink:title="/applications/" xlink:type="simple"><rect fill="#E8F4F8" height="30.4883" rx="2.5" ry="2.5" style="stroke:#2E86AB;stroke-width:0.5;" width="53.5049" x="5" y="102.7539"/><text fill="#000000" font-family="Segoe UI" font-size="14" lengthAdjust="spacing" textLength="39.5049" x="12" y="123.2891">Client</text></a></g><g class="participant participant-tail" data-participant="Client"><a href="/applications/" target="_top" title="/applications/" xlink:actuate="onRequest" xlink:href="/applications/" xlink:show="new" xlink:title="/applications/" xlink:type="simple"><rect fill="#E8F4F8" height="30.4883" rx="2.5" ry="2.5" style="stroke:#2E86AB;stroke-width:0.5;" width="53.5049" x="5" y="443.0371"/><text fill="#000000" font-family="Segoe UI" font-size="14" lengthAdjust="spacing" textLength="39.5049" x="12" y="463.5723">Client</text></a></g><g class="participant participant-head" data-participant="GW"><rect fill="#DBEAFE" height="30.4883" rx="2.5" ry="2.5" style="stroke:#2E86AB;stroke-width:0.5;" width="96.5781" x="112.9932" y="102.7539"/><text fill="#000000" font-family="Segoe UI" font-size="14" lengthAdjust="spacing" textLength="82.5781" x="119.9932" y="123.2891">API Gateway</text></g><g class="participant participant-tail" data-participant="GW"><rect fill="#DBEAFE" height="30.4883" rx="2.5" ry="2.5" style="stroke:#2E86AB;stroke-width:0.5;" width="96.5781" x="112.9932" y="443.0371"/><text fill="#000000" font-family="Segoe UI" font-size="14" lengthAdjust="spacing" textLength="82.5781" x="119.9932" y="463.5723">API Gateway</text></g><g class="participant participant-head" data-participant="Svc"><a href="/microservices/svc-notifications/" target="_top" title="/microservices/svc-notifications/" xlink:actuate="onRequest" xlink:href="/microservices/svc-notifications/" xlink:show="new" xlink:title="/microservices/svc-notifications/" xlink:type="simple"><rect fill="#E8F4F8" height="30.4883" rx="2.5" ry="2.5" style="stroke:#2E86AB;stroke-width:0.5;" width="128.0303" x="219.5713" y="102.7539"/><text fill="#000000" font-family="Segoe UI" font-size="14" lengthAdjust="spacing" textLength="114.0303" x="226.5713" y="123.2891">svc-notifications</text></a></g><g class="participant participant-tail" data-participant="Svc"><a href="/microservices/svc-notifications/" target="_top" title="/microservices/svc-notifications/" xlink:actuate="onRequest" xlink:href="/microservices/svc-notifications/" xlink:show="new" xlink:title="/microservices/svc-notifications/" xlink:type="simple"><rect fill="#E8F4F8" height="30.4883" rx="2.5" ry="2.5" style="stroke:#2E86AB;stroke-width:0.5;" width="128.0303" x="219.5713" y="443.0371"/><text fill="#000000" font-family="Segoe UI" font-size="14" lengthAdjust="spacing" textLength="114.0303" x="226.5713" y="463.5723">svc-notifications</text></a></g><g class="participant participant-head" data-participant="DB"><text fill="#000000" font-family="Segoe UI" font-size="14" lengthAdjust="spacing" textLength="82.0723" x="364.6221" y="131.2891">PG + Valkey</text><path d="M390.6582,81.7539 C390.6582,71.7539 408.6582,71.7539 408.6582,71.7539 C408.6582,71.7539 426.6582,71.7539 426.6582,81.7539 L426.6582,107.7539 C426.6582,117.7539 408.6582,117.7539 408.6582,117.7539 C408.6582,117.7539 390.6582,117.7539 390.6582,107.7539 L390.6582,81.7539" fill="#FCE4EC" style="stroke:#181818;stroke-width:0.5;"/><path d="M390.6582,81.7539 C390.6582,91.7539 408.6582,91.7539 408.6582,91.7539 C408.6582,91.7539 426.6582,91.7539 426.6582,81.7539" fill="none" style="stroke:#181818;stroke-width:0.5;"/></g><g class="participant participant-tail" data-participant="DB"><text fill="#000000" font-family="Segoe UI" font-size="14" lengthAdjust="spacing" textLength="82.0723" x="364.6221" y="456.5723">PG + Valkey</text><path d="M390.6582,469.5254 C390.6582,459.5254 408.6582,459.5254 408.6582,459.5254 C408.6582,459.5254 426.6582,459.5254 426.6582,469.5254 L426.6582,495.5254 C426.6582,505.5254 408.6582,505.5254 408.6582,505.5254 C408.6582,505.5254 390.6582,505.5254 390.6582,495.5254 L390.6582,469.5254" fill="#FCE4EC" style="stroke:#181818;stroke-width:0.5;"/><path d="M390.6582,469.5254 C390.6582,479.5254 408.6582,479.5254 408.6582,479.5254 C408.6582,479.5254 426.6582,479.5254 426.6582,469.5254" fill="none" style="stroke:#181818;stroke-width:0.5;"/></g><g><title>API Gateway</title><rect fill="#059669" height="225.1738" style="stroke:#A23B72;stroke-width:1;" width="10" x="156.2822" y="200.8633"/></g><g><title>svc-notifications</title><rect fill="#059669" height="166.5527" style="stroke:#A23B72;stroke-width:1;" width="10" x="278.5864" y="230.1738"/></g><g><title>PG . Valkey</title><rect fill="#FCE4EC" height="29.3105" style="stroke:#A23B72;stroke-width:1;" width="10" x="403.6582" y="338.1055"/></g><path d="M213,149.2422 L213,174.2422 L353,174.2422 L353,159.2422 L343,149.2422 L213,149.2422" fill="#FEFFDD" style="stroke:#181818;stroke-width:0.5;"/><path d="M343,149.2422 L343,159.2422 L353,159.2422 L343,149.2422" fill="#FEFFDD" style="stroke:#181818;stroke-width:0.5;"/><a href="/services/api/svc-notifications.html#/Templates/createTemplate" target="_top" title="/services/api/svc-notifications.html#/Templates/createTemplate" xlink:actuate="onRequest" xlink:href="/services/api/svc-notifications.html#/Templates/createTemplate" xlink:show="new" xlink:title="/services/api/svc-notifications.html#/Templates/createTemplate" xlink:type="simple"><text fill="#0000FF" font-family="Segoe UI" font-size="13" lengthAdjust="spacing" text-decoration="underline" textLength="119.4058" x="219" y="166.8105">View in Swagger UI</text></a><g class="message" data-participant-1="Client" data-participant-2="GW"><polygon fill="#059669" points="144.2822,196.8633,154.2822,200.8633,144.2822,204.8633,148.2822,200.8633" style="stroke:#059669;stroke-width:1;"/><line style="stroke:#059669;stroke-width:1;" x1="31.7524" x2="150.2822" y1="200.8633" y2="200.8633"/><text fill="#000000" font-family="Segoe UI" font-size="13" lengthAdjust="spacing" textLength="105.5298" x="38.7524" y="196.1211">POST /templates</text></g><g class="message" data-participant-1="GW" data-participant-2="Svc"><polygon fill="#059669" points="266.5864,226.1738,276.5864,230.1738,266.5864,234.1738,270.5864,230.1738" style="stroke:#059669;stroke-width:1;"/><line style="stroke:#059669;stroke-width:1;" x1="166.2822" x2="272.5864" y1="230.1738" y2="230.1738"/><text fill="#000000" font-family="Segoe UI" font-size="13" lengthAdjust="spacing" textLength="85.1348" x="173.2822" y="225.4316">route request</text></g><path d="M293,243.1738 L293,268.1738 L451,268.1738 L451,253.1738 L441,243.1738 L293,243.1738" fill="#FEFFDD" style="stroke:#181818;stroke-width:0.5;"/><path d="M441,243.1738 L441,253.1738 L451,253.1738 L441,243.1738" fill="#FEFFDD" style="stroke:#181818;stroke-width:0.5;"/><text fill="#000000" font-family="Segoe UI" font-size="13" lengthAdjust="spacing" textLength="137.5728" x="299" y="260.7422">Validate request body</text><rect fill="#EEEEEE" height="3" style="stroke:#EEEEEE;stroke-width:1;" width="457.6943" x="0" y="294.1396"/><line style="stroke:#000000;stroke-width:1;" x1="0" x2="457.6943" y1="294.1396" y2="294.1396"/><line style="stroke:#000000;stroke-width:1;" x1="0" x2="457.6943" y1="297.1396" y2="297.1396"/><rect fill="#EEEEEE" height="23.3105" style="stroke:#000000;stroke-width:2;" width="80.3711" x="188.6616" y="283.4844"/><text fill="#000000" font-family="Segoe UI" font-size="13" font-weight="bold" lengthAdjust="spacing" textLength="62.0864" x="194.6616" y="300.0527">Database</text><g class="message" data-participant-1="Svc" data-participant-2="DB"><polygon fill="#059669" points="391.6582,334.1055,401.6582,338.1055,391.6582,342.1055,395.6582,338.1055" style="stroke:#059669;stroke-width:1;"/><line style="stroke:#059669;stroke-width:1;" x1="288.5864" x2="397.6582" y1="338.1055" y2="338.1055"/><text fill="#000000" font-family="Segoe UI" font-size="13" lengthAdjust="spacing" textLength="96.0718" x="295.5864" y="333.3633">INSERT INTO ...</text></g><g class="message" data-participant-1="DB" data-participant-2="Svc"><polygon fill="#059669" points="299.5864,363.416,289.5864,367.416,299.5864,371.416,295.5864,367.416" style="stroke:#059669;stroke-width:1;"/><line style="stroke:#059669;stroke-width:1;stroke-dasharray:2,2;" x1="293.5864" x2="407.6582" y1="367.416" y2="367.416"/><text fill="#000000" font-family="Segoe UI" font-size="13" lengthAdjust="spacing" textLength="76.4575" x="305.5864" y="362.6738">Created row</text></g><g class="message" data-participant-1="Svc" data-participant-2="GW"><polygon fill="#059669" points="177.2822,392.7266,167.2822,396.7266,177.2822,400.7266,173.2822,396.7266" style="stroke:#059669;stroke-width:1;"/><line style="stroke:#059669;stroke-width:1;stroke-dasharray:2,2;" x1="171.2822" x2="282.5864" y1="396.7266" y2="396.7266"/><text fill="#000000" font-family="Segoe UI" font-size="13" lengthAdjust="spacing" textLength="77.7969" x="183.2822" y="391.9844">201 Created</text></g><g class="message" data-participant-1="GW" data-participant-2="Client"><polygon fill="#059669" points="42.7524,422.0371,32.7524,426.0371,42.7524,430.0371,38.7524,426.0371" style="stroke:#059669;stroke-width:1;"/><line style="stroke:#059669;stroke-width:1;stroke-dasharray:2,2;" x1="36.7524" x2="160.2822" y1="426.0371" y2="426.0371"/><text fill="#000000" font-family="Segoe UI" font-size="13" lengthAdjust="spacing" textLength="77.7969" x="48.7524" y="421.2949">201 Created</text></g><a href="/microservices/svc-notifications/#integration-context" target="_top" title="/microservices/svc-notifications/#integration-context" xlink:actuate="onRequest" xlink:href="/microservices/svc-notifications/#integration-context" xlink:show="new" xlink:title="/microservices/svc-notifications/#integration-context" xlink:type="simple"><text fill="#0000FF" font-family="Segoe UI" font-size="10" lengthAdjust="spacing" text-decoration="underline" textLength="192.6221" x="264.0723" y="14.668">&#11014; svc-notifications Integration Context</text></a><!--SRC=[ZPFBRjf058RtynH7iAoufq2Gg8IDZP2Y11MIB58MWtqm8yoCEnuWKTHjdwPFrIVfiR6D2QrKM33c_y_jc-DuAsJ4DT_1YdlRGAkzz6qLAWrLrqc-B2uSyORxwYXa06iUnbXIV5ppVMXS9Sqzto5KvXWeXCTffHoEt_SeFOHt1lGPQQsEMQdcvzjkzpRzUyQr4Pw8k3IMqZxgpD9s-jsHTMNvsBJJTs_SVcgx4sky4n8lqepQ7QlNJdLBlLv8RgllDbk5T8N3TKbFvNjbBhDwlTwgKzB-WhBZzDWFnZR8AGnUNXexuMaLepu83-D6VF1gKXcn5XutGicuKHNIOA3Jfvf7PF7LmEzVF-7A2jEp4-oJSxbap0WJ8imUvWje6Dn58JSOVvEsHZe0Xt8Io0sCHMUyKB53WT9KWCTmEYQjyoWAYpwfqaN4Q3Q52IKwyhSqRF8CrR7bZ6YLBdnNOwJk-S7x7pZBPN7LFZTynMDQkja4Fi4J3xTugZosYBpjt3WsOnIEe0w4dYhGHL6D8ZsFn7M9-iRimcfZaNDhU2cs_1cU11v1I9WVUH1GsiSfWK3f9rG9OWQhzYMPV_3n4XZtZ3WaQH8wsVRJaUm9W07Gyf2eapScDcTt8kRsqqXQ11i3Qft5qVJ2v-TGM2d_ZR7X4COvfk6GiSHCjGZG0ARtS-VhWduM3r2lry_5IlZeM2jwE-sFJpqUcOybUvOtdxdTRENUiY_XdunAjWpIFwsJP_O7]--></g></svg>