<svg xmlns="http://www.w3.org/2000/svg" xmlns:xlink="http://www.w3.org/1999/xlink" contentStyleType="text/css" data-diagram-type="SEQUENCE" height="581px" preserveAspectRatio="none" style="width:841px;height:581px;background:#FEFEFE;" version="1.1" viewBox="0 0 841 581" width="841px" zoomAndPan="magnify"><title>DELETE /reservations/{reservation_id}</title><defs/><g><rect fill="#FEFEFE" height="581" style="stroke:none;stroke-width:1;" width="841" x="0" y="0"/><text fill="#000000" font-family="Segoe UI" font-size="14" font-weight="bold" lengthAdjust="spacing" textLength="277.5938" x="277.7317" y="41.3125">DELETE /reservations/{reservation_id}</text><text fill="#000000" font-family="Segoe UI" font-size="14" font-weight="bold" lengthAdjust="spacing" textLength="147.0137" x="343.0217" y="57.8008">Cancel a reservation</text><g><title>API Gateway</title><rect fill="#DC2626" height="283.7949" style="stroke:#A23B72;stroke-width:1;" width="10" x="288.7134" y="200.8633"/></g><g><title>svc-reservations</title><rect fill="#DC2626" height="225.1738" style="stroke:#A23B72;stroke-width:1;" width="10" x="423.2729" y="230.1738"/></g><g><title>PostgreSQL</title><rect fill="#FCE4EC" height="29.3105" style="stroke:#A23B72;stroke-width:1;" width="10" x="642.5503" y="302.7949"/></g><g><title>PostgreSQL</title><rect fill="#FCE4EC" height="29.3105" style="stroke:#A23B72;stroke-width:1;" width="10" x="642.5503" y="396.7266"/></g><g><title>Client</title><rect fill="#000000" fill-opacity="0.00000" height="368.416" width="8" x="27.7524" y="134.2422"/><line style="stroke:#A23B72;stroke-width:0.5;stroke-dasharray:5,5;" x1="31" x2="31" y1="134.2422" y2="502.6582"/></g><g><title>API Gateway</title><rect fill="#000000" fill-opacity="0.00000" height="368.416" width="8" x="289.7134" y="134.2422"/><line style="stroke:#A23B72;stroke-width:0.5;stroke-dasharray:5,5;" x1="293.4243" x2="293.4243" y1="134.2422" y2="502.6582"/></g><g><title>svc-reservations</title><rect fill="#000000" fill-opacity="0.00000" height="368.416" width="8" x="424.2729" y="134.2422"/><line style="stroke:#A23B72;stroke-width:0.5;stroke-dasharray:5,5;" x1="428.0063" x2="428.0063" y1="134.2422" y2="502.6582"/></g><g><title>PostgreSQL</title><rect fill="#000000" fill-opacity="0.00000" height="368.416" width="8" x="643.5503" y="134.2422"/><line style="stroke:#A23B72;stroke-width:0.5;stroke-dasharray:5,5;" x1="647.1255" x2="647.1255" y1="134.2422" y2="502.6582"/></g><g class="participant participant-head" data-participant="Client"><a href="/applications/" target="_top" title="/applications/" xlink:actuate="onRequest" xlink:href="/applications/" xlink:show="new" xlink:title="/applications/" xlink:type="simple"><rect fill="#E8F4F8" height="30.4883" rx="2.5" ry="2.5" style="stroke:#2E86AB;stroke-width:0.5;" width="53.5049" x="5" y="102.7539"/><text fill="#000000" font-family="Segoe UI" font-size="14" lengthAdjust="spacing" textLength="39.5049" x="12" y="123.2891">Client</text></a></g><g class="participant participant-tail" data-participant="Client"><a href="/applications/" target="_top" title="/applications/" xlink:actuate="onRequest" xlink:href="/applications/" xlink:show="new" xlink:title="/applications/" xlink:type="simple"><rect fill="#E8F4F8" height="30.4883" rx="2.5" ry="2.5" style="stroke:#2E86AB;stroke-width:0.5;" width="53.5049" x="5" y="501.6582"/><text fill="#000000" font-family="Segoe UI" font-size="14" lengthAdjust="spacing" textLength="39.5049" x="12" y="522.1934">Client</text></a></g><g class="participant participant-head" data-participant="GW"><rect fill="#DBEAFE" height="30.4883" rx="2.5" ry="2.5" style="stroke:#2E86AB;stroke-width:0.5;" width="96.5781" x="245.4243" y="102.7539"/><text fill="#000000" font-family="Segoe UI" font-size="14" lengthAdjust="spacing" textLength="82.5781" x="252.4243" y="123.2891">API Gateway</text></g><g class="participant participant-tail" data-participant="GW"><rect fill="#DBEAFE" height="30.4883" rx="2.5" ry="2.5" style="stroke:#2E86AB;stroke-width:0.5;" width="96.5781" x="245.4243" y="501.6582"/><text fill="#000000" font-family="Segoe UI" font-size="14" lengthAdjust="spacing" textLength="82.5781" x="252.4243" y="522.1934">API Gateway</text></g><g class="participant participant-head" data-participant="Svc"><a href="/microservices/svc-reservations/" target="_top" title="/microservices/svc-reservations/" xlink:actuate="onRequest" xlink:href="/microservices/svc-reservations/" xlink:show="new" xlink:title="/microservices/svc-reservations/" xlink:type="simple"><rect fill="#E8F4F8" height="30.4883" rx="2.5" ry="2.5" style="stroke:#2E86AB;stroke-width:0.5;" width="126.5332" x="365.0063" y="102.7539"/><text fill="#000000" font-family="Segoe UI" font-size="14" lengthAdjust="spacing" textLength="112.5332" x="372.0063" y="123.2891">svc-reservations</text></a></g><g class="participant participant-tail" data-participant="Svc"><a href="/microservices/svc-reservations/" target="_top" title="/microservices/svc-reservations/" xlink:actuate="onRequest" xlink:href="/microservices/svc-reservations/" xlink:show="new" xlink:title="/microservices/svc-reservations/" xlink:type="simple"><rect fill="#E8F4F8" height="30.4883" rx="2.5" ry="2.5" style="stroke:#2E86AB;stroke-width:0.5;" width="126.5332" x="365.0063" y="501.6582"/><text fill="#000000" font-family="Segoe UI" font-size="14" lengthAdjust="spacing" textLength="112.5332" x="372.0063" y="522.1934">svc-reservations</text></a></g><g class="participant participant-head" data-participant="DB"><text fill="#000000" font-family="Segoe UI" font-size="14" lengthAdjust="spacing" textLength="76.8496" x="606.1255" y="131.2891">PostgreSQL</text><path d="M629.5503,81.7539 C629.5503,71.7539 647.5503,71.7539 647.5503,71.7539 C647.5503,71.7539 665.5503,71.7539 665.5503,81.7539 L665.5503,107.7539 C665.5503,117.7539 647.5503,117.7539 647.5503,117.7539 C647.5503,117.7539 629.5503,117.7539 629.5503,107.7539 L629.5503,81.7539" fill="#FCE4EC" style="stroke:#181818;stroke-width:0.5;"/><path d="M629.5503,81.7539 C629.5503,91.7539 647.5503,91.7539 647.5503,91.7539 C647.5503,91.7539 665.5503,91.7539 665.5503,81.7539" fill="none" style="stroke:#181818;stroke-width:0.5;"/></g><g class="participant participant-tail" data-participant="DB"><text fill="#000000" font-family="Segoe UI" font-size="14" lengthAdjust="spacing" textLength="76.8496" x="606.1255" y="515.1934">PostgreSQL</text><path d="M629.5503,528.1465 C629.5503,518.1465 647.5503,518.1465 647.5503,518.1465 C647.5503,518.1465 665.5503,518.1465 665.5503,528.1465 L665.5503,554.1465 C665.5503,564.1465 647.5503,564.1465 647.5503,564.1465 C647.5503,564.1465 629.5503,564.1465 629.5503,554.1465 L629.5503,528.1465" fill="#FCE4EC" style="stroke:#181818;stroke-width:0.5;"/><path d="M629.5503,528.1465 C629.5503,538.1465 647.5503,538.1465 647.5503,538.1465 C647.5503,538.1465 665.5503,538.1465 665.5503,528.1465" fill="none" style="stroke:#181818;stroke-width:0.5;"/></g><g><title>API Gateway</title><rect fill="#DC2626" height="283.7949" style="stroke:#A23B72;stroke-width:1;" width="10" x="288.7134" y="200.8633"/></g><g><title>svc-reservations</title><rect fill="#DC2626" height="225.1738" style="stroke:#A23B72;stroke-width:1;" width="10" x="423.2729" y="230.1738"/></g><g><title>PostgreSQL</title><rect fill="#FCE4EC" height="29.3105" style="stroke:#A23B72;stroke-width:1;" width="10" x="642.5503" y="302.7949"/></g><g><title>PostgreSQL</title><rect fill="#FCE4EC" height="29.3105" style="stroke:#A23B72;stroke-width:1;" width="10" x="642.5503" y="396.7266"/></g><path d="M358,149.2422 L358,174.2422 L498,174.2422 L498,159.2422 L488,149.2422 L358,149.2422" fill="#FEFFDD" style="stroke:#181818;stroke-width:0.5;"/><path d="M488,149.2422 L488,159.2422 L498,159.2422 L488,149.2422" fill="#FEFFDD" style="stroke:#181818;stroke-width:0.5;"/><a href="/services/api/svc-reservations.html#/Reservations/cancelReservation" target="_top" title="/services/api/svc-reservations.html#/Reservations/cancelReservation" xlink:actuate="onRequest" xlink:href="/services/api/svc-reservations.html#/Reservations/cancelReservation" xlink:show="new" xlink:title="/services/api/svc-reservations.html#/Reservations/cancelReservation" xlink:type="simple"><text fill="#0000FF" font-family="Segoe UI" font-size="13" lengthAdjust="spacing" text-decoration="underline" textLength="119.4058" x="364" y="166.8105">View in Swagger UI</text></a><g class="message" data-participant-1="Client" data-participant-2="GW"><polygon fill="#DC2626" points="276.7134,196.8633,286.7134,200.8633,276.7134,204.8633,280.7134,200.8633" style="stroke:#DC2626;stroke-width:1;"/><line style="stroke:#DC2626;stroke-width:1;" x1="31.7524" x2="282.7134" y1="200.8633" y2="200.8633"/><text fill="#000000" font-family="Segoe UI" font-size="13" lengthAdjust="spacing" textLength="237.9609" x="38.7524" y="196.1211">DELETE /reservations/{reservation_id}</text></g><g class="message" data-participant-1="GW" data-participant-2="Svc"><polygon fill="#DC2626" points="411.2729,226.1738,421.2729,230.1738,411.2729,234.1738,415.2729,230.1738" style="stroke:#DC2626;stroke-width:1;"/><line style="stroke:#DC2626;stroke-width:1;" x1="298.7134" x2="417.2729" y1="230.1738" y2="230.1738"/><text fill="#000000" font-family="Segoe UI" font-size="13" lengthAdjust="spacing" textLength="85.1348" x="305.7134" y="225.4316">route request</text></g><rect fill="#EEEEEE" height="3" style="stroke:#EEEEEE;stroke-width:1;" width="834.0571" x="0" y="258.8291"/><line style="stroke:#000000;stroke-width:1;" x1="0" x2="834.0571" y1="258.8291" y2="258.8291"/><line style="stroke:#000000;stroke-width:1;" x1="0" x2="834.0571" y1="261.8291" y2="261.8291"/><rect fill="#EEEEEE" height="23.3105" style="stroke:#000000;stroke-width:2;" width="80.3711" x="376.843" y="248.1738"/><text fill="#000000" font-family="Segoe UI" font-size="13" font-weight="bold" lengthAdjust="spacing" textLength="62.0864" x="382.843" y="264.7422">Database</text><g class="message" data-participant-1="Svc" data-participant-2="DB"><polygon fill="#DC2626" points="630.5503,298.7949,640.5503,302.7949,630.5503,306.7949,634.5503,302.7949" style="stroke:#DC2626;stroke-width:1;"/><line style="stroke:#DC2626;stroke-width:1;" x1="433.2729" x2="636.5503" y1="302.7949" y2="302.7949"/><text fill="#000000" font-family="Segoe UI" font-size="13" lengthAdjust="spacing" textLength="148.8906" x="440.2729" y="298.0527">SELECT ... WHERE id = ?</text></g><g class="message" data-participant-1="DB" data-participant-2="Svc"><polygon fill="#DC2626" points="444.2729,328.1055,434.2729,332.1055,444.2729,336.1055,440.2729,332.1055" style="stroke:#DC2626;stroke-width:1;"/><line style="stroke:#DC2626;stroke-width:1;stroke-dasharray:2,2;" x1="438.2729" x2="646.5503" y1="332.1055" y2="332.1055"/><text fill="#000000" font-family="Segoe UI" font-size="13" lengthAdjust="spacing" textLength="26.2222" x="450.2729" y="327.3633">Row</text></g><path d="M652,345.1055 L652,370.1055 L829,370.1055 L829,355.1055 L819,345.1055 L652,345.1055" fill="#FEFFDD" style="stroke:#181818;stroke-width:0.5;"/><path d="M819,345.1055 L819,355.1055 L829,355.1055 L819,345.1055" fill="#FEFFDD" style="stroke:#181818;stroke-width:0.5;"/><text fill="#000000" font-family="Segoe UI" font-size="13" lengthAdjust="spacing" textLength="156.0571" x="658" y="362.6738">Returns 404 if not found</text><g class="message" data-participant-1="Svc" data-participant-2="DB"><polygon fill="#DC2626" points="630.5503,392.7266,640.5503,396.7266,630.5503,400.7266,634.5503,396.7266" style="stroke:#DC2626;stroke-width:1;"/><line style="stroke:#DC2626;stroke-width:1;" x1="433.2729" x2="636.5503" y1="396.7266" y2="396.7266"/><text fill="#000000" font-family="Segoe UI" font-size="13" lengthAdjust="spacing" textLength="190.2773" x="440.2729" y="391.9844">DELETE FROM ... WHERE id = ?</text></g><g class="message" data-participant-1="DB" data-participant-2="Svc"><polygon fill="#DC2626" points="444.2729,422.0371,434.2729,426.0371,444.2729,430.0371,440.2729,426.0371" style="stroke:#DC2626;stroke-width:1;"/><line style="stroke:#DC2626;stroke-width:1;stroke-dasharray:2,2;" x1="438.2729" x2="646.5503" y1="426.0371" y2="426.0371"/><text fill="#000000" font-family="Segoe UI" font-size="13" lengthAdjust="spacing" textLength="18.5859" x="450.2729" y="421.2949">OK</text></g><g class="message" data-participant-1="Svc" data-participant-2="GW"><polygon fill="#DC2626" points="309.7134,451.3477,299.7134,455.3477,309.7134,459.3477,305.7134,455.3477" style="stroke:#DC2626;stroke-width:1;"/><line style="stroke:#DC2626;stroke-width:1;stroke-dasharray:2,2;" x1="303.7134" x2="427.2729" y1="455.3477" y2="455.3477"/><text fill="#000000" font-family="Segoe UI" font-size="13" lengthAdjust="spacing" textLength="100.5596" x="315.7134" y="450.6055">204 No Content</text></g><g class="message" data-participant-1="GW" data-participant-2="Client"><polygon fill="#DC2626" points="42.7524,480.6582,32.7524,484.6582,42.7524,488.6582,38.7524,484.6582" style="stroke:#DC2626;stroke-width:1;"/><line style="stroke:#DC2626;stroke-width:1;stroke-dasharray:2,2;" x1="36.7524" x2="292.7134" y1="484.6582" y2="484.6582"/><text fill="#000000" font-family="Segoe UI" font-size="13" lengthAdjust="spacing" textLength="100.5596" x="48.7524" y="479.916">204 No Content</text></g><a href="/microservices/svc-reservations/#integration-context" target="_top" title="/microservices/svc-reservations/#integration-context" xlink:actuate="onRequest" xlink:href="/microservices/svc-reservations/#integration-context" xlink:show="new" xlink:title="/microservices/svc-reservations/#integration-context" xlink:type="simple"><text fill="#0000FF" font-family="Segoe UI" font-size="10" lengthAdjust="spacing" text-decoration="underline" textLength="191.5527" x="641.5044" y="14.668">&#11014; svc-reservations Integration Context</text></a><!--SRC=[dPFHRjem58Rl_HH7S0sq51LKYKqG4eR6sWxQST6XoJY7O3NOp37GgUhjdcPFjIVPSKWXWMcgbjpO-N__n_cEdJnAjUA6Bs76nMDaz5g5dewrWNBWkvSbUqUouA7UIXN1dCS9vfGGvtmTsq0hUysN2AKnHXhXVb3AByVlQrG2uPa1FHrZz3Oh5OhwPVqo_NpBZPL2hhYoNMr2D9cbxhSkEzqJo_6c_LRG25gfRIZdE9GA2p6T-aMtMK_rhdugIC5vApWxtqidE8A0z5I-rhQOAfhDsKLE-mlA2x_9NXXR8ATbyF1GMqfXT89c8mKcjMGZAWRTb5kfLL8hIsKnCkci8WWiFbdu_Uid73jXS322jpDEfunPQME4dZ_qxtoe5RAVSxDlCdpvgZnEZOc1GqvXR7K03IKlbgXi2NW2kw7x2RvQnL9aiLIriA9pEu0-jxZbFz9b_GcKUrs_GuUgu3l-ezGyteWtK9fEzoqFkUKpdj3XkzM9ZGoEFm_Jf5wN6k3v3TzZJ55tG6-e0vHF_Q8A-t2-aYS5gWkxZCkrKRwcI5dbFi4NYLkG2iPR7aMKVJyW5AX2SEKOot1LtZa2Lszh2UF2IffYIYsx7pIa44Vc2kXuaMZSdKhimUt4Lpjhjw7tIgNTPio95410hc1Ck_3ke5gjmkI3F_91Xj26zuUa73OQLlQ5HthBGipPTb2DZ1OMz7oNFaAxDdGs6sSDa7F70URkFXJta948HZUV_cCZDn-Fzh7BViLSfzBNUdSZbCrRNUiTId9chVcNkpzXVm00]--></g></svg>