<svg xmlns="http://www.w3.org/2000/svg" xmlns:xlink="http://www.w3.org/1999/xlink" contentStyleType="text/css" data-diagram-type="SEQUENCE" height="509px" preserveAspectRatio="none" style="width:721px;height:509px;background:#FEFEFE;" version="1.1" viewBox="0 0 721 509" width="721px" zoomAndPan="magnify"><title>GET /guides/{guide_id}</title><defs/><g><rect fill="#FEFEFE" height="509" style="stroke:none;stroke-width:1;" width="721" x="0" y="0"/><text fill="#000000" font-family="Segoe UI" font-size="14" font-weight="bold" lengthAdjust="spacing" textLength="168.998" x="272.0295" y="28.5352">GET /guides/{guide_id}</text><text fill="#000000" font-family="Segoe UI" font-size="14" font-weight="bold" lengthAdjust="spacing" textLength="111.8018" x="300.6277" y="45.0234">Get guide by ID</text><g><title>API Gateway</title><rect fill="#2563EB" height="225.1738" style="stroke:#A23B72;stroke-width:1;" width="10" x="197.396" y="188.0859"/></g><g><title>svc-guide-management</title><rect fill="#2563EB" height="166.5527" style="stroke:#A23B72;stroke-width:1;" width="10" x="344.8735" y="217.3965"/></g><g><title>PostgreSQL</title><rect fill="#FCE4EC" height="29.3105" style="stroke:#A23B72;stroke-width:1;" width="10" x="522.7642" y="290.0176"/></g><g><title>Client</title><rect fill="#000000" fill-opacity="0.00000" height="309.7949" width="8" x="27.7524" y="121.4648"/><line style="stroke:#A23B72;stroke-width:0.5;stroke-dasharray:5,5;" x1="31" x2="31" y1="121.4648" y2="431.2598"/></g><g><title>API Gateway</title><rect fill="#000000" fill-opacity="0.00000" height="309.7949" width="8" x="198.396" y="121.4648"/><line style="stroke:#A23B72;stroke-width:0.5;stroke-dasharray:5,5;" x1="202.1069" x2="202.1069" y1="121.4648" y2="431.2598"/></g><g><title>svc-guide-management</title><rect fill="#000000" fill-opacity="0.00000" height="309.7949" width="8" x="345.8735" y="121.4648"/><line style="stroke:#A23B72;stroke-width:0.5;stroke-dasharray:5,5;" x1="349.6851" x2="349.6851" y1="121.4648" y2="431.2598"/></g><g><title>PostgreSQL</title><rect fill="#000000" fill-opacity="0.00000" height="309.7949" width="8" x="523.7642" y="121.4648"/><line style="stroke:#A23B72;stroke-width:0.5;stroke-dasharray:5,5;" x1="527.3394" x2="527.3394" y1="121.4648" y2="431.2598"/></g><g class="participant participant-head" data-participant="Client"><rect fill="#E8F4F8" height="30.4883" rx="2.5" ry="2.5" style="stroke:#2E86AB;stroke-width:0.5;" width="53.5049" x="5" y="89.9766"/><text fill="#000000" font-family="Segoe UI" font-size="14" lengthAdjust="spacing" textLength="39.5049" x="12" y="110.5117">Client</text></g><g class="participant participant-tail" data-participant="Client"><rect fill="#E8F4F8" height="30.4883" rx="2.5" ry="2.5" style="stroke:#2E86AB;stroke-width:0.5;" width="53.5049" x="5" y="430.2598"/><text fill="#000000" font-family="Segoe UI" font-size="14" lengthAdjust="spacing" textLength="39.5049" x="12" y="450.7949">Client</text></g><g class="participant participant-head" data-participant="GW"><rect fill="#DBEAFE" height="30.4883" rx="2.5" ry="2.5" style="stroke:#2E86AB;stroke-width:0.5;" width="96.5781" x="154.1069" y="89.9766"/><text fill="#000000" font-family="Segoe UI" font-size="14" lengthAdjust="spacing" textLength="82.5781" x="161.1069" y="110.5117">API Gateway</text></g><g class="participant participant-tail" data-participant="GW"><rect fill="#DBEAFE" height="30.4883" rx="2.5" ry="2.5" style="stroke:#2E86AB;stroke-width:0.5;" width="96.5781" x="154.1069" y="430.2598"/><text fill="#000000" font-family="Segoe UI" font-size="14" lengthAdjust="spacing" textLength="82.5781" x="161.1069" y="450.7949">API Gateway</text></g><g class="participant participant-head" data-participant="Svc"><a href="/microservices/svc-guide-management/" target="_top" title="/microservices/svc-guide-management/" xlink:actuate="onRequest" xlink:href="/microservices/svc-guide-management/" xlink:show="new" xlink:title="/microservices/svc-guide-management/" xlink:type="simple"><rect fill="#E8F4F8" height="30.4883" rx="2.5" ry="2.5" style="stroke:#2E86AB;stroke-width:0.5;" width="178.377" x="260.6851" y="89.9766"/><text fill="#000000" font-family="Segoe UI" font-size="14" lengthAdjust="spacing" textLength="164.377" x="267.6851" y="110.5117">svc-guide-management</text></a></g><g class="participant participant-tail" data-participant="Svc"><a href="/microservices/svc-guide-management/" target="_top" title="/microservices/svc-guide-management/" xlink:actuate="onRequest" xlink:href="/microservices/svc-guide-management/" xlink:show="new" xlink:title="/microservices/svc-guide-management/" xlink:type="simple"><rect fill="#E8F4F8" height="30.4883" rx="2.5" ry="2.5" style="stroke:#2E86AB;stroke-width:0.5;" width="178.377" x="260.6851" y="430.2598"/><text fill="#000000" font-family="Segoe UI" font-size="14" lengthAdjust="spacing" textLength="164.377" x="267.6851" y="450.7949">svc-guide-management</text></a></g><g class="participant participant-head" data-participant="DB"><text fill="#000000" font-family="Segoe UI" font-size="14" lengthAdjust="spacing" textLength="76.8496" x="486.3394" y="118.5117">PostgreSQL</text><path d="M509.7642,68.9766 C509.7642,58.9766 527.7642,58.9766 527.7642,58.9766 C527.7642,58.9766 545.7642,58.9766 545.7642,68.9766 L545.7642,94.9766 C545.7642,104.9766 527.7642,104.9766 527.7642,104.9766 C527.7642,104.9766 509.7642,104.9766 509.7642,94.9766 L509.7642,68.9766" fill="#FCE4EC" style="stroke:#181818;stroke-width:0.5;"/><path d="M509.7642,68.9766 C509.7642,78.9766 527.7642,78.9766 527.7642,78.9766 C527.7642,78.9766 545.7642,78.9766 545.7642,68.9766" fill="none" style="stroke:#181818;stroke-width:0.5;"/></g><g class="participant participant-tail" data-participant="DB"><text fill="#000000" font-family="Segoe UI" font-size="14" lengthAdjust="spacing" textLength="76.8496" x="486.3394" y="443.7949">PostgreSQL</text><path d="M509.7642,456.748 C509.7642,446.748 527.7642,446.748 527.7642,446.748 C527.7642,446.748 545.7642,446.748 545.7642,456.748 L545.7642,482.748 C545.7642,492.748 527.7642,492.748 527.7642,492.748 C527.7642,492.748 509.7642,492.748 509.7642,482.748 L509.7642,456.748" fill="#FCE4EC" style="stroke:#181818;stroke-width:0.5;"/><path d="M509.7642,456.748 C509.7642,466.748 527.7642,466.748 527.7642,466.748 C527.7642,466.748 545.7642,466.748 545.7642,456.748" fill="none" style="stroke:#181818;stroke-width:0.5;"/></g><g><title>API Gateway</title><rect fill="#2563EB" height="225.1738" style="stroke:#A23B72;stroke-width:1;" width="10" x="197.396" y="188.0859"/></g><g><title>svc-guide-management</title><rect fill="#2563EB" height="166.5527" style="stroke:#A23B72;stroke-width:1;" width="10" x="344.8735" y="217.3965"/></g><g><title>PostgreSQL</title><rect fill="#FCE4EC" height="29.3105" style="stroke:#A23B72;stroke-width:1;" width="10" x="522.7642" y="290.0176"/></g><path d="M279,136.4648 L279,161.4648 L419,161.4648 L419,146.4648 L409,136.4648 L279,136.4648" fill="#FEFFDD" style="stroke:#181818;stroke-width:0.5;"/><path d="M409,136.4648 L409,146.4648 L419,146.4648 L409,136.4648" fill="#FEFFDD" style="stroke:#181818;stroke-width:0.5;"/><a href="/services/api/svc-guide-management.html#/Guides/getGuide" target="_top" title="/services/api/svc-guide-management.html#/Guides/getGuide" xlink:actuate="onRequest" xlink:href="/services/api/svc-guide-management.html#/Guides/getGuide" xlink:show="new" xlink:title="/services/api/svc-guide-management.html#/Guides/getGuide" xlink:type="simple"><text fill="#0000FF" font-family="Segoe UI" font-size="13" lengthAdjust="spacing" text-decoration="underline" textLength="119.4058" x="285" y="154.0332">View in Swagger UI</text></a><g class="message" data-participant-1="Client" data-participant-2="GW"><polygon fill="#2563EB" points="185.396,184.0859,195.396,188.0859,185.396,192.0859,189.396,188.0859" style="stroke:#2563EB;stroke-width:1;"/><line style="stroke:#2563EB;stroke-width:1;" x1="31.7524" x2="191.396" y1="188.0859" y2="188.0859"/><text fill="#000000" font-family="Segoe UI" font-size="13" lengthAdjust="spacing" textLength="146.6436" x="38.7524" y="183.3438">GET /guides/{guide_id}</text></g><g class="message" data-participant-1="GW" data-participant-2="Svc"><polygon fill="#2563EB" points="332.8735,213.3965,342.8735,217.3965,332.8735,221.3965,336.8735,217.3965" style="stroke:#2563EB;stroke-width:1;"/><line style="stroke:#2563EB;stroke-width:1;" x1="207.396" x2="338.8735" y1="217.3965" y2="217.3965"/><text fill="#000000" font-family="Segoe UI" font-size="13" lengthAdjust="spacing" textLength="85.1348" x="214.396" y="212.6543">route request</text></g><rect fill="#EEEEEE" height="3" style="stroke:#EEEEEE;stroke-width:1;" width="714.0571" x="0" y="246.0518"/><line style="stroke:#000000;stroke-width:1;" x1="0" x2="714.0571" y1="246.0518" y2="246.0518"/><line style="stroke:#000000;stroke-width:1;" x1="0" x2="714.0571" y1="249.0518" y2="249.0518"/><rect fill="#EEEEEE" height="23.3105" style="stroke:#000000;stroke-width:2;" width="80.3711" x="316.843" y="235.3965"/><text fill="#000000" font-family="Segoe UI" font-size="13" font-weight="bold" lengthAdjust="spacing" textLength="62.0864" x="322.843" y="251.9648">Database</text><g class="message" data-participant-1="Svc" data-participant-2="DB"><polygon fill="#2563EB" points="510.7642,286.0176,520.7642,290.0176,510.7642,294.0176,514.7642,290.0176" style="stroke:#2563EB;stroke-width:1;"/><line style="stroke:#2563EB;stroke-width:1;" x1="354.8735" x2="516.7642" y1="290.0176" y2="290.0176"/><text fill="#000000" font-family="Segoe UI" font-size="13" lengthAdjust="spacing" textLength="148.8906" x="361.8735" y="285.2754">SELECT ... WHERE id = ?</text></g><g class="message" data-participant-1="DB" data-participant-2="Svc"><polygon fill="#2563EB" points="365.8735,315.3281,355.8735,319.3281,365.8735,323.3281,361.8735,319.3281" style="stroke:#2563EB;stroke-width:1;"/><line style="stroke:#2563EB;stroke-width:1;stroke-dasharray:2,2;" x1="359.8735" x2="526.7642" y1="319.3281" y2="319.3281"/><text fill="#000000" font-family="Segoe UI" font-size="13" lengthAdjust="spacing" textLength="26.2222" x="371.8735" y="314.5859">Row</text></g><path d="M532,332.3281 L532,357.3281 L709,357.3281 L709,342.3281 L699,332.3281 L532,332.3281" fill="#FEFFDD" style="stroke:#181818;stroke-width:0.5;"/><path d="M699,332.3281 L699,342.3281 L709,342.3281 L699,332.3281" fill="#FEFFDD" style="stroke:#181818;stroke-width:0.5;"/><text fill="#000000" font-family="Segoe UI" font-size="13" lengthAdjust="spacing" textLength="156.0571" x="538" y="349.8965">Returns 404 if not found</text><g class="message" data-participant-1="Svc" data-participant-2="GW"><polygon fill="#2563EB" points="218.396,379.9492,208.396,383.9492,218.396,387.9492,214.396,383.9492" style="stroke:#2563EB;stroke-width:1;"/><line style="stroke:#2563EB;stroke-width:1;stroke-dasharray:2,2;" x1="212.396" x2="348.8735" y1="383.9492" y2="383.9492"/><text fill="#000000" font-family="Segoe UI" font-size="13" lengthAdjust="spacing" textLength="47.3599" x="224.396" y="379.207">200 OK</text></g><g class="message" data-participant-1="GW" data-participant-2="Client"><polygon fill="#2563EB" points="42.7524,409.2598,32.7524,413.2598,42.7524,417.2598,38.7524,413.2598" style="stroke:#2563EB;stroke-width:1;"/><line style="stroke:#2563EB;stroke-width:1;stroke-dasharray:2,2;" x1="36.7524" x2="201.396" y1="413.2598" y2="413.2598"/><text fill="#000000" font-family="Segoe UI" font-size="13" lengthAdjust="spacing" textLength="47.3599" x="48.7524" y="408.5176">200 OK</text></g><!--SRC=[TL9TRzem57tthxY2PpuAh20aDX5mCZJKCcZ7GuScazoaLXERsOQiglhVPuUliBBa8JSv9-Vu75k_SB5XYcMmPk5BekHMH2EPIWLLdxgRw1D3FxD8vbma4BDKOmc9C6RRrFXIc3kM8LGMc4Y4nqcb_3l-tg884Tu8s6kebCmFLgrFjsrS5vzdJ1aUyWqJnfCgGdMaqDxjqFj0-NVHjETt_5v1c_8OfrpWXSomrVQwhGBtv9yBoB_f-SsR4_IX3j-tU07VINEf6dQxwtO9kr9bctR9Eo66cnGXe0_GIBOyGjruAvw_UFJ-KmHee7Y5zIjCneHipb6XCaev2bC1fc4_NiB3sGG2PZ1dhmKdM49rxD6XtSCBdjw5jSAabZ714ioEeejT24zFZOo7IcfKEnxQvLrZDrQhKzCHCspDjDtpcTGcKRZuFYtKnfxDFQ8TEY94s590xb0v3rkJTJaPi0s_Qb9_DbbQRGJxbX8qnGG_EER01InobYHMy76oMX4K4JWFGlR5GEspYz__Jz64XORlR5L5HuV3PqVxb-kW3tRlBAZSWTNcp7RWaKu60nWVimy6X3ZG2jZOVLZGAHqzGBrUX-LNEgV08nZ0bxDIgHmxrax6SvcJ24kqVNMA9yy6PBnNdwFPAg6Xq-m0ZrrmYDrXEwpXcBtLRCBzjxASAz_5j8n3JzTOmPBy1G00]--></g></svg>