<svg xmlns="http://www.w3.org/2000/svg" xmlns:xlink="http://www.w3.org/1999/xlink" contentStyleType="text/css" data-diagram-type="SEQUENCE" height="676px" preserveAspectRatio="none" style="width:795px;height:676px;background:#FEFEFE;" version="1.1" viewBox="0 0 795 676" width="795px" zoomAndPan="magnify"><title>POST /media/{media_id}/share</title><defs/><g><rect fill="#FEFEFE" height="676" style="stroke:none;stroke-width:1;" width="795" x="0" y="0"/><text fill="#000000" font-family="Segoe UI" font-size="14" font-weight="bold" lengthAdjust="spacing" textLength="224.9229" x="281.2903" y="28.5352">POST /media/{media_id}/share</text><text fill="#000000" font-family="Segoe UI" font-size="14" font-weight="bold" lengthAdjust="spacing" textLength="289.6934" x="248.905" y="45.0234">Create a shareable link for a media item</text><g><title>API Gateway</title><rect fill="#059669" height="391.7266" style="stroke:#A23B72;stroke-width:1;" width="10" x="246.1523" y="188.0859"/></g><g><title>svc-media-gallery</title><rect fill="#059669" height="333.1055" style="stroke:#A23B72;stroke-width:1;" width="10" x="373.7476" y="217.3965"/></g><g><title>PostgreSQL</title><rect fill="#FCE4EC" height="29.3105" style="stroke:#A23B72;stroke-width:1;" width="10" x="604.5088" y="325.3281"/></g><g><title>PostgreSQL</title><rect fill="#FCE4EC" height="29.3105" style="stroke:#A23B72;stroke-width:1;" width="10" x="604.5088" y="419.2598"/></g><g><title>Client</title><rect fill="#000000" fill-opacity="0.00000" height="476.3477" width="8" x="27.7524" y="121.4648"/><line style="stroke:#A23B72;stroke-width:0.5;stroke-dasharray:5,5;" x1="31" x2="31" y1="121.4648" y2="597.8125"/></g><g><title>API Gateway</title><rect fill="#000000" fill-opacity="0.00000" height="476.3477" width="8" x="247.1523" y="121.4648"/><line style="stroke:#A23B72;stroke-width:0.5;stroke-dasharray:5,5;" x1="250.8633" x2="250.8633" y1="121.4648" y2="597.8125"/></g><g><title>svc-media-gallery</title><rect fill="#000000" fill-opacity="0.00000" height="476.3477" width="8" x="374.7476" y="121.4648"/><line style="stroke:#A23B72;stroke-width:0.5;stroke-dasharray:5,5;" x1="378.4414" x2="378.4414" y1="121.4648" y2="597.8125"/></g><g><title>Notifications</title><rect fill="#000000" fill-opacity="0.00000" height="476.3477" width="8" x="504.0688" y="121.4648"/><line style="stroke:#A23B72;stroke-width:0.5;stroke-dasharray:5,5;" x1="508.0537" x2="508.0537" y1="121.4648" y2="597.8125"/></g><g><title>PostgreSQL</title><rect fill="#000000" fill-opacity="0.00000" height="476.3477" width="8" x="605.5088" y="121.4648"/><line style="stroke:#A23B72;stroke-width:0.5;stroke-dasharray:5,5;" x1="609.084" x2="609.084" y1="121.4648" y2="597.8125"/></g><g class="participant participant-head" data-participant="Client"><rect fill="#E8F4F8" height="30.4883" rx="2.5" ry="2.5" style="stroke:#2E86AB;stroke-width:0.5;" width="53.5049" x="5" y="89.9766"/><text fill="#000000" font-family="Segoe UI" font-size="14" lengthAdjust="spacing" textLength="39.5049" x="12" y="110.5117">Client</text></g><g class="participant participant-tail" data-participant="Client"><rect fill="#E8F4F8" height="30.4883" rx="2.5" ry="2.5" style="stroke:#2E86AB;stroke-width:0.5;" width="53.5049" x="5" y="596.8125"/><text fill="#000000" font-family="Segoe UI" font-size="14" lengthAdjust="spacing" textLength="39.5049" x="12" y="617.3477">Client</text></g><g class="participant participant-head" data-participant="GW"><rect fill="#DBEAFE" height="30.4883" rx="2.5" ry="2.5" style="stroke:#2E86AB;stroke-width:0.5;" width="96.5781" x="202.8633" y="89.9766"/><text fill="#000000" font-family="Segoe UI" font-size="14" lengthAdjust="spacing" textLength="82.5781" x="209.8633" y="110.5117">API Gateway</text></g><g class="participant participant-tail" data-participant="GW"><rect fill="#DBEAFE" height="30.4883" rx="2.5" ry="2.5" style="stroke:#2E86AB;stroke-width:0.5;" width="96.5781" x="202.8633" y="596.8125"/><text fill="#000000" font-family="Segoe UI" font-size="14" lengthAdjust="spacing" textLength="82.5781" x="209.8633" y="617.3477">API Gateway</text></g><g class="participant participant-head" data-participant="Svc"><a href="/microservices/svc-media-gallery/" target="_top" title="/microservices/svc-media-gallery/" xlink:actuate="onRequest" xlink:href="/microservices/svc-media-gallery/" xlink:show="new" xlink:title="/microservices/svc-media-gallery/" xlink:type="simple"><rect fill="#E8F4F8" height="30.4883" rx="2.5" ry="2.5" style="stroke:#2E86AB;stroke-width:0.5;" width="138.6123" x="309.4414" y="89.9766"/><text fill="#000000" font-family="Segoe UI" font-size="14" lengthAdjust="spacing" textLength="124.6123" x="316.4414" y="110.5117">svc-media-gallery</text></a></g><g class="participant participant-tail" data-participant="Svc"><a href="/microservices/svc-media-gallery/" target="_top" title="/microservices/svc-media-gallery/" xlink:actuate="onRequest" xlink:href="/microservices/svc-media-gallery/" xlink:show="new" xlink:title="/microservices/svc-media-gallery/" xlink:type="simple"><rect fill="#E8F4F8" height="30.4883" rx="2.5" ry="2.5" style="stroke:#2E86AB;stroke-width:0.5;" width="138.6123" x="309.4414" y="596.8125"/><text fill="#000000" font-family="Segoe UI" font-size="14" lengthAdjust="spacing" textLength="124.6123" x="316.4414" y="617.3477">svc-media-gallery</text></a></g><g class="participant participant-head" data-participant="Ntfy"><a href="/microservices/svc-notifications/" target="_top" title="/microservices/svc-notifications/" xlink:actuate="onRequest" xlink:href="/microservices/svc-notifications/" xlink:show="new" xlink:title="/microservices/svc-notifications/" xlink:type="simple"><rect fill="#FFF8F0" height="30.4883" rx="2.5" ry="2.5" style="stroke:#2E86AB;stroke-width:0.5;" width="100.0303" x="458.0537" y="89.9766"/><text fill="#000000" font-family="Segoe UI" font-size="14" lengthAdjust="spacing" textLength="86.0303" x="465.0537" y="110.5117">Notifications</text></a></g><g class="participant participant-tail" data-participant="Ntfy"><a href="/microservices/svc-notifications/" target="_top" title="/microservices/svc-notifications/" xlink:actuate="onRequest" xlink:href="/microservices/svc-notifications/" xlink:show="new" xlink:title="/microservices/svc-notifications/" xlink:type="simple"><rect fill="#FFF8F0" height="30.4883" rx="2.5" ry="2.5" style="stroke:#2E86AB;stroke-width:0.5;" width="100.0303" x="458.0537" y="596.8125"/><text fill="#000000" font-family="Segoe UI" font-size="14" lengthAdjust="spacing" textLength="86.0303" x="465.0537" y="617.3477">Notifications</text></a></g><g class="participant participant-head" data-participant="DB"><text fill="#000000" font-family="Segoe UI" font-size="14" lengthAdjust="spacing" textLength="76.8496" x="568.084" y="118.5117">PostgreSQL</text><path d="M591.5088,68.9766 C591.5088,58.9766 609.5088,58.9766 609.5088,58.9766 C609.5088,58.9766 627.5088,58.9766 627.5088,68.9766 L627.5088,94.9766 C627.5088,104.9766 609.5088,104.9766 609.5088,104.9766 C609.5088,104.9766 591.5088,104.9766 591.5088,94.9766 L591.5088,68.9766" fill="#FCE4EC" style="stroke:#181818;stroke-width:0.5;"/><path d="M591.5088,68.9766 C591.5088,78.9766 609.5088,78.9766 609.5088,78.9766 C609.5088,78.9766 627.5088,78.9766 627.5088,68.9766" fill="none" style="stroke:#181818;stroke-width:0.5;"/></g><g class="participant participant-tail" data-participant="DB"><text fill="#000000" font-family="Segoe UI" font-size="14" lengthAdjust="spacing" textLength="76.8496" x="568.084" y="610.3477">PostgreSQL</text><path d="M591.5088,623.3008 C591.5088,613.3008 609.5088,613.3008 609.5088,613.3008 C609.5088,613.3008 627.5088,613.3008 627.5088,623.3008 L627.5088,649.3008 C627.5088,659.3008 609.5088,659.3008 609.5088,659.3008 C609.5088,659.3008 591.5088,659.3008 591.5088,649.3008 L591.5088,623.3008" fill="#FCE4EC" style="stroke:#181818;stroke-width:0.5;"/><path d="M591.5088,623.3008 C591.5088,633.3008 609.5088,633.3008 609.5088,633.3008 C609.5088,633.3008 627.5088,633.3008 627.5088,623.3008" fill="none" style="stroke:#181818;stroke-width:0.5;"/></g><g><title>API Gateway</title><rect fill="#059669" height="391.7266" style="stroke:#A23B72;stroke-width:1;" width="10" x="246.1523" y="188.0859"/></g><g><title>svc-media-gallery</title><rect fill="#059669" height="333.1055" style="stroke:#A23B72;stroke-width:1;" width="10" x="373.7476" y="217.3965"/></g><g><title>PostgreSQL</title><rect fill="#FCE4EC" height="29.3105" style="stroke:#A23B72;stroke-width:1;" width="10" x="604.5088" y="325.3281"/></g><g><title>PostgreSQL</title><rect fill="#FCE4EC" height="29.3105" style="stroke:#A23B72;stroke-width:1;" width="10" x="604.5088" y="419.2598"/></g><path d="M308,136.4648 L308,161.4648 L448,161.4648 L448,146.4648 L438,136.4648 L308,136.4648" fill="#FEFFDD" style="stroke:#181818;stroke-width:0.5;"/><path d="M438,136.4648 L438,146.4648 L448,146.4648 L438,136.4648" fill="#FEFFDD" style="stroke:#181818;stroke-width:0.5;"/><a href="/services/api/svc-media-gallery.html#/Sharing/createShareLink" target="_top" title="/services/api/svc-media-gallery.html#/Sharing/createShareLink" xlink:actuate="onRequest" xlink:href="/services/api/svc-media-gallery.html#/Sharing/createShareLink" xlink:show="new" xlink:title="/services/api/svc-media-gallery.html#/Sharing/createShareLink" xlink:type="simple"><text fill="#0000FF" font-family="Segoe UI" font-size="13" lengthAdjust="spacing" text-decoration="underline" textLength="119.4058" x="314" y="154.0332">View in Swagger UI</text></a><g class="message" data-participant-1="Client" data-participant-2="GW"><polygon fill="#059669" points="234.1523,184.0859,244.1523,188.0859,234.1523,192.0859,238.1523,188.0859" style="stroke:#059669;stroke-width:1;"/><line style="stroke:#059669;stroke-width:1;" x1="31.7524" x2="240.1523" y1="188.0859" y2="188.0859"/><text fill="#000000" font-family="Segoe UI" font-size="13" lengthAdjust="spacing" textLength="195.3999" x="38.7524" y="183.3438">POST /media/{media_id}/share</text></g><g class="message" data-participant-1="GW" data-participant-2="Svc"><polygon fill="#059669" points="361.7476,213.3965,371.7476,217.3965,361.7476,221.3965,365.7476,217.3965" style="stroke:#059669;stroke-width:1;"/><line style="stroke:#059669;stroke-width:1;" x1="256.1523" x2="367.7476" y1="217.3965" y2="217.3965"/><text fill="#000000" font-family="Segoe UI" font-size="13" lengthAdjust="spacing" textLength="85.1348" x="263.1523" y="212.6543">route request</text></g><path d="M388,230.3965 L388,255.3965 L546,255.3965 L546,240.3965 L536,230.3965 L388,230.3965" fill="#FEFFDD" style="stroke:#181818;stroke-width:0.5;"/><path d="M536,230.3965 L536,240.3965 L546,240.3965 L536,230.3965" fill="#FEFFDD" style="stroke:#181818;stroke-width:0.5;"/><text fill="#000000" font-family="Segoe UI" font-size="13" lengthAdjust="spacing" textLength="137.5728" x="394" y="247.9648">Validate request body</text><rect fill="#EEEEEE" height="3" style="stroke:#EEEEEE;stroke-width:1;" width="788.5034" x="0" y="281.3623"/><line style="stroke:#000000;stroke-width:1;" x1="0" x2="788.5034" y1="281.3623" y2="281.3623"/><line style="stroke:#000000;stroke-width:1;" x1="0" x2="788.5034" y1="284.3623" y2="284.3623"/><rect fill="#EEEEEE" height="23.3105" style="stroke:#000000;stroke-width:2;" width="80.3711" x="354.0662" y="270.707"/><text fill="#000000" font-family="Segoe UI" font-size="13" font-weight="bold" lengthAdjust="spacing" textLength="62.0864" x="360.0662" y="287.2754">Database</text><g class="message" data-participant-1="Svc" data-participant-2="DB"><polygon fill="#059669" points="592.5088,321.3281,602.5088,325.3281,592.5088,329.3281,596.5088,325.3281" style="stroke:#059669;stroke-width:1;"/><line style="stroke:#059669;stroke-width:1;" x1="383.7476" x2="598.5088" y1="325.3281" y2="325.3281"/><text fill="#000000" font-family="Segoe UI" font-size="13" lengthAdjust="spacing" textLength="177.4043" x="390.7476" y="320.5859">SELECT parent WHERE id = ?</text></g><g class="message" data-participant-1="DB" data-participant-2="Svc"><polygon fill="#059669" points="394.7476,350.6387,384.7476,354.6387,394.7476,358.6387,390.7476,354.6387" style="stroke:#059669;stroke-width:1;"/><line style="stroke:#059669;stroke-width:1;stroke-dasharray:2,2;" x1="388.7476" x2="608.5088" y1="354.6387" y2="354.6387"/><text fill="#000000" font-family="Segoe UI" font-size="13" lengthAdjust="spacing" textLength="67.2915" x="400.7476" y="349.8965">Parent row</text></g><path d="M614,367.6387 L614,392.6387 L783,392.6387 L783,377.6387 L773,367.6387 L614,367.6387" fill="#FEFFDD" style="stroke:#181818;stroke-width:0.5;"/><path d="M773,367.6387 L773,377.6387 L783,377.6387 L773,367.6387" fill="#FEFFDD" style="stroke:#181818;stroke-width:0.5;"/><text fill="#000000" font-family="Segoe UI" font-size="13" lengthAdjust="spacing" textLength="148.5034" x="620" y="385.207">404 if parent not found</text><g class="message" data-participant-1="Svc" data-participant-2="DB"><polygon fill="#059669" points="592.5088,415.2598,602.5088,419.2598,592.5088,423.2598,596.5088,419.2598" style="stroke:#059669;stroke-width:1;"/><line style="stroke:#059669;stroke-width:1;" x1="383.7476" x2="598.5088" y1="419.2598" y2="419.2598"/><text fill="#000000" font-family="Segoe UI" font-size="13" lengthAdjust="spacing" textLength="96.0718" x="390.7476" y="414.5176">INSERT INTO ...</text></g><g class="message" data-participant-1="DB" data-participant-2="Svc"><polygon fill="#059669" points="394.7476,444.5703,384.7476,448.5703,394.7476,452.5703,390.7476,448.5703" style="stroke:#059669;stroke-width:1;"/><line style="stroke:#059669;stroke-width:1;stroke-dasharray:2,2;" x1="388.7476" x2="608.5088" y1="448.5703" y2="448.5703"/><text fill="#000000" font-family="Segoe UI" font-size="13" lengthAdjust="spacing" textLength="76.4575" x="400.7476" y="443.8281">Created row</text></g><rect fill="#EEEEEE" height="3" style="stroke:#EEEEEE;stroke-width:1;" width="788.5034" x="0" y="477.2256"/><line style="stroke:#000000;stroke-width:1;" x1="0" x2="788.5034" y1="477.2256" y2="477.2256"/><line style="stroke:#000000;stroke-width:1;" x1="0" x2="788.5034" y1="480.2256" y2="480.2256"/><rect fill="#EEEEEE" height="23.3105" style="stroke:#000000;stroke-width:2;" width="106.8218" x="340.8408" y="466.5703"/><text fill="#000000" font-family="Segoe UI" font-size="13" font-weight="bold" lengthAdjust="spacing" textLength="88.5371" x="346.8408" y="483.1387">Async Events</text><g class="message" data-participant-1="Svc" data-participant-2="Ntfy"><line style="stroke:#059669;stroke-width:1;" x1="506.0688" x2="496.0688" y1="521.1914" y2="517.1914"/><line style="stroke:#059669;stroke-width:1;" x1="506.0688" x2="496.0688" y1="521.1914" y2="525.1914"/><line style="stroke:#059669;stroke-width:1;" x1="383.7476" x2="507.0688" y1="521.1914" y2="521.1914"/><text fill="#000000" font-family="Segoe UI" font-size="13" lengthAdjust="spacing" textLength="96.3384" x="390.7476" y="516.4492">Send share link</text></g><g class="message" data-participant-1="Svc" data-participant-2="GW"><polygon fill="#059669" points="267.1523,546.502,257.1523,550.502,267.1523,554.502,263.1523,550.502" style="stroke:#059669;stroke-width:1;"/><line style="stroke:#059669;stroke-width:1;stroke-dasharray:2,2;" x1="261.1523" x2="377.7476" y1="550.502" y2="550.502"/><text fill="#000000" font-family="Segoe UI" font-size="13" lengthAdjust="spacing" textLength="77.7969" x="273.1523" y="545.7598">201 Created</text></g><g class="message" data-participant-1="GW" data-participant-2="Client"><polygon fill="#059669" points="42.7524,575.8125,32.7524,579.8125,42.7524,583.8125,38.7524,579.8125" style="stroke:#059669;stroke-width:1;"/><line style="stroke:#059669;stroke-width:1;stroke-dasharray:2,2;" x1="36.7524" x2="250.1523" y1="579.8125" y2="579.8125"/><text fill="#000000" font-family="Segoe UI" font-size="13" lengthAdjust="spacing" textLength="77.7969" x="48.7524" y="575.0703">201 Created</text></g><!--SRC=[XLDHRzem47xthpZHPmYbhD1AT0AQT4Y8ieQs3nsQJEAa5i5cje6XglzzPnCWATr67k9mttrt_huxFUTYIHLTm8n6yrJ9bOZxCfCApWBVFaGV4FgLndB3HGe9pJGhH6AMq5Lc0YdCY2uOL4AMIWQFWqendVrQCH4nU2E0lwvISfENgd-vkhoySd-FgJ8yuaigJ4-gcAaSql3RbztU2UHZqtuxQ0Pj1nloX0svO2MQRkEYrsguU4_-BeM2ytPGFp-4JkG80eoxy4YQCclKQiqk2h5FfBpmM-IT4CDDnc1y7qx0Mx2OK-_DlNxo-Dr3WHNx8VgAKSE0WlkcCqp8k9X3WbGK71ouOGj2baSbeDBFE1Ec0bJ3xbWETyS3k4FU3TqwpDqpdDts_2vQNCBfTLHrDQefpJAcTkXm7S7BYxVWaPAQgJMFcFPEeDvqUh2WH8ggy8H7r70fj2CScMJxEQCeOXrZBdrC3PrHZUCrbjgaYeNVXuxhjeUOlj_q-uHWDWEvPigsZ8vWYGCxNVBJdcklPf6TUI5gZQFjHKvy-sM7PmvFd6s02mWtD4sHzN4mdH8cOh252Daf3TKRg-VrFuqbD39yRPsrqkSZZqVCjUfU0quC1fLT4ssEQ1lSmtVNKpnzDI2JFE-9PZocnrIOoNXBIAS3jtl5EXr2B1XheLZN4Ff3lpy1zCXs__pDV_21nz21hyUw1LNnM3sqETubuVQIc1NG7tfpTPhr9l1aNmS1ECIu5kLc1gFGVvZWQt8FjLhj_nti5YJ-f0LxwQxUYWZyDLRKXOlVx4OExsxTSuwujShZUmSRzVCzVv7R3fFr2c6vvN-5tZsJFm00]--></g></svg>