<svg xmlns="http://www.w3.org/2000/svg" xmlns:xlink="http://www.w3.org/1999/xlink" contentStyleType="text/css" data-diagram-type="SEQUENCE" height="487px" preserveAspectRatio="none" style="width:781px;height:487px;background:#FEFEFE;" version="1.1" viewBox="0 0 781 487" width="781px" zoomAndPan="magnify"><title>GET /partners/{partner_id}/commission-report</title><defs/><g><rect fill="#FEFEFE" height="487" style="stroke:none;stroke-width:1;" width="781" x="0" y="0"/><text fill="#000000" font-family="Segoe UI" font-size="14" font-weight="bold" lengthAdjust="spacing" textLength="342.9863" x="215.2827" y="41.3125">GET /partners/{partner_id}/commission-report</text><text fill="#000000" font-family="Segoe UI" font-size="14" font-weight="bold" lengthAdjust="spacing" textLength="261.4746" x="256.0386" y="57.8008">Get commission report for a partner</text><g><title>API Gateway</title><rect fill="#2563EB" height="189.8633" style="stroke:#A23B72;stroke-width:1;" width="10" x="348.0195" y="200.8633"/></g><g><title>svc-partner-integrations</title><rect fill="#2563EB" height="131.2422" style="stroke:#A23B72;stroke-width:1;" width="10" x="497.8828" y="230.1738"/></g><g><title>PostgreSQL</title><rect fill="#FCE4EC" height="29.3105" style="stroke:#A23B72;stroke-width:1;" width="10" x="723.127" y="302.7949"/></g><g><title>Client</title><rect fill="#000000" fill-opacity="0.00000" height="274.4844" width="8" x="27.7524" y="134.2422"/><line style="stroke:#A23B72;stroke-width:0.5;stroke-dasharray:5,5;" x1="31" x2="31" y1="134.2422" y2="408.7266"/></g><g><title>API Gateway</title><rect fill="#000000" fill-opacity="0.00000" height="274.4844" width="8" x="349.0195" y="134.2422"/><line style="stroke:#A23B72;stroke-width:0.5;stroke-dasharray:5,5;" x1="352.7305" x2="352.7305" y1="134.2422" y2="408.7266"/></g><g><title>svc-partner-integrations</title><rect fill="#000000" fill-opacity="0.00000" height="274.4844" width="8" x="498.8828" y="134.2422"/><line style="stroke:#A23B72;stroke-width:0.5;stroke-dasharray:5,5;" x1="502.3086" x2="502.3086" y1="134.2422" y2="408.7266"/></g><g><title>PostgreSQL</title><rect fill="#000000" fill-opacity="0.00000" height="274.4844" width="8" x="724.127" y="134.2422"/><line style="stroke:#A23B72;stroke-width:0.5;stroke-dasharray:5,5;" x1="727.7021" x2="727.7021" y1="134.2422" y2="408.7266"/></g><g class="participant participant-head" data-participant="Client"><rect fill="#E8F4F8" height="30.4883" rx="2.5" ry="2.5" style="stroke:#2E86AB;stroke-width:0.5;" width="53.5049" x="5" y="102.7539"/><text fill="#000000" font-family="Segoe UI" font-size="14" lengthAdjust="spacing" textLength="39.5049" x="12" y="123.2891">Client</text></g><g class="participant participant-tail" data-participant="Client"><rect fill="#E8F4F8" height="30.4883" rx="2.5" ry="2.5" style="stroke:#2E86AB;stroke-width:0.5;" width="53.5049" x="5" y="407.7266"/><text fill="#000000" font-family="Segoe UI" font-size="14" lengthAdjust="spacing" textLength="39.5049" x="12" y="428.2617">Client</text></g><g class="participant participant-head" data-participant="GW"><rect fill="#DBEAFE" height="30.4883" rx="2.5" ry="2.5" style="stroke:#2E86AB;stroke-width:0.5;" width="96.5781" x="304.7305" y="102.7539"/><text fill="#000000" font-family="Segoe UI" font-size="14" lengthAdjust="spacing" textLength="82.5781" x="311.7305" y="123.2891">API Gateway</text></g><g class="participant participant-tail" data-participant="GW"><rect fill="#DBEAFE" height="30.4883" rx="2.5" ry="2.5" style="stroke:#2E86AB;stroke-width:0.5;" width="96.5781" x="304.7305" y="407.7266"/><text fill="#000000" font-family="Segoe UI" font-size="14" lengthAdjust="spacing" textLength="82.5781" x="311.7305" y="428.2617">API Gateway</text></g><g class="participant participant-head" data-participant="Svc"><a href="/microservices/svc-partner-integrations/" target="_top" title="/microservices/svc-partner-integrations/" xlink:actuate="onRequest" xlink:href="/microservices/svc-partner-integrations/" xlink:show="new" xlink:title="/microservices/svc-partner-integrations/" xlink:type="simple"><rect fill="#E8F4F8" height="30.4883" rx="2.5" ry="2.5" style="stroke:#2E86AB;stroke-width:0.5;" width="183.1484" x="411.3086" y="102.7539"/><text fill="#000000" font-family="Segoe UI" font-size="14" lengthAdjust="spacing" textLength="169.1484" x="418.3086" y="123.2891">svc-partner-integrations</text></a></g><g class="participant participant-tail" data-participant="Svc"><a href="/microservices/svc-partner-integrations/" target="_top" title="/microservices/svc-partner-integrations/" xlink:actuate="onRequest" xlink:href="/microservices/svc-partner-integrations/" xlink:show="new" xlink:title="/microservices/svc-partner-integrations/" xlink:type="simple"><rect fill="#E8F4F8" height="30.4883" rx="2.5" ry="2.5" style="stroke:#2E86AB;stroke-width:0.5;" width="183.1484" x="411.3086" y="407.7266"/><text fill="#000000" font-family="Segoe UI" font-size="14" lengthAdjust="spacing" textLength="169.1484" x="418.3086" y="428.2617">svc-partner-integrations</text></a></g><g class="participant participant-head" data-participant="DB"><text fill="#000000" font-family="Segoe UI" font-size="14" lengthAdjust="spacing" textLength="76.8496" x="686.7021" y="131.2891">PostgreSQL</text><path d="M710.127,81.7539 C710.127,71.7539 728.127,71.7539 728.127,71.7539 C728.127,71.7539 746.127,71.7539 746.127,81.7539 L746.127,107.7539 C746.127,117.7539 728.127,117.7539 728.127,117.7539 C728.127,117.7539 710.127,117.7539 710.127,107.7539 L710.127,81.7539" fill="#FCE4EC" style="stroke:#181818;stroke-width:0.5;"/><path d="M710.127,81.7539 C710.127,91.7539 728.127,91.7539 728.127,91.7539 C728.127,91.7539 746.127,91.7539 746.127,81.7539" fill="none" style="stroke:#181818;stroke-width:0.5;"/></g><g class="participant participant-tail" data-participant="DB"><text fill="#000000" font-family="Segoe UI" font-size="14" lengthAdjust="spacing" textLength="76.8496" x="686.7021" y="421.2617">PostgreSQL</text><path d="M710.127,434.2148 C710.127,424.2148 728.127,424.2148 728.127,424.2148 C728.127,424.2148 746.127,424.2148 746.127,434.2148 L746.127,460.2148 C746.127,470.2148 728.127,470.2148 728.127,470.2148 C728.127,470.2148 710.127,470.2148 710.127,460.2148 L710.127,434.2148" fill="#FCE4EC" style="stroke:#181818;stroke-width:0.5;"/><path d="M710.127,434.2148 C710.127,444.2148 728.127,444.2148 728.127,444.2148 C728.127,444.2148 746.127,444.2148 746.127,434.2148" fill="none" style="stroke:#181818;stroke-width:0.5;"/></g><g><title>API Gateway</title><rect fill="#2563EB" height="189.8633" style="stroke:#A23B72;stroke-width:1;" width="10" x="348.0195" y="200.8633"/></g><g><title>svc-partner-integrations</title><rect fill="#2563EB" height="131.2422" style="stroke:#A23B72;stroke-width:1;" width="10" x="497.8828" y="230.1738"/></g><g><title>PostgreSQL</title><rect fill="#FCE4EC" height="29.3105" style="stroke:#A23B72;stroke-width:1;" width="10" x="723.127" y="302.7949"/></g><path d="M432,149.2422 L432,174.2422 L572,174.2422 L572,159.2422 L562,149.2422 L432,149.2422" fill="#FEFFDD" style="stroke:#181818;stroke-width:0.5;"/><path d="M562,149.2422 L562,159.2422 L572,159.2422 L562,149.2422" fill="#FEFFDD" style="stroke:#181818;stroke-width:0.5;"/><a href="/services/api/svc-partner-integrations.html#/Partners/getCommissionReport" target="_top" title="/services/api/svc-partner-integrations.html#/Partners/getCommissionReport" xlink:actuate="onRequest" xlink:href="/services/api/svc-partner-integrations.html#/Partners/getCommissionReport" xlink:show="new" xlink:title="/services/api/svc-partner-integrations.html#/Partners/getCommissionReport" xlink:type="simple"><text fill="#0000FF" font-family="Segoe UI" font-size="13" lengthAdjust="spacing" text-decoration="underline" textLength="119.4058" x="438" y="166.8105">View in Swagger UI</text></a><g class="message" data-participant-1="Client" data-participant-2="GW"><polygon fill="#2563EB" points="336.0195,196.8633,346.0195,200.8633,336.0195,204.8633,340.0195,200.8633" style="stroke:#2563EB;stroke-width:1;"/><line style="stroke:#2563EB;stroke-width:1;" x1="31.7524" x2="342.0195" y1="200.8633" y2="200.8633"/><text fill="#000000" font-family="Segoe UI" font-size="13" lengthAdjust="spacing" textLength="297.2671" x="38.7524" y="196.1211">GET /partners/{partner_id}/commission-report</text></g><g class="message" data-participant-1="GW" data-participant-2="Svc"><polygon fill="#2563EB" points="485.8828,226.1738,495.8828,230.1738,485.8828,234.1738,489.8828,230.1738" style="stroke:#2563EB;stroke-width:1;"/><line style="stroke:#2563EB;stroke-width:1;" x1="358.0195" x2="491.8828" y1="230.1738" y2="230.1738"/><text fill="#000000" font-family="Segoe UI" font-size="13" lengthAdjust="spacing" textLength="85.1348" x="365.0195" y="225.4316">route request</text></g><rect fill="#EEEEEE" height="3" style="stroke:#EEEEEE;stroke-width:1;" width="774.5518" x="0" y="258.8291"/><line style="stroke:#000000;stroke-width:1;" x1="0" x2="774.5518" y1="258.8291" y2="258.8291"/><line style="stroke:#000000;stroke-width:1;" x1="0" x2="774.5518" y1="261.8291" y2="261.8291"/><rect fill="#EEEEEE" height="23.3105" style="stroke:#000000;stroke-width:2;" width="80.3711" x="347.0903" y="248.1738"/><text fill="#000000" font-family="Segoe UI" font-size="13" font-weight="bold" lengthAdjust="spacing" textLength="62.0864" x="353.0903" y="264.7422">Database</text><g class="message" data-participant-1="Svc" data-participant-2="DB"><polygon fill="#2563EB" points="711.127,298.7949,721.127,302.7949,711.127,306.7949,715.127,302.7949" style="stroke:#2563EB;stroke-width:1;"/><line style="stroke:#2563EB;stroke-width:1;" x1="507.8828" x2="717.127" y1="302.7949" y2="302.7949"/><text fill="#000000" font-family="Segoe UI" font-size="13" lengthAdjust="spacing" textLength="196.2441" x="514.8828" y="298.0527">SELECT ... WHERE parent_id = ?</text></g><g class="message" data-participant-1="DB" data-participant-2="Svc"><polygon fill="#2563EB" points="518.8828,328.1055,508.8828,332.1055,518.8828,336.1055,514.8828,332.1055" style="stroke:#2563EB;stroke-width:1;"/><line style="stroke:#2563EB;stroke-width:1;stroke-dasharray:2,2;" x1="512.8828" x2="727.127" y1="332.1055" y2="332.1055"/><text fill="#000000" font-family="Segoe UI" font-size="13" lengthAdjust="spacing" textLength="57.8843" x="524.8828" y="327.3633">ResultSet</text></g><g class="message" data-participant-1="Svc" data-participant-2="GW"><polygon fill="#2563EB" points="369.0195,357.416,359.0195,361.416,369.0195,365.416,365.0195,361.416" style="stroke:#2563EB;stroke-width:1;"/><line style="stroke:#2563EB;stroke-width:1;stroke-dasharray:2,2;" x1="363.0195" x2="501.8828" y1="361.416" y2="361.416"/><text fill="#000000" font-family="Segoe UI" font-size="13" lengthAdjust="spacing" textLength="47.3599" x="375.0195" y="356.6738">200 OK</text></g><g class="message" data-participant-1="GW" data-participant-2="Client"><polygon fill="#2563EB" points="42.7524,386.7266,32.7524,390.7266,42.7524,394.7266,38.7524,390.7266" style="stroke:#2563EB;stroke-width:1;"/><line style="stroke:#2563EB;stroke-width:1;stroke-dasharray:2,2;" x1="36.7524" x2="352.0195" y1="390.7266" y2="390.7266"/><text fill="#000000" font-family="Segoe UI" font-size="13" lengthAdjust="spacing" textLength="47.3599" x="48.7524" y="385.9844">200 OK</text></g><a href="/microservices/svc-partner-integrations/#integration-context" target="_top" title="/microservices/svc-partner-integrations/#integration-context" xlink:actuate="onRequest" xlink:href="/microservices/svc-partner-integrations/#integration-context" xlink:show="new" xlink:title="/microservices/svc-partner-integrations/#integration-context" xlink:type="simple"><text fill="#0000FF" font-family="Segoe UI" font-size="10" lengthAdjust="spacing" text-decoration="underline" textLength="231.9922" x="541.5596" y="14.668">&#11014; svc-partner-integrations Integration Context</text></a><!--SRC=[bLJHRjem57ttLrp1CuH2Ln0Ico0a30srZBJZeKEJIIwfLM8psq2dgg_xcdtLlcGt8K1OoqEJ5yVdt7liS-oOHo5NNFC4vZnyZBLQoyXLIwMXx7lfoyo1OHvufBP2nh3WIuC59C85No-jhwIzvWb2AS1O8TmDIyLo_Bb66I8yCw2dgxNQvbBr3rSDd6VJOwwj2CMAIzjJEaAzftYjgsxl5UN_HNij_z9lPRIHME18I3nfqwqtUirwXlVKqmdaNxJysiK1UcM7xnEUmTVAddODcyrveu2zOMN3Qx8NnXwGKndStpk92BKog3SYHEEOJLWXcwn4NH7IOgov5KeQfrpugeHaC3vP-FldDvohWE7n0znTmMp6c1LsYJ3mRi79ouppd8z-YEZ52LMI26DI7OqhfUrtEK0BnsdOJSE2jiGXBsLiTOm3IkvIeBGbu0PsmrEuEnx2W5lSybyPPp25Sh_dTUcSdV3ERIuh2ZRXEmoSpGwd8kAMpxcXypbMniOQWw-Zh6E_HncvtgNdCYOfG50R2ebqA59IEeZmbJWhL7smoRBiZFVUncZTWtMJdNFV16v1I0YsF8v9uMv8oQ2C81LbRESOL3wclhJVbHNZeHKRSZQpDBzFDAHUgLrjeED8e4xle2cmKt1FPvqEzFSMTJgCfI0r87VQ47WZpxs5QhKAqy_Un4lpfyNIQg03duuD2rRIi7BGdw2XFqI0baLO8ESY-otNQpMu-LAaf26a-o16RizRhC6K_GC0]--></g></svg>