<svg xmlns="http://www.w3.org/2000/svg" xmlns:xlink="http://www.w3.org/1999/xlink" contentStyleType="text/css" data-diagram-type="SEQUENCE" height="474px" preserveAspectRatio="none" style="width:484px;height:474px;background:#FEFEFE;" version="1.1" viewBox="0 0 484 474" width="484px" zoomAndPan="magnify"><title>GET /tiers</title><defs/><g><rect fill="#FEFEFE" height="474" style="stroke:none;stroke-width:1;" width="484" x="0" y="0"/><text fill="#000000" font-family="Segoe UI" font-size="14" font-weight="bold" lengthAdjust="spacing" textLength="73.7461" x="201.1287" y="28.5352">GET /tiers</text><text fill="#000000" font-family="Segoe UI" font-size="14" font-weight="bold" lengthAdjust="spacing" textLength="290.2129" x="92.8953" y="45.0234">List all loyalty tiers and their thresholds</text><g><title>API Gateway</title><rect fill="#2563EB" height="189.8633" style="stroke:#A23B72;stroke-width:1;" width="10" x="114.1528" y="188.0859"/></g><g><title>svc-loyalty-rewards</title><rect fill="#2563EB" height="131.2422" style="stroke:#A23B72;stroke-width:1;" width="10" x="247.3262" y="217.3965"/></g><g><title>PostgreSQL</title><rect fill="#FCE4EC" height="29.3105" style="stroke:#A23B72;stroke-width:1;" width="10" x="425.5786" y="290.0176"/></g><g><title>Client</title><rect fill="#000000" fill-opacity="0.00000" height="274.4844" width="8" x="27.7524" y="121.4648"/><line style="stroke:#A23B72;stroke-width:0.5;stroke-dasharray:5,5;" x1="31" x2="31" y1="121.4648" y2="395.9492"/></g><g><title>API Gateway</title><rect fill="#000000" fill-opacity="0.00000" height="274.4844" width="8" x="115.1528" y="121.4648"/><line style="stroke:#A23B72;stroke-width:0.5;stroke-dasharray:5,5;" x1="118.8638" x2="118.8638" y1="121.4648" y2="395.9492"/></g><g><title>svc-loyalty-rewards</title><rect fill="#000000" fill-opacity="0.00000" height="274.4844" width="8" x="248.3262" y="121.4648"/><line style="stroke:#A23B72;stroke-width:0.5;stroke-dasharray:5,5;" x1="251.4419" x2="251.4419" y1="121.4648" y2="395.9492"/></g><g><title>PostgreSQL</title><rect fill="#000000" fill-opacity="0.00000" height="274.4844" width="8" x="426.5786" y="121.4648"/><line style="stroke:#A23B72;stroke-width:0.5;stroke-dasharray:5,5;" x1="430.1538" x2="430.1538" y1="121.4648" y2="395.9492"/></g><g class="participant participant-head" data-participant="Client"><rect fill="#E8F4F8" height="30.4883" rx="2.5" ry="2.5" style="stroke:#2E86AB;stroke-width:0.5;" width="53.5049" x="5" y="89.9766"/><text fill="#000000" font-family="Segoe UI" font-size="14" lengthAdjust="spacing" textLength="39.5049" x="12" y="110.5117">Client</text></g><g class="participant participant-tail" data-participant="Client"><rect fill="#E8F4F8" height="30.4883" rx="2.5" ry="2.5" style="stroke:#2E86AB;stroke-width:0.5;" width="53.5049" x="5" y="394.9492"/><text fill="#000000" font-family="Segoe UI" font-size="14" lengthAdjust="spacing" textLength="39.5049" x="12" y="415.4844">Client</text></g><g class="participant participant-head" data-participant="GW"><rect fill="#DBEAFE" height="30.4883" rx="2.5" ry="2.5" style="stroke:#2E86AB;stroke-width:0.5;" width="96.5781" x="70.8638" y="89.9766"/><text fill="#000000" font-family="Segoe UI" font-size="14" lengthAdjust="spacing" textLength="82.5781" x="77.8638" y="110.5117">API Gateway</text></g><g class="participant participant-tail" data-participant="GW"><rect fill="#DBEAFE" height="30.4883" rx="2.5" ry="2.5" style="stroke:#2E86AB;stroke-width:0.5;" width="96.5781" x="70.8638" y="394.9492"/><text fill="#000000" font-family="Segoe UI" font-size="14" lengthAdjust="spacing" textLength="82.5781" x="77.8638" y="415.4844">API Gateway</text></g><g class="participant participant-head" data-participant="Svc"><a href="/microservices/svc-loyalty-rewards/" target="_top" title="/microservices/svc-loyalty-rewards/" xlink:actuate="onRequest" xlink:href="/microservices/svc-loyalty-rewards/" xlink:show="new" xlink:title="/microservices/svc-loyalty-rewards/" xlink:type="simple"><rect fill="#E8F4F8" height="30.4883" rx="2.5" ry="2.5" style="stroke:#2E86AB;stroke-width:0.5;" width="149.7686" x="177.4419" y="89.9766"/><text fill="#000000" font-family="Segoe UI" font-size="14" lengthAdjust="spacing" textLength="135.7686" x="184.4419" y="110.5117">svc-loyalty-rewards</text></a></g><g class="participant participant-tail" data-participant="Svc"><a href="/microservices/svc-loyalty-rewards/" target="_top" title="/microservices/svc-loyalty-rewards/" xlink:actuate="onRequest" xlink:href="/microservices/svc-loyalty-rewards/" xlink:show="new" xlink:title="/microservices/svc-loyalty-rewards/" xlink:type="simple"><rect fill="#E8F4F8" height="30.4883" rx="2.5" ry="2.5" style="stroke:#2E86AB;stroke-width:0.5;" width="149.7686" x="177.4419" y="394.9492"/><text fill="#000000" font-family="Segoe UI" font-size="14" lengthAdjust="spacing" textLength="135.7686" x="184.4419" y="415.4844">svc-loyalty-rewards</text></a></g><g class="participant participant-head" data-participant="DB"><text fill="#000000" font-family="Segoe UI" font-size="14" lengthAdjust="spacing" textLength="76.8496" x="389.1538" y="118.5117">PostgreSQL</text><path d="M412.5786,68.9766 C412.5786,58.9766 430.5786,58.9766 430.5786,58.9766 C430.5786,58.9766 448.5786,58.9766 448.5786,68.9766 L448.5786,94.9766 C448.5786,104.9766 430.5786,104.9766 430.5786,104.9766 C430.5786,104.9766 412.5786,104.9766 412.5786,94.9766 L412.5786,68.9766" fill="#FCE4EC" style="stroke:#181818;stroke-width:0.5;"/><path d="M412.5786,68.9766 C412.5786,78.9766 430.5786,78.9766 430.5786,78.9766 C430.5786,78.9766 448.5786,78.9766 448.5786,68.9766" fill="none" style="stroke:#181818;stroke-width:0.5;"/></g><g class="participant participant-tail" data-participant="DB"><text fill="#000000" font-family="Segoe UI" font-size="14" lengthAdjust="spacing" textLength="76.8496" x="389.1538" y="408.4844">PostgreSQL</text><path d="M412.5786,421.4375 C412.5786,411.4375 430.5786,411.4375 430.5786,411.4375 C430.5786,411.4375 448.5786,411.4375 448.5786,421.4375 L448.5786,447.4375 C448.5786,457.4375 430.5786,457.4375 430.5786,457.4375 C430.5786,457.4375 412.5786,457.4375 412.5786,447.4375 L412.5786,421.4375" fill="#FCE4EC" style="stroke:#181818;stroke-width:0.5;"/><path d="M412.5786,421.4375 C412.5786,431.4375 430.5786,431.4375 430.5786,431.4375 C430.5786,431.4375 448.5786,431.4375 448.5786,421.4375" fill="none" style="stroke:#181818;stroke-width:0.5;"/></g><g><title>API Gateway</title><rect fill="#2563EB" height="189.8633" style="stroke:#A23B72;stroke-width:1;" width="10" x="114.1528" y="188.0859"/></g><g><title>svc-loyalty-rewards</title><rect fill="#2563EB" height="131.2422" style="stroke:#A23B72;stroke-width:1;" width="10" x="247.3262" y="217.3965"/></g><g><title>PostgreSQL</title><rect fill="#FCE4EC" height="29.3105" style="stroke:#A23B72;stroke-width:1;" width="10" x="425.5786" y="290.0176"/></g><path d="M182,136.4648 L182,161.4648 L322,161.4648 L322,146.4648 L312,136.4648 L182,136.4648" fill="#FEFFDD" style="stroke:#181818;stroke-width:0.5;"/><path d="M312,136.4648 L312,146.4648 L322,146.4648 L312,136.4648" fill="#FEFFDD" style="stroke:#181818;stroke-width:0.5;"/><a href="/services/api/svc-loyalty-rewards.html#/Tiers/listTiers" target="_top" title="/services/api/svc-loyalty-rewards.html#/Tiers/listTiers" xlink:actuate="onRequest" xlink:href="/services/api/svc-loyalty-rewards.html#/Tiers/listTiers" xlink:show="new" xlink:title="/services/api/svc-loyalty-rewards.html#/Tiers/listTiers" xlink:type="simple"><text fill="#0000FF" font-family="Segoe UI" font-size="13" lengthAdjust="spacing" text-decoration="underline" textLength="119.4058" x="188" y="154.0332">View in Swagger UI</text></a><g class="message" data-participant-1="Client" data-participant-2="GW"><polygon fill="#2563EB" points="102.1528,184.0859,112.1528,188.0859,102.1528,192.0859,106.1528,188.0859" style="stroke:#2563EB;stroke-width:1;"/><line style="stroke:#2563EB;stroke-width:1;" x1="31.7524" x2="108.1528" y1="188.0859" y2="188.0859"/><text fill="#000000" font-family="Segoe UI" font-size="13" lengthAdjust="spacing" textLength="63.4004" x="38.7524" y="183.3438">GET /tiers</text></g><g class="message" data-participant-1="GW" data-participant-2="Svc"><polygon fill="#2563EB" points="235.3262,213.3965,245.3262,217.3965,235.3262,221.3965,239.3262,217.3965" style="stroke:#2563EB;stroke-width:1;"/><line style="stroke:#2563EB;stroke-width:1;" x1="124.1528" x2="241.3262" y1="217.3965" y2="217.3965"/><text fill="#000000" font-family="Segoe UI" font-size="13" lengthAdjust="spacing" textLength="85.1348" x="131.1528" y="212.6543">route request</text></g><rect fill="#EEEEEE" height="3" style="stroke:#EEEEEE;stroke-width:1;" width="477.0034" x="0" y="246.0518"/><line style="stroke:#000000;stroke-width:1;" x1="0" x2="477.0034" y1="246.0518" y2="246.0518"/><line style="stroke:#000000;stroke-width:1;" x1="0" x2="477.0034" y1="249.0518" y2="249.0518"/><rect fill="#EEEEEE" height="23.3105" style="stroke:#000000;stroke-width:2;" width="80.3711" x="198.3162" y="235.3965"/><text fill="#000000" font-family="Segoe UI" font-size="13" font-weight="bold" lengthAdjust="spacing" textLength="62.0864" x="204.3162" y="251.9648">Database</text><g class="message" data-participant-1="Svc" data-participant-2="DB"><polygon fill="#2563EB" points="413.5786,286.0176,423.5786,290.0176,413.5786,294.0176,417.5786,290.0176" style="stroke:#2563EB;stroke-width:1;"/><line style="stroke:#2563EB;stroke-width:1;" x1="257.3262" x2="419.5786" y1="290.0176" y2="290.0176"/><text fill="#000000" font-family="Segoe UI" font-size="13" lengthAdjust="spacing" textLength="149.2524" x="264.3262" y="285.2754">SELECT ... WHERE filters</text></g><g class="message" data-participant-1="DB" data-participant-2="Svc"><polygon fill="#2563EB" points="268.3262,315.3281,258.3262,319.3281,268.3262,323.3281,264.3262,319.3281" style="stroke:#2563EB;stroke-width:1;"/><line style="stroke:#2563EB;stroke-width:1;stroke-dasharray:2,2;" x1="262.3262" x2="429.5786" y1="319.3281" y2="319.3281"/><text fill="#000000" font-family="Segoe UI" font-size="13" lengthAdjust="spacing" textLength="93.209" x="274.3262" y="314.5859">Page of results</text></g><g class="message" data-participant-1="Svc" data-participant-2="GW"><polygon fill="#2563EB" points="135.1528,344.6387,125.1528,348.6387,135.1528,352.6387,131.1528,348.6387" style="stroke:#2563EB;stroke-width:1;"/><line style="stroke:#2563EB;stroke-width:1;stroke-dasharray:2,2;" x1="129.1528" x2="251.3262" y1="348.6387" y2="348.6387"/><text fill="#000000" font-family="Segoe UI" font-size="13" lengthAdjust="spacing" textLength="47.3599" x="141.1528" y="343.8965">200 OK</text></g><g class="message" data-participant-1="GW" data-participant-2="Client"><polygon fill="#2563EB" points="42.7524,373.9492,32.7524,377.9492,42.7524,381.9492,38.7524,377.9492" style="stroke:#2563EB;stroke-width:1;"/><line style="stroke:#2563EB;stroke-width:1;stroke-dasharray:2,2;" x1="36.7524" x2="118.1528" y1="377.9492" y2="377.9492"/><text fill="#000000" font-family="Segoe UI" font-size="13" lengthAdjust="spacing" textLength="47.3599" x="48.7524" y="373.207">200 OK</text></g><!--SRC=[RPDHRzem58NV_Ikku1b2eIi8YKa478Q6MZReUEXuCCabM3KsimqCJVllkqc19Yk955tv7D-J-yLnhrBlX1LRM8duDRLchvE1KSP2DUBPpTpLuJOYCKUfKrWBvR2W9BWMU-KZe_sZs29KPfWQXETnfRWTV-rHnmX_6D3LjzOSpr7DJmyjNENBKs6zZELEQ1yQcw2zM7ZdeHz-iFp_qhmJtKUTt3QHQvn8ZQKs_MOhR3TpFJI_Ir9qruaQTrVf0uue8ZsN7uqlTutRxLMheDr0sU9jzfSnBxr26F4v15wYTJ_rH3eFGYbGvYIKFq6-3a8du3SeBJqjkerHYMDizpuwL0PAelOL40xUohBSduvX93mUnIdtZ1PG7OQyJz-qv7E7k7REhbbosyJb_jaXXfUNO2jZQnpQWupH1JVCmN9vvPu8BrR2qGcO6kTJYxDlaxpPC2GA0txF1unfGWJcW3QB86WKSkqlTl9MHdtZjweQp3CqWI9YUGK_91v1QfWTHPfIl-VnSicGo6KHZBrHWThdRFPkWJeJiPS7OfD3EPy-AicPJTq5-dWaskp4El_kpiIBdVLwCBoCs-inbedKW2RjmenF-60EzNeT5b_uTmvhgNmfk024ojerUIfIWhEcR4T_b6C95hQSGou3DHiDUFfQj6H0ipd8SHx-bckqOFy0]--></g></svg>