<svg xmlns="http://www.w3.org/2000/svg" xmlns:xlink="http://www.w3.org/1999/xlink" contentStyleType="text/css" data-diagram-type="SEQUENCE" height="616px" preserveAspectRatio="none" style="width:759px;height:616px;background:#FEFEFE;" version="1.1" viewBox="0 0 759 616" width="759px" zoomAndPan="magnify"><title>POST /trips/{trip_id}/schedule</title><defs/><g><rect fill="#FEFEFE" height="616" style="stroke:none;stroke-width:1;" width="759" x="0" y="0"/><text fill="#000000" font-family="Segoe UI" font-size="14" font-weight="bold" lengthAdjust="spacing" textLength="220.9785" x="265.2625" y="41.3125">POST /trips/{trip_id}/schedule</text><text fill="#000000" font-family="Segoe UI" font-size="14" font-weight="bold" lengthAdjust="spacing" textLength="194.9883" x="278.2576" y="57.8008">Add a scheduled departure</text><g><title>API Gateway</title><rect fill="#059669" height="319.1055" style="stroke:#A23B72;stroke-width:1;" width="10" x="241.436" y="200.8633"/></g><g><title>svc-trip-catalog</title><rect fill="#059669" height="260.4844" style="stroke:#A23B72;stroke-width:1;" width="10" x="362.1372" y="230.1738"/></g><g><title>PostgreSQL</title><rect fill="#FCE4EC" height="29.3105" style="stroke:#A23B72;stroke-width:1;" width="10" x="568.5415" y="338.1055"/></g><g><title>PostgreSQL</title><rect fill="#FCE4EC" height="29.3105" style="stroke:#A23B72;stroke-width:1;" width="10" x="568.5415" y="432.0371"/></g><g><title>Client</title><rect fill="#000000" fill-opacity="0.00000" height="403.7266" width="8" x="27.7524" y="134.2422"/><line style="stroke:#A23B72;stroke-width:0.5;stroke-dasharray:5,5;" x1="31" x2="31" y1="134.2422" y2="537.9688"/></g><g><title>API Gateway</title><rect fill="#000000" fill-opacity="0.00000" height="403.7266" width="8" x="242.436" y="134.2422"/><line style="stroke:#A23B72;stroke-width:0.5;stroke-dasharray:5,5;" x1="246.147" x2="246.147" y1="134.2422" y2="537.9688"/></g><g><title>svc-trip-catalog</title><rect fill="#000000" fill-opacity="0.00000" height="403.7266" width="8" x="363.1372" y="134.2422"/><line style="stroke:#A23B72;stroke-width:0.5;stroke-dasharray:5,5;" x1="366.7251" x2="366.7251" y1="134.2422" y2="537.9688"/></g><g><title>PostgreSQL</title><rect fill="#000000" fill-opacity="0.00000" height="403.7266" width="8" x="569.5415" y="134.2422"/><line style="stroke:#A23B72;stroke-width:0.5;stroke-dasharray:5,5;" x1="573.1167" x2="573.1167" y1="134.2422" y2="537.9688"/></g><g class="participant participant-head" data-participant="Client"><rect fill="#E8F4F8" height="30.4883" rx="2.5" ry="2.5" style="stroke:#2E86AB;stroke-width:0.5;" width="53.5049" x="5" y="102.7539"/><text fill="#000000" font-family="Segoe UI" font-size="14" lengthAdjust="spacing" textLength="39.5049" x="12" y="123.2891">Client</text></g><g class="participant participant-tail" data-participant="Client"><rect fill="#E8F4F8" height="30.4883" rx="2.5" ry="2.5" style="stroke:#2E86AB;stroke-width:0.5;" width="53.5049" x="5" y="536.9688"/><text fill="#000000" font-family="Segoe UI" font-size="14" lengthAdjust="spacing" textLength="39.5049" x="12" y="557.5039">Client</text></g><g class="participant participant-head" data-participant="GW"><rect fill="#DBEAFE" height="30.4883" rx="2.5" ry="2.5" style="stroke:#2E86AB;stroke-width:0.5;" width="96.5781" x="198.147" y="102.7539"/><text fill="#000000" font-family="Segoe UI" font-size="14" lengthAdjust="spacing" textLength="82.5781" x="205.147" y="123.2891">API Gateway</text></g><g class="participant participant-tail" data-participant="GW"><rect fill="#DBEAFE" height="30.4883" rx="2.5" ry="2.5" style="stroke:#2E86AB;stroke-width:0.5;" width="96.5781" x="198.147" y="536.9688"/><text fill="#000000" font-family="Segoe UI" font-size="14" lengthAdjust="spacing" textLength="82.5781" x="205.147" y="557.5039">API Gateway</text></g><g class="participant participant-head" data-participant="Svc"><a href="/microservices/svc-trip-catalog/" target="_top" title="/microservices/svc-trip-catalog/" xlink:actuate="onRequest" xlink:href="/microservices/svc-trip-catalog/" xlink:show="new" xlink:title="/microservices/svc-trip-catalog/" xlink:type="simple"><rect fill="#E8F4F8" height="30.4883" rx="2.5" ry="2.5" style="stroke:#2E86AB;stroke-width:0.5;" width="124.8242" x="304.7251" y="102.7539"/><text fill="#000000" font-family="Segoe UI" font-size="14" lengthAdjust="spacing" textLength="110.8242" x="311.7251" y="123.2891">svc-trip-catalog</text></a></g><g class="participant participant-tail" data-participant="Svc"><a href="/microservices/svc-trip-catalog/" target="_top" title="/microservices/svc-trip-catalog/" xlink:actuate="onRequest" xlink:href="/microservices/svc-trip-catalog/" xlink:show="new" xlink:title="/microservices/svc-trip-catalog/" xlink:type="simple"><rect fill="#E8F4F8" height="30.4883" rx="2.5" ry="2.5" style="stroke:#2E86AB;stroke-width:0.5;" width="124.8242" x="304.7251" y="536.9688"/><text fill="#000000" font-family="Segoe UI" font-size="14" lengthAdjust="spacing" textLength="110.8242" x="311.7251" y="557.5039">svc-trip-catalog</text></a></g><g class="participant participant-head" data-participant="DB"><text fill="#000000" font-family="Segoe UI" font-size="14" lengthAdjust="spacing" textLength="76.8496" x="532.1167" y="131.2891">PostgreSQL</text><path d="M555.5415,81.7539 C555.5415,71.7539 573.5415,71.7539 573.5415,71.7539 C573.5415,71.7539 591.5415,71.7539 591.5415,81.7539 L591.5415,107.7539 C591.5415,117.7539 573.5415,117.7539 573.5415,117.7539 C573.5415,117.7539 555.5415,117.7539 555.5415,107.7539 L555.5415,81.7539" fill="#FCE4EC" style="stroke:#181818;stroke-width:0.5;"/><path d="M555.5415,81.7539 C555.5415,91.7539 573.5415,91.7539 573.5415,91.7539 C573.5415,91.7539 591.5415,91.7539 591.5415,81.7539" fill="none" style="stroke:#181818;stroke-width:0.5;"/></g><g class="participant participant-tail" data-participant="DB"><text fill="#000000" font-family="Segoe UI" font-size="14" lengthAdjust="spacing" textLength="76.8496" x="532.1167" y="550.5039">PostgreSQL</text><path d="M555.5415,563.457 C555.5415,553.457 573.5415,553.457 573.5415,553.457 C573.5415,553.457 591.5415,553.457 591.5415,563.457 L591.5415,589.457 C591.5415,599.457 573.5415,599.457 573.5415,599.457 C573.5415,599.457 555.5415,599.457 555.5415,589.457 L555.5415,563.457" fill="#FCE4EC" style="stroke:#181818;stroke-width:0.5;"/><path d="M555.5415,563.457 C555.5415,573.457 573.5415,573.457 573.5415,573.457 C573.5415,573.457 591.5415,573.457 591.5415,563.457" fill="none" style="stroke:#181818;stroke-width:0.5;"/></g><g><title>API Gateway</title><rect fill="#059669" height="319.1055" style="stroke:#A23B72;stroke-width:1;" width="10" x="241.436" y="200.8633"/></g><g><title>svc-trip-catalog</title><rect fill="#059669" height="260.4844" style="stroke:#A23B72;stroke-width:1;" width="10" x="362.1372" y="230.1738"/></g><g><title>PostgreSQL</title><rect fill="#FCE4EC" height="29.3105" style="stroke:#A23B72;stroke-width:1;" width="10" x="568.5415" y="338.1055"/></g><g><title>PostgreSQL</title><rect fill="#FCE4EC" height="29.3105" style="stroke:#A23B72;stroke-width:1;" width="10" x="568.5415" y="432.0371"/></g><path d="M296,149.2422 L296,174.2422 L436,174.2422 L436,159.2422 L426,149.2422 L296,149.2422" fill="#FEFFDD" style="stroke:#181818;stroke-width:0.5;"/><path d="M426,149.2422 L426,159.2422 L436,159.2422 L426,149.2422" fill="#FEFFDD" style="stroke:#181818;stroke-width:0.5;"/><a href="/services/api/svc-trip-catalog.html#/Schedule/addScheduledDeparture" target="_top" title="/services/api/svc-trip-catalog.html#/Schedule/addScheduledDeparture" xlink:actuate="onRequest" xlink:href="/services/api/svc-trip-catalog.html#/Schedule/addScheduledDeparture" xlink:show="new" xlink:title="/services/api/svc-trip-catalog.html#/Schedule/addScheduledDeparture" xlink:type="simple"><text fill="#0000FF" font-family="Segoe UI" font-size="13" lengthAdjust="spacing" text-decoration="underline" textLength="119.4058" x="302" y="166.8105">View in Swagger UI</text></a><g class="message" data-participant-1="Client" data-participant-2="GW"><polygon fill="#059669" points="229.436,196.8633,239.436,200.8633,229.436,204.8633,233.436,200.8633" style="stroke:#059669;stroke-width:1;"/><line style="stroke:#059669;stroke-width:1;" x1="31.7524" x2="235.436" y1="200.8633" y2="200.8633"/><text fill="#000000" font-family="Segoe UI" font-size="13" lengthAdjust="spacing" textLength="190.6836" x="38.7524" y="196.1211">POST /trips/{trip_id}/schedule</text></g><g class="message" data-participant-1="GW" data-participant-2="Svc"><polygon fill="#059669" points="350.1372,226.1738,360.1372,230.1738,350.1372,234.1738,354.1372,230.1738" style="stroke:#059669;stroke-width:1;"/><line style="stroke:#059669;stroke-width:1;" x1="251.436" x2="356.1372" y1="230.1738" y2="230.1738"/><text fill="#000000" font-family="Segoe UI" font-size="13" lengthAdjust="spacing" textLength="85.1348" x="258.436" y="225.4316">route request</text></g><path d="M377,243.1738 L377,268.1738 L535,268.1738 L535,253.1738 L525,243.1738 L377,243.1738" fill="#FEFFDD" style="stroke:#181818;stroke-width:0.5;"/><path d="M525,243.1738 L525,253.1738 L535,253.1738 L525,243.1738" fill="#FEFFDD" style="stroke:#181818;stroke-width:0.5;"/><text fill="#000000" font-family="Segoe UI" font-size="13" lengthAdjust="spacing" textLength="137.5728" x="383" y="260.7422">Validate request body</text><rect fill="#EEEEEE" height="3" style="stroke:#EEEEEE;stroke-width:1;" width="752.5034" x="0" y="294.1396"/><line style="stroke:#000000;stroke-width:1;" x1="0" x2="752.5034" y1="294.1396" y2="294.1396"/><line style="stroke:#000000;stroke-width:1;" x1="0" x2="752.5034" y1="297.1396" y2="297.1396"/><rect fill="#EEEEEE" height="23.3105" style="stroke:#000000;stroke-width:2;" width="80.3711" x="336.0662" y="283.4844"/><text fill="#000000" font-family="Segoe UI" font-size="13" font-weight="bold" lengthAdjust="spacing" textLength="62.0864" x="342.0662" y="300.0527">Database</text><g class="message" data-participant-1="Svc" data-participant-2="DB"><polygon fill="#059669" points="556.5415,334.1055,566.5415,338.1055,556.5415,342.1055,560.5415,338.1055" style="stroke:#059669;stroke-width:1;"/><line style="stroke:#059669;stroke-width:1;" x1="372.1372" x2="562.5415" y1="338.1055" y2="338.1055"/><text fill="#000000" font-family="Segoe UI" font-size="13" lengthAdjust="spacing" textLength="177.4043" x="379.1372" y="333.3633">SELECT parent WHERE id = ?</text></g><g class="message" data-participant-1="DB" data-participant-2="Svc"><polygon fill="#059669" points="383.1372,363.416,373.1372,367.416,383.1372,371.416,379.1372,367.416" style="stroke:#059669;stroke-width:1;"/><line style="stroke:#059669;stroke-width:1;stroke-dasharray:2,2;" x1="377.1372" x2="572.5415" y1="367.416" y2="367.416"/><text fill="#000000" font-family="Segoe UI" font-size="13" lengthAdjust="spacing" textLength="67.2915" x="389.1372" y="362.6738">Parent row</text></g><path d="M578,380.416 L578,405.416 L747,405.416 L747,390.416 L737,380.416 L578,380.416" fill="#FEFFDD" style="stroke:#181818;stroke-width:0.5;"/><path d="M737,380.416 L737,390.416 L747,390.416 L737,380.416" fill="#FEFFDD" style="stroke:#181818;stroke-width:0.5;"/><text fill="#000000" font-family="Segoe UI" font-size="13" lengthAdjust="spacing" textLength="148.5034" x="584" y="397.9844">404 if parent not found</text><g class="message" data-participant-1="Svc" data-participant-2="DB"><polygon fill="#059669" points="556.5415,428.0371,566.5415,432.0371,556.5415,436.0371,560.5415,432.0371" style="stroke:#059669;stroke-width:1;"/><line style="stroke:#059669;stroke-width:1;" x1="372.1372" x2="562.5415" y1="432.0371" y2="432.0371"/><text fill="#000000" font-family="Segoe UI" font-size="13" lengthAdjust="spacing" textLength="96.0718" x="379.1372" y="427.2949">INSERT INTO ...</text></g><g class="message" data-participant-1="DB" data-participant-2="Svc"><polygon fill="#059669" points="383.1372,457.3477,373.1372,461.3477,383.1372,465.3477,379.1372,461.3477" style="stroke:#059669;stroke-width:1;"/><line style="stroke:#059669;stroke-width:1;stroke-dasharray:2,2;" x1="377.1372" x2="572.5415" y1="461.3477" y2="461.3477"/><text fill="#000000" font-family="Segoe UI" font-size="13" lengthAdjust="spacing" textLength="76.4575" x="389.1372" y="456.6055">Created row</text></g><g class="message" data-participant-1="Svc" data-participant-2="GW"><polygon fill="#059669" points="262.436,486.6582,252.436,490.6582,262.436,494.6582,258.436,490.6582" style="stroke:#059669;stroke-width:1;"/><line style="stroke:#059669;stroke-width:1;stroke-dasharray:2,2;" x1="256.436" x2="366.1372" y1="490.6582" y2="490.6582"/><text fill="#000000" font-family="Segoe UI" font-size="13" lengthAdjust="spacing" textLength="77.7969" x="268.436" y="485.916">201 Created</text></g><g class="message" data-participant-1="GW" data-participant-2="Client"><polygon fill="#059669" points="42.7524,515.9688,32.7524,519.9688,42.7524,523.9688,38.7524,519.9688" style="stroke:#059669;stroke-width:1;"/><line style="stroke:#059669;stroke-width:1;stroke-dasharray:2,2;" x1="36.7524" x2="245.436" y1="519.9688" y2="519.9688"/><text fill="#000000" font-family="Segoe UI" font-size="13" lengthAdjust="spacing" textLength="77.7969" x="48.7524" y="515.2266">201 Created</text></g><a href="/microservices/svc-trip-catalog/#integration-context" target="_top" title="/microservices/svc-trip-catalog/#integration-context" xlink:actuate="onRequest" xlink:href="/microservices/svc-trip-catalog/#integration-context" xlink:show="new" xlink:title="/microservices/svc-trip-catalog/#integration-context" xlink:type="simple"><text fill="#0000FF" font-family="Segoe UI" font-size="10" lengthAdjust="spacing" text-decoration="underline" textLength="190.332" x="561.1714" y="14.668">&#11014; svc-trip-catalog Integration Context</text></a><!--SRC=[ZPFTRjem5CVl_HH7S0q1oWgjn2O8IOU4MjRGSj6XoSI7O3NOp37GgkhjdcPFjIVPII1yjLENNCJ9_tS-yZzsyYZLWXi-XmaF7oEZbqguEjO6YhwNtYpP4ScC2xsMAe8fZnCyK0HE-JAslbRsciyH2W566k6kLpWCnvzBL2722mEwsiRezRPKvTF5-Vb5zdd0ZPMXN71bEze8D5kavZNFsvqto6dJNjEl-yqCwyifzgN2epJjsbcdKSlqZduwalngqwzKTz8REtoVz4o-rlOuQzXeJCuEj7UiFFCQx9Mn6N8AWuS7Pov3enCqAnbYuYIhi6IDN9H2Rdci8wSebSN8S2krAeLaB3vP-FFx5voIqDk3u6x0yPWnAssCCBW9Xk2aVEAyf8yVKhmwIJX3iOpnkseB0HpoTq6Jf67PfK765dkReU364fKj04zWipoMsuCUN76BQ_wSCLSZA7OxNflspn5tsdm61wlmFmmPZtVJ5VHfmXFQPmETsCXWyAsVPUfso6lNgtikOue60Nf5PbD-6WrLs2Nd2_ccG7bcvt7H2RPME5o8V2swkIjmBt4DKa6mvb54kUzwv3Kg0MavnZRUGEbpwi3b1-up7bgv8jSokxPdW9OKdLfo2RI5I3JfkKdidax57D_yff7Hp8AURkFkUIm5tuV2H8jdnbejwEREjLgCfJ3L8jCk8V3wdZi4-isq_z5NxzO3AQ05N_Pr3zobPMdNvc0JHCUP2JoWJthBwjGhTP3Jl0u1C4tFoN4plUl0kntIOtW3vNBvumvSWoIBTrhOvCtdKQjKS_QGIpT8wZjXsm7-4xqQiRy0]--></g></svg>