<svg xmlns="http://www.w3.org/2000/svg" xmlns:xlink="http://www.w3.org/1999/xlink" contentStyleType="text/css" data-diagram-type="SEQUENCE" height="509px" preserveAspectRatio="none" style="width:463px;height:509px;background:#FEFEFE;" version="1.1" viewBox="0 0 463 509" width="463px" zoomAndPan="magnify"><title>POST /templates</title><defs/><g><rect fill="#FEFEFE" height="509" style="stroke:none;stroke-width:1;" width="463" x="0" y="0"/><text fill="#000000" font-family="Segoe UI" font-size="14" font-weight="bold" lengthAdjust="spacing" textLength="121.6045" x="166.9841" y="28.5352">POST /templates</text><text fill="#000000" font-family="Segoe UI" font-size="14" font-weight="bold" lengthAdjust="spacing" textLength="214.874" x="120.3494" y="45.0234">Create a notification template</text><g><title>API Gateway</title><rect fill="#059669" height="225.1738" style="stroke:#A23B72;stroke-width:1;" width="10" x="156.2822" y="188.0859"/></g><g><title>svc-notifications</title><rect fill="#059669" height="166.5527" style="stroke:#A23B72;stroke-width:1;" width="10" x="278.5864" y="217.3965"/></g><g><title>PG . Redis</title><rect fill="#FCE4EC" height="29.3105" style="stroke:#A23B72;stroke-width:1;" width="10" x="403.6582" y="325.3281"/></g><g><title>Client</title><rect fill="#000000" fill-opacity="0.00000" height="309.7949" width="8" x="27.7524" y="121.4648"/><line style="stroke:#A23B72;stroke-width:0.5;stroke-dasharray:5,5;" x1="31" x2="31" y1="121.4648" y2="431.2598"/></g><g><title>API Gateway</title><rect fill="#000000" fill-opacity="0.00000" height="309.7949" width="8" x="157.2822" y="121.4648"/><line style="stroke:#A23B72;stroke-width:0.5;stroke-dasharray:5,5;" x1="160.9932" x2="160.9932" y1="121.4648" y2="431.2598"/></g><g><title>svc-notifications</title><rect fill="#000000" fill-opacity="0.00000" height="309.7949" width="8" x="279.5864" y="121.4648"/><line style="stroke:#A23B72;stroke-width:0.5;stroke-dasharray:5,5;" x1="283.5713" x2="283.5713" y1="121.4648" y2="431.2598"/></g><g><title>PG . Redis</title><rect fill="#000000" fill-opacity="0.00000" height="309.7949" width="8" x="404.6582" y="121.4648"/><line style="stroke:#A23B72;stroke-width:0.5;stroke-dasharray:5,5;" x1="408.4126" x2="408.4126" y1="121.4648" y2="431.2598"/></g><g class="participant participant-head" data-participant="Client"><rect fill="#E8F4F8" height="30.4883" rx="2.5" ry="2.5" style="stroke:#2E86AB;stroke-width:0.5;" width="53.5049" x="5" y="89.9766"/><text fill="#000000" font-family="Segoe UI" font-size="14" lengthAdjust="spacing" textLength="39.5049" x="12" y="110.5117">Client</text></g><g class="participant participant-tail" data-participant="Client"><rect fill="#E8F4F8" height="30.4883" rx="2.5" ry="2.5" style="stroke:#2E86AB;stroke-width:0.5;" width="53.5049" x="5" y="430.2598"/><text fill="#000000" font-family="Segoe UI" font-size="14" lengthAdjust="spacing" textLength="39.5049" x="12" y="450.7949">Client</text></g><g class="participant participant-head" data-participant="GW"><rect fill="#DBEAFE" height="30.4883" rx="2.5" ry="2.5" style="stroke:#2E86AB;stroke-width:0.5;" width="96.5781" x="112.9932" y="89.9766"/><text fill="#000000" font-family="Segoe UI" font-size="14" lengthAdjust="spacing" textLength="82.5781" x="119.9932" y="110.5117">API Gateway</text></g><g class="participant participant-tail" data-participant="GW"><rect fill="#DBEAFE" height="30.4883" rx="2.5" ry="2.5" style="stroke:#2E86AB;stroke-width:0.5;" width="96.5781" x="112.9932" y="430.2598"/><text fill="#000000" font-family="Segoe UI" font-size="14" lengthAdjust="spacing" textLength="82.5781" x="119.9932" y="450.7949">API Gateway</text></g><g class="participant participant-head" data-participant="Svc"><a href="/microservices/svc-notifications/" target="_top" title="/microservices/svc-notifications/" xlink:actuate="onRequest" xlink:href="/microservices/svc-notifications/" xlink:show="new" xlink:title="/microservices/svc-notifications/" xlink:type="simple"><rect fill="#E8F4F8" height="30.4883" rx="2.5" ry="2.5" style="stroke:#2E86AB;stroke-width:0.5;" width="128.0303" x="219.5713" y="89.9766"/><text fill="#000000" font-family="Segoe UI" font-size="14" lengthAdjust="spacing" textLength="114.0303" x="226.5713" y="110.5117">svc-notifications</text></a></g><g class="participant participant-tail" data-participant="Svc"><a href="/microservices/svc-notifications/" target="_top" title="/microservices/svc-notifications/" xlink:actuate="onRequest" xlink:href="/microservices/svc-notifications/" xlink:show="new" xlink:title="/microservices/svc-notifications/" xlink:type="simple"><rect fill="#E8F4F8" height="30.4883" rx="2.5" ry="2.5" style="stroke:#2E86AB;stroke-width:0.5;" width="128.0303" x="219.5713" y="430.2598"/><text fill="#000000" font-family="Segoe UI" font-size="14" lengthAdjust="spacing" textLength="114.0303" x="226.5713" y="450.7949">svc-notifications</text></a></g><g class="participant participant-head" data-participant="DB"><text fill="#000000" font-family="Segoe UI" font-size="14" lengthAdjust="spacing" textLength="74.4912" x="368.4126" y="118.5117">PG + Redis</text><path d="M390.6582,68.9766 C390.6582,58.9766 408.6582,58.9766 408.6582,58.9766 C408.6582,58.9766 426.6582,58.9766 426.6582,68.9766 L426.6582,94.9766 C426.6582,104.9766 408.6582,104.9766 408.6582,104.9766 C408.6582,104.9766 390.6582,104.9766 390.6582,94.9766 L390.6582,68.9766" fill="#FCE4EC" style="stroke:#181818;stroke-width:0.5;"/><path d="M390.6582,68.9766 C390.6582,78.9766 408.6582,78.9766 408.6582,78.9766 C408.6582,78.9766 426.6582,78.9766 426.6582,68.9766" fill="none" style="stroke:#181818;stroke-width:0.5;"/></g><g class="participant participant-tail" data-participant="DB"><text fill="#000000" font-family="Segoe UI" font-size="14" lengthAdjust="spacing" textLength="74.4912" x="368.4126" y="443.7949">PG + Redis</text><path d="M390.6582,456.748 C390.6582,446.748 408.6582,446.748 408.6582,446.748 C408.6582,446.748 426.6582,446.748 426.6582,456.748 L426.6582,482.748 C426.6582,492.748 408.6582,492.748 408.6582,492.748 C408.6582,492.748 390.6582,492.748 390.6582,482.748 L390.6582,456.748" fill="#FCE4EC" style="stroke:#181818;stroke-width:0.5;"/><path d="M390.6582,456.748 C390.6582,466.748 408.6582,466.748 408.6582,466.748 C408.6582,466.748 426.6582,466.748 426.6582,456.748" fill="none" style="stroke:#181818;stroke-width:0.5;"/></g><g><title>API Gateway</title><rect fill="#059669" height="225.1738" style="stroke:#A23B72;stroke-width:1;" width="10" x="156.2822" y="188.0859"/></g><g><title>svc-notifications</title><rect fill="#059669" height="166.5527" style="stroke:#A23B72;stroke-width:1;" width="10" x="278.5864" y="217.3965"/></g><g><title>PG . Redis</title><rect fill="#FCE4EC" height="29.3105" style="stroke:#A23B72;stroke-width:1;" width="10" x="403.6582" y="325.3281"/></g><path d="M213,136.4648 L213,161.4648 L353,161.4648 L353,146.4648 L343,136.4648 L213,136.4648" fill="#FEFFDD" style="stroke:#181818;stroke-width:0.5;"/><path d="M343,136.4648 L343,146.4648 L353,146.4648 L343,136.4648" fill="#FEFFDD" style="stroke:#181818;stroke-width:0.5;"/><a href="/services/api/svc-notifications.html#/Templates/createTemplate" target="_top" title="/services/api/svc-notifications.html#/Templates/createTemplate" xlink:actuate="onRequest" xlink:href="/services/api/svc-notifications.html#/Templates/createTemplate" xlink:show="new" xlink:title="/services/api/svc-notifications.html#/Templates/createTemplate" xlink:type="simple"><text fill="#0000FF" font-family="Segoe UI" font-size="13" lengthAdjust="spacing" text-decoration="underline" textLength="119.4058" x="219" y="154.0332">View in Swagger UI</text></a><g class="message" data-participant-1="Client" data-participant-2="GW"><polygon fill="#059669" points="144.2822,184.0859,154.2822,188.0859,144.2822,192.0859,148.2822,188.0859" style="stroke:#059669;stroke-width:1;"/><line style="stroke:#059669;stroke-width:1;" x1="31.7524" x2="150.2822" y1="188.0859" y2="188.0859"/><text fill="#000000" font-family="Segoe UI" font-size="13" lengthAdjust="spacing" textLength="105.5298" x="38.7524" y="183.3438">POST /templates</text></g><g class="message" data-participant-1="GW" data-participant-2="Svc"><polygon fill="#059669" points="266.5864,213.3965,276.5864,217.3965,266.5864,221.3965,270.5864,217.3965" style="stroke:#059669;stroke-width:1;"/><line style="stroke:#059669;stroke-width:1;" x1="166.2822" x2="272.5864" y1="217.3965" y2="217.3965"/><text fill="#000000" font-family="Segoe UI" font-size="13" lengthAdjust="spacing" textLength="85.1348" x="173.2822" y="212.6543">route request</text></g><path d="M293,230.3965 L293,255.3965 L451,255.3965 L451,240.3965 L441,230.3965 L293,230.3965" fill="#FEFFDD" style="stroke:#181818;stroke-width:0.5;"/><path d="M441,230.3965 L441,240.3965 L451,240.3965 L441,230.3965" fill="#FEFFDD" style="stroke:#181818;stroke-width:0.5;"/><text fill="#000000" font-family="Segoe UI" font-size="13" lengthAdjust="spacing" textLength="137.5728" x="299" y="247.9648">Validate request body</text><rect fill="#EEEEEE" height="3" style="stroke:#EEEEEE;stroke-width:1;" width="456.5728" x="0" y="281.3623"/><line style="stroke:#000000;stroke-width:1;" x1="0" x2="456.5728" y1="281.3623" y2="281.3623"/><line style="stroke:#000000;stroke-width:1;" x1="0" x2="456.5728" y1="284.3623" y2="284.3623"/><rect fill="#EEEEEE" height="23.3105" style="stroke:#000000;stroke-width:2;" width="80.3711" x="188.1008" y="270.707"/><text fill="#000000" font-family="Segoe UI" font-size="13" font-weight="bold" lengthAdjust="spacing" textLength="62.0864" x="194.1008" y="287.2754">Database</text><g class="message" data-participant-1="Svc" data-participant-2="DB"><polygon fill="#059669" points="391.6582,321.3281,401.6582,325.3281,391.6582,329.3281,395.6582,325.3281" style="stroke:#059669;stroke-width:1;"/><line style="stroke:#059669;stroke-width:1;" x1="288.5864" x2="397.6582" y1="325.3281" y2="325.3281"/><text fill="#000000" font-family="Segoe UI" font-size="13" lengthAdjust="spacing" textLength="96.0718" x="295.5864" y="320.5859">INSERT INTO ...</text></g><g class="message" data-participant-1="DB" data-participant-2="Svc"><polygon fill="#059669" points="299.5864,350.6387,289.5864,354.6387,299.5864,358.6387,295.5864,354.6387" style="stroke:#059669;stroke-width:1;"/><line style="stroke:#059669;stroke-width:1;stroke-dasharray:2,2;" x1="293.5864" x2="407.6582" y1="354.6387" y2="354.6387"/><text fill="#000000" font-family="Segoe UI" font-size="13" lengthAdjust="spacing" textLength="76.4575" x="305.5864" y="349.8965">Created row</text></g><g class="message" data-participant-1="Svc" data-participant-2="GW"><polygon fill="#059669" points="177.2822,379.9492,167.2822,383.9492,177.2822,387.9492,173.2822,383.9492" style="stroke:#059669;stroke-width:1;"/><line style="stroke:#059669;stroke-width:1;stroke-dasharray:2,2;" x1="171.2822" x2="282.5864" y1="383.9492" y2="383.9492"/><text fill="#000000" font-family="Segoe UI" font-size="13" lengthAdjust="spacing" textLength="77.7969" x="183.2822" y="379.207">201 Created</text></g><g class="message" data-participant-1="GW" data-participant-2="Client"><polygon fill="#059669" points="42.7524,409.2598,32.7524,413.2598,42.7524,417.2598,38.7524,413.2598" style="stroke:#059669;stroke-width:1;"/><line style="stroke:#059669;stroke-width:1;stroke-dasharray:2,2;" x1="36.7524" x2="160.2822" y1="413.2598" y2="413.2598"/><text fill="#000000" font-family="Segoe UI" font-size="13" lengthAdjust="spacing" textLength="77.7969" x="48.7524" y="408.5176">201 Created</text></g><!--SRC=[TP9DR-8m48Rl_XKZEAuWV7I18h4IWGGXLHGLsXww74my1Al1Pcr3MgtslwyT4WXbDpbadFUP6SzhwtSkzbJH7Qnfz1uhUH1i91Efe1e6xYNwJEWjPJBb8eODJJIM58ORUaXCA8MPqHr2PO6nH7YULihf-Ek08aBuJS0-GwLachTgVB_lTEwpttEg38_udWhZIyLGvKWhw7M6_WtoTTD1BxmBUndsm3Vum0LUbHcssdwtbUc-_BYImcOlR3JFqeqTOMZrJ9v9SrqrwdRNxPBs3olRGPVy8SHmao3C7nTBy0pkzWarg7-AaK8R00KX3T_mY1ek1HG08VlBo50P9Ho5gG3LS0glvU5y2XERbTBFZ9cyGdNi1qDxbbUSFaQrSZkTqOjZ16zltev7IcfKHnwXzcvGRxKwUyseeMkgxQdF9_0Ddf3nKwcnRoSV1NV1Y12RZI2Fg5m3QvHjSQvEz_osGtrhTadLMnOUUL5cKR665uufS06BbCQnBViyNQq82kOSj8QTZ87Q3pT-_wlXX4Q67rqPPqv- -sneSJT_7-pXML6v6wlDXNPYWPz6KZpU6f2RFE-59fpHIogi9ViaP320SU7IO428WsqlQr0VfhD5yBIqd-KZrElrIxEIVJQidVTskYlCxZ4b34juNhUOkTLe5coPS_wxKIsMc_HVTF9A_W80]--></g></svg>