<svg xmlns="http://www.w3.org/2000/svg" xmlns:xlink="http://www.w3.org/1999/xlink" contentStyleType="text/css" data-diagram-type="SEQUENCE" height="474px" preserveAspectRatio="none" style="width:516px;height:474px;background:#FEFEFE;" version="1.1" viewBox="0 0 516 474" width="516px" zoomAndPan="magnify"><title>GET /vehicles</title><defs/><g><rect fill="#FEFEFE" height="474" style="stroke:none;stroke-width:1;" width="516" x="0" y="0"/><text fill="#000000" font-family="Segoe UI" font-size="14" font-weight="bold" lengthAdjust="spacing" textLength="99.415" x="204.6897" y="28.5352">GET /vehicles</text><text fill="#000000" font-family="Segoe UI" font-size="14" font-weight="bold" lengthAdjust="spacing" textLength="126.3281" x="191.2332" y="45.0234">List fleet vehicles</text><g><title>API Gateway</title><rect fill="#2563EB" height="189.8633" style="stroke:#A23B72;stroke-width:1;" width="10" x="136.4268" y="188.0859"/></g><g><title>svc-transport-logistics</title><rect fill="#2563EB" height="131.2422" style="stroke:#A23B72;stroke-width:1;" width="10" x="280.1172" y="217.3965"/></g><g><title>PostgreSQL</title><rect fill="#FCE4EC" height="29.3105" style="stroke:#A23B72;stroke-width:1;" width="10" x="458.3696" y="290.0176"/></g><g><title>Client</title><rect fill="#000000" fill-opacity="0.00000" height="274.4844" width="8" x="27.7524" y="121.4648"/><line style="stroke:#A23B72;stroke-width:0.5;stroke-dasharray:5,5;" x1="31" x2="31" y1="121.4648" y2="395.9492"/></g><g><title>API Gateway</title><rect fill="#000000" fill-opacity="0.00000" height="274.4844" width="8" x="137.4268" y="121.4648"/><line style="stroke:#A23B72;stroke-width:0.5;stroke-dasharray:5,5;" x1="141.1377" x2="141.1377" y1="121.4648" y2="395.9492"/></g><g><title>svc-transport-logistics</title><rect fill="#000000" fill-opacity="0.00000" height="274.4844" width="8" x="281.1172" y="121.4648"/><line style="stroke:#A23B72;stroke-width:0.5;stroke-dasharray:5,5;" x1="284.7158" x2="284.7158" y1="121.4648" y2="395.9492"/></g><g><title>PostgreSQL</title><rect fill="#000000" fill-opacity="0.00000" height="274.4844" width="8" x="459.3696" y="121.4648"/><line style="stroke:#A23B72;stroke-width:0.5;stroke-dasharray:5,5;" x1="462.9448" x2="462.9448" y1="121.4648" y2="395.9492"/></g><g class="participant participant-head" data-participant="Client"><rect fill="#E8F4F8" height="30.4883" rx="2.5" ry="2.5" style="stroke:#2E86AB;stroke-width:0.5;" width="53.5049" x="5" y="89.9766"/><text fill="#000000" font-family="Segoe UI" font-size="14" lengthAdjust="spacing" textLength="39.5049" x="12" y="110.5117">Client</text></g><g class="participant participant-tail" data-participant="Client"><rect fill="#E8F4F8" height="30.4883" rx="2.5" ry="2.5" style="stroke:#2E86AB;stroke-width:0.5;" width="53.5049" x="5" y="394.9492"/><text fill="#000000" font-family="Segoe UI" font-size="14" lengthAdjust="spacing" textLength="39.5049" x="12" y="415.4844">Client</text></g><g class="participant participant-head" data-participant="GW"><rect fill="#DBEAFE" height="30.4883" rx="2.5" ry="2.5" style="stroke:#2E86AB;stroke-width:0.5;" width="96.5781" x="93.1377" y="89.9766"/><text fill="#000000" font-family="Segoe UI" font-size="14" lengthAdjust="spacing" textLength="82.5781" x="100.1377" y="110.5117">API Gateway</text></g><g class="participant participant-tail" data-participant="GW"><rect fill="#DBEAFE" height="30.4883" rx="2.5" ry="2.5" style="stroke:#2E86AB;stroke-width:0.5;" width="96.5781" x="93.1377" y="394.9492"/><text fill="#000000" font-family="Segoe UI" font-size="14" lengthAdjust="spacing" textLength="82.5781" x="100.1377" y="415.4844">API Gateway</text></g><g class="participant participant-head" data-participant="Svc"><a href="/microservices/svc-transport-logistics/" target="_top" title="/microservices/svc-transport-logistics/" xlink:actuate="onRequest" xlink:href="/microservices/svc-transport-logistics/" xlink:show="new" xlink:title="/microservices/svc-transport-logistics/" xlink:type="simple"><rect fill="#E8F4F8" height="30.4883" rx="2.5" ry="2.5" style="stroke:#2E86AB;stroke-width:0.5;" width="170.8027" x="199.7158" y="89.9766"/><text fill="#000000" font-family="Segoe UI" font-size="14" lengthAdjust="spacing" textLength="156.8027" x="206.7158" y="110.5117">svc-transport-logistics</text></a></g><g class="participant participant-tail" data-participant="Svc"><a href="/microservices/svc-transport-logistics/" target="_top" title="/microservices/svc-transport-logistics/" xlink:actuate="onRequest" xlink:href="/microservices/svc-transport-logistics/" xlink:show="new" xlink:title="/microservices/svc-transport-logistics/" xlink:type="simple"><rect fill="#E8F4F8" height="30.4883" rx="2.5" ry="2.5" style="stroke:#2E86AB;stroke-width:0.5;" width="170.8027" x="199.7158" y="394.9492"/><text fill="#000000" font-family="Segoe UI" font-size="14" lengthAdjust="spacing" textLength="156.8027" x="206.7158" y="415.4844">svc-transport-logistics</text></a></g><g class="participant participant-head" data-participant="DB"><text fill="#000000" font-family="Segoe UI" font-size="14" lengthAdjust="spacing" textLength="76.8496" x="421.9448" y="118.5117">PostgreSQL</text><path d="M445.3696,68.9766 C445.3696,58.9766 463.3696,58.9766 463.3696,58.9766 C463.3696,58.9766 481.3696,58.9766 481.3696,68.9766 L481.3696,94.9766 C481.3696,104.9766 463.3696,104.9766 463.3696,104.9766 C463.3696,104.9766 445.3696,104.9766 445.3696,94.9766 L445.3696,68.9766" fill="#FCE4EC" style="stroke:#181818;stroke-width:0.5;"/><path d="M445.3696,68.9766 C445.3696,78.9766 463.3696,78.9766 463.3696,78.9766 C463.3696,78.9766 481.3696,78.9766 481.3696,68.9766" fill="none" style="stroke:#181818;stroke-width:0.5;"/></g><g class="participant participant-tail" data-participant="DB"><text fill="#000000" font-family="Segoe UI" font-size="14" lengthAdjust="spacing" textLength="76.8496" x="421.9448" y="408.4844">PostgreSQL</text><path d="M445.3696,421.4375 C445.3696,411.4375 463.3696,411.4375 463.3696,411.4375 C463.3696,411.4375 481.3696,411.4375 481.3696,421.4375 L481.3696,447.4375 C481.3696,457.4375 463.3696,457.4375 463.3696,457.4375 C463.3696,457.4375 445.3696,457.4375 445.3696,447.4375 L445.3696,421.4375" fill="#FCE4EC" style="stroke:#181818;stroke-width:0.5;"/><path d="M445.3696,421.4375 C445.3696,431.4375 463.3696,431.4375 463.3696,431.4375 C463.3696,431.4375 481.3696,431.4375 481.3696,421.4375" fill="none" style="stroke:#181818;stroke-width:0.5;"/></g><g><title>API Gateway</title><rect fill="#2563EB" height="189.8633" style="stroke:#A23B72;stroke-width:1;" width="10" x="136.4268" y="188.0859"/></g><g><title>svc-transport-logistics</title><rect fill="#2563EB" height="131.2422" style="stroke:#A23B72;stroke-width:1;" width="10" x="280.1172" y="217.3965"/></g><g><title>PostgreSQL</title><rect fill="#FCE4EC" height="29.3105" style="stroke:#A23B72;stroke-width:1;" width="10" x="458.3696" y="290.0176"/></g><path d="M214,136.4648 L214,161.4648 L354,161.4648 L354,146.4648 L344,136.4648 L214,136.4648" fill="#FEFFDD" style="stroke:#181818;stroke-width:0.5;"/><path d="M344,136.4648 L344,146.4648 L354,146.4648 L344,136.4648" fill="#FEFFDD" style="stroke:#181818;stroke-width:0.5;"/><a href="/services/api/svc-transport-logistics.html" target="_top" title="/services/api/svc-transport-logistics.html" xlink:actuate="onRequest" xlink:href="/services/api/svc-transport-logistics.html" xlink:show="new" xlink:title="/services/api/svc-transport-logistics.html" xlink:type="simple"><text fill="#0000FF" font-family="Segoe UI" font-size="13" lengthAdjust="spacing" text-decoration="underline" textLength="119.4058" x="220" y="154.0332">View in Swagger UI</text></a><g class="message" data-participant-1="Client" data-participant-2="GW"><polygon fill="#2563EB" points="124.4268,184.0859,134.4268,188.0859,124.4268,192.0859,128.4268,188.0859" style="stroke:#2563EB;stroke-width:1;"/><line style="stroke:#2563EB;stroke-width:1;" x1="31.7524" x2="130.4268" y1="188.0859" y2="188.0859"/><text fill="#000000" font-family="Segoe UI" font-size="13" lengthAdjust="spacing" textLength="85.6743" x="38.7524" y="183.3438">GET /vehicles</text></g><g class="message" data-participant-1="GW" data-participant-2="Svc"><polygon fill="#2563EB" points="268.1172,213.3965,278.1172,217.3965,268.1172,221.3965,272.1172,217.3965" style="stroke:#2563EB;stroke-width:1;"/><line style="stroke:#2563EB;stroke-width:1;" x1="146.4268" x2="274.1172" y1="217.3965" y2="217.3965"/><a href="/microservices/svc-transport-logistics/#get-vehicles-list-fleet-vehicles" target="_top" title="/microservices/svc-transport-logistics/#get-vehicles-list-fleet-vehicles" xlink:actuate="onRequest" xlink:href="/microservices/svc-transport-logistics/#get-vehicles-list-fleet-vehicles" xlink:show="new" xlink:title="/microservices/svc-transport-logistics/#get-vehicles-list-fleet-vehicles" xlink:type="simple"><text fill="#0000FF" font-family="Segoe UI" font-size="13" lengthAdjust="spacing" text-decoration="underline" textLength="85.1348" x="153.4268" y="212.6543">route request</text></a></g><rect fill="#EEEEEE" height="3" style="stroke:#EEEEEE;stroke-width:1;" width="509.7944" x="0" y="246.0518"/><line style="stroke:#000000;stroke-width:1;" x1="0" x2="509.7944" y1="246.0518" y2="246.0518"/><line style="stroke:#000000;stroke-width:1;" x1="0" x2="509.7944" y1="249.0518" y2="249.0518"/><rect fill="#EEEEEE" height="23.3105" style="stroke:#000000;stroke-width:2;" width="80.3711" x="214.7117" y="235.3965"/><text fill="#000000" font-family="Segoe UI" font-size="13" font-weight="bold" lengthAdjust="spacing" textLength="62.0864" x="220.7117" y="251.9648">Database</text><g class="message" data-participant-1="Svc" data-participant-2="DB"><polygon fill="#2563EB" points="446.3696,286.0176,456.3696,290.0176,446.3696,294.0176,450.3696,290.0176" style="stroke:#2563EB;stroke-width:1;"/><line style="stroke:#2563EB;stroke-width:1;" x1="290.1172" x2="452.3696" y1="290.0176" y2="290.0176"/><text fill="#000000" font-family="Segoe UI" font-size="13" lengthAdjust="spacing" textLength="149.2524" x="297.1172" y="285.2754">SELECT ... WHERE filters</text></g><g class="message" data-participant-1="DB" data-participant-2="Svc"><polygon fill="#2563EB" points="301.1172,315.3281,291.1172,319.3281,301.1172,323.3281,297.1172,319.3281" style="stroke:#2563EB;stroke-width:1;"/><line style="stroke:#2563EB;stroke-width:1;stroke-dasharray:2,2;" x1="295.1172" x2="462.3696" y1="319.3281" y2="319.3281"/><text fill="#000000" font-family="Segoe UI" font-size="13" lengthAdjust="spacing" textLength="93.209" x="307.1172" y="314.5859">Page of results</text></g><g class="message" data-participant-1="Svc" data-participant-2="GW"><polygon fill="#2563EB" points="157.4268,344.6387,147.4268,348.6387,157.4268,352.6387,153.4268,348.6387" style="stroke:#2563EB;stroke-width:1;"/><line style="stroke:#2563EB;stroke-width:1;stroke-dasharray:2,2;" x1="151.4268" x2="284.1172" y1="348.6387" y2="348.6387"/><text fill="#000000" font-family="Segoe UI" font-size="13" lengthAdjust="spacing" textLength="47.3599" x="163.4268" y="343.8965">200 OK</text></g><g class="message" data-participant-1="GW" data-participant-2="Client"><polygon fill="#2563EB" points="42.7524,373.9492,32.7524,377.9492,42.7524,381.9492,38.7524,377.9492" style="stroke:#2563EB;stroke-width:1;"/><line style="stroke:#2563EB;stroke-width:1;stroke-dasharray:2,2;" x1="36.7524" x2="140.4268" y1="377.9492" y2="377.9492"/><text fill="#000000" font-family="Segoe UI" font-size="13" lengthAdjust="spacing" textLength="47.3599" x="48.7524" y="373.207">200 OK</text></g><!--SRC=[ZPDHRzem58NV_Ikku3b0eIke4fC8E0mDTMoquw7ZmIGtmMgmcMt2fcd_VJSfoPArbPQyM3x7z_X-Dx5FKXs54GVOYV0fCVgaegbEjO5smFENsSfXzoBIPwaIY4LgiQP468jJwWAjt9qu8BJMc6Y4XqMhVXo_dr252ByOq3CnHfylKVrtDmFS5TihOPmCvL4evsiJeIajV7GpyLzO_hqq7mNNmQYmBMMCIwcmKMRI7_Z3Vg7x-aT32gv6GU-gabxW20BI2_bEksRLS3ZS3MhQAoW7VCX-C-QaIn7c_1ww6UvbcABzffRIEeXJH0Vb9cF7lrr2QvfALAu5miBpiYbFLWkO2uTdyRFmp3VGdlbyGkDh-6mMUiu8PO_QE2_L2GNBq1Pdrba8Zu_TWmoDjcWo6QBjld6WkzrMg2FXn4vO6lfAMvSON7zU5WLdFZK-vTTyofWYAg0pD7aCSQAWAaCSvLivdRqxfF1LuXcaWlLP90cLU5XijmnL17bLnfw1WFS-R_ksoPQ9qCcCo1H8BfyPBScSztlx_nst4tHUMTPBQTSh9bRj0GsSSap-bLj7DwoYywGocut7C2k9ZSUCvIBTXc3Tmfel-VGUEfqER3xmBnnYcJeqjIvgJ6dfLMsiH49yOqgtz1zQ5c7jo2Ma1DJlzU3JnxebdqaEXHmNcA-vvXls1m00]--></g></svg>