<svg xmlns="http://www.w3.org/2000/svg" xmlns:xlink="http://www.w3.org/1999/xlink" contentStyleType="text/css" data-diagram-type="SEQUENCE" height="487px" preserveAspectRatio="none" style="width:631px;height:487px;background:#FEFEFE;" version="1.1" viewBox="0 0 631 487" width="631px" zoomAndPan="magnify"><title>GET /schedule-optimization</title><defs/><g><rect fill="#FEFEFE" height="487" style="stroke:none;stroke-width:1;" width="631" x="0" y="0"/><text fill="#000000" font-family="Segoe UI" font-size="14" font-weight="bold" lengthAdjust="spacing" textLength="205.4063" x="209.1721" y="41.3125">GET /schedule-optimization</text><text fill="#000000" font-family="Segoe UI" font-size="14" font-weight="bold" lengthAdjust="spacing" textLength="289.7891" x="166.9807" y="57.8008">Run synchronous schedule optimization</text><g><title>API Gateway</title><rect fill="#2563EB" height="189.8633" style="stroke:#A23B72;stroke-width:1;" width="10" x="229.6992" y="200.8633"/></g><g><title>svc-scheduling-orchestrator</title><rect fill="#2563EB" height="131.2422" style="stroke:#A23B72;stroke-width:1;" width="10" x="392.4619" y="230.1738"/></g><g><title>PG . Valkey</title><rect fill="#FCE4EC" height="29.3105" style="stroke:#A23B72;stroke-width:1;" width="10" x="570.7144" y="302.7949"/></g><g><title>Client</title><rect fill="#000000" fill-opacity="0.00000" height="274.4844" width="8" x="27.7524" y="134.2422"/><line style="stroke:#A23B72;stroke-width:0.5;stroke-dasharray:5,5;" x1="31" x2="31" y1="134.2422" y2="408.7266"/></g><g><title>API Gateway</title><rect fill="#000000" fill-opacity="0.00000" height="274.4844" width="8" x="230.6992" y="134.2422"/><line style="stroke:#A23B72;stroke-width:0.5;stroke-dasharray:5,5;" x1="234.4102" x2="234.4102" y1="134.2422" y2="408.7266"/></g><g><title>svc-scheduling-orchestrator</title><rect fill="#000000" fill-opacity="0.00000" height="274.4844" width="8" x="393.4619" y="134.2422"/><line style="stroke:#A23B72;stroke-width:0.5;stroke-dasharray:5,5;" x1="396.9883" x2="396.9883" y1="134.2422" y2="408.7266"/></g><g><title>PG . Valkey</title><rect fill="#000000" fill-opacity="0.00000" height="274.4844" width="8" x="571.7144" y="134.2422"/><line style="stroke:#A23B72;stroke-width:0.5;stroke-dasharray:5,5;" x1="575.6782" x2="575.6782" y1="134.2422" y2="408.7266"/></g><g class="participant participant-head" data-participant="Client"><rect fill="#E8F4F8" height="30.4883" rx="2.5" ry="2.5" style="stroke:#2E86AB;stroke-width:0.5;" width="53.5049" x="5" y="102.7539"/><text fill="#000000" font-family="Segoe UI" font-size="14" lengthAdjust="spacing" textLength="39.5049" x="12" y="123.2891">Client</text></g><g class="participant participant-tail" data-participant="Client"><rect fill="#E8F4F8" height="30.4883" rx="2.5" ry="2.5" style="stroke:#2E86AB;stroke-width:0.5;" width="53.5049" x="5" y="407.7266"/><text fill="#000000" font-family="Segoe UI" font-size="14" lengthAdjust="spacing" textLength="39.5049" x="12" y="428.2617">Client</text></g><g class="participant participant-head" data-participant="GW"><rect fill="#DBEAFE" height="30.4883" rx="2.5" ry="2.5" style="stroke:#2E86AB;stroke-width:0.5;" width="96.5781" x="186.4102" y="102.7539"/><text fill="#000000" font-family="Segoe UI" font-size="14" lengthAdjust="spacing" textLength="82.5781" x="193.4102" y="123.2891">API Gateway</text></g><g class="participant participant-tail" data-participant="GW"><rect fill="#DBEAFE" height="30.4883" rx="2.5" ry="2.5" style="stroke:#2E86AB;stroke-width:0.5;" width="96.5781" x="186.4102" y="407.7266"/><text fill="#000000" font-family="Segoe UI" font-size="14" lengthAdjust="spacing" textLength="82.5781" x="193.4102" y="428.2617">API Gateway</text></g><g class="participant participant-head" data-participant="Svc"><a href="/microservices/svc-scheduling-orchestrator/" target="_top" title="/microservices/svc-scheduling-orchestrator/" xlink:actuate="onRequest" xlink:href="/microservices/svc-scheduling-orchestrator/" xlink:show="new" xlink:title="/microservices/svc-scheduling-orchestrator/" xlink:type="simple"><rect fill="#E8F4F8" height="30.4883" rx="2.5" ry="2.5" style="stroke:#2E86AB;stroke-width:0.5;" width="208.9473" x="292.9883" y="102.7539"/><text fill="#000000" font-family="Segoe UI" font-size="14" lengthAdjust="spacing" textLength="194.9473" x="299.9883" y="123.2891">svc-scheduling-orchestrator</text></a></g><g class="participant participant-tail" data-participant="Svc"><a href="/microservices/svc-scheduling-orchestrator/" target="_top" title="/microservices/svc-scheduling-orchestrator/" xlink:actuate="onRequest" xlink:href="/microservices/svc-scheduling-orchestrator/" xlink:show="new" xlink:title="/microservices/svc-scheduling-orchestrator/" xlink:type="simple"><rect fill="#E8F4F8" height="30.4883" rx="2.5" ry="2.5" style="stroke:#2E86AB;stroke-width:0.5;" width="208.9473" x="292.9883" y="407.7266"/><text fill="#000000" font-family="Segoe UI" font-size="14" lengthAdjust="spacing" textLength="194.9473" x="299.9883" y="428.2617">svc-scheduling-orchestrator</text></a></g><g class="participant participant-head" data-participant="DB"><text fill="#000000" font-family="Segoe UI" font-size="14" lengthAdjust="spacing" textLength="82.0723" x="531.6782" y="131.2891">PG + Valkey</text><path d="M557.7144,81.7539 C557.7144,71.7539 575.7144,71.7539 575.7144,71.7539 C575.7144,71.7539 593.7144,71.7539 593.7144,81.7539 L593.7144,107.7539 C593.7144,117.7539 575.7144,117.7539 575.7144,117.7539 C575.7144,117.7539 557.7144,117.7539 557.7144,107.7539 L557.7144,81.7539" fill="#FCE4EC" style="stroke:#181818;stroke-width:0.5;"/><path d="M557.7144,81.7539 C557.7144,91.7539 575.7144,91.7539 575.7144,91.7539 C575.7144,91.7539 593.7144,91.7539 593.7144,81.7539" fill="none" style="stroke:#181818;stroke-width:0.5;"/></g><g class="participant participant-tail" data-participant="DB"><text fill="#000000" font-family="Segoe UI" font-size="14" lengthAdjust="spacing" textLength="82.0723" x="531.6782" y="421.2617">PG + Valkey</text><path d="M557.7144,434.2148 C557.7144,424.2148 575.7144,424.2148 575.7144,424.2148 C575.7144,424.2148 593.7144,424.2148 593.7144,434.2148 L593.7144,460.2148 C593.7144,470.2148 575.7144,470.2148 575.7144,470.2148 C575.7144,470.2148 557.7144,470.2148 557.7144,460.2148 L557.7144,434.2148" fill="#FCE4EC" style="stroke:#181818;stroke-width:0.5;"/><path d="M557.7144,434.2148 C557.7144,444.2148 575.7144,444.2148 575.7144,444.2148 C575.7144,444.2148 593.7144,444.2148 593.7144,434.2148" fill="none" style="stroke:#181818;stroke-width:0.5;"/></g><g><title>API Gateway</title><rect fill="#2563EB" height="189.8633" style="stroke:#A23B72;stroke-width:1;" width="10" x="229.6992" y="200.8633"/></g><g><title>svc-scheduling-orchestrator</title><rect fill="#2563EB" height="131.2422" style="stroke:#A23B72;stroke-width:1;" width="10" x="392.4619" y="230.1738"/></g><g><title>PG . Valkey</title><rect fill="#FCE4EC" height="29.3105" style="stroke:#A23B72;stroke-width:1;" width="10" x="570.7144" y="302.7949"/></g><path d="M327,149.2422 L327,174.2422 L467,174.2422 L467,159.2422 L457,149.2422 L327,149.2422" fill="#FEFFDD" style="stroke:#181818;stroke-width:0.5;"/><path d="M457,149.2422 L457,159.2422 L467,159.2422 L457,149.2422" fill="#FEFFDD" style="stroke:#181818;stroke-width:0.5;"/><a href="/services/api/svc-scheduling-orchestrator.html" target="_top" title="/services/api/svc-scheduling-orchestrator.html" xlink:actuate="onRequest" xlink:href="/services/api/svc-scheduling-orchestrator.html" xlink:show="new" xlink:title="/services/api/svc-scheduling-orchestrator.html" xlink:type="simple"><text fill="#0000FF" font-family="Segoe UI" font-size="13" lengthAdjust="spacing" text-decoration="underline" textLength="119.4058" x="333" y="166.8105">View in Swagger UI</text></a><g class="message" data-participant-1="Client" data-participant-2="GW"><polygon fill="#2563EB" points="217.6992,196.8633,227.6992,200.8633,217.6992,204.8633,221.6992,200.8633" style="stroke:#2563EB;stroke-width:1;"/><line style="stroke:#2563EB;stroke-width:1;" x1="31.7524" x2="223.6992" y1="200.8633" y2="200.8633"/><text fill="#000000" font-family="Segoe UI" font-size="13" lengthAdjust="spacing" textLength="178.9468" x="38.7524" y="196.1211">GET /schedule-optimization</text></g><g class="message" data-participant-1="GW" data-participant-2="Svc"><polygon fill="#2563EB" points="380.4619,226.1738,390.4619,230.1738,380.4619,234.1738,384.4619,230.1738" style="stroke:#2563EB;stroke-width:1;"/><line style="stroke:#2563EB;stroke-width:1;" x1="239.6992" x2="386.4619" y1="230.1738" y2="230.1738"/><text fill="#000000" font-family="Segoe UI" font-size="13" lengthAdjust="spacing" textLength="85.1348" x="246.6992" y="225.4316">route request</text></g><rect fill="#EEEEEE" height="3" style="stroke:#EEEEEE;stroke-width:1;" width="624.7505" x="0" y="258.8291"/><line style="stroke:#000000;stroke-width:1;" x1="0" x2="624.7505" y1="258.8291" y2="258.8291"/><line style="stroke:#000000;stroke-width:1;" x1="0" x2="624.7505" y1="261.8291" y2="261.8291"/><rect fill="#EEEEEE" height="23.3105" style="stroke:#000000;stroke-width:2;" width="80.3711" x="272.1897" y="248.1738"/><text fill="#000000" font-family="Segoe UI" font-size="13" font-weight="bold" lengthAdjust="spacing" textLength="62.0864" x="278.1897" y="264.7422">Database</text><g class="message" data-participant-1="Svc" data-participant-2="DB"><polygon fill="#2563EB" points="558.7144,298.7949,568.7144,302.7949,558.7144,306.7949,562.7144,302.7949" style="stroke:#2563EB;stroke-width:1;"/><line style="stroke:#2563EB;stroke-width:1;" x1="402.4619" x2="564.7144" y1="302.7949" y2="302.7949"/><text fill="#000000" font-family="Segoe UI" font-size="13" lengthAdjust="spacing" textLength="149.2524" x="409.4619" y="298.0527">SELECT ... WHERE filters</text></g><g class="message" data-participant-1="DB" data-participant-2="Svc"><polygon fill="#2563EB" points="413.4619,328.1055,403.4619,332.1055,413.4619,336.1055,409.4619,332.1055" style="stroke:#2563EB;stroke-width:1;"/><line style="stroke:#2563EB;stroke-width:1;stroke-dasharray:2,2;" x1="407.4619" x2="574.7144" y1="332.1055" y2="332.1055"/><text fill="#000000" font-family="Segoe UI" font-size="13" lengthAdjust="spacing" textLength="93.209" x="419.4619" y="327.3633">Page of results</text></g><g class="message" data-participant-1="Svc" data-participant-2="GW"><polygon fill="#2563EB" points="250.6992,357.416,240.6992,361.416,250.6992,365.416,246.6992,361.416" style="stroke:#2563EB;stroke-width:1;"/><line style="stroke:#2563EB;stroke-width:1;stroke-dasharray:2,2;" x1="244.6992" x2="396.4619" y1="361.416" y2="361.416"/><text fill="#000000" font-family="Segoe UI" font-size="13" lengthAdjust="spacing" textLength="47.3599" x="256.6992" y="356.6738">200 OK</text></g><g class="message" data-participant-1="GW" data-participant-2="Client"><polygon fill="#2563EB" points="42.7524,386.7266,32.7524,390.7266,42.7524,394.7266,38.7524,390.7266" style="stroke:#2563EB;stroke-width:1;"/><line style="stroke:#2563EB;stroke-width:1;stroke-dasharray:2,2;" x1="36.7524" x2="233.6992" y1="390.7266" y2="390.7266"/><text fill="#000000" font-family="Segoe UI" font-size="13" lengthAdjust="spacing" textLength="47.3599" x="48.7524" y="385.9844">200 OK</text></g><a href="/microservices/svc-scheduling-orchestrator/#integration-context" target="_top" title="/microservices/svc-scheduling-orchestrator/#integration-context" xlink:actuate="onRequest" xlink:href="/microservices/svc-scheduling-orchestrator/#integration-context" xlink:show="new" xlink:title="/microservices/svc-scheduling-orchestrator/#integration-context" xlink:type="simple"><text fill="#0000FF" font-family="Segoe UI" font-size="10" lengthAdjust="spacing" text-decoration="underline" textLength="250.4199" x="373.3306" y="14.668">&#11014; svc-scheduling-orchestrator Integration Context</text></a><!--SRC=[bLDDRzf04BtlhnZ1iJ8GI0D2eX8sDaL52Gf9EAGS5dimAymktLr3qghN_fh-glwIZisNQIAasfUHttlpF6zspLB8DTTy1JCUBcEjKXbvAb4Qoe6VlSmS6MR18xKLCeOvJmmMa0ZdF4rieAIzvIk4qXXZXV0uA1Nb-2r56IByO41FLskrtLlLFzuqS9P_7d5jHIZMN5fNwGZrWUAtRhhk6yg_F-stWkkWbTE6Oev38V6iJRVUS9lr77VLonaKNBM2sjKHUXD7412UmxVAddSDcyrPeu2z4sN3RxAVZ2sGamoUdwih4MfbK6z4YAPgDg5ZmWL6QK81EqfJRQpcLkbgMKYBCTL2IIUaZF75mf_Vl-2220Od3NWxpNJAc1KsGUZx3r3TAz5HQojMudlE_IhlKmdcLOOBhQHA3HneKAGnjZuj0KfU8b3Q4d03k_8Sxeu6qESMj_mrv_GdKEwvVfTErndlmZovRhm9_o-vwVHu8Y9k-OmREfkZFdo09vuiSVStFPSMvFdNliUOfEs1sj26o8lsIMv78xuMbymg2xjAu4dW5eI4yPR7CRLv753gA2F8EZEsImUSJra6xGjxO3oqOaEPvM7jxmULfCnIQ0CTBm9rTgUCFR4py41ddGxq3cDtEenb83MWWTimzeU-zm2LIWKcd_rx7-OYiQZDgLKX5ogTe_E8nvJHdBmDtNd38Yn8zYQ70Ukr6jnzALAoNBCvYB4FuprMVyB-0W00]--></g></svg>