<svg xmlns="http://www.w3.org/2000/svg" xmlns:xlink="http://www.w3.org/1999/xlink" contentStyleType="text/css" data-diagram-type="SEQUENCE" height="568px" preserveAspectRatio="none" style="width:841px;height:568px;background:#FEFEFE;" version="1.1" viewBox="0 0 841 568" width="841px" zoomAndPan="magnify"><title>DELETE /reservations/{reservation_id}</title><defs/><g><rect fill="#FEFEFE" height="568" style="stroke:none;stroke-width:1;" width="841" x="0" y="0"/><text fill="#000000" font-family="Segoe UI" font-size="14" font-weight="bold" lengthAdjust="spacing" textLength="277.5938" x="277.7317" y="28.5352">DELETE /reservations/{reservation_id}</text><text fill="#000000" font-family="Segoe UI" font-size="14" font-weight="bold" lengthAdjust="spacing" textLength="147.0137" x="343.0217" y="45.0234">Cancel a reservation</text><g><title>API Gateway</title><rect fill="#DC2626" height="283.7949" style="stroke:#A23B72;stroke-width:1;" width="10" x="288.7134" y="188.0859"/></g><g><title>svc-reservations</title><rect fill="#DC2626" height="225.1738" style="stroke:#A23B72;stroke-width:1;" width="10" x="423.2729" y="217.3965"/></g><g><title>PostgreSQL</title><rect fill="#FCE4EC" height="29.3105" style="stroke:#A23B72;stroke-width:1;" width="10" x="642.5503" y="290.0176"/></g><g><title>PostgreSQL</title><rect fill="#FCE4EC" height="29.3105" style="stroke:#A23B72;stroke-width:1;" width="10" x="642.5503" y="383.9492"/></g><g><title>Client</title><rect fill="#000000" fill-opacity="0.00000" height="368.416" width="8" x="27.7524" y="121.4648"/><line style="stroke:#A23B72;stroke-width:0.5;stroke-dasharray:5,5;" x1="31" x2="31" y1="121.4648" y2="489.8809"/></g><g><title>API Gateway</title><rect fill="#000000" fill-opacity="0.00000" height="368.416" width="8" x="289.7134" y="121.4648"/><line style="stroke:#A23B72;stroke-width:0.5;stroke-dasharray:5,5;" x1="293.4243" x2="293.4243" y1="121.4648" y2="489.8809"/></g><g><title>svc-reservations</title><rect fill="#000000" fill-opacity="0.00000" height="368.416" width="8" x="424.2729" y="121.4648"/><line style="stroke:#A23B72;stroke-width:0.5;stroke-dasharray:5,5;" x1="428.0063" x2="428.0063" y1="121.4648" y2="489.8809"/></g><g><title>PostgreSQL</title><rect fill="#000000" fill-opacity="0.00000" height="368.416" width="8" x="643.5503" y="121.4648"/><line style="stroke:#A23B72;stroke-width:0.5;stroke-dasharray:5,5;" x1="647.1255" x2="647.1255" y1="121.4648" y2="489.8809"/></g><g class="participant participant-head" data-participant="Client"><rect fill="#E8F4F8" height="30.4883" rx="2.5" ry="2.5" style="stroke:#2E86AB;stroke-width:0.5;" width="53.5049" x="5" y="89.9766"/><text fill="#000000" font-family="Segoe UI" font-size="14" lengthAdjust="spacing" textLength="39.5049" x="12" y="110.5117">Client</text></g><g class="participant participant-tail" data-participant="Client"><rect fill="#E8F4F8" height="30.4883" rx="2.5" ry="2.5" style="stroke:#2E86AB;stroke-width:0.5;" width="53.5049" x="5" y="488.8809"/><text fill="#000000" font-family="Segoe UI" font-size="14" lengthAdjust="spacing" textLength="39.5049" x="12" y="509.416">Client</text></g><g class="participant participant-head" data-participant="GW"><rect fill="#DBEAFE" height="30.4883" rx="2.5" ry="2.5" style="stroke:#2E86AB;stroke-width:0.5;" width="96.5781" x="245.4243" y="89.9766"/><text fill="#000000" font-family="Segoe UI" font-size="14" lengthAdjust="spacing" textLength="82.5781" x="252.4243" y="110.5117">API Gateway</text></g><g class="participant participant-tail" data-participant="GW"><rect fill="#DBEAFE" height="30.4883" rx="2.5" ry="2.5" style="stroke:#2E86AB;stroke-width:0.5;" width="96.5781" x="245.4243" y="488.8809"/><text fill="#000000" font-family="Segoe UI" font-size="14" lengthAdjust="spacing" textLength="82.5781" x="252.4243" y="509.416">API Gateway</text></g><g class="participant participant-head" data-participant="Svc"><a href="/microservices/svc-reservations/" target="_top" title="/microservices/svc-reservations/" xlink:actuate="onRequest" xlink:href="/microservices/svc-reservations/" xlink:show="new" xlink:title="/microservices/svc-reservations/" xlink:type="simple"><rect fill="#E8F4F8" height="30.4883" rx="2.5" ry="2.5" style="stroke:#2E86AB;stroke-width:0.5;" width="126.5332" x="365.0063" y="89.9766"/><text fill="#000000" font-family="Segoe UI" font-size="14" lengthAdjust="spacing" textLength="112.5332" x="372.0063" y="110.5117">svc-reservations</text></a></g><g class="participant participant-tail" data-participant="Svc"><a href="/microservices/svc-reservations/" target="_top" title="/microservices/svc-reservations/" xlink:actuate="onRequest" xlink:href="/microservices/svc-reservations/" xlink:show="new" xlink:title="/microservices/svc-reservations/" xlink:type="simple"><rect fill="#E8F4F8" height="30.4883" rx="2.5" ry="2.5" style="stroke:#2E86AB;stroke-width:0.5;" width="126.5332" x="365.0063" y="488.8809"/><text fill="#000000" font-family="Segoe UI" font-size="14" lengthAdjust="spacing" textLength="112.5332" x="372.0063" y="509.416">svc-reservations</text></a></g><g class="participant participant-head" data-participant="DB"><text fill="#000000" font-family="Segoe UI" font-size="14" lengthAdjust="spacing" textLength="76.8496" x="606.1255" y="118.5117">PostgreSQL</text><path d="M629.5503,68.9766 C629.5503,58.9766 647.5503,58.9766 647.5503,58.9766 C647.5503,58.9766 665.5503,58.9766 665.5503,68.9766 L665.5503,94.9766 C665.5503,104.9766 647.5503,104.9766 647.5503,104.9766 C647.5503,104.9766 629.5503,104.9766 629.5503,94.9766 L629.5503,68.9766" fill="#FCE4EC" style="stroke:#181818;stroke-width:0.5;"/><path d="M629.5503,68.9766 C629.5503,78.9766 647.5503,78.9766 647.5503,78.9766 C647.5503,78.9766 665.5503,78.9766 665.5503,68.9766" fill="none" style="stroke:#181818;stroke-width:0.5;"/></g><g class="participant participant-tail" data-participant="DB"><text fill="#000000" font-family="Segoe UI" font-size="14" lengthAdjust="spacing" textLength="76.8496" x="606.1255" y="502.416">PostgreSQL</text><path d="M629.5503,515.3691 C629.5503,505.3691 647.5503,505.3691 647.5503,505.3691 C647.5503,505.3691 665.5503,505.3691 665.5503,515.3691 L665.5503,541.3691 C665.5503,551.3691 647.5503,551.3691 647.5503,551.3691 C647.5503,551.3691 629.5503,551.3691 629.5503,541.3691 L629.5503,515.3691" fill="#FCE4EC" style="stroke:#181818;stroke-width:0.5;"/><path d="M629.5503,515.3691 C629.5503,525.3691 647.5503,525.3691 647.5503,525.3691 C647.5503,525.3691 665.5503,525.3691 665.5503,515.3691" fill="none" style="stroke:#181818;stroke-width:0.5;"/></g><g><title>API Gateway</title><rect fill="#DC2626" height="283.7949" style="stroke:#A23B72;stroke-width:1;" width="10" x="288.7134" y="188.0859"/></g><g><title>svc-reservations</title><rect fill="#DC2626" height="225.1738" style="stroke:#A23B72;stroke-width:1;" width="10" x="423.2729" y="217.3965"/></g><g><title>PostgreSQL</title><rect fill="#FCE4EC" height="29.3105" style="stroke:#A23B72;stroke-width:1;" width="10" x="642.5503" y="290.0176"/></g><g><title>PostgreSQL</title><rect fill="#FCE4EC" height="29.3105" style="stroke:#A23B72;stroke-width:1;" width="10" x="642.5503" y="383.9492"/></g><path d="M358,136.4648 L358,161.4648 L498,161.4648 L498,146.4648 L488,136.4648 L358,136.4648" fill="#FEFFDD" style="stroke:#181818;stroke-width:0.5;"/><path d="M488,136.4648 L488,146.4648 L498,146.4648 L488,136.4648" fill="#FEFFDD" style="stroke:#181818;stroke-width:0.5;"/><a href="/services/api/svc-reservations.html#/Reservations/cancelReservation" target="_top" title="/services/api/svc-reservations.html#/Reservations/cancelReservation" xlink:actuate="onRequest" xlink:href="/services/api/svc-reservations.html#/Reservations/cancelReservation" xlink:show="new" xlink:title="/services/api/svc-reservations.html#/Reservations/cancelReservation" xlink:type="simple"><text fill="#0000FF" font-family="Segoe UI" font-size="13" lengthAdjust="spacing" text-decoration="underline" textLength="119.4058" x="364" y="154.0332">View in Swagger UI</text></a><g class="message" data-participant-1="Client" data-participant-2="GW"><polygon fill="#DC2626" points="276.7134,184.0859,286.7134,188.0859,276.7134,192.0859,280.7134,188.0859" style="stroke:#DC2626;stroke-width:1;"/><line style="stroke:#DC2626;stroke-width:1;" x1="31.7524" x2="282.7134" y1="188.0859" y2="188.0859"/><text fill="#000000" font-family="Segoe UI" font-size="13" lengthAdjust="spacing" textLength="237.9609" x="38.7524" y="183.3438">DELETE /reservations/{reservation_id}</text></g><g class="message" data-participant-1="GW" data-participant-2="Svc"><polygon fill="#DC2626" points="411.2729,213.3965,421.2729,217.3965,411.2729,221.3965,415.2729,217.3965" style="stroke:#DC2626;stroke-width:1;"/><line style="stroke:#DC2626;stroke-width:1;" x1="298.7134" x2="417.2729" y1="217.3965" y2="217.3965"/><a href="/microservices/svc-reservations/#delete-reservationsreservation_id-cancel-a-reservation" target="_top" title="/microservices/svc-reservations/#delete-reservationsreservation_id-cancel-a-reservation" xlink:actuate="onRequest" xlink:href="/microservices/svc-reservations/#delete-reservationsreservation_id-cancel-a-reservation" xlink:show="new" xlink:title="/microservices/svc-reservations/#delete-reservationsreservation_id-cancel-a-reservation" xlink:type="simple"><text fill="#0000FF" font-family="Segoe UI" font-size="13" lengthAdjust="spacing" text-decoration="underline" textLength="85.1348" x="305.7134" y="212.6543">route request</text></a></g><rect fill="#EEEEEE" height="3" style="stroke:#EEEEEE;stroke-width:1;" width="834.0571" x="0" y="246.0518"/><line style="stroke:#000000;stroke-width:1;" x1="0" x2="834.0571" y1="246.0518" y2="246.0518"/><line style="stroke:#000000;stroke-width:1;" x1="0" x2="834.0571" y1="249.0518" y2="249.0518"/><rect fill="#EEEEEE" height="23.3105" style="stroke:#000000;stroke-width:2;" width="80.3711" x="376.843" y="235.3965"/><text fill="#000000" font-family="Segoe UI" font-size="13" font-weight="bold" lengthAdjust="spacing" textLength="62.0864" x="382.843" y="251.9648">Database</text><g class="message" data-participant-1="Svc" data-participant-2="DB"><polygon fill="#DC2626" points="630.5503,286.0176,640.5503,290.0176,630.5503,294.0176,634.5503,290.0176" style="stroke:#DC2626;stroke-width:1;"/><line style="stroke:#DC2626;stroke-width:1;" x1="433.2729" x2="636.5503" y1="290.0176" y2="290.0176"/><text fill="#000000" font-family="Segoe UI" font-size="13" lengthAdjust="spacing" textLength="148.8906" x="440.2729" y="285.2754">SELECT ... WHERE id = ?</text></g><g class="message" data-participant-1="DB" data-participant-2="Svc"><polygon fill="#DC2626" points="444.2729,315.3281,434.2729,319.3281,444.2729,323.3281,440.2729,319.3281" style="stroke:#DC2626;stroke-width:1;"/><line style="stroke:#DC2626;stroke-width:1;stroke-dasharray:2,2;" x1="438.2729" x2="646.5503" y1="319.3281" y2="319.3281"/><text fill="#000000" font-family="Segoe UI" font-size="13" lengthAdjust="spacing" textLength="26.2222" x="450.2729" y="314.5859">Row</text></g><path d="M652,332.3281 L652,357.3281 L829,357.3281 L829,342.3281 L819,332.3281 L652,332.3281" fill="#FEFFDD" style="stroke:#181818;stroke-width:0.5;"/><path d="M819,332.3281 L819,342.3281 L829,342.3281 L819,332.3281" fill="#FEFFDD" style="stroke:#181818;stroke-width:0.5;"/><text fill="#000000" font-family="Segoe UI" font-size="13" lengthAdjust="spacing" textLength="156.0571" x="658" y="349.8965">Returns 404 if not found</text><g class="message" data-participant-1="Svc" data-participant-2="DB"><polygon fill="#DC2626" points="630.5503,379.9492,640.5503,383.9492,630.5503,387.9492,634.5503,383.9492" style="stroke:#DC2626;stroke-width:1;"/><line style="stroke:#DC2626;stroke-width:1;" x1="433.2729" x2="636.5503" y1="383.9492" y2="383.9492"/><text fill="#000000" font-family="Segoe UI" font-size="13" lengthAdjust="spacing" textLength="190.2773" x="440.2729" y="379.207">DELETE FROM ... WHERE id = ?</text></g><g class="message" data-participant-1="DB" data-participant-2="Svc"><polygon fill="#DC2626" points="444.2729,409.2598,434.2729,413.2598,444.2729,417.2598,440.2729,413.2598" style="stroke:#DC2626;stroke-width:1;"/><line style="stroke:#DC2626;stroke-width:1;stroke-dasharray:2,2;" x1="438.2729" x2="646.5503" y1="413.2598" y2="413.2598"/><text fill="#000000" font-family="Segoe UI" font-size="13" lengthAdjust="spacing" textLength="18.5859" x="450.2729" y="408.5176">OK</text></g><g class="message" data-participant-1="Svc" data-participant-2="GW"><polygon fill="#DC2626" points="309.7134,438.5703,299.7134,442.5703,309.7134,446.5703,305.7134,442.5703" style="stroke:#DC2626;stroke-width:1;"/><line style="stroke:#DC2626;stroke-width:1;stroke-dasharray:2,2;" x1="303.7134" x2="427.2729" y1="442.5703" y2="442.5703"/><text fill="#000000" font-family="Segoe UI" font-size="13" lengthAdjust="spacing" textLength="100.5596" x="315.7134" y="437.8281">204 No Content</text></g><g class="message" data-participant-1="GW" data-participant-2="Client"><polygon fill="#DC2626" points="42.7524,467.8809,32.7524,471.8809,42.7524,475.8809,38.7524,471.8809" style="stroke:#DC2626;stroke-width:1;"/><line style="stroke:#DC2626;stroke-width:1;stroke-dasharray:2,2;" x1="36.7524" x2="292.7134" y1="471.8809" y2="471.8809"/><text fill="#000000" font-family="Segoe UI" font-size="13" lengthAdjust="spacing" textLength="100.5596" x="48.7524" y="467.1387">204 No Content</text></g><!--SRC=[dLJHRjem57ttLrp1Cz020eJ49WW9gyOeWtOyT6WooILO3JQp3TbKzTzd9q0TcAPgyEBu7CwvzzmRr3FZEohf5bOqV8wbsFF84ucGK0vy-oNgp50R6ecKyHZMD57e816kwJxHWU1wGhS8fJd60k7nhkJ-77_kaOS8BmJCfo-bI8zMKLXlrLlPzPHApKAsermFX8nG7YbrlzFg3wuebqNxdQ0PT3BQcArnp3WMPFhrng1Tp_21-5M0WjjES7DxXgxY20A3P_14wA9gs6wl6WxsboWRVfky4gAPJX26_jX_yA4cKQ4yKCq4LxKNv-a7Yrw_Su-Qk1AWu224xDxQXvANCEIw15H1VYp2_UaTZAZ6bFxEEAC5b8S3ls_cMk2fGrXnYyd8yqC8Jq-rBGkbi10BKTKkcRNbyfnwH3LTKMNcFnLAnnBdNyUPqd1WCl3yfkyHmar080uehRw9p3YSnUcENHbKDtgRb6iprpFCWd6ku1l351Y7UKhZs6W_tYsN17a4rewGF1keVB09TD-NFw6XPkOHizIEAsgEHiGcqtr7DkK84zHOk2owLF9MAjJbWDaTOolj2wEqQUHSYJK-bK9wFHYU4k_r2B6WASw4tOMvwT1xW6gr2ejF_im75a4FFhufEICnnygvgPb8IOGEBH-OPF56WrZdwZFKUyaLD6-QmDOsOrZRTI_MS4mvcDr_-Oz2xZzVr95hdqPODzOJ0Pxvox5Rxr3jMjan6UPnxFzYZnRa3m00]--></g></svg>