<svg xmlns="http://www.w3.org/2000/svg" xmlns:xlink="http://www.w3.org/1999/xlink" contentStyleType="text/css" data-diagram-type="SEQUENCE" height="474px" preserveAspectRatio="none" style="width:647px;height:474px;background:#FEFEFE;" version="1.1" viewBox="0 0 647 474" width="647px" zoomAndPan="magnify"><title>GET /trails/{trail_id}/closures</title><defs/><g><rect fill="#FEFEFE" height="474" style="stroke:none;stroke-width:1;" width="647" x="0" y="0"/><text fill="#000000" font-family="Segoe UI" font-size="14" font-weight="bold" lengthAdjust="spacing" textLength="215.2773" x="212.2705" y="28.5352">GET /trails/{trail_id}/closures</text><text fill="#000000" font-family="Segoe UI" font-size="14" font-weight="bold" lengthAdjust="spacing" textLength="163.9941" x="237.9121" y="45.0234">List closures for a trail</text><g><title>API Gateway</title><rect fill="#2563EB" height="189.8633" style="stroke:#A23B72;stroke-width:1;" width="10" x="235.5391" y="188.0859"/></g><g><title>svc-trail-management</title><rect fill="#2563EB" height="131.2422" style="stroke:#A23B72;stroke-width:1;" width="10" x="377.3735" y="217.3965"/></g><g><title>PostGIS</title><rect fill="#FCE4EC" height="29.3105" style="stroke:#A23B72;stroke-width:1;" width="10" x="602.6177" y="290.0176"/></g><g><title>Client</title><rect fill="#000000" fill-opacity="0.00000" height="274.4844" width="8" x="27.7524" y="121.4648"/><line style="stroke:#A23B72;stroke-width:0.5;stroke-dasharray:5,5;" x1="31" x2="31" y1="121.4648" y2="395.9492"/></g><g><title>API Gateway</title><rect fill="#000000" fill-opacity="0.00000" height="274.4844" width="8" x="236.5391" y="121.4648"/><line style="stroke:#A23B72;stroke-width:0.5;stroke-dasharray:5,5;" x1="240.25" x2="240.25" y1="121.4648" y2="395.9492"/></g><g><title>svc-trail-management</title><rect fill="#000000" fill-opacity="0.00000" height="274.4844" width="8" x="378.3735" y="121.4648"/><line style="stroke:#A23B72;stroke-width:0.5;stroke-dasharray:5,5;" x1="381.8281" x2="381.8281" y1="121.4648" y2="395.9492"/></g><g><title>PostGIS</title><rect fill="#000000" fill-opacity="0.00000" height="274.4844" width="8" x="603.6177" y="121.4648"/><line style="stroke:#A23B72;stroke-width:0.5;stroke-dasharray:5,5;" x1="607.417" x2="607.417" y1="121.4648" y2="395.9492"/></g><g class="participant participant-head" data-participant="Client"><rect fill="#E8F4F8" height="30.4883" rx="2.5" ry="2.5" style="stroke:#2E86AB;stroke-width:0.5;" width="53.5049" x="5" y="89.9766"/><text fill="#000000" font-family="Segoe UI" font-size="14" lengthAdjust="spacing" textLength="39.5049" x="12" y="110.5117">Client</text></g><g class="participant participant-tail" data-participant="Client"><rect fill="#E8F4F8" height="30.4883" rx="2.5" ry="2.5" style="stroke:#2E86AB;stroke-width:0.5;" width="53.5049" x="5" y="394.9492"/><text fill="#000000" font-family="Segoe UI" font-size="14" lengthAdjust="spacing" textLength="39.5049" x="12" y="415.4844">Client</text></g><g class="participant participant-head" data-participant="GW"><rect fill="#DBEAFE" height="30.4883" rx="2.5" ry="2.5" style="stroke:#2E86AB;stroke-width:0.5;" width="96.5781" x="192.25" y="89.9766"/><text fill="#000000" font-family="Segoe UI" font-size="14" lengthAdjust="spacing" textLength="82.5781" x="199.25" y="110.5117">API Gateway</text></g><g class="participant participant-tail" data-participant="GW"><rect fill="#DBEAFE" height="30.4883" rx="2.5" ry="2.5" style="stroke:#2E86AB;stroke-width:0.5;" width="96.5781" x="192.25" y="394.9492"/><text fill="#000000" font-family="Segoe UI" font-size="14" lengthAdjust="spacing" textLength="82.5781" x="199.25" y="415.4844">API Gateway</text></g><g class="participant participant-head" data-participant="Svc"><a href="/microservices/svc-trail-management/" target="_top" title="/microservices/svc-trail-management/" xlink:actuate="onRequest" xlink:href="/microservices/svc-trail-management/" xlink:show="new" xlink:title="/microservices/svc-trail-management/" xlink:type="simple"><rect fill="#E8F4F8" height="30.4883" rx="2.5" ry="2.5" style="stroke:#2E86AB;stroke-width:0.5;" width="167.0908" x="298.8281" y="89.9766"/><text fill="#000000" font-family="Segoe UI" font-size="14" lengthAdjust="spacing" textLength="153.0908" x="305.8281" y="110.5117">svc-trail-management</text></a></g><g class="participant participant-tail" data-participant="Svc"><a href="/microservices/svc-trail-management/" target="_top" title="/microservices/svc-trail-management/" xlink:actuate="onRequest" xlink:href="/microservices/svc-trail-management/" xlink:show="new" xlink:title="/microservices/svc-trail-management/" xlink:type="simple"><rect fill="#E8F4F8" height="30.4883" rx="2.5" ry="2.5" style="stroke:#2E86AB;stroke-width:0.5;" width="167.0908" x="298.8281" y="394.9492"/><text fill="#000000" font-family="Segoe UI" font-size="14" lengthAdjust="spacing" textLength="153.0908" x="305.8281" y="415.4844">svc-trail-management</text></a></g><g class="participant participant-head" data-participant="DB"><text fill="#000000" font-family="Segoe UI" font-size="14" lengthAdjust="spacing" textLength="50.4014" x="579.417" y="118.5117">PostGIS</text><path d="M589.6177,68.9766 C589.6177,58.9766 607.6177,58.9766 607.6177,58.9766 C607.6177,58.9766 625.6177,58.9766 625.6177,68.9766 L625.6177,94.9766 C625.6177,104.9766 607.6177,104.9766 607.6177,104.9766 C607.6177,104.9766 589.6177,104.9766 589.6177,94.9766 L589.6177,68.9766" fill="#FCE4EC" style="stroke:#181818;stroke-width:0.5;"/><path d="M589.6177,68.9766 C589.6177,78.9766 607.6177,78.9766 607.6177,78.9766 C607.6177,78.9766 625.6177,78.9766 625.6177,68.9766" fill="none" style="stroke:#181818;stroke-width:0.5;"/></g><g class="participant participant-tail" data-participant="DB"><text fill="#000000" font-family="Segoe UI" font-size="14" lengthAdjust="spacing" textLength="50.4014" x="579.417" y="408.4844">PostGIS</text><path d="M589.6177,421.4375 C589.6177,411.4375 607.6177,411.4375 607.6177,411.4375 C607.6177,411.4375 625.6177,411.4375 625.6177,421.4375 L625.6177,447.4375 C625.6177,457.4375 607.6177,457.4375 607.6177,457.4375 C607.6177,457.4375 589.6177,457.4375 589.6177,447.4375 L589.6177,421.4375" fill="#FCE4EC" style="stroke:#181818;stroke-width:0.5;"/><path d="M589.6177,421.4375 C589.6177,431.4375 607.6177,431.4375 607.6177,431.4375 C607.6177,431.4375 625.6177,431.4375 625.6177,421.4375" fill="none" style="stroke:#181818;stroke-width:0.5;"/></g><g><title>API Gateway</title><rect fill="#2563EB" height="189.8633" style="stroke:#A23B72;stroke-width:1;" width="10" x="235.5391" y="188.0859"/></g><g><title>svc-trail-management</title><rect fill="#2563EB" height="131.2422" style="stroke:#A23B72;stroke-width:1;" width="10" x="377.3735" y="217.3965"/></g><g><title>PostGIS</title><rect fill="#FCE4EC" height="29.3105" style="stroke:#A23B72;stroke-width:1;" width="10" x="602.6177" y="290.0176"/></g><path d="M312,136.4648 L312,161.4648 L452,161.4648 L452,146.4648 L442,136.4648 L312,136.4648" fill="#FEFFDD" style="stroke:#181818;stroke-width:0.5;"/><path d="M442,136.4648 L442,146.4648 L452,146.4648 L442,136.4648" fill="#FEFFDD" style="stroke:#181818;stroke-width:0.5;"/><a href="/services/api/svc-trail-management.html#/Closures/getTrailClosures" target="_top" title="/services/api/svc-trail-management.html#/Closures/getTrailClosures" xlink:actuate="onRequest" xlink:href="/services/api/svc-trail-management.html#/Closures/getTrailClosures" xlink:show="new" xlink:title="/services/api/svc-trail-management.html#/Closures/getTrailClosures" xlink:type="simple"><text fill="#0000FF" font-family="Segoe UI" font-size="13" lengthAdjust="spacing" text-decoration="underline" textLength="119.4058" x="318" y="154.0332">View in Swagger UI</text></a><g class="message" data-participant-1="Client" data-participant-2="GW"><polygon fill="#2563EB" points="223.5391,184.0859,233.5391,188.0859,223.5391,192.0859,227.5391,188.0859" style="stroke:#2563EB;stroke-width:1;"/><line style="stroke:#2563EB;stroke-width:1;" x1="31.7524" x2="229.5391" y1="188.0859" y2="188.0859"/><text fill="#000000" font-family="Segoe UI" font-size="13" lengthAdjust="spacing" textLength="184.7866" x="38.7524" y="183.3438">GET /trails/{trail_id}/closures</text></g><g class="message" data-participant-1="GW" data-participant-2="Svc"><polygon fill="#2563EB" points="365.3735,213.3965,375.3735,217.3965,365.3735,221.3965,369.3735,217.3965" style="stroke:#2563EB;stroke-width:1;"/><line style="stroke:#2563EB;stroke-width:1;" x1="245.5391" x2="371.3735" y1="217.3965" y2="217.3965"/><text fill="#000000" font-family="Segoe UI" font-size="13" lengthAdjust="spacing" textLength="85.1348" x="252.5391" y="212.6543">route request</text></g><rect fill="#EEEEEE" height="3" style="stroke:#EEEEEE;stroke-width:1;" width="640.8184" x="0" y="246.0518"/><line style="stroke:#000000;stroke-width:1;" x1="0" x2="640.8184" y1="246.0518" y2="246.0518"/><line style="stroke:#000000;stroke-width:1;" x1="0" x2="640.8184" y1="249.0518" y2="249.0518"/><rect fill="#EEEEEE" height="23.3105" style="stroke:#000000;stroke-width:2;" width="80.3711" x="280.2236" y="235.3965"/><text fill="#000000" font-family="Segoe UI" font-size="13" font-weight="bold" lengthAdjust="spacing" textLength="62.0864" x="286.2236" y="251.9648">Database</text><g class="message" data-participant-1="Svc" data-participant-2="DB"><polygon fill="#2563EB" points="590.6177,286.0176,600.6177,290.0176,590.6177,294.0176,594.6177,290.0176" style="stroke:#2563EB;stroke-width:1;"/><line style="stroke:#2563EB;stroke-width:1;" x1="387.3735" x2="596.6177" y1="290.0176" y2="290.0176"/><text fill="#000000" font-family="Segoe UI" font-size="13" lengthAdjust="spacing" textLength="196.2441" x="394.3735" y="285.2754">SELECT ... WHERE parent_id = ?</text></g><g class="message" data-participant-1="DB" data-participant-2="Svc"><polygon fill="#2563EB" points="398.3735,315.3281,388.3735,319.3281,398.3735,323.3281,394.3735,319.3281" style="stroke:#2563EB;stroke-width:1;"/><line style="stroke:#2563EB;stroke-width:1;stroke-dasharray:2,2;" x1="392.3735" x2="606.6177" y1="319.3281" y2="319.3281"/><text fill="#000000" font-family="Segoe UI" font-size="13" lengthAdjust="spacing" textLength="57.8843" x="404.3735" y="314.5859">ResultSet</text></g><g class="message" data-participant-1="Svc" data-participant-2="GW"><polygon fill="#2563EB" points="256.5391,344.6387,246.5391,348.6387,256.5391,352.6387,252.5391,348.6387" style="stroke:#2563EB;stroke-width:1;"/><line style="stroke:#2563EB;stroke-width:1;stroke-dasharray:2,2;" x1="250.5391" x2="381.3735" y1="348.6387" y2="348.6387"/><text fill="#000000" font-family="Segoe UI" font-size="13" lengthAdjust="spacing" textLength="47.3599" x="262.5391" y="343.8965">200 OK</text></g><g class="message" data-participant-1="GW" data-participant-2="Client"><polygon fill="#2563EB" points="42.7524,373.9492,32.7524,377.9492,42.7524,381.9492,38.7524,377.9492" style="stroke:#2563EB;stroke-width:1;"/><line style="stroke:#2563EB;stroke-width:1;stroke-dasharray:2,2;" x1="36.7524" x2="239.5391" y1="377.9492" y2="377.9492"/><text fill="#000000" font-family="Segoe UI" font-size="13" lengthAdjust="spacing" textLength="47.3599" x="48.7524" y="373.207">200 OK</text></g><!--SRC=[XPDVRzem5CNV_Icku1b2eIi8YKqaTHWQwb13nqE79fDSKgk9pMm3dQf-zzsaX3yhqfA7E3d7vzg_wzXdgTR2Y1oM8dvEZTwe9D2PDb0FUN4pUt3O9v7edLGfh4HcyKH9S2KscGkrSdSYHwX5c6g4Xt7jT3h-tg2A4LuPq3KqHk_sfTgVRZguB3zFXN4obckXdAzDWgQoyDxDqFzW-NVHl1TUXxtIDf4hd4Y5Pp73TiVljalTrozdKdZL2rjN1-a3ZZ0alPJlj3jFZRlTPUT4ku2omxliZJ4dNOOmuZFmd14oizvh-VmbapSlphJT6BG_rKHQ1zKhh2X3GEbZR7tSFTI2JA9oDH0MteVdyd0wXf5mk1D_Iize3lLRdm-fhMS-kuqRPNmZ5qgac5UXqJQ6nqSlbx7H5irMncYzIsvliJZ0JuGJIs7f64orTQDnL4RT-iGXuDSyO4mH9D1RD4K1maOb3kbYBIzMQ3wvFAjxmHwAbwAR5PRg0_oGk0Ef8Dg9DANeX_5YmL0bK5HZx9qFD3uN5Fh_Qm4JiPDRGbSosvzF6jBqWaaVgBqack9CMtTq5s9bPuC1t5Oi1WF62f42Y4GV8ZxXmGoQpIRCl_9x3jGGMXyj0WRmvHXuWes6ZKFzUxJqnqNeM88dvdsHQfVjLWk-Vpkr5C2BVP1ZJ-IIQpHdVm40]--></g></svg>