<svg xmlns="http://www.w3.org/2000/svg" xmlns:xlink="http://www.w3.org/1999/xlink" contentStyleType="text/css" data-diagram-type="SEQUENCE" height="474px" preserveAspectRatio="none" style="width:661px;height:474px;background:#FEFEFE;" version="1.1" viewBox="0 0 661 474" width="661px" zoomAndPan="magnify"><title>GET /trails/{trail_id}/conditions</title><defs/><g><rect fill="#FEFEFE" height="474" style="stroke:none;stroke-width:1;" width="661" x="0" y="0"/><text fill="#000000" font-family="Segoe UI" font-size="14" font-weight="bold" lengthAdjust="spacing" textLength="230.4326" x="211.5261" y="28.5352">GET /trails/{trail_id}/conditions</text><text fill="#000000" font-family="Segoe UI" font-size="14" font-weight="bold" lengthAdjust="spacing" textLength="195.6719" x="228.9065" y="45.0234">Get current trail conditions</text><g><title>API Gateway</title><rect fill="#2563EB" height="189.8633" style="stroke:#A23B72;stroke-width:1;" width="10" x="249.2056" y="188.0859"/></g><g><title>svc-trail-management</title><rect fill="#2563EB" height="131.2422" style="stroke:#A23B72;stroke-width:1;" width="10" x="391.04" y="217.3965"/></g><g><title>PostGIS</title><rect fill="#FCE4EC" height="29.3105" style="stroke:#A23B72;stroke-width:1;" width="10" x="616.2842" y="290.0176"/></g><g><title>Client</title><rect fill="#000000" fill-opacity="0.00000" height="274.4844" width="8" x="27.7524" y="121.4648"/><line style="stroke:#A23B72;stroke-width:0.5;stroke-dasharray:5,5;" x1="31" x2="31" y1="121.4648" y2="395.9492"/></g><g><title>API Gateway</title><rect fill="#000000" fill-opacity="0.00000" height="274.4844" width="8" x="250.2056" y="121.4648"/><line style="stroke:#A23B72;stroke-width:0.5;stroke-dasharray:5,5;" x1="253.9165" x2="253.9165" y1="121.4648" y2="395.9492"/></g><g><title>svc-trail-management</title><rect fill="#000000" fill-opacity="0.00000" height="274.4844" width="8" x="392.04" y="121.4648"/><line style="stroke:#A23B72;stroke-width:0.5;stroke-dasharray:5,5;" x1="395.4946" x2="395.4946" y1="121.4648" y2="395.9492"/></g><g><title>PostGIS</title><rect fill="#000000" fill-opacity="0.00000" height="274.4844" width="8" x="617.2842" y="121.4648"/><line style="stroke:#A23B72;stroke-width:0.5;stroke-dasharray:5,5;" x1="621.0835" x2="621.0835" y1="121.4648" y2="395.9492"/></g><g class="participant participant-head" data-participant="Client"><rect fill="#E8F4F8" height="30.4883" rx="2.5" ry="2.5" style="stroke:#2E86AB;stroke-width:0.5;" width="53.5049" x="5" y="89.9766"/><text fill="#000000" font-family="Segoe UI" font-size="14" lengthAdjust="spacing" textLength="39.5049" x="12" y="110.5117">Client</text></g><g class="participant participant-tail" data-participant="Client"><rect fill="#E8F4F8" height="30.4883" rx="2.5" ry="2.5" style="stroke:#2E86AB;stroke-width:0.5;" width="53.5049" x="5" y="394.9492"/><text fill="#000000" font-family="Segoe UI" font-size="14" lengthAdjust="spacing" textLength="39.5049" x="12" y="415.4844">Client</text></g><g class="participant participant-head" data-participant="GW"><rect fill="#DBEAFE" height="30.4883" rx="2.5" ry="2.5" style="stroke:#2E86AB;stroke-width:0.5;" width="96.5781" x="205.9165" y="89.9766"/><text fill="#000000" font-family="Segoe UI" font-size="14" lengthAdjust="spacing" textLength="82.5781" x="212.9165" y="110.5117">API Gateway</text></g><g class="participant participant-tail" data-participant="GW"><rect fill="#DBEAFE" height="30.4883" rx="2.5" ry="2.5" style="stroke:#2E86AB;stroke-width:0.5;" width="96.5781" x="205.9165" y="394.9492"/><text fill="#000000" font-family="Segoe UI" font-size="14" lengthAdjust="spacing" textLength="82.5781" x="212.9165" y="415.4844">API Gateway</text></g><g class="participant participant-head" data-participant="Svc"><a href="/microservices/svc-trail-management/" target="_top" title="/microservices/svc-trail-management/" xlink:actuate="onRequest" xlink:href="/microservices/svc-trail-management/" xlink:show="new" xlink:title="/microservices/svc-trail-management/" xlink:type="simple"><rect fill="#E8F4F8" height="30.4883" rx="2.5" ry="2.5" style="stroke:#2E86AB;stroke-width:0.5;" width="167.0908" x="312.4946" y="89.9766"/><text fill="#000000" font-family="Segoe UI" font-size="14" lengthAdjust="spacing" textLength="153.0908" x="319.4946" y="110.5117">svc-trail-management</text></a></g><g class="participant participant-tail" data-participant="Svc"><a href="/microservices/svc-trail-management/" target="_top" title="/microservices/svc-trail-management/" xlink:actuate="onRequest" xlink:href="/microservices/svc-trail-management/" xlink:show="new" xlink:title="/microservices/svc-trail-management/" xlink:type="simple"><rect fill="#E8F4F8" height="30.4883" rx="2.5" ry="2.5" style="stroke:#2E86AB;stroke-width:0.5;" width="167.0908" x="312.4946" y="394.9492"/><text fill="#000000" font-family="Segoe UI" font-size="14" lengthAdjust="spacing" textLength="153.0908" x="319.4946" y="415.4844">svc-trail-management</text></a></g><g class="participant participant-head" data-participant="DB"><text fill="#000000" font-family="Segoe UI" font-size="14" lengthAdjust="spacing" textLength="50.4014" x="593.0835" y="118.5117">PostGIS</text><path d="M603.2842,68.9766 C603.2842,58.9766 621.2842,58.9766 621.2842,58.9766 C621.2842,58.9766 639.2842,58.9766 639.2842,68.9766 L639.2842,94.9766 C639.2842,104.9766 621.2842,104.9766 621.2842,104.9766 C621.2842,104.9766 603.2842,104.9766 603.2842,94.9766 L603.2842,68.9766" fill="#FCE4EC" style="stroke:#181818;stroke-width:0.5;"/><path d="M603.2842,68.9766 C603.2842,78.9766 621.2842,78.9766 621.2842,78.9766 C621.2842,78.9766 639.2842,78.9766 639.2842,68.9766" fill="none" style="stroke:#181818;stroke-width:0.5;"/></g><g class="participant participant-tail" data-participant="DB"><text fill="#000000" font-family="Segoe UI" font-size="14" lengthAdjust="spacing" textLength="50.4014" x="593.0835" y="408.4844">PostGIS</text><path d="M603.2842,421.4375 C603.2842,411.4375 621.2842,411.4375 621.2842,411.4375 C621.2842,411.4375 639.2842,411.4375 639.2842,421.4375 L639.2842,447.4375 C639.2842,457.4375 621.2842,457.4375 621.2842,457.4375 C621.2842,457.4375 603.2842,457.4375 603.2842,447.4375 L603.2842,421.4375" fill="#FCE4EC" style="stroke:#181818;stroke-width:0.5;"/><path d="M603.2842,421.4375 C603.2842,431.4375 621.2842,431.4375 621.2842,431.4375 C621.2842,431.4375 639.2842,431.4375 639.2842,421.4375" fill="none" style="stroke:#181818;stroke-width:0.5;"/></g><g><title>API Gateway</title><rect fill="#2563EB" height="189.8633" style="stroke:#A23B72;stroke-width:1;" width="10" x="249.2056" y="188.0859"/></g><g><title>svc-trail-management</title><rect fill="#2563EB" height="131.2422" style="stroke:#A23B72;stroke-width:1;" width="10" x="391.04" y="217.3965"/></g><g><title>PostGIS</title><rect fill="#FCE4EC" height="29.3105" style="stroke:#A23B72;stroke-width:1;" width="10" x="616.2842" y="290.0176"/></g><path d="M325,136.4648 L325,161.4648 L465,161.4648 L465,146.4648 L455,136.4648 L325,136.4648" fill="#FEFFDD" style="stroke:#181818;stroke-width:0.5;"/><path d="M455,136.4648 L455,146.4648 L465,146.4648 L455,136.4648" fill="#FEFFDD" style="stroke:#181818;stroke-width:0.5;"/><a href="/services/api/svc-trail-management.html#/Conditions/getTrailCurrentConditions" target="_top" title="/services/api/svc-trail-management.html#/Conditions/getTrailCurrentConditions" xlink:actuate="onRequest" xlink:href="/services/api/svc-trail-management.html#/Conditions/getTrailCurrentConditions" xlink:show="new" xlink:title="/services/api/svc-trail-management.html#/Conditions/getTrailCurrentConditions" xlink:type="simple"><text fill="#0000FF" font-family="Segoe UI" font-size="13" lengthAdjust="spacing" text-decoration="underline" textLength="119.4058" x="331" y="154.0332">View in Swagger UI</text></a><g class="message" data-participant-1="Client" data-participant-2="GW"><polygon fill="#2563EB" points="237.2056,184.0859,247.2056,188.0859,237.2056,192.0859,241.2056,188.0859" style="stroke:#2563EB;stroke-width:1;"/><line style="stroke:#2563EB;stroke-width:1;" x1="31.7524" x2="243.2056" y1="188.0859" y2="188.0859"/><text fill="#000000" font-family="Segoe UI" font-size="13" lengthAdjust="spacing" textLength="198.4531" x="38.7524" y="183.3438">GET /trails/{trail_id}/conditions</text></g><g class="message" data-participant-1="GW" data-participant-2="Svc"><polygon fill="#2563EB" points="379.04,213.3965,389.04,217.3965,379.04,221.3965,383.04,217.3965" style="stroke:#2563EB;stroke-width:1;"/><line style="stroke:#2563EB;stroke-width:1;" x1="259.2056" x2="385.04" y1="217.3965" y2="217.3965"/><text fill="#000000" font-family="Segoe UI" font-size="13" lengthAdjust="spacing" textLength="85.1348" x="266.2056" y="212.6543">route request</text></g><rect fill="#EEEEEE" height="3" style="stroke:#EEEEEE;stroke-width:1;" width="654.4849" x="0" y="246.0518"/><line style="stroke:#000000;stroke-width:1;" x1="0" x2="654.4849" y1="246.0518" y2="246.0518"/><line style="stroke:#000000;stroke-width:1;" x1="0" x2="654.4849" y1="249.0518" y2="249.0518"/><rect fill="#EEEEEE" height="23.3105" style="stroke:#000000;stroke-width:2;" width="80.3711" x="287.0569" y="235.3965"/><text fill="#000000" font-family="Segoe UI" font-size="13" font-weight="bold" lengthAdjust="spacing" textLength="62.0864" x="293.0569" y="251.9648">Database</text><g class="message" data-participant-1="Svc" data-participant-2="DB"><polygon fill="#2563EB" points="604.2842,286.0176,614.2842,290.0176,604.2842,294.0176,608.2842,290.0176" style="stroke:#2563EB;stroke-width:1;"/><line style="stroke:#2563EB;stroke-width:1;" x1="401.04" x2="610.2842" y1="290.0176" y2="290.0176"/><text fill="#000000" font-family="Segoe UI" font-size="13" lengthAdjust="spacing" textLength="196.2441" x="408.04" y="285.2754">SELECT ... WHERE parent_id = ?</text></g><g class="message" data-participant-1="DB" data-participant-2="Svc"><polygon fill="#2563EB" points="412.04,315.3281,402.04,319.3281,412.04,323.3281,408.04,319.3281" style="stroke:#2563EB;stroke-width:1;"/><line style="stroke:#2563EB;stroke-width:1;stroke-dasharray:2,2;" x1="406.04" x2="620.2842" y1="319.3281" y2="319.3281"/><text fill="#000000" font-family="Segoe UI" font-size="13" lengthAdjust="spacing" textLength="57.8843" x="418.04" y="314.5859">ResultSet</text></g><g class="message" data-participant-1="Svc" data-participant-2="GW"><polygon fill="#2563EB" points="270.2056,344.6387,260.2056,348.6387,270.2056,352.6387,266.2056,348.6387" style="stroke:#2563EB;stroke-width:1;"/><line style="stroke:#2563EB;stroke-width:1;stroke-dasharray:2,2;" x1="264.2056" x2="395.04" y1="348.6387" y2="348.6387"/><text fill="#000000" font-family="Segoe UI" font-size="13" lengthAdjust="spacing" textLength="47.3599" x="276.2056" y="343.8965">200 OK</text></g><g class="message" data-participant-1="GW" data-participant-2="Client"><polygon fill="#2563EB" points="42.7524,373.9492,32.7524,377.9492,42.7524,381.9492,38.7524,377.9492" style="stroke:#2563EB;stroke-width:1;"/><line style="stroke:#2563EB;stroke-width:1;stroke-dasharray:2,2;" x1="36.7524" x2="253.2056" y1="377.9492" y2="377.9492"/><text fill="#000000" font-family="Segoe UI" font-size="13" lengthAdjust="spacing" textLength="47.3599" x="48.7524" y="373.207">200 OK</text></g><!--SRC=[XPDHRzem58NV_Ikku1b2eIi8YKqaE1aQwb13nqE79fDSKgk9pMmJEbNzxtC2XB0Y3HwmE2VdsDzrz0iNMwPO1ciMlIHAxaJioLGgQFgq-19TEVGpY-MUYmGsBDLOKsBSi5rgV2dCFSiG6Y4c4k5nsgW_ZhztA2A4DmBsCrPAxezLtKztFLoNVy-PCZpYMoQCArMCwcIXWxkn-y7oxwRfmB_r1wLjnZSuum8lOiRTdjllbhehNoya_sRWTsugwGCEtxTwATzBSvaQzVlhNasxWh97- -IT4CDDYX3G1JX6CPvgvwty_SNZToUI8kQ6Iw5_YW0DH3kbK1We7N1M2TcU4K33IxbrDO1fE2mlvV5y2W4pk6T_Ia-mXER4fMCxsmkVpgDMsTJAc609PgVGC8_WwSd9UAIaHfNp2BLppUsiLjK4OcROccbx5-PIcs0Qbb4JryBmw2tr216M5CWSLL5WsTcAAfrj-TM6zhF9qgRZLIYS1CsYC7a7LcS5Vd3S0nSGxbcIs9R7wMf5KCHG51DoG0MjpmMGuVz7GbXaU6uvbW2FDzOkRK01Q0Xsu5PKnItNvkmkn9ETZ4OmEO4PZGWfH1jWiGmXf3FgBQ3TRiFoAtsWOATZTsYt0IFuSWwiCRJBLjN_WDg-Wo4Q4cFDV2mvdRFRwS3tRtLBGRyuXtKScLnp1Klo5m00]--></g></svg>