<svg xmlns="http://www.w3.org/2000/svg" xmlns:xlink="http://www.w3.org/1999/xlink" contentStyleType="text/css" data-diagram-type="SEQUENCE" height="603px" preserveAspectRatio="none" style="width:603px;height:603px;background:#FEFEFE;" version="1.1" viewBox="0 0 603 603" width="603px" zoomAndPan="magnify"><title>PATCH /locations/{location_id}</title><defs/><g><rect fill="#FEFEFE" height="603" style="stroke:none;stroke-width:1;" width="603" x="0" y="0"/><text fill="#000000" font-family="Segoe UI" font-size="14" font-weight="bold" lengthAdjust="spacing" textLength="224.0957" x="185.5962" y="28.5352">PATCH /locations/{location_id}</text><text fill="#000000" font-family="Segoe UI" font-size="14" font-weight="bold" lengthAdjust="spacing" textLength="166.1406" x="214.5737" y="45.0234">Update location details</text><g><title>API Gateway</title><rect fill="#7C3AED" height="319.1055" style="stroke:#A23B72;stroke-width:1;" width="10" x="245.4541" y="188.0859"/></g><g><title>svc-location-services</title><rect fill="#7C3AED" height="260.4844" style="stroke:#A23B72;stroke-width:1;" width="10" x="383.7134" y="217.3965"/></g><g><title>PostGIS</title><rect fill="#FCE4EC" height="29.3105" style="stroke:#A23B72;stroke-width:1;" width="10" x="558.0874" y="325.3281"/></g><g><title>PostGIS</title><rect fill="#FCE4EC" height="29.3105" style="stroke:#A23B72;stroke-width:1;" width="10" x="558.0874" y="419.2598"/></g><g><title>Client</title><rect fill="#000000" fill-opacity="0.00000" height="403.7266" width="8" x="27.7524" y="121.4648"/><line style="stroke:#A23B72;stroke-width:0.5;stroke-dasharray:5,5;" x1="31" x2="31" y1="121.4648" y2="525.1914"/></g><g><title>API Gateway</title><rect fill="#000000" fill-opacity="0.00000" height="403.7266" width="8" x="246.4541" y="121.4648"/><line style="stroke:#A23B72;stroke-width:0.5;stroke-dasharray:5,5;" x1="250.165" x2="250.165" y1="121.4648" y2="525.1914"/></g><g><title>svc-location-services</title><rect fill="#000000" fill-opacity="0.00000" height="403.7266" width="8" x="384.7134" y="121.4648"/><line style="stroke:#A23B72;stroke-width:0.5;stroke-dasharray:5,5;" x1="387.7432" x2="387.7432" y1="121.4648" y2="525.1914"/></g><g><title>PostGIS</title><rect fill="#000000" fill-opacity="0.00000" height="403.7266" width="8" x="559.0874" y="121.4648"/><line style="stroke:#A23B72;stroke-width:0.5;stroke-dasharray:5,5;" x1="562.8867" x2="562.8867" y1="121.4648" y2="525.1914"/></g><g class="participant participant-head" data-participant="Client"><rect fill="#E8F4F8" height="30.4883" rx="2.5" ry="2.5" style="stroke:#2E86AB;stroke-width:0.5;" width="53.5049" x="5" y="89.9766"/><text fill="#000000" font-family="Segoe UI" font-size="14" lengthAdjust="spacing" textLength="39.5049" x="12" y="110.5117">Client</text></g><g class="participant participant-tail" data-participant="Client"><rect fill="#E8F4F8" height="30.4883" rx="2.5" ry="2.5" style="stroke:#2E86AB;stroke-width:0.5;" width="53.5049" x="5" y="524.1914"/><text fill="#000000" font-family="Segoe UI" font-size="14" lengthAdjust="spacing" textLength="39.5049" x="12" y="544.7266">Client</text></g><g class="participant participant-head" data-participant="GW"><rect fill="#DBEAFE" height="30.4883" rx="2.5" ry="2.5" style="stroke:#2E86AB;stroke-width:0.5;" width="96.5781" x="202.165" y="89.9766"/><text fill="#000000" font-family="Segoe UI" font-size="14" lengthAdjust="spacing" textLength="82.5781" x="209.165" y="110.5117">API Gateway</text></g><g class="participant participant-tail" data-participant="GW"><rect fill="#DBEAFE" height="30.4883" rx="2.5" ry="2.5" style="stroke:#2E86AB;stroke-width:0.5;" width="96.5781" x="202.165" y="524.1914"/><text fill="#000000" font-family="Segoe UI" font-size="14" lengthAdjust="spacing" textLength="82.5781" x="209.165" y="544.7266">API Gateway</text></g><g class="participant participant-head" data-participant="Svc"><a href="/microservices/svc-location-services/" target="_top" title="/microservices/svc-location-services/" xlink:actuate="onRequest" xlink:href="/microservices/svc-location-services/" xlink:show="new" xlink:title="/microservices/svc-location-services/" xlink:type="simple"><rect fill="#E8F4F8" height="30.4883" rx="2.5" ry="2.5" style="stroke:#2E86AB;stroke-width:0.5;" width="159.9404" x="308.7432" y="89.9766"/><text fill="#000000" font-family="Segoe UI" font-size="14" lengthAdjust="spacing" textLength="145.9404" x="315.7432" y="110.5117">svc-location-services</text></a></g><g class="participant participant-tail" data-participant="Svc"><a href="/microservices/svc-location-services/" target="_top" title="/microservices/svc-location-services/" xlink:actuate="onRequest" xlink:href="/microservices/svc-location-services/" xlink:show="new" xlink:title="/microservices/svc-location-services/" xlink:type="simple"><rect fill="#E8F4F8" height="30.4883" rx="2.5" ry="2.5" style="stroke:#2E86AB;stroke-width:0.5;" width="159.9404" x="308.7432" y="524.1914"/><text fill="#000000" font-family="Segoe UI" font-size="14" lengthAdjust="spacing" textLength="145.9404" x="315.7432" y="544.7266">svc-location-services</text></a></g><g class="participant participant-head" data-participant="DB"><text fill="#000000" font-family="Segoe UI" font-size="14" lengthAdjust="spacing" textLength="50.4014" x="534.8867" y="118.5117">PostGIS</text><path d="M545.0874,68.9766 C545.0874,58.9766 563.0874,58.9766 563.0874,58.9766 C563.0874,58.9766 581.0874,58.9766 581.0874,68.9766 L581.0874,94.9766 C581.0874,104.9766 563.0874,104.9766 563.0874,104.9766 C563.0874,104.9766 545.0874,104.9766 545.0874,94.9766 L545.0874,68.9766" fill="#FCE4EC" style="stroke:#181818;stroke-width:0.5;"/><path d="M545.0874,68.9766 C545.0874,78.9766 563.0874,78.9766 563.0874,78.9766 C563.0874,78.9766 581.0874,78.9766 581.0874,68.9766" fill="none" style="stroke:#181818;stroke-width:0.5;"/></g><g class="participant participant-tail" data-participant="DB"><text fill="#000000" font-family="Segoe UI" font-size="14" lengthAdjust="spacing" textLength="50.4014" x="534.8867" y="537.7266">PostGIS</text><path d="M545.0874,550.6797 C545.0874,540.6797 563.0874,540.6797 563.0874,540.6797 C563.0874,540.6797 581.0874,540.6797 581.0874,550.6797 L581.0874,576.6797 C581.0874,586.6797 563.0874,586.6797 563.0874,586.6797 C563.0874,586.6797 545.0874,586.6797 545.0874,576.6797 L545.0874,550.6797" fill="#FCE4EC" style="stroke:#181818;stroke-width:0.5;"/><path d="M545.0874,550.6797 C545.0874,560.6797 563.0874,560.6797 563.0874,560.6797 C563.0874,560.6797 581.0874,560.6797 581.0874,550.6797" fill="none" style="stroke:#181818;stroke-width:0.5;"/></g><g><title>API Gateway</title><rect fill="#7C3AED" height="319.1055" style="stroke:#A23B72;stroke-width:1;" width="10" x="245.4541" y="188.0859"/></g><g><title>svc-location-services</title><rect fill="#7C3AED" height="260.4844" style="stroke:#A23B72;stroke-width:1;" width="10" x="383.7134" y="217.3965"/></g><g><title>PostGIS</title><rect fill="#FCE4EC" height="29.3105" style="stroke:#A23B72;stroke-width:1;" width="10" x="558.0874" y="325.3281"/></g><g><title>PostGIS</title><rect fill="#FCE4EC" height="29.3105" style="stroke:#A23B72;stroke-width:1;" width="10" x="558.0874" y="419.2598"/></g><path d="M318,136.4648 L318,161.4648 L458,161.4648 L458,146.4648 L448,136.4648 L318,136.4648" fill="#FEFFDD" style="stroke:#181818;stroke-width:0.5;"/><path d="M448,136.4648 L448,146.4648 L458,146.4648 L448,136.4648" fill="#FEFFDD" style="stroke:#181818;stroke-width:0.5;"/><a href="/services/api/svc-location-services.html" target="_top" title="/services/api/svc-location-services.html" xlink:actuate="onRequest" xlink:href="/services/api/svc-location-services.html" xlink:show="new" xlink:title="/services/api/svc-location-services.html" xlink:type="simple"><text fill="#0000FF" font-family="Segoe UI" font-size="13" lengthAdjust="spacing" text-decoration="underline" textLength="119.4058" x="324" y="154.0332">View in Swagger UI</text></a><g class="message" data-participant-1="Client" data-participant-2="GW"><polygon fill="#7C3AED" points="233.4541,184.0859,243.4541,188.0859,233.4541,192.0859,237.4541,188.0859" style="stroke:#7C3AED;stroke-width:1;"/><line style="stroke:#7C3AED;stroke-width:1;" x1="31.7524" x2="239.4541" y1="188.0859" y2="188.0859"/><text fill="#000000" font-family="Segoe UI" font-size="13" lengthAdjust="spacing" textLength="194.7017" x="38.7524" y="183.3438">PATCH /locations/{location_id}</text></g><g class="message" data-participant-1="GW" data-participant-2="Svc"><polygon fill="#7C3AED" points="371.7134,213.3965,381.7134,217.3965,371.7134,221.3965,375.7134,217.3965" style="stroke:#7C3AED;stroke-width:1;"/><line style="stroke:#7C3AED;stroke-width:1;" x1="255.4541" x2="377.7134" y1="217.3965" y2="217.3965"/><a href="/microservices/svc-location-services/#patch-locationslocation_id-update-location-details" target="_top" title="/microservices/svc-location-services/#patch-locationslocation_id-update-location-details" xlink:actuate="onRequest" xlink:href="/microservices/svc-location-services/#patch-locationslocation_id-update-location-details" xlink:show="new" xlink:title="/microservices/svc-location-services/#patch-locationslocation_id-update-location-details" xlink:type="simple"><text fill="#0000FF" font-family="Segoe UI" font-size="13" lengthAdjust="spacing" text-decoration="underline" textLength="85.1348" x="262.4541" y="212.6543">route request</text></a></g><path d="M398,230.3965 L398,255.3965 L556,255.3965 L556,240.3965 L546,230.3965 L398,230.3965" fill="#FEFFDD" style="stroke:#181818;stroke-width:0.5;"/><path d="M546,230.3965 L546,240.3965 L556,240.3965 L546,230.3965" fill="#FEFFDD" style="stroke:#181818;stroke-width:0.5;"/><text fill="#000000" font-family="Segoe UI" font-size="13" lengthAdjust="spacing" textLength="137.5728" x="404" y="247.9648">Validate request body</text><rect fill="#EEEEEE" height="3" style="stroke:#EEEEEE;stroke-width:1;" width="596.2881" x="0" y="281.3623"/><line style="stroke:#000000;stroke-width:1;" x1="0" x2="596.2881" y1="281.3623" y2="281.3623"/><line style="stroke:#000000;stroke-width:1;" x1="0" x2="596.2881" y1="284.3623" y2="284.3623"/><rect fill="#EEEEEE" height="23.3105" style="stroke:#000000;stroke-width:2;" width="80.3711" x="257.9585" y="270.707"/><text fill="#000000" font-family="Segoe UI" font-size="13" font-weight="bold" lengthAdjust="spacing" textLength="62.0864" x="263.9585" y="287.2754">Database</text><g class="message" data-participant-1="Svc" data-participant-2="DB"><polygon fill="#7C3AED" points="546.0874,321.3281,556.0874,325.3281,546.0874,329.3281,550.0874,325.3281" style="stroke:#7C3AED;stroke-width:1;"/><line style="stroke:#7C3AED;stroke-width:1;" x1="393.7134" x2="552.0874" y1="325.3281" y2="325.3281"/><text fill="#000000" font-family="Segoe UI" font-size="13" lengthAdjust="spacing" textLength="145.374" x="400.7134" y="320.5859">SELECT ... FOR UPDATE</text></g><g class="message" data-participant-1="DB" data-participant-2="Svc"><polygon fill="#7C3AED" points="404.7134,350.6387,394.7134,354.6387,404.7134,358.6387,400.7134,354.6387" style="stroke:#7C3AED;stroke-width:1;"/><line style="stroke:#7C3AED;stroke-width:1;stroke-dasharray:2,2;" x1="398.7134" x2="562.0874" y1="354.6387" y2="354.6387"/><text fill="#000000" font-family="Segoe UI" font-size="13" lengthAdjust="spacing" textLength="75.3086" x="410.7134" y="349.8965">Current row</text></g><path d="M398,367.6387 L398,392.6387 L584,392.6387 L584,377.6387 L574,367.6387 L398,367.6387" fill="#FEFFDD" style="stroke:#181818;stroke-width:0.5;"/><path d="M574,367.6387 L574,377.6387 L584,377.6387 L574,367.6387" fill="#FEFFDD" style="stroke:#181818;stroke-width:0.5;"/><text fill="#000000" font-family="Segoe UI" font-size="13" lengthAdjust="spacing" textLength="165.9023" x="404" y="385.207">Merge changed fields only</text><g class="message" data-participant-1="Svc" data-participant-2="DB"><polygon fill="#7C3AED" points="546.0874,415.2598,556.0874,419.2598,546.0874,423.2598,550.0874,419.2598" style="stroke:#7C3AED;stroke-width:1;"/><line style="stroke:#7C3AED;stroke-width:1;" x1="393.7134" x2="552.0874" y1="419.2598" y2="419.2598"/><text fill="#000000" font-family="Segoe UI" font-size="13" lengthAdjust="spacing" textLength="109.4526" x="400.7134" y="414.5176">UPDATE ... SET ...</text></g><g class="message" data-participant-1="DB" data-participant-2="Svc"><polygon fill="#7C3AED" points="404.7134,444.5703,394.7134,448.5703,404.7134,452.5703,400.7134,448.5703" style="stroke:#7C3AED;stroke-width:1;"/><line style="stroke:#7C3AED;stroke-width:1;stroke-dasharray:2,2;" x1="398.7134" x2="562.0874" y1="448.5703" y2="448.5703"/><text fill="#000000" font-family="Segoe UI" font-size="13" lengthAdjust="spacing" textLength="80.2725" x="410.7134" y="443.8281">Updated row</text></g><g class="message" data-participant-1="Svc" data-participant-2="GW"><polygon fill="#7C3AED" points="266.4541,473.8809,256.4541,477.8809,266.4541,481.8809,262.4541,477.8809" style="stroke:#7C3AED;stroke-width:1;"/><line style="stroke:#7C3AED;stroke-width:1;stroke-dasharray:2,2;" x1="260.4541" x2="387.7134" y1="477.8809" y2="477.8809"/><text fill="#000000" font-family="Segoe UI" font-size="13" lengthAdjust="spacing" textLength="47.3599" x="272.4541" y="473.1387">200 OK</text></g><g class="message" data-participant-1="GW" data-participant-2="Client"><polygon fill="#7C3AED" points="42.7524,503.1914,32.7524,507.1914,42.7524,511.1914,38.7524,507.1914" style="stroke:#7C3AED;stroke-width:1;"/><line style="stroke:#7C3AED;stroke-width:1;stroke-dasharray:2,2;" x1="36.7524" x2="249.4541" y1="507.1914" y2="507.1914"/><text fill="#000000" font-family="Segoe UI" font-size="13" lengthAdjust="spacing" textLength="47.3599" x="48.7524" y="502.4492">200 OK</text></g><!--SRC=[ZLDTRzem57tthxYYptmKge4gCIc4XA5rBHhGFdHeClObM0qsimsqglhVPuSa3IjI1ozMpl4zvvvxRPw4t59DDx2ax2dHQYTvg5AbuIAE_9-Oac7MbAk3a0ciQ6gmWd1SqLrgOoNjBTqWrAQOA8Jvk5QzZdzsA1d2Am7t2xHMXrogopeKUVPvGhKLJ6ofj0EbEUgSqevwNuB11yg_fgDUV1NtCjgDME6Da7XI9cXt1jrsXW_KymaKN_RYrcK9VOWZZXsUmRVAdbPbtUwoKy7EHDc9kkID42jiYZ09Pk4tQAQAKIkKDCtNulXRyBTVShxbr28K7rs-behK4B9zRnrgOIfGsXfG0yVZAHnCnZ1oPGxq9UEC7k1YE8W2DzCJdjcpUg5KDwZtWg79Rapt31uVcnl1j2g0vbbwSx4eitVMwP8QjmKJPUneFCrg3GSkXZ2wYa92fCi8r1wrLt2fEOso4DsAynADjTsaS2_m04B2z42Jn1MOZnSBWfA3hqd8CGUeV_NTNd-ICw7CYhqFsaUJxw0xkjk-y-l_xVrYIorRbu2fQDHtsIJVB-MJ1BSTJbVx9s6iQw6qufKBByUWj4ZM5jGgDtLFKv5jHtuPbeg_4DBlmx08ljydn9DT8oxsQvX6Dr4uWqQZ0V7TJvXFXi4iUfUiZCOTwsNxuKvhdwPxfuHZXNxMrm_K2G9RKvaWXvN0b1jGCdqvzN8KpxnCeypJvqQEpu6VCN8iNOoxtMh1tVSgnU-NdwXZvAjnZZLw87y1]--></g></svg>