<svg xmlns="http://www.w3.org/2000/svg" xmlns:xlink="http://www.w3.org/1999/xlink" contentStyleType="text/css" data-diagram-type="SEQUENCE" height="791px" preserveAspectRatio="none" style="width:1024px;height:791px;background:#FEFEFE;" version="1.1" viewBox="0 0 1024 791" width="1024px" zoomAndPan="magnify"><title>POST /payments/{payment_id}/refund</title><defs/><g><rect fill="#FEFEFE" height="791" style="stroke:none;stroke-width:1;" width="1024" x="0" y="0"/><text fill="#000000" font-family="Segoe UI" font-size="14" font-weight="bold" lengthAdjust="spacing" textLength="277.9219" x="369.2908" y="41.3125">POST /payments/{payment_id}/refund</text><text fill="#000000" font-family="Segoe UI" font-size="14" font-weight="bold" lengthAdjust="spacing" textLength="116.2178" x="450.1428" y="57.8008">Initiate a refund</text><g><title>API Gateway</title><rect fill="#059669" height="493.6582" style="stroke:#A23B72;stroke-width:1;" width="10" x="291.9316" y="200.8633"/></g><g><title>svc-payments</title><rect fill="#059669" height="435.0371" style="stroke:#A23B72;stroke-width:1;" width="10" x="406.0664" y="230.1738"/></g><g><title>Payment Gateway</title><rect fill="#DBEAFE" height="29.3105" style="stroke:#A23B72;stroke-width:1;" width="10" x="605.7549" y="338.1055"/></g><g><title>PostgreSQL</title><rect fill="#FCE4EC" height="29.3105" style="stroke:#A23B72;stroke-width:1;" width="10" x="833.5732" y="440.0371"/></g><g><title>PostgreSQL</title><rect fill="#FCE4EC" height="29.3105" style="stroke:#A23B72;stroke-width:1;" width="10" x="833.5732" y="533.9688"/></g><g><title>Client</title><rect fill="#000000" fill-opacity="0.00000" height="578.2793" width="8" x="27.7524" y="134.2422"/><line style="stroke:#A23B72;stroke-width:0.5;stroke-dasharray:5,5;" x1="31" x2="31" y1="134.2422" y2="712.5215"/></g><g><title>API Gateway</title><rect fill="#000000" fill-opacity="0.00000" height="578.2793" width="8" x="292.9316" y="134.2422"/><line style="stroke:#A23B72;stroke-width:0.5;stroke-dasharray:5,5;" x1="296.6426" x2="296.6426" y1="134.2422" y2="712.5215"/></g><g><title>svc-payments</title><rect fill="#000000" fill-opacity="0.00000" height="578.2793" width="8" x="407.0664" y="134.2422"/><line style="stroke:#A23B72;stroke-width:0.5;stroke-dasharray:5,5;" x1="410.3447" x2="410.3447" y1="134.2422" y2="712.5215"/></g><g><title>Payment Gateway</title><rect fill="#000000" fill-opacity="0.00000" height="578.2793" width="8" x="606.7549" y="134.2422"/><line style="stroke:#A23B72;stroke-width:0.5;stroke-dasharray:5,5;" x1="610.3916" x2="610.3916" y1="134.2422" y2="712.5215"/></g><g><title>Notifications</title><rect fill="#000000" fill-opacity="0.00000" height="578.2793" width="8" x="733.1333" y="134.2422"/><line style="stroke:#A23B72;stroke-width:0.5;stroke-dasharray:5,5;" x1="737.1182" x2="737.1182" y1="134.2422" y2="712.5215"/></g><g><title>PostgreSQL</title><rect fill="#000000" fill-opacity="0.00000" height="578.2793" width="8" x="834.5732" y="134.2422"/><line style="stroke:#A23B72;stroke-width:0.5;stroke-dasharray:5,5;" x1="838.1484" x2="838.1484" y1="134.2422" y2="712.5215"/></g><g class="participant participant-head" data-participant="Client"><a href="/applications/" target="_top" title="/applications/" xlink:actuate="onRequest" xlink:href="/applications/" xlink:show="new" xlink:title="/applications/" xlink:type="simple"><rect fill="#E8F4F8" height="30.4883" rx="2.5" ry="2.5" style="stroke:#2E86AB;stroke-width:0.5;" width="53.5049" x="5" y="102.7539"/><text fill="#000000" font-family="Segoe UI" font-size="14" lengthAdjust="spacing" textLength="39.5049" x="12" y="123.2891">Client</text></a></g><g class="participant participant-tail" data-participant="Client"><a href="/applications/" target="_top" title="/applications/" xlink:actuate="onRequest" xlink:href="/applications/" xlink:show="new" xlink:title="/applications/" xlink:type="simple"><rect fill="#E8F4F8" height="30.4883" rx="2.5" ry="2.5" style="stroke:#2E86AB;stroke-width:0.5;" width="53.5049" x="5" y="711.5215"/><text fill="#000000" font-family="Segoe UI" font-size="14" lengthAdjust="spacing" textLength="39.5049" x="12" y="732.0566">Client</text></a></g><g class="participant participant-head" data-participant="GW"><rect fill="#DBEAFE" height="30.4883" rx="2.5" ry="2.5" style="stroke:#2E86AB;stroke-width:0.5;" width="96.5781" x="248.6426" y="102.7539"/><text fill="#000000" font-family="Segoe UI" font-size="14" lengthAdjust="spacing" textLength="82.5781" x="255.6426" y="123.2891">API Gateway</text></g><g class="participant participant-tail" data-participant="GW"><rect fill="#DBEAFE" height="30.4883" rx="2.5" ry="2.5" style="stroke:#2E86AB;stroke-width:0.5;" width="96.5781" x="248.6426" y="711.5215"/><text fill="#000000" font-family="Segoe UI" font-size="14" lengthAdjust="spacing" textLength="82.5781" x="255.6426" y="732.0566">API Gateway</text></g><g class="participant participant-head" data-participant="Svc"><a href="/microservices/svc-payments/" target="_top" title="/microservices/svc-payments/" xlink:actuate="onRequest" xlink:href="/microservices/svc-payments/" xlink:show="new" xlink:title="/microservices/svc-payments/" xlink:type="simple"><rect fill="#FFE0E0" height="30.4883" rx="2.5" ry="2.5" style="stroke:#2E86AB;stroke-width:0.5;" width="109.4434" x="356.3447" y="102.7539"/><text fill="#000000" font-family="Segoe UI" font-size="14" lengthAdjust="spacing" textLength="95.4434" x="363.3447" y="123.2891">svc-payments</text></a></g><g class="participant participant-tail" data-participant="Svc"><a href="/microservices/svc-payments/" target="_top" title="/microservices/svc-payments/" xlink:actuate="onRequest" xlink:href="/microservices/svc-payments/" xlink:show="new" xlink:title="/microservices/svc-payments/" xlink:type="simple"><rect fill="#FFE0E0" height="30.4883" rx="2.5" ry="2.5" style="stroke:#2E86AB;stroke-width:0.5;" width="109.4434" x="356.3447" y="711.5215"/><text fill="#000000" font-family="Segoe UI" font-size="14" lengthAdjust="spacing" textLength="95.4434" x="363.3447" y="732.0566">svc-payments</text></a></g><g class="participant participant-head" data-participant="PGW"><rect fill="#FFE0E0" height="30.4883" rx="2.5" ry="2.5" style="stroke:#2E86AB;stroke-width:0.5;" width="132.7266" x="544.3916" y="102.7539"/><text fill="#000000" font-family="Segoe UI" font-size="14" lengthAdjust="spacing" textLength="118.7266" x="551.3916" y="123.2891">Payment Gateway</text></g><g class="participant participant-tail" data-participant="PGW"><rect fill="#FFE0E0" height="30.4883" rx="2.5" ry="2.5" style="stroke:#2E86AB;stroke-width:0.5;" width="132.7266" x="544.3916" y="711.5215"/><text fill="#000000" font-family="Segoe UI" font-size="14" lengthAdjust="spacing" textLength="118.7266" x="551.3916" y="732.0566">Payment Gateway</text></g><g class="participant participant-head" data-participant="Ntfy"><a href="/microservices/svc-notifications/" target="_top" title="/microservices/svc-notifications/" xlink:actuate="onRequest" xlink:href="/microservices/svc-notifications/" xlink:show="new" xlink:title="/microservices/svc-notifications/" xlink:type="simple"><rect fill="#FFF8F0" height="30.4883" rx="2.5" ry="2.5" style="stroke:#2E86AB;stroke-width:0.5;" width="100.0303" x="687.1182" y="102.7539"/><text fill="#000000" font-family="Segoe UI" font-size="14" lengthAdjust="spacing" textLength="86.0303" x="694.1182" y="123.2891">Notifications</text></a></g><g class="participant participant-tail" data-participant="Ntfy"><a href="/microservices/svc-notifications/" target="_top" title="/microservices/svc-notifications/" xlink:actuate="onRequest" xlink:href="/microservices/svc-notifications/" xlink:show="new" xlink:title="/microservices/svc-notifications/" xlink:type="simple"><rect fill="#FFF8F0" height="30.4883" rx="2.5" ry="2.5" style="stroke:#2E86AB;stroke-width:0.5;" width="100.0303" x="687.1182" y="711.5215"/><text fill="#000000" font-family="Segoe UI" font-size="14" lengthAdjust="spacing" textLength="86.0303" x="694.1182" y="732.0566">Notifications</text></a></g><g class="participant participant-head" data-participant="DB"><text fill="#000000" font-family="Segoe UI" font-size="14" lengthAdjust="spacing" textLength="76.8496" x="797.1484" y="131.2891">PostgreSQL</text><path d="M820.5732,81.7539 C820.5732,71.7539 838.5732,71.7539 838.5732,71.7539 C838.5732,71.7539 856.5732,71.7539 856.5732,81.7539 L856.5732,107.7539 C856.5732,117.7539 838.5732,117.7539 838.5732,117.7539 C838.5732,117.7539 820.5732,117.7539 820.5732,107.7539 L820.5732,81.7539" fill="#FCE4EC" style="stroke:#181818;stroke-width:0.5;"/><path d="M820.5732,81.7539 C820.5732,91.7539 838.5732,91.7539 838.5732,91.7539 C838.5732,91.7539 856.5732,91.7539 856.5732,81.7539" fill="none" style="stroke:#181818;stroke-width:0.5;"/></g><g class="participant participant-tail" data-participant="DB"><text fill="#000000" font-family="Segoe UI" font-size="14" lengthAdjust="spacing" textLength="76.8496" x="797.1484" y="725.0566">PostgreSQL</text><path d="M820.5732,738.0098 C820.5732,728.0098 838.5732,728.0098 838.5732,728.0098 C838.5732,728.0098 856.5732,728.0098 856.5732,738.0098 L856.5732,764.0098 C856.5732,774.0098 838.5732,774.0098 838.5732,774.0098 C838.5732,774.0098 820.5732,774.0098 820.5732,764.0098 L820.5732,738.0098" fill="#FCE4EC" style="stroke:#181818;stroke-width:0.5;"/><path d="M820.5732,738.0098 C820.5732,748.0098 838.5732,748.0098 838.5732,748.0098 C838.5732,748.0098 856.5732,748.0098 856.5732,738.0098" fill="none" style="stroke:#181818;stroke-width:0.5;"/></g><g><title>API Gateway</title><rect fill="#059669" height="493.6582" style="stroke:#A23B72;stroke-width:1;" width="10" x="291.9316" y="200.8633"/></g><g><title>svc-payments</title><rect fill="#059669" height="435.0371" style="stroke:#A23B72;stroke-width:1;" width="10" x="406.0664" y="230.1738"/></g><g><title>Payment Gateway</title><rect fill="#DBEAFE" height="29.3105" style="stroke:#A23B72;stroke-width:1;" width="10" x="605.7549" y="338.1055"/></g><g><title>PostgreSQL</title><rect fill="#FCE4EC" height="29.3105" style="stroke:#A23B72;stroke-width:1;" width="10" x="833.5732" y="440.0371"/></g><g><title>PostgreSQL</title><rect fill="#FCE4EC" height="29.3105" style="stroke:#A23B72;stroke-width:1;" width="10" x="833.5732" y="533.9688"/></g><path d="M340,149.2422 L340,174.2422 L480,174.2422 L480,159.2422 L470,149.2422 L340,149.2422" fill="#FEFFDD" style="stroke:#181818;stroke-width:0.5;"/><path d="M470,149.2422 L470,159.2422 L480,159.2422 L470,149.2422" fill="#FEFFDD" style="stroke:#181818;stroke-width:0.5;"/><a href="/services/api/svc-payments.html#/Refunds/refundPayment" target="_top" title="/services/api/svc-payments.html#/Refunds/refundPayment" xlink:actuate="onRequest" xlink:href="/services/api/svc-payments.html#/Refunds/refundPayment" xlink:show="new" xlink:title="/services/api/svc-payments.html#/Refunds/refundPayment" xlink:type="simple"><text fill="#0000FF" font-family="Segoe UI" font-size="13" lengthAdjust="spacing" text-decoration="underline" textLength="119.4058" x="346" y="166.8105">View in Swagger UI</text></a><g class="message" data-participant-1="Client" data-participant-2="GW"><polygon fill="#059669" points="279.9316,196.8633,289.9316,200.8633,279.9316,204.8633,283.9316,200.8633" style="stroke:#059669;stroke-width:1;"/><line style="stroke:#059669;stroke-width:1;" x1="31.7524" x2="285.9316" y1="200.8633" y2="200.8633"/><text fill="#000000" font-family="Segoe UI" font-size="13" lengthAdjust="spacing" textLength="241.1792" x="38.7524" y="196.1211">POST /payments/{payment_id}/refund</text></g><g class="message" data-participant-1="GW" data-participant-2="Svc"><polygon fill="#059669" points="394.0664,226.1738,404.0664,230.1738,394.0664,234.1738,398.0664,230.1738" style="stroke:#059669;stroke-width:1;"/><line style="stroke:#059669;stroke-width:1;" x1="301.9316" x2="400.0664" y1="230.1738" y2="230.1738"/><text fill="#000000" font-family="Segoe UI" font-size="13" lengthAdjust="spacing" textLength="85.1348" x="308.9316" y="225.4316">route request</text></g><path d="M421,243.1738 L421,268.1738 L579,268.1738 L579,253.1738 L569,243.1738 L421,243.1738" fill="#FEFFDD" style="stroke:#181818;stroke-width:0.5;"/><path d="M569,243.1738 L569,253.1738 L579,253.1738 L569,243.1738" fill="#FEFFDD" style="stroke:#181818;stroke-width:0.5;"/><text fill="#000000" font-family="Segoe UI" font-size="13" lengthAdjust="spacing" textLength="137.5728" x="427" y="260.7422">Validate request body</text><rect fill="#EEEEEE" height="3" style="stroke:#EEEEEE;stroke-width:1;" width="1017.5034" x="0" y="294.1396"/><line style="stroke:#000000;stroke-width:1;" x1="0" x2="1017.5034" y1="294.1396" y2="294.1396"/><line style="stroke:#000000;stroke-width:1;" x1="0" x2="1017.5034" y1="297.1396" y2="297.1396"/><rect fill="#EEEEEE" height="23.3105" style="stroke:#000000;stroke-width:2;" width="190.6743" x="413.4146" y="283.4844"/><text fill="#000000" font-family="Segoe UI" font-size="13" font-weight="bold" lengthAdjust="spacing" textLength="172.3896" x="419.4146" y="300.0527">Cross-Service Integration</text><g class="message" data-participant-1="Svc" data-participant-2="PGW"><polygon fill="#DC2626" points="593.7549,334.1055,603.7549,338.1055,593.7549,342.1055,597.7549,338.1055" style="stroke:#DC2626;stroke-width:1;"/><line style="stroke:#DC2626;stroke-width:1;" x1="416.0664" x2="599.7549" y1="338.1055" y2="338.1055"/><text fill="#000000" font-family="Segoe UI" font-size="13" lengthAdjust="spacing" textLength="170.6885" x="423.0664" y="333.3633">Process refund via gateway</text></g><g class="message" data-participant-1="PGW" data-participant-2="Svc"><polygon fill="#DC2626" points="427.0664,363.416,417.0664,367.416,427.0664,371.416,423.0664,367.416" style="stroke:#DC2626;stroke-width:1;"/><line style="stroke:#DC2626;stroke-width:1;stroke-dasharray:2,2;" x1="421.0664" x2="609.7549" y1="367.416" y2="367.416"/><text fill="#000000" font-family="Segoe UI" font-size="13" lengthAdjust="spacing" textLength="18.5859" x="433.0664" y="362.6738">OK</text></g><rect fill="#EEEEEE" height="3" style="stroke:#EEEEEE;stroke-width:1;" width="1017.5034" x="0" y="396.0713"/><line style="stroke:#000000;stroke-width:1;" x1="0" x2="1017.5034" y1="396.0713" y2="396.0713"/><line style="stroke:#000000;stroke-width:1;" x1="0" x2="1017.5034" y1="399.0713" y2="399.0713"/><rect fill="#EEEEEE" height="23.3105" style="stroke:#000000;stroke-width:2;" width="80.3711" x="468.5662" y="385.416"/><text fill="#000000" font-family="Segoe UI" font-size="13" font-weight="bold" lengthAdjust="spacing" textLength="62.0864" x="474.5662" y="401.9844">Database</text><g class="message" data-participant-1="Svc" data-participant-2="DB"><polygon fill="#059669" points="821.5732,436.0371,831.5732,440.0371,821.5732,444.0371,825.5732,440.0371" style="stroke:#059669;stroke-width:1;"/><line style="stroke:#059669;stroke-width:1;" x1="416.0664" x2="827.5732" y1="440.0371" y2="440.0371"/><text fill="#000000" font-family="Segoe UI" font-size="13" lengthAdjust="spacing" textLength="177.4043" x="423.0664" y="435.2949">SELECT parent WHERE id = ?</text></g><g class="message" data-participant-1="DB" data-participant-2="Svc"><polygon fill="#059669" points="427.0664,465.3477,417.0664,469.3477,427.0664,473.3477,423.0664,469.3477" style="stroke:#059669;stroke-width:1;"/><line style="stroke:#059669;stroke-width:1;stroke-dasharray:2,2;" x1="421.0664" x2="837.5732" y1="469.3477" y2="469.3477"/><text fill="#000000" font-family="Segoe UI" font-size="13" lengthAdjust="spacing" textLength="67.2915" x="433.0664" y="464.6055">Parent row</text></g><path d="M843,482.3477 L843,507.3477 L1012,507.3477 L1012,492.3477 L1002,482.3477 L843,482.3477" fill="#FEFFDD" style="stroke:#181818;stroke-width:0.5;"/><path d="M1002,482.3477 L1002,492.3477 L1012,492.3477 L1002,482.3477" fill="#FEFFDD" style="stroke:#181818;stroke-width:0.5;"/><text fill="#000000" font-family="Segoe UI" font-size="13" lengthAdjust="spacing" textLength="148.5034" x="849" y="499.916">404 if parent not found</text><g class="message" data-participant-1="Svc" data-participant-2="DB"><polygon fill="#059669" points="821.5732,529.9688,831.5732,533.9688,821.5732,537.9688,825.5732,533.9688" style="stroke:#059669;stroke-width:1;"/><line style="stroke:#059669;stroke-width:1;" x1="416.0664" x2="827.5732" y1="533.9688" y2="533.9688"/><text fill="#000000" font-family="Segoe UI" font-size="13" lengthAdjust="spacing" textLength="96.0718" x="423.0664" y="529.2266">INSERT INTO ...</text></g><g class="message" data-participant-1="DB" data-participant-2="Svc"><polygon fill="#059669" points="427.0664,559.2793,417.0664,563.2793,427.0664,567.2793,423.0664,563.2793" style="stroke:#059669;stroke-width:1;"/><line style="stroke:#059669;stroke-width:1;stroke-dasharray:2,2;" x1="421.0664" x2="837.5732" y1="563.2793" y2="563.2793"/><text fill="#000000" font-family="Segoe UI" font-size="13" lengthAdjust="spacing" textLength="76.4575" x="433.0664" y="558.5371">Created row</text></g><rect fill="#EEEEEE" height="3" style="stroke:#EEEEEE;stroke-width:1;" width="1017.5034" x="0" y="591.9346"/><line style="stroke:#000000;stroke-width:1;" x1="0" x2="1017.5034" y1="591.9346" y2="591.9346"/><line style="stroke:#000000;stroke-width:1;" x1="0" x2="1017.5034" y1="594.9346" y2="594.9346"/><rect fill="#EEEEEE" height="23.3105" style="stroke:#000000;stroke-width:2;" width="106.8218" x="455.3408" y="581.2793"/><text fill="#000000" font-family="Segoe UI" font-size="13" font-weight="bold" lengthAdjust="spacing" textLength="88.5371" x="461.3408" y="597.8477">Async Events</text><g class="message" data-participant-1="Svc" data-participant-2="Ntfy"><line style="stroke:#059669;stroke-width:1;" x1="735.1333" x2="725.1333" y1="635.9004" y2="631.9004"/><line style="stroke:#059669;stroke-width:1;" x1="735.1333" x2="725.1333" y1="635.9004" y2="639.9004"/><line style="stroke:#059669;stroke-width:1;" x1="416.0664" x2="736.1333" y1="635.9004" y2="635.9004"/><a href="/microservices/svc-notifications/#post-notifications-send-a-notification" target="_top" title="/microservices/svc-notifications/#post-notifications-send-a-notification" xlink:actuate="onRequest" xlink:href="/microservices/svc-notifications/#post-notifications-send-a-notification" xlink:show="new" xlink:title="/microservices/svc-notifications/#post-notifications-send-a-notification" xlink:type="simple"><text fill="#0000FF" font-family="Segoe UI" font-size="13" lengthAdjust="spacing" text-decoration="underline" textLength="160.9385" x="423.0664" y="631.1582">Send refund confirmation</text></a></g><g class="message" data-participant-1="Svc" data-participant-2="GW"><polygon fill="#059669" points="312.9316,661.2109,302.9316,665.2109,312.9316,669.2109,308.9316,665.2109" style="stroke:#059669;stroke-width:1;"/><line style="stroke:#059669;stroke-width:1;stroke-dasharray:2,2;" x1="306.9316" x2="410.0664" y1="665.2109" y2="665.2109"/><text fill="#000000" font-family="Segoe UI" font-size="13" lengthAdjust="spacing" textLength="77.7969" x="318.9316" y="660.4688">201 Created</text></g><g class="message" data-participant-1="GW" data-participant-2="Client"><polygon fill="#059669" points="42.7524,690.5215,32.7524,694.5215,42.7524,698.5215,38.7524,694.5215" style="stroke:#059669;stroke-width:1;"/><line style="stroke:#059669;stroke-width:1;stroke-dasharray:2,2;" x1="36.7524" x2="295.9316" y1="694.5215" y2="694.5215"/><text fill="#000000" font-family="Segoe UI" font-size="13" lengthAdjust="spacing" textLength="77.7969" x="48.7524" y="689.7793">201 Created</text></g><a href="/microservices/svc-payments/#integration-context" target="_top" title="/microservices/svc-payments/#integration-context" xlink:actuate="onRequest" xlink:href="/microservices/svc-payments/#integration-context" xlink:show="new" xlink:title="/microservices/svc-payments/#integration-context" xlink:type="simple"><text fill="#0000FF" font-family="Segoe UI" font-size="10" lengthAdjust="spacing" text-decoration="underline" textLength="179.3457" x="837.1577" y="14.668">&#11014; svc-payments Integration Context</text></a><!--SRC=[ZLHHRzem47xthpYLvm2b7L0ac2243GrHrj3seKEJIPpKAiJCTg6ewkj-pNxLVidEJe2aPMh90vRlk_lkxhkpUk39YagwX3aD7c8f7fFG5GiXeJJmp4VK7g7kQIWsF8aXeWl5SfQGHVHneGSYqMEwP73YirWmk1wUvDtPhqUM10oU2U2lAwNOP5JLJnVr-eMzdb2fUS1NDD4z8KCcCqZDQzQxlJUGrqbxpS7ve6bX8nwn4KzO8KotTjPhrAoz9vuAfi5fSr0ztPlUj6CmGBirZuKkHWqQZVbPpdQabMTUWxmGSiyeki7TNMN90oaKasiUC5LHwy1PqUsI9LfLIZpHB9PKSv4u0JQLFMdu- -Stv54mF830JK6p6I6QwmM3oQK_XSe-udDs-id3bufa4QRs8nacN7Eg6L18hmXP7LeB9-w2eyi9K0NfqQHDLwi53oohgY1VmQCx6S8NZBYXM-lsvHPA_PxNnJ4guF9rMA2_3jxfoMnc9F2gNhKOQf822hGJmtiCZEBmQ9UzXOvrj3tEdEIn6RsTW91gEgSAftmYb8ubyx-FRAn-3p6kT-wvXA0t0x56gR4q70oas4UdArwehNolbujIvSfge39vTdNTSBO1de2_eN6CuQw7s7IMX60O2Cc4SJgcrwqFo4veeFdQg6wQb2qU7Z624Q45EBTeb6PPbJwWZN47JwkJFBxN8ABCxuOkU4WFhZ0NuPQGTXjSxAno_BJymjYssuGOR-Ukr7ThzLfzrh7YOI5IOAjKDfYmvXJYLE53IfFSU9cpam-J9dNvZOGixs0JwkyKtFDtZ7WjyBsHvqu1PyOqzVQhT-K13w4Ddm-iEPNnwEpxDacTy57BK_PxhvfbUSwhvy2Z7Gy2819s__B93CU-TpN5l-abbClbzpDm9KDpU2G5KtHNRPC0lBLzEmw5Tz8LQ7ra2Keh7FZYdQDm5XrQk0JVp6Uc73vV4PTBQp3FasNTZMkjUhhBEf-nMHchPsVtyFmNYeh-0m00]--></g></svg>