<svg xmlns="http://www.w3.org/2000/svg" xmlns:xlink="http://www.w3.org/1999/xlink" contentStyleType="text/css" data-diagram-type="SEQUENCE" height="474px" preserveAspectRatio="none" style="width:666px;height:474px;background:#FEFEFE;" version="1.1" viewBox="0 0 666 474" width="666px" zoomAndPan="magnify"><title>GET /trips/{trip_id}/requirements</title><defs/><g><rect fill="#FEFEFE" height="474" style="stroke:none;stroke-width:1;" width="666" x="0" y="0"/><text fill="#000000" font-family="Segoe UI" font-size="14" font-weight="bold" lengthAdjust="spacing" textLength="244.4463" x="206.8679" y="28.5352">GET /trips/{trip_id}/requirements</text><text fill="#000000" font-family="Segoe UI" font-size="14" font-weight="bold" lengthAdjust="spacing" textLength="156.1328" x="251.0247" y="45.0234">Get trip requirements</text><g><title>API Gateway</title><rect fill="#2563EB" height="189.8633" style="stroke:#A23B72;stroke-width:1;" width="10" x="261.812" y="188.0859"/></g><g><title>svc-trip-catalog</title><rect fill="#2563EB" height="131.2422" style="stroke:#A23B72;stroke-width:1;" width="10" x="382.5132" y="217.3965"/></g><g><title>PostgreSQL</title><rect fill="#FCE4EC" height="29.3105" style="stroke:#A23B72;stroke-width:1;" width="10" x="607.7573" y="290.0176"/></g><g><title>Client</title><rect fill="#000000" fill-opacity="0.00000" height="274.4844" width="8" x="27.7524" y="121.4648"/><line style="stroke:#A23B72;stroke-width:0.5;stroke-dasharray:5,5;" x1="31" x2="31" y1="121.4648" y2="395.9492"/></g><g><title>API Gateway</title><rect fill="#000000" fill-opacity="0.00000" height="274.4844" width="8" x="262.812" y="121.4648"/><line style="stroke:#A23B72;stroke-width:0.5;stroke-dasharray:5,5;" x1="266.5229" x2="266.5229" y1="121.4648" y2="395.9492"/></g><g><title>svc-trip-catalog</title><rect fill="#000000" fill-opacity="0.00000" height="274.4844" width="8" x="383.5132" y="121.4648"/><line style="stroke:#A23B72;stroke-width:0.5;stroke-dasharray:5,5;" x1="387.1011" x2="387.1011" y1="121.4648" y2="395.9492"/></g><g><title>PostgreSQL</title><rect fill="#000000" fill-opacity="0.00000" height="274.4844" width="8" x="608.7573" y="121.4648"/><line style="stroke:#A23B72;stroke-width:0.5;stroke-dasharray:5,5;" x1="612.3325" x2="612.3325" y1="121.4648" y2="395.9492"/></g><g class="participant participant-head" data-participant="Client"><rect fill="#E8F4F8" height="30.4883" rx="2.5" ry="2.5" style="stroke:#2E86AB;stroke-width:0.5;" width="53.5049" x="5" y="89.9766"/><text fill="#000000" font-family="Segoe UI" font-size="14" lengthAdjust="spacing" textLength="39.5049" x="12" y="110.5117">Client</text></g><g class="participant participant-tail" data-participant="Client"><rect fill="#E8F4F8" height="30.4883" rx="2.5" ry="2.5" style="stroke:#2E86AB;stroke-width:0.5;" width="53.5049" x="5" y="394.9492"/><text fill="#000000" font-family="Segoe UI" font-size="14" lengthAdjust="spacing" textLength="39.5049" x="12" y="415.4844">Client</text></g><g class="participant participant-head" data-participant="GW"><rect fill="#DBEAFE" height="30.4883" rx="2.5" ry="2.5" style="stroke:#2E86AB;stroke-width:0.5;" width="96.5781" x="218.5229" y="89.9766"/><text fill="#000000" font-family="Segoe UI" font-size="14" lengthAdjust="spacing" textLength="82.5781" x="225.5229" y="110.5117">API Gateway</text></g><g class="participant participant-tail" data-participant="GW"><rect fill="#DBEAFE" height="30.4883" rx="2.5" ry="2.5" style="stroke:#2E86AB;stroke-width:0.5;" width="96.5781" x="218.5229" y="394.9492"/><text fill="#000000" font-family="Segoe UI" font-size="14" lengthAdjust="spacing" textLength="82.5781" x="225.5229" y="415.4844">API Gateway</text></g><g class="participant participant-head" data-participant="Svc"><a href="/microservices/svc-trip-catalog/" target="_top" title="/microservices/svc-trip-catalog/" xlink:actuate="onRequest" xlink:href="/microservices/svc-trip-catalog/" xlink:show="new" xlink:title="/microservices/svc-trip-catalog/" xlink:type="simple"><rect fill="#E8F4F8" height="30.4883" rx="2.5" ry="2.5" style="stroke:#2E86AB;stroke-width:0.5;" width="124.8242" x="325.1011" y="89.9766"/><text fill="#000000" font-family="Segoe UI" font-size="14" lengthAdjust="spacing" textLength="110.8242" x="332.1011" y="110.5117">svc-trip-catalog</text></a></g><g class="participant participant-tail" data-participant="Svc"><a href="/microservices/svc-trip-catalog/" target="_top" title="/microservices/svc-trip-catalog/" xlink:actuate="onRequest" xlink:href="/microservices/svc-trip-catalog/" xlink:show="new" xlink:title="/microservices/svc-trip-catalog/" xlink:type="simple"><rect fill="#E8F4F8" height="30.4883" rx="2.5" ry="2.5" style="stroke:#2E86AB;stroke-width:0.5;" width="124.8242" x="325.1011" y="394.9492"/><text fill="#000000" font-family="Segoe UI" font-size="14" lengthAdjust="spacing" textLength="110.8242" x="332.1011" y="415.4844">svc-trip-catalog</text></a></g><g class="participant participant-head" data-participant="DB"><text fill="#000000" font-family="Segoe UI" font-size="14" lengthAdjust="spacing" textLength="76.8496" x="571.3325" y="118.5117">PostgreSQL</text><path d="M594.7573,68.9766 C594.7573,58.9766 612.7573,58.9766 612.7573,58.9766 C612.7573,58.9766 630.7573,58.9766 630.7573,68.9766 L630.7573,94.9766 C630.7573,104.9766 612.7573,104.9766 612.7573,104.9766 C612.7573,104.9766 594.7573,104.9766 594.7573,94.9766 L594.7573,68.9766" fill="#FCE4EC" style="stroke:#181818;stroke-width:0.5;"/><path d="M594.7573,68.9766 C594.7573,78.9766 612.7573,78.9766 612.7573,78.9766 C612.7573,78.9766 630.7573,78.9766 630.7573,68.9766" fill="none" style="stroke:#181818;stroke-width:0.5;"/></g><g class="participant participant-tail" data-participant="DB"><text fill="#000000" font-family="Segoe UI" font-size="14" lengthAdjust="spacing" textLength="76.8496" x="571.3325" y="408.4844">PostgreSQL</text><path d="M594.7573,421.4375 C594.7573,411.4375 612.7573,411.4375 612.7573,411.4375 C612.7573,411.4375 630.7573,411.4375 630.7573,421.4375 L630.7573,447.4375 C630.7573,457.4375 612.7573,457.4375 612.7573,457.4375 C612.7573,457.4375 594.7573,457.4375 594.7573,447.4375 L594.7573,421.4375" fill="#FCE4EC" style="stroke:#181818;stroke-width:0.5;"/><path d="M594.7573,421.4375 C594.7573,431.4375 612.7573,431.4375 612.7573,431.4375 C612.7573,431.4375 630.7573,431.4375 630.7573,421.4375" fill="none" style="stroke:#181818;stroke-width:0.5;"/></g><g><title>API Gateway</title><rect fill="#2563EB" height="189.8633" style="stroke:#A23B72;stroke-width:1;" width="10" x="261.812" y="188.0859"/></g><g><title>svc-trip-catalog</title><rect fill="#2563EB" height="131.2422" style="stroke:#A23B72;stroke-width:1;" width="10" x="382.5132" y="217.3965"/></g><g><title>PostgreSQL</title><rect fill="#FCE4EC" height="29.3105" style="stroke:#A23B72;stroke-width:1;" width="10" x="607.7573" y="290.0176"/></g><path d="M317,136.4648 L317,161.4648 L457,161.4648 L457,146.4648 L447,136.4648 L317,136.4648" fill="#FEFFDD" style="stroke:#181818;stroke-width:0.5;"/><path d="M447,136.4648 L447,146.4648 L457,146.4648 L447,136.4648" fill="#FEFFDD" style="stroke:#181818;stroke-width:0.5;"/><a href="/services/api/svc-trip-catalog.html#/Requirements/getTripRequirements" target="_top" title="/services/api/svc-trip-catalog.html#/Requirements/getTripRequirements" xlink:actuate="onRequest" xlink:href="/services/api/svc-trip-catalog.html#/Requirements/getTripRequirements" xlink:show="new" xlink:title="/services/api/svc-trip-catalog.html#/Requirements/getTripRequirements" xlink:type="simple"><text fill="#0000FF" font-family="Segoe UI" font-size="13" lengthAdjust="spacing" text-decoration="underline" textLength="119.4058" x="323" y="154.0332">View in Swagger UI</text></a><g class="message" data-participant-1="Client" data-participant-2="GW"><polygon fill="#2563EB" points="249.812,184.0859,259.812,188.0859,249.812,192.0859,253.812,188.0859" style="stroke:#2563EB;stroke-width:1;"/><line style="stroke:#2563EB;stroke-width:1;" x1="31.7524" x2="255.812" y1="188.0859" y2="188.0859"/><text fill="#000000" font-family="Segoe UI" font-size="13" lengthAdjust="spacing" textLength="211.0596" x="38.7524" y="183.3438">GET /trips/{trip_id}/requirements</text></g><g class="message" data-participant-1="GW" data-participant-2="Svc"><polygon fill="#2563EB" points="370.5132,213.3965,380.5132,217.3965,370.5132,221.3965,374.5132,217.3965" style="stroke:#2563EB;stroke-width:1;"/><line style="stroke:#2563EB;stroke-width:1;" x1="271.812" x2="376.5132" y1="217.3965" y2="217.3965"/><a href="/microservices/svc-trip-catalog/#get-tripstrip_idrequirements-get-trip-requirements" target="_top" title="/microservices/svc-trip-catalog/#get-tripstrip_idrequirements-get-trip-requirements" xlink:actuate="onRequest" xlink:href="/microservices/svc-trip-catalog/#get-tripstrip_idrequirements-get-trip-requirements" xlink:show="new" xlink:title="/microservices/svc-trip-catalog/#get-tripstrip_idrequirements-get-trip-requirements" xlink:type="simple"><text fill="#0000FF" font-family="Segoe UI" font-size="13" lengthAdjust="spacing" text-decoration="underline" textLength="85.1348" x="278.812" y="212.6543">route request</text></a></g><rect fill="#EEEEEE" height="3" style="stroke:#EEEEEE;stroke-width:1;" width="659.1821" x="0" y="246.0518"/><line style="stroke:#000000;stroke-width:1;" x1="0" x2="659.1821" y1="246.0518" y2="246.0518"/><line style="stroke:#000000;stroke-width:1;" x1="0" x2="659.1821" y1="249.0518" y2="249.0518"/><rect fill="#EEEEEE" height="23.3105" style="stroke:#000000;stroke-width:2;" width="80.3711" x="289.4055" y="235.3965"/><text fill="#000000" font-family="Segoe UI" font-size="13" font-weight="bold" lengthAdjust="spacing" textLength="62.0864" x="295.4055" y="251.9648">Database</text><g class="message" data-participant-1="Svc" data-participant-2="DB"><polygon fill="#2563EB" points="595.7573,286.0176,605.7573,290.0176,595.7573,294.0176,599.7573,290.0176" style="stroke:#2563EB;stroke-width:1;"/><line style="stroke:#2563EB;stroke-width:1;" x1="392.5132" x2="601.7573" y1="290.0176" y2="290.0176"/><text fill="#000000" font-family="Segoe UI" font-size="13" lengthAdjust="spacing" textLength="196.2441" x="399.5132" y="285.2754">SELECT ... WHERE parent_id = ?</text></g><g class="message" data-participant-1="DB" data-participant-2="Svc"><polygon fill="#2563EB" points="403.5132,315.3281,393.5132,319.3281,403.5132,323.3281,399.5132,319.3281" style="stroke:#2563EB;stroke-width:1;"/><line style="stroke:#2563EB;stroke-width:1;stroke-dasharray:2,2;" x1="397.5132" x2="611.7573" y1="319.3281" y2="319.3281"/><text fill="#000000" font-family="Segoe UI" font-size="13" lengthAdjust="spacing" textLength="57.8843" x="409.5132" y="314.5859">ResultSet</text></g><g class="message" data-participant-1="Svc" data-participant-2="GW"><polygon fill="#2563EB" points="282.812,344.6387,272.812,348.6387,282.812,352.6387,278.812,348.6387" style="stroke:#2563EB;stroke-width:1;"/><line style="stroke:#2563EB;stroke-width:1;stroke-dasharray:2,2;" x1="276.812" x2="386.5132" y1="348.6387" y2="348.6387"/><text fill="#000000" font-family="Segoe UI" font-size="13" lengthAdjust="spacing" textLength="47.3599" x="288.812" y="343.8965">200 OK</text></g><g class="message" data-participant-1="GW" data-participant-2="Client"><polygon fill="#2563EB" points="42.7524,373.9492,32.7524,377.9492,42.7524,381.9492,38.7524,377.9492" style="stroke:#2563EB;stroke-width:1;"/><line style="stroke:#2563EB;stroke-width:1;stroke-dasharray:2,2;" x1="36.7524" x2="265.812" y1="377.9492" y2="377.9492"/><text fill="#000000" font-family="Segoe UI" font-size="13" lengthAdjust="spacing" textLength="47.3599" x="48.7524" y="373.207">200 OK</text></g><!--SRC=[ZPFHRzem4CRV_LUSu3c4GbSG4fi8E0mDTOpGyT2XoIH7QZN4p3QmgUh_ldCAD9HA6pnWtVVntVbtYNcK-KPeiOQbY1zJhRPvqbUPqb0DkVioStAO1v6elSnJM8dCO4b9S2MscGrLRc_56g4IOQeGxaQLyj_nrnRp6E690NrwMglzeLNZmqqJbqLv8hILiTo8t0PA9wYF5jw-wGKNbhT3ytPu7ROBsrYkS2npF8lfDPf1gr7eWVfz9eLNxR1-TP8kS8GXwOLyg-nvQjngBPibxHsKJTvYpunPQJE48P-1RxNS6F_9_VoKoRElYO_KkCRScX_v42qu2SfbnZQlTuTAFvDKhO0my78ybtkJ4Go5nRtuKtY6SwWE0jwZfPxvp2xsN2il5bPaAYtCqIw6-tj_BMEj3EgTZD7uRvt-Od52db1fAGmjVwACJJL6tyP5qY0W07r-pVkCvKG7r0wrooTUrE4KBZRoea7jmQwpgZyjCV1Jj3Eob6lmNU8UP0xHNgGffT-D5Wk6UGAk8MClTC3xw1Xq_esVYTZA7Q4hc1sUJZfIWEFI-GyoLHgpg9X3XtA-TnIzSXNeaQ6MheJ6qWLEKxYcnp5Ojmk38-jkbp4dqc24kGCH7_F-36gr6im_yoa7MZH5KtlemgVNmD9EwEYTxZL5G-znX9ObM38VcXpvDUfr-FgbR77RT7p8SM3zdciuPty1]--></g></svg>