<svg xmlns="http://www.w3.org/2000/svg" xmlns:xlink="http://www.w3.org/1999/xlink" contentStyleType="text/css" data-diagram-type="SEQUENCE" height="474px" preserveAspectRatio="none" style="width:716px;height:474px;background:#FEFEFE;" version="1.1" viewBox="0 0 716 474" width="716px" zoomAndPan="magnify"><title>GET /guides/{guide_id}/certifications</title><defs/><g><rect fill="#FEFEFE" height="474" style="stroke:none;stroke-width:1;" width="716" x="0" y="0"/><text fill="#000000" font-family="Segoe UI" font-size="14" font-weight="bold" lengthAdjust="spacing" textLength="271.4756" x="218.7004" y="28.5352">GET /guides/{guide_id}/certifications</text><text fill="#000000" font-family="Segoe UI" font-size="14" font-weight="bold" lengthAdjust="spacing" textLength="170.5361" x="269.1702" y="45.0234">List guide certifications</text><g><title>API Gateway</title><rect fill="#2563EB" height="189.8633" style="stroke:#A23B72;stroke-width:1;" width="10" x="285.73" y="188.0859"/></g><g><title>svc-guide-management</title><rect fill="#2563EB" height="131.2422" style="stroke:#A23B72;stroke-width:1;" width="10" x="433.2075" y="217.3965"/></g><g><title>PostgreSQL</title><rect fill="#FCE4EC" height="29.3105" style="stroke:#A23B72;stroke-width:1;" width="10" x="658.4517" y="290.0176"/></g><g><title>Client</title><rect fill="#000000" fill-opacity="0.00000" height="274.4844" width="8" x="27.7524" y="121.4648"/><line style="stroke:#A23B72;stroke-width:0.5;stroke-dasharray:5,5;" x1="31" x2="31" y1="121.4648" y2="395.9492"/></g><g><title>API Gateway</title><rect fill="#000000" fill-opacity="0.00000" height="274.4844" width="8" x="286.73" y="121.4648"/><line style="stroke:#A23B72;stroke-width:0.5;stroke-dasharray:5,5;" x1="290.4409" x2="290.4409" y1="121.4648" y2="395.9492"/></g><g><title>svc-guide-management</title><rect fill="#000000" fill-opacity="0.00000" height="274.4844" width="8" x="434.2075" y="121.4648"/><line style="stroke:#A23B72;stroke-width:0.5;stroke-dasharray:5,5;" x1="438.019" x2="438.019" y1="121.4648" y2="395.9492"/></g><g><title>PostgreSQL</title><rect fill="#000000" fill-opacity="0.00000" height="274.4844" width="8" x="659.4517" y="121.4648"/><line style="stroke:#A23B72;stroke-width:0.5;stroke-dasharray:5,5;" x1="663.0269" x2="663.0269" y1="121.4648" y2="395.9492"/></g><g class="participant participant-head" data-participant="Client"><rect fill="#E8F4F8" height="30.4883" rx="2.5" ry="2.5" style="stroke:#2E86AB;stroke-width:0.5;" width="53.5049" x="5" y="89.9766"/><text fill="#000000" font-family="Segoe UI" font-size="14" lengthAdjust="spacing" textLength="39.5049" x="12" y="110.5117">Client</text></g><g class="participant participant-tail" data-participant="Client"><rect fill="#E8F4F8" height="30.4883" rx="2.5" ry="2.5" style="stroke:#2E86AB;stroke-width:0.5;" width="53.5049" x="5" y="394.9492"/><text fill="#000000" font-family="Segoe UI" font-size="14" lengthAdjust="spacing" textLength="39.5049" x="12" y="415.4844">Client</text></g><g class="participant participant-head" data-participant="GW"><rect fill="#DBEAFE" height="30.4883" rx="2.5" ry="2.5" style="stroke:#2E86AB;stroke-width:0.5;" width="96.5781" x="242.4409" y="89.9766"/><text fill="#000000" font-family="Segoe UI" font-size="14" lengthAdjust="spacing" textLength="82.5781" x="249.4409" y="110.5117">API Gateway</text></g><g class="participant participant-tail" data-participant="GW"><rect fill="#DBEAFE" height="30.4883" rx="2.5" ry="2.5" style="stroke:#2E86AB;stroke-width:0.5;" width="96.5781" x="242.4409" y="394.9492"/><text fill="#000000" font-family="Segoe UI" font-size="14" lengthAdjust="spacing" textLength="82.5781" x="249.4409" y="415.4844">API Gateway</text></g><g class="participant participant-head" data-participant="Svc"><a href="/microservices/svc-guide-management/" target="_top" title="/microservices/svc-guide-management/" xlink:actuate="onRequest" xlink:href="/microservices/svc-guide-management/" xlink:show="new" xlink:title="/microservices/svc-guide-management/" xlink:type="simple"><rect fill="#E8F4F8" height="30.4883" rx="2.5" ry="2.5" style="stroke:#2E86AB;stroke-width:0.5;" width="178.377" x="349.019" y="89.9766"/><text fill="#000000" font-family="Segoe UI" font-size="14" lengthAdjust="spacing" textLength="164.377" x="356.019" y="110.5117">svc-guide-management</text></a></g><g class="participant participant-tail" data-participant="Svc"><a href="/microservices/svc-guide-management/" target="_top" title="/microservices/svc-guide-management/" xlink:actuate="onRequest" xlink:href="/microservices/svc-guide-management/" xlink:show="new" xlink:title="/microservices/svc-guide-management/" xlink:type="simple"><rect fill="#E8F4F8" height="30.4883" rx="2.5" ry="2.5" style="stroke:#2E86AB;stroke-width:0.5;" width="178.377" x="349.019" y="394.9492"/><text fill="#000000" font-family="Segoe UI" font-size="14" lengthAdjust="spacing" textLength="164.377" x="356.019" y="415.4844">svc-guide-management</text></a></g><g class="participant participant-head" data-participant="DB"><text fill="#000000" font-family="Segoe UI" font-size="14" lengthAdjust="spacing" textLength="76.8496" x="622.0269" y="118.5117">PostgreSQL</text><path d="M645.4517,68.9766 C645.4517,58.9766 663.4517,58.9766 663.4517,58.9766 C663.4517,58.9766 681.4517,58.9766 681.4517,68.9766 L681.4517,94.9766 C681.4517,104.9766 663.4517,104.9766 663.4517,104.9766 C663.4517,104.9766 645.4517,104.9766 645.4517,94.9766 L645.4517,68.9766" fill="#FCE4EC" style="stroke:#181818;stroke-width:0.5;"/><path d="M645.4517,68.9766 C645.4517,78.9766 663.4517,78.9766 663.4517,78.9766 C663.4517,78.9766 681.4517,78.9766 681.4517,68.9766" fill="none" style="stroke:#181818;stroke-width:0.5;"/></g><g class="participant participant-tail" data-participant="DB"><text fill="#000000" font-family="Segoe UI" font-size="14" lengthAdjust="spacing" textLength="76.8496" x="622.0269" y="408.4844">PostgreSQL</text><path d="M645.4517,421.4375 C645.4517,411.4375 663.4517,411.4375 663.4517,411.4375 C663.4517,411.4375 681.4517,411.4375 681.4517,421.4375 L681.4517,447.4375 C681.4517,457.4375 663.4517,457.4375 663.4517,457.4375 C663.4517,457.4375 645.4517,457.4375 645.4517,447.4375 L645.4517,421.4375" fill="#FCE4EC" style="stroke:#181818;stroke-width:0.5;"/><path d="M645.4517,421.4375 C645.4517,431.4375 663.4517,431.4375 663.4517,431.4375 C663.4517,431.4375 681.4517,431.4375 681.4517,421.4375" fill="none" style="stroke:#181818;stroke-width:0.5;"/></g><g><title>API Gateway</title><rect fill="#2563EB" height="189.8633" style="stroke:#A23B72;stroke-width:1;" width="10" x="285.73" y="188.0859"/></g><g><title>svc-guide-management</title><rect fill="#2563EB" height="131.2422" style="stroke:#A23B72;stroke-width:1;" width="10" x="433.2075" y="217.3965"/></g><g><title>PostgreSQL</title><rect fill="#FCE4EC" height="29.3105" style="stroke:#A23B72;stroke-width:1;" width="10" x="658.4517" y="290.0176"/></g><path d="M368,136.4648 L368,161.4648 L508,161.4648 L508,146.4648 L498,136.4648 L368,136.4648" fill="#FEFFDD" style="stroke:#181818;stroke-width:0.5;"/><path d="M498,136.4648 L498,146.4648 L508,146.4648 L498,136.4648" fill="#FEFFDD" style="stroke:#181818;stroke-width:0.5;"/><a href="/services/api/svc-guide-management.html#/Certifications/getGuideCertifications" target="_top" title="/services/api/svc-guide-management.html#/Certifications/getGuideCertifications" xlink:actuate="onRequest" xlink:href="/services/api/svc-guide-management.html#/Certifications/getGuideCertifications" xlink:show="new" xlink:title="/services/api/svc-guide-management.html#/Certifications/getGuideCertifications" xlink:type="simple"><text fill="#0000FF" font-family="Segoe UI" font-size="13" lengthAdjust="spacing" text-decoration="underline" textLength="119.4058" x="374" y="154.0332">View in Swagger UI</text></a><g class="message" data-participant-1="Client" data-participant-2="GW"><polygon fill="#2563EB" points="273.73,184.0859,283.73,188.0859,273.73,192.0859,277.73,188.0859" style="stroke:#2563EB;stroke-width:1;"/><line style="stroke:#2563EB;stroke-width:1;" x1="31.7524" x2="279.73" y1="188.0859" y2="188.0859"/><text fill="#000000" font-family="Segoe UI" font-size="13" lengthAdjust="spacing" textLength="234.9775" x="38.7524" y="183.3438">GET /guides/{guide_id}/certifications</text></g><g class="message" data-participant-1="GW" data-participant-2="Svc"><polygon fill="#2563EB" points="421.2075,213.3965,431.2075,217.3965,421.2075,221.3965,425.2075,217.3965" style="stroke:#2563EB;stroke-width:1;"/><line style="stroke:#2563EB;stroke-width:1;" x1="295.73" x2="427.2075" y1="217.3965" y2="217.3965"/><a href="/microservices/svc-guide-management/#get-guidesguide_idcertifications-list-guide-certifications" target="_top" title="/microservices/svc-guide-management/#get-guidesguide_idcertifications-list-guide-certifications" xlink:actuate="onRequest" xlink:href="/microservices/svc-guide-management/#get-guidesguide_idcertifications-list-guide-certifications" xlink:show="new" xlink:title="/microservices/svc-guide-management/#get-guidesguide_idcertifications-list-guide-certifications" xlink:type="simple"><text fill="#0000FF" font-family="Segoe UI" font-size="13" lengthAdjust="spacing" text-decoration="underline" textLength="85.1348" x="302.73" y="212.6543">route request</text></a></g><rect fill="#EEEEEE" height="3" style="stroke:#EEEEEE;stroke-width:1;" width="709.8765" x="0" y="246.0518"/><line style="stroke:#000000;stroke-width:1;" x1="0" x2="709.8765" y1="246.0518" y2="246.0518"/><line style="stroke:#000000;stroke-width:1;" x1="0" x2="709.8765" y1="249.0518" y2="249.0518"/><rect fill="#EEEEEE" height="23.3105" style="stroke:#000000;stroke-width:2;" width="80.3711" x="314.7527" y="235.3965"/><text fill="#000000" font-family="Segoe UI" font-size="13" font-weight="bold" lengthAdjust="spacing" textLength="62.0864" x="320.7527" y="251.9648">Database</text><g class="message" data-participant-1="Svc" data-participant-2="DB"><polygon fill="#2563EB" points="646.4517,286.0176,656.4517,290.0176,646.4517,294.0176,650.4517,290.0176" style="stroke:#2563EB;stroke-width:1;"/><line style="stroke:#2563EB;stroke-width:1;" x1="443.2075" x2="652.4517" y1="290.0176" y2="290.0176"/><text fill="#000000" font-family="Segoe UI" font-size="13" lengthAdjust="spacing" textLength="196.2441" x="450.2075" y="285.2754">SELECT ... WHERE parent_id = ?</text></g><g class="message" data-participant-1="DB" data-participant-2="Svc"><polygon fill="#2563EB" points="454.2075,315.3281,444.2075,319.3281,454.2075,323.3281,450.2075,319.3281" style="stroke:#2563EB;stroke-width:1;"/><line style="stroke:#2563EB;stroke-width:1;stroke-dasharray:2,2;" x1="448.2075" x2="662.4517" y1="319.3281" y2="319.3281"/><text fill="#000000" font-family="Segoe UI" font-size="13" lengthAdjust="spacing" textLength="57.8843" x="460.2075" y="314.5859">ResultSet</text></g><g class="message" data-participant-1="Svc" data-participant-2="GW"><polygon fill="#2563EB" points="306.73,344.6387,296.73,348.6387,306.73,352.6387,302.73,348.6387" style="stroke:#2563EB;stroke-width:1;"/><line style="stroke:#2563EB;stroke-width:1;stroke-dasharray:2,2;" x1="300.73" x2="437.2075" y1="348.6387" y2="348.6387"/><text fill="#000000" font-family="Segoe UI" font-size="13" lengthAdjust="spacing" textLength="47.3599" x="312.73" y="343.8965">200 OK</text></g><g class="message" data-participant-1="GW" data-participant-2="Client"><polygon fill="#2563EB" points="42.7524,373.9492,32.7524,377.9492,42.7524,381.9492,38.7524,377.9492" style="stroke:#2563EB;stroke-width:1;"/><line style="stroke:#2563EB;stroke-width:1;stroke-dasharray:2,2;" x1="36.7524" x2="289.73" y1="377.9492" y2="377.9492"/><text fill="#000000" font-family="Segoe UI" font-size="13" lengthAdjust="spacing" textLength="47.3599" x="48.7524" y="373.207">200 OK</text></g><!--SRC=[ZLFHRjem57ttLrp1CuH2Ln0IcqX8M3NKigOT3nsQJ799hGQRsGOsLVtttGII9YiFJHvY-PpSStpkjNaMSiirty2AHy-9LZiPUofL6fg1dxtCb0ppn6Dr43A1DKyDLf0OrtoNsa19UyCt28qG4uNmSDse_ew_ToWZX1S6z8orLeUJLFVJLGzN-VQSQoiYiUNIkah7g0kAFxWQk-ye_vls1y5bCCXfCx76cP1OApFkzjn-DyTTzQS61HU3e7DHGk_Y20B2S_X6sNhLgDzVzIhOcIXxVf-zCcQ5JH6c_ZquoKx4Q9oN_FjBnAzEX7ImjOYu5KgQdt8cZ8KSXZh4sFOj0sXugK1f6y0D79TrU3o_XYctUE1_Syvq0Ss9wu-fkJMUsKUjNAsruP8dk2cAXli87X-TZOYqCgZt8YBVvzZESbcs8EQMhxYXOPWhOnEDuVTPNctYKY2UV-bxZ4bA2zGUTQP1-P5AAS2tugn8-ybkqgRZrH9n4hJJZ5ZVXXy23o0aX0UU92JpSBrSCfGnPCgC7UE2rkSibE77-i9uPCMUyio3F8qkBQb85jJmWr4roV5nrnHATPrMIkq__LT7W6QBv7LseOob0vMECWE59JOQmQHemcZ4M0QIISf_2A4_yxrxQBVRiFZgt_b0aq2ko0ICuCjRmKgpQDagptY7XYvyY9R5M26VH8eykvqEt7whKh8sPraHuvJzETPqmVu1]--></g></svg>