<svg xmlns="http://www.w3.org/2000/svg" xmlns:xlink="http://www.w3.org/1999/xlink" contentStyleType="text/css" data-diagram-type="SEQUENCE" height="603px" preserveAspectRatio="none" style="width:800px;height:603px;background:#FEFEFE;" version="1.1" viewBox="0 0 800 603" width="800px" zoomAndPan="magnify"><title>POST /guides/{guide_id}/ratings</title><defs/><g><rect fill="#FEFEFE" height="603" style="stroke:none;stroke-width:1;" width="800" x="0" y="0"/><text fill="#000000" font-family="Segoe UI" font-size="14" font-weight="bold" lengthAdjust="spacing" textLength="237.3438" x="277.5798" y="28.5352">POST /guides/{guide_id}/ratings</text><text fill="#000000" font-family="Segoe UI" font-size="14" font-weight="bold" lengthAdjust="spacing" textLength="155.8184" x="318.3425" y="45.0234">Submit a guest rating</text><g><title>API Gateway</title><rect fill="#059669" height="319.1055" style="stroke:#A23B72;stroke-width:1;" width="10" x="255.9785" y="188.0859"/></g><g><title>svc-guide-management</title><rect fill="#059669" height="260.4844" style="stroke:#A23B72;stroke-width:1;" width="10" x="403.4561" y="217.3965"/></g><g><title>PostgreSQL</title><rect fill="#FCE4EC" height="29.3105" style="stroke:#A23B72;stroke-width:1;" width="10" x="609.8604" y="325.3281"/></g><g><title>PostgreSQL</title><rect fill="#FCE4EC" height="29.3105" style="stroke:#A23B72;stroke-width:1;" width="10" x="609.8604" y="419.2598"/></g><g><title>Client</title><rect fill="#000000" fill-opacity="0.00000" height="403.7266" width="8" x="27.7524" y="121.4648"/><line style="stroke:#A23B72;stroke-width:0.5;stroke-dasharray:5,5;" x1="31" x2="31" y1="121.4648" y2="525.1914"/></g><g><title>API Gateway</title><rect fill="#000000" fill-opacity="0.00000" height="403.7266" width="8" x="256.9785" y="121.4648"/><line style="stroke:#A23B72;stroke-width:0.5;stroke-dasharray:5,5;" x1="260.6895" x2="260.6895" y1="121.4648" y2="525.1914"/></g><g><title>svc-guide-management</title><rect fill="#000000" fill-opacity="0.00000" height="403.7266" width="8" x="404.4561" y="121.4648"/><line style="stroke:#A23B72;stroke-width:0.5;stroke-dasharray:5,5;" x1="408.2676" x2="408.2676" y1="121.4648" y2="525.1914"/></g><g><title>PostgreSQL</title><rect fill="#000000" fill-opacity="0.00000" height="403.7266" width="8" x="610.8604" y="121.4648"/><line style="stroke:#A23B72;stroke-width:0.5;stroke-dasharray:5,5;" x1="614.4355" x2="614.4355" y1="121.4648" y2="525.1914"/></g><g class="participant participant-head" data-participant="Client"><rect fill="#E8F4F8" height="30.4883" rx="2.5" ry="2.5" style="stroke:#2E86AB;stroke-width:0.5;" width="53.5049" x="5" y="89.9766"/><text fill="#000000" font-family="Segoe UI" font-size="14" lengthAdjust="spacing" textLength="39.5049" x="12" y="110.5117">Client</text></g><g class="participant participant-tail" data-participant="Client"><rect fill="#E8F4F8" height="30.4883" rx="2.5" ry="2.5" style="stroke:#2E86AB;stroke-width:0.5;" width="53.5049" x="5" y="524.1914"/><text fill="#000000" font-family="Segoe UI" font-size="14" lengthAdjust="spacing" textLength="39.5049" x="12" y="544.7266">Client</text></g><g class="participant participant-head" data-participant="GW"><rect fill="#DBEAFE" height="30.4883" rx="2.5" ry="2.5" style="stroke:#2E86AB;stroke-width:0.5;" width="96.5781" x="212.6895" y="89.9766"/><text fill="#000000" font-family="Segoe UI" font-size="14" lengthAdjust="spacing" textLength="82.5781" x="219.6895" y="110.5117">API Gateway</text></g><g class="participant participant-tail" data-participant="GW"><rect fill="#DBEAFE" height="30.4883" rx="2.5" ry="2.5" style="stroke:#2E86AB;stroke-width:0.5;" width="96.5781" x="212.6895" y="524.1914"/><text fill="#000000" font-family="Segoe UI" font-size="14" lengthAdjust="spacing" textLength="82.5781" x="219.6895" y="544.7266">API Gateway</text></g><g class="participant participant-head" data-participant="Svc"><a href="/microservices/svc-guide-management/" target="_top" title="/microservices/svc-guide-management/" xlink:actuate="onRequest" xlink:href="/microservices/svc-guide-management/" xlink:show="new" xlink:title="/microservices/svc-guide-management/" xlink:type="simple"><rect fill="#E8F4F8" height="30.4883" rx="2.5" ry="2.5" style="stroke:#2E86AB;stroke-width:0.5;" width="178.377" x="319.2676" y="89.9766"/><text fill="#000000" font-family="Segoe UI" font-size="14" lengthAdjust="spacing" textLength="164.377" x="326.2676" y="110.5117">svc-guide-management</text></a></g><g class="participant participant-tail" data-participant="Svc"><a href="/microservices/svc-guide-management/" target="_top" title="/microservices/svc-guide-management/" xlink:actuate="onRequest" xlink:href="/microservices/svc-guide-management/" xlink:show="new" xlink:title="/microservices/svc-guide-management/" xlink:type="simple"><rect fill="#E8F4F8" height="30.4883" rx="2.5" ry="2.5" style="stroke:#2E86AB;stroke-width:0.5;" width="178.377" x="319.2676" y="524.1914"/><text fill="#000000" font-family="Segoe UI" font-size="14" lengthAdjust="spacing" textLength="164.377" x="326.2676" y="544.7266">svc-guide-management</text></a></g><g class="participant participant-head" data-participant="DB"><text fill="#000000" font-family="Segoe UI" font-size="14" lengthAdjust="spacing" textLength="76.8496" x="573.4355" y="118.5117">PostgreSQL</text><path d="M596.8604,68.9766 C596.8604,58.9766 614.8604,58.9766 614.8604,58.9766 C614.8604,58.9766 632.8604,58.9766 632.8604,68.9766 L632.8604,94.9766 C632.8604,104.9766 614.8604,104.9766 614.8604,104.9766 C614.8604,104.9766 596.8604,104.9766 596.8604,94.9766 L596.8604,68.9766" fill="#FCE4EC" style="stroke:#181818;stroke-width:0.5;"/><path d="M596.8604,68.9766 C596.8604,78.9766 614.8604,78.9766 614.8604,78.9766 C614.8604,78.9766 632.8604,78.9766 632.8604,68.9766" fill="none" style="stroke:#181818;stroke-width:0.5;"/></g><g class="participant participant-tail" data-participant="DB"><text fill="#000000" font-family="Segoe UI" font-size="14" lengthAdjust="spacing" textLength="76.8496" x="573.4355" y="537.7266">PostgreSQL</text><path d="M596.8604,550.6797 C596.8604,540.6797 614.8604,540.6797 614.8604,540.6797 C614.8604,540.6797 632.8604,540.6797 632.8604,550.6797 L632.8604,576.6797 C632.8604,586.6797 614.8604,586.6797 614.8604,586.6797 C614.8604,586.6797 596.8604,586.6797 596.8604,576.6797 L596.8604,550.6797" fill="#FCE4EC" style="stroke:#181818;stroke-width:0.5;"/><path d="M596.8604,550.6797 C596.8604,560.6797 614.8604,560.6797 614.8604,560.6797 C614.8604,560.6797 632.8604,560.6797 632.8604,550.6797" fill="none" style="stroke:#181818;stroke-width:0.5;"/></g><g><title>API Gateway</title><rect fill="#059669" height="319.1055" style="stroke:#A23B72;stroke-width:1;" width="10" x="255.9785" y="188.0859"/></g><g><title>svc-guide-management</title><rect fill="#059669" height="260.4844" style="stroke:#A23B72;stroke-width:1;" width="10" x="403.4561" y="217.3965"/></g><g><title>PostgreSQL</title><rect fill="#FCE4EC" height="29.3105" style="stroke:#A23B72;stroke-width:1;" width="10" x="609.8604" y="325.3281"/></g><g><title>PostgreSQL</title><rect fill="#FCE4EC" height="29.3105" style="stroke:#A23B72;stroke-width:1;" width="10" x="609.8604" y="419.2598"/></g><path d="M338,136.4648 L338,161.4648 L478,161.4648 L478,146.4648 L468,136.4648 L338,136.4648" fill="#FEFFDD" style="stroke:#181818;stroke-width:0.5;"/><path d="M468,136.4648 L468,146.4648 L478,146.4648 L468,136.4648" fill="#FEFFDD" style="stroke:#181818;stroke-width:0.5;"/><a href="/services/api/svc-guide-management.html#/Ratings/submitGuideRating" target="_top" title="/services/api/svc-guide-management.html#/Ratings/submitGuideRating" xlink:actuate="onRequest" xlink:href="/services/api/svc-guide-management.html#/Ratings/submitGuideRating" xlink:show="new" xlink:title="/services/api/svc-guide-management.html#/Ratings/submitGuideRating" xlink:type="simple"><text fill="#0000FF" font-family="Segoe UI" font-size="13" lengthAdjust="spacing" text-decoration="underline" textLength="119.4058" x="344" y="154.0332">View in Swagger UI</text></a><g class="message" data-participant-1="Client" data-participant-2="GW"><polygon fill="#059669" points="243.9785,184.0859,253.9785,188.0859,243.9785,192.0859,247.9785,188.0859" style="stroke:#059669;stroke-width:1;"/><line style="stroke:#059669;stroke-width:1;" x1="31.7524" x2="249.9785" y1="188.0859" y2="188.0859"/><text fill="#000000" font-family="Segoe UI" font-size="13" lengthAdjust="spacing" textLength="205.2261" x="38.7524" y="183.3438">POST /guides/{guide_id}/ratings</text></g><g class="message" data-participant-1="GW" data-participant-2="Svc"><polygon fill="#059669" points="391.4561,213.3965,401.4561,217.3965,391.4561,221.3965,395.4561,217.3965" style="stroke:#059669;stroke-width:1;"/><line style="stroke:#059669;stroke-width:1;" x1="265.9785" x2="397.4561" y1="217.3965" y2="217.3965"/><text fill="#000000" font-family="Segoe UI" font-size="13" lengthAdjust="spacing" textLength="85.1348" x="272.9785" y="212.6543">route request</text></g><path d="M418,230.3965 L418,255.3965 L576,255.3965 L576,240.3965 L566,230.3965 L418,230.3965" fill="#FEFFDD" style="stroke:#181818;stroke-width:0.5;"/><path d="M566,230.3965 L566,240.3965 L576,240.3965 L566,230.3965" fill="#FEFFDD" style="stroke:#181818;stroke-width:0.5;"/><text fill="#000000" font-family="Segoe UI" font-size="13" lengthAdjust="spacing" textLength="137.5728" x="424" y="247.9648">Validate request body</text><rect fill="#EEEEEE" height="3" style="stroke:#EEEEEE;stroke-width:1;" width="793.5034" x="0" y="281.3623"/><line style="stroke:#000000;stroke-width:1;" x1="0" x2="793.5034" y1="281.3623" y2="281.3623"/><line style="stroke:#000000;stroke-width:1;" x1="0" x2="793.5034" y1="284.3623" y2="284.3623"/><rect fill="#EEEEEE" height="23.3105" style="stroke:#000000;stroke-width:2;" width="80.3711" x="356.5662" y="270.707"/><text fill="#000000" font-family="Segoe UI" font-size="13" font-weight="bold" lengthAdjust="spacing" textLength="62.0864" x="362.5662" y="287.2754">Database</text><g class="message" data-participant-1="Svc" data-participant-2="DB"><polygon fill="#059669" points="597.8604,321.3281,607.8604,325.3281,597.8604,329.3281,601.8604,325.3281" style="stroke:#059669;stroke-width:1;"/><line style="stroke:#059669;stroke-width:1;" x1="413.4561" x2="603.8604" y1="325.3281" y2="325.3281"/><text fill="#000000" font-family="Segoe UI" font-size="13" lengthAdjust="spacing" textLength="177.4043" x="420.4561" y="320.5859">SELECT parent WHERE id = ?</text></g><g class="message" data-participant-1="DB" data-participant-2="Svc"><polygon fill="#059669" points="424.4561,350.6387,414.4561,354.6387,424.4561,358.6387,420.4561,354.6387" style="stroke:#059669;stroke-width:1;"/><line style="stroke:#059669;stroke-width:1;stroke-dasharray:2,2;" x1="418.4561" x2="613.8604" y1="354.6387" y2="354.6387"/><text fill="#000000" font-family="Segoe UI" font-size="13" lengthAdjust="spacing" textLength="67.2915" x="430.4561" y="349.8965">Parent row</text></g><path d="M619,367.6387 L619,392.6387 L788,392.6387 L788,377.6387 L778,367.6387 L619,367.6387" fill="#FEFFDD" style="stroke:#181818;stroke-width:0.5;"/><path d="M778,367.6387 L778,377.6387 L788,377.6387 L778,367.6387" fill="#FEFFDD" style="stroke:#181818;stroke-width:0.5;"/><text fill="#000000" font-family="Segoe UI" font-size="13" lengthAdjust="spacing" textLength="148.5034" x="625" y="385.207">404 if parent not found</text><g class="message" data-participant-1="Svc" data-participant-2="DB"><polygon fill="#059669" points="597.8604,415.2598,607.8604,419.2598,597.8604,423.2598,601.8604,419.2598" style="stroke:#059669;stroke-width:1;"/><line style="stroke:#059669;stroke-width:1;" x1="413.4561" x2="603.8604" y1="419.2598" y2="419.2598"/><text fill="#000000" font-family="Segoe UI" font-size="13" lengthAdjust="spacing" textLength="96.0718" x="420.4561" y="414.5176">INSERT INTO ...</text></g><g class="message" data-participant-1="DB" data-participant-2="Svc"><polygon fill="#059669" points="424.4561,444.5703,414.4561,448.5703,424.4561,452.5703,420.4561,448.5703" style="stroke:#059669;stroke-width:1;"/><line style="stroke:#059669;stroke-width:1;stroke-dasharray:2,2;" x1="418.4561" x2="613.8604" y1="448.5703" y2="448.5703"/><text fill="#000000" font-family="Segoe UI" font-size="13" lengthAdjust="spacing" textLength="76.4575" x="430.4561" y="443.8281">Created row</text></g><g class="message" data-participant-1="Svc" data-participant-2="GW"><polygon fill="#059669" points="276.9785,473.8809,266.9785,477.8809,276.9785,481.8809,272.9785,477.8809" style="stroke:#059669;stroke-width:1;"/><line style="stroke:#059669;stroke-width:1;stroke-dasharray:2,2;" x1="270.9785" x2="407.4561" y1="477.8809" y2="477.8809"/><text fill="#000000" font-family="Segoe UI" font-size="13" lengthAdjust="spacing" textLength="77.7969" x="282.9785" y="473.1387">201 Created</text></g><g class="message" data-participant-1="GW" data-participant-2="Client"><polygon fill="#059669" points="42.7524,503.1914,32.7524,507.1914,42.7524,511.1914,38.7524,507.1914" style="stroke:#059669;stroke-width:1;"/><line style="stroke:#059669;stroke-width:1;stroke-dasharray:2,2;" x1="36.7524" x2="259.9785" y1="507.1914" y2="507.1914"/><text fill="#000000" font-family="Segoe UI" font-size="13" lengthAdjust="spacing" textLength="77.7969" x="48.7524" y="502.4492">201 Created</text></g><!--SRC=[XLFRRk8m47ttLupeCuHI5YWIk-AIi4Y8ieIs3rsqCh49LXERjGsqglhlEqwujgoQFDZoEJDdV6PideLSKKrJcDFeETPgBLbN9Kh3LU2xdvW3momfKriXOrZGnF0JXF45NISsKDAEQCgX4F9OSRWV54x3-Tyrbn67DmBujRLMsvrK-TjjhNQR7O-fjY8IAofjHsd6zOvIyHkrTkSJvMFHVYEe1esCDXGBFXIIdwLfLsuwzKg6TzJB6HHSDuBozG7wP4SG89x18sNFiqRr-lpc1BjWvOrV9- -4M64J3kExS0fUl1QC6-yjM_y8zkvfQj5Uyrk6wtagB528rznOoCy9MHrl3eLk8hYq1Q06ykqvt1uFe4yjtzBNZDD_XAjUnszZIyzuPXCLimgAAPKqvka-QRY9uEd9IqMabU5w8o8izXBRcyqEnZDgwPmQ786nCZRMFFmrpBBrEcX3rw_wNK8aUWHgmxNJGDTGvI10L-AYI6bfq-JAc-GEUIOpgEz8-H4y2Bu58I7SqZZ6rFU3sOnmoS2f4P9R1CNlpeZcLnqWDB9YW-vbjkt64xSOxcnf0dONGUr6sjWZsu5xUdvDBUAb1RNOnJtGH31w38MvOg-4j5hGsplNQX7YoAY5fZKXz8T-TmhOD7U1nv_-n0V1e0K_ZhedxkAsU2Xpd0VXIoECdx0_r9RfLCjL48kz3X9WuKRul9Z1AFGdKrocTr0gbRwkeAivmkn22NdUVKCgvUizzvJd1iJvZhHT1_zBxJ-IVm00]--></g></svg>