<svg xmlns="http://www.w3.org/2000/svg" xmlns:xlink="http://www.w3.org/1999/xlink" contentStyleType="text/css" data-diagram-type="SEQUENCE" height="509px" preserveAspectRatio="none" style="width:474px;height:509px;background:#FEFEFE;" version="1.1" viewBox="0 0 474 509" width="474px" zoomAndPan="magnify"><title>POST /locations</title><defs/><g><rect fill="#FEFEFE" height="509" style="stroke:none;stroke-width:1;" width="474" x="0" y="0"/><text fill="#000000" font-family="Segoe UI" font-size="14" font-weight="bold" lengthAdjust="spacing" textLength="115.7529" x="175.4099" y="28.5352">POST /locations</text><text fill="#000000" font-family="Segoe UI" font-size="14" font-weight="bold" lengthAdjust="spacing" textLength="155.7363" x="155.4182" y="45.0234">Create a new location</text><g><title>API Gateway</title><rect fill="#059669" height="225.1738" style="stroke:#A23B72;stroke-width:1;" width="10" x="151.0708" y="188.0859"/></g><g><title>svc-location-services</title><rect fill="#059669" height="166.5527" style="stroke:#A23B72;stroke-width:1;" width="10" x="289.3301" y="217.3965"/></g><g><title>PostGIS</title><rect fill="#FCE4EC" height="29.3105" style="stroke:#A23B72;stroke-width:1;" width="10" x="414.4019" y="325.3281"/></g><g><title>Client</title><rect fill="#000000" fill-opacity="0.00000" height="309.7949" width="8" x="27.7524" y="121.4648"/><line style="stroke:#A23B72;stroke-width:0.5;stroke-dasharray:5,5;" x1="31" x2="31" y1="121.4648" y2="431.2598"/></g><g><title>API Gateway</title><rect fill="#000000" fill-opacity="0.00000" height="309.7949" width="8" x="152.0708" y="121.4648"/><line style="stroke:#A23B72;stroke-width:0.5;stroke-dasharray:5,5;" x1="155.7817" x2="155.7817" y1="121.4648" y2="431.2598"/></g><g><title>svc-location-services</title><rect fill="#000000" fill-opacity="0.00000" height="309.7949" width="8" x="290.3301" y="121.4648"/><line style="stroke:#A23B72;stroke-width:0.5;stroke-dasharray:5,5;" x1="293.3599" x2="293.3599" y1="121.4648" y2="431.2598"/></g><g><title>PostGIS</title><rect fill="#000000" fill-opacity="0.00000" height="309.7949" width="8" x="415.4019" y="121.4648"/><line style="stroke:#A23B72;stroke-width:0.5;stroke-dasharray:5,5;" x1="419.2012" x2="419.2012" y1="121.4648" y2="431.2598"/></g><g class="participant participant-head" data-participant="Client"><rect fill="#E8F4F8" height="30.4883" rx="2.5" ry="2.5" style="stroke:#2E86AB;stroke-width:0.5;" width="53.5049" x="5" y="89.9766"/><text fill="#000000" font-family="Segoe UI" font-size="14" lengthAdjust="spacing" textLength="39.5049" x="12" y="110.5117">Client</text></g><g class="participant participant-tail" data-participant="Client"><rect fill="#E8F4F8" height="30.4883" rx="2.5" ry="2.5" style="stroke:#2E86AB;stroke-width:0.5;" width="53.5049" x="5" y="430.2598"/><text fill="#000000" font-family="Segoe UI" font-size="14" lengthAdjust="spacing" textLength="39.5049" x="12" y="450.7949">Client</text></g><g class="participant participant-head" data-participant="GW"><rect fill="#DBEAFE" height="30.4883" rx="2.5" ry="2.5" style="stroke:#2E86AB;stroke-width:0.5;" width="96.5781" x="107.7817" y="89.9766"/><text fill="#000000" font-family="Segoe UI" font-size="14" lengthAdjust="spacing" textLength="82.5781" x="114.7817" y="110.5117">API Gateway</text></g><g class="participant participant-tail" data-participant="GW"><rect fill="#DBEAFE" height="30.4883" rx="2.5" ry="2.5" style="stroke:#2E86AB;stroke-width:0.5;" width="96.5781" x="107.7817" y="430.2598"/><text fill="#000000" font-family="Segoe UI" font-size="14" lengthAdjust="spacing" textLength="82.5781" x="114.7817" y="450.7949">API Gateway</text></g><g class="participant participant-head" data-participant="Svc"><a href="/microservices/svc-location-services/" target="_top" title="/microservices/svc-location-services/" xlink:actuate="onRequest" xlink:href="/microservices/svc-location-services/" xlink:show="new" xlink:title="/microservices/svc-location-services/" xlink:type="simple"><rect fill="#E8F4F8" height="30.4883" rx="2.5" ry="2.5" style="stroke:#2E86AB;stroke-width:0.5;" width="159.9404" x="214.3599" y="89.9766"/><text fill="#000000" font-family="Segoe UI" font-size="14" lengthAdjust="spacing" textLength="145.9404" x="221.3599" y="110.5117">svc-location-services</text></a></g><g class="participant participant-tail" data-participant="Svc"><a href="/microservices/svc-location-services/" target="_top" title="/microservices/svc-location-services/" xlink:actuate="onRequest" xlink:href="/microservices/svc-location-services/" xlink:show="new" xlink:title="/microservices/svc-location-services/" xlink:type="simple"><rect fill="#E8F4F8" height="30.4883" rx="2.5" ry="2.5" style="stroke:#2E86AB;stroke-width:0.5;" width="159.9404" x="214.3599" y="430.2598"/><text fill="#000000" font-family="Segoe UI" font-size="14" lengthAdjust="spacing" textLength="145.9404" x="221.3599" y="450.7949">svc-location-services</text></a></g><g class="participant participant-head" data-participant="DB"><text fill="#000000" font-family="Segoe UI" font-size="14" lengthAdjust="spacing" textLength="50.4014" x="391.2012" y="118.5117">PostGIS</text><path d="M401.4019,68.9766 C401.4019,58.9766 419.4019,58.9766 419.4019,58.9766 C419.4019,58.9766 437.4019,58.9766 437.4019,68.9766 L437.4019,94.9766 C437.4019,104.9766 419.4019,104.9766 419.4019,104.9766 C419.4019,104.9766 401.4019,104.9766 401.4019,94.9766 L401.4019,68.9766" fill="#FCE4EC" style="stroke:#181818;stroke-width:0.5;"/><path d="M401.4019,68.9766 C401.4019,78.9766 419.4019,78.9766 419.4019,78.9766 C419.4019,78.9766 437.4019,78.9766 437.4019,68.9766" fill="none" style="stroke:#181818;stroke-width:0.5;"/></g><g class="participant participant-tail" data-participant="DB"><text fill="#000000" font-family="Segoe UI" font-size="14" lengthAdjust="spacing" textLength="50.4014" x="391.2012" y="443.7949">PostGIS</text><path d="M401.4019,456.748 C401.4019,446.748 419.4019,446.748 419.4019,446.748 C419.4019,446.748 437.4019,446.748 437.4019,456.748 L437.4019,482.748 C437.4019,492.748 419.4019,492.748 419.4019,492.748 C419.4019,492.748 401.4019,492.748 401.4019,482.748 L401.4019,456.748" fill="#FCE4EC" style="stroke:#181818;stroke-width:0.5;"/><path d="M401.4019,456.748 C401.4019,466.748 419.4019,466.748 419.4019,466.748 C419.4019,466.748 437.4019,466.748 437.4019,456.748" fill="none" style="stroke:#181818;stroke-width:0.5;"/></g><g><title>API Gateway</title><rect fill="#059669" height="225.1738" style="stroke:#A23B72;stroke-width:1;" width="10" x="151.0708" y="188.0859"/></g><g><title>svc-location-services</title><rect fill="#059669" height="166.5527" style="stroke:#A23B72;stroke-width:1;" width="10" x="289.3301" y="217.3965"/></g><g><title>PostGIS</title><rect fill="#FCE4EC" height="29.3105" style="stroke:#A23B72;stroke-width:1;" width="10" x="414.4019" y="325.3281"/></g><path d="M224,136.4648 L224,161.4648 L364,161.4648 L364,146.4648 L354,136.4648 L224,136.4648" fill="#FEFFDD" style="stroke:#181818;stroke-width:0.5;"/><path d="M354,136.4648 L354,146.4648 L364,146.4648 L354,136.4648" fill="#FEFFDD" style="stroke:#181818;stroke-width:0.5;"/><a href="/services/api/svc-location-services.html" target="_top" title="/services/api/svc-location-services.html" xlink:actuate="onRequest" xlink:href="/services/api/svc-location-services.html" xlink:show="new" xlink:title="/services/api/svc-location-services.html" xlink:type="simple"><text fill="#0000FF" font-family="Segoe UI" font-size="13" lengthAdjust="spacing" text-decoration="underline" textLength="119.4058" x="230" y="154.0332">View in Swagger UI</text></a><g class="message" data-participant-1="Client" data-participant-2="GW"><polygon fill="#059669" points="139.0708,184.0859,149.0708,188.0859,139.0708,192.0859,143.0708,188.0859" style="stroke:#059669;stroke-width:1;"/><line style="stroke:#059669;stroke-width:1;" x1="31.7524" x2="145.0708" y1="188.0859" y2="188.0859"/><text fill="#000000" font-family="Segoe UI" font-size="13" lengthAdjust="spacing" textLength="100.3184" x="38.7524" y="183.3438">POST /locations</text></g><g class="message" data-participant-1="GW" data-participant-2="Svc"><polygon fill="#059669" points="277.3301,213.3965,287.3301,217.3965,277.3301,221.3965,281.3301,217.3965" style="stroke:#059669;stroke-width:1;"/><line style="stroke:#059669;stroke-width:1;" x1="161.0708" x2="283.3301" y1="217.3965" y2="217.3965"/><text fill="#000000" font-family="Segoe UI" font-size="13" lengthAdjust="spacing" textLength="85.1348" x="168.0708" y="212.6543">route request</text></g><path d="M304,230.3965 L304,255.3965 L462,255.3965 L462,240.3965 L452,230.3965 L304,230.3965" fill="#FEFFDD" style="stroke:#181818;stroke-width:0.5;"/><path d="M452,230.3965 L452,240.3965 L462,240.3965 L452,230.3965" fill="#FEFFDD" style="stroke:#181818;stroke-width:0.5;"/><text fill="#000000" font-family="Segoe UI" font-size="13" lengthAdjust="spacing" textLength="137.5728" x="310" y="247.9648">Validate request body</text><rect fill="#EEEEEE" height="3" style="stroke:#EEEEEE;stroke-width:1;" width="467.5728" x="0" y="281.3623"/><line style="stroke:#000000;stroke-width:1;" x1="0" x2="467.5728" y1="281.3623" y2="281.3623"/><line style="stroke:#000000;stroke-width:1;" x1="0" x2="467.5728" y1="284.3623" y2="284.3623"/><rect fill="#EEEEEE" height="23.3105" style="stroke:#000000;stroke-width:2;" width="80.3711" x="193.6008" y="270.707"/><text fill="#000000" font-family="Segoe UI" font-size="13" font-weight="bold" lengthAdjust="spacing" textLength="62.0864" x="199.6008" y="287.2754">Database</text><g class="message" data-participant-1="Svc" data-participant-2="DB"><polygon fill="#059669" points="402.4019,321.3281,412.4019,325.3281,402.4019,329.3281,406.4019,325.3281" style="stroke:#059669;stroke-width:1;"/><line style="stroke:#059669;stroke-width:1;" x1="299.3301" x2="408.4019" y1="325.3281" y2="325.3281"/><text fill="#000000" font-family="Segoe UI" font-size="13" lengthAdjust="spacing" textLength="96.0718" x="306.3301" y="320.5859">INSERT INTO ...</text></g><g class="message" data-participant-1="DB" data-participant-2="Svc"><polygon fill="#059669" points="310.3301,350.6387,300.3301,354.6387,310.3301,358.6387,306.3301,354.6387" style="stroke:#059669;stroke-width:1;"/><line style="stroke:#059669;stroke-width:1;stroke-dasharray:2,2;" x1="304.3301" x2="418.4019" y1="354.6387" y2="354.6387"/><text fill="#000000" font-family="Segoe UI" font-size="13" lengthAdjust="spacing" textLength="76.4575" x="316.3301" y="349.8965">Created row</text></g><g class="message" data-participant-1="Svc" data-participant-2="GW"><polygon fill="#059669" points="172.0708,379.9492,162.0708,383.9492,172.0708,387.9492,168.0708,383.9492" style="stroke:#059669;stroke-width:1;"/><line style="stroke:#059669;stroke-width:1;stroke-dasharray:2,2;" x1="166.0708" x2="293.3301" y1="383.9492" y2="383.9492"/><text fill="#000000" font-family="Segoe UI" font-size="13" lengthAdjust="spacing" textLength="77.7969" x="178.0708" y="379.207">201 Created</text></g><g class="message" data-participant-1="GW" data-participant-2="Client"><polygon fill="#059669" points="42.7524,409.2598,32.7524,413.2598,42.7524,417.2598,38.7524,413.2598" style="stroke:#059669;stroke-width:1;"/><line style="stroke:#059669;stroke-width:1;stroke-dasharray:2,2;" x1="36.7524" x2="155.0708" y1="413.2598" y2="413.2598"/><text fill="#000000" font-family="Segoe UI" font-size="13" lengthAdjust="spacing" textLength="77.7969" x="48.7524" y="408.5176">201 Created</text></g><!--SRC=[TP9FR-8m4CNl_XGZUkP_5oWIAv6Ge4WLHHlQ7heSXiG4gy5cRKEsMkrtNpia8RHiSeYLzvitdcUhTyOFA74F6upU4ocEF7P5AYJS-PvzYQe8jSDOP8mdiCLKqPeIqoqUK-qBhXUufz08QI8eF0UDUZdzTQGyel27W7ccKegiQDNvzZ0OFEI_boWrYzW1kNQ4ZAaia9ut6aoTByZdJNiZ_zuVvTWZsz97nkcLpRJNTuQzN7V4xol9xuxyJhUIliJX-qRFvONGrwxHSBZfrxGRKVQz8VbBY6OwfR1y2bVGJaM4cWckVd9NKjGK43ZDeFnFoE4oAJJSb56k6u0ApijhUReCO6vCClp8cVahtCqSRsgEy8fJfwXPTcWgAayieYgl24yHlBsrzooIeXJQD_7sUbr57QF63Ifpw4kXz3m8Sw-POwPslNlF9OIRI42SgBGTJ4YcHsM41tQxHMkdzocyC9C7un1cc2J6u3bOhmdbCLXFGiuvGFExdNRyELQ2aMOdcwlDehXZPcbmE-eOp14PKTfxgVI5jcA9dpSlMRBJ8BP5tGkcBCPBAMn4_478P0ApCep9X10BcrucYZ44Yz3xiJAVrHEqMgrBirfGPjcizdQ-4R7POqPYMiCBttBcNgTRidNE9cr7DLWHqd_H-Ilv1m00]--></g></svg>