<svg xmlns="http://www.w3.org/2000/svg" xmlns:xlink="http://www.w3.org/1999/xlink" contentStyleType="text/css" data-diagram-type="SEQUENCE" height="684px" preserveAspectRatio="none" style="width:673px;height:684px;background:#FEFEFE;" version="1.1" viewBox="0 0 673 684" width="673px" zoomAndPan="magnify"><title>POST /guests</title><defs/><g><rect fill="#FEFEFE" height="684" style="stroke:none;stroke-width:1;" width="673" x="0" y="0"/><text fill="#000000" font-family="Segoe UI" font-size="14" font-weight="bold" lengthAdjust="spacing" textLength="98.4375" x="283.4094" y="28.5352">POST /guests</text><text fill="#000000" font-family="Segoe UI" font-size="14" font-weight="bold" lengthAdjust="spacing" textLength="151.5801" x="256.8381" y="45.0234">Register a new guest</text><g><title>API Gateway</title><rect fill="#059669" height="399.7266" style="stroke:#A23B72;stroke-width:1;" width="10" x="135.7222" y="188.0859"/></g><g><title>svc-guest-profiles</title><rect fill="#059669" height="341.1055" style="stroke:#A23B72;stroke-width:1;" width="10" x="264.3428" y="217.3965"/></g><g><title>IDVerify API</title><rect fill="#DBEAFE" height="29.3105" style="stroke:#A23B72;stroke-width:1;" width="10" x="448.689" y="325.3281"/></g><g><title>PostgreSQL</title><rect fill="#FCE4EC" height="29.3105" style="stroke:#A23B72;stroke-width:1;" width="10" x="614.8315" y="427.2598"/></g><g><title>Client</title><rect fill="#000000" fill-opacity="0.00000" height="484.3477" width="8" x="27.7524" y="121.4648"/><line style="stroke:#A23B72;stroke-width:0.5;stroke-dasharray:5,5;" x1="31" x2="31" y1="121.4648" y2="605.8125"/></g><g><title>API Gateway</title><rect fill="#000000" fill-opacity="0.00000" height="484.3477" width="8" x="136.7222" y="121.4648"/><line style="stroke:#A23B72;stroke-width:0.5;stroke-dasharray:5,5;" x1="140.4331" x2="140.4331" y1="121.4648" y2="605.8125"/></g><g><title>svc-guest-profiles</title><rect fill="#000000" fill-opacity="0.00000" height="484.3477" width="8" x="265.3428" y="121.4648"/><line style="stroke:#A23B72;stroke-width:0.5;stroke-dasharray:5,5;" x1="269.0112" x2="269.0112" y1="121.4648" y2="605.8125"/></g><g><title>IDVerify API</title><rect fill="#000000" fill-opacity="0.00000" height="484.3477" width="8" x="449.689" y="121.4648"/><line style="stroke:#A23B72;stroke-width:0.5;stroke-dasharray:5,5;" x1="452.9038" x2="452.9038" y1="121.4648" y2="605.8125"/></g><g><title>Kafka</title><rect fill="#000000" fill-opacity="0.00000" height="484.3477" width="8" x="535.4404" y="121.4648"/><line style="stroke:#A23B72;stroke-width:0.5;stroke-dasharray:5,5;" x1="538.4741" x2="538.4741" y1="121.4648" y2="605.8125"/></g><g><title>PostgreSQL</title><rect fill="#000000" fill-opacity="0.00000" height="484.3477" width="8" x="615.8315" y="121.4648"/><line style="stroke:#A23B72;stroke-width:0.5;stroke-dasharray:5,5;" x1="619.4067" x2="619.4067" y1="121.4648" y2="605.8125"/></g><g class="participant participant-head" data-participant="Client"><rect fill="#E8F4F8" height="30.4883" rx="2.5" ry="2.5" style="stroke:#2E86AB;stroke-width:0.5;" width="53.5049" x="5" y="89.9766"/><text fill="#000000" font-family="Segoe UI" font-size="14" lengthAdjust="spacing" textLength="39.5049" x="12" y="110.5117">Client</text></g><g class="participant participant-tail" data-participant="Client"><rect fill="#E8F4F8" height="30.4883" rx="2.5" ry="2.5" style="stroke:#2E86AB;stroke-width:0.5;" width="53.5049" x="5" y="604.8125"/><text fill="#000000" font-family="Segoe UI" font-size="14" lengthAdjust="spacing" textLength="39.5049" x="12" y="625.3477">Client</text></g><g class="participant participant-head" data-participant="GW"><rect fill="#DBEAFE" height="30.4883" rx="2.5" ry="2.5" style="stroke:#2E86AB;stroke-width:0.5;" width="96.5781" x="92.4331" y="89.9766"/><text fill="#000000" font-family="Segoe UI" font-size="14" lengthAdjust="spacing" textLength="82.5781" x="99.4331" y="110.5117">API Gateway</text></g><g class="participant participant-tail" data-participant="GW"><rect fill="#DBEAFE" height="30.4883" rx="2.5" ry="2.5" style="stroke:#2E86AB;stroke-width:0.5;" width="96.5781" x="92.4331" y="604.8125"/><text fill="#000000" font-family="Segoe UI" font-size="14" lengthAdjust="spacing" textLength="82.5781" x="99.4331" y="625.3477">API Gateway</text></g><g class="participant participant-head" data-participant="Svc"><a href="/microservices/svc-guest-profiles/" target="_top" title="/microservices/svc-guest-profiles/" xlink:actuate="onRequest" xlink:href="/microservices/svc-guest-profiles/" xlink:show="new" xlink:title="/microservices/svc-guest-profiles/" xlink:type="simple"><rect fill="#E8F4F8" height="30.4883" rx="2.5" ry="2.5" style="stroke:#2E86AB;stroke-width:0.5;" width="140.6631" x="199.0112" y="89.9766"/><text fill="#000000" font-family="Segoe UI" font-size="14" lengthAdjust="spacing" textLength="126.6631" x="206.0112" y="110.5117">svc-guest-profiles</text></a></g><g class="participant participant-tail" data-participant="Svc"><a href="/microservices/svc-guest-profiles/" target="_top" title="/microservices/svc-guest-profiles/" xlink:actuate="onRequest" xlink:href="/microservices/svc-guest-profiles/" xlink:show="new" xlink:title="/microservices/svc-guest-profiles/" xlink:type="simple"><rect fill="#E8F4F8" height="30.4883" rx="2.5" ry="2.5" style="stroke:#2E86AB;stroke-width:0.5;" width="140.6631" x="199.0112" y="604.8125"/><text fill="#000000" font-family="Segoe UI" font-size="14" lengthAdjust="spacing" textLength="126.6631" x="206.0112" y="625.3477">svc-guest-profiles</text></a></g><g class="participant participant-head" data-participant="ExtID"><rect fill="#F5F5F5" height="30.4883" rx="2.5" ry="2.5" style="stroke:#2E86AB;stroke-width:0.5;" width="93.5703" x="406.9038" y="89.9766"/><text fill="#000000" font-family="Segoe UI" font-size="14" lengthAdjust="spacing" textLength="79.5703" x="413.9038" y="110.5117">IDVerify API</text></g><g class="participant participant-tail" data-participant="ExtID"><rect fill="#F5F5F5" height="30.4883" rx="2.5" ry="2.5" style="stroke:#2E86AB;stroke-width:0.5;" width="93.5703" x="406.9038" y="604.8125"/><text fill="#000000" font-family="Segoe UI" font-size="14" lengthAdjust="spacing" textLength="79.5703" x="413.9038" y="625.3477">IDVerify API</text></g><g class="participant participant-head" data-participant="Kafka"><path d="M515.4741,94.9766 L563.4067,94.9766 C568.4067,94.9766 568.4067,108.2207 568.4067,108.2207 C568.4067,108.2207 568.4067,121.4648 563.4067,121.4648 L515.4741,121.4648 C510.4741,121.4648 510.4741,108.2207 510.4741,108.2207 C510.4741,108.2207 510.4741,94.9766 515.4741,94.9766" fill="#F0E6FF" style="stroke:#181818;stroke-width:0.5;"/><path d="M563.4067,94.9766 C558.4067,94.9766 558.4067,108.2207 558.4067,108.2207 C558.4067,121.4648 563.4067,121.4648 563.4067,121.4648" fill="none" style="stroke:#181818;stroke-width:0.5;"/><text fill="#000000" font-family="Segoe UI" font-size="14" lengthAdjust="spacing" textLength="37.9326" x="515.4741" y="113.5117">Kafka</text></g><g class="participant participant-tail" data-participant="Kafka"><path d="M515.4741,604.8125 L563.4067,604.8125 C568.4067,604.8125 568.4067,618.0566 568.4067,618.0566 C568.4067,618.0566 568.4067,631.3008 563.4067,631.3008 L515.4741,631.3008 C510.4741,631.3008 510.4741,618.0566 510.4741,618.0566 C510.4741,618.0566 510.4741,604.8125 515.4741,604.8125" fill="#F0E6FF" style="stroke:#181818;stroke-width:0.5;"/><path d="M563.4067,604.8125 C558.4067,604.8125 558.4067,618.0566 558.4067,618.0566 C558.4067,631.3008 563.4067,631.3008 563.4067,631.3008" fill="none" style="stroke:#181818;stroke-width:0.5;"/><text fill="#000000" font-family="Segoe UI" font-size="14" lengthAdjust="spacing" textLength="37.9326" x="515.4741" y="623.3477">Kafka</text></g><g class="participant participant-head" data-participant="DB"><text fill="#000000" font-family="Segoe UI" font-size="14" lengthAdjust="spacing" textLength="76.8496" x="578.4067" y="118.5117">PostgreSQL</text><path d="M601.8315,68.9766 C601.8315,58.9766 619.8315,58.9766 619.8315,58.9766 C619.8315,58.9766 637.8315,58.9766 637.8315,68.9766 L637.8315,94.9766 C637.8315,104.9766 619.8315,104.9766 619.8315,104.9766 C619.8315,104.9766 601.8315,104.9766 601.8315,94.9766 L601.8315,68.9766" fill="#FCE4EC" style="stroke:#181818;stroke-width:0.5;"/><path d="M601.8315,68.9766 C601.8315,78.9766 619.8315,78.9766 619.8315,78.9766 C619.8315,78.9766 637.8315,78.9766 637.8315,68.9766" fill="none" style="stroke:#181818;stroke-width:0.5;"/></g><g class="participant participant-tail" data-participant="DB"><text fill="#000000" font-family="Segoe UI" font-size="14" lengthAdjust="spacing" textLength="76.8496" x="578.4067" y="618.3477">PostgreSQL</text><path d="M601.8315,631.3008 C601.8315,621.3008 619.8315,621.3008 619.8315,621.3008 C619.8315,621.3008 637.8315,621.3008 637.8315,631.3008 L637.8315,657.3008 C637.8315,667.3008 619.8315,667.3008 619.8315,667.3008 C619.8315,667.3008 601.8315,667.3008 601.8315,657.3008 L601.8315,631.3008" fill="#FCE4EC" style="stroke:#181818;stroke-width:0.5;"/><path d="M601.8315,631.3008 C601.8315,641.3008 619.8315,641.3008 619.8315,641.3008 C619.8315,641.3008 637.8315,641.3008 637.8315,631.3008" fill="none" style="stroke:#181818;stroke-width:0.5;"/></g><g><title>API Gateway</title><rect fill="#059669" height="399.7266" style="stroke:#A23B72;stroke-width:1;" width="10" x="135.7222" y="188.0859"/></g><g><title>svc-guest-profiles</title><rect fill="#059669" height="341.1055" style="stroke:#A23B72;stroke-width:1;" width="10" x="264.3428" y="217.3965"/></g><g><title>IDVerify API</title><rect fill="#DBEAFE" height="29.3105" style="stroke:#A23B72;stroke-width:1;" width="10" x="448.689" y="325.3281"/></g><g><title>PostgreSQL</title><rect fill="#FCE4EC" height="29.3105" style="stroke:#A23B72;stroke-width:1;" width="10" x="614.8315" y="427.2598"/></g><path d="M199,136.4648 L199,161.4648 L339,161.4648 L339,146.4648 L329,136.4648 L199,136.4648" fill="#FEFFDD" style="stroke:#181818;stroke-width:0.5;"/><path d="M329,136.4648 L329,146.4648 L339,146.4648 L329,136.4648" fill="#FEFFDD" style="stroke:#181818;stroke-width:0.5;"/><a href="/services/api/svc-guest-profiles.html#/Guests/createGuest" target="_top" title="/services/api/svc-guest-profiles.html#/Guests/createGuest" xlink:actuate="onRequest" xlink:href="/services/api/svc-guest-profiles.html#/Guests/createGuest" xlink:show="new" xlink:title="/services/api/svc-guest-profiles.html#/Guests/createGuest" xlink:type="simple"><text fill="#0000FF" font-family="Segoe UI" font-size="13" lengthAdjust="spacing" text-decoration="underline" textLength="119.4058" x="205" y="154.0332">View in Swagger UI</text></a><g class="message" data-participant-1="Client" data-participant-2="GW"><polygon fill="#059669" points="123.7222,184.0859,133.7222,188.0859,123.7222,192.0859,127.7222,188.0859" style="stroke:#059669;stroke-width:1;"/><line style="stroke:#059669;stroke-width:1;" x1="31.7524" x2="129.7222" y1="188.0859" y2="188.0859"/><text fill="#000000" font-family="Segoe UI" font-size="13" lengthAdjust="spacing" textLength="84.9697" x="38.7524" y="183.3438">POST /guests</text></g><g class="message" data-participant-1="GW" data-participant-2="Svc"><polygon fill="#059669" points="252.3428,213.3965,262.3428,217.3965,252.3428,221.3965,256.3428,217.3965" style="stroke:#059669;stroke-width:1;"/><line style="stroke:#059669;stroke-width:1;" x1="145.7222" x2="258.3428" y1="217.3965" y2="217.3965"/><text fill="#000000" font-family="Segoe UI" font-size="13" lengthAdjust="spacing" textLength="85.1348" x="152.7222" y="212.6543">route request</text></g><path d="M279,230.3965 L279,255.3965 L437,255.3965 L437,240.3965 L427,230.3965 L279,230.3965" fill="#FEFFDD" style="stroke:#181818;stroke-width:0.5;"/><path d="M427,230.3965 L427,240.3965 L437,240.3965 L427,230.3965" fill="#FEFFDD" style="stroke:#181818;stroke-width:0.5;"/><text fill="#000000" font-family="Segoe UI" font-size="13" lengthAdjust="spacing" textLength="137.5728" x="285" y="247.9648">Validate request body</text><rect fill="#EEEEEE" height="3" style="stroke:#EEEEEE;stroke-width:1;" width="666.2563" x="0" y="281.3623"/><line style="stroke:#000000;stroke-width:1;" x1="0" x2="666.2563" y1="281.3623" y2="281.3623"/><line style="stroke:#000000;stroke-width:1;" x1="0" x2="666.2563" y1="284.3623" y2="284.3623"/><rect fill="#EEEEEE" height="23.3105" style="stroke:#000000;stroke-width:2;" width="190.6743" x="237.791" y="270.707"/><text fill="#000000" font-family="Segoe UI" font-size="13" font-weight="bold" lengthAdjust="spacing" textLength="172.3896" x="243.791" y="287.2754">Cross-Service Integration</text><g class="message" data-participant-1="Svc" data-participant-2="ExtID"><polygon fill="#059669" points="436.689,321.3281,446.689,325.3281,436.689,329.3281,440.689,325.3281" style="stroke:#059669;stroke-width:1;"/><line style="stroke:#059669;stroke-width:1;" x1="274.3428" x2="442.689" y1="325.3281" y2="325.3281"/><text fill="#000000" font-family="Segoe UI" font-size="13" lengthAdjust="spacing" textLength="155.3462" x="281.3428" y="320.5859">Verify identity document</text></g><g class="message" data-participant-1="ExtID" data-participant-2="Svc"><polygon fill="#059669" points="285.3428,350.6387,275.3428,354.6387,285.3428,358.6387,281.3428,354.6387" style="stroke:#059669;stroke-width:1;"/><line style="stroke:#059669;stroke-width:1;stroke-dasharray:2,2;" x1="279.3428" x2="452.689" y1="354.6387" y2="354.6387"/><text fill="#000000" font-family="Segoe UI" font-size="13" lengthAdjust="spacing" textLength="18.5859" x="291.3428" y="349.8965">OK</text></g><rect fill="#EEEEEE" height="3" style="stroke:#EEEEEE;stroke-width:1;" width="666.2563" x="0" y="383.2939"/><line style="stroke:#000000;stroke-width:1;" x1="0" x2="666.2563" y1="383.2939" y2="383.2939"/><line style="stroke:#000000;stroke-width:1;" x1="0" x2="666.2563" y1="386.2939" y2="386.2939"/><rect fill="#EEEEEE" height="23.3105" style="stroke:#000000;stroke-width:2;" width="80.3711" x="292.9426" y="372.6387"/><text fill="#000000" font-family="Segoe UI" font-size="13" font-weight="bold" lengthAdjust="spacing" textLength="62.0864" x="298.9426" y="389.207">Database</text><g class="message" data-participant-1="Svc" data-participant-2="DB"><polygon fill="#059669" points="602.8315,423.2598,612.8315,427.2598,602.8315,431.2598,606.8315,427.2598" style="stroke:#059669;stroke-width:1;"/><line style="stroke:#059669;stroke-width:1;" x1="274.3428" x2="608.8315" y1="427.2598" y2="427.2598"/><text fill="#000000" font-family="Segoe UI" font-size="13" lengthAdjust="spacing" textLength="96.0718" x="281.3428" y="422.5176">INSERT INTO ...</text></g><g class="message" data-participant-1="DB" data-participant-2="Svc"><polygon fill="#059669" points="285.3428,452.5703,275.3428,456.5703,285.3428,460.5703,281.3428,456.5703" style="stroke:#059669;stroke-width:1;"/><line style="stroke:#059669;stroke-width:1;stroke-dasharray:2,2;" x1="279.3428" x2="618.8315" y1="456.5703" y2="456.5703"/><text fill="#000000" font-family="Segoe UI" font-size="13" lengthAdjust="spacing" textLength="76.4575" x="291.3428" y="451.8281">Created row</text></g><rect fill="#EEEEEE" height="3" style="stroke:#EEEEEE;stroke-width:1;" width="666.2563" x="0" y="485.2256"/><line style="stroke:#000000;stroke-width:1;" x1="0" x2="666.2563" y1="485.2256" y2="485.2256"/><line style="stroke:#000000;stroke-width:1;" x1="0" x2="666.2563" y1="488.2256" y2="488.2256"/><rect fill="#EEEEEE" height="23.3105" style="stroke:#000000;stroke-width:2;" width="106.8218" x="279.7173" y="474.5703"/><text fill="#000000" font-family="Segoe UI" font-size="13" font-weight="bold" lengthAdjust="spacing" textLength="88.5371" x="285.7173" y="491.1387">Async Events</text><g class="message" data-participant-1="Svc" data-participant-2="Kafka"><line style="stroke:#059669;stroke-width:1;" x1="537.4404" x2="527.4404" y1="529.1914" y2="525.1914"/><line style="stroke:#059669;stroke-width:1;" x1="537.4404" x2="527.4404" y1="529.1914" y2="533.1914"/><line style="stroke:#059669;stroke-width:1;" x1="274.3428" x2="538.4404" y1="529.1914" y2="529.1914"/><text fill="#000000" font-family="Segoe UI" font-size="13" lengthAdjust="spacing" textLength="102.9209" x="281.3428" y="524.4492">guest.registered</text></g><g class="message" data-participant-1="Svc" data-participant-2="GW"><polygon fill="#059669" points="156.7222,554.502,146.7222,558.502,156.7222,562.502,152.7222,558.502" style="stroke:#059669;stroke-width:1;"/><line style="stroke:#059669;stroke-width:1;stroke-dasharray:2,2;" x1="150.7222" x2="268.3428" y1="558.502" y2="558.502"/><text fill="#000000" font-family="Segoe UI" font-size="13" lengthAdjust="spacing" textLength="77.7969" x="162.7222" y="553.7598">201 Created</text></g><g class="message" data-participant-1="GW" data-participant-2="Client"><polygon fill="#059669" points="42.7524,583.8125,32.7524,587.8125,42.7524,591.8125,38.7524,587.8125" style="stroke:#059669;stroke-width:1;"/><line style="stroke:#059669;stroke-width:1;stroke-dasharray:2,2;" x1="36.7524" x2="139.7222" y1="587.8125" y2="587.8125"/><text fill="#000000" font-family="Segoe UI" font-size="13" lengthAdjust="spacing" textLength="77.7969" x="48.7524" y="583.0703">201 Created</text></g><!--SRC=[TLDDR-8m4BtxLupecO_I5YWIbGWa2BLgsTAFGvU3IIQfrM2pje6YrVxtdJW1acqtESJ9UvutVczYFeHSSyrNiEJXHwBLHaOZbIeDPu6VtSmS6UQTHsedP08nJmsMa0XZlabjeAIzvok4sXmJXV0yhPMtuwyDoX3XDmEwXbghNI7LkhhkTAxTvndNLeHYpQNrb8vG5vIst-iClI-KVvlsUy5bq7EqEn7ZdP1OAJDiNtZTjiCzzLc1WlDUq3e_Gb_i20B27NolRBLgsEqkBqhODrPU-5tsXp4hR8emUvW_GJFPeB7cftp4H1YB6ZX8t87xpDZwT4geZLA1qjQ06yYNLNWucyA4MzpnlUDCNk5ixFb3Yg_2CzkmxihNrrh58aNZwFDj26zlpPK8jJAejo94q_pARIuMHuChPQVZ5zGYtWFruGhwdtOwfcDVPJUZs3Sq4xSy_k0ETYk2Mtud25Z4BLzoGuoPCZRHEFznvsXZZpWZ_z8VCIR9Lb1RCecQ9QEftMEdV2s-wRRnRbVfMNFYJ6w66iaVzm8lWbmM4kOxdYHKyNcwM32K4MGYZEK6G_qcix5VoOhnq8ej5N8E5rDBI-9c7lQ1GYTGPvDE6HxP6NYWvqVH8dcteE9YtmjFHSHFMs6feZrZWm6CA19Jd-TdXQcqc6XkXP8m632MxIRnt6ygaySW8Zg0i7k8LBXPPTDoxAH8fXYE_Ar-RF_XbaLOvRecneU8IfgKJX-cztF_yOaUJm_GQ3HEEgNiQ7bI6BaS8Z9gLvOQUqvdQFOo17zBBPkIraqnCVtytsZeueV1g60SicgtpWyAvUhPo6Gf4Qq8zx_KoIlx2m00]--></g></svg>