<svg xmlns="http://www.w3.org/2000/svg" xmlns:xlink="http://www.w3.org/1999/xlink" contentStyleType="text/css" data-diagram-type="SEQUENCE" height="582px" preserveAspectRatio="none" style="width:598px;height:582px;background:#FEFEFE;" version="1.1" viewBox="0 0 598 582" width="598px" zoomAndPan="magnify"><title>POST /incidents</title><defs/><g><rect fill="#FEFEFE" height="582" style="stroke:none;stroke-width:1;" width="598" x="0" y="0"/><text fill="#000000" font-family="Segoe UI" font-size="14" font-weight="bold" lengthAdjust="spacing" textLength="116.3135" x="237.2634" y="28.5352">POST /incidents</text><text fill="#000000" font-family="Segoe UI" font-size="14" font-weight="bold" lengthAdjust="spacing" textLength="159.5371" x="215.6516" y="45.0234">File an incident report</text><g><title>API Gateway</title><rect fill="#059669" height="297.7949" style="stroke:#A23B72;stroke-width:1;" width="10" x="151.4136" y="188.0859"/></g><g><title>svc-safety-compliance</title><rect fill="#059669" height="239.1738" style="stroke:#A23B72;stroke-width:1;" width="10" x="294.3315" y="217.3965"/></g><g><title>PostgreSQL</title><rect fill="#FCE4EC" height="29.3105" style="stroke:#A23B72;stroke-width:1;" width="10" x="540.4155" y="325.3281"/></g><g><title>Client</title><rect fill="#000000" fill-opacity="0.00000" height="382.416" width="8" x="27.7524" y="121.4648"/><line style="stroke:#A23B72;stroke-width:0.5;stroke-dasharray:5,5;" x1="31" x2="31" y1="121.4648" y2="503.8809"/></g><g><title>API Gateway</title><rect fill="#000000" fill-opacity="0.00000" height="382.416" width="8" x="152.4136" y="121.4648"/><line style="stroke:#A23B72;stroke-width:0.5;stroke-dasharray:5,5;" x1="156.1245" x2="156.1245" y1="121.4648" y2="503.8809"/></g><g><title>svc-safety-compliance</title><rect fill="#000000" fill-opacity="0.00000" height="382.416" width="8" x="295.3315" y="121.4648"/><line style="stroke:#A23B72;stroke-width:0.5;stroke-dasharray:5,5;" x1="298.7026" x2="298.7026" y1="121.4648" y2="503.8809"/></g><g><title>Notifications</title><rect fill="#000000" fill-opacity="0.00000" height="382.416" width="8" x="439.9756" y="121.4648"/><line style="stroke:#A23B72;stroke-width:0.5;stroke-dasharray:5,5;" x1="443.9604" x2="443.9604" y1="121.4648" y2="503.8809"/></g><g><title>PostgreSQL</title><rect fill="#000000" fill-opacity="0.00000" height="382.416" width="8" x="541.4155" y="121.4648"/><line style="stroke:#A23B72;stroke-width:0.5;stroke-dasharray:5,5;" x1="544.9907" x2="544.9907" y1="121.4648" y2="503.8809"/></g><g class="participant participant-head" data-participant="Client"><rect fill="#E8F4F8" height="30.4883" rx="2.5" ry="2.5" style="stroke:#2E86AB;stroke-width:0.5;" width="53.5049" x="5" y="89.9766"/><text fill="#000000" font-family="Segoe UI" font-size="14" lengthAdjust="spacing" textLength="39.5049" x="12" y="110.5117">Client</text></g><g class="participant participant-tail" data-participant="Client"><rect fill="#E8F4F8" height="30.4883" rx="2.5" ry="2.5" style="stroke:#2E86AB;stroke-width:0.5;" width="53.5049" x="5" y="502.8809"/><text fill="#000000" font-family="Segoe UI" font-size="14" lengthAdjust="spacing" textLength="39.5049" x="12" y="523.416">Client</text></g><g class="participant participant-head" data-participant="GW"><rect fill="#DBEAFE" height="30.4883" rx="2.5" ry="2.5" style="stroke:#2E86AB;stroke-width:0.5;" width="96.5781" x="108.1245" y="89.9766"/><text fill="#000000" font-family="Segoe UI" font-size="14" lengthAdjust="spacing" textLength="82.5781" x="115.1245" y="110.5117">API Gateway</text></g><g class="participant participant-tail" data-participant="GW"><rect fill="#DBEAFE" height="30.4883" rx="2.5" ry="2.5" style="stroke:#2E86AB;stroke-width:0.5;" width="96.5781" x="108.1245" y="502.8809"/><text fill="#000000" font-family="Segoe UI" font-size="14" lengthAdjust="spacing" textLength="82.5781" x="115.1245" y="523.416">API Gateway</text></g><g class="participant participant-head" data-participant="Svc"><a href="/microservices/svc-safety-compliance/" target="_top" title="/microservices/svc-safety-compliance/" xlink:actuate="onRequest" xlink:href="/microservices/svc-safety-compliance/" xlink:show="new" xlink:title="/microservices/svc-safety-compliance/" xlink:type="simple"><rect fill="#E8F4F8" height="30.4883" rx="2.5" ry="2.5" style="stroke:#2E86AB;stroke-width:0.5;" width="169.2578" x="214.7026" y="89.9766"/><text fill="#000000" font-family="Segoe UI" font-size="14" lengthAdjust="spacing" textLength="155.2578" x="221.7026" y="110.5117">svc-safety-compliance</text></a></g><g class="participant participant-tail" data-participant="Svc"><a href="/microservices/svc-safety-compliance/" target="_top" title="/microservices/svc-safety-compliance/" xlink:actuate="onRequest" xlink:href="/microservices/svc-safety-compliance/" xlink:show="new" xlink:title="/microservices/svc-safety-compliance/" xlink:type="simple"><rect fill="#E8F4F8" height="30.4883" rx="2.5" ry="2.5" style="stroke:#2E86AB;stroke-width:0.5;" width="169.2578" x="214.7026" y="502.8809"/><text fill="#000000" font-family="Segoe UI" font-size="14" lengthAdjust="spacing" textLength="155.2578" x="221.7026" y="523.416">svc-safety-compliance</text></a></g><g class="participant participant-head" data-participant="Ntfy"><a href="/microservices/svc-notifications/" target="_top" title="/microservices/svc-notifications/" xlink:actuate="onRequest" xlink:href="/microservices/svc-notifications/" xlink:show="new" xlink:title="/microservices/svc-notifications/" xlink:type="simple"><rect fill="#FFF8F0" height="30.4883" rx="2.5" ry="2.5" style="stroke:#2E86AB;stroke-width:0.5;" width="100.0303" x="393.9604" y="89.9766"/><text fill="#000000" font-family="Segoe UI" font-size="14" lengthAdjust="spacing" textLength="86.0303" x="400.9604" y="110.5117">Notifications</text></a></g><g class="participant participant-tail" data-participant="Ntfy"><a href="/microservices/svc-notifications/" target="_top" title="/microservices/svc-notifications/" xlink:actuate="onRequest" xlink:href="/microservices/svc-notifications/" xlink:show="new" xlink:title="/microservices/svc-notifications/" xlink:type="simple"><rect fill="#FFF8F0" height="30.4883" rx="2.5" ry="2.5" style="stroke:#2E86AB;stroke-width:0.5;" width="100.0303" x="393.9604" y="502.8809"/><text fill="#000000" font-family="Segoe UI" font-size="14" lengthAdjust="spacing" textLength="86.0303" x="400.9604" y="523.416">Notifications</text></a></g><g class="participant participant-head" data-participant="DB"><text fill="#000000" font-family="Segoe UI" font-size="14" lengthAdjust="spacing" textLength="76.8496" x="503.9907" y="118.5117">PostgreSQL</text><path d="M527.4155,68.9766 C527.4155,58.9766 545.4155,58.9766 545.4155,58.9766 C545.4155,58.9766 563.4155,58.9766 563.4155,68.9766 L563.4155,94.9766 C563.4155,104.9766 545.4155,104.9766 545.4155,104.9766 C545.4155,104.9766 527.4155,104.9766 527.4155,94.9766 L527.4155,68.9766" fill="#FCE4EC" style="stroke:#181818;stroke-width:0.5;"/><path d="M527.4155,68.9766 C527.4155,78.9766 545.4155,78.9766 545.4155,78.9766 C545.4155,78.9766 563.4155,78.9766 563.4155,68.9766" fill="none" style="stroke:#181818;stroke-width:0.5;"/></g><g class="participant participant-tail" data-participant="DB"><text fill="#000000" font-family="Segoe UI" font-size="14" lengthAdjust="spacing" textLength="76.8496" x="503.9907" y="516.416">PostgreSQL</text><path d="M527.4155,529.3691 C527.4155,519.3691 545.4155,519.3691 545.4155,519.3691 C545.4155,519.3691 563.4155,519.3691 563.4155,529.3691 L563.4155,555.3691 C563.4155,565.3691 545.4155,565.3691 545.4155,565.3691 C545.4155,565.3691 527.4155,565.3691 527.4155,555.3691 L527.4155,529.3691" fill="#FCE4EC" style="stroke:#181818;stroke-width:0.5;"/><path d="M527.4155,529.3691 C527.4155,539.3691 545.4155,539.3691 545.4155,539.3691 C545.4155,539.3691 563.4155,539.3691 563.4155,529.3691" fill="none" style="stroke:#181818;stroke-width:0.5;"/></g><g><title>API Gateway</title><rect fill="#059669" height="297.7949" style="stroke:#A23B72;stroke-width:1;" width="10" x="151.4136" y="188.0859"/></g><g><title>svc-safety-compliance</title><rect fill="#059669" height="239.1738" style="stroke:#A23B72;stroke-width:1;" width="10" x="294.3315" y="217.3965"/></g><g><title>PostgreSQL</title><rect fill="#FCE4EC" height="29.3105" style="stroke:#A23B72;stroke-width:1;" width="10" x="540.4155" y="325.3281"/></g><path d="M229,136.4648 L229,161.4648 L369,161.4648 L369,146.4648 L359,136.4648 L229,136.4648" fill="#FEFFDD" style="stroke:#181818;stroke-width:0.5;"/><path d="M359,136.4648 L359,146.4648 L369,146.4648 L359,136.4648" fill="#FEFFDD" style="stroke:#181818;stroke-width:0.5;"/><a href="/services/api/svc-safety-compliance.html#/Incidents/createIncident" target="_top" title="/services/api/svc-safety-compliance.html#/Incidents/createIncident" xlink:actuate="onRequest" xlink:href="/services/api/svc-safety-compliance.html#/Incidents/createIncident" xlink:show="new" xlink:title="/services/api/svc-safety-compliance.html#/Incidents/createIncident" xlink:type="simple"><text fill="#0000FF" font-family="Segoe UI" font-size="13" lengthAdjust="spacing" text-decoration="underline" textLength="119.4058" x="235" y="154.0332">View in Swagger UI</text></a><g class="message" data-participant-1="Client" data-participant-2="GW"><polygon fill="#059669" points="139.4136,184.0859,149.4136,188.0859,139.4136,192.0859,143.4136,188.0859" style="stroke:#059669;stroke-width:1;"/><line style="stroke:#059669;stroke-width:1;" x1="31.7524" x2="145.4136" y1="188.0859" y2="188.0859"/><text fill="#000000" font-family="Segoe UI" font-size="13" lengthAdjust="spacing" textLength="100.6611" x="38.7524" y="183.3438">POST /incidents</text></g><g class="message" data-participant-1="GW" data-participant-2="Svc"><polygon fill="#059669" points="282.3315,213.3965,292.3315,217.3965,282.3315,221.3965,286.3315,217.3965" style="stroke:#059669;stroke-width:1;"/><line style="stroke:#059669;stroke-width:1;" x1="161.4136" x2="288.3315" y1="217.3965" y2="217.3965"/><text fill="#000000" font-family="Segoe UI" font-size="13" lengthAdjust="spacing" textLength="85.1348" x="168.4136" y="212.6543">route request</text></g><path d="M309,230.3965 L309,255.3965 L467,255.3965 L467,240.3965 L457,230.3965 L309,230.3965" fill="#FEFFDD" style="stroke:#181818;stroke-width:0.5;"/><path d="M457,230.3965 L457,240.3965 L467,240.3965 L457,230.3965" fill="#FEFFDD" style="stroke:#181818;stroke-width:0.5;"/><text fill="#000000" font-family="Segoe UI" font-size="13" lengthAdjust="spacing" textLength="137.5728" x="315" y="247.9648">Validate request body</text><rect fill="#EEEEEE" height="3" style="stroke:#EEEEEE;stroke-width:1;" width="591.8403" x="0" y="281.3623"/><line style="stroke:#000000;stroke-width:1;" x1="0" x2="591.8403" y1="281.3623" y2="281.3623"/><line style="stroke:#000000;stroke-width:1;" x1="0" x2="591.8403" y1="284.3623" y2="284.3623"/><rect fill="#EEEEEE" height="23.3105" style="stroke:#000000;stroke-width:2;" width="80.3711" x="255.7346" y="270.707"/><text fill="#000000" font-family="Segoe UI" font-size="13" font-weight="bold" lengthAdjust="spacing" textLength="62.0864" x="261.7346" y="287.2754">Database</text><g class="message" data-participant-1="Svc" data-participant-2="DB"><polygon fill="#059669" points="528.4155,321.3281,538.4155,325.3281,528.4155,329.3281,532.4155,325.3281" style="stroke:#059669;stroke-width:1;"/><line style="stroke:#059669;stroke-width:1;" x1="304.3315" x2="534.4155" y1="325.3281" y2="325.3281"/><text fill="#000000" font-family="Segoe UI" font-size="13" lengthAdjust="spacing" textLength="96.0718" x="311.3315" y="320.5859">INSERT INTO ...</text></g><g class="message" data-participant-1="DB" data-participant-2="Svc"><polygon fill="#059669" points="315.3315,350.6387,305.3315,354.6387,315.3315,358.6387,311.3315,354.6387" style="stroke:#059669;stroke-width:1;"/><line style="stroke:#059669;stroke-width:1;stroke-dasharray:2,2;" x1="309.3315" x2="544.4155" y1="354.6387" y2="354.6387"/><text fill="#000000" font-family="Segoe UI" font-size="13" lengthAdjust="spacing" textLength="76.4575" x="321.3315" y="349.8965">Created row</text></g><rect fill="#EEEEEE" height="3" style="stroke:#EEEEEE;stroke-width:1;" width="591.8403" x="0" y="383.2939"/><line style="stroke:#000000;stroke-width:1;" x1="0" x2="591.8403" y1="383.2939" y2="383.2939"/><line style="stroke:#000000;stroke-width:1;" x1="0" x2="591.8403" y1="386.2939" y2="386.2939"/><rect fill="#EEEEEE" height="23.3105" style="stroke:#000000;stroke-width:2;" width="106.8218" x="242.5093" y="372.6387"/><text fill="#000000" font-family="Segoe UI" font-size="13" font-weight="bold" lengthAdjust="spacing" textLength="88.5371" x="248.5093" y="389.207">Async Events</text><g class="message" data-participant-1="Svc" data-participant-2="Ntfy"><line style="stroke:#059669;stroke-width:1;" x1="441.9756" x2="431.9756" y1="427.2598" y2="423.2598"/><line style="stroke:#059669;stroke-width:1;" x1="441.9756" x2="431.9756" y1="427.2598" y2="431.2598"/><line style="stroke:#059669;stroke-width:1;" x1="304.3315" x2="442.9756" y1="427.2598" y2="427.2598"/><a href="/microservices/svc-notifications/#post-notifications-send-a-notification" target="_top" title="/microservices/svc-notifications/#post-notifications-send-a-notification" xlink:actuate="onRequest" xlink:href="/microservices/svc-notifications/#post-notifications-send-a-notification" xlink:show="new" xlink:title="/microservices/svc-notifications/#post-notifications-send-a-notification" xlink:type="simple"><text fill="#0000FF" font-family="Segoe UI" font-size="13" lengthAdjust="spacing" text-decoration="underline" textLength="104.5649" x="311.3315" y="422.5176">Send safety alert</text></a></g><g class="message" data-participant-1="Svc" data-participant-2="GW"><polygon fill="#059669" points="172.4136,452.5703,162.4136,456.5703,172.4136,460.5703,168.4136,456.5703" style="stroke:#059669;stroke-width:1;"/><line style="stroke:#059669;stroke-width:1;stroke-dasharray:2,2;" x1="166.4136" x2="298.3315" y1="456.5703" y2="456.5703"/><text fill="#000000" font-family="Segoe UI" font-size="13" lengthAdjust="spacing" textLength="77.7969" x="178.4136" y="451.8281">201 Created</text></g><g class="message" data-participant-1="GW" data-participant-2="Client"><polygon fill="#059669" points="42.7524,481.8809,32.7524,485.8809,42.7524,489.8809,38.7524,485.8809" style="stroke:#059669;stroke-width:1;"/><line style="stroke:#059669;stroke-width:1;stroke-dasharray:2,2;" x1="36.7524" x2="155.4136" y1="485.8809" y2="485.8809"/><text fill="#000000" font-family="Segoe UI" font-size="13" lengthAdjust="spacing" textLength="77.7969" x="48.7524" y="481.1387">201 Created</text></g><!--SRC=[ZLFRRk8m47ttLupWcKkXMoWIbRWa5L95sKql3rqUZ3D9hGOxQxjGjDf_tqaWaBIijE4XnkVCcV4vZdsJAkM6hs75nLjizBiA9phH1kg-b_sOFJBiAm_rLgeO8fvOB24XHlmzSRvMRixN2BK0OutmEAkLo_7NEog1y9i1FIDZzFRGgltj-khgEjzUSEEaa2bNRgnDYEP0wNZzgz7u2-Npq5xVl_JxEUrEHdWd5LPaHftkkDV9yR7-g43-HTzlNnoXBtRuFk4vFDUkgYfwlLMtX9sniklrs1_6d7G9mk8-U82ML4A6g9pzgNn9krn1iGK6KsqSO-dfh52R99Am6d0B-sKL7YrcSCiTRlakvzm-GtqwzaOKOeLdDw9XUOHkrn1wdIQIKofvHR0HyFBIMajXj4MpaG9jwoozjLmUpQw8q_bb90LtKYkRYyvTj3klgihSNF5WSiWTNt5B5scXhOiD1j_lSgtfc3WJxzARC4RL27g39XkRlASMHtMUolDpDr_TEgctPeNrBM6GB2l-mvF4BQK0mPR7CKa_pfPBXYg4h1jZUzkXSPEPE_YS8-F2oGt9vTOVBZKjYPuvEm2w4mIQx4EmxiJEm8A-FvQHyQi37HtgddWYGtugXPKETumDXp0jd1eE6Sl8r8jC6i1i7dW_7kZrS0_DPlFKh6GXBHl7sIQv4I7Dk6KXbkXvdv7TAG7U9ZjcgTVDFjt1_-HRJodBwbx3ahKDNjc48BDx7npm18sZ1FRj2jixxOjYtFAesJN8t2RQ8QT_Kc-VsLy0]--></g></svg>