<svg xmlns="http://www.w3.org/2000/svg" xmlns:xlink="http://www.w3.org/1999/xlink" contentStyleType="text/css" data-diagram-type="SEQUENCE" height="616px" preserveAspectRatio="none" style="width:608px;height:616px;background:#FEFEFE;" version="1.1" viewBox="0 0 608 616" width="608px" zoomAndPan="magnify"><title>PATCH /vehicles/{vehicle_id}</title><defs/><g><rect fill="#FEFEFE" height="616" style="stroke:none;stroke-width:1;" width="608" x="0" y="0"/><text fill="#000000" font-family="Segoe UI" font-size="14" font-weight="bold" lengthAdjust="spacing" textLength="209.9453" x="195.2007" y="41.3125">PATCH /vehicles/{vehicle_id}</text><text fill="#000000" font-family="Segoe UI" font-size="14" font-weight="bold" lengthAdjust="spacing" textLength="195.6855" x="202.3306" y="57.8008">Update vehicle information</text><g><title>API Gateway</title><rect fill="#7C3AED" height="319.1055" style="stroke:#A23B72;stroke-width:1;" width="10" x="231.8574" y="200.8633"/></g><g><title>svc-transport-logistics</title><rect fill="#7C3AED" height="260.4844" style="stroke:#A23B72;stroke-width:1;" width="10" x="375.5479" y="230.1738"/></g><g><title>PostgreSQL</title><rect fill="#FCE4EC" height="29.3105" style="stroke:#A23B72;stroke-width:1;" width="10" x="549.9219" y="338.1055"/></g><g><title>PostgreSQL</title><rect fill="#FCE4EC" height="29.3105" style="stroke:#A23B72;stroke-width:1;" width="10" x="549.9219" y="432.0371"/></g><g><title>Client</title><rect fill="#000000" fill-opacity="0.00000" height="403.7266" width="8" x="27.7524" y="134.2422"/><line style="stroke:#A23B72;stroke-width:0.5;stroke-dasharray:5,5;" x1="31" x2="31" y1="134.2422" y2="537.9688"/></g><g><title>API Gateway</title><rect fill="#000000" fill-opacity="0.00000" height="403.7266" width="8" x="232.8574" y="134.2422"/><line style="stroke:#A23B72;stroke-width:0.5;stroke-dasharray:5,5;" x1="236.5684" x2="236.5684" y1="134.2422" y2="537.9688"/></g><g><title>svc-transport-logistics</title><rect fill="#000000" fill-opacity="0.00000" height="403.7266" width="8" x="376.5479" y="134.2422"/><line style="stroke:#A23B72;stroke-width:0.5;stroke-dasharray:5,5;" x1="380.1465" x2="380.1465" y1="134.2422" y2="537.9688"/></g><g><title>PostgreSQL</title><rect fill="#000000" fill-opacity="0.00000" height="403.7266" width="8" x="550.9219" y="134.2422"/><line style="stroke:#A23B72;stroke-width:0.5;stroke-dasharray:5,5;" x1="554.4971" x2="554.4971" y1="134.2422" y2="537.9688"/></g><g class="participant participant-head" data-participant="Client"><a href="/applications/" target="_top" title="/applications/" xlink:actuate="onRequest" xlink:href="/applications/" xlink:show="new" xlink:title="/applications/" xlink:type="simple"><rect fill="#E8F4F8" height="30.4883" rx="2.5" ry="2.5" style="stroke:#2E86AB;stroke-width:0.5;" width="53.5049" x="5" y="102.7539"/><text fill="#000000" font-family="Segoe UI" font-size="14" lengthAdjust="spacing" textLength="39.5049" x="12" y="123.2891">Client</text></a></g><g class="participant participant-tail" data-participant="Client"><a href="/applications/" target="_top" title="/applications/" xlink:actuate="onRequest" xlink:href="/applications/" xlink:show="new" xlink:title="/applications/" xlink:type="simple"><rect fill="#E8F4F8" height="30.4883" rx="2.5" ry="2.5" style="stroke:#2E86AB;stroke-width:0.5;" width="53.5049" x="5" y="536.9688"/><text fill="#000000" font-family="Segoe UI" font-size="14" lengthAdjust="spacing" textLength="39.5049" x="12" y="557.5039">Client</text></a></g><g class="participant participant-head" data-participant="GW"><rect fill="#DBEAFE" height="30.4883" rx="2.5" ry="2.5" style="stroke:#2E86AB;stroke-width:0.5;" width="96.5781" x="188.5684" y="102.7539"/><text fill="#000000" font-family="Segoe UI" font-size="14" lengthAdjust="spacing" textLength="82.5781" x="195.5684" y="123.2891">API Gateway</text></g><g class="participant participant-tail" data-participant="GW"><rect fill="#DBEAFE" height="30.4883" rx="2.5" ry="2.5" style="stroke:#2E86AB;stroke-width:0.5;" width="96.5781" x="188.5684" y="536.9688"/><text fill="#000000" font-family="Segoe UI" font-size="14" lengthAdjust="spacing" textLength="82.5781" x="195.5684" y="557.5039">API Gateway</text></g><g class="participant participant-head" data-participant="Svc"><a href="/microservices/svc-transport-logistics/" target="_top" title="/microservices/svc-transport-logistics/" xlink:actuate="onRequest" xlink:href="/microservices/svc-transport-logistics/" xlink:show="new" xlink:title="/microservices/svc-transport-logistics/" xlink:type="simple"><rect fill="#E8F4F8" height="30.4883" rx="2.5" ry="2.5" style="stroke:#2E86AB;stroke-width:0.5;" width="170.8027" x="295.1465" y="102.7539"/><text fill="#000000" font-family="Segoe UI" font-size="14" lengthAdjust="spacing" textLength="156.8027" x="302.1465" y="123.2891">svc-transport-logistics</text></a></g><g class="participant participant-tail" data-participant="Svc"><a href="/microservices/svc-transport-logistics/" target="_top" title="/microservices/svc-transport-logistics/" xlink:actuate="onRequest" xlink:href="/microservices/svc-transport-logistics/" xlink:show="new" xlink:title="/microservices/svc-transport-logistics/" xlink:type="simple"><rect fill="#E8F4F8" height="30.4883" rx="2.5" ry="2.5" style="stroke:#2E86AB;stroke-width:0.5;" width="170.8027" x="295.1465" y="536.9688"/><text fill="#000000" font-family="Segoe UI" font-size="14" lengthAdjust="spacing" textLength="156.8027" x="302.1465" y="557.5039">svc-transport-logistics</text></a></g><g class="participant participant-head" data-participant="DB"><text fill="#000000" font-family="Segoe UI" font-size="14" lengthAdjust="spacing" textLength="76.8496" x="513.4971" y="131.2891">PostgreSQL</text><path d="M536.9219,81.7539 C536.9219,71.7539 554.9219,71.7539 554.9219,71.7539 C554.9219,71.7539 572.9219,71.7539 572.9219,81.7539 L572.9219,107.7539 C572.9219,117.7539 554.9219,117.7539 554.9219,117.7539 C554.9219,117.7539 536.9219,117.7539 536.9219,107.7539 L536.9219,81.7539" fill="#FCE4EC" style="stroke:#181818;stroke-width:0.5;"/><path d="M536.9219,81.7539 C536.9219,91.7539 554.9219,91.7539 554.9219,91.7539 C554.9219,91.7539 572.9219,91.7539 572.9219,81.7539" fill="none" style="stroke:#181818;stroke-width:0.5;"/></g><g class="participant participant-tail" data-participant="DB"><text fill="#000000" font-family="Segoe UI" font-size="14" lengthAdjust="spacing" textLength="76.8496" x="513.4971" y="550.5039">PostgreSQL</text><path d="M536.9219,563.457 C536.9219,553.457 554.9219,553.457 554.9219,553.457 C554.9219,553.457 572.9219,553.457 572.9219,563.457 L572.9219,589.457 C572.9219,599.457 554.9219,599.457 554.9219,599.457 C554.9219,599.457 536.9219,599.457 536.9219,589.457 L536.9219,563.457" fill="#FCE4EC" style="stroke:#181818;stroke-width:0.5;"/><path d="M536.9219,563.457 C536.9219,573.457 554.9219,573.457 554.9219,573.457 C554.9219,573.457 572.9219,573.457 572.9219,563.457" fill="none" style="stroke:#181818;stroke-width:0.5;"/></g><g><title>API Gateway</title><rect fill="#7C3AED" height="319.1055" style="stroke:#A23B72;stroke-width:1;" width="10" x="231.8574" y="200.8633"/></g><g><title>svc-transport-logistics</title><rect fill="#7C3AED" height="260.4844" style="stroke:#A23B72;stroke-width:1;" width="10" x="375.5479" y="230.1738"/></g><g><title>PostgreSQL</title><rect fill="#FCE4EC" height="29.3105" style="stroke:#A23B72;stroke-width:1;" width="10" x="549.9219" y="338.1055"/></g><g><title>PostgreSQL</title><rect fill="#FCE4EC" height="29.3105" style="stroke:#A23B72;stroke-width:1;" width="10" x="549.9219" y="432.0371"/></g><path d="M310,149.2422 L310,174.2422 L450,174.2422 L450,159.2422 L440,149.2422 L310,149.2422" fill="#FEFFDD" style="stroke:#181818;stroke-width:0.5;"/><path d="M440,149.2422 L440,159.2422 L450,159.2422 L440,149.2422" fill="#FEFFDD" style="stroke:#181818;stroke-width:0.5;"/><a href="/services/api/svc-transport-logistics.html" target="_top" title="/services/api/svc-transport-logistics.html" xlink:actuate="onRequest" xlink:href="/services/api/svc-transport-logistics.html" xlink:show="new" xlink:title="/services/api/svc-transport-logistics.html" xlink:type="simple"><text fill="#0000FF" font-family="Segoe UI" font-size="13" lengthAdjust="spacing" text-decoration="underline" textLength="119.4058" x="316" y="166.8105">View in Swagger UI</text></a><g class="message" data-participant-1="Client" data-participant-2="GW"><polygon fill="#7C3AED" points="219.8574,196.8633,229.8574,200.8633,219.8574,204.8633,223.8574,200.8633" style="stroke:#7C3AED;stroke-width:1;"/><line style="stroke:#7C3AED;stroke-width:1;" x1="31.7524" x2="225.8574" y1="200.8633" y2="200.8633"/><text fill="#000000" font-family="Segoe UI" font-size="13" lengthAdjust="spacing" textLength="181.105" x="38.7524" y="196.1211">PATCH /vehicles/{vehicle_id}</text></g><g class="message" data-participant-1="GW" data-participant-2="Svc"><polygon fill="#7C3AED" points="363.5479,226.1738,373.5479,230.1738,363.5479,234.1738,367.5479,230.1738" style="stroke:#7C3AED;stroke-width:1;"/><line style="stroke:#7C3AED;stroke-width:1;" x1="241.8574" x2="369.5479" y1="230.1738" y2="230.1738"/><text fill="#000000" font-family="Segoe UI" font-size="13" lengthAdjust="spacing" textLength="85.1348" x="248.8574" y="225.4316">route request</text></g><path d="M390,243.1738 L390,268.1738 L548,268.1738 L548,253.1738 L538,243.1738 L390,243.1738" fill="#FEFFDD" style="stroke:#181818;stroke-width:0.5;"/><path d="M538,243.1738 L538,253.1738 L548,253.1738 L538,243.1738" fill="#FEFFDD" style="stroke:#181818;stroke-width:0.5;"/><text fill="#000000" font-family="Segoe UI" font-size="13" lengthAdjust="spacing" textLength="137.5728" x="396" y="260.7422">Validate request body</text><rect fill="#EEEEEE" height="3" style="stroke:#EEEEEE;stroke-width:1;" width="601.3467" x="0" y="294.1396"/><line style="stroke:#000000;stroke-width:1;" x1="0" x2="601.3467" y1="294.1396" y2="294.1396"/><line style="stroke:#000000;stroke-width:1;" x1="0" x2="601.3467" y1="297.1396" y2="297.1396"/><rect fill="#EEEEEE" height="23.3105" style="stroke:#000000;stroke-width:2;" width="80.3711" x="260.4878" y="283.4844"/><text fill="#000000" font-family="Segoe UI" font-size="13" font-weight="bold" lengthAdjust="spacing" textLength="62.0864" x="266.4878" y="300.0527">Database</text><g class="message" data-participant-1="Svc" data-participant-2="DB"><polygon fill="#7C3AED" points="537.9219,334.1055,547.9219,338.1055,537.9219,342.1055,541.9219,338.1055" style="stroke:#7C3AED;stroke-width:1;"/><line style="stroke:#7C3AED;stroke-width:1;" x1="385.5479" x2="543.9219" y1="338.1055" y2="338.1055"/><text fill="#000000" font-family="Segoe UI" font-size="13" lengthAdjust="spacing" textLength="145.374" x="392.5479" y="333.3633">SELECT ... FOR UPDATE</text></g><g class="message" data-participant-1="DB" data-participant-2="Svc"><polygon fill="#7C3AED" points="396.5479,363.416,386.5479,367.416,396.5479,371.416,392.5479,367.416" style="stroke:#7C3AED;stroke-width:1;"/><line style="stroke:#7C3AED;stroke-width:1;stroke-dasharray:2,2;" x1="390.5479" x2="553.9219" y1="367.416" y2="367.416"/><text fill="#000000" font-family="Segoe UI" font-size="13" lengthAdjust="spacing" textLength="75.3086" x="402.5479" y="362.6738">Current row</text></g><path d="M390,380.416 L390,405.416 L576,405.416 L576,390.416 L566,380.416 L390,380.416" fill="#FEFFDD" style="stroke:#181818;stroke-width:0.5;"/><path d="M566,380.416 L566,390.416 L576,390.416 L566,380.416" fill="#FEFFDD" style="stroke:#181818;stroke-width:0.5;"/><text fill="#000000" font-family="Segoe UI" font-size="13" lengthAdjust="spacing" textLength="165.9023" x="396" y="397.9844">Merge changed fields only</text><g class="message" data-participant-1="Svc" data-participant-2="DB"><polygon fill="#7C3AED" points="537.9219,428.0371,547.9219,432.0371,537.9219,436.0371,541.9219,432.0371" style="stroke:#7C3AED;stroke-width:1;"/><line style="stroke:#7C3AED;stroke-width:1;" x1="385.5479" x2="543.9219" y1="432.0371" y2="432.0371"/><text fill="#000000" font-family="Segoe UI" font-size="13" lengthAdjust="spacing" textLength="109.4526" x="392.5479" y="427.2949">UPDATE ... SET ...</text></g><g class="message" data-participant-1="DB" data-participant-2="Svc"><polygon fill="#7C3AED" points="396.5479,457.3477,386.5479,461.3477,396.5479,465.3477,392.5479,461.3477" style="stroke:#7C3AED;stroke-width:1;"/><line style="stroke:#7C3AED;stroke-width:1;stroke-dasharray:2,2;" x1="390.5479" x2="553.9219" y1="461.3477" y2="461.3477"/><text fill="#000000" font-family="Segoe UI" font-size="13" lengthAdjust="spacing" textLength="80.2725" x="402.5479" y="456.6055">Updated row</text></g><g class="message" data-participant-1="Svc" data-participant-2="GW"><polygon fill="#7C3AED" points="252.8574,486.6582,242.8574,490.6582,252.8574,494.6582,248.8574,490.6582" style="stroke:#7C3AED;stroke-width:1;"/><line style="stroke:#7C3AED;stroke-width:1;stroke-dasharray:2,2;" x1="246.8574" x2="379.5479" y1="490.6582" y2="490.6582"/><text fill="#000000" font-family="Segoe UI" font-size="13" lengthAdjust="spacing" textLength="47.3599" x="258.8574" y="485.916">200 OK</text></g><g class="message" data-participant-1="GW" data-participant-2="Client"><polygon fill="#7C3AED" points="42.7524,515.9688,32.7524,519.9688,42.7524,523.9688,38.7524,519.9688" style="stroke:#7C3AED;stroke-width:1;"/><line style="stroke:#7C3AED;stroke-width:1;stroke-dasharray:2,2;" x1="36.7524" x2="235.8574" y1="519.9688" y2="519.9688"/><text fill="#000000" font-family="Segoe UI" font-size="13" lengthAdjust="spacing" textLength="47.3599" x="48.7524" y="515.2266">200 OK</text></g><a href="/microservices/svc-transport-logistics/#integration-context" target="_top" title="/microservices/svc-transport-logistics/#integration-context" xlink:actuate="onRequest" xlink:href="/microservices/svc-transport-logistics/#integration-context" xlink:show="new" xlink:title="/microservices/svc-transport-logistics/#integration-context" xlink:type="simple"><text fill="#0000FF" font-family="Segoe UI" font-size="10" lengthAdjust="spacing" text-decoration="underline" textLength="223.1738" x="377.1729" y="14.668">&#11014; svc-transport-logistics Integration Context</text></a><!--SRC=[ZLFRRjf047tVhnZ1Cv10L10IbOonKrIQq0B9GuggPJsOLSokkxj0eYYl_Pf-LR-aO-DmQKXR-sMrSywScJEpzbwgb1k-X1aNzx7HAnNvEj46oc6G_Spk47R18xsHAeOvJomUH2ASyrNYGgtS5LyYb4OOQuH9ltH8n-yhL0BXYG5zdZ5wKqWrHODZb5yFkN5Io9GhrzKcGbD0wa7hdTTz1VcpwA0LNeIj73QGSnn8XKTfl7gZswpdyQv-E0g5vwtmx7mNUcL7658y3rzfTvnLD9kpna7iX9MDeCcU6LiW9nhStTMMKXXjqQobG5kpQr5nXYkRQkCgYOwbfHvjhIoLmzXm9xMg2F8N7npy-la3tY10Vuy7VukVJXbpqYK8Gs_iVu3Q6XTI9AJwL9o-oUZvgvga4NS8nHr8DTTccMTYBDrx3YK_aQXS2RY5xJ7hXwTf8aKEjpMIF69umpvSKl8DVynfbxTGxdK3Z_Rh2FT6Lpbdj1R_xzjqkji5QehFkAMj76hhOeEZpuCyOQzBa_63Yy1dJD7OGAzfD2H3WoIXdGPFvLiwrOLR9d0ZSKDsmMZ3uvXIJFhKFwe8igoC5HvLtcTjj_yw1CQ5a-ji2fb3nREW8t6pzjj0MqL1apqbw_ReBFW2t_PYPBnmeES5xuOdCfzkGOMPZXuPwtIWzs9FfyDO1YOjSgODes0G-6EeLgiGNd-1oR3dZOEzv85xTApiAlHNncJjqkjc4Hx0JzRr2KsC81PSnHZ1N68IMT0gUJokPIkUrp8Ayfh-NSXsdQCJXMnJlyoZVdO6rnyF8TaAPAOJefZTATJbBViD]--></g></svg>