<svg xmlns="http://www.w3.org/2000/svg" xmlns:xlink="http://www.w3.org/1999/xlink" contentStyleType="text/css" data-diagram-type="SEQUENCE" height="670px" preserveAspectRatio="none" style="width:760px;height:670px;background:#FEFEFE;" version="1.1" viewBox="0 0 760 670" width="760px" zoomAndPan="magnify"><title>POST /check-ins</title><defs/><g><rect fill="#FEFEFE" height="670" style="stroke:none;stroke-width:1;" width="760" x="0" y="0"/><text fill="#000000" font-family="Segoe UI" font-size="14" font-weight="bold" lengthAdjust="spacing" textLength="122.0625" x="315.1021" y="28.5352">POST /check-ins</text><text fill="#000000" font-family="Segoe UI" font-size="14" font-weight="bold" lengthAdjust="spacing" textLength="240.8438" x="255.7114" y="45.0234">Initiate check-in for a participant</text><g><title>API Gateway</title><rect fill="#059669" height="385.7266" style="stroke:#A23B72;stroke-width:1;" width="10" x="156.3901" y="188.0859"/></g><g><title>svc-check-in</title><rect fill="#059669" height="327.1055" style="stroke:#A23B72;stroke-width:1;" width="10" x="270.5249" y="217.3965"/></g><g><title>Reservations</title><rect fill="#DBEAFE" height="29.3105" style="stroke:#A23B72;stroke-width:1;" width="10" x="451.564" y="325.3281"/></g><g><title>Safety Compliance</title><rect fill="#DBEAFE" height="29.3105" style="stroke:#A23B72;stroke-width:1;" width="10" x="580.9912" y="383.9492"/></g><g><title>PostgreSQL</title><rect fill="#FCE4EC" height="29.3105" style="stroke:#A23B72;stroke-width:1;" width="10" x="701.8418" y="485.8809"/></g><g><title>Client</title><rect fill="#000000" fill-opacity="0.00000" height="470.3477" width="8" x="27.7524" y="121.4648"/><line style="stroke:#A23B72;stroke-width:0.5;stroke-dasharray:5,5;" x1="31" x2="31" y1="121.4648" y2="591.8125"/></g><g><title>API Gateway</title><rect fill="#000000" fill-opacity="0.00000" height="470.3477" width="8" x="157.3901" y="121.4648"/><line style="stroke:#A23B72;stroke-width:0.5;stroke-dasharray:5,5;" x1="161.1011" x2="161.1011" y1="121.4648" y2="591.8125"/></g><g><title>svc-check-in</title><rect fill="#000000" fill-opacity="0.00000" height="470.3477" width="8" x="271.5249" y="121.4648"/><line style="stroke:#A23B72;stroke-width:0.5;stroke-dasharray:5,5;" x1="274.7734" x2="274.7734" y1="121.4648" y2="591.8125"/></g><g><title>Reservations</title><rect fill="#000000" fill-opacity="0.00000" height="470.3477" width="8" x="452.564" y="121.4648"/><line style="stroke:#A23B72;stroke-width:0.5;stroke-dasharray:5,5;" x1="456.5625" x2="456.5625" y1="121.4648" y2="591.8125"/></g><g><title>Safety Compliance</title><rect fill="#000000" fill-opacity="0.00000" height="470.3477" width="8" x="581.9912" y="121.4648"/><line style="stroke:#A23B72;stroke-width:0.5;stroke-dasharray:5,5;" x1="585.5654" x2="585.5654" y1="121.4648" y2="591.8125"/></g><g><title>PostgreSQL</title><rect fill="#000000" fill-opacity="0.00000" height="470.3477" width="8" x="702.8418" y="121.4648"/><line style="stroke:#A23B72;stroke-width:0.5;stroke-dasharray:5,5;" x1="706.417" x2="706.417" y1="121.4648" y2="591.8125"/></g><g class="participant participant-head" data-participant="Client"><rect fill="#E8F4F8" height="30.4883" rx="2.5" ry="2.5" style="stroke:#2E86AB;stroke-width:0.5;" width="53.5049" x="5" y="89.9766"/><text fill="#000000" font-family="Segoe UI" font-size="14" lengthAdjust="spacing" textLength="39.5049" x="12" y="110.5117">Client</text></g><g class="participant participant-tail" data-participant="Client"><rect fill="#E8F4F8" height="30.4883" rx="2.5" ry="2.5" style="stroke:#2E86AB;stroke-width:0.5;" width="53.5049" x="5" y="590.8125"/><text fill="#000000" font-family="Segoe UI" font-size="14" lengthAdjust="spacing" textLength="39.5049" x="12" y="611.3477">Client</text></g><g class="participant participant-head" data-participant="GW"><rect fill="#DBEAFE" height="30.4883" rx="2.5" ry="2.5" style="stroke:#2E86AB;stroke-width:0.5;" width="96.5781" x="113.1011" y="89.9766"/><text fill="#000000" font-family="Segoe UI" font-size="14" lengthAdjust="spacing" textLength="82.5781" x="120.1011" y="110.5117">API Gateway</text></g><g class="participant participant-tail" data-participant="GW"><rect fill="#DBEAFE" height="30.4883" rx="2.5" ry="2.5" style="stroke:#2E86AB;stroke-width:0.5;" width="96.5781" x="113.1011" y="590.8125"/><text fill="#000000" font-family="Segoe UI" font-size="14" lengthAdjust="spacing" textLength="82.5781" x="120.1011" y="611.3477">API Gateway</text></g><g class="participant participant-head" data-participant="Svc"><a href="/microservices/svc-check-in/" target="_top" title="/microservices/svc-check-in/" xlink:actuate="onRequest" xlink:href="/microservices/svc-check-in/" xlink:show="new" xlink:title="/microservices/svc-check-in/" xlink:type="simple"><rect fill="#E8F4F8" height="30.4883" rx="2.5" ry="2.5" style="stroke:#2E86AB;stroke-width:0.5;" width="103.5029" x="223.7734" y="89.9766"/><text fill="#000000" font-family="Segoe UI" font-size="14" lengthAdjust="spacing" textLength="89.5029" x="230.7734" y="110.5117">svc-check-in</text></a></g><g class="participant participant-tail" data-participant="Svc"><a href="/microservices/svc-check-in/" target="_top" title="/microservices/svc-check-in/" xlink:actuate="onRequest" xlink:href="/microservices/svc-check-in/" xlink:show="new" xlink:title="/microservices/svc-check-in/" xlink:type="simple"><rect fill="#E8F4F8" height="30.4883" rx="2.5" ry="2.5" style="stroke:#2E86AB;stroke-width:0.5;" width="103.5029" x="223.7734" y="590.8125"/><text fill="#000000" font-family="Segoe UI" font-size="14" lengthAdjust="spacing" textLength="89.5029" x="230.7734" y="611.3477">svc-check-in</text></a></g><g class="participant participant-head" data-participant="Res"><a href="/microservices/svc-reservations/" target="_top" title="/microservices/svc-reservations/" xlink:actuate="onRequest" xlink:href="/microservices/svc-reservations/" xlink:show="new" xlink:title="/microservices/svc-reservations/" xlink:type="simple"><rect fill="#FFF8F0" height="30.4883" rx="2.5" ry="2.5" style="stroke:#2E86AB;stroke-width:0.5;" width="100.0029" x="406.5625" y="89.9766"/><text fill="#000000" font-family="Segoe UI" font-size="14" lengthAdjust="spacing" textLength="86.0029" x="413.5625" y="110.5117">Reservations</text></a></g><g class="participant participant-tail" data-participant="Res"><a href="/microservices/svc-reservations/" target="_top" title="/microservices/svc-reservations/" xlink:actuate="onRequest" xlink:href="/microservices/svc-reservations/" xlink:show="new" xlink:title="/microservices/svc-reservations/" xlink:type="simple"><rect fill="#FFF8F0" height="30.4883" rx="2.5" ry="2.5" style="stroke:#2E86AB;stroke-width:0.5;" width="100.0029" x="406.5625" y="590.8125"/><text fill="#000000" font-family="Segoe UI" font-size="14" lengthAdjust="spacing" textLength="86.0029" x="413.5625" y="611.3477">Reservations</text></a></g><g class="participant participant-head" data-participant="Safety"><a href="/microservices/svc-safety-compliance/" target="_top" title="/microservices/svc-safety-compliance/" xlink:actuate="onRequest" xlink:href="/microservices/svc-safety-compliance/" xlink:show="new" xlink:title="/microservices/svc-safety-compliance/" xlink:type="simple"><rect fill="#FFF8F0" height="30.4883" rx="2.5" ry="2.5" style="stroke:#2E86AB;stroke-width:0.5;" width="138.8516" x="516.5654" y="89.9766"/><text fill="#000000" font-family="Segoe UI" font-size="14" lengthAdjust="spacing" textLength="124.8516" x="523.5654" y="110.5117">Safety Compliance</text></a></g><g class="participant participant-tail" data-participant="Safety"><a href="/microservices/svc-safety-compliance/" target="_top" title="/microservices/svc-safety-compliance/" xlink:actuate="onRequest" xlink:href="/microservices/svc-safety-compliance/" xlink:show="new" xlink:title="/microservices/svc-safety-compliance/" xlink:type="simple"><rect fill="#FFF8F0" height="30.4883" rx="2.5" ry="2.5" style="stroke:#2E86AB;stroke-width:0.5;" width="138.8516" x="516.5654" y="590.8125"/><text fill="#000000" font-family="Segoe UI" font-size="14" lengthAdjust="spacing" textLength="124.8516" x="523.5654" y="611.3477">Safety Compliance</text></a></g><g class="participant participant-head" data-participant="DB"><text fill="#000000" font-family="Segoe UI" font-size="14" lengthAdjust="spacing" textLength="76.8496" x="665.417" y="118.5117">PostgreSQL</text><path d="M688.8418,68.9766 C688.8418,58.9766 706.8418,58.9766 706.8418,58.9766 C706.8418,58.9766 724.8418,58.9766 724.8418,68.9766 L724.8418,94.9766 C724.8418,104.9766 706.8418,104.9766 706.8418,104.9766 C706.8418,104.9766 688.8418,104.9766 688.8418,94.9766 L688.8418,68.9766" fill="#FCE4EC" style="stroke:#181818;stroke-width:0.5;"/><path d="M688.8418,68.9766 C688.8418,78.9766 706.8418,78.9766 706.8418,78.9766 C706.8418,78.9766 724.8418,78.9766 724.8418,68.9766" fill="none" style="stroke:#181818;stroke-width:0.5;"/></g><g class="participant participant-tail" data-participant="DB"><text fill="#000000" font-family="Segoe UI" font-size="14" lengthAdjust="spacing" textLength="76.8496" x="665.417" y="604.3477">PostgreSQL</text><path d="M688.8418,617.3008 C688.8418,607.3008 706.8418,607.3008 706.8418,607.3008 C706.8418,607.3008 724.8418,607.3008 724.8418,617.3008 L724.8418,643.3008 C724.8418,653.3008 706.8418,653.3008 706.8418,653.3008 C706.8418,653.3008 688.8418,653.3008 688.8418,643.3008 L688.8418,617.3008" fill="#FCE4EC" style="stroke:#181818;stroke-width:0.5;"/><path d="M688.8418,617.3008 C688.8418,627.3008 706.8418,627.3008 706.8418,627.3008 C706.8418,627.3008 724.8418,627.3008 724.8418,617.3008" fill="none" style="stroke:#181818;stroke-width:0.5;"/></g><g><title>API Gateway</title><rect fill="#059669" height="385.7266" style="stroke:#A23B72;stroke-width:1;" width="10" x="156.3901" y="188.0859"/></g><g><title>svc-check-in</title><rect fill="#059669" height="327.1055" style="stroke:#A23B72;stroke-width:1;" width="10" x="270.5249" y="217.3965"/></g><g><title>Reservations</title><rect fill="#DBEAFE" height="29.3105" style="stroke:#A23B72;stroke-width:1;" width="10" x="451.564" y="325.3281"/></g><g><title>Safety Compliance</title><rect fill="#DBEAFE" height="29.3105" style="stroke:#A23B72;stroke-width:1;" width="10" x="580.9912" y="383.9492"/></g><g><title>PostgreSQL</title><rect fill="#FCE4EC" height="29.3105" style="stroke:#A23B72;stroke-width:1;" width="10" x="701.8418" y="485.8809"/></g><path d="M205,136.4648 L205,161.4648 L345,161.4648 L345,146.4648 L335,136.4648 L205,136.4648" fill="#FEFFDD" style="stroke:#181818;stroke-width:0.5;"/><path d="M335,136.4648 L335,146.4648 L345,146.4648 L335,136.4648" fill="#FEFFDD" style="stroke:#181818;stroke-width:0.5;"/><a href="/services/api/svc-check-in.html#/Check-Ins/createCheckIn" target="_top" title="/services/api/svc-check-in.html#/Check-Ins/createCheckIn" xlink:actuate="onRequest" xlink:href="/services/api/svc-check-in.html#/Check-Ins/createCheckIn" xlink:show="new" xlink:title="/services/api/svc-check-in.html#/Check-Ins/createCheckIn" xlink:type="simple"><text fill="#0000FF" font-family="Segoe UI" font-size="13" lengthAdjust="spacing" text-decoration="underline" textLength="119.4058" x="211" y="154.0332">View in Swagger UI</text></a><g class="message" data-participant-1="Client" data-participant-2="GW"><polygon fill="#059669" points="144.3901,184.0859,154.3901,188.0859,144.3901,192.0859,148.3901,188.0859" style="stroke:#059669;stroke-width:1;"/><line style="stroke:#059669;stroke-width:1;" x1="31.7524" x2="150.3901" y1="188.0859" y2="188.0859"/><text fill="#000000" font-family="Segoe UI" font-size="13" lengthAdjust="spacing" textLength="105.6377" x="38.7524" y="183.3438">POST /check-ins</text></g><g class="message" data-participant-1="GW" data-participant-2="Svc"><polygon fill="#059669" points="258.5249,213.3965,268.5249,217.3965,258.5249,221.3965,262.5249,217.3965" style="stroke:#059669;stroke-width:1;"/><line style="stroke:#059669;stroke-width:1;" x1="166.3901" x2="264.5249" y1="217.3965" y2="217.3965"/><text fill="#000000" font-family="Segoe UI" font-size="13" lengthAdjust="spacing" textLength="85.1348" x="173.3901" y="212.6543">route request</text></g><path d="M285,230.3965 L285,255.3965 L443,255.3965 L443,240.3965 L433,230.3965 L285,230.3965" fill="#FEFFDD" style="stroke:#181818;stroke-width:0.5;"/><path d="M433,230.3965 L433,240.3965 L443,240.3965 L433,230.3965" fill="#FEFFDD" style="stroke:#181818;stroke-width:0.5;"/><text fill="#000000" font-family="Segoe UI" font-size="13" lengthAdjust="spacing" textLength="137.5728" x="291" y="247.9648">Validate request body</text><rect fill="#EEEEEE" height="3" style="stroke:#EEEEEE;stroke-width:1;" width="753.2666" x="0" y="281.3623"/><line style="stroke:#000000;stroke-width:1;" x1="0" x2="753.2666" y1="281.3623" y2="281.3623"/><line style="stroke:#000000;stroke-width:1;" x1="0" x2="753.2666" y1="284.3623" y2="284.3623"/><rect fill="#EEEEEE" height="23.3105" style="stroke:#000000;stroke-width:2;" width="190.6743" x="281.2961" y="270.707"/><text fill="#000000" font-family="Segoe UI" font-size="13" font-weight="bold" lengthAdjust="spacing" textLength="172.3896" x="287.2961" y="287.2754">Cross-Service Integration</text><g class="message" data-participant-1="Svc" data-participant-2="Res"><polygon fill="#059669" points="439.564,321.3281,449.564,325.3281,439.564,329.3281,443.564,325.3281" style="stroke:#059669;stroke-width:1;"/><line style="stroke:#059669;stroke-width:1;" x1="280.5249" x2="445.564" y1="325.3281" y2="325.3281"/><a href="/microservices/svc-reservations/" target="_top" title="/microservices/svc-reservations/" xlink:actuate="onRequest" xlink:href="/microservices/svc-reservations/" xlink:show="new" xlink:title="/microservices/svc-reservations/" xlink:type="simple"><text fill="#0000FF" font-family="Segoe UI" font-size="13" lengthAdjust="spacing" text-decoration="underline" textLength="152.0391" x="287.5249" y="320.5859">Verify reservation exists</text></a></g><g class="message" data-participant-1="Res" data-participant-2="Svc"><polygon fill="#059669" points="291.5249,350.6387,281.5249,354.6387,291.5249,358.6387,287.5249,354.6387" style="stroke:#059669;stroke-width:1;"/><line style="stroke:#059669;stroke-width:1;stroke-dasharray:2,2;" x1="285.5249" x2="455.564" y1="354.6387" y2="354.6387"/><text fill="#000000" font-family="Segoe UI" font-size="13" lengthAdjust="spacing" textLength="18.5859" x="297.5249" y="349.8965">OK</text></g><g class="message" data-participant-1="Svc" data-participant-2="Safety"><polygon fill="#059669" points="568.9912,379.9492,578.9912,383.9492,568.9912,387.9492,572.9912,383.9492" style="stroke:#059669;stroke-width:1;"/><line style="stroke:#059669;stroke-width:1;" x1="280.5249" x2="574.9912" y1="383.9492" y2="383.9492"/><a href="/microservices/svc-safety-compliance/" target="_top" title="/microservices/svc-safety-compliance/" xlink:actuate="onRequest" xlink:href="/microservices/svc-safety-compliance/" xlink:show="new" xlink:title="/microservices/svc-safety-compliance/" xlink:type="simple"><text fill="#0000FF" font-family="Segoe UI" font-size="13" lengthAdjust="spacing" text-decoration="underline" textLength="135.5605" x="287.5249" y="379.207">Validate active waiver</text></a></g><g class="message" data-participant-1="Safety" data-participant-2="Svc"><polygon fill="#059669" points="291.5249,409.2598,281.5249,413.2598,291.5249,417.2598,287.5249,413.2598" style="stroke:#059669;stroke-width:1;"/><line style="stroke:#059669;stroke-width:1;stroke-dasharray:2,2;" x1="285.5249" x2="584.9912" y1="413.2598" y2="413.2598"/><text fill="#000000" font-family="Segoe UI" font-size="13" lengthAdjust="spacing" textLength="18.5859" x="297.5249" y="408.5176">OK</text></g><rect fill="#EEEEEE" height="3" style="stroke:#EEEEEE;stroke-width:1;" width="753.2666" x="0" y="441.915"/><line style="stroke:#000000;stroke-width:1;" x1="0" x2="753.2666" y1="441.915" y2="441.915"/><line style="stroke:#000000;stroke-width:1;" x1="0" x2="753.2666" y1="444.915" y2="444.915"/><rect fill="#EEEEEE" height="23.3105" style="stroke:#000000;stroke-width:2;" width="80.3711" x="336.4478" y="431.2598"/><text fill="#000000" font-family="Segoe UI" font-size="13" font-weight="bold" lengthAdjust="spacing" textLength="62.0864" x="342.4478" y="447.8281">Database</text><g class="message" data-participant-1="Svc" data-participant-2="DB"><polygon fill="#059669" points="689.8418,481.8809,699.8418,485.8809,689.8418,489.8809,693.8418,485.8809" style="stroke:#059669;stroke-width:1;"/><line style="stroke:#059669;stroke-width:1;" x1="280.5249" x2="695.8418" y1="485.8809" y2="485.8809"/><text fill="#000000" font-family="Segoe UI" font-size="13" lengthAdjust="spacing" textLength="96.0718" x="287.5249" y="481.1387">INSERT INTO ...</text></g><g class="message" data-participant-1="DB" data-participant-2="Svc"><polygon fill="#059669" points="291.5249,511.1914,281.5249,515.1914,291.5249,519.1914,287.5249,515.1914" style="stroke:#059669;stroke-width:1;"/><line style="stroke:#059669;stroke-width:1;stroke-dasharray:2,2;" x1="285.5249" x2="705.8418" y1="515.1914" y2="515.1914"/><text fill="#000000" font-family="Segoe UI" font-size="13" lengthAdjust="spacing" textLength="76.4575" x="297.5249" y="510.4492">Created row</text></g><g class="message" data-participant-1="Svc" data-participant-2="GW"><polygon fill="#059669" points="177.3901,540.502,167.3901,544.502,177.3901,548.502,173.3901,544.502" style="stroke:#059669;stroke-width:1;"/><line style="stroke:#059669;stroke-width:1;stroke-dasharray:2,2;" x1="171.3901" x2="274.5249" y1="544.502" y2="544.502"/><text fill="#000000" font-family="Segoe UI" font-size="13" lengthAdjust="spacing" textLength="77.7969" x="183.3901" y="539.7598">201 Created</text></g><g class="message" data-participant-1="GW" data-participant-2="Client"><polygon fill="#059669" points="42.7524,569.8125,32.7524,573.8125,42.7524,577.8125,38.7524,573.8125" style="stroke:#059669;stroke-width:1;"/><line style="stroke:#059669;stroke-width:1;stroke-dasharray:2,2;" x1="36.7524" x2="160.3901" y1="573.8125" y2="573.8125"/><text fill="#000000" font-family="Segoe UI" font-size="13" lengthAdjust="spacing" textLength="77.7969" x="48.7524" y="569.0703">201 Created</text></g><!--SRC=[ZLFRRk8m47ttLupeCz3IRg58h4H2KaLRjMpJoqEN1vEOO3NOhEr2KRN_lcEJXAGNgK4AjkVCcV6S4_tCnPegke8vJPup9Lz4wijSAZWA0_iZkaBe9KtbbeiC5ZJNh1P9sOA-v2QKmbpJ5ODMp3B9u3vgrTFPtnSc4WPl1F0PAoMtHQdZ7nVdvnVkU4gLuGbVKs4ygLAc2aWl69oFlG-Gzqq7W_0i73ZO5L-mAovOWsRSE_NwFHVtv6iZ59uCmkEJAlHX7668SHU-bgR9clJxyzDQx9DHdWPzyeyGmqtEO7eJtq4tMRBakSs5_YCYmGsdXa5v1WlCex0-N9MGsWPQViwPC2sW6lRBPdWyZU0I2RTqvp2NZt0qyO8n2jh0wKtIBciwOBn9uEcfk-A9afgf3K-OxjPHtTci6dE3wfPPF3LS2kseyE1pAbL3EhfYjWswc2wOsO4lL-kSK_JDlhtzwQUqsiNQIPLHvqwfeNEgqPjJgKscMFpxoZ5EFCJumLdW4o9GF90RfkmOK4uiKrMWQzwOGsTfLlbHrtVR22-IA8O3T_j8m0DdMq0TuotDCYIyZsOpmaGAjWOXUysW_TCgCtnl248JmpVM3rQtukl09SAjFaD0Ss5GsIzAcmFQ1alu_ZAAPqi3Sb7aFT2Sf_IG2dEPxWWPZS37OUfslByjHCAmJ3c5O3GYn6PZSQley1kQmWDJVB63sY6mLwwDnY5KtLgsqfHstQwkT_EBfAoEgpeez1z-rm676piw1bkARrLlew0iEocsNpMp3xkHJKfBrIQ4RXf2T1q7jtVuTtS3dKxdKAhcDLmUIlZEEYdAkgtNcdW5RscJtl59YMtqX6Qrxa1OuQilePUFv3y0]--></g></svg>