<svg xmlns="http://www.w3.org/2000/svg" xmlns:xlink="http://www.w3.org/1999/xlink" contentStyleType="text/css" data-diagram-type="SEQUENCE" height="616px" preserveAspectRatio="none" style="width:645px;height:616px;background:#FEFEFE;" version="1.1" viewBox="0 0 645 616" width="645px" zoomAndPan="magnify"><title>PUT /guests/{guest_id}/medical-info</title><defs/><g><rect fill="#FEFEFE" height="616" style="stroke:none;stroke-width:1;" width="645" x="0" y="0"/><text fill="#000000" font-family="Segoe UI" font-size="14" font-weight="bold" lengthAdjust="spacing" textLength="269.7598" x="183.876" y="41.3125">PUT /guests/{guest_id}/medical-info</text><text fill="#000000" font-family="Segoe UI" font-size="14" font-weight="bold" lengthAdjust="spacing" textLength="245.9023" x="195.8047" y="57.8008">Update guest medical information</text><g><title>API Gateway</title><rect fill="#C77B30" height="319.1055" style="stroke:#A23B72;stroke-width:1;" width="10" x="284.0923" y="200.8633"/></g><g><title>svc-guest-profiles</title><rect fill="#C77B30" height="260.4844" style="stroke:#A23B72;stroke-width:1;" width="10" x="412.7129" y="230.1738"/></g><g><title>PostgreSQL</title><rect fill="#FCE4EC" height="29.3105" style="stroke:#A23B72;stroke-width:1;" width="10" x="587.0869" y="338.1055"/></g><g><title>PostgreSQL</title><rect fill="#FCE4EC" height="29.3105" style="stroke:#A23B72;stroke-width:1;" width="10" x="587.0869" y="432.0371"/></g><g><title>Client</title><rect fill="#000000" fill-opacity="0.00000" height="403.7266" width="8" x="27.7524" y="134.2422"/><line style="stroke:#A23B72;stroke-width:0.5;stroke-dasharray:5,5;" x1="31" x2="31" y1="134.2422" y2="537.9688"/></g><g><title>API Gateway</title><rect fill="#000000" fill-opacity="0.00000" height="403.7266" width="8" x="285.0923" y="134.2422"/><line style="stroke:#A23B72;stroke-width:0.5;stroke-dasharray:5,5;" x1="288.8032" x2="288.8032" y1="134.2422" y2="537.9688"/></g><g><title>svc-guest-profiles</title><rect fill="#000000" fill-opacity="0.00000" height="403.7266" width="8" x="413.7129" y="134.2422"/><line style="stroke:#A23B72;stroke-width:0.5;stroke-dasharray:5,5;" x1="417.3813" x2="417.3813" y1="134.2422" y2="537.9688"/></g><g><title>PostgreSQL</title><rect fill="#000000" fill-opacity="0.00000" height="403.7266" width="8" x="588.0869" y="134.2422"/><line style="stroke:#A23B72;stroke-width:0.5;stroke-dasharray:5,5;" x1="591.6621" x2="591.6621" y1="134.2422" y2="537.9688"/></g><g class="participant participant-head" data-participant="Client"><a href="/applications/" target="_top" title="/applications/" xlink:actuate="onRequest" xlink:href="/applications/" xlink:show="new" xlink:title="/applications/" xlink:type="simple"><rect fill="#E8F4F8" height="30.4883" rx="2.5" ry="2.5" style="stroke:#2E86AB;stroke-width:0.5;" width="53.5049" x="5" y="102.7539"/><text fill="#000000" font-family="Segoe UI" font-size="14" lengthAdjust="spacing" textLength="39.5049" x="12" y="123.2891">Client</text></a></g><g class="participant participant-tail" data-participant="Client"><a href="/applications/" target="_top" title="/applications/" xlink:actuate="onRequest" xlink:href="/applications/" xlink:show="new" xlink:title="/applications/" xlink:type="simple"><rect fill="#E8F4F8" height="30.4883" rx="2.5" ry="2.5" style="stroke:#2E86AB;stroke-width:0.5;" width="53.5049" x="5" y="536.9688"/><text fill="#000000" font-family="Segoe UI" font-size="14" lengthAdjust="spacing" textLength="39.5049" x="12" y="557.5039">Client</text></a></g><g class="participant participant-head" data-participant="GW"><rect fill="#DBEAFE" height="30.4883" rx="2.5" ry="2.5" style="stroke:#2E86AB;stroke-width:0.5;" width="96.5781" x="240.8032" y="102.7539"/><text fill="#000000" font-family="Segoe UI" font-size="14" lengthAdjust="spacing" textLength="82.5781" x="247.8032" y="123.2891">API Gateway</text></g><g class="participant participant-tail" data-participant="GW"><rect fill="#DBEAFE" height="30.4883" rx="2.5" ry="2.5" style="stroke:#2E86AB;stroke-width:0.5;" width="96.5781" x="240.8032" y="536.9688"/><text fill="#000000" font-family="Segoe UI" font-size="14" lengthAdjust="spacing" textLength="82.5781" x="247.8032" y="557.5039">API Gateway</text></g><g class="participant participant-head" data-participant="Svc"><a href="/microservices/svc-guest-profiles/" target="_top" title="/microservices/svc-guest-profiles/" xlink:actuate="onRequest" xlink:href="/microservices/svc-guest-profiles/" xlink:show="new" xlink:title="/microservices/svc-guest-profiles/" xlink:type="simple"><rect fill="#E8F4F8" height="30.4883" rx="2.5" ry="2.5" style="stroke:#2E86AB;stroke-width:0.5;" width="140.6631" x="347.3813" y="102.7539"/><text fill="#000000" font-family="Segoe UI" font-size="14" lengthAdjust="spacing" textLength="126.6631" x="354.3813" y="123.2891">svc-guest-profiles</text></a></g><g class="participant participant-tail" data-participant="Svc"><a href="/microservices/svc-guest-profiles/" target="_top" title="/microservices/svc-guest-profiles/" xlink:actuate="onRequest" xlink:href="/microservices/svc-guest-profiles/" xlink:show="new" xlink:title="/microservices/svc-guest-profiles/" xlink:type="simple"><rect fill="#E8F4F8" height="30.4883" rx="2.5" ry="2.5" style="stroke:#2E86AB;stroke-width:0.5;" width="140.6631" x="347.3813" y="536.9688"/><text fill="#000000" font-family="Segoe UI" font-size="14" lengthAdjust="spacing" textLength="126.6631" x="354.3813" y="557.5039">svc-guest-profiles</text></a></g><g class="participant participant-head" data-participant="DB"><text fill="#000000" font-family="Segoe UI" font-size="14" lengthAdjust="spacing" textLength="76.8496" x="550.6621" y="131.2891">PostgreSQL</text><path d="M574.0869,81.7539 C574.0869,71.7539 592.0869,71.7539 592.0869,71.7539 C592.0869,71.7539 610.0869,71.7539 610.0869,81.7539 L610.0869,107.7539 C610.0869,117.7539 592.0869,117.7539 592.0869,117.7539 C592.0869,117.7539 574.0869,117.7539 574.0869,107.7539 L574.0869,81.7539" fill="#FCE4EC" style="stroke:#181818;stroke-width:0.5;"/><path d="M574.0869,81.7539 C574.0869,91.7539 592.0869,91.7539 592.0869,91.7539 C592.0869,91.7539 610.0869,91.7539 610.0869,81.7539" fill="none" style="stroke:#181818;stroke-width:0.5;"/></g><g class="participant participant-tail" data-participant="DB"><text fill="#000000" font-family="Segoe UI" font-size="14" lengthAdjust="spacing" textLength="76.8496" x="550.6621" y="550.5039">PostgreSQL</text><path d="M574.0869,563.457 C574.0869,553.457 592.0869,553.457 592.0869,553.457 C592.0869,553.457 610.0869,553.457 610.0869,563.457 L610.0869,589.457 C610.0869,599.457 592.0869,599.457 592.0869,599.457 C592.0869,599.457 574.0869,599.457 574.0869,589.457 L574.0869,563.457" fill="#FCE4EC" style="stroke:#181818;stroke-width:0.5;"/><path d="M574.0869,563.457 C574.0869,573.457 592.0869,573.457 592.0869,573.457 C592.0869,573.457 610.0869,573.457 610.0869,563.457" fill="none" style="stroke:#181818;stroke-width:0.5;"/></g><g><title>API Gateway</title><rect fill="#C77B30" height="319.1055" style="stroke:#A23B72;stroke-width:1;" width="10" x="284.0923" y="200.8633"/></g><g><title>svc-guest-profiles</title><rect fill="#C77B30" height="260.4844" style="stroke:#A23B72;stroke-width:1;" width="10" x="412.7129" y="230.1738"/></g><g><title>PostgreSQL</title><rect fill="#FCE4EC" height="29.3105" style="stroke:#A23B72;stroke-width:1;" width="10" x="587.0869" y="338.1055"/></g><g><title>PostgreSQL</title><rect fill="#FCE4EC" height="29.3105" style="stroke:#A23B72;stroke-width:1;" width="10" x="587.0869" y="432.0371"/></g><path d="M347,149.2422 L347,174.2422 L487,174.2422 L487,159.2422 L477,149.2422 L347,149.2422" fill="#FEFFDD" style="stroke:#181818;stroke-width:0.5;"/><path d="M477,149.2422 L477,159.2422 L487,159.2422 L477,149.2422" fill="#FEFFDD" style="stroke:#181818;stroke-width:0.5;"/><a href="/services/api/svc-guest-profiles.html#/Medical/updateGuestMedicalInfo" target="_top" title="/services/api/svc-guest-profiles.html#/Medical/updateGuestMedicalInfo" xlink:actuate="onRequest" xlink:href="/services/api/svc-guest-profiles.html#/Medical/updateGuestMedicalInfo" xlink:show="new" xlink:title="/services/api/svc-guest-profiles.html#/Medical/updateGuestMedicalInfo" xlink:type="simple"><text fill="#0000FF" font-family="Segoe UI" font-size="13" lengthAdjust="spacing" text-decoration="underline" textLength="119.4058" x="353" y="166.8105">View in Swagger UI</text></a><g class="message" data-participant-1="Client" data-participant-2="GW"><polygon fill="#C77B30" points="272.0923,196.8633,282.0923,200.8633,272.0923,204.8633,276.0923,200.8633" style="stroke:#C77B30;stroke-width:1;"/><line style="stroke:#C77B30;stroke-width:1;" x1="31.7524" x2="278.0923" y1="200.8633" y2="200.8633"/><text fill="#000000" font-family="Segoe UI" font-size="13" lengthAdjust="spacing" textLength="233.3398" x="38.7524" y="196.1211">PUT /guests/{guest_id}/medical-info</text></g><g class="message" data-participant-1="GW" data-participant-2="Svc"><polygon fill="#C77B30" points="400.7129,226.1738,410.7129,230.1738,400.7129,234.1738,404.7129,230.1738" style="stroke:#C77B30;stroke-width:1;"/><line style="stroke:#C77B30;stroke-width:1;" x1="294.0923" x2="406.7129" y1="230.1738" y2="230.1738"/><text fill="#000000" font-family="Segoe UI" font-size="13" lengthAdjust="spacing" textLength="85.1348" x="301.0923" y="225.4316">route request</text></g><path d="M427,243.1738 L427,268.1738 L585,268.1738 L585,253.1738 L575,243.1738 L427,243.1738" fill="#FEFFDD" style="stroke:#181818;stroke-width:0.5;"/><path d="M575,243.1738 L575,253.1738 L585,253.1738 L575,243.1738" fill="#FEFFDD" style="stroke:#181818;stroke-width:0.5;"/><text fill="#000000" font-family="Segoe UI" font-size="13" lengthAdjust="spacing" textLength="137.5728" x="433" y="260.7422">Validate request body</text><rect fill="#EEEEEE" height="3" style="stroke:#EEEEEE;stroke-width:1;" width="638.5117" x="0" y="294.1396"/><line style="stroke:#000000;stroke-width:1;" x1="0" x2="638.5117" y1="294.1396" y2="294.1396"/><line style="stroke:#000000;stroke-width:1;" x1="0" x2="638.5117" y1="297.1396" y2="297.1396"/><rect fill="#EEEEEE" height="23.3105" style="stroke:#000000;stroke-width:2;" width="80.3711" x="279.0703" y="283.4844"/><text fill="#000000" font-family="Segoe UI" font-size="13" font-weight="bold" lengthAdjust="spacing" textLength="62.0864" x="285.0703" y="300.0527">Database</text><g class="message" data-participant-1="Svc" data-participant-2="DB"><polygon fill="#C77B30" points="575.0869,334.1055,585.0869,338.1055,575.0869,342.1055,579.0869,338.1055" style="stroke:#C77B30;stroke-width:1;"/><line style="stroke:#C77B30;stroke-width:1;" x1="422.7129" x2="581.0869" y1="338.1055" y2="338.1055"/><text fill="#000000" font-family="Segoe UI" font-size="13" lengthAdjust="spacing" textLength="145.374" x="429.7129" y="333.3633">SELECT ... FOR UPDATE</text></g><g class="message" data-participant-1="DB" data-participant-2="Svc"><polygon fill="#C77B30" points="433.7129,363.416,423.7129,367.416,433.7129,371.416,429.7129,367.416" style="stroke:#C77B30;stroke-width:1;"/><line style="stroke:#C77B30;stroke-width:1;stroke-dasharray:2,2;" x1="427.7129" x2="591.0869" y1="367.416" y2="367.416"/><text fill="#000000" font-family="Segoe UI" font-size="13" lengthAdjust="spacing" textLength="75.3086" x="439.7129" y="362.6738">Current row</text></g><path d="M427,380.416 L427,405.416 L590,405.416 L590,390.416 L580,380.416 L427,380.416" fill="#FEFFDD" style="stroke:#181818;stroke-width:0.5;"/><path d="M580,380.416 L580,390.416 L590,390.416 L580,380.416" fill="#FEFFDD" style="stroke:#181818;stroke-width:0.5;"/><text fill="#000000" font-family="Segoe UI" font-size="13" lengthAdjust="spacing" textLength="142.4858" x="433" y="397.9844">Replace mutable fields</text><g class="message" data-participant-1="Svc" data-participant-2="DB"><polygon fill="#C77B30" points="575.0869,428.0371,585.0869,432.0371,575.0869,436.0371,579.0869,432.0371" style="stroke:#C77B30;stroke-width:1;"/><line style="stroke:#C77B30;stroke-width:1;" x1="422.7129" x2="581.0869" y1="432.0371" y2="432.0371"/><text fill="#000000" font-family="Segoe UI" font-size="13" lengthAdjust="spacing" textLength="109.4526" x="429.7129" y="427.2949">UPDATE ... SET ...</text></g><g class="message" data-participant-1="DB" data-participant-2="Svc"><polygon fill="#C77B30" points="433.7129,457.3477,423.7129,461.3477,433.7129,465.3477,429.7129,461.3477" style="stroke:#C77B30;stroke-width:1;"/><line style="stroke:#C77B30;stroke-width:1;stroke-dasharray:2,2;" x1="427.7129" x2="591.0869" y1="461.3477" y2="461.3477"/><text fill="#000000" font-family="Segoe UI" font-size="13" lengthAdjust="spacing" textLength="80.2725" x="439.7129" y="456.6055">Updated row</text></g><g class="message" data-participant-1="Svc" data-participant-2="GW"><polygon fill="#C77B30" points="305.0923,486.6582,295.0923,490.6582,305.0923,494.6582,301.0923,490.6582" style="stroke:#C77B30;stroke-width:1;"/><line style="stroke:#C77B30;stroke-width:1;stroke-dasharray:2,2;" x1="299.0923" x2="416.7129" y1="490.6582" y2="490.6582"/><text fill="#000000" font-family="Segoe UI" font-size="13" lengthAdjust="spacing" textLength="47.3599" x="311.0923" y="485.916">200 OK</text></g><g class="message" data-participant-1="GW" data-participant-2="Client"><polygon fill="#C77B30" points="42.7524,515.9688,32.7524,519.9688,42.7524,523.9688,38.7524,519.9688" style="stroke:#C77B30;stroke-width:1;"/><line style="stroke:#C77B30;stroke-width:1;stroke-dasharray:2,2;" x1="36.7524" x2="288.0923" y1="519.9688" y2="519.9688"/><text fill="#000000" font-family="Segoe UI" font-size="13" lengthAdjust="spacing" textLength="47.3599" x="48.7524" y="515.2266">200 OK</text></g><a href="/microservices/svc-guest-profiles/#integration-context" target="_top" title="/microservices/svc-guest-profiles/#integration-context" xlink:actuate="onRequest" xlink:href="/microservices/svc-guest-profiles/#integration-context" xlink:show="new" xlink:title="/microservices/svc-guest-profiles/#integration-context" xlink:type="simple"><text fill="#0000FF" font-family="Segoe UI" font-size="10" lengthAdjust="spacing" text-decoration="underline" textLength="201.6455" x="435.8662" y="14.668">&#11014; svc-guest-profiles Integration Context</text></a><!--SRC=[ZLJRRjf047tVhnZ1CvYGg20aAe6n4IfDQ0Z9GuggnLwRLMolkxk6H55U-pNzgdv9PzSEbuBKc0UlzfoPCtDcZ7hYMKubJM55WwTOYY8BNP482NNVCp-YTWorfg7OyYo6Y2QA7I0XYsYHQ5za-fgc36fp5Wi6YqdjC9pzB5WMC7WbWCz0Ih6jf89EPtNPijSpAZKFU4upFHGoPBAYjBtkfy7mXF9lqLxNl_AxbZRb4PloZ1sb6RGlXvssnOVY-GZoBxf-ws87dTZX-uXR-5heuwm7zLliZ9MNNeUy4R9c5CFWyT59UI25OdB30wOSjGaQSS6KRkHIH3p1gphFD8ibrLnaZG2jPSyQ_lp-1QTScEofu9RKvP8GpNN2OBQu0yS6AEVLld_myCr9MSW3cZHu5edlsI8FgMPWOQWWC91CRLf2yhtjK7CJpZ9T0wgWF9gMQ9ud66Veoa7zeuZ1R09ZbDZI5nisVe3wQEWDSCMEUAVTMVfy4tp8jULojmJO45rHXUiu4qh7ais_JMskqH17udfNdaj8XlC2iS6Pe09E43LswMdEpqWqrpfDwixNqYEdiCQD3QMwcg1hSC_P5ls3-PR6CMPVJD0GbeLW10cfJ6jyDZxqFZ8YGWFDDsP6nhbgu_28AOmtFS25Gr2QhqpfFTk0x_IoMydZjGOHLN7tDE5szbKeh4JuGaY_3wDt0_jzGWmPjT2x7iozgUVUGRFP1F_c5XQpqU3EsqiU-8l7ngv2jv3IT8qVFWdP0VriNRSiJoZ-NQG5Le5h776MXEgua5BP5ZBtR47_hwBSzF1C5MNgzvcqMosu-N98CHjY74T6DRzphF43-Gi0]--></g></svg>