<svg xmlns="http://www.w3.org/2000/svg" xmlns:xlink="http://www.w3.org/1999/xlink" contentStyleType="text/css" data-diagram-type="SEQUENCE" height="474px" preserveAspectRatio="none" style="width:499px;height:474px;background:#FEFEFE;" version="1.1" viewBox="0 0 499 474" width="499px" zoomAndPan="magnify"><title>GET /check-ins</title><defs/><g><rect fill="#FEFEFE" height="474" style="stroke:none;stroke-width:1;" width="499" x="0" y="0"/><text fill="#000000" font-family="Segoe UI" font-size="14" font-weight="bold" lengthAdjust="spacing" textLength="112.7998" x="189.2783" y="28.5352">GET /check-ins</text><text fill="#000000" font-family="Segoe UI" font-size="14" font-weight="bold" lengthAdjust="spacing" textLength="211.2783" x="140.0391" y="45.0234">List check-ins by reservation</text><g><title>API Gateway</title><rect fill="#2563EB" height="189.8633" style="stroke:#A23B72;stroke-width:1;" width="10" x="148.5444" y="188.0859"/></g><g><title>svc-check-in</title><rect fill="#2563EB" height="131.2422" style="stroke:#A23B72;stroke-width:1;" width="10" x="262.6792" y="217.3965"/></g><g><title>PostgreSQL</title><rect fill="#FCE4EC" height="29.3105" style="stroke:#A23B72;stroke-width:1;" width="10" x="440.9316" y="290.0176"/></g><g><title>Client</title><rect fill="#000000" fill-opacity="0.00000" height="274.4844" width="8" x="27.7524" y="121.4648"/><line style="stroke:#A23B72;stroke-width:0.5;stroke-dasharray:5,5;" x1="31" x2="31" y1="121.4648" y2="395.9492"/></g><g><title>API Gateway</title><rect fill="#000000" fill-opacity="0.00000" height="274.4844" width="8" x="149.5444" y="121.4648"/><line style="stroke:#A23B72;stroke-width:0.5;stroke-dasharray:5,5;" x1="153.2554" x2="153.2554" y1="121.4648" y2="395.9492"/></g><g><title>svc-check-in</title><rect fill="#000000" fill-opacity="0.00000" height="274.4844" width="8" x="263.6792" y="121.4648"/><line style="stroke:#A23B72;stroke-width:0.5;stroke-dasharray:5,5;" x1="266.9277" x2="266.9277" y1="121.4648" y2="395.9492"/></g><g><title>PostgreSQL</title><rect fill="#000000" fill-opacity="0.00000" height="274.4844" width="8" x="441.9316" y="121.4648"/><line style="stroke:#A23B72;stroke-width:0.5;stroke-dasharray:5,5;" x1="445.5068" x2="445.5068" y1="121.4648" y2="395.9492"/></g><g class="participant participant-head" data-participant="Client"><rect fill="#E8F4F8" height="30.4883" rx="2.5" ry="2.5" style="stroke:#2E86AB;stroke-width:0.5;" width="53.5049" x="5" y="89.9766"/><text fill="#000000" font-family="Segoe UI" font-size="14" lengthAdjust="spacing" textLength="39.5049" x="12" y="110.5117">Client</text></g><g class="participant participant-tail" data-participant="Client"><rect fill="#E8F4F8" height="30.4883" rx="2.5" ry="2.5" style="stroke:#2E86AB;stroke-width:0.5;" width="53.5049" x="5" y="394.9492"/><text fill="#000000" font-family="Segoe UI" font-size="14" lengthAdjust="spacing" textLength="39.5049" x="12" y="415.4844">Client</text></g><g class="participant participant-head" data-participant="GW"><rect fill="#DBEAFE" height="30.4883" rx="2.5" ry="2.5" style="stroke:#2E86AB;stroke-width:0.5;" width="96.5781" x="105.2554" y="89.9766"/><text fill="#000000" font-family="Segoe UI" font-size="14" lengthAdjust="spacing" textLength="82.5781" x="112.2554" y="110.5117">API Gateway</text></g><g class="participant participant-tail" data-participant="GW"><rect fill="#DBEAFE" height="30.4883" rx="2.5" ry="2.5" style="stroke:#2E86AB;stroke-width:0.5;" width="96.5781" x="105.2554" y="394.9492"/><text fill="#000000" font-family="Segoe UI" font-size="14" lengthAdjust="spacing" textLength="82.5781" x="112.2554" y="415.4844">API Gateway</text></g><g class="participant participant-head" data-participant="Svc"><a href="/microservices/svc-check-in/" target="_top" title="/microservices/svc-check-in/" xlink:actuate="onRequest" xlink:href="/microservices/svc-check-in/" xlink:show="new" xlink:title="/microservices/svc-check-in/" xlink:type="simple"><rect fill="#E8F4F8" height="30.4883" rx="2.5" ry="2.5" style="stroke:#2E86AB;stroke-width:0.5;" width="103.5029" x="215.9277" y="89.9766"/><text fill="#000000" font-family="Segoe UI" font-size="14" lengthAdjust="spacing" textLength="89.5029" x="222.9277" y="110.5117">svc-check-in</text></a></g><g class="participant participant-tail" data-participant="Svc"><a href="/microservices/svc-check-in/" target="_top" title="/microservices/svc-check-in/" xlink:actuate="onRequest" xlink:href="/microservices/svc-check-in/" xlink:show="new" xlink:title="/microservices/svc-check-in/" xlink:type="simple"><rect fill="#E8F4F8" height="30.4883" rx="2.5" ry="2.5" style="stroke:#2E86AB;stroke-width:0.5;" width="103.5029" x="215.9277" y="394.9492"/><text fill="#000000" font-family="Segoe UI" font-size="14" lengthAdjust="spacing" textLength="89.5029" x="222.9277" y="415.4844">svc-check-in</text></a></g><g class="participant participant-head" data-participant="DB"><text fill="#000000" font-family="Segoe UI" font-size="14" lengthAdjust="spacing" textLength="76.8496" x="404.5068" y="118.5117">PostgreSQL</text><path d="M427.9316,68.9766 C427.9316,58.9766 445.9316,58.9766 445.9316,58.9766 C445.9316,58.9766 463.9316,58.9766 463.9316,68.9766 L463.9316,94.9766 C463.9316,104.9766 445.9316,104.9766 445.9316,104.9766 C445.9316,104.9766 427.9316,104.9766 427.9316,94.9766 L427.9316,68.9766" fill="#FCE4EC" style="stroke:#181818;stroke-width:0.5;"/><path d="M427.9316,68.9766 C427.9316,78.9766 445.9316,78.9766 445.9316,78.9766 C445.9316,78.9766 463.9316,78.9766 463.9316,68.9766" fill="none" style="stroke:#181818;stroke-width:0.5;"/></g><g class="participant participant-tail" data-participant="DB"><text fill="#000000" font-family="Segoe UI" font-size="14" lengthAdjust="spacing" textLength="76.8496" x="404.5068" y="408.4844">PostgreSQL</text><path d="M427.9316,421.4375 C427.9316,411.4375 445.9316,411.4375 445.9316,411.4375 C445.9316,411.4375 463.9316,411.4375 463.9316,421.4375 L463.9316,447.4375 C463.9316,457.4375 445.9316,457.4375 445.9316,457.4375 C445.9316,457.4375 427.9316,457.4375 427.9316,447.4375 L427.9316,421.4375" fill="#FCE4EC" style="stroke:#181818;stroke-width:0.5;"/><path d="M427.9316,421.4375 C427.9316,431.4375 445.9316,431.4375 445.9316,431.4375 C445.9316,431.4375 463.9316,431.4375 463.9316,421.4375" fill="none" style="stroke:#181818;stroke-width:0.5;"/></g><g><title>API Gateway</title><rect fill="#2563EB" height="189.8633" style="stroke:#A23B72;stroke-width:1;" width="10" x="148.5444" y="188.0859"/></g><g><title>svc-check-in</title><rect fill="#2563EB" height="131.2422" style="stroke:#A23B72;stroke-width:1;" width="10" x="262.6792" y="217.3965"/></g><g><title>PostgreSQL</title><rect fill="#FCE4EC" height="29.3105" style="stroke:#A23B72;stroke-width:1;" width="10" x="440.9316" y="290.0176"/></g><path d="M197,136.4648 L197,161.4648 L337,161.4648 L337,146.4648 L327,136.4648 L197,136.4648" fill="#FEFFDD" style="stroke:#181818;stroke-width:0.5;"/><path d="M327,136.4648 L327,146.4648 L337,146.4648 L327,136.4648" fill="#FEFFDD" style="stroke:#181818;stroke-width:0.5;"/><a href="/services/api/svc-check-in.html#/Check-Ins/listCheckIns" target="_top" title="/services/api/svc-check-in.html#/Check-Ins/listCheckIns" xlink:actuate="onRequest" xlink:href="/services/api/svc-check-in.html#/Check-Ins/listCheckIns" xlink:show="new" xlink:title="/services/api/svc-check-in.html#/Check-Ins/listCheckIns" xlink:type="simple"><text fill="#0000FF" font-family="Segoe UI" font-size="13" lengthAdjust="spacing" text-decoration="underline" textLength="119.4058" x="203" y="154.0332">View in Swagger UI</text></a><g class="message" data-participant-1="Client" data-participant-2="GW"><polygon fill="#2563EB" points="136.5444,184.0859,146.5444,188.0859,136.5444,192.0859,140.5444,188.0859" style="stroke:#2563EB;stroke-width:1;"/><line style="stroke:#2563EB;stroke-width:1;" x1="31.7524" x2="142.5444" y1="188.0859" y2="188.0859"/><text fill="#000000" font-family="Segoe UI" font-size="13" lengthAdjust="spacing" textLength="97.792" x="38.7524" y="183.3438">GET /check-ins</text></g><g class="message" data-participant-1="GW" data-participant-2="Svc"><polygon fill="#2563EB" points="250.6792,213.3965,260.6792,217.3965,250.6792,221.3965,254.6792,217.3965" style="stroke:#2563EB;stroke-width:1;"/><line style="stroke:#2563EB;stroke-width:1;" x1="158.5444" x2="256.6792" y1="217.3965" y2="217.3965"/><a href="/microservices/svc-check-in/#get-check-ins-list-check-ins-by-reservation" target="_top" title="/microservices/svc-check-in/#get-check-ins-list-check-ins-by-reservation" xlink:actuate="onRequest" xlink:href="/microservices/svc-check-in/#get-check-ins-list-check-ins-by-reservation" xlink:show="new" xlink:title="/microservices/svc-check-in/#get-check-ins-list-check-ins-by-reservation" xlink:type="simple"><text fill="#0000FF" font-family="Segoe UI" font-size="13" lengthAdjust="spacing" text-decoration="underline" textLength="85.1348" x="165.5444" y="212.6543">route request</text></a></g><rect fill="#EEEEEE" height="3" style="stroke:#EEEEEE;stroke-width:1;" width="492.3564" x="0" y="246.0518"/><line style="stroke:#000000;stroke-width:1;" x1="0" x2="492.3564" y1="246.0518" y2="246.0518"/><line style="stroke:#000000;stroke-width:1;" x1="0" x2="492.3564" y1="249.0518" y2="249.0518"/><rect fill="#EEEEEE" height="23.3105" style="stroke:#000000;stroke-width:2;" width="80.3711" x="205.9927" y="235.3965"/><text fill="#000000" font-family="Segoe UI" font-size="13" font-weight="bold" lengthAdjust="spacing" textLength="62.0864" x="211.9927" y="251.9648">Database</text><g class="message" data-participant-1="Svc" data-participant-2="DB"><polygon fill="#2563EB" points="428.9316,286.0176,438.9316,290.0176,428.9316,294.0176,432.9316,290.0176" style="stroke:#2563EB;stroke-width:1;"/><line style="stroke:#2563EB;stroke-width:1;" x1="272.6792" x2="434.9316" y1="290.0176" y2="290.0176"/><text fill="#000000" font-family="Segoe UI" font-size="13" lengthAdjust="spacing" textLength="149.2524" x="279.6792" y="285.2754">SELECT ... WHERE filters</text></g><g class="message" data-participant-1="DB" data-participant-2="Svc"><polygon fill="#2563EB" points="283.6792,315.3281,273.6792,319.3281,283.6792,323.3281,279.6792,319.3281" style="stroke:#2563EB;stroke-width:1;"/><line style="stroke:#2563EB;stroke-width:1;stroke-dasharray:2,2;" x1="277.6792" x2="444.9316" y1="319.3281" y2="319.3281"/><text fill="#000000" font-family="Segoe UI" font-size="13" lengthAdjust="spacing" textLength="93.209" x="289.6792" y="314.5859">Page of results</text></g><g class="message" data-participant-1="Svc" data-participant-2="GW"><polygon fill="#2563EB" points="169.5444,344.6387,159.5444,348.6387,169.5444,352.6387,165.5444,348.6387" style="stroke:#2563EB;stroke-width:1;"/><line style="stroke:#2563EB;stroke-width:1;stroke-dasharray:2,2;" x1="163.5444" x2="266.6792" y1="348.6387" y2="348.6387"/><text fill="#000000" font-family="Segoe UI" font-size="13" lengthAdjust="spacing" textLength="47.3599" x="175.5444" y="343.8965">200 OK</text></g><g class="message" data-participant-1="GW" data-participant-2="Client"><polygon fill="#2563EB" points="42.7524,373.9492,32.7524,377.9492,42.7524,381.9492,38.7524,377.9492" style="stroke:#2563EB;stroke-width:1;"/><line style="stroke:#2563EB;stroke-width:1;stroke-dasharray:2,2;" x1="36.7524" x2="152.5444" y1="377.9492" y2="377.9492"/><text fill="#000000" font-family="Segoe UI" font-size="13" lengthAdjust="spacing" textLength="47.3599" x="48.7524" y="373.207">200 OK</text></g><!--SRC=[XLFHRjem57ttLrp1SmY5hY0a9f7WC3JKqT6EXuu79xa4Ys0psy3Gj7-ldKAMj9MMlFZc79_ZUwwZjrpicM8xY5copPGyY3IKkLJGZAXxYIuPUiDIUU8YWpNBDLQG5DVia9j82dFFTWYD1MOIuMdQg6x7NmSK2S8V0lOPAILF5wlEfxikniNdELE69tpFX0caIb5TARH_DmhUKTuUclQZswXVq6PyZJCki2OpwdI3NgV00_cx1aKt_QXzKqBlueWYYnVmlJHrrQJNYxiLx8CekxH7_X9YkCaH9lGH_6I3oTRZGlyKCwuDb3N4Pr2eKHsPuL8Gil_NC3J2dACm3M0QNfTrU3IVmeGPFB5pmPaieJaEwCXEiiRJnyIxEXR4nJ61vsT_nnCbdJTFKFjLbhzQbVccpB2OQJlfkTGcKxXuc1Kguy1s6z9R6X8YR1GWZwYSjWt7gfV2RCzhugsDsULDFopAgT1-RYCfAbl03uudu08M9vPbLkzfkbeH52au2q9USm3li-jsy2PTmXB3RP9OH76vQNPfsQxbmN-QRcPeoafxxbYLCZvxbKc1dRdrKUwYQsEFM5exfwit6GvXVCrlE2J4WVOqDhe1BEYCXe_GQhLW-OL-fx3ckK5LwQAIi5rwPHjpbjcqr-xcs5zHanGhMoucruGwxJPy-rgbk0cvK2pZakP7hCcIl000]--></g></svg>