<svg xmlns="http://www.w3.org/2000/svg" xmlns:xlink="http://www.w3.org/1999/xlink" contentStyleType="text/css" data-diagram-type="SEQUENCE" height="509px" preserveAspectRatio="none" style="width:810px;height:509px;background:#FEFEFE;" version="1.1" viewBox="0 0 810 509" width="810px" zoomAndPan="magnify"><title>GET /partner-bookings/{booking_id}</title><defs/><g><rect fill="#FEFEFE" height="509" style="stroke:none;stroke-width:1;" width="810" x="0" y="0"/><text fill="#000000" font-family="Segoe UI" font-size="14" font-weight="bold" lengthAdjust="spacing" textLength="268.3242" x="266.8665" y="28.5352">GET /partner-bookings/{booking_id}</text><text fill="#000000" font-family="Segoe UI" font-size="14" font-weight="bold" lengthAdjust="spacing" textLength="198.8711" x="301.593" y="45.0234">Get partner booking details</text><g><title>API Gateway</title><rect fill="#2563EB" height="225.1738" style="stroke:#A23B72;stroke-width:1;" width="10" x="283.7432" y="188.0859"/></g><g><title>svc-partner-integrations</title><rect fill="#2563EB" height="166.5527" style="stroke:#A23B72;stroke-width:1;" width="10" x="433.6064" y="217.3965"/></g><g><title>PostgreSQL</title><rect fill="#FCE4EC" height="29.3105" style="stroke:#A23B72;stroke-width:1;" width="10" x="611.4971" y="290.0176"/></g><g><title>Client</title><rect fill="#000000" fill-opacity="0.00000" height="309.7949" width="8" x="27.7524" y="121.4648"/><line style="stroke:#A23B72;stroke-width:0.5;stroke-dasharray:5,5;" x1="31" x2="31" y1="121.4648" y2="431.2598"/></g><g><title>API Gateway</title><rect fill="#000000" fill-opacity="0.00000" height="309.7949" width="8" x="284.7432" y="121.4648"/><line style="stroke:#A23B72;stroke-width:0.5;stroke-dasharray:5,5;" x1="288.4541" x2="288.4541" y1="121.4648" y2="431.2598"/></g><g><title>svc-partner-integrations</title><rect fill="#000000" fill-opacity="0.00000" height="309.7949" width="8" x="434.6064" y="121.4648"/><line style="stroke:#A23B72;stroke-width:0.5;stroke-dasharray:5,5;" x1="438.0322" x2="438.0322" y1="121.4648" y2="431.2598"/></g><g><title>PostgreSQL</title><rect fill="#000000" fill-opacity="0.00000" height="309.7949" width="8" x="612.4971" y="121.4648"/><line style="stroke:#A23B72;stroke-width:0.5;stroke-dasharray:5,5;" x1="616.0723" x2="616.0723" y1="121.4648" y2="431.2598"/></g><g class="participant participant-head" data-participant="Client"><rect fill="#E8F4F8" height="30.4883" rx="2.5" ry="2.5" style="stroke:#2E86AB;stroke-width:0.5;" width="53.5049" x="5" y="89.9766"/><text fill="#000000" font-family="Segoe UI" font-size="14" lengthAdjust="spacing" textLength="39.5049" x="12" y="110.5117">Client</text></g><g class="participant participant-tail" data-participant="Client"><rect fill="#E8F4F8" height="30.4883" rx="2.5" ry="2.5" style="stroke:#2E86AB;stroke-width:0.5;" width="53.5049" x="5" y="430.2598"/><text fill="#000000" font-family="Segoe UI" font-size="14" lengthAdjust="spacing" textLength="39.5049" x="12" y="450.7949">Client</text></g><g class="participant participant-head" data-participant="GW"><rect fill="#DBEAFE" height="30.4883" rx="2.5" ry="2.5" style="stroke:#2E86AB;stroke-width:0.5;" width="96.5781" x="240.4541" y="89.9766"/><text fill="#000000" font-family="Segoe UI" font-size="14" lengthAdjust="spacing" textLength="82.5781" x="247.4541" y="110.5117">API Gateway</text></g><g class="participant participant-tail" data-participant="GW"><rect fill="#DBEAFE" height="30.4883" rx="2.5" ry="2.5" style="stroke:#2E86AB;stroke-width:0.5;" width="96.5781" x="240.4541" y="430.2598"/><text fill="#000000" font-family="Segoe UI" font-size="14" lengthAdjust="spacing" textLength="82.5781" x="247.4541" y="450.7949">API Gateway</text></g><g class="participant participant-head" data-participant="Svc"><a href="/microservices/svc-partner-integrations/" target="_top" title="/microservices/svc-partner-integrations/" xlink:actuate="onRequest" xlink:href="/microservices/svc-partner-integrations/" xlink:show="new" xlink:title="/microservices/svc-partner-integrations/" xlink:type="simple"><rect fill="#E8F4F8" height="30.4883" rx="2.5" ry="2.5" style="stroke:#2E86AB;stroke-width:0.5;" width="183.1484" x="347.0322" y="89.9766"/><text fill="#000000" font-family="Segoe UI" font-size="14" lengthAdjust="spacing" textLength="169.1484" x="354.0322" y="110.5117">svc-partner-integrations</text></a></g><g class="participant participant-tail" data-participant="Svc"><a href="/microservices/svc-partner-integrations/" target="_top" title="/microservices/svc-partner-integrations/" xlink:actuate="onRequest" xlink:href="/microservices/svc-partner-integrations/" xlink:show="new" xlink:title="/microservices/svc-partner-integrations/" xlink:type="simple"><rect fill="#E8F4F8" height="30.4883" rx="2.5" ry="2.5" style="stroke:#2E86AB;stroke-width:0.5;" width="183.1484" x="347.0322" y="430.2598"/><text fill="#000000" font-family="Segoe UI" font-size="14" lengthAdjust="spacing" textLength="169.1484" x="354.0322" y="450.7949">svc-partner-integrations</text></a></g><g class="participant participant-head" data-participant="DB"><text fill="#000000" font-family="Segoe UI" font-size="14" lengthAdjust="spacing" textLength="76.8496" x="575.0723" y="118.5117">PostgreSQL</text><path d="M598.4971,68.9766 C598.4971,58.9766 616.4971,58.9766 616.4971,58.9766 C616.4971,58.9766 634.4971,58.9766 634.4971,68.9766 L634.4971,94.9766 C634.4971,104.9766 616.4971,104.9766 616.4971,104.9766 C616.4971,104.9766 598.4971,104.9766 598.4971,94.9766 L598.4971,68.9766" fill="#FCE4EC" style="stroke:#181818;stroke-width:0.5;"/><path d="M598.4971,68.9766 C598.4971,78.9766 616.4971,78.9766 616.4971,78.9766 C616.4971,78.9766 634.4971,78.9766 634.4971,68.9766" fill="none" style="stroke:#181818;stroke-width:0.5;"/></g><g class="participant participant-tail" data-participant="DB"><text fill="#000000" font-family="Segoe UI" font-size="14" lengthAdjust="spacing" textLength="76.8496" x="575.0723" y="443.7949">PostgreSQL</text><path d="M598.4971,456.748 C598.4971,446.748 616.4971,446.748 616.4971,446.748 C616.4971,446.748 634.4971,446.748 634.4971,456.748 L634.4971,482.748 C634.4971,492.748 616.4971,492.748 616.4971,492.748 C616.4971,492.748 598.4971,492.748 598.4971,482.748 L598.4971,456.748" fill="#FCE4EC" style="stroke:#181818;stroke-width:0.5;"/><path d="M598.4971,456.748 C598.4971,466.748 616.4971,466.748 616.4971,466.748 C616.4971,466.748 634.4971,466.748 634.4971,456.748" fill="none" style="stroke:#181818;stroke-width:0.5;"/></g><g><title>API Gateway</title><rect fill="#2563EB" height="225.1738" style="stroke:#A23B72;stroke-width:1;" width="10" x="283.7432" y="188.0859"/></g><g><title>svc-partner-integrations</title><rect fill="#2563EB" height="166.5527" style="stroke:#A23B72;stroke-width:1;" width="10" x="433.6064" y="217.3965"/></g><g><title>PostgreSQL</title><rect fill="#FCE4EC" height="29.3105" style="stroke:#A23B72;stroke-width:1;" width="10" x="611.4971" y="290.0176"/></g><path d="M368,136.4648 L368,161.4648 L508,161.4648 L508,146.4648 L498,136.4648 L368,136.4648" fill="#FEFFDD" style="stroke:#181818;stroke-width:0.5;"/><path d="M498,136.4648 L498,146.4648 L508,146.4648 L498,136.4648" fill="#FEFFDD" style="stroke:#181818;stroke-width:0.5;"/><a href="/services/api/svc-partner-integrations.html#/Partner%20Bookings/getPartnerBooking" target="_top" title="/services/api/svc-partner-integrations.html#/Partner%20Bookings/getPartnerBooking" xlink:actuate="onRequest" xlink:href="/services/api/svc-partner-integrations.html#/Partner%20Bookings/getPartnerBooking" xlink:show="new" xlink:title="/services/api/svc-partner-integrations.html#/Partner%20Bookings/getPartnerBooking" xlink:type="simple"><text fill="#0000FF" font-family="Segoe UI" font-size="13" lengthAdjust="spacing" text-decoration="underline" textLength="119.4058" x="374" y="154.0332">View in Swagger UI</text></a><g class="message" data-participant-1="Client" data-participant-2="GW"><polygon fill="#2563EB" points="271.7432,184.0859,281.7432,188.0859,271.7432,192.0859,275.7432,188.0859" style="stroke:#2563EB;stroke-width:1;"/><line style="stroke:#2563EB;stroke-width:1;" x1="31.7524" x2="277.7432" y1="188.0859" y2="188.0859"/><text fill="#000000" font-family="Segoe UI" font-size="13" lengthAdjust="spacing" textLength="232.9907" x="38.7524" y="183.3438">GET /partner-bookings/{booking_id}</text></g><g class="message" data-participant-1="GW" data-participant-2="Svc"><polygon fill="#2563EB" points="421.6064,213.3965,431.6064,217.3965,421.6064,221.3965,425.6064,217.3965" style="stroke:#2563EB;stroke-width:1;"/><line style="stroke:#2563EB;stroke-width:1;" x1="293.7432" x2="427.6064" y1="217.3965" y2="217.3965"/><text fill="#000000" font-family="Segoe UI" font-size="13" lengthAdjust="spacing" textLength="85.1348" x="300.7432" y="212.6543">route request</text></g><rect fill="#EEEEEE" height="3" style="stroke:#EEEEEE;stroke-width:1;" width="803.0571" x="0" y="246.0518"/><line style="stroke:#000000;stroke-width:1;" x1="0" x2="803.0571" y1="246.0518" y2="246.0518"/><line style="stroke:#000000;stroke-width:1;" x1="0" x2="803.0571" y1="249.0518" y2="249.0518"/><rect fill="#EEEEEE" height="23.3105" style="stroke:#000000;stroke-width:2;" width="80.3711" x="361.343" y="235.3965"/><text fill="#000000" font-family="Segoe UI" font-size="13" font-weight="bold" lengthAdjust="spacing" textLength="62.0864" x="367.343" y="251.9648">Database</text><g class="message" data-participant-1="Svc" data-participant-2="DB"><polygon fill="#2563EB" points="599.4971,286.0176,609.4971,290.0176,599.4971,294.0176,603.4971,290.0176" style="stroke:#2563EB;stroke-width:1;"/><line style="stroke:#2563EB;stroke-width:1;" x1="443.6064" x2="605.4971" y1="290.0176" y2="290.0176"/><text fill="#000000" font-family="Segoe UI" font-size="13" lengthAdjust="spacing" textLength="148.8906" x="450.6064" y="285.2754">SELECT ... WHERE id = ?</text></g><g class="message" data-participant-1="DB" data-participant-2="Svc"><polygon fill="#2563EB" points="454.6064,315.3281,444.6064,319.3281,454.6064,323.3281,450.6064,319.3281" style="stroke:#2563EB;stroke-width:1;"/><line style="stroke:#2563EB;stroke-width:1;stroke-dasharray:2,2;" x1="448.6064" x2="615.4971" y1="319.3281" y2="319.3281"/><text fill="#000000" font-family="Segoe UI" font-size="13" lengthAdjust="spacing" textLength="26.2222" x="460.6064" y="314.5859">Row</text></g><path d="M621,332.3281 L621,357.3281 L798,357.3281 L798,342.3281 L788,332.3281 L621,332.3281" fill="#FEFFDD" style="stroke:#181818;stroke-width:0.5;"/><path d="M788,332.3281 L788,342.3281 L798,342.3281 L788,332.3281" fill="#FEFFDD" style="stroke:#181818;stroke-width:0.5;"/><text fill="#000000" font-family="Segoe UI" font-size="13" lengthAdjust="spacing" textLength="156.0571" x="627" y="349.8965">Returns 404 if not found</text><g class="message" data-participant-1="Svc" data-participant-2="GW"><polygon fill="#2563EB" points="304.7432,379.9492,294.7432,383.9492,304.7432,387.9492,300.7432,383.9492" style="stroke:#2563EB;stroke-width:1;"/><line style="stroke:#2563EB;stroke-width:1;stroke-dasharray:2,2;" x1="298.7432" x2="437.6064" y1="383.9492" y2="383.9492"/><text fill="#000000" font-family="Segoe UI" font-size="13" lengthAdjust="spacing" textLength="47.3599" x="310.7432" y="379.207">200 OK</text></g><g class="message" data-participant-1="GW" data-participant-2="Client"><polygon fill="#2563EB" points="42.7524,409.2598,32.7524,413.2598,42.7524,417.2598,38.7524,413.2598" style="stroke:#2563EB;stroke-width:1;"/><line style="stroke:#2563EB;stroke-width:1;stroke-dasharray:2,2;" x1="36.7524" x2="287.7432" y1="413.2598" y2="413.2598"/><text fill="#000000" font-family="Segoe UI" font-size="13" lengthAdjust="spacing" textLength="47.3599" x="48.7524" y="408.5176">200 OK</text></g><!--SRC=[ZP9HRzem58NV_IkkG7k4K6058T69WCFGKCUWBGyTcano4wm6czc6TAhwt-U41CBQIajUB9_ZS-tlNlt4nOufjeKryvyY9VSY6CfOAgXwDFs9FZdqXWKouIA2aCKQIqg08Tl7nfF2tB8jGcM1aKIudrJAn_7t7eMFy4B0VWEbP9ANQdw-Rk4wsvunPRZFTqmOLwe0LM6XtUk1-yRoxwLfrsjxtSmsvI5EkS2Bc46pvNQQcUxAvml9k-fwZQkJz0Q7vrazas-bkKprEvrrgwIzWx95E-IL4CDDZ32cT-1OAaQWggsbj8mYxRpagryyUFqfncWWjq0kMCw6yLWJiZiZWCemvYXC1PY6u_9I7imcC6O64_OdyuoNK1svT61xU-7J1xzMt8aBWv5YXakXiqEBWm-FZywM-qfgL0VketO-Ek6iLgTE1ComDTDs9cPIcqZXuiSqInovbikGjkcG466XWJpObzew5gEjT2h2Tlp3GlMDsSPLPtQKFZKRRi4oGfFlvblmm341Bc2Hi2YobUudgnL14K1Qd90ZEQZTf7nw_z4Xmdp33vPh1ZIVOBkq2Ici7jW1iA9AfrwRipiL2plfzs5K0Eht2Kb56s3Pz611ftHu1_Lw7PPVwPm23w0FNyv99O9sMJiLdik415Yo7Vag7cqCoF2OFaUpLq93kz467gOG84mdDhz3mQ7PQC3tR-Muj4FfCwqZP_QUQxmaVm40]--></g></svg>