<svg xmlns="http://www.w3.org/2000/svg" xmlns:xlink="http://www.w3.org/1999/xlink" contentStyleType="text/css" data-diagram-type="SEQUENCE" height="509px" preserveAspectRatio="none" style="width:583px;height:509px;background:#FEFEFE;" version="1.1" viewBox="0 0 583 509" width="583px" zoomAndPan="magnify"><title>POST /stock-adjustments</title><defs/><g><rect fill="#FEFEFE" height="509" style="stroke:none;stroke-width:1;" width="583" x="0" y="0"/><text fill="#000000" font-family="Segoe UI" font-size="14" font-weight="bold" lengthAdjust="spacing" textLength="187.5986" x="194.1091" y="28.5352">POST /stock-adjustments</text><text fill="#000000" font-family="Segoe UI" font-size="14" font-weight="bold" lengthAdjust="spacing" textLength="192.4111" x="191.7029" y="45.0234">Record a stock adjustment</text><g><title>API Gateway</title><rect fill="#059669" height="225.1738" style="stroke:#A23B72;stroke-width:1;" width="10" x="213.2524" y="188.0859"/></g><g><title>svc-inventory-procurement</title><rect fill="#059669" height="166.5527" style="stroke:#A23B72;stroke-width:1;" width="10" x="372.7544" y="217.3965"/></g><g><title>PostgreSQL</title><rect fill="#FCE4EC" height="29.3105" style="stroke:#A23B72;stroke-width:1;" width="10" x="525.3921" y="325.3281"/></g><g><title>Client</title><rect fill="#000000" fill-opacity="0.00000" height="309.7949" width="8" x="27.7524" y="121.4648"/><line style="stroke:#A23B72;stroke-width:0.5;stroke-dasharray:5,5;" x1="31" x2="31" y1="121.4648" y2="431.2598"/></g><g><title>API Gateway</title><rect fill="#000000" fill-opacity="0.00000" height="309.7949" width="8" x="214.2524" y="121.4648"/><line style="stroke:#A23B72;stroke-width:0.5;stroke-dasharray:5,5;" x1="217.9634" x2="217.9634" y1="121.4648" y2="431.2598"/></g><g><title>svc-inventory-procurement</title><rect fill="#000000" fill-opacity="0.00000" height="309.7949" width="8" x="373.7544" y="121.4648"/><line style="stroke:#A23B72;stroke-width:0.5;stroke-dasharray:5,5;" x1="377.5415" x2="377.5415" y1="121.4648" y2="431.2598"/></g><g><title>PostgreSQL</title><rect fill="#000000" fill-opacity="0.00000" height="309.7949" width="8" x="526.3921" y="121.4648"/><line style="stroke:#A23B72;stroke-width:0.5;stroke-dasharray:5,5;" x1="529.9673" x2="529.9673" y1="121.4648" y2="431.2598"/></g><g class="participant participant-head" data-participant="Client"><rect fill="#E8F4F8" height="30.4883" rx="2.5" ry="2.5" style="stroke:#2E86AB;stroke-width:0.5;" width="53.5049" x="5" y="89.9766"/><text fill="#000000" font-family="Segoe UI" font-size="14" lengthAdjust="spacing" textLength="39.5049" x="12" y="110.5117">Client</text></g><g class="participant participant-tail" data-participant="Client"><rect fill="#E8F4F8" height="30.4883" rx="2.5" ry="2.5" style="stroke:#2E86AB;stroke-width:0.5;" width="53.5049" x="5" y="430.2598"/><text fill="#000000" font-family="Segoe UI" font-size="14" lengthAdjust="spacing" textLength="39.5049" x="12" y="450.7949">Client</text></g><g class="participant participant-head" data-participant="GW"><rect fill="#DBEAFE" height="30.4883" rx="2.5" ry="2.5" style="stroke:#2E86AB;stroke-width:0.5;" width="96.5781" x="169.9634" y="89.9766"/><text fill="#000000" font-family="Segoe UI" font-size="14" lengthAdjust="spacing" textLength="82.5781" x="176.9634" y="110.5117">API Gateway</text></g><g class="participant participant-tail" data-participant="GW"><rect fill="#DBEAFE" height="30.4883" rx="2.5" ry="2.5" style="stroke:#2E86AB;stroke-width:0.5;" width="96.5781" x="169.9634" y="430.2598"/><text fill="#000000" font-family="Segoe UI" font-size="14" lengthAdjust="spacing" textLength="82.5781" x="176.9634" y="450.7949">API Gateway</text></g><g class="participant participant-head" data-participant="Svc"><a href="/microservices/svc-inventory-procurement/" target="_top" title="/microservices/svc-inventory-procurement/" xlink:actuate="onRequest" xlink:href="/microservices/svc-inventory-procurement/" xlink:show="new" xlink:title="/microservices/svc-inventory-procurement/" xlink:type="simple"><rect fill="#E8F4F8" height="30.4883" rx="2.5" ry="2.5" style="stroke:#2E86AB;stroke-width:0.5;" width="202.4258" x="276.5415" y="89.9766"/><text fill="#000000" font-family="Segoe UI" font-size="14" lengthAdjust="spacing" textLength="188.4258" x="283.5415" y="110.5117">svc-inventory-procurement</text></a></g><g class="participant participant-tail" data-participant="Svc"><a href="/microservices/svc-inventory-procurement/" target="_top" title="/microservices/svc-inventory-procurement/" xlink:actuate="onRequest" xlink:href="/microservices/svc-inventory-procurement/" xlink:show="new" xlink:title="/microservices/svc-inventory-procurement/" xlink:type="simple"><rect fill="#E8F4F8" height="30.4883" rx="2.5" ry="2.5" style="stroke:#2E86AB;stroke-width:0.5;" width="202.4258" x="276.5415" y="430.2598"/><text fill="#000000" font-family="Segoe UI" font-size="14" lengthAdjust="spacing" textLength="188.4258" x="283.5415" y="450.7949">svc-inventory-procurement</text></a></g><g class="participant participant-head" data-participant="DB"><text fill="#000000" font-family="Segoe UI" font-size="14" lengthAdjust="spacing" textLength="76.8496" x="488.9673" y="118.5117">PostgreSQL</text><path d="M512.3921,68.9766 C512.3921,58.9766 530.3921,58.9766 530.3921,58.9766 C530.3921,58.9766 548.3921,58.9766 548.3921,68.9766 L548.3921,94.9766 C548.3921,104.9766 530.3921,104.9766 530.3921,104.9766 C530.3921,104.9766 512.3921,104.9766 512.3921,94.9766 L512.3921,68.9766" fill="#FCE4EC" style="stroke:#181818;stroke-width:0.5;"/><path d="M512.3921,68.9766 C512.3921,78.9766 530.3921,78.9766 530.3921,78.9766 C530.3921,78.9766 548.3921,78.9766 548.3921,68.9766" fill="none" style="stroke:#181818;stroke-width:0.5;"/></g><g class="participant participant-tail" data-participant="DB"><text fill="#000000" font-family="Segoe UI" font-size="14" lengthAdjust="spacing" textLength="76.8496" x="488.9673" y="443.7949">PostgreSQL</text><path d="M512.3921,456.748 C512.3921,446.748 530.3921,446.748 530.3921,446.748 C530.3921,446.748 548.3921,446.748 548.3921,456.748 L548.3921,482.748 C548.3921,492.748 530.3921,492.748 530.3921,492.748 C530.3921,492.748 512.3921,492.748 512.3921,482.748 L512.3921,456.748" fill="#FCE4EC" style="stroke:#181818;stroke-width:0.5;"/><path d="M512.3921,456.748 C512.3921,466.748 530.3921,466.748 530.3921,466.748 C530.3921,466.748 548.3921,466.748 548.3921,456.748" fill="none" style="stroke:#181818;stroke-width:0.5;"/></g><g><title>API Gateway</title><rect fill="#059669" height="225.1738" style="stroke:#A23B72;stroke-width:1;" width="10" x="213.2524" y="188.0859"/></g><g><title>svc-inventory-procurement</title><rect fill="#059669" height="166.5527" style="stroke:#A23B72;stroke-width:1;" width="10" x="372.7544" y="217.3965"/></g><g><title>PostgreSQL</title><rect fill="#FCE4EC" height="29.3105" style="stroke:#A23B72;stroke-width:1;" width="10" x="525.3921" y="325.3281"/></g><path d="M307,136.4648 L307,161.4648 L447,161.4648 L447,146.4648 L437,136.4648 L307,136.4648" fill="#FEFFDD" style="stroke:#181818;stroke-width:0.5;"/><path d="M437,136.4648 L437,146.4648 L447,146.4648 L437,136.4648" fill="#FEFFDD" style="stroke:#181818;stroke-width:0.5;"/><a href="/services/api/svc-inventory-procurement.html" target="_top" title="/services/api/svc-inventory-procurement.html" xlink:actuate="onRequest" xlink:href="/services/api/svc-inventory-procurement.html" xlink:show="new" xlink:title="/services/api/svc-inventory-procurement.html" xlink:type="simple"><text fill="#0000FF" font-family="Segoe UI" font-size="13" lengthAdjust="spacing" text-decoration="underline" textLength="119.4058" x="313" y="154.0332">View in Swagger UI</text></a><g class="message" data-participant-1="Client" data-participant-2="GW"><polygon fill="#059669" points="201.2524,184.0859,211.2524,188.0859,201.2524,192.0859,205.2524,188.0859" style="stroke:#059669;stroke-width:1;"/><line style="stroke:#059669;stroke-width:1;" x1="31.7524" x2="207.2524" y1="188.0859" y2="188.0859"/><text fill="#000000" font-family="Segoe UI" font-size="13" lengthAdjust="spacing" textLength="162.5" x="38.7524" y="183.3438">POST /stock-adjustments</text></g><g class="message" data-participant-1="GW" data-participant-2="Svc"><polygon fill="#059669" points="360.7544,213.3965,370.7544,217.3965,360.7544,221.3965,364.7544,217.3965" style="stroke:#059669;stroke-width:1;"/><line style="stroke:#059669;stroke-width:1;" x1="223.2524" x2="366.7544" y1="217.3965" y2="217.3965"/><text fill="#000000" font-family="Segoe UI" font-size="13" lengthAdjust="spacing" textLength="85.1348" x="230.2524" y="212.6543">route request</text></g><path d="M387,230.3965 L387,255.3965 L545,255.3965 L545,240.3965 L535,230.3965 L387,230.3965" fill="#FEFFDD" style="stroke:#181818;stroke-width:0.5;"/><path d="M535,230.3965 L535,240.3965 L545,240.3965 L535,230.3965" fill="#FEFFDD" style="stroke:#181818;stroke-width:0.5;"/><text fill="#000000" font-family="Segoe UI" font-size="13" lengthAdjust="spacing" textLength="137.5728" x="393" y="247.9648">Validate request body</text><rect fill="#EEEEEE" height="3" style="stroke:#EEEEEE;stroke-width:1;" width="576.8169" x="0" y="281.3623"/><line style="stroke:#000000;stroke-width:1;" x1="0" x2="576.8169" y1="281.3623" y2="281.3623"/><line style="stroke:#000000;stroke-width:1;" x1="0" x2="576.8169" y1="284.3623" y2="284.3623"/><rect fill="#EEEEEE" height="23.3105" style="stroke:#000000;stroke-width:2;" width="80.3711" x="248.2229" y="270.707"/><text fill="#000000" font-family="Segoe UI" font-size="13" font-weight="bold" lengthAdjust="spacing" textLength="62.0864" x="254.2229" y="287.2754">Database</text><g class="message" data-participant-1="Svc" data-participant-2="DB"><polygon fill="#059669" points="513.3921,321.3281,523.3921,325.3281,513.3921,329.3281,517.3921,325.3281" style="stroke:#059669;stroke-width:1;"/><line style="stroke:#059669;stroke-width:1;" x1="382.7544" x2="519.3921" y1="325.3281" y2="325.3281"/><text fill="#000000" font-family="Segoe UI" font-size="13" lengthAdjust="spacing" textLength="96.0718" x="389.7544" y="320.5859">INSERT INTO ...</text></g><g class="message" data-participant-1="DB" data-participant-2="Svc"><polygon fill="#059669" points="393.7544,350.6387,383.7544,354.6387,393.7544,358.6387,389.7544,354.6387" style="stroke:#059669;stroke-width:1;"/><line style="stroke:#059669;stroke-width:1;stroke-dasharray:2,2;" x1="387.7544" x2="529.3921" y1="354.6387" y2="354.6387"/><text fill="#000000" font-family="Segoe UI" font-size="13" lengthAdjust="spacing" textLength="76.4575" x="399.7544" y="349.8965">Created row</text></g><g class="message" data-participant-1="Svc" data-participant-2="GW"><polygon fill="#059669" points="234.2524,379.9492,224.2524,383.9492,234.2524,387.9492,230.2524,383.9492" style="stroke:#059669;stroke-width:1;"/><line style="stroke:#059669;stroke-width:1;stroke-dasharray:2,2;" x1="228.2524" x2="376.7544" y1="383.9492" y2="383.9492"/><text fill="#000000" font-family="Segoe UI" font-size="13" lengthAdjust="spacing" textLength="77.7969" x="240.2524" y="379.207">201 Created</text></g><g class="message" data-participant-1="GW" data-participant-2="Client"><polygon fill="#059669" points="42.7524,409.2598,32.7524,413.2598,42.7524,417.2598,38.7524,413.2598" style="stroke:#059669;stroke-width:1;"/><line style="stroke:#059669;stroke-width:1;stroke-dasharray:2,2;" x1="36.7524" x2="217.2524" y1="413.2598" y2="413.2598"/><text fill="#000000" font-family="Segoe UI" font-size="13" lengthAdjust="spacing" textLength="77.7969" x="48.7524" y="408.5176">201 Created</text></g><!--SRC=[TP9FZzem4CNl_XGZzip_BR18L2AG82J4qWsxUzXoC8u9BebDRPCKLVtkdOG0eLkIGoo_DsyylzZiXDnJJMDOKxOBjJh8OAGYfU71SxENc8l3R6cWKY53sD38y98Iy0qzHDPJqivfpA7Yyr1nU9rMokNyvu5Bnk4t0No6MgkqQDNuyjJfFENR2wgjO69FfNMK3hWkB2strnawdop_7jhjUOzUBxVDn8RFXEGtCSDMs-csSjrHlsuahzdp6isBz0c7vw6UotDbRrDPjxjkbxJ_e6oxNVA742jin67nx2-XRgnYkoeDVXoCZRcqvhjyuGnpWKAkmLKZP7-T6YgZIE1c1QY1q_9M7YwcCA6Mf_IOUoRly31st27-pXkVILXLo0JhbJvMzrgnW-RnETbF67nyr6F1j39S9u9nKxzRKb-jBlW3QkcQ6hm82sLigBd_RPP7ZXs4CN8VtH4X4ac1IhZE6Y4xR7NfGlVYVgVQriOHl0cUWf3WfpGCCUHrkbeHBWF8SWavOO7grspu_ZtYX38h4YIL8ogk8IwnB9k-3_WNKTJPrJNswix4i_qqY1RXreBQ57LlD181lPR2MWL7GWO369_P30Q4P6RiXLZwC9txxiiIFyjdgDLgrsObQBYiNiusqXpb0C-Oae2Nx4NkUVPMetdsbdqPzMnKj1Mmxbedx-Gl]--></g></svg>