<svg xmlns="http://www.w3.org/2000/svg" xmlns:xlink="http://www.w3.org/1999/xlink" contentStyleType="text/css" data-diagram-type="SEQUENCE" height="487px" preserveAspectRatio="none" style="width:647px;height:487px;background:#FEFEFE;" version="1.1" viewBox="0 0 647 487" width="647px" zoomAndPan="magnify"><title>GET /trails/{trail_id}/closures</title><defs/><g><rect fill="#FEFEFE" height="487" style="stroke:none;stroke-width:1;" width="647" x="0" y="0"/><text fill="#000000" font-family="Segoe UI" font-size="14" font-weight="bold" lengthAdjust="spacing" textLength="215.2773" x="212.2705" y="41.3125">GET /trails/{trail_id}/closures</text><text fill="#000000" font-family="Segoe UI" font-size="14" font-weight="bold" lengthAdjust="spacing" textLength="163.9941" x="237.9121" y="57.8008">List closures for a trail</text><g><title>API Gateway</title><rect fill="#2563EB" height="189.8633" style="stroke:#A23B72;stroke-width:1;" width="10" x="235.5391" y="200.8633"/></g><g><title>svc-trail-management</title><rect fill="#2563EB" height="131.2422" style="stroke:#A23B72;stroke-width:1;" width="10" x="377.3735" y="230.1738"/></g><g><title>PostGIS</title><rect fill="#FCE4EC" height="29.3105" style="stroke:#A23B72;stroke-width:1;" width="10" x="602.6177" y="302.7949"/></g><g><title>Client</title><rect fill="#000000" fill-opacity="0.00000" height="274.4844" width="8" x="27.7524" y="134.2422"/><line style="stroke:#A23B72;stroke-width:0.5;stroke-dasharray:5,5;" x1="31" x2="31" y1="134.2422" y2="408.7266"/></g><g><title>API Gateway</title><rect fill="#000000" fill-opacity="0.00000" height="274.4844" width="8" x="236.5391" y="134.2422"/><line style="stroke:#A23B72;stroke-width:0.5;stroke-dasharray:5,5;" x1="240.25" x2="240.25" y1="134.2422" y2="408.7266"/></g><g><title>svc-trail-management</title><rect fill="#000000" fill-opacity="0.00000" height="274.4844" width="8" x="378.3735" y="134.2422"/><line style="stroke:#A23B72;stroke-width:0.5;stroke-dasharray:5,5;" x1="381.8281" x2="381.8281" y1="134.2422" y2="408.7266"/></g><g><title>PostGIS</title><rect fill="#000000" fill-opacity="0.00000" height="274.4844" width="8" x="603.6177" y="134.2422"/><line style="stroke:#A23B72;stroke-width:0.5;stroke-dasharray:5,5;" x1="607.417" x2="607.417" y1="134.2422" y2="408.7266"/></g><g class="participant participant-head" data-participant="Client"><a href="/applications/" target="_top" title="/applications/" xlink:actuate="onRequest" xlink:href="/applications/" xlink:show="new" xlink:title="/applications/" xlink:type="simple"><rect fill="#E8F4F8" height="30.4883" rx="2.5" ry="2.5" style="stroke:#2E86AB;stroke-width:0.5;" width="53.5049" x="5" y="102.7539"/><text fill="#000000" font-family="Segoe UI" font-size="14" lengthAdjust="spacing" textLength="39.5049" x="12" y="123.2891">Client</text></a></g><g class="participant participant-tail" data-participant="Client"><a href="/applications/" target="_top" title="/applications/" xlink:actuate="onRequest" xlink:href="/applications/" xlink:show="new" xlink:title="/applications/" xlink:type="simple"><rect fill="#E8F4F8" height="30.4883" rx="2.5" ry="2.5" style="stroke:#2E86AB;stroke-width:0.5;" width="53.5049" x="5" y="407.7266"/><text fill="#000000" font-family="Segoe UI" font-size="14" lengthAdjust="spacing" textLength="39.5049" x="12" y="428.2617">Client</text></a></g><g class="participant participant-head" data-participant="GW"><rect fill="#DBEAFE" height="30.4883" rx="2.5" ry="2.5" style="stroke:#2E86AB;stroke-width:0.5;" width="96.5781" x="192.25" y="102.7539"/><text fill="#000000" font-family="Segoe UI" font-size="14" lengthAdjust="spacing" textLength="82.5781" x="199.25" y="123.2891">API Gateway</text></g><g class="participant participant-tail" data-participant="GW"><rect fill="#DBEAFE" height="30.4883" rx="2.5" ry="2.5" style="stroke:#2E86AB;stroke-width:0.5;" width="96.5781" x="192.25" y="407.7266"/><text fill="#000000" font-family="Segoe UI" font-size="14" lengthAdjust="spacing" textLength="82.5781" x="199.25" y="428.2617">API Gateway</text></g><g class="participant participant-head" data-participant="Svc"><a href="/microservices/svc-trail-management/" target="_top" title="/microservices/svc-trail-management/" xlink:actuate="onRequest" xlink:href="/microservices/svc-trail-management/" xlink:show="new" xlink:title="/microservices/svc-trail-management/" xlink:type="simple"><rect fill="#E8F4F8" height="30.4883" rx="2.5" ry="2.5" style="stroke:#2E86AB;stroke-width:0.5;" width="167.0908" x="298.8281" y="102.7539"/><text fill="#000000" font-family="Segoe UI" font-size="14" lengthAdjust="spacing" textLength="153.0908" x="305.8281" y="123.2891">svc-trail-management</text></a></g><g class="participant participant-tail" data-participant="Svc"><a href="/microservices/svc-trail-management/" target="_top" title="/microservices/svc-trail-management/" xlink:actuate="onRequest" xlink:href="/microservices/svc-trail-management/" xlink:show="new" xlink:title="/microservices/svc-trail-management/" xlink:type="simple"><rect fill="#E8F4F8" height="30.4883" rx="2.5" ry="2.5" style="stroke:#2E86AB;stroke-width:0.5;" width="167.0908" x="298.8281" y="407.7266"/><text fill="#000000" font-family="Segoe UI" font-size="14" lengthAdjust="spacing" textLength="153.0908" x="305.8281" y="428.2617">svc-trail-management</text></a></g><g class="participant participant-head" data-participant="DB"><text fill="#000000" font-family="Segoe UI" font-size="14" lengthAdjust="spacing" textLength="50.4014" x="579.417" y="131.2891">PostGIS</text><path d="M589.6177,81.7539 C589.6177,71.7539 607.6177,71.7539 607.6177,71.7539 C607.6177,71.7539 625.6177,71.7539 625.6177,81.7539 L625.6177,107.7539 C625.6177,117.7539 607.6177,117.7539 607.6177,117.7539 C607.6177,117.7539 589.6177,117.7539 589.6177,107.7539 L589.6177,81.7539" fill="#FCE4EC" style="stroke:#181818;stroke-width:0.5;"/><path d="M589.6177,81.7539 C589.6177,91.7539 607.6177,91.7539 607.6177,91.7539 C607.6177,91.7539 625.6177,91.7539 625.6177,81.7539" fill="none" style="stroke:#181818;stroke-width:0.5;"/></g><g class="participant participant-tail" data-participant="DB"><text fill="#000000" font-family="Segoe UI" font-size="14" lengthAdjust="spacing" textLength="50.4014" x="579.417" y="421.2617">PostGIS</text><path d="M589.6177,434.2148 C589.6177,424.2148 607.6177,424.2148 607.6177,424.2148 C607.6177,424.2148 625.6177,424.2148 625.6177,434.2148 L625.6177,460.2148 C625.6177,470.2148 607.6177,470.2148 607.6177,470.2148 C607.6177,470.2148 589.6177,470.2148 589.6177,460.2148 L589.6177,434.2148" fill="#FCE4EC" style="stroke:#181818;stroke-width:0.5;"/><path d="M589.6177,434.2148 C589.6177,444.2148 607.6177,444.2148 607.6177,444.2148 C607.6177,444.2148 625.6177,444.2148 625.6177,434.2148" fill="none" style="stroke:#181818;stroke-width:0.5;"/></g><g><title>API Gateway</title><rect fill="#2563EB" height="189.8633" style="stroke:#A23B72;stroke-width:1;" width="10" x="235.5391" y="200.8633"/></g><g><title>svc-trail-management</title><rect fill="#2563EB" height="131.2422" style="stroke:#A23B72;stroke-width:1;" width="10" x="377.3735" y="230.1738"/></g><g><title>PostGIS</title><rect fill="#FCE4EC" height="29.3105" style="stroke:#A23B72;stroke-width:1;" width="10" x="602.6177" y="302.7949"/></g><path d="M312,149.2422 L312,174.2422 L452,174.2422 L452,159.2422 L442,149.2422 L312,149.2422" fill="#FEFFDD" style="stroke:#181818;stroke-width:0.5;"/><path d="M442,149.2422 L442,159.2422 L452,159.2422 L442,149.2422" fill="#FEFFDD" style="stroke:#181818;stroke-width:0.5;"/><a href="/services/api/svc-trail-management.html#/Closures/getTrailClosures" target="_top" title="/services/api/svc-trail-management.html#/Closures/getTrailClosures" xlink:actuate="onRequest" xlink:href="/services/api/svc-trail-management.html#/Closures/getTrailClosures" xlink:show="new" xlink:title="/services/api/svc-trail-management.html#/Closures/getTrailClosures" xlink:type="simple"><text fill="#0000FF" font-family="Segoe UI" font-size="13" lengthAdjust="spacing" text-decoration="underline" textLength="119.4058" x="318" y="166.8105">View in Swagger UI</text></a><g class="message" data-participant-1="Client" data-participant-2="GW"><polygon fill="#2563EB" points="223.5391,196.8633,233.5391,200.8633,223.5391,204.8633,227.5391,200.8633" style="stroke:#2563EB;stroke-width:1;"/><line style="stroke:#2563EB;stroke-width:1;" x1="31.7524" x2="229.5391" y1="200.8633" y2="200.8633"/><text fill="#000000" font-family="Segoe UI" font-size="13" lengthAdjust="spacing" textLength="184.7866" x="38.7524" y="196.1211">GET /trails/{trail_id}/closures</text></g><g class="message" data-participant-1="GW" data-participant-2="Svc"><polygon fill="#2563EB" points="365.3735,226.1738,375.3735,230.1738,365.3735,234.1738,369.3735,230.1738" style="stroke:#2563EB;stroke-width:1;"/><line style="stroke:#2563EB;stroke-width:1;" x1="245.5391" x2="371.3735" y1="230.1738" y2="230.1738"/><text fill="#000000" font-family="Segoe UI" font-size="13" lengthAdjust="spacing" textLength="85.1348" x="252.5391" y="225.4316">route request</text></g><rect fill="#EEEEEE" height="3" style="stroke:#EEEEEE;stroke-width:1;" width="640.8184" x="0" y="258.8291"/><line style="stroke:#000000;stroke-width:1;" x1="0" x2="640.8184" y1="258.8291" y2="258.8291"/><line style="stroke:#000000;stroke-width:1;" x1="0" x2="640.8184" y1="261.8291" y2="261.8291"/><rect fill="#EEEEEE" height="23.3105" style="stroke:#000000;stroke-width:2;" width="80.3711" x="280.2236" y="248.1738"/><text fill="#000000" font-family="Segoe UI" font-size="13" font-weight="bold" lengthAdjust="spacing" textLength="62.0864" x="286.2236" y="264.7422">Database</text><g class="message" data-participant-1="Svc" data-participant-2="DB"><polygon fill="#2563EB" points="590.6177,298.7949,600.6177,302.7949,590.6177,306.7949,594.6177,302.7949" style="stroke:#2563EB;stroke-width:1;"/><line style="stroke:#2563EB;stroke-width:1;" x1="387.3735" x2="596.6177" y1="302.7949" y2="302.7949"/><text fill="#000000" font-family="Segoe UI" font-size="13" lengthAdjust="spacing" textLength="196.2441" x="394.3735" y="298.0527">SELECT ... WHERE parent_id = ?</text></g><g class="message" data-participant-1="DB" data-participant-2="Svc"><polygon fill="#2563EB" points="398.3735,328.1055,388.3735,332.1055,398.3735,336.1055,394.3735,332.1055" style="stroke:#2563EB;stroke-width:1;"/><line style="stroke:#2563EB;stroke-width:1;stroke-dasharray:2,2;" x1="392.3735" x2="606.6177" y1="332.1055" y2="332.1055"/><text fill="#000000" font-family="Segoe UI" font-size="13" lengthAdjust="spacing" textLength="57.8843" x="404.3735" y="327.3633">ResultSet</text></g><g class="message" data-participant-1="Svc" data-participant-2="GW"><polygon fill="#2563EB" points="256.5391,357.416,246.5391,361.416,256.5391,365.416,252.5391,361.416" style="stroke:#2563EB;stroke-width:1;"/><line style="stroke:#2563EB;stroke-width:1;stroke-dasharray:2,2;" x1="250.5391" x2="381.3735" y1="361.416" y2="361.416"/><text fill="#000000" font-family="Segoe UI" font-size="13" lengthAdjust="spacing" textLength="47.3599" x="262.5391" y="356.6738">200 OK</text></g><g class="message" data-participant-1="GW" data-participant-2="Client"><polygon fill="#2563EB" points="42.7524,386.7266,32.7524,390.7266,42.7524,394.7266,38.7524,390.7266" style="stroke:#2563EB;stroke-width:1;"/><line style="stroke:#2563EB;stroke-width:1;stroke-dasharray:2,2;" x1="36.7524" x2="239.5391" y1="390.7266" y2="390.7266"/><text fill="#000000" font-family="Segoe UI" font-size="13" lengthAdjust="spacing" textLength="47.3599" x="48.7524" y="385.9844">200 OK</text></g><a href="/microservices/svc-trail-management/#integration-context" target="_top" title="/microservices/svc-trail-management/#integration-context" xlink:actuate="onRequest" xlink:href="/microservices/svc-trail-management/#integration-context" xlink:show="new" xlink:title="/microservices/svc-trail-management/#integration-context" xlink:type="simple"><text fill="#0000FF" font-family="Segoe UI" font-size="10" lengthAdjust="spacing" text-decoration="underline" textLength="220.5225" x="419.2959" y="14.668">&#11014; svc-trail-management Integration Context</text></a><!--SRC=[ZLFRRjf047tVhnZ1CvX06X0IhS3O51MbA93oaA9gi0UpYjcbkmkaYlBQh-bNzKiwThWsIAtzuFMUCtDcpypQHwbMQ709CumU4wFNAlPrgWqKmo1xXJqmx09ZlPKgWJccbawGcEQuJbsebRl59K5XH8ackEyNJiFf-vfKHF0iW9-sCNgxawg-kwdHBDyUed4oaYjKhgDDJ6PF2HetxSuRojz51utmEcpaj86Sqq0gEalJhjOwzMgET_JJ6HHUDSBArG5wOqSOCfx3jzgTPutgzLdj1BjWPIseYnSX5eGS1WyFtb96Hbio6ncHzUmcAZc3CYqjKM52IrBEAqhbA37ef5QbYCsb9mU_V_s4Ispe7ydWlvAdKo6ST2b1BnY3buTOxpd_VfFnYnUbsguDsQzg8As3_I_CkMg4d2V4wkWt5FnKibW1qCBhCZiBhbQfZ79fwx7eMKHxs8SUEjhYZpoiDu5YjnEqURREU9SEbGUCDj5_6ZQT7YOWHeSpj3oBGsrThp_AKtKxt0m_k0vy8HHt2lI6ky42t3kME6J7bRoeK5wuPLhq_9rFNa9kd57s6_15qXQaWj4MauHJt_VP3b8nP6f2x2mhlSzSQFwhAm8Z9pTiNUxPxfBmaiCpJvh0CyQWoIwMTKTs1kxfejM2xjwBLak83EG4x4GJHi4WyCTGBfTXyZ6u2u0RmlLn4T223yU49xRnidJGloFBrtv4JiHqGjw9x4zPhLJWywTJIcPuTWvcx1ovnEfDn1y0]--></g></svg>