<svg xmlns="http://www.w3.org/2000/svg" xmlns:xlink="http://www.w3.org/1999/xlink" contentStyleType="text/css" data-diagram-type="SEQUENCE" height="603px" preserveAspectRatio="none" style="width:652px;height:603px;background:#FEFEFE;" version="1.1" viewBox="0 0 652 603" width="652px" zoomAndPan="magnify"><title>PATCH /purchase-orders/{po_id}</title><defs/><g><rect fill="#FEFEFE" height="603" style="stroke:none;stroke-width:1;" width="652" x="0" y="0"/><text fill="#000000" font-family="Segoe UI" font-size="14" font-weight="bold" lengthAdjust="spacing" textLength="241.1582" x="201.5854" y="28.5352">PATCH /purchase-orders/{po_id}</text><text fill="#000000" font-family="Segoe UI" font-size="14" font-weight="bold" lengthAdjust="spacing" textLength="309.9688" x="167.1802" y="45.0234">Update purchase order status or line items</text><g><title>API Gateway</title><rect fill="#7C3AED" height="319.1055" style="stroke:#A23B72;stroke-width:1;" width="10" x="260.0283" y="188.0859"/></g><g><title>svc-inventory-procurement</title><rect fill="#7C3AED" height="260.4844" style="stroke:#A23B72;stroke-width:1;" width="10" x="419.5303" y="217.3965"/></g><g><title>PostgreSQL</title><rect fill="#FCE4EC" height="29.3105" style="stroke:#A23B72;stroke-width:1;" width="10" x="593.9043" y="325.3281"/></g><g><title>PostgreSQL</title><rect fill="#FCE4EC" height="29.3105" style="stroke:#A23B72;stroke-width:1;" width="10" x="593.9043" y="419.2598"/></g><g><title>Client</title><rect fill="#000000" fill-opacity="0.00000" height="403.7266" width="8" x="27.7524" y="121.4648"/><line style="stroke:#A23B72;stroke-width:0.5;stroke-dasharray:5,5;" x1="31" x2="31" y1="121.4648" y2="525.1914"/></g><g><title>API Gateway</title><rect fill="#000000" fill-opacity="0.00000" height="403.7266" width="8" x="261.0283" y="121.4648"/><line style="stroke:#A23B72;stroke-width:0.5;stroke-dasharray:5,5;" x1="264.7393" x2="264.7393" y1="121.4648" y2="525.1914"/></g><g><title>svc-inventory-procurement</title><rect fill="#000000" fill-opacity="0.00000" height="403.7266" width="8" x="420.5303" y="121.4648"/><line style="stroke:#A23B72;stroke-width:0.5;stroke-dasharray:5,5;" x1="424.3174" x2="424.3174" y1="121.4648" y2="525.1914"/></g><g><title>PostgreSQL</title><rect fill="#000000" fill-opacity="0.00000" height="403.7266" width="8" x="594.9043" y="121.4648"/><line style="stroke:#A23B72;stroke-width:0.5;stroke-dasharray:5,5;" x1="598.4795" x2="598.4795" y1="121.4648" y2="525.1914"/></g><g class="participant participant-head" data-participant="Client"><rect fill="#E8F4F8" height="30.4883" rx="2.5" ry="2.5" style="stroke:#2E86AB;stroke-width:0.5;" width="53.5049" x="5" y="89.9766"/><text fill="#000000" font-family="Segoe UI" font-size="14" lengthAdjust="spacing" textLength="39.5049" x="12" y="110.5117">Client</text></g><g class="participant participant-tail" data-participant="Client"><rect fill="#E8F4F8" height="30.4883" rx="2.5" ry="2.5" style="stroke:#2E86AB;stroke-width:0.5;" width="53.5049" x="5" y="524.1914"/><text fill="#000000" font-family="Segoe UI" font-size="14" lengthAdjust="spacing" textLength="39.5049" x="12" y="544.7266">Client</text></g><g class="participant participant-head" data-participant="GW"><rect fill="#DBEAFE" height="30.4883" rx="2.5" ry="2.5" style="stroke:#2E86AB;stroke-width:0.5;" width="96.5781" x="216.7393" y="89.9766"/><text fill="#000000" font-family="Segoe UI" font-size="14" lengthAdjust="spacing" textLength="82.5781" x="223.7393" y="110.5117">API Gateway</text></g><g class="participant participant-tail" data-participant="GW"><rect fill="#DBEAFE" height="30.4883" rx="2.5" ry="2.5" style="stroke:#2E86AB;stroke-width:0.5;" width="96.5781" x="216.7393" y="524.1914"/><text fill="#000000" font-family="Segoe UI" font-size="14" lengthAdjust="spacing" textLength="82.5781" x="223.7393" y="544.7266">API Gateway</text></g><g class="participant participant-head" data-participant="Svc"><a href="/microservices/svc-inventory-procurement/" target="_top" title="/microservices/svc-inventory-procurement/" xlink:actuate="onRequest" xlink:href="/microservices/svc-inventory-procurement/" xlink:show="new" xlink:title="/microservices/svc-inventory-procurement/" xlink:type="simple"><rect fill="#E8F4F8" height="30.4883" rx="2.5" ry="2.5" style="stroke:#2E86AB;stroke-width:0.5;" width="202.4258" x="323.3174" y="89.9766"/><text fill="#000000" font-family="Segoe UI" font-size="14" lengthAdjust="spacing" textLength="188.4258" x="330.3174" y="110.5117">svc-inventory-procurement</text></a></g><g class="participant participant-tail" data-participant="Svc"><a href="/microservices/svc-inventory-procurement/" target="_top" title="/microservices/svc-inventory-procurement/" xlink:actuate="onRequest" xlink:href="/microservices/svc-inventory-procurement/" xlink:show="new" xlink:title="/microservices/svc-inventory-procurement/" xlink:type="simple"><rect fill="#E8F4F8" height="30.4883" rx="2.5" ry="2.5" style="stroke:#2E86AB;stroke-width:0.5;" width="202.4258" x="323.3174" y="524.1914"/><text fill="#000000" font-family="Segoe UI" font-size="14" lengthAdjust="spacing" textLength="188.4258" x="330.3174" y="544.7266">svc-inventory-procurement</text></a></g><g class="participant participant-head" data-participant="DB"><text fill="#000000" font-family="Segoe UI" font-size="14" lengthAdjust="spacing" textLength="76.8496" x="557.4795" y="118.5117">PostgreSQL</text><path d="M580.9043,68.9766 C580.9043,58.9766 598.9043,58.9766 598.9043,58.9766 C598.9043,58.9766 616.9043,58.9766 616.9043,68.9766 L616.9043,94.9766 C616.9043,104.9766 598.9043,104.9766 598.9043,104.9766 C598.9043,104.9766 580.9043,104.9766 580.9043,94.9766 L580.9043,68.9766" fill="#FCE4EC" style="stroke:#181818;stroke-width:0.5;"/><path d="M580.9043,68.9766 C580.9043,78.9766 598.9043,78.9766 598.9043,78.9766 C598.9043,78.9766 616.9043,78.9766 616.9043,68.9766" fill="none" style="stroke:#181818;stroke-width:0.5;"/></g><g class="participant participant-tail" data-participant="DB"><text fill="#000000" font-family="Segoe UI" font-size="14" lengthAdjust="spacing" textLength="76.8496" x="557.4795" y="537.7266">PostgreSQL</text><path d="M580.9043,550.6797 C580.9043,540.6797 598.9043,540.6797 598.9043,540.6797 C598.9043,540.6797 616.9043,540.6797 616.9043,550.6797 L616.9043,576.6797 C616.9043,586.6797 598.9043,586.6797 598.9043,586.6797 C598.9043,586.6797 580.9043,586.6797 580.9043,576.6797 L580.9043,550.6797" fill="#FCE4EC" style="stroke:#181818;stroke-width:0.5;"/><path d="M580.9043,550.6797 C580.9043,560.6797 598.9043,560.6797 598.9043,560.6797 C598.9043,560.6797 616.9043,560.6797 616.9043,550.6797" fill="none" style="stroke:#181818;stroke-width:0.5;"/></g><g><title>API Gateway</title><rect fill="#7C3AED" height="319.1055" style="stroke:#A23B72;stroke-width:1;" width="10" x="260.0283" y="188.0859"/></g><g><title>svc-inventory-procurement</title><rect fill="#7C3AED" height="260.4844" style="stroke:#A23B72;stroke-width:1;" width="10" x="419.5303" y="217.3965"/></g><g><title>PostgreSQL</title><rect fill="#FCE4EC" height="29.3105" style="stroke:#A23B72;stroke-width:1;" width="10" x="593.9043" y="325.3281"/></g><g><title>PostgreSQL</title><rect fill="#FCE4EC" height="29.3105" style="stroke:#A23B72;stroke-width:1;" width="10" x="593.9043" y="419.2598"/></g><path d="M354,136.4648 L354,161.4648 L494,161.4648 L494,146.4648 L484,136.4648 L354,136.4648" fill="#FEFFDD" style="stroke:#181818;stroke-width:0.5;"/><path d="M484,136.4648 L484,146.4648 L494,146.4648 L484,136.4648" fill="#FEFFDD" style="stroke:#181818;stroke-width:0.5;"/><a href="/services/api/svc-inventory-procurement.html" target="_top" title="/services/api/svc-inventory-procurement.html" xlink:actuate="onRequest" xlink:href="/services/api/svc-inventory-procurement.html" xlink:show="new" xlink:title="/services/api/svc-inventory-procurement.html" xlink:type="simple"><text fill="#0000FF" font-family="Segoe UI" font-size="13" lengthAdjust="spacing" text-decoration="underline" textLength="119.4058" x="360" y="154.0332">View in Swagger UI</text></a><g class="message" data-participant-1="Client" data-participant-2="GW"><polygon fill="#7C3AED" points="248.0283,184.0859,258.0283,188.0859,248.0283,192.0859,252.0283,188.0859" style="stroke:#7C3AED;stroke-width:1;"/><line style="stroke:#7C3AED;stroke-width:1;" x1="31.7524" x2="254.0283" y1="188.0859" y2="188.0859"/><text fill="#000000" font-family="Segoe UI" font-size="13" lengthAdjust="spacing" textLength="209.2759" x="38.7524" y="183.3438">PATCH /purchase-orders/{po_id}</text></g><g class="message" data-participant-1="GW" data-participant-2="Svc"><polygon fill="#7C3AED" points="407.5303,213.3965,417.5303,217.3965,407.5303,221.3965,411.5303,217.3965" style="stroke:#7C3AED;stroke-width:1;"/><line style="stroke:#7C3AED;stroke-width:1;" x1="270.0283" x2="413.5303" y1="217.3965" y2="217.3965"/><text fill="#000000" font-family="Segoe UI" font-size="13" lengthAdjust="spacing" textLength="85.1348" x="277.0283" y="212.6543">route request</text></g><path d="M434,230.3965 L434,255.3965 L592,255.3965 L592,240.3965 L582,230.3965 L434,230.3965" fill="#FEFFDD" style="stroke:#181818;stroke-width:0.5;"/><path d="M582,230.3965 L582,240.3965 L592,240.3965 L582,230.3965" fill="#FEFFDD" style="stroke:#181818;stroke-width:0.5;"/><text fill="#000000" font-family="Segoe UI" font-size="13" lengthAdjust="spacing" textLength="137.5728" x="440" y="247.9648">Validate request body</text><rect fill="#EEEEEE" height="3" style="stroke:#EEEEEE;stroke-width:1;" width="645.3291" x="0" y="281.3623"/><line style="stroke:#000000;stroke-width:1;" x1="0" x2="645.3291" y1="281.3623" y2="281.3623"/><line style="stroke:#000000;stroke-width:1;" x1="0" x2="645.3291" y1="284.3623" y2="284.3623"/><rect fill="#EEEEEE" height="23.3105" style="stroke:#000000;stroke-width:2;" width="80.3711" x="282.479" y="270.707"/><text fill="#000000" font-family="Segoe UI" font-size="13" font-weight="bold" lengthAdjust="spacing" textLength="62.0864" x="288.479" y="287.2754">Database</text><g class="message" data-participant-1="Svc" data-participant-2="DB"><polygon fill="#7C3AED" points="581.9043,321.3281,591.9043,325.3281,581.9043,329.3281,585.9043,325.3281" style="stroke:#7C3AED;stroke-width:1;"/><line style="stroke:#7C3AED;stroke-width:1;" x1="429.5303" x2="587.9043" y1="325.3281" y2="325.3281"/><text fill="#000000" font-family="Segoe UI" font-size="13" lengthAdjust="spacing" textLength="145.374" x="436.5303" y="320.5859">SELECT ... FOR UPDATE</text></g><g class="message" data-participant-1="DB" data-participant-2="Svc"><polygon fill="#7C3AED" points="440.5303,350.6387,430.5303,354.6387,440.5303,358.6387,436.5303,354.6387" style="stroke:#7C3AED;stroke-width:1;"/><line style="stroke:#7C3AED;stroke-width:1;stroke-dasharray:2,2;" x1="434.5303" x2="597.9043" y1="354.6387" y2="354.6387"/><text fill="#000000" font-family="Segoe UI" font-size="13" lengthAdjust="spacing" textLength="75.3086" x="446.5303" y="349.8965">Current row</text></g><path d="M434,367.6387 L434,392.6387 L620,392.6387 L620,377.6387 L610,367.6387 L434,367.6387" fill="#FEFFDD" style="stroke:#181818;stroke-width:0.5;"/><path d="M610,367.6387 L610,377.6387 L620,377.6387 L610,367.6387" fill="#FEFFDD" style="stroke:#181818;stroke-width:0.5;"/><text fill="#000000" font-family="Segoe UI" font-size="13" lengthAdjust="spacing" textLength="165.9023" x="440" y="385.207">Merge changed fields only</text><g class="message" data-participant-1="Svc" data-participant-2="DB"><polygon fill="#7C3AED" points="581.9043,415.2598,591.9043,419.2598,581.9043,423.2598,585.9043,419.2598" style="stroke:#7C3AED;stroke-width:1;"/><line style="stroke:#7C3AED;stroke-width:1;" x1="429.5303" x2="587.9043" y1="419.2598" y2="419.2598"/><text fill="#000000" font-family="Segoe UI" font-size="13" lengthAdjust="spacing" textLength="109.4526" x="436.5303" y="414.5176">UPDATE ... SET ...</text></g><g class="message" data-participant-1="DB" data-participant-2="Svc"><polygon fill="#7C3AED" points="440.5303,444.5703,430.5303,448.5703,440.5303,452.5703,436.5303,448.5703" style="stroke:#7C3AED;stroke-width:1;"/><line style="stroke:#7C3AED;stroke-width:1;stroke-dasharray:2,2;" x1="434.5303" x2="597.9043" y1="448.5703" y2="448.5703"/><text fill="#000000" font-family="Segoe UI" font-size="13" lengthAdjust="spacing" textLength="80.2725" x="446.5303" y="443.8281">Updated row</text></g><g class="message" data-participant-1="Svc" data-participant-2="GW"><polygon fill="#7C3AED" points="281.0283,473.8809,271.0283,477.8809,281.0283,481.8809,277.0283,477.8809" style="stroke:#7C3AED;stroke-width:1;"/><line style="stroke:#7C3AED;stroke-width:1;stroke-dasharray:2,2;" x1="275.0283" x2="423.5303" y1="477.8809" y2="477.8809"/><text fill="#000000" font-family="Segoe UI" font-size="13" lengthAdjust="spacing" textLength="47.3599" x="287.0283" y="473.1387">200 OK</text></g><g class="message" data-participant-1="GW" data-participant-2="Client"><polygon fill="#7C3AED" points="42.7524,503.1914,32.7524,507.1914,42.7524,511.1914,38.7524,507.1914" style="stroke:#7C3AED;stroke-width:1;"/><line style="stroke:#7C3AED;stroke-width:1;stroke-dasharray:2,2;" x1="36.7524" x2="264.0283" y1="507.1914" y2="507.1914"/><text fill="#000000" font-family="Segoe UI" font-size="13" lengthAdjust="spacing" textLength="47.3599" x="48.7524" y="502.4492">200 OK</text></g><!--SRC=[XLFlRzem4Ftkl-94FmCjL0CXCIc4fAl6MZPA-w53aucFO3NOcUr0KTN_VUVmex1IDVdYvBrxT_VkR9-aohdX2vZov2arkb0Yr9asS1P7_cLspx1pBlHAgXHcFBDuW0YSyI9piLRkXYyGAYDCDSBukd8OZdyBL0d22mDw0cFqQfkgbJGvYlBta1id4vbpvNhQ23HRIYDgVmbwxoZ_5nsruykuNT86SeO3gV189cWqUwr6YVVqyn4KNxJZyuizzCwEE2QyX6-qErPDMgrfym0xOMKpQh5Nnfnq6S8mk0k_GJqlJ3Bd5gkbbgs_vFgF5A-_rJWNt27iS2Xni8wxmj87PDGMI8SBorZ-vWPKmaoYSXNW5ZR7OpWONiCLAQ_ukkHSFS1PlnS5DEOZdbqcLQcM5A_DkfeRdHG65plbqJA1nyVwGYP6MpHBcQ2jVnXIdqpsOw6k-DGtL1bgwrA3ev-3KhBV8vF2w38A6LFa8EWbDKo9o5DAjS_2S_bnfjhSBJAubxW2gM2qucbA8kFhoOIX4k1r6TlO0jMllldE9vDWF75owKVXdTfkAHqfsflG0HeoWSPljdLlR0_kw9j-Z4pd3lHi6tVFCrcEU1iAKotMZ7MxqDzPrEqovicKYzpfm2WQHE4Tr6erY6z_mNZO3-wYjvG73jAnkgymB8pn3TDbOm8Fw2Vh-e4cHI0hL8e2PX8pGGkdilLnBPlaPIsZgApfyq8sEorE5BAHtasaSNuEjzyFANuDlEd4s4xl5ElgWVq3]--></g></svg>