<svg xmlns="http://www.w3.org/2000/svg" xmlns:xlink="http://www.w3.org/1999/xlink" contentStyleType="text/css" data-diagram-type="SEQUENCE" height="1126px" preserveAspectRatio="none" style="width:1933px;height:1126px;background:#FEFEFE;" version="1.1" viewBox="0 0 1933 1126" width="1933px" zoomAndPan="magnify"><title>NovaTrek Adventures - Check-In Process Flow</title><defs/><g><rect fill="#FEFEFE" height="1126" style="stroke:none;stroke-width:1;" width="1933" x="0" y="0"/><text fill="#000000" font-family="Segoe UI" font-size="14" font-weight="bold" lengthAdjust="spacing" textLength="339.4248" x="795.3984" y="28.5352">NovaTrek Adventures - Check-In Process Flow</text><rect fill="none" height="149.5078" style="stroke:#000000;stroke-width:1.5;" width="1174.998" x="10" y="223.9082"/><rect fill="none" height="266.75" style="stroke:#000000;stroke-width:1.5;" width="1354.2559" x="10" y="416.7266"/><g><title>Guest</title><rect fill="#000000" fill-opacity="0.00000" height="926.6055" width="8" x="38.4893" y="118.9766"/><line style="stroke:#A23B72;stroke-width:0.5;stroke-dasharray:5,5;" x1="42" x2="42" y1="118.9766" y2="1045.582"/></g><g><title>Check-in Kiosk</title><rect fill="#000000" fill-opacity="0.00000" height="926.6055" width="8" x="443.5581" y="118.9766"/><line style="stroke:#A23B72;stroke-width:0.5;stroke-dasharray:5,5;" x1="446.6084" x2="446.6084" y1="118.9766" y2="1045.582"/></g><g><title>svc-check-in</title><rect fill="#000000" fill-opacity="0.00000" height="926.6055" width="8" x="749.9082" y="118.9766"/><line style="stroke:#A23B72;stroke-width:0.5;stroke-dasharray:5,5;" x1="753.1567" x2="753.1567" y1="118.9766" y2="1045.582"/></g><g><title>svc-reservations</title><rect fill="#000000" fill-opacity="0.00000" height="926.6055" width="8" x="1107.7314" y="118.9766"/><line style="stroke:#A23B72;stroke-width:0.5;stroke-dasharray:5,5;" x1="1111.4648" x2="1111.4648" y1="118.9766" y2="1045.582"/></g><g><title>svc-safety-compliance</title><rect fill="#000000" fill-opacity="0.00000" height="926.6055" width="8" x="1265.627" y="118.9766"/><line style="stroke:#A23B72;stroke-width:0.5;stroke-dasharray:5,5;" x1="1268.998" x2="1268.998" y1="118.9766" y2="1045.582"/></g><g><title>svc-gear-inventory</title><rect fill="#000000" fill-opacity="0.00000" height="926.6055" width="8" x="1432.8022" y="118.9766"/><line style="stroke:#A23B72;stroke-width:0.5;stroke-dasharray:5,5;" x1="1436.2559" x2="1436.2559" y1="118.9766" y2="1045.582"/></g><g><title>svc-guide-management</title><rect fill="#000000" fill-opacity="0.00000" height="926.6055" width="8" x="1630.7256" y="118.9766"/><line style="stroke:#A23B72;stroke-width:0.5;stroke-dasharray:5,5;" x1="1634.5371" x2="1634.5371" y1="118.9766" y2="1045.582"/></g><g><title>Kafka</title><rect fill="#000000" fill-opacity="0.00000" height="926.6055" width="8" x="1893.2554" y="118.9766"/><line style="stroke:#A23B72;stroke-width:0.5;stroke-dasharray:5,5;" x1="1896.2891" x2="1896.2891" y1="118.9766" y2="1045.582"/></g><g class="participant participant-head" data-participant="guest"><text fill="#000000" font-family="Segoe UI" font-size="14" lengthAdjust="spacing" textLength="38.9785" x="20" y="116.0234">Guest</text><ellipse cx="42.4893" cy="50.9883" fill="#E2E2F0" rx="8" ry="8" style="stroke:#181818;stroke-width:0.5;"/><path d="M42.4893,58.9883 L42.4893,85.9883 M29.4893,66.9883 L55.4893,66.9883 M42.4893,85.9883 L29.4893,100.9883 M42.4893,85.9883 L55.4893,100.9883" fill="none" style="stroke:#181818;stroke-width:0.5;"/></g><g class="participant participant-tail" data-participant="guest"><text fill="#000000" font-family="Segoe UI" font-size="14" lengthAdjust="spacing" textLength="38.9785" x="20" y="1058.1172">Guest</text><ellipse cx="42.4893" cy="1069.5703" fill="#E2E2F0" rx="8" ry="8" style="stroke:#181818;stroke-width:0.5;"/><path d="M42.4893,1077.5703 L42.4893,1104.5703 M29.4893,1085.5703 L55.4893,1085.5703 M42.4893,1104.5703 L29.4893,1119.5703 M42.4893,1104.5703 L55.4893,1119.5703" fill="none" style="stroke:#181818;stroke-width:0.5;"/></g><g class="participant participant-head" data-participant="kiosk"><rect fill="#E8F4F8" height="30.4883" rx="2.5" ry="2.5" style="stroke:#2E86AB;stroke-width:0.5;" width="117.8994" x="388.6084" y="87.4883"/><text fill="#000000" font-family="Segoe UI" font-size="14" lengthAdjust="spacing" textLength="103.8994" x="395.6084" y="108.0234">Check-in Kiosk</text></g><g class="participant participant-tail" data-participant="kiosk"><rect fill="#E8F4F8" height="30.4883" rx="2.5" ry="2.5" style="stroke:#2E86AB;stroke-width:0.5;" width="117.8994" x="388.6084" y="1044.582"/><text fill="#000000" font-family="Segoe UI" font-size="14" lengthAdjust="spacing" textLength="103.8994" x="395.6084" y="1065.1172">Check-in Kiosk</text></g><g class="participant participant-head" data-participant="checkin"><rect fill="#E8F4F8" height="30.4883" rx="2.5" ry="2.5" style="stroke:#2E86AB;stroke-width:0.5;" width="103.5029" x="702.1567" y="87.4883"/><text fill="#000000" font-family="Segoe UI" font-size="14" lengthAdjust="spacing" textLength="89.5029" x="709.1567" y="108.0234">svc-check-in</text></g><g class="participant participant-tail" data-participant="checkin"><rect fill="#E8F4F8" height="30.4883" rx="2.5" ry="2.5" style="stroke:#2E86AB;stroke-width:0.5;" width="103.5029" x="702.1567" y="1044.582"/><text fill="#000000" font-family="Segoe UI" font-size="14" lengthAdjust="spacing" textLength="89.5029" x="709.1567" y="1065.1172">svc-check-in</text></g><g class="participant participant-head" data-participant="reservations"><rect fill="#E8F4F8" height="30.4883" rx="2.5" ry="2.5" style="stroke:#2E86AB;stroke-width:0.5;" width="126.5332" x="1048.4648" y="87.4883"/><text fill="#000000" font-family="Segoe UI" font-size="14" lengthAdjust="spacing" textLength="112.5332" x="1055.4648" y="108.0234">svc-reservations</text></g><g class="participant participant-tail" data-participant="reservations"><rect fill="#E8F4F8" height="30.4883" rx="2.5" ry="2.5" style="stroke:#2E86AB;stroke-width:0.5;" width="126.5332" x="1048.4648" y="1044.582"/><text fill="#000000" font-family="Segoe UI" font-size="14" lengthAdjust="spacing" textLength="112.5332" x="1055.4648" y="1065.1172">svc-reservations</text></g><g class="participant participant-head" data-participant="safety"><rect fill="#E8F4F8" height="30.4883" rx="2.5" ry="2.5" style="stroke:#2E86AB;stroke-width:0.5;" width="169.2578" x="1184.998" y="87.4883"/><text fill="#000000" font-family="Segoe UI" font-size="14" lengthAdjust="spacing" textLength="155.2578" x="1191.998" y="108.0234">svc-safety-compliance</text></g><g class="participant participant-tail" data-participant="safety"><rect fill="#E8F4F8" height="30.4883" rx="2.5" ry="2.5" style="stroke:#2E86AB;stroke-width:0.5;" width="169.2578" x="1184.998" y="1044.582"/><text fill="#000000" font-family="Segoe UI" font-size="14" lengthAdjust="spacing" textLength="155.2578" x="1191.998" y="1065.1172">svc-safety-compliance</text></g><g class="participant participant-head" data-participant="gear"><rect fill="#E8F4F8" height="30.4883" rx="2.5" ry="2.5" style="stroke:#2E86AB;stroke-width:0.5;" width="145.0928" x="1364.2559" y="87.4883"/><text fill="#000000" font-family="Segoe UI" font-size="14" lengthAdjust="spacing" textLength="131.0928" x="1371.2559" y="108.0234">svc-gear-inventory</text></g><g class="participant participant-tail" data-participant="gear"><rect fill="#E8F4F8" height="30.4883" rx="2.5" ry="2.5" style="stroke:#2E86AB;stroke-width:0.5;" width="145.0928" x="1364.2559" y="1044.582"/><text fill="#000000" font-family="Segoe UI" font-size="14" lengthAdjust="spacing" textLength="131.0928" x="1371.2559" y="1065.1172">svc-gear-inventory</text></g><g class="participant participant-head" data-participant="guides"><rect fill="#E8F4F8" height="30.4883" rx="2.5" ry="2.5" style="stroke:#2E86AB;stroke-width:0.5;" width="178.377" x="1545.5371" y="87.4883"/><text fill="#000000" font-family="Segoe UI" font-size="14" lengthAdjust="spacing" textLength="164.377" x="1552.5371" y="108.0234">svc-guide-management</text></g><g class="participant participant-tail" data-participant="guides"><rect fill="#E8F4F8" height="30.4883" rx="2.5" ry="2.5" style="stroke:#2E86AB;stroke-width:0.5;" width="178.377" x="1545.5371" y="1044.582"/><text fill="#000000" font-family="Segoe UI" font-size="14" lengthAdjust="spacing" textLength="164.377" x="1552.5371" y="1065.1172">svc-guide-management</text></g><g class="participant participant-head" data-participant="kafka"><path d="M1873.2891,92.4883 L1921.2217,92.4883 C1926.2217,92.4883 1926.2217,105.7324 1926.2217,105.7324 C1926.2217,105.7324 1926.2217,118.9766 1921.2217,118.9766 L1873.2891,118.9766 C1868.2891,118.9766 1868.2891,105.7324 1868.2891,105.7324 C1868.2891,105.7324 1868.2891,92.4883 1873.2891,92.4883" fill="#E2E2F0" style="stroke:#181818;stroke-width:0.5;"/><path d="M1921.2217,92.4883 C1916.2217,92.4883 1916.2217,105.7324 1916.2217,105.7324 C1916.2217,118.9766 1921.2217,118.9766 1921.2217,118.9766" fill="none" style="stroke:#181818;stroke-width:0.5;"/><text fill="#000000" font-family="Segoe UI" font-size="14" lengthAdjust="spacing" textLength="37.9326" x="1873.2891" y="111.0234">Kafka</text></g><g class="participant participant-tail" data-participant="kafka"><path d="M1873.2891,1044.582 L1921.2217,1044.582 C1926.2217,1044.582 1926.2217,1057.8262 1926.2217,1057.8262 C1926.2217,1057.8262 1926.2217,1071.0703 1921.2217,1071.0703 L1873.2891,1071.0703 C1868.2891,1071.0703 1868.2891,1057.8262 1868.2891,1057.8262 C1868.2891,1057.8262 1868.2891,1044.582 1873.2891,1044.582" fill="#E2E2F0" style="stroke:#181818;stroke-width:0.5;"/><path d="M1921.2217,1044.582 C1916.2217,1044.582 1916.2217,1057.8262 1916.2217,1057.8262 C1916.2217,1071.0703 1921.2217,1071.0703 1921.2217,1071.0703" fill="none" style="stroke:#181818;stroke-width:0.5;"/><text fill="#000000" font-family="Segoe UI" font-size="14" lengthAdjust="spacing" textLength="37.9326" x="1873.2891" y="1063.1172">Kafka</text></g><g class="message" data-participant-1="guest" data-participant-2="kiosk"><polygon fill="#2E86AB" points="435.5581,146.2871,445.5581,150.2871,435.5581,154.2871,439.5581,150.2871" style="stroke:#2E86AB;stroke-width:1;"/><line style="stroke:#2E86AB;stroke-width:1;" x1="42.4893" x2="441.5581" y1="150.2871" y2="150.2871"/><text fill="#000000" font-family="Segoe UI" font-size="13" lengthAdjust="spacing" textLength="259.9492" x="49.4893" y="145.5449">scan QR code from booking confirmation</text></g><g class="message" data-participant-1="kiosk" data-participant-2="checkin"><polygon fill="#2E86AB" points="741.9082,175.5977,751.9082,179.5977,741.9082,183.5977,745.9082,179.5977" style="stroke:#2E86AB;stroke-width:1;"/><line style="stroke:#2E86AB;stroke-width:1;" x1="447.5581" x2="747.9082" y1="179.5977" y2="179.5977"/><text fill="#000000" font-family="Segoe UI" font-size="13" lengthAdjust="spacing" textLength="177.1821" x="454.5581" y="174.8555">initiateCheckIn(qrCodeData)</text></g><g class="message" data-participant-1="checkin" data-participant-2="reservations"><polygon fill="#2E86AB" points="1099.7314,204.9082,1109.7314,208.9082,1099.7314,212.9082,1103.7314,208.9082" style="stroke:#2E86AB;stroke-width:1;"/><line style="stroke:#2E86AB;stroke-width:1;" x1="753.9082" x2="1105.7314" y1="208.9082" y2="208.9082"/><text fill="#000000" font-family="Segoe UI" font-size="13" lengthAdjust="spacing" textLength="184.1582" x="760.9082" y="204.166">getReservation(reservationId)</text></g><path d="M10,223.9082 L72.1387,223.9082 L72.1387,231.2188 L62.1387,241.2188 L10,241.2188 L10,223.9082" fill="#EEEEEE" style="stroke:#000000;stroke-width:1.5;"/><rect fill="none" height="149.5078" style="stroke:#000000;stroke-width:1.5;" width="1174.998" x="10" y="223.9082"/><text fill="#000000" font-family="Segoe UI" font-size="13" font-weight="bold" lengthAdjust="spacing" textLength="17.1387" x="25" y="237.4766">alt</text><text fill="#000000" font-family="Segoe UI" font-size="11" font-weight="bold" lengthAdjust="spacing" textLength="223.2334" x="87.1387" y="236.543">[Reservation found and valid for today]</text><g class="message" data-participant-1="reservations" data-participant-2="checkin"><polygon fill="#2E86AB" points="764.9082,258.5293,754.9082,262.5293,764.9082,266.5293,760.9082,262.5293" style="stroke:#2E86AB;stroke-width:1;"/><line style="stroke:#2E86AB;stroke-width:1;stroke-dasharray:2,2;" x1="758.9082" x2="1110.7314" y1="262.5293" y2="262.5293"/><text fill="#000000" font-family="Segoe UI" font-size="13" lengthAdjust="spacing" textLength="333.8232" x="770.9082" y="257.7871">reservation details (status=CONFIRMED, date=today)</text></g><line style="stroke:#000000;stroke-width:1;stroke-dasharray:2,2;" x1="10" x2="1184.998" y1="271.5293" y2="271.5293"/><text fill="#000000" font-family="Segoe UI" font-size="11" font-weight="bold" lengthAdjust="spacing" textLength="217.9697" x="15" y="282.1641">[Reservation not found or wrong date]</text><g class="message" data-participant-1="reservations" data-participant-2="checkin"><polygon fill="#2E86AB" points="764.9082,302.7949,754.9082,306.7949,764.9082,310.7949,760.9082,306.7949" style="stroke:#2E86AB;stroke-width:1;"/><line style="stroke:#2E86AB;stroke-width:1;stroke-dasharray:2,2;" x1="758.9082" x2="1110.7314" y1="306.7949" y2="306.7949"/><text fill="#000000" font-family="Segoe UI" font-size="13" lengthAdjust="spacing" textLength="115.8765" x="770.9082" y="302.0527">reservation invalid</text></g><g class="message" data-participant-1="checkin" data-participant-2="kiosk"><polygon fill="#2E86AB" points="458.5581,332.1055,448.5581,336.1055,458.5581,340.1055,454.5581,336.1055" style="stroke:#2E86AB;stroke-width:1;"/><line style="stroke:#2E86AB;stroke-width:1;stroke-dasharray:2,2;" x1="452.5581" x2="752.9082" y1="336.1055" y2="336.1055"/><text fill="#000000" font-family="Segoe UI" font-size="13" lengthAdjust="spacing" textLength="282.3501" x="464.5581" y="331.3633">"Reservation not found. Visit guest services."</text></g><g class="message" data-participant-1="kiosk" data-participant-2="guest"><polygon fill="#2E86AB" points="53.4893,361.416,43.4893,365.416,53.4893,369.416,49.4893,365.416" style="stroke:#2E86AB;stroke-width:1;"/><line style="stroke:#2E86AB;stroke-width:1;stroke-dasharray:2,2;" x1="47.4893" x2="446.5581" y1="365.416" y2="365.416"/><text fill="#000000" font-family="Segoe UI" font-size="13" lengthAdjust="spacing" textLength="139.0518" x="59.4893" y="360.6738">display error message</text></g><g class="message" data-participant-1="checkin" data-participant-2="safety"><polygon fill="#2E86AB" points="1257.627,397.7266,1267.627,401.7266,1257.627,405.7266,1261.627,401.7266" style="stroke:#2E86AB;stroke-width:1;"/><line style="stroke:#2E86AB;stroke-width:1;" x1="753.9082" x2="1263.627" y1="401.7266" y2="401.7266"/><text fill="#000000" font-family="Segoe UI" font-size="13" lengthAdjust="spacing" textLength="230.6421" x="760.9082" y="396.9844">verifyWaiverStatus(guestId, tripType)</text></g><path d="M10,416.7266 L72.1387,416.7266 L72.1387,424.0371 L62.1387,434.0371 L10,434.0371 L10,416.7266" fill="#EEEEEE" style="stroke:#000000;stroke-width:1.5;"/><rect fill="none" height="266.75" style="stroke:#000000;stroke-width:1.5;" width="1354.2559" x="10" y="416.7266"/><text fill="#000000" font-family="Segoe UI" font-size="13" font-weight="bold" lengthAdjust="spacing" textLength="17.1387" x="25" y="430.2949">alt</text><text fill="#000000" font-family="Segoe UI" font-size="11" font-weight="bold" lengthAdjust="spacing" textLength="157.1851" x="87.1387" y="429.3613">[Waiver signed and current]</text><g class="message" data-participant-1="safety" data-participant-2="checkin"><polygon fill="#2E86AB" points="764.9082,451.3477,754.9082,455.3477,764.9082,459.3477,760.9082,455.3477" style="stroke:#2E86AB;stroke-width:1;"/><line style="stroke:#2E86AB;stroke-width:1;stroke-dasharray:2,2;" x1="758.9082" x2="1268.627" y1="455.3477" y2="455.3477"/><text fill="#000000" font-family="Segoe UI" font-size="13" lengthAdjust="spacing" textLength="234.0508" x="770.9082" y="450.6055">waiver valid (signedDate, expiryDate)</text></g><line style="stroke:#000000;stroke-width:1;stroke-dasharray:2,2;" x1="10" x2="1364.2559" y1="464.3477" y2="464.3477"/><text fill="#000000" font-family="Segoe UI" font-size="11" font-weight="bold" lengthAdjust="spacing" textLength="156.2988" x="15" y="474.9824">[Waiver missing or expired]</text><g class="message" data-participant-1="safety" data-participant-2="checkin"><polygon fill="#2E86AB" points="764.9082,495.6133,754.9082,499.6133,764.9082,503.6133,760.9082,499.6133" style="stroke:#2E86AB;stroke-width:1;"/><line style="stroke:#2E86AB;stroke-width:1;stroke-dasharray:2,2;" x1="758.9082" x2="1268.627" y1="499.6133" y2="499.6133"/><text fill="#000000" font-family="Segoe UI" font-size="13" lengthAdjust="spacing" textLength="97.6714" x="770.9082" y="494.8711">waiver required</text></g><g class="message" data-participant-1="checkin" data-participant-2="kiosk"><polygon fill="#2E86AB" points="458.5581,524.9238,448.5581,528.9238,458.5581,532.9238,454.5581,528.9238" style="stroke:#2E86AB;stroke-width:1;"/><line style="stroke:#2E86AB;stroke-width:1;stroke-dasharray:2,2;" x1="452.5581" x2="752.9082" y1="528.9238" y2="528.9238"/><text fill="#000000" font-family="Segoe UI" font-size="13" lengthAdjust="spacing" textLength="153.6196" x="464.5581" y="524.1816">redirect to digital waiver</text></g><g class="message" data-participant-1="kiosk" data-participant-2="guest"><polygon fill="#2E86AB" points="53.4893,554.2344,43.4893,558.2344,53.4893,562.2344,49.4893,558.2344" style="stroke:#2E86AB;stroke-width:1;"/><line style="stroke:#2E86AB;stroke-width:1;stroke-dasharray:2,2;" x1="47.4893" x2="446.5581" y1="558.2344" y2="558.2344"/><text fill="#000000" font-family="Segoe UI" font-size="13" lengthAdjust="spacing" textLength="174.3765" x="59.4893" y="553.4922">display waiver for signature</text></g><g class="message" data-participant-1="guest" data-participant-2="kiosk"><polygon fill="#2E86AB" points="435.5581,583.5449,445.5581,587.5449,435.5581,591.5449,439.5581,587.5449" style="stroke:#2E86AB;stroke-width:1;"/><line style="stroke:#2E86AB;stroke-width:1;" x1="42.4893" x2="441.5581" y1="587.5449" y2="587.5449"/><text fill="#000000" font-family="Segoe UI" font-size="13" lengthAdjust="spacing" textLength="114.6323" x="49.4893" y="582.8027">sign digital waiver</text></g><g class="message" data-participant-1="kiosk" data-participant-2="safety"><polygon fill="#2E86AB" points="1257.627,612.8555,1267.627,616.8555,1257.627,620.8555,1261.627,616.8555" style="stroke:#2E86AB;stroke-width:1;"/><line style="stroke:#2E86AB;stroke-width:1;" x1="447.5581" x2="1263.627" y1="616.8555" y2="616.8555"/><text fill="#000000" font-family="Segoe UI" font-size="13" lengthAdjust="spacing" textLength="268.5122" x="454.5581" y="612.1133">submitWaiver(guestId, signature, tripType)</text></g><g class="message" data-participant-1="safety" data-participant-2="kiosk"><polygon fill="#2E86AB" points="458.5581,642.166,448.5581,646.166,458.5581,650.166,454.5581,646.166" style="stroke:#2E86AB;stroke-width:1;"/><line style="stroke:#2E86AB;stroke-width:1;stroke-dasharray:2,2;" x1="452.5581" x2="1268.627" y1="646.166" y2="646.166"/><text fill="#000000" font-family="Segoe UI" font-size="13" lengthAdjust="spacing" textLength="100.4897" x="464.5581" y="641.4238">waiver recorded</text></g><g class="message" data-participant-1="kiosk" data-participant-2="checkin"><polygon fill="#2E86AB" points="741.9082,671.4766,751.9082,675.4766,741.9082,679.4766,745.9082,675.4766" style="stroke:#2E86AB;stroke-width:1;"/><line style="stroke:#2E86AB;stroke-width:1;" x1="447.5581" x2="747.9082" y1="675.4766" y2="675.4766"/><text fill="#000000" font-family="Segoe UI" font-size="13" lengthAdjust="spacing" textLength="164.1187" x="454.5581" y="670.7344">waiverCompleted(guestId)</text></g><g class="message" data-participant-1="checkin" data-participant-2="gear"><polygon fill="#2E86AB" points="1424.8022,707.7871,1434.8022,711.7871,1424.8022,715.7871,1428.8022,711.7871" style="stroke:#2E86AB;stroke-width:1;"/><line style="stroke:#2E86AB;stroke-width:1;" x1="753.9082" x2="1430.8022" y1="711.7871" y2="711.7871"/><text fill="#000000" font-family="Segoe UI" font-size="13" lengthAdjust="spacing" textLength="228.9346" x="760.9082" y="707.0449">verifyGearAssignment(reservationId)</text></g><g class="message" data-participant-1="gear" data-participant-2="gear"><line style="stroke:#2E86AB;stroke-width:1;" x1="1436.8022" x2="1478.8022" y1="741.0977" y2="741.0977"/><line style="stroke:#2E86AB;stroke-width:1;" x1="1478.8022" x2="1478.8022" y1="741.0977" y2="754.0977"/><line style="stroke:#2E86AB;stroke-width:1;" x1="1437.8022" x2="1478.8022" y1="754.0977" y2="754.0977"/><polygon fill="#2E86AB" points="1447.8022,750.0977,1437.8022,754.0977,1447.8022,758.0977,1443.8022,754.0977" style="stroke:#2E86AB;stroke-width:1;"/><text fill="#000000" font-family="Segoe UI" font-size="13" lengthAdjust="spacing" textLength="183.9233" x="1443.8022" y="736.3555">locate reserved gear package</text></g><g class="message" data-participant-1="gear" data-participant-2="checkin"><polygon fill="#2E86AB" points="764.9082,779.4082,754.9082,783.4082,764.9082,787.4082,760.9082,783.4082" style="stroke:#2E86AB;stroke-width:1;"/><line style="stroke:#2E86AB;stroke-width:1;stroke-dasharray:2,2;" x1="758.9082" x2="1435.8022" y1="783.4082" y2="783.4082"/><text fill="#000000" font-family="Segoe UI" font-size="13" lengthAdjust="spacing" textLength="268.8105" x="770.9082" y="778.666">gear package ready (items list, locker #17)</text></g><g class="message" data-participant-1="checkin" data-participant-2="checkin"><line style="stroke:#2E86AB;stroke-width:1;" x1="753.9082" x2="795.9082" y1="812.7188" y2="812.7188"/><line style="stroke:#2E86AB;stroke-width:1;" x1="795.9082" x2="795.9082" y1="812.7188" y2="825.7188"/><line style="stroke:#2E86AB;stroke-width:1;" x1="754.9082" x2="795.9082" y1="825.7188" y2="825.7188"/><polygon fill="#2E86AB" points="764.9082,821.7188,754.9082,825.7188,764.9082,829.7188,760.9082,825.7188" style="stroke:#2E86AB;stroke-width:1;"/><text fill="#000000" font-family="Segoe UI" font-size="13" lengthAdjust="spacing" textLength="153.0864" x="760.9082" y="807.9766">generate wristband data</text></g><g class="message" data-participant-1="checkin" data-participant-2="kiosk"><polygon fill="#2E86AB" points="458.5581,851.0293,448.5581,855.0293,458.5581,859.0293,454.5581,855.0293" style="stroke:#2E86AB;stroke-width:1;"/><line style="stroke:#2E86AB;stroke-width:1;stroke-dasharray:2,2;" x1="452.5581" x2="752.9082" y1="855.0293" y2="855.0293"/><text fill="#000000" font-family="Segoe UI" font-size="13" lengthAdjust="spacing" textLength="232.6416" x="464.5581" y="850.2871">checkIn complete - assign wristband</text></g><g class="message" data-participant-1="kiosk" data-participant-2="guest"><polygon fill="#2E86AB" points="53.4893,880.3398,43.4893,884.3398,53.4893,888.3398,49.4893,884.3398" style="stroke:#2E86AB;stroke-width:1;"/><line style="stroke:#2E86AB;stroke-width:1;stroke-dasharray:2,2;" x1="47.4893" x2="446.5581" y1="884.3398" y2="884.3398"/><text fill="#000000" font-family="Segoe UI" font-size="13" lengthAdjust="spacing" textLength="381.0688" x="59.4893" y="879.5977">"Collect wristband. Gear at Locker #17. Meet at Trailhead B."</text></g><g class="message" data-participant-1="checkin" data-participant-2="kafka"><polygon fill="#2E86AB" points="1885.2554,909.6504,1895.2554,913.6504,1885.2554,917.6504,1889.2554,913.6504" style="stroke:#2E86AB;stroke-width:1;"/><line style="stroke:#2E86AB;stroke-width:1;" x1="753.9082" x2="1891.2554" y1="913.6504" y2="913.6504"/><text fill="#000000" font-family="Segoe UI" font-size="13" lengthAdjust="spacing" textLength="169.1714" x="760.9082" y="908.9082">publish checkin.completed</text></g><g class="message" data-participant-1="kafka" data-participant-2="guides"><polygon fill="#2E86AB" points="1645.7256,938.9609,1635.7256,942.9609,1645.7256,946.9609,1641.7256,942.9609" style="stroke:#2E86AB;stroke-width:1;"/><line style="stroke:#2E86AB;stroke-width:1;" x1="1639.7256" x2="1896.2554" y1="942.9609" y2="942.9609"/><text fill="#000000" font-family="Segoe UI" font-size="13" lengthAdjust="spacing" textLength="179.3149" x="1651.7256" y="938.2188">consume checkin.completed</text></g><g class="message" data-participant-1="guides" data-participant-2="guides"><line style="stroke:#2E86AB;stroke-width:1;" x1="1634.7256" x2="1676.7256" y1="972.2715" y2="972.2715"/><line style="stroke:#2E86AB;stroke-width:1;" x1="1676.7256" x2="1676.7256" y1="972.2715" y2="985.2715"/><line style="stroke:#2E86AB;stroke-width:1;" x1="1635.7256" x2="1676.7256" y1="985.2715" y2="985.2715"/><polygon fill="#2E86AB" points="1645.7256,981.2715,1635.7256,985.2715,1645.7256,989.2715,1641.7256,985.2715" style="stroke:#2E86AB;stroke-width:1;"/><text fill="#000000" font-family="Segoe UI" font-size="13" lengthAdjust="spacing" textLength="248.5298" x="1641.7256" y="967.5293">update group roster for assigned guide</text></g><g class="message" data-participant-1="guides" data-participant-2="guides"><line style="stroke:#2E86AB;stroke-width:1;stroke-dasharray:2,2;" x1="1634.7256" x2="1676.7256" y1="1014.582" y2="1014.582"/><line style="stroke:#2E86AB;stroke-width:1;stroke-dasharray:2,2;" x1="1676.7256" x2="1676.7256" y1="1014.582" y2="1027.582"/><line style="stroke:#2E86AB;stroke-width:1;stroke-dasharray:2,2;" x1="1635.7256" x2="1676.7256" y1="1027.582" y2="1027.582"/><polygon fill="#2E86AB" points="1645.7256,1023.582,1635.7256,1027.582,1645.7256,1031.582,1641.7256,1027.582" style="stroke:#2E86AB;stroke-width:1;"/><text fill="#000000" font-family="Segoe UI" font-size="13" lengthAdjust="spacing" textLength="172.3262" x="1641.7256" y="1009.8398">notify guide via mobile app</text></g><!--SRC=[jLPjRzis4FwkNt5mFzG1OcF9XZKea05vSs0qJTiaIpzVf9D3M29Lah9h3FllkoCLcOwp5aEy52Xayhdtv-xu5gxD0kyipU6aM93shIK78pZ7rSYKe_uCpXufdu-c6YQLMMPluR8bvm6jLGiMG5r0BWW7IaDfBFX7Klo_LKsMUUKh-XT3lTxFrkJaNDIVkRdI3LgiuG7p-SoQLXTdfcB5RoONyYz1k4Sip5Bf6PHOEKfk2YgnhVp4Q7-DDS7WbcQ6uC_f81MdRotfdE2l3FZln5gpx4mTNXpzVd8QZZ-ZzIfN3Mf_Qcn1ziUGvqvV74r-cnm5s9KgwKffsb1pSlZhwRl3S7zglczSJGwE9hySz5TRwPXC-3xxE-EY7B_YZyMJ0DnhjM7ksRj1eCa0qC5Clh9cRG86iVPCc0_Ak7b0pULh4-KM-IZla04JVYYzZM96aLsWLqQxW4mFjk4EI_AhKMxgfbB830WoyNGRFIEqx85GrzXL38cFNW2sgg1HZHfdL3EwYvuFNSPCQvc67x2SOunNldPGkYytS6OAWjiSTUZ6ctNeS8-LAiBdQms58iBeZrWdU0zExB7nN8oNrd2_6ZENNioDBfMjeza8PxckTYofjF8AFGKIJFNmcvK0pj7ZNlQ4Oe6qX2mr8vz4DankfyLUbc7bDo8lfL52FXQIWpYPJ86hq4uRkaSRtYLNF4Kygih1q7dqhJi- -tGzcTvyl3ZV1yug7GU5UndnxDamhetl762hIsiuAOB_BwQPR-9t4EcJagH_yAAzCTmhftniEH20uj4w7WGrNIbOIRn-3uLoJOKh89vy5ceUmipSZ7In0rxUXcw2hyXhmi8zMLMgV2TKJ3WIMvOZMOZ-LJHs6uer345EY_smYkvM3NKiwJnoQgOfCYHlhULs3KdgD6uMPXb58fE6KPBvIlj0tnjbL_BTqQ3JNYldf1SuhG52nK-rMzv6FV2balCTt-UUUSoLcocFLIVxa_9s1gG5n7UK3Hn4jfkQht-WEqcuQnzgvMEqwrJtwjEiFmlyoLOVTYuxhzYqypmxPpAgoLFnP6jlHpIzv4aE9quSbv7zVn5L5aPFKx6vDlbyb0NeMgGox0nriu496uuRVWj8gqRiHhxIUvR2OWL3vQbsK2ddzqNVdDF-vk0TzqFYOQf1anMRIyiI3z8XFBrsiQk-zWgJZClFIrcI_4xqkyzzmhWyBXp8EpBn8nI37-j8i-qk6l1pgvAswq7Zo1hqSDKdSmmVYRoStLdU6O-SU3ZbmPkcEAnyrjYq3roBnwUKZv_yOUi14OpBgq5yvZNHyWDs6zj1Kd3Ro9e1UIKsO8tpNTV7A8KyWkmbKr4jkL_5tx1G2BLvKFnsnwR9_W40]--></g></svg>