<svg xmlns="http://www.w3.org/2000/svg" xmlns:xlink="http://www.w3.org/1999/xlink" contentStyleType="text/css" data-diagram-type="DESCRIPTION" height="652px" preserveAspectRatio="none" style="width:2968px;height:652px;background:#FEFEFE;" version="1.1" viewBox="0 0 2968 652" width="2968px" zoomAndPan="magnify"><title>NovaTrek Adventures - Microservice Component Overview</title><defs/><g><rect fill="#FEFEFE" height="652" style="stroke:none;stroke-width:1;" width="2968" x="0" y="0"/><g class="title" data-source-line="5"><text fill="#000000" font-family="Segoe UI" font-size="14" font-weight="bold" lengthAdjust="spacing" textLength="425.5029" x="1264.6035" y="23.5352">NovaTrek Adventures - Microservice Component Overview</text></g><!--cluster Booking Domain--><g class="cluster" data-entity="Booking Domain" data-source-line="28" data-uid="ent0003" id="cluster_Booking Domain"><rect fill="#E8F4F8" height="339.66" rx="4" ry="4" style="stroke:#2E86AB;stroke-width:1;" width="454" x="87" y="153.9783"/><text fill="#000000" font-family="Segoe UI" font-size="14" font-weight="bold" lengthAdjust="spacing" textLength="118.7539" x="254.623" y="169.5134">Booking Domain</text></g><!--cluster Guest Domain--><g class="cluster" data-entity="Guest Domain" data-source-line="37" data-uid="ent0007" id="cluster_Guest Domain"><rect fill="#F0E8F4" height="339.66" rx="4" ry="4" style="stroke:#2E86AB;stroke-width:1;" width="373" x="2510" y="153.9783"/><text fill="#000000" font-family="Segoe UI" font-size="14" font-weight="bold" lengthAdjust="spacing" textLength="101.6367" x="2645.6816" y="169.5134">Guest Domain</text></g><!--cluster Operations Domain--><g class="cluster" data-entity="Operations Domain" data-source-line="46" data-uid="ent0011" id="cluster_Operations Domain"><rect fill="#E8F4E8" height="171.86" rx="4" ry="4" style="stroke:#2E86AB;stroke-width:1;" width="1151" x="1335" y="349.4683"/><text fill="#000000" font-family="Segoe UI" font-size="14" font-weight="bold" lengthAdjust="spacing" textLength="140.0889" x="1840.4556" y="365.0034">Operations Domain</text></g><!--cluster Infrastructure Domain--><g class="cluster" data-entity="Infrastructure Domain" data-source-line="57" data-uid="ent0019" id="cluster_Infrastructure Domain"><rect fill="#F4F0E8" height="269.66" rx="4" ry="4" style="stroke:#2E86AB;stroke-width:1;" width="746" x="565" y="377.1583"/><text fill="#000000" font-family="Segoe UI" font-size="14" font-weight="bold" lengthAdjust="spacing" textLength="160.4805" x="857.7598" y="392.6934">Infrastructure Domain</text></g><!--cluster Supporting Services--><g class="cluster" data-entity="Supporting Services" data-source-line="68" data-uid="ent0025" id="cluster_Supporting Services"><rect fill="#F4E8E8" height="116.49" rx="4" ry="4" style="stroke:#2E86AB;stroke-width:1;" width="868" x="1499" y="153.9783"/><text fill="#000000" font-family="Segoe UI" font-size="14" font-weight="bold" lengthAdjust="spacing" textLength="143.3154" x="1861.3423" y="169.5134">Supporting Services</text></g><!--entity reservations--><g class="entity" data-entity="reservations" data-source-line="29" data-uid="ent0004" id="entity_reservations"><rect fill="#E8F4F8" height="46.4883" rx="4" ry="4" style="stroke:#2E86AB;stroke-width:0.5;" width="152.5332" x="372.73" y="207.9783"/><rect fill="#E8F4F8" height="10" style="stroke:#2E86AB;stroke-width:0.5;" width="15" x="505.2632" y="212.9783"/><rect fill="#E8F4F8" height="2" style="stroke:#2E86AB;stroke-width:0.5;" width="4" x="503.2632" y="214.9783"/><rect fill="#E8F4F8" height="2" style="stroke:#2E86AB;stroke-width:0.5;" width="4" x="503.2632" y="218.9783"/><text fill="#000000" font-family="Segoe UI" font-size="14" lengthAdjust="spacing" textLength="112.5332" x="387.73" y="241.5134">svc-reservations</text></g><!--entity trip_catalog--><g class="entity" data-entity="trip_catalog" data-source-line="30" data-uid="ent0005" id="entity_trip_catalog"><rect fill="#E8F4F8" height="46.4883" rx="4" ry="4" style="stroke:#2E86AB;stroke-width:0.5;" width="150.8242" x="102.59" y="431.1583"/><rect fill="#E8F4F8" height="10" style="stroke:#2E86AB;stroke-width:0.5;" width="15" x="233.4142" y="436.1583"/><rect fill="#E8F4F8" height="2" style="stroke:#2E86AB;stroke-width:0.5;" width="4" x="231.4142" y="438.1583"/><rect fill="#E8F4F8" height="2" style="stroke:#2E86AB;stroke-width:0.5;" width="4" x="231.4142" y="442.1583"/><text fill="#000000" font-family="Segoe UI" font-size="14" lengthAdjust="spacing" textLength="110.8242" x="117.59" y="464.6934">svc-trip-catalog</text></g><!--entity scheduling--><g class="entity" data-entity="scheduling" data-source-line="31" data-uid="ent0006" id="entity_scheduling"><rect fill="#E8F4F8" height="46.4883" rx="4" ry="4" style="stroke:#2E86AB;stroke-width:0.5;" width="234.9473" x="102.52" y="207.9783"/><rect fill="#E8F4F8" height="10" style="stroke:#2E86AB;stroke-width:0.5;" width="15" x="317.4673" y="212.9783"/><rect fill="#E8F4F8" height="2" style="stroke:#2E86AB;stroke-width:0.5;" width="4" x="315.4673" y="214.9783"/><rect fill="#E8F4F8" height="2" style="stroke:#2E86AB;stroke-width:0.5;" width="4" x="315.4673" y="218.9783"/><text fill="#000000" font-family="Segoe UI" font-size="14" lengthAdjust="spacing" textLength="194.9473" x="117.52" y="241.5134">svc-scheduling-orchestrator</text></g><!--entity guest_profiles--><g class="entity" data-entity="guest_profiles" data-source-line="38" data-uid="ent0008" id="entity_guest_profiles"><rect fill="#E8F4F8" height="46.4883" rx="4" ry="4" style="stroke:#2E86AB;stroke-width:0.5;" width="166.6631" x="2695.67" y="431.1583"/><rect fill="#E8F4F8" height="10" style="stroke:#2E86AB;stroke-width:0.5;" width="15" x="2842.3331" y="436.1583"/><rect fill="#E8F4F8" height="2" style="stroke:#2E86AB;stroke-width:0.5;" width="4" x="2840.3331" y="438.1583"/><rect fill="#E8F4F8" height="2" style="stroke:#2E86AB;stroke-width:0.5;" width="4" x="2840.3331" y="442.1583"/><text fill="#000000" font-family="Segoe UI" font-size="14" lengthAdjust="spacing" textLength="126.6631" x="2710.67" y="464.6934">svc-guest-profiles</text></g><!--entity checkin--><g class="entity" data-entity="checkin" data-source-line="39" data-uid="ent0009" id="entity_checkin"><rect fill="#E8F4F8" height="46.4883" rx="4" ry="4" style="stroke:#2E86AB;stroke-width:0.5;" width="129.5029" x="2526.25" y="207.9783"/><rect fill="#E8F4F8" height="10" style="stroke:#2E86AB;stroke-width:0.5;" width="15" x="2635.7529" y="212.9783"/><rect fill="#E8F4F8" height="2" style="stroke:#2E86AB;stroke-width:0.5;" width="4" x="2633.7529" y="214.9783"/><rect fill="#E8F4F8" height="2" style="stroke:#2E86AB;stroke-width:0.5;" width="4" x="2633.7529" y="218.9783"/><text fill="#000000" font-family="Segoe UI" font-size="14" lengthAdjust="spacing" textLength="89.5029" x="2541.25" y="241.5134">svc-check-in</text></g><!--entity loyalty--><g class="entity" data-entity="loyalty" data-source-line="40" data-uid="ent0010" id="entity_loyalty"><rect fill="#E8F4F8" height="46.4883" rx="4" ry="4" style="stroke:#2E86AB;stroke-width:0.5;" width="175.7686" x="2691.11" y="207.9783"/><rect fill="#E8F4F8" height="10" style="stroke:#2E86AB;stroke-width:0.5;" width="15" x="2846.8786" y="212.9783"/><rect fill="#E8F4F8" height="2" style="stroke:#2E86AB;stroke-width:0.5;" width="4" x="2844.8786" y="214.9783"/><rect fill="#E8F4F8" height="2" style="stroke:#2E86AB;stroke-width:0.5;" width="4" x="2844.8786" y="218.9783"/><text fill="#000000" font-family="Segoe UI" font-size="14" lengthAdjust="spacing" textLength="135.7686" x="2706.11" y="241.5134">svc-loyalty-rewards</text></g><!--entity gear--><g class="entity" data-entity="gear" data-source-line="47" data-uid="ent0012" id="entity_gear"><rect fill="#E8F4F8" height="46.4883" rx="4" ry="4" style="stroke:#2E86AB;stroke-width:0.5;" width="171.0928" x="2068.45" y="431.1583"/><rect fill="#E8F4F8" height="10" style="stroke:#2E86AB;stroke-width:0.5;" width="15" x="2219.5428" y="436.1583"/><rect fill="#E8F4F8" height="2" style="stroke:#2E86AB;stroke-width:0.5;" width="4" x="2217.5428" y="438.1583"/><rect fill="#E8F4F8" height="2" style="stroke:#2E86AB;stroke-width:0.5;" width="4" x="2217.5428" y="442.1583"/><text fill="#000000" font-family="Segoe UI" font-size="14" lengthAdjust="spacing" textLength="131.0928" x="2083.45" y="464.6934">svc-gear-inventory</text></g><!--entity guides--><g class="entity" data-entity="guides" data-source-line="48" data-uid="ent0013" id="entity_guides"><rect fill="#E8F4F8" height="46.4883" rx="4" ry="4" style="stroke:#2E86AB;stroke-width:0.5;" width="204.377" x="1828.81" y="431.1583"/><rect fill="#E8F4F8" height="10" style="stroke:#2E86AB;stroke-width:0.5;" width="15" x="2013.187" y="436.1583"/><rect fill="#E8F4F8" height="2" style="stroke:#2E86AB;stroke-width:0.5;" width="4" x="2011.187" y="438.1583"/><rect fill="#E8F4F8" height="2" style="stroke:#2E86AB;stroke-width:0.5;" width="4" x="2011.187" y="442.1583"/><text fill="#000000" font-family="Segoe UI" font-size="14" lengthAdjust="spacing" textLength="164.377" x="1843.81" y="464.6934">svc-guide-management</text></g><!--entity trails--><g class="entity" data-entity="trails" data-source-line="49" data-uid="ent0014" id="entity_trails"><rect fill="#E8F4F8" height="46.4883" rx="4" ry="4" style="stroke:#2E86AB;stroke-width:0.5;" width="193.0908" x="1351.45" y="431.1583"/><rect fill="#E8F4F8" height="10" style="stroke:#2E86AB;stroke-width:0.5;" width="15" x="1524.5408" y="436.1583"/><rect fill="#E8F4F8" height="2" style="stroke:#2E86AB;stroke-width:0.5;" width="4" x="1522.5408" y="438.1583"/><rect fill="#E8F4F8" height="2" style="stroke:#2E86AB;stroke-width:0.5;" width="4" x="1522.5408" y="442.1583"/><text fill="#000000" font-family="Segoe UI" font-size="14" lengthAdjust="spacing" textLength="153.0908" x="1366.45" y="464.6934">svc-trail-management</text></g><g class="entity" data-entity="GMN15" data-source-line="50" data-uid="ent0016" id="entity_GMN15"><path d="M1579.89,407.4683 L1579.89,450.3983 L1544.63,454.3983 L1579.89,458.3983 L1579.89,501.3316 A4,4 0 0 0 1583.89,505.3316 L1790.1063,505.3316 A4,4 0 0 0 1794.1063,501.3316 L1794.1063,413.4683 L1784.1063,403.4683 L1583.89,403.4683 A4,4 0 0 0 1579.89,407.4683" fill="#FEFFDD" style="stroke:#181818;stroke-width:0.5;"/><path d="M1784.1063,403.4683 L1784.1063,411.4683 A2,2 0 0 0 1786.1063,413.4683 L1794.1063,413.4683 L1784.1063,403.4683" fill="#FEFFDD" style="stroke:#181818;stroke-width:0.5;"/><text fill="#000000" font-family="Segoe UI" font-size="13" lengthAdjust="spacing" textLength="184.2852" x="1585.89" y="421.0366">"NTK-10001: Trail responses</text><text fill="#000000" font-family="Segoe UI" font-size="13" lengthAdjust="spacing" textLength="193.2163" x="1585.89" y="436.3472">now include elevation_gain_m,</text><text fill="#000000" font-family="Segoe UI" font-size="13" lengthAdjust="spacing" textLength="111.0713" x="1585.89" y="451.6577">elevation_loss_m,</text><text fill="#000000" font-family="Segoe UI" font-size="13" lengthAdjust="spacing" textLength="113.3628" x="1585.89" y="466.9683">max_elevation_m,</text><text fill="#000000" font-family="Segoe UI" font-size="13" lengthAdjust="spacing" textLength="110.0366" x="1585.89" y="482.2788">min_elevation_m,</text><text fill="#000000" font-family="Segoe UI" font-size="13" lengthAdjust="spacing" textLength="145.2026" x="1585.89" y="497.5894">and elevation_profile[]"</text></g><!--entity safety--><g class="entity" data-entity="safety" data-source-line="51" data-uid="ent0018" id="entity_safety"><rect fill="#E8F4F8" height="46.4883" rx="4" ry="4" style="stroke:#2E86AB;stroke-width:0.5;" width="195.2578" x="2274.37" y="431.1583"/><rect fill="#E8F4F8" height="10" style="stroke:#2E86AB;stroke-width:0.5;" width="15" x="2449.6278" y="436.1583"/><rect fill="#E8F4F8" height="2" style="stroke:#2E86AB;stroke-width:0.5;" width="4" x="2447.6278" y="438.1583"/><rect fill="#E8F4F8" height="2" style="stroke:#2E86AB;stroke-width:0.5;" width="4" x="2447.6278" y="442.1583"/><text fill="#000000" font-family="Segoe UI" font-size="14" lengthAdjust="spacing" textLength="155.2578" x="2289.37" y="464.6934">svc-safety-compliance</text></g><!--entity payments--><g class="entity" data-entity="payments" data-source-line="58" data-uid="ent0020" id="entity_payments"><rect fill="#E8F4F8" height="46.4883" rx="4" ry="4" style="stroke:#2E86AB;stroke-width:0.5;" width="135.4434" x="739.28" y="431.1583"/><rect fill="#E8F4F8" height="10" style="stroke:#2E86AB;stroke-width:0.5;" width="15" x="854.7234" y="436.1583"/><rect fill="#E8F4F8" height="2" style="stroke:#2E86AB;stroke-width:0.5;" width="4" x="852.7234" y="438.1583"/><rect fill="#E8F4F8" height="2" style="stroke:#2E86AB;stroke-width:0.5;" width="4" x="852.7234" y="442.1583"/><text fill="#000000" font-family="Segoe UI" font-size="14" lengthAdjust="spacing" textLength="95.4434" x="754.28" y="464.6934">svc-payments</text></g><!--entity notifications--><g class="entity" data-entity="notifications" data-source-line="59" data-uid="ent0021" id="entity_notifications"><rect fill="#E8F4F8" height="46.4883" rx="4" ry="4" style="stroke:#2E86AB;stroke-width:0.5;" width="154.0303" x="909.98" y="431.1583"/><rect fill="#E8F4F8" height="10" style="stroke:#2E86AB;stroke-width:0.5;" width="15" x="1044.0103" y="436.1583"/><rect fill="#E8F4F8" height="2" style="stroke:#2E86AB;stroke-width:0.5;" width="4" x="1042.0103" y="438.1583"/><rect fill="#E8F4F8" height="2" style="stroke:#2E86AB;stroke-width:0.5;" width="4" x="1042.0103" y="442.1583"/><text fill="#000000" font-family="Segoe UI" font-size="14" lengthAdjust="spacing" textLength="114.0303" x="924.98" y="464.6934">svc-notifications</text></g><!--entity weather--><g class="entity" data-entity="weather" data-source-line="60" data-uid="ent0022" id="entity_weather"><rect fill="#E8F4F8" height="46.4883" rx="4" ry="4" style="stroke:#2E86AB;stroke-width:0.5;" width="123.4258" x="581.29" y="431.1583"/><rect fill="#E8F4F8" height="10" style="stroke:#2E86AB;stroke-width:0.5;" width="15" x="684.7158" y="436.1583"/><rect fill="#E8F4F8" height="2" style="stroke:#2E86AB;stroke-width:0.5;" width="4" x="682.7158" y="438.1583"/><rect fill="#E8F4F8" height="2" style="stroke:#2E86AB;stroke-width:0.5;" width="4" x="682.7158" y="442.1583"/><text fill="#000000" font-family="Segoe UI" font-size="14" lengthAdjust="spacing" textLength="83.4258" x="596.29" y="464.6934">svc-weather</text></g><!--entity transport--><g class="entity" data-entity="transport" data-source-line="61" data-uid="ent0023" id="entity_transport"><rect fill="#E8F4F8" height="46.4883" rx="4" ry="4" style="stroke:#2E86AB;stroke-width:0.5;" width="196.8027" x="1098.6" y="431.1583"/><rect fill="#E8F4F8" height="10" style="stroke:#2E86AB;stroke-width:0.5;" width="15" x="1275.4027" y="436.1583"/><rect fill="#E8F4F8" height="2" style="stroke:#2E86AB;stroke-width:0.5;" width="4" x="1273.4027" y="438.1583"/><rect fill="#E8F4F8" height="2" style="stroke:#2E86AB;stroke-width:0.5;" width="4" x="1273.4027" y="442.1583"/><text fill="#000000" font-family="Segoe UI" font-size="14" lengthAdjust="spacing" textLength="156.8027" x="1113.6" y="464.6934">svc-transport-logistics</text></g><!--entity location--><g class="entity" data-entity="location" data-source-line="62" data-uid="ent0024" id="entity_location"><rect fill="#E8F4F8" height="46.4883" rx="4" ry="4" style="stroke:#2E86AB;stroke-width:0.5;" width="185.9404" x="1104.03" y="584.3283"/><rect fill="#E8F4F8" height="10" style="stroke:#2E86AB;stroke-width:0.5;" width="15" x="1269.9704" y="589.3283"/><rect fill="#E8F4F8" height="2" style="stroke:#2E86AB;stroke-width:0.5;" width="4" x="1267.9704" y="591.3283"/><rect fill="#E8F4F8" height="2" style="stroke:#2E86AB;stroke-width:0.5;" width="4" x="1267.9704" y="595.3283"/><text fill="#000000" font-family="Segoe UI" font-size="14" lengthAdjust="spacing" textLength="145.9404" x="1119.03" y="617.8634">svc-location-services</text></g><!--entity media--><g class="entity" data-entity="media" data-source-line="69" data-uid="ent0026" id="entity_media"><rect fill="#E8F4F8" height="46.4883" rx="4" ry="4" style="stroke:#2E86AB;stroke-width:0.5;" width="164.6123" x="1514.69" y="207.9783"/><rect fill="#E8F4F8" height="10" style="stroke:#2E86AB;stroke-width:0.5;" width="15" x="1659.3023" y="212.9783"/><rect fill="#E8F4F8" height="2" style="stroke:#2E86AB;stroke-width:0.5;" width="4" x="1657.3023" y="214.9783"/><rect fill="#E8F4F8" height="2" style="stroke:#2E86AB;stroke-width:0.5;" width="4" x="1657.3023" y="218.9783"/><text fill="#000000" font-family="Segoe UI" font-size="14" lengthAdjust="spacing" textLength="124.6123" x="1529.69" y="241.5134">svc-media-gallery</text></g><!--entity analytics--><g class="entity" data-entity="analytics" data-source-line="70" data-uid="ent0027" id="entity_analytics"><rect fill="#E8F4F8" height="46.4883" rx="4" ry="4" style="stroke:#2E86AB;stroke-width:0.5;" width="128.7578" x="1958.62" y="207.9783"/><rect fill="#E8F4F8" height="10" style="stroke:#2E86AB;stroke-width:0.5;" width="15" x="2067.3778" y="212.9783"/><rect fill="#E8F4F8" height="2" style="stroke:#2E86AB;stroke-width:0.5;" width="4" x="2065.3778" y="214.9783"/><rect fill="#E8F4F8" height="2" style="stroke:#2E86AB;stroke-width:0.5;" width="4" x="2065.3778" y="218.9783"/><text fill="#000000" font-family="Segoe UI" font-size="14" lengthAdjust="spacing" textLength="88.7578" x="1973.62" y="241.5134">svc-analytics</text></g><!--entity partners--><g class="entity" data-entity="partners" data-source-line="71" data-uid="ent0028" id="entity_partners"><rect fill="#E8F4F8" height="46.4883" rx="4" ry="4" style="stroke:#2E86AB;stroke-width:0.5;" width="209.1484" x="1714.42" y="207.9783"/><rect fill="#E8F4F8" height="10" style="stroke:#2E86AB;stroke-width:0.5;" width="15" x="1903.5684" y="212.9783"/><rect fill="#E8F4F8" height="2" style="stroke:#2E86AB;stroke-width:0.5;" width="4" x="1901.5684" y="214.9783"/><rect fill="#E8F4F8" height="2" style="stroke:#2E86AB;stroke-width:0.5;" width="4" x="1901.5684" y="218.9783"/><text fill="#000000" font-family="Segoe UI" font-size="14" lengthAdjust="spacing" textLength="169.1484" x="1729.42" y="241.5134">svc-partner-integrations</text></g><!--entity procurement--><g class="entity" data-entity="procurement" data-source-line="72" data-uid="ent0029" id="entity_procurement"><rect fill="#E8F4F8" height="46.4883" rx="4" ry="4" style="stroke:#2E86AB;stroke-width:0.5;" width="228.4258" x="2122.79" y="207.9783"/><rect fill="#E8F4F8" height="10" style="stroke:#2E86AB;stroke-width:0.5;" width="15" x="2331.2158" y="212.9783"/><rect fill="#E8F4F8" height="2" style="stroke:#2E86AB;stroke-width:0.5;" width="4" x="2329.2158" y="214.9783"/><rect fill="#E8F4F8" height="2" style="stroke:#2E86AB;stroke-width:0.5;" width="4" x="2329.2158" y="218.9783"/><text fill="#000000" font-family="Segoe UI" font-size="14" lengthAdjust="spacing" textLength="188.4258" x="2137.79" y="241.5134">svc-inventory-procurement</text></g><!--entity kong--><g class="entity" data-entity="kong" data-source-line="23" data-uid="ent0002" id="entity_kong"><rect fill="#FFF3E0" height="46.4883" rx="4" ry="4" style="stroke:#2E86AB;stroke-width:0.5;" width="162.165" x="1923.92" y="44.4883"/><rect fill="#FFF3E0" height="10" style="stroke:#2E86AB;stroke-width:0.5;" width="15" x="2066.085" y="49.4883"/><rect fill="#FFF3E0" height="2" style="stroke:#2E86AB;stroke-width:0.5;" width="4" x="2064.085" y="51.4883"/><rect fill="#FFF3E0" height="2" style="stroke:#2E86AB;stroke-width:0.5;" width="4" x="2064.085" y="55.4883"/><text fill="#000000" font-family="Segoe UI" font-size="14" lengthAdjust="spacing" textLength="122.165" x="1938.92" y="78.0234">Kong API Gateway</text></g><!--entity kafka--><g class="entity" data-entity="kafka" data-source-line="78" data-uid="ent0030" id="entity_kafka"><path d="M1357.38,217.9783 L1474.6085,217.9783 C1479.6085,217.9783 1479.6085,231.2224 1479.6085,231.2224 C1479.6085,231.2224 1479.6085,244.4666 1474.6085,244.4666 L1357.38,244.4666 C1352.38,244.4666 1352.38,231.2224 1352.38,231.2224 C1352.38,231.2224 1352.38,217.9783 1357.38,217.9783" fill="#FFF8E1" style="stroke:#181818;stroke-width:0.5;"/><path d="M1474.6085,217.9783 C1469.6085,217.9783 1469.6085,231.2224 1469.6085,231.2224 C1469.6085,244.4666 1474.6085,244.4666 1474.6085,244.4666" fill="none" style="stroke:#181818;stroke-width:0.5;"/><text fill="#000000" font-family="Segoe UI" font-size="14" lengthAdjust="spacing" textLength="107.2285" x="1357.38" y="236.5134">Kafka Event Bus</text></g><!--link kong to reservations--><g class="link" data-entity-1="kong" data-entity-2="reservations" data-source-line="83" data-uid="lnk31" id="link_kong_reservations"><path d="M1923.66,69.2083 C1753.82,71.0283 1349.37,79.7483 1013,120.9783 C837.03,142.5483 639.3646,185.4717 531.3946,210.5317" fill="none" id="kong-to-reservations" style="stroke:#181818;stroke-width:1;"/><polygon fill="#181818" points="525.55,211.8883,535.2213,213.7499,530.4205,210.7578,533.4126,205.957,525.55,211.8883" style="stroke:#181818;stroke-width:1;"/></g><!--link kong to trip_catalog--><g class="link" data-entity-1="kong" data-entity-2="trip_catalog" data-source-line="84" data-uid="lnk32" id="link_kong_trip_catalog"><path d="M1923.44,68.8983 C1565.63,70.0283 149.58,78.7483 85,145.9783 C6,228.2183 108.7412,370.6105 154.8112,426.4405" fill="none" id="kong-to-trip_catalog" style="stroke:#181818;stroke-width:1;"/><polygon fill="#181818" points="158.63,431.0683,155.987,421.5807,155.4477,427.2118,149.8166,426.6724,158.63,431.0683" style="stroke:#181818;stroke-width:1;"/></g><!--link kong to guest_profiles--><g class="link" data-entity-1="kong" data-entity-2="guest_profiles" data-source-line="85" data-uid="lnk33" id="link_kong_guest_profiles"><path d="M2086.4,69.7683 C2294.01,73.2383 2830.71,87.7983 2884,145.9783 C2961.71,230.8183 2852.8693,371.1677 2803.8293,426.5077" fill="none" id="kong-to-guest_profiles" style="stroke:#181818;stroke-width:1;"/><polygon fill="#181818" points="2799.85,430.9983,2808.8127,426.9154,2803.1661,427.2562,2802.8253,421.6096,2799.85,430.9983" style="stroke:#181818;stroke-width:1;"/></g><!--link kong to checkin--><g class="link" data-entity-1="kong" data-entity-2="checkin" data-source-line="86" data-uid="lnk34" id="link_kong_checkin"><path d="M2086.38,82.4983 C2160.32,95.8583 2272.03,118.1583 2367,145.9783 C2426.41,163.3783 2486.9892,186.7904 2531.8992,205.2204" fill="none" id="kong-to-checkin" style="stroke:#181818;stroke-width:1;"/><polygon fill="#181818" points="2537.45,207.4983,2530.6424,200.3809,2532.8244,205.6,2527.6052,207.7819,2537.45,207.4983" style="stroke:#181818;stroke-width:1;"/></g><!--link kong to partners--><g class="link" data-entity-1="kong" data-entity-2="partners" data-source-line="87" data-uid="lnk35" id="link_kong_partners"><path d="M2003.68,91.2783 C2001.55,106.6483 1996.21,126.2583 1983,137.9783 C1968.78,150.5883 1958.53,138.6483 1941,145.9783 C1904.67,161.1783 1872.8183,184.4801 1849.3383,203.8501" fill="none" id="kong-to-partners" style="stroke:#181818;stroke-width:1;"/><polygon fill="#181818" points="1844.71,207.6683,1854.198,205.0266,1848.5669,204.4865,1849.1071,198.8555,1844.71,207.6683" style="stroke:#181818;stroke-width:1;"/></g><!--link reservations to trip_catalog--><g class="link" data-entity-1="reservations" data-entity-2="trip_catalog" data-source-line="92" data-uid="lnk36" id="link_reservations_trip_catalog"><path d="M410.42,254.8983 C393.87,263.6383 374.01,272.8483 355,278.4683 C325.81,287.0883 312.87,270.4383 287,286.4683 C272.69,295.3283 220.2706,381.9276 194.4306,425.4976" fill="none" id="reservations-to-trip_catalog" style="stroke:#181818;stroke-width:1;"/><polygon fill="#181818" points="191.37,430.6583,199.4014,424.9577,193.9205,426.3577,192.5205,420.8769,191.37,430.6583" style="stroke:#181818;stroke-width:1;"/><text fill="#000000" font-family="Segoe UI" font-size="13" lengthAdjust="spacing" textLength="93.1265" x="288" y="315.0366">trip availability</text></g><!--link reservations to guest_profiles--><g class="link" data-entity-1="reservations" data-entity-2="guest_profiles" data-source-line="93" data-uid="lnk37" id="link_reservations_guest_profiles"><path d="M525.46,234.3883 C696.6,239.7783 1099.73,255.6183 1153,286.4683 C1174.87,299.1283 1162.7,321.5783 1185,333.4683 C1200.95,341.9683 2468.24,338.1383 2486,341.4683 C2578.05,358.7483 2673.2785,400.6954 2729.4085,428.1054" fill="none" id="reservations-to-guest_profiles" style="stroke:#181818;stroke-width:1;"/><polygon fill="#181818" points="2734.8,430.7383,2728.468,423.1947,2730.3071,428.5443,2724.9575,430.3834,2734.8,430.7383" style="stroke:#181818;stroke-width:1;"/><text fill="#000000" font-family="Segoe UI" font-size="13" lengthAdjust="spacing" textLength="100.4771" x="1186" y="315.0366">guest validation</text></g><!--link reservations to gear--><g class="link" data-entity-1="reservations" data-entity-2="gear" data-source-line="94" data-uid="lnk38" id="link_reservations_gear"><path d="M525.72,233.9983 C655.26,237.9583 911.27,250.2483 993,286.4683 C1021.48,299.0883 1015.97,322.1583 1045,333.4683 C1097.08,353.7483 1999.91,318.8083 2051,341.4683 C2092.52,359.8783 2121.5882,398.9727 2138.2682,425.9927" fill="none" id="reservations-to-gear" style="stroke:#181818;stroke-width:1;"/><polygon fill="#181818" points="2141.42,431.0983,2140.0961,421.3388,2138.7935,426.8437,2133.2887,425.5411,2141.42,431.0983" style="stroke:#181818;stroke-width:1;"/><text fill="#000000" font-family="Segoe UI" font-size="13" lengthAdjust="spacing" textLength="102.2925" x="1046" y="315.0366">gear reservation</text></g><!--link reservations to payments--><g class="link" data-entity-1="reservations" data-entity-2="payments" data-source-line="95" data-uid="lnk39" id="link_reservations_payments"><path d="M525.48,231.4583 C627.53,232.2583 800.05,240.5983 840,286.4683 C875.7,327.4583 846.1269,390.6193 824.9269,425.7993" fill="none" id="reservations-to-payments" style="stroke:#181818;stroke-width:1;"/><polygon fill="#181818" points="821.83,430.9383,829.9013,425.2943,824.4107,426.6558,823.0493,421.1652,821.83,430.9383" style="stroke:#181818;stroke-width:1;"/><text fill="#000000" font-family="Segoe UI" font-size="13" lengthAdjust="spacing" textLength="127.1499" x="856.85" y="315.0366">payment processing</text></g><!--link checkin to reservations--><g class="link" data-entity-1="checkin" data-entity-2="reservations" data-source-line="96" data-uid="lnk40" id="link_checkin_reservations"><path d="M2543.95,207.5983 C2499.59,186.7283 2430.61,157.8183 2367,145.9783 C2198.78,114.6683 2153.11,144.6483 1982,144.2683 C1928.67,144.1483 1915.33,144.1783 1862,144.2683 C1627.78,144.6483 1568.93,134.3683 1335,145.9783 C1034.61,160.8883 684.8243,201.6588 531.5143,220.6988" fill="none" id="checkin-to-reservations" style="stroke:#181818;stroke-width:1;"/><polygon fill="#181818" points="525.56,221.4383,534.9844,224.2986,530.5219,220.8221,533.9984,216.3596,525.56,221.4383" style="stroke:#181818;stroke-width:1;"/><text fill="#000000" font-family="Segoe UI" font-size="13" lengthAdjust="spacing" textLength="118.022" x="1863" y="134.5466">reservation lookup</text></g><!--link checkin to safety--><g class="link" data-entity-1="checkin" data-entity-2="safety" data-source-line="97" data-uid="lnk41" id="link_checkin_safety"><path d="M2568.79,254.6483 C2526.82,297.0383 2440.5015,384.2146 2398.4815,426.6546" fill="none" id="checkin-to-safety" style="stroke:#181818;stroke-width:1;"/><polygon fill="#181818" points="2394.26,430.9183,2403.4347,427.3371,2397.7779,427.3652,2397.7498,421.7084,2394.26,430.9183" style="stroke:#181818;stroke-width:1;"/><text fill="#000000" font-family="Segoe UI" font-size="13" lengthAdjust="spacing" textLength="114.4546" x="2533.26" y="315.0366">waiver verification</text></g><!--link checkin to gear--><g class="link" data-entity-1="checkin" data-entity-2="gear" data-source-line="98" data-uid="lnk42" id="link_checkin_gear"><path d="M2526.19,244.3583 C2483.95,253.3783 2428.13,267.4183 2381,286.4683 C2341.69,302.3483 2337.76,318.7683 2298,333.4683 C2280.58,339.8983 2273.2,332.4083 2257,341.4683 C2218.04,363.2483 2188.9931,400.0794 2171.4631,425.9794" fill="none" id="checkin-to-gear" style="stroke:#181818;stroke-width:1;"/><polygon fill="#181818" points="2168.1,430.9483,2176.4572,425.7371,2170.9026,426.8076,2169.8321,421.2529,2168.1,430.9483" style="stroke:#181818;stroke-width:1;"/><text fill="#000000" font-family="Segoe UI" font-size="13" lengthAdjust="spacing" textLength="104.6348" x="2382" y="315.0366">gear assignment</text></g><!--link scheduling to guides--><g class="link" data-entity-1="scheduling" data-entity-2="guides" data-source-line="99" data-uid="lnk43" id="link_scheduling_guides"><path d="M273.84,254.8983 C298.17,264.0383 327.56,273.5583 355,278.4683 C373.43,281.7583 675.55,277.5183 692,286.4683 C714.2,298.5483 701.7,321.5683 724,333.4683 C750.66,347.6983 1783.94,330.2283 1812,341.4683 C1857.28,359.6083 1891.8493,399.0838 1912.0193,426.2038" fill="none" id="scheduling-to-guides" style="stroke:#181818;stroke-width:1;"/><polygon fill="#181818" points="1915.6,431.0183,1913.4386,421.4095,1912.6161,427.0062,1907.0194,426.1837,1915.6,431.0183" style="stroke:#181818;stroke-width:1;"/><text fill="#000000" font-family="Segoe UI" font-size="13" lengthAdjust="spacing" textLength="106.3613" x="725" y="315.0366">guide availability</text></g><!--link scheduling to trails--><g class="link" data-entity-1="scheduling" data-entity-2="trails" data-source-line="100" data-uid="lnk44" id="link_scheduling_trails"><path d="M274.54,254.8683 C298.75,263.8783 327.86,273.3183 355,278.4683 C374.34,282.1383 514.55,277.3583 532,286.4683 C555.32,298.6483 544.47,321.6883 568,333.4683 C604.91,351.9383 1272.19,327.3883 1311,341.4683 C1360.66,359.4783 1401.4525,399.3262 1425.4925,426.4762" fill="none" id="scheduling-to-trails" style="stroke:#181818;stroke-width:1;"/><polygon fill="#181818" points="1429.47,430.9683,1426.4984,421.5784,1426.1554,427.2249,1420.5089,426.8818,1429.47,430.9683" style="stroke:#181818;stroke-width:1;"/><text fill="#000000" font-family="Segoe UI" font-size="13" lengthAdjust="spacing" textLength="94.9419" x="580.5496" y="300.0366">trail conditions</text><text fill="#000000" font-family="Segoe UI" font-size="13" lengthAdjust="spacing" textLength="102.7876" x="576.6267" y="315.3472">+ elevation data</text><text fill="#000000" font-family="Segoe UI" font-size="13" lengthAdjust="spacing" textLength="118.041" x="569" y="330.6577">(gain, loss, profile)</text></g><!--link scheduling to weather--><g class="link" data-entity-1="scheduling" data-entity-2="weather" data-source-line="101" data-uid="lnk45" id="link_scheduling_weather"><path d="M282.86,254.8883 C305.48,262.7383 331.27,271.3483 355,278.4683 C368.63,282.5483 374.13,278.6083 386,286.4683 C407.94,300.9883 398.81,321.0383 422,333.4683 C445.36,345.9883 517.13,329.9483 541,341.4683 C581.49,360.9983 610.2121,399.2952 626.9321,425.9552" fill="none" id="scheduling-to-weather" style="stroke:#181818;stroke-width:1;"/><polygon fill="#181818" points="630.12,431.0383,628.7269,421.2884,627.4634,426.8024,621.9495,425.5389,630.12,431.0383" style="stroke:#181818;stroke-width:1;"/><text fill="#000000" font-family="Segoe UI" font-size="13" lengthAdjust="spacing" textLength="104.6982" x="423" y="315.0366">weather forecast</text></g><!--link scheduling to trip_catalog--><g class="link" data-entity-1="scheduling" data-entity-2="trip_catalog" data-source-line="102" data-uid="lnk46" id="link_scheduling_trip_catalog"><path d="M166.9,254.7483 C154.2,262.8083 142.23,273.2683 135,286.4683 C109.03,333.8383 137.848,392.3304 158.998,425.7004" fill="none" id="scheduling-to-trip_catalog" style="stroke:#181818;stroke-width:1;"/><polygon fill="#181818" points="162.21,430.7683,160.7705,421.0252,159.5333,426.5451,154.0134,425.3079,162.21,430.7683" style="stroke:#181818;stroke-width:1;"/><text fill="#000000" font-family="Segoe UI" font-size="13" lengthAdjust="spacing" textLength="110.3032" x="136" y="315.0366">trip requirements</text></g><!--link loyalty to guest_profiles--><g class="link" data-entity-1="loyalty" data-entity-2="guest_profiles" data-source-line="103" data-uid="lnk47" id="link_loyalty_guest_profiles"><path d="M2779,254.6483 C2779,297.0383 2779,382.4783 2779,424.9183" fill="none" id="loyalty-to-guest_profiles" style="stroke:#181818;stroke-width:1;"/><polygon fill="#181818" points="2779,430.9183,2783,421.9183,2779,425.9183,2775,421.9183,2779,430.9183" style="stroke:#181818;stroke-width:1;"/><text fill="#000000" font-family="Segoe UI" font-size="13" lengthAdjust="spacing" textLength="66.4219" x="2780" y="315.0366">guest data</text></g><!--link procurement to gear--><g class="link" data-entity-1="procurement" data-entity-2="gear" data-source-line="104" data-uid="lnk48" id="link_procurement_gear"><path d="M2228.58,254.6483 C2212.68,297.0383 2180.4673,382.8605 2164.5473,425.3005" fill="none" id="procurement-to-gear" style="stroke:#181818;stroke-width:1;"/><polygon fill="#181818" points="2162.44,430.9183,2169.3462,423.8965,2164.1961,426.2368,2161.8558,421.0868,2162.44,430.9183" style="stroke:#181818;stroke-width:1;"/><text fill="#000000" font-family="Segoe UI" font-size="13" lengthAdjust="spacing" textLength="73.2012" x="2215.74" y="315.0366">stock levels</text></g><!--link transport to location--><g class="link" data-entity-1="transport" data-entity-2="location" data-source-line="105" data-uid="lnk49" id="link_transport_location"><path d="M1197,478.0283 C1197,506.6983 1197,549.7783 1197,578.2783" fill="none" id="transport-to-location" style="stroke:#181818;stroke-width:1;"/><polygon fill="#181818" points="1197,584.2783,1201,575.2783,1197,579.2783,1193,575.2783,1197,584.2783" style="stroke:#181818;stroke-width:1;"/><text fill="#000000" font-family="Segoe UI" font-size="13" lengthAdjust="spacing" textLength="79.2441" x="1198" y="550.8966">GPS tracking</text></g><!--link partners to reservations--><g class="link" data-entity-1="partners" data-entity-2="reservations" data-source-line="106" data-uid="lnk50" id="link_partners_reservations"><path d="M1794.84,207.5283 C1771.85,186.7583 1735.18,158.0583 1697,145.9783 C1580.03,108.9683 1119.29,136.8383 1021,144.2683 C842.21,157.7783 640.5409,193.5892 531.2609,214.7192" fill="none" id="partners-to-reservations" style="stroke:#181818;stroke-width:1;"/><polygon fill="#181818" points="525.37,215.8583,534.9657,218.077,530.2791,214.9091,533.447,210.2225,525.37,215.8583" style="stroke:#181818;stroke-width:1;"/><text fill="#000000" font-family="Segoe UI" font-size="13" lengthAdjust="spacing" textLength="108.5957" x="1022" y="134.5466">partner bookings</text></g><!--link reservations to kafka--><g class="link" data-entity-1="reservations" data-entity-2="kafka" data-source-line="111" data-uid="lnk51" id="link_reservations_kafka"><path d="M525.69,231.2183 C710.96,231.2183 1174.29,231.2183 1345.89,231.2183" fill="none" id="reservations-to-kafka" style="stroke:#181818;stroke-width:1;"/><polygon fill="#181818" points="1351.89,231.2183,1342.89,227.2183,1346.89,231.2183,1342.89,235.2183,1351.89,231.2183" style="stroke:#181818;stroke-width:1;"/><text fill="#000000" font-family="Segoe UI" font-size="13" lengthAdjust="spacing" textLength="121.1323" x="878.32" y="224.7866">reservation.created</text></g><!--link checkin to kafka--><g class="link" data-entity-1="checkin" data-entity-2="kafka" data-source-line="112" data-uid="lnk52" id="link_checkin_kafka"><path d="M2543.95,207.5683 C2499.6,186.6783 2430.62,157.7483 2367,145.9783 C2207.05,116.3783 1797.67,144.4583 1635,144.2683 C1370.05,143.9583 1515.42,137.9883 1499,145.9783 C1465.38,162.3283 1441.1738,193.1999 1427.9038,212.7999" fill="none" id="checkin-to-kafka" style="stroke:#181818;stroke-width:1;"/><polygon fill="#181818" points="1424.54,217.7683,1432.898,212.5582,1427.3432,213.628,1426.2734,208.0732,1424.54,217.7683" style="stroke:#181818;stroke-width:1;"/><text fill="#000000" font-family="Segoe UI" font-size="13" lengthAdjust="spacing" textLength="118.4155" x="1516" y="134.5466">checkin.completed</text></g><!--link payments to kafka--><g class="link" data-entity-1="payments" data-entity-2="kafka" data-source-line="113" data-uid="lnk53" id="link_payments_kafka"><path d="M816.59,430.8283 C829.38,403.9683 854.81,360.3883 892,341.4683 C931.92,321.1583 1255.62,354.7983 1295,333.4683 C1317.22,321.4283 1308.68,303.8783 1327,286.4683 C1345.36,269.0083 1364.911,257.166 1383.711,247.526" fill="none" id="payments-to-kafka" style="stroke:#181818;stroke-width:1;"/><polygon fill="#181818" points="1389.05,244.7883,1379.2164,245.3354,1384.6008,247.0697,1382.8666,252.4541,1389.05,244.7883" style="stroke:#181818;stroke-width:1;"/><text fill="#000000" font-family="Segoe UI" font-size="13" lengthAdjust="spacing" textLength="122.6431" x="1328" y="315.0366">payment.processed</text></g><!--link kafka to notifications--><g class="link" data-entity-1="kafka" data-entity-2="notifications" data-source-line="114" data-uid="lnk54" id="link_kafka_notifications"><path d="M1429.13,244.7583 C1449.52,265.6883 1483.98,307.9483 1459,333.4683 C1444.3,348.4783 1099.94,332.3883 1081,341.4683 C1041.86,360.2083 1015.9629,398.6018 1001.1529,425.5118" fill="none" id="kafka-to-notifications" style="stroke:#181818;stroke-width:1;"/><polygon fill="#181818" points="998.26,430.7683,1006.1037,424.8121,1000.6708,426.3879,999.0951,420.9549,998.26,430.7683" style="stroke:#181818;stroke-width:1;"/><text fill="#000000" font-family="Segoe UI" font-size="13" lengthAdjust="spacing" textLength="69.2212" x="1468.74" y="315.0366">send alerts</text></g><!--link kafka to analytics--><g class="link" data-entity-1="kafka" data-entity-2="analytics" data-source-line="115" data-uid="lnk55" id="link_kafka_analytics"><path d="M1424.14,217.6883 C1437.08,197.6383 1464.45,160.8083 1499,145.9783 C1544.13,126.6083 1895.89,126.5583 1941,145.9783 C1970.23,158.5683 1990.7096,182.2287 2005.0096,202.8387" fill="none" id="kafka-to-analytics" style="stroke:#181818;stroke-width:1;"/><polygon fill="#181818" points="2008.43,207.7683,2006.5859,198.0936,2005.5797,203.6603,2000.0131,202.6541,2008.43,207.7683" style="stroke:#181818;stroke-width:1;"/><text fill="#000000" font-family="Segoe UI" font-size="13" lengthAdjust="spacing" textLength="96.7319" x="1641" y="134.5466">event ingestion</text></g><!--link kafka to loyalty--><g class="link" data-entity-1="kafka" data-entity-2="loyalty" data-source-line="116" data-uid="lnk56" id="link_kafka_loyalty"><path d="M1424.13,217.6683 C1437.05,197.5883 1464.41,160.7183 1499,145.9783 C1598.97,103.3783 1634.83,144.6483 1743.5,144.2683 C2096.88,143.0383 2654.49,139.4383 2673,145.9783 C2707.51,158.1783 2734.9734,182.4832 2754.5234,203.2132" fill="none" id="kafka-to-loyalty" style="stroke:#181818;stroke-width:1;"/><polygon fill="#181818" points="2758.64,207.5783,2755.3752,198.2863,2755.2095,203.9407,2749.5551,203.7751,2758.64,207.5783" style="stroke:#181818;stroke-width:1;"/><text fill="#000000" font-family="Segoe UI" font-size="13" lengthAdjust="spacing" textLength="111.5283" x="1744.5" y="134.5466">points calculation</text></g><!--SRC=[hLZRRkCs47ttLn3gmxPe52JjeZ02j42oTO8WQ7RHP9-Q8c2aiKoO8hKaPQ-ns7_l34NTRBelbe8Wuk6P8JbNAk_OezxmPmDhTfrlGBdQW6Kf-w3BIYiSiuyRC1i1szaxTYqbAqLcj2KeGs9XT5r1pjvsBDSb5ufjXLknDU0OAb0vg4o0HTdFLSuTv5ViyVaXlRoukBZ4LQxp78L1meOxeHL32cTBgRTCQUUXsSm99-78BlyQR2QsvPbT2rLnmqlsnhCrxLRb7xJKXlrmkw2V0SEkUAwtGXLioQM5mKmGCmeCcm_m79QybkvMA_V8Is394nGQsEVxP2WCcUEgm3Dycp5yRhJ9mOHD_BAO_tPzq-076_JFxFj0LzOTyLjSPZ6_VNyxFxhEznbwulSJ7Wg2J_Vi3bsvvRjJbVN7IHuqsdsWEc7SiZM1P8TV5nSJxFn6wpMvzqyVgQVgw_sQZ1KdhHk2amQdj9iinSZ5wFJ1RVqfXq1Cm1bHfHbcXjI55o3WDG0n0Pkj8AybxYZL1j-jCznfusNxkKc2uQv6xTCRTAWMpNbxGGQDcxCWQbePlHGI6eDwwBM5Oa9eX6oTacwa-m5kFyAJUiUbsw7FjjpaZVQ0JMA-ZnMOnl7Js_10TuZBnP6uB80RD0bLLssQ_2CeRdEHGrfonGie4GrMH_1807CXz-aUREXOwu4PKQmSqyimmQvOqdMAA_PC86KAwhLWNvJ27Y5K9kiS-lxnMk0nNykp5zL3KblheP9_VUrXZo1vZ70rw4Pj1FtpRnBDChu430r2fU0gWoQ_F3f9SDohfU6OktL6xMxw08dgfsnxJ_aM3vAAxyY3JIQqWnWHVIgM8XkKkH4I4za2TojeobHuFn9D2iF0ECpEGbWdCji6L8F74xbPE6rlBY6L6tGITptL5QrEVU0fB3AXioBQlQiMysEkAY4NF2sub13IsICnAcQct7M6x4Rn030Ehq5OA1mKPk3UC14LwgeArUaCWwsh0eFn94vuuCirPmjQZjtK9plWImqr6dzFQtCtyHXTJkQBosclLUnlNRlJeyVVdjBqZ_45eqD7juWEtUkT7TusoGxe_3r1vknKjZ9QwHfRrVYhuSJqwSzzS6HgC3HcV8EjXRy9ATmkEPGP6uIaFC8sN8hSys92s3WzbVuEPYFKjeWIFRpxh01hCTcJMJ3yWIE9FnXZBTFhkXhpcsP4p2qN-4t4yBUhmMFgQCSSrowKJz9PVs4Cvg0ktvW1t_QijqVkMxb_mxAWSk5t_w9-tlliUr4_KlS-OzImprWm-4y7EaDdy8SAhqkDXH8xMMJzYByDVAb5Kt9iCWktkVzrDMqlcGrArSXYrkbipV0i855VruKyfsqmnBlxz4G68OkZMzlqYVerJBAtvhi2rKvGNonc6NqZbxKA4S0sWZSLS_9CQwhZE4JFCmFqBu1nu7NC09xx2nLuNfSR8s90pqEM4B6P8zRebk7TW-M4SUo1vEsUrpKvue2lx6XfzBRFZ9xNnWUjgmNj9UCogsL8eVy0]--></g></svg>