<svg xmlns="http://www.w3.org/2000/svg" width="830" height="480" viewBox="0 0 830 480" role="img" aria-label="NovaTrek Adventures domain overview">
<defs>
  <marker id="ah" markerWidth="8" markerHeight="6" refX="8" refY="3" orient="auto">
    <polygon points="0 0,8 3,0 6" fill="#94a3b8"/>
  </marker>
</defs>
<rect width="830" height="480" fill="white"/>
<text x="415" y="42" font-family="Segoe UI,Helvetica,sans-serif" font-size="16" font-weight="600" text-anchor="middle" fill="#1e293b">NovaTrek Adventures &#8212; Domain Overview</text>
<line x1="681" y1="112" x2="415" y2="112" stroke="#cbd5e1" stroke-width="1.5" marker-end="url(#ah)"/>
<line x1="681" y1="112" x2="415" y2="258" stroke="#cbd5e1" stroke-width="1.5" marker-end="url(#ah)"/>
<line x1="681" y1="112" x2="149" y2="258" stroke="#cbd5e1" stroke-width="1.5" marker-end="url(#ah)"/>
<line x1="681" y1="112" x2="681" y2="404" stroke="#cbd5e1" stroke-width="1.5" marker-end="url(#ah)"/>
<line x1="149" y1="112" x2="681" y2="112" stroke="#cbd5e1" stroke-width="1.5" marker-end="url(#ah)"/>
<line x1="149" y1="112" x2="415" y2="112" stroke="#cbd5e1" stroke-width="1.5" marker-end="url(#ah)"/>
<line x1="149" y1="112" x2="149" y2="258" stroke="#cbd5e1" stroke-width="1.5" marker-end="url(#ah)"/>
<line x1="149" y1="112" x2="681" y2="404" stroke="#cbd5e1" stroke-width="1.5" marker-end="url(#ah)"/>
<line x1="415" y1="112" x2="681" y2="404" stroke="#cbd5e1" stroke-width="1.5" marker-end="url(#ah)"/>
<line x1="415" y1="404" x2="681" y2="112" stroke="#cbd5e1" stroke-width="1.5" marker-end="url(#ah)"/>
<line x1="415" y1="404" x2="415" y2="112" stroke="#cbd5e1" stroke-width="1.5" marker-end="url(#ah)"/>
<line x1="415" y1="404" x2="681" y2="258" stroke="#cbd5e1" stroke-width="1.5" marker-end="url(#ah)"/>
<line x1="415" y1="404" x2="681" y2="404" stroke="#cbd5e1" stroke-width="1.5" marker-end="url(#ah)"/>
<line x1="415" y1="258" x2="415" y2="112" stroke="#cbd5e1" stroke-width="1.5" marker-end="url(#ah)"/>
<line x1="415" y1="258" x2="149" y2="404" stroke="#cbd5e1" stroke-width="1.5" marker-end="url(#ah)"/>
<line x1="415" y1="258" x2="415" y2="404" stroke="#cbd5e1" stroke-width="1.5" marker-end="url(#ah)"/>
<line x1="415" y1="258" x2="149" y2="258" stroke="#cbd5e1" stroke-width="1.5" marker-end="url(#ah)"/>
<line x1="415" y1="258" x2="681" y2="258" stroke="#cbd5e1" stroke-width="1.5" marker-end="url(#ah)"/>
<line x1="415" y1="258" x2="681" y2="404" stroke="#cbd5e1" stroke-width="1.5" marker-end="url(#ah)"/>
<line x1="149" y1="258" x2="681" y2="258" stroke="#cbd5e1" stroke-width="1.5" marker-end="url(#ah)"/>
<line x1="149" y1="258" x2="681" y2="404" stroke="#cbd5e1" stroke-width="1.5" marker-end="url(#ah)"/>
<line x1="681" y1="258" x2="415" y2="112" stroke="#cbd5e1" stroke-width="1.5" marker-end="url(#ah)"/>
<line x1="681" y1="258" x2="149" y2="404" stroke="#cbd5e1" stroke-width="1.5" marker-end="url(#ah)"/>
<line x1="681" y1="258" x2="681" y2="404" stroke="#cbd5e1" stroke-width="1.5" marker-end="url(#ah)"/>
<a href="/topology/domain-views/#external" style="text-decoration:none">
  <rect x="44" y="72" width="210" height="80" rx="10" ry="10" fill="#F3E8FF" stroke="#9333ea" stroke-width="2.5"/>
  <text x="149" y="105" font-family="Segoe UI,Helvetica,sans-serif" font-size="14" font-weight="600" text-anchor="middle" fill="#9333ea">External</text>
  <text x="149" y="125" font-family="Segoe UI,Helvetica,sans-serif" font-size="11" text-anchor="middle" fill="#9333ea" opacity="0.75">1 service</text>
</a>
<a href="/topology/domain-views/#guest-identity" style="text-decoration:none">
  <rect x="310" y="72" width="210" height="80" rx="10" ry="10" fill="#EDE9FE" stroke="#7c3aed" stroke-width="2.5"/>
  <text x="415" y="105" font-family="Segoe UI,Helvetica,sans-serif" font-size="14" font-weight="600" text-anchor="middle" fill="#7c3aed">Guest Identity</text>
  <text x="415" y="125" font-family="Segoe UI,Helvetica,sans-serif" font-size="11" text-anchor="middle" fill="#7c3aed" opacity="0.75">1 service</text>
</a>
<a href="/topology/domain-views/#booking" style="text-decoration:none">
  <rect x="576" y="72" width="210" height="80" rx="10" ry="10" fill="#D1FAE5" stroke="#059669" stroke-width="2.5"/>
  <text x="681" y="105" font-family="Segoe UI,Helvetica,sans-serif" font-size="14" font-weight="600" text-anchor="middle" fill="#059669">Booking</text>
  <text x="681" y="125" font-family="Segoe UI,Helvetica,sans-serif" font-size="11" text-anchor="middle" fill="#059669" opacity="0.75">1 service</text>
</a>
<a href="/topology/domain-views/#product-catalog" style="text-decoration:none">
  <rect x="44" y="218" width="210" height="80" rx="10" ry="10" fill="#FEF3C7" stroke="#d97706" stroke-width="2.5"/>
  <text x="149" y="251" font-family="Segoe UI,Helvetica,sans-serif" font-size="14" font-weight="600" text-anchor="middle" fill="#d97706">Product Catalog</text>
  <text x="149" y="271" font-family="Segoe UI,Helvetica,sans-serif" font-size="11" text-anchor="middle" fill="#d97706" opacity="0.75">2 services</text>
</a>
<a href="/topology/domain-views/#operations" style="text-decoration:none">
  <rect x="310" y="218" width="210" height="80" rx="10" ry="10" fill="#DBEAFE" stroke="#2563eb" stroke-width="2.5"/>
  <text x="415" y="251" font-family="Segoe UI,Helvetica,sans-serif" font-size="14" font-weight="600" text-anchor="middle" fill="#2563eb">Operations</text>
  <text x="415" y="271" font-family="Segoe UI,Helvetica,sans-serif" font-size="11" text-anchor="middle" fill="#2563eb" opacity="0.75">2 services</text>
</a>
<a href="/topology/domain-views/#safety" style="text-decoration:none">
  <rect x="576" y="218" width="210" height="80" rx="10" ry="10" fill="#FEE2E2" stroke="#dc2626" stroke-width="2.5"/>
  <text x="681" y="251" font-family="Segoe UI,Helvetica,sans-serif" font-size="14" font-weight="600" text-anchor="middle" fill="#dc2626">Safety</text>
  <text x="681" y="271" font-family="Segoe UI,Helvetica,sans-serif" font-size="11" text-anchor="middle" fill="#dc2626" opacity="0.75">3 services</text>
</a>
<a href="/topology/domain-views/#guide-management" style="text-decoration:none">
  <rect x="44" y="364" width="210" height="80" rx="10" ry="10" fill="#E0E7FF" stroke="#4f46e5" stroke-width="2.5"/>
  <text x="149" y="397" font-family="Segoe UI,Helvetica,sans-serif" font-size="14" font-weight="600" text-anchor="middle" fill="#4f46e5">Guide Management</text>
  <text x="149" y="417" font-family="Segoe UI,Helvetica,sans-serif" font-size="11" text-anchor="middle" fill="#4f46e5" opacity="0.75">1 service</text>
</a>
<a href="/topology/domain-views/#logistics" style="text-decoration:none">
  <rect x="310" y="364" width="210" height="80" rx="10" ry="10" fill="#CFFAFE" stroke="#0891b2" stroke-width="2.5"/>
  <text x="415" y="397" font-family="Segoe UI,Helvetica,sans-serif" font-size="14" font-weight="600" text-anchor="middle" fill="#0891b2">Logistics</text>
  <text x="415" y="417" font-family="Segoe UI,Helvetica,sans-serif" font-size="11" text-anchor="middle" fill="#0891b2" opacity="0.75">2 services</text>
</a>
<a href="/topology/domain-views/#support" style="text-decoration:none">
  <rect x="576" y="364" width="210" height="80" rx="10" ry="10" fill="#F1F5F9" stroke="#64748b" stroke-width="2.5"/>
  <text x="681" y="397" font-family="Segoe UI,Helvetica,sans-serif" font-size="14" font-weight="600" text-anchor="middle" fill="#64748b">Support</text>
  <text x="681" y="417" font-family="Segoe UI,Helvetica,sans-serif" font-size="11" text-anchor="middle" fill="#64748b" opacity="0.75">9 services</text>
</a>
<text x="415" y="470" font-family="Segoe UI,Helvetica,sans-serif" font-size="10" text-anchor="middle" fill="#94a3b8">Click any domain to explore its services and integrations</text>
</svg>