<svg xmlns="http://www.w3.org/2000/svg" xmlns:xlink="http://www.w3.org/1999/xlink" contentStyleType="text/css" data-diagram-type="DESCRIPTION" height="607px" preserveAspectRatio="none" style="width:2930px;height:607px;background:#FEFEFE;" version="1.1" viewBox="0 0 2930 607" width="2930px" zoomAndPan="magnify"><title>NovaTrek Adventures - Microservice Component Overview</title><defs/><g><rect fill="#FEFEFE" height="607" style="stroke:none;stroke-width:1;" width="2930" x="0" y="0"/><g class="title" data-source-line="4"><text fill="#000000" font-family="Segoe UI" font-size="14" font-weight="bold" lengthAdjust="spacing" textLength="425.5029" x="1245.3985" y="23.5352">NovaTrek Adventures - Microservice Component Overview</text></g><!--cluster Booking Domain--><g class="cluster" data-entity="Booking Domain" data-source-line="27" data-uid="ent0003" id="cluster_Booking Domain"><rect fill="#E8F4F8" height="309.35" rx="4" ry="4" style="stroke:#2E86AB;stroke-width:1;" width="454" x="78.65" y="153.9783"/><text fill="#000000" font-family="Segoe UI" font-size="14" font-weight="bold" lengthAdjust="spacing" textLength="118.7539" x="246.273" y="169.5134">Booking Domain</text></g><!--cluster Guest Domain--><g class="cluster" data-entity="Guest Domain" data-source-line="36" data-uid="ent0007" id="cluster_Guest Domain"><rect fill="#F0E8F4" height="309.35" rx="4" ry="4" style="stroke:#2E86AB;stroke-width:1;" width="373" x="2479.65" y="153.9783"/><text fill="#000000" font-family="Segoe UI" font-size="14" font-weight="bold" lengthAdjust="spacing" textLength="101.6367" x="2615.3316" y="169.5134">Guest Domain</text></g><!--cluster Operations Domain--><g class="cluster" data-entity="Operations Domain" data-source-line="45" data-uid="ent0011" id="cluster_Operations Domain"><rect fill="#E8F4E8" height="141.24" rx="4" ry="4" style="stroke:#2E86AB;stroke-width:1;" width="1129" x="1326.65" y="334.4683"/><text fill="#000000" font-family="Segoe UI" font-size="14" font-weight="bold" lengthAdjust="spacing" textLength="140.0889" x="1821.1056" y="350.0034">Operations Domain</text></g><!--cluster Infrastructure Domain--><g class="cluster" data-entity="Infrastructure Domain" data-source-line="56" data-uid="ent0019" id="cluster_Infrastructure Domain"><rect fill="#F4F0E8" height="254.35" rx="4" ry="4" style="stroke:#2E86AB;stroke-width:1;" width="746" x="556.65" y="346.8483"/><text fill="#000000" font-family="Segoe UI" font-size="14" font-weight="bold" lengthAdjust="spacing" textLength="160.4805" x="849.4098" y="362.3834">Infrastructure Domain</text></g><!--cluster Supporting Services--><g class="cluster" data-entity="Supporting Services" data-source-line="67" data-uid="ent0025" id="cluster_Supporting Services"><rect fill="#F4E8E8" height="116.49" rx="4" ry="4" style="stroke:#2E86AB;stroke-width:1;" width="868" x="1474.65" y="153.9783"/><text fill="#000000" font-family="Segoe UI" font-size="14" font-weight="bold" lengthAdjust="spacing" textLength="143.3154" x="1836.9923" y="169.5134">Supporting Services</text></g><!--entity reservations--><g class="entity" data-entity="reservations" data-source-line="28" data-uid="ent0004" id="entity_reservations"><rect fill="#E8F4F8" height="46.4883" rx="4" ry="4" style="stroke:#2E86AB;stroke-width:0.5;" width="152.5332" x="364.38" y="207.9783"/><rect fill="#E8F4F8" height="10" style="stroke:#2E86AB;stroke-width:0.5;" width="15" x="496.9132" y="212.9783"/><rect fill="#E8F4F8" height="2" style="stroke:#2E86AB;stroke-width:0.5;" width="4" x="494.9132" y="214.9783"/><rect fill="#E8F4F8" height="2" style="stroke:#2E86AB;stroke-width:0.5;" width="4" x="494.9132" y="218.9783"/><text fill="#000000" font-family="Segoe UI" font-size="14" lengthAdjust="spacing" textLength="112.5332" x="379.38" y="241.5134">svc-reservations</text></g><!--entity trip_catalog--><g class="entity" data-entity="trip_catalog" data-source-line="29" data-uid="ent0005" id="entity_trip_catalog"><rect fill="#E8F4F8" height="46.4883" rx="4" ry="4" style="stroke:#2E86AB;stroke-width:0.5;" width="150.8242" x="94.24" y="400.8483"/><rect fill="#E8F4F8" height="10" style="stroke:#2E86AB;stroke-width:0.5;" width="15" x="225.0642" y="405.8483"/><rect fill="#E8F4F8" height="2" style="stroke:#2E86AB;stroke-width:0.5;" width="4" x="223.0642" y="407.8483"/><rect fill="#E8F4F8" height="2" style="stroke:#2E86AB;stroke-width:0.5;" width="4" x="223.0642" y="411.8483"/><text fill="#000000" font-family="Segoe UI" font-size="14" lengthAdjust="spacing" textLength="110.8242" x="109.24" y="434.3834">svc-trip-catalog</text></g><!--entity scheduling--><g class="entity" data-entity="scheduling" data-source-line="30" data-uid="ent0006" id="entity_scheduling"><rect fill="#E8F4F8" height="46.4883" rx="4" ry="4" style="stroke:#2E86AB;stroke-width:0.5;" width="234.9473" x="94.18" y="207.9783"/><rect fill="#E8F4F8" height="10" style="stroke:#2E86AB;stroke-width:0.5;" width="15" x="309.1273" y="212.9783"/><rect fill="#E8F4F8" height="2" style="stroke:#2E86AB;stroke-width:0.5;" width="4" x="307.1273" y="214.9783"/><rect fill="#E8F4F8" height="2" style="stroke:#2E86AB;stroke-width:0.5;" width="4" x="307.1273" y="218.9783"/><text fill="#000000" font-family="Segoe UI" font-size="14" lengthAdjust="spacing" textLength="194.9473" x="109.18" y="241.5134">svc-scheduling-orchestrator</text></g><!--entity guest_profiles--><g class="entity" data-entity="guest_profiles" data-source-line="37" data-uid="ent0008" id="entity_guest_profiles"><rect fill="#E8F4F8" height="46.4883" rx="4" ry="4" style="stroke:#2E86AB;stroke-width:0.5;" width="166.6631" x="2665.32" y="400.8483"/><rect fill="#E8F4F8" height="10" style="stroke:#2E86AB;stroke-width:0.5;" width="15" x="2811.9831" y="405.8483"/><rect fill="#E8F4F8" height="2" style="stroke:#2E86AB;stroke-width:0.5;" width="4" x="2809.9831" y="407.8483"/><rect fill="#E8F4F8" height="2" style="stroke:#2E86AB;stroke-width:0.5;" width="4" x="2809.9831" y="411.8483"/><text fill="#000000" font-family="Segoe UI" font-size="14" lengthAdjust="spacing" textLength="126.6631" x="2680.32" y="434.3834">svc-guest-profiles</text></g><!--entity checkin--><g class="entity" data-entity="checkin" data-source-line="38" data-uid="ent0009" id="entity_checkin"><rect fill="#E8F4F8" height="46.4883" rx="4" ry="4" style="stroke:#2E86AB;stroke-width:0.5;" width="129.5029" x="2495.9" y="207.9783"/><rect fill="#E8F4F8" height="10" style="stroke:#2E86AB;stroke-width:0.5;" width="15" x="2605.4029" y="212.9783"/><rect fill="#E8F4F8" height="2" style="stroke:#2E86AB;stroke-width:0.5;" width="4" x="2603.4029" y="214.9783"/><rect fill="#E8F4F8" height="2" style="stroke:#2E86AB;stroke-width:0.5;" width="4" x="2603.4029" y="218.9783"/><text fill="#000000" font-family="Segoe UI" font-size="14" lengthAdjust="spacing" textLength="89.5029" x="2510.9" y="241.5134">svc-check-in</text></g><!--entity loyalty--><g class="entity" data-entity="loyalty" data-source-line="39" data-uid="ent0010" id="entity_loyalty"><rect fill="#E8F4F8" height="46.4883" rx="4" ry="4" style="stroke:#2E86AB;stroke-width:0.5;" width="175.7686" x="2660.77" y="207.9783"/><rect fill="#E8F4F8" height="10" style="stroke:#2E86AB;stroke-width:0.5;" width="15" x="2816.5386" y="212.9783"/><rect fill="#E8F4F8" height="2" style="stroke:#2E86AB;stroke-width:0.5;" width="4" x="2814.5386" y="214.9783"/><rect fill="#E8F4F8" height="2" style="stroke:#2E86AB;stroke-width:0.5;" width="4" x="2814.5386" y="218.9783"/><text fill="#000000" font-family="Segoe UI" font-size="14" lengthAdjust="spacing" textLength="135.7686" x="2675.77" y="241.5134">svc-loyalty-rewards</text></g><!--entity gear--><g class="entity" data-entity="gear" data-source-line="46" data-uid="ent0012" id="entity_gear"><rect fill="#E8F4F8" height="46.4883" rx="4" ry="4" style="stroke:#2E86AB;stroke-width:0.5;" width="171.0928" x="2038.11" y="400.8483"/><rect fill="#E8F4F8" height="10" style="stroke:#2E86AB;stroke-width:0.5;" width="15" x="2189.2028" y="405.8483"/><rect fill="#E8F4F8" height="2" style="stroke:#2E86AB;stroke-width:0.5;" width="4" x="2187.2028" y="407.8483"/><rect fill="#E8F4F8" height="2" style="stroke:#2E86AB;stroke-width:0.5;" width="4" x="2187.2028" y="411.8483"/><text fill="#000000" font-family="Segoe UI" font-size="14" lengthAdjust="spacing" textLength="131.0928" x="2053.11" y="434.3834">svc-gear-inventory</text></g><!--entity guides--><g class="entity" data-entity="guides" data-source-line="47" data-uid="ent0013" id="entity_guides"><rect fill="#E8F4F8" height="46.4883" rx="4" ry="4" style="stroke:#2E86AB;stroke-width:0.5;" width="204.377" x="1798.46" y="400.8483"/><rect fill="#E8F4F8" height="10" style="stroke:#2E86AB;stroke-width:0.5;" width="15" x="1982.837" y="405.8483"/><rect fill="#E8F4F8" height="2" style="stroke:#2E86AB;stroke-width:0.5;" width="4" x="1980.837" y="407.8483"/><rect fill="#E8F4F8" height="2" style="stroke:#2E86AB;stroke-width:0.5;" width="4" x="1980.837" y="411.8483"/><text fill="#000000" font-family="Segoe UI" font-size="14" lengthAdjust="spacing" textLength="164.377" x="1813.46" y="434.3834">svc-guide-management</text></g><!--entity trails--><g class="entity" data-entity="trails" data-source-line="48" data-uid="ent0014" id="entity_trails"><rect fill="#E8F4F8" height="46.4883" rx="4" ry="4" style="stroke:#2E86AB;stroke-width:0.5;" width="193.0908" x="1343.11" y="400.8483"/><rect fill="#E8F4F8" height="10" style="stroke:#2E86AB;stroke-width:0.5;" width="15" x="1516.2008" y="405.8483"/><rect fill="#E8F4F8" height="2" style="stroke:#2E86AB;stroke-width:0.5;" width="4" x="1514.2008" y="407.8483"/><rect fill="#E8F4F8" height="2" style="stroke:#2E86AB;stroke-width:0.5;" width="4" x="1514.2008" y="411.8483"/><text fill="#000000" font-family="Segoe UI" font-size="14" lengthAdjust="spacing" textLength="153.0908" x="1358.11" y="434.3834">svc-trail-management</text></g><g class="entity" data-entity="GMN15" data-source-line="49" data-uid="ent0016" id="entity_GMN15"><path d="M1571.34,392.4683 L1571.34,420.0883 L1536.28,424.0883 L1571.34,428.0883 L1571.34,455.7105 A4,4 0 0 0 1575.34,459.7105 L1759.9552,459.7105 A4,4 0 0 0 1763.9552,455.7105 L1763.9552,398.4683 L1753.9552,388.4683 L1575.34,388.4683 A4,4 0 0 0 1571.34,392.4683" fill="#FEFFDD" style="stroke:#181818;stroke-width:0.5;"/><path d="M1753.9552,388.4683 L1753.9552,396.4683 A2,2 0 0 0 1755.9552,398.4683 L1763.9552,398.4683 L1753.9552,388.4683" fill="#FEFFDD" style="stroke:#181818;stroke-width:0.5;"/><text fill="#000000" font-family="Segoe UI" font-size="13" lengthAdjust="spacing" textLength="171.6152" x="1577.34" y="406.0366">"NTK-10001: Now exposes</text><text fill="#000000" font-family="Segoe UI" font-size="13" lengthAdjust="spacing" textLength="122.2495" x="1577.34" y="421.3472">elevation_gain_m &amp;</text><text fill="#000000" font-family="Segoe UI" font-size="13" lengthAdjust="spacing" textLength="106.958" x="1577.34" y="436.6577">elevation_loss_m</text><text fill="#000000" font-family="Segoe UI" font-size="13" lengthAdjust="spacing" textLength="113.7056" x="1577.34" y="451.9683">in trail responses"</text></g><!--entity safety--><g class="entity" data-entity="safety" data-source-line="50" data-uid="ent0018" id="entity_safety"><rect fill="#E8F4F8" height="46.4883" rx="4" ry="4" style="stroke:#2E86AB;stroke-width:0.5;" width="195.2578" x="2244.02" y="400.8483"/><rect fill="#E8F4F8" height="10" style="stroke:#2E86AB;stroke-width:0.5;" width="15" x="2419.2778" y="405.8483"/><rect fill="#E8F4F8" height="2" style="stroke:#2E86AB;stroke-width:0.5;" width="4" x="2417.2778" y="407.8483"/><rect fill="#E8F4F8" height="2" style="stroke:#2E86AB;stroke-width:0.5;" width="4" x="2417.2778" y="411.8483"/><text fill="#000000" font-family="Segoe UI" font-size="14" lengthAdjust="spacing" textLength="155.2578" x="2259.02" y="434.3834">svc-safety-compliance</text></g><!--entity payments--><g class="entity" data-entity="payments" data-source-line="57" data-uid="ent0020" id="entity_payments"><rect fill="#E8F4F8" height="46.4883" rx="4" ry="4" style="stroke:#2E86AB;stroke-width:0.5;" width="135.4434" x="730.93" y="400.8483"/><rect fill="#E8F4F8" height="10" style="stroke:#2E86AB;stroke-width:0.5;" width="15" x="846.3734" y="405.8483"/><rect fill="#E8F4F8" height="2" style="stroke:#2E86AB;stroke-width:0.5;" width="4" x="844.3734" y="407.8483"/><rect fill="#E8F4F8" height="2" style="stroke:#2E86AB;stroke-width:0.5;" width="4" x="844.3734" y="411.8483"/><text fill="#000000" font-family="Segoe UI" font-size="14" lengthAdjust="spacing" textLength="95.4434" x="745.93" y="434.3834">svc-payments</text></g><!--entity notifications--><g class="entity" data-entity="notifications" data-source-line="58" data-uid="ent0021" id="entity_notifications"><rect fill="#E8F4F8" height="46.4883" rx="4" ry="4" style="stroke:#2E86AB;stroke-width:0.5;" width="154.0303" x="901.64" y="400.8483"/><rect fill="#E8F4F8" height="10" style="stroke:#2E86AB;stroke-width:0.5;" width="15" x="1035.6703" y="405.8483"/><rect fill="#E8F4F8" height="2" style="stroke:#2E86AB;stroke-width:0.5;" width="4" x="1033.6703" y="407.8483"/><rect fill="#E8F4F8" height="2" style="stroke:#2E86AB;stroke-width:0.5;" width="4" x="1033.6703" y="411.8483"/><text fill="#000000" font-family="Segoe UI" font-size="14" lengthAdjust="spacing" textLength="114.0303" x="916.64" y="434.3834">svc-notifications</text></g><!--entity weather--><g class="entity" data-entity="weather" data-source-line="59" data-uid="ent0022" id="entity_weather"><rect fill="#E8F4F8" height="46.4883" rx="4" ry="4" style="stroke:#2E86AB;stroke-width:0.5;" width="123.4258" x="572.94" y="400.8483"/><rect fill="#E8F4F8" height="10" style="stroke:#2E86AB;stroke-width:0.5;" width="15" x="676.3658" y="405.8483"/><rect fill="#E8F4F8" height="2" style="stroke:#2E86AB;stroke-width:0.5;" width="4" x="674.3658" y="407.8483"/><rect fill="#E8F4F8" height="2" style="stroke:#2E86AB;stroke-width:0.5;" width="4" x="674.3658" y="411.8483"/><text fill="#000000" font-family="Segoe UI" font-size="14" lengthAdjust="spacing" textLength="83.4258" x="587.94" y="434.3834">svc-weather</text></g><!--entity transport--><g class="entity" data-entity="transport" data-source-line="60" data-uid="ent0023" id="entity_transport"><rect fill="#E8F4F8" height="46.4883" rx="4" ry="4" style="stroke:#2E86AB;stroke-width:0.5;" width="196.8027" x="1090.25" y="400.8483"/><rect fill="#E8F4F8" height="10" style="stroke:#2E86AB;stroke-width:0.5;" width="15" x="1267.0527" y="405.8483"/><rect fill="#E8F4F8" height="2" style="stroke:#2E86AB;stroke-width:0.5;" width="4" x="1265.0527" y="407.8483"/><rect fill="#E8F4F8" height="2" style="stroke:#2E86AB;stroke-width:0.5;" width="4" x="1265.0527" y="411.8483"/><text fill="#000000" font-family="Segoe UI" font-size="14" lengthAdjust="spacing" textLength="156.8027" x="1105.25" y="434.3834">svc-transport-logistics</text></g><!--entity location--><g class="entity" data-entity="location" data-source-line="61" data-uid="ent0024" id="entity_location"><rect fill="#E8F4F8" height="46.4883" rx="4" ry="4" style="stroke:#2E86AB;stroke-width:0.5;" width="185.9404" x="1095.68" y="538.7083"/><rect fill="#E8F4F8" height="10" style="stroke:#2E86AB;stroke-width:0.5;" width="15" x="1261.6204" y="543.7083"/><rect fill="#E8F4F8" height="2" style="stroke:#2E86AB;stroke-width:0.5;" width="4" x="1259.6204" y="545.7083"/><rect fill="#E8F4F8" height="2" style="stroke:#2E86AB;stroke-width:0.5;" width="4" x="1259.6204" y="549.7083"/><text fill="#000000" font-family="Segoe UI" font-size="14" lengthAdjust="spacing" textLength="145.9404" x="1110.68" y="572.2434">svc-location-services</text></g><!--entity media--><g class="entity" data-entity="media" data-source-line="68" data-uid="ent0026" id="entity_media"><rect fill="#E8F4F8" height="46.4883" rx="4" ry="4" style="stroke:#2E86AB;stroke-width:0.5;" width="164.6123" x="1490.35" y="207.9783"/><rect fill="#E8F4F8" height="10" style="stroke:#2E86AB;stroke-width:0.5;" width="15" x="1634.9623" y="212.9783"/><rect fill="#E8F4F8" height="2" style="stroke:#2E86AB;stroke-width:0.5;" width="4" x="1632.9623" y="214.9783"/><rect fill="#E8F4F8" height="2" style="stroke:#2E86AB;stroke-width:0.5;" width="4" x="1632.9623" y="218.9783"/><text fill="#000000" font-family="Segoe UI" font-size="14" lengthAdjust="spacing" textLength="124.6123" x="1505.35" y="241.5134">svc-media-gallery</text></g><!--entity analytics--><g class="entity" data-entity="analytics" data-source-line="69" data-uid="ent0027" id="entity_analytics"><rect fill="#E8F4F8" height="46.4883" rx="4" ry="4" style="stroke:#2E86AB;stroke-width:0.5;" width="128.7578" x="1934.27" y="207.9783"/><rect fill="#E8F4F8" height="10" style="stroke:#2E86AB;stroke-width:0.5;" width="15" x="2043.0278" y="212.9783"/><rect fill="#E8F4F8" height="2" style="stroke:#2E86AB;stroke-width:0.5;" width="4" x="2041.0278" y="214.9783"/><rect fill="#E8F4F8" height="2" style="stroke:#2E86AB;stroke-width:0.5;" width="4" x="2041.0278" y="218.9783"/><text fill="#000000" font-family="Segoe UI" font-size="14" lengthAdjust="spacing" textLength="88.7578" x="1949.27" y="241.5134">svc-analytics</text></g><!--entity partners--><g class="entity" data-entity="partners" data-source-line="70" data-uid="ent0028" id="entity_partners"><rect fill="#E8F4F8" height="46.4883" rx="4" ry="4" style="stroke:#2E86AB;stroke-width:0.5;" width="209.1484" x="1690.08" y="207.9783"/><rect fill="#E8F4F8" height="10" style="stroke:#2E86AB;stroke-width:0.5;" width="15" x="1879.2284" y="212.9783"/><rect fill="#E8F4F8" height="2" style="stroke:#2E86AB;stroke-width:0.5;" width="4" x="1877.2284" y="214.9783"/><rect fill="#E8F4F8" height="2" style="stroke:#2E86AB;stroke-width:0.5;" width="4" x="1877.2284" y="218.9783"/><text fill="#000000" font-family="Segoe UI" font-size="14" lengthAdjust="spacing" textLength="169.1484" x="1705.08" y="241.5134">svc-partner-integrations</text></g><!--entity procurement--><g class="entity" data-entity="procurement" data-source-line="71" data-uid="ent0029" id="entity_procurement"><rect fill="#E8F4F8" height="46.4883" rx="4" ry="4" style="stroke:#2E86AB;stroke-width:0.5;" width="228.4258" x="2098.44" y="207.9783"/><rect fill="#E8F4F8" height="10" style="stroke:#2E86AB;stroke-width:0.5;" width="15" x="2306.8658" y="212.9783"/><rect fill="#E8F4F8" height="2" style="stroke:#2E86AB;stroke-width:0.5;" width="4" x="2304.8658" y="214.9783"/><rect fill="#E8F4F8" height="2" style="stroke:#2E86AB;stroke-width:0.5;" width="4" x="2304.8658" y="218.9783"/><text fill="#000000" font-family="Segoe UI" font-size="14" lengthAdjust="spacing" textLength="188.4258" x="2113.44" y="241.5134">svc-inventory-procurement</text></g><!--entity kong--><g class="entity" data-entity="kong" data-source-line="22" data-uid="ent0002" id="entity_kong"><rect fill="#FFF3E0" height="46.4883" rx="4" ry="4" style="stroke:#2E86AB;stroke-width:0.5;" width="162.165" x="1899.57" y="44.4883"/><rect fill="#FFF3E0" height="10" style="stroke:#2E86AB;stroke-width:0.5;" width="15" x="2041.735" y="49.4883"/><rect fill="#FFF3E0" height="2" style="stroke:#2E86AB;stroke-width:0.5;" width="4" x="2039.735" y="51.4883"/><rect fill="#FFF3E0" height="2" style="stroke:#2E86AB;stroke-width:0.5;" width="4" x="2039.735" y="55.4883"/><text fill="#000000" font-family="Segoe UI" font-size="14" lengthAdjust="spacing" textLength="122.165" x="1914.57" y="78.0234">Kong API Gateway</text></g><!--entity kafka--><g class="entity" data-entity="kafka" data-source-line="77" data-uid="ent0030" id="entity_kafka"><path d="M1333.04,217.9783 L1450.2685,217.9783 C1455.2685,217.9783 1455.2685,231.2224 1455.2685,231.2224 C1455.2685,231.2224 1455.2685,244.4666 1450.2685,244.4666 L1333.04,244.4666 C1328.04,244.4666 1328.04,231.2224 1328.04,231.2224 C1328.04,231.2224 1328.04,217.9783 1333.04,217.9783" fill="#FFF8E1" style="stroke:#181818;stroke-width:0.5;"/><path d="M1450.2685,217.9783 C1445.2685,217.9783 1445.2685,231.2224 1445.2685,231.2224 C1445.2685,244.4666 1450.2685,244.4666 1450.2685,244.4666" fill="none" style="stroke:#181818;stroke-width:0.5;"/><text fill="#000000" font-family="Segoe UI" font-size="14" lengthAdjust="spacing" textLength="107.2285" x="1333.04" y="236.5134">Kafka Event Bus</text></g><!--link kong to reservations--><g class="link" data-entity-1="kong" data-entity-2="reservations" data-source-line="82" data-uid="lnk31" id="link_kong_reservations"><path d="M1899.31,69.1883 C1730.45,70.9683 1329.83,79.6083 996.65,120.9783 C823.61,142.4683 629.4904,185.1937 522.8404,210.2937" fill="none" id="kong-to-reservations" style="stroke:#181818;stroke-width:1;"/><polygon fill="#181818" points="517,211.6683,526.677,213.5001,521.867,210.5228,524.8443,205.7128,517,211.6683" style="stroke:#181818;stroke-width:1;"/></g><!--link kong to trip_catalog--><g class="link" data-entity-1="kong" data-entity-2="trip_catalog" data-source-line="83" data-uid="lnk32" id="link_kong_trip_catalog"><path d="M1899.18,68.9283 C1543.37,70.1783 140.65,79.3283 76.65,145.9783 C6,219.5483 99.6924,343.8911 144.9024,395.8711" fill="none" id="kong-to-trip_catalog" style="stroke:#181818;stroke-width:1;"/><polygon fill="#181818" points="148.84,400.3983,145.9518,390.9824,145.5587,396.6256,139.9155,396.2325,148.84,400.3983" style="stroke:#181818;stroke-width:1;"/></g><!--link kong to guest_profiles--><g class="link" data-entity-1="kong" data-entity-2="guest_profiles" data-source-line="84" data-uid="lnk33" id="link_kong_guest_profiles"><path d="M2061.87,69.8183 C2268.34,73.3983 2800.77,88.2183 2853.65,145.9783 C2923.3,222.0683 2823.547,344.5742 2775.247,396.0142" fill="none" id="kong-to-guest_profiles" style="stroke:#181818;stroke-width:1;"/><polygon fill="#181818" points="2771.14,400.3883,2780.2166,396.5652,2774.5625,396.7432,2774.3845,391.0892,2771.14,400.3883" style="stroke:#181818;stroke-width:1;"/></g><!--link kong to checkin--><g class="link" data-entity-1="kong" data-entity-2="checkin" data-source-line="85" data-uid="lnk34" id="link_kong_checkin"><path d="M2062.09,82.2983 C2136.07,95.5183 2247.81,117.7283 2342.65,145.9783 C2400.79,163.2983 2459.8448,186.7789 2503.5148,205.2689" fill="none" id="kong-to-checkin" style="stroke:#181818;stroke-width:1;"/><polygon fill="#181818" points="2509.04,207.6083,2502.3118,200.4158,2504.4357,205.6588,2499.1927,207.7827,2509.04,207.6083" style="stroke:#181818;stroke-width:1;"/></g><!--link kong to partners--><g class="link" data-entity-1="kong" data-entity-2="partners" data-source-line="86" data-uid="lnk35" id="link_kong_partners"><path d="M1979.33,91.2883 C1977.2,106.6483 1971.86,126.2583 1958.65,137.9783 C1944.44,150.5883 1934.18,138.6483 1916.65,145.9783 C1880.32,161.1783 1848.4683,184.4801 1824.9883,203.8501" fill="none" id="kong-to-partners" style="stroke:#181818;stroke-width:1;"/><polygon fill="#181818" points="1820.36,207.6683,1829.848,205.0266,1824.2169,204.4865,1824.7571,198.8555,1820.36,207.6683" style="stroke:#181818;stroke-width:1;"/></g><!--link reservations to trip_catalog--><g class="link" data-entity-1="reservations" data-entity-2="trip_catalog" data-source-line="91" data-uid="lnk36" id="link_reservations_trip_catalog"><path d="M402.07,254.8983 C385.53,263.6383 365.66,272.8483 346.65,278.4683 C317.47,287.0883 305.25,271.6883 278.65,286.4683 C254.12,300.0983 211.4668,360.3984 187.8368,395.5584" fill="none" id="reservations-to-trip_catalog" style="stroke:#181818;stroke-width:1;"/><polygon fill="#181818" points="184.49,400.5383,192.8301,395.2997,187.279,396.3884,186.1903,390.8373,184.49,400.5383" style="stroke:#181818;stroke-width:1;"/><text fill="#000000" font-family="Segoe UI" font-size="13" lengthAdjust="spacing" textLength="93.1265" x="279.65" y="307.5366">trip availability</text></g><!--link reservations to guest_profiles--><g class="link" data-entity-1="reservations" data-entity-2="guest_profiles" data-source-line="92" data-uid="lnk37" id="link_reservations_guest_profiles"><path d="M517.25,231.6683 C673.16,231.5883 1021.68,237.1483 1128.65,286.4683 C1146.92,294.8883 1142.09,310.7183 1160.65,318.4683 C1193.84,332.3383 2420.15,320.6483 2455.65,326.4683 C2542.74,340.7283 2633.5341,374.3685 2691.1541,398.1585" fill="none" id="reservations-to-guest_profiles" style="stroke:#181818;stroke-width:1;"/><polygon fill="#181818" points="2696.7,400.4483,2689.9077,393.3164,2692.0784,398.5401,2686.8546,400.7109,2696.7,400.4483" style="stroke:#181818;stroke-width:1;"/><text fill="#000000" font-family="Segoe UI" font-size="13" lengthAdjust="spacing" textLength="100.4771" x="1161.65" y="307.5366">guest validation</text></g><!--link reservations to gear--><g class="link" data-entity-1="reservations" data-entity-2="gear" data-source-line="93" data-uid="lnk38" id="link_reservations_gear"><path d="M517.18,236.0683 C642.37,243.0383 885.2,259.5783 966.65,286.4683 C993.14,295.2083 993.78,310.9883 1020.65,318.4683 C1047.41,325.9183 1994.86,316.1483 2020.65,326.4683 C2057.98,341.4083 2086.1039,372.0932 2104.1239,395.6432" fill="none" id="reservations-to-gear" style="stroke:#181818;stroke-width:1;"/><polygon fill="#181818" points="2107.77,400.4083,2105.4775,390.8299,2104.7316,396.4374,2099.1241,395.6914,2107.77,400.4083" style="stroke:#181818;stroke-width:1;"/><text fill="#000000" font-family="Segoe UI" font-size="13" lengthAdjust="spacing" textLength="102.2925" x="1021.65" y="307.5366">gear reservation</text></g><!--link reservations to payments--><g class="link" data-entity-1="reservations" data-entity-2="payments" data-source-line="94" data-uid="lnk39" id="link_reservations_payments"><path d="M517.36,231.9983 C615.65,233.5283 777.87,242.8283 815.65,286.4683 C843.11,318.1783 827.5001,365.1966 813.3501,395.0466" fill="none" id="reservations-to-payments" style="stroke:#181818;stroke-width:1;"/><polygon fill="#181818" points="810.78,400.4683,818.2496,394.0491,812.9217,395.9502,811.0207,390.6224,810.78,400.4683" style="stroke:#181818;stroke-width:1;"/><text fill="#000000" font-family="Segoe UI" font-size="13" lengthAdjust="spacing" textLength="127.1499" x="830.26" y="307.5366">payment processing</text></g><!--link checkin to reservations--><g class="link" data-entity-1="checkin" data-entity-2="reservations" data-source-line="95" data-uid="lnk40" id="link_checkin_reservations"><path d="M2514.94,207.6083 C2471.82,186.7283 2404.72,157.8283 2342.65,145.9783 C2174.57,113.8983 2128.76,144.6483 1957.65,144.2683 C1904.32,144.1483 1890.98,144.1883 1837.65,144.2683 C1603.43,144.6483 1544.58,134.1683 1310.65,145.9783 C1016.6,160.8283 674.5526,201.3757 523.2326,220.5057" fill="none" id="checkin-to-reservations" style="stroke:#181818;stroke-width:1;"/><polygon fill="#181818" points="517.28,221.2583,526.7106,224.0979,522.2405,220.6312,525.7072,216.1611,517.28,221.2583" style="stroke:#181818;stroke-width:1;"/><text fill="#000000" font-family="Segoe UI" font-size="13" lengthAdjust="spacing" textLength="118.022" x="1838.65" y="134.5466">reservation lookup</text></g><!--link checkin to safety--><g class="link" data-entity-1="checkin" data-entity-2="safety" data-source-line="96" data-uid="lnk41" id="link_checkin_safety"><path d="M2534.67,254.8683 C2492.52,291.5983 2414.2531,359.816 2372.1231,396.536" fill="none" id="checkin-to-safety" style="stroke:#181818;stroke-width:1;"/><polygon fill="#181818" points="2367.6,400.4783,2377.0128,397.5803,2371.3692,397.193,2371.7565,391.5495,2367.6,400.4783" style="stroke:#181818;stroke-width:1;"/><text fill="#000000" font-family="Segoe UI" font-size="13" lengthAdjust="spacing" textLength="114.4546" x="2496.94" y="307.5366">waiver verification</text></g><!--link checkin to gear--><g class="link" data-entity-1="checkin" data-entity-2="gear" data-source-line="97" data-uid="lnk42" id="link_checkin_gear"><path d="M2495.72,246.8083 C2453.92,256.7283 2398.63,270.8583 2350.65,286.4683 C2313.84,298.4383 2306.85,307.7683 2269.65,318.4683 C2250.97,323.8383 2243.99,317.6883 2226.65,326.4683 C2191.43,344.2983 2163.5978,373.2979 2144.9578,395.7979" fill="none" id="checkin-to-gear" style="stroke:#181818;stroke-width:1;"/><polygon fill="#181818" points="2141.13,400.4183,2149.9519,396.0395,2144.3198,396.5679,2143.7914,390.9358,2141.13,400.4183" style="stroke:#181818;stroke-width:1;"/><text fill="#000000" font-family="Segoe UI" font-size="13" lengthAdjust="spacing" textLength="104.6348" x="2351.65" y="307.5366">gear assignment</text></g><!--link scheduling to guides--><g class="link" data-entity-1="scheduling" data-entity-2="guides" data-source-line="98" data-uid="lnk43" id="link_scheduling_guides"><path d="M265.49,254.8883 C289.82,264.0183 319.22,273.5483 346.65,278.4683 C381.77,284.7683 634.86,272.4083 667.65,286.4683 C686.14,294.3983 681.1,310.6983 699.65,318.4683 C727.38,330.0683 1753.36,316.3083 1781.65,326.4683 C1822.98,341.3083 1856.4374,372.7155 1877.8674,396.3255" fill="none" id="scheduling-to-guides" style="stroke:#181818;stroke-width:1;"/><polygon fill="#181818" points="1881.9,400.7683,1878.813,391.4157,1878.5395,397.066,1872.8893,396.7925,1881.9,400.7683" style="stroke:#181818;stroke-width:1;"/><text fill="#000000" font-family="Segoe UI" font-size="13" lengthAdjust="spacing" textLength="106.3613" x="700.65" y="307.5366">guide availability</text></g><!--link scheduling to trails--><g class="link" data-entity-1="scheduling" data-entity-2="trails" data-source-line="99" data-uid="lnk44" id="link_scheduling_trails"><path d="M266.19,254.8683 C290.4,263.8783 319.51,273.3183 346.65,278.4683 C385.33,285.8083 487.17,271.6483 523.65,286.4683 C543.48,294.5283 539.68,310.7483 559.65,318.4683 C598.16,333.3483 1263.37,313.7783 1302.65,326.4683 C1348.35,341.2283 1387.666,373.0019 1412.966,396.6419" fill="none" id="scheduling-to-trails" style="stroke:#181818;stroke-width:1;"/><polygon fill="#181818" points="1417.35,400.7383,1413.5049,391.671,1413.6966,397.3246,1408.043,397.5164,1417.35,400.7383" style="stroke:#181818;stroke-width:1;"/><text fill="#000000" font-family="Segoe UI" font-size="13" lengthAdjust="spacing" textLength="94.9419" x="564.5729" y="300.0366">trail conditions</text><text fill="#000000" font-family="Segoe UI" font-size="13" lengthAdjust="spacing" textLength="102.7876" x="560.65" y="315.3472">+ elevation data</text></g><!--link scheduling to weather--><g class="link" data-entity-1="scheduling" data-entity-2="weather" data-source-line="100" data-uid="lnk45" id="link_scheduling_weather"><path d="M274.51,254.8883 C297.13,262.7383 322.92,271.3483 346.65,278.4683 C360.28,282.5583 365.09,279.7783 377.65,286.4683 C396.54,296.5383 393.91,310.1883 413.65,318.4683 C462.54,338.9583 484.09,305.2083 532.65,326.4683 C569.07,342.4183 596.791,372.4885 614.791,395.6785" fill="none" id="scheduling-to-weather" style="stroke:#181818;stroke-width:1;"/><polygon fill="#181818" points="618.47,400.4183,616.1114,390.856,615.4042,396.4685,609.7917,395.7613,618.47,400.4183" style="stroke:#181818;stroke-width:1;"/><text fill="#000000" font-family="Segoe UI" font-size="13" lengthAdjust="spacing" textLength="104.6982" x="414.65" y="307.5366">weather forecast</text></g><!--link scheduling to trip_catalog--><g class="link" data-entity-1="scheduling" data-entity-2="trip_catalog" data-source-line="101" data-uid="lnk46" id="link_scheduling_trip_catalog"><path d="M158.56,254.7483 C145.85,262.8083 133.89,273.2683 126.65,286.4683 C106.09,323.9683 129.1279,367.8438 148.7179,395.8138" fill="none" id="scheduling-to-trip_catalog" style="stroke:#181818;stroke-width:1;"/><polygon fill="#181818" points="152.16,400.7283,150.2732,391.0618,149.2916,396.6329,143.7206,395.6513,152.16,400.7283" style="stroke:#181818;stroke-width:1;"/><text fill="#000000" font-family="Segoe UI" font-size="13" lengthAdjust="spacing" textLength="110.3032" x="127.65" y="307.5366">trip requirements</text></g><!--link loyalty to guest_profiles--><g class="link" data-entity-1="loyalty" data-entity-2="guest_profiles" data-source-line="102" data-uid="lnk47" id="link_loyalty_guest_profiles"><path d="M2748.65,254.8683 C2748.65,291.5983 2748.65,357.7583 2748.65,394.4783" fill="none" id="loyalty-to-guest_profiles" style="stroke:#181818;stroke-width:1;"/><polygon fill="#181818" points="2748.65,400.4783,2752.65,391.4783,2748.65,395.4783,2744.65,391.4783,2748.65,400.4783" style="stroke:#181818;stroke-width:1;"/><text fill="#000000" font-family="Segoe UI" font-size="13" lengthAdjust="spacing" textLength="66.4219" x="2749.65" y="307.5366">guest data</text></g><!--link procurement to gear--><g class="link" data-entity-1="procurement" data-entity-2="gear" data-source-line="103" data-uid="lnk48" id="link_procurement_gear"><path d="M2202.09,254.8683 C2184.96,291.5983 2153.8554,358.3203 2136.7354,395.0403" fill="none" id="procurement-to-gear" style="stroke:#181818;stroke-width:1;"/><polygon fill="#181818" points="2134.2,400.4783,2141.6284,394.0115,2136.3128,395.9466,2134.3777,390.631,2134.2,400.4783" style="stroke:#181818;stroke-width:1;"/><text fill="#000000" font-family="Segoe UI" font-size="13" lengthAdjust="spacing" textLength="73.2012" x="2187.35" y="307.5366">stock levels</text></g><!--link transport to location--><g class="link" data-entity-1="transport" data-entity-2="location" data-source-line="104" data-uid="lnk49" id="link_transport_location"><path d="M1188.65,447.8283 C1188.65,473.0583 1188.65,507.5183 1188.65,532.5883" fill="none" id="transport-to-location" style="stroke:#181818;stroke-width:1;"/><polygon fill="#181818" points="1188.65,538.5883,1192.65,529.5883,1188.65,533.5883,1184.65,529.5883,1188.65,538.5883" style="stroke:#181818;stroke-width:1;"/><text fill="#000000" font-family="Segoe UI" font-size="13" lengthAdjust="spacing" textLength="79.2441" x="1189.65" y="505.2766">GPS tracking</text></g><!--link partners to reservations--><g class="link" data-entity-1="partners" data-entity-2="reservations" data-source-line="105" data-uid="lnk50" id="link_partners_reservations"><path d="M1770.5,207.5283 C1747.51,186.7683 1710.84,158.0583 1672.65,145.9783 C1557.87,109.6583 1101.21,136.8683 1004.65,144.2683 C829.06,157.7283 631.2881,193.2651 523.1981,214.4351" fill="none" id="partners-to-reservations" style="stroke:#181818;stroke-width:1;"/><polygon fill="#181818" points="517.31,215.5883,526.911,217.7839,522.2168,214.6273,525.3734,209.933,517.31,215.5883" style="stroke:#181818;stroke-width:1;"/><text fill="#000000" font-family="Segoe UI" font-size="13" lengthAdjust="spacing" textLength="108.5957" x="1005.65" y="134.5466">partner bookings</text></g><!--link reservations to kafka--><g class="link" data-entity-1="reservations" data-entity-2="kafka" data-source-line="110" data-uid="lnk51" id="link_reservations_kafka"><path d="M517.27,231.2283 C699.93,231.2283 1152.37,231.2283 1321.59,231.2283" fill="none" id="reservations-to-kafka" style="stroke:#181818;stroke-width:1;"/><polygon fill="#181818" points="1327.59,231.2283,1318.59,227.2283,1322.59,231.2283,1318.59,235.2283,1327.59,231.2283" style="stroke:#181818;stroke-width:1;"/><text fill="#000000" font-family="Segoe UI" font-size="13" lengthAdjust="spacing" textLength="121.1323" x="861.98" y="224.7966">reservation.created</text></g><!--link checkin to kafka--><g class="link" data-entity-1="checkin" data-entity-2="kafka" data-source-line="111" data-uid="lnk52" id="link_checkin_kafka"><path d="M2514.94,207.5683 C2471.83,186.6783 2404.74,157.7583 2342.65,145.9783 C2182.84,115.6483 1773.32,144.4583 1610.65,144.2683 C1345.7,143.9583 1491.08,137.9983 1474.65,145.9783 C1441.03,162.3283 1416.8238,193.1999 1403.5538,212.7999" fill="none" id="checkin-to-kafka" style="stroke:#181818;stroke-width:1;"/><polygon fill="#181818" points="1400.19,217.7683,1408.548,212.5582,1402.9932,213.628,1401.9234,208.0732,1400.19,217.7683" style="stroke:#181818;stroke-width:1;"/><text fill="#000000" font-family="Segoe UI" font-size="13" lengthAdjust="spacing" textLength="118.4155" x="1491.65" y="134.5466">checkin.completed</text></g><!--link payments to kafka--><g class="link" data-entity-1="payments" data-entity-2="kafka" data-source-line="112" data-uid="lnk53" id="link_payments_kafka"><path d="M810.82,400.6083 C824.88,377.2183 850.42,341.9083 883.65,326.4683 C922.66,308.3483 1231.09,335.3383 1270.65,318.4683 C1289.15,310.5783 1286.84,298.8983 1302.65,286.4683 C1323.28,270.2483 1343.8314,257.8875 1362.3414,247.7175" fill="none" id="payments-to-kafka" style="stroke:#181818;stroke-width:1;"/><polygon fill="#181818" points="1367.6,244.8283,1357.786,245.6564,1363.2179,247.236,1361.6383,252.6678,1367.6,244.8283" style="stroke:#181818;stroke-width:1;"/><text fill="#000000" font-family="Segoe UI" font-size="13" lengthAdjust="spacing" textLength="122.6431" x="1303.65" y="307.5366">payment.processed</text></g><!--link kafka to notifications--><g class="link" data-entity-1="kafka" data-entity-2="notifications" data-source-line="113" data-uid="lnk54" id="link_kafka_notifications"><path d="M1406.34,244.8183 C1425.9,263.0483 1455.71,296.9383 1434.65,318.4683 C1420.59,332.8483 1091.1,318.4383 1072.65,326.4683 C1037.46,341.7883 1012.1737,372.1803 996.1037,395.6103" fill="none" id="kafka-to-notifications" style="stroke:#181818;stroke-width:1;"/><polygon fill="#181818" points="992.71,400.5583,1001.0992,395.3987,995.5381,396.4349,994.5019,390.8738,992.71,400.5583" style="stroke:#181818;stroke-width:1;"/><text fill="#000000" font-family="Segoe UI" font-size="13" lengthAdjust="spacing" textLength="69.2212" x="1442.85" y="307.5366">send alerts</text></g><!--link kafka to analytics--><g class="link" data-entity-1="kafka" data-entity-2="analytics" data-source-line="114" data-uid="lnk55" id="link_kafka_analytics"><path d="M1399.79,217.6883 C1412.73,197.6383 1440.11,160.8083 1474.65,145.9783 C1519.78,126.6083 1871.54,126.5583 1916.65,145.9783 C1945.89,158.5683 1966.3596,182.2287 1980.6596,202.8387" fill="none" id="kafka-to-analytics" style="stroke:#181818;stroke-width:1;"/><polygon fill="#181818" points="1984.08,207.7683,1982.2359,198.0936,1981.2297,203.6603,1975.6631,202.6541,1984.08,207.7683" style="stroke:#181818;stroke-width:1;"/><text fill="#000000" font-family="Segoe UI" font-size="13" lengthAdjust="spacing" textLength="96.7319" x="1616.65" y="134.5466">event ingestion</text></g><!--link kafka to loyalty--><g class="link" data-entity-1="kafka" data-entity-2="loyalty" data-source-line="115" data-uid="lnk56" id="link_kafka_loyalty"><path d="M1399.78,217.6683 C1412.71,197.5883 1440.07,160.7183 1474.65,145.9783 C1574.62,103.3783 1610.48,144.6483 1719.15,144.2683 C2069.85,143.0483 2624.52,139.5683 2642.65,145.9783 C2677.16,158.1783 2704.6234,182.4832 2724.1734,203.2132" fill="none" id="kafka-to-loyalty" style="stroke:#181818;stroke-width:1;"/><polygon fill="#181818" points="2728.29,207.5783,2725.0252,198.2863,2724.8595,203.9407,2719.2051,203.7751,2728.29,207.5783" style="stroke:#181818;stroke-width:1;"/><text fill="#000000" font-family="Segoe UI" font-size="13" lengthAdjust="spacing" textLength="111.5283" x="1720.15" y="134.5466">points calculation</text></g><!--SRC=[hLVVRzis47xtNq5umFemA72sOZ0AR43IsK4GB2sMxYs0mL1dcJ15gXHbpoZwl_UEf6J9flTYAGWiVhmxalVT3-eTUpOx_iN2bjtbEz2kiL2pZ7qqPMKqZjcd7TYTXFta7RjJYfLIM5CJ952miAQf86Tl1vQRaalDzj9js1Pm31Ne7BIGK4ycJZe55zRwksSojV2atafTSSjBziR5bjRK-KUZZ6K_BHVqrvEeDpmtUwaBjkQgXjvCLBCQB9lty1pMl55kQRHxvYMmwGiK1jY_ZzE-CWZ7TO5d-3PX-DmRcuEDc_XrCV_zxZxWPnlqp-HxpvReZlWjhREOBzylvnVN-Jv1BlwuuY4gFp-o1-vWpm_N6ZiUP_faqEyzqrF6QxObaFpmss8smixlZTaIlN_vUBlMtf7NwT3mjAKXajGxPRqJ6KOkHYTtqkZQdx8Ff1ISbLKckEFA55w1W5K4KWgrs43UADnHPYo-ryvoPwpNFSwD4WmF3LeVtw5zi-ZEvOmScdPdGQ9PPSrQAWWEzT2gXL9Aw0InpSWsYli1RZyXfyo1AtT0plRSvi5wn4PntwSAR21-V1-UsOvnkRWGbmLmYowXwcfio3-2qZwNEMGbrxo04j7eTGGl132NwbJSWq5S6mVCocBZc5d72VQ1JP-_F6MtizdizWEM_ps3_ogizVMh1WKXNLO57cjLif_xc39rlIfVDNOKRuho2tU3cjDail0r8CE4AicrW90c7Xs5uqUzjXnJi17KjSRdEMcVakOzfKsQwueVY8WGqEqW9OZKoBKKlMerG58gU-1k0w7QnFSBGQ6H5-imoGfPEodgDYu2dix7i73MNYDYHWPq5BfUcefMftB-4XSPaQo4TK_LOdw9gX9ooRE2AmKnApsI4iK4KuVEaTqe7G3MuMq6yzr1ONlqnecaKbSSgDmA3BOkcNlZKKXuukijPmjQZjqtLnFmjO46dNzYDLmnF4PtZFdYTjpR4Vl7DExwwF6Ne2pxStXFwD31PQ13JrfWXxUzhWCwlaV8d8CM6skqQR3ZzA_mLwVFyTndHwO-GMF6TrZh-PjKqXscvpf3Xv2MHzYEAvbxkPGIzZylIh-zsOHeMqH9FBxxh82wncIVJgBZpuWa-TuOQvdPDjLGFZGZajnpYPys3F-x6ZmK7UoOuzg5zaawETxxeZkeMGStuDk9zqw4ZnqvD5HXT2xzxb_rBwphl0pzoC-KOmlmku-lQuCL4LjMOg44iHQ-DZBK5kpWyVRrlvo6VVHgqi0rjJDYot3JeD1UrswyJDj9IExXymkTd5oB_BLvaYGmJhAty1s0PaSe93Mc4ttJbesELBETvA4qZfvIeGmEO_56M2GCyc64TP8HlF4t9_1oNH8C12Dw4zE11CCSIGsk4vuUh1kCOxCZjezoNJSZ6V0b73sDRFiKECgryK7h6abx4Lo9HiLS-G40]--></g></svg>