<?plantuml 1.2026.2?><svg xmlns="http://www.w3.org/2000/svg" xmlns:xlink="http://www.w3.org/1999/xlink" contentStyleType="text/css" data-diagram-type="DESCRIPTION" height="569px" preserveAspectRatio="none" style="width:3219px;height:569px;background:#FAFAFA;" version="1.1" viewBox="0 0 3219 569" width="3219px" zoomAndPan="magnify"><title>NovaTrek Event Flow</title><defs/><g><rect fill="#FAFAFA" height="569" style="stroke:none;stroke-width:1;" width="3219" x="0" y="0"/><g class="title" data-source-line="8"><text fill="#000000" font-family="Inter" font-size="22" font-weight="bold" lengthAdjust="spacing" textLength="238.7773" x="1485.9347" y="36.2695">NovaTrek Event Flow</text></g><!--cluster Producers--><g class="cluster" data-qualified-name="Producers" data-source-line="10" id="ent0002"><rect fill="#FFFFFF" height="178.26" rx="4" ry="4" style="stroke:#000000;stroke-width:1;" width="735" x="1059.97" y="58.9102"/><text fill="#000000" font-family="Inter" font-size="12" font-weight="bold" lengthAdjust="spacing" textLength="61.9688" x="1396.4856" y="72.5117">Producers</text></g><!--cluster Consumers--><g class="cluster" data-qualified-name="Consumers" data-source-line="23" id="ent0012"><rect fill="#FFFFFF" height="178.27" rx="4" ry="4" style="stroke:#000000;stroke-width:1;" width="745" x="1236.97" y="385.3002"/><text fill="#000000" font-family="Inter" font-size="12" font-weight="bold" lengthAdjust="spacing" textLength="69.668" x="1574.636" y="398.9017">Consumers</text></g><!--entity p_svc_check_in--><g class="entity" data-qualified-name="Producers.p_svc_check_in" data-source-line="11" id="ent0003"><a href="/microservices/svc-check-in/" target="_top" title="/microservices/svc-check-in/" xlink:actuate="onRequest" xlink:href="/microservices/svc-check-in/" xlink:show="new" xlink:title="/microservices/svc-check-in/" xlink:type="simple"><rect fill="#2563EB" height="34.1328" rx="4" ry="4" style="stroke:#000000;stroke-width:1;" width="96.7168" x="1109.61" y="91.9102"/><text fill="#000000" font-family="Inter" font-size="12" lengthAdjust="spacing" textLength="76.7168" x="1119.61" y="113.5117">svc-check-in</text></a></g><!--entity p_svc_emergency_response--><g class="entity" data-qualified-name="Producers.p_svc_emergency_response" data-source-line="12" id="ent0004"><a href="/microservices/svc-emergency-response/" target="_top" title="/microservices/svc-emergency-response/" xlink:actuate="onRequest" xlink:href="/microservices/svc-emergency-response/" xlink:show="new" xlink:title="/microservices/svc-emergency-response/" xlink:type="simple"><rect fill="#DC2626" height="34.1328" rx="4" ry="4" style="stroke:#000000;stroke-width:1;" width="168.7637" x="1253.59" y="91.9102"/><text fill="#000000" font-family="Inter" font-size="12" lengthAdjust="spacing" textLength="148.7637" x="1263.59" y="113.5117">svc-emergency-response</text></a></g><!--entity p_svc_guest_profiles--><g class="entity" data-qualified-name="Producers.p_svc_guest_profiles" data-source-line="13" id="ent0005"><a href="/microservices/svc-guest-profiles/" target="_top" title="/microservices/svc-guest-profiles/" xlink:actuate="onRequest" xlink:href="/microservices/svc-guest-profiles/" xlink:show="new" xlink:title="/microservices/svc-guest-profiles/" xlink:type="simple"><rect fill="#7C3AED" height="34.1328" rx="4" ry="4" style="stroke:#000000;stroke-width:1;" width="128.5684" x="1469.68" y="91.9102"/><text fill="#000000" font-family="Inter" font-size="12" lengthAdjust="spacing" textLength="108.5684" x="1479.68" y="113.5117">svc-guest-profiles</text></a></g><!--entity p_svc_payments--><g class="entity" data-qualified-name="Producers.p_svc_payments" data-source-line="14" id="ent0006"><a href="/microservices/svc-payments/" target="_top" title="/microservices/svc-payments/" xlink:actuate="onRequest" xlink:href="/microservices/svc-payments/" xlink:show="new" xlink:title="/microservices/svc-payments/" xlink:type="simple"><rect fill="#64748B" height="34.1328" rx="4" ry="4" style="stroke:#000000;stroke-width:1;" width="101.8086" x="1667.06" y="91.9102"/><text fill="#000000" font-family="Inter" font-size="12" lengthAdjust="spacing" textLength="81.8086" x="1677.06" y="113.5117">svc-payments</text></a></g><!--entity p_svc_reservations--><g class="entity" data-qualified-name="Producers.p_svc_reservations" data-source-line="15" id="ent0007"><a href="/microservices/svc-reservations/" target="_top" title="/microservices/svc-reservations/" xlink:actuate="onRequest" xlink:href="/microservices/svc-reservations/" xlink:show="new" xlink:title="/microservices/svc-reservations/" xlink:type="simple"><rect fill="#059669" height="34.1328" rx="4" ry="4" style="stroke:#000000;stroke-width:1;" width="116.457" x="1075.74" y="187.0402"/><text fill="#000000" font-family="Inter" font-size="12" lengthAdjust="spacing" textLength="96.457" x="1085.74" y="208.6417">svc-reservations</text></a></g><!--entity p_svc_safety_compliance--><g class="entity" data-qualified-name="Producers.p_svc_safety_compliance" data-source-line="16" id="ent0008"><a href="/microservices/svc-safety-compliance/" target="_top" title="/microservices/svc-safety-compliance/" xlink:actuate="onRequest" xlink:href="/microservices/svc-safety-compliance/" xlink:show="new" xlink:title="/microservices/svc-safety-compliance/" xlink:type="simple"><rect fill="#DC2626" height="34.1328" rx="4" ry="4" style="stroke:#000000;stroke-width:1;" width="153.0781" x="1227.43" y="187.0402"/><text fill="#000000" font-family="Inter" font-size="12" lengthAdjust="spacing" textLength="133.0781" x="1237.43" y="208.6417">svc-safety-compliance</text></a></g><!--entity p_svc_scheduling_orchestrator--><g class="entity" data-qualified-name="Producers.p_svc_scheduling_orchestrator" data-source-line="17" id="ent0009"><a href="/microservices/svc-scheduling-orchestrator/" target="_top" title="/microservices/svc-scheduling-orchestrator/" xlink:actuate="onRequest" xlink:href="/microservices/svc-scheduling-orchestrator/" xlink:show="new" xlink:title="/microservices/svc-scheduling-orchestrator/" xlink:type="simple"><rect fill="#2563EB" height="34.1328" rx="4" ry="4" style="stroke:#000000;stroke-width:1;" width="187.0977" x="1415.42" y="187.0402"/><text fill="#000000" font-family="Inter" font-size="12" lengthAdjust="spacing" textLength="167.0977" x="1425.42" y="208.6417">svc-scheduling-orchestrator</text></a></g><!--entity p_svc_wildlife_tracking--><g class="entity" data-qualified-name="Producers.p_svc_wildlife_tracking" data-source-line="18" id="ent0010"><a href="/microservices/svc-wildlife-tracking/" target="_top" title="/microservices/svc-wildlife-tracking/" xlink:actuate="onRequest" xlink:href="/microservices/svc-wildlife-tracking/" xlink:show="new" xlink:title="/microservices/svc-wildlife-tracking/" xlink:type="simple"><rect fill="#DC2626" height="34.1328" rx="4" ry="4" style="stroke:#000000;stroke-width:1;" width="141.7168" x="1637.11" y="187.0402"/><text fill="#000000" font-family="Inter" font-size="12" lengthAdjust="spacing" textLength="121.7168" x="1647.11" y="208.6417">svc-wildlife-tracking</text></a></g><!--entity c_svc_analytics--><g class="entity" data-qualified-name="Consumers.c_svc_analytics" data-source-line="24" id="ent0013"><a href="/microservices/svc-analytics/" target="_top" title="/microservices/svc-analytics/" xlink:actuate="onRequest" xlink:href="/microservices/svc-analytics/" xlink:show="new" xlink:title="/microservices/svc-analytics/" xlink:type="simple"><rect fill="#64748B" height="34.1328" rx="4" ry="4" style="stroke:#000000;stroke-width:1;" width="96.0781" x="1252.93" y="418.3002"/><text fill="#000000" font-family="Inter" font-size="12" lengthAdjust="spacing" textLength="76.0781" x="1262.93" y="439.9017">svc-analytics</text></a></g><!--entity c_svc_guide_management--><g class="entity" data-qualified-name="Consumers.c_svc_guide_management" data-source-line="25" id="ent0014"><a href="/microservices/svc-guide-management/" target="_top" title="/microservices/svc-guide-management/" xlink:actuate="onRequest" xlink:href="/microservices/svc-guide-management/" xlink:show="new" xlink:title="/microservices/svc-guide-management/" xlink:type="simple"><rect fill="#4F46E5" height="34.1328" rx="4" ry="4" style="stroke:#000000;stroke-width:1;" width="160.8945" x="1388.52" y="418.3002"/><text fill="#000000" font-family="Inter" font-size="12" lengthAdjust="spacing" textLength="140.8945" x="1398.52" y="439.9017">svc-guide-management</text></a></g><!--entity c_svc_loyalty_rewards--><g class="entity" data-qualified-name="Consumers.c_svc_loyalty_rewards" data-source-line="26" id="ent0015"><a href="/microservices/svc-loyalty-rewards/" target="_top" title="/microservices/svc-loyalty-rewards/" xlink:actuate="onRequest" xlink:href="/microservices/svc-loyalty-rewards/" xlink:show="new" xlink:title="/microservices/svc-loyalty-rewards/" xlink:type="simple"><rect fill="#64748B" height="34.1328" rx="4" ry="4" style="stroke:#000000;stroke-width:1;" width="136.373" x="1822.78" y="418.3002"/><text fill="#000000" font-family="Inter" font-size="12" lengthAdjust="spacing" textLength="116.373" x="1832.78" y="439.9017">svc-loyalty-rewards</text></a></g><!--entity c_svc_notifications--><g class="entity" data-qualified-name="Consumers.c_svc_notifications" data-source-line="27" id="ent0016"><a href="/microservices/svc-notifications/" target="_top" title="/microservices/svc-notifications/" xlink:actuate="onRequest" xlink:href="/microservices/svc-notifications/" xlink:show="new" xlink:title="/microservices/svc-notifications/" xlink:type="simple"><rect fill="#64748B" height="34.1328" rx="4" ry="4" style="stroke:#000000;stroke-width:1;" width="117.7402" x="1650.1" y="418.3002"/><text fill="#000000" font-family="Inter" font-size="12" lengthAdjust="spacing" textLength="97.7402" x="1660.1" y="439.9017">svc-notifications</text></a></g><!--entity c_svc_reservations--><g class="entity" data-qualified-name="Consumers.c_svc_reservations" data-source-line="28" id="ent0017"><a href="/microservices/svc-reservations/" target="_top" title="/microservices/svc-reservations/" xlink:actuate="onRequest" xlink:href="/microservices/svc-reservations/" xlink:show="new" xlink:title="/microservices/svc-reservations/" xlink:type="simple"><rect fill="#059669" height="34.1328" rx="4" ry="4" style="stroke:#000000;stroke-width:1;" width="116.457" x="1252.74" y="513.4402"/><text fill="#000000" font-family="Inter" font-size="12" lengthAdjust="spacing" textLength="96.457" x="1262.74" y="535.0417">svc-reservations</text></a></g><!--entity c_svc_safety_compliance--><g class="entity" data-qualified-name="Consumers.c_svc_safety_compliance" data-source-line="29" id="ent0018"><a href="/microservices/svc-safety-compliance/" target="_top" title="/microservices/svc-safety-compliance/" xlink:actuate="onRequest" xlink:href="/microservices/svc-safety-compliance/" xlink:show="new" xlink:title="/microservices/svc-safety-compliance/" xlink:type="simple"><rect fill="#DC2626" height="34.1328" rx="4" ry="4" style="stroke:#000000;stroke-width:1;" width="153.0781" x="1404.43" y="513.4402"/><text fill="#000000" font-family="Inter" font-size="12" lengthAdjust="spacing" textLength="133.0781" x="1414.43" y="535.0417">svc-safety-compliance</text></a></g><!--entity c_svc_scheduling_orchestrator--><g class="entity" data-qualified-name="Consumers.c_svc_scheduling_orchestrator" data-source-line="30" id="ent0019"><a href="/microservices/svc-scheduling-orchestrator/" target="_top" title="/microservices/svc-scheduling-orchestrator/" xlink:actuate="onRequest" xlink:href="/microservices/svc-scheduling-orchestrator/" xlink:show="new" xlink:title="/microservices/svc-scheduling-orchestrator/" xlink:type="simple"><rect fill="#2563EB" height="34.1328" rx="4" ry="4" style="stroke:#000000;stroke-width:1;" width="187.0977" x="1778.42" y="513.4402"/><text fill="#000000" font-family="Inter" font-size="12" lengthAdjust="spacing" textLength="167.0977" x="1788.42" y="535.0417">svc-scheduling-orchestrator</text></a></g><!--entity c_svc_trail_management--><g class="entity" data-qualified-name="Consumers.c_svc_trail_management" data-source-line="31" id="ent0020"><a href="/microservices/svc-trail-management/" target="_top" title="/microservices/svc-trail-management/" xlink:actuate="onRequest" xlink:href="/microservices/svc-trail-management/" xlink:show="new" xlink:title="/microservices/svc-trail-management/" xlink:type="simple"><rect fill="#D97706" height="34.1328" rx="4" ry="4" style="stroke:#000000;stroke-width:1;" width="151.2207" x="1592.36" y="513.4402"/><text fill="#000000" font-family="Inter" font-size="12" lengthAdjust="spacing" textLength="131.2207" x="1602.36" y="535.0417">svc-trail-management</text></a></g><!--entity kafka--><g class="entity" data-qualified-name="kafka" data-source-line="21" id="ent0011"><path d="M1658.01,299.1702 L1759.9202,299.1702 C1764.9202,299.1702 1764.9202,311.2366 1764.9202,311.2366 C1764.9202,311.2366 1764.9202,323.303 1759.9202,323.303 L1658.01,323.303 C1653.01,323.303 1653.01,311.2366 1653.01,311.2366 C1653.01,311.2366 1653.01,299.1702 1658.01,299.1702" fill="#F0E6FF" style="stroke:#000000;stroke-width:1;"/><path d="M1759.9202,299.1702 C1754.9202,299.1702 1754.9202,311.2366 1754.9202,311.2366 C1754.9202,323.303 1759.9202,323.303 1759.9202,323.303" fill="none" style="stroke:#000000;stroke-width:1;"/><text fill="#000000" font-family="Inter" font-size="12" lengthAdjust="spacing" textLength="91.9102" x="1658.01" y="315.7717">Kafka Event Bus</text></g><!--link p_svc_check_in to p_svc_reservations--><!--link p_svc_emergency_response to p_svc_safety_compliance--><!--link p_svc_guest_profiles to p_svc_scheduling_orchestrator--><!--link p_svc_payments to p_svc_wildlife_tracking--><!--link c_svc_analytics to c_svc_reservations--><!--link c_svc_guide_management to c_svc_safety_compliance--><!--link c_svc_loyalty_rewards to c_svc_scheduling_orchestrator--><!--link c_svc_notifications to c_svc_trail_management--><!--link p_svc_check_in to kafka--><g class="link" data-entity-1="ent0003" data-entity-2="ent0011" data-link-type="dependency" data-source-line="46" id="lnk29"><path d="M1206.52,120.7102 C1216.24,122.6502 1226.41,124.5402 1235.97,126.0402 C1359.63,145.4702 1694.12,114.2602 1795.97,187.0402 C1827.71,209.7202 1849.57,237.3702 1826.97,269.1702 C1812.83,289.0602 1794.1748,298.0443 1771.1548,303.3843" fill="none" id="p_svc_check_in-to-kafka" style="stroke:#000000;stroke-width:1;"/><polygon fill="#000000" points="1765.31,304.7402,1774.9811,306.6029,1770.1807,303.6103,1773.1733,298.8099,1765.31,304.7402" style="stroke:#000000;stroke-width:1;"/><text fill="#000000" font-family="Inter" font-size="12" lengthAdjust="spacing" textLength="109.3066" x="1837.26" y="208.7117">checkin.completed</text></g><!--link p_svc_emergency_response to kafka--><g class="link" data-entity-1="ent0004" data-entity-2="ent0011" data-link-type="dependency" data-source-line="47" id="lnk30"><path d="M1422.55,122.5602 C1432.46,123.8302 1442.43,125.0302 1451.97,126.0402 C1639.39,145.8702 1690.11,119.2802 1874.97,156.0402 C1917.7,164.5402 1942.49,151.6902 1967.97,187.0402 C1983.08,208.0002 1983.79,224.7502 1967.97,245.1702 C1943.41,276.8702 1839.7121,294.6834 1771.2021,303.3934" fill="none" id="p_svc_emergency_response-to-kafka" style="stroke:#000000;stroke-width:1;"/><polygon fill="#000000" points="1765.25,304.1502,1774.6826,306.9831,1770.2101,303.5196,1773.6737,299.047,1765.25,304.1502" style="stroke:#000000;stroke-width:1;"/><text fill="#000000" font-family="Inter" font-size="12" lengthAdjust="spacing" textLength="120.9785" x="1980.57" y="208.7117">emergency.triggered</text></g><!--link p_svc_guest_profiles to kafka--><g class="link" data-entity-1="ent0005" data-entity-2="ent0011" data-link-type="dependency" data-source-line="48" id="lnk31"><path d="M1598.61,119.6702 C1615.31,121.9702 1633.29,124.2702 1649.97,126.0402 C1763.47,138.0802 2091.75,95.5202 2159.97,187.0402 C2175.41,207.7502 2176.05,224.9502 2159.97,245.1702 C2111.95,305.5302 1881.4099,311.7169 1771.4099,311.2269" fill="none" id="p_svc_guest_profiles-to-kafka" style="stroke:#000000;stroke-width:1;"/><polygon fill="#000000" points="1765.41,311.2002,1774.3921,315.2402,1770.41,311.2224,1774.4277,307.2403,1765.41,311.2002" style="stroke:#000000;stroke-width:1;"/><text fill="#000000" font-family="Inter" font-size="12" lengthAdjust="spacing" textLength="95.0039" x="2172.79" y="208.7117">guest.registered</text></g><!--link p_svc_safety_compliance to kafka--><g class="link" data-entity-1="ent0008" data-entity-2="ent0011" data-link-type="dependency" data-source-line="49" id="lnk32"><path d="M1335.73,221.6302 C1365.13,236.2402 1410.44,257.0702 1451.97,269.1702 C1519.53,288.8602 1594.0429,299.1626 1646.7229,304.7026" fill="none" id="p_svc_safety_compliance-to-kafka" style="stroke:#000000;stroke-width:1;"/><polygon fill="#000000" points="1652.69,305.3302,1644.1577,300.4108,1647.7174,304.8072,1643.321,308.3669,1652.69,305.3302" style="stroke:#000000;stroke-width:1;"/><text fill="#000000" font-family="Inter" font-size="12" lengthAdjust="spacing" textLength="100.6582" x="1452.97" y="265.7717">incident.reported</text></g><!--link p_svc_payments to kafka--><g class="link" data-entity-1="ent0006" data-entity-2="ent0011" data-link-type="dependency" data-source-line="50" id="lnk33"><path d="M1769.15,109.5802 C1864.62,109.9102 2075.77,115.6602 2247.97,156.0402 C2284.69,164.6502 2305.72,155.8802 2326.97,187.0402 C2341.52,208.3902 2342.36,224.4202 2326.97,245.1702 C2293.78,289.9402 1917.5677,304.6628 1771.3577,308.7428" fill="none" id="p_svc_payments-to-kafka" style="stroke:#000000;stroke-width:1;"/><polygon fill="#000000" points="1765.36,308.9102,1774.4681,312.6576,1770.3581,308.7707,1774.2449,304.6607,1765.36,308.9102" style="stroke:#000000;stroke-width:1;"/><text fill="#000000" font-family="Inter" font-size="12" lengthAdjust="spacing" textLength="113.209" x="2339.2" y="208.7117">payment.processed</text></g><!--link p_svc_reservations to kafka--><g class="link" data-entity-1="ent0007" data-entity-2="ent0011" data-link-type="dependency" data-source-line="51" id="lnk34"><path d="M1162.26,221.5402 C1176.32,229.3102 1193.74,238.3602 1209.97,245.1702 C1242.24,258.7202 1250.69,262.1102 1284.97,269.1702 C1414.99,295.9502 1565.1347,305.1332 1646.8447,308.3632" fill="none" id="p_svc_reservations-to-kafka" style="stroke:#000000;stroke-width:1;"/><polygon fill="#000000" points="1652.84,308.6002,1644.005,304.2478,1647.8439,308.4027,1643.689,312.2415,1652.84,308.6002" style="stroke:#000000;stroke-width:1;"/><text fill="#000000" font-family="Inter" font-size="12" lengthAdjust="spacing" textLength="111.8145" x="1285.97" y="265.7717">reservation.created</text></g><!--link p_svc_reservations to kafka--><g class="link" data-entity-1="ent0007" data-entity-2="ent0011" data-link-type="dependency" data-source-line="52" id="lnk35"><path d="M1093.42,221.6502 C1068.66,234.0402 1044.64,251.7702 1060.97,269.1702 C1081.09,290.6102 1492.7724,304.2102 1646.6724,308.5702" fill="none" id="p_svc_reservations-to-kafka-1" style="stroke:#000000;stroke-width:1;"/><polygon fill="#000000" points="1652.67,308.7402,1643.7869,304.4869,1647.672,308.5986,1643.5603,312.4837,1652.67,308.7402" style="stroke:#000000;stroke-width:1;"/><text fill="#000000" font-family="Inter" font-size="12" lengthAdjust="spacing" textLength="159.3926" x="1061.97" y="265.7717">reservation.status_changed</text></g><!--link p_svc_scheduling_orchestrator to kafka--><g class="link" data-entity-1="ent0009" data-entity-2="ent0011" data-link-type="dependency" data-source-line="53" id="lnk36"><path d="M1524.53,221.6402 C1538.8,235.9502 1561.13,256.3302 1583.97,269.1702 C1607.36,282.3302 1629.844,290.436 1653.564,297.106" fill="none" id="p_svc_scheduling_orchestrator-to-kafka" style="stroke:#000000;stroke-width:1;"/><polygon fill="#000000" points="1659.34,298.7302,1651.7588,292.4432,1654.5267,297.3767,1649.5932,300.1445,1659.34,298.7302" style="stroke:#000000;stroke-width:1;"/><text fill="#000000" font-family="Inter" font-size="12" lengthAdjust="spacing" textLength="112.6406" x="1584.97" y="265.7717">schedule.published</text></g><!--link p_svc_wildlife_tracking to kafka--><g class="link" data-entity-1="ent0010" data-entity-2="ent0011" data-link-type="dependency" data-source-line="54" id="lnk37"><path d="M1706.85,221.4302 C1706.11,234.3802 1705.38,252.9402 1705.97,269.1702 C1706.33,279.1702 1706.6909,284.5418 1707.3909,292.7618" fill="none" id="p_svc_wildlife_tracking-to-kafka" style="stroke:#000000;stroke-width:1;"/><polygon fill="#000000" points="1707.9,298.7402,1711.1219,289.4332,1707.4757,293.7582,1703.1508,290.112,1707.9,298.7402" style="stroke:#000000;stroke-width:1;"/><text fill="#000000" font-family="Inter" font-size="12" lengthAdjust="spacing" textLength="115.1367" x="1706.97" y="265.7717">wildlife_alert.issued</text></g><!--link kafka to c_svc_analytics--><g class="link" data-entity-1="ent0011" data-entity-2="ent0013" data-link-type="dependency" data-source-line="56" id="lnk38"><path d="M1652.58,312.3302 C1440.82,312.9402 703.27,317.6202 668.97,353.3002 C664.04,358.4302 664.2,364.0202 668.97,369.3002 C707.92,412.4802 1105.5329,428.4844 1246.6129,432.8544" fill="none" id="kafka-to-c_svc_analytics" style="stroke:#000000;stroke-width:1;"/><polygon fill="#000000" points="1252.61,433.0402,1243.7382,428.7634,1247.6124,432.8854,1243.4905,436.7596,1252.61,433.0402" style="stroke:#000000;stroke-width:1;"/><text fill="#000000" font-family="Inter" font-size="12" lengthAdjust="spacing" textLength="109.3066" x="669.97" y="365.9017">checkin.completed</text></g><!--link kafka to c_svc_analytics--><g class="link" data-entity-1="ent0011" data-entity-2="ent0013" data-link-type="dependency" data-source-line="61" id="lnk43"><path d="M1652.75,312.7202 C1461.86,314.6402 848.78,323.1302 819.97,353.3002 C758.78,417.3802 1112.9813,430.7449 1246.5813,433.5349" fill="none" id="kafka-to-c_svc_analytics-1" style="stroke:#000000;stroke-width:1;"/><polygon fill="#000000" points="1252.58,433.6602,1243.6655,429.4731,1247.5811,433.5558,1243.4984,437.4714,1252.58,433.6602" style="stroke:#000000;stroke-width:1;"/><text fill="#000000" font-family="Inter" font-size="12" lengthAdjust="spacing" textLength="120.9785" x="820.97" y="365.9017">emergency.triggered</text></g><!--link kafka to c_svc_analytics--><g class="link" data-entity-1="ent0011" data-entity-2="ent0013" data-link-type="dependency" data-source-line="63" id="lnk45"><path d="M1652.67,313.6102 C1494.95,317.7102 1058.91,331.0402 1037.97,353.3002 C974.05,421.2602 1154.6209,432.6053 1246.7709,434.2153" fill="none" id="kafka-to-c_svc_analytics-2" style="stroke:#000000;stroke-width:1;"/><polygon fill="#000000" points="1252.77,434.3202,1243.8412,430.1635,1247.7708,434.2328,1243.7015,438.1623,1252.77,434.3202" style="stroke:#000000;stroke-width:1;"/><text fill="#000000" font-family="Inter" font-size="12" lengthAdjust="spacing" textLength="95.0039" x="1038.97" y="365.9017">guest.registered</text></g><!--link kafka to c_svc_analytics--><g class="link" data-entity-1="ent0011" data-entity-2="ent0013" data-link-type="dependency" data-source-line="65" id="lnk47"><path d="M1652.74,312.5302 C1362.39,314.1902 45.2,323.3502 15.97,353.3002 C11,358.3902 11.07,364.1502 15.97,369.3002 C59.35,414.9402 1017.3505,430.579 1246.4405,433.679" fill="none" id="kafka-to-c_svc_analytics-3" style="stroke:#000000;stroke-width:1;"/><polygon fill="#000000" points="1252.44,433.7602,1243.4949,429.6387,1247.4405,433.6925,1243.3867,437.638,1252.44,433.7602" style="stroke:#000000;stroke-width:1;"/><text fill="#000000" font-family="Inter" font-size="12" lengthAdjust="spacing" textLength="100.6582" x="16.97" y="365.9017">incident.reported</text></g><!--link kafka to c_svc_analytics--><g class="link" data-entity-1="ent0011" data-entity-2="ent0013" data-link-type="dependency" data-source-line="69" id="lnk51"><path d="M1652.53,312.6602 C1376.92,314.8702 184.56,326.0002 157.97,353.3002 C79.77,433.6002 1019.14,435.3694 1246.45,434.6394" fill="none" id="kafka-to-c_svc_analytics-4" style="stroke:#000000;stroke-width:1;"/><polygon fill="#000000" points="1252.45,434.6202,1243.4372,430.6491,1247.45,434.6362,1243.4629,438.649,1252.45,434.6202" style="stroke:#000000;stroke-width:1;"/><text fill="#000000" font-family="Inter" font-size="12" lengthAdjust="spacing" textLength="111.8145" x="158.97" y="365.9017">reservation.created</text></g><!--link kafka to c_svc_analytics--><g class="link" data-entity-1="ent0011" data-entity-2="ent0013" data-link-type="dependency" data-source-line="71" id="lnk53"><path d="M1652.62,312.8302 C1394.29,315.6802 334.73,328.8402 310.97,353.3002 C306.01,358.4102 306.11,364.1102 310.97,369.3002 C343.51,404.0602 1052.4726,427.1444 1246.6726,432.8344" fill="none" id="kafka-to-c_svc_analytics-5" style="stroke:#000000;stroke-width:1;"/><polygon fill="#000000" points="1252.67,433.0102,1243.791,428.7483,1247.6721,432.8637,1243.5567,436.7449,1252.67,433.0102" style="stroke:#000000;stroke-width:1;"/><text fill="#000000" font-family="Inter" font-size="12" lengthAdjust="spacing" textLength="159.3926" x="311.97" y="365.9017">reservation.status_changed</text></g><!--link kafka to c_svc_analytics--><g class="link" data-entity-1="ent0011" data-entity-2="ent0013" data-link-type="dependency" data-source-line="77" id="lnk59"><path d="M1652.74,312.0702 C1424.69,311.6602 579,312.8802 539.97,353.3002 C535.03,358.4202 535.16,364.0702 539.97,369.3002 C588.2,421.8302 1086.7604,431.9585 1246.6504,433.8685" fill="none" id="kafka-to-c_svc_analytics-6" style="stroke:#000000;stroke-width:1;"/><polygon fill="#000000" points="1252.65,433.9402,1243.6984,429.8329,1247.6504,433.8804,1243.6029,437.8324,1252.65,433.9402" style="stroke:#000000;stroke-width:1;"/><text fill="#000000" font-family="Inter" font-size="12" lengthAdjust="spacing" textLength="115.1367" x="540.97" y="365.9017">wildlife_alert.issued</text></g><!--link kafka to c_svc_notifications--><g class="link" data-entity-1="ent0011" data-entity-2="ent0016" data-link-type="dependency" data-source-line="57" id="lnk39"><path d="M1765.25,316.3502 C1816.5,321.4102 1886.75,332.0802 1903.97,353.3002 C1908.45,358.8302 1908.79,364.0802 1903.97,369.3002 C1889,385.5302 1826,370.6002 1804.97,377.3002 C1777.07,386.1902 1753.5483,400.9292 1734.9483,414.4092" fill="none" id="kafka-to-c_svc_notifications" style="stroke:#000000;stroke-width:1;"/><polygon fill="#000000" points="1730.09,417.9302,1739.7247,415.8876,1734.1386,414.996,1735.0301,409.4099,1730.09,417.9302" style="stroke:#000000;stroke-width:1;"/><text fill="#000000" font-family="Inter" font-size="12" lengthAdjust="spacing" textLength="109.3066" x="1908.46" y="365.9017">checkin.completed</text></g><!--link kafka to c_svc_notifications--><g class="link" data-entity-1="ent0011" data-entity-2="ent0016" data-link-type="dependency" data-source-line="58" id="lnk40"><path d="M1765.39,315.5602 C1851.88,321.2302 2009.07,334.0802 2025.97,353.3002 C2030.66,358.6502 2030.9,364.1902 2025.97,369.3002 C2017.44,378.1502 1816.75,373.8402 1804.97,377.3002 C1776.7,385.6302 1752.9724,400.6102 1734.4524,414.3202" fill="none" id="kafka-to-c_svc_notifications-1" style="stroke:#000000;stroke-width:1;"/><polygon fill="#000000" points="1729.63,417.8902,1739.2436,415.7502,1733.6487,414.9152,1734.4837,409.3203,1729.63,417.8902" style="stroke:#000000;stroke-width:1;"/><text fill="#000000" font-family="Inter" font-size="12" lengthAdjust="spacing" textLength="120.9785" x="2030.58" y="365.9017">emergency.triggered</text></g><!--link kafka to c_svc_notifications--><g class="link" data-entity-1="ent0011" data-entity-2="ent0016" data-link-type="dependency" data-source-line="64" id="lnk46"><path d="M1765.19,313.2102 C1880.22,315.7802 2133.83,324.6702 2159.97,353.3002 C2164.76,358.5602 2164.94,364.2202 2159.97,369.3002 C2146.18,383.4102 1823.93,371.8602 1804.97,377.3002 C1776.45,385.4902 1752.5397,400.6831 1734.0497,414.4731" fill="none" id="kafka-to-c_svc_notifications-2" style="stroke:#000000;stroke-width:1;"/><polygon fill="#000000" points="1729.24,418.0602,1738.8459,415.886,1733.248,415.0709,1734.0631,409.4731,1729.24,418.0602" style="stroke:#000000;stroke-width:1;"/><text fill="#000000" font-family="Inter" font-size="12" lengthAdjust="spacing" textLength="100.6582" x="2164.63" y="365.9017">incident.reported</text></g><!--link kafka to c_svc_notifications--><g class="link" data-entity-1="ent0011" data-entity-2="ent0016" data-link-type="dependency" data-source-line="67" id="lnk49"><path d="M1652.91,313.4002 C1540.92,316.2902 1298.08,325.7202 1272.97,353.3002 C1268.18,358.5602 1268.01,364.2102 1272.97,369.3002 C1284.36,381.0102 1550.97,373.9802 1566.97,377.3002 C1606.51,385.5102 1643.7691,401.4561 1671.8891,415.1961" fill="none" id="kafka-to-c_svc_notifications-3" style="stroke:#000000;stroke-width:1;"/><polygon fill="#000000" points="1677.28,417.8302,1670.9497,410.2851,1672.7876,415.6351,1667.4376,417.4729,1677.28,417.8302" style="stroke:#000000;stroke-width:1;"/><text fill="#000000" font-family="Inter" font-size="12" lengthAdjust="spacing" textLength="113.209" x="1273.97" y="365.9017">payment.processed</text></g><!--link kafka to c_svc_notifications--><g class="link" data-entity-1="ent0011" data-entity-2="ent0016" data-link-type="dependency" data-source-line="70" id="lnk52"><path d="M1652.73,312.1402 C1579.21,313.3402 1456.42,320.3902 1427.97,353.3002 C1423.32,358.6802 1423.09,364.1302 1427.97,369.3002 C1438.59,380.5502 1551.87,373.9302 1566.97,377.3002 C1606.12,386.0502 1643.0815,401.7325 1671.2515,415.2625" fill="none" id="kafka-to-c_svc_notifications-4" style="stroke:#000000;stroke-width:1;"/><polygon fill="#000000" points="1676.66,417.8602,1670.279,410.3579,1672.1529,415.6954,1666.8154,417.5693,1676.66,417.8602" style="stroke:#000000;stroke-width:1;"/><text fill="#000000" font-family="Inter" font-size="12" lengthAdjust="spacing" textLength="159.3926" x="1428.97" y="365.9017">reservation.status_changed</text></g><!--link kafka to c_svc_notifications--><g class="link" data-entity-1="ent0011" data-entity-2="ent0016" data-link-type="dependency" data-source-line="73" id="lnk55"><path d="M1667.22,323.6402 C1652.51,329.8902 1637.51,339.3102 1628.97,353.3002 C1613.25,379.0402 1639.3683,400.0334 1667.3283,415.1034" fill="none" id="kafka-to-c_svc_notifications-5" style="stroke:#000000;stroke-width:1;"/><polygon fill="#000000" points="1672.61,417.9502,1666.5853,410.1589,1668.2086,415.5779,1662.7897,417.2012,1672.61,417.9502" style="stroke:#000000;stroke-width:1;"/><text fill="#000000" font-family="Inter" font-size="12" lengthAdjust="spacing" textLength="112.6406" x="1629.97" y="365.9017">schedule.published</text></g><!--link kafka to c_svc_notifications--><g class="link" data-entity-1="ent0011" data-entity-2="ent0016" data-link-type="dependency" data-source-line="74" id="lnk56"><path d="M1724.18,323.7402 C1732.64,331.1402 1742.36,341.5502 1746.97,353.3002 C1749.56,359.9302 1748.83,362.4402 1746.97,369.3002 C1742.12,387.2402 1734.4426,400.4114 1725.4726,412.9414" fill="none" id="kafka-to-c_svc_notifications-6" style="stroke:#000000;stroke-width:1;"/><polygon fill="#000000" points="1721.98,417.8202,1730.4714,412.8305,1724.8905,413.7546,1723.9664,408.1737,1721.98,417.8202" style="stroke:#000000;stroke-width:1;"/><text fill="#000000" font-family="Inter" font-size="12" lengthAdjust="spacing" textLength="115.1367" x="1749.65" y="365.9017">wildlife_alert.issued</text></g><!--link kafka to c_svc_scheduling_orchestrator--><g class="link" data-entity-1="ent0011" data-entity-2="ent0019" data-link-type="dependency" data-source-line="59" id="lnk41"><path d="M1765.3,311.7002 C1907.84,311.0202 2294.18,313.3402 2612.97,353.3002 C2665.21,359.8502 2695.73,336.4802 2728.97,377.3002 C2750.05,403.2002 2751.17,427.5002 2728.97,452.4402 C2678.99,508.5702 2183.9589,523.9653 1971.9389,528.0253" fill="none" id="kafka-to-c_svc_scheduling_orchestrator" style="stroke:#000000;stroke-width:1;"/><polygon fill="#000000" points="1965.94,528.1402,1975.0149,531.9671,1970.9391,528.0444,1974.8618,523.9686,1965.94,528.1402" style="stroke:#000000;stroke-width:1;"/><text fill="#000000" font-family="Inter" font-size="12" lengthAdjust="spacing" textLength="120.9785" x="2746.2" y="439.9717">emergency.triggered</text></g><!--link kafka to c_svc_scheduling_orchestrator--><g class="link" data-entity-1="ent0011" data-entity-2="ent0019" data-link-type="dependency" data-source-line="68" id="lnk50"><path d="M1765.16,313.1702 C1993.04,317.2402 2837.98,335.1202 2874.97,377.3002 C3025.72,549.2302 2779.25,471.9802 2668.97,483.4402 C2415.48,509.7802 2120.9569,521.8564 1971.7469,526.6764" fill="none" id="kafka-to-c_svc_scheduling_orchestrator-1" style="stroke:#000000;stroke-width:1;"/><polygon fill="#000000" points="1965.75,526.8702,1974.8745,530.5775,1970.7474,526.7087,1974.6162,522.5817,1965.75,526.8702" style="stroke:#000000;stroke-width:1;"/><text fill="#000000" font-family="Inter" font-size="12" lengthAdjust="spacing" textLength="111.8145" x="2922.47" y="439.9717">reservation.created</text></g><!--link kafka to c_svc_scheduling_orchestrator--><g class="link" data-entity-1="ent0011" data-entity-2="ent0019" data-link-type="dependency" data-source-line="75" id="lnk57"><path d="M1765.09,312.7702 C2013.02,315.4102 2999.79,328.9102 3042.97,377.3002 C3206.32,560.3902 2977.97,468.3502 2813.97,483.4402 C2504.18,511.9302 2141.3383,523.3558 1971.7483,527.4358" fill="none" id="kafka-to-c_svc_scheduling_orchestrator-2" style="stroke:#000000;stroke-width:1;"/><polygon fill="#000000" points="1965.75,527.5802,1974.8436,531.3625,1970.7486,527.4599,1974.6512,523.3649,1965.75,527.5802" style="stroke:#000000;stroke-width:1;"/><text fill="#000000" font-family="Inter" font-size="12" lengthAdjust="spacing" textLength="115.1367" x="3096.51" y="439.9717">wildlife_alert.issued</text></g><!--link kafka to c_svc_safety_compliance--><g class="link" data-entity-1="ent0011" data-entity-2="ent0018" data-link-type="dependency" data-source-line="60" id="lnk42"><path d="M1765.41,312.9302 C1947.69,315.4202 2510.38,325.3702 2536.97,353.3002 C2541.87,358.4602 2541.84,364.1202 2536.97,369.3002 C2527.13,379.7702 2420.76,370.7802 2407.97,377.3002 C2369.4,396.9702 2381.82,428.1702 2345.97,452.4402 C2308.49,477.8102 2293.52,475.4702 2248.97,483.4402 C1953.8,536.2102 1873.11,481.4502 1574.97,513.4402 C1569.37,514.0402 1569.5421,513.9289 1563.7521,514.7389" fill="none" id="kafka-to-c_svc_safety_compliance" style="stroke:#000000;stroke-width:1;"/><polygon fill="#000000" points="1557.81,515.5702,1567.2774,518.2847,1562.7618,514.8774,1566.169,510.3618,1557.81,515.5702" style="stroke:#000000;stroke-width:1;"/><text fill="#000000" font-family="Inter" font-size="12" lengthAdjust="spacing" textLength="120.9785" x="2408.97" y="439.9717">emergency.triggered</text></g><!--link kafka to c_svc_loyalty_rewards--><g class="link" data-entity-1="ent0011" data-entity-2="ent0015" data-link-type="dependency" data-source-line="62" id="lnk44"><path d="M1765.21,312.0902 C1901.31,312.3102 2239.81,316.5702 2273.97,353.3002 C2300.49,381.8302 2270.15,364.6002 2179.97,377.3002 C2104,388.0002 2023.6993,404.4684 1965.3693,417.3284" fill="none" id="kafka-to-c_svc_loyalty_rewards" style="stroke:#000000;stroke-width:1;"/><polygon fill="#000000" points="1959.51,418.6202,1969.1601,420.5887,1964.3927,417.5437,1967.4377,412.7763,1959.51,418.6202" style="stroke:#000000;stroke-width:1;"/><text fill="#000000" font-family="Inter" font-size="12" lengthAdjust="spacing" textLength="95.0039" x="2284.2" y="365.9017">guest.registered</text></g><!--link kafka to c_svc_reservations--><g class="link" data-entity-1="ent0011" data-entity-2="ent0017" data-link-type="dependency" data-source-line="66" id="lnk48"><path d="M1765.37,313.5702 C1924.48,317.5902 2366.74,330.7602 2387.97,353.3002 C2392.84,358.4802 2392.87,364.1602 2387.97,369.3002 C2375.31,382.5902 2241.05,374.1602 2222.97,377.3002 C2110.34,396.9202 2089.01,429.7602 1976.97,452.4402 C1718.59,504.7402 1647.4,472.5602 1386.97,513.4402 C1381.24,514.3402 1381.1858,514.2766 1375.2558,515.3966" fill="none" id="kafka-to-c_svc_reservations" style="stroke:#000000;stroke-width:1;"/><polygon fill="#000000" points="1369.36,516.5102,1378.946,518.7704,1374.2731,515.5822,1377.4613,510.9093,1369.36,516.5102" style="stroke:#000000;stroke-width:1;"/><text fill="#000000" font-family="Inter" font-size="12" lengthAdjust="spacing" textLength="113.209" x="2223.97" y="439.9717">payment.processed</text></g><!--link kafka to c_svc_guide_management--><g class="link" data-entity-1="ent0011" data-entity-2="ent0014" data-link-type="dependency" data-source-line="72" id="lnk54"><path d="M1652.53,312.1102 C1516.82,312.3902 1180.9,316.8102 1146.97,353.3002 C1142.13,358.5102 1142.03,364.1902 1146.97,369.3002 C1155.46,378.1102 1355.19,374.0002 1366.97,377.3002 C1396.67,385.6302 1422.1279,400.7633 1441.9179,414.4733" fill="none" id="kafka-to-c_svc_guide_management" style="stroke:#000000;stroke-width:1;"/><polygon fill="#000000" points="1446.85,417.8902,1441.7298,409.4769,1442.7399,415.0428,1437.174,416.053,1446.85,417.8902" style="stroke:#000000;stroke-width:1;"/><text fill="#000000" font-family="Inter" font-size="12" lengthAdjust="spacing" textLength="112.6406" x="1147.97" y="365.9017">schedule.published</text></g><!--link kafka to c_svc_trail_management--><g class="link" data-entity-1="ent0011" data-entity-2="ent0020" data-link-type="dependency" data-source-line="76" id="lnk58"><path d="M1765.23,312.7902 C1953.29,314.8902 2549.89,323.8602 2577.97,353.3002 C2604.45,381.0702 2634.25,370.3502 2537.97,452.4402 C2501.27,483.7302 2481.53,475.4102 2433.97,483.4402 C2138.73,533.2402 2058.64,481.2202 1760.97,513.4402 C1755.43,514.0402 1755.6624,513.9305 1749.9324,514.7305" fill="none" id="kafka-to-c_svc_trail_management" style="stroke:#000000;stroke-width:1;"/><polygon fill="#000000" points="1743.99,515.5602,1753.4566,518.2773,1748.942,514.8688,1752.3504,510.3541,1743.99,515.5602" style="stroke:#000000;stroke-width:1;"/><text fill="#000000" font-family="Inter" font-size="12" lengthAdjust="spacing" textLength="115.1367" x="2605.08" y="439.9717">wildlife_alert.issued</text></g><?plantuml-src nLRHQjim57ttLsZfms3Wj4jRfzt3O2lD68CosDvACOfyxOZ8aYV92TdOlqzn4aUsPCVjGqTUadlkkKUwkaVA6xs07531CEM15WNI0is5rY972PL0D1KyK4lA2onnZkQOB3CfIfxS2IOaEfjzsdwiZ0HIN38z4rm_O5FvAzSW_VWF-XlG-ua5xYjB3XBTM74Yya9mC1IzOO2swy8yOn1egitl1x72FoKiqVtAvA0P4-iWg9FGwBiKIKb0gX7w4w1ZDJHIAnAI1P1bIFa8OOMAs8JYAXHJZXuVptDAf50WLvI0EhS9vqzFw6no7Lt2tArgkYepu6GJIb06K63Lhy7u0FgLt2ALPa8cqIHoDRCIb0uBALBAG5bw5H0V0BzMarpfJCabXiJLAV0cDpziXKF8N_k0LbMZg-dLZQTZPek6WxSJPrUsm_xgTaQbS75z6qMtheB2AUXDk8qoYZcnZsI7nKVCh-MKw3qGPKObAHdbMIYa-Qwqn5f8MxREYEsC3d5_kTuvN5EMC9f2Q7A9CLHcYH-m-83vPPqIzfx_1i6l4ahZicyuNUAz1J-NkoDSLh6psSLzD9irF7bd3glCkpo9EMORJSck2gbMMyVygwpXtY7BIff0c9la3BOZQTMleFW8TTcaMQ1Ikqgl8hXsrPZOOAQtxbrZcTYRsIFn7l5hjUYz6-D2qvGIopuxeKRSBzD8UPv5oUjObFmVYvBNiQX9eSm_anLqSYRR1NORlfrEBof_laLV94qGmnjHQfIQfHVnEmIiobL1wyaB7nSqIO0_9MBDmu-UMpZeVCJyNEVS0k-hr47sTpzeFJj-idF1-Pf1x6QqhvfsNNVWWuxRmyzqU-6_3phO7StmMTrVeJrGWNFy9dLtQtz0LP3oSRLQqEQlGFV9MxGQ7cj9imnaJMoVk4MgeB64Z2fjCLpFsoJAYUawt_8A8OyBF8w5bRmFZesyCOwganktbqsmW36HWFNpA4fZNIhJMVFY7VVJSPdOHVOvC2xAEQDgKPFTzzgcrIXc8FMOAbKQPh23mte2ZhFjE-1sTdEcNiBmJKERqzMLWMndHeRnx4uCoMzxr3EqVH8dazkTSwUxh_pfxCRK-lnmQa6d6Tq7wJDJttQ6vBVNr-E-eL8dQCujxtNhgNM-WE8tz_3s3-CxVpU64krs-Xd_0000?></g></svg>