<?plantuml 1.2026.2?><svg xmlns="http://www.w3.org/2000/svg" xmlns:xlink="http://www.w3.org/1999/xlink" contentStyleType="text/css" data-diagram-type="DESCRIPTION" height="509px" preserveAspectRatio="none" style="width:3216px;height:509px;background:#FAFAFA;" version="1.1" viewBox="0 0 3216 509" width="3216px" zoomAndPan="magnify"><title>NovaTrek Event Flow</title><defs/><g><rect fill="#FAFAFA" height="509" style="stroke:none;stroke-width:1;" width="3216" x="0" y="0"/><g class="title" data-source-line="10"><text fill="#000000" font-family="Inter" font-size="22" font-weight="bold" lengthAdjust="spacing" textLength="238.7773" x="1484.5297" y="36.2695">NovaTrek Event Flow</text></g><!--cluster Producers--><g class="cluster" data-qualified-name="Producers" data-source-line="12" id="ent0002"><path d="M994.83,57.9102 L1054.7988,57.9102 A6,6 0 0 1 1058.7988,61.9102 L1065.7988,78.043 L2426.83,78.043 A4,4 0 0 1 2430.83,82.043 L2430.83,202.0402 A4,4 0 0 1 2426.83,206.0402 L994.83,206.0402 A4,4 0 0 1 990.83,202.0402 L990.83,61.9102 A4,4 0 0 1 994.83,57.9102" fill="#FFFFFF" style="stroke:#000000;stroke-width:1;"/><line style="stroke:#000000;stroke-width:1;" x1="990.83" x2="1065.7988" y1="78.043" y2="78.043"/><text fill="#000000" font-family="Inter" font-size="12" font-weight="bold" lengthAdjust="spacing" textLength="61.9688" x="994.83" y="71.5117">Producers</text></g><!--cluster p_row0--><g class="cluster" data-qualified-name="Producers.p_row0" data-source-line="13" id="ent0003"><rect fill="none" height="83.13" rx="4" ry="4" style="stroke:none;stroke-width:1;" width="633" x="1014.83" y="98.9102"/><text fill="#000000" font-family="Inter" font-size="12" font-weight="bold" lengthAdjust="spacing" textLength="31.3887" x="1315.6357" y="112.5117">row0</text></g><!--cluster p_row1--><g class="cluster" data-qualified-name="Producers.p_row1" data-source-line="19" id="ent0008"><rect fill="none" height="83.13" rx="4" ry="4" style="stroke:none;stroke-width:1;" width="735" x="1671.83" y="98.9102"/><text fill="#000000" font-family="Inter" font-size="12" font-weight="bold" lengthAdjust="spacing" textLength="31.3887" x="2023.6357" y="112.5117">row1</text></g><!--cluster Consumers--><g class="cluster" data-qualified-name="Consumers" data-source-line="29" id="ent0014"><path d="M1123.83,354.1802 L1191.498,354.1802 A6,6 0 0 1 1195.498,358.1802 L1202.498,374.313 L2580.83,374.313 A4,4 0 0 1 2584.83,378.313 L2584.83,498.3102 A4,4 0 0 1 2580.83,502.3102 L1123.83,502.3102 A4,4 0 0 1 1119.83,498.3102 L1119.83,358.1802 A4,4 0 0 1 1123.83,354.1802" fill="#FFFFFF" style="stroke:#000000;stroke-width:1;"/><line style="stroke:#000000;stroke-width:1;" x1="1119.83" x2="1202.498" y1="374.313" y2="374.313"/><text fill="#000000" font-family="Inter" font-size="12" font-weight="bold" lengthAdjust="spacing" textLength="69.668" x="1123.83" y="367.7817">Consumers</text></g><!--cluster c_row0--><g class="cluster" data-qualified-name="Consumers.c_row0" data-source-line="30" id="ent0015"><rect fill="none" height="83.13" rx="4" ry="4" style="stroke:none;stroke-width:1;" width="648" x="1143.83" y="395.1802"/><text fill="#000000" font-family="Inter" font-size="12" font-weight="bold" lengthAdjust="spacing" textLength="31.3887" x="1452.1357" y="408.7817">row0</text></g><!--cluster c_row1--><g class="cluster" data-qualified-name="Consumers.c_row1" data-source-line="36" id="ent0020"><rect fill="none" height="83.13" rx="4" ry="4" style="stroke:none;stroke-width:1;" width="745" x="1815.83" y="395.1802"/><text fill="#000000" font-family="Inter" font-size="12" font-weight="bold" lengthAdjust="spacing" textLength="31.3887" x="2172.6357" y="408.7817">row1</text></g><!--entity p_svc_check_in--><g class="entity" data-qualified-name="Producers.p_row0.p_svc_check_in" data-source-line="14" id="ent0004"><a href="/microservices/svc-check-in/" target="_top" title="/microservices/svc-check-in/" xlink:actuate="onRequest" xlink:href="/microservices/svc-check-in/" xlink:show="new" xlink:title="/microservices/svc-check-in/" xlink:type="simple"><rect fill="#2563EB" height="34.1328" rx="4" ry="4" style="stroke:#000000;stroke-width:1;" width="96.7168" x="1030.47" y="131.9102"/><text fill="#000000" font-family="Inter" font-size="12" lengthAdjust="spacing" textLength="76.7168" x="1040.47" y="153.5117">svc-check-in</text></a></g><!--entity p_svc_emergency_response--><g class="entity" data-qualified-name="Producers.p_row0.p_svc_emergency_response" data-source-line="15" id="ent0005"><a href="/microservices/svc-emergency-response/" target="_top" title="/microservices/svc-emergency-response/" xlink:actuate="onRequest" xlink:href="/microservices/svc-emergency-response/" xlink:show="new" xlink:title="/microservices/svc-emergency-response/" xlink:type="simple"><rect fill="#DC2626" height="34.1328" rx="4" ry="4" style="stroke:#000000;stroke-width:1;" width="168.7637" x="1162.45" y="131.9102"/><text fill="#000000" font-family="Inter" font-size="12" lengthAdjust="spacing" textLength="148.7637" x="1172.45" y="153.5117">svc-emergency-response</text></a></g><!--entity p_svc_guest_profiles--><g class="entity" data-qualified-name="Producers.p_row0.p_svc_guest_profiles" data-source-line="16" id="ent0006"><a href="/microservices/svc-guest-profiles/" target="_top" title="/microservices/svc-guest-profiles/" xlink:actuate="onRequest" xlink:href="/microservices/svc-guest-profiles/" xlink:show="new" xlink:title="/microservices/svc-guest-profiles/" xlink:type="simple"><rect fill="#7C3AED" height="34.1328" rx="4" ry="4" style="stroke:#000000;stroke-width:1;" width="128.5684" x="1366.54" y="131.9102"/><text fill="#000000" font-family="Inter" font-size="12" lengthAdjust="spacing" textLength="108.5684" x="1376.54" y="153.5117">svc-guest-profiles</text></a></g><!--entity p_svc_payments--><g class="entity" data-qualified-name="Producers.p_row0.p_svc_payments" data-source-line="17" id="ent0007"><a href="/microservices/svc-payments/" target="_top" title="/microservices/svc-payments/" xlink:actuate="onRequest" xlink:href="/microservices/svc-payments/" xlink:show="new" xlink:title="/microservices/svc-payments/" xlink:type="simple"><rect fill="#64748B" height="34.1328" rx="4" ry="4" style="stroke:#000000;stroke-width:1;" width="101.8086" x="1529.92" y="131.9102"/><text fill="#000000" font-family="Inter" font-size="12" lengthAdjust="spacing" textLength="81.8086" x="1539.92" y="153.5117">svc-payments</text></a></g><!--entity p_svc_reservations--><g class="entity" data-qualified-name="Producers.p_row1.p_svc_reservations" data-source-line="20" id="ent0009"><a href="/microservices/svc-reservations/" target="_top" title="/microservices/svc-reservations/" xlink:actuate="onRequest" xlink:href="/microservices/svc-reservations/" xlink:show="new" xlink:title="/microservices/svc-reservations/" xlink:type="simple"><rect fill="#059669" height="34.1328" rx="4" ry="4" style="stroke:#000000;stroke-width:1;" width="116.457" x="1687.6" y="131.9102"/><text fill="#000000" font-family="Inter" font-size="12" lengthAdjust="spacing" textLength="96.457" x="1697.6" y="153.5117">svc-reservations</text></a></g><!--entity p_svc_safety_compliance--><g class="entity" data-qualified-name="Producers.p_row1.p_svc_safety_compliance" data-source-line="21" id="ent0010"><a href="/microservices/svc-safety-compliance/" target="_top" title="/microservices/svc-safety-compliance/" xlink:actuate="onRequest" xlink:href="/microservices/svc-safety-compliance/" xlink:show="new" xlink:title="/microservices/svc-safety-compliance/" xlink:type="simple"><rect fill="#DC2626" height="34.1328" rx="4" ry="4" style="stroke:#000000;stroke-width:1;" width="153.0781" x="1839.29" y="131.9102"/><text fill="#000000" font-family="Inter" font-size="12" lengthAdjust="spacing" textLength="133.0781" x="1849.29" y="153.5117">svc-safety-compliance</text></a></g><!--entity p_svc_scheduling_orchestrator--><g class="entity" data-qualified-name="Producers.p_row1.p_svc_scheduling_orchestrator" data-source-line="22" id="ent0011"><a href="/microservices/svc-scheduling-orchestrator/" target="_top" title="/microservices/svc-scheduling-orchestrator/" xlink:actuate="onRequest" xlink:href="/microservices/svc-scheduling-orchestrator/" xlink:show="new" xlink:title="/microservices/svc-scheduling-orchestrator/" xlink:type="simple"><rect fill="#2563EB" height="34.1328" rx="4" ry="4" style="stroke:#000000;stroke-width:1;" width="187.0977" x="2027.28" y="131.9102"/><text fill="#000000" font-family="Inter" font-size="12" lengthAdjust="spacing" textLength="167.0977" x="2037.28" y="153.5117">svc-scheduling-orchestrator</text></a></g><!--entity p_svc_wildlife_tracking--><g class="entity" data-qualified-name="Producers.p_row1.p_svc_wildlife_tracking" data-source-line="23" id="ent0012"><a href="/microservices/svc-wildlife-tracking/" target="_top" title="/microservices/svc-wildlife-tracking/" xlink:actuate="onRequest" xlink:href="/microservices/svc-wildlife-tracking/" xlink:show="new" xlink:title="/microservices/svc-wildlife-tracking/" xlink:type="simple"><rect fill="#DC2626" height="34.1328" rx="4" ry="4" style="stroke:#000000;stroke-width:1;" width="141.7168" x="2248.97" y="131.9102"/><text fill="#000000" font-family="Inter" font-size="12" lengthAdjust="spacing" textLength="121.7168" x="2258.97" y="153.5117">svc-wildlife-tracking</text></a></g><!--entity c_svc_analytics--><g class="entity" data-qualified-name="Consumers.c_row0.c_svc_analytics" data-source-line="31" id="ent0016"><a href="/microservices/svc-analytics/" target="_top" title="/microservices/svc-analytics/" xlink:actuate="onRequest" xlink:href="/microservices/svc-analytics/" xlink:show="new" xlink:title="/microservices/svc-analytics/" xlink:type="simple"><rect fill="#64748B" height="34.1328" rx="4" ry="4" style="stroke:#000000;stroke-width:1;" width="96.0781" x="1159.79" y="428.1802"/><text fill="#000000" font-family="Inter" font-size="12" lengthAdjust="spacing" textLength="76.0781" x="1169.79" y="449.7817">svc-analytics</text></a></g><!--entity c_svc_guide_management--><g class="entity" data-qualified-name="Consumers.c_row0.c_svc_guide_management" data-source-line="32" id="ent0017"><a href="/microservices/svc-guide-management/" target="_top" title="/microservices/svc-guide-management/" xlink:actuate="onRequest" xlink:href="/microservices/svc-guide-management/" xlink:show="new" xlink:title="/microservices/svc-guide-management/" xlink:type="simple"><rect fill="#4F46E5" height="34.1328" rx="4" ry="4" style="stroke:#000000;stroke-width:1;" width="160.8945" x="1290.38" y="428.1802"/><text fill="#000000" font-family="Inter" font-size="12" lengthAdjust="spacing" textLength="140.8945" x="1300.38" y="449.7817">svc-guide-management</text></a></g><!--entity c_svc_loyalty_rewards--><g class="entity" data-qualified-name="Consumers.c_row0.c_svc_loyalty_rewards" data-source-line="33" id="ent0018"><a href="/microservices/svc-loyalty-rewards/" target="_top" title="/microservices/svc-loyalty-rewards/" xlink:actuate="onRequest" xlink:href="/microservices/svc-loyalty-rewards/" xlink:show="new" xlink:title="/microservices/svc-loyalty-rewards/" xlink:type="simple"><rect fill="#64748B" height="34.1328" rx="4" ry="4" style="stroke:#000000;stroke-width:1;" width="136.373" x="1486.64" y="428.1802"/><text fill="#000000" font-family="Inter" font-size="12" lengthAdjust="spacing" textLength="116.373" x="1496.64" y="449.7817">svc-loyalty-rewards</text></a></g><!--entity c_svc_notifications--><g class="entity" data-qualified-name="Consumers.c_row0.c_svc_notifications" data-source-line="34" id="ent0019"><a href="/microservices/svc-notifications/" target="_top" title="/microservices/svc-notifications/" xlink:actuate="onRequest" xlink:href="/microservices/svc-notifications/" xlink:show="new" xlink:title="/microservices/svc-notifications/" xlink:type="simple"><rect fill="#64748B" height="34.1328" rx="4" ry="4" style="stroke:#000000;stroke-width:1;" width="117.7402" x="1657.96" y="428.1802"/><text fill="#000000" font-family="Inter" font-size="12" lengthAdjust="spacing" textLength="97.7402" x="1667.96" y="449.7817">svc-notifications</text></a></g><!--entity c_svc_reservations--><g class="entity" data-qualified-name="Consumers.c_row1.c_svc_reservations" data-source-line="37" id="ent0021"><a href="/microservices/svc-reservations/" target="_top" title="/microservices/svc-reservations/" xlink:actuate="onRequest" xlink:href="/microservices/svc-reservations/" xlink:show="new" xlink:title="/microservices/svc-reservations/" xlink:type="simple"><rect fill="#059669" height="34.1328" rx="4" ry="4" style="stroke:#000000;stroke-width:1;" width="116.457" x="1831.6" y="428.1802"/><text fill="#000000" font-family="Inter" font-size="12" lengthAdjust="spacing" textLength="96.457" x="1841.6" y="449.7817">svc-reservations</text></a></g><!--entity c_svc_safety_compliance--><g class="entity" data-qualified-name="Consumers.c_row1.c_svc_safety_compliance" data-source-line="38" id="ent0022"><a href="/microservices/svc-safety-compliance/" target="_top" title="/microservices/svc-safety-compliance/" xlink:actuate="onRequest" xlink:href="/microservices/svc-safety-compliance/" xlink:show="new" xlink:title="/microservices/svc-safety-compliance/" xlink:type="simple"><rect fill="#DC2626" height="34.1328" rx="4" ry="4" style="stroke:#000000;stroke-width:1;" width="153.0781" x="1983.29" y="428.1802"/><text fill="#000000" font-family="Inter" font-size="12" lengthAdjust="spacing" textLength="133.0781" x="1993.29" y="449.7817">svc-safety-compliance</text></a></g><!--entity c_svc_scheduling_orchestrator--><g class="entity" data-qualified-name="Consumers.c_row1.c_svc_scheduling_orchestrator" data-source-line="39" id="ent0023"><a href="/microservices/svc-scheduling-orchestrator/" target="_top" title="/microservices/svc-scheduling-orchestrator/" xlink:actuate="onRequest" xlink:href="/microservices/svc-scheduling-orchestrator/" xlink:show="new" xlink:title="/microservices/svc-scheduling-orchestrator/" xlink:type="simple"><rect fill="#2563EB" height="34.1328" rx="4" ry="4" style="stroke:#000000;stroke-width:1;" width="187.0977" x="2171.28" y="428.1802"/><text fill="#000000" font-family="Inter" font-size="12" lengthAdjust="spacing" textLength="167.0977" x="2181.28" y="449.7817">svc-scheduling-orchestrator</text></a></g><!--entity c_svc_trail_management--><g class="entity" data-qualified-name="Consumers.c_row1.c_svc_trail_management" data-source-line="40" id="ent0024"><a href="/microservices/svc-trail-management/" target="_top" title="/microservices/svc-trail-management/" xlink:actuate="onRequest" xlink:href="/microservices/svc-trail-management/" xlink:show="new" xlink:title="/microservices/svc-trail-management/" xlink:type="simple"><rect fill="#D97706" height="34.1328" rx="4" ry="4" style="stroke:#000000;stroke-width:1;" width="151.2207" x="2393.22" y="428.1802"/><text fill="#000000" font-family="Inter" font-size="12" lengthAdjust="spacing" textLength="131.2207" x="2403.22" y="449.7817">svc-trail-management</text></a></g><!--entity kafka--><g class="entity" data-qualified-name="kafka" data-source-line="27" id="ent0013"><path d="M1632.87,268.0402 L1734.7802,268.0402 C1739.7802,268.0402 1739.7802,280.1066 1739.7802,280.1066 C1739.7802,280.1066 1739.7802,292.173 1734.7802,292.173 L1632.87,292.173 C1627.87,292.173 1627.87,280.1066 1627.87,280.1066 C1627.87,280.1066 1627.87,268.0402 1632.87,268.0402" fill="#F0E6FF" style="stroke:#000000;stroke-width:1;"/><path d="M1734.7802,268.0402 C1729.7802,268.0402 1729.7802,280.1066 1729.7802,280.1066 C1729.7802,292.173 1734.7802,292.173 1734.7802,292.173" fill="none" style="stroke:#000000;stroke-width:1;"/><text fill="#000000" font-family="Inter" font-size="12" lengthAdjust="spacing" textLength="91.9102" x="1632.87" y="284.6417">Kafka Event Bus</text></g><!--link p_svc_check_in to kafka--><g class="link" data-entity-1="ent0004" data-entity-2="ent0013" data-link-type="dependency" data-source-line="44" id="lnk25"><path d="M1089.79,166.4502 C1104.69,187.2602 1133.45,222.2802 1167.83,238.0402 C1248.4,274.9702 1505.15,279.366 1621.5,279.446" fill="none" id="p_svc_check_in-to-kafka" style="stroke:#000000;stroke-width:1;"/><polygon fill="#000000" points="1627.5,279.4502,1618.5,275.4502,1622.5,279.4502,1618.5,283.4502,1627.5,279.4502" style="stroke:#000000;stroke-width:1;"/><text fill="#000000" font-family="Inter" font-size="12" lengthAdjust="spacing" textLength="109.3066" x="1168.83" y="234.6417">checkin.completed</text></g><!--link p_svc_emergency_response to kafka--><g class="link" data-entity-1="ent0005" data-entity-2="ent0013" data-link-type="dependency" data-source-line="45" id="lnk26"><path d="M1252.46,166.5402 C1260.4,187.1102 1277,221.5202 1303.83,238.0402 C1356.66,270.5802 1529.0707,277.4118 1621.4107,278.7718" fill="none" id="p_svc_emergency_response-to-kafka" style="stroke:#000000;stroke-width:1;"/><polygon fill="#000000" points="1627.41,278.8602,1618.4699,274.7281,1622.4105,278.7865,1618.3521,282.7272,1627.41,278.8602" style="stroke:#000000;stroke-width:1;"/><text fill="#000000" font-family="Inter" font-size="12" lengthAdjust="spacing" textLength="120.9785" x="1304.83" y="234.6417">emergency.triggered</text></g><!--link p_svc_guest_profiles to kafka--><g class="link" data-entity-1="ent0006" data-entity-2="ent0013" data-link-type="dependency" data-source-line="46" id="lnk27"><path d="M1428.07,166.4102 C1425.76,186.2002 1425.36,219.1402 1443.83,238.0402 C1468.72,263.5102 1558.8302,272.9001 1621.6202,276.5701" fill="none" id="p_svc_guest_profiles-to-kafka" style="stroke:#000000;stroke-width:1;"/><polygon fill="#000000" points="1627.61,276.9202,1618.8587,272.4018,1622.6185,276.6284,1618.3919,280.3882,1627.61,276.9202" style="stroke:#000000;stroke-width:1;"/><text fill="#000000" font-family="Inter" font-size="12" lengthAdjust="spacing" textLength="95.0039" x="1444.83" y="234.6417">guest.registered</text></g><!--link p_svc_safety_compliance to kafka--><g class="link" data-entity-1="ent0010" data-entity-2="ent0013" data-link-type="dependency" data-source-line="47" id="lnk28"><path d="M1938.62,166.2202 C1961.78,184.6802 1991.66,215.1902 1971.83,238.0402 C1942.46,271.9002 1821.3596,278.4783 1746.1796,279.3783" fill="none" id="p_svc_safety_compliance-to-kafka" style="stroke:#000000;stroke-width:1;"/><polygon fill="#000000" points="1740.18,279.4502,1749.2272,283.3421,1745.1796,279.3903,1749.1315,275.3427,1740.18,279.4502" style="stroke:#000000;stroke-width:1;"/><text fill="#000000" font-family="Inter" font-size="12" lengthAdjust="spacing" textLength="100.6582" x="1979.29" y="234.6417">incident.reported</text></g><!--link p_svc_payments to kafka--><g class="link" data-entity-1="ent0007" data-entity-2="ent0013" data-link-type="dependency" data-source-line="48" id="lnk29"><path d="M1568.12,166.3802 C1555.16,185.2502 1539.02,216.4202 1554.83,238.0402 C1571.47,260.8102 1594.9509,270.2196 1621.4709,274.8896" fill="none" id="p_svc_payments-to-kafka" style="stroke:#000000;stroke-width:1;"/><polygon fill="#000000" points="1627.38,275.9302,1619.2101,270.4299,1622.4558,275.063,1617.8227,278.3087,1627.38,275.9302" style="stroke:#000000;stroke-width:1;"/><text fill="#000000" font-family="Inter" font-size="12" lengthAdjust="spacing" textLength="113.209" x="1555.83" y="234.6417">payment.processed</text></g><!--link p_svc_reservations to kafka--><g class="link" data-entity-1="ent0009" data-entity-2="ent0013" data-link-type="dependency" data-source-line="49" id="lnk30"><path d="M1724.39,166.2902 C1709.01,179.4302 1689.53,199.4002 1680.83,222.0402 C1675.06,237.0502 1676.4285,250.069 1679.2085,261.909" fill="none" id="p_svc_reservations-to-kafka" style="stroke:#000000;stroke-width:1;"/><polygon fill="#000000" points="1680.58,267.7502,1682.4169,258.0741,1679.4371,262.8825,1674.6287,259.9028,1680.58,267.7502" style="stroke:#000000;stroke-width:1;"/><text fill="#000000" font-family="Inter" font-size="12" lengthAdjust="spacing" textLength="111.8145" x="1681.83" y="234.6417">reservation.created</text></g><!--link p_svc_reservations to kafka--><g class="link" data-entity-1="ent0009" data-entity-2="ent0013" data-link-type="dependency" data-source-line="50" id="lnk31"><path d="M1767.25,166.3602 C1788.2,184.4202 1814.67,214.0702 1797.83,238.0402 C1784.59,256.8902 1767.6239,265.6472 1745.9039,271.1872" fill="none" id="p_svc_reservations-to-kafka-1" style="stroke:#000000;stroke-width:1;"/><polygon fill="#000000" points="1740.09,272.6702,1749.7994,274.3217,1744.9349,271.4344,1747.8222,266.5699,1740.09,272.6702" style="stroke:#000000;stroke-width:1;"/><text fill="#000000" font-family="Inter" font-size="12" lengthAdjust="spacing" textLength="159.3926" x="1804.05" y="234.6417">reservation.status_changed</text></g><!--link p_svc_scheduling_orchestrator to kafka--><g class="link" data-entity-1="ent0011" data-entity-2="ent0013" data-link-type="dependency" data-source-line="51" id="lnk32"><path d="M2119.73,166.3102 C2117.41,186.6402 2110.2,220.8002 2087.83,238.0402 C2060.85,258.8402 1850.3831,271.3517 1745.8831,276.3817" fill="none" id="p_svc_scheduling_orchestrator-to-kafka" style="stroke:#000000;stroke-width:1;"/><polygon fill="#000000" points="1739.89,276.6702,1749.0719,280.2328,1744.8842,276.4298,1748.6873,272.2421,1739.89,276.6702" style="stroke:#000000;stroke-width:1;"/><text fill="#000000" font-family="Inter" font-size="12" lengthAdjust="spacing" textLength="112.6406" x="2102.3" y="234.6417">schedule.published</text></g><!--link p_svc_wildlife_tracking to kafka--><g class="link" data-entity-1="ent0012" data-entity-2="ent0013" data-link-type="dependency" data-source-line="52" id="lnk33"><path d="M2307.54,166.4802 C2290.93,187.3302 2259.18,222.3902 2222.83,238.0402 C2137.28,274.8802 1866.34,279.2742 1746.24,279.3942" fill="none" id="p_svc_wildlife_tracking-to-kafka" style="stroke:#000000;stroke-width:1;"/><polygon fill="#000000" points="1740.24,279.4002,1749.244,283.3912,1745.24,279.3952,1749.236,275.3912,1740.24,279.4002" style="stroke:#000000;stroke-width:1;"/><text fill="#000000" font-family="Inter" font-size="12" lengthAdjust="spacing" textLength="115.1367" x="2251.54" y="234.6417">wildlife_alert.issued</text></g><!--link kafka to c_svc_analytics--><g class="link" data-entity-1="ent0013" data-entity-2="ent0016" data-link-type="dependency" data-source-line="54" id="lnk34"><path d="M1627.62,281.4902 C1347.58,283.5202 115.26,294.0302 87.83,322.1802 C11,401.0102 929.4331,435.3975 1153.5331,442.5975" fill="none" id="kafka-to-c_svc_analytics" style="stroke:#000000;stroke-width:1;"/><polygon fill="#000000" points="1159.53,442.7902,1150.6631,438.5032,1154.5326,442.6296,1150.4062,446.4991,1159.53,442.7902" style="stroke:#000000;stroke-width:1;"/><text fill="#000000" font-family="Inter" font-size="12" lengthAdjust="spacing" textLength="109.3066" x="88.83" y="334.7817">checkin.completed</text></g><!--link kafka to c_svc_analytics--><g class="link" data-entity-1="ent0013" data-entity-2="ent0016" data-link-type="dependency" data-source-line="59" id="lnk39"><path d="M1627.8,281.6402 C1364.68,284.2802 263.47,296.8302 238.83,322.1802 C173.05,389.8502 948.497,431.8514 1153.367,441.7214" fill="none" id="kafka-to-c_svc_analytics-1" style="stroke:#000000;stroke-width:1;"/><polygon fill="#000000" points="1159.36,442.0102,1150.5629,437.5817,1154.3658,441.7696,1150.1779,445.5724,1159.36,442.0102" style="stroke:#000000;stroke-width:1;"/><text fill="#000000" font-family="Inter" font-size="12" lengthAdjust="spacing" textLength="120.9785" x="239.83" y="334.7817">emergency.triggered</text></g><!--link kafka to c_svc_analytics--><g class="link" data-entity-1="ent0013" data-entity-2="ent0016" data-link-type="dependency" data-source-line="61" id="lnk41"><path d="M1627.52,280.7602 C1385.52,279.5102 444.05,277.5502 400.83,322.1802 C292.14,434.4002 963.39,443.8453 1153.31,444.3153" fill="none" id="kafka-to-c_svc_analytics-2" style="stroke:#000000;stroke-width:1;"/><polygon fill="#000000" points="1159.31,444.3302,1150.3199,440.3079,1154.31,444.3178,1150.3001,448.3079,1159.31,444.3302" style="stroke:#000000;stroke-width:1;"/><text fill="#000000" font-family="Inter" font-size="12" lengthAdjust="spacing" textLength="95.0039" x="401.83" y="334.7817">guest.registered</text></g><!--link kafka to c_svc_analytics--><g class="link" data-entity-1="ent0013" data-entity-2="ent0016" data-link-type="dependency" data-source-line="63" id="lnk43"><path d="M1627.56,280.9802 C1402.33,280.7502 576.02,282.6002 537.83,322.1802 C448.81,414.4402 985.4727,437.8102 1153.4327,442.8502" fill="none" id="kafka-to-c_svc_analytics-3" style="stroke:#000000;stroke-width:1;"/><polygon fill="#000000" points="1159.43,443.0302,1150.554,438.762,1154.4322,442.8802,1150.3141,446.7584,1159.43,443.0302" style="stroke:#000000;stroke-width:1;"/><text fill="#000000" font-family="Inter" font-size="12" lengthAdjust="spacing" textLength="100.6582" x="538.83" y="334.7817">incident.reported</text></g><!--link kafka to c_svc_analytics--><g class="link" data-entity-1="ent0013" data-entity-2="ent0016" data-link-type="dependency" data-source-line="67" id="lnk47"><path d="M1627.63,281.2802 C1420.9,282.1902 712.82,287.8002 679.83,322.1802 C610.89,394.0002 1010.7662,430.0501 1153.5362,440.5501" fill="none" id="kafka-to-c_svc_analytics-4" style="stroke:#000000;stroke-width:1;"/><polygon fill="#000000" points="1159.52,440.9902,1150.8376,436.3408,1154.5335,440.6234,1150.2509,444.3193,1159.52,440.9902" style="stroke:#000000;stroke-width:1;"/><text fill="#000000" font-family="Inter" font-size="12" lengthAdjust="spacing" textLength="111.8145" x="680.83" y="334.7817">reservation.created</text></g><!--link kafka to c_svc_analytics--><g class="link" data-entity-1="ent0013" data-entity-2="ent0016" data-link-type="dependency" data-source-line="69" id="lnk49"><path d="M1627.45,281.7202 C1441.86,283.9902 860.25,293.4002 832.83,322.1802 C735.53,424.2802 1031.6415,440.9681 1153.3715,443.6481" fill="none" id="kafka-to-c_svc_analytics-5" style="stroke:#000000;stroke-width:1;"/><polygon fill="#000000" points="1159.37,443.7802,1150.4602,439.583,1154.3712,443.6701,1150.2841,447.5811,1159.37,443.7802" style="stroke:#000000;stroke-width:1;"/><text fill="#000000" font-family="Inter" font-size="12" lengthAdjust="spacing" textLength="159.3926" x="833.83" y="334.7817">reservation.status_changed</text></g><!--link kafka to c_svc_analytics--><g class="link" data-entity-1="ent0013" data-entity-2="ent0016" data-link-type="dependency" data-source-line="75" id="lnk55"><path d="M1627.46,280.8902 C1489.69,280.9402 1144.61,284.8202 1109.83,322.1802 C1076.5,357.9802 1133.3562,400.6746 1173.0962,424.7146" fill="none" id="kafka-to-c_svc_analytics-6" style="stroke:#000000;stroke-width:1;"/><polygon fill="#000000" points="1178.23,427.8202,1172.5998,419.7393,1173.9519,425.2322,1168.459,426.5843,1178.23,427.8202" style="stroke:#000000;stroke-width:1;"/><text fill="#000000" font-family="Inter" font-size="12" lengthAdjust="spacing" textLength="115.1367" x="1110.83" y="334.7817">wildlife_alert.issued</text></g><!--link kafka to c_svc_notifications--><g class="link" data-entity-1="ent0013" data-entity-2="ent0019" data-link-type="dependency" data-source-line="55" id="lnk35"><path d="M1627.49,280.6702 C1553.22,281.8702 1436.94,290.9702 1481.83,338.1802 C1494.02,351.0002 1625.15,337.9902 1640.83,346.1802 C1675.01,364.0102 1695.9442,399.4455 1707.0142,422.4055" fill="none" id="kafka-to-c_svc_notifications" style="stroke:#000000;stroke-width:1;"/><polygon fill="#000000" points="1709.62,427.8102,1709.3144,417.966,1707.4485,423.3063,1702.1082,421.4404,1709.62,427.8102" style="stroke:#000000;stroke-width:1;"/><text fill="#000000" font-family="Inter" font-size="12" lengthAdjust="spacing" textLength="109.3066" x="1482.83" y="334.7817">checkin.completed</text></g><!--link kafka to c_svc_notifications--><g class="link" data-entity-1="ent0013" data-entity-2="ent0019" data-link-type="dependency" data-source-line="56" id="lnk36"><path d="M1661.59,292.4702 C1644.53,302.9002 1625.1,319.5202 1632.83,338.1802 C1634.75,342.8202 1637.5,342.4002 1640.83,346.1802 C1665.04,373.6502 1687.0846,403.0251 1701.5346,422.9251" fill="none" id="kafka-to-c_svc_notifications-1" style="stroke:#000000;stroke-width:1;"/><polygon fill="#000000" points="1705.06,427.7802,1703.0086,418.1473,1702.1222,423.7343,1696.5352,422.8478,1705.06,427.7802" style="stroke:#000000;stroke-width:1;"/><text fill="#000000" font-family="Inter" font-size="12" lengthAdjust="spacing" textLength="120.9785" x="1633.83" y="334.7817">emergency.triggered</text></g><!--link kafka to c_svc_notifications--><g class="link" data-entity-1="ent0013" data-entity-2="ent0019" data-link-type="dependency" data-source-line="62" id="lnk42"><path d="M1721.85,292.5902 C1736.03,298.9202 1750.66,308.3802 1758.83,322.1802 C1779.51,357.0802 1753.6575,398.9327 1734.5675,423.2227" fill="none" id="kafka-to-c_svc_notifications-2" style="stroke:#000000;stroke-width:1;"/><polygon fill="#000000" points="1730.86,427.9402,1739.5663,423.3357,1733.9496,424.009,1733.2763,418.3923,1730.86,427.9402" style="stroke:#000000;stroke-width:1;"/><text fill="#000000" font-family="Inter" font-size="12" lengthAdjust="spacing" textLength="100.6582" x="1765.76" y="334.7817">incident.reported</text></g><!--link kafka to c_svc_notifications--><g class="link" data-entity-1="ent0013" data-entity-2="ent0019" data-link-type="dependency" data-source-line="65" id="lnk45"><path d="M1739.92,285.4902 C1790.05,290.7102 1858.1,301.4702 1874.83,322.1802 C1907.2,362.2502 1850.58,329.0602 1815.83,346.1802 C1777.2,365.2102 1747.9525,400.323 1731.5625,422.923" fill="none" id="kafka-to-c_svc_notifications-3" style="stroke:#000000;stroke-width:1;"/><polygon fill="#000000" points="1728.04,427.7802,1736.5619,422.8428,1730.9754,423.7325,1730.0857,418.1461,1728.04,427.7802" style="stroke:#000000;stroke-width:1;"/><text fill="#000000" font-family="Inter" font-size="12" lengthAdjust="spacing" textLength="113.209" x="1885.31" y="334.7817">payment.processed</text></g><!--link kafka to c_svc_notifications--><g class="link" data-entity-1="ent0013" data-entity-2="ent0019" data-link-type="dependency" data-source-line="68" id="lnk48"><path d="M1740.24,284.2902 C1828.13,289.8102 1989.52,302.5302 2006.83,322.1802 C2011.53,327.5102 2011.75,333.0402 2006.83,338.1802 C1992.13,353.5102 1835.3,337.6902 1815.83,346.1802 C1775.91,363.5902 1746.5998,400.0632 1730.6798,423.1132" fill="none" id="kafka-to-c_svc_notifications-4" style="stroke:#000000;stroke-width:1;"/><polygon fill="#000000" points="1727.27,428.0502,1735.676,422.918,1730.1115,423.936,1729.0934,418.3716,1727.27,428.0502" style="stroke:#000000;stroke-width:1;"/><text fill="#000000" font-family="Inter" font-size="12" lengthAdjust="spacing" textLength="159.3926" x="2011.44" y="334.7817">reservation.status_changed</text></g><!--link kafka to c_svc_notifications--><g class="link" data-entity-1="ent0013" data-entity-2="ent0019" data-link-type="dependency" data-source-line="71" id="lnk51"><path d="M1739.98,281.5802 C1863.58,283.1902 2150.53,290.3502 2179.83,322.1802 C2184.65,327.4102 2184.8,333.0902 2179.83,338.1802 C2165.68,352.6402 1834.45,338.2802 1815.83,346.1802 C1775.74,363.1902 1746.4666,399.8073 1730.6166,422.9873" fill="none" id="kafka-to-c_svc_notifications-5" style="stroke:#000000;stroke-width:1;"/><polygon fill="#000000" points="1727.23,427.9402,1735.6119,422.7687,1730.0522,423.8128,1729.0081,418.2531,1727.23,427.9402" style="stroke:#000000;stroke-width:1;"/><text fill="#000000" font-family="Inter" font-size="12" lengthAdjust="spacing" textLength="112.6406" x="2184.5" y="334.7817">schedule.published</text></g><!--link kafka to c_svc_notifications--><g class="link" data-entity-1="ent0013" data-entity-2="ent0019" data-link-type="dependency" data-source-line="72" id="lnk52"><path d="M1740.05,280.5502 C1885.89,279.6802 2267.62,281.3702 2305.83,322.1802 C2310.69,327.3702 2310.82,333.1102 2305.83,338.1802 C2296.28,347.8802 1828.38,340.8902 1815.83,346.1802 C1775.69,363.0702 1746.4427,399.7346 1730.5927,422.9546" fill="none" id="kafka-to-c_svc_notifications-6" style="stroke:#000000;stroke-width:1;"/><polygon fill="#000000" points="1727.21,427.9102,1735.5877,422.7319,1730.0289,423.7805,1728.9803,418.2217,1727.21,427.9102" style="stroke:#000000;stroke-width:1;"/><text fill="#000000" font-family="Inter" font-size="12" lengthAdjust="spacing" textLength="115.1367" x="2310.52" y="334.7817">wildlife_alert.issued</text></g><!--link kafka to c_svc_scheduling_orchestrator--><g class="link" data-entity-1="ent0013" data-entity-2="ent0023" data-link-type="dependency" data-source-line="57" id="lnk37"><path d="M1740.11,281.2602 C1948.04,282.1102 2662.55,287.5202 2695.83,322.1802 C2745.22,373.6102 2442.2,320.1002 2375.83,346.1802 C2332.75,363.1002 2299.0961,400.0074 2280.7061,423.2174" fill="none" id="kafka-to-c_svc_scheduling_orchestrator" style="stroke:#000000;stroke-width:1;"/><polygon fill="#000000" points="2276.98,427.9202,2285.7044,423.3501,2280.0851,424.0012,2279.434,418.3819,2276.98,427.9202" style="stroke:#000000;stroke-width:1;"/><text fill="#000000" font-family="Inter" font-size="12" lengthAdjust="spacing" textLength="120.9785" x="2702.22" y="334.7817">emergency.triggered</text></g><!--link kafka to c_svc_scheduling_orchestrator--><g class="link" data-entity-1="ent0013" data-entity-2="ent0023" data-link-type="dependency" data-source-line="66" id="lnk46"><path d="M1740.14,280.9802 C1965.57,280.7402 2792.61,282.5602 2830.83,322.1802 C2835.77,327.2902 2835.81,333.1002 2830.83,338.1802 C2821.97,347.1902 2387.61,341.6002 2375.83,346.1802 C2332.69,362.9402 2299.059,399.9017 2280.679,423.1717" fill="none" id="kafka-to-c_svc_scheduling_orchestrator-1" style="stroke:#000000;stroke-width:1;"/><polygon fill="#000000" points="2276.96,427.8802,2285.6774,423.2969,2280.0592,423.9565,2279.3995,418.3382,2276.96,427.8802" style="stroke:#000000;stroke-width:1;"/><text fill="#000000" font-family="Inter" font-size="12" lengthAdjust="spacing" textLength="111.8145" x="2835.55" y="334.7817">reservation.created</text></g><!--link kafka to c_svc_scheduling_orchestrator--><g class="link" data-entity-1="ent0013" data-entity-2="ent0023" data-link-type="dependency" data-source-line="73" id="lnk53"><path d="M1740.06,280.7702 C1980.63,279.6102 2913.01,277.9502 2955.83,322.1802 C2960.78,327.2902 2960.82,333.1102 2955.83,338.1802 C2944.51,349.6502 2390.86,340.3702 2375.83,346.1802 C2332.65,362.8602 2299.0348,399.8484 2280.6648,423.1484" fill="none" id="kafka-to-c_svc_scheduling_orchestrator-2" style="stroke:#000000;stroke-width:1;"/><polygon fill="#000000" points="2276.95,427.8602,2285.6633,423.2691,2280.0457,423.9337,2279.381,418.316,2276.95,427.8602" style="stroke:#000000;stroke-width:1;"/><text fill="#000000" font-family="Inter" font-size="12" lengthAdjust="spacing" textLength="115.1367" x="2960.56" y="334.7817">wildlife_alert.issued</text></g><!--link kafka to c_svc_safety_compliance--><g class="link" data-entity-1="ent0013" data-entity-2="ent0022" data-link-type="dependency" data-source-line="58" id="lnk38"><path d="M1740.01,281.6302 C1929.28,283.6502 2533.42,292.4102 2561.83,322.1802 C2566.74,327.3202 2566.81,333.1002 2561.83,338.1802 C2545.96,354.3602 2174.59,337.0802 2153.83,346.1802 C2114.95,363.2202 2087.4983,399.7227 2072.7083,422.8927" fill="none" id="kafka-to-c_svc_safety_compliance" style="stroke:#000000;stroke-width:1;"/><polygon fill="#000000" points="2069.48,427.9502,2077.6941,422.5162,2072.1703,423.7356,2070.9508,418.2117,2069.48,427.9502" style="stroke:#000000;stroke-width:1;"/><text fill="#000000" font-family="Inter" font-size="12" lengthAdjust="spacing" textLength="120.9785" x="2566.54" y="334.7817">emergency.triggered</text></g><!--link kafka to c_svc_loyalty_rewards--><g class="link" data-entity-1="ent0013" data-entity-2="ent0018" data-link-type="dependency" data-source-line="60" id="lnk40"><path d="M1627.59,284.4502 C1541.37,290.1402 1384.67,303.0102 1367.83,322.1802 C1363.14,327.5202 1363,332.9502 1367.83,338.1802 C1383.11,354.7102 1448.7,336.0802 1468.83,346.1802 C1505.06,364.3502 1529.6456,399.8781 1542.9756,422.7181" fill="none" id="kafka-to-c_svc_loyalty_rewards" style="stroke:#000000;stroke-width:1;"/><polygon fill="#000000" points="1546,427.9002,1544.9181,418.1109,1543.4797,423.5818,1538.0088,422.1434,1546,427.9002" style="stroke:#000000;stroke-width:1;"/><text fill="#000000" font-family="Inter" font-size="12" lengthAdjust="spacing" textLength="95.0039" x="1368.83" y="334.7817">guest.registered</text></g><!--link kafka to c_svc_reservations--><g class="link" data-entity-1="ent0013" data-entity-2="ent0021" data-link-type="dependency" data-source-line="64" id="lnk44"><path d="M1740.05,282.0902 C1910.44,285.3502 2411.01,297.0202 2434.83,322.1802 C2439.72,327.3402 2439.81,333.1102 2434.83,338.1802 C2416.56,356.7602 1989.13,334.5102 1965.83,346.1802 C1931.16,363.5402 1910.2312,399.5443 1899.3412,422.6143" fill="none" id="kafka-to-c_svc_reservations" style="stroke:#000000;stroke-width:1;"/><polygon fill="#000000" points="1896.78,428.0402,1904.2391,421.6088,1898.9144,423.5186,1897.0046,418.1939,1896.78,428.0402" style="stroke:#000000;stroke-width:1;"/><text fill="#000000" font-family="Inter" font-size="12" lengthAdjust="spacing" textLength="113.209" x="2439.53" y="334.7817">payment.processed</text></g><!--link kafka to c_svc_guide_management--><g class="link" data-entity-1="ent0013" data-entity-2="ent0017" data-link-type="dependency" data-source-line="70" id="lnk50"><path d="M1627.43,282.2002 C1514.1,284.9702 1267.33,294.2002 1241.83,322.1802 C1215.63,350.9302 1269.37,343.6402 1273.83,346.1802 C1310.66,367.1602 1339.3405,401.2023 1355.7505,423.1823" fill="none" id="kafka-to-c_svc_guide_management" style="stroke:#000000;stroke-width:1;"/><polygon fill="#000000" points="1359.34,427.9902,1357.161,418.3854,1356.3488,423.9836,1350.7505,423.1714,1359.34,427.9902" style="stroke:#000000;stroke-width:1;"/><text fill="#000000" font-family="Inter" font-size="12" lengthAdjust="spacing" textLength="112.6406" x="1242.83" y="334.7817">schedule.published</text></g><!--link kafka to c_svc_trail_management--><g class="link" data-entity-1="ent0013" data-entity-2="ent0024" data-link-type="dependency" data-source-line="74" id="lnk54"><path d="M1739.87,281.7002 C1998,284.5202 3061,297.6402 3084.83,322.1802 C3162.25,401.9102 2731.6626,431.7628 2550.6626,440.7428" fill="none" id="kafka-to-c_svc_trail_management" style="stroke:#000000;stroke-width:1;"/><polygon fill="#000000" points="2544.67,441.0402,2553.8572,444.5893,2549.6639,440.7924,2553.4607,436.5991,2544.67,441.0402" style="stroke:#000000;stroke-width:1;"/><text fill="#000000" font-family="Inter" font-size="12" lengthAdjust="spacing" textLength="115.1367" x="3093.7" y="334.7817">wildlife_alert.issued</text></g><?plantuml-src nLPHRzem47xFh_3eSoYb5DezJ5gh8asJgadRMrL5nZbI2sDdjaF5flxtEI64Is98seTElC1zzzrd--wp-MIVOGqa5PJBmAgKM4KMobgr9Z7Nm2nNCZ0hBbEgwPeiA5ibMcKolbD2QN8s_vf_K4OCIve9ErVIFb1N-PkqeFtuJ_u7oCKOWMLbBK6JQnHdQfqg2OvYjm98lYug4m6Oke_TAXs3tYtFQYgDmntJczhO3Kwtt3gb1xMXlpIioFt61SbSg9SWI1sD9a06FxIACmRQ3CZVW1pgae5MBwC1eOQaKVwrWCbX6sHWDYnapy1M8PTbeWj5HIZYaZm-dgyvqyg0td06vXmJpf-UoDduQde92rzTrr2TW6JRK8DnW06aK87H7lHhjOiKgZ4RJyTJdsgIWR5XgjMI2p18iG2YFU1NgvCBfHcxf13xb5AwNRiVM6CVybVVeqNTwMGskSxFxRNLiej3ooxyBNDduGhJt1LO7eVzIy0PnJ96LpVJwOrFmz0bs6sOHmMdak7kxR3eWFdLMYKwUcVSPCMPu389bNRVZNE2LHeBLnaHpZWYxo_NCROlNCI2Bo5qsSoPDK7oUopQOtxXLedwlb-3ro3udK7cslsTBbUqjFLjjclcgeYTpKVtq_aS-VpEDIrRd_GvE-5pAgdOMivCcPblg8hvDrB1zP7rc8x74AvTUWBvY2E50eeEq37ZrGiKUfFbP0fNFZsXjbJO_4vueJh66ogHg4JyQWrwn-Qaidp96NBRJgeMzmlLKlhPdht5zkoZRC_-b-tPHzdU9N7X7-42wXpXPe7Tfczcir7b-SRZ6ePVIgz_9aMGos5nQ63TYtFqdSIq2XvQpPC4T4LiF7UOL4133Gat5Z7QtSKaBfcpgCnvgTA71LPF7aukWqCdxux7LCcrISK410oP1chVHZ6MsiouatLkEkpdoD3W8cKE3DDi8RXvhiZjcnxJAfGAq7R8ZSaSCzZ1UMBpTlKrk9bTlq_Um_1DGvDpx5Hwibipqe-7Jw9FVlCQzmpjAOdEvER9jQVxLFdkxDhK-lpGjQ1knl56-inqQZjzyflhE-6-lb8TjDOV1wzRkzRv3ehVtFsFln-_zQZq9UBZz3F-0G00?></g></svg>