<?xml version="1.0" encoding="UTF-8" standalone="no"?><svg xmlns="http://www.w3.org/2000/svg" xmlns:xlink="http://www.w3.org/1999/xlink" contentScriptType="application/ecmascript" contentStyleType="text/css" height="647px" preserveAspectRatio="none" style="width:884px;height:647px;background:#FEFEFE;" version="1.1" viewBox="0 0 884 647" width="884px" zoomAndPan="magnify"><defs/><g><text fill="#000000" font-family="Segoe UI" font-size="18" lengthAdjust="spacingAndGlyphs" textLength="166" x="354.75" y="41.3486">POST /notifications</text><text fill="#000000" font-family="Segoe UI" font-size="18" lengthAdjust="spacingAndGlyphs" textLength="164" x="355.75" y="62.3018">Send a notification</text><rect fill="#059669" height="354.4609" style="stroke: #6B7280; stroke-width: 1.0;" width="10" x="172.5" y="202.1094"/><rect fill="#059669" height="296.1953" style="stroke: #6B7280; stroke-width: 1.0;" width="10" x="294" y="231.2422"/><rect fill="#FEF9C3" height="29.1328" style="stroke: #6B7280; stroke-width: 1.0;" width="10" x="817.5" y="338.6406"/><line style="stroke: #6B7280; stroke-width: 1.0; stroke-dasharray: 5.0,5.0;" x1="34" x2="34" y1="135.8438" y2="574.5703"/><line style="stroke: #6B7280; stroke-width: 1.0; stroke-dasharray: 5.0,5.0;" x1="177.5" x2="177.5" y1="135.8438" y2="574.5703"/><line style="stroke: #6B7280; stroke-width: 1.0; stroke-dasharray: 5.0,5.0;" x1="298.5" x2="298.5" y1="135.8438" y2="574.5703"/><line style="stroke: #6B7280; stroke-width: 1.0; stroke-dasharray: 5.0,5.0;" x1="422.5" x2="422.5" y1="135.8438" y2="574.5703"/><line style="stroke: #6B7280; stroke-width: 1.0; stroke-dasharray: 5.0,5.0;" x1="522.5" x2="522.5" y1="135.8438" y2="574.5703"/><line style="stroke: #6B7280; stroke-width: 1.0; stroke-dasharray: 5.0,5.0;" x1="669.5" x2="669.5" y1="135.8438" y2="574.5703"/><line style="stroke: #6B7280; stroke-width: 1.0; stroke-dasharray: 5.0,5.0;" x1="822.5" x2="822.5" y1="135.8438" y2="574.5703"/><a href="/applications/" target="_top" title="/applications/" xlink:actuate="onRequest" xlink:href="/applications/" xlink:show="new" xlink:title="/applications/" xlink:type="simple"><rect fill="#F9FAFB" height="30.2969" style="stroke: #374151; stroke-width: 1.5;" width="53" x="8" y="104.5469"/><text fill="#000000" font-family="Segoe UI" font-size="14" lengthAdjust="spacingAndGlyphs" textLength="39" x="15" y="124.542">Client</text><rect fill="#F9FAFB" height="30.2969" style="stroke: #374151; stroke-width: 1.5;" width="53" x="8" y="573.5703"/><text fill="#000000" font-family="Segoe UI" font-size="14" lengthAdjust="spacingAndGlyphs" textLength="39" x="15" y="593.5654">Client</text></a><a href="/actors/#api-gateway" target="_top" title="/actors/#api-gateway" xlink:actuate="onRequest" xlink:href="/actors/#api-gateway" xlink:show="new" xlink:title="/actors/#api-gateway" xlink:type="simple"><rect fill="#E0F2FE" height="30.2969" style="stroke: #374151; stroke-width: 1.5;" width="98" x="128.5" y="104.5469"/><text fill="#000000" font-family="Segoe UI" font-size="14" lengthAdjust="spacingAndGlyphs" textLength="84" x="135.5" y="124.542">API Gateway</text><rect fill="#E0F2FE" height="30.2969" style="stroke: #374151; stroke-width: 1.5;" width="98" x="128.5" y="573.5703"/><text fill="#000000" font-family="Segoe UI" font-size="14" lengthAdjust="spacingAndGlyphs" textLength="84" x="135.5" y="593.5654">API Gateway</text></a><a href="/microservices/svc-notifications/" target="_top" title="/microservices/svc-notifications/" xlink:actuate="onRequest" xlink:href="/microservices/svc-notifications/" xlink:show="new" xlink:title="/microservices/svc-notifications/" xlink:type="simple"><rect fill="#F1F5F9" height="30.2969" style="stroke: #374151; stroke-width: 1.5;" width="125" x="236.5" y="104.5469"/><text fill="#000000" font-family="Segoe UI" font-size="14" lengthAdjust="spacingAndGlyphs" textLength="111" x="243.5" y="124.542">svc-notifications</text><rect fill="#F1F5F9" height="30.2969" style="stroke: #374151; stroke-width: 1.5;" width="125" x="236.5" y="573.5703"/><text fill="#000000" font-family="Segoe UI" font-size="14" lengthAdjust="spacingAndGlyphs" textLength="111" x="243.5" y="593.5654">svc-notifications</text></a><a href="/actors/#sendgrid-api" target="_top" title="/actors/#sendgrid-api" xlink:actuate="onRequest" xlink:href="/actors/#sendgrid-api" xlink:show="new" xlink:title="/actors/#sendgrid-api" xlink:type="simple"><rect fill="#F3F4F6" height="30.2969" style="stroke: #374151; stroke-width: 1.5;" width="103" x="371.5" y="104.5469"/><text fill="#000000" font-family="Segoe UI" font-size="14" lengthAdjust="spacingAndGlyphs" textLength="89" x="378.5" y="124.542">SendGrid API</text><rect fill="#F3F4F6" height="30.2969" style="stroke: #374151; stroke-width: 1.5;" width="103" x="371.5" y="573.5703"/><text fill="#000000" font-family="Segoe UI" font-size="14" lengthAdjust="spacingAndGlyphs" textLength="89" x="378.5" y="593.5654">SendGrid API</text></a><a href="/actors/#twilio-api" target="_top" title="/actors/#twilio-api" xlink:actuate="onRequest" xlink:href="/actors/#twilio-api" xlink:show="new" xlink:title="/actors/#twilio-api" xlink:type="simple"><rect fill="#F3F4F6" height="30.2969" style="stroke: #374151; stroke-width: 1.5;" width="77" x="484.5" y="104.5469"/><text fill="#000000" font-family="Segoe UI" font-size="14" lengthAdjust="spacingAndGlyphs" textLength="63" x="491.5" y="124.542">Twilio API</text><rect fill="#F3F4F6" height="30.2969" style="stroke: #374151; stroke-width: 1.5;" width="77" x="484.5" y="573.5703"/><text fill="#000000" font-family="Segoe UI" font-size="14" lengthAdjust="spacingAndGlyphs" textLength="63" x="491.5" y="593.5654">Twilio API</text></a><a href="/actors/#firebase-cloud-messaging" target="_top" title="/actors/#firebase-cloud-messaging" xlink:actuate="onRequest" xlink:href="/actors/#firebase-cloud-messaging" xlink:show="new" xlink:title="/actors/#firebase-cloud-messaging" xlink:type="simple"><rect fill="#F3F4F6" height="30.2969" style="stroke: #374151; stroke-width: 1.5;" width="196" x="571.5" y="104.5469"/><text fill="#000000" font-family="Segoe UI" font-size="14" lengthAdjust="spacingAndGlyphs" textLength="182" x="578.5" y="124.542">Firebase Cloud Messaging</text><rect fill="#F3F4F6" height="30.2969" style="stroke: #374151; stroke-width: 1.5;" width="196" x="571.5" y="573.5703"/><text fill="#000000" font-family="Segoe UI" font-size="14" lengthAdjust="spacingAndGlyphs" textLength="182" x="578.5" y="593.5654">Firebase Cloud Messaging</text></a><a href="/microservices/svc-notifications/#data-store" target="_top" title="/microservices/svc-notifications/#data-store" xlink:actuate="onRequest" xlink:href="/microservices/svc-notifications/#data-store" xlink:show="new" xlink:title="/microservices/svc-notifications/#data-store" xlink:type="simple"><text fill="#000000" font-family="Segoe UI" font-size="14" lengthAdjust="spacingAndGlyphs" textLength="84" x="777.5" y="132.542">PG + Valkey</text><path d="M804.5,83.5469 C804.5,73.5469 822.5,73.5469 822.5,73.5469 C822.5,73.5469 840.5,73.5469 840.5,83.5469 L840.5,109.5469 C840.5,119.5469 822.5,119.5469 822.5,119.5469 C822.5,119.5469 804.5,119.5469 804.5,109.5469 L804.5,83.5469 " fill="#FEF9C3" style="stroke: #000000; stroke-width: 1.5;"/><path d="M804.5,83.5469 C804.5,93.5469 822.5,93.5469 822.5,93.5469 C822.5,93.5469 840.5,93.5469 840.5,83.5469 " fill="none" style="stroke: #000000; stroke-width: 1.5;"/><text fill="#000000" font-family="Segoe UI" font-size="14" lengthAdjust="spacingAndGlyphs" textLength="84" x="777.5" y="586.5654">PG + Valkey</text><path d="M804.5,599.8672 C804.5,589.8672 822.5,589.8672 822.5,589.8672 C822.5,589.8672 840.5,589.8672 840.5,599.8672 L840.5,625.8672 C840.5,635.8672 822.5,635.8672 822.5,635.8672 C822.5,635.8672 804.5,635.8672 804.5,625.8672 L804.5,599.8672 " fill="#FEF9C3" style="stroke: #000000; stroke-width: 1.5;"/><path d="M804.5,599.8672 C804.5,609.8672 822.5,609.8672 822.5,609.8672 C822.5,609.8672 840.5,609.8672 840.5,599.8672 " fill="none" style="stroke: #000000; stroke-width: 1.5;"/></a><rect fill="#059669" height="354.4609" style="stroke: #6B7280; stroke-width: 1.0;" width="10" x="172.5" y="202.1094"/><rect fill="#059669" height="296.1953" style="stroke: #6B7280; stroke-width: 1.0;" width="10" x="294" y="231.2422"/><rect fill="#FEF9C3" height="29.1328" style="stroke: #6B7280; stroke-width: 1.0;" width="10" x="817.5" y="338.6406"/><path d="M228,150.8438 L228,175.8438 L369,175.8438 L369,160.8438 L359,150.8438 L228,150.8438 " fill="#FBFB77" style="stroke: #A80036; stroke-width: 1.0;"/><path d="M359,150.8438 L359,160.8438 L369,160.8438 L359,150.8438 " fill="#FBFB77" style="stroke: #A80036; stroke-width: 1.0;"/><a href="/services/api/svc-notifications.html#/Notifications/sendNotification" target="_top" title="/services/api/svc-notifications.html#/Notifications/sendNotification" xlink:actuate="onRequest" xlink:href="/services/api/svc-notifications.html#/Notifications/sendNotification" xlink:show="new" xlink:title="/services/api/svc-notifications.html#/Notifications/sendNotification" xlink:type="simple"><text fill="#0000FF" font-family="Segoe UI" font-size="13" lengthAdjust="spacingAndGlyphs" text-decoration="underline" textLength="120" x="234" y="167.9106">View in Swagger UI</text></a><polygon fill="#059669" points="160.5,198.1094,170.5,202.1094,160.5,206.1094,164.5,202.1094" style="stroke: #059669; stroke-width: 1.0;"/><line style="stroke: #059669; stroke-width: 1.0;" x1="34.5" x2="166.5" y1="202.1094" y2="202.1094"/><text fill="#000000" font-family="Segoe UI" font-size="13" lengthAdjust="spacingAndGlyphs" textLength="119" x="41.5" y="197.0435">POST /notifications</text><polygon fill="#059669" points="282,227.2422,292,231.2422,282,235.2422,286,231.2422" style="stroke: #059669; stroke-width: 1.0;"/><line style="stroke: #059669; stroke-width: 1.0;" x1="182.5" x2="288" y1="231.2422" y2="231.2422"/><text fill="#000000" font-family="Segoe UI" font-size="13" lengthAdjust="spacingAndGlyphs" textLength="87" x="189.5" y="226.1763">route request</text><path d="M309,244.2422 L309,269.2422 L470,269.2422 L470,254.2422 L460,244.2422 L309,244.2422 " fill="#FBFB77" style="stroke: #A80036; stroke-width: 1.0;"/><path d="M460,244.2422 L460,254.2422 L470,254.2422 L460,244.2422 " fill="#FBFB77" style="stroke: #A80036; stroke-width: 1.0;"/><text fill="#000000" font-family="Segoe UI" font-size="13" lengthAdjust="spacingAndGlyphs" textLength="140" x="315" y="261.3091">Validate request body</text><rect fill="#EEEEEE" height="3" style="stroke: #EEEEEE; stroke-width: 1.0;" width="869.5" x="3" y="294.9414"/><line style="stroke: #000000; stroke-width: 1.0;" x1="3" x2="872.5" y1="294.9414" y2="294.9414"/><line style="stroke: #000000; stroke-width: 1.0;" x1="3" x2="872.5" y1="297.9414" y2="297.9414"/><rect fill="#EEEEEE" height="23.1328" style="stroke: #000000; stroke-width: 2.0;" width="90" x="392.75" y="284.375"/><text fill="#000000" font-family="Segoe UI" font-size="13" font-weight="bold" lengthAdjust="spacingAndGlyphs" textLength="71" x="398.75" y="300.4419">Database</text><polygon fill="#059669" points="805.5,334.6406,815.5,338.6406,805.5,342.6406,809.5,338.6406" style="stroke: #059669; stroke-width: 1.0;"/><line style="stroke: #059669; stroke-width: 1.0;" x1="304" x2="811.5" y1="338.6406" y2="338.6406"/><text fill="#000000" font-family="Segoe UI" font-size="13" lengthAdjust="spacingAndGlyphs" textLength="95" x="311" y="333.5747">INSERT INTO ...</text><polygon fill="#059669" points="315,363.7734,305,367.7734,315,371.7734,311,367.7734" style="stroke: #059669; stroke-width: 1.0;"/><line style="stroke: #059669; stroke-width: 1.0; stroke-dasharray: 2.0,2.0;" x1="309" x2="821.5" y1="367.7734" y2="367.7734"/><text fill="#000000" font-family="Segoe UI" font-size="13" lengthAdjust="spacingAndGlyphs" textLength="77" x="321" y="362.7075">Created row</text><rect fill="#EEEEEE" height="3" style="stroke: #EEEEEE; stroke-width: 1.0;" width="869.5" x="3" y="396.3398"/><line style="stroke: #000000; stroke-width: 1.0;" x1="3" x2="872.5" y1="396.3398" y2="396.3398"/><line style="stroke: #000000; stroke-width: 1.0;" x1="3" x2="872.5" y1="399.3398" y2="399.3398"/><rect fill="#EEEEEE" height="23.1328" style="stroke: #000000; stroke-width: 2.0;" width="116" x="379.75" y="385.7734"/><text fill="#000000" font-family="Segoe UI" font-size="13" font-weight="bold" lengthAdjust="spacingAndGlyphs" textLength="97" x="385.75" y="401.8403">Async Events</text><line style="stroke: #059669; stroke-width: 1.0;" x1="421" x2="411" y1="440.0391" y2="436.0391"/><line style="stroke: #059669; stroke-width: 1.0;" x1="421" x2="411" y1="440.0391" y2="444.0391"/><line style="stroke: #059669; stroke-width: 1.0;" x1="304" x2="422" y1="440.0391" y2="440.0391"/><text fill="#000000" font-family="Segoe UI" font-size="13" lengthAdjust="spacingAndGlyphs" textLength="83" x="311" y="434.9731">Deliver email</text><line style="stroke: #059669; stroke-width: 1.0;" x1="521" x2="511" y1="469.1719" y2="465.1719"/><line style="stroke: #059669; stroke-width: 1.0;" x1="521" x2="511" y1="469.1719" y2="473.1719"/><line style="stroke: #059669; stroke-width: 1.0;" x1="304" x2="522" y1="469.1719" y2="469.1719"/><text fill="#000000" font-family="Segoe UI" font-size="13" lengthAdjust="spacingAndGlyphs" textLength="77" x="311" y="464.106">Deliver SMS</text><line style="stroke: #059669; stroke-width: 1.0;" x1="667.5" x2="657.5" y1="498.3047" y2="494.3047"/><line style="stroke: #059669; stroke-width: 1.0;" x1="667.5" x2="657.5" y1="498.3047" y2="502.3047"/><line style="stroke: #059669; stroke-width: 1.0;" x1="304" x2="668.5" y1="498.3047" y2="498.3047"/><text fill="#000000" font-family="Segoe UI" font-size="13" lengthAdjust="spacingAndGlyphs" textLength="142" x="311" y="493.2388">Send push notification</text><polygon fill="#059669" points="193.5,523.4375,183.5,527.4375,193.5,531.4375,189.5,527.4375" style="stroke: #059669; stroke-width: 1.0;"/><line style="stroke: #059669; stroke-width: 1.0; stroke-dasharray: 2.0,2.0;" x1="187.5" x2="298" y1="527.4375" y2="527.4375"/><text fill="#000000" font-family="Segoe UI" font-size="13" lengthAdjust="spacingAndGlyphs" textLength="79" x="199.5" y="522.3716">201 Created</text><polygon fill="#059669" points="45.5,552.5703,35.5,556.5703,45.5,560.5703,41.5,556.5703" style="stroke: #059669; stroke-width: 1.0;"/><line style="stroke: #059669; stroke-width: 1.0; stroke-dasharray: 2.0,2.0;" x1="39.5" x2="176.5" y1="556.5703" y2="556.5703"/><text fill="#000000" font-family="Segoe UI" font-size="13" lengthAdjust="spacingAndGlyphs" textLength="79" x="51.5" y="551.5044">201 Created</text><a href="/microservices/svc-notifications/#integration-context" target="_top" title="/microservices/svc-notifications/#integration-context" xlink:actuate="onRequest" xlink:href="/microservices/svc-notifications/#integration-context" xlink:show="new" xlink:title="/microservices/svc-notifications/#integration-context" xlink:type="simple"><text fill="#0000FF" font-family="Segoe UI" font-size="10" lengthAdjust="spacingAndGlyphs" text-decoration="underline" textLength="188" x="684.5" y="12.2822">⬆ svc-notifications Integration Context</text></a><!--MD5=[396cd27e4824766bef6c3f01b4b9047d]
@startuml svc-notifications- -post-notifications

skinparam backgroundColor #FEFEFE
skinparam shadowing false
skinparam defaultFontName "Segoe UI"
skinparam sequence {
    ArrowColor #059669
    ParticipantBorderColor #374151
    ParticipantBackgroundColor #F9FAFB
    LifeLineBorderColor #6B7280
    BoxBorderColor #94A3B8
    BoxBackgroundColor #F8FAFC
    NoteBorderColor #64748B
    NoteBackgroundColor #F8FAFC
}

header [[/microservices/svc-notifications/#integration-context ⬆ svc-notifications Integration Context]]

title POST /notifications\nSend a notification

participant "Client" as Client [[/applications/]]
participant "API Gateway" as GW [[/actors/#api-gateway]] #E0F2FE
participant "svc-notifications" as Svc [[/microservices/svc-notifications/]] #F1F5F9
participant "SendGrid API" as SG [[/actors/#sendgrid-api]] #F3F4F6
participant "Twilio API" as TW [[/actors/#twilio-api]] #F3F4F6
participant "Firebase Cloud Messaging" as FCM [[/actors/#firebase-cloud-messaging]] #F3F4F6
database "PG + Valkey" as DB [[/microservices/svc-notifications/#data-store]] #FEF9C3

note over Svc
  [[/services/api/svc-notifications.html#/Notifications/sendNotification View in Swagger UI]]
end note

Client -> GW : POST /notifications
activate GW #059669
GW -> Svc : route request
activate Svc #059669

note right of Svc : Validate request body

== Database ==

Svc -> DB : INSERT INTO ...
activate DB #FEF9C3
DB - -> Svc : Created row
deactivate DB

== Async Events ==

Svc ->> SG : Deliver email
Svc ->> TW : Deliver SMS
Svc ->> FCM : Send push notification

Svc - -> GW : 201 Created
deactivate Svc
GW - -> Client : 201 Created
deactivate GW

@enduml

PlantUML version 1.2020.02(Sun Mar 01 10:22:07 UTC 2020)
(GPL source distribution)
Java Runtime: OpenJDK Runtime Environment
JVM: OpenJDK 64-Bit Server VM
Java Version: 17.0.18+8
Operating System: Linux
Default Encoding: UTF-8
Language: en
Country: null
--></g></svg>