<svg xmlns="http://www.w3.org/2000/svg" xmlns:xlink="http://www.w3.org/1999/xlink" contentStyleType="text/css" data-diagram-type="SEQUENCE" height="474px" preserveAspectRatio="none" style="width:525px;height:474px;background:#FEFEFE;" version="1.1" viewBox="0 0 525 474" width="525px" zoomAndPan="magnify"><title>GET /partners</title><defs/><g><rect fill="#FEFEFE" height="474" style="stroke:none;stroke-width:1;" width="525" x="0" y="0"/><text fill="#000000" font-family="Segoe UI" font-size="14" font-weight="bold" lengthAdjust="spacing" textLength="102.2588" x="207.7126" y="28.5352">GET /partners</text><text fill="#000000" font-family="Segoe UI" font-size="14" font-weight="bold" lengthAdjust="spacing" textLength="170.7275" x="173.4783" y="45.0234">List registered partners</text><g><title>API Gateway</title><rect fill="#2563EB" height="189.8633" style="stroke:#A23B72;stroke-width:1;" width="10" x="139.1436" y="188.0859"/></g><g><title>svc-partner-integrations</title><rect fill="#2563EB" height="131.2422" style="stroke:#A23B72;stroke-width:1;" width="10" x="289.0068" y="217.3965"/></g><g><title>PostgreSQL</title><rect fill="#FCE4EC" height="29.3105" style="stroke:#A23B72;stroke-width:1;" width="10" x="467.2593" y="290.0176"/></g><g><title>Client</title><rect fill="#000000" fill-opacity="0.00000" height="274.4844" width="8" x="27.7524" y="121.4648"/><line style="stroke:#A23B72;stroke-width:0.5;stroke-dasharray:5,5;" x1="31" x2="31" y1="121.4648" y2="395.9492"/></g><g><title>API Gateway</title><rect fill="#000000" fill-opacity="0.00000" height="274.4844" width="8" x="140.1436" y="121.4648"/><line style="stroke:#A23B72;stroke-width:0.5;stroke-dasharray:5,5;" x1="143.8545" x2="143.8545" y1="121.4648" y2="395.9492"/></g><g><title>svc-partner-integrations</title><rect fill="#000000" fill-opacity="0.00000" height="274.4844" width="8" x="290.0068" y="121.4648"/><line style="stroke:#A23B72;stroke-width:0.5;stroke-dasharray:5,5;" x1="293.4326" x2="293.4326" y1="121.4648" y2="395.9492"/></g><g><title>PostgreSQL</title><rect fill="#000000" fill-opacity="0.00000" height="274.4844" width="8" x="468.2593" y="121.4648"/><line style="stroke:#A23B72;stroke-width:0.5;stroke-dasharray:5,5;" x1="471.8345" x2="471.8345" y1="121.4648" y2="395.9492"/></g><g class="participant participant-head" data-participant="Client"><rect fill="#E8F4F8" height="30.4883" rx="2.5" ry="2.5" style="stroke:#2E86AB;stroke-width:0.5;" width="53.5049" x="5" y="89.9766"/><text fill="#000000" font-family="Segoe UI" font-size="14" lengthAdjust="spacing" textLength="39.5049" x="12" y="110.5117">Client</text></g><g class="participant participant-tail" data-participant="Client"><rect fill="#E8F4F8" height="30.4883" rx="2.5" ry="2.5" style="stroke:#2E86AB;stroke-width:0.5;" width="53.5049" x="5" y="394.9492"/><text fill="#000000" font-family="Segoe UI" font-size="14" lengthAdjust="spacing" textLength="39.5049" x="12" y="415.4844">Client</text></g><g class="participant participant-head" data-participant="GW"><rect fill="#DBEAFE" height="30.4883" rx="2.5" ry="2.5" style="stroke:#2E86AB;stroke-width:0.5;" width="96.5781" x="95.8545" y="89.9766"/><text fill="#000000" font-family="Segoe UI" font-size="14" lengthAdjust="spacing" textLength="82.5781" x="102.8545" y="110.5117">API Gateway</text></g><g class="participant participant-tail" data-participant="GW"><rect fill="#DBEAFE" height="30.4883" rx="2.5" ry="2.5" style="stroke:#2E86AB;stroke-width:0.5;" width="96.5781" x="95.8545" y="394.9492"/><text fill="#000000" font-family="Segoe UI" font-size="14" lengthAdjust="spacing" textLength="82.5781" x="102.8545" y="415.4844">API Gateway</text></g><g class="participant participant-head" data-participant="Svc"><a href="/microservices/svc-partner-integrations/" target="_top" title="/microservices/svc-partner-integrations/" xlink:actuate="onRequest" xlink:href="/microservices/svc-partner-integrations/" xlink:show="new" xlink:title="/microservices/svc-partner-integrations/" xlink:type="simple"><rect fill="#E8F4F8" height="30.4883" rx="2.5" ry="2.5" style="stroke:#2E86AB;stroke-width:0.5;" width="183.1484" x="202.4326" y="89.9766"/><text fill="#000000" font-family="Segoe UI" font-size="14" lengthAdjust="spacing" textLength="169.1484" x="209.4326" y="110.5117">svc-partner-integrations</text></a></g><g class="participant participant-tail" data-participant="Svc"><a href="/microservices/svc-partner-integrations/" target="_top" title="/microservices/svc-partner-integrations/" xlink:actuate="onRequest" xlink:href="/microservices/svc-partner-integrations/" xlink:show="new" xlink:title="/microservices/svc-partner-integrations/" xlink:type="simple"><rect fill="#E8F4F8" height="30.4883" rx="2.5" ry="2.5" style="stroke:#2E86AB;stroke-width:0.5;" width="183.1484" x="202.4326" y="394.9492"/><text fill="#000000" font-family="Segoe UI" font-size="14" lengthAdjust="spacing" textLength="169.1484" x="209.4326" y="415.4844">svc-partner-integrations</text></a></g><g class="participant participant-head" data-participant="DB"><text fill="#000000" font-family="Segoe UI" font-size="14" lengthAdjust="spacing" textLength="76.8496" x="430.8345" y="118.5117">PostgreSQL</text><path d="M454.2593,68.9766 C454.2593,58.9766 472.2593,58.9766 472.2593,58.9766 C472.2593,58.9766 490.2593,58.9766 490.2593,68.9766 L490.2593,94.9766 C490.2593,104.9766 472.2593,104.9766 472.2593,104.9766 C472.2593,104.9766 454.2593,104.9766 454.2593,94.9766 L454.2593,68.9766" fill="#FCE4EC" style="stroke:#181818;stroke-width:0.5;"/><path d="M454.2593,68.9766 C454.2593,78.9766 472.2593,78.9766 472.2593,78.9766 C472.2593,78.9766 490.2593,78.9766 490.2593,68.9766" fill="none" style="stroke:#181818;stroke-width:0.5;"/></g><g class="participant participant-tail" data-participant="DB"><text fill="#000000" font-family="Segoe UI" font-size="14" lengthAdjust="spacing" textLength="76.8496" x="430.8345" y="408.4844">PostgreSQL</text><path d="M454.2593,421.4375 C454.2593,411.4375 472.2593,411.4375 472.2593,411.4375 C472.2593,411.4375 490.2593,411.4375 490.2593,421.4375 L490.2593,447.4375 C490.2593,457.4375 472.2593,457.4375 472.2593,457.4375 C472.2593,457.4375 454.2593,457.4375 454.2593,447.4375 L454.2593,421.4375" fill="#FCE4EC" style="stroke:#181818;stroke-width:0.5;"/><path d="M454.2593,421.4375 C454.2593,431.4375 472.2593,431.4375 472.2593,431.4375 C472.2593,431.4375 490.2593,431.4375 490.2593,421.4375" fill="none" style="stroke:#181818;stroke-width:0.5;"/></g><g><title>API Gateway</title><rect fill="#2563EB" height="189.8633" style="stroke:#A23B72;stroke-width:1;" width="10" x="139.1436" y="188.0859"/></g><g><title>svc-partner-integrations</title><rect fill="#2563EB" height="131.2422" style="stroke:#A23B72;stroke-width:1;" width="10" x="289.0068" y="217.3965"/></g><g><title>PostgreSQL</title><rect fill="#FCE4EC" height="29.3105" style="stroke:#A23B72;stroke-width:1;" width="10" x="467.2593" y="290.0176"/></g><path d="M223,136.4648 L223,161.4648 L363,161.4648 L363,146.4648 L353,136.4648 L223,136.4648" fill="#FEFFDD" style="stroke:#181818;stroke-width:0.5;"/><path d="M353,136.4648 L353,146.4648 L363,146.4648 L353,136.4648" fill="#FEFFDD" style="stroke:#181818;stroke-width:0.5;"/><a href="/services/api/svc-partner-integrations.html#/Partners/listPartners" target="_top" title="/services/api/svc-partner-integrations.html#/Partners/listPartners" xlink:actuate="onRequest" xlink:href="/services/api/svc-partner-integrations.html#/Partners/listPartners" xlink:show="new" xlink:title="/services/api/svc-partner-integrations.html#/Partners/listPartners" xlink:type="simple"><text fill="#0000FF" font-family="Segoe UI" font-size="13" lengthAdjust="spacing" text-decoration="underline" textLength="119.4058" x="229" y="154.0332">View in Swagger UI</text></a><g class="message" data-participant-1="Client" data-participant-2="GW"><polygon fill="#2563EB" points="127.1436,184.0859,137.1436,188.0859,127.1436,192.0859,131.1436,188.0859" style="stroke:#2563EB;stroke-width:1;"/><line style="stroke:#2563EB;stroke-width:1;" x1="31.7524" x2="133.1436" y1="188.0859" y2="188.0859"/><text fill="#000000" font-family="Segoe UI" font-size="13" lengthAdjust="spacing" textLength="88.3911" x="38.7524" y="183.3438">GET /partners</text></g><g class="message" data-participant-1="GW" data-participant-2="Svc"><polygon fill="#2563EB" points="277.0068,213.3965,287.0068,217.3965,277.0068,221.3965,281.0068,217.3965" style="stroke:#2563EB;stroke-width:1;"/><line style="stroke:#2563EB;stroke-width:1;" x1="149.1436" x2="283.0068" y1="217.3965" y2="217.3965"/><text fill="#000000" font-family="Segoe UI" font-size="13" lengthAdjust="spacing" textLength="85.1348" x="156.1436" y="212.6543">route request</text></g><rect fill="#EEEEEE" height="3" style="stroke:#EEEEEE;stroke-width:1;" width="518.6841" x="0" y="246.0518"/><line style="stroke:#000000;stroke-width:1;" x1="0" x2="518.6841" y1="246.0518" y2="246.0518"/><line style="stroke:#000000;stroke-width:1;" x1="0" x2="518.6841" y1="249.0518" y2="249.0518"/><rect fill="#EEEEEE" height="23.3105" style="stroke:#000000;stroke-width:2;" width="80.3711" x="219.1565" y="235.3965"/><text fill="#000000" font-family="Segoe UI" font-size="13" font-weight="bold" lengthAdjust="spacing" textLength="62.0864" x="225.1565" y="251.9648">Database</text><g class="message" data-participant-1="Svc" data-participant-2="DB"><polygon fill="#2563EB" points="455.2593,286.0176,465.2593,290.0176,455.2593,294.0176,459.2593,290.0176" style="stroke:#2563EB;stroke-width:1;"/><line style="stroke:#2563EB;stroke-width:1;" x1="299.0068" x2="461.2593" y1="290.0176" y2="290.0176"/><text fill="#000000" font-family="Segoe UI" font-size="13" lengthAdjust="spacing" textLength="149.2524" x="306.0068" y="285.2754">SELECT ... WHERE filters</text></g><g class="message" data-participant-1="DB" data-participant-2="Svc"><polygon fill="#2563EB" points="310.0068,315.3281,300.0068,319.3281,310.0068,323.3281,306.0068,319.3281" style="stroke:#2563EB;stroke-width:1;"/><line style="stroke:#2563EB;stroke-width:1;stroke-dasharray:2,2;" x1="304.0068" x2="471.2593" y1="319.3281" y2="319.3281"/><text fill="#000000" font-family="Segoe UI" font-size="13" lengthAdjust="spacing" textLength="93.209" x="316.0068" y="314.5859">Page of results</text></g><g class="message" data-participant-1="Svc" data-participant-2="GW"><polygon fill="#2563EB" points="160.1436,344.6387,150.1436,348.6387,160.1436,352.6387,156.1436,348.6387" style="stroke:#2563EB;stroke-width:1;"/><line style="stroke:#2563EB;stroke-width:1;stroke-dasharray:2,2;" x1="154.1436" x2="293.0068" y1="348.6387" y2="348.6387"/><text fill="#000000" font-family="Segoe UI" font-size="13" lengthAdjust="spacing" textLength="47.3599" x="166.1436" y="343.8965">200 OK</text></g><g class="message" data-participant-1="GW" data-participant-2="Client"><polygon fill="#2563EB" points="42.7524,373.9492,32.7524,377.9492,42.7524,381.9492,38.7524,377.9492" style="stroke:#2563EB;stroke-width:1;"/><line style="stroke:#2563EB;stroke-width:1;stroke-dasharray:2,2;" x1="36.7524" x2="143.1436" y1="377.9492" y2="377.9492"/><text fill="#000000" font-family="Segoe UI" font-size="13" lengthAdjust="spacing" textLength="47.3599" x="48.7524" y="373.207">200 OK</text></g><!--SRC=[TPDHSvf058NVzrVSqMV5Q1eTP-oCw6ATEgajINr8VLZXIdQ2ktPtnNOw_U-z433G9F30mZdt7kwtO9-aEWeZ3h0JqLDYz4d5Cvrg0-s0voUp5uTz5B4-IvN0NgGMQqgCUt5ANQ2LknK7X5Q8YKQuNxRgvVZpX2f2-CE0Zgan-bn6zJ_S371NF5uBusGaZq8vNviOJMNXevkf_yho_qlpKN0TZ0hRIkvn9HKssapx0t_OBtHV_sf8mTKew5rTf5SuWe3qGhxLhjar6WvtWvhs1ie17xA_Z3dfKeG5lmEFg3Y5nlvGAsaT64peWWPZg1J6ZY-ZGckMIbIk1SB2yx8fJzTBM0Y7P_6xy2msq9xxV4fxsF3PBEgK2Hsf72P6EAcLBOh2B8A71-yW8wCjcan6QBttAhpjza8y5axiXAMzNslh4eFXrrNHSUxJ_3D-pMUCAO83EaEJvn0kIhg4YADyDwZxw0vfsrkNNBoKI5Kty5tY6QI2y2oIX5hVBxTRXYg6F8snPrJG-PW36JVHCn4vcH6p0bRv5TAIp3c8CT0cacZoBzUw5tSkLdOscS2y6duoOImNgG7DFOQGh_Zi3hhTBcm-yMySzZ9rZU0Q7bfsBibhaH2gFMLR-hCiYx5MKePKC_LxFVZokMx9yUPpaAES_otNOiF-0G00]--></g></svg>