<svg xmlns="http://www.w3.org/2000/svg" xmlns:xlink="http://www.w3.org/1999/xlink" contentStyleType="text/css" data-diagram-type="SEQUENCE" height="576px" preserveAspectRatio="none" style="width:646px;height:576px;background:#FEFEFE;" version="1.1" viewBox="0 0 646 576" width="646px" zoomAndPan="magnify"><title>GET /weather/forecast</title><defs/><g><rect fill="#FEFEFE" height="576" style="stroke:none;stroke-width:1;" width="646" x="0" y="0"/><text fill="#000000" font-family="Segoe UI" font-size="14" font-weight="bold" lengthAdjust="spacing" textLength="165.4844" x="236.6191" y="28.5352">GET /weather/forecast</text><text fill="#000000" font-family="Segoe UI" font-size="14" font-weight="bold" lengthAdjust="spacing" textLength="150.0762" x="244.3232" y="45.0234">Get weather forecast</text><g><title>API Gateway</title><rect fill="#2563EB" height="291.7949" style="stroke:#A23B72;stroke-width:1;" width="10" x="193.7461" y="188.0859"/></g><g><title>svc-weather</title><rect fill="#2563EB" height="233.1738" style="stroke:#A23B72;stroke-width:1;" width="10" x="307.8809" y="217.3965"/></g><g><title>Weather API</title><rect fill="#DBEAFE" height="29.3105" style="stroke:#A23B72;stroke-width:1;" width="10" x="491.8208" y="290.0176"/></g><g><title>Redis . PG</title><rect fill="#FCE4EC" height="29.3105" style="stroke:#A23B72;stroke-width:1;" width="10" x="589.4771" y="391.9492"/></g><g><title>Client</title><rect fill="#000000" fill-opacity="0.00000" height="376.416" width="8" x="27.7524" y="121.4648"/><line style="stroke:#A23B72;stroke-width:0.5;stroke-dasharray:5,5;" x1="31" x2="31" y1="121.4648" y2="497.8809"/></g><g><title>API Gateway</title><rect fill="#000000" fill-opacity="0.00000" height="376.416" width="8" x="194.7461" y="121.4648"/><line style="stroke:#A23B72;stroke-width:0.5;stroke-dasharray:5,5;" x1="198.457" x2="198.457" y1="121.4648" y2="497.8809"/></g><g><title>svc-weather</title><rect fill="#000000" fill-opacity="0.00000" height="376.416" width="8" x="308.8809" y="121.4648"/><line style="stroke:#A23B72;stroke-width:0.5;stroke-dasharray:5,5;" x1="312.168" x2="312.168" y1="121.4648" y2="497.8809"/></g><g><title>Weather API</title><rect fill="#000000" fill-opacity="0.00000" height="376.416" width="8" x="492.8208" y="121.4648"/><line style="stroke:#A23B72;stroke-width:0.5;stroke-dasharray:5,5;" x1="496.4102" x2="496.4102" y1="121.4648" y2="497.8809"/></g><g><title>Redis . PG</title><rect fill="#000000" fill-opacity="0.00000" height="376.416" width="8" x="590.4771" y="121.4648"/><line style="stroke:#A23B72;stroke-width:0.5;stroke-dasharray:5,5;" x1="594.2314" x2="594.2314" y1="121.4648" y2="497.8809"/></g><g class="participant participant-head" data-participant="Client"><rect fill="#E8F4F8" height="30.4883" rx="2.5" ry="2.5" style="stroke:#2E86AB;stroke-width:0.5;" width="53.5049" x="5" y="89.9766"/><text fill="#000000" font-family="Segoe UI" font-size="14" lengthAdjust="spacing" textLength="39.5049" x="12" y="110.5117">Client</text></g><g class="participant participant-tail" data-participant="Client"><rect fill="#E8F4F8" height="30.4883" rx="2.5" ry="2.5" style="stroke:#2E86AB;stroke-width:0.5;" width="53.5049" x="5" y="496.8809"/><text fill="#000000" font-family="Segoe UI" font-size="14" lengthAdjust="spacing" textLength="39.5049" x="12" y="517.416">Client</text></g><g class="participant participant-head" data-participant="GW"><rect fill="#DBEAFE" height="30.4883" rx="2.5" ry="2.5" style="stroke:#2E86AB;stroke-width:0.5;" width="96.5781" x="150.457" y="89.9766"/><text fill="#000000" font-family="Segoe UI" font-size="14" lengthAdjust="spacing" textLength="82.5781" x="157.457" y="110.5117">API Gateway</text></g><g class="participant participant-tail" data-participant="GW"><rect fill="#DBEAFE" height="30.4883" rx="2.5" ry="2.5" style="stroke:#2E86AB;stroke-width:0.5;" width="96.5781" x="150.457" y="496.8809"/><text fill="#000000" font-family="Segoe UI" font-size="14" lengthAdjust="spacing" textLength="82.5781" x="157.457" y="517.416">API Gateway</text></g><g class="participant participant-head" data-participant="Svc"><a href="/microservices/svc-weather/" target="_top" title="/microservices/svc-weather/" xlink:actuate="onRequest" xlink:href="/microservices/svc-weather/" xlink:show="new" xlink:title="/microservices/svc-weather/" xlink:type="simple"><rect fill="#E8F4F8" height="30.4883" rx="2.5" ry="2.5" style="stroke:#2E86AB;stroke-width:0.5;" width="97.4258" x="264.168" y="89.9766"/><text fill="#000000" font-family="Segoe UI" font-size="14" lengthAdjust="spacing" textLength="83.4258" x="271.168" y="110.5117">svc-weather</text></a></g><g class="participant participant-tail" data-participant="Svc"><a href="/microservices/svc-weather/" target="_top" title="/microservices/svc-weather/" xlink:actuate="onRequest" xlink:href="/microservices/svc-weather/" xlink:show="new" xlink:title="/microservices/svc-weather/" xlink:type="simple"><rect fill="#E8F4F8" height="30.4883" rx="2.5" ry="2.5" style="stroke:#2E86AB;stroke-width:0.5;" width="97.4258" x="264.168" y="496.8809"/><text fill="#000000" font-family="Segoe UI" font-size="14" lengthAdjust="spacing" textLength="83.4258" x="271.168" y="517.416">svc-weather</text></a></g><g class="participant participant-head" data-participant="ExtWx"><rect fill="#F5F5F5" height="30.4883" rx="2.5" ry="2.5" style="stroke:#2E86AB;stroke-width:0.5;" width="94.8213" x="449.4102" y="89.9766"/><text fill="#000000" font-family="Segoe UI" font-size="14" lengthAdjust="spacing" textLength="80.8213" x="456.4102" y="110.5117">Weather API</text></g><g class="participant participant-tail" data-participant="ExtWx"><rect fill="#F5F5F5" height="30.4883" rx="2.5" ry="2.5" style="stroke:#2E86AB;stroke-width:0.5;" width="94.8213" x="449.4102" y="496.8809"/><text fill="#000000" font-family="Segoe UI" font-size="14" lengthAdjust="spacing" textLength="80.8213" x="456.4102" y="517.416">Weather API</text></g><g class="participant participant-head" data-participant="DB"><text fill="#000000" font-family="Segoe UI" font-size="14" lengthAdjust="spacing" textLength="74.4912" x="554.2314" y="118.5117">Redis + PG</text><path d="M576.4771,68.9766 C576.4771,58.9766 594.4771,58.9766 594.4771,58.9766 C594.4771,58.9766 612.4771,58.9766 612.4771,68.9766 L612.4771,94.9766 C612.4771,104.9766 594.4771,104.9766 594.4771,104.9766 C594.4771,104.9766 576.4771,104.9766 576.4771,94.9766 L576.4771,68.9766" fill="#FCE4EC" style="stroke:#181818;stroke-width:0.5;"/><path d="M576.4771,68.9766 C576.4771,78.9766 594.4771,78.9766 594.4771,78.9766 C594.4771,78.9766 612.4771,78.9766 612.4771,68.9766" fill="none" style="stroke:#181818;stroke-width:0.5;"/></g><g class="participant participant-tail" data-participant="DB"><text fill="#000000" font-family="Segoe UI" font-size="14" lengthAdjust="spacing" textLength="74.4912" x="554.2314" y="510.416">Redis + PG</text><path d="M576.4771,523.3691 C576.4771,513.3691 594.4771,513.3691 594.4771,513.3691 C594.4771,513.3691 612.4771,513.3691 612.4771,523.3691 L612.4771,549.3691 C612.4771,559.3691 594.4771,559.3691 594.4771,559.3691 C594.4771,559.3691 576.4771,559.3691 576.4771,549.3691 L576.4771,523.3691" fill="#FCE4EC" style="stroke:#181818;stroke-width:0.5;"/><path d="M576.4771,523.3691 C576.4771,533.3691 594.4771,533.3691 594.4771,533.3691 C594.4771,533.3691 612.4771,533.3691 612.4771,523.3691" fill="none" style="stroke:#181818;stroke-width:0.5;"/></g><g><title>API Gateway</title><rect fill="#2563EB" height="291.7949" style="stroke:#A23B72;stroke-width:1;" width="10" x="193.7461" y="188.0859"/></g><g><title>svc-weather</title><rect fill="#2563EB" height="233.1738" style="stroke:#A23B72;stroke-width:1;" width="10" x="307.8809" y="217.3965"/></g><g><title>Weather API</title><rect fill="#DBEAFE" height="29.3105" style="stroke:#A23B72;stroke-width:1;" width="10" x="491.8208" y="290.0176"/></g><g><title>Redis . PG</title><rect fill="#FCE4EC" height="29.3105" style="stroke:#A23B72;stroke-width:1;" width="10" x="589.4771" y="391.9492"/></g><path d="M242,136.4648 L242,161.4648 L382,161.4648 L382,146.4648 L372,136.4648 L242,136.4648" fill="#FEFFDD" style="stroke:#181818;stroke-width:0.5;"/><path d="M372,136.4648 L372,146.4648 L382,146.4648 L372,136.4648" fill="#FEFFDD" style="stroke:#181818;stroke-width:0.5;"/><a href="/services/api/svc-weather.html#/Weather/getWeatherForecast" target="_top" title="/services/api/svc-weather.html#/Weather/getWeatherForecast" xlink:actuate="onRequest" xlink:href="/services/api/svc-weather.html#/Weather/getWeatherForecast" xlink:show="new" xlink:title="/services/api/svc-weather.html#/Weather/getWeatherForecast" xlink:type="simple"><text fill="#0000FF" font-family="Segoe UI" font-size="13" lengthAdjust="spacing" text-decoration="underline" textLength="119.4058" x="248" y="154.0332">View in Swagger UI</text></a><g class="message" data-participant-1="Client" data-participant-2="GW"><polygon fill="#2563EB" points="181.7461,184.0859,191.7461,188.0859,181.7461,192.0859,185.7461,188.0859" style="stroke:#2563EB;stroke-width:1;"/><line style="stroke:#2563EB;stroke-width:1;" x1="31.7524" x2="187.7461" y1="188.0859" y2="188.0859"/><text fill="#000000" font-family="Segoe UI" font-size="13" lengthAdjust="spacing" textLength="142.9937" x="38.7524" y="183.3438">GET /weather/forecast</text></g><g class="message" data-participant-1="GW" data-participant-2="Svc"><polygon fill="#2563EB" points="295.8809,213.3965,305.8809,217.3965,295.8809,221.3965,299.8809,217.3965" style="stroke:#2563EB;stroke-width:1;"/><line style="stroke:#2563EB;stroke-width:1;" x1="203.7461" x2="301.8809" y1="217.3965" y2="217.3965"/><text fill="#000000" font-family="Segoe UI" font-size="13" lengthAdjust="spacing" textLength="85.1348" x="210.7461" y="212.6543">route request</text></g><rect fill="#EEEEEE" height="3" style="stroke:#EEEEEE;stroke-width:1;" width="639.7227" x="0" y="246.0518"/><line style="stroke:#000000;stroke-width:1;" x1="0" x2="639.7227" y1="246.0518" y2="246.0518"/><line style="stroke:#000000;stroke-width:1;" x1="0" x2="639.7227" y1="249.0518" y2="249.0518"/><rect fill="#EEEEEE" height="23.3105" style="stroke:#000000;stroke-width:2;" width="190.6743" x="224.5242" y="235.3965"/><text fill="#000000" font-family="Segoe UI" font-size="13" font-weight="bold" lengthAdjust="spacing" textLength="172.3896" x="230.5242" y="251.9648">Cross-Service Integration</text><g class="message" data-participant-1="Svc" data-participant-2="ExtWx"><polygon fill="#2563EB" points="479.8208,286.0176,489.8208,290.0176,479.8208,294.0176,483.8208,290.0176" style="stroke:#2563EB;stroke-width:1;"/><line style="stroke:#2563EB;stroke-width:1;" x1="317.8809" x2="485.8208" y1="290.0176" y2="290.0176"/><text fill="#000000" font-family="Segoe UI" font-size="13" lengthAdjust="spacing" textLength="154.9399" x="324.8809" y="285.2754">Fetch multi-day forecast</text></g><g class="message" data-participant-1="ExtWx" data-participant-2="Svc"><polygon fill="#2563EB" points="328.8809,315.3281,318.8809,319.3281,328.8809,323.3281,324.8809,319.3281" style="stroke:#2563EB;stroke-width:1;"/><line style="stroke:#2563EB;stroke-width:1;stroke-dasharray:2,2;" x1="322.8809" x2="495.8208" y1="319.3281" y2="319.3281"/><text fill="#000000" font-family="Segoe UI" font-size="13" lengthAdjust="spacing" textLength="18.5859" x="334.8809" y="314.5859">OK</text></g><rect fill="#EEEEEE" height="3" style="stroke:#EEEEEE;stroke-width:1;" width="639.7227" x="0" y="347.9834"/><line style="stroke:#000000;stroke-width:1;" x1="0" x2="639.7227" y1="347.9834" y2="347.9834"/><line style="stroke:#000000;stroke-width:1;" x1="0" x2="639.7227" y1="350.9834" y2="350.9834"/><rect fill="#EEEEEE" height="23.3105" style="stroke:#000000;stroke-width:2;" width="80.3711" x="279.6758" y="337.3281"/><text fill="#000000" font-family="Segoe UI" font-size="13" font-weight="bold" lengthAdjust="spacing" textLength="62.0864" x="285.6758" y="353.8965">Database</text><g class="message" data-participant-1="Svc" data-participant-2="DB"><polygon fill="#2563EB" points="577.4771,387.9492,587.4771,391.9492,577.4771,395.9492,581.4771,391.9492" style="stroke:#2563EB;stroke-width:1;"/><line style="stroke:#2563EB;stroke-width:1;" x1="317.8809" x2="583.4771" y1="391.9492" y2="391.9492"/><text fill="#000000" font-family="Segoe UI" font-size="13" lengthAdjust="spacing" textLength="149.2524" x="324.8809" y="387.207">SELECT ... WHERE filters</text></g><g class="message" data-participant-1="DB" data-participant-2="Svc"><polygon fill="#2563EB" points="328.8809,417.2598,318.8809,421.2598,328.8809,425.2598,324.8809,421.2598" style="stroke:#2563EB;stroke-width:1;"/><line style="stroke:#2563EB;stroke-width:1;stroke-dasharray:2,2;" x1="322.8809" x2="593.4771" y1="421.2598" y2="421.2598"/><text fill="#000000" font-family="Segoe UI" font-size="13" lengthAdjust="spacing" textLength="93.209" x="334.8809" y="416.5176">Page of results</text></g><g class="message" data-participant-1="Svc" data-participant-2="GW"><polygon fill="#2563EB" points="214.7461,446.5703,204.7461,450.5703,214.7461,454.5703,210.7461,450.5703" style="stroke:#2563EB;stroke-width:1;"/><line style="stroke:#2563EB;stroke-width:1;stroke-dasharray:2,2;" x1="208.7461" x2="311.8809" y1="450.5703" y2="450.5703"/><text fill="#000000" font-family="Segoe UI" font-size="13" lengthAdjust="spacing" textLength="47.3599" x="220.7461" y="445.8281">200 OK</text></g><g class="message" data-participant-1="GW" data-participant-2="Client"><polygon fill="#2563EB" points="42.7524,475.8809,32.7524,479.8809,42.7524,483.8809,38.7524,479.8809" style="stroke:#2563EB;stroke-width:1;"/><line style="stroke:#2563EB;stroke-width:1;stroke-dasharray:2,2;" x1="36.7524" x2="197.7461" y1="479.8809" y2="479.8809"/><text fill="#000000" font-family="Segoe UI" font-size="13" lengthAdjust="spacing" textLength="47.3599" x="48.7524" y="475.1387">200 OK</text></g><!--SRC=[RLF1Rk8m5BpxAvxWk89GQ0j2OYK23eksQb5fbqENWqaUmMgmMTi5gjN- -xw404c1N8ndycOyuzXtgJR2Y3KiHFWU6_sXee5Ej85gmDE7sHF3haIaTrB5i1I9nG8IuL9y92xGoZsADK9bYh56U1rNYg_ZdmzK8S9V1lJh6wDtkLJpxhw5Ysnx8eoJeTm8vNnj8ZH72k_Sz_qBobVJl1FS1fsCzY2N-20LbiRqcos_tSnmN-zBK73J2Het9-WYZY0WF8CVjIjF3TljHQk0NOconTli7sDEkWHXn5_0sw5mApJUKXiCXNM_rGWTvBjmt6LiSpukL0Q9HEKg82mSbcMuFnd3I3ZSYS-CCvf1TUZpFlLOujbjMCkLCjvq6yBRcxUMeT4MpLQ6QBq2oPlFJzcM1irokoIS3U9xDzlJWU_IXqN2YOMmT26UCP8Mli5abD66Fd46_9OF65EK6EWj3I4Nb27vE5aG6rcqKL-vTLBrSb4lHfSlWpmj-2Ln1rB1T2VYc4Q-ZkTpXYg2L8MnGsPG-vucqxtU0nEXariACKillvgqf9VIcBf0pH9eqkjSPAVWaSvwFHXGbBOsFHm5nifXR8IJMa6lnrZAfec7lBeGe0jNiAQFIDOYyGcNPl9aypOF_sedJqy_MOHbRcPYU6oWe4dXTs7A7_ZW1UhrEin-y6SEIvauDFOiMEY8bcUfYOYfhoK5OCckBUeE_Lpa672pqVXYBUqu3PCOUHdNMACP-my0]--></g></svg>