<?xml version="1.0" encoding="UTF-8" standalone="no"?><svg xmlns="http://www.w3.org/2000/svg" xmlns:xlink="http://www.w3.org/1999/xlink" contentScriptType="application/ecmascript" contentStyleType="text/css" height="482px" preserveAspectRatio="none" style="width:491px;height:482px;background:#FEFEFE;" version="1.1" viewBox="0 0 491 482" width="491px" zoomAndPan="magnify"><defs/><g><text fill="#000000" font-family="Segoe UI" font-size="18" lengthAdjust="spacingAndGlyphs" textLength="92" x="195" y="41.3486">GET /trails</text><text fill="#000000" font-family="Segoe UI" font-size="18" lengthAdjust="spacingAndGlyphs" textLength="109" x="186.5" y="62.3018">Search trails</text><rect fill="#2563EB" height="188.7969" style="stroke: #6B7280; stroke-width: 1.0;" width="10" x="117.5" y="202.1094"/><rect fill="#2563EB" height="130.5313" style="stroke: #6B7280; stroke-width: 1.0;" width="10" x="258" y="231.2422"/><rect fill="#FEF9C3" height="29.1328" style="stroke: #6B7280; stroke-width: 1.0;" width="10" x="439" y="303.5078"/><line style="stroke: #6B7280; stroke-width: 1.0; stroke-dasharray: 5.0,5.0;" x1="34" x2="34" y1="135.8438" y2="408.9063"/><line style="stroke: #6B7280; stroke-width: 1.0; stroke-dasharray: 5.0,5.0;" x1="122.5" x2="122.5" y1="135.8438" y2="408.9063"/><line style="stroke: #6B7280; stroke-width: 1.0; stroke-dasharray: 5.0,5.0;" x1="262.5" x2="262.5" y1="135.8438" y2="408.9063"/><line style="stroke: #6B7280; stroke-width: 1.0; stroke-dasharray: 5.0,5.0;" x1="444" x2="444" y1="135.8438" y2="408.9063"/><a href="/applications/" target="_top" title="/applications/" xlink:actuate="onRequest" xlink:href="/applications/" xlink:show="new" xlink:title="/applications/" xlink:type="simple"><rect fill="#F9FAFB" height="30.2969" style="stroke: #374151; stroke-width: 1.5;" width="53" x="8" y="104.5469"/><text fill="#000000" font-family="Segoe UI" font-size="14" lengthAdjust="spacingAndGlyphs" textLength="39" x="15" y="124.542">Client</text><rect fill="#F9FAFB" height="30.2969" style="stroke: #374151; stroke-width: 1.5;" width="53" x="8" y="407.9063"/><text fill="#000000" font-family="Segoe UI" font-size="14" lengthAdjust="spacingAndGlyphs" textLength="39" x="15" y="427.9014">Client</text></a><a href="/actors/#api-gateway" target="_top" title="/actors/#api-gateway" xlink:actuate="onRequest" xlink:href="/actors/#api-gateway" xlink:show="new" xlink:title="/actors/#api-gateway" xlink:type="simple"><rect fill="#E0F2FE" height="30.2969" style="stroke: #374151; stroke-width: 1.5;" width="98" x="73.5" y="104.5469"/><text fill="#000000" font-family="Segoe UI" font-size="14" lengthAdjust="spacingAndGlyphs" textLength="84" x="80.5" y="124.542">API Gateway</text><rect fill="#E0F2FE" height="30.2969" style="stroke: #374151; stroke-width: 1.5;" width="98" x="73.5" y="407.9063"/><text fill="#000000" font-family="Segoe UI" font-size="14" lengthAdjust="spacingAndGlyphs" textLength="84" x="80.5" y="427.9014">API Gateway</text></a><a href="/microservices/svc-trail-management/" target="_top" title="/microservices/svc-trail-management/" xlink:actuate="onRequest" xlink:href="/microservices/svc-trail-management/" xlink:show="new" xlink:title="/microservices/svc-trail-management/" xlink:type="simple"><rect fill="#FEF3C7" height="30.2969" style="stroke: #374151; stroke-width: 1.5;" width="163" x="181.5" y="104.5469"/><text fill="#000000" font-family="Segoe UI" font-size="14" lengthAdjust="spacingAndGlyphs" textLength="149" x="188.5" y="124.542">svc-trail-management</text><rect fill="#FEF3C7" height="30.2969" style="stroke: #374151; stroke-width: 1.5;" width="163" x="181.5" y="407.9063"/><text fill="#000000" font-family="Segoe UI" font-size="14" lengthAdjust="spacingAndGlyphs" textLength="149" x="188.5" y="427.9014">svc-trail-management</text></a><a href="/microservices/svc-trail-management/#data-store" target="_top" title="/microservices/svc-trail-management/#data-store" xlink:actuate="onRequest" xlink:href="/microservices/svc-trail-management/#data-store" xlink:show="new" xlink:title="/microservices/svc-trail-management/#data-store" xlink:type="simple"><text fill="#000000" font-family="Segoe UI" font-size="14" lengthAdjust="spacingAndGlyphs" textLength="54" x="414" y="132.542">PostGIS</text><path d="M426,83.5469 C426,73.5469 444,73.5469 444,73.5469 C444,73.5469 462,73.5469 462,83.5469 L462,109.5469 C462,119.5469 444,119.5469 444,119.5469 C444,119.5469 426,119.5469 426,109.5469 L426,83.5469 " fill="#FEF9C3" style="stroke: #000000; stroke-width: 1.5;"/><path d="M426,83.5469 C426,93.5469 444,93.5469 444,93.5469 C444,93.5469 462,93.5469 462,83.5469 " fill="none" style="stroke: #000000; stroke-width: 1.5;"/><text fill="#000000" font-family="Segoe UI" font-size="14" lengthAdjust="spacingAndGlyphs" textLength="54" x="414" y="420.9014">PostGIS</text><path d="M426,434.2031 C426,424.2031 444,424.2031 444,424.2031 C444,424.2031 462,424.2031 462,434.2031 L462,460.2031 C462,470.2031 444,470.2031 444,470.2031 C444,470.2031 426,470.2031 426,460.2031 L426,434.2031 " fill="#FEF9C3" style="stroke: #000000; stroke-width: 1.5;"/><path d="M426,434.2031 C426,444.2031 444,444.2031 444,444.2031 C444,444.2031 462,444.2031 462,434.2031 " fill="none" style="stroke: #000000; stroke-width: 1.5;"/></a><rect fill="#2563EB" height="188.7969" style="stroke: #6B7280; stroke-width: 1.0;" width="10" x="117.5" y="202.1094"/><rect fill="#2563EB" height="130.5313" style="stroke: #6B7280; stroke-width: 1.0;" width="10" x="258" y="231.2422"/><rect fill="#FEF9C3" height="29.1328" style="stroke: #6B7280; stroke-width: 1.0;" width="10" x="439" y="303.5078"/><path d="M192,150.8438 L192,175.8438 L333,175.8438 L333,160.8438 L323,150.8438 L192,150.8438 " fill="#FBFB77" style="stroke: #A80036; stroke-width: 1.0;"/><path d="M323,150.8438 L323,160.8438 L333,160.8438 L323,150.8438 " fill="#FBFB77" style="stroke: #A80036; stroke-width: 1.0;"/><a href="/services/api/svc-trail-management.html#/Trails/searchTrails" target="_top" title="/services/api/svc-trail-management.html#/Trails/searchTrails" xlink:actuate="onRequest" xlink:href="/services/api/svc-trail-management.html#/Trails/searchTrails" xlink:show="new" xlink:title="/services/api/svc-trail-management.html#/Trails/searchTrails" xlink:type="simple"><text fill="#0000FF" font-family="Segoe UI" font-size="13" lengthAdjust="spacingAndGlyphs" text-decoration="underline" textLength="120" x="198" y="167.9106">View in Swagger UI</text></a><polygon fill="#2563EB" points="105.5,198.1094,115.5,202.1094,105.5,206.1094,109.5,202.1094" style="stroke: #2563EB; stroke-width: 1.0;"/><line style="stroke: #2563EB; stroke-width: 1.0;" x1="34.5" x2="111.5" y1="202.1094" y2="202.1094"/><text fill="#000000" font-family="Segoe UI" font-size="13" lengthAdjust="spacingAndGlyphs" textLength="64" x="41.5" y="197.0435">GET /trails</text><polygon fill="#2563EB" points="246,227.2422,256,231.2422,246,235.2422,250,231.2422" style="stroke: #2563EB; stroke-width: 1.0;"/><line style="stroke: #2563EB; stroke-width: 1.0;" x1="127.5" x2="252" y1="231.2422" y2="231.2422"/><text fill="#000000" font-family="Segoe UI" font-size="13" lengthAdjust="spacingAndGlyphs" textLength="87" x="134.5" y="226.1763">route request</text><rect fill="#EEEEEE" height="3" style="stroke: #EEEEEE; stroke-width: 1.0;" width="476" x="3" y="259.8086"/><line style="stroke: #000000; stroke-width: 1.0;" x1="3" x2="479" y1="259.8086" y2="259.8086"/><line style="stroke: #000000; stroke-width: 1.0;" x1="3" x2="479" y1="262.8086" y2="262.8086"/><rect fill="#EEEEEE" height="23.1328" style="stroke: #000000; stroke-width: 2.0;" width="90" x="196" y="249.2422"/><text fill="#000000" font-family="Segoe UI" font-size="13" font-weight="bold" lengthAdjust="spacingAndGlyphs" textLength="71" x="202" y="265.3091">Database</text><polygon fill="#2563EB" points="427,299.5078,437,303.5078,427,307.5078,431,303.5078" style="stroke: #2563EB; stroke-width: 1.0;"/><line style="stroke: #2563EB; stroke-width: 1.0;" x1="268" x2="433" y1="303.5078" y2="303.5078"/><text fill="#000000" font-family="Segoe UI" font-size="13" lengthAdjust="spacingAndGlyphs" textLength="152" x="275" y="298.4419">SELECT ... WHERE filters</text><polygon fill="#2563EB" points="279,328.6406,269,332.6406,279,336.6406,275,332.6406" style="stroke: #2563EB; stroke-width: 1.0;"/><line style="stroke: #2563EB; stroke-width: 1.0; stroke-dasharray: 2.0,2.0;" x1="273" x2="443" y1="332.6406" y2="332.6406"/><text fill="#000000" font-family="Segoe UI" font-size="13" lengthAdjust="spacingAndGlyphs" textLength="95" x="285" y="327.5747">Page of results</text><polygon fill="#2563EB" points="138.5,357.7734,128.5,361.7734,138.5,365.7734,134.5,361.7734" style="stroke: #2563EB; stroke-width: 1.0;"/><line style="stroke: #2563EB; stroke-width: 1.0; stroke-dasharray: 2.0,2.0;" x1="132.5" x2="262" y1="361.7734" y2="361.7734"/><text fill="#000000" font-family="Segoe UI" font-size="13" lengthAdjust="spacingAndGlyphs" textLength="46" x="144.5" y="356.7075">200 OK</text><polygon fill="#2563EB" points="45.5,386.9063,35.5,390.9063,45.5,394.9063,41.5,390.9063" style="stroke: #2563EB; stroke-width: 1.0;"/><line style="stroke: #2563EB; stroke-width: 1.0; stroke-dasharray: 2.0,2.0;" x1="39.5" x2="121.5" y1="390.9063" y2="390.9063"/><text fill="#000000" font-family="Segoe UI" font-size="13" lengthAdjust="spacingAndGlyphs" textLength="46" x="51.5" y="385.8403">200 OK</text><a href="/microservices/svc-trail-management/#integration-context" target="_top" title="/microservices/svc-trail-management/#integration-context" xlink:actuate="onRequest" xlink:href="/microservices/svc-trail-management/#integration-context" xlink:show="new" xlink:title="/microservices/svc-trail-management/#integration-context" xlink:type="simple"><text fill="#0000FF" font-family="Segoe UI" font-size="10" lengthAdjust="spacingAndGlyphs" text-decoration="underline" textLength="218" x="261" y="12.2822">⬆ svc-trail-management Integration Context</text></a><!--MD5=[02e8e6d7668c33d6521b6c225e82f36e]
@startuml svc-trail-management- -get-trails

skinparam backgroundColor #FEFEFE
skinparam shadowing false
skinparam defaultFontName "Segoe UI"
skinparam sequence {
    ArrowColor #2563eb
    ParticipantBorderColor #374151
    ParticipantBackgroundColor #F9FAFB
    LifeLineBorderColor #6B7280
    BoxBorderColor #94A3B8
    BoxBackgroundColor #F8FAFC
    NoteBorderColor #64748B
    NoteBackgroundColor #F8FAFC
}

header [[/microservices/svc-trail-management/#integration-context ⬆ svc-trail-management Integration Context]]

title GET /trails\nSearch trails

participant "Client" as Client [[/applications/]]
participant "API Gateway" as GW [[/actors/#api-gateway]] #E0F2FE
participant "svc-trail-management" as Svc [[/microservices/svc-trail-management/]] #FEF3C7
database "PostGIS" as DB [[/microservices/svc-trail-management/#data-store]] #FEF9C3

note over Svc
  [[/services/api/svc-trail-management.html#/Trails/searchTrails View in Swagger UI]]
end note

Client -> GW : GET /trails
activate GW #2563eb
GW -> Svc : route request
activate Svc #2563eb

== Database ==

Svc -> DB : SELECT ... WHERE filters
activate DB #FEF9C3
DB - -> Svc : Page of results
deactivate DB

Svc - -> GW : 200 OK
deactivate Svc
GW - -> Client : 200 OK
deactivate GW

@enduml

PlantUML version 1.2020.02(Sun Mar 01 10:22:07 UTC 2020)
(GPL source distribution)
Java Runtime: OpenJDK Runtime Environment
JVM: OpenJDK 64-Bit Server VM
Java Version: 17.0.18+8
Operating System: Linux
Default Encoding: UTF-8
Language: en
Country: null
--></g></svg>