<?plantuml 1.2026.2?><svg xmlns="http://www.w3.org/2000/svg" xmlns:xlink="http://www.w3.org/1999/xlink" contentStyleType="text/css" data-diagram-type="SEQUENCE" height="1781px" preserveAspectRatio="none" style="width:1099px;height:1781px;background:#FEFEFE;" version="1.1" viewBox="0 0 1099 1781" width="1099px" zoomAndPan="magnify"><title>POST /waivers
Guest signs safety waiver
&lt;size:10&gt;&lt;color:#7c3aed&gt;ARCHITECT OVERRIDE &#8212; enriched with identity verification and signature gate&lt;/color&gt;&lt;/size&gt;</title><defs/><g><rect fill="#FEFEFE" height="1781" style="stroke:none;stroke-width:1;" width="1099" x="0" y="0"/><text fill="#000000" font-family="'Segoe UI'" font-size="14" font-weight="bold" lengthAdjust="spacing" textLength="105.9502" x="492.8694" y="41.3125">POST /waivers</text><text fill="#000000" font-family="'Segoe UI'" font-size="14" font-weight="bold" lengthAdjust="spacing" textLength="185.8076" x="452.9407" y="57.8008">Guest signs safety waiver</text><text fill="#7C3AED" font-family="'Segoe UI'" font-size="10" font-weight="bold" lengthAdjust="spacing" textLength="406.8457" x="342.4216" y="70.4219">ARCHITECT OVERRIDE &#8212; enriched with identity verification and signature gate</text><g><title>API Gateway</title><rect fill="#DC2626" height="422.5898" style="stroke:#181818;stroke-width:1;" width="10" x="196.6055" y="212.6406"/></g><g><title>svc-safety-compliance</title><rect fill="#DC2626" height="363.9688" style="stroke:#181818;stroke-width:1;" width="10" x="484.0459" y="241.9512"/></g><g><title>Guest Profiles</title><rect fill="#EDE9FE" height="44.6211" style="stroke:#181818;stroke-width:1;" width="10" x="723.0327" y="722.8066"/></g><g><title>DocuSign</title><rect fill="#F3E8FF" height="68.9316" style="stroke:#181818;stroke-width:1;" width="10" x="825.834" y="1092.4648"/></g><g><title>PostgreSQL</title><rect fill="#FEF9C3" height="29.3105" style="stroke:#181818;stroke-width:1;" width="10" x="1026.2642" y="441.7461"/></g><g><title>PostgreSQL</title><rect fill="#FEF9C3" height="29.3105" style="stroke:#181818;stroke-width:1;" width="10" x="1026.2642" y="1486.3887"/></g><rect fill="none" height="1199.5059" rx="4" ry="4" style="stroke:#000000;stroke-width:1.5;" width="1072.689" x="10" y="486.0566"/><rect fill="none" height="141.8633" rx="4" ry="4" style="stroke:#000000;stroke-width:1.5;" width="658.3022" x="20" y="848.3594"/><rect fill="none" height="246.0605" rx="4" ry="4" style="stroke:#000000;stroke-width:1.5;" width="859.8091" x="20" y="1107.4648"/><g class="participant-lifeline" data-entity-uid="part1" data-qualified-name="Client" id="part1-lifeline"><g><title>Client</title><rect fill="#000000" fill-opacity="0.00000" height="1556.543" width="8" x="52.7524" y="146.0195"/><line style="stroke:#6B7280;stroke-width:0.5;stroke-dasharray:5,5;" x1="56" x2="56" y1="146.0195" y2="1702.5625"/></g></g><g class="participant-lifeline" data-entity-uid="part2" data-qualified-name="GW" id="part2-lifeline"><g><title>API Gateway</title><rect fill="#000000" fill-opacity="0.00000" height="1556.543" width="8" x="197.6055" y="146.0195"/><line style="stroke:#6B7280;stroke-width:0.5;stroke-dasharray:5,5;" x1="201.3164" x2="201.3164" y1="146.0195" y2="1702.5625"/></g></g><g class="participant-lifeline" data-entity-uid="part3" data-qualified-name="Svc" id="part3-lifeline"><g><title>svc-safety-compliance</title><rect fill="#000000" fill-opacity="0.00000" height="1556.543" width="8" x="485.0459" y="146.0195"/><line style="stroke:#6B7280;stroke-width:0.5;stroke-dasharray:5,5;" x1="488.417" x2="488.417" y1="146.0195" y2="1702.5625"/></g></g><g class="participant-lifeline" data-entity-uid="part4" data-qualified-name="GP" id="part4-lifeline"><g><title>Guest Profiles</title><rect fill="#000000" fill-opacity="0.00000" height="1556.543" width="8" x="724.0327" y="146.0195"/><line style="stroke:#6B7280;stroke-width:0.5;stroke-dasharray:5,5;" x1="727.2065" x2="727.2065" y1="146.0195" y2="1702.5625"/></g></g><g class="participant-lifeline" data-entity-uid="part5" data-qualified-name="DS" id="part5-lifeline"><g><title>DocuSign</title><rect fill="#000000" fill-opacity="0.00000" height="1556.543" width="8" x="826.834" y="146.0195"/><line style="stroke:#6B7280;stroke-width:0.5;stroke-dasharray:5,5;" x1="829.8589" x2="829.8589" y1="146.0195" y2="1702.5625"/></g></g><g class="participant-lifeline" data-entity-uid="part6" data-qualified-name="Ntfy" id="part6-lifeline"><g><title>Notifications</title><rect fill="#000000" fill-opacity="0.00000" height="1556.543" width="8" x="925.8242" y="146.0195"/><line style="stroke:#6B7280;stroke-width:0.5;stroke-dasharray:5,5;" x1="929.8091" x2="929.8091" y1="146.0195" y2="1702.5625"/></g></g><g class="participant-lifeline" data-entity-uid="part7" data-qualified-name="DB" id="part7-lifeline"><g><title>PostgreSQL</title><rect fill="#000000" fill-opacity="0.00000" height="1556.543" width="8" x="1027.2642" y="146.0195"/><line style="stroke:#6B7280;stroke-width:0.5;stroke-dasharray:5,5;" x1="1030.8394" x2="1030.8394" y1="146.0195" y2="1702.5625"/></g></g><g class="participant participant-head" data-entity-uid="part1" data-qualified-name="Client" id="part1-head"><a href="/applications/" target="_top" title="/applications/" xlink:actuate="onRequest" xlink:href="/applications/" xlink:show="new" xlink:title="/applications/" xlink:type="simple"><rect fill="#F9FAFB" height="30.4883" rx="4" ry="4" style="stroke:#374151;stroke-width:0.5;" width="53.5049" x="30" y="114.5313"/><text fill="#000000" font-family="'Segoe UI'" font-size="14" lengthAdjust="spacing" textLength="39.5049" x="37" y="135.0664">Client</text></a></g><g class="participant participant-tail" data-entity-uid="part1" data-qualified-name="Client" id="part1-tail"><a href="/applications/" target="_top" title="/applications/" xlink:actuate="onRequest" xlink:href="/applications/" xlink:show="new" xlink:title="/applications/" xlink:type="simple"><rect fill="#F9FAFB" height="30.4883" rx="4" ry="4" style="stroke:#374151;stroke-width:0.5;" width="53.5049" x="30" y="1701.5625"/><text fill="#000000" font-family="'Segoe UI'" font-size="14" lengthAdjust="spacing" textLength="39.5049" x="37" y="1722.0977">Client</text></a></g><g class="participant participant-head" data-entity-uid="part2" data-qualified-name="GW" id="part2-head"><a href="/actors/#api-gateway" target="_top" title="/actors/#api-gateway" xlink:actuate="onRequest" xlink:href="/actors/#api-gateway" xlink:show="new" xlink:title="/actors/#api-gateway" xlink:type="simple"><rect fill="#E0F2FE" height="30.4883" rx="4" ry="4" style="stroke:#374151;stroke-width:0.5;" width="96.5781" x="153.3164" y="114.5313"/><text fill="#000000" font-family="'Segoe UI'" font-size="14" lengthAdjust="spacing" textLength="82.5781" x="160.3164" y="135.0664">API Gateway</text></a></g><g class="participant participant-tail" data-entity-uid="part2" data-qualified-name="GW" id="part2-tail"><a href="/actors/#api-gateway" target="_top" title="/actors/#api-gateway" xlink:actuate="onRequest" xlink:href="/actors/#api-gateway" xlink:show="new" xlink:title="/actors/#api-gateway" xlink:type="simple"><rect fill="#E0F2FE" height="30.4883" rx="4" ry="4" style="stroke:#374151;stroke-width:0.5;" width="96.5781" x="153.3164" y="1701.5625"/><text fill="#000000" font-family="'Segoe UI'" font-size="14" lengthAdjust="spacing" textLength="82.5781" x="160.3164" y="1722.0977">API Gateway</text></a></g><g class="participant participant-head" data-entity-uid="part3" data-qualified-name="Svc" id="part3-head"><a href="/microservices/svc-safety-compliance/" target="_top" title="/microservices/svc-safety-compliance/" xlink:actuate="onRequest" xlink:href="/microservices/svc-safety-compliance/" xlink:show="new" xlink:title="/microservices/svc-safety-compliance/" xlink:type="simple"><rect fill="#FEE2E2" height="30.4883" rx="4" ry="4" style="stroke:#374151;stroke-width:0.5;" width="169.2578" x="404.417" y="114.5313"/><text fill="#000000" font-family="'Segoe UI'" font-size="14" lengthAdjust="spacing" textLength="155.2578" x="411.417" y="135.0664">svc-safety-compliance</text></a></g><g class="participant participant-tail" data-entity-uid="part3" data-qualified-name="Svc" id="part3-tail"><a href="/microservices/svc-safety-compliance/" target="_top" title="/microservices/svc-safety-compliance/" xlink:actuate="onRequest" xlink:href="/microservices/svc-safety-compliance/" xlink:show="new" xlink:title="/microservices/svc-safety-compliance/" xlink:type="simple"><rect fill="#FEE2E2" height="30.4883" rx="4" ry="4" style="stroke:#374151;stroke-width:0.5;" width="169.2578" x="404.417" y="1701.5625"/><text fill="#000000" font-family="'Segoe UI'" font-size="14" lengthAdjust="spacing" textLength="155.2578" x="411.417" y="1722.0977">svc-safety-compliance</text></a></g><g class="participant participant-head" data-entity-uid="part4" data-qualified-name="GP" id="part4-head"><a href="/microservices/svc-guest-profiles/" target="_top" title="/microservices/svc-guest-profiles/" xlink:actuate="onRequest" xlink:href="/microservices/svc-guest-profiles/" xlink:show="new" xlink:title="/microservices/svc-guest-profiles/" xlink:type="simple"><rect fill="#EDE9FE" height="30.4883" rx="4" ry="4" style="stroke:#374151;stroke-width:0.5;" width="107.6523" x="674.2065" y="114.5313"/><text fill="#000000" font-family="'Segoe UI'" font-size="14" lengthAdjust="spacing" textLength="93.6523" x="681.2065" y="135.0664">Guest Profiles</text></a></g><g class="participant participant-tail" data-entity-uid="part4" data-qualified-name="GP" id="part4-tail"><a href="/microservices/svc-guest-profiles/" target="_top" title="/microservices/svc-guest-profiles/" xlink:actuate="onRequest" xlink:href="/microservices/svc-guest-profiles/" xlink:show="new" xlink:title="/microservices/svc-guest-profiles/" xlink:type="simple"><rect fill="#EDE9FE" height="30.4883" rx="4" ry="4" style="stroke:#374151;stroke-width:0.5;" width="107.6523" x="674.2065" y="1701.5625"/><text fill="#000000" font-family="'Segoe UI'" font-size="14" lengthAdjust="spacing" textLength="93.6523" x="681.2065" y="1722.0977">Guest Profiles</text></a></g><g class="participant participant-head" data-entity-uid="part5" data-qualified-name="DS" id="part5-head"><rect fill="#F3E8FF" height="30.4883" rx="4" ry="4" style="stroke:#374151;stroke-width:0.5;" width="77.9502" x="791.8589" y="114.5313"/><text fill="#000000" font-family="'Segoe UI'" font-size="14" lengthAdjust="spacing" textLength="63.9502" x="798.8589" y="135.0664">DocuSign</text></g><g class="participant participant-tail" data-entity-uid="part5" data-qualified-name="DS" id="part5-tail"><rect fill="#F3E8FF" height="30.4883" rx="4" ry="4" style="stroke:#374151;stroke-width:0.5;" width="77.9502" x="791.8589" y="1701.5625"/><text fill="#000000" font-family="'Segoe UI'" font-size="14" lengthAdjust="spacing" textLength="63.9502" x="798.8589" y="1722.0977">DocuSign</text></g><g class="participant participant-head" data-entity-uid="part6" data-qualified-name="Ntfy" id="part6-head"><a href="/microservices/svc-notifications/" target="_top" title="/microservices/svc-notifications/" xlink:actuate="onRequest" xlink:href="/microservices/svc-notifications/" xlink:show="new" xlink:title="/microservices/svc-notifications/" xlink:type="simple"><rect fill="#F1F5F9" height="30.4883" rx="4" ry="4" style="stroke:#374151;stroke-width:0.5;" width="100.0303" x="879.8091" y="114.5313"/><text fill="#000000" font-family="'Segoe UI'" font-size="14" lengthAdjust="spacing" textLength="86.0303" x="886.8091" y="135.0664">Notifications</text></a></g><g class="participant participant-tail" data-entity-uid="part6" data-qualified-name="Ntfy" id="part6-tail"><a href="/microservices/svc-notifications/" target="_top" title="/microservices/svc-notifications/" xlink:actuate="onRequest" xlink:href="/microservices/svc-notifications/" xlink:show="new" xlink:title="/microservices/svc-notifications/" xlink:type="simple"><rect fill="#F1F5F9" height="30.4883" rx="4" ry="4" style="stroke:#374151;stroke-width:0.5;" width="100.0303" x="879.8091" y="1701.5625"/><text fill="#000000" font-family="'Segoe UI'" font-size="14" lengthAdjust="spacing" textLength="86.0303" x="886.8091" y="1722.0977">Notifications</text></a></g><g class="participant participant-head" data-entity-uid="part7" data-qualified-name="DB" id="part7-head"><a href="/microservices/svc-safety-compliance/#data-store" target="_top" title="/microservices/svc-safety-compliance/#data-store" xlink:actuate="onRequest" xlink:href="/microservices/svc-safety-compliance/#data-store" xlink:show="new" xlink:title="/microservices/svc-safety-compliance/#data-store" xlink:type="simple"><text fill="#000000" font-family="'Segoe UI'" font-size="14" lengthAdjust="spacing" textLength="76.8496" x="989.8394" y="143.0664">PostgreSQL</text><path d="M1013.2642,93.5313 C1013.2642,83.5313 1031.2642,83.5313 1031.2642,83.5313 C1031.2642,83.5313 1049.2642,83.5313 1049.2642,93.5313 L1049.2642,119.5313 C1049.2642,129.5313 1031.2642,129.5313 1031.2642,129.5313 C1031.2642,129.5313 1013.2642,129.5313 1013.2642,119.5313 L1013.2642,93.5313" fill="#FEF9C3" style="stroke:#181818;stroke-width:0.5;"/><path d="M1013.2642,93.5313 C1013.2642,103.5313 1031.2642,103.5313 1031.2642,103.5313 C1031.2642,103.5313 1049.2642,103.5313 1049.2642,93.5313" fill="none" style="stroke:#181818;stroke-width:0.5;"/></a></g><g class="participant participant-tail" data-entity-uid="part7" data-qualified-name="DB" id="part7-tail"><a href="/microservices/svc-safety-compliance/#data-store" target="_top" title="/microservices/svc-safety-compliance/#data-store" xlink:actuate="onRequest" xlink:href="/microservices/svc-safety-compliance/#data-store" xlink:show="new" xlink:title="/microservices/svc-safety-compliance/#data-store" xlink:type="simple"><text fill="#000000" font-family="'Segoe UI'" font-size="14" lengthAdjust="spacing" textLength="76.8496" x="989.8394" y="1715.0977">PostgreSQL</text><path d="M1013.2642,1728.0508 C1013.2642,1718.0508 1031.2642,1718.0508 1031.2642,1718.0508 C1031.2642,1718.0508 1049.2642,1718.0508 1049.2642,1728.0508 L1049.2642,1754.0508 C1049.2642,1764.0508 1031.2642,1764.0508 1031.2642,1764.0508 C1031.2642,1764.0508 1013.2642,1764.0508 1013.2642,1754.0508 L1013.2642,1728.0508" fill="#FEF9C3" style="stroke:#181818;stroke-width:0.5;"/><path d="M1013.2642,1728.0508 C1013.2642,1738.0508 1031.2642,1738.0508 1031.2642,1738.0508 C1031.2642,1738.0508 1049.2642,1738.0508 1049.2642,1728.0508" fill="none" style="stroke:#181818;stroke-width:0.5;"/></a></g><g><title>API Gateway</title><rect fill="#DC2626" height="422.5898" style="stroke:#181818;stroke-width:1;" width="10" x="196.6055" y="212.6406"/></g><g><title>svc-safety-compliance</title><rect fill="#DC2626" height="363.9688" style="stroke:#181818;stroke-width:1;" width="10" x="484.0459" y="241.9512"/></g><g><title>Guest Profiles</title><rect fill="#EDE9FE" height="44.6211" style="stroke:#181818;stroke-width:1;" width="10" x="723.0327" y="722.8066"/></g><g><title>DocuSign</title><rect fill="#F3E8FF" height="68.9316" style="stroke:#181818;stroke-width:1;" width="10" x="825.834" y="1092.4648"/></g><g><title>PostgreSQL</title><rect fill="#FEF9C3" height="29.3105" style="stroke:#181818;stroke-width:1;" width="10" x="1026.2642" y="441.7461"/></g><g><title>PostgreSQL</title><rect fill="#FEF9C3" height="29.3105" style="stroke:#181818;stroke-width:1;" width="10" x="1026.2642" y="1486.3887"/></g><path d="M418,165.0195 L418,182.0195 A4,4 0 0 0 422,186.0195 L554,186.0195 A4,4 0 0 0 558,182.0195 L558,171.0195 L548,161.0195 L422,161.0195 A4,4 0 0 0 418,165.0195" fill="#FEFFDD" style="stroke:#181818;stroke-width:0.5;"/><path d="M548,161.0195 L548,169.0195 A2,2 0 0 0 550,171.0195 L558,171.0195 L548,161.0195" fill="#FEFFDD" style="stroke:#181818;stroke-width:0.5;"/><a href="/services/api/svc-safety-compliance.html" target="_top" title="/services/api/svc-safety-compliance.html" xlink:actuate="onRequest" xlink:href="/services/api/svc-safety-compliance.html" xlink:show="new" xlink:title="/services/api/svc-safety-compliance.html" xlink:type="simple"><text fill="#0000FF" font-family="'Segoe UI'" font-size="13" lengthAdjust="spacing" text-decoration="underline" textLength="119.4058" x="424" y="178.5879">View in Swagger UI</text></a><g class="message" data-entity-1="part1" data-entity-2="part2" id="msg1"><polygon fill="#DC2626" points="184.6055,208.6406,194.6055,212.6406,184.6055,216.6406,188.6055,212.6406" style="stroke:#DC2626;stroke-width:1;"/><line style="stroke:#DC2626;stroke-width:1;" x1="56.7524" x2="190.6055" y1="212.6406" y2="212.6406"/><text fill="#000000" font-family="'Segoe UI'" font-size="13" lengthAdjust="spacing" textLength="90.3081" x="63.7524" y="207.8984">POST /waivers</text></g><g class="message" data-entity-1="part2" data-entity-2="part3" id="msg2"><polygon fill="#DC2626" points="472.0459,237.9512,482.0459,241.9512,472.0459,245.9512,476.0459,241.9512" style="stroke:#DC2626;stroke-width:1;"/><line style="stroke:#DC2626;stroke-width:1;" x1="206.6055" x2="478.0459" y1="241.9512" y2="241.9512"/><text fill="#000000" font-family="'Segoe UI'" font-size="13" lengthAdjust="spacing" textLength="85.1348" x="213.6055" y="237.209">route request</text></g><path d="M499,258.9512 L499,305.9512 A4,4 0 0 0 503,309.9512 L701,309.9512 A4,4 0 0 0 705,305.9512 L705,264.9512 L695,254.9512 L503,254.9512 A4,4 0 0 0 499,258.9512" fill="#FEFFDD" style="stroke:#181818;stroke-width:0.5;"/><path d="M695,254.9512 L695,262.9512 A2,2 0 0 0 697,264.9512 L705,264.9512 L695,254.9512" fill="#FEFFDD" style="stroke:#181818;stroke-width:0.5;"/><text fill="#000000" font-family="'Segoe UI'" font-size="13" lengthAdjust="spacing" textLength="146.6753" x="505" y="272.5195">Validate waiver request</text><text fill="#000000" font-family="'Segoe UI'" font-size="13" lengthAdjust="spacing" textLength="143.7363" x="505" y="287.8301">(guest_id, waiver_type,</text><text fill="#000000" font-family="'Segoe UI'" font-size="13" lengthAdjust="spacing" textLength="185.1929" x="505" y="303.1406">adventure_category required)</text><rect fill="#EEEEEE" height="3" rx="4" ry="4" style="stroke:#EEEEEE;stroke-width:1;" width="1092.689" x="0" y="336.5381"/><line style="stroke:#000000;stroke-width:1;" x1="0" x2="1092.689" y1="336.5381" y2="336.5381"/><line style="stroke:#000000;stroke-width:1;" x1="0" x2="1092.689" y1="339.5381" y2="339.5381"/><rect fill="#EEEEEE" height="23.3105" rx="4" ry="4" style="stroke:#000000;stroke-width:2;" width="175.6367" x="458.5261" y="325.8828"/><text fill="#000000" font-family="'Segoe UI'" font-size="13" font-weight="bold" lengthAdjust="spacing" textLength="157.3521" x="464.5261" y="342.4512">Duplicate Waiver Check</text><g class="message" data-entity-1="part3" data-entity-2="part7" id="msg3"><polygon fill="#DC2626" points="1014.2642,437.7461,1024.2642,441.7461,1014.2642,445.7461,1018.2642,441.7461" style="stroke:#DC2626;stroke-width:1;"/><line style="stroke:#DC2626;stroke-width:1;" x1="494.0459" x2="1020.2642" y1="441.7461" y2="441.7461"/><text fill="#000000" font-family="'Segoe UI'" font-size="13" lengthAdjust="spacing" textLength="136.8237" x="501.0459" y="375.7617">SELECT FROM waivers</text><text fill="#000000" font-family="'Segoe UI'" font-size="13" lengthAdjust="spacing" textLength="124.4902" x="501.0459" y="391.0723">WHERE guest_id = ?</text><text fill="#000000" font-family="'Segoe UI'" font-size="13" lengthAdjust="spacing" textLength="130.292" x="501.0459" y="406.3828">AND waiver_type = ?</text><text fill="#000000" font-family="'Segoe UI'" font-size="13" lengthAdjust="spacing" textLength="134.6846" x="501.0459" y="421.6934">AND status = ACTIVE</text><text fill="#000000" font-family="'Segoe UI'" font-size="13" lengthAdjust="spacing" textLength="155.1494" x="501.0459" y="437.0039">AND expires_at &gt; NOW()</text></g><g class="message" data-entity-1="part7" data-entity-2="part3" id="msg4"><polygon fill="#DC2626" points="505.0459,467.0566,495.0459,471.0566,505.0459,475.0566,501.0459,471.0566" style="stroke:#DC2626;stroke-width:1;"/><line style="stroke:#DC2626;stroke-width:1;stroke-dasharray:2,2;" x1="499.0459" x2="1030.2642" y1="471.0566" y2="471.0566"/><text fill="#000000" font-family="'Segoe UI'" font-size="13" lengthAdjust="spacing" textLength="148.4399" x="511.0459" y="466.3145">Existing waivers (if any)</text></g><path d="M14,486.0566 L72.1387,486.0566 L72.1387,493.3672 L62.1387,503.3672 L10,503.3672 L10,490.0566 A4,4 0 0 1 14,486.0566" fill="#EEEEEE" style="stroke:#000000;stroke-width:1.5;"/><rect fill="none" height="1199.5059" rx="4" ry="4" style="stroke:#000000;stroke-width:1.5;" width="1072.689" x="10" y="486.0566"/><text fill="#000000" font-family="'Segoe UI'" font-size="13" font-weight="bold" lengthAdjust="spacing" textLength="17.1387" x="25" y="499.625">alt</text><text fill="#000000" font-family="'Segoe UI'" font-size="11" font-weight="bold" lengthAdjust="spacing" textLength="166.5737" x="87.1387" y="498.6914">[Active waiver already exists]</text><path d="M499,512.3672 L499,559.3672 A4,4 0 0 0 503,563.3672 L661,563.3672 A4,4 0 0 0 665,559.3672 L665,518.3672 L655,508.3672 L503,508.3672 A4,4 0 0 0 499,512.3672" fill="#FEF3C7" style="stroke:#181818;stroke-width:0.5;"/><path d="M655,508.3672 L655,516.3672 A2,2 0 0 0 657,518.3672 L665,518.3672 L655,508.3672" fill="#FEF3C7" style="stroke:#181818;stroke-width:0.5;"/><text fill="#000000" font-family="'Segoe UI'" font-size="13" lengthAdjust="spacing" textLength="123.5317" x="505" y="525.9355">Return 409 Conflict</text><text fill="#000000" font-family="'Segoe UI'" font-size="13" lengthAdjust="spacing" textLength="145.666" x="505" y="541.2461">Guest already has valid</text><text fill="#000000" font-family="'Segoe UI'" font-size="13" lengthAdjust="spacing" textLength="115.7432" x="505" y="556.5566">waiver of this type</text><g class="message" data-entity-1="part3" data-entity-2="part2" id="msg5"><polygon fill="#DC2626" points="217.6055,601.9199,207.6055,605.9199,217.6055,609.9199,213.6055,605.9199" style="stroke:#DC2626;stroke-width:1;"/><line style="stroke:#DC2626;stroke-width:1;stroke-dasharray:2,2;" x1="211.6055" x2="488.0459" y1="605.9199" y2="605.9199"/><text fill="#000000" font-family="'Segoe UI'" font-size="13" lengthAdjust="spacing" textLength="77.6382" x="223.6055" y="585.8672">409 Conflict</text><text fill="#000000" font-family="'Segoe UI'" font-size="13" lengthAdjust="spacing" textLength="197.1455" x="223.6055" y="601.1777">(existing_waiver_id, expires_at)</text></g><g class="message" data-entity-1="part2" data-entity-2="part1" id="msg6"><polygon fill="#DC2626" points="67.7524,631.2305,57.7524,635.2305,67.7524,639.2305,63.7524,635.2305" style="stroke:#DC2626;stroke-width:1;"/><line style="stroke:#DC2626;stroke-width:1;stroke-dasharray:2,2;" x1="61.7524" x2="200.6055" y1="635.2305" y2="635.2305"/><text fill="#000000" font-family="'Segoe UI'" font-size="13" lengthAdjust="spacing" textLength="77.6382" x="73.7524" y="630.4883">409 Conflict</text></g><line style="stroke:#000000;stroke-width:1;stroke-dasharray:2,2;" x1="10" x2="1082.689" y1="644.2305" y2="644.2305"/><text fill="#000000" font-family="'Segoe UI'" font-size="11" font-weight="bold" lengthAdjust="spacing" textLength="165.3169" x="15" y="654.8652">[No active waiver &#8212; proceed]</text><rect fill="#EEEEEE" height="3" rx="4" ry="4" style="stroke:#EEEEEE;stroke-width:1;" width="1092.689" x="0" y="678.8408"/><line style="stroke:#000000;stroke-width:1;" x1="0" x2="1092.689" y1="678.8408" y2="678.8408"/><line style="stroke:#000000;stroke-width:1;" x1="0" x2="1092.689" y1="681.8408" y2="681.8408"/><rect fill="#EEEEEE" height="23.3105" rx="4" ry="4" style="stroke:#000000;stroke-width:2;" width="151.3442" x="470.6724" y="668.1855"/><text fill="#000000" font-family="'Segoe UI'" font-size="13" font-weight="bold" lengthAdjust="spacing" textLength="133.0596" x="476.6724" y="684.7539">Identity Verification</text><g class="message" data-entity-1="part3" data-entity-2="part4" id="msg7"><polygon fill="#DC2626" points="711.0327,718.8066,721.0327,722.8066,711.0327,726.8066,715.0327,722.8066" style="stroke:#DC2626;stroke-width:1;"/><line style="stroke:#DC2626;stroke-width:1;" x1="489.0459" x2="717.0327" y1="722.8066" y2="722.8066"/><a href="/microservices/svc-guest-profiles/#get-guestsguest_id-get-guest-profile" target="_top" title="/microservices/svc-guest-profiles/#get-guestsguest_id-get-guest-profile" xlink:actuate="onRequest" xlink:href="/microservices/svc-guest-profiles/#get-guestsguest_id-get-guest-profile" xlink:show="new" xlink:title="/microservices/svc-guest-profiles/#get-guestsguest_id-get-guest-profile" xlink:type="simple"><text fill="#0000FF" font-family="'Segoe UI'" font-size="13" lengthAdjust="spacing" text-decoration="underline" textLength="145.7422" x="496.0459" y="718.0645">GET /guests/{guest_id}</text></a></g><g class="message" data-entity-1="part4" data-entity-2="part3" id="msg8"><polygon fill="#DC2626" points="500.0459,763.4277,490.0459,767.4277,500.0459,771.4277,496.0459,767.4277" style="stroke:#DC2626;stroke-width:1;"/><line style="stroke:#DC2626;stroke-width:1;stroke-dasharray:2,2;" x1="494.0459" x2="727.0327" y1="767.4277" y2="767.4277"/><text fill="#000000" font-family="'Segoe UI'" font-size="13" lengthAdjust="spacing" textLength="81.3325" x="506.0459" y="747.375">Guest profile</text><text fill="#000000" font-family="'Segoe UI'" font-size="13" lengthAdjust="spacing" textLength="209.9868" x="506.0459" y="762.6855">(name, DOB, ID document status)</text></g><path d="M494,784.4277 L494,831.4277 A4,4 0 0 0 498,835.4277 L707,835.4277 A4,4 0 0 0 711,831.4277 L711,790.4277 L701,780.4277 L498,780.4277 A4,4 0 0 0 494,784.4277" fill="#FEFFDD" style="stroke:#181818;stroke-width:0.5;"/><path d="M701,780.4277 L701,788.4277 A2,2 0 0 0 703,790.4277 L711,790.4277 L701,780.4277" fill="#FEFFDD" style="stroke:#181818;stroke-width:0.5;"/><text fill="#000000" font-family="'Segoe UI'" font-size="13" lengthAdjust="spacing" textLength="120.7959" x="500" y="797.9961">Verify guest is 18+</text><text fill="#000000" font-family="'Segoe UI'" font-size="13" lengthAdjust="spacing" textLength="152.8896" x="500" y="813.3066">or has guardian consent</text><text fill="#000000" font-family="'Segoe UI'" font-size="13" lengthAdjust="spacing" textLength="196.9868" x="500" y="828.6172">Verify ID document is validated</text><path d="M24,848.3594 L82.1387,848.3594 L82.1387,855.6699 L72.1387,865.6699 L20,865.6699 L20,852.3594 A4,4 0 0 1 24,848.3594" fill="#EEEEEE" style="stroke:#000000;stroke-width:1.5;"/><rect fill="none" height="141.8633" rx="4" ry="4" style="stroke:#000000;stroke-width:1.5;" width="658.3022" x="20" y="848.3594"/><text fill="#000000" font-family="'Segoe UI'" font-size="13" font-weight="bold" lengthAdjust="spacing" textLength="17.1387" x="35" y="861.9277">alt</text><text fill="#000000" font-family="'Segoe UI'" font-size="11" font-weight="bold" lengthAdjust="spacing" textLength="218.4478" x="97.1387" y="860.9941">[Guest under 18, no guardian consent]</text><path d="M494,874.6699 L494,906.6699 A4,4 0 0 0 498,910.6699 L664,910.6699 A4,4 0 0 0 668,906.6699 L668,880.6699 L658,870.6699 L498,870.6699 A4,4 0 0 0 494,874.6699" fill="#FEE2E2" style="stroke:#181818;stroke-width:0.5;"/><path d="M658,870.6699 L658,878.6699 A2,2 0 0 0 660,880.6699 L668,880.6699 L658,870.6699" fill="#FEE2E2" style="stroke:#181818;stroke-width:0.5;"/><text fill="#000000" font-family="'Segoe UI'" font-size="13" lengthAdjust="spacing" textLength="135.4082" x="500" y="888.2383">Reject: minor without</text><text fill="#000000" font-family="'Segoe UI'" font-size="13" lengthAdjust="spacing" textLength="153.3022" x="500" y="903.5488">guardian consent on file</text><g class="message" data-entity-1="part3" data-entity-2="part2" id="msg9"><polygon fill="#DC2626" points="212.6055,948.9121,202.6055,952.9121,212.6055,956.9121,208.6055,952.9121" style="stroke:#DC2626;stroke-width:1;"/><line style="stroke:#DC2626;stroke-width:1;stroke-dasharray:2,2;" x1="206.6055" x2="488.0459" y1="952.9121" y2="952.9121"/><text fill="#000000" font-family="'Segoe UI'" font-size="13" lengthAdjust="spacing" textLength="120.853" x="218.6055" y="932.8594">422 Unprocessable</text><text fill="#000000" font-family="'Segoe UI'" font-size="13" lengthAdjust="spacing" textLength="263.4404" x="218.6055" y="948.1699">(reason: GUARDIAN_CONSENT_REQUIRED)</text></g><g class="message" data-entity-1="part2" data-entity-2="part1" id="msg10"><polygon fill="#DC2626" points="67.7524,978.2227,57.7524,982.2227,67.7524,986.2227,63.7524,982.2227" style="stroke:#DC2626;stroke-width:1;"/><line style="stroke:#DC2626;stroke-width:1;stroke-dasharray:2,2;" x1="61.7524" x2="200.6055" y1="982.2227" y2="982.2227"/><text fill="#000000" font-family="'Segoe UI'" font-size="13" lengthAdjust="spacing" textLength="120.853" x="73.7524" y="977.4805">422 Unprocessable</text></g><rect fill="#EEEEEE" height="3" rx="4" ry="4" style="stroke:#EEEEEE;stroke-width:1;" width="1092.689" x="0" y="1017.8779"/><line style="stroke:#000000;stroke-width:1;" x1="0" x2="1092.689" y1="1017.8779" y2="1017.8779"/><line style="stroke:#000000;stroke-width:1;" x1="0" x2="1092.689" y1="1020.8779" y2="1020.8779"/><rect fill="#EEEEEE" height="23.3105" rx="4" ry="4" style="stroke:#000000;stroke-width:2;" width="207.5464" x="442.5713" y="1007.2227"/><text fill="#000000" font-family="'Segoe UI'" font-size="13" font-weight="bold" lengthAdjust="spacing" textLength="189.2617" x="448.5713" y="1023.791">Digital Signature (DocuSign)</text><g class="message" data-entity-1="part3" data-entity-2="part5" id="msg11"><polygon fill="#DC2626" points="813.834,1088.4648,823.834,1092.4648,813.834,1096.4648,817.834,1092.4648" style="stroke:#DC2626;stroke-width:1;"/><line style="stroke:#DC2626;stroke-width:1;" x1="489.0459" x2="819.834" y1="1092.4648" y2="1092.4648"/><text fill="#000000" font-family="'Segoe UI'" font-size="13" lengthAdjust="spacing" textLength="143.4507" x="496.0459" y="1057.1016">Verify digital signature</text><text fill="#000000" font-family="'Segoe UI'" font-size="13" lengthAdjust="spacing" textLength="231.2007" x="496.0459" y="1072.4121">(signature_payload, document_hash,</text><text fill="#000000" font-family="'Segoe UI'" font-size="13" lengthAdjust="spacing" textLength="90.7715" x="496.0459" y="1087.7227">guest identity)</text></g><path d="M24,1107.4648 L82.1387,1107.4648 L82.1387,1114.7754 L72.1387,1124.7754 L20,1124.7754 L20,1111.4648 A4,4 0 0 1 24,1107.4648" fill="#EEEEEE" style="stroke:#000000;stroke-width:1.5;"/><rect fill="none" height="246.0605" rx="4" ry="4" style="stroke:#000000;stroke-width:1.5;" width="859.8091" x="20" y="1107.4648"/><text fill="#000000" font-family="'Segoe UI'" font-size="13" font-weight="bold" lengthAdjust="spacing" textLength="17.1387" x="35" y="1121.0332">alt</text><text fill="#000000" font-family="'Segoe UI'" font-size="11" font-weight="bold" lengthAdjust="spacing" textLength="93.1509" x="97.1387" y="1120.0996">[Signature valid]</text><g class="message" data-entity-1="part5" data-entity-2="part3" id="msg12"><polygon fill="#DC2626" points="500.0459,1157.3965,490.0459,1161.3965,500.0459,1165.3965,496.0459,1161.3965" style="stroke:#DC2626;stroke-width:1;"/><line style="stroke:#DC2626;stroke-width:1;stroke-dasharray:2,2;" x1="494.0459" x2="829.834" y1="1161.3965" y2="1161.3965"/><text fill="#000000" font-family="'Segoe UI'" font-size="13" lengthAdjust="spacing" textLength="110.7285" x="506.0459" y="1141.3438">Signature verified</text><text fill="#000000" font-family="'Segoe UI'" font-size="13" lengthAdjust="spacing" textLength="152.0962" x="506.0459" y="1156.6543">(envelope_id, signed_at)</text></g><line style="stroke:#000000;stroke-width:1;stroke-dasharray:2,2;" x1="20" x2="879.8091" y1="1170.3965" y2="1170.3965"/><text fill="#000000" font-family="'Segoe UI'" font-size="11" font-weight="bold" lengthAdjust="spacing" textLength="165.7734" x="25" y="1181.0313">[Signature invalid or expired]</text><g class="message" data-entity-1="part5" data-entity-2="part3" id="msg13"><polygon fill="#DC2626" points="500.0459,1216.9727,490.0459,1220.9727,500.0459,1224.9727,496.0459,1220.9727" style="stroke:#DC2626;stroke-width:1;"/><line style="stroke:#DC2626;stroke-width:1;stroke-dasharray:2,2;" x1="494.0459" x2="829.834" y1="1220.9727" y2="1220.9727"/><text fill="#000000" font-family="'Segoe UI'" font-size="13" lengthAdjust="spacing" textLength="110.8809" x="506.0459" y="1200.9199">Verification failed</text><text fill="#000000" font-family="'Segoe UI'" font-size="13" lengthAdjust="spacing" textLength="50.8765" x="506.0459" y="1216.2305">(reason)</text></g><path d="M494,1237.9727 L494,1269.9727 A4,4 0 0 0 498,1273.9727 L662,1273.9727 A4,4 0 0 0 666,1269.9727 L666,1243.9727 L656,1233.9727 L498,1233.9727 A4,4 0 0 0 494,1237.9727" fill="#FEE2E2" style="stroke:#181818;stroke-width:0.5;"/><path d="M656,1233.9727 L656,1241.9727 A2,2 0 0 0 658,1243.9727 L666,1243.9727 L656,1233.9727" fill="#FEE2E2" style="stroke:#181818;stroke-width:0.5;"/><text fill="#000000" font-family="'Segoe UI'" font-size="13" lengthAdjust="spacing" textLength="151.1821" x="500" y="1251.541">Reject: invalid signature</text><text fill="#000000" font-family="'Segoe UI'" font-size="13" lengthAdjust="spacing" textLength="122.7573" x="500" y="1266.8516">Guest must re-sign</text><g class="message" data-entity-1="part3" data-entity-2="part2" id="msg14"><polygon fill="#DC2626" points="212.6055,1312.2148,202.6055,1316.2148,212.6055,1320.2148,208.6055,1316.2148" style="stroke:#DC2626;stroke-width:1;"/><line style="stroke:#DC2626;stroke-width:1;stroke-dasharray:2,2;" x1="206.6055" x2="488.0459" y1="1316.2148" y2="1316.2148"/><text fill="#000000" font-family="'Segoe UI'" font-size="13" lengthAdjust="spacing" textLength="120.853" x="218.6055" y="1296.1621">422 Unprocessable</text><text fill="#000000" font-family="'Segoe UI'" font-size="13" lengthAdjust="spacing" textLength="188.043" x="218.6055" y="1311.4727">(reason: SIGNATURE_INVALID)</text></g><g class="message" data-entity-1="part2" data-entity-2="part1" id="msg15"><polygon fill="#DC2626" points="67.7524,1341.5254,57.7524,1345.5254,67.7524,1349.5254,63.7524,1345.5254" style="stroke:#DC2626;stroke-width:1;"/><line style="stroke:#DC2626;stroke-width:1;stroke-dasharray:2,2;" x1="61.7524" x2="200.6055" y1="1345.5254" y2="1345.5254"/><text fill="#000000" font-family="'Segoe UI'" font-size="13" lengthAdjust="spacing" textLength="120.853" x="73.7524" y="1340.7832">422 Unprocessable</text></g><rect fill="#EEEEEE" height="3" rx="4" ry="4" style="stroke:#EEEEEE;stroke-width:1;" width="1092.689" x="0" y="1381.1807"/><line style="stroke:#000000;stroke-width:1;" x1="0" x2="1092.689" y1="1381.1807" y2="1381.1807"/><line style="stroke:#000000;stroke-width:1;" x1="0" x2="1092.689" y1="1384.1807" y2="1384.1807"/><rect fill="#EEEEEE" height="23.3105" rx="4" ry="4" style="stroke:#000000;stroke-width:2;" width="80.3711" x="506.1589" y="1370.5254"/><text fill="#000000" font-family="'Segoe UI'" font-size="13" font-weight="bold" lengthAdjust="spacing" textLength="62.0864" x="512.1589" y="1387.0938">Database</text><g class="message" data-entity-1="part3" data-entity-2="part7" id="msg16"><polygon fill="#DC2626" points="1014.2642,1482.3887,1024.2642,1486.3887,1014.2642,1490.3887,1018.2642,1486.3887" style="stroke:#DC2626;stroke-width:1;"/><line style="stroke:#DC2626;stroke-width:1;" x1="489.0459" x2="1020.2642" y1="1486.3887" y2="1486.3887"/><text fill="#000000" font-family="'Segoe UI'" font-size="13" lengthAdjust="spacing" textLength="130.603" x="496.0459" y="1420.4043">INSERT INTO waivers</text><text fill="#000000" font-family="'Segoe UI'" font-size="13" lengthAdjust="spacing" textLength="210.647" x="496.0459" y="1435.7148">(waiver_id, guest_id, waiver_type,</text><text fill="#000000" font-family="'Segoe UI'" font-size="13" lengthAdjust="spacing" textLength="210.7676" x="496.0459" y="1451.0254">adventure_category, envelope_id,</text><text fill="#000000" font-family="'Segoe UI'" font-size="13" lengthAdjust="spacing" textLength="137.7505" x="496.0459" y="1466.3359">signed_at, expires_at,</text><text fill="#000000" font-family="'Segoe UI'" font-size="13" lengthAdjust="spacing" textLength="106.4883" x="496.0459" y="1481.6465">status = ACTIVE)</text></g><g class="message" data-entity-1="part7" data-entity-2="part3" id="msg17"><polygon fill="#DC2626" points="500.0459,1511.6992,490.0459,1515.6992,500.0459,1519.6992,496.0459,1515.6992" style="stroke:#DC2626;stroke-width:1;"/><line style="stroke:#DC2626;stroke-width:1;stroke-dasharray:2,2;" x1="494.0459" x2="1030.2642" y1="1515.6992" y2="1515.6992"/><text fill="#000000" font-family="'Segoe UI'" font-size="13" lengthAdjust="spacing" textLength="76.4575" x="506.0459" y="1510.957">Created row</text></g><rect fill="#EEEEEE" height="3" rx="4" ry="4" style="stroke:#EEEEEE;stroke-width:1;" width="1092.689" x="0" y="1544.3545"/><line style="stroke:#000000;stroke-width:1;" x1="0" x2="1092.689" y1="1544.3545" y2="1544.3545"/><line style="stroke:#000000;stroke-width:1;" x1="0" x2="1092.689" y1="1547.3545" y2="1547.3545"/><rect fill="#EEEEEE" height="23.3105" rx="4" ry="4" style="stroke:#000000;stroke-width:2;" width="150.7412" x="470.9739" y="1533.6992"/><text fill="#000000" font-family="'Segoe UI'" font-size="13" font-weight="bold" lengthAdjust="spacing" textLength="132.4565" x="476.9739" y="1550.2676">Async Confirmation</text><g class="message" data-entity-1="part3" data-entity-2="part6" id="msg18"><line style="stroke:#DC2626;stroke-width:1;" x1="927.8242" x2="917.8242" y1="1588.3203" y2="1584.3203"/><line style="stroke:#DC2626;stroke-width:1;" x1="927.8242" x2="917.8242" y1="1588.3203" y2="1592.3203"/><line style="stroke:#DC2626;stroke-width:1;" x1="489.0459" x2="928.8242" y1="1588.3203" y2="1588.3203"/><a href="/microservices/svc-notifications/#post-notifications-send-a-notification" target="_top" title="/microservices/svc-notifications/#post-notifications-send-a-notification" xlink:actuate="onRequest" xlink:href="/microservices/svc-notifications/#post-notifications-send-a-notification" xlink:show="new" xlink:title="/microservices/svc-notifications/#post-notifications-send-a-notification" xlink:type="simple"><text fill="#0000FF" font-family="'Segoe UI'" font-size="13" lengthAdjust="spacing" text-decoration="underline" textLength="202.7505" x="496.0459" y="1583.5781">Send waiver copy to guest email</text></a></g><g class="message" data-entity-1="part3" data-entity-2="part2" id="msg19"><polygon fill="#DC2626" points="212.6055,1644.252,202.6055,1648.252,212.6055,1652.252,208.6055,1648.252" style="stroke:#DC2626;stroke-width:1;"/><line style="stroke:#DC2626;stroke-width:1;stroke-dasharray:2,2;" x1="206.6055" x2="488.0459" y1="1648.252" y2="1648.252"/><text fill="#000000" font-family="'Segoe UI'" font-size="13" lengthAdjust="spacing" textLength="77.7969" x="218.6055" y="1612.8887">201 Created</text><text fill="#000000" font-family="'Segoe UI'" font-size="13" lengthAdjust="spacing" textLength="177.5122" x="218.6055" y="1628.1992">(waiver_id, status = ACTIVE,</text><text fill="#000000" font-family="'Segoe UI'" font-size="13" lengthAdjust="spacing" textLength="69.1133" x="218.6055" y="1643.5098">expires_at)</text></g><g class="message" data-entity-1="part2" data-entity-2="part1" id="msg20"><polygon fill="#DC2626" points="67.7524,1673.5625,57.7524,1677.5625,67.7524,1681.5625,63.7524,1677.5625" style="stroke:#DC2626;stroke-width:1;"/><line style="stroke:#DC2626;stroke-width:1;stroke-dasharray:2,2;" x1="61.7524" x2="200.6055" y1="1677.5625" y2="1677.5625"/><text fill="#000000" font-family="'Segoe UI'" font-size="13" lengthAdjust="spacing" textLength="77.7969" x="73.7524" y="1672.8203">201 Created</text></g><a href="/microservices/svc-safety-compliance/#integration-context" target="_top" title="/microservices/svc-safety-compliance/#integration-context" xlink:actuate="onRequest" xlink:href="/microservices/svc-safety-compliance/#integration-context" xlink:show="new" xlink:title="/microservices/svc-safety-compliance/#integration-context" xlink:type="simple"><text fill="#0000FF" font-family="'Segoe UI'" font-size="10" lengthAdjust="spacing" text-decoration="underline" textLength="222.0703" x="869.6187" y="14.668">&#11014; svc-safety-compliance Integration Context</text></a><?plantuml-src lLTHSnet47xNhzY65pCrniPj4ZCs7G87kHaN263x8NWOvKuSQWxTzIGWD9EPFlKNz6VqL-MNT2NT7NUOTDm-r0ysIAjlLzz-koj_nuKNhdq6PsTrjMGhTXQlLo6H7xc8QK9N8DclQoOy1fy9u4yxIQ9j9mgZ12g-rtZPU4c-4B9ar6S9l7zVNt4lYIHBDjnZiYutNatI1LExcXUjuf1JHAfNk50iIAZYaS1r_F99mTU__e2Zvk3khQ5ZhHyV2L5SXGn6myaKwblADooHCz5VCwb0ya18i4XWzsRYMlBVMFFYl7NjwV2RbLVU9ML-gptkl7MdJcSAmtjdF7Qx3dpz_KzW8k7UalcmvMe9t6S27Uu0eVY2UpOQAdpZYwfrmY2WYbtN3NZhkgwzjGX14XNtU4o5WXUTa2FC2w0Ix4VD68tneXPGrl5YfHFjaGjznDtIdJdMVp17F1KbibwXCQy5TlVn4IhEUQ_HSye0HoarK9EDzzo4QV2UupISHXdSiZrAeWKFcRG1Zew31jgq5gUc1j7fEbU7uNOZRpr1HWrMTu9kBvtNlLxPQ12fF0VMwq0jTiVzYgAjlSX5xyVU5V6feX-ePF1Y54aL96poxjPwVVDi7MkCciHSCCjGxwfpIGYwP12XK3J5M3I8bWDXnew3dItLAeHxphR01KosD0WGuCv5GJ1KcSOa91LDhQLrq2nhdw0e-0R5eFUoqiIFQAmptOGaMkDceijPghsrtipCRUW93vOAeaLwxfw6tDUMrb66C1Cd9gTpxf-cMtErYzdfJ51_Ws5YISoHTnP4oSuSuWdpguJSt41tRINFuC5YTfRC-mWtDuHednWo9g494-TMbsLlFFmPyWf_UEkC7SXSmmtyD1FjGRSOmdvHAYnDYT_RdQbxxzX5zYd6KEISAcZ1OFXmKjspWNwpFEB7MawUyubBnKMGnG4dV87blwiIdnKE4q931MszaFD5mmIxumxT8eGqJVGfpThfPUSLUXepP4x03-TNkjaja2ULjRKCQOagtUYip4Jg0r7KaalGjpSU38sPJifO9oozopobJ2TmpqdLd2_SoeeOD9H6J3LOHZqyqtyWBCJQ6aH0IsJepefDm6FC9-OGgi7DUkjziRTgCUGtQUc-qdnMPwa4JDarcOcabYzbPj1ti7AiLVrpPlS5Yqsxt5zZb7Sfmy2ee0YRaXGFMHLqnKwXEtnp2cuNVEnZAysJLU0JKliZyWqbD2qDEojnmAHUlFv-9d3UwhG7Qvhus300nwP4_9b8hOi-UIeFT9Ioh5Lf0ruBFQWlNf-YwoTenlQR0jNztmZq5-Qf9gou3afFHsmiCt681PX3JKsEMPPaem5tmYX1Ilh1C8ZYbf50Pk_QuwxR7imxmy746KpdO-VTdJjskjKSwuWyZqhqqCin0DIgNi4kcokoomEkQ0YJVBQVP8EfUYXC759volpqNFucm5lbd-SntOKHnMBB4ZN7Z2vFDNKcqsaPLCiQB0p1B9Fxi4oQyqkXwLwV1IDJLipNfIysB8nYPcfUHyRylEGFQEbEB2swZFTON1YNW9ctBUCRtakblA2e0p_Fy3-vUwxuiZWAJ5jzhzRuAs4rlV7lfJTn-uFsz6xipDt1VVlM_Hybbpr73kMb1w6BTJ2Uuf_fS3y8Jmhj-_cJ65jzGGCpaOkWE0FqUdbo7efoFoPDwekZieDaOkF1zyRsiElf0PdUjortmZFpWoUhOns_PHzrpUSywoenFk7AQpNiGNwDbXPXefzIwIJoedW7AahRB5kXHlL_5K_aqZY_oAvKvlo08UJiFmpH0lgn6Oe2-Hi0?></g></svg>