<svg xmlns="http://www.w3.org/2000/svg" xmlns:xlink="http://www.w3.org/1999/xlink" contentStyleType="text/css" data-diagram-type="SEQUENCE" height="603px" preserveAspectRatio="none" style="width:645px;height:603px;background:#FEFEFE;" version="1.1" viewBox="0 0 645 603" width="645px" zoomAndPan="magnify"><title>PUT /guests/{guest_id}/medical-info</title><defs/><g><rect fill="#FEFEFE" height="603" style="stroke:none;stroke-width:1;" width="645" x="0" y="0"/><text fill="#000000" font-family="Segoe UI" font-size="14" font-weight="bold" lengthAdjust="spacing" textLength="269.7598" x="183.876" y="28.5352">PUT /guests/{guest_id}/medical-info</text><text fill="#000000" font-family="Segoe UI" font-size="14" font-weight="bold" lengthAdjust="spacing" textLength="245.9023" x="195.8047" y="45.0234">Update guest medical information</text><g><title>API Gateway</title><rect fill="#C77B30" height="319.1055" style="stroke:#A23B72;stroke-width:1;" width="10" x="284.0923" y="188.0859"/></g><g><title>svc-guest-profiles</title><rect fill="#C77B30" height="260.4844" style="stroke:#A23B72;stroke-width:1;" width="10" x="412.7129" y="217.3965"/></g><g><title>PostgreSQL</title><rect fill="#FCE4EC" height="29.3105" style="stroke:#A23B72;stroke-width:1;" width="10" x="587.0869" y="325.3281"/></g><g><title>PostgreSQL</title><rect fill="#FCE4EC" height="29.3105" style="stroke:#A23B72;stroke-width:1;" width="10" x="587.0869" y="419.2598"/></g><g><title>Client</title><rect fill="#000000" fill-opacity="0.00000" height="403.7266" width="8" x="27.7524" y="121.4648"/><line style="stroke:#A23B72;stroke-width:0.5;stroke-dasharray:5,5;" x1="31" x2="31" y1="121.4648" y2="525.1914"/></g><g><title>API Gateway</title><rect fill="#000000" fill-opacity="0.00000" height="403.7266" width="8" x="285.0923" y="121.4648"/><line style="stroke:#A23B72;stroke-width:0.5;stroke-dasharray:5,5;" x1="288.8032" x2="288.8032" y1="121.4648" y2="525.1914"/></g><g><title>svc-guest-profiles</title><rect fill="#000000" fill-opacity="0.00000" height="403.7266" width="8" x="413.7129" y="121.4648"/><line style="stroke:#A23B72;stroke-width:0.5;stroke-dasharray:5,5;" x1="417.3813" x2="417.3813" y1="121.4648" y2="525.1914"/></g><g><title>PostgreSQL</title><rect fill="#000000" fill-opacity="0.00000" height="403.7266" width="8" x="588.0869" y="121.4648"/><line style="stroke:#A23B72;stroke-width:0.5;stroke-dasharray:5,5;" x1="591.6621" x2="591.6621" y1="121.4648" y2="525.1914"/></g><g class="participant participant-head" data-participant="Client"><rect fill="#E8F4F8" height="30.4883" rx="2.5" ry="2.5" style="stroke:#2E86AB;stroke-width:0.5;" width="53.5049" x="5" y="89.9766"/><text fill="#000000" font-family="Segoe UI" font-size="14" lengthAdjust="spacing" textLength="39.5049" x="12" y="110.5117">Client</text></g><g class="participant participant-tail" data-participant="Client"><rect fill="#E8F4F8" height="30.4883" rx="2.5" ry="2.5" style="stroke:#2E86AB;stroke-width:0.5;" width="53.5049" x="5" y="524.1914"/><text fill="#000000" font-family="Segoe UI" font-size="14" lengthAdjust="spacing" textLength="39.5049" x="12" y="544.7266">Client</text></g><g class="participant participant-head" data-participant="GW"><rect fill="#DBEAFE" height="30.4883" rx="2.5" ry="2.5" style="stroke:#2E86AB;stroke-width:0.5;" width="96.5781" x="240.8032" y="89.9766"/><text fill="#000000" font-family="Segoe UI" font-size="14" lengthAdjust="spacing" textLength="82.5781" x="247.8032" y="110.5117">API Gateway</text></g><g class="participant participant-tail" data-participant="GW"><rect fill="#DBEAFE" height="30.4883" rx="2.5" ry="2.5" style="stroke:#2E86AB;stroke-width:0.5;" width="96.5781" x="240.8032" y="524.1914"/><text fill="#000000" font-family="Segoe UI" font-size="14" lengthAdjust="spacing" textLength="82.5781" x="247.8032" y="544.7266">API Gateway</text></g><g class="participant participant-head" data-participant="Svc"><a href="/microservices/svc-guest-profiles/" target="_top" title="/microservices/svc-guest-profiles/" xlink:actuate="onRequest" xlink:href="/microservices/svc-guest-profiles/" xlink:show="new" xlink:title="/microservices/svc-guest-profiles/" xlink:type="simple"><rect fill="#E8F4F8" height="30.4883" rx="2.5" ry="2.5" style="stroke:#2E86AB;stroke-width:0.5;" width="140.6631" x="347.3813" y="89.9766"/><text fill="#000000" font-family="Segoe UI" font-size="14" lengthAdjust="spacing" textLength="126.6631" x="354.3813" y="110.5117">svc-guest-profiles</text></a></g><g class="participant participant-tail" data-participant="Svc"><a href="/microservices/svc-guest-profiles/" target="_top" title="/microservices/svc-guest-profiles/" xlink:actuate="onRequest" xlink:href="/microservices/svc-guest-profiles/" xlink:show="new" xlink:title="/microservices/svc-guest-profiles/" xlink:type="simple"><rect fill="#E8F4F8" height="30.4883" rx="2.5" ry="2.5" style="stroke:#2E86AB;stroke-width:0.5;" width="140.6631" x="347.3813" y="524.1914"/><text fill="#000000" font-family="Segoe UI" font-size="14" lengthAdjust="spacing" textLength="126.6631" x="354.3813" y="544.7266">svc-guest-profiles</text></a></g><g class="participant participant-head" data-participant="DB"><text fill="#000000" font-family="Segoe UI" font-size="14" lengthAdjust="spacing" textLength="76.8496" x="550.6621" y="118.5117">PostgreSQL</text><path d="M574.0869,68.9766 C574.0869,58.9766 592.0869,58.9766 592.0869,58.9766 C592.0869,58.9766 610.0869,58.9766 610.0869,68.9766 L610.0869,94.9766 C610.0869,104.9766 592.0869,104.9766 592.0869,104.9766 C592.0869,104.9766 574.0869,104.9766 574.0869,94.9766 L574.0869,68.9766" fill="#FCE4EC" style="stroke:#181818;stroke-width:0.5;"/><path d="M574.0869,68.9766 C574.0869,78.9766 592.0869,78.9766 592.0869,78.9766 C592.0869,78.9766 610.0869,78.9766 610.0869,68.9766" fill="none" style="stroke:#181818;stroke-width:0.5;"/></g><g class="participant participant-tail" data-participant="DB"><text fill="#000000" font-family="Segoe UI" font-size="14" lengthAdjust="spacing" textLength="76.8496" x="550.6621" y="537.7266">PostgreSQL</text><path d="M574.0869,550.6797 C574.0869,540.6797 592.0869,540.6797 592.0869,540.6797 C592.0869,540.6797 610.0869,540.6797 610.0869,550.6797 L610.0869,576.6797 C610.0869,586.6797 592.0869,586.6797 592.0869,586.6797 C592.0869,586.6797 574.0869,586.6797 574.0869,576.6797 L574.0869,550.6797" fill="#FCE4EC" style="stroke:#181818;stroke-width:0.5;"/><path d="M574.0869,550.6797 C574.0869,560.6797 592.0869,560.6797 592.0869,560.6797 C592.0869,560.6797 610.0869,560.6797 610.0869,550.6797" fill="none" style="stroke:#181818;stroke-width:0.5;"/></g><g><title>API Gateway</title><rect fill="#C77B30" height="319.1055" style="stroke:#A23B72;stroke-width:1;" width="10" x="284.0923" y="188.0859"/></g><g><title>svc-guest-profiles</title><rect fill="#C77B30" height="260.4844" style="stroke:#A23B72;stroke-width:1;" width="10" x="412.7129" y="217.3965"/></g><g><title>PostgreSQL</title><rect fill="#FCE4EC" height="29.3105" style="stroke:#A23B72;stroke-width:1;" width="10" x="587.0869" y="325.3281"/></g><g><title>PostgreSQL</title><rect fill="#FCE4EC" height="29.3105" style="stroke:#A23B72;stroke-width:1;" width="10" x="587.0869" y="419.2598"/></g><path d="M347,136.4648 L347,161.4648 L487,161.4648 L487,146.4648 L477,136.4648 L347,136.4648" fill="#FEFFDD" style="stroke:#181818;stroke-width:0.5;"/><path d="M477,136.4648 L477,146.4648 L487,146.4648 L477,136.4648" fill="#FEFFDD" style="stroke:#181818;stroke-width:0.5;"/><a href="/services/api/svc-guest-profiles.html#/Medical/updateGuestMedicalInfo" target="_top" title="/services/api/svc-guest-profiles.html#/Medical/updateGuestMedicalInfo" xlink:actuate="onRequest" xlink:href="/services/api/svc-guest-profiles.html#/Medical/updateGuestMedicalInfo" xlink:show="new" xlink:title="/services/api/svc-guest-profiles.html#/Medical/updateGuestMedicalInfo" xlink:type="simple"><text fill="#0000FF" font-family="Segoe UI" font-size="13" lengthAdjust="spacing" text-decoration="underline" textLength="119.4058" x="353" y="154.0332">View in Swagger UI</text></a><g class="message" data-participant-1="Client" data-participant-2="GW"><polygon fill="#C77B30" points="272.0923,184.0859,282.0923,188.0859,272.0923,192.0859,276.0923,188.0859" style="stroke:#C77B30;stroke-width:1;"/><line style="stroke:#C77B30;stroke-width:1;" x1="31.7524" x2="278.0923" y1="188.0859" y2="188.0859"/><text fill="#000000" font-family="Segoe UI" font-size="13" lengthAdjust="spacing" textLength="233.3398" x="38.7524" y="183.3438">PUT /guests/{guest_id}/medical-info</text></g><g class="message" data-participant-1="GW" data-participant-2="Svc"><polygon fill="#C77B30" points="400.7129,213.3965,410.7129,217.3965,400.7129,221.3965,404.7129,217.3965" style="stroke:#C77B30;stroke-width:1;"/><line style="stroke:#C77B30;stroke-width:1;" x1="294.0923" x2="406.7129" y1="217.3965" y2="217.3965"/><text fill="#000000" font-family="Segoe UI" font-size="13" lengthAdjust="spacing" textLength="85.1348" x="301.0923" y="212.6543">route request</text></g><path d="M427,230.3965 L427,255.3965 L585,255.3965 L585,240.3965 L575,230.3965 L427,230.3965" fill="#FEFFDD" style="stroke:#181818;stroke-width:0.5;"/><path d="M575,230.3965 L575,240.3965 L585,240.3965 L575,230.3965" fill="#FEFFDD" style="stroke:#181818;stroke-width:0.5;"/><text fill="#000000" font-family="Segoe UI" font-size="13" lengthAdjust="spacing" textLength="137.5728" x="433" y="247.9648">Validate request body</text><rect fill="#EEEEEE" height="3" style="stroke:#EEEEEE;stroke-width:1;" width="638.5117" x="0" y="281.3623"/><line style="stroke:#000000;stroke-width:1;" x1="0" x2="638.5117" y1="281.3623" y2="281.3623"/><line style="stroke:#000000;stroke-width:1;" x1="0" x2="638.5117" y1="284.3623" y2="284.3623"/><rect fill="#EEEEEE" height="23.3105" style="stroke:#000000;stroke-width:2;" width="80.3711" x="279.0703" y="270.707"/><text fill="#000000" font-family="Segoe UI" font-size="13" font-weight="bold" lengthAdjust="spacing" textLength="62.0864" x="285.0703" y="287.2754">Database</text><g class="message" data-participant-1="Svc" data-participant-2="DB"><polygon fill="#C77B30" points="575.0869,321.3281,585.0869,325.3281,575.0869,329.3281,579.0869,325.3281" style="stroke:#C77B30;stroke-width:1;"/><line style="stroke:#C77B30;stroke-width:1;" x1="422.7129" x2="581.0869" y1="325.3281" y2="325.3281"/><text fill="#000000" font-family="Segoe UI" font-size="13" lengthAdjust="spacing" textLength="145.374" x="429.7129" y="320.5859">SELECT ... FOR UPDATE</text></g><g class="message" data-participant-1="DB" data-participant-2="Svc"><polygon fill="#C77B30" points="433.7129,350.6387,423.7129,354.6387,433.7129,358.6387,429.7129,354.6387" style="stroke:#C77B30;stroke-width:1;"/><line style="stroke:#C77B30;stroke-width:1;stroke-dasharray:2,2;" x1="427.7129" x2="591.0869" y1="354.6387" y2="354.6387"/><text fill="#000000" font-family="Segoe UI" font-size="13" lengthAdjust="spacing" textLength="75.3086" x="439.7129" y="349.8965">Current row</text></g><path d="M427,367.6387 L427,392.6387 L590,392.6387 L590,377.6387 L580,367.6387 L427,367.6387" fill="#FEFFDD" style="stroke:#181818;stroke-width:0.5;"/><path d="M580,367.6387 L580,377.6387 L590,377.6387 L580,367.6387" fill="#FEFFDD" style="stroke:#181818;stroke-width:0.5;"/><text fill="#000000" font-family="Segoe UI" font-size="13" lengthAdjust="spacing" textLength="142.4858" x="433" y="385.207">Replace mutable fields</text><g class="message" data-participant-1="Svc" data-participant-2="DB"><polygon fill="#C77B30" points="575.0869,415.2598,585.0869,419.2598,575.0869,423.2598,579.0869,419.2598" style="stroke:#C77B30;stroke-width:1;"/><line style="stroke:#C77B30;stroke-width:1;" x1="422.7129" x2="581.0869" y1="419.2598" y2="419.2598"/><text fill="#000000" font-family="Segoe UI" font-size="13" lengthAdjust="spacing" textLength="109.4526" x="429.7129" y="414.5176">UPDATE ... SET ...</text></g><g class="message" data-participant-1="DB" data-participant-2="Svc"><polygon fill="#C77B30" points="433.7129,444.5703,423.7129,448.5703,433.7129,452.5703,429.7129,448.5703" style="stroke:#C77B30;stroke-width:1;"/><line style="stroke:#C77B30;stroke-width:1;stroke-dasharray:2,2;" x1="427.7129" x2="591.0869" y1="448.5703" y2="448.5703"/><text fill="#000000" font-family="Segoe UI" font-size="13" lengthAdjust="spacing" textLength="80.2725" x="439.7129" y="443.8281">Updated row</text></g><g class="message" data-participant-1="Svc" data-participant-2="GW"><polygon fill="#C77B30" points="305.0923,473.8809,295.0923,477.8809,305.0923,481.8809,301.0923,477.8809" style="stroke:#C77B30;stroke-width:1;"/><line style="stroke:#C77B30;stroke-width:1;stroke-dasharray:2,2;" x1="299.0923" x2="416.7129" y1="477.8809" y2="477.8809"/><text fill="#000000" font-family="Segoe UI" font-size="13" lengthAdjust="spacing" textLength="47.3599" x="311.0923" y="473.1387">200 OK</text></g><g class="message" data-participant-1="GW" data-participant-2="Client"><polygon fill="#C77B30" points="42.7524,503.1914,32.7524,507.1914,42.7524,511.1914,38.7524,507.1914" style="stroke:#C77B30;stroke-width:1;"/><line style="stroke:#C77B30;stroke-width:1;stroke-dasharray:2,2;" x1="36.7524" x2="288.0923" y1="507.1914" y2="507.1914"/><text fill="#000000" font-family="Segoe UI" font-size="13" lengthAdjust="spacing" textLength="47.3599" x="48.7524" y="502.4492">200 OK</text></g><!--SRC=[ZLFHRjem57ttLrpHPmYbrK18J2AG83JMiWBjGuScazoaLXCxinreLVNVPpk1megq9G-nV8xlEJdtMZqpNb19SzZGw3cLekJnI6H2maKOs9Ue0qCzqLZi64yXePd28oJ6X9QP3WNNDpH7Q2mm5GYhQUFuEFukaKS8RmJCCvHIx6gfgDlTNBNTzfnApI9MKAvz8MEKDQKJzBuC_K-Klqq7lV0wx3dQZ2KuOnnFoWmxLtwtut1Vl9n0uMKlR5yUe4znXA717NmZz6dL8_yEEnFbLT0bxuHefZE4-Me9NbgYqifxSzzVB7xtSenPHBCcuuduoLT5J3M2Ww66m48ofve9JaZn4GGqHXb3hXj05LJBKtWudyB4rDlHLyUPFC35s0-6fiCdFBMDcawoMKYHi0oLeo-s4Jm-UZcBf50ejon2vNtcUklreGV6FTrGPQPXBfHE9Iv-p5ojiMyI6GNNmOWGRk82iKLf5Ko0HkDGdXRiZ4JhIUVPXVUz2iGhNKeJIwctfYOYk6UuCs71OaVJr5HVJTThWZm6AqX8bH0qlzeS-l_J3q8ZpRQs8JQvkk5cQKhORFfW-cr0QOTSwG-s1VVqwcybIvyqYAG-TqypvXfT7uMDY5y96GnWl0zmC234aesMoQuFYs0MZ9RGQhKWlBs3rNmyN0OVaaVvccNpu71KIcd_sjmx4kCH_QolEomoQcvhNXeNPcOJXbciJerKoix88d26_ksY6kluZ8kgzBuddNORRhyTK-o4sCGDe-xVETRaWVm1]--></g></svg>