<?xml version="1.0" encoding="UTF-8" standalone="no"?><svg xmlns="http://www.w3.org/2000/svg" xmlns:xlink="http://www.w3.org/1999/xlink" contentScriptType="application/ecmascript" contentStyleType="text/css" height="677px" preserveAspectRatio="none" style="width:746px;height:677px;background:#FEFEFE;" version="1.1" viewBox="0 0 746 677" width="746px" zoomAndPan="magnify"><defs/><g><text fill="#000000" font-family="Segoe UI" font-size="18" lengthAdjust="spacingAndGlyphs" textLength="114" x="311.5" y="41.3486">POST /media</text><text fill="#000000" font-family="Segoe UI" font-size="18" lengthAdjust="spacingAndGlyphs" textLength="184" x="276.5" y="62.3018">Upload a media item</text><rect fill="#059669" height="383.5938" style="stroke: #6B7280; stroke-width: 1.0;" width="10" x="137.5" y="202.1094"/><rect fill="#059669" height="325.3281" style="stroke: #6B7280; stroke-width: 1.0;" width="10" x="263" y="231.2422"/><rect fill="#F3F4F6" height="29.1328" style="stroke: #6B7280; stroke-width: 1.0;" width="10" x="402" y="338.6406"/><rect fill="#F3F4F6" height="29.1328" style="stroke: #6B7280; stroke-width: 1.0;" width="10" x="544.5" y="396.9063"/><rect fill="#FEF9C3" height="29.1328" style="stroke: #6B7280; stroke-width: 1.0;" width="10" x="680.5" y="498.3047"/><line style="stroke: #6B7280; stroke-width: 1.0; stroke-dasharray: 5.0,5.0;" x1="34" x2="34" y1="135.8438" y2="603.7031"/><line style="stroke: #6B7280; stroke-width: 1.0; stroke-dasharray: 5.0,5.0;" x1="142.5" x2="142.5" y1="135.8438" y2="603.7031"/><line style="stroke: #6B7280; stroke-width: 1.0; stroke-dasharray: 5.0,5.0;" x1="267.5" x2="267.5" y1="135.8438" y2="603.7031"/><line style="stroke: #6B7280; stroke-width: 1.0; stroke-dasharray: 5.0,5.0;" x1="407" x2="407" y1="135.8438" y2="603.7031"/><line style="stroke: #6B7280; stroke-width: 1.0; stroke-dasharray: 5.0,5.0;" x1="549" x2="549" y1="135.8438" y2="603.7031"/><line style="stroke: #6B7280; stroke-width: 1.0; stroke-dasharray: 5.0,5.0;" x1="685" x2="685" y1="135.8438" y2="603.7031"/><a href="/applications/" target="_top" title="/applications/" xlink:actuate="onRequest" xlink:href="/applications/" xlink:show="new" xlink:title="/applications/" xlink:type="simple"><rect fill="#F9FAFB" height="30.2969" style="stroke: #374151; stroke-width: 1.5;" width="53" x="8" y="104.5469"/><text fill="#000000" font-family="Segoe UI" font-size="14" lengthAdjust="spacingAndGlyphs" textLength="39" x="15" y="124.542">Client</text><rect fill="#F9FAFB" height="30.2969" style="stroke: #374151; stroke-width: 1.5;" width="53" x="8" y="602.7031"/><text fill="#000000" font-family="Segoe UI" font-size="14" lengthAdjust="spacingAndGlyphs" textLength="39" x="15" y="622.6982">Client</text></a><a href="/actors/#api-gateway" target="_top" title="/actors/#api-gateway" xlink:actuate="onRequest" xlink:href="/actors/#api-gateway" xlink:show="new" xlink:title="/actors/#api-gateway" xlink:type="simple"><rect fill="#E0F2FE" height="30.2969" style="stroke: #374151; stroke-width: 1.5;" width="98" x="93.5" y="104.5469"/><text fill="#000000" font-family="Segoe UI" font-size="14" lengthAdjust="spacingAndGlyphs" textLength="84" x="100.5" y="124.542">API Gateway</text><rect fill="#E0F2FE" height="30.2969" style="stroke: #374151; stroke-width: 1.5;" width="98" x="93.5" y="602.7031"/><text fill="#000000" font-family="Segoe UI" font-size="14" lengthAdjust="spacingAndGlyphs" textLength="84" x="100.5" y="622.6982">API Gateway</text></a><a href="/microservices/svc-media-gallery/" target="_top" title="/microservices/svc-media-gallery/" xlink:actuate="onRequest" xlink:href="/microservices/svc-media-gallery/" xlink:show="new" xlink:title="/microservices/svc-media-gallery/" xlink:type="simple"><rect fill="#F1F5F9" height="30.2969" style="stroke: #374151; stroke-width: 1.5;" width="133" x="201.5" y="104.5469"/><text fill="#000000" font-family="Segoe UI" font-size="14" lengthAdjust="spacingAndGlyphs" textLength="119" x="208.5" y="124.542">svc-media-gallery</text><rect fill="#F1F5F9" height="30.2969" style="stroke: #374151; stroke-width: 1.5;" width="133" x="201.5" y="602.7031"/><text fill="#000000" font-family="Segoe UI" font-size="14" lengthAdjust="spacingAndGlyphs" textLength="119" x="208.5" y="622.6982">svc-media-gallery</text></a><a href="/actors/#object-store" target="_top" title="/actors/#object-store" xlink:actuate="onRequest" xlink:href="/actors/#object-store" xlink:show="new" xlink:title="/actors/#object-store" xlink:type="simple"><rect fill="#F3F4F6" height="30.2969" style="stroke: #374151; stroke-width: 1.5;" width="100" x="357" y="104.5469"/><text fill="#000000" font-family="Segoe UI" font-size="14" lengthAdjust="spacingAndGlyphs" textLength="86" x="364" y="124.542">Object Store</text><rect fill="#F3F4F6" height="30.2969" style="stroke: #374151; stroke-width: 1.5;" width="100" x="357" y="602.7031"/><text fill="#000000" font-family="Segoe UI" font-size="14" lengthAdjust="spacingAndGlyphs" textLength="86" x="364" y="622.6982">Object Store</text></a><a href="/actors/#google-maps-platform" target="_top" title="/actors/#google-maps-platform" xlink:actuate="onRequest" xlink:href="/actors/#google-maps-platform" xlink:show="new" xlink:title="/actors/#google-maps-platform" xlink:type="simple"><rect fill="#F3F4F6" height="30.2969" style="stroke: #374151; stroke-width: 1.5;" width="165" x="467" y="104.5469"/><text fill="#000000" font-family="Segoe UI" font-size="14" lengthAdjust="spacingAndGlyphs" textLength="151" x="474" y="124.542">Google Maps Platform</text><rect fill="#F3F4F6" height="30.2969" style="stroke: #374151; stroke-width: 1.5;" width="165" x="467" y="602.7031"/><text fill="#000000" font-family="Segoe UI" font-size="14" lengthAdjust="spacingAndGlyphs" textLength="151" x="474" y="622.6982">Google Maps Platform</text></a><a href="/microservices/svc-media-gallery/#data-store" target="_top" title="/microservices/svc-media-gallery/#data-store" xlink:actuate="onRequest" xlink:href="/microservices/svc-media-gallery/#data-store" xlink:show="new" xlink:title="/microservices/svc-media-gallery/#data-store" xlink:type="simple"><text fill="#000000" font-family="Segoe UI" font-size="14" lengthAdjust="spacingAndGlyphs" textLength="81" x="642" y="132.542">PostgreSQL</text><path d="M667.5,83.5469 C667.5,73.5469 685.5,73.5469 685.5,73.5469 C685.5,73.5469 703.5,73.5469 703.5,83.5469 L703.5,109.5469 C703.5,119.5469 685.5,119.5469 685.5,119.5469 C685.5,119.5469 667.5,119.5469 667.5,109.5469 L667.5,83.5469 " fill="#FEF9C3" style="stroke: #000000; stroke-width: 1.5;"/><path d="M667.5,83.5469 C667.5,93.5469 685.5,93.5469 685.5,93.5469 C685.5,93.5469 703.5,93.5469 703.5,83.5469 " fill="none" style="stroke: #000000; stroke-width: 1.5;"/><text fill="#000000" font-family="Segoe UI" font-size="14" lengthAdjust="spacingAndGlyphs" textLength="81" x="642" y="615.6982">PostgreSQL</text><path d="M667.5,629 C667.5,619 685.5,619 685.5,619 C685.5,619 703.5,619 703.5,629 L703.5,655 C703.5,665 685.5,665 685.5,665 C685.5,665 667.5,665 667.5,655 L667.5,629 " fill="#FEF9C3" style="stroke: #000000; stroke-width: 1.5;"/><path d="M667.5,629 C667.5,639 685.5,639 685.5,639 C685.5,639 703.5,639 703.5,629 " fill="none" style="stroke: #000000; stroke-width: 1.5;"/></a><rect fill="#059669" height="383.5938" style="stroke: #6B7280; stroke-width: 1.0;" width="10" x="137.5" y="202.1094"/><rect fill="#059669" height="325.3281" style="stroke: #6B7280; stroke-width: 1.0;" width="10" x="263" y="231.2422"/><rect fill="#F3F4F6" height="29.1328" style="stroke: #6B7280; stroke-width: 1.0;" width="10" x="402" y="338.6406"/><rect fill="#F3F4F6" height="29.1328" style="stroke: #6B7280; stroke-width: 1.0;" width="10" x="544.5" y="396.9063"/><rect fill="#FEF9C3" height="29.1328" style="stroke: #6B7280; stroke-width: 1.0;" width="10" x="680.5" y="498.3047"/><path d="M197,150.8438 L197,175.8438 L338,175.8438 L338,160.8438 L328,150.8438 L197,150.8438 " fill="#FBFB77" style="stroke: #A80036; stroke-width: 1.0;"/><path d="M328,150.8438 L328,160.8438 L338,160.8438 L328,150.8438 " fill="#FBFB77" style="stroke: #A80036; stroke-width: 1.0;"/><a href="/services/api/svc-media-gallery.html#/Media/uploadMedia" target="_top" title="/services/api/svc-media-gallery.html#/Media/uploadMedia" xlink:actuate="onRequest" xlink:href="/services/api/svc-media-gallery.html#/Media/uploadMedia" xlink:show="new" xlink:title="/services/api/svc-media-gallery.html#/Media/uploadMedia" xlink:type="simple"><text fill="#0000FF" font-family="Segoe UI" font-size="13" lengthAdjust="spacingAndGlyphs" text-decoration="underline" textLength="120" x="203" y="167.9106">View in Swagger UI</text></a><polygon fill="#059669" points="125.5,198.1094,135.5,202.1094,125.5,206.1094,129.5,202.1094" style="stroke: #059669; stroke-width: 1.0;"/><line style="stroke: #059669; stroke-width: 1.0;" x1="34.5" x2="131.5" y1="202.1094" y2="202.1094"/><text fill="#000000" font-family="Segoe UI" font-size="13" lengthAdjust="spacingAndGlyphs" textLength="82" x="41.5" y="197.0435">POST /media</text><polygon fill="#059669" points="251,227.2422,261,231.2422,251,235.2422,255,231.2422" style="stroke: #059669; stroke-width: 1.0;"/><line style="stroke: #059669; stroke-width: 1.0;" x1="147.5" x2="257" y1="231.2422" y2="231.2422"/><text fill="#000000" font-family="Segoe UI" font-size="13" lengthAdjust="spacingAndGlyphs" textLength="87" x="154.5" y="226.1763">route request</text><path d="M278,244.2422 L278,269.2422 L439,269.2422 L439,254.2422 L429,244.2422 L278,244.2422 " fill="#FBFB77" style="stroke: #A80036; stroke-width: 1.0;"/><path d="M429,244.2422 L429,254.2422 L439,254.2422 L429,244.2422 " fill="#FBFB77" style="stroke: #A80036; stroke-width: 1.0;"/><text fill="#000000" font-family="Segoe UI" font-size="13" lengthAdjust="spacingAndGlyphs" textLength="140" x="284" y="261.3091">Validate request body</text><rect fill="#EEEEEE" height="3" style="stroke: #EEEEEE; stroke-width: 1.0;" width="731" x="3" y="294.9414"/><line style="stroke: #000000; stroke-width: 1.0;" x1="3" x2="734" y1="294.9414" y2="294.9414"/><line style="stroke: #000000; stroke-width: 1.0;" x1="3" x2="734" y1="297.9414" y2="297.9414"/><rect fill="#EEEEEE" height="23.1328" style="stroke: #000000; stroke-width: 2.0;" width="204" x="266.5" y="284.375"/><text fill="#000000" font-family="Segoe UI" font-size="13" font-weight="bold" lengthAdjust="spacingAndGlyphs" textLength="185" x="272.5" y="300.4419">Cross-Service Integration</text><polygon fill="#059669" points="390,334.6406,400,338.6406,390,342.6406,394,338.6406" style="stroke: #059669; stroke-width: 1.0;"/><line style="stroke: #059669; stroke-width: 1.0;" x1="273" x2="396" y1="338.6406" y2="338.6406"/><text fill="#000000" font-family="Segoe UI" font-size="13" lengthAdjust="spacingAndGlyphs" textLength="110" x="280" y="333.5747">Upload binary file</text><polygon fill="#059669" points="284,363.7734,274,367.7734,284,371.7734,280,367.7734" style="stroke: #059669; stroke-width: 1.0;"/><line style="stroke: #059669; stroke-width: 1.0; stroke-dasharray: 2.0,2.0;" x1="278" x2="406" y1="367.7734" y2="367.7734"/><text fill="#000000" font-family="Segoe UI" font-size="13" lengthAdjust="spacingAndGlyphs" textLength="18" x="290" y="362.7075">OK</text><polygon fill="#059669" points="532.5,392.9063,542.5,396.9063,532.5,400.9063,536.5,396.9063" style="stroke: #059669; stroke-width: 1.0;"/><line style="stroke: #059669; stroke-width: 1.0;" x1="273" x2="538.5" y1="396.9063" y2="396.9063"/><text fill="#000000" font-family="Segoe UI" font-size="13" lengthAdjust="spacingAndGlyphs" textLength="208" x="280" y="391.8403">Reverse geocode GPS metadata</text><polygon fill="#059669" points="284,422.0391,274,426.0391,284,430.0391,280,426.0391" style="stroke: #059669; stroke-width: 1.0;"/><line style="stroke: #059669; stroke-width: 1.0; stroke-dasharray: 2.0,2.0;" x1="278" x2="548.5" y1="426.0391" y2="426.0391"/><text fill="#000000" font-family="Segoe UI" font-size="13" lengthAdjust="spacingAndGlyphs" textLength="18" x="290" y="420.9731">OK</text><rect fill="#EEEEEE" height="3" style="stroke: #EEEEEE; stroke-width: 1.0;" width="731" x="3" y="454.6055"/><line style="stroke: #000000; stroke-width: 1.0;" x1="3" x2="734" y1="454.6055" y2="454.6055"/><line style="stroke: #000000; stroke-width: 1.0;" x1="3" x2="734" y1="457.6055" y2="457.6055"/><rect fill="#EEEEEE" height="23.1328" style="stroke: #000000; stroke-width: 2.0;" width="90" x="323.5" y="444.0391"/><text fill="#000000" font-family="Segoe UI" font-size="13" font-weight="bold" lengthAdjust="spacingAndGlyphs" textLength="71" x="329.5" y="460.106">Database</text><polygon fill="#059669" points="668.5,494.3047,678.5,498.3047,668.5,502.3047,672.5,498.3047" style="stroke: #059669; stroke-width: 1.0;"/><line style="stroke: #059669; stroke-width: 1.0;" x1="273" x2="674.5" y1="498.3047" y2="498.3047"/><text fill="#000000" font-family="Segoe UI" font-size="13" lengthAdjust="spacingAndGlyphs" textLength="95" x="280" y="493.2388">INSERT INTO ...</text><polygon fill="#059669" points="284,523.4375,274,527.4375,284,531.4375,280,527.4375" style="stroke: #059669; stroke-width: 1.0;"/><line style="stroke: #059669; stroke-width: 1.0; stroke-dasharray: 2.0,2.0;" x1="278" x2="684.5" y1="527.4375" y2="527.4375"/><text fill="#000000" font-family="Segoe UI" font-size="13" lengthAdjust="spacingAndGlyphs" textLength="77" x="290" y="522.3716">Created row</text><polygon fill="#059669" points="158.5,552.5703,148.5,556.5703,158.5,560.5703,154.5,556.5703" style="stroke: #059669; stroke-width: 1.0;"/><line style="stroke: #059669; stroke-width: 1.0; stroke-dasharray: 2.0,2.0;" x1="152.5" x2="267" y1="556.5703" y2="556.5703"/><text fill="#000000" font-family="Segoe UI" font-size="13" lengthAdjust="spacingAndGlyphs" textLength="79" x="164.5" y="551.5044">201 Created</text><polygon fill="#059669" points="45.5,581.7031,35.5,585.7031,45.5,589.7031,41.5,585.7031" style="stroke: #059669; stroke-width: 1.0;"/><line style="stroke: #059669; stroke-width: 1.0; stroke-dasharray: 2.0,2.0;" x1="39.5" x2="141.5" y1="585.7031" y2="585.7031"/><text fill="#000000" font-family="Segoe UI" font-size="13" lengthAdjust="spacingAndGlyphs" textLength="79" x="51.5" y="580.6372">201 Created</text><a href="/microservices/svc-media-gallery/#integration-context" target="_top" title="/microservices/svc-media-gallery/#integration-context" xlink:actuate="onRequest" xlink:href="/microservices/svc-media-gallery/#integration-context" xlink:show="new" xlink:title="/microservices/svc-media-gallery/#integration-context" xlink:type="simple"><text fill="#0000FF" font-family="Segoe UI" font-size="10" lengthAdjust="spacingAndGlyphs" text-decoration="underline" textLength="196" x="538" y="12.2822">⬆ svc-media-gallery Integration Context</text></a><!--MD5=[38744e6c07708d2360c3b7c86cfb1ff9]
@startuml svc-media-gallery- -post-media

skinparam backgroundColor #FEFEFE
skinparam shadowing false
skinparam defaultFontName "Segoe UI"
skinparam sequence {
    ArrowColor #059669
    ParticipantBorderColor #374151
    ParticipantBackgroundColor #F9FAFB
    LifeLineBorderColor #6B7280
    BoxBorderColor #94A3B8
    BoxBackgroundColor #F8FAFC
    NoteBorderColor #64748B
    NoteBackgroundColor #F8FAFC
}

header [[/microservices/svc-media-gallery/#integration-context ⬆ svc-media-gallery Integration Context]]

title POST /media\nUpload a media item

participant "Client" as Client [[/applications/]]
participant "API Gateway" as GW [[/actors/#api-gateway]] #E0F2FE
participant "svc-media-gallery" as Svc [[/microservices/svc-media-gallery/]] #F1F5F9
participant "Object Store" as S3 [[/actors/#object-store]] #F3F4F6
participant "Google Maps Platform" as ExtMap [[/actors/#google-maps-platform]] #F3F4F6
database "PostgreSQL" as DB [[/microservices/svc-media-gallery/#data-store]] #FEF9C3

note over Svc
  [[/services/api/svc-media-gallery.html#/Media/uploadMedia View in Swagger UI]]
end note

Client -> GW : POST /media
activate GW #059669
GW -> Svc : route request
activate Svc #059669

note right of Svc : Validate request body

== Cross-Service Integration ==

Svc -> S3 : Upload binary file
activate S3 #F3F4F6
S3 - -> Svc : OK
deactivate S3

Svc -> ExtMap : Reverse geocode GPS metadata
activate ExtMap #F3F4F6
ExtMap - -> Svc : OK
deactivate ExtMap

== Database ==

Svc -> DB : INSERT INTO ...
activate DB #FEF9C3
DB - -> Svc : Created row
deactivate DB

Svc - -> GW : 201 Created
deactivate Svc
GW - -> Client : 201 Created
deactivate GW

@enduml

PlantUML version 1.2020.02(Sun Mar 01 10:22:07 UTC 2020)
(GPL source distribution)
Java Runtime: OpenJDK Runtime Environment
JVM: OpenJDK 64-Bit Server VM
Java Version: 17.0.18+8
Operating System: Linux
Default Encoding: UTF-8
Language: en
Country: null
--></g></svg>