<?xml version="1.0" encoding="UTF-8" standalone="no"?><svg xmlns="http://www.w3.org/2000/svg" xmlns:xlink="http://www.w3.org/1999/xlink" contentScriptType="application/ecmascript" contentStyleType="text/css" height="482px" preserveAspectRatio="none" style="width:580px;height:482px;background:#FEFEFE;" version="1.1" viewBox="0 0 580 482" width="580px" zoomAndPan="magnify"><defs/><g><text fill="#000000" font-family="Segoe UI" font-size="18" lengthAdjust="spacingAndGlyphs" textLength="173" x="199" y="41.3486">GET /reorder-alerts</text><text fill="#000000" font-family="Segoe UI" font-size="18" lengthAdjust="spacingAndGlyphs" textLength="220" x="175.5" y="62.3018">Get active reorder alerts</text><rect fill="#2563EB" height="188.7969" style="stroke: #6B7280; stroke-width: 1.0;" width="10" x="174.5" y="202.1094"/><rect fill="#2563EB" height="130.5313" style="stroke: #6B7280; stroke-width: 1.0;" width="10" x="333.5" y="231.2422"/><rect fill="#FEF9C3" height="29.1328" style="stroke: #6B7280; stroke-width: 1.0;" width="10" x="514.5" y="303.5078"/><line style="stroke: #6B7280; stroke-width: 1.0; stroke-dasharray: 5.0,5.0;" x1="34" x2="34" y1="135.8438" y2="408.9063"/><line style="stroke: #6B7280; stroke-width: 1.0; stroke-dasharray: 5.0,5.0;" x1="179.5" x2="179.5" y1="135.8438" y2="408.9063"/><line style="stroke: #6B7280; stroke-width: 1.0; stroke-dasharray: 5.0,5.0;" x1="338.5" x2="338.5" y1="135.8438" y2="408.9063"/><line style="stroke: #6B7280; stroke-width: 1.0; stroke-dasharray: 5.0,5.0;" x1="519" x2="519" y1="135.8438" y2="408.9063"/><a href="/applications/" target="_top" title="/applications/" xlink:actuate="onRequest" xlink:href="/applications/" xlink:show="new" xlink:title="/applications/" xlink:type="simple"><rect fill="#F9FAFB" height="30.2969" style="stroke: #374151; stroke-width: 1.5;" width="53" x="8" y="104.5469"/><text fill="#000000" font-family="Segoe UI" font-size="14" lengthAdjust="spacingAndGlyphs" textLength="39" x="15" y="124.542">Client</text><rect fill="#F9FAFB" height="30.2969" style="stroke: #374151; stroke-width: 1.5;" width="53" x="8" y="407.9063"/><text fill="#000000" font-family="Segoe UI" font-size="14" lengthAdjust="spacingAndGlyphs" textLength="39" x="15" y="427.9014">Client</text></a><a href="/actors/#api-gateway" target="_top" title="/actors/#api-gateway" xlink:actuate="onRequest" xlink:href="/actors/#api-gateway" xlink:show="new" xlink:title="/actors/#api-gateway" xlink:type="simple"><rect fill="#E0F2FE" height="30.2969" style="stroke: #374151; stroke-width: 1.5;" width="98" x="130.5" y="104.5469"/><text fill="#000000" font-family="Segoe UI" font-size="14" lengthAdjust="spacingAndGlyphs" textLength="84" x="137.5" y="124.542">API Gateway</text><rect fill="#E0F2FE" height="30.2969" style="stroke: #374151; stroke-width: 1.5;" width="98" x="130.5" y="407.9063"/><text fill="#000000" font-family="Segoe UI" font-size="14" lengthAdjust="spacingAndGlyphs" textLength="84" x="137.5" y="427.9014">API Gateway</text></a><a href="/microservices/svc-inventory-procurement/" target="_top" title="/microservices/svc-inventory-procurement/" xlink:actuate="onRequest" xlink:href="/microservices/svc-inventory-procurement/" xlink:show="new" xlink:title="/microservices/svc-inventory-procurement/" xlink:type="simple"><rect fill="#F1F5F9" height="30.2969" style="stroke: #374151; stroke-width: 1.5;" width="200" x="238.5" y="104.5469"/><text fill="#000000" font-family="Segoe UI" font-size="14" lengthAdjust="spacingAndGlyphs" textLength="186" x="245.5" y="124.542">svc-inventory-procurement</text><rect fill="#F1F5F9" height="30.2969" style="stroke: #374151; stroke-width: 1.5;" width="200" x="238.5" y="407.9063"/><text fill="#000000" font-family="Segoe UI" font-size="14" lengthAdjust="spacingAndGlyphs" textLength="186" x="245.5" y="427.9014">svc-inventory-procurement</text></a><a href="/microservices/svc-inventory-procurement/#data-store" target="_top" title="/microservices/svc-inventory-procurement/#data-store" xlink:actuate="onRequest" xlink:href="/microservices/svc-inventory-procurement/#data-store" xlink:show="new" xlink:title="/microservices/svc-inventory-procurement/#data-store" xlink:type="simple"><text fill="#000000" font-family="Segoe UI" font-size="14" lengthAdjust="spacingAndGlyphs" textLength="81" x="476" y="132.542">PostgreSQL</text><path d="M501.5,83.5469 C501.5,73.5469 519.5,73.5469 519.5,73.5469 C519.5,73.5469 537.5,73.5469 537.5,83.5469 L537.5,109.5469 C537.5,119.5469 519.5,119.5469 519.5,119.5469 C519.5,119.5469 501.5,119.5469 501.5,109.5469 L501.5,83.5469 " fill="#FEF9C3" style="stroke: #000000; stroke-width: 1.5;"/><path d="M501.5,83.5469 C501.5,93.5469 519.5,93.5469 519.5,93.5469 C519.5,93.5469 537.5,93.5469 537.5,83.5469 " fill="none" style="stroke: #000000; stroke-width: 1.5;"/><text fill="#000000" font-family="Segoe UI" font-size="14" lengthAdjust="spacingAndGlyphs" textLength="81" x="476" y="420.9014">PostgreSQL</text><path d="M501.5,434.2031 C501.5,424.2031 519.5,424.2031 519.5,424.2031 C519.5,424.2031 537.5,424.2031 537.5,434.2031 L537.5,460.2031 C537.5,470.2031 519.5,470.2031 519.5,470.2031 C519.5,470.2031 501.5,470.2031 501.5,460.2031 L501.5,434.2031 " fill="#FEF9C3" style="stroke: #000000; stroke-width: 1.5;"/><path d="M501.5,434.2031 C501.5,444.2031 519.5,444.2031 519.5,444.2031 C519.5,444.2031 537.5,444.2031 537.5,434.2031 " fill="none" style="stroke: #000000; stroke-width: 1.5;"/></a><rect fill="#2563EB" height="188.7969" style="stroke: #6B7280; stroke-width: 1.0;" width="10" x="174.5" y="202.1094"/><rect fill="#2563EB" height="130.5313" style="stroke: #6B7280; stroke-width: 1.0;" width="10" x="333.5" y="231.2422"/><rect fill="#FEF9C3" height="29.1328" style="stroke: #6B7280; stroke-width: 1.0;" width="10" x="514.5" y="303.5078"/><path d="M268,150.8438 L268,175.8438 L409,175.8438 L409,160.8438 L399,150.8438 L268,150.8438 " fill="#FBFB77" style="stroke: #A80036; stroke-width: 1.0;"/><path d="M399,150.8438 L399,160.8438 L409,160.8438 L399,150.8438 " fill="#FBFB77" style="stroke: #A80036; stroke-width: 1.0;"/><a href="/services/api/svc-inventory-procurement.html" target="_top" title="/services/api/svc-inventory-procurement.html" xlink:actuate="onRequest" xlink:href="/services/api/svc-inventory-procurement.html" xlink:show="new" xlink:title="/services/api/svc-inventory-procurement.html" xlink:type="simple"><text fill="#0000FF" font-family="Segoe UI" font-size="13" lengthAdjust="spacingAndGlyphs" text-decoration="underline" textLength="120" x="274" y="167.9106">View in Swagger UI</text></a><polygon fill="#2563EB" points="162.5,198.1094,172.5,202.1094,162.5,206.1094,166.5,202.1094" style="stroke: #2563EB; stroke-width: 1.0;"/><line style="stroke: #2563EB; stroke-width: 1.0;" x1="34.5" x2="168.5" y1="202.1094" y2="202.1094"/><text fill="#000000" font-family="Segoe UI" font-size="13" lengthAdjust="spacingAndGlyphs" textLength="121" x="41.5" y="197.0435">GET /reorder-alerts</text><polygon fill="#2563EB" points="321.5,227.2422,331.5,231.2422,321.5,235.2422,325.5,231.2422" style="stroke: #2563EB; stroke-width: 1.0;"/><line style="stroke: #2563EB; stroke-width: 1.0;" x1="184.5" x2="327.5" y1="231.2422" y2="231.2422"/><text fill="#000000" font-family="Segoe UI" font-size="13" lengthAdjust="spacingAndGlyphs" textLength="87" x="191.5" y="226.1763">route request</text><rect fill="#EEEEEE" height="3" style="stroke: #EEEEEE; stroke-width: 1.0;" width="565" x="3" y="259.8086"/><line style="stroke: #000000; stroke-width: 1.0;" x1="3" x2="568" y1="259.8086" y2="259.8086"/><line style="stroke: #000000; stroke-width: 1.0;" x1="3" x2="568" y1="262.8086" y2="262.8086"/><rect fill="#EEEEEE" height="23.1328" style="stroke: #000000; stroke-width: 2.0;" width="90" x="240.5" y="249.2422"/><text fill="#000000" font-family="Segoe UI" font-size="13" font-weight="bold" lengthAdjust="spacingAndGlyphs" textLength="71" x="246.5" y="265.3091">Database</text><polygon fill="#2563EB" points="502.5,299.5078,512.5,303.5078,502.5,307.5078,506.5,303.5078" style="stroke: #2563EB; stroke-width: 1.0;"/><line style="stroke: #2563EB; stroke-width: 1.0;" x1="343.5" x2="508.5" y1="303.5078" y2="303.5078"/><text fill="#000000" font-family="Segoe UI" font-size="13" lengthAdjust="spacingAndGlyphs" textLength="152" x="350.5" y="298.4419">SELECT ... WHERE filters</text><polygon fill="#2563EB" points="354.5,328.6406,344.5,332.6406,354.5,336.6406,350.5,332.6406" style="stroke: #2563EB; stroke-width: 1.0;"/><line style="stroke: #2563EB; stroke-width: 1.0; stroke-dasharray: 2.0,2.0;" x1="348.5" x2="518.5" y1="332.6406" y2="332.6406"/><text fill="#000000" font-family="Segoe UI" font-size="13" lengthAdjust="spacingAndGlyphs" textLength="95" x="360.5" y="327.5747">Page of results</text><polygon fill="#2563EB" points="195.5,357.7734,185.5,361.7734,195.5,365.7734,191.5,361.7734" style="stroke: #2563EB; stroke-width: 1.0;"/><line style="stroke: #2563EB; stroke-width: 1.0; stroke-dasharray: 2.0,2.0;" x1="189.5" x2="337.5" y1="361.7734" y2="361.7734"/><text fill="#000000" font-family="Segoe UI" font-size="13" lengthAdjust="spacingAndGlyphs" textLength="46" x="201.5" y="356.7075">200 OK</text><polygon fill="#2563EB" points="45.5,386.9063,35.5,390.9063,45.5,394.9063,41.5,390.9063" style="stroke: #2563EB; stroke-width: 1.0;"/><line style="stroke: #2563EB; stroke-width: 1.0; stroke-dasharray: 2.0,2.0;" x1="39.5" x2="178.5" y1="390.9063" y2="390.9063"/><text fill="#000000" font-family="Segoe UI" font-size="13" lengthAdjust="spacingAndGlyphs" textLength="46" x="51.5" y="385.8403">200 OK</text><a href="/microservices/svc-inventory-procurement/#integration-context" target="_top" title="/microservices/svc-inventory-procurement/#integration-context" xlink:actuate="onRequest" xlink:href="/microservices/svc-inventory-procurement/#integration-context" xlink:show="new" xlink:title="/microservices/svc-inventory-procurement/#integration-context" xlink:type="simple"><text fill="#0000FF" font-family="Segoe UI" font-size="10" lengthAdjust="spacingAndGlyphs" text-decoration="underline" textLength="243" x="325" y="12.2822">⬆ svc-inventory-procurement Integration Context</text></a><!--MD5=[b0f31e1440437fe3d2b691d4635bc79d]
@startuml svc-inventory-procurement- -get-reorder-alerts

skinparam backgroundColor #FEFEFE
skinparam shadowing false
skinparam defaultFontName "Segoe UI"
skinparam sequence {
    ArrowColor #2563eb
    ParticipantBorderColor #374151
    ParticipantBackgroundColor #F9FAFB
    LifeLineBorderColor #6B7280
    BoxBorderColor #94A3B8
    BoxBackgroundColor #F8FAFC
    NoteBorderColor #64748B
    NoteBackgroundColor #F8FAFC
}

header [[/microservices/svc-inventory-procurement/#integration-context ⬆ svc-inventory-procurement Integration Context]]

title GET /reorder-alerts\nGet active reorder alerts

participant "Client" as Client [[/applications/]]
participant "API Gateway" as GW [[/actors/#api-gateway]] #E0F2FE
participant "svc-inventory-procurement" as Svc [[/microservices/svc-inventory-procurement/]] #F1F5F9
database "PostgreSQL" as DB [[/microservices/svc-inventory-procurement/#data-store]] #FEF9C3

note over Svc
  [[/services/api/svc-inventory-procurement.html View in Swagger UI]]
end note

Client -> GW : GET /reorder-alerts
activate GW #2563eb
GW -> Svc : route request
activate Svc #2563eb

== Database ==

Svc -> DB : SELECT ... WHERE filters
activate DB #FEF9C3
DB - -> Svc : Page of results
deactivate DB

Svc - -> GW : 200 OK
deactivate Svc
GW - -> Client : 200 OK
deactivate GW

@enduml

PlantUML version 1.2020.02(Sun Mar 01 10:22:07 UTC 2020)
(GPL source distribution)
Java Runtime: OpenJDK Runtime Environment
JVM: OpenJDK 64-Bit Server VM
Java Version: 17.0.18+8
Operating System: Linux
Default Encoding: UTF-8
Language: en
Country: null
--></g></svg>