<svg xmlns="http://www.w3.org/2000/svg" xmlns:xlink="http://www.w3.org/1999/xlink" contentStyleType="text/css" data-diagram-type="SEQUENCE" height="603px" preserveAspectRatio="none" style="width:556px;height:603px;background:#FEFEFE;" version="1.1" viewBox="0 0 556 603" width="556px" zoomAndPan="magnify"><title>PATCH /trails/{trail_id}</title><defs/><g><rect fill="#FEFEFE" height="603" style="stroke:none;stroke-width:1;" width="556" x="0" y="0"/><text fill="#000000" font-family="Segoe UI" font-size="14" font-weight="bold" lengthAdjust="spacing" textLength="167.7676" x="190.1699" y="28.5352">PATCH /trails/{trail_id}</text><text fill="#000000" font-family="Segoe UI" font-size="14" font-weight="bold" lengthAdjust="spacing" textLength="137.9766" x="205.0654" y="45.0234">Update trail details</text><g><title>API Gateway</title><rect fill="#7C3AED" height="319.1055" style="stroke:#A23B72;stroke-width:1;" width="10" x="194.6982" y="188.0859"/></g><g><title>svc-trail-management</title><rect fill="#7C3AED" height="260.4844" style="stroke:#A23B72;stroke-width:1;" width="10" x="336.5327" y="217.3965"/></g><g><title>PostGIS</title><rect fill="#FCE4EC" height="29.3105" style="stroke:#A23B72;stroke-width:1;" width="10" x="510.9067" y="325.3281"/></g><g><title>PostGIS</title><rect fill="#FCE4EC" height="29.3105" style="stroke:#A23B72;stroke-width:1;" width="10" x="510.9067" y="419.2598"/></g><g><title>Client</title><rect fill="#000000" fill-opacity="0.00000" height="403.7266" width="8" x="27.7524" y="121.4648"/><line style="stroke:#A23B72;stroke-width:0.5;stroke-dasharray:5,5;" x1="31" x2="31" y1="121.4648" y2="525.1914"/></g><g><title>API Gateway</title><rect fill="#000000" fill-opacity="0.00000" height="403.7266" width="8" x="195.6982" y="121.4648"/><line style="stroke:#A23B72;stroke-width:0.5;stroke-dasharray:5,5;" x1="199.4092" x2="199.4092" y1="121.4648" y2="525.1914"/></g><g><title>svc-trail-management</title><rect fill="#000000" fill-opacity="0.00000" height="403.7266" width="8" x="337.5327" y="121.4648"/><line style="stroke:#A23B72;stroke-width:0.5;stroke-dasharray:5,5;" x1="340.9873" x2="340.9873" y1="121.4648" y2="525.1914"/></g><g><title>PostGIS</title><rect fill="#000000" fill-opacity="0.00000" height="403.7266" width="8" x="511.9067" y="121.4648"/><line style="stroke:#A23B72;stroke-width:0.5;stroke-dasharray:5,5;" x1="515.7061" x2="515.7061" y1="121.4648" y2="525.1914"/></g><g class="participant participant-head" data-participant="Client"><rect fill="#E8F4F8" height="30.4883" rx="2.5" ry="2.5" style="stroke:#2E86AB;stroke-width:0.5;" width="53.5049" x="5" y="89.9766"/><text fill="#000000" font-family="Segoe UI" font-size="14" lengthAdjust="spacing" textLength="39.5049" x="12" y="110.5117">Client</text></g><g class="participant participant-tail" data-participant="Client"><rect fill="#E8F4F8" height="30.4883" rx="2.5" ry="2.5" style="stroke:#2E86AB;stroke-width:0.5;" width="53.5049" x="5" y="524.1914"/><text fill="#000000" font-family="Segoe UI" font-size="14" lengthAdjust="spacing" textLength="39.5049" x="12" y="544.7266">Client</text></g><g class="participant participant-head" data-participant="GW"><rect fill="#DBEAFE" height="30.4883" rx="2.5" ry="2.5" style="stroke:#2E86AB;stroke-width:0.5;" width="96.5781" x="151.4092" y="89.9766"/><text fill="#000000" font-family="Segoe UI" font-size="14" lengthAdjust="spacing" textLength="82.5781" x="158.4092" y="110.5117">API Gateway</text></g><g class="participant participant-tail" data-participant="GW"><rect fill="#DBEAFE" height="30.4883" rx="2.5" ry="2.5" style="stroke:#2E86AB;stroke-width:0.5;" width="96.5781" x="151.4092" y="524.1914"/><text fill="#000000" font-family="Segoe UI" font-size="14" lengthAdjust="spacing" textLength="82.5781" x="158.4092" y="544.7266">API Gateway</text></g><g class="participant participant-head" data-participant="Svc"><a href="/microservices/svc-trail-management/" target="_top" title="/microservices/svc-trail-management/" xlink:actuate="onRequest" xlink:href="/microservices/svc-trail-management/" xlink:show="new" xlink:title="/microservices/svc-trail-management/" xlink:type="simple"><rect fill="#E8F4F8" height="30.4883" rx="2.5" ry="2.5" style="stroke:#2E86AB;stroke-width:0.5;" width="167.0908" x="257.9873" y="89.9766"/><text fill="#000000" font-family="Segoe UI" font-size="14" lengthAdjust="spacing" textLength="153.0908" x="264.9873" y="110.5117">svc-trail-management</text></a></g><g class="participant participant-tail" data-participant="Svc"><a href="/microservices/svc-trail-management/" target="_top" title="/microservices/svc-trail-management/" xlink:actuate="onRequest" xlink:href="/microservices/svc-trail-management/" xlink:show="new" xlink:title="/microservices/svc-trail-management/" xlink:type="simple"><rect fill="#E8F4F8" height="30.4883" rx="2.5" ry="2.5" style="stroke:#2E86AB;stroke-width:0.5;" width="167.0908" x="257.9873" y="524.1914"/><text fill="#000000" font-family="Segoe UI" font-size="14" lengthAdjust="spacing" textLength="153.0908" x="264.9873" y="544.7266">svc-trail-management</text></a></g><g class="participant participant-head" data-participant="DB"><text fill="#000000" font-family="Segoe UI" font-size="14" lengthAdjust="spacing" textLength="50.4014" x="487.7061" y="118.5117">PostGIS</text><path d="M497.9067,68.9766 C497.9067,58.9766 515.9067,58.9766 515.9067,58.9766 C515.9067,58.9766 533.9067,58.9766 533.9067,68.9766 L533.9067,94.9766 C533.9067,104.9766 515.9067,104.9766 515.9067,104.9766 C515.9067,104.9766 497.9067,104.9766 497.9067,94.9766 L497.9067,68.9766" fill="#FCE4EC" style="stroke:#181818;stroke-width:0.5;"/><path d="M497.9067,68.9766 C497.9067,78.9766 515.9067,78.9766 515.9067,78.9766 C515.9067,78.9766 533.9067,78.9766 533.9067,68.9766" fill="none" style="stroke:#181818;stroke-width:0.5;"/></g><g class="participant participant-tail" data-participant="DB"><text fill="#000000" font-family="Segoe UI" font-size="14" lengthAdjust="spacing" textLength="50.4014" x="487.7061" y="537.7266">PostGIS</text><path d="M497.9067,550.6797 C497.9067,540.6797 515.9067,540.6797 515.9067,540.6797 C515.9067,540.6797 533.9067,540.6797 533.9067,550.6797 L533.9067,576.6797 C533.9067,586.6797 515.9067,586.6797 515.9067,586.6797 C515.9067,586.6797 497.9067,586.6797 497.9067,576.6797 L497.9067,550.6797" fill="#FCE4EC" style="stroke:#181818;stroke-width:0.5;"/><path d="M497.9067,550.6797 C497.9067,560.6797 515.9067,560.6797 515.9067,560.6797 C515.9067,560.6797 533.9067,560.6797 533.9067,550.6797" fill="none" style="stroke:#181818;stroke-width:0.5;"/></g><g><title>API Gateway</title><rect fill="#7C3AED" height="319.1055" style="stroke:#A23B72;stroke-width:1;" width="10" x="194.6982" y="188.0859"/></g><g><title>svc-trail-management</title><rect fill="#7C3AED" height="260.4844" style="stroke:#A23B72;stroke-width:1;" width="10" x="336.5327" y="217.3965"/></g><g><title>PostGIS</title><rect fill="#FCE4EC" height="29.3105" style="stroke:#A23B72;stroke-width:1;" width="10" x="510.9067" y="325.3281"/></g><g><title>PostGIS</title><rect fill="#FCE4EC" height="29.3105" style="stroke:#A23B72;stroke-width:1;" width="10" x="510.9067" y="419.2598"/></g><path d="M271,136.4648 L271,161.4648 L411,161.4648 L411,146.4648 L401,136.4648 L271,136.4648" fill="#FEFFDD" style="stroke:#181818;stroke-width:0.5;"/><path d="M401,136.4648 L401,146.4648 L411,146.4648 L401,136.4648" fill="#FEFFDD" style="stroke:#181818;stroke-width:0.5;"/><a href="/services/api/svc-trail-management.html#/Trails/updateTrail" target="_top" title="/services/api/svc-trail-management.html#/Trails/updateTrail" xlink:actuate="onRequest" xlink:href="/services/api/svc-trail-management.html#/Trails/updateTrail" xlink:show="new" xlink:title="/services/api/svc-trail-management.html#/Trails/updateTrail" xlink:type="simple"><text fill="#0000FF" font-family="Segoe UI" font-size="13" lengthAdjust="spacing" text-decoration="underline" textLength="119.4058" x="277" y="154.0332">View in Swagger UI</text></a><g class="message" data-participant-1="Client" data-participant-2="GW"><polygon fill="#7C3AED" points="182.6982,184.0859,192.6982,188.0859,182.6982,192.0859,186.6982,188.0859" style="stroke:#7C3AED;stroke-width:1;"/><line style="stroke:#7C3AED;stroke-width:1;" x1="31.7524" x2="188.6982" y1="188.0859" y2="188.0859"/><text fill="#000000" font-family="Segoe UI" font-size="13" lengthAdjust="spacing" textLength="143.9458" x="38.7524" y="183.3438">PATCH /trails/{trail_id}</text></g><g class="message" data-participant-1="GW" data-participant-2="Svc"><polygon fill="#7C3AED" points="324.5327,213.3965,334.5327,217.3965,324.5327,221.3965,328.5327,217.3965" style="stroke:#7C3AED;stroke-width:1;"/><line style="stroke:#7C3AED;stroke-width:1;" x1="204.6982" x2="330.5327" y1="217.3965" y2="217.3965"/><text fill="#000000" font-family="Segoe UI" font-size="13" lengthAdjust="spacing" textLength="85.1348" x="211.6982" y="212.6543">route request</text></g><path d="M351,230.3965 L351,255.3965 L509,255.3965 L509,240.3965 L499,230.3965 L351,230.3965" fill="#FEFFDD" style="stroke:#181818;stroke-width:0.5;"/><path d="M499,230.3965 L499,240.3965 L509,240.3965 L499,230.3965" fill="#FEFFDD" style="stroke:#181818;stroke-width:0.5;"/><text fill="#000000" font-family="Segoe UI" font-size="13" lengthAdjust="spacing" textLength="137.5728" x="357" y="247.9648">Validate request body</text><rect fill="#EEEEEE" height="3" style="stroke:#EEEEEE;stroke-width:1;" width="549.1074" x="0" y="281.3623"/><line style="stroke:#000000;stroke-width:1;" x1="0" x2="549.1074" y1="281.3623" y2="281.3623"/><line style="stroke:#000000;stroke-width:1;" x1="0" x2="549.1074" y1="284.3623" y2="284.3623"/><rect fill="#EEEEEE" height="23.3105" style="stroke:#000000;stroke-width:2;" width="80.3711" x="234.3682" y="270.707"/><text fill="#000000" font-family="Segoe UI" font-size="13" font-weight="bold" lengthAdjust="spacing" textLength="62.0864" x="240.3682" y="287.2754">Database</text><g class="message" data-participant-1="Svc" data-participant-2="DB"><polygon fill="#7C3AED" points="498.9067,321.3281,508.9067,325.3281,498.9067,329.3281,502.9067,325.3281" style="stroke:#7C3AED;stroke-width:1;"/><line style="stroke:#7C3AED;stroke-width:1;" x1="346.5327" x2="504.9067" y1="325.3281" y2="325.3281"/><text fill="#000000" font-family="Segoe UI" font-size="13" lengthAdjust="spacing" textLength="145.374" x="353.5327" y="320.5859">SELECT ... FOR UPDATE</text></g><g class="message" data-participant-1="DB" data-participant-2="Svc"><polygon fill="#7C3AED" points="357.5327,350.6387,347.5327,354.6387,357.5327,358.6387,353.5327,354.6387" style="stroke:#7C3AED;stroke-width:1;"/><line style="stroke:#7C3AED;stroke-width:1;stroke-dasharray:2,2;" x1="351.5327" x2="514.9067" y1="354.6387" y2="354.6387"/><text fill="#000000" font-family="Segoe UI" font-size="13" lengthAdjust="spacing" textLength="75.3086" x="363.5327" y="349.8965">Current row</text></g><path d="M351,367.6387 L351,392.6387 L537,392.6387 L537,377.6387 L527,367.6387 L351,367.6387" fill="#FEFFDD" style="stroke:#181818;stroke-width:0.5;"/><path d="M527,367.6387 L527,377.6387 L537,377.6387 L527,367.6387" fill="#FEFFDD" style="stroke:#181818;stroke-width:0.5;"/><text fill="#000000" font-family="Segoe UI" font-size="13" lengthAdjust="spacing" textLength="165.9023" x="357" y="385.207">Merge changed fields only</text><g class="message" data-participant-1="Svc" data-participant-2="DB"><polygon fill="#7C3AED" points="498.9067,415.2598,508.9067,419.2598,498.9067,423.2598,502.9067,419.2598" style="stroke:#7C3AED;stroke-width:1;"/><line style="stroke:#7C3AED;stroke-width:1;" x1="346.5327" x2="504.9067" y1="419.2598" y2="419.2598"/><text fill="#000000" font-family="Segoe UI" font-size="13" lengthAdjust="spacing" textLength="109.4526" x="353.5327" y="414.5176">UPDATE ... SET ...</text></g><g class="message" data-participant-1="DB" data-participant-2="Svc"><polygon fill="#7C3AED" points="357.5327,444.5703,347.5327,448.5703,357.5327,452.5703,353.5327,448.5703" style="stroke:#7C3AED;stroke-width:1;"/><line style="stroke:#7C3AED;stroke-width:1;stroke-dasharray:2,2;" x1="351.5327" x2="514.9067" y1="448.5703" y2="448.5703"/><text fill="#000000" font-family="Segoe UI" font-size="13" lengthAdjust="spacing" textLength="80.2725" x="363.5327" y="443.8281">Updated row</text></g><g class="message" data-participant-1="Svc" data-participant-2="GW"><polygon fill="#7C3AED" points="215.6982,473.8809,205.6982,477.8809,215.6982,481.8809,211.6982,477.8809" style="stroke:#7C3AED;stroke-width:1;"/><line style="stroke:#7C3AED;stroke-width:1;stroke-dasharray:2,2;" x1="209.6982" x2="340.5327" y1="477.8809" y2="477.8809"/><text fill="#000000" font-family="Segoe UI" font-size="13" lengthAdjust="spacing" textLength="47.3599" x="221.6982" y="473.1387">200 OK</text></g><g class="message" data-participant-1="GW" data-participant-2="Client"><polygon fill="#7C3AED" points="42.7524,503.1914,32.7524,507.1914,42.7524,511.1914,38.7524,507.1914" style="stroke:#7C3AED;stroke-width:1;"/><line style="stroke:#7C3AED;stroke-width:1;stroke-dasharray:2,2;" x1="36.7524" x2="198.6982" y1="507.1914" y2="507.1914"/><text fill="#000000" font-family="Segoe UI" font-size="13" lengthAdjust="spacing" textLength="47.3599" x="48.7524" y="502.4492">200 OK</text></g><!--SRC=[XLDTRzem57tthxY2PpuArK18J0eXOMYiHGFQXmvD9hu4gy5cje6XglzzjiFdccd9GvoSutlEFTVHhrnigA9hMD3aDLLoArWeCwcW74Vk9lhCq2lAv9wB59OqqtY5C5pIRMPYASm3NIEK9fXAXDcmTBqTVsrH90Xl1EmLA2NtHwbMqgJ8_ESnLOOdV4E5wKd5K1qfZQZzAUXzeFnjEch7zt7RqqPyYICkyAPCq6ZsMWsFz-Jl6oY-QyVrkpFq8OuujhY77wIvhPgqMelc5LOGPJDgaNT233SPmZYOXb-WPXJbcQwz-UTFpjv_YDc6KOFWlzXOZICGihbq3AKmuoXC2QY6V7aB1-CX36oDFJrupk0PolrU5DXHtl3qBgbucSgQ2fhY-bHqialWvQMsvecI6jME9wXhHUpQV7uEtBgc2whjwCTIcy5mualrUxRtCBgFGaA43GRa3fKJi55PYNDrkk652jMLMMVbsZJFQUkpyI_mn74FNC1aJzFKrfmDvtE2We6J8IGF1YgVNVkTV-PDQ6BupWNkKZgUGhkq-rmA7R13jA1o9rUR2zk19thUcEBfoe1S7lSzqOpxGHwtmaAo0o7TBlHFGNMxX3YorR8nTM0IZQ9m2jLg5UB7xp0RzuDfT96yYj8kAsU7uLOfrwhzcGZ3AtgXhs-eKeHaHKMA39OSCwP1YknmwoKNzrucaVVqVoFvoMK5HlBIfraqwdLu_7fDSUV1XMuPnxaLiGRFv0y0]--></g></svg>