<svg xmlns="http://www.w3.org/2000/svg" xmlns:xlink="http://www.w3.org/1999/xlink" contentStyleType="text/css" data-diagram-type="SEQUENCE" height="474px" preserveAspectRatio="none" style="width:529px;height:474px;background:#FEFEFE;" version="1.1" viewBox="0 0 529 474" width="529px" zoomAndPan="magnify"><title>GET /activity-types</title><defs/><g><rect fill="#FEFEFE" height="474" style="stroke:none;stroke-width:1;" width="529" x="0" y="0"/><text fill="#000000" font-family="Segoe UI" font-size="14" font-weight="bold" lengthAdjust="spacing" textLength="141.8115" x="189.8687" y="28.5352">GET /activity-types</text><text fill="#000000" font-family="Segoe UI" font-size="14" font-weight="bold" lengthAdjust="spacing" textLength="196.0957" x="162.7266" y="45.0234">List available activity types</text><g><title>API Gateway</title><rect fill="#2563EB" height="189.8633" style="stroke:#A23B72;stroke-width:1;" width="10" x="172.1704" y="188.0859"/></g><g><title>svc-trip-catalog</title><rect fill="#2563EB" height="131.2422" style="stroke:#A23B72;stroke-width:1;" width="10" x="292.8716" y="217.3965"/></g><g><title>PostgreSQL</title><rect fill="#FCE4EC" height="29.3105" style="stroke:#A23B72;stroke-width:1;" width="10" x="471.124" y="290.0176"/></g><g><title>Client</title><rect fill="#000000" fill-opacity="0.00000" height="274.4844" width="8" x="27.7524" y="121.4648"/><line style="stroke:#A23B72;stroke-width:0.5;stroke-dasharray:5,5;" x1="31" x2="31" y1="121.4648" y2="395.9492"/></g><g><title>API Gateway</title><rect fill="#000000" fill-opacity="0.00000" height="274.4844" width="8" x="173.1704" y="121.4648"/><line style="stroke:#A23B72;stroke-width:0.5;stroke-dasharray:5,5;" x1="176.8813" x2="176.8813" y1="121.4648" y2="395.9492"/></g><g><title>svc-trip-catalog</title><rect fill="#000000" fill-opacity="0.00000" height="274.4844" width="8" x="293.8716" y="121.4648"/><line style="stroke:#A23B72;stroke-width:0.5;stroke-dasharray:5,5;" x1="297.4595" x2="297.4595" y1="121.4648" y2="395.9492"/></g><g><title>PostgreSQL</title><rect fill="#000000" fill-opacity="0.00000" height="274.4844" width="8" x="472.124" y="121.4648"/><line style="stroke:#A23B72;stroke-width:0.5;stroke-dasharray:5,5;" x1="475.6992" x2="475.6992" y1="121.4648" y2="395.9492"/></g><g class="participant participant-head" data-participant="Client"><rect fill="#E8F4F8" height="30.4883" rx="2.5" ry="2.5" style="stroke:#2E86AB;stroke-width:0.5;" width="53.5049" x="5" y="89.9766"/><text fill="#000000" font-family="Segoe UI" font-size="14" lengthAdjust="spacing" textLength="39.5049" x="12" y="110.5117">Client</text></g><g class="participant participant-tail" data-participant="Client"><rect fill="#E8F4F8" height="30.4883" rx="2.5" ry="2.5" style="stroke:#2E86AB;stroke-width:0.5;" width="53.5049" x="5" y="394.9492"/><text fill="#000000" font-family="Segoe UI" font-size="14" lengthAdjust="spacing" textLength="39.5049" x="12" y="415.4844">Client</text></g><g class="participant participant-head" data-participant="GW"><rect fill="#DBEAFE" height="30.4883" rx="2.5" ry="2.5" style="stroke:#2E86AB;stroke-width:0.5;" width="96.5781" x="128.8813" y="89.9766"/><text fill="#000000" font-family="Segoe UI" font-size="14" lengthAdjust="spacing" textLength="82.5781" x="135.8813" y="110.5117">API Gateway</text></g><g class="participant participant-tail" data-participant="GW"><rect fill="#DBEAFE" height="30.4883" rx="2.5" ry="2.5" style="stroke:#2E86AB;stroke-width:0.5;" width="96.5781" x="128.8813" y="394.9492"/><text fill="#000000" font-family="Segoe UI" font-size="14" lengthAdjust="spacing" textLength="82.5781" x="135.8813" y="415.4844">API Gateway</text></g><g class="participant participant-head" data-participant="Svc"><a href="/microservices/svc-trip-catalog/" target="_top" title="/microservices/svc-trip-catalog/" xlink:actuate="onRequest" xlink:href="/microservices/svc-trip-catalog/" xlink:show="new" xlink:title="/microservices/svc-trip-catalog/" xlink:type="simple"><rect fill="#E8F4F8" height="30.4883" rx="2.5" ry="2.5" style="stroke:#2E86AB;stroke-width:0.5;" width="124.8242" x="235.4595" y="89.9766"/><text fill="#000000" font-family="Segoe UI" font-size="14" lengthAdjust="spacing" textLength="110.8242" x="242.4595" y="110.5117">svc-trip-catalog</text></a></g><g class="participant participant-tail" data-participant="Svc"><a href="/microservices/svc-trip-catalog/" target="_top" title="/microservices/svc-trip-catalog/" xlink:actuate="onRequest" xlink:href="/microservices/svc-trip-catalog/" xlink:show="new" xlink:title="/microservices/svc-trip-catalog/" xlink:type="simple"><rect fill="#E8F4F8" height="30.4883" rx="2.5" ry="2.5" style="stroke:#2E86AB;stroke-width:0.5;" width="124.8242" x="235.4595" y="394.9492"/><text fill="#000000" font-family="Segoe UI" font-size="14" lengthAdjust="spacing" textLength="110.8242" x="242.4595" y="415.4844">svc-trip-catalog</text></a></g><g class="participant participant-head" data-participant="DB"><text fill="#000000" font-family="Segoe UI" font-size="14" lengthAdjust="spacing" textLength="76.8496" x="434.6992" y="118.5117">PostgreSQL</text><path d="M458.124,68.9766 C458.124,58.9766 476.124,58.9766 476.124,58.9766 C476.124,58.9766 494.124,58.9766 494.124,68.9766 L494.124,94.9766 C494.124,104.9766 476.124,104.9766 476.124,104.9766 C476.124,104.9766 458.124,104.9766 458.124,94.9766 L458.124,68.9766" fill="#FCE4EC" style="stroke:#181818;stroke-width:0.5;"/><path d="M458.124,68.9766 C458.124,78.9766 476.124,78.9766 476.124,78.9766 C476.124,78.9766 494.124,78.9766 494.124,68.9766" fill="none" style="stroke:#181818;stroke-width:0.5;"/></g><g class="participant participant-tail" data-participant="DB"><text fill="#000000" font-family="Segoe UI" font-size="14" lengthAdjust="spacing" textLength="76.8496" x="434.6992" y="408.4844">PostgreSQL</text><path d="M458.124,421.4375 C458.124,411.4375 476.124,411.4375 476.124,411.4375 C476.124,411.4375 494.124,411.4375 494.124,421.4375 L494.124,447.4375 C494.124,457.4375 476.124,457.4375 476.124,457.4375 C476.124,457.4375 458.124,457.4375 458.124,447.4375 L458.124,421.4375" fill="#FCE4EC" style="stroke:#181818;stroke-width:0.5;"/><path d="M458.124,421.4375 C458.124,431.4375 476.124,431.4375 476.124,431.4375 C476.124,431.4375 494.124,431.4375 494.124,421.4375" fill="none" style="stroke:#181818;stroke-width:0.5;"/></g><g><title>API Gateway</title><rect fill="#2563EB" height="189.8633" style="stroke:#A23B72;stroke-width:1;" width="10" x="172.1704" y="188.0859"/></g><g><title>svc-trip-catalog</title><rect fill="#2563EB" height="131.2422" style="stroke:#A23B72;stroke-width:1;" width="10" x="292.8716" y="217.3965"/></g><g><title>PostgreSQL</title><rect fill="#FCE4EC" height="29.3105" style="stroke:#A23B72;stroke-width:1;" width="10" x="471.124" y="290.0176"/></g><path d="M227,136.4648 L227,161.4648 L367,161.4648 L367,146.4648 L357,136.4648 L227,136.4648" fill="#FEFFDD" style="stroke:#181818;stroke-width:0.5;"/><path d="M357,136.4648 L357,146.4648 L367,146.4648 L357,136.4648" fill="#FEFFDD" style="stroke:#181818;stroke-width:0.5;"/><a href="/services/api/svc-trip-catalog.html#/Reference%20Data/listActivityTypes" target="_top" title="/services/api/svc-trip-catalog.html#/Reference%20Data/listActivityTypes" xlink:actuate="onRequest" xlink:href="/services/api/svc-trip-catalog.html#/Reference%20Data/listActivityTypes" xlink:show="new" xlink:title="/services/api/svc-trip-catalog.html#/Reference%20Data/listActivityTypes" xlink:type="simple"><text fill="#0000FF" font-family="Segoe UI" font-size="13" lengthAdjust="spacing" text-decoration="underline" textLength="119.4058" x="233" y="154.0332">View in Swagger UI</text></a><g class="message" data-participant-1="Client" data-participant-2="GW"><polygon fill="#2563EB" points="160.1704,184.0859,170.1704,188.0859,160.1704,192.0859,164.1704,188.0859" style="stroke:#2563EB;stroke-width:1;"/><line style="stroke:#2563EB;stroke-width:1;" x1="31.7524" x2="166.1704" y1="188.0859" y2="188.0859"/><text fill="#000000" font-family="Segoe UI" font-size="13" lengthAdjust="spacing" textLength="121.418" x="38.7524" y="183.3438">GET /activity-types</text></g><g class="message" data-participant-1="GW" data-participant-2="Svc"><polygon fill="#2563EB" points="280.8716,213.3965,290.8716,217.3965,280.8716,221.3965,284.8716,217.3965" style="stroke:#2563EB;stroke-width:1;"/><line style="stroke:#2563EB;stroke-width:1;" x1="182.1704" x2="286.8716" y1="217.3965" y2="217.3965"/><text fill="#000000" font-family="Segoe UI" font-size="13" lengthAdjust="spacing" textLength="85.1348" x="189.1704" y="212.6543">route request</text></g><rect fill="#EEEEEE" height="3" style="stroke:#EEEEEE;stroke-width:1;" width="522.5488" x="0" y="246.0518"/><line style="stroke:#000000;stroke-width:1;" x1="0" x2="522.5488" y1="246.0518" y2="246.0518"/><line style="stroke:#000000;stroke-width:1;" x1="0" x2="522.5488" y1="249.0518" y2="249.0518"/><rect fill="#EEEEEE" height="23.3105" style="stroke:#000000;stroke-width:2;" width="80.3711" x="221.0889" y="235.3965"/><text fill="#000000" font-family="Segoe UI" font-size="13" font-weight="bold" lengthAdjust="spacing" textLength="62.0864" x="227.0889" y="251.9648">Database</text><g class="message" data-participant-1="Svc" data-participant-2="DB"><polygon fill="#2563EB" points="459.124,286.0176,469.124,290.0176,459.124,294.0176,463.124,290.0176" style="stroke:#2563EB;stroke-width:1;"/><line style="stroke:#2563EB;stroke-width:1;" x1="302.8716" x2="465.124" y1="290.0176" y2="290.0176"/><text fill="#000000" font-family="Segoe UI" font-size="13" lengthAdjust="spacing" textLength="149.2524" x="309.8716" y="285.2754">SELECT ... WHERE filters</text></g><g class="message" data-participant-1="DB" data-participant-2="Svc"><polygon fill="#2563EB" points="313.8716,315.3281,303.8716,319.3281,313.8716,323.3281,309.8716,319.3281" style="stroke:#2563EB;stroke-width:1;"/><line style="stroke:#2563EB;stroke-width:1;stroke-dasharray:2,2;" x1="307.8716" x2="475.124" y1="319.3281" y2="319.3281"/><text fill="#000000" font-family="Segoe UI" font-size="13" lengthAdjust="spacing" textLength="93.209" x="319.8716" y="314.5859">Page of results</text></g><g class="message" data-participant-1="Svc" data-participant-2="GW"><polygon fill="#2563EB" points="193.1704,344.6387,183.1704,348.6387,193.1704,352.6387,189.1704,348.6387" style="stroke:#2563EB;stroke-width:1;"/><line style="stroke:#2563EB;stroke-width:1;stroke-dasharray:2,2;" x1="187.1704" x2="296.8716" y1="348.6387" y2="348.6387"/><text fill="#000000" font-family="Segoe UI" font-size="13" lengthAdjust="spacing" textLength="47.3599" x="199.1704" y="343.8965">200 OK</text></g><g class="message" data-participant-1="GW" data-participant-2="Client"><polygon fill="#2563EB" points="42.7524,373.9492,32.7524,377.9492,42.7524,381.9492,38.7524,377.9492" style="stroke:#2563EB;stroke-width:1;"/><line style="stroke:#2563EB;stroke-width:1;stroke-dasharray:2,2;" x1="36.7524" x2="176.1704" y1="377.9492" y2="377.9492"/><text fill="#000000" font-family="Segoe UI" font-size="13" lengthAdjust="spacing" textLength="47.3599" x="48.7524" y="373.207">200 OK</text></g><!--SRC=[RPDHRzem58NV_IkkG7k4KEWAGc9I0Wv3GnqhT3nqF9Za9hKQOcQRC3Jjl-yw1HfQaXV7v_YUtC-sUP7vLcYnWRM8NbAjTdayL9dIK0-vUvavEyopYDLUvYaa8ZDOKM9Cn2wpeShjlTWWrEQOAeJ7IQsw77_lC8yG_ZAWnzTQxOzHxSzt7LoNqpEXhOpaLkGsK3f6VRBmtfqVVB2y_sdU2s_3NccRoWIdCiUBCdwx4tJRfHweFnTIUDCBMpTdwGEEC2IzbE-LlQmQTRlhJaMxWhB3k-mVOrRQ367C5-29oCf2saF37hPeVkLJQIo8GiXChCbpag6K6Tk-TGsrOIOnjpKG1bw7bx8_cy1OMDoBG-aPBw4-2hXFstdXCqNKi5fk6v6m8bDfQPuN4JmzUHiPQMLG5p92uxrtUglL6NPCKsjXQDjdojXKu_p7jAmq2gZr8R_bGyPouWAgGEtg4obAE1SNM_aXeFbiDrdTUy04jJirdzgj4IbUHfJy8vg58mC_9Uv1vZ3VYpIb-e-JrOfX7eEBPEoL3pI-E0hzQ-XP-KcuIax7iqX3Mk9Oz86saaJjpg-nRsuddkniC83HYSDWm9WJgG0XwCESJ_bm0Src4vPV-GE7H6OMTIMuGeg6ZNFoJAH4BQ5iG_VBi1WhIuuXfyxQhHPy_rQrEDAk3t8SALnpZPViFm00]--></g></svg>