<svg xmlns="http://www.w3.org/2000/svg" xmlns:xlink="http://www.w3.org/1999/xlink" contentStyleType="text/css" data-diagram-type="SEQUENCE" height="487px" preserveAspectRatio="none" style="width:547px;height:487px;background:#FEFEFE;" version="1.1" viewBox="0 0 547 487" width="547px" zoomAndPan="magnify"><title>GET /gear-packages</title><defs/><g><rect fill="#FEFEFE" height="487" style="stroke:none;stroke-width:1;" width="547" x="0" y="0"/><text fill="#000000" font-family="Segoe UI" font-size="14" font-weight="bold" lengthAdjust="spacing" textLength="149.4131" x="195.2927" y="41.3125">GET /gear-packages</text><text fill="#000000" font-family="Segoe UI" font-size="14" font-weight="bold" lengthAdjust="spacing" textLength="134.9482" x="202.5251" y="57.8008">List gear packages</text><g><title>API Gateway</title><rect fill="#2563EB" height="189.8633" style="stroke:#A23B72;stroke-width:1;" width="10" x="180.4858" y="200.8633"/></g><g><title>svc-gear-inventory</title><rect fill="#2563EB" height="131.2422" style="stroke:#A23B72;stroke-width:1;" width="10" x="311.3213" y="230.1738"/></g><g><title>PostgreSQL</title><rect fill="#FCE4EC" height="29.3105" style="stroke:#A23B72;stroke-width:1;" width="10" x="489.5737" y="302.7949"/></g><g><title>Client</title><rect fill="#000000" fill-opacity="0.00000" height="274.4844" width="8" x="27.7524" y="134.2422"/><line style="stroke:#A23B72;stroke-width:0.5;stroke-dasharray:5,5;" x1="31" x2="31" y1="134.2422" y2="408.7266"/></g><g><title>API Gateway</title><rect fill="#000000" fill-opacity="0.00000" height="274.4844" width="8" x="181.4858" y="134.2422"/><line style="stroke:#A23B72;stroke-width:0.5;stroke-dasharray:5,5;" x1="185.1968" x2="185.1968" y1="134.2422" y2="408.7266"/></g><g><title>svc-gear-inventory</title><rect fill="#000000" fill-opacity="0.00000" height="274.4844" width="8" x="312.3213" y="134.2422"/><line style="stroke:#A23B72;stroke-width:0.5;stroke-dasharray:5,5;" x1="315.7749" x2="315.7749" y1="134.2422" y2="408.7266"/></g><g><title>PostgreSQL</title><rect fill="#000000" fill-opacity="0.00000" height="274.4844" width="8" x="490.5737" y="134.2422"/><line style="stroke:#A23B72;stroke-width:0.5;stroke-dasharray:5,5;" x1="494.1489" x2="494.1489" y1="134.2422" y2="408.7266"/></g><g class="participant participant-head" data-participant="Client"><rect fill="#E8F4F8" height="30.4883" rx="2.5" ry="2.5" style="stroke:#2E86AB;stroke-width:0.5;" width="53.5049" x="5" y="102.7539"/><text fill="#000000" font-family="Segoe UI" font-size="14" lengthAdjust="spacing" textLength="39.5049" x="12" y="123.2891">Client</text></g><g class="participant participant-tail" data-participant="Client"><rect fill="#E8F4F8" height="30.4883" rx="2.5" ry="2.5" style="stroke:#2E86AB;stroke-width:0.5;" width="53.5049" x="5" y="407.7266"/><text fill="#000000" font-family="Segoe UI" font-size="14" lengthAdjust="spacing" textLength="39.5049" x="12" y="428.2617">Client</text></g><g class="participant participant-head" data-participant="GW"><rect fill="#DBEAFE" height="30.4883" rx="2.5" ry="2.5" style="stroke:#2E86AB;stroke-width:0.5;" width="96.5781" x="137.1968" y="102.7539"/><text fill="#000000" font-family="Segoe UI" font-size="14" lengthAdjust="spacing" textLength="82.5781" x="144.1968" y="123.2891">API Gateway</text></g><g class="participant participant-tail" data-participant="GW"><rect fill="#DBEAFE" height="30.4883" rx="2.5" ry="2.5" style="stroke:#2E86AB;stroke-width:0.5;" width="96.5781" x="137.1968" y="407.7266"/><text fill="#000000" font-family="Segoe UI" font-size="14" lengthAdjust="spacing" textLength="82.5781" x="144.1968" y="428.2617">API Gateway</text></g><g class="participant participant-head" data-participant="Svc"><a href="/microservices/svc-gear-inventory/" target="_top" title="/microservices/svc-gear-inventory/" xlink:actuate="onRequest" xlink:href="/microservices/svc-gear-inventory/" xlink:show="new" xlink:title="/microservices/svc-gear-inventory/" xlink:type="simple"><rect fill="#E8F4F8" height="30.4883" rx="2.5" ry="2.5" style="stroke:#2E86AB;stroke-width:0.5;" width="145.0928" x="243.7749" y="102.7539"/><text fill="#000000" font-family="Segoe UI" font-size="14" lengthAdjust="spacing" textLength="131.0928" x="250.7749" y="123.2891">svc-gear-inventory</text></a></g><g class="participant participant-tail" data-participant="Svc"><a href="/microservices/svc-gear-inventory/" target="_top" title="/microservices/svc-gear-inventory/" xlink:actuate="onRequest" xlink:href="/microservices/svc-gear-inventory/" xlink:show="new" xlink:title="/microservices/svc-gear-inventory/" xlink:type="simple"><rect fill="#E8F4F8" height="30.4883" rx="2.5" ry="2.5" style="stroke:#2E86AB;stroke-width:0.5;" width="145.0928" x="243.7749" y="407.7266"/><text fill="#000000" font-family="Segoe UI" font-size="14" lengthAdjust="spacing" textLength="131.0928" x="250.7749" y="428.2617">svc-gear-inventory</text></a></g><g class="participant participant-head" data-participant="DB"><text fill="#000000" font-family="Segoe UI" font-size="14" lengthAdjust="spacing" textLength="76.8496" x="453.1489" y="131.2891">PostgreSQL</text><path d="M476.5737,81.7539 C476.5737,71.7539 494.5737,71.7539 494.5737,71.7539 C494.5737,71.7539 512.5737,71.7539 512.5737,81.7539 L512.5737,107.7539 C512.5737,117.7539 494.5737,117.7539 494.5737,117.7539 C494.5737,117.7539 476.5737,117.7539 476.5737,107.7539 L476.5737,81.7539" fill="#FCE4EC" style="stroke:#181818;stroke-width:0.5;"/><path d="M476.5737,81.7539 C476.5737,91.7539 494.5737,91.7539 494.5737,91.7539 C494.5737,91.7539 512.5737,91.7539 512.5737,81.7539" fill="none" style="stroke:#181818;stroke-width:0.5;"/></g><g class="participant participant-tail" data-participant="DB"><text fill="#000000" font-family="Segoe UI" font-size="14" lengthAdjust="spacing" textLength="76.8496" x="453.1489" y="421.2617">PostgreSQL</text><path d="M476.5737,434.2148 C476.5737,424.2148 494.5737,424.2148 494.5737,424.2148 C494.5737,424.2148 512.5737,424.2148 512.5737,434.2148 L512.5737,460.2148 C512.5737,470.2148 494.5737,470.2148 494.5737,470.2148 C494.5737,470.2148 476.5737,470.2148 476.5737,460.2148 L476.5737,434.2148" fill="#FCE4EC" style="stroke:#181818;stroke-width:0.5;"/><path d="M476.5737,434.2148 C476.5737,444.2148 494.5737,444.2148 494.5737,444.2148 C494.5737,444.2148 512.5737,444.2148 512.5737,434.2148" fill="none" style="stroke:#181818;stroke-width:0.5;"/></g><g><title>API Gateway</title><rect fill="#2563EB" height="189.8633" style="stroke:#A23B72;stroke-width:1;" width="10" x="180.4858" y="200.8633"/></g><g><title>svc-gear-inventory</title><rect fill="#2563EB" height="131.2422" style="stroke:#A23B72;stroke-width:1;" width="10" x="311.3213" y="230.1738"/></g><g><title>PostgreSQL</title><rect fill="#FCE4EC" height="29.3105" style="stroke:#A23B72;stroke-width:1;" width="10" x="489.5737" y="302.7949"/></g><path d="M246,149.2422 L246,174.2422 L386,174.2422 L386,159.2422 L376,149.2422 L246,149.2422" fill="#FEFFDD" style="stroke:#181818;stroke-width:0.5;"/><path d="M376,149.2422 L376,159.2422 L386,159.2422 L376,149.2422" fill="#FEFFDD" style="stroke:#181818;stroke-width:0.5;"/><a href="/services/api/svc-gear-inventory.html#/Gear%20Packages/listGearPackages" target="_top" title="/services/api/svc-gear-inventory.html#/Gear%20Packages/listGearPackages" xlink:actuate="onRequest" xlink:href="/services/api/svc-gear-inventory.html#/Gear%20Packages/listGearPackages" xlink:show="new" xlink:title="/services/api/svc-gear-inventory.html#/Gear%20Packages/listGearPackages" xlink:type="simple"><text fill="#0000FF" font-family="Segoe UI" font-size="13" lengthAdjust="spacing" text-decoration="underline" textLength="119.4058" x="252" y="166.8105">View in Swagger UI</text></a><g class="message" data-participant-1="Client" data-participant-2="GW"><polygon fill="#2563EB" points="168.4858,196.8633,178.4858,200.8633,168.4858,204.8633,172.4858,200.8633" style="stroke:#2563EB;stroke-width:1;"/><line style="stroke:#2563EB;stroke-width:1;" x1="31.7524" x2="174.4858" y1="200.8633" y2="200.8633"/><text fill="#000000" font-family="Segoe UI" font-size="13" lengthAdjust="spacing" textLength="129.7334" x="38.7524" y="196.1211">GET /gear-packages</text></g><g class="message" data-participant-1="GW" data-participant-2="Svc"><polygon fill="#2563EB" points="299.3213,226.1738,309.3213,230.1738,299.3213,234.1738,303.3213,230.1738" style="stroke:#2563EB;stroke-width:1;"/><line style="stroke:#2563EB;stroke-width:1;" x1="190.4858" x2="305.3213" y1="230.1738" y2="230.1738"/><text fill="#000000" font-family="Segoe UI" font-size="13" lengthAdjust="spacing" textLength="85.1348" x="197.4858" y="225.4316">route request</text></g><rect fill="#EEEEEE" height="3" style="stroke:#EEEEEE;stroke-width:1;" width="540.9985" x="0" y="258.8291"/><line style="stroke:#000000;stroke-width:1;" x1="0" x2="540.9985" y1="258.8291" y2="258.8291"/><line style="stroke:#000000;stroke-width:1;" x1="0" x2="540.9985" y1="261.8291" y2="261.8291"/><rect fill="#EEEEEE" height="23.3105" style="stroke:#000000;stroke-width:2;" width="80.3711" x="230.3137" y="248.1738"/><text fill="#000000" font-family="Segoe UI" font-size="13" font-weight="bold" lengthAdjust="spacing" textLength="62.0864" x="236.3137" y="264.7422">Database</text><g class="message" data-participant-1="Svc" data-participant-2="DB"><polygon fill="#2563EB" points="477.5737,298.7949,487.5737,302.7949,477.5737,306.7949,481.5737,302.7949" style="stroke:#2563EB;stroke-width:1;"/><line style="stroke:#2563EB;stroke-width:1;" x1="321.3213" x2="483.5737" y1="302.7949" y2="302.7949"/><text fill="#000000" font-family="Segoe UI" font-size="13" lengthAdjust="spacing" textLength="149.2524" x="328.3213" y="298.0527">SELECT ... WHERE filters</text></g><g class="message" data-participant-1="DB" data-participant-2="Svc"><polygon fill="#2563EB" points="332.3213,328.1055,322.3213,332.1055,332.3213,336.1055,328.3213,332.1055" style="stroke:#2563EB;stroke-width:1;"/><line style="stroke:#2563EB;stroke-width:1;stroke-dasharray:2,2;" x1="326.3213" x2="493.5737" y1="332.1055" y2="332.1055"/><text fill="#000000" font-family="Segoe UI" font-size="13" lengthAdjust="spacing" textLength="93.209" x="338.3213" y="327.3633">Page of results</text></g><g class="message" data-participant-1="Svc" data-participant-2="GW"><polygon fill="#2563EB" points="201.4858,357.416,191.4858,361.416,201.4858,365.416,197.4858,361.416" style="stroke:#2563EB;stroke-width:1;"/><line style="stroke:#2563EB;stroke-width:1;stroke-dasharray:2,2;" x1="195.4858" x2="315.3213" y1="361.416" y2="361.416"/><text fill="#000000" font-family="Segoe UI" font-size="13" lengthAdjust="spacing" textLength="47.3599" x="207.4858" y="356.6738">200 OK</text></g><g class="message" data-participant-1="GW" data-participant-2="Client"><polygon fill="#2563EB" points="42.7524,386.7266,32.7524,390.7266,42.7524,394.7266,38.7524,390.7266" style="stroke:#2563EB;stroke-width:1;"/><line style="stroke:#2563EB;stroke-width:1;stroke-dasharray:2,2;" x1="36.7524" x2="184.4858" y1="390.7266" y2="390.7266"/><text fill="#000000" font-family="Segoe UI" font-size="13" lengthAdjust="spacing" textLength="47.3599" x="48.7524" y="385.9844">200 OK</text></g><a href="/microservices/svc-gear-inventory/#integration-context" target="_top" title="/microservices/svc-gear-inventory/#integration-context" xlink:actuate="onRequest" xlink:href="/microservices/svc-gear-inventory/#integration-context" xlink:show="new" xlink:title="/microservices/svc-gear-inventory/#integration-context" xlink:type="simple"><text fill="#0000FF" font-family="Segoe UI" font-size="10" lengthAdjust="spacing" text-decoration="underline" textLength="204.8096" x="335.189" y="14.668">&#11014; svc-gear-inventory Integration Context</text></a><!--SRC=[ZPF1Zjem48RlVeeHg4S82zi58L69X8IYebrQTijXoy4aGx0ssDGsOLTLhtsQFbMVf9D081GEJIxM_F_CRtznp8kG6wxv6XOyV8crsih8KudIK0tyx6Ncw30h7gcTa34iUMAmf4IuvDl41ahQUxv6g4mnLWXFeqgv7RzlKOO8FnZGqzTQxGvHpVTtBLpavGdNLeHYmwLrbOvG5nQ_SzTtBop_Rjhl1BT19xUDnHB7GkBPc7wpvRQRkUwgrpCfkEa4ZPkZT84Z24ZFvNjbpwU6xVQYLTAke6pvRVQJiHLoQeFdPsSjGgqCwbI4Q1oJXhKOkQu9cQAqIhyvLI4jnffReMGj9BJuQk7FxrzmwONHoGhUtZgVCsQ5JH26_YCuUSE6DiPZDD_aM1WBMGsA6cER4rUeU8cWsHNW1lRBSxa_6S6GMzpnjzmpd45ruFfzkZ1dlikzvlPf6luNW_dy-4aZRlc26xfS4sLih77wUPpF6hW4sFDlVOynIVH1fKIO4kXxKCPnFD-8An7rbLqdLMT8nNVDnkG0mqc8JrOh2l1Lu0w4XEcEnp7DVneHO9GHP96CxHb1xKD6edi5EUEX5IaHor4TBZmjgIE3qGMwBoJgx2SnzkJEnCBEUZqO51XwFSOoaGOGWIvC_R7lFKAzNeVPH_-B3qkHMDIbu18eMjQEoHFQ7wWbPHlwYGsBiDHo22aErcmquE5JsPA1piv1ZWE4QwxXZFq5]--></g></svg>