<svg xmlns="http://www.w3.org/2000/svg" xmlns:xlink="http://www.w3.org/1999/xlink" contentStyleType="text/css" data-diagram-type="SEQUENCE" height="474px" preserveAspectRatio="none" style="width:522px;height:474px;background:#FEFEFE;" version="1.1" viewBox="0 0 522 474" width="522px" zoomAndPan="magnify"><title>GET /notifications</title><defs/><g><rect fill="#FEFEFE" height="474" style="stroke:none;stroke-width:1;" width="522" x="0" y="0"/><text fill="#000000" font-family="Segoe UI" font-size="14" font-weight="bold" lengthAdjust="spacing" textLength="131.7148" x="191.3901" y="28.5352">GET /notifications</text><text fill="#000000" font-family="Segoe UI" font-size="14" font-weight="bold" lengthAdjust="spacing" textLength="121.5771" x="196.459" y="45.0234">List notifications</text><g><title>API Gateway</title><rect fill="#2563EB" height="189.8633" style="stroke:#A23B72;stroke-width:1;" width="10" x="164.6929" y="188.0859"/></g><g><title>svc-notifications</title><rect fill="#2563EB" height="131.2422" style="stroke:#A23B72;stroke-width:1;" width="10" x="286.9971" y="217.3965"/></g><g><title>PG . Redis</title><rect fill="#FCE4EC" height="29.3105" style="stroke:#A23B72;stroke-width:1;" width="10" x="465.2495" y="290.0176"/></g><g><title>Client</title><rect fill="#000000" fill-opacity="0.00000" height="274.4844" width="8" x="27.7524" y="121.4648"/><line style="stroke:#A23B72;stroke-width:0.5;stroke-dasharray:5,5;" x1="31" x2="31" y1="121.4648" y2="395.9492"/></g><g><title>API Gateway</title><rect fill="#000000" fill-opacity="0.00000" height="274.4844" width="8" x="165.6929" y="121.4648"/><line style="stroke:#A23B72;stroke-width:0.5;stroke-dasharray:5,5;" x1="169.4038" x2="169.4038" y1="121.4648" y2="395.9492"/></g><g><title>svc-notifications</title><rect fill="#000000" fill-opacity="0.00000" height="274.4844" width="8" x="287.9971" y="121.4648"/><line style="stroke:#A23B72;stroke-width:0.5;stroke-dasharray:5,5;" x1="291.9819" x2="291.9819" y1="121.4648" y2="395.9492"/></g><g><title>PG . Redis</title><rect fill="#000000" fill-opacity="0.00000" height="274.4844" width="8" x="466.2495" y="121.4648"/><line style="stroke:#A23B72;stroke-width:0.5;stroke-dasharray:5,5;" x1="470.0039" x2="470.0039" y1="121.4648" y2="395.9492"/></g><g class="participant participant-head" data-participant="Client"><rect fill="#E8F4F8" height="30.4883" rx="2.5" ry="2.5" style="stroke:#2E86AB;stroke-width:0.5;" width="53.5049" x="5" y="89.9766"/><text fill="#000000" font-family="Segoe UI" font-size="14" lengthAdjust="spacing" textLength="39.5049" x="12" y="110.5117">Client</text></g><g class="participant participant-tail" data-participant="Client"><rect fill="#E8F4F8" height="30.4883" rx="2.5" ry="2.5" style="stroke:#2E86AB;stroke-width:0.5;" width="53.5049" x="5" y="394.9492"/><text fill="#000000" font-family="Segoe UI" font-size="14" lengthAdjust="spacing" textLength="39.5049" x="12" y="415.4844">Client</text></g><g class="participant participant-head" data-participant="GW"><rect fill="#DBEAFE" height="30.4883" rx="2.5" ry="2.5" style="stroke:#2E86AB;stroke-width:0.5;" width="96.5781" x="121.4038" y="89.9766"/><text fill="#000000" font-family="Segoe UI" font-size="14" lengthAdjust="spacing" textLength="82.5781" x="128.4038" y="110.5117">API Gateway</text></g><g class="participant participant-tail" data-participant="GW"><rect fill="#DBEAFE" height="30.4883" rx="2.5" ry="2.5" style="stroke:#2E86AB;stroke-width:0.5;" width="96.5781" x="121.4038" y="394.9492"/><text fill="#000000" font-family="Segoe UI" font-size="14" lengthAdjust="spacing" textLength="82.5781" x="128.4038" y="415.4844">API Gateway</text></g><g class="participant participant-head" data-participant="Svc"><a href="/microservices/svc-notifications/" target="_top" title="/microservices/svc-notifications/" xlink:actuate="onRequest" xlink:href="/microservices/svc-notifications/" xlink:show="new" xlink:title="/microservices/svc-notifications/" xlink:type="simple"><rect fill="#E8F4F8" height="30.4883" rx="2.5" ry="2.5" style="stroke:#2E86AB;stroke-width:0.5;" width="128.0303" x="227.9819" y="89.9766"/><text fill="#000000" font-family="Segoe UI" font-size="14" lengthAdjust="spacing" textLength="114.0303" x="234.9819" y="110.5117">svc-notifications</text></a></g><g class="participant participant-tail" data-participant="Svc"><a href="/microservices/svc-notifications/" target="_top" title="/microservices/svc-notifications/" xlink:actuate="onRequest" xlink:href="/microservices/svc-notifications/" xlink:show="new" xlink:title="/microservices/svc-notifications/" xlink:type="simple"><rect fill="#E8F4F8" height="30.4883" rx="2.5" ry="2.5" style="stroke:#2E86AB;stroke-width:0.5;" width="128.0303" x="227.9819" y="394.9492"/><text fill="#000000" font-family="Segoe UI" font-size="14" lengthAdjust="spacing" textLength="114.0303" x="234.9819" y="415.4844">svc-notifications</text></a></g><g class="participant participant-head" data-participant="DB"><text fill="#000000" font-family="Segoe UI" font-size="14" lengthAdjust="spacing" textLength="74.4912" x="430.0039" y="118.5117">PG + Redis</text><path d="M452.2495,68.9766 C452.2495,58.9766 470.2495,58.9766 470.2495,58.9766 C470.2495,58.9766 488.2495,58.9766 488.2495,68.9766 L488.2495,94.9766 C488.2495,104.9766 470.2495,104.9766 470.2495,104.9766 C470.2495,104.9766 452.2495,104.9766 452.2495,94.9766 L452.2495,68.9766" fill="#FCE4EC" style="stroke:#181818;stroke-width:0.5;"/><path d="M452.2495,68.9766 C452.2495,78.9766 470.2495,78.9766 470.2495,78.9766 C470.2495,78.9766 488.2495,78.9766 488.2495,68.9766" fill="none" style="stroke:#181818;stroke-width:0.5;"/></g><g class="participant participant-tail" data-participant="DB"><text fill="#000000" font-family="Segoe UI" font-size="14" lengthAdjust="spacing" textLength="74.4912" x="430.0039" y="408.4844">PG + Redis</text><path d="M452.2495,421.4375 C452.2495,411.4375 470.2495,411.4375 470.2495,411.4375 C470.2495,411.4375 488.2495,411.4375 488.2495,421.4375 L488.2495,447.4375 C488.2495,457.4375 470.2495,457.4375 470.2495,457.4375 C470.2495,457.4375 452.2495,457.4375 452.2495,447.4375 L452.2495,421.4375" fill="#FCE4EC" style="stroke:#181818;stroke-width:0.5;"/><path d="M452.2495,421.4375 C452.2495,431.4375 470.2495,431.4375 470.2495,431.4375 C470.2495,431.4375 488.2495,431.4375 488.2495,421.4375" fill="none" style="stroke:#181818;stroke-width:0.5;"/></g><g><title>API Gateway</title><rect fill="#2563EB" height="189.8633" style="stroke:#A23B72;stroke-width:1;" width="10" x="164.6929" y="188.0859"/></g><g><title>svc-notifications</title><rect fill="#2563EB" height="131.2422" style="stroke:#A23B72;stroke-width:1;" width="10" x="286.9971" y="217.3965"/></g><g><title>PG . Redis</title><rect fill="#FCE4EC" height="29.3105" style="stroke:#A23B72;stroke-width:1;" width="10" x="465.2495" y="290.0176"/></g><path d="M221,136.4648 L221,161.4648 L361,161.4648 L361,146.4648 L351,136.4648 L221,136.4648" fill="#FEFFDD" style="stroke:#181818;stroke-width:0.5;"/><path d="M351,136.4648 L351,146.4648 L361,146.4648 L351,136.4648" fill="#FEFFDD" style="stroke:#181818;stroke-width:0.5;"/><a href="/services/api/svc-notifications.html#/Notifications/listNotifications" target="_top" title="/services/api/svc-notifications.html#/Notifications/listNotifications" xlink:actuate="onRequest" xlink:href="/services/api/svc-notifications.html#/Notifications/listNotifications" xlink:show="new" xlink:title="/services/api/svc-notifications.html#/Notifications/listNotifications" xlink:type="simple"><text fill="#0000FF" font-family="Segoe UI" font-size="13" lengthAdjust="spacing" text-decoration="underline" textLength="119.4058" x="227" y="154.0332">View in Swagger UI</text></a><g class="message" data-participant-1="Client" data-participant-2="GW"><polygon fill="#2563EB" points="152.6929,184.0859,162.6929,188.0859,152.6929,192.0859,156.6929,188.0859" style="stroke:#2563EB;stroke-width:1;"/><line style="stroke:#2563EB;stroke-width:1;" x1="31.7524" x2="158.6929" y1="188.0859" y2="188.0859"/><text fill="#000000" font-family="Segoe UI" font-size="13" lengthAdjust="spacing" textLength="113.9404" x="38.7524" y="183.3438">GET /notifications</text></g><g class="message" data-participant-1="GW" data-participant-2="Svc"><polygon fill="#2563EB" points="274.9971,213.3965,284.9971,217.3965,274.9971,221.3965,278.9971,217.3965" style="stroke:#2563EB;stroke-width:1;"/><line style="stroke:#2563EB;stroke-width:1;" x1="174.6929" x2="280.9971" y1="217.3965" y2="217.3965"/><text fill="#000000" font-family="Segoe UI" font-size="13" lengthAdjust="spacing" textLength="85.1348" x="181.6929" y="212.6543">route request</text></g><rect fill="#EEEEEE" height="3" style="stroke:#EEEEEE;stroke-width:1;" width="515.4951" x="0" y="246.0518"/><line style="stroke:#000000;stroke-width:1;" x1="0" x2="515.4951" y1="246.0518" y2="246.0518"/><line style="stroke:#000000;stroke-width:1;" x1="0" x2="515.4951" y1="249.0518" y2="249.0518"/><rect fill="#EEEEEE" height="23.3105" style="stroke:#000000;stroke-width:2;" width="80.3711" x="217.562" y="235.3965"/><text fill="#000000" font-family="Segoe UI" font-size="13" font-weight="bold" lengthAdjust="spacing" textLength="62.0864" x="223.562" y="251.9648">Database</text><g class="message" data-participant-1="Svc" data-participant-2="DB"><polygon fill="#2563EB" points="453.2495,286.0176,463.2495,290.0176,453.2495,294.0176,457.2495,290.0176" style="stroke:#2563EB;stroke-width:1;"/><line style="stroke:#2563EB;stroke-width:1;" x1="296.9971" x2="459.2495" y1="290.0176" y2="290.0176"/><text fill="#000000" font-family="Segoe UI" font-size="13" lengthAdjust="spacing" textLength="149.2524" x="303.9971" y="285.2754">SELECT ... WHERE filters</text></g><g class="message" data-participant-1="DB" data-participant-2="Svc"><polygon fill="#2563EB" points="307.9971,315.3281,297.9971,319.3281,307.9971,323.3281,303.9971,319.3281" style="stroke:#2563EB;stroke-width:1;"/><line style="stroke:#2563EB;stroke-width:1;stroke-dasharray:2,2;" x1="301.9971" x2="469.2495" y1="319.3281" y2="319.3281"/><text fill="#000000" font-family="Segoe UI" font-size="13" lengthAdjust="spacing" textLength="93.209" x="313.9971" y="314.5859">Page of results</text></g><g class="message" data-participant-1="Svc" data-participant-2="GW"><polygon fill="#2563EB" points="185.6929,344.6387,175.6929,348.6387,185.6929,352.6387,181.6929,348.6387" style="stroke:#2563EB;stroke-width:1;"/><line style="stroke:#2563EB;stroke-width:1;stroke-dasharray:2,2;" x1="179.6929" x2="290.9971" y1="348.6387" y2="348.6387"/><text fill="#000000" font-family="Segoe UI" font-size="13" lengthAdjust="spacing" textLength="47.3599" x="191.6929" y="343.8965">200 OK</text></g><g class="message" data-participant-1="GW" data-participant-2="Client"><polygon fill="#2563EB" points="42.7524,373.9492,32.7524,377.9492,42.7524,381.9492,38.7524,377.9492" style="stroke:#2563EB;stroke-width:1;"/><line style="stroke:#2563EB;stroke-width:1;stroke-dasharray:2,2;" x1="36.7524" x2="168.6929" y1="377.9492" y2="377.9492"/><text fill="#000000" font-family="Segoe UI" font-size="13" lengthAdjust="spacing" textLength="47.3599" x="48.7524" y="373.207">200 OK</text></g><!--SRC=[RPDRZzem48NV_Ij6y5XnMTWk28bA93WK5L6qx9Q7BGyccMIj3JQr3Tcgwd_l95msAIGlbi-PEPdFZdsJQYUCsC96X6-9qNiL-JhL1ke1przcBmxxAYATIPL0B5AB9IN2MEnJ5sZbvcABK5jYeX6UfxLoEVxQemeH_Z2WPsICpavHdSyFNTmKsmjXd0pbJYZdQHEXELju_s7aNLd-_sZU3-w3Vc6RoHXdKc6bpQZJzNgTGlVqUqKAxlf1- -uYNU480j8BUQvTjMlOwssw9Uq6oYxliR-CEUbIX0b_WfRIJiOo54vgPN-gcRGEAdkCxJucXPgVIbIk1iB2SLcLHuifJ8J3JFmkF9CLrCSU7z4HLdps43OgCOLxUGZXvQMrbQ7H5ir1XcXRLzRMUdr170adDiBIOIycy0aUCPB7LcEF1lRvFVSPese4VK2J1n0VYhXq5pjvdT1yTTkqtffNKbD2Kzc17n8pa0gMcKWIwluyNQyPgYW7Y8mT-K3ZIqvXS0Ct4w6J1w9LO3fTFrfIHKvY07Hw99hyobhtuSx5ivqDXp0-GnWE6Sj5Qa3p3s39Pzn_WcQp2Qkl_953B5E7fXHSmaJBnYLv8H925bEsfL_AiWXB9QUGys2TTXk-VojRSipv7EGuGRZbcgpOFm00]--></g></svg>