<svg xmlns="http://www.w3.org/2000/svg" xmlns:xlink="http://www.w3.org/1999/xlink" contentStyleType="text/css" data-diagram-type="SEQUENCE" height="474px" preserveAspectRatio="none" style="width:600px;height:474px;background:#FEFEFE;" version="1.1" viewBox="0 0 600 474" width="600px" zoomAndPan="magnify"><title>GET /payments/daily-summary</title><defs/><g><rect fill="#FEFEFE" height="474" style="stroke:none;stroke-width:1;" width="600" x="0" y="0"/><text fill="#000000" font-family="Segoe UI" font-size="14" font-weight="bold" lengthAdjust="spacing" textLength="229.9199" x="181.2964" y="28.5352">GET /payments/daily-summary</text><text fill="#000000" font-family="Segoe UI" font-size="14" font-weight="bold" lengthAdjust="spacing" textLength="202.2686" x="195.1221" y="45.0234">Get daily payment summary</text><g><title>API Gateway</title><rect fill="#2563EB" height="189.8633" style="stroke:#A23B72;stroke-width:1;" width="10" x="249.7007" y="188.0859"/></g><g><title>svc-payments</title><rect fill="#2563EB" height="131.2422" style="stroke:#A23B72;stroke-width:1;" width="10" x="363.8354" y="217.3965"/></g><g><title>PostgreSQL</title><rect fill="#FCE4EC" height="29.3105" style="stroke:#A23B72;stroke-width:1;" width="10" x="542.0879" y="290.0176"/></g><g><title>Client</title><rect fill="#000000" fill-opacity="0.00000" height="274.4844" width="8" x="27.7524" y="121.4648"/><line style="stroke:#A23B72;stroke-width:0.5;stroke-dasharray:5,5;" x1="31" x2="31" y1="121.4648" y2="395.9492"/></g><g><title>API Gateway</title><rect fill="#000000" fill-opacity="0.00000" height="274.4844" width="8" x="250.7007" y="121.4648"/><line style="stroke:#A23B72;stroke-width:0.5;stroke-dasharray:5,5;" x1="254.4116" x2="254.4116" y1="121.4648" y2="395.9492"/></g><g><title>svc-payments</title><rect fill="#000000" fill-opacity="0.00000" height="274.4844" width="8" x="364.8354" y="121.4648"/><line style="stroke:#A23B72;stroke-width:0.5;stroke-dasharray:5,5;" x1="368.1138" x2="368.1138" y1="121.4648" y2="395.9492"/></g><g><title>PostgreSQL</title><rect fill="#000000" fill-opacity="0.00000" height="274.4844" width="8" x="543.0879" y="121.4648"/><line style="stroke:#A23B72;stroke-width:0.5;stroke-dasharray:5,5;" x1="546.6631" x2="546.6631" y1="121.4648" y2="395.9492"/></g><g class="participant participant-head" data-participant="Client"><rect fill="#E8F4F8" height="30.4883" rx="2.5" ry="2.5" style="stroke:#2E86AB;stroke-width:0.5;" width="53.5049" x="5" y="89.9766"/><text fill="#000000" font-family="Segoe UI" font-size="14" lengthAdjust="spacing" textLength="39.5049" x="12" y="110.5117">Client</text></g><g class="participant participant-tail" data-participant="Client"><rect fill="#E8F4F8" height="30.4883" rx="2.5" ry="2.5" style="stroke:#2E86AB;stroke-width:0.5;" width="53.5049" x="5" y="394.9492"/><text fill="#000000" font-family="Segoe UI" font-size="14" lengthAdjust="spacing" textLength="39.5049" x="12" y="415.4844">Client</text></g><g class="participant participant-head" data-participant="GW"><rect fill="#DBEAFE" height="30.4883" rx="2.5" ry="2.5" style="stroke:#2E86AB;stroke-width:0.5;" width="96.5781" x="206.4116" y="89.9766"/><text fill="#000000" font-family="Segoe UI" font-size="14" lengthAdjust="spacing" textLength="82.5781" x="213.4116" y="110.5117">API Gateway</text></g><g class="participant participant-tail" data-participant="GW"><rect fill="#DBEAFE" height="30.4883" rx="2.5" ry="2.5" style="stroke:#2E86AB;stroke-width:0.5;" width="96.5781" x="206.4116" y="394.9492"/><text fill="#000000" font-family="Segoe UI" font-size="14" lengthAdjust="spacing" textLength="82.5781" x="213.4116" y="415.4844">API Gateway</text></g><g class="participant participant-head" data-participant="Svc"><a href="/microservices/svc-payments/" target="_top" title="/microservices/svc-payments/" xlink:actuate="onRequest" xlink:href="/microservices/svc-payments/" xlink:show="new" xlink:title="/microservices/svc-payments/" xlink:type="simple"><rect fill="#E8F4F8" height="30.4883" rx="2.5" ry="2.5" style="stroke:#2E86AB;stroke-width:0.5;" width="109.4434" x="314.1138" y="89.9766"/><text fill="#000000" font-family="Segoe UI" font-size="14" lengthAdjust="spacing" textLength="95.4434" x="321.1138" y="110.5117">svc-payments</text></a></g><g class="participant participant-tail" data-participant="Svc"><a href="/microservices/svc-payments/" target="_top" title="/microservices/svc-payments/" xlink:actuate="onRequest" xlink:href="/microservices/svc-payments/" xlink:show="new" xlink:title="/microservices/svc-payments/" xlink:type="simple"><rect fill="#E8F4F8" height="30.4883" rx="2.5" ry="2.5" style="stroke:#2E86AB;stroke-width:0.5;" width="109.4434" x="314.1138" y="394.9492"/><text fill="#000000" font-family="Segoe UI" font-size="14" lengthAdjust="spacing" textLength="95.4434" x="321.1138" y="415.4844">svc-payments</text></a></g><g class="participant participant-head" data-participant="DB"><text fill="#000000" font-family="Segoe UI" font-size="14" lengthAdjust="spacing" textLength="76.8496" x="505.6631" y="118.5117">PostgreSQL</text><path d="M529.0879,68.9766 C529.0879,58.9766 547.0879,58.9766 547.0879,58.9766 C547.0879,58.9766 565.0879,58.9766 565.0879,68.9766 L565.0879,94.9766 C565.0879,104.9766 547.0879,104.9766 547.0879,104.9766 C547.0879,104.9766 529.0879,104.9766 529.0879,94.9766 L529.0879,68.9766" fill="#FCE4EC" style="stroke:#181818;stroke-width:0.5;"/><path d="M529.0879,68.9766 C529.0879,78.9766 547.0879,78.9766 547.0879,78.9766 C547.0879,78.9766 565.0879,78.9766 565.0879,68.9766" fill="none" style="stroke:#181818;stroke-width:0.5;"/></g><g class="participant participant-tail" data-participant="DB"><text fill="#000000" font-family="Segoe UI" font-size="14" lengthAdjust="spacing" textLength="76.8496" x="505.6631" y="408.4844">PostgreSQL</text><path d="M529.0879,421.4375 C529.0879,411.4375 547.0879,411.4375 547.0879,411.4375 C547.0879,411.4375 565.0879,411.4375 565.0879,421.4375 L565.0879,447.4375 C565.0879,457.4375 547.0879,457.4375 547.0879,457.4375 C547.0879,457.4375 529.0879,457.4375 529.0879,447.4375 L529.0879,421.4375" fill="#FCE4EC" style="stroke:#181818;stroke-width:0.5;"/><path d="M529.0879,421.4375 C529.0879,431.4375 547.0879,431.4375 547.0879,431.4375 C547.0879,431.4375 565.0879,431.4375 565.0879,421.4375" fill="none" style="stroke:#181818;stroke-width:0.5;"/></g><g><title>API Gateway</title><rect fill="#2563EB" height="189.8633" style="stroke:#A23B72;stroke-width:1;" width="10" x="249.7007" y="188.0859"/></g><g><title>svc-payments</title><rect fill="#2563EB" height="131.2422" style="stroke:#A23B72;stroke-width:1;" width="10" x="363.8354" y="217.3965"/></g><g><title>PostgreSQL</title><rect fill="#FCE4EC" height="29.3105" style="stroke:#A23B72;stroke-width:1;" width="10" x="542.0879" y="290.0176"/></g><path d="M298,136.4648 L298,161.4648 L438,161.4648 L438,146.4648 L428,136.4648 L298,136.4648" fill="#FEFFDD" style="stroke:#181818;stroke-width:0.5;"/><path d="M428,136.4648 L428,146.4648 L438,146.4648 L428,136.4648" fill="#FEFFDD" style="stroke:#181818;stroke-width:0.5;"/><a href="/services/api/svc-payments.html#/Reporting/getDailySummary" target="_top" title="/services/api/svc-payments.html#/Reporting/getDailySummary" xlink:actuate="onRequest" xlink:href="/services/api/svc-payments.html#/Reporting/getDailySummary" xlink:show="new" xlink:title="/services/api/svc-payments.html#/Reporting/getDailySummary" xlink:type="simple"><text fill="#0000FF" font-family="Segoe UI" font-size="13" lengthAdjust="spacing" text-decoration="underline" textLength="119.4058" x="304" y="154.0332">View in Swagger UI</text></a><g class="message" data-participant-1="Client" data-participant-2="GW"><polygon fill="#2563EB" points="237.7007,184.0859,247.7007,188.0859,237.7007,192.0859,241.7007,188.0859" style="stroke:#2563EB;stroke-width:1;"/><line style="stroke:#2563EB;stroke-width:1;" x1="31.7524" x2="243.7007" y1="188.0859" y2="188.0859"/><text fill="#000000" font-family="Segoe UI" font-size="13" lengthAdjust="spacing" textLength="198.9482" x="38.7524" y="183.3438">GET /payments/daily-summary</text></g><g class="message" data-participant-1="GW" data-participant-2="Svc"><polygon fill="#2563EB" points="351.8354,213.3965,361.8354,217.3965,351.8354,221.3965,355.8354,217.3965" style="stroke:#2563EB;stroke-width:1;"/><line style="stroke:#2563EB;stroke-width:1;" x1="259.7007" x2="357.8354" y1="217.3965" y2="217.3965"/><a href="/microservices/svc-payments/#get-paymentsdaily-summary-get-daily-payment-summary" target="_top" title="/microservices/svc-payments/#get-paymentsdaily-summary-get-daily-payment-summary" xlink:actuate="onRequest" xlink:href="/microservices/svc-payments/#get-paymentsdaily-summary-get-daily-payment-summary" xlink:show="new" xlink:title="/microservices/svc-payments/#get-paymentsdaily-summary-get-daily-payment-summary" xlink:type="simple"><text fill="#0000FF" font-family="Segoe UI" font-size="13" lengthAdjust="spacing" text-decoration="underline" textLength="85.1348" x="266.7007" y="212.6543">route request</text></a></g><rect fill="#EEEEEE" height="3" style="stroke:#EEEEEE;stroke-width:1;" width="593.5127" x="0" y="246.0518"/><line style="stroke:#000000;stroke-width:1;" x1="0" x2="593.5127" y1="246.0518" y2="246.0518"/><line style="stroke:#000000;stroke-width:1;" x1="0" x2="593.5127" y1="249.0518" y2="249.0518"/><rect fill="#EEEEEE" height="23.3105" style="stroke:#000000;stroke-width:2;" width="80.3711" x="256.5708" y="235.3965"/><text fill="#000000" font-family="Segoe UI" font-size="13" font-weight="bold" lengthAdjust="spacing" textLength="62.0864" x="262.5708" y="251.9648">Database</text><g class="message" data-participant-1="Svc" data-participant-2="DB"><polygon fill="#2563EB" points="530.0879,286.0176,540.0879,290.0176,530.0879,294.0176,534.0879,290.0176" style="stroke:#2563EB;stroke-width:1;"/><line style="stroke:#2563EB;stroke-width:1;" x1="373.8354" x2="536.0879" y1="290.0176" y2="290.0176"/><text fill="#000000" font-family="Segoe UI" font-size="13" lengthAdjust="spacing" textLength="149.2524" x="380.8354" y="285.2754">SELECT ... WHERE filters</text></g><g class="message" data-participant-1="DB" data-participant-2="Svc"><polygon fill="#2563EB" points="384.8354,315.3281,374.8354,319.3281,384.8354,323.3281,380.8354,319.3281" style="stroke:#2563EB;stroke-width:1;"/><line style="stroke:#2563EB;stroke-width:1;stroke-dasharray:2,2;" x1="378.8354" x2="546.0879" y1="319.3281" y2="319.3281"/><text fill="#000000" font-family="Segoe UI" font-size="13" lengthAdjust="spacing" textLength="93.209" x="390.8354" y="314.5859">Page of results</text></g><g class="message" data-participant-1="Svc" data-participant-2="GW"><polygon fill="#2563EB" points="270.7007,344.6387,260.7007,348.6387,270.7007,352.6387,266.7007,348.6387" style="stroke:#2563EB;stroke-width:1;"/><line style="stroke:#2563EB;stroke-width:1;stroke-dasharray:2,2;" x1="264.7007" x2="367.8354" y1="348.6387" y2="348.6387"/><text fill="#000000" font-family="Segoe UI" font-size="13" lengthAdjust="spacing" textLength="47.3599" x="276.7007" y="343.8965">200 OK</text></g><g class="message" data-participant-1="GW" data-participant-2="Client"><polygon fill="#2563EB" points="42.7524,373.9492,32.7524,377.9492,42.7524,381.9492,38.7524,377.9492" style="stroke:#2563EB;stroke-width:1;"/><line style="stroke:#2563EB;stroke-width:1;stroke-dasharray:2,2;" x1="36.7524" x2="253.7007" y1="377.9492" y2="377.9492"/><text fill="#000000" font-family="Segoe UI" font-size="13" lengthAdjust="spacing" textLength="47.3599" x="48.7524" y="373.207">200 OK</text></g><!--SRC=[XPDHRzem58NV_Ikku1b2eIi8YKa44bODTQnfnqF7WqakgTN4PhQ1eMd_VJSXIPErsf8Nn-VutElFiNaHSiyrJs7BmvTOguECPYfH6jg-bxtCL0xpp2Dr4ZA67KyCrfG8T_oGM5z9UyTJX5Q0iK9ul6tLb-EF0yeGuHS3UgPQgrDHgl_XPe3RV7h5jHMXs7DfNQKZrAN56zrCtJUMlvlsHlwrFyfjIx73fP3OY9ds1-wmd-kk-jcG_AkHtxkgf3SuV9_qNBvJjfaQ3eVRGKrx1-N06xBVZ5bX4uI5zm3EdfzJbDOu4HV9kMCEQShr-RjSe8Ly2We7519Z-zUTGskM219Rm0rSXarvkhg51RTuukVSirX3U-vwKphIXiySmqxPIcuCZY4yFJcf2BKog8yYHEFKNSvcKu6EkELRRkZ8LyhOM6FmTPcdp5tQzioxzcQCIM82weWwooPAb5u5yxreX7UVRPgqdNlSAsfInawCTfxH22uGu9l04mW9mOd7CKK-tcus36K4MHN6BYYWyp7RyFXVf1aFhJWIeHnDyGlIa9Pc2CR_WT2cngglHd0dKoupXLugG3y5rTFPJJ2M-gvQo2gMFR391EObryc4iKoahWZf609lwSqUeDljmlgJT-_1JYGMjNcDgf6dOQVQpeh7T0exgcxehXeMOMr9KQJ4rk_ruCldkYKxkGmEEGh4xxaMQ_O7]--></g></svg>