<svg xmlns="http://www.w3.org/2000/svg" xmlns:xlink="http://www.w3.org/1999/xlink" contentStyleType="text/css" data-diagram-type="SEQUENCE" height="487px" preserveAspectRatio="none" style="width:687px;height:487px;background:#FEFEFE;" version="1.1" viewBox="0 0 687 487" width="687px" zoomAndPan="magnify"><title>GET /members/{guest_id}/balance</title><defs/><g><rect fill="#FEFEFE" height="487" style="stroke:none;stroke-width:1;" width="687" x="0" y="0"/><text fill="#000000" font-family="Segoe UI" font-size="14" font-weight="bold" lengthAdjust="spacing" textLength="250.5508" x="214.2705" y="41.3125">GET /members/{guest_id}/balance</text><text fill="#000000" font-family="Segoe UI" font-size="14" font-weight="bold" lengthAdjust="spacing" textLength="294.6016" x="192.2451" y="57.8008">Get loyalty member balance and tier info</text><g><title>API Gateway</title><rect fill="#2563EB" height="189.8633" style="stroke:#A23B72;stroke-width:1;" width="10" x="268.9341" y="200.8633"/></g><g><title>svc-loyalty-rewards</title><rect fill="#2563EB" height="131.2422" style="stroke:#A23B72;stroke-width:1;" width="10" x="402.1074" y="230.1738"/></g><g><title>Couchbase</title><rect fill="#FCE4EC" height="29.3105" style="stroke:#A23B72;stroke-width:1;" width="10" x="629.9351" y="302.7949"/></g><g><title>Client</title><rect fill="#000000" fill-opacity="0.00000" height="274.4844" width="8" x="27.7524" y="134.2422"/><line style="stroke:#A23B72;stroke-width:0.5;stroke-dasharray:5,5;" x1="31" x2="31" y1="134.2422" y2="408.7266"/></g><g><title>API Gateway</title><rect fill="#000000" fill-opacity="0.00000" height="274.4844" width="8" x="269.9341" y="134.2422"/><line style="stroke:#A23B72;stroke-width:0.5;stroke-dasharray:5,5;" x1="273.645" x2="273.645" y1="134.2422" y2="408.7266"/></g><g><title>svc-loyalty-rewards</title><rect fill="#000000" fill-opacity="0.00000" height="274.4844" width="8" x="403.1074" y="134.2422"/><line style="stroke:#A23B72;stroke-width:0.5;stroke-dasharray:5,5;" x1="406.2231" x2="406.2231" y1="134.2422" y2="408.7266"/></g><g><title>Couchbase</title><rect fill="#000000" fill-opacity="0.00000" height="274.4844" width="8" x="630.9351" y="134.2422"/><line style="stroke:#A23B72;stroke-width:0.5;stroke-dasharray:5,5;" x1="634.7783" x2="634.7783" y1="134.2422" y2="408.7266"/></g><g class="participant participant-head" data-participant="Client"><a href="/applications/" target="_top" title="/applications/" xlink:actuate="onRequest" xlink:href="/applications/" xlink:show="new" xlink:title="/applications/" xlink:type="simple"><rect fill="#E8F4F8" height="30.4883" rx="2.5" ry="2.5" style="stroke:#2E86AB;stroke-width:0.5;" width="53.5049" x="5" y="102.7539"/><text fill="#000000" font-family="Segoe UI" font-size="14" lengthAdjust="spacing" textLength="39.5049" x="12" y="123.2891">Client</text></a></g><g class="participant participant-tail" data-participant="Client"><a href="/applications/" target="_top" title="/applications/" xlink:actuate="onRequest" xlink:href="/applications/" xlink:show="new" xlink:title="/applications/" xlink:type="simple"><rect fill="#E8F4F8" height="30.4883" rx="2.5" ry="2.5" style="stroke:#2E86AB;stroke-width:0.5;" width="53.5049" x="5" y="407.7266"/><text fill="#000000" font-family="Segoe UI" font-size="14" lengthAdjust="spacing" textLength="39.5049" x="12" y="428.2617">Client</text></a></g><g class="participant participant-head" data-participant="GW"><rect fill="#DBEAFE" height="30.4883" rx="2.5" ry="2.5" style="stroke:#2E86AB;stroke-width:0.5;" width="96.5781" x="225.645" y="102.7539"/><text fill="#000000" font-family="Segoe UI" font-size="14" lengthAdjust="spacing" textLength="82.5781" x="232.645" y="123.2891">API Gateway</text></g><g class="participant participant-tail" data-participant="GW"><rect fill="#DBEAFE" height="30.4883" rx="2.5" ry="2.5" style="stroke:#2E86AB;stroke-width:0.5;" width="96.5781" x="225.645" y="407.7266"/><text fill="#000000" font-family="Segoe UI" font-size="14" lengthAdjust="spacing" textLength="82.5781" x="232.645" y="428.2617">API Gateway</text></g><g class="participant participant-head" data-participant="Svc"><a href="/microservices/svc-loyalty-rewards/" target="_top" title="/microservices/svc-loyalty-rewards/" xlink:actuate="onRequest" xlink:href="/microservices/svc-loyalty-rewards/" xlink:show="new" xlink:title="/microservices/svc-loyalty-rewards/" xlink:type="simple"><rect fill="#E8F4F8" height="30.4883" rx="2.5" ry="2.5" style="stroke:#2E86AB;stroke-width:0.5;" width="149.7686" x="332.2231" y="102.7539"/><text fill="#000000" font-family="Segoe UI" font-size="14" lengthAdjust="spacing" textLength="135.7686" x="339.2231" y="123.2891">svc-loyalty-rewards</text></a></g><g class="participant participant-tail" data-participant="Svc"><a href="/microservices/svc-loyalty-rewards/" target="_top" title="/microservices/svc-loyalty-rewards/" xlink:actuate="onRequest" xlink:href="/microservices/svc-loyalty-rewards/" xlink:show="new" xlink:title="/microservices/svc-loyalty-rewards/" xlink:type="simple"><rect fill="#E8F4F8" height="30.4883" rx="2.5" ry="2.5" style="stroke:#2E86AB;stroke-width:0.5;" width="149.7686" x="332.2231" y="407.7266"/><text fill="#000000" font-family="Segoe UI" font-size="14" lengthAdjust="spacing" textLength="135.7686" x="339.2231" y="428.2617">svc-loyalty-rewards</text></a></g><g class="participant participant-head" data-participant="DB"><text fill="#000000" font-family="Segoe UI" font-size="14" lengthAdjust="spacing" textLength="74.3135" x="594.7783" y="131.2891">Couchbase</text><path d="M616.9351,81.7539 C616.9351,71.7539 634.9351,71.7539 634.9351,71.7539 C634.9351,71.7539 652.9351,71.7539 652.9351,81.7539 L652.9351,107.7539 C652.9351,117.7539 634.9351,117.7539 634.9351,117.7539 C634.9351,117.7539 616.9351,117.7539 616.9351,107.7539 L616.9351,81.7539" fill="#FCE4EC" style="stroke:#181818;stroke-width:0.5;"/><path d="M616.9351,81.7539 C616.9351,91.7539 634.9351,91.7539 634.9351,91.7539 C634.9351,91.7539 652.9351,91.7539 652.9351,81.7539" fill="none" style="stroke:#181818;stroke-width:0.5;"/></g><g class="participant participant-tail" data-participant="DB"><text fill="#000000" font-family="Segoe UI" font-size="14" lengthAdjust="spacing" textLength="74.3135" x="594.7783" y="421.2617">Couchbase</text><path d="M616.9351,434.2148 C616.9351,424.2148 634.9351,424.2148 634.9351,424.2148 C634.9351,424.2148 652.9351,424.2148 652.9351,434.2148 L652.9351,460.2148 C652.9351,470.2148 634.9351,470.2148 634.9351,470.2148 C634.9351,470.2148 616.9351,470.2148 616.9351,460.2148 L616.9351,434.2148" fill="#FCE4EC" style="stroke:#181818;stroke-width:0.5;"/><path d="M616.9351,434.2148 C616.9351,444.2148 634.9351,444.2148 634.9351,444.2148 C634.9351,444.2148 652.9351,444.2148 652.9351,434.2148" fill="none" style="stroke:#181818;stroke-width:0.5;"/></g><g><title>API Gateway</title><rect fill="#2563EB" height="189.8633" style="stroke:#A23B72;stroke-width:1;" width="10" x="268.9341" y="200.8633"/></g><g><title>svc-loyalty-rewards</title><rect fill="#2563EB" height="131.2422" style="stroke:#A23B72;stroke-width:1;" width="10" x="402.1074" y="230.1738"/></g><g><title>Couchbase</title><rect fill="#FCE4EC" height="29.3105" style="stroke:#A23B72;stroke-width:1;" width="10" x="629.9351" y="302.7949"/></g><path d="M336,149.2422 L336,174.2422 L476,174.2422 L476,159.2422 L466,149.2422 L336,149.2422" fill="#FEFFDD" style="stroke:#181818;stroke-width:0.5;"/><path d="M466,149.2422 L466,159.2422 L476,159.2422 L466,149.2422" fill="#FEFFDD" style="stroke:#181818;stroke-width:0.5;"/><a href="/services/api/svc-loyalty-rewards.html#/Members/getMemberBalance" target="_top" title="/services/api/svc-loyalty-rewards.html#/Members/getMemberBalance" xlink:actuate="onRequest" xlink:href="/services/api/svc-loyalty-rewards.html#/Members/getMemberBalance" xlink:show="new" xlink:title="/services/api/svc-loyalty-rewards.html#/Members/getMemberBalance" xlink:type="simple"><text fill="#0000FF" font-family="Segoe UI" font-size="13" lengthAdjust="spacing" text-decoration="underline" textLength="119.4058" x="342" y="166.8105">View in Swagger UI</text></a><g class="message" data-participant-1="Client" data-participant-2="GW"><polygon fill="#2563EB" points="256.9341,196.8633,266.9341,200.8633,256.9341,204.8633,260.9341,200.8633" style="stroke:#2563EB;stroke-width:1;"/><line style="stroke:#2563EB;stroke-width:1;" x1="31.7524" x2="262.9341" y1="200.8633" y2="200.8633"/><text fill="#000000" font-family="Segoe UI" font-size="13" lengthAdjust="spacing" textLength="218.1816" x="38.7524" y="196.1211">GET /members/{guest_id}/balance</text></g><g class="message" data-participant-1="GW" data-participant-2="Svc"><polygon fill="#2563EB" points="390.1074,226.1738,400.1074,230.1738,390.1074,234.1738,394.1074,230.1738" style="stroke:#2563EB;stroke-width:1;"/><line style="stroke:#2563EB;stroke-width:1;" x1="278.9341" x2="396.1074" y1="230.1738" y2="230.1738"/><text fill="#000000" font-family="Segoe UI" font-size="13" lengthAdjust="spacing" textLength="85.1348" x="285.9341" y="225.4316">route request</text></g><rect fill="#EEEEEE" height="3" style="stroke:#EEEEEE;stroke-width:1;" width="680.0918" x="0" y="258.8291"/><line style="stroke:#000000;stroke-width:1;" x1="0" x2="680.0918" y1="258.8291" y2="258.8291"/><line style="stroke:#000000;stroke-width:1;" x1="0" x2="680.0918" y1="261.8291" y2="261.8291"/><rect fill="#EEEEEE" height="23.3105" style="stroke:#000000;stroke-width:2;" width="80.3711" x="299.8604" y="248.1738"/><text fill="#000000" font-family="Segoe UI" font-size="13" font-weight="bold" lengthAdjust="spacing" textLength="62.0864" x="305.8604" y="264.7422">Database</text><g class="message" data-participant-1="Svc" data-participant-2="DB"><polygon fill="#2563EB" points="617.9351,298.7949,627.9351,302.7949,617.9351,306.7949,621.9351,302.7949" style="stroke:#2563EB;stroke-width:1;"/><line style="stroke:#2563EB;stroke-width:1;" x1="412.1074" x2="623.9351" y1="302.7949" y2="302.7949"/><text fill="#000000" font-family="Segoe UI" font-size="13" lengthAdjust="spacing" textLength="198.8276" x="419.1074" y="298.0527">N1QL: SELECT WHERE parent_id</text></g><g class="message" data-participant-1="DB" data-participant-2="Svc"><polygon fill="#2563EB" points="423.1074,328.1055,413.1074,332.1055,423.1074,336.1055,419.1074,332.1055" style="stroke:#2563EB;stroke-width:1;"/><line style="stroke:#2563EB;stroke-width:1;stroke-dasharray:2,2;" x1="417.1074" x2="633.9351" y1="332.1055" y2="332.1055"/><text fill="#000000" font-family="Segoe UI" font-size="13" lengthAdjust="spacing" textLength="87.604" x="429.1074" y="327.3633">Document set</text></g><g class="message" data-participant-1="Svc" data-participant-2="GW"><polygon fill="#2563EB" points="289.9341,357.416,279.9341,361.416,289.9341,365.416,285.9341,361.416" style="stroke:#2563EB;stroke-width:1;"/><line style="stroke:#2563EB;stroke-width:1;stroke-dasharray:2,2;" x1="283.9341" x2="406.1074" y1="361.416" y2="361.416"/><text fill="#000000" font-family="Segoe UI" font-size="13" lengthAdjust="spacing" textLength="47.3599" x="295.9341" y="356.6738">200 OK</text></g><g class="message" data-participant-1="GW" data-participant-2="Client"><polygon fill="#2563EB" points="42.7524,386.7266,32.7524,390.7266,42.7524,394.7266,38.7524,390.7266" style="stroke:#2563EB;stroke-width:1;"/><line style="stroke:#2563EB;stroke-width:1;stroke-dasharray:2,2;" x1="36.7524" x2="272.9341" y1="390.7266" y2="390.7266"/><text fill="#000000" font-family="Segoe UI" font-size="13" lengthAdjust="spacing" textLength="47.3599" x="48.7524" y="385.9844">200 OK</text></g><a href="/microservices/svc-loyalty-rewards/#integration-context" target="_top" title="/microservices/svc-loyalty-rewards/#integration-context" xlink:actuate="onRequest" xlink:href="/microservices/svc-loyalty-rewards/#integration-context" xlink:show="new" xlink:title="/microservices/svc-loyalty-rewards/#integration-context" xlink:type="simple"><text fill="#0000FF" font-family="Segoe UI" font-size="10" lengthAdjust="spacing" text-decoration="underline" textLength="208.1494" x="470.9424" y="14.668">&#11014; svc-loyalty-rewards Integration Context</text></a><!--SRC=[ZPFTRjem5CVl_HH7SCtIGbSG4fD8I1WQOzreruiEJSOv1Ak9pMm3HLLlzpHxgZt9JaBuMf6svCRA_t- -ViUnZr8jkE4PJBbuJ8nUgZZGgJPGZSByPNRli7CUwxLK2SnuQl58YN76bwcBj78ZdY5KnfXeXBj1vJWSVonH2OHd1lHqZT7hibJzxNK3fyNd6swS57B1bVErYT7iB67hkkk_ilpTTDYAhg9MOHlA6GwbmfCqtNh3RzOBtTTF9r9qsOekBlVIAnnHH7eXZxGxpIgQpMdZI3k3iX4ssGjZS-GK1WyFNYQ5qHRDIWgqdbs9MgetF7MRci4rDx7rgb8vJ0ntKgkQ8BRuvE3thvzmnWo3WnU2hNSoOSn9boBqmrlmCiocQAptd2pHkkyoVl6cFEMqaM-gZmxAZB3rGQa1Lp4uIH-accd65WVuK0bIYSfLW5lO7lF1-6AHIb5qOZtguIIYUpE0FdVKzAO8wzz3jUU7NRfe9xup8nR-yKhy7xp9P7yPOkxub5kwbe5UYdb-B7BrVDfC45w50MEArWPwHMDI1LearTYdvmjvhiIRkSlIglUnn9gWsnxz4jnNYMk21kCrJn9AV3SW64WqyrgCbS1gxt86xN-jY77Xv8h05SJA_uME59uZQGDTDn9D_ezPTt3duixEEXtexLXqEepb8YKW3cqONNuUjc4S3iFW5kxVXrz2e8LGXzJ58TqHCZhMzjLxMYopV1oBZiLuv2-hxCQiNrp0fm_7bfntFWWvIYJdNFrxzWS0]--></g></svg>