<?xml version="1.0" encoding="UTF-8" standalone="no"?><svg xmlns="http://www.w3.org/2000/svg" xmlns:xlink="http://www.w3.org/1999/xlink" contentScriptType="application/ecmascript" contentStyleType="text/css" height="610px" preserveAspectRatio="none" style="width:666px;height:610px;background:#FEFEFE;" version="1.1" viewBox="0 0 666 610" width="666px" zoomAndPan="magnify"><defs/><g><text fill="#000000" font-family="Segoe UI" font-size="18" lengthAdjust="spacingAndGlyphs" textLength="292" x="182.5" y="41.3486">PATCH /purchase-orders/{po_id}</text><text fill="#000000" font-family="Segoe UI" font-size="18" lengthAdjust="spacingAndGlyphs" textLength="378" x="139.5" y="62.3018">Update purchase order status or line items</text><rect fill="#7C3AED" height="317.3281" style="stroke: #6B7280; stroke-width: 1.0;" width="10" x="263.5" y="202.1094"/><rect fill="#7C3AED" height="259.0625" style="stroke: #6B7280; stroke-width: 1.0;" width="10" x="422.5" y="231.2422"/><rect fill="#FEF9C3" height="29.1328" style="stroke: #6B7280; stroke-width: 1.0;" width="10" x="600.5" y="338.6406"/><rect fill="#FEF9C3" height="29.1328" style="stroke: #6B7280; stroke-width: 1.0;" width="10" x="600.5" y="432.0391"/><line style="stroke: #6B7280; stroke-width: 1.0; stroke-dasharray: 5.0,5.0;" x1="34" x2="34" y1="135.8438" y2="537.4375"/><line style="stroke: #6B7280; stroke-width: 1.0; stroke-dasharray: 5.0,5.0;" x1="268.5" x2="268.5" y1="135.8438" y2="537.4375"/><line style="stroke: #6B7280; stroke-width: 1.0; stroke-dasharray: 5.0,5.0;" x1="427.5" x2="427.5" y1="135.8438" y2="537.4375"/><line style="stroke: #6B7280; stroke-width: 1.0; stroke-dasharray: 5.0,5.0;" x1="605" x2="605" y1="135.8438" y2="537.4375"/><a href="/applications/" target="_top" title="/applications/" xlink:actuate="onRequest" xlink:href="/applications/" xlink:show="new" xlink:title="/applications/" xlink:type="simple"><rect fill="#F9FAFB" height="30.2969" style="stroke: #374151; stroke-width: 1.5;" width="53" x="8" y="104.5469"/><text fill="#000000" font-family="Segoe UI" font-size="14" lengthAdjust="spacingAndGlyphs" textLength="39" x="15" y="124.542">Client</text><rect fill="#F9FAFB" height="30.2969" style="stroke: #374151; stroke-width: 1.5;" width="53" x="8" y="536.4375"/><text fill="#000000" font-family="Segoe UI" font-size="14" lengthAdjust="spacingAndGlyphs" textLength="39" x="15" y="556.4326">Client</text></a><a href="/actors/#api-gateway" target="_top" title="/actors/#api-gateway" xlink:actuate="onRequest" xlink:href="/actors/#api-gateway" xlink:show="new" xlink:title="/actors/#api-gateway" xlink:type="simple"><rect fill="#E0F2FE" height="30.2969" style="stroke: #374151; stroke-width: 1.5;" width="98" x="219.5" y="104.5469"/><text fill="#000000" font-family="Segoe UI" font-size="14" lengthAdjust="spacingAndGlyphs" textLength="84" x="226.5" y="124.542">API Gateway</text><rect fill="#E0F2FE" height="30.2969" style="stroke: #374151; stroke-width: 1.5;" width="98" x="219.5" y="536.4375"/><text fill="#000000" font-family="Segoe UI" font-size="14" lengthAdjust="spacingAndGlyphs" textLength="84" x="226.5" y="556.4326">API Gateway</text></a><a href="/microservices/svc-inventory-procurement/" target="_top" title="/microservices/svc-inventory-procurement/" xlink:actuate="onRequest" xlink:href="/microservices/svc-inventory-procurement/" xlink:show="new" xlink:title="/microservices/svc-inventory-procurement/" xlink:type="simple"><rect fill="#F1F5F9" height="30.2969" style="stroke: #374151; stroke-width: 1.5;" width="200" x="327.5" y="104.5469"/><text fill="#000000" font-family="Segoe UI" font-size="14" lengthAdjust="spacingAndGlyphs" textLength="186" x="334.5" y="124.542">svc-inventory-procurement</text><rect fill="#F1F5F9" height="30.2969" style="stroke: #374151; stroke-width: 1.5;" width="200" x="327.5" y="536.4375"/><text fill="#000000" font-family="Segoe UI" font-size="14" lengthAdjust="spacingAndGlyphs" textLength="186" x="334.5" y="556.4326">svc-inventory-procurement</text></a><a href="/microservices/svc-inventory-procurement/#data-store" target="_top" title="/microservices/svc-inventory-procurement/#data-store" xlink:actuate="onRequest" xlink:href="/microservices/svc-inventory-procurement/#data-store" xlink:show="new" xlink:title="/microservices/svc-inventory-procurement/#data-store" xlink:type="simple"><text fill="#000000" font-family="Segoe UI" font-size="14" lengthAdjust="spacingAndGlyphs" textLength="81" x="562" y="132.542">PostgreSQL</text><path d="M587.5,83.5469 C587.5,73.5469 605.5,73.5469 605.5,73.5469 C605.5,73.5469 623.5,73.5469 623.5,83.5469 L623.5,109.5469 C623.5,119.5469 605.5,119.5469 605.5,119.5469 C605.5,119.5469 587.5,119.5469 587.5,109.5469 L587.5,83.5469 " fill="#FEF9C3" style="stroke: #000000; stroke-width: 1.5;"/><path d="M587.5,83.5469 C587.5,93.5469 605.5,93.5469 605.5,93.5469 C605.5,93.5469 623.5,93.5469 623.5,83.5469 " fill="none" style="stroke: #000000; stroke-width: 1.5;"/><text fill="#000000" font-family="Segoe UI" font-size="14" lengthAdjust="spacingAndGlyphs" textLength="81" x="562" y="549.4326">PostgreSQL</text><path d="M587.5,562.7344 C587.5,552.7344 605.5,552.7344 605.5,552.7344 C605.5,552.7344 623.5,552.7344 623.5,562.7344 L623.5,588.7344 C623.5,598.7344 605.5,598.7344 605.5,598.7344 C605.5,598.7344 587.5,598.7344 587.5,588.7344 L587.5,562.7344 " fill="#FEF9C3" style="stroke: #000000; stroke-width: 1.5;"/><path d="M587.5,562.7344 C587.5,572.7344 605.5,572.7344 605.5,572.7344 C605.5,572.7344 623.5,572.7344 623.5,562.7344 " fill="none" style="stroke: #000000; stroke-width: 1.5;"/></a><rect fill="#7C3AED" height="317.3281" style="stroke: #6B7280; stroke-width: 1.0;" width="10" x="263.5" y="202.1094"/><rect fill="#7C3AED" height="259.0625" style="stroke: #6B7280; stroke-width: 1.0;" width="10" x="422.5" y="231.2422"/><rect fill="#FEF9C3" height="29.1328" style="stroke: #6B7280; stroke-width: 1.0;" width="10" x="600.5" y="338.6406"/><rect fill="#FEF9C3" height="29.1328" style="stroke: #6B7280; stroke-width: 1.0;" width="10" x="600.5" y="432.0391"/><path d="M357,150.8438 L357,175.8438 L498,175.8438 L498,160.8438 L488,150.8438 L357,150.8438 " fill="#FBFB77" style="stroke: #A80036; stroke-width: 1.0;"/><path d="M488,150.8438 L488,160.8438 L498,160.8438 L488,150.8438 " fill="#FBFB77" style="stroke: #A80036; stroke-width: 1.0;"/><a href="/services/api/svc-inventory-procurement.html" target="_top" title="/services/api/svc-inventory-procurement.html" xlink:actuate="onRequest" xlink:href="/services/api/svc-inventory-procurement.html" xlink:show="new" xlink:title="/services/api/svc-inventory-procurement.html" xlink:type="simple"><text fill="#0000FF" font-family="Segoe UI" font-size="13" lengthAdjust="spacingAndGlyphs" text-decoration="underline" textLength="120" x="363" y="167.9106">View in Swagger UI</text></a><polygon fill="#7C3AED" points="251.5,198.1094,261.5,202.1094,251.5,206.1094,255.5,202.1094" style="stroke: #7C3AED; stroke-width: 1.0;"/><line style="stroke: #7C3AED; stroke-width: 1.0;" x1="34.5" x2="257.5" y1="202.1094" y2="202.1094"/><text fill="#000000" font-family="Segoe UI" font-size="13" lengthAdjust="spacingAndGlyphs" textLength="210" x="41.5" y="197.0435">PATCH /purchase-orders/{po_id}</text><polygon fill="#7C3AED" points="410.5,227.2422,420.5,231.2422,410.5,235.2422,414.5,231.2422" style="stroke: #7C3AED; stroke-width: 1.0;"/><line style="stroke: #7C3AED; stroke-width: 1.0;" x1="273.5" x2="416.5" y1="231.2422" y2="231.2422"/><text fill="#000000" font-family="Segoe UI" font-size="13" lengthAdjust="spacingAndGlyphs" textLength="87" x="280.5" y="226.1763">route request</text><path d="M437,244.2422 L437,269.2422 L598,269.2422 L598,254.2422 L588,244.2422 L437,244.2422 " fill="#FBFB77" style="stroke: #A80036; stroke-width: 1.0;"/><path d="M588,244.2422 L588,254.2422 L598,254.2422 L588,244.2422 " fill="#FBFB77" style="stroke: #A80036; stroke-width: 1.0;"/><text fill="#000000" font-family="Segoe UI" font-size="13" lengthAdjust="spacingAndGlyphs" textLength="140" x="443" y="261.3091">Validate request body</text><rect fill="#EEEEEE" height="3" style="stroke: #EEEEEE; stroke-width: 1.0;" width="651" x="3" y="294.9414"/><line style="stroke: #000000; stroke-width: 1.0;" x1="3" x2="654" y1="294.9414" y2="294.9414"/><line style="stroke: #000000; stroke-width: 1.0;" x1="3" x2="654" y1="297.9414" y2="297.9414"/><rect fill="#EEEEEE" height="23.1328" style="stroke: #000000; stroke-width: 2.0;" width="90" x="283.5" y="284.375"/><text fill="#000000" font-family="Segoe UI" font-size="13" font-weight="bold" lengthAdjust="spacingAndGlyphs" textLength="71" x="289.5" y="300.4419">Database</text><polygon fill="#7C3AED" points="588.5,334.6406,598.5,338.6406,588.5,342.6406,592.5,338.6406" style="stroke: #7C3AED; stroke-width: 1.0;"/><line style="stroke: #7C3AED; stroke-width: 1.0;" x1="432.5" x2="594.5" y1="338.6406" y2="338.6406"/><text fill="#000000" font-family="Segoe UI" font-size="13" lengthAdjust="spacingAndGlyphs" textLength="149" x="439.5" y="333.5747">SELECT ... FOR UPDATE</text><polygon fill="#7C3AED" points="443.5,363.7734,433.5,367.7734,443.5,371.7734,439.5,367.7734" style="stroke: #7C3AED; stroke-width: 1.0;"/><line style="stroke: #7C3AED; stroke-width: 1.0; stroke-dasharray: 2.0,2.0;" x1="437.5" x2="604.5" y1="367.7734" y2="367.7734"/><text fill="#000000" font-family="Segoe UI" font-size="13" lengthAdjust="spacingAndGlyphs" textLength="74" x="449.5" y="362.7075">Current row</text><path d="M437,380.7734 L437,405.7734 L624,405.7734 L624,390.7734 L614,380.7734 L437,380.7734 " fill="#FBFB77" style="stroke: #A80036; stroke-width: 1.0;"/><path d="M614,380.7734 L614,390.7734 L624,390.7734 L614,380.7734 " fill="#FBFB77" style="stroke: #A80036; stroke-width: 1.0;"/><text fill="#000000" font-family="Segoe UI" font-size="13" lengthAdjust="spacingAndGlyphs" textLength="166" x="443" y="397.8403">Merge changed fields only</text><polygon fill="#7C3AED" points="588.5,428.0391,598.5,432.0391,588.5,436.0391,592.5,432.0391" style="stroke: #7C3AED; stroke-width: 1.0;"/><line style="stroke: #7C3AED; stroke-width: 1.0;" x1="432.5" x2="594.5" y1="432.0391" y2="432.0391"/><text fill="#000000" font-family="Segoe UI" font-size="13" lengthAdjust="spacingAndGlyphs" textLength="112" x="439.5" y="426.9731">UPDATE ... SET ...</text><polygon fill="#7C3AED" points="443.5,457.1719,433.5,461.1719,443.5,465.1719,439.5,461.1719" style="stroke: #7C3AED; stroke-width: 1.0;"/><line style="stroke: #7C3AED; stroke-width: 1.0; stroke-dasharray: 2.0,2.0;" x1="437.5" x2="604.5" y1="461.1719" y2="461.1719"/><text fill="#000000" font-family="Segoe UI" font-size="13" lengthAdjust="spacingAndGlyphs" textLength="81" x="449.5" y="456.106">Updated row</text><polygon fill="#7C3AED" points="284.5,486.3047,274.5,490.3047,284.5,494.3047,280.5,490.3047" style="stroke: #7C3AED; stroke-width: 1.0;"/><line style="stroke: #7C3AED; stroke-width: 1.0; stroke-dasharray: 2.0,2.0;" x1="278.5" x2="426.5" y1="490.3047" y2="490.3047"/><text fill="#000000" font-family="Segoe UI" font-size="13" lengthAdjust="spacingAndGlyphs" textLength="46" x="290.5" y="485.2388">200 OK</text><polygon fill="#7C3AED" points="45.5,515.4375,35.5,519.4375,45.5,523.4375,41.5,519.4375" style="stroke: #7C3AED; stroke-width: 1.0;"/><line style="stroke: #7C3AED; stroke-width: 1.0; stroke-dasharray: 2.0,2.0;" x1="39.5" x2="267.5" y1="519.4375" y2="519.4375"/><text fill="#000000" font-family="Segoe UI" font-size="13" lengthAdjust="spacingAndGlyphs" textLength="46" x="51.5" y="514.3716">200 OK</text><a href="/microservices/svc-inventory-procurement/#integration-context" target="_top" title="/microservices/svc-inventory-procurement/#integration-context" xlink:actuate="onRequest" xlink:href="/microservices/svc-inventory-procurement/#integration-context" xlink:show="new" xlink:title="/microservices/svc-inventory-procurement/#integration-context" xlink:type="simple"><text fill="#0000FF" font-family="Segoe UI" font-size="10" lengthAdjust="spacingAndGlyphs" text-decoration="underline" textLength="243" x="411" y="12.2822">⬆ svc-inventory-procurement Integration Context</text></a><!--MD5=[41c5fa8370a1b7677c8f7ac61af38868]
@startuml svc-inventory-procurement- -patch-purchase-orders-po_id

skinparam backgroundColor #FEFEFE
skinparam shadowing false
skinparam defaultFontName "Segoe UI"
skinparam sequence {
    ArrowColor #7c3aed
    ParticipantBorderColor #374151
    ParticipantBackgroundColor #F9FAFB
    LifeLineBorderColor #6B7280
    BoxBorderColor #94A3B8
    BoxBackgroundColor #F8FAFC
    NoteBorderColor #64748B
    NoteBackgroundColor #F8FAFC
}

header [[/microservices/svc-inventory-procurement/#integration-context ⬆ svc-inventory-procurement Integration Context]]

title PATCH /purchase-orders/{po_id}\nUpdate purchase order status or line items

participant "Client" as Client [[/applications/]]
participant "API Gateway" as GW [[/actors/#api-gateway]] #E0F2FE
participant "svc-inventory-procurement" as Svc [[/microservices/svc-inventory-procurement/]] #F1F5F9
database "PostgreSQL" as DB [[/microservices/svc-inventory-procurement/#data-store]] #FEF9C3

note over Svc
  [[/services/api/svc-inventory-procurement.html View in Swagger UI]]
end note

Client -> GW : PATCH /purchase-orders/{po_id}
activate GW #7c3aed
GW -> Svc : route request
activate Svc #7c3aed

note right of Svc : Validate request body

== Database ==

Svc -> DB : SELECT ... FOR UPDATE
activate DB #FEF9C3
DB - -> Svc : Current row
deactivate DB
note right of Svc : Merge changed fields only

Svc -> DB : UPDATE ... SET ...
activate DB #FEF9C3
DB - -> Svc : Updated row
deactivate DB

Svc - -> GW : 200 OK
deactivate Svc
GW - -> Client : 200 OK
deactivate GW

@enduml

PlantUML version 1.2020.02(Sun Mar 01 10:22:07 UTC 2020)
(GPL source distribution)
Java Runtime: OpenJDK Runtime Environment
JVM: OpenJDK 64-Bit Server VM
Java Version: 17.0.18+8
Operating System: Linux
Default Encoding: UTF-8
Language: en
Country: null
--></g></svg>