<svg xmlns="http://www.w3.org/2000/svg" xmlns:xlink="http://www.w3.org/1999/xlink" contentStyleType="text/css" data-diagram-type="SEQUENCE" height="509px" preserveAspectRatio="none" style="width:439px;height:509px;background:#FEFEFE;" version="1.1" viewBox="0 0 439 509" width="439px" zoomAndPan="magnify"><title>POST /trips</title><defs/><g><rect fill="#FEFEFE" height="509" style="stroke:none;stroke-width:1;" width="439" x="0" y="0"/><text fill="#000000" font-family="Segoe UI" font-size="14" font-weight="bold" lengthAdjust="spacing" textLength="84.082" x="173.7454" y="28.5352">POST /trips</text><text fill="#000000" font-family="Segoe UI" font-size="14" font-weight="bold" lengthAdjust="spacing" textLength="198.625" x="116.4739" y="45.0234">Create a new trip definition</text><g><title>API Gateway</title><rect fill="#059669" height="225.1738" style="stroke:#A23B72;stroke-width:1;" width="10" x="133.5493" y="188.0859"/></g><g><title>svc-trip-catalog</title><rect fill="#059669" height="166.5527" style="stroke:#A23B72;stroke-width:1;" width="10" x="254.2505" y="217.3965"/></g><g><title>PostgreSQL</title><rect fill="#FCE4EC" height="29.3105" style="stroke:#A23B72;stroke-width:1;" width="10" x="379.3223" y="325.3281"/></g><g><title>Client</title><rect fill="#000000" fill-opacity="0.00000" height="309.7949" width="8" x="27.7524" y="121.4648"/><line style="stroke:#A23B72;stroke-width:0.5;stroke-dasharray:5,5;" x1="31" x2="31" y1="121.4648" y2="431.2598"/></g><g><title>API Gateway</title><rect fill="#000000" fill-opacity="0.00000" height="309.7949" width="8" x="134.5493" y="121.4648"/><line style="stroke:#A23B72;stroke-width:0.5;stroke-dasharray:5,5;" x1="138.2603" x2="138.2603" y1="121.4648" y2="431.2598"/></g><g><title>svc-trip-catalog</title><rect fill="#000000" fill-opacity="0.00000" height="309.7949" width="8" x="255.2505" y="121.4648"/><line style="stroke:#A23B72;stroke-width:0.5;stroke-dasharray:5,5;" x1="258.8384" x2="258.8384" y1="121.4648" y2="431.2598"/></g><g><title>PostgreSQL</title><rect fill="#000000" fill-opacity="0.00000" height="309.7949" width="8" x="380.3223" y="121.4648"/><line style="stroke:#A23B72;stroke-width:0.5;stroke-dasharray:5,5;" x1="383.8975" x2="383.8975" y1="121.4648" y2="431.2598"/></g><g class="participant participant-head" data-participant="Client"><rect fill="#E8F4F8" height="30.4883" rx="2.5" ry="2.5" style="stroke:#2E86AB;stroke-width:0.5;" width="53.5049" x="5" y="89.9766"/><text fill="#000000" font-family="Segoe UI" font-size="14" lengthAdjust="spacing" textLength="39.5049" x="12" y="110.5117">Client</text></g><g class="participant participant-tail" data-participant="Client"><rect fill="#E8F4F8" height="30.4883" rx="2.5" ry="2.5" style="stroke:#2E86AB;stroke-width:0.5;" width="53.5049" x="5" y="430.2598"/><text fill="#000000" font-family="Segoe UI" font-size="14" lengthAdjust="spacing" textLength="39.5049" x="12" y="450.7949">Client</text></g><g class="participant participant-head" data-participant="GW"><rect fill="#DBEAFE" height="30.4883" rx="2.5" ry="2.5" style="stroke:#2E86AB;stroke-width:0.5;" width="96.5781" x="90.2603" y="89.9766"/><text fill="#000000" font-family="Segoe UI" font-size="14" lengthAdjust="spacing" textLength="82.5781" x="97.2603" y="110.5117">API Gateway</text></g><g class="participant participant-tail" data-participant="GW"><rect fill="#DBEAFE" height="30.4883" rx="2.5" ry="2.5" style="stroke:#2E86AB;stroke-width:0.5;" width="96.5781" x="90.2603" y="430.2598"/><text fill="#000000" font-family="Segoe UI" font-size="14" lengthAdjust="spacing" textLength="82.5781" x="97.2603" y="450.7949">API Gateway</text></g><g class="participant participant-head" data-participant="Svc"><a href="/microservices/svc-trip-catalog/" target="_top" title="/microservices/svc-trip-catalog/" xlink:actuate="onRequest" xlink:href="/microservices/svc-trip-catalog/" xlink:show="new" xlink:title="/microservices/svc-trip-catalog/" xlink:type="simple"><rect fill="#E8F4F8" height="30.4883" rx="2.5" ry="2.5" style="stroke:#2E86AB;stroke-width:0.5;" width="124.8242" x="196.8384" y="89.9766"/><text fill="#000000" font-family="Segoe UI" font-size="14" lengthAdjust="spacing" textLength="110.8242" x="203.8384" y="110.5117">svc-trip-catalog</text></a></g><g class="participant participant-tail" data-participant="Svc"><a href="/microservices/svc-trip-catalog/" target="_top" title="/microservices/svc-trip-catalog/" xlink:actuate="onRequest" xlink:href="/microservices/svc-trip-catalog/" xlink:show="new" xlink:title="/microservices/svc-trip-catalog/" xlink:type="simple"><rect fill="#E8F4F8" height="30.4883" rx="2.5" ry="2.5" style="stroke:#2E86AB;stroke-width:0.5;" width="124.8242" x="196.8384" y="430.2598"/><text fill="#000000" font-family="Segoe UI" font-size="14" lengthAdjust="spacing" textLength="110.8242" x="203.8384" y="450.7949">svc-trip-catalog</text></a></g><g class="participant participant-head" data-participant="DB"><text fill="#000000" font-family="Segoe UI" font-size="14" lengthAdjust="spacing" textLength="76.8496" x="342.8975" y="118.5117">PostgreSQL</text><path d="M366.3223,68.9766 C366.3223,58.9766 384.3223,58.9766 384.3223,58.9766 C384.3223,58.9766 402.3223,58.9766 402.3223,68.9766 L402.3223,94.9766 C402.3223,104.9766 384.3223,104.9766 384.3223,104.9766 C384.3223,104.9766 366.3223,104.9766 366.3223,94.9766 L366.3223,68.9766" fill="#FCE4EC" style="stroke:#181818;stroke-width:0.5;"/><path d="M366.3223,68.9766 C366.3223,78.9766 384.3223,78.9766 384.3223,78.9766 C384.3223,78.9766 402.3223,78.9766 402.3223,68.9766" fill="none" style="stroke:#181818;stroke-width:0.5;"/></g><g class="participant participant-tail" data-participant="DB"><text fill="#000000" font-family="Segoe UI" font-size="14" lengthAdjust="spacing" textLength="76.8496" x="342.8975" y="443.7949">PostgreSQL</text><path d="M366.3223,456.748 C366.3223,446.748 384.3223,446.748 384.3223,446.748 C384.3223,446.748 402.3223,446.748 402.3223,456.748 L402.3223,482.748 C402.3223,492.748 384.3223,492.748 384.3223,492.748 C384.3223,492.748 366.3223,492.748 366.3223,482.748 L366.3223,456.748" fill="#FCE4EC" style="stroke:#181818;stroke-width:0.5;"/><path d="M366.3223,456.748 C366.3223,466.748 384.3223,466.748 384.3223,466.748 C384.3223,466.748 402.3223,466.748 402.3223,456.748" fill="none" style="stroke:#181818;stroke-width:0.5;"/></g><g><title>API Gateway</title><rect fill="#059669" height="225.1738" style="stroke:#A23B72;stroke-width:1;" width="10" x="133.5493" y="188.0859"/></g><g><title>svc-trip-catalog</title><rect fill="#059669" height="166.5527" style="stroke:#A23B72;stroke-width:1;" width="10" x="254.2505" y="217.3965"/></g><g><title>PostgreSQL</title><rect fill="#FCE4EC" height="29.3105" style="stroke:#A23B72;stroke-width:1;" width="10" x="379.3223" y="325.3281"/></g><path d="M189,136.4648 L189,161.4648 L329,161.4648 L329,146.4648 L319,136.4648 L189,136.4648" fill="#FEFFDD" style="stroke:#181818;stroke-width:0.5;"/><path d="M319,136.4648 L319,146.4648 L329,146.4648 L319,136.4648" fill="#FEFFDD" style="stroke:#181818;stroke-width:0.5;"/><a href="/services/api/svc-trip-catalog.html#/Trips/createTrip" target="_top" title="/services/api/svc-trip-catalog.html#/Trips/createTrip" xlink:actuate="onRequest" xlink:href="/services/api/svc-trip-catalog.html#/Trips/createTrip" xlink:show="new" xlink:title="/services/api/svc-trip-catalog.html#/Trips/createTrip" xlink:type="simple"><text fill="#0000FF" font-family="Segoe UI" font-size="13" lengthAdjust="spacing" text-decoration="underline" textLength="119.4058" x="195" y="154.0332">View in Swagger UI</text></a><g class="message" data-participant-1="Client" data-participant-2="GW"><polygon fill="#059669" points="121.5493,184.0859,131.5493,188.0859,121.5493,192.0859,125.5493,188.0859" style="stroke:#059669;stroke-width:1;"/><line style="stroke:#059669;stroke-width:1;" x1="31.7524" x2="127.5493" y1="188.0859" y2="188.0859"/><text fill="#000000" font-family="Segoe UI" font-size="13" lengthAdjust="spacing" textLength="72.1855" x="38.7524" y="183.3438">POST /trips</text></g><g class="message" data-participant-1="GW" data-participant-2="Svc"><polygon fill="#059669" points="242.2505,213.3965,252.2505,217.3965,242.2505,221.3965,246.2505,217.3965" style="stroke:#059669;stroke-width:1;"/><line style="stroke:#059669;stroke-width:1;" x1="143.5493" x2="248.2505" y1="217.3965" y2="217.3965"/><a href="/microservices/svc-trip-catalog/#post-trips-create-a-new-trip-definition" target="_top" title="/microservices/svc-trip-catalog/#post-trips-create-a-new-trip-definition" xlink:actuate="onRequest" xlink:href="/microservices/svc-trip-catalog/#post-trips-create-a-new-trip-definition" xlink:show="new" xlink:title="/microservices/svc-trip-catalog/#post-trips-create-a-new-trip-definition" xlink:type="simple"><text fill="#0000FF" font-family="Segoe UI" font-size="13" lengthAdjust="spacing" text-decoration="underline" textLength="85.1348" x="150.5493" y="212.6543">route request</text></a></g><path d="M269,230.3965 L269,255.3965 L427,255.3965 L427,240.3965 L417,230.3965 L269,230.3965" fill="#FEFFDD" style="stroke:#181818;stroke-width:0.5;"/><path d="M417,230.3965 L417,240.3965 L427,240.3965 L417,230.3965" fill="#FEFFDD" style="stroke:#181818;stroke-width:0.5;"/><text fill="#000000" font-family="Segoe UI" font-size="13" lengthAdjust="spacing" textLength="137.5728" x="275" y="247.9648">Validate request body</text><rect fill="#EEEEEE" height="3" style="stroke:#EEEEEE;stroke-width:1;" width="432.5728" x="0" y="281.3623"/><line style="stroke:#000000;stroke-width:1;" x1="0" x2="432.5728" y1="281.3623" y2="281.3623"/><line style="stroke:#000000;stroke-width:1;" x1="0" x2="432.5728" y1="284.3623" y2="284.3623"/><rect fill="#EEEEEE" height="23.3105" style="stroke:#000000;stroke-width:2;" width="80.3711" x="176.1008" y="270.707"/><text fill="#000000" font-family="Segoe UI" font-size="13" font-weight="bold" lengthAdjust="spacing" textLength="62.0864" x="182.1008" y="287.2754">Database</text><g class="message" data-participant-1="Svc" data-participant-2="DB"><polygon fill="#059669" points="367.3223,321.3281,377.3223,325.3281,367.3223,329.3281,371.3223,325.3281" style="stroke:#059669;stroke-width:1;"/><line style="stroke:#059669;stroke-width:1;" x1="264.2505" x2="373.3223" y1="325.3281" y2="325.3281"/><text fill="#000000" font-family="Segoe UI" font-size="13" lengthAdjust="spacing" textLength="96.0718" x="271.2505" y="320.5859">INSERT INTO ...</text></g><g class="message" data-participant-1="DB" data-participant-2="Svc"><polygon fill="#059669" points="275.2505,350.6387,265.2505,354.6387,275.2505,358.6387,271.2505,354.6387" style="stroke:#059669;stroke-width:1;"/><line style="stroke:#059669;stroke-width:1;stroke-dasharray:2,2;" x1="269.2505" x2="383.3223" y1="354.6387" y2="354.6387"/><text fill="#000000" font-family="Segoe UI" font-size="13" lengthAdjust="spacing" textLength="76.4575" x="281.2505" y="349.8965">Created row</text></g><g class="message" data-participant-1="Svc" data-participant-2="GW"><polygon fill="#059669" points="154.5493,379.9492,144.5493,383.9492,154.5493,387.9492,150.5493,383.9492" style="stroke:#059669;stroke-width:1;"/><line style="stroke:#059669;stroke-width:1;stroke-dasharray:2,2;" x1="148.5493" x2="258.2505" y1="383.9492" y2="383.9492"/><text fill="#000000" font-family="Segoe UI" font-size="13" lengthAdjust="spacing" textLength="77.7969" x="160.5493" y="379.207">201 Created</text></g><g class="message" data-participant-1="GW" data-participant-2="Client"><polygon fill="#059669" points="42.7524,409.2598,32.7524,413.2598,42.7524,417.2598,38.7524,413.2598" style="stroke:#059669;stroke-width:1;"/><line style="stroke:#059669;stroke-width:1;stroke-dasharray:2,2;" x1="36.7524" x2="137.5493" y1="413.2598" y2="413.2598"/><text fill="#000000" font-family="Segoe UI" font-size="13" lengthAdjust="spacing" textLength="77.7969" x="48.7524" y="408.5176">201 Created</text></g><!--SRC=[ZPBVRzem4CVV_LUSu3dyx80YCOb0Wf0GPGjj7peUJ6A2rM1djajQJVlVTquWXB99InvoydrptxlFMRzoaL953x2buMkiv9k89ZAH2kg-Pr-YIuNUqqXcNCImeubcbKp4TlGjCRuKPaaF36e1YoM3ntcj-Zlx-SP4oE0N0Np6IidiPDNwSj_htUV7AweC3tbAXN6bYfWwIJhUe3TsRoIVc_O6_fq_o6KBlcCBBjXLcN6dw_OxUTwLxrSflptmM-qoTOF3zp6VfvVIN5SD-_rjjvBx2ygkroU_2J7S90nM3y4QcaRnLFyG4yMeOK11i0picSN91JTS2aBIox1GcoIS2LC3gg48hzFZrHncM2kZ7xbczWprgUkDSOjNEdqC7MlaXDJGHCQvE3Y6yFBIFF1GIStKaOTCDpyhcvjDoJZ2eotLkEsLr2PMBFYso2jDNPnuujrv4q84uW1vPChMHq3eK1QdARynQEpD8QatrnPDCyp9s1YUECBX0eACnZ5MUvnlDeI92Am18GKDSBxQcOTLleI6XXyjO4lZTD4mHAcTUFWVCzTJd2y_qaxHaaCTN5QXkYmBSENee-mzrmRxAwsjqzcxGA9ul3SWTwScdcZ28thv6ROo-Y1aD8BfcV9eH8WLO-C8U0ZpPU1zN-Dd_G2DHkDYLi6FeLCEMjop2BlCICGgybFTCxnEgttMLdLsVvORoawq_ocTFPC_]--></g></svg>