<?xml version="1.0" encoding="UTF-8" standalone="no"?><svg xmlns="http://www.w3.org/2000/svg" xmlns:xlink="http://www.w3.org/1999/xlink" contentScriptType="application/ecmascript" contentStyleType="text/css" height="610px" preserveAspectRatio="none" style="width:693px;height:610px;background:#FEFEFE;" version="1.1" viewBox="0 0 693 610" width="693px" zoomAndPan="magnify"><defs/><g><text fill="#000000" font-family="Segoe UI" font-size="18" lengthAdjust="spacingAndGlyphs" textLength="348" x="168.25" y="41.3486">PATCH /partner-bookings/{booking_id}</text><text fill="#000000" font-family="Segoe UI" font-size="18" lengthAdjust="spacingAndGlyphs" textLength="228" x="228.25" y="62.3018">Update a partner booking</text><rect fill="#7C3AED" height="317.3281" style="stroke: #6B7280; stroke-width: 1.0;" width="10" x="301.5" y="202.1094"/><rect fill="#7C3AED" height="259.0625" style="stroke: #6B7280; stroke-width: 1.0;" width="10" x="450" y="231.2422"/><rect fill="#FEF9C3" height="29.1328" style="stroke: #6B7280; stroke-width: 1.0;" width="10" x="628" y="338.6406"/><rect fill="#FEF9C3" height="29.1328" style="stroke: #6B7280; stroke-width: 1.0;" width="10" x="628" y="432.0391"/><line style="stroke: #6B7280; stroke-width: 1.0; stroke-dasharray: 5.0,5.0;" x1="34" x2="34" y1="135.8438" y2="537.4375"/><line style="stroke: #6B7280; stroke-width: 1.0; stroke-dasharray: 5.0,5.0;" x1="306.5" x2="306.5" y1="135.8438" y2="537.4375"/><line style="stroke: #6B7280; stroke-width: 1.0; stroke-dasharray: 5.0,5.0;" x1="454.5" x2="454.5" y1="135.8438" y2="537.4375"/><line style="stroke: #6B7280; stroke-width: 1.0; stroke-dasharray: 5.0,5.0;" x1="632.5" x2="632.5" y1="135.8438" y2="537.4375"/><a href="/applications/" target="_top" title="/applications/" xlink:actuate="onRequest" xlink:href="/applications/" xlink:show="new" xlink:title="/applications/" xlink:type="simple"><rect fill="#F9FAFB" height="30.2969" style="stroke: #374151; stroke-width: 1.5;" width="53" x="8" y="104.5469"/><text fill="#000000" font-family="Segoe UI" font-size="14" lengthAdjust="spacingAndGlyphs" textLength="39" x="15" y="124.542">Client</text><rect fill="#F9FAFB" height="30.2969" style="stroke: #374151; stroke-width: 1.5;" width="53" x="8" y="536.4375"/><text fill="#000000" font-family="Segoe UI" font-size="14" lengthAdjust="spacingAndGlyphs" textLength="39" x="15" y="556.4326">Client</text></a><a href="/actors/#api-gateway" target="_top" title="/actors/#api-gateway" xlink:actuate="onRequest" xlink:href="/actors/#api-gateway" xlink:show="new" xlink:title="/actors/#api-gateway" xlink:type="simple"><rect fill="#E0F2FE" height="30.2969" style="stroke: #374151; stroke-width: 1.5;" width="98" x="257.5" y="104.5469"/><text fill="#000000" font-family="Segoe UI" font-size="14" lengthAdjust="spacingAndGlyphs" textLength="84" x="264.5" y="124.542">API Gateway</text><rect fill="#E0F2FE" height="30.2969" style="stroke: #374151; stroke-width: 1.5;" width="98" x="257.5" y="536.4375"/><text fill="#000000" font-family="Segoe UI" font-size="14" lengthAdjust="spacingAndGlyphs" textLength="84" x="264.5" y="556.4326">API Gateway</text></a><a href="/microservices/svc-partner-integrations/" target="_top" title="/microservices/svc-partner-integrations/" xlink:actuate="onRequest" xlink:href="/microservices/svc-partner-integrations/" xlink:show="new" xlink:title="/microservices/svc-partner-integrations/" xlink:type="simple"><rect fill="#F3E8FF" height="30.2969" style="stroke: #374151; stroke-width: 1.5;" width="179" x="365.5" y="104.5469"/><text fill="#000000" font-family="Segoe UI" font-size="14" lengthAdjust="spacingAndGlyphs" textLength="165" x="372.5" y="124.542">svc-partner-integrations</text><rect fill="#F3E8FF" height="30.2969" style="stroke: #374151; stroke-width: 1.5;" width="179" x="365.5" y="536.4375"/><text fill="#000000" font-family="Segoe UI" font-size="14" lengthAdjust="spacingAndGlyphs" textLength="165" x="372.5" y="556.4326">svc-partner-integrations</text></a><a href="/microservices/svc-partner-integrations/#data-store" target="_top" title="/microservices/svc-partner-integrations/#data-store" xlink:actuate="onRequest" xlink:href="/microservices/svc-partner-integrations/#data-store" xlink:show="new" xlink:title="/microservices/svc-partner-integrations/#data-store" xlink:type="simple"><text fill="#000000" font-family="Segoe UI" font-size="14" lengthAdjust="spacingAndGlyphs" textLength="81" x="589.5" y="132.542">PostgreSQL</text><path d="M615,83.5469 C615,73.5469 633,73.5469 633,73.5469 C633,73.5469 651,73.5469 651,83.5469 L651,109.5469 C651,119.5469 633,119.5469 633,119.5469 C633,119.5469 615,119.5469 615,109.5469 L615,83.5469 " fill="#FEF9C3" style="stroke: #000000; stroke-width: 1.5;"/><path d="M615,83.5469 C615,93.5469 633,93.5469 633,93.5469 C633,93.5469 651,93.5469 651,83.5469 " fill="none" style="stroke: #000000; stroke-width: 1.5;"/><text fill="#000000" font-family="Segoe UI" font-size="14" lengthAdjust="spacingAndGlyphs" textLength="81" x="589.5" y="549.4326">PostgreSQL</text><path d="M615,562.7344 C615,552.7344 633,552.7344 633,552.7344 C633,552.7344 651,552.7344 651,562.7344 L651,588.7344 C651,598.7344 633,598.7344 633,598.7344 C633,598.7344 615,598.7344 615,588.7344 L615,562.7344 " fill="#FEF9C3" style="stroke: #000000; stroke-width: 1.5;"/><path d="M615,562.7344 C615,572.7344 633,572.7344 633,572.7344 C633,572.7344 651,572.7344 651,562.7344 " fill="none" style="stroke: #000000; stroke-width: 1.5;"/></a><rect fill="#7C3AED" height="317.3281" style="stroke: #6B7280; stroke-width: 1.0;" width="10" x="301.5" y="202.1094"/><rect fill="#7C3AED" height="259.0625" style="stroke: #6B7280; stroke-width: 1.0;" width="10" x="450" y="231.2422"/><rect fill="#FEF9C3" height="29.1328" style="stroke: #6B7280; stroke-width: 1.0;" width="10" x="628" y="338.6406"/><rect fill="#FEF9C3" height="29.1328" style="stroke: #6B7280; stroke-width: 1.0;" width="10" x="628" y="432.0391"/><path d="M384,150.8438 L384,175.8438 L525,175.8438 L525,160.8438 L515,150.8438 L384,150.8438 " fill="#FBFB77" style="stroke: #A80036; stroke-width: 1.0;"/><path d="M515,150.8438 L515,160.8438 L525,160.8438 L515,150.8438 " fill="#FBFB77" style="stroke: #A80036; stroke-width: 1.0;"/><a href="/services/api/svc-partner-integrations.html#/Partner%20Bookings/updatePartnerBooking" target="_top" title="/services/api/svc-partner-integrations.html#/Partner%20Bookings/updatePartnerBooking" xlink:actuate="onRequest" xlink:href="/services/api/svc-partner-integrations.html#/Partner%20Bookings/updatePartnerBooking" xlink:show="new" xlink:title="/services/api/svc-partner-integrations.html#/Partner%20Bookings/updatePartnerBooking" xlink:type="simple"><text fill="#0000FF" font-family="Segoe UI" font-size="13" lengthAdjust="spacingAndGlyphs" text-decoration="underline" textLength="120" x="390" y="167.9106">View in Swagger UI</text></a><polygon fill="#7C3AED" points="289.5,198.1094,299.5,202.1094,289.5,206.1094,293.5,202.1094" style="stroke: #7C3AED; stroke-width: 1.0;"/><line style="stroke: #7C3AED; stroke-width: 1.0;" x1="34.5" x2="295.5" y1="202.1094" y2="202.1094"/><text fill="#000000" font-family="Segoe UI" font-size="13" lengthAdjust="spacingAndGlyphs" textLength="248" x="41.5" y="197.0435">PATCH /partner-bookings/{booking_id}</text><polygon fill="#7C3AED" points="438,227.2422,448,231.2422,438,235.2422,442,231.2422" style="stroke: #7C3AED; stroke-width: 1.0;"/><line style="stroke: #7C3AED; stroke-width: 1.0;" x1="311.5" x2="444" y1="231.2422" y2="231.2422"/><text fill="#000000" font-family="Segoe UI" font-size="13" lengthAdjust="spacingAndGlyphs" textLength="87" x="318.5" y="226.1763">route request</text><path d="M465,244.2422 L465,269.2422 L626,269.2422 L626,254.2422 L616,244.2422 L465,244.2422 " fill="#FBFB77" style="stroke: #A80036; stroke-width: 1.0;"/><path d="M616,244.2422 L616,254.2422 L626,254.2422 L616,244.2422 " fill="#FBFB77" style="stroke: #A80036; stroke-width: 1.0;"/><text fill="#000000" font-family="Segoe UI" font-size="13" lengthAdjust="spacingAndGlyphs" textLength="140" x="471" y="261.3091">Validate request body</text><rect fill="#EEEEEE" height="3" style="stroke: #EEEEEE; stroke-width: 1.0;" width="678.5" x="3" y="294.9414"/><line style="stroke: #000000; stroke-width: 1.0;" x1="3" x2="681.5" y1="294.9414" y2="294.9414"/><line style="stroke: #000000; stroke-width: 1.0;" x1="3" x2="681.5" y1="297.9414" y2="297.9414"/><rect fill="#EEEEEE" height="23.1328" style="stroke: #000000; stroke-width: 2.0;" width="90" x="297.25" y="284.375"/><text fill="#000000" font-family="Segoe UI" font-size="13" font-weight="bold" lengthAdjust="spacingAndGlyphs" textLength="71" x="303.25" y="300.4419">Database</text><polygon fill="#7C3AED" points="616,334.6406,626,338.6406,616,342.6406,620,338.6406" style="stroke: #7C3AED; stroke-width: 1.0;"/><line style="stroke: #7C3AED; stroke-width: 1.0;" x1="460" x2="622" y1="338.6406" y2="338.6406"/><text fill="#000000" font-family="Segoe UI" font-size="13" lengthAdjust="spacingAndGlyphs" textLength="149" x="467" y="333.5747">SELECT ... FOR UPDATE</text><polygon fill="#7C3AED" points="471,363.7734,461,367.7734,471,371.7734,467,367.7734" style="stroke: #7C3AED; stroke-width: 1.0;"/><line style="stroke: #7C3AED; stroke-width: 1.0; stroke-dasharray: 2.0,2.0;" x1="465" x2="632" y1="367.7734" y2="367.7734"/><text fill="#000000" font-family="Segoe UI" font-size="13" lengthAdjust="spacingAndGlyphs" textLength="74" x="477" y="362.7075">Current row</text><path d="M465,380.7734 L465,405.7734 L652,405.7734 L652,390.7734 L642,380.7734 L465,380.7734 " fill="#FBFB77" style="stroke: #A80036; stroke-width: 1.0;"/><path d="M642,380.7734 L642,390.7734 L652,390.7734 L642,380.7734 " fill="#FBFB77" style="stroke: #A80036; stroke-width: 1.0;"/><text fill="#000000" font-family="Segoe UI" font-size="13" lengthAdjust="spacingAndGlyphs" textLength="166" x="471" y="397.8403">Merge changed fields only</text><polygon fill="#7C3AED" points="616,428.0391,626,432.0391,616,436.0391,620,432.0391" style="stroke: #7C3AED; stroke-width: 1.0;"/><line style="stroke: #7C3AED; stroke-width: 1.0;" x1="460" x2="622" y1="432.0391" y2="432.0391"/><text fill="#000000" font-family="Segoe UI" font-size="13" lengthAdjust="spacingAndGlyphs" textLength="112" x="467" y="426.9731">UPDATE ... SET ...</text><polygon fill="#7C3AED" points="471,457.1719,461,461.1719,471,465.1719,467,461.1719" style="stroke: #7C3AED; stroke-width: 1.0;"/><line style="stroke: #7C3AED; stroke-width: 1.0; stroke-dasharray: 2.0,2.0;" x1="465" x2="632" y1="461.1719" y2="461.1719"/><text fill="#000000" font-family="Segoe UI" font-size="13" lengthAdjust="spacingAndGlyphs" textLength="81" x="477" y="456.106">Updated row</text><polygon fill="#7C3AED" points="322.5,486.3047,312.5,490.3047,322.5,494.3047,318.5,490.3047" style="stroke: #7C3AED; stroke-width: 1.0;"/><line style="stroke: #7C3AED; stroke-width: 1.0; stroke-dasharray: 2.0,2.0;" x1="316.5" x2="454" y1="490.3047" y2="490.3047"/><text fill="#000000" font-family="Segoe UI" font-size="13" lengthAdjust="spacingAndGlyphs" textLength="46" x="328.5" y="485.2388">200 OK</text><polygon fill="#7C3AED" points="45.5,515.4375,35.5,519.4375,45.5,523.4375,41.5,519.4375" style="stroke: #7C3AED; stroke-width: 1.0;"/><line style="stroke: #7C3AED; stroke-width: 1.0; stroke-dasharray: 2.0,2.0;" x1="39.5" x2="305.5" y1="519.4375" y2="519.4375"/><text fill="#000000" font-family="Segoe UI" font-size="13" lengthAdjust="spacingAndGlyphs" textLength="46" x="51.5" y="514.3716">200 OK</text><a href="/microservices/svc-partner-integrations/#integration-context" target="_top" title="/microservices/svc-partner-integrations/#integration-context" xlink:actuate="onRequest" xlink:href="/microservices/svc-partner-integrations/#integration-context" xlink:show="new" xlink:title="/microservices/svc-partner-integrations/#integration-context" xlink:type="simple"><text fill="#0000FF" font-family="Segoe UI" font-size="10" lengthAdjust="spacingAndGlyphs" text-decoration="underline" textLength="227" x="454.5" y="12.2822">⬆ svc-partner-integrations Integration Context</text></a><!--MD5=[f16dd9fd9f0021e4150bfec025d2690b]
@startuml svc-partner-integrations- -patch-partner-bookings-booking_id

skinparam backgroundColor #FEFEFE
skinparam shadowing false
skinparam defaultFontName "Segoe UI"
skinparam sequence {
    ArrowColor #7c3aed
    ParticipantBorderColor #374151
    ParticipantBackgroundColor #F9FAFB
    LifeLineBorderColor #6B7280
    BoxBorderColor #94A3B8
    BoxBackgroundColor #F8FAFC
    NoteBorderColor #64748B
    NoteBackgroundColor #F8FAFC
}

header [[/microservices/svc-partner-integrations/#integration-context ⬆ svc-partner-integrations Integration Context]]

title PATCH /partner-bookings/{booking_id}\nUpdate a partner booking

participant "Client" as Client [[/applications/]]
participant "API Gateway" as GW [[/actors/#api-gateway]] #E0F2FE
participant "svc-partner-integrations" as Svc [[/microservices/svc-partner-integrations/]] #F3E8FF
database "PostgreSQL" as DB [[/microservices/svc-partner-integrations/#data-store]] #FEF9C3

note over Svc
  [[/services/api/svc-partner-integrations.html#/Partner%20Bookings/updatePartnerBooking View in Swagger UI]]
end note

Client -> GW : PATCH /partner-bookings/{booking_id}
activate GW #7c3aed
GW -> Svc : route request
activate Svc #7c3aed

note right of Svc : Validate request body

== Database ==

Svc -> DB : SELECT ... FOR UPDATE
activate DB #FEF9C3
DB - -> Svc : Current row
deactivate DB
note right of Svc : Merge changed fields only

Svc -> DB : UPDATE ... SET ...
activate DB #FEF9C3
DB - -> Svc : Updated row
deactivate DB

Svc - -> GW : 200 OK
deactivate Svc
GW - -> Client : 200 OK
deactivate GW

@enduml

PlantUML version 1.2020.02(Sun Mar 01 10:22:07 UTC 2020)
(GPL source distribution)
Java Runtime: OpenJDK Runtime Environment
JVM: OpenJDK 64-Bit Server VM
Java Version: 17.0.18+8
Operating System: Linux
Default Encoding: UTF-8
Language: en
Country: null
--></g></svg>