<svg xmlns="http://www.w3.org/2000/svg" xmlns:xlink="http://www.w3.org/1999/xlink" contentStyleType="text/css" data-diagram-type="SEQUENCE" height="509px" preserveAspectRatio="none" style="width:480px;height:509px;background:#FEFEFE;" version="1.1" viewBox="0 0 480 509" width="480px" zoomAndPan="magnify"><title>POST /gear-items</title><defs/><g><rect fill="#FEFEFE" height="509" style="stroke:none;stroke-width:1;" width="480" x="0" y="0"/><text fill="#000000" font-family="Segoe UI" font-size="14" font-weight="bold" lengthAdjust="spacing" textLength="131.1953" x="170.6887" y="28.5352">POST /gear-items</text><text fill="#000000" font-family="Segoe UI" font-size="14" font-weight="bold" lengthAdjust="spacing" textLength="172.7783" x="149.8972" y="45.0234">Add new inventory item</text><g><title>API Gateway</title><rect fill="#059669" height="225.1738" style="stroke:#A23B72;stroke-width:1;" width="10" x="164.1851" y="188.0859"/></g><g><title>svc-gear-inventory</title><rect fill="#059669" height="166.5527" style="stroke:#A23B72;stroke-width:1;" width="10" x="295.0205" y="217.3965"/></g><g><title>PostgreSQL</title><rect fill="#FCE4EC" height="29.3105" style="stroke:#A23B72;stroke-width:1;" width="10" x="420.0923" y="325.3281"/></g><g><title>Client</title><rect fill="#000000" fill-opacity="0.00000" height="309.7949" width="8" x="27.7524" y="121.4648"/><line style="stroke:#A23B72;stroke-width:0.5;stroke-dasharray:5,5;" x1="31" x2="31" y1="121.4648" y2="431.2598"/></g><g><title>API Gateway</title><rect fill="#000000" fill-opacity="0.00000" height="309.7949" width="8" x="165.1851" y="121.4648"/><line style="stroke:#A23B72;stroke-width:0.5;stroke-dasharray:5,5;" x1="168.896" x2="168.896" y1="121.4648" y2="431.2598"/></g><g><title>svc-gear-inventory</title><rect fill="#000000" fill-opacity="0.00000" height="309.7949" width="8" x="296.0205" y="121.4648"/><line style="stroke:#A23B72;stroke-width:0.5;stroke-dasharray:5,5;" x1="299.4741" x2="299.4741" y1="121.4648" y2="431.2598"/></g><g><title>PostgreSQL</title><rect fill="#000000" fill-opacity="0.00000" height="309.7949" width="8" x="421.0923" y="121.4648"/><line style="stroke:#A23B72;stroke-width:0.5;stroke-dasharray:5,5;" x1="424.6675" x2="424.6675" y1="121.4648" y2="431.2598"/></g><g class="participant participant-head" data-participant="Client"><rect fill="#E8F4F8" height="30.4883" rx="2.5" ry="2.5" style="stroke:#2E86AB;stroke-width:0.5;" width="53.5049" x="5" y="89.9766"/><text fill="#000000" font-family="Segoe UI" font-size="14" lengthAdjust="spacing" textLength="39.5049" x="12" y="110.5117">Client</text></g><g class="participant participant-tail" data-participant="Client"><rect fill="#E8F4F8" height="30.4883" rx="2.5" ry="2.5" style="stroke:#2E86AB;stroke-width:0.5;" width="53.5049" x="5" y="430.2598"/><text fill="#000000" font-family="Segoe UI" font-size="14" lengthAdjust="spacing" textLength="39.5049" x="12" y="450.7949">Client</text></g><g class="participant participant-head" data-participant="GW"><rect fill="#DBEAFE" height="30.4883" rx="2.5" ry="2.5" style="stroke:#2E86AB;stroke-width:0.5;" width="96.5781" x="120.896" y="89.9766"/><text fill="#000000" font-family="Segoe UI" font-size="14" lengthAdjust="spacing" textLength="82.5781" x="127.896" y="110.5117">API Gateway</text></g><g class="participant participant-tail" data-participant="GW"><rect fill="#DBEAFE" height="30.4883" rx="2.5" ry="2.5" style="stroke:#2E86AB;stroke-width:0.5;" width="96.5781" x="120.896" y="430.2598"/><text fill="#000000" font-family="Segoe UI" font-size="14" lengthAdjust="spacing" textLength="82.5781" x="127.896" y="450.7949">API Gateway</text></g><g class="participant participant-head" data-participant="Svc"><a href="/microservices/svc-gear-inventory/" target="_top" title="/microservices/svc-gear-inventory/" xlink:actuate="onRequest" xlink:href="/microservices/svc-gear-inventory/" xlink:show="new" xlink:title="/microservices/svc-gear-inventory/" xlink:type="simple"><rect fill="#E8F4F8" height="30.4883" rx="2.5" ry="2.5" style="stroke:#2E86AB;stroke-width:0.5;" width="145.0928" x="227.4741" y="89.9766"/><text fill="#000000" font-family="Segoe UI" font-size="14" lengthAdjust="spacing" textLength="131.0928" x="234.4741" y="110.5117">svc-gear-inventory</text></a></g><g class="participant participant-tail" data-participant="Svc"><a href="/microservices/svc-gear-inventory/" target="_top" title="/microservices/svc-gear-inventory/" xlink:actuate="onRequest" xlink:href="/microservices/svc-gear-inventory/" xlink:show="new" xlink:title="/microservices/svc-gear-inventory/" xlink:type="simple"><rect fill="#E8F4F8" height="30.4883" rx="2.5" ry="2.5" style="stroke:#2E86AB;stroke-width:0.5;" width="145.0928" x="227.4741" y="430.2598"/><text fill="#000000" font-family="Segoe UI" font-size="14" lengthAdjust="spacing" textLength="131.0928" x="234.4741" y="450.7949">svc-gear-inventory</text></a></g><g class="participant participant-head" data-participant="DB"><text fill="#000000" font-family="Segoe UI" font-size="14" lengthAdjust="spacing" textLength="76.8496" x="383.6675" y="118.5117">PostgreSQL</text><path d="M407.0923,68.9766 C407.0923,58.9766 425.0923,58.9766 425.0923,58.9766 C425.0923,58.9766 443.0923,58.9766 443.0923,68.9766 L443.0923,94.9766 C443.0923,104.9766 425.0923,104.9766 425.0923,104.9766 C425.0923,104.9766 407.0923,104.9766 407.0923,94.9766 L407.0923,68.9766" fill="#FCE4EC" style="stroke:#181818;stroke-width:0.5;"/><path d="M407.0923,68.9766 C407.0923,78.9766 425.0923,78.9766 425.0923,78.9766 C425.0923,78.9766 443.0923,78.9766 443.0923,68.9766" fill="none" style="stroke:#181818;stroke-width:0.5;"/></g><g class="participant participant-tail" data-participant="DB"><text fill="#000000" font-family="Segoe UI" font-size="14" lengthAdjust="spacing" textLength="76.8496" x="383.6675" y="443.7949">PostgreSQL</text><path d="M407.0923,456.748 C407.0923,446.748 425.0923,446.748 425.0923,446.748 C425.0923,446.748 443.0923,446.748 443.0923,456.748 L443.0923,482.748 C443.0923,492.748 425.0923,492.748 425.0923,492.748 C425.0923,492.748 407.0923,492.748 407.0923,482.748 L407.0923,456.748" fill="#FCE4EC" style="stroke:#181818;stroke-width:0.5;"/><path d="M407.0923,456.748 C407.0923,466.748 425.0923,466.748 425.0923,466.748 C425.0923,466.748 443.0923,466.748 443.0923,456.748" fill="none" style="stroke:#181818;stroke-width:0.5;"/></g><g><title>API Gateway</title><rect fill="#059669" height="225.1738" style="stroke:#A23B72;stroke-width:1;" width="10" x="164.1851" y="188.0859"/></g><g><title>svc-gear-inventory</title><rect fill="#059669" height="166.5527" style="stroke:#A23B72;stroke-width:1;" width="10" x="295.0205" y="217.3965"/></g><g><title>PostgreSQL</title><rect fill="#FCE4EC" height="29.3105" style="stroke:#A23B72;stroke-width:1;" width="10" x="420.0923" y="325.3281"/></g><path d="M229,136.4648 L229,161.4648 L369,161.4648 L369,146.4648 L359,136.4648 L229,136.4648" fill="#FEFFDD" style="stroke:#181818;stroke-width:0.5;"/><path d="M359,136.4648 L359,146.4648 L369,146.4648 L359,136.4648" fill="#FEFFDD" style="stroke:#181818;stroke-width:0.5;"/><a href="/services/api/svc-gear-inventory.html#/Gear%20Items/addGearItem" target="_top" title="/services/api/svc-gear-inventory.html#/Gear%20Items/addGearItem" xlink:actuate="onRequest" xlink:href="/services/api/svc-gear-inventory.html#/Gear%20Items/addGearItem" xlink:show="new" xlink:title="/services/api/svc-gear-inventory.html#/Gear%20Items/addGearItem" xlink:type="simple"><text fill="#0000FF" font-family="Segoe UI" font-size="13" lengthAdjust="spacing" text-decoration="underline" textLength="119.4058" x="235" y="154.0332">View in Swagger UI</text></a><g class="message" data-participant-1="Client" data-participant-2="GW"><polygon fill="#059669" points="152.1851,184.0859,162.1851,188.0859,152.1851,192.0859,156.1851,188.0859" style="stroke:#059669;stroke-width:1;"/><line style="stroke:#059669;stroke-width:1;" x1="31.7524" x2="158.1851" y1="188.0859" y2="188.0859"/><text fill="#000000" font-family="Segoe UI" font-size="13" lengthAdjust="spacing" textLength="113.4326" x="38.7524" y="183.3438">POST /gear-items</text></g><g class="message" data-participant-1="GW" data-participant-2="Svc"><polygon fill="#059669" points="283.0205,213.3965,293.0205,217.3965,283.0205,221.3965,287.0205,217.3965" style="stroke:#059669;stroke-width:1;"/><line style="stroke:#059669;stroke-width:1;" x1="174.1851" x2="289.0205" y1="217.3965" y2="217.3965"/><text fill="#000000" font-family="Segoe UI" font-size="13" lengthAdjust="spacing" textLength="85.1348" x="181.1851" y="212.6543">route request</text></g><path d="M310,230.3965 L310,255.3965 L468,255.3965 L468,240.3965 L458,230.3965 L310,230.3965" fill="#FEFFDD" style="stroke:#181818;stroke-width:0.5;"/><path d="M458,230.3965 L458,240.3965 L468,240.3965 L458,230.3965" fill="#FEFFDD" style="stroke:#181818;stroke-width:0.5;"/><text fill="#000000" font-family="Segoe UI" font-size="13" lengthAdjust="spacing" textLength="137.5728" x="316" y="247.9648">Validate request body</text><rect fill="#EEEEEE" height="3" style="stroke:#EEEEEE;stroke-width:1;" width="473.5728" x="0" y="281.3623"/><line style="stroke:#000000;stroke-width:1;" x1="0" x2="473.5728" y1="281.3623" y2="281.3623"/><line style="stroke:#000000;stroke-width:1;" x1="0" x2="473.5728" y1="284.3623" y2="284.3623"/><rect fill="#EEEEEE" height="23.3105" style="stroke:#000000;stroke-width:2;" width="80.3711" x="196.6008" y="270.707"/><text fill="#000000" font-family="Segoe UI" font-size="13" font-weight="bold" lengthAdjust="spacing" textLength="62.0864" x="202.6008" y="287.2754">Database</text><g class="message" data-participant-1="Svc" data-participant-2="DB"><polygon fill="#059669" points="408.0923,321.3281,418.0923,325.3281,408.0923,329.3281,412.0923,325.3281" style="stroke:#059669;stroke-width:1;"/><line style="stroke:#059669;stroke-width:1;" x1="305.0205" x2="414.0923" y1="325.3281" y2="325.3281"/><text fill="#000000" font-family="Segoe UI" font-size="13" lengthAdjust="spacing" textLength="96.0718" x="312.0205" y="320.5859">INSERT INTO ...</text></g><g class="message" data-participant-1="DB" data-participant-2="Svc"><polygon fill="#059669" points="316.0205,350.6387,306.0205,354.6387,316.0205,358.6387,312.0205,354.6387" style="stroke:#059669;stroke-width:1;"/><line style="stroke:#059669;stroke-width:1;stroke-dasharray:2,2;" x1="310.0205" x2="424.0923" y1="354.6387" y2="354.6387"/><text fill="#000000" font-family="Segoe UI" font-size="13" lengthAdjust="spacing" textLength="76.4575" x="322.0205" y="349.8965">Created row</text></g><g class="message" data-participant-1="Svc" data-participant-2="GW"><polygon fill="#059669" points="185.1851,379.9492,175.1851,383.9492,185.1851,387.9492,181.1851,383.9492" style="stroke:#059669;stroke-width:1;"/><line style="stroke:#059669;stroke-width:1;stroke-dasharray:2,2;" x1="179.1851" x2="299.0205" y1="383.9492" y2="383.9492"/><text fill="#000000" font-family="Segoe UI" font-size="13" lengthAdjust="spacing" textLength="77.7969" x="191.1851" y="379.207">201 Created</text></g><g class="message" data-participant-1="GW" data-participant-2="Client"><polygon fill="#059669" points="42.7524,409.2598,32.7524,413.2598,42.7524,417.2598,38.7524,413.2598" style="stroke:#059669;stroke-width:1;"/><line style="stroke:#059669;stroke-width:1;stroke-dasharray:2,2;" x1="36.7524" x2="168.1851" y1="413.2598" y2="413.2598"/><text fill="#000000" font-family="Segoe UI" font-size="13" lengthAdjust="spacing" textLength="77.7969" x="48.7524" y="408.5176">201 Created</text></g><!--SRC=[TP9VRzem5CNV_IckG7k4yAS3YiIa11A4X2XRQFlGyM1Y4wm6cpc654txxhiE0SBeaeVOESVt-Fxiz5t87TLq2oiQlSTQxIKRgaHfg0Q-VKbwSQGRobGcP0nhcgIyf32-fll414gQ6Trog8GyLXoU9vNoSlvhpsN4uJS1V5ojLLP4DRu-TZgF-UyvrKP4OaUbyPHcN1UMbj_hkDwTvTzD-xtW8UZbjgbOywcG_AQCssfxtLQkU-hZHWgQlQ3Hl4XtE880zLoUANDRDUfsL-sIzWdAjjybVmWnmYGSva_X0foOKrqJXc_Jdz9b32JFGCW3bqRf8rY1aDsrLwWC4u5Y1MWAf-6jxCudCAQ6P_IOUyQlK1rvlek7UEDB3r7jb7qEo-tX8OAtDsSh8grIhWyYugbpxtMMomjcHWrTqHGFVAvI4siUVf_cjKOUDZtq7_mX8HA9W3fmRHEG4MPSojET-2IYlZ7RfEgCyUUNLcDY2JcKCJkt4tWHEIa8Cnh7MFTvibmIBf4WHX5oOWErRvP0_museP4H1-IK0ogk7WxHRn7q0KyEHMslQsgkRYkUxQUcj8Wt1jIwMFT24y7eTIci53iICXZ0wCnfC234cZ4B4VLXCWlz7mlyB9wWNgzVmqe0SLYxx6seESeCzvWHnalsekwvwLQZUVQMVVO4RAjeAoZzrpf-9Ny1]--></g></svg>