<?xml version="1.0" encoding="UTF-8" standalone="no"?><svg xmlns="http://www.w3.org/2000/svg" xmlns:xlink="http://www.w3.org/1999/xlink" contentScriptType="application/ecmascript" contentStyleType="text/css" height="482px" preserveAspectRatio="none" style="width:535px;height:482px;background:#FEFEFE;" version="1.1" viewBox="0 0 535 482" width="535px" zoomAndPan="magnify"><defs/><g><text fill="#000000" font-family="Segoe UI" font-size="18" lengthAdjust="spacingAndGlyphs" textLength="123" x="201.75" y="41.3486">GET /partners</text><text fill="#000000" font-family="Segoe UI" font-size="18" lengthAdjust="spacingAndGlyphs" textLength="207" x="159.75" y="62.3018">List registered partners</text><rect fill="#2563EB" height="188.7969" style="stroke: #6B7280; stroke-width: 1.0;" width="10" x="140.5" y="202.1094"/><rect fill="#2563EB" height="130.5313" style="stroke: #6B7280; stroke-width: 1.0;" width="10" x="289" y="231.2422"/><rect fill="#FEF9C3" height="29.1328" style="stroke: #6B7280; stroke-width: 1.0;" width="10" x="470" y="303.5078"/><line style="stroke: #6B7280; stroke-width: 1.0; stroke-dasharray: 5.0,5.0;" x1="34" x2="34" y1="135.8438" y2="408.9063"/><line style="stroke: #6B7280; stroke-width: 1.0; stroke-dasharray: 5.0,5.0;" x1="145.5" x2="145.5" y1="135.8438" y2="408.9063"/><line style="stroke: #6B7280; stroke-width: 1.0; stroke-dasharray: 5.0,5.0;" x1="293.5" x2="293.5" y1="135.8438" y2="408.9063"/><line style="stroke: #6B7280; stroke-width: 1.0; stroke-dasharray: 5.0,5.0;" x1="474.5" x2="474.5" y1="135.8438" y2="408.9063"/><a href="/applications/" target="_top" title="/applications/" xlink:actuate="onRequest" xlink:href="/applications/" xlink:show="new" xlink:title="/applications/" xlink:type="simple"><rect fill="#F9FAFB" height="30.2969" style="stroke: #374151; stroke-width: 1.5;" width="53" x="8" y="104.5469"/><text fill="#000000" font-family="Segoe UI" font-size="14" lengthAdjust="spacingAndGlyphs" textLength="39" x="15" y="124.542">Client</text><rect fill="#F9FAFB" height="30.2969" style="stroke: #374151; stroke-width: 1.5;" width="53" x="8" y="407.9063"/><text fill="#000000" font-family="Segoe UI" font-size="14" lengthAdjust="spacingAndGlyphs" textLength="39" x="15" y="427.9014">Client</text></a><a href="/actors/#api-gateway" target="_top" title="/actors/#api-gateway" xlink:actuate="onRequest" xlink:href="/actors/#api-gateway" xlink:show="new" xlink:title="/actors/#api-gateway" xlink:type="simple"><rect fill="#E0F2FE" height="30.2969" style="stroke: #374151; stroke-width: 1.5;" width="98" x="96.5" y="104.5469"/><text fill="#000000" font-family="Segoe UI" font-size="14" lengthAdjust="spacingAndGlyphs" textLength="84" x="103.5" y="124.542">API Gateway</text><rect fill="#E0F2FE" height="30.2969" style="stroke: #374151; stroke-width: 1.5;" width="98" x="96.5" y="407.9063"/><text fill="#000000" font-family="Segoe UI" font-size="14" lengthAdjust="spacingAndGlyphs" textLength="84" x="103.5" y="427.9014">API Gateway</text></a><a href="/microservices/svc-partner-integrations/" target="_top" title="/microservices/svc-partner-integrations/" xlink:actuate="onRequest" xlink:href="/microservices/svc-partner-integrations/" xlink:show="new" xlink:title="/microservices/svc-partner-integrations/" xlink:type="simple"><rect fill="#F3E8FF" height="30.2969" style="stroke: #374151; stroke-width: 1.5;" width="179" x="204.5" y="104.5469"/><text fill="#000000" font-family="Segoe UI" font-size="14" lengthAdjust="spacingAndGlyphs" textLength="165" x="211.5" y="124.542">svc-partner-integrations</text><rect fill="#F3E8FF" height="30.2969" style="stroke: #374151; stroke-width: 1.5;" width="179" x="204.5" y="407.9063"/><text fill="#000000" font-family="Segoe UI" font-size="14" lengthAdjust="spacingAndGlyphs" textLength="165" x="211.5" y="427.9014">svc-partner-integrations</text></a><a href="/microservices/svc-partner-integrations/#data-store" target="_top" title="/microservices/svc-partner-integrations/#data-store" xlink:actuate="onRequest" xlink:href="/microservices/svc-partner-integrations/#data-store" xlink:show="new" xlink:title="/microservices/svc-partner-integrations/#data-store" xlink:type="simple"><text fill="#000000" font-family="Segoe UI" font-size="14" lengthAdjust="spacingAndGlyphs" textLength="81" x="431.5" y="132.542">PostgreSQL</text><path d="M457,83.5469 C457,73.5469 475,73.5469 475,73.5469 C475,73.5469 493,73.5469 493,83.5469 L493,109.5469 C493,119.5469 475,119.5469 475,119.5469 C475,119.5469 457,119.5469 457,109.5469 L457,83.5469 " fill="#FEF9C3" style="stroke: #000000; stroke-width: 1.5;"/><path d="M457,83.5469 C457,93.5469 475,93.5469 475,93.5469 C475,93.5469 493,93.5469 493,83.5469 " fill="none" style="stroke: #000000; stroke-width: 1.5;"/><text fill="#000000" font-family="Segoe UI" font-size="14" lengthAdjust="spacingAndGlyphs" textLength="81" x="431.5" y="420.9014">PostgreSQL</text><path d="M457,434.2031 C457,424.2031 475,424.2031 475,424.2031 C475,424.2031 493,424.2031 493,434.2031 L493,460.2031 C493,470.2031 475,470.2031 475,470.2031 C475,470.2031 457,470.2031 457,460.2031 L457,434.2031 " fill="#FEF9C3" style="stroke: #000000; stroke-width: 1.5;"/><path d="M457,434.2031 C457,444.2031 475,444.2031 475,444.2031 C475,444.2031 493,444.2031 493,434.2031 " fill="none" style="stroke: #000000; stroke-width: 1.5;"/></a><rect fill="#2563EB" height="188.7969" style="stroke: #6B7280; stroke-width: 1.0;" width="10" x="140.5" y="202.1094"/><rect fill="#2563EB" height="130.5313" style="stroke: #6B7280; stroke-width: 1.0;" width="10" x="289" y="231.2422"/><rect fill="#FEF9C3" height="29.1328" style="stroke: #6B7280; stroke-width: 1.0;" width="10" x="470" y="303.5078"/><path d="M223,150.8438 L223,175.8438 L364,175.8438 L364,160.8438 L354,150.8438 L223,150.8438 " fill="#FBFB77" style="stroke: #A80036; stroke-width: 1.0;"/><path d="M354,150.8438 L354,160.8438 L364,160.8438 L354,150.8438 " fill="#FBFB77" style="stroke: #A80036; stroke-width: 1.0;"/><a href="/services/api/svc-partner-integrations.html#/Partners/listPartners" target="_top" title="/services/api/svc-partner-integrations.html#/Partners/listPartners" xlink:actuate="onRequest" xlink:href="/services/api/svc-partner-integrations.html#/Partners/listPartners" xlink:show="new" xlink:title="/services/api/svc-partner-integrations.html#/Partners/listPartners" xlink:type="simple"><text fill="#0000FF" font-family="Segoe UI" font-size="13" lengthAdjust="spacingAndGlyphs" text-decoration="underline" textLength="120" x="229" y="167.9106">View in Swagger UI</text></a><polygon fill="#2563EB" points="128.5,198.1094,138.5,202.1094,128.5,206.1094,132.5,202.1094" style="stroke: #2563EB; stroke-width: 1.0;"/><line style="stroke: #2563EB; stroke-width: 1.0;" x1="34.5" x2="134.5" y1="202.1094" y2="202.1094"/><text fill="#000000" font-family="Segoe UI" font-size="13" lengthAdjust="spacingAndGlyphs" textLength="87" x="41.5" y="197.0435">GET /partners</text><polygon fill="#2563EB" points="277,227.2422,287,231.2422,277,235.2422,281,231.2422" style="stroke: #2563EB; stroke-width: 1.0;"/><line style="stroke: #2563EB; stroke-width: 1.0;" x1="150.5" x2="283" y1="231.2422" y2="231.2422"/><text fill="#000000" font-family="Segoe UI" font-size="13" lengthAdjust="spacingAndGlyphs" textLength="87" x="157.5" y="226.1763">route request</text><rect fill="#EEEEEE" height="3" style="stroke: #EEEEEE; stroke-width: 1.0;" width="520.5" x="3" y="259.8086"/><line style="stroke: #000000; stroke-width: 1.0;" x1="3" x2="523.5" y1="259.8086" y2="259.8086"/><line style="stroke: #000000; stroke-width: 1.0;" x1="3" x2="523.5" y1="262.8086" y2="262.8086"/><rect fill="#EEEEEE" height="23.1328" style="stroke: #000000; stroke-width: 2.0;" width="90" x="218.25" y="249.2422"/><text fill="#000000" font-family="Segoe UI" font-size="13" font-weight="bold" lengthAdjust="spacingAndGlyphs" textLength="71" x="224.25" y="265.3091">Database</text><polygon fill="#2563EB" points="458,299.5078,468,303.5078,458,307.5078,462,303.5078" style="stroke: #2563EB; stroke-width: 1.0;"/><line style="stroke: #2563EB; stroke-width: 1.0;" x1="299" x2="464" y1="303.5078" y2="303.5078"/><text fill="#000000" font-family="Segoe UI" font-size="13" lengthAdjust="spacingAndGlyphs" textLength="152" x="306" y="298.4419">SELECT ... WHERE filters</text><polygon fill="#2563EB" points="310,328.6406,300,332.6406,310,336.6406,306,332.6406" style="stroke: #2563EB; stroke-width: 1.0;"/><line style="stroke: #2563EB; stroke-width: 1.0; stroke-dasharray: 2.0,2.0;" x1="304" x2="474" y1="332.6406" y2="332.6406"/><text fill="#000000" font-family="Segoe UI" font-size="13" lengthAdjust="spacingAndGlyphs" textLength="95" x="316" y="327.5747">Page of results</text><polygon fill="#2563EB" points="161.5,357.7734,151.5,361.7734,161.5,365.7734,157.5,361.7734" style="stroke: #2563EB; stroke-width: 1.0;"/><line style="stroke: #2563EB; stroke-width: 1.0; stroke-dasharray: 2.0,2.0;" x1="155.5" x2="293" y1="361.7734" y2="361.7734"/><text fill="#000000" font-family="Segoe UI" font-size="13" lengthAdjust="spacingAndGlyphs" textLength="46" x="167.5" y="356.7075">200 OK</text><polygon fill="#2563EB" points="45.5,386.9063,35.5,390.9063,45.5,394.9063,41.5,390.9063" style="stroke: #2563EB; stroke-width: 1.0;"/><line style="stroke: #2563EB; stroke-width: 1.0; stroke-dasharray: 2.0,2.0;" x1="39.5" x2="144.5" y1="390.9063" y2="390.9063"/><text fill="#000000" font-family="Segoe UI" font-size="13" lengthAdjust="spacingAndGlyphs" textLength="46" x="51.5" y="385.8403">200 OK</text><a href="/microservices/svc-partner-integrations/#integration-context" target="_top" title="/microservices/svc-partner-integrations/#integration-context" xlink:actuate="onRequest" xlink:href="/microservices/svc-partner-integrations/#integration-context" xlink:show="new" xlink:title="/microservices/svc-partner-integrations/#integration-context" xlink:type="simple"><text fill="#0000FF" font-family="Segoe UI" font-size="10" lengthAdjust="spacingAndGlyphs" text-decoration="underline" textLength="227" x="296.5" y="12.2822">⬆ svc-partner-integrations Integration Context</text></a><!--MD5=[173b9979be71421c383a08a409df263b]
@startuml svc-partner-integrations- -get-partners

skinparam backgroundColor #FEFEFE
skinparam shadowing false
skinparam defaultFontName "Segoe UI"
skinparam sequence {
    ArrowColor #2563eb
    ParticipantBorderColor #374151
    ParticipantBackgroundColor #F9FAFB
    LifeLineBorderColor #6B7280
    BoxBorderColor #94A3B8
    BoxBackgroundColor #F8FAFC
    NoteBorderColor #64748B
    NoteBackgroundColor #F8FAFC
}

header [[/microservices/svc-partner-integrations/#integration-context ⬆ svc-partner-integrations Integration Context]]

title GET /partners\nList registered partners

participant "Client" as Client [[/applications/]]
participant "API Gateway" as GW [[/actors/#api-gateway]] #E0F2FE
participant "svc-partner-integrations" as Svc [[/microservices/svc-partner-integrations/]] #F3E8FF
database "PostgreSQL" as DB [[/microservices/svc-partner-integrations/#data-store]] #FEF9C3

note over Svc
  [[/services/api/svc-partner-integrations.html#/Partners/listPartners View in Swagger UI]]
end note

Client -> GW : GET /partners
activate GW #2563eb
GW -> Svc : route request
activate Svc #2563eb

== Database ==

Svc -> DB : SELECT ... WHERE filters
activate DB #FEF9C3
DB - -> Svc : Page of results
deactivate DB

Svc - -> GW : 200 OK
deactivate Svc
GW - -> Client : 200 OK
deactivate GW

@enduml

PlantUML version 1.2020.02(Sun Mar 01 10:22:07 UTC 2020)
(GPL source distribution)
Java Runtime: OpenJDK Runtime Environment
JVM: OpenJDK 64-Bit Server VM
Java Version: 17.0.18+8
Operating System: Linux
Default Encoding: UTF-8
Language: en
Country: null
--></g></svg>