<svg xmlns="http://www.w3.org/2000/svg" xmlns:xlink="http://www.w3.org/1999/xlink" contentStyleType="text/css" data-diagram-type="SEQUENCE" height="474px" preserveAspectRatio="none" style="width:601px;height:474px;background:#FEFEFE;" version="1.1" viewBox="0 0 601 474" width="601px" zoomAndPan="magnify"><title>GET /schedule-conflicts</title><defs/><g><rect fill="#FEFEFE" height="474" style="stroke:none;stroke-width:1;" width="601" x="0" y="0"/><text fill="#000000" font-family="Segoe UI" font-size="14" font-weight="bold" lengthAdjust="spacing" textLength="175.5059" x="208.8113" y="28.5352">GET /schedule-conflicts</text><text fill="#000000" font-family="Segoe UI" font-size="14" font-weight="bold" lengthAdjust="spacing" textLength="175.8203" x="208.6541" y="45.0234">List scheduling conflicts</text><g><title>API Gateway</title><rect fill="#2563EB" height="189.8633" style="stroke:#A23B72;stroke-width:1;" width="10" x="202.8677" y="188.0859"/></g><g><title>svc-scheduling-orchestrator</title><rect fill="#2563EB" height="131.2422" style="stroke:#A23B72;stroke-width:1;" width="10" x="365.6304" y="217.3965"/></g><g><title>PG . Redis</title><rect fill="#FCE4EC" height="29.3105" style="stroke:#A23B72;stroke-width:1;" width="10" x="543.8828" y="290.0176"/></g><g><title>Client</title><rect fill="#000000" fill-opacity="0.00000" height="274.4844" width="8" x="27.7524" y="121.4648"/><line style="stroke:#A23B72;stroke-width:0.5;stroke-dasharray:5,5;" x1="31" x2="31" y1="121.4648" y2="395.9492"/></g><g><title>API Gateway</title><rect fill="#000000" fill-opacity="0.00000" height="274.4844" width="8" x="203.8677" y="121.4648"/><line style="stroke:#A23B72;stroke-width:0.5;stroke-dasharray:5,5;" x1="207.5786" x2="207.5786" y1="121.4648" y2="395.9492"/></g><g><title>svc-scheduling-orchestrator</title><rect fill="#000000" fill-opacity="0.00000" height="274.4844" width="8" x="366.6304" y="121.4648"/><line style="stroke:#A23B72;stroke-width:0.5;stroke-dasharray:5,5;" x1="370.1567" x2="370.1567" y1="121.4648" y2="395.9492"/></g><g><title>PG . Redis</title><rect fill="#000000" fill-opacity="0.00000" height="274.4844" width="8" x="544.8828" y="121.4648"/><line style="stroke:#A23B72;stroke-width:0.5;stroke-dasharray:5,5;" x1="548.6372" x2="548.6372" y1="121.4648" y2="395.9492"/></g><g class="participant participant-head" data-participant="Client"><rect fill="#E8F4F8" height="30.4883" rx="2.5" ry="2.5" style="stroke:#2E86AB;stroke-width:0.5;" width="53.5049" x="5" y="89.9766"/><text fill="#000000" font-family="Segoe UI" font-size="14" lengthAdjust="spacing" textLength="39.5049" x="12" y="110.5117">Client</text></g><g class="participant participant-tail" data-participant="Client"><rect fill="#E8F4F8" height="30.4883" rx="2.5" ry="2.5" style="stroke:#2E86AB;stroke-width:0.5;" width="53.5049" x="5" y="394.9492"/><text fill="#000000" font-family="Segoe UI" font-size="14" lengthAdjust="spacing" textLength="39.5049" x="12" y="415.4844">Client</text></g><g class="participant participant-head" data-participant="GW"><rect fill="#DBEAFE" height="30.4883" rx="2.5" ry="2.5" style="stroke:#2E86AB;stroke-width:0.5;" width="96.5781" x="159.5786" y="89.9766"/><text fill="#000000" font-family="Segoe UI" font-size="14" lengthAdjust="spacing" textLength="82.5781" x="166.5786" y="110.5117">API Gateway</text></g><g class="participant participant-tail" data-participant="GW"><rect fill="#DBEAFE" height="30.4883" rx="2.5" ry="2.5" style="stroke:#2E86AB;stroke-width:0.5;" width="96.5781" x="159.5786" y="394.9492"/><text fill="#000000" font-family="Segoe UI" font-size="14" lengthAdjust="spacing" textLength="82.5781" x="166.5786" y="415.4844">API Gateway</text></g><g class="participant participant-head" data-participant="Svc"><a href="/microservices/svc-scheduling-orchestrator/" target="_top" title="/microservices/svc-scheduling-orchestrator/" xlink:actuate="onRequest" xlink:href="/microservices/svc-scheduling-orchestrator/" xlink:show="new" xlink:title="/microservices/svc-scheduling-orchestrator/" xlink:type="simple"><rect fill="#E8F4F8" height="30.4883" rx="2.5" ry="2.5" style="stroke:#2E86AB;stroke-width:0.5;" width="208.9473" x="266.1567" y="89.9766"/><text fill="#000000" font-family="Segoe UI" font-size="14" lengthAdjust="spacing" textLength="194.9473" x="273.1567" y="110.5117">svc-scheduling-orchestrator</text></a></g><g class="participant participant-tail" data-participant="Svc"><a href="/microservices/svc-scheduling-orchestrator/" target="_top" title="/microservices/svc-scheduling-orchestrator/" xlink:actuate="onRequest" xlink:href="/microservices/svc-scheduling-orchestrator/" xlink:show="new" xlink:title="/microservices/svc-scheduling-orchestrator/" xlink:type="simple"><rect fill="#E8F4F8" height="30.4883" rx="2.5" ry="2.5" style="stroke:#2E86AB;stroke-width:0.5;" width="208.9473" x="266.1567" y="394.9492"/><text fill="#000000" font-family="Segoe UI" font-size="14" lengthAdjust="spacing" textLength="194.9473" x="273.1567" y="415.4844">svc-scheduling-orchestrator</text></a></g><g class="participant participant-head" data-participant="DB"><text fill="#000000" font-family="Segoe UI" font-size="14" lengthAdjust="spacing" textLength="74.4912" x="508.6372" y="118.5117">PG + Redis</text><path d="M530.8828,68.9766 C530.8828,58.9766 548.8828,58.9766 548.8828,58.9766 C548.8828,58.9766 566.8828,58.9766 566.8828,68.9766 L566.8828,94.9766 C566.8828,104.9766 548.8828,104.9766 548.8828,104.9766 C548.8828,104.9766 530.8828,104.9766 530.8828,94.9766 L530.8828,68.9766" fill="#FCE4EC" style="stroke:#181818;stroke-width:0.5;"/><path d="M530.8828,68.9766 C530.8828,78.9766 548.8828,78.9766 548.8828,78.9766 C548.8828,78.9766 566.8828,78.9766 566.8828,68.9766" fill="none" style="stroke:#181818;stroke-width:0.5;"/></g><g class="participant participant-tail" data-participant="DB"><text fill="#000000" font-family="Segoe UI" font-size="14" lengthAdjust="spacing" textLength="74.4912" x="508.6372" y="408.4844">PG + Redis</text><path d="M530.8828,421.4375 C530.8828,411.4375 548.8828,411.4375 548.8828,411.4375 C548.8828,411.4375 566.8828,411.4375 566.8828,421.4375 L566.8828,447.4375 C566.8828,457.4375 548.8828,457.4375 548.8828,457.4375 C548.8828,457.4375 530.8828,457.4375 530.8828,447.4375 L530.8828,421.4375" fill="#FCE4EC" style="stroke:#181818;stroke-width:0.5;"/><path d="M530.8828,421.4375 C530.8828,431.4375 548.8828,431.4375 548.8828,431.4375 C548.8828,431.4375 566.8828,431.4375 566.8828,421.4375" fill="none" style="stroke:#181818;stroke-width:0.5;"/></g><g><title>API Gateway</title><rect fill="#2563EB" height="189.8633" style="stroke:#A23B72;stroke-width:1;" width="10" x="202.8677" y="188.0859"/></g><g><title>svc-scheduling-orchestrator</title><rect fill="#2563EB" height="131.2422" style="stroke:#A23B72;stroke-width:1;" width="10" x="365.6304" y="217.3965"/></g><g><title>PG . Redis</title><rect fill="#FCE4EC" height="29.3105" style="stroke:#A23B72;stroke-width:1;" width="10" x="543.8828" y="290.0176"/></g><path d="M300,136.4648 L300,161.4648 L440,161.4648 L440,146.4648 L430,136.4648 L300,136.4648" fill="#FEFFDD" style="stroke:#181818;stroke-width:0.5;"/><path d="M430,136.4648 L430,146.4648 L440,146.4648 L430,136.4648" fill="#FEFFDD" style="stroke:#181818;stroke-width:0.5;"/><a href="/services/api/svc-scheduling-orchestrator.html" target="_top" title="/services/api/svc-scheduling-orchestrator.html" xlink:actuate="onRequest" xlink:href="/services/api/svc-scheduling-orchestrator.html" xlink:show="new" xlink:title="/services/api/svc-scheduling-orchestrator.html" xlink:type="simple"><text fill="#0000FF" font-family="Segoe UI" font-size="13" lengthAdjust="spacing" text-decoration="underline" textLength="119.4058" x="306" y="154.0332">View in Swagger UI</text></a><g class="message" data-participant-1="Client" data-participant-2="GW"><polygon fill="#2563EB" points="190.8677,184.0859,200.8677,188.0859,190.8677,192.0859,194.8677,188.0859" style="stroke:#2563EB;stroke-width:1;"/><line style="stroke:#2563EB;stroke-width:1;" x1="31.7524" x2="196.8677" y1="188.0859" y2="188.0859"/><text fill="#000000" font-family="Segoe UI" font-size="13" lengthAdjust="spacing" textLength="152.1152" x="38.7524" y="183.3438">GET /schedule-conflicts</text></g><g class="message" data-participant-1="GW" data-participant-2="Svc"><polygon fill="#2563EB" points="353.6304,213.3965,363.6304,217.3965,353.6304,221.3965,357.6304,217.3965" style="stroke:#2563EB;stroke-width:1;"/><line style="stroke:#2563EB;stroke-width:1;" x1="212.8677" x2="359.6304" y1="217.3965" y2="217.3965"/><a href="/microservices/svc-scheduling-orchestrator/#get-schedule-conflicts-list-scheduling-conflicts" target="_top" title="/microservices/svc-scheduling-orchestrator/#get-schedule-conflicts-list-scheduling-conflicts" xlink:actuate="onRequest" xlink:href="/microservices/svc-scheduling-orchestrator/#get-schedule-conflicts-list-scheduling-conflicts" xlink:show="new" xlink:title="/microservices/svc-scheduling-orchestrator/#get-schedule-conflicts-list-scheduling-conflicts" xlink:type="simple"><text fill="#0000FF" font-family="Segoe UI" font-size="13" lengthAdjust="spacing" text-decoration="underline" textLength="85.1348" x="219.8677" y="212.6543">route request</text></a></g><rect fill="#EEEEEE" height="3" style="stroke:#EEEEEE;stroke-width:1;" width="594.1284" x="0" y="246.0518"/><line style="stroke:#000000;stroke-width:1;" x1="0" x2="594.1284" y1="246.0518" y2="246.0518"/><line style="stroke:#000000;stroke-width:1;" x1="0" x2="594.1284" y1="249.0518" y2="249.0518"/><rect fill="#EEEEEE" height="23.3105" style="stroke:#000000;stroke-width:2;" width="80.3711" x="256.8787" y="235.3965"/><text fill="#000000" font-family="Segoe UI" font-size="13" font-weight="bold" lengthAdjust="spacing" textLength="62.0864" x="262.8787" y="251.9648">Database</text><g class="message" data-participant-1="Svc" data-participant-2="DB"><polygon fill="#2563EB" points="531.8828,286.0176,541.8828,290.0176,531.8828,294.0176,535.8828,290.0176" style="stroke:#2563EB;stroke-width:1;"/><line style="stroke:#2563EB;stroke-width:1;" x1="375.6304" x2="537.8828" y1="290.0176" y2="290.0176"/><text fill="#000000" font-family="Segoe UI" font-size="13" lengthAdjust="spacing" textLength="149.2524" x="382.6304" y="285.2754">SELECT ... WHERE filters</text></g><g class="message" data-participant-1="DB" data-participant-2="Svc"><polygon fill="#2563EB" points="386.6304,315.3281,376.6304,319.3281,386.6304,323.3281,382.6304,319.3281" style="stroke:#2563EB;stroke-width:1;"/><line style="stroke:#2563EB;stroke-width:1;stroke-dasharray:2,2;" x1="380.6304" x2="547.8828" y1="319.3281" y2="319.3281"/><text fill="#000000" font-family="Segoe UI" font-size="13" lengthAdjust="spacing" textLength="93.209" x="392.6304" y="314.5859">Page of results</text></g><g class="message" data-participant-1="Svc" data-participant-2="GW"><polygon fill="#2563EB" points="223.8677,344.6387,213.8677,348.6387,223.8677,352.6387,219.8677,348.6387" style="stroke:#2563EB;stroke-width:1;"/><line style="stroke:#2563EB;stroke-width:1;stroke-dasharray:2,2;" x1="217.8677" x2="369.6304" y1="348.6387" y2="348.6387"/><text fill="#000000" font-family="Segoe UI" font-size="13" lengthAdjust="spacing" textLength="47.3599" x="229.8677" y="343.8965">200 OK</text></g><g class="message" data-participant-1="GW" data-participant-2="Client"><polygon fill="#2563EB" points="42.7524,373.9492,32.7524,377.9492,42.7524,381.9492,38.7524,377.9492" style="stroke:#2563EB;stroke-width:1;"/><line style="stroke:#2563EB;stroke-width:1;stroke-dasharray:2,2;" x1="36.7524" x2="206.8677" y1="377.9492" y2="377.9492"/><text fill="#000000" font-family="Segoe UI" font-size="13" lengthAdjust="spacing" textLength="47.3599" x="48.7524" y="373.207">200 OK</text></g><!--SRC=[bPDHRzem4CVV_IbEy3W5A7G58J69WCFGK8TAEnuw7enp1Al1PhQ1JjE- -ouff65qbPQydFA_k__vTuvxKdehhDZ0KiYdn9gTZWScDHQg4SzUveeCjnQnEIYTm4ga3ajAZ2knItrajByL6uJA31E3y32kbClnnmwrHFZ5W9w-jUPmj6f-l6dXClyy5TOhgRP2-z3O6EqfXNTk-k55ojz3yqvq7NNoj8bQuKHfF6lJRxR2TZFNG_Dy9aLNdQXnLKWNEAA8z5o-DVwygsotbwsIzWRA5c-ptunvvLE44R-7kfDhZ7Sf1jBeLQgaTz_rH3aFHo43NKYCRLzF3PL1gb3x2WW7B-6vt9-EOIGy7iJFF6SqX-emv7rQvrcUsylWrIqmbcBdhV36vdMplOJ7n_f6IMiSshsIwEhl5DKNYs85iV1YAHnTXka8Fi0TnihbJOSX0HdmQpvWJ1CjC7kqcHNn8xF2HspLUrwrjT-ay4tX0PI6sK4a2RLv62yM37KCMMV6Nk10y2b3qFqNToQaLtlYbOCwNaOAgImZqFq_1jK4VN1f4gIqst9HeG1T5VAssV_XFCrVZ9Evd-PXlHuCJqnxFSOoaIOad5sOyGaVt4EjLeFvPtx7OQLIZxPqiX9r2eFYQ5EHq0PMvExe3tOinbB9qUI4hzbemDSlvPHiQnaeoZYYVYjhD6T_0000]--></g></svg>