<svg xmlns="http://www.w3.org/2000/svg" xmlns:xlink="http://www.w3.org/1999/xlink" contentStyleType="text/css" data-diagram-type="SEQUENCE" height="611px" preserveAspectRatio="none" style="width:617px;height:611px;background:#FEFEFE;" version="1.1" viewBox="0 0 617 611" width="617px" zoomAndPan="magnify"><title>POST /waivers</title><defs/><g><rect fill="#FEFEFE" height="611" style="stroke:none;stroke-width:1;" width="617" x="0" y="0"/><text fill="#000000" font-family="Segoe UI" font-size="14" font-weight="bold" lengthAdjust="spacing" textLength="105.9502" x="252.011" y="28.5352">POST /waivers</text><text fill="#000000" font-family="Segoe UI" font-size="14" font-weight="bold" lengthAdjust="spacing" textLength="198.6523" x="205.6599" y="45.0234">Guest signs a safety waiver</text><g><title>API Gateway</title><rect fill="#059669" height="327.1055" style="stroke:#A23B72;stroke-width:1;" width="10" x="141.0605" y="188.0859"/></g><g><title>svc-safety-compliance</title><rect fill="#059669" height="268.4844" style="stroke:#A23B72;stroke-width:1;" width="10" x="283.9785" y="217.3965"/></g><g><title>Guest Profiles</title><rect fill="#DBEAFE" height="29.3105" style="stroke:#A23B72;stroke-width:1;" width="10" x="454.2964" y="325.3281"/></g><g><title>PostgreSQL</title><rect fill="#FCE4EC" height="29.3105" style="stroke:#A23B72;stroke-width:1;" width="10" x="559.5474" y="427.2598"/></g><g><title>Client</title><rect fill="#000000" fill-opacity="0.00000" height="411.7266" width="8" x="27.7524" y="121.4648"/><line style="stroke:#A23B72;stroke-width:0.5;stroke-dasharray:5,5;" x1="31" x2="31" y1="121.4648" y2="533.1914"/></g><g><title>API Gateway</title><rect fill="#000000" fill-opacity="0.00000" height="411.7266" width="8" x="142.0605" y="121.4648"/><line style="stroke:#A23B72;stroke-width:0.5;stroke-dasharray:5,5;" x1="145.7715" x2="145.7715" y1="121.4648" y2="533.1914"/></g><g><title>svc-safety-compliance</title><rect fill="#000000" fill-opacity="0.00000" height="411.7266" width="8" x="284.9785" y="121.4648"/><line style="stroke:#A23B72;stroke-width:0.5;stroke-dasharray:5,5;" x1="288.3496" x2="288.3496" y1="121.4648" y2="533.1914"/></g><g><title>Guest Profiles</title><rect fill="#000000" fill-opacity="0.00000" height="411.7266" width="8" x="455.2964" y="121.4648"/><line style="stroke:#A23B72;stroke-width:0.5;stroke-dasharray:5,5;" x1="458.4702" x2="458.4702" y1="121.4648" y2="533.1914"/></g><g><title>PostgreSQL</title><rect fill="#000000" fill-opacity="0.00000" height="411.7266" width="8" x="560.5474" y="121.4648"/><line style="stroke:#A23B72;stroke-width:0.5;stroke-dasharray:5,5;" x1="564.1226" x2="564.1226" y1="121.4648" y2="533.1914"/></g><g class="participant participant-head" data-participant="Client"><rect fill="#E8F4F8" height="30.4883" rx="2.5" ry="2.5" style="stroke:#2E86AB;stroke-width:0.5;" width="53.5049" x="5" y="89.9766"/><text fill="#000000" font-family="Segoe UI" font-size="14" lengthAdjust="spacing" textLength="39.5049" x="12" y="110.5117">Client</text></g><g class="participant participant-tail" data-participant="Client"><rect fill="#E8F4F8" height="30.4883" rx="2.5" ry="2.5" style="stroke:#2E86AB;stroke-width:0.5;" width="53.5049" x="5" y="532.1914"/><text fill="#000000" font-family="Segoe UI" font-size="14" lengthAdjust="spacing" textLength="39.5049" x="12" y="552.7266">Client</text></g><g class="participant participant-head" data-participant="GW"><rect fill="#DBEAFE" height="30.4883" rx="2.5" ry="2.5" style="stroke:#2E86AB;stroke-width:0.5;" width="96.5781" x="97.7715" y="89.9766"/><text fill="#000000" font-family="Segoe UI" font-size="14" lengthAdjust="spacing" textLength="82.5781" x="104.7715" y="110.5117">API Gateway</text></g><g class="participant participant-tail" data-participant="GW"><rect fill="#DBEAFE" height="30.4883" rx="2.5" ry="2.5" style="stroke:#2E86AB;stroke-width:0.5;" width="96.5781" x="97.7715" y="532.1914"/><text fill="#000000" font-family="Segoe UI" font-size="14" lengthAdjust="spacing" textLength="82.5781" x="104.7715" y="552.7266">API Gateway</text></g><g class="participant participant-head" data-participant="Svc"><a href="/microservices/svc-safety-compliance/" target="_top" title="/microservices/svc-safety-compliance/" xlink:actuate="onRequest" xlink:href="/microservices/svc-safety-compliance/" xlink:show="new" xlink:title="/microservices/svc-safety-compliance/" xlink:type="simple"><rect fill="#E8F4F8" height="30.4883" rx="2.5" ry="2.5" style="stroke:#2E86AB;stroke-width:0.5;" width="169.2578" x="204.3496" y="89.9766"/><text fill="#000000" font-family="Segoe UI" font-size="14" lengthAdjust="spacing" textLength="155.2578" x="211.3496" y="110.5117">svc-safety-compliance</text></a></g><g class="participant participant-tail" data-participant="Svc"><a href="/microservices/svc-safety-compliance/" target="_top" title="/microservices/svc-safety-compliance/" xlink:actuate="onRequest" xlink:href="/microservices/svc-safety-compliance/" xlink:show="new" xlink:title="/microservices/svc-safety-compliance/" xlink:type="simple"><rect fill="#E8F4F8" height="30.4883" rx="2.5" ry="2.5" style="stroke:#2E86AB;stroke-width:0.5;" width="169.2578" x="204.3496" y="532.1914"/><text fill="#000000" font-family="Segoe UI" font-size="14" lengthAdjust="spacing" textLength="155.2578" x="211.3496" y="552.7266">svc-safety-compliance</text></a></g><g class="participant participant-head" data-participant="GP"><a href="/microservices/svc-guest-profiles/" target="_top" title="/microservices/svc-guest-profiles/" xlink:actuate="onRequest" xlink:href="/microservices/svc-guest-profiles/" xlink:show="new" xlink:title="/microservices/svc-guest-profiles/" xlink:type="simple"><rect fill="#FFF8F0" height="30.4883" rx="2.5" ry="2.5" style="stroke:#2E86AB;stroke-width:0.5;" width="107.6523" x="405.4702" y="89.9766"/><text fill="#000000" font-family="Segoe UI" font-size="14" lengthAdjust="spacing" textLength="93.6523" x="412.4702" y="110.5117">Guest Profiles</text></a></g><g class="participant participant-tail" data-participant="GP"><a href="/microservices/svc-guest-profiles/" target="_top" title="/microservices/svc-guest-profiles/" xlink:actuate="onRequest" xlink:href="/microservices/svc-guest-profiles/" xlink:show="new" xlink:title="/microservices/svc-guest-profiles/" xlink:type="simple"><rect fill="#FFF8F0" height="30.4883" rx="2.5" ry="2.5" style="stroke:#2E86AB;stroke-width:0.5;" width="107.6523" x="405.4702" y="532.1914"/><text fill="#000000" font-family="Segoe UI" font-size="14" lengthAdjust="spacing" textLength="93.6523" x="412.4702" y="552.7266">Guest Profiles</text></a></g><g class="participant participant-head" data-participant="DB"><text fill="#000000" font-family="Segoe UI" font-size="14" lengthAdjust="spacing" textLength="76.8496" x="523.1226" y="118.5117">PostgreSQL</text><path d="M546.5474,68.9766 C546.5474,58.9766 564.5474,58.9766 564.5474,58.9766 C564.5474,58.9766 582.5474,58.9766 582.5474,68.9766 L582.5474,94.9766 C582.5474,104.9766 564.5474,104.9766 564.5474,104.9766 C564.5474,104.9766 546.5474,104.9766 546.5474,94.9766 L546.5474,68.9766" fill="#FCE4EC" style="stroke:#181818;stroke-width:0.5;"/><path d="M546.5474,68.9766 C546.5474,78.9766 564.5474,78.9766 564.5474,78.9766 C564.5474,78.9766 582.5474,78.9766 582.5474,68.9766" fill="none" style="stroke:#181818;stroke-width:0.5;"/></g><g class="participant participant-tail" data-participant="DB"><text fill="#000000" font-family="Segoe UI" font-size="14" lengthAdjust="spacing" textLength="76.8496" x="523.1226" y="545.7266">PostgreSQL</text><path d="M546.5474,558.6797 C546.5474,548.6797 564.5474,548.6797 564.5474,548.6797 C564.5474,548.6797 582.5474,548.6797 582.5474,558.6797 L582.5474,584.6797 C582.5474,594.6797 564.5474,594.6797 564.5474,594.6797 C564.5474,594.6797 546.5474,594.6797 546.5474,584.6797 L546.5474,558.6797" fill="#FCE4EC" style="stroke:#181818;stroke-width:0.5;"/><path d="M546.5474,558.6797 C546.5474,568.6797 564.5474,568.6797 564.5474,568.6797 C564.5474,568.6797 582.5474,568.6797 582.5474,558.6797" fill="none" style="stroke:#181818;stroke-width:0.5;"/></g><g><title>API Gateway</title><rect fill="#059669" height="327.1055" style="stroke:#A23B72;stroke-width:1;" width="10" x="141.0605" y="188.0859"/></g><g><title>svc-safety-compliance</title><rect fill="#059669" height="268.4844" style="stroke:#A23B72;stroke-width:1;" width="10" x="283.9785" y="217.3965"/></g><g><title>Guest Profiles</title><rect fill="#DBEAFE" height="29.3105" style="stroke:#A23B72;stroke-width:1;" width="10" x="454.2964" y="325.3281"/></g><g><title>PostgreSQL</title><rect fill="#FCE4EC" height="29.3105" style="stroke:#A23B72;stroke-width:1;" width="10" x="559.5474" y="427.2598"/></g><path d="M218,136.4648 L218,161.4648 L358,161.4648 L358,146.4648 L348,136.4648 L218,136.4648" fill="#FEFFDD" style="stroke:#181818;stroke-width:0.5;"/><path d="M348,136.4648 L348,146.4648 L358,146.4648 L348,136.4648" fill="#FEFFDD" style="stroke:#181818;stroke-width:0.5;"/><a href="/services/api/svc-safety-compliance.html#/Waivers/signWaiver" target="_top" title="/services/api/svc-safety-compliance.html#/Waivers/signWaiver" xlink:actuate="onRequest" xlink:href="/services/api/svc-safety-compliance.html#/Waivers/signWaiver" xlink:show="new" xlink:title="/services/api/svc-safety-compliance.html#/Waivers/signWaiver" xlink:type="simple"><text fill="#0000FF" font-family="Segoe UI" font-size="13" lengthAdjust="spacing" text-decoration="underline" textLength="119.4058" x="224" y="154.0332">View in Swagger UI</text></a><g class="message" data-participant-1="Client" data-participant-2="GW"><polygon fill="#059669" points="129.0605,184.0859,139.0605,188.0859,129.0605,192.0859,133.0605,188.0859" style="stroke:#059669;stroke-width:1;"/><line style="stroke:#059669;stroke-width:1;" x1="31.7524" x2="135.0605" y1="188.0859" y2="188.0859"/><text fill="#000000" font-family="Segoe UI" font-size="13" lengthAdjust="spacing" textLength="90.3081" x="38.7524" y="183.3438">POST /waivers</text></g><g class="message" data-participant-1="GW" data-participant-2="Svc"><polygon fill="#059669" points="271.9785,213.3965,281.9785,217.3965,271.9785,221.3965,275.9785,217.3965" style="stroke:#059669;stroke-width:1;"/><line style="stroke:#059669;stroke-width:1;" x1="151.0605" x2="277.9785" y1="217.3965" y2="217.3965"/><text fill="#000000" font-family="Segoe UI" font-size="13" lengthAdjust="spacing" textLength="85.1348" x="158.0605" y="212.6543">route request</text></g><path d="M298,230.3965 L298,255.3965 L456,255.3965 L456,240.3965 L446,230.3965 L298,230.3965" fill="#FEFFDD" style="stroke:#181818;stroke-width:0.5;"/><path d="M446,230.3965 L446,240.3965 L456,240.3965 L446,230.3965" fill="#FEFFDD" style="stroke:#181818;stroke-width:0.5;"/><text fill="#000000" font-family="Segoe UI" font-size="13" lengthAdjust="spacing" textLength="137.5728" x="304" y="247.9648">Validate request body</text><rect fill="#EEEEEE" height="3" style="stroke:#EEEEEE;stroke-width:1;" width="610.9722" x="0" y="281.3623"/><line style="stroke:#000000;stroke-width:1;" x1="0" x2="610.9722" y1="281.3623" y2="281.3623"/><line style="stroke:#000000;stroke-width:1;" x1="0" x2="610.9722" y1="284.3623" y2="284.3623"/><rect fill="#EEEEEE" height="23.3105" style="stroke:#000000;stroke-width:2;" width="190.6743" x="210.1489" y="270.707"/><text fill="#000000" font-family="Segoe UI" font-size="13" font-weight="bold" lengthAdjust="spacing" textLength="172.3896" x="216.1489" y="287.2754">Cross-Service Integration</text><g class="message" data-participant-1="Svc" data-participant-2="GP"><polygon fill="#059669" points="442.2964,321.3281,452.2964,325.3281,442.2964,329.3281,446.2964,325.3281" style="stroke:#059669;stroke-width:1;"/><line style="stroke:#059669;stroke-width:1;" x1="293.9785" x2="448.2964" y1="325.3281" y2="325.3281"/><a href="/microservices/svc-guest-profiles/#get-guestsguest_id-get-guest-profile" target="_top" title="/microservices/svc-guest-profiles/#get-guestsguest_id-get-guest-profile" xlink:actuate="onRequest" xlink:href="/microservices/svc-guest-profiles/#get-guestsguest_id-get-guest-profile" xlink:show="new" xlink:title="/microservices/svc-guest-profiles/#get-guestsguest_id-get-guest-profile" xlink:type="simple"><text fill="#0000FF" font-family="Segoe UI" font-size="13" lengthAdjust="spacing" text-decoration="underline" textLength="141.3179" x="300.9785" y="320.5859">Validate guest identity</text></a></g><g class="message" data-participant-1="GP" data-participant-2="Svc"><polygon fill="#059669" points="304.9785,350.6387,294.9785,354.6387,304.9785,358.6387,300.9785,354.6387" style="stroke:#059669;stroke-width:1;"/><line style="stroke:#059669;stroke-width:1;stroke-dasharray:2,2;" x1="298.9785" x2="458.2964" y1="354.6387" y2="354.6387"/><text fill="#000000" font-family="Segoe UI" font-size="13" lengthAdjust="spacing" textLength="18.5859" x="310.9785" y="349.8965">OK</text></g><rect fill="#EEEEEE" height="3" style="stroke:#EEEEEE;stroke-width:1;" width="610.9722" x="0" y="383.2939"/><line style="stroke:#000000;stroke-width:1;" x1="0" x2="610.9722" y1="383.2939" y2="383.2939"/><line style="stroke:#000000;stroke-width:1;" x1="0" x2="610.9722" y1="386.2939" y2="386.2939"/><rect fill="#EEEEEE" height="23.3105" style="stroke:#000000;stroke-width:2;" width="80.3711" x="265.3005" y="372.6387"/><text fill="#000000" font-family="Segoe UI" font-size="13" font-weight="bold" lengthAdjust="spacing" textLength="62.0864" x="271.3005" y="389.207">Database</text><g class="message" data-participant-1="Svc" data-participant-2="DB"><polygon fill="#059669" points="547.5474,423.2598,557.5474,427.2598,547.5474,431.2598,551.5474,427.2598" style="stroke:#059669;stroke-width:1;"/><line style="stroke:#059669;stroke-width:1;" x1="293.9785" x2="553.5474" y1="427.2598" y2="427.2598"/><text fill="#000000" font-family="Segoe UI" font-size="13" lengthAdjust="spacing" textLength="96.0718" x="300.9785" y="422.5176">INSERT INTO ...</text></g><g class="message" data-participant-1="DB" data-participant-2="Svc"><polygon fill="#059669" points="304.9785,452.5703,294.9785,456.5703,304.9785,460.5703,300.9785,456.5703" style="stroke:#059669;stroke-width:1;"/><line style="stroke:#059669;stroke-width:1;stroke-dasharray:2,2;" x1="298.9785" x2="563.5474" y1="456.5703" y2="456.5703"/><text fill="#000000" font-family="Segoe UI" font-size="13" lengthAdjust="spacing" textLength="76.4575" x="310.9785" y="451.8281">Created row</text></g><g class="message" data-participant-1="Svc" data-participant-2="GW"><polygon fill="#059669" points="162.0605,481.8809,152.0605,485.8809,162.0605,489.8809,158.0605,485.8809" style="stroke:#059669;stroke-width:1;"/><line style="stroke:#059669;stroke-width:1;stroke-dasharray:2,2;" x1="156.0605" x2="287.9785" y1="485.8809" y2="485.8809"/><text fill="#000000" font-family="Segoe UI" font-size="13" lengthAdjust="spacing" textLength="77.7969" x="168.0605" y="481.1387">201 Created</text></g><g class="message" data-participant-1="GW" data-participant-2="Client"><polygon fill="#059669" points="42.7524,511.1914,32.7524,515.1914,42.7524,519.1914,38.7524,515.1914" style="stroke:#059669;stroke-width:1;"/><line style="stroke:#059669;stroke-width:1;stroke-dasharray:2,2;" x1="36.7524" x2="145.0605" y1="515.1914" y2="515.1914"/><text fill="#000000" font-family="Segoe UI" font-size="13" lengthAdjust="spacing" textLength="77.7969" x="48.7524" y="510.4492">201 Created</text></g><!--SRC=[ZLDjRzem4FxkNt62pu6MTeLMOXA11A5LRRRqvKE79fCSgTLWCzkGecd_VNOIyh8oQKI2Yv_d7jyzTwWtnhTKqWsiQFIMIB7ZyLIaGaBNz-n3LCLGhpGM6UC9h6cgi874kAQxLFk2wpkwGUY4c0Y4nqMdcOu_TyWZX5y4p6SYfSZAgyu-NLzTNUV70PMQHMnBkNQ5Z56Mb84tkfgu7oX_5-sD_4j_bDDksHfl6SUMp6HmuGu7EUwAznRadu_yi_CA-c27xniyX- -4Rgj6m-7gee6TiFB26vBVX6YcKuJWFdo0VaRP7gNwpkSxL1eKIxW22egkKH-WG0dPrjr2PveovBe3L44Hjk59i80vrPZHGywPFqDtvdeJCyOMJ-qZfxZ6YSHccp9gvf9dXFi8Nbxw6nP9eL3kMOIgVvBUNouhkrlYHJU156kMeYhg24wB9fRgR4jghbZQ75DDLrIPLGg4qed4yEjjBZLp3MVgNNfJGhZn6eHnoPPjt3TtLF9qoqxNtNlLcxJRVoxCxrlNYnYU66R0E8GPJHBp_hXOBWdo6EmzX1I6W_FPsdhJdY6XaMPxutnkURdE9ZHaw-WDc6qmeBH_0QLhjWMFzA8ToP9N3M9TvZtHbCMqJeMLY0-4ZCSmDLug9opwXGNNc4YgcU0m7XDYissbWT7u7-kx2UhYJENVFrZiL4T7MbrDVWmiDeOmVJ0srVq7rSgPqAaCkFz2OcomyXvcnoatIZO3le75NUXzUp0_3_VGw_Lg-SRuJLZBJoKQE3O-PyrxPcwfUvpQuEpyo6toxFxOSHbQEUP_KkVFv0y0]--></g></svg>