<?xml version="1.0" encoding="UTF-8" standalone="no"?><svg xmlns="http://www.w3.org/2000/svg" xmlns:xlink="http://www.w3.org/1999/xlink" contentScriptType="application/ecmascript" contentStyleType="text/css" height="517px" preserveAspectRatio="none" style="width:449px;height:517px;background:#FEFEFE;" version="1.1" viewBox="0 0 449 517" width="449px" zoomAndPan="magnify"><defs/><g><text fill="#000000" font-family="Segoe UI" font-size="18" lengthAdjust="spacingAndGlyphs" textLength="99" x="170.5" y="41.3486">POST /trips</text><text fill="#000000" font-family="Segoe UI" font-size="18" lengthAdjust="spacingAndGlyphs" textLength="246" x="97" y="62.3018">Create a new trip definition</text><rect fill="#059669" height="223.9297" style="stroke: #6B7280; stroke-width: 1.0;" width="10" x="137.5" y="202.1094"/><rect fill="#059669" height="165.6641" style="stroke: #6B7280; stroke-width: 1.0;" width="10" x="256" y="231.2422"/><rect fill="#FEF9C3" height="29.1328" style="stroke: #6B7280; stroke-width: 1.0;" width="10" x="380" y="338.6406"/><line style="stroke: #6B7280; stroke-width: 1.0; stroke-dasharray: 5.0,5.0;" x1="34" x2="34" y1="135.8438" y2="444.0391"/><line style="stroke: #6B7280; stroke-width: 1.0; stroke-dasharray: 5.0,5.0;" x1="142.5" x2="142.5" y1="135.8438" y2="444.0391"/><line style="stroke: #6B7280; stroke-width: 1.0; stroke-dasharray: 5.0,5.0;" x1="260.5" x2="260.5" y1="135.8438" y2="444.0391"/><line style="stroke: #6B7280; stroke-width: 1.0; stroke-dasharray: 5.0,5.0;" x1="384.5" x2="384.5" y1="135.8438" y2="444.0391"/><a href="/applications/" target="_top" title="/applications/" xlink:actuate="onRequest" xlink:href="/applications/" xlink:show="new" xlink:title="/applications/" xlink:type="simple"><rect fill="#F9FAFB" height="30.2969" style="stroke: #374151; stroke-width: 1.5;" width="53" x="8" y="104.5469"/><text fill="#000000" font-family="Segoe UI" font-size="14" lengthAdjust="spacingAndGlyphs" textLength="39" x="15" y="124.542">Client</text><rect fill="#F9FAFB" height="30.2969" style="stroke: #374151; stroke-width: 1.5;" width="53" x="8" y="443.0391"/><text fill="#000000" font-family="Segoe UI" font-size="14" lengthAdjust="spacingAndGlyphs" textLength="39" x="15" y="463.0342">Client</text></a><a href="/actors/#api-gateway" target="_top" title="/actors/#api-gateway" xlink:actuate="onRequest" xlink:href="/actors/#api-gateway" xlink:show="new" xlink:title="/actors/#api-gateway" xlink:type="simple"><rect fill="#E0F2FE" height="30.2969" style="stroke: #374151; stroke-width: 1.5;" width="98" x="93.5" y="104.5469"/><text fill="#000000" font-family="Segoe UI" font-size="14" lengthAdjust="spacingAndGlyphs" textLength="84" x="100.5" y="124.542">API Gateway</text><rect fill="#E0F2FE" height="30.2969" style="stroke: #374151; stroke-width: 1.5;" width="98" x="93.5" y="443.0391"/><text fill="#000000" font-family="Segoe UI" font-size="14" lengthAdjust="spacingAndGlyphs" textLength="84" x="100.5" y="463.0342">API Gateway</text></a><a href="/microservices/svc-trip-catalog/" target="_top" title="/microservices/svc-trip-catalog/" xlink:actuate="onRequest" xlink:href="/microservices/svc-trip-catalog/" xlink:show="new" xlink:title="/microservices/svc-trip-catalog/" xlink:type="simple"><rect fill="#FEF3C7" height="30.2969" style="stroke: #374151; stroke-width: 1.5;" width="119" x="201.5" y="104.5469"/><text fill="#000000" font-family="Segoe UI" font-size="14" lengthAdjust="spacingAndGlyphs" textLength="105" x="208.5" y="124.542">svc-trip-catalog</text><rect fill="#FEF3C7" height="30.2969" style="stroke: #374151; stroke-width: 1.5;" width="119" x="201.5" y="443.0391"/><text fill="#000000" font-family="Segoe UI" font-size="14" lengthAdjust="spacingAndGlyphs" textLength="105" x="208.5" y="463.0342">svc-trip-catalog</text></a><a href="/microservices/svc-trip-catalog/#data-store" target="_top" title="/microservices/svc-trip-catalog/#data-store" xlink:actuate="onRequest" xlink:href="/microservices/svc-trip-catalog/#data-store" xlink:show="new" xlink:title="/microservices/svc-trip-catalog/#data-store" xlink:type="simple"><text fill="#000000" font-family="Segoe UI" font-size="14" lengthAdjust="spacingAndGlyphs" textLength="81" x="341.5" y="132.542">PostgreSQL</text><path d="M367,83.5469 C367,73.5469 385,73.5469 385,73.5469 C385,73.5469 403,73.5469 403,83.5469 L403,109.5469 C403,119.5469 385,119.5469 385,119.5469 C385,119.5469 367,119.5469 367,109.5469 L367,83.5469 " fill="#FEF9C3" style="stroke: #000000; stroke-width: 1.5;"/><path d="M367,83.5469 C367,93.5469 385,93.5469 385,93.5469 C385,93.5469 403,93.5469 403,83.5469 " fill="none" style="stroke: #000000; stroke-width: 1.5;"/><text fill="#000000" font-family="Segoe UI" font-size="14" lengthAdjust="spacingAndGlyphs" textLength="81" x="341.5" y="456.0342">PostgreSQL</text><path d="M367,469.3359 C367,459.3359 385,459.3359 385,459.3359 C385,459.3359 403,459.3359 403,469.3359 L403,495.3359 C403,505.3359 385,505.3359 385,505.3359 C385,505.3359 367,505.3359 367,495.3359 L367,469.3359 " fill="#FEF9C3" style="stroke: #000000; stroke-width: 1.5;"/><path d="M367,469.3359 C367,479.3359 385,479.3359 385,479.3359 C385,479.3359 403,479.3359 403,469.3359 " fill="none" style="stroke: #000000; stroke-width: 1.5;"/></a><rect fill="#059669" height="223.9297" style="stroke: #6B7280; stroke-width: 1.0;" width="10" x="137.5" y="202.1094"/><rect fill="#059669" height="165.6641" style="stroke: #6B7280; stroke-width: 1.0;" width="10" x="256" y="231.2422"/><rect fill="#FEF9C3" height="29.1328" style="stroke: #6B7280; stroke-width: 1.0;" width="10" x="380" y="338.6406"/><path d="M190,150.8438 L190,175.8438 L331,175.8438 L331,160.8438 L321,150.8438 L190,150.8438 " fill="#FBFB77" style="stroke: #A80036; stroke-width: 1.0;"/><path d="M321,150.8438 L321,160.8438 L331,160.8438 L321,150.8438 " fill="#FBFB77" style="stroke: #A80036; stroke-width: 1.0;"/><a href="/services/api/svc-trip-catalog.html#/Trips/createTrip" target="_top" title="/services/api/svc-trip-catalog.html#/Trips/createTrip" xlink:actuate="onRequest" xlink:href="/services/api/svc-trip-catalog.html#/Trips/createTrip" xlink:show="new" xlink:title="/services/api/svc-trip-catalog.html#/Trips/createTrip" xlink:type="simple"><text fill="#0000FF" font-family="Segoe UI" font-size="13" lengthAdjust="spacingAndGlyphs" text-decoration="underline" textLength="120" x="196" y="167.9106">View in Swagger UI</text></a><polygon fill="#059669" points="125.5,198.1094,135.5,202.1094,125.5,206.1094,129.5,202.1094" style="stroke: #059669; stroke-width: 1.0;"/><line style="stroke: #059669; stroke-width: 1.0;" x1="34.5" x2="131.5" y1="202.1094" y2="202.1094"/><text fill="#000000" font-family="Segoe UI" font-size="13" lengthAdjust="spacingAndGlyphs" textLength="70" x="41.5" y="197.0435">POST /trips</text><polygon fill="#059669" points="244,227.2422,254,231.2422,244,235.2422,248,231.2422" style="stroke: #059669; stroke-width: 1.0;"/><line style="stroke: #059669; stroke-width: 1.0;" x1="147.5" x2="250" y1="231.2422" y2="231.2422"/><text fill="#000000" font-family="Segoe UI" font-size="13" lengthAdjust="spacingAndGlyphs" textLength="87" x="154.5" y="226.1763">route request</text><path d="M271,244.2422 L271,269.2422 L432,269.2422 L432,254.2422 L422,244.2422 L271,244.2422 " fill="#FBFB77" style="stroke: #A80036; stroke-width: 1.0;"/><path d="M422,244.2422 L422,254.2422 L432,254.2422 L422,244.2422 " fill="#FBFB77" style="stroke: #A80036; stroke-width: 1.0;"/><text fill="#000000" font-family="Segoe UI" font-size="13" lengthAdjust="spacingAndGlyphs" textLength="140" x="277" y="261.3091">Validate request body</text><rect fill="#EEEEEE" height="3" style="stroke: #EEEEEE; stroke-width: 1.0;" width="434" x="3" y="294.9414"/><line style="stroke: #000000; stroke-width: 1.0;" x1="3" x2="437" y1="294.9414" y2="294.9414"/><line style="stroke: #000000; stroke-width: 1.0;" x1="3" x2="437" y1="297.9414" y2="297.9414"/><rect fill="#EEEEEE" height="23.1328" style="stroke: #000000; stroke-width: 2.0;" width="90" x="175" y="284.375"/><text fill="#000000" font-family="Segoe UI" font-size="13" font-weight="bold" lengthAdjust="spacingAndGlyphs" textLength="71" x="181" y="300.4419">Database</text><polygon fill="#059669" points="368,334.6406,378,338.6406,368,342.6406,372,338.6406" style="stroke: #059669; stroke-width: 1.0;"/><line style="stroke: #059669; stroke-width: 1.0;" x1="266" x2="374" y1="338.6406" y2="338.6406"/><text fill="#000000" font-family="Segoe UI" font-size="13" lengthAdjust="spacingAndGlyphs" textLength="95" x="273" y="333.5747">INSERT INTO ...</text><polygon fill="#059669" points="277,363.7734,267,367.7734,277,371.7734,273,367.7734" style="stroke: #059669; stroke-width: 1.0;"/><line style="stroke: #059669; stroke-width: 1.0; stroke-dasharray: 2.0,2.0;" x1="271" x2="384" y1="367.7734" y2="367.7734"/><text fill="#000000" font-family="Segoe UI" font-size="13" lengthAdjust="spacingAndGlyphs" textLength="77" x="283" y="362.7075">Created row</text><polygon fill="#059669" points="158.5,392.9063,148.5,396.9063,158.5,400.9063,154.5,396.9063" style="stroke: #059669; stroke-width: 1.0;"/><line style="stroke: #059669; stroke-width: 1.0; stroke-dasharray: 2.0,2.0;" x1="152.5" x2="260" y1="396.9063" y2="396.9063"/><text fill="#000000" font-family="Segoe UI" font-size="13" lengthAdjust="spacingAndGlyphs" textLength="79" x="164.5" y="391.8403">201 Created</text><polygon fill="#059669" points="45.5,422.0391,35.5,426.0391,45.5,430.0391,41.5,426.0391" style="stroke: #059669; stroke-width: 1.0;"/><line style="stroke: #059669; stroke-width: 1.0; stroke-dasharray: 2.0,2.0;" x1="39.5" x2="141.5" y1="426.0391" y2="426.0391"/><text fill="#000000" font-family="Segoe UI" font-size="13" lengthAdjust="spacingAndGlyphs" textLength="79" x="51.5" y="420.9731">201 Created</text><a href="/microservices/svc-trip-catalog/#integration-context" target="_top" title="/microservices/svc-trip-catalog/#integration-context" xlink:actuate="onRequest" xlink:href="/microservices/svc-trip-catalog/#integration-context" xlink:show="new" xlink:title="/microservices/svc-trip-catalog/#integration-context" xlink:type="simple"><text fill="#0000FF" font-family="Segoe UI" font-size="10" lengthAdjust="spacingAndGlyphs" text-decoration="underline" textLength="185" x="252" y="12.2822">⬆ svc-trip-catalog Integration Context</text></a><!--MD5=[76dd28656fa7824b0f155bf43f6da7b5]
@startuml svc-trip-catalog- -post-trips

skinparam backgroundColor #FEFEFE
skinparam shadowing false
skinparam defaultFontName "Segoe UI"
skinparam sequence {
    ArrowColor #059669
    ParticipantBorderColor #374151
    ParticipantBackgroundColor #F9FAFB
    LifeLineBorderColor #6B7280
    BoxBorderColor #94A3B8
    BoxBackgroundColor #F8FAFC
    NoteBorderColor #64748B
    NoteBackgroundColor #F8FAFC
}

header [[/microservices/svc-trip-catalog/#integration-context ⬆ svc-trip-catalog Integration Context]]

title POST /trips\nCreate a new trip definition

participant "Client" as Client [[/applications/]]
participant "API Gateway" as GW [[/actors/#api-gateway]] #E0F2FE
participant "svc-trip-catalog" as Svc [[/microservices/svc-trip-catalog/]] #FEF3C7
database "PostgreSQL" as DB [[/microservices/svc-trip-catalog/#data-store]] #FEF9C3

note over Svc
  [[/services/api/svc-trip-catalog.html#/Trips/createTrip View in Swagger UI]]
end note

Client -> GW : POST /trips
activate GW #059669
GW -> Svc : route request
activate Svc #059669

note right of Svc : Validate request body

== Database ==

Svc -> DB : INSERT INTO ...
activate DB #FEF9C3
DB - -> Svc : Created row
deactivate DB

Svc - -> GW : 201 Created
deactivate Svc
GW - -> Client : 201 Created
deactivate GW

@enduml

PlantUML version 1.2020.02(Sun Mar 01 10:22:07 UTC 2020)
(GPL source distribution)
Java Runtime: OpenJDK Runtime Environment
JVM: OpenJDK 64-Bit Server VM
Java Version: 17.0.18+8
Operating System: Linux
Default Encoding: UTF-8
Language: en
Country: null
--></g></svg>