<?xml version="1.0" encoding="UTF-8" standalone="no"?><svg xmlns="http://www.w3.org/2000/svg" xmlns:xlink="http://www.w3.org/1999/xlink" contentScriptType="application/ecmascript" contentStyleType="text/css" height="482px" preserveAspectRatio="none" style="width:611px;height:482px;background:#FEFEFE;" version="1.1" viewBox="0 0 611 482" width="611px" zoomAndPan="magnify"><defs/><g><text fill="#000000" font-family="Segoe UI" font-size="18" lengthAdjust="spacingAndGlyphs" textLength="204" x="199.25" y="41.3486">GET /schedule-conflicts</text><text fill="#000000" font-family="Segoe UI" font-size="18" lengthAdjust="spacingAndGlyphs" textLength="206" x="198.25" y="62.3018">List scheduling conflicts</text><rect fill="#2563EB" height="188.7969" style="stroke: #6B7280; stroke-width: 1.0;" width="10" x="200.5" y="202.1094"/><rect fill="#2563EB" height="130.5313" style="stroke: #6B7280; stroke-width: 1.0;" width="10" x="363.5" y="231.2422"/><rect fill="#FEF9C3" height="29.1328" style="stroke: #6B7280; stroke-width: 1.0;" width="10" x="544.5" y="303.5078"/><line style="stroke: #6B7280; stroke-width: 1.0; stroke-dasharray: 5.0,5.0;" x1="34" x2="34" y1="135.8438" y2="408.9063"/><line style="stroke: #6B7280; stroke-width: 1.0; stroke-dasharray: 5.0,5.0;" x1="205.5" x2="205.5" y1="135.8438" y2="408.9063"/><line style="stroke: #6B7280; stroke-width: 1.0; stroke-dasharray: 5.0,5.0;" x1="368.5" x2="368.5" y1="135.8438" y2="408.9063"/><line style="stroke: #6B7280; stroke-width: 1.0; stroke-dasharray: 5.0,5.0;" x1="549.5" x2="549.5" y1="135.8438" y2="408.9063"/><a href="/applications/" target="_top" title="/applications/" xlink:actuate="onRequest" xlink:href="/applications/" xlink:show="new" xlink:title="/applications/" xlink:type="simple"><rect fill="#F9FAFB" height="30.2969" style="stroke: #374151; stroke-width: 1.5;" width="53" x="8" y="104.5469"/><text fill="#000000" font-family="Segoe UI" font-size="14" lengthAdjust="spacingAndGlyphs" textLength="39" x="15" y="124.542">Client</text><rect fill="#F9FAFB" height="30.2969" style="stroke: #374151; stroke-width: 1.5;" width="53" x="8" y="407.9063"/><text fill="#000000" font-family="Segoe UI" font-size="14" lengthAdjust="spacingAndGlyphs" textLength="39" x="15" y="427.9014">Client</text></a><a href="/actors/#api-gateway" target="_top" title="/actors/#api-gateway" xlink:actuate="onRequest" xlink:href="/actors/#api-gateway" xlink:show="new" xlink:title="/actors/#api-gateway" xlink:type="simple"><rect fill="#E0F2FE" height="30.2969" style="stroke: #374151; stroke-width: 1.5;" width="98" x="156.5" y="104.5469"/><text fill="#000000" font-family="Segoe UI" font-size="14" lengthAdjust="spacingAndGlyphs" textLength="84" x="163.5" y="124.542">API Gateway</text><rect fill="#E0F2FE" height="30.2969" style="stroke: #374151; stroke-width: 1.5;" width="98" x="156.5" y="407.9063"/><text fill="#000000" font-family="Segoe UI" font-size="14" lengthAdjust="spacingAndGlyphs" textLength="84" x="163.5" y="427.9014">API Gateway</text></a><a href="/microservices/svc-scheduling-orchestrator/" target="_top" title="/microservices/svc-scheduling-orchestrator/" xlink:actuate="onRequest" xlink:href="/microservices/svc-scheduling-orchestrator/" xlink:show="new" xlink:title="/microservices/svc-scheduling-orchestrator/" xlink:type="simple"><rect fill="#DBEAFE" height="30.2969" style="stroke: #374151; stroke-width: 1.5;" width="208" x="264.5" y="104.5469"/><text fill="#000000" font-family="Segoe UI" font-size="14" lengthAdjust="spacingAndGlyphs" textLength="194" x="271.5" y="124.542">svc-scheduling-orchestrator</text><rect fill="#DBEAFE" height="30.2969" style="stroke: #374151; stroke-width: 1.5;" width="208" x="264.5" y="407.9063"/><text fill="#000000" font-family="Segoe UI" font-size="14" lengthAdjust="spacingAndGlyphs" textLength="194" x="271.5" y="427.9014">svc-scheduling-orchestrator</text></a><a href="/microservices/svc-scheduling-orchestrator/#data-store" target="_top" title="/microservices/svc-scheduling-orchestrator/#data-store" xlink:actuate="onRequest" xlink:href="/microservices/svc-scheduling-orchestrator/#data-store" xlink:show="new" xlink:title="/microservices/svc-scheduling-orchestrator/#data-store" xlink:type="simple"><text fill="#000000" font-family="Segoe UI" font-size="14" lengthAdjust="spacingAndGlyphs" textLength="84" x="504.5" y="132.542">PG + Valkey</text><path d="M531.5,83.5469 C531.5,73.5469 549.5,73.5469 549.5,73.5469 C549.5,73.5469 567.5,73.5469 567.5,83.5469 L567.5,109.5469 C567.5,119.5469 549.5,119.5469 549.5,119.5469 C549.5,119.5469 531.5,119.5469 531.5,109.5469 L531.5,83.5469 " fill="#FEF9C3" style="stroke: #000000; stroke-width: 1.5;"/><path d="M531.5,83.5469 C531.5,93.5469 549.5,93.5469 549.5,93.5469 C549.5,93.5469 567.5,93.5469 567.5,83.5469 " fill="none" style="stroke: #000000; stroke-width: 1.5;"/><text fill="#000000" font-family="Segoe UI" font-size="14" lengthAdjust="spacingAndGlyphs" textLength="84" x="504.5" y="420.9014">PG + Valkey</text><path d="M531.5,434.2031 C531.5,424.2031 549.5,424.2031 549.5,424.2031 C549.5,424.2031 567.5,424.2031 567.5,434.2031 L567.5,460.2031 C567.5,470.2031 549.5,470.2031 549.5,470.2031 C549.5,470.2031 531.5,470.2031 531.5,460.2031 L531.5,434.2031 " fill="#FEF9C3" style="stroke: #000000; stroke-width: 1.5;"/><path d="M531.5,434.2031 C531.5,444.2031 549.5,444.2031 549.5,444.2031 C549.5,444.2031 567.5,444.2031 567.5,434.2031 " fill="none" style="stroke: #000000; stroke-width: 1.5;"/></a><rect fill="#2563EB" height="188.7969" style="stroke: #6B7280; stroke-width: 1.0;" width="10" x="200.5" y="202.1094"/><rect fill="#2563EB" height="130.5313" style="stroke: #6B7280; stroke-width: 1.0;" width="10" x="363.5" y="231.2422"/><rect fill="#FEF9C3" height="29.1328" style="stroke: #6B7280; stroke-width: 1.0;" width="10" x="544.5" y="303.5078"/><path d="M298,150.8438 L298,175.8438 L439,175.8438 L439,160.8438 L429,150.8438 L298,150.8438 " fill="#FBFB77" style="stroke: #A80036; stroke-width: 1.0;"/><path d="M429,150.8438 L429,160.8438 L439,160.8438 L429,150.8438 " fill="#FBFB77" style="stroke: #A80036; stroke-width: 1.0;"/><a href="/services/api/svc-scheduling-orchestrator.html" target="_top" title="/services/api/svc-scheduling-orchestrator.html" xlink:actuate="onRequest" xlink:href="/services/api/svc-scheduling-orchestrator.html" xlink:show="new" xlink:title="/services/api/svc-scheduling-orchestrator.html" xlink:type="simple"><text fill="#0000FF" font-family="Segoe UI" font-size="13" lengthAdjust="spacingAndGlyphs" text-decoration="underline" textLength="120" x="304" y="167.9106">View in Swagger UI</text></a><polygon fill="#2563EB" points="188.5,198.1094,198.5,202.1094,188.5,206.1094,192.5,202.1094" style="stroke: #2563EB; stroke-width: 1.0;"/><line style="stroke: #2563EB; stroke-width: 1.0;" x1="34.5" x2="194.5" y1="202.1094" y2="202.1094"/><text fill="#000000" font-family="Segoe UI" font-size="13" lengthAdjust="spacingAndGlyphs" textLength="147" x="41.5" y="197.0435">GET /schedule-conflicts</text><polygon fill="#2563EB" points="351.5,227.2422,361.5,231.2422,351.5,235.2422,355.5,231.2422" style="stroke: #2563EB; stroke-width: 1.0;"/><line style="stroke: #2563EB; stroke-width: 1.0;" x1="210.5" x2="357.5" y1="231.2422" y2="231.2422"/><text fill="#000000" font-family="Segoe UI" font-size="13" lengthAdjust="spacingAndGlyphs" textLength="87" x="217.5" y="226.1763">route request</text><rect fill="#EEEEEE" height="3" style="stroke: #EEEEEE; stroke-width: 1.0;" width="596.5" x="3" y="259.8086"/><line style="stroke: #000000; stroke-width: 1.0;" x1="3" x2="599.5" y1="259.8086" y2="259.8086"/><line style="stroke: #000000; stroke-width: 1.0;" x1="3" x2="599.5" y1="262.8086" y2="262.8086"/><rect fill="#EEEEEE" height="23.1328" style="stroke: #000000; stroke-width: 2.0;" width="90" x="256.25" y="249.2422"/><text fill="#000000" font-family="Segoe UI" font-size="13" font-weight="bold" lengthAdjust="spacingAndGlyphs" textLength="71" x="262.25" y="265.3091">Database</text><polygon fill="#2563EB" points="532.5,299.5078,542.5,303.5078,532.5,307.5078,536.5,303.5078" style="stroke: #2563EB; stroke-width: 1.0;"/><line style="stroke: #2563EB; stroke-width: 1.0;" x1="373.5" x2="538.5" y1="303.5078" y2="303.5078"/><text fill="#000000" font-family="Segoe UI" font-size="13" lengthAdjust="spacingAndGlyphs" textLength="152" x="380.5" y="298.4419">SELECT ... WHERE filters</text><polygon fill="#2563EB" points="384.5,328.6406,374.5,332.6406,384.5,336.6406,380.5,332.6406" style="stroke: #2563EB; stroke-width: 1.0;"/><line style="stroke: #2563EB; stroke-width: 1.0; stroke-dasharray: 2.0,2.0;" x1="378.5" x2="548.5" y1="332.6406" y2="332.6406"/><text fill="#000000" font-family="Segoe UI" font-size="13" lengthAdjust="spacingAndGlyphs" textLength="95" x="390.5" y="327.5747">Page of results</text><polygon fill="#2563EB" points="221.5,357.7734,211.5,361.7734,221.5,365.7734,217.5,361.7734" style="stroke: #2563EB; stroke-width: 1.0;"/><line style="stroke: #2563EB; stroke-width: 1.0; stroke-dasharray: 2.0,2.0;" x1="215.5" x2="367.5" y1="361.7734" y2="361.7734"/><text fill="#000000" font-family="Segoe UI" font-size="13" lengthAdjust="spacingAndGlyphs" textLength="46" x="227.5" y="356.7075">200 OK</text><polygon fill="#2563EB" points="45.5,386.9063,35.5,390.9063,45.5,394.9063,41.5,390.9063" style="stroke: #2563EB; stroke-width: 1.0;"/><line style="stroke: #2563EB; stroke-width: 1.0; stroke-dasharray: 2.0,2.0;" x1="39.5" x2="204.5" y1="390.9063" y2="390.9063"/><text fill="#000000" font-family="Segoe UI" font-size="13" lengthAdjust="spacingAndGlyphs" textLength="46" x="51.5" y="385.8403">200 OK</text><a href="/microservices/svc-scheduling-orchestrator/#integration-context" target="_top" title="/microservices/svc-scheduling-orchestrator/#integration-context" xlink:actuate="onRequest" xlink:href="/microservices/svc-scheduling-orchestrator/#integration-context" xlink:show="new" xlink:title="/microservices/svc-scheduling-orchestrator/#integration-context" xlink:type="simple"><text fill="#0000FF" font-family="Segoe UI" font-size="10" lengthAdjust="spacingAndGlyphs" text-decoration="underline" textLength="244" x="355.5" y="12.2822">⬆ svc-scheduling-orchestrator Integration Context</text></a><!--MD5=[80df62aad75a3d9317c1c5ca192f7e11]
@startuml svc-scheduling-orchestrator- -get-schedule-conflicts

skinparam backgroundColor #FEFEFE
skinparam shadowing false
skinparam defaultFontName "Segoe UI"
skinparam sequence {
    ArrowColor #2563eb
    ParticipantBorderColor #374151
    ParticipantBackgroundColor #F9FAFB
    LifeLineBorderColor #6B7280
    BoxBorderColor #94A3B8
    BoxBackgroundColor #F8FAFC
    NoteBorderColor #64748B
    NoteBackgroundColor #F8FAFC
}

header [[/microservices/svc-scheduling-orchestrator/#integration-context ⬆ svc-scheduling-orchestrator Integration Context]]

title GET /schedule-conflicts\nList scheduling conflicts

participant "Client" as Client [[/applications/]]
participant "API Gateway" as GW [[/actors/#api-gateway]] #E0F2FE
participant "svc-scheduling-orchestrator" as Svc [[/microservices/svc-scheduling-orchestrator/]] #DBEAFE
database "PG + Valkey" as DB [[/microservices/svc-scheduling-orchestrator/#data-store]] #FEF9C3

note over Svc
  [[/services/api/svc-scheduling-orchestrator.html View in Swagger UI]]
end note

Client -> GW : GET /schedule-conflicts
activate GW #2563eb
GW -> Svc : route request
activate Svc #2563eb

== Database ==

Svc -> DB : SELECT ... WHERE filters
activate DB #FEF9C3
DB - -> Svc : Page of results
deactivate DB

Svc - -> GW : 200 OK
deactivate Svc
GW - -> Client : 200 OK
deactivate GW

@enduml

PlantUML version 1.2020.02(Sun Mar 01 10:22:07 UTC 2020)
(GPL source distribution)
Java Runtime: OpenJDK Runtime Environment
JVM: OpenJDK 64-Bit Server VM
Java Version: 17.0.18+8
Operating System: Linux
Default Encoding: UTF-8
Language: en
Country: null
--></g></svg>