<svg xmlns="http://www.w3.org/2000/svg" xmlns:xlink="http://www.w3.org/1999/xlink" contentStyleType="text/css" data-diagram-type="SEQUENCE" height="487px" preserveAspectRatio="none" style="width:540px;height:487px;background:#FEFEFE;" version="1.1" viewBox="0 0 540 487" width="540px" zoomAndPan="magnify"><title>GET /analytics/bookings</title><defs/><g><rect fill="#FEFEFE" height="487" style="stroke:none;stroke-width:1;" width="540" x="0" y="0"/><text fill="#000000" font-family="Segoe UI" font-size="14" font-weight="bold" lengthAdjust="spacing" textLength="179.833" x="176.2917" y="41.3125">GET /analytics/bookings</text><text fill="#000000" font-family="Segoe UI" font-size="14" font-weight="bold" lengthAdjust="spacing" textLength="246.3057" x="143.0554" y="57.8008">Get booking analytics for a period</text><g><title>API Gateway</title><rect fill="#2563EB" height="189.8633" style="stroke:#A23B72;stroke-width:1;" width="10" x="206.3525" y="200.8633"/></g><g><title>svc-analytics</title><rect fill="#2563EB" height="131.2422" style="stroke:#A23B72;stroke-width:1;" width="10" x="320.4873" y="230.1738"/></g><g><title>Oracle</title><rect fill="#FCE4EC" height="29.3105" style="stroke:#A23B72;stroke-width:1;" width="10" x="498.7397" y="302.7949"/></g><g><title>Client</title><rect fill="#000000" fill-opacity="0.00000" height="274.4844" width="8" x="27.7524" y="134.2422"/><line style="stroke:#A23B72;stroke-width:0.5;stroke-dasharray:5,5;" x1="31" x2="31" y1="134.2422" y2="408.7266"/></g><g><title>API Gateway</title><rect fill="#000000" fill-opacity="0.00000" height="274.4844" width="8" x="207.3525" y="134.2422"/><line style="stroke:#A23B72;stroke-width:0.5;stroke-dasharray:5,5;" x1="211.0635" x2="211.0635" y1="134.2422" y2="408.7266"/></g><g><title>svc-analytics</title><rect fill="#000000" fill-opacity="0.00000" height="274.4844" width="8" x="321.4873" y="134.2422"/><line style="stroke:#A23B72;stroke-width:0.5;stroke-dasharray:5,5;" x1="325.1084" x2="325.1084" y1="134.2422" y2="408.7266"/></g><g><title>Oracle</title><rect fill="#000000" fill-opacity="0.00000" height="274.4844" width="8" x="499.7397" y="134.2422"/><line style="stroke:#A23B72;stroke-width:0.5;stroke-dasharray:5,5;" x1="503.063" x2="503.063" y1="134.2422" y2="408.7266"/></g><g class="participant participant-head" data-participant="Client"><rect fill="#E8F4F8" height="30.4883" rx="2.5" ry="2.5" style="stroke:#2E86AB;stroke-width:0.5;" width="53.5049" x="5" y="102.7539"/><text fill="#000000" font-family="Segoe UI" font-size="14" lengthAdjust="spacing" textLength="39.5049" x="12" y="123.2891">Client</text></g><g class="participant participant-tail" data-participant="Client"><rect fill="#E8F4F8" height="30.4883" rx="2.5" ry="2.5" style="stroke:#2E86AB;stroke-width:0.5;" width="53.5049" x="5" y="407.7266"/><text fill="#000000" font-family="Segoe UI" font-size="14" lengthAdjust="spacing" textLength="39.5049" x="12" y="428.2617">Client</text></g><g class="participant participant-head" data-participant="GW"><rect fill="#DBEAFE" height="30.4883" rx="2.5" ry="2.5" style="stroke:#2E86AB;stroke-width:0.5;" width="96.5781" x="163.0635" y="102.7539"/><text fill="#000000" font-family="Segoe UI" font-size="14" lengthAdjust="spacing" textLength="82.5781" x="170.0635" y="123.2891">API Gateway</text></g><g class="participant participant-tail" data-participant="GW"><rect fill="#DBEAFE" height="30.4883" rx="2.5" ry="2.5" style="stroke:#2E86AB;stroke-width:0.5;" width="96.5781" x="163.0635" y="407.7266"/><text fill="#000000" font-family="Segoe UI" font-size="14" lengthAdjust="spacing" textLength="82.5781" x="170.0635" y="428.2617">API Gateway</text></g><g class="participant participant-head" data-participant="Svc"><a href="/microservices/svc-analytics/" target="_top" title="/microservices/svc-analytics/" xlink:actuate="onRequest" xlink:href="/microservices/svc-analytics/" xlink:show="new" xlink:title="/microservices/svc-analytics/" xlink:type="simple"><rect fill="#E8F4F8" height="30.4883" rx="2.5" ry="2.5" style="stroke:#2E86AB;stroke-width:0.5;" width="102.7578" x="274.1084" y="102.7539"/><text fill="#000000" font-family="Segoe UI" font-size="14" lengthAdjust="spacing" textLength="88.7578" x="281.1084" y="123.2891">svc-analytics</text></a></g><g class="participant participant-tail" data-participant="Svc"><a href="/microservices/svc-analytics/" target="_top" title="/microservices/svc-analytics/" xlink:actuate="onRequest" xlink:href="/microservices/svc-analytics/" xlink:show="new" xlink:title="/microservices/svc-analytics/" xlink:type="simple"><rect fill="#E8F4F8" height="30.4883" rx="2.5" ry="2.5" style="stroke:#2E86AB;stroke-width:0.5;" width="102.7578" x="274.1084" y="407.7266"/><text fill="#000000" font-family="Segoe UI" font-size="14" lengthAdjust="spacing" textLength="88.7578" x="281.1084" y="428.2617">svc-analytics</text></a></g><g class="participant participant-head" data-participant="DB"><text fill="#000000" font-family="Segoe UI" font-size="14" lengthAdjust="spacing" textLength="43.3535" x="479.063" y="131.2891">Oracle</text><path d="M485.7397,81.7539 C485.7397,71.7539 503.7397,71.7539 503.7397,71.7539 C503.7397,71.7539 521.7397,71.7539 521.7397,81.7539 L521.7397,107.7539 C521.7397,117.7539 503.7397,117.7539 503.7397,117.7539 C503.7397,117.7539 485.7397,117.7539 485.7397,107.7539 L485.7397,81.7539" fill="#FCE4EC" style="stroke:#181818;stroke-width:0.5;"/><path d="M485.7397,81.7539 C485.7397,91.7539 503.7397,91.7539 503.7397,91.7539 C503.7397,91.7539 521.7397,91.7539 521.7397,81.7539" fill="none" style="stroke:#181818;stroke-width:0.5;"/></g><g class="participant participant-tail" data-participant="DB"><text fill="#000000" font-family="Segoe UI" font-size="14" lengthAdjust="spacing" textLength="43.3535" x="479.063" y="421.2617">Oracle</text><path d="M485.7397,434.2148 C485.7397,424.2148 503.7397,424.2148 503.7397,424.2148 C503.7397,424.2148 521.7397,424.2148 521.7397,434.2148 L521.7397,460.2148 C521.7397,470.2148 503.7397,470.2148 503.7397,470.2148 C503.7397,470.2148 485.7397,470.2148 485.7397,460.2148 L485.7397,434.2148" fill="#FCE4EC" style="stroke:#181818;stroke-width:0.5;"/><path d="M485.7397,434.2148 C485.7397,444.2148 503.7397,444.2148 503.7397,444.2148 C503.7397,444.2148 521.7397,444.2148 521.7397,434.2148" fill="none" style="stroke:#181818;stroke-width:0.5;"/></g><g><title>API Gateway</title><rect fill="#2563EB" height="189.8633" style="stroke:#A23B72;stroke-width:1;" width="10" x="206.3525" y="200.8633"/></g><g><title>svc-analytics</title><rect fill="#2563EB" height="131.2422" style="stroke:#A23B72;stroke-width:1;" width="10" x="320.4873" y="230.1738"/></g><g><title>Oracle</title><rect fill="#FCE4EC" height="29.3105" style="stroke:#A23B72;stroke-width:1;" width="10" x="498.7397" y="302.7949"/></g><path d="M255,149.2422 L255,174.2422 L395,174.2422 L395,159.2422 L385,149.2422 L255,149.2422" fill="#FEFFDD" style="stroke:#181818;stroke-width:0.5;"/><path d="M385,149.2422 L385,159.2422 L395,159.2422 L385,149.2422" fill="#FEFFDD" style="stroke:#181818;stroke-width:0.5;"/><a href="/services/api/svc-analytics.html#/Bookings/getBookingAnalytics" target="_top" title="/services/api/svc-analytics.html#/Bookings/getBookingAnalytics" xlink:actuate="onRequest" xlink:href="/services/api/svc-analytics.html#/Bookings/getBookingAnalytics" xlink:show="new" xlink:title="/services/api/svc-analytics.html#/Bookings/getBookingAnalytics" xlink:type="simple"><text fill="#0000FF" font-family="Segoe UI" font-size="13" lengthAdjust="spacing" text-decoration="underline" textLength="119.4058" x="261" y="166.8105">View in Swagger UI</text></a><g class="message" data-participant-1="Client" data-participant-2="GW"><polygon fill="#2563EB" points="194.3525,196.8633,204.3525,200.8633,194.3525,204.8633,198.3525,200.8633" style="stroke:#2563EB;stroke-width:1;"/><line style="stroke:#2563EB;stroke-width:1;" x1="31.7524" x2="200.3525" y1="200.8633" y2="200.8633"/><text fill="#000000" font-family="Segoe UI" font-size="13" lengthAdjust="spacing" textLength="155.6001" x="38.7524" y="196.1211">GET /analytics/bookings</text></g><g class="message" data-participant-1="GW" data-participant-2="Svc"><polygon fill="#2563EB" points="308.4873,226.1738,318.4873,230.1738,308.4873,234.1738,312.4873,230.1738" style="stroke:#2563EB;stroke-width:1;"/><line style="stroke:#2563EB;stroke-width:1;" x1="216.3525" x2="314.4873" y1="230.1738" y2="230.1738"/><text fill="#000000" font-family="Segoe UI" font-size="13" lengthAdjust="spacing" textLength="85.1348" x="223.3525" y="225.4316">route request</text></g><rect fill="#EEEEEE" height="3" style="stroke:#EEEEEE;stroke-width:1;" width="533.4165" x="0" y="258.8291"/><line style="stroke:#000000;stroke-width:1;" x1="0" x2="533.4165" y1="258.8291" y2="258.8291"/><line style="stroke:#000000;stroke-width:1;" x1="0" x2="533.4165" y1="261.8291" y2="261.8291"/><rect fill="#EEEEEE" height="23.3105" style="stroke:#000000;stroke-width:2;" width="80.3711" x="226.5227" y="248.1738"/><text fill="#000000" font-family="Segoe UI" font-size="13" font-weight="bold" lengthAdjust="spacing" textLength="62.0864" x="232.5227" y="264.7422">Database</text><g class="message" data-participant-1="Svc" data-participant-2="DB"><polygon fill="#2563EB" points="486.7397,298.7949,496.7397,302.7949,486.7397,306.7949,490.7397,302.7949" style="stroke:#2563EB;stroke-width:1;"/><line style="stroke:#2563EB;stroke-width:1;" x1="330.4873" x2="492.7397" y1="302.7949" y2="302.7949"/><text fill="#000000" font-family="Segoe UI" font-size="13" lengthAdjust="spacing" textLength="149.2524" x="337.4873" y="298.0527">SELECT ... WHERE filters</text></g><g class="message" data-participant-1="DB" data-participant-2="Svc"><polygon fill="#2563EB" points="341.4873,328.1055,331.4873,332.1055,341.4873,336.1055,337.4873,332.1055" style="stroke:#2563EB;stroke-width:1;"/><line style="stroke:#2563EB;stroke-width:1;stroke-dasharray:2,2;" x1="335.4873" x2="502.7397" y1="332.1055" y2="332.1055"/><text fill="#000000" font-family="Segoe UI" font-size="13" lengthAdjust="spacing" textLength="93.209" x="347.4873" y="327.3633">Page of results</text></g><g class="message" data-participant-1="Svc" data-participant-2="GW"><polygon fill="#2563EB" points="227.3525,357.416,217.3525,361.416,227.3525,365.416,223.3525,361.416" style="stroke:#2563EB;stroke-width:1;"/><line style="stroke:#2563EB;stroke-width:1;stroke-dasharray:2,2;" x1="221.3525" x2="324.4873" y1="361.416" y2="361.416"/><text fill="#000000" font-family="Segoe UI" font-size="13" lengthAdjust="spacing" textLength="47.3599" x="233.3525" y="356.6738">200 OK</text></g><g class="message" data-participant-1="GW" data-participant-2="Client"><polygon fill="#2563EB" points="42.7524,386.7266,32.7524,390.7266,42.7524,394.7266,38.7524,390.7266" style="stroke:#2563EB;stroke-width:1;"/><line style="stroke:#2563EB;stroke-width:1;stroke-dasharray:2,2;" x1="36.7524" x2="210.3525" y1="390.7266" y2="390.7266"/><text fill="#000000" font-family="Segoe UI" font-size="13" lengthAdjust="spacing" textLength="47.3599" x="48.7524" y="385.9844">200 OK</text></g><a href="/microservices/svc-analytics/#integration-context" target="_top" title="/microservices/svc-analytics/#integration-context" xlink:actuate="onRequest" xlink:href="/microservices/svc-analytics/#integration-context" xlink:show="new" xlink:title="/microservices/svc-analytics/#integration-context" xlink:type="simple"><text fill="#0000FF" font-family="Segoe UI" font-size="10" lengthAdjust="spacing" text-decoration="underline" textLength="174.5703" x="357.8462" y="14.668">&#11014; svc-analytics Integration Context</text></a><!--SRC=[XPFHRjem58Rl_HH7S0sqq1LKYKa990mDjMYqwqN7nI4v1Al1PhQ1LjLkzpHxgZt9Jj80oTffoOsJ__T_V3xRzb6g3HfSmmAZnyJehOe7EjK6wc6GlS8U7NQ5iTvBbS0IKqib9QObRbCNQkMkSKrGcr6Y2Ux6jV9q-hub5H6y2E37CqRlYrBj3vSTMkI_fsYSZEG6bVErYSaSB47lqlFVMFvUTD0BBy9URfl89KsaeagCr-xutNQk-_gf8eNdlV3i_2YzmH66hEVojNRLrAZRNNHAsZieEq5N_11YHSZJuE6XjPQHqPRCJaPaMtONDL1X-ioTsLPTAaU9GIUrQaHCbPuS_Fxr4oes69zSC7XrpUT2EEbIWb5m2wrJv49hted4VbCZSb1ymIbhoUj4s92HEXPYSq8CjK4gIRaQe8NNOLNsfcCOeQCzFkUUqJtKXtxWyTcf-2fhpvspNVG_4lFvSKzZTBX0owVhnc2KKXunz9dk8BW81a8eHWzwntWvc3U3eu-fk97LvERAhTDwoo-mj19onTWxClagQGzImMoFISAnTsF6Iog6h98Ghp2WyJ5h-UfVm0L6JkwOJmwcEEayv6bP_rV01uL5azqEwqxkJ3pOHRyFmqFx_RuGcSW1tFqLp899CBY5PhC9zv-2Bm4iPUh8b0gN8F6mSQmynOI1BRcsvTjhHKobAKMHGtVjipEu-LosP92pFjXHa7ZFDReNVm00]--></g></svg>