<?xml version="1.0" encoding="UTF-8" standalone="no"?><svg xmlns="http://www.w3.org/2000/svg" xmlns:xlink="http://www.w3.org/1999/xlink" contentScriptType="application/ecmascript" contentStyleType="text/css" height="683px" preserveAspectRatio="none" style="width:802px;height:683px;background:#FEFEFE;" version="1.1" viewBox="0 0 802 683" width="802px" zoomAndPan="magnify"><defs/><g><text fill="#000000" font-family="Segoe UI" font-size="18" lengthAdjust="spacingAndGlyphs" textLength="275" x="259" y="41.3486">POST /media/{media_id}/share</text><text fill="#000000" font-family="Segoe UI" font-size="18" lengthAdjust="spacingAndGlyphs" textLength="357" x="218" y="62.3018">Create a shareable link for a media item</text><rect fill="#059669" height="389.5938" style="stroke: #6B7280; stroke-width: 1.0;" width="10" x="253.5" y="202.1094"/><rect fill="#059669" height="331.3281" style="stroke: #6B7280; stroke-width: 1.0;" width="10" x="379" y="231.2422"/><rect fill="#FEF9C3" height="29.1328" style="stroke: #6B7280; stroke-width: 1.0;" width="10" x="608.5" y="338.6406"/><rect fill="#FEF9C3" height="29.1328" style="stroke: #6B7280; stroke-width: 1.0;" width="10" x="608.5" y="432.0391"/><line style="stroke: #6B7280; stroke-width: 1.0; stroke-dasharray: 5.0,5.0;" x1="34" x2="34" y1="135.8438" y2="609.7031"/><line style="stroke: #6B7280; stroke-width: 1.0; stroke-dasharray: 5.0,5.0;" x1="258.5" x2="258.5" y1="135.8438" y2="609.7031"/><line style="stroke: #6B7280; stroke-width: 1.0; stroke-dasharray: 5.0,5.0;" x1="383.5" x2="383.5" y1="135.8438" y2="609.7031"/><line style="stroke: #6B7280; stroke-width: 1.0; stroke-dasharray: 5.0,5.0;" x1="511" x2="511" y1="135.8438" y2="609.7031"/><line style="stroke: #6B7280; stroke-width: 1.0; stroke-dasharray: 5.0,5.0;" x1="613" x2="613" y1="135.8438" y2="609.7031"/><a href="/applications/" target="_top" title="/applications/" xlink:actuate="onRequest" xlink:href="/applications/" xlink:show="new" xlink:title="/applications/" xlink:type="simple"><rect fill="#F9FAFB" height="30.2969" style="stroke: #374151; stroke-width: 1.5;" width="53" x="8" y="104.5469"/><text fill="#000000" font-family="Segoe UI" font-size="14" lengthAdjust="spacingAndGlyphs" textLength="39" x="15" y="124.542">Client</text><rect fill="#F9FAFB" height="30.2969" style="stroke: #374151; stroke-width: 1.5;" width="53" x="8" y="608.7031"/><text fill="#000000" font-family="Segoe UI" font-size="14" lengthAdjust="spacingAndGlyphs" textLength="39" x="15" y="628.6982">Client</text></a><a href="/actors/#api-gateway" target="_top" title="/actors/#api-gateway" xlink:actuate="onRequest" xlink:href="/actors/#api-gateway" xlink:show="new" xlink:title="/actors/#api-gateway" xlink:type="simple"><rect fill="#E0F2FE" height="30.2969" style="stroke: #374151; stroke-width: 1.5;" width="98" x="209.5" y="104.5469"/><text fill="#000000" font-family="Segoe UI" font-size="14" lengthAdjust="spacingAndGlyphs" textLength="84" x="216.5" y="124.542">API Gateway</text><rect fill="#E0F2FE" height="30.2969" style="stroke: #374151; stroke-width: 1.5;" width="98" x="209.5" y="608.7031"/><text fill="#000000" font-family="Segoe UI" font-size="14" lengthAdjust="spacingAndGlyphs" textLength="84" x="216.5" y="628.6982">API Gateway</text></a><a href="/microservices/svc-media-gallery/" target="_top" title="/microservices/svc-media-gallery/" xlink:actuate="onRequest" xlink:href="/microservices/svc-media-gallery/" xlink:show="new" xlink:title="/microservices/svc-media-gallery/" xlink:type="simple"><rect fill="#F1F5F9" height="30.2969" style="stroke: #374151; stroke-width: 1.5;" width="133" x="317.5" y="104.5469"/><text fill="#000000" font-family="Segoe UI" font-size="14" lengthAdjust="spacingAndGlyphs" textLength="119" x="324.5" y="124.542">svc-media-gallery</text><rect fill="#F1F5F9" height="30.2969" style="stroke: #374151; stroke-width: 1.5;" width="133" x="317.5" y="608.7031"/><text fill="#000000" font-family="Segoe UI" font-size="14" lengthAdjust="spacingAndGlyphs" textLength="119" x="324.5" y="628.6982">svc-media-gallery</text></a><a href="/microservices/svc-notifications/" target="_top" title="/microservices/svc-notifications/" xlink:actuate="onRequest" xlink:href="/microservices/svc-notifications/" xlink:show="new" xlink:title="/microservices/svc-notifications/" xlink:type="simple"><rect fill="#F1F5F9" height="30.2969" style="stroke: #374151; stroke-width: 1.5;" width="98" x="462" y="104.5469"/><text fill="#000000" font-family="Segoe UI" font-size="14" lengthAdjust="spacingAndGlyphs" textLength="84" x="469" y="124.542">Notifications</text><rect fill="#F1F5F9" height="30.2969" style="stroke: #374151; stroke-width: 1.5;" width="98" x="462" y="608.7031"/><text fill="#000000" font-family="Segoe UI" font-size="14" lengthAdjust="spacingAndGlyphs" textLength="84" x="469" y="628.6982">Notifications</text></a><a href="/microservices/svc-media-gallery/#data-store" target="_top" title="/microservices/svc-media-gallery/#data-store" xlink:actuate="onRequest" xlink:href="/microservices/svc-media-gallery/#data-store" xlink:show="new" xlink:title="/microservices/svc-media-gallery/#data-store" xlink:type="simple"><text fill="#000000" font-family="Segoe UI" font-size="14" lengthAdjust="spacingAndGlyphs" textLength="81" x="570" y="132.542">PostgreSQL</text><path d="M595.5,83.5469 C595.5,73.5469 613.5,73.5469 613.5,73.5469 C613.5,73.5469 631.5,73.5469 631.5,83.5469 L631.5,109.5469 C631.5,119.5469 613.5,119.5469 613.5,119.5469 C613.5,119.5469 595.5,119.5469 595.5,109.5469 L595.5,83.5469 " fill="#FEF9C3" style="stroke: #000000; stroke-width: 1.5;"/><path d="M595.5,83.5469 C595.5,93.5469 613.5,93.5469 613.5,93.5469 C613.5,93.5469 631.5,93.5469 631.5,83.5469 " fill="none" style="stroke: #000000; stroke-width: 1.5;"/><text fill="#000000" font-family="Segoe UI" font-size="14" lengthAdjust="spacingAndGlyphs" textLength="81" x="570" y="621.6982">PostgreSQL</text><path d="M595.5,635 C595.5,625 613.5,625 613.5,625 C613.5,625 631.5,625 631.5,635 L631.5,661 C631.5,671 613.5,671 613.5,671 C613.5,671 595.5,671 595.5,661 L595.5,635 " fill="#FEF9C3" style="stroke: #000000; stroke-width: 1.5;"/><path d="M595.5,635 C595.5,645 613.5,645 613.5,645 C613.5,645 631.5,645 631.5,635 " fill="none" style="stroke: #000000; stroke-width: 1.5;"/></a><rect fill="#059669" height="389.5938" style="stroke: #6B7280; stroke-width: 1.0;" width="10" x="253.5" y="202.1094"/><rect fill="#059669" height="331.3281" style="stroke: #6B7280; stroke-width: 1.0;" width="10" x="379" y="231.2422"/><rect fill="#FEF9C3" height="29.1328" style="stroke: #6B7280; stroke-width: 1.0;" width="10" x="608.5" y="338.6406"/><rect fill="#FEF9C3" height="29.1328" style="stroke: #6B7280; stroke-width: 1.0;" width="10" x="608.5" y="432.0391"/><path d="M313,150.8438 L313,175.8438 L454,175.8438 L454,160.8438 L444,150.8438 L313,150.8438 " fill="#FBFB77" style="stroke: #A80036; stroke-width: 1.0;"/><path d="M444,150.8438 L444,160.8438 L454,160.8438 L444,150.8438 " fill="#FBFB77" style="stroke: #A80036; stroke-width: 1.0;"/><a href="/services/api/svc-media-gallery.html#/Sharing/createShareLink" target="_top" title="/services/api/svc-media-gallery.html#/Sharing/createShareLink" xlink:actuate="onRequest" xlink:href="/services/api/svc-media-gallery.html#/Sharing/createShareLink" xlink:show="new" xlink:title="/services/api/svc-media-gallery.html#/Sharing/createShareLink" xlink:type="simple"><text fill="#0000FF" font-family="Segoe UI" font-size="13" lengthAdjust="spacingAndGlyphs" text-decoration="underline" textLength="120" x="319" y="167.9106">View in Swagger UI</text></a><polygon fill="#059669" points="241.5,198.1094,251.5,202.1094,241.5,206.1094,245.5,202.1094" style="stroke: #059669; stroke-width: 1.0;"/><line style="stroke: #059669; stroke-width: 1.0;" x1="34.5" x2="247.5" y1="202.1094" y2="202.1094"/><text fill="#000000" font-family="Segoe UI" font-size="13" lengthAdjust="spacingAndGlyphs" textLength="200" x="41.5" y="197.0435">POST /media/{media_id}/share</text><polygon fill="#059669" points="367,227.2422,377,231.2422,367,235.2422,371,231.2422" style="stroke: #059669; stroke-width: 1.0;"/><line style="stroke: #059669; stroke-width: 1.0;" x1="263.5" x2="373" y1="231.2422" y2="231.2422"/><text fill="#000000" font-family="Segoe UI" font-size="13" lengthAdjust="spacingAndGlyphs" textLength="87" x="270.5" y="226.1763">route request</text><path d="M394,244.2422 L394,269.2422 L555,269.2422 L555,254.2422 L545,244.2422 L394,244.2422 " fill="#FBFB77" style="stroke: #A80036; stroke-width: 1.0;"/><path d="M545,244.2422 L545,254.2422 L555,254.2422 L545,244.2422 " fill="#FBFB77" style="stroke: #A80036; stroke-width: 1.0;"/><text fill="#000000" font-family="Segoe UI" font-size="13" lengthAdjust="spacingAndGlyphs" textLength="140" x="400" y="261.3091">Validate request body</text><rect fill="#EEEEEE" height="3" style="stroke: #EEEEEE; stroke-width: 1.0;" width="787" x="3" y="294.9414"/><line style="stroke: #000000; stroke-width: 1.0;" x1="3" x2="790" y1="294.9414" y2="294.9414"/><line style="stroke: #000000; stroke-width: 1.0;" x1="3" x2="790" y1="297.9414" y2="297.9414"/><rect fill="#EEEEEE" height="23.1328" style="stroke: #000000; stroke-width: 2.0;" width="90" x="351.5" y="284.375"/><text fill="#000000" font-family="Segoe UI" font-size="13" font-weight="bold" lengthAdjust="spacingAndGlyphs" textLength="71" x="357.5" y="300.4419">Database</text><polygon fill="#059669" points="596.5,334.6406,606.5,338.6406,596.5,342.6406,600.5,338.6406" style="stroke: #059669; stroke-width: 1.0;"/><line style="stroke: #059669; stroke-width: 1.0;" x1="389" x2="602.5" y1="338.6406" y2="338.6406"/><text fill="#000000" font-family="Segoe UI" font-size="13" lengthAdjust="spacingAndGlyphs" textLength="184" x="396" y="333.5747">SELECT parent WHERE id = ?</text><polygon fill="#059669" points="400,363.7734,390,367.7734,400,371.7734,396,367.7734" style="stroke: #059669; stroke-width: 1.0;"/><line style="stroke: #059669; stroke-width: 1.0; stroke-dasharray: 2.0,2.0;" x1="394" x2="612.5" y1="367.7734" y2="367.7734"/><text fill="#000000" font-family="Segoe UI" font-size="13" lengthAdjust="spacingAndGlyphs" textLength="68" x="406" y="362.7075">Parent row</text><path d="M618,380.7734 L618,405.7734 L785,405.7734 L785,390.7734 L775,380.7734 L618,380.7734 " fill="#FBFB77" style="stroke: #A80036; stroke-width: 1.0;"/><path d="M775,380.7734 L775,390.7734 L785,390.7734 L775,380.7734 " fill="#FBFB77" style="stroke: #A80036; stroke-width: 1.0;"/><text fill="#000000" font-family="Segoe UI" font-size="13" lengthAdjust="spacingAndGlyphs" textLength="146" x="624" y="397.8403">404 if parent not found</text><polygon fill="#059669" points="596.5,428.0391,606.5,432.0391,596.5,436.0391,600.5,432.0391" style="stroke: #059669; stroke-width: 1.0;"/><line style="stroke: #059669; stroke-width: 1.0;" x1="389" x2="602.5" y1="432.0391" y2="432.0391"/><text fill="#000000" font-family="Segoe UI" font-size="13" lengthAdjust="spacingAndGlyphs" textLength="95" x="396" y="426.9731">INSERT INTO ...</text><polygon fill="#059669" points="400,457.1719,390,461.1719,400,465.1719,396,461.1719" style="stroke: #059669; stroke-width: 1.0;"/><line style="stroke: #059669; stroke-width: 1.0; stroke-dasharray: 2.0,2.0;" x1="394" x2="612.5" y1="461.1719" y2="461.1719"/><text fill="#000000" font-family="Segoe UI" font-size="13" lengthAdjust="spacingAndGlyphs" textLength="77" x="406" y="456.106">Created row</text><rect fill="#EEEEEE" height="3" style="stroke: #EEEEEE; stroke-width: 1.0;" width="787" x="3" y="489.7383"/><line style="stroke: #000000; stroke-width: 1.0;" x1="3" x2="790" y1="489.7383" y2="489.7383"/><line style="stroke: #000000; stroke-width: 1.0;" x1="3" x2="790" y1="492.7383" y2="492.7383"/><rect fill="#EEEEEE" height="23.1328" style="stroke: #000000; stroke-width: 2.0;" width="116" x="338.5" y="479.1719"/><text fill="#000000" font-family="Segoe UI" font-size="13" font-weight="bold" lengthAdjust="spacingAndGlyphs" textLength="97" x="344.5" y="495.2388">Async Events</text><line style="stroke: #059669; stroke-width: 1.0;" x1="509" x2="499" y1="533.4375" y2="529.4375"/><line style="stroke: #059669; stroke-width: 1.0;" x1="509" x2="499" y1="533.4375" y2="537.4375"/><line style="stroke: #059669; stroke-width: 1.0;" x1="389" x2="510" y1="533.4375" y2="533.4375"/><a href="/microservices/svc-notifications/#post-notifications-send-a-notification" target="_top" title="/microservices/svc-notifications/#post-notifications-send-a-notification" xlink:actuate="onRequest" xlink:href="/microservices/svc-notifications/#post-notifications-send-a-notification" xlink:show="new" xlink:title="/microservices/svc-notifications/#post-notifications-send-a-notification" xlink:type="simple"><text fill="#0000FF" font-family="Segoe UI" font-size="13" lengthAdjust="spacingAndGlyphs" text-decoration="underline" textLength="98" x="396" y="528.3716">Send share link</text></a><polygon fill="#059669" points="274.5,558.5703,264.5,562.5703,274.5,566.5703,270.5,562.5703" style="stroke: #059669; stroke-width: 1.0;"/><line style="stroke: #059669; stroke-width: 1.0; stroke-dasharray: 2.0,2.0;" x1="268.5" x2="383" y1="562.5703" y2="562.5703"/><text fill="#000000" font-family="Segoe UI" font-size="13" lengthAdjust="spacingAndGlyphs" textLength="79" x="280.5" y="557.5044">201 Created</text><polygon fill="#059669" points="45.5,587.7031,35.5,591.7031,45.5,595.7031,41.5,591.7031" style="stroke: #059669; stroke-width: 1.0;"/><line style="stroke: #059669; stroke-width: 1.0; stroke-dasharray: 2.0,2.0;" x1="39.5" x2="257.5" y1="591.7031" y2="591.7031"/><text fill="#000000" font-family="Segoe UI" font-size="13" lengthAdjust="spacingAndGlyphs" textLength="79" x="51.5" y="586.6372">201 Created</text><a href="/microservices/svc-media-gallery/#integration-context" target="_top" title="/microservices/svc-media-gallery/#integration-context" xlink:actuate="onRequest" xlink:href="/microservices/svc-media-gallery/#integration-context" xlink:show="new" xlink:title="/microservices/svc-media-gallery/#integration-context" xlink:type="simple"><text fill="#0000FF" font-family="Segoe UI" font-size="10" lengthAdjust="spacingAndGlyphs" text-decoration="underline" textLength="196" x="594" y="12.2822">⬆ svc-media-gallery Integration Context</text></a><!--MD5=[992299a28acde7e39f5e7fa61e27fabd]
@startuml svc-media-gallery- -post-media-media_id-share

skinparam backgroundColor #FEFEFE
skinparam shadowing false
skinparam defaultFontName "Segoe UI"
skinparam sequence {
    ArrowColor #059669
    ParticipantBorderColor #374151
    ParticipantBackgroundColor #F9FAFB
    LifeLineBorderColor #6B7280
    BoxBorderColor #94A3B8
    BoxBackgroundColor #F8FAFC
    NoteBorderColor #64748B
    NoteBackgroundColor #F8FAFC
}

header [[/microservices/svc-media-gallery/#integration-context ⬆ svc-media-gallery Integration Context]]

title POST /media/{media_id}/share\nCreate a shareable link for a media item

participant "Client" as Client [[/applications/]]
participant "API Gateway" as GW [[/actors/#api-gateway]] #E0F2FE
participant "svc-media-gallery" as Svc [[/microservices/svc-media-gallery/]] #F1F5F9
participant "Notifications" as Ntfy [[/microservices/svc-notifications/]] #F1F5F9
database "PostgreSQL" as DB [[/microservices/svc-media-gallery/#data-store]] #FEF9C3

note over Svc
  [[/services/api/svc-media-gallery.html#/Sharing/createShareLink View in Swagger UI]]
end note

Client -> GW : POST /media/{media_id}/share
activate GW #059669
GW -> Svc : route request
activate Svc #059669

note right of Svc : Validate request body

== Database ==

Svc -> DB : SELECT parent WHERE id = ?
activate DB #FEF9C3
DB - -> Svc : Parent row
deactivate DB
note right of DB : 404 if parent not found

Svc -> DB : INSERT INTO ...
activate DB #FEF9C3
DB - -> Svc : Created row
deactivate DB

== Async Events ==

Svc ->> Ntfy : [[/microservices/svc-notifications/#post-notifications-send-a-notification Send share link]]

Svc - -> GW : 201 Created
deactivate Svc
GW - -> Client : 201 Created
deactivate GW

@enduml

PlantUML version 1.2020.02(Sun Mar 01 10:22:07 UTC 2020)
(GPL source distribution)
Java Runtime: OpenJDK Runtime Environment
JVM: OpenJDK 64-Bit Server VM
Java Version: 17.0.18+8
Operating System: Linux
Default Encoding: UTF-8
Language: en
Country: null
--></g></svg>