<?xml version="1.0" encoding="UTF-8" standalone="no"?><svg xmlns="http://www.w3.org/2000/svg" xmlns:xlink="http://www.w3.org/1999/xlink" contentScriptType="application/ecmascript" contentStyleType="text/css" height="517px" preserveAspectRatio="none" style="width:787px;height:517px;background:#FEFEFE;" version="1.1" viewBox="0 0 787 517" width="787px" zoomAndPan="magnify"><defs/><g><text fill="#000000" font-family="Segoe UI" font-size="18" lengthAdjust="spacingAndGlyphs" textLength="301" x="238.5" y="41.3486">GET /gear-packages/{package_id}</text><text fill="#000000" font-family="Segoe UI" font-size="18" lengthAdjust="spacingAndGlyphs" textLength="219" x="279.5" y="62.3018">Get gear package details</text><rect fill="#2563EB" height="223.9297" style="stroke: #6B7280; stroke-width: 1.0;" width="10" x="273.5" y="202.1094"/><rect fill="#2563EB" height="165.6641" style="stroke: #6B7280; stroke-width: 1.0;" width="10" x="403" y="231.2422"/><rect fill="#FEF9C3" height="29.1328" style="stroke: #6B7280; stroke-width: 1.0;" width="10" x="586" y="303.5078"/><line style="stroke: #6B7280; stroke-width: 1.0; stroke-dasharray: 5.0,5.0;" x1="34" x2="34" y1="135.8438" y2="444.0391"/><line style="stroke: #6B7280; stroke-width: 1.0; stroke-dasharray: 5.0,5.0;" x1="278.5" x2="278.5" y1="135.8438" y2="444.0391"/><line style="stroke: #6B7280; stroke-width: 1.0; stroke-dasharray: 5.0,5.0;" x1="407.5" x2="407.5" y1="135.8438" y2="444.0391"/><line style="stroke: #6B7280; stroke-width: 1.0; stroke-dasharray: 5.0,5.0;" x1="590.5" x2="590.5" y1="135.8438" y2="444.0391"/><a href="/applications/" target="_top" title="/applications/" xlink:actuate="onRequest" xlink:href="/applications/" xlink:show="new" xlink:title="/applications/" xlink:type="simple"><rect fill="#F9FAFB" height="30.2969" style="stroke: #374151; stroke-width: 1.5;" width="53" x="8" y="104.5469"/><text fill="#000000" font-family="Segoe UI" font-size="14" lengthAdjust="spacingAndGlyphs" textLength="39" x="15" y="124.542">Client</text><rect fill="#F9FAFB" height="30.2969" style="stroke: #374151; stroke-width: 1.5;" width="53" x="8" y="443.0391"/><text fill="#000000" font-family="Segoe UI" font-size="14" lengthAdjust="spacingAndGlyphs" textLength="39" x="15" y="463.0342">Client</text></a><a href="/actors/#api-gateway" target="_top" title="/actors/#api-gateway" xlink:actuate="onRequest" xlink:href="/actors/#api-gateway" xlink:show="new" xlink:title="/actors/#api-gateway" xlink:type="simple"><rect fill="#E0F2FE" height="30.2969" style="stroke: #374151; stroke-width: 1.5;" width="98" x="229.5" y="104.5469"/><text fill="#000000" font-family="Segoe UI" font-size="14" lengthAdjust="spacingAndGlyphs" textLength="84" x="236.5" y="124.542">API Gateway</text><rect fill="#E0F2FE" height="30.2969" style="stroke: #374151; stroke-width: 1.5;" width="98" x="229.5" y="443.0391"/><text fill="#000000" font-family="Segoe UI" font-size="14" lengthAdjust="spacingAndGlyphs" textLength="84" x="236.5" y="463.0342">API Gateway</text></a><a href="/microservices/svc-gear-inventory/" target="_top" title="/microservices/svc-gear-inventory/" xlink:actuate="onRequest" xlink:href="/microservices/svc-gear-inventory/" xlink:show="new" xlink:title="/microservices/svc-gear-inventory/" xlink:type="simple"><rect fill="#CFFAFE" height="30.2969" style="stroke: #374151; stroke-width: 1.5;" width="141" x="337.5" y="104.5469"/><text fill="#000000" font-family="Segoe UI" font-size="14" lengthAdjust="spacingAndGlyphs" textLength="127" x="344.5" y="124.542">svc-gear-inventory</text><rect fill="#CFFAFE" height="30.2969" style="stroke: #374151; stroke-width: 1.5;" width="141" x="337.5" y="443.0391"/><text fill="#000000" font-family="Segoe UI" font-size="14" lengthAdjust="spacingAndGlyphs" textLength="127" x="344.5" y="463.0342">svc-gear-inventory</text></a><a href="/microservices/svc-gear-inventory/#data-store" target="_top" title="/microservices/svc-gear-inventory/#data-store" xlink:actuate="onRequest" xlink:href="/microservices/svc-gear-inventory/#data-store" xlink:show="new" xlink:title="/microservices/svc-gear-inventory/#data-store" xlink:type="simple"><text fill="#000000" font-family="Segoe UI" font-size="14" lengthAdjust="spacingAndGlyphs" textLength="81" x="547.5" y="132.542">PostgreSQL</text><path d="M573,83.5469 C573,73.5469 591,73.5469 591,73.5469 C591,73.5469 609,73.5469 609,83.5469 L609,109.5469 C609,119.5469 591,119.5469 591,119.5469 C591,119.5469 573,119.5469 573,109.5469 L573,83.5469 " fill="#FEF9C3" style="stroke: #000000; stroke-width: 1.5;"/><path d="M573,83.5469 C573,93.5469 591,93.5469 591,93.5469 C591,93.5469 609,93.5469 609,83.5469 " fill="none" style="stroke: #000000; stroke-width: 1.5;"/><text fill="#000000" font-family="Segoe UI" font-size="14" lengthAdjust="spacingAndGlyphs" textLength="81" x="547.5" y="456.0342">PostgreSQL</text><path d="M573,469.3359 C573,459.3359 591,459.3359 591,459.3359 C591,459.3359 609,459.3359 609,469.3359 L609,495.3359 C609,505.3359 591,505.3359 591,505.3359 C591,505.3359 573,505.3359 573,495.3359 L573,469.3359 " fill="#FEF9C3" style="stroke: #000000; stroke-width: 1.5;"/><path d="M573,469.3359 C573,479.3359 591,479.3359 591,479.3359 C591,479.3359 609,479.3359 609,469.3359 " fill="none" style="stroke: #000000; stroke-width: 1.5;"/></a><rect fill="#2563EB" height="223.9297" style="stroke: #6B7280; stroke-width: 1.0;" width="10" x="273.5" y="202.1094"/><rect fill="#2563EB" height="165.6641" style="stroke: #6B7280; stroke-width: 1.0;" width="10" x="403" y="231.2422"/><rect fill="#FEF9C3" height="29.1328" style="stroke: #6B7280; stroke-width: 1.0;" width="10" x="586" y="303.5078"/><path d="M337,150.8438 L337,175.8438 L478,175.8438 L478,160.8438 L468,150.8438 L337,150.8438 " fill="#FBFB77" style="stroke: #A80036; stroke-width: 1.0;"/><path d="M468,150.8438 L468,160.8438 L478,160.8438 L468,150.8438 " fill="#FBFB77" style="stroke: #A80036; stroke-width: 1.0;"/><a href="/services/api/svc-gear-inventory.html#/Gear%20Packages/getGearPackage" target="_top" title="/services/api/svc-gear-inventory.html#/Gear%20Packages/getGearPackage" xlink:actuate="onRequest" xlink:href="/services/api/svc-gear-inventory.html#/Gear%20Packages/getGearPackage" xlink:show="new" xlink:title="/services/api/svc-gear-inventory.html#/Gear%20Packages/getGearPackage" xlink:type="simple"><text fill="#0000FF" font-family="Segoe UI" font-size="13" lengthAdjust="spacingAndGlyphs" text-decoration="underline" textLength="120" x="343" y="167.9106">View in Swagger UI</text></a><polygon fill="#2563EB" points="261.5,198.1094,271.5,202.1094,261.5,206.1094,265.5,202.1094" style="stroke: #2563EB; stroke-width: 1.0;"/><line style="stroke: #2563EB; stroke-width: 1.0;" x1="34.5" x2="267.5" y1="202.1094" y2="202.1094"/><text fill="#000000" font-family="Segoe UI" font-size="13" lengthAdjust="spacingAndGlyphs" textLength="220" x="41.5" y="197.0435">GET /gear-packages/{package_id}</text><polygon fill="#2563EB" points="391,227.2422,401,231.2422,391,235.2422,395,231.2422" style="stroke: #2563EB; stroke-width: 1.0;"/><line style="stroke: #2563EB; stroke-width: 1.0;" x1="283.5" x2="397" y1="231.2422" y2="231.2422"/><text fill="#000000" font-family="Segoe UI" font-size="13" lengthAdjust="spacingAndGlyphs" textLength="87" x="290.5" y="226.1763">route request</text><rect fill="#EEEEEE" height="3" style="stroke: #EEEEEE; stroke-width: 1.0;" width="772" x="3" y="259.8086"/><line style="stroke: #000000; stroke-width: 1.0;" x1="3" x2="775" y1="259.8086" y2="259.8086"/><line style="stroke: #000000; stroke-width: 1.0;" x1="3" x2="775" y1="262.8086" y2="262.8086"/><rect fill="#EEEEEE" height="23.1328" style="stroke: #000000; stroke-width: 2.0;" width="90" x="344" y="249.2422"/><text fill="#000000" font-family="Segoe UI" font-size="13" font-weight="bold" lengthAdjust="spacingAndGlyphs" textLength="71" x="350" y="265.3091">Database</text><polygon fill="#2563EB" points="574,299.5078,584,303.5078,574,307.5078,578,303.5078" style="stroke: #2563EB; stroke-width: 1.0;"/><line style="stroke: #2563EB; stroke-width: 1.0;" x1="413" x2="580" y1="303.5078" y2="303.5078"/><text fill="#000000" font-family="Segoe UI" font-size="13" lengthAdjust="spacingAndGlyphs" textLength="154" x="420" y="298.4419">SELECT ... WHERE id = ?</text><polygon fill="#2563EB" points="424,328.6406,414,332.6406,424,336.6406,420,332.6406" style="stroke: #2563EB; stroke-width: 1.0;"/><line style="stroke: #2563EB; stroke-width: 1.0; stroke-dasharray: 2.0,2.0;" x1="418" x2="590" y1="332.6406" y2="332.6406"/><text fill="#000000" font-family="Segoe UI" font-size="13" lengthAdjust="spacingAndGlyphs" textLength="25" x="430" y="327.5747">Row</text><path d="M596,345.6406 L596,370.6406 L770,370.6406 L770,355.6406 L760,345.6406 L596,345.6406 " fill="#FBFB77" style="stroke: #A80036; stroke-width: 1.0;"/><path d="M760,345.6406 L760,355.6406 L770,355.6406 L760,345.6406 " fill="#FBFB77" style="stroke: #A80036; stroke-width: 1.0;"/><text fill="#000000" font-family="Segoe UI" font-size="13" lengthAdjust="spacingAndGlyphs" textLength="153" x="602" y="362.7075">Returns 404 if not found</text><polygon fill="#2563EB" points="294.5,392.9063,284.5,396.9063,294.5,400.9063,290.5,396.9063" style="stroke: #2563EB; stroke-width: 1.0;"/><line style="stroke: #2563EB; stroke-width: 1.0; stroke-dasharray: 2.0,2.0;" x1="288.5" x2="407" y1="396.9063" y2="396.9063"/><text fill="#000000" font-family="Segoe UI" font-size="13" lengthAdjust="spacingAndGlyphs" textLength="46" x="300.5" y="391.8403">200 OK</text><polygon fill="#2563EB" points="45.5,422.0391,35.5,426.0391,45.5,430.0391,41.5,426.0391" style="stroke: #2563EB; stroke-width: 1.0;"/><line style="stroke: #2563EB; stroke-width: 1.0; stroke-dasharray: 2.0,2.0;" x1="39.5" x2="277.5" y1="426.0391" y2="426.0391"/><text fill="#000000" font-family="Segoe UI" font-size="13" lengthAdjust="spacingAndGlyphs" textLength="46" x="51.5" y="420.9731">200 OK</text><a href="/microservices/svc-gear-inventory/#integration-context" target="_top" title="/microservices/svc-gear-inventory/#integration-context" xlink:actuate="onRequest" xlink:href="/microservices/svc-gear-inventory/#integration-context" xlink:show="new" xlink:title="/microservices/svc-gear-inventory/#integration-context" xlink:type="simple"><text fill="#0000FF" font-family="Segoe UI" font-size="10" lengthAdjust="spacingAndGlyphs" text-decoration="underline" textLength="202" x="573" y="12.2822">⬆ svc-gear-inventory Integration Context</text></a><!--MD5=[d28de947edb080919c09f90fe3b3871d]
@startuml svc-gear-inventory- -get-gear-packages-package_id

skinparam backgroundColor #FEFEFE
skinparam shadowing false
skinparam defaultFontName "Segoe UI"
skinparam sequence {
    ArrowColor #2563eb
    ParticipantBorderColor #374151
    ParticipantBackgroundColor #F9FAFB
    LifeLineBorderColor #6B7280
    BoxBorderColor #94A3B8
    BoxBackgroundColor #F8FAFC
    NoteBorderColor #64748B
    NoteBackgroundColor #F8FAFC
}

header [[/microservices/svc-gear-inventory/#integration-context ⬆ svc-gear-inventory Integration Context]]

title GET /gear-packages/{package_id}\nGet gear package details

participant "Client" as Client [[/applications/]]
participant "API Gateway" as GW [[/actors/#api-gateway]] #E0F2FE
participant "svc-gear-inventory" as Svc [[/microservices/svc-gear-inventory/]] #CFFAFE
database "PostgreSQL" as DB [[/microservices/svc-gear-inventory/#data-store]] #FEF9C3

note over Svc
  [[/services/api/svc-gear-inventory.html#/Gear%20Packages/getGearPackage View in Swagger UI]]
end note

Client -> GW : GET /gear-packages/{package_id}
activate GW #2563eb
GW -> Svc : route request
activate Svc #2563eb

== Database ==

Svc -> DB : SELECT ... WHERE id = ?
activate DB #FEF9C3
DB - -> Svc : Row
deactivate DB
note right of DB : Returns 404 if not found

Svc - -> GW : 200 OK
deactivate Svc
GW - -> Client : 200 OK
deactivate GW

@enduml

PlantUML version 1.2020.02(Sun Mar 01 10:22:07 UTC 2020)
(GPL source distribution)
Java Runtime: OpenJDK Runtime Environment
JVM: OpenJDK 64-Bit Server VM
Java Version: 17.0.18+8
Operating System: Linux
Default Encoding: UTF-8
Language: en
Country: null
--></g></svg>