<?xml version="1.0" encoding="UTF-8" standalone="no"?><svg xmlns="http://www.w3.org/2000/svg" xmlns:xlink="http://www.w3.org/1999/xlink" contentScriptType="application/ecmascript" contentStyleType="text/css" height="517px" preserveAspectRatio="none" style="width:753px;height:517px;background:#FEFEFE;" version="1.1" viewBox="0 0 753 517" width="753px" zoomAndPan="magnify"><defs/><g><text fill="#000000" font-family="Segoe UI" font-size="18" lengthAdjust="spacingAndGlyphs" textLength="248" x="248" y="41.3486">GET /locations/{location_id}</text><text fill="#000000" font-family="Segoe UI" font-size="18" lengthAdjust="spacingAndGlyphs" textLength="170" x="287" y="62.3018">Get location details</text><rect fill="#2563EB" height="223.9297" style="stroke: #6B7280; stroke-width: 1.0;" width="10" x="231.5" y="202.1094"/><rect fill="#2563EB" height="165.6641" style="stroke: #6B7280; stroke-width: 1.0;" width="10" x="369.5" y="231.2422"/><rect fill="#FEF9C3" height="29.1328" style="stroke: #6B7280; stroke-width: 1.0;" width="10" x="552.5" y="303.5078"/><line style="stroke: #6B7280; stroke-width: 1.0; stroke-dasharray: 5.0,5.0;" x1="34" x2="34" y1="135.8438" y2="444.0391"/><line style="stroke: #6B7280; stroke-width: 1.0; stroke-dasharray: 5.0,5.0;" x1="236.5" x2="236.5" y1="135.8438" y2="444.0391"/><line style="stroke: #6B7280; stroke-width: 1.0; stroke-dasharray: 5.0,5.0;" x1="374.5" x2="374.5" y1="135.8438" y2="444.0391"/><line style="stroke: #6B7280; stroke-width: 1.0; stroke-dasharray: 5.0,5.0;" x1="557.5" x2="557.5" y1="135.8438" y2="444.0391"/><a href="/applications/" target="_top" title="/applications/" xlink:actuate="onRequest" xlink:href="/applications/" xlink:show="new" xlink:title="/applications/" xlink:type="simple"><rect fill="#F9FAFB" height="30.2969" style="stroke: #374151; stroke-width: 1.5;" width="53" x="8" y="104.5469"/><text fill="#000000" font-family="Segoe UI" font-size="14" lengthAdjust="spacingAndGlyphs" textLength="39" x="15" y="124.542">Client</text><rect fill="#F9FAFB" height="30.2969" style="stroke: #374151; stroke-width: 1.5;" width="53" x="8" y="443.0391"/><text fill="#000000" font-family="Segoe UI" font-size="14" lengthAdjust="spacingAndGlyphs" textLength="39" x="15" y="463.0342">Client</text></a><a href="/actors/#api-gateway" target="_top" title="/actors/#api-gateway" xlink:actuate="onRequest" xlink:href="/actors/#api-gateway" xlink:show="new" xlink:title="/actors/#api-gateway" xlink:type="simple"><rect fill="#E0F2FE" height="30.2969" style="stroke: #374151; stroke-width: 1.5;" width="98" x="187.5" y="104.5469"/><text fill="#000000" font-family="Segoe UI" font-size="14" lengthAdjust="spacingAndGlyphs" textLength="84" x="194.5" y="124.542">API Gateway</text><rect fill="#E0F2FE" height="30.2969" style="stroke: #374151; stroke-width: 1.5;" width="98" x="187.5" y="443.0391"/><text fill="#000000" font-family="Segoe UI" font-size="14" lengthAdjust="spacingAndGlyphs" textLength="84" x="194.5" y="463.0342">API Gateway</text></a><a href="/microservices/svc-location-services/" target="_top" title="/microservices/svc-location-services/" xlink:actuate="onRequest" xlink:href="/microservices/svc-location-services/" xlink:show="new" xlink:title="/microservices/svc-location-services/" xlink:type="simple"><rect fill="#F1F5F9" height="30.2969" style="stroke: #374151; stroke-width: 1.5;" width="158" x="295.5" y="104.5469"/><text fill="#000000" font-family="Segoe UI" font-size="14" lengthAdjust="spacingAndGlyphs" textLength="144" x="302.5" y="124.542">svc-location-services</text><rect fill="#F1F5F9" height="30.2969" style="stroke: #374151; stroke-width: 1.5;" width="158" x="295.5" y="443.0391"/><text fill="#000000" font-family="Segoe UI" font-size="14" lengthAdjust="spacingAndGlyphs" textLength="144" x="302.5" y="463.0342">svc-location-services</text></a><a href="/microservices/svc-location-services/#data-store" target="_top" title="/microservices/svc-location-services/#data-store" xlink:actuate="onRequest" xlink:href="/microservices/svc-location-services/#data-store" xlink:show="new" xlink:title="/microservices/svc-location-services/#data-store" xlink:type="simple"><text fill="#000000" font-family="Segoe UI" font-size="14" lengthAdjust="spacingAndGlyphs" textLength="54" x="527.5" y="132.542">PostGIS</text><path d="M539.5,83.5469 C539.5,73.5469 557.5,73.5469 557.5,73.5469 C557.5,73.5469 575.5,73.5469 575.5,83.5469 L575.5,109.5469 C575.5,119.5469 557.5,119.5469 557.5,119.5469 C557.5,119.5469 539.5,119.5469 539.5,109.5469 L539.5,83.5469 " fill="#FEF9C3" style="stroke: #000000; stroke-width: 1.5;"/><path d="M539.5,83.5469 C539.5,93.5469 557.5,93.5469 557.5,93.5469 C557.5,93.5469 575.5,93.5469 575.5,83.5469 " fill="none" style="stroke: #000000; stroke-width: 1.5;"/><text fill="#000000" font-family="Segoe UI" font-size="14" lengthAdjust="spacingAndGlyphs" textLength="54" x="527.5" y="456.0342">PostGIS</text><path d="M539.5,469.3359 C539.5,459.3359 557.5,459.3359 557.5,459.3359 C557.5,459.3359 575.5,459.3359 575.5,469.3359 L575.5,495.3359 C575.5,505.3359 557.5,505.3359 557.5,505.3359 C557.5,505.3359 539.5,505.3359 539.5,495.3359 L539.5,469.3359 " fill="#FEF9C3" style="stroke: #000000; stroke-width: 1.5;"/><path d="M539.5,469.3359 C539.5,479.3359 557.5,479.3359 557.5,479.3359 C557.5,479.3359 575.5,479.3359 575.5,469.3359 " fill="none" style="stroke: #000000; stroke-width: 1.5;"/></a><rect fill="#2563EB" height="223.9297" style="stroke: #6B7280; stroke-width: 1.0;" width="10" x="231.5" y="202.1094"/><rect fill="#2563EB" height="165.6641" style="stroke: #6B7280; stroke-width: 1.0;" width="10" x="369.5" y="231.2422"/><rect fill="#FEF9C3" height="29.1328" style="stroke: #6B7280; stroke-width: 1.0;" width="10" x="552.5" y="303.5078"/><path d="M304,150.8438 L304,175.8438 L445,175.8438 L445,160.8438 L435,150.8438 L304,150.8438 " fill="#FBFB77" style="stroke: #A80036; stroke-width: 1.0;"/><path d="M435,150.8438 L435,160.8438 L445,160.8438 L435,150.8438 " fill="#FBFB77" style="stroke: #A80036; stroke-width: 1.0;"/><a href="/services/api/svc-location-services.html" target="_top" title="/services/api/svc-location-services.html" xlink:actuate="onRequest" xlink:href="/services/api/svc-location-services.html" xlink:show="new" xlink:title="/services/api/svc-location-services.html" xlink:type="simple"><text fill="#0000FF" font-family="Segoe UI" font-size="13" lengthAdjust="spacingAndGlyphs" text-decoration="underline" textLength="120" x="310" y="167.9106">View in Swagger UI</text></a><polygon fill="#2563EB" points="219.5,198.1094,229.5,202.1094,219.5,206.1094,223.5,202.1094" style="stroke: #2563EB; stroke-width: 1.0;"/><line style="stroke: #2563EB; stroke-width: 1.0;" x1="34.5" x2="225.5" y1="202.1094" y2="202.1094"/><text fill="#000000" font-family="Segoe UI" font-size="13" lengthAdjust="spacingAndGlyphs" textLength="178" x="41.5" y="197.0435">GET /locations/{location_id}</text><polygon fill="#2563EB" points="357.5,227.2422,367.5,231.2422,357.5,235.2422,361.5,231.2422" style="stroke: #2563EB; stroke-width: 1.0;"/><line style="stroke: #2563EB; stroke-width: 1.0;" x1="241.5" x2="363.5" y1="231.2422" y2="231.2422"/><text fill="#000000" font-family="Segoe UI" font-size="13" lengthAdjust="spacingAndGlyphs" textLength="87" x="248.5" y="226.1763">route request</text><rect fill="#EEEEEE" height="3" style="stroke: #EEEEEE; stroke-width: 1.0;" width="738" x="3" y="259.8086"/><line style="stroke: #000000; stroke-width: 1.0;" x1="3" x2="741" y1="259.8086" y2="259.8086"/><line style="stroke: #000000; stroke-width: 1.0;" x1="3" x2="741" y1="262.8086" y2="262.8086"/><rect fill="#EEEEEE" height="23.1328" style="stroke: #000000; stroke-width: 2.0;" width="90" x="327" y="249.2422"/><text fill="#000000" font-family="Segoe UI" font-size="13" font-weight="bold" lengthAdjust="spacingAndGlyphs" textLength="71" x="333" y="265.3091">Database</text><polygon fill="#2563EB" points="540.5,299.5078,550.5,303.5078,540.5,307.5078,544.5,303.5078" style="stroke: #2563EB; stroke-width: 1.0;"/><line style="stroke: #2563EB; stroke-width: 1.0;" x1="379.5" x2="546.5" y1="303.5078" y2="303.5078"/><text fill="#000000" font-family="Segoe UI" font-size="13" lengthAdjust="spacingAndGlyphs" textLength="154" x="386.5" y="298.4419">SELECT ... WHERE id = ?</text><polygon fill="#2563EB" points="390.5,328.6406,380.5,332.6406,390.5,336.6406,386.5,332.6406" style="stroke: #2563EB; stroke-width: 1.0;"/><line style="stroke: #2563EB; stroke-width: 1.0; stroke-dasharray: 2.0,2.0;" x1="384.5" x2="556.5" y1="332.6406" y2="332.6406"/><text fill="#000000" font-family="Segoe UI" font-size="13" lengthAdjust="spacingAndGlyphs" textLength="25" x="396.5" y="327.5747">Row</text><path d="M562,345.6406 L562,370.6406 L736,370.6406 L736,355.6406 L726,345.6406 L562,345.6406 " fill="#FBFB77" style="stroke: #A80036; stroke-width: 1.0;"/><path d="M726,345.6406 L726,355.6406 L736,355.6406 L726,345.6406 " fill="#FBFB77" style="stroke: #A80036; stroke-width: 1.0;"/><text fill="#000000" font-family="Segoe UI" font-size="13" lengthAdjust="spacingAndGlyphs" textLength="153" x="568" y="362.7075">Returns 404 if not found</text><polygon fill="#2563EB" points="252.5,392.9063,242.5,396.9063,252.5,400.9063,248.5,396.9063" style="stroke: #2563EB; stroke-width: 1.0;"/><line style="stroke: #2563EB; stroke-width: 1.0; stroke-dasharray: 2.0,2.0;" x1="246.5" x2="373.5" y1="396.9063" y2="396.9063"/><text fill="#000000" font-family="Segoe UI" font-size="13" lengthAdjust="spacingAndGlyphs" textLength="46" x="258.5" y="391.8403">200 OK</text><polygon fill="#2563EB" points="45.5,422.0391,35.5,426.0391,45.5,430.0391,41.5,426.0391" style="stroke: #2563EB; stroke-width: 1.0;"/><line style="stroke: #2563EB; stroke-width: 1.0; stroke-dasharray: 2.0,2.0;" x1="39.5" x2="235.5" y1="426.0391" y2="426.0391"/><text fill="#000000" font-family="Segoe UI" font-size="13" lengthAdjust="spacingAndGlyphs" textLength="46" x="51.5" y="420.9731">200 OK</text><a href="/microservices/svc-location-services/#integration-context" target="_top" title="/microservices/svc-location-services/#integration-context" xlink:actuate="onRequest" xlink:href="/microservices/svc-location-services/#integration-context" xlink:show="new" xlink:title="/microservices/svc-location-services/#integration-context" xlink:type="simple"><text fill="#0000FF" font-family="Segoe UI" font-size="10" lengthAdjust="spacingAndGlyphs" text-decoration="underline" textLength="210" x="531" y="12.2822">⬆ svc-location-services Integration Context</text></a><!--MD5=[5bfdb1e9927b114b729fe3a317806e00]
@startuml svc-location-services- -get-locations-location_id

skinparam backgroundColor #FEFEFE
skinparam shadowing false
skinparam defaultFontName "Segoe UI"
skinparam sequence {
    ArrowColor #2563eb
    ParticipantBorderColor #374151
    ParticipantBackgroundColor #F9FAFB
    LifeLineBorderColor #6B7280
    BoxBorderColor #94A3B8
    BoxBackgroundColor #F8FAFC
    NoteBorderColor #64748B
    NoteBackgroundColor #F8FAFC
}

header [[/microservices/svc-location-services/#integration-context ⬆ svc-location-services Integration Context]]

title GET /locations/{location_id}\nGet location details

participant "Client" as Client [[/applications/]]
participant "API Gateway" as GW [[/actors/#api-gateway]] #E0F2FE
participant "svc-location-services" as Svc [[/microservices/svc-location-services/]] #F1F5F9
database "PostGIS" as DB [[/microservices/svc-location-services/#data-store]] #FEF9C3

note over Svc
  [[/services/api/svc-location-services.html View in Swagger UI]]
end note

Client -> GW : GET /locations/{location_id}
activate GW #2563eb
GW -> Svc : route request
activate Svc #2563eb

== Database ==

Svc -> DB : SELECT ... WHERE id = ?
activate DB #FEF9C3
DB - -> Svc : Row
deactivate DB
note right of DB : Returns 404 if not found

Svc - -> GW : 200 OK
deactivate Svc
GW - -> Client : 200 OK
deactivate GW

@enduml

PlantUML version 1.2020.02(Sun Mar 01 10:22:07 UTC 2020)
(GPL source distribution)
Java Runtime: OpenJDK Runtime Environment
JVM: OpenJDK 64-Bit Server VM
Java Version: 17.0.18+8
Operating System: Linux
Default Encoding: UTF-8
Language: en
Country: null
--></g></svg>