<svg xmlns="http://www.w3.org/2000/svg" xmlns:xlink="http://www.w3.org/1999/xlink" contentStyleType="text/css" data-diagram-type="SEQUENCE" height="474px" preserveAspectRatio="none" style="width:573px;height:474px;background:#FEFEFE;" version="1.1" viewBox="0 0 573 474" width="573px" zoomAndPan="magnify"><title>GET /analytics/safety-metrics</title><defs/><g><rect fill="#FEFEFE" height="474" style="stroke:none;stroke-width:1;" width="573" x="0" y="0"/><text fill="#000000" font-family="Segoe UI" font-size="14" font-weight="bold" lengthAdjust="spacing" textLength="219.584" x="173.0662" y="28.5352">GET /analytics/safety-metrics</text><text fill="#000000" font-family="Segoe UI" font-size="14" font-weight="bold" lengthAdjust="spacing" textLength="225.2988" x="170.2087" y="45.0234">Get safety and incident metrics</text><g><title>API Gateway</title><rect fill="#2563EB" height="189.8633" style="stroke:#A23B72;stroke-width:1;" width="10" x="239.6523" y="188.0859"/></g><g><title>svc-analytics</title><rect fill="#2563EB" height="131.2422" style="stroke:#A23B72;stroke-width:1;" width="10" x="353.7871" y="217.3965"/></g><g><title>Oracle</title><rect fill="#FCE4EC" height="29.3105" style="stroke:#A23B72;stroke-width:1;" width="10" x="532.0396" y="290.0176"/></g><g><title>Client</title><rect fill="#000000" fill-opacity="0.00000" height="274.4844" width="8" x="27.7524" y="121.4648"/><line style="stroke:#A23B72;stroke-width:0.5;stroke-dasharray:5,5;" x1="31" x2="31" y1="121.4648" y2="395.9492"/></g><g><title>API Gateway</title><rect fill="#000000" fill-opacity="0.00000" height="274.4844" width="8" x="240.6523" y="121.4648"/><line style="stroke:#A23B72;stroke-width:0.5;stroke-dasharray:5,5;" x1="244.3633" x2="244.3633" y1="121.4648" y2="395.9492"/></g><g><title>svc-analytics</title><rect fill="#000000" fill-opacity="0.00000" height="274.4844" width="8" x="354.7871" y="121.4648"/><line style="stroke:#A23B72;stroke-width:0.5;stroke-dasharray:5,5;" x1="358.4082" x2="358.4082" y1="121.4648" y2="395.9492"/></g><g><title>Oracle</title><rect fill="#000000" fill-opacity="0.00000" height="274.4844" width="8" x="533.0396" y="121.4648"/><line style="stroke:#A23B72;stroke-width:0.5;stroke-dasharray:5,5;" x1="536.3628" x2="536.3628" y1="121.4648" y2="395.9492"/></g><g class="participant participant-head" data-participant="Client"><rect fill="#E8F4F8" height="30.4883" rx="2.5" ry="2.5" style="stroke:#2E86AB;stroke-width:0.5;" width="53.5049" x="5" y="89.9766"/><text fill="#000000" font-family="Segoe UI" font-size="14" lengthAdjust="spacing" textLength="39.5049" x="12" y="110.5117">Client</text></g><g class="participant participant-tail" data-participant="Client"><rect fill="#E8F4F8" height="30.4883" rx="2.5" ry="2.5" style="stroke:#2E86AB;stroke-width:0.5;" width="53.5049" x="5" y="394.9492"/><text fill="#000000" font-family="Segoe UI" font-size="14" lengthAdjust="spacing" textLength="39.5049" x="12" y="415.4844">Client</text></g><g class="participant participant-head" data-participant="GW"><rect fill="#DBEAFE" height="30.4883" rx="2.5" ry="2.5" style="stroke:#2E86AB;stroke-width:0.5;" width="96.5781" x="196.3633" y="89.9766"/><text fill="#000000" font-family="Segoe UI" font-size="14" lengthAdjust="spacing" textLength="82.5781" x="203.3633" y="110.5117">API Gateway</text></g><g class="participant participant-tail" data-participant="GW"><rect fill="#DBEAFE" height="30.4883" rx="2.5" ry="2.5" style="stroke:#2E86AB;stroke-width:0.5;" width="96.5781" x="196.3633" y="394.9492"/><text fill="#000000" font-family="Segoe UI" font-size="14" lengthAdjust="spacing" textLength="82.5781" x="203.3633" y="415.4844">API Gateway</text></g><g class="participant participant-head" data-participant="Svc"><a href="/microservices/svc-analytics/" target="_top" title="/microservices/svc-analytics/" xlink:actuate="onRequest" xlink:href="/microservices/svc-analytics/" xlink:show="new" xlink:title="/microservices/svc-analytics/" xlink:type="simple"><rect fill="#E8F4F8" height="30.4883" rx="2.5" ry="2.5" style="stroke:#2E86AB;stroke-width:0.5;" width="102.7578" x="307.4082" y="89.9766"/><text fill="#000000" font-family="Segoe UI" font-size="14" lengthAdjust="spacing" textLength="88.7578" x="314.4082" y="110.5117">svc-analytics</text></a></g><g class="participant participant-tail" data-participant="Svc"><a href="/microservices/svc-analytics/" target="_top" title="/microservices/svc-analytics/" xlink:actuate="onRequest" xlink:href="/microservices/svc-analytics/" xlink:show="new" xlink:title="/microservices/svc-analytics/" xlink:type="simple"><rect fill="#E8F4F8" height="30.4883" rx="2.5" ry="2.5" style="stroke:#2E86AB;stroke-width:0.5;" width="102.7578" x="307.4082" y="394.9492"/><text fill="#000000" font-family="Segoe UI" font-size="14" lengthAdjust="spacing" textLength="88.7578" x="314.4082" y="415.4844">svc-analytics</text></a></g><g class="participant participant-head" data-participant="DB"><text fill="#000000" font-family="Segoe UI" font-size="14" lengthAdjust="spacing" textLength="43.3535" x="512.3628" y="118.5117">Oracle</text><path d="M519.0396,68.9766 C519.0396,58.9766 537.0396,58.9766 537.0396,58.9766 C537.0396,58.9766 555.0396,58.9766 555.0396,68.9766 L555.0396,94.9766 C555.0396,104.9766 537.0396,104.9766 537.0396,104.9766 C537.0396,104.9766 519.0396,104.9766 519.0396,94.9766 L519.0396,68.9766" fill="#FCE4EC" style="stroke:#181818;stroke-width:0.5;"/><path d="M519.0396,68.9766 C519.0396,78.9766 537.0396,78.9766 537.0396,78.9766 C537.0396,78.9766 555.0396,78.9766 555.0396,68.9766" fill="none" style="stroke:#181818;stroke-width:0.5;"/></g><g class="participant participant-tail" data-participant="DB"><text fill="#000000" font-family="Segoe UI" font-size="14" lengthAdjust="spacing" textLength="43.3535" x="512.3628" y="408.4844">Oracle</text><path d="M519.0396,421.4375 C519.0396,411.4375 537.0396,411.4375 537.0396,411.4375 C537.0396,411.4375 555.0396,411.4375 555.0396,421.4375 L555.0396,447.4375 C555.0396,457.4375 537.0396,457.4375 537.0396,457.4375 C537.0396,457.4375 519.0396,457.4375 519.0396,447.4375 L519.0396,421.4375" fill="#FCE4EC" style="stroke:#181818;stroke-width:0.5;"/><path d="M519.0396,421.4375 C519.0396,431.4375 537.0396,431.4375 537.0396,431.4375 C537.0396,431.4375 555.0396,431.4375 555.0396,421.4375" fill="none" style="stroke:#181818;stroke-width:0.5;"/></g><g><title>API Gateway</title><rect fill="#2563EB" height="189.8633" style="stroke:#A23B72;stroke-width:1;" width="10" x="239.6523" y="188.0859"/></g><g><title>svc-analytics</title><rect fill="#2563EB" height="131.2422" style="stroke:#A23B72;stroke-width:1;" width="10" x="353.7871" y="217.3965"/></g><g><title>Oracle</title><rect fill="#FCE4EC" height="29.3105" style="stroke:#A23B72;stroke-width:1;" width="10" x="532.0396" y="290.0176"/></g><path d="M288,136.4648 L288,161.4648 L428,161.4648 L428,146.4648 L418,136.4648 L288,136.4648" fill="#FEFFDD" style="stroke:#181818;stroke-width:0.5;"/><path d="M418,136.4648 L418,146.4648 L428,146.4648 L418,136.4648" fill="#FEFFDD" style="stroke:#181818;stroke-width:0.5;"/><a href="/services/api/svc-analytics.html#/Safety/getSafetyMetrics" target="_top" title="/services/api/svc-analytics.html#/Safety/getSafetyMetrics" xlink:actuate="onRequest" xlink:href="/services/api/svc-analytics.html#/Safety/getSafetyMetrics" xlink:show="new" xlink:title="/services/api/svc-analytics.html#/Safety/getSafetyMetrics" xlink:type="simple"><text fill="#0000FF" font-family="Segoe UI" font-size="13" lengthAdjust="spacing" text-decoration="underline" textLength="119.4058" x="294" y="154.0332">View in Swagger UI</text></a><g class="message" data-participant-1="Client" data-participant-2="GW"><polygon fill="#2563EB" points="227.6523,184.0859,237.6523,188.0859,227.6523,192.0859,231.6523,188.0859" style="stroke:#2563EB;stroke-width:1;"/><line style="stroke:#2563EB;stroke-width:1;" x1="31.7524" x2="233.6523" y1="188.0859" y2="188.0859"/><text fill="#000000" font-family="Segoe UI" font-size="13" lengthAdjust="spacing" textLength="188.8999" x="38.7524" y="183.3438">GET /analytics/safety-metrics</text></g><g class="message" data-participant-1="GW" data-participant-2="Svc"><polygon fill="#2563EB" points="341.7871,213.3965,351.7871,217.3965,341.7871,221.3965,345.7871,217.3965" style="stroke:#2563EB;stroke-width:1;"/><line style="stroke:#2563EB;stroke-width:1;" x1="249.6523" x2="347.7871" y1="217.3965" y2="217.3965"/><text fill="#000000" font-family="Segoe UI" font-size="13" lengthAdjust="spacing" textLength="85.1348" x="256.6523" y="212.6543">route request</text></g><rect fill="#EEEEEE" height="3" style="stroke:#EEEEEE;stroke-width:1;" width="566.7163" x="0" y="246.0518"/><line style="stroke:#000000;stroke-width:1;" x1="0" x2="566.7163" y1="246.0518" y2="246.0518"/><line style="stroke:#000000;stroke-width:1;" x1="0" x2="566.7163" y1="249.0518" y2="249.0518"/><rect fill="#EEEEEE" height="23.3105" style="stroke:#000000;stroke-width:2;" width="80.3711" x="243.1726" y="235.3965"/><text fill="#000000" font-family="Segoe UI" font-size="13" font-weight="bold" lengthAdjust="spacing" textLength="62.0864" x="249.1726" y="251.9648">Database</text><g class="message" data-participant-1="Svc" data-participant-2="DB"><polygon fill="#2563EB" points="520.0396,286.0176,530.0396,290.0176,520.0396,294.0176,524.0396,290.0176" style="stroke:#2563EB;stroke-width:1;"/><line style="stroke:#2563EB;stroke-width:1;" x1="363.7871" x2="526.0396" y1="290.0176" y2="290.0176"/><text fill="#000000" font-family="Segoe UI" font-size="13" lengthAdjust="spacing" textLength="149.2524" x="370.7871" y="285.2754">SELECT ... WHERE filters</text></g><g class="message" data-participant-1="DB" data-participant-2="Svc"><polygon fill="#2563EB" points="374.7871,315.3281,364.7871,319.3281,374.7871,323.3281,370.7871,319.3281" style="stroke:#2563EB;stroke-width:1;"/><line style="stroke:#2563EB;stroke-width:1;stroke-dasharray:2,2;" x1="368.7871" x2="536.0396" y1="319.3281" y2="319.3281"/><text fill="#000000" font-family="Segoe UI" font-size="13" lengthAdjust="spacing" textLength="93.209" x="380.7871" y="314.5859">Page of results</text></g><g class="message" data-participant-1="Svc" data-participant-2="GW"><polygon fill="#2563EB" points="260.6523,344.6387,250.6523,348.6387,260.6523,352.6387,256.6523,348.6387" style="stroke:#2563EB;stroke-width:1;"/><line style="stroke:#2563EB;stroke-width:1;stroke-dasharray:2,2;" x1="254.6523" x2="357.7871" y1="348.6387" y2="348.6387"/><text fill="#000000" font-family="Segoe UI" font-size="13" lengthAdjust="spacing" textLength="47.3599" x="266.6523" y="343.8965">200 OK</text></g><g class="message" data-participant-1="GW" data-participant-2="Client"><polygon fill="#2563EB" points="42.7524,373.9492,32.7524,377.9492,42.7524,381.9492,38.7524,377.9492" style="stroke:#2563EB;stroke-width:1;"/><line style="stroke:#2563EB;stroke-width:1;stroke-dasharray:2,2;" x1="36.7524" x2="243.6523" y1="377.9492" y2="377.9492"/><text fill="#000000" font-family="Segoe UI" font-size="13" lengthAdjust="spacing" textLength="47.3599" x="48.7524" y="373.207">200 OK</text></g><!--SRC=[VPDVRzem5CNV_Icku1b2eIi8YKdyIHWQQz5enqF7moMvIQq6czak54txxhi9a2PhjUJ5yJa-r_TdnpvBjKE3MzXW-9mO_QAYiKwrWNhWPw-mXSC-OQGFKYKGOsgff4GKuqlg0gtSBMu9QajADC73h5PUJhzUI8K4lmNmCpH67ywbsfzkEhJ9fnTed0pb3fKRQHEHkLZytirmzCxoxwRzNd0Tz7BRNCOqbuegCSDsPzHjv_f8lrQauAeNjAuAwHsE860zbs-rgwQ6tUwcKz8-GDdnk-AF44wwb63gtuE72jCZDs8zYp6vOsDBpl3dJpKb1wSvG1M1LA6CI3au6uJOlH60sZYLBDO0BPo6LNcucC4K7Htmc7kcAwXFHlwGZxRYi_kmKMmfToxt8Jm-UbiP6ct9x6L8lDUopLkl2-GHEjoWvSE_CnYcb4TCHjpysB_snq8e9WDwJoOBPbOSNQJYJbQJcqzkczQzPKx1IyYTHjzE1E27f0DpWUK1auGJ7sRhjI1cbHKHuiG16f-pRll_noqmT7BFW78ovvl8GrwS0UW37oIB9hkzrhsvC_5Y5uC1J2xz3mP2P287SFjzMFfpVtmFpMOJLb_yxpx4CdLaIeLBb7ZOA2elC65YCTUs_7TP4L5foRd8fSTsgmLtNykMZ7BM1plEF3voJLVYBm00]--></g></svg>