<svg xmlns="http://www.w3.org/2000/svg" xmlns:xlink="http://www.w3.org/1999/xlink" contentStyleType="text/css" data-diagram-type="SEQUENCE" height="522px" preserveAspectRatio="none" style="width:725px;height:522px;background:#FEFEFE;" version="1.1" viewBox="0 0 725 522" width="725px" zoomAndPan="magnify"><title>GET /gear-items/{item_id}</title><defs/><g><rect fill="#FEFEFE" height="522" style="stroke:none;stroke-width:1;" width="725" x="0" y="0"/><text fill="#000000" font-family="Segoe UI" font-size="14" font-weight="bold" lengthAdjust="spacing" textLength="193.0605" x="261.9983" y="41.3125">GET /gear-items/{item_id}</text><text fill="#000000" font-family="Segoe UI" font-size="14" font-weight="bold" lengthAdjust="spacing" textLength="150.6025" x="283.2273" y="57.8008">Get gear item details</text><g><title>API Gateway</title><rect fill="#2563EB" height="225.1738" style="stroke:#A23B72;stroke-width:1;" width="10" x="218.0513" y="200.8633"/></g><g><title>svc-gear-inventory</title><rect fill="#2563EB" height="166.5527" style="stroke:#A23B72;stroke-width:1;" width="10" x="348.8867" y="230.1738"/></g><g><title>PostgreSQL</title><rect fill="#FCE4EC" height="29.3105" style="stroke:#A23B72;stroke-width:1;" width="10" x="526.7773" y="302.7949"/></g><g><title>Client</title><rect fill="#000000" fill-opacity="0.00000" height="309.7949" width="8" x="27.7524" y="134.2422"/><line style="stroke:#A23B72;stroke-width:0.5;stroke-dasharray:5,5;" x1="31" x2="31" y1="134.2422" y2="444.0371"/></g><g><title>API Gateway</title><rect fill="#000000" fill-opacity="0.00000" height="309.7949" width="8" x="219.0513" y="134.2422"/><line style="stroke:#A23B72;stroke-width:0.5;stroke-dasharray:5,5;" x1="222.7622" x2="222.7622" y1="134.2422" y2="444.0371"/></g><g><title>svc-gear-inventory</title><rect fill="#000000" fill-opacity="0.00000" height="309.7949" width="8" x="349.8867" y="134.2422"/><line style="stroke:#A23B72;stroke-width:0.5;stroke-dasharray:5,5;" x1="353.3403" x2="353.3403" y1="134.2422" y2="444.0371"/></g><g><title>PostgreSQL</title><rect fill="#000000" fill-opacity="0.00000" height="309.7949" width="8" x="527.7773" y="134.2422"/><line style="stroke:#A23B72;stroke-width:0.5;stroke-dasharray:5,5;" x1="531.3525" x2="531.3525" y1="134.2422" y2="444.0371"/></g><g class="participant participant-head" data-participant="Client"><rect fill="#E8F4F8" height="30.4883" rx="2.5" ry="2.5" style="stroke:#2E86AB;stroke-width:0.5;" width="53.5049" x="5" y="102.7539"/><text fill="#000000" font-family="Segoe UI" font-size="14" lengthAdjust="spacing" textLength="39.5049" x="12" y="123.2891">Client</text></g><g class="participant participant-tail" data-participant="Client"><rect fill="#E8F4F8" height="30.4883" rx="2.5" ry="2.5" style="stroke:#2E86AB;stroke-width:0.5;" width="53.5049" x="5" y="443.0371"/><text fill="#000000" font-family="Segoe UI" font-size="14" lengthAdjust="spacing" textLength="39.5049" x="12" y="463.5723">Client</text></g><g class="participant participant-head" data-participant="GW"><rect fill="#DBEAFE" height="30.4883" rx="2.5" ry="2.5" style="stroke:#2E86AB;stroke-width:0.5;" width="96.5781" x="174.7622" y="102.7539"/><text fill="#000000" font-family="Segoe UI" font-size="14" lengthAdjust="spacing" textLength="82.5781" x="181.7622" y="123.2891">API Gateway</text></g><g class="participant participant-tail" data-participant="GW"><rect fill="#DBEAFE" height="30.4883" rx="2.5" ry="2.5" style="stroke:#2E86AB;stroke-width:0.5;" width="96.5781" x="174.7622" y="443.0371"/><text fill="#000000" font-family="Segoe UI" font-size="14" lengthAdjust="spacing" textLength="82.5781" x="181.7622" y="463.5723">API Gateway</text></g><g class="participant participant-head" data-participant="Svc"><a href="/microservices/svc-gear-inventory/" target="_top" title="/microservices/svc-gear-inventory/" xlink:actuate="onRequest" xlink:href="/microservices/svc-gear-inventory/" xlink:show="new" xlink:title="/microservices/svc-gear-inventory/" xlink:type="simple"><rect fill="#E8F4F8" height="30.4883" rx="2.5" ry="2.5" style="stroke:#2E86AB;stroke-width:0.5;" width="145.0928" x="281.3403" y="102.7539"/><text fill="#000000" font-family="Segoe UI" font-size="14" lengthAdjust="spacing" textLength="131.0928" x="288.3403" y="123.2891">svc-gear-inventory</text></a></g><g class="participant participant-tail" data-participant="Svc"><a href="/microservices/svc-gear-inventory/" target="_top" title="/microservices/svc-gear-inventory/" xlink:actuate="onRequest" xlink:href="/microservices/svc-gear-inventory/" xlink:show="new" xlink:title="/microservices/svc-gear-inventory/" xlink:type="simple"><rect fill="#E8F4F8" height="30.4883" rx="2.5" ry="2.5" style="stroke:#2E86AB;stroke-width:0.5;" width="145.0928" x="281.3403" y="443.0371"/><text fill="#000000" font-family="Segoe UI" font-size="14" lengthAdjust="spacing" textLength="131.0928" x="288.3403" y="463.5723">svc-gear-inventory</text></a></g><g class="participant participant-head" data-participant="DB"><text fill="#000000" font-family="Segoe UI" font-size="14" lengthAdjust="spacing" textLength="76.8496" x="490.3525" y="131.2891">PostgreSQL</text><path d="M513.7773,81.7539 C513.7773,71.7539 531.7773,71.7539 531.7773,71.7539 C531.7773,71.7539 549.7773,71.7539 549.7773,81.7539 L549.7773,107.7539 C549.7773,117.7539 531.7773,117.7539 531.7773,117.7539 C531.7773,117.7539 513.7773,117.7539 513.7773,107.7539 L513.7773,81.7539" fill="#FCE4EC" style="stroke:#181818;stroke-width:0.5;"/><path d="M513.7773,81.7539 C513.7773,91.7539 531.7773,91.7539 531.7773,91.7539 C531.7773,91.7539 549.7773,91.7539 549.7773,81.7539" fill="none" style="stroke:#181818;stroke-width:0.5;"/></g><g class="participant participant-tail" data-participant="DB"><text fill="#000000" font-family="Segoe UI" font-size="14" lengthAdjust="spacing" textLength="76.8496" x="490.3525" y="456.5723">PostgreSQL</text><path d="M513.7773,469.5254 C513.7773,459.5254 531.7773,459.5254 531.7773,459.5254 C531.7773,459.5254 549.7773,459.5254 549.7773,469.5254 L549.7773,495.5254 C549.7773,505.5254 531.7773,505.5254 531.7773,505.5254 C531.7773,505.5254 513.7773,505.5254 513.7773,495.5254 L513.7773,469.5254" fill="#FCE4EC" style="stroke:#181818;stroke-width:0.5;"/><path d="M513.7773,469.5254 C513.7773,479.5254 531.7773,479.5254 531.7773,479.5254 C531.7773,479.5254 549.7773,479.5254 549.7773,469.5254" fill="none" style="stroke:#181818;stroke-width:0.5;"/></g><g><title>API Gateway</title><rect fill="#2563EB" height="225.1738" style="stroke:#A23B72;stroke-width:1;" width="10" x="218.0513" y="200.8633"/></g><g><title>svc-gear-inventory</title><rect fill="#2563EB" height="166.5527" style="stroke:#A23B72;stroke-width:1;" width="10" x="348.8867" y="230.1738"/></g><g><title>PostgreSQL</title><rect fill="#FCE4EC" height="29.3105" style="stroke:#A23B72;stroke-width:1;" width="10" x="526.7773" y="302.7949"/></g><path d="M283,149.2422 L283,174.2422 L423,174.2422 L423,159.2422 L413,149.2422 L283,149.2422" fill="#FEFFDD" style="stroke:#181818;stroke-width:0.5;"/><path d="M413,149.2422 L413,159.2422 L423,159.2422 L413,149.2422" fill="#FEFFDD" style="stroke:#181818;stroke-width:0.5;"/><a href="/services/api/svc-gear-inventory.html#/Gear%20Items/getGearItem" target="_top" title="/services/api/svc-gear-inventory.html#/Gear%20Items/getGearItem" xlink:actuate="onRequest" xlink:href="/services/api/svc-gear-inventory.html#/Gear%20Items/getGearItem" xlink:show="new" xlink:title="/services/api/svc-gear-inventory.html#/Gear%20Items/getGearItem" xlink:type="simple"><text fill="#0000FF" font-family="Segoe UI" font-size="13" lengthAdjust="spacing" text-decoration="underline" textLength="119.4058" x="289" y="166.8105">View in Swagger UI</text></a><g class="message" data-participant-1="Client" data-participant-2="GW"><polygon fill="#2563EB" points="206.0513,196.8633,216.0513,200.8633,206.0513,204.8633,210.0513,200.8633" style="stroke:#2563EB;stroke-width:1;"/><line style="stroke:#2563EB;stroke-width:1;" x1="31.7524" x2="212.0513" y1="200.8633" y2="200.8633"/><text fill="#000000" font-family="Segoe UI" font-size="13" lengthAdjust="spacing" textLength="167.2988" x="38.7524" y="196.1211">GET /gear-items/{item_id}</text></g><g class="message" data-participant-1="GW" data-participant-2="Svc"><polygon fill="#2563EB" points="336.8867,226.1738,346.8867,230.1738,336.8867,234.1738,340.8867,230.1738" style="stroke:#2563EB;stroke-width:1;"/><line style="stroke:#2563EB;stroke-width:1;" x1="228.0513" x2="342.8867" y1="230.1738" y2="230.1738"/><text fill="#000000" font-family="Segoe UI" font-size="13" lengthAdjust="spacing" textLength="85.1348" x="235.0513" y="225.4316">route request</text></g><rect fill="#EEEEEE" height="3" style="stroke:#EEEEEE;stroke-width:1;" width="718.0571" x="0" y="258.8291"/><line style="stroke:#000000;stroke-width:1;" x1="0" x2="718.0571" y1="258.8291" y2="258.8291"/><line style="stroke:#000000;stroke-width:1;" x1="0" x2="718.0571" y1="261.8291" y2="261.8291"/><rect fill="#EEEEEE" height="23.3105" style="stroke:#000000;stroke-width:2;" width="80.3711" x="318.843" y="248.1738"/><text fill="#000000" font-family="Segoe UI" font-size="13" font-weight="bold" lengthAdjust="spacing" textLength="62.0864" x="324.843" y="264.7422">Database</text><g class="message" data-participant-1="Svc" data-participant-2="DB"><polygon fill="#2563EB" points="514.7773,298.7949,524.7773,302.7949,514.7773,306.7949,518.7773,302.7949" style="stroke:#2563EB;stroke-width:1;"/><line style="stroke:#2563EB;stroke-width:1;" x1="358.8867" x2="520.7773" y1="302.7949" y2="302.7949"/><text fill="#000000" font-family="Segoe UI" font-size="13" lengthAdjust="spacing" textLength="148.8906" x="365.8867" y="298.0527">SELECT ... WHERE id = ?</text></g><g class="message" data-participant-1="DB" data-participant-2="Svc"><polygon fill="#2563EB" points="369.8867,328.1055,359.8867,332.1055,369.8867,336.1055,365.8867,332.1055" style="stroke:#2563EB;stroke-width:1;"/><line style="stroke:#2563EB;stroke-width:1;stroke-dasharray:2,2;" x1="363.8867" x2="530.7773" y1="332.1055" y2="332.1055"/><text fill="#000000" font-family="Segoe UI" font-size="13" lengthAdjust="spacing" textLength="26.2222" x="375.8867" y="327.3633">Row</text></g><path d="M536,345.1055 L536,370.1055 L713,370.1055 L713,355.1055 L703,345.1055 L536,345.1055" fill="#FEFFDD" style="stroke:#181818;stroke-width:0.5;"/><path d="M703,345.1055 L703,355.1055 L713,355.1055 L703,345.1055" fill="#FEFFDD" style="stroke:#181818;stroke-width:0.5;"/><text fill="#000000" font-family="Segoe UI" font-size="13" lengthAdjust="spacing" textLength="156.0571" x="542" y="362.6738">Returns 404 if not found</text><g class="message" data-participant-1="Svc" data-participant-2="GW"><polygon fill="#2563EB" points="239.0513,392.7266,229.0513,396.7266,239.0513,400.7266,235.0513,396.7266" style="stroke:#2563EB;stroke-width:1;"/><line style="stroke:#2563EB;stroke-width:1;stroke-dasharray:2,2;" x1="233.0513" x2="352.8867" y1="396.7266" y2="396.7266"/><text fill="#000000" font-family="Segoe UI" font-size="13" lengthAdjust="spacing" textLength="47.3599" x="245.0513" y="391.9844">200 OK</text></g><g class="message" data-participant-1="GW" data-participant-2="Client"><polygon fill="#2563EB" points="42.7524,422.0371,32.7524,426.0371,42.7524,430.0371,38.7524,426.0371" style="stroke:#2563EB;stroke-width:1;"/><line style="stroke:#2563EB;stroke-width:1;stroke-dasharray:2,2;" x1="36.7524" x2="222.0513" y1="426.0371" y2="426.0371"/><text fill="#000000" font-family="Segoe UI" font-size="13" lengthAdjust="spacing" textLength="47.3599" x="48.7524" y="421.2949">200 OK</text></g><a href="/microservices/svc-gear-inventory/#integration-context" target="_top" title="/microservices/svc-gear-inventory/#integration-context" xlink:actuate="onRequest" xlink:href="/microservices/svc-gear-inventory/#integration-context" xlink:show="new" xlink:title="/microservices/svc-gear-inventory/#integration-context" xlink:type="simple"><text fill="#0000FF" font-family="Segoe UI" font-size="10" lengthAdjust="spacing" text-decoration="underline" textLength="204.8096" x="512.2476" y="14.668">&#11014; svc-gear-inventory Integration Context</text></a><!--SRC=[ZPFTRjem5CVl_HH7e5toKM058R49Q9AXePP1EouwD9da4Am6czc6jAfwkwVPK-r9TXo-1vEMNCJs_-zpxDyvCKz2Bhdc2vZoy2dMQYMZhagKXhplkPUPlSFCUQHI8MEOySJWaHBXZAyIwojfR_a28JV2M24yz7B7s_772cM8yCg0dhRMAjscgho_hk8qMnvmRKKebbpQZj8Hwft5QrotEsUMlm_jDVoQtyXiVJ73lf1u4gPTgNRgbKplgESJoRzg-EMhlNI6m_T9p-HRPK-ZXlNwj7gaNK1PzUhiZR4vSje6Zu-bXGYrCgZN8aHJCkkm42FN1I7NAAtIBwMya1PZpQrGiX0IMdosyFlNJpZtGkzWXUx6EfamPeLD40Bl7agR3HONflJgFjz5zFPD1cZ1AU2Mg8oMYyGmjZmGXbmt4PGb1zp0PdWgjmSz2BZ5bBzadc0C-PkErwRMEV6TdpgpZzRXVz6OJFR5ZRZbKswepGRAs5ZZw4i_YtNJ8THTh-Pr6PDK1r1hOaqPg3AKOn-UByM55CMvNIJvKa2BxohbNeOgHklcRW9V1QOW98nI7iSKzw57Y556u58njc43XG-EGFFVq1aFhLWJi8pKjlDfI1iTYoPGuv2etTzYxC7jn9sTjLfmiwFGQZ7cH0f009emylfUznwAnIACFtb33qG4BVXuY7I4YOQ5VUAXIbc4HxODH2tYkGKrsqGVebrfQQ1Mhe6OkRl3p7NwzWoxwrVAPRZxV1pEbS5TannRL9TSmPZz0G00]--></g></svg>