<svg xmlns="http://www.w3.org/2000/svg" xmlns:xlink="http://www.w3.org/1999/xlink" contentStyleType="text/css" data-diagram-type="SEQUENCE" height="474px" preserveAspectRatio="none" style="width:489px;height:474px;background:#FEFEFE;" version="1.1" viewBox="0 0 489 474" width="489px" zoomAndPan="magnify"><title>GET /media</title><defs/><g><rect fill="#FEFEFE" height="474" style="stroke:none;stroke-width:1;" width="489" x="0" y="0"/><text fill="#000000" font-family="Segoe UI" font-size="14" font-weight="bold" lengthAdjust="spacing" textLength="84.875" x="198.1199" y="28.5352">GET /media</text><text fill="#000000" font-family="Segoe UI" font-size="14" font-weight="bold" lengthAdjust="spacing" textLength="233.7549" x="123.6799" y="45.0234">List media by reservation or trip</text><g><title>API Gateway</title><rect fill="#2563EB" height="189.8633" style="stroke:#A23B72;stroke-width:1;" width="10" x="124.8423" y="188.0859"/></g><g><title>svc-media-gallery</title><rect fill="#2563EB" height="131.2422" style="stroke:#A23B72;stroke-width:1;" width="10" x="252.4375" y="217.3965"/></g><g><title>PostgreSQL</title><rect fill="#FCE4EC" height="29.3105" style="stroke:#A23B72;stroke-width:1;" width="10" x="430.6899" y="290.0176"/></g><g><title>Client</title><rect fill="#000000" fill-opacity="0.00000" height="274.4844" width="8" x="27.7524" y="121.4648"/><line style="stroke:#A23B72;stroke-width:0.5;stroke-dasharray:5,5;" x1="31" x2="31" y1="121.4648" y2="395.9492"/></g><g><title>API Gateway</title><rect fill="#000000" fill-opacity="0.00000" height="274.4844" width="8" x="125.8423" y="121.4648"/><line style="stroke:#A23B72;stroke-width:0.5;stroke-dasharray:5,5;" x1="129.5532" x2="129.5532" y1="121.4648" y2="395.9492"/></g><g><title>svc-media-gallery</title><rect fill="#000000" fill-opacity="0.00000" height="274.4844" width="8" x="253.4375" y="121.4648"/><line style="stroke:#A23B72;stroke-width:0.5;stroke-dasharray:5,5;" x1="257.1313" x2="257.1313" y1="121.4648" y2="395.9492"/></g><g><title>PostgreSQL</title><rect fill="#000000" fill-opacity="0.00000" height="274.4844" width="8" x="431.6899" y="121.4648"/><line style="stroke:#A23B72;stroke-width:0.5;stroke-dasharray:5,5;" x1="435.2651" x2="435.2651" y1="121.4648" y2="395.9492"/></g><g class="participant participant-head" data-participant="Client"><rect fill="#E8F4F8" height="30.4883" rx="2.5" ry="2.5" style="stroke:#2E86AB;stroke-width:0.5;" width="53.5049" x="5" y="89.9766"/><text fill="#000000" font-family="Segoe UI" font-size="14" lengthAdjust="spacing" textLength="39.5049" x="12" y="110.5117">Client</text></g><g class="participant participant-tail" data-participant="Client"><rect fill="#E8F4F8" height="30.4883" rx="2.5" ry="2.5" style="stroke:#2E86AB;stroke-width:0.5;" width="53.5049" x="5" y="394.9492"/><text fill="#000000" font-family="Segoe UI" font-size="14" lengthAdjust="spacing" textLength="39.5049" x="12" y="415.4844">Client</text></g><g class="participant participant-head" data-participant="GW"><rect fill="#DBEAFE" height="30.4883" rx="2.5" ry="2.5" style="stroke:#2E86AB;stroke-width:0.5;" width="96.5781" x="81.5532" y="89.9766"/><text fill="#000000" font-family="Segoe UI" font-size="14" lengthAdjust="spacing" textLength="82.5781" x="88.5532" y="110.5117">API Gateway</text></g><g class="participant participant-tail" data-participant="GW"><rect fill="#DBEAFE" height="30.4883" rx="2.5" ry="2.5" style="stroke:#2E86AB;stroke-width:0.5;" width="96.5781" x="81.5532" y="394.9492"/><text fill="#000000" font-family="Segoe UI" font-size="14" lengthAdjust="spacing" textLength="82.5781" x="88.5532" y="415.4844">API Gateway</text></g><g class="participant participant-head" data-participant="Svc"><a href="/microservices/svc-media-gallery/" target="_top" title="/microservices/svc-media-gallery/" xlink:actuate="onRequest" xlink:href="/microservices/svc-media-gallery/" xlink:show="new" xlink:title="/microservices/svc-media-gallery/" xlink:type="simple"><rect fill="#E8F4F8" height="30.4883" rx="2.5" ry="2.5" style="stroke:#2E86AB;stroke-width:0.5;" width="138.6123" x="188.1313" y="89.9766"/><text fill="#000000" font-family="Segoe UI" font-size="14" lengthAdjust="spacing" textLength="124.6123" x="195.1313" y="110.5117">svc-media-gallery</text></a></g><g class="participant participant-tail" data-participant="Svc"><a href="/microservices/svc-media-gallery/" target="_top" title="/microservices/svc-media-gallery/" xlink:actuate="onRequest" xlink:href="/microservices/svc-media-gallery/" xlink:show="new" xlink:title="/microservices/svc-media-gallery/" xlink:type="simple"><rect fill="#E8F4F8" height="30.4883" rx="2.5" ry="2.5" style="stroke:#2E86AB;stroke-width:0.5;" width="138.6123" x="188.1313" y="394.9492"/><text fill="#000000" font-family="Segoe UI" font-size="14" lengthAdjust="spacing" textLength="124.6123" x="195.1313" y="415.4844">svc-media-gallery</text></a></g><g class="participant participant-head" data-participant="DB"><text fill="#000000" font-family="Segoe UI" font-size="14" lengthAdjust="spacing" textLength="76.8496" x="394.2651" y="118.5117">PostgreSQL</text><path d="M417.6899,68.9766 C417.6899,58.9766 435.6899,58.9766 435.6899,58.9766 C435.6899,58.9766 453.6899,58.9766 453.6899,68.9766 L453.6899,94.9766 C453.6899,104.9766 435.6899,104.9766 435.6899,104.9766 C435.6899,104.9766 417.6899,104.9766 417.6899,94.9766 L417.6899,68.9766" fill="#FCE4EC" style="stroke:#181818;stroke-width:0.5;"/><path d="M417.6899,68.9766 C417.6899,78.9766 435.6899,78.9766 435.6899,78.9766 C435.6899,78.9766 453.6899,78.9766 453.6899,68.9766" fill="none" style="stroke:#181818;stroke-width:0.5;"/></g><g class="participant participant-tail" data-participant="DB"><text fill="#000000" font-family="Segoe UI" font-size="14" lengthAdjust="spacing" textLength="76.8496" x="394.2651" y="408.4844">PostgreSQL</text><path d="M417.6899,421.4375 C417.6899,411.4375 435.6899,411.4375 435.6899,411.4375 C435.6899,411.4375 453.6899,411.4375 453.6899,421.4375 L453.6899,447.4375 C453.6899,457.4375 435.6899,457.4375 435.6899,457.4375 C435.6899,457.4375 417.6899,457.4375 417.6899,447.4375 L417.6899,421.4375" fill="#FCE4EC" style="stroke:#181818;stroke-width:0.5;"/><path d="M417.6899,421.4375 C417.6899,431.4375 435.6899,431.4375 435.6899,431.4375 C435.6899,431.4375 453.6899,431.4375 453.6899,421.4375" fill="none" style="stroke:#181818;stroke-width:0.5;"/></g><g><title>API Gateway</title><rect fill="#2563EB" height="189.8633" style="stroke:#A23B72;stroke-width:1;" width="10" x="124.8423" y="188.0859"/></g><g><title>svc-media-gallery</title><rect fill="#2563EB" height="131.2422" style="stroke:#A23B72;stroke-width:1;" width="10" x="252.4375" y="217.3965"/></g><g><title>PostgreSQL</title><rect fill="#FCE4EC" height="29.3105" style="stroke:#A23B72;stroke-width:1;" width="10" x="430.6899" y="290.0176"/></g><path d="M187,136.4648 L187,161.4648 L327,161.4648 L327,146.4648 L317,136.4648 L187,136.4648" fill="#FEFFDD" style="stroke:#181818;stroke-width:0.5;"/><path d="M317,136.4648 L317,146.4648 L327,146.4648 L317,136.4648" fill="#FEFFDD" style="stroke:#181818;stroke-width:0.5;"/><a href="/services/api/svc-media-gallery.html#/Media/listMedia" target="_top" title="/services/api/svc-media-gallery.html#/Media/listMedia" xlink:actuate="onRequest" xlink:href="/services/api/svc-media-gallery.html#/Media/listMedia" xlink:show="new" xlink:title="/services/api/svc-media-gallery.html#/Media/listMedia" xlink:type="simple"><text fill="#0000FF" font-family="Segoe UI" font-size="13" lengthAdjust="spacing" text-decoration="underline" textLength="119.4058" x="193" y="154.0332">View in Swagger UI</text></a><g class="message" data-participant-1="Client" data-participant-2="GW"><polygon fill="#2563EB" points="112.8423,184.0859,122.8423,188.0859,112.8423,192.0859,116.8423,188.0859" style="stroke:#2563EB;stroke-width:1;"/><line style="stroke:#2563EB;stroke-width:1;" x1="31.7524" x2="118.8423" y1="188.0859" y2="188.0859"/><text fill="#000000" font-family="Segoe UI" font-size="13" lengthAdjust="spacing" textLength="74.0898" x="38.7524" y="183.3438">GET /media</text></g><g class="message" data-participant-1="GW" data-participant-2="Svc"><polygon fill="#2563EB" points="240.4375,213.3965,250.4375,217.3965,240.4375,221.3965,244.4375,217.3965" style="stroke:#2563EB;stroke-width:1;"/><line style="stroke:#2563EB;stroke-width:1;" x1="134.8423" x2="246.4375" y1="217.3965" y2="217.3965"/><text fill="#000000" font-family="Segoe UI" font-size="13" lengthAdjust="spacing" textLength="85.1348" x="141.8423" y="212.6543">route request</text></g><rect fill="#EEEEEE" height="3" style="stroke:#EEEEEE;stroke-width:1;" width="482.1147" x="0" y="246.0518"/><line style="stroke:#000000;stroke-width:1;" x1="0" x2="482.1147" y1="246.0518" y2="246.0518"/><line style="stroke:#000000;stroke-width:1;" x1="0" x2="482.1147" y1="249.0518" y2="249.0518"/><rect fill="#EEEEEE" height="23.3105" style="stroke:#000000;stroke-width:2;" width="80.3711" x="200.8718" y="235.3965"/><text fill="#000000" font-family="Segoe UI" font-size="13" font-weight="bold" lengthAdjust="spacing" textLength="62.0864" x="206.8718" y="251.9648">Database</text><g class="message" data-participant-1="Svc" data-participant-2="DB"><polygon fill="#2563EB" points="418.6899,286.0176,428.6899,290.0176,418.6899,294.0176,422.6899,290.0176" style="stroke:#2563EB;stroke-width:1;"/><line style="stroke:#2563EB;stroke-width:1;" x1="262.4375" x2="424.6899" y1="290.0176" y2="290.0176"/><text fill="#000000" font-family="Segoe UI" font-size="13" lengthAdjust="spacing" textLength="149.2524" x="269.4375" y="285.2754">SELECT ... WHERE filters</text></g><g class="message" data-participant-1="DB" data-participant-2="Svc"><polygon fill="#2563EB" points="273.4375,315.3281,263.4375,319.3281,273.4375,323.3281,269.4375,319.3281" style="stroke:#2563EB;stroke-width:1;"/><line style="stroke:#2563EB;stroke-width:1;stroke-dasharray:2,2;" x1="267.4375" x2="434.6899" y1="319.3281" y2="319.3281"/><text fill="#000000" font-family="Segoe UI" font-size="13" lengthAdjust="spacing" textLength="93.209" x="279.4375" y="314.5859">Page of results</text></g><g class="message" data-participant-1="Svc" data-participant-2="GW"><polygon fill="#2563EB" points="145.8423,344.6387,135.8423,348.6387,145.8423,352.6387,141.8423,348.6387" style="stroke:#2563EB;stroke-width:1;"/><line style="stroke:#2563EB;stroke-width:1;stroke-dasharray:2,2;" x1="139.8423" x2="256.4375" y1="348.6387" y2="348.6387"/><text fill="#000000" font-family="Segoe UI" font-size="13" lengthAdjust="spacing" textLength="47.3599" x="151.8423" y="343.8965">200 OK</text></g><g class="message" data-participant-1="GW" data-participant-2="Client"><polygon fill="#2563EB" points="42.7524,373.9492,32.7524,377.9492,42.7524,381.9492,38.7524,377.9492" style="stroke:#2563EB;stroke-width:1;"/><line style="stroke:#2563EB;stroke-width:1;stroke-dasharray:2,2;" x1="36.7524" x2="128.8423" y1="377.9492" y2="377.9492"/><text fill="#000000" font-family="Segoe UI" font-size="13" lengthAdjust="spacing" textLength="47.3599" x="48.7524" y="373.207">200 OK</text></g><!--SRC=[RLDTSzem47pNhxY1Pp21D33Cq1aCCcLAKrAIyf3oSDY7euajKKb0Cvt-zqZcovHOBpVQrQrsJpQlGgvHOmvBZ5zJhJOo6QXCQQX6t2zcJWppWedQ2Pd22ZD39IIX5Muo6obfxp4dgCmeLGHFuqhvEFtUa8m9_Z9mNrzhjJj8DJ_TjMXPR4zHMn6BDKeRAfsGFb9uvwuVNb7-lpJlHBTHfw1Dn8ecGj95ctwp5RQR1HwgFnTGTDE96ZSdw2gEA79u0TyhUzarRhUNhHBsGPGjtcR_6BF2PWGZ_WX1Jed0Nt8YZ8MYXkKRQ3AajsY5ak1EMYtMZAtFXg4oo0H9Mm4qi2yluVvq32EqjCEtWZEQGtKOyhwRv0NFREDQeLfBCSj8xzcpRGpFpq4kOgtyHKHC9hYY1el5AUa4BIxHk9bFbR6ffjd3f6Wr39tl0R_b0yQa2mNKbhGNS34vYLDtN8jhXVgBpRDgyCtl1PbBgAZWfw0T20cp7QQfw_OqNYmOoGIy06FxFA3ssRlkbb9c65lXKgKYZiDhSwLZUiTTSCDoeFOlrDWpsuD7EklrO7Wqs-inva7NmFdimenF-E0HwlKwpB_m7nnM8hEapRbLAGvNraxAKqnTD2i_UFS76PPGwSX1v6YesMZ0zwzbYe_J-t2CW_cFMACvUmS0]--></g></svg>