<?xml version="1.0" encoding="UTF-8" standalone="no"?><svg xmlns="http://www.w3.org/2000/svg" xmlns:xlink="http://www.w3.org/1999/xlink" contentScriptType="application/ecmascript" contentStyleType="text/css" height="1746px" preserveAspectRatio="none" style="width:1794px;height:1746px;background:#FEFEFE;" version="1.1" viewBox="0 0 1794 1746" width="1794px" zoomAndPan="magnify"><defs/><g><text fill="#000000" font-family="Segoe UI" font-size="18" lengthAdjust="spacingAndGlyphs" textLength="141" x="822.25" y="41.3486">POST /check-ins</text><text fill="#000000" font-family="Segoe UI" font-size="18" lengthAdjust="spacingAndGlyphs" textLength="288" x="748.75" y="62.3018">Initiate check-in for a participant</text><text fill="#7C3AED" font-family="Segoe UI" font-size="10" lengthAdjust="spacingAndGlyphs" textLength="279" x="753.25" y="75.8291">ARCHITECT OVERRIDE — enriched with internal behavior</text><rect fill="#059669" height="1441.6484" style="stroke: #6B7280; stroke-width: 1.0;" width="10" x="155.5" y="213.75"/><rect fill="#059669" height="1383.3828" style="stroke: #6B7280; stroke-width: 1.0;" width="10" x="358.5" y="242.8828"/><rect fill="#D1FAE5" height="44.2656" style="stroke: #6B7280; stroke-width: 1.0;" width="10" x="1068.5" y="365.4141"/><rect fill="#EDE9FE" height="29.1328" style="stroke: #6B7280; stroke-width: 1.0;" width="10" x="1185.5" y="643.4141"/><rect fill="#FEF3C7" height="44.2656" style="stroke: #6B7280; stroke-width: 1.0;" width="10" x="1298.5" y="825.2109"/><rect fill="#FEE2E2" height="29.1328" style="stroke: #6B7280; stroke-width: 1.0;" width="10" x="1427" y="1076.6719"/><rect fill="#FECDD3" height="53.2656" style="stroke: #6B7280; stroke-width: 1.0;" width="10" x="1638" y="517.0781"/><rect fill="#FECDD3" height="29.1328" style="stroke: #6B7280; stroke-width: 1.0;" width="10" x="1638" y="716.8125"/><rect fill="#FEF9C3" height="29.1328" style="stroke: #6B7280; stroke-width: 1.0;" width="10" x="1714" y="1369.9375"/><rect fill="#FEF9C3" height="29.1328" style="stroke: #6B7280; stroke-width: 1.0;" width="10" x="1714" y="1458.4688"/><rect fill="#FEFEFE" height="221.8672" rx="4" ry="4" style="stroke: #000000; stroke-width: 2.0;" width="1372.5" x="303" y="532.0781"/><rect fill="#FEFEFE" height="175.6016" style="stroke: none; stroke-width: 1.0;" width="1372.5" x="303" y="578.3438"/><rect fill="#FEFEFE" height="233.8672" rx="4" ry="4" style="stroke: #000000; stroke-width: 2.0;" width="1209.5" x="303" y="995.2734"/><rect fill="#FEFEFE" height="65.0703" style="stroke: none; stroke-width: 1.0;" width="1209.5" x="303" y="1164.0703"/><rect fill="#FEFEFE" height="209.3281" rx="4" ry="4" style="stroke: #000000; stroke-width: 2.0;" width="1469.5" x="303" y="1286.2734"/><line style="stroke: #6B7280; stroke-width: 1.0; stroke-dasharray: 5.0,5.0;" x1="34" x2="34" y1="147.4844" y2="1673.3984"/><line style="stroke: #6B7280; stroke-width: 1.0; stroke-dasharray: 5.0,5.0;" x1="160.5" x2="160.5" y1="147.4844" y2="1673.3984"/><line style="stroke: #6B7280; stroke-width: 1.0; stroke-dasharray: 5.0,5.0;" x1="363" x2="363" y1="147.4844" y2="1673.3984"/><line style="stroke: #6B7280; stroke-width: 1.0; stroke-dasharray: 5.0,5.0;" x1="1073.5" x2="1073.5" y1="147.4844" y2="1673.3984"/><line style="stroke: #6B7280; stroke-width: 1.0; stroke-dasharray: 5.0,5.0;" x1="1190.5" x2="1190.5" y1="147.4844" y2="1673.3984"/><line style="stroke: #6B7280; stroke-width: 1.0; stroke-dasharray: 5.0,5.0;" x1="1303.5" x2="1303.5" y1="147.4844" y2="1673.3984"/><line style="stroke: #6B7280; stroke-width: 1.0; stroke-dasharray: 5.0,5.0;" x1="1431.5" x2="1431.5" y1="147.4844" y2="1673.3984"/><line style="stroke: #6B7280; stroke-width: 1.0; stroke-dasharray: 5.0,5.0;" x1="1561.5" x2="1561.5" y1="147.4844" y2="1673.3984"/><line style="stroke: #6B7280; stroke-width: 1.0; stroke-dasharray: 5.0,5.0;" x1="1642.5" x2="1642.5" y1="147.4844" y2="1673.3984"/><line style="stroke: #6B7280; stroke-width: 1.0; stroke-dasharray: 5.0,5.0;" x1="1718.5" x2="1718.5" y1="147.4844" y2="1673.3984"/><a href="/applications/" target="_top" title="/applications/" xlink:actuate="onRequest" xlink:href="/applications/" xlink:show="new" xlink:title="/applications/" xlink:type="simple"><rect fill="#F9FAFB" height="30.2969" rx="4" ry="4" style="stroke: #374151; stroke-width: 1.5;" width="53" x="8" y="116.1875"/><text fill="#000000" font-family="Segoe UI" font-size="14" lengthAdjust="spacingAndGlyphs" textLength="39" x="15" y="136.1826">Client</text><rect fill="#F9FAFB" height="30.2969" rx="4" ry="4" style="stroke: #374151; stroke-width: 1.5;" width="53" x="8" y="1672.3984"/><text fill="#000000" font-family="Segoe UI" font-size="14" lengthAdjust="spacingAndGlyphs" textLength="39" x="15" y="1692.3936">Client</text></a><a href="/actors/#api-gateway" target="_top" title="/actors/#api-gateway" xlink:actuate="onRequest" xlink:href="/actors/#api-gateway" xlink:show="new" xlink:title="/actors/#api-gateway" xlink:type="simple"><rect fill="#E0F2FE" height="30.2969" rx="4" ry="4" style="stroke: #374151; stroke-width: 1.5;" width="98" x="111.5" y="116.1875"/><text fill="#000000" font-family="Segoe UI" font-size="14" lengthAdjust="spacingAndGlyphs" textLength="84" x="118.5" y="136.1826">API Gateway</text><rect fill="#E0F2FE" height="30.2969" rx="4" ry="4" style="stroke: #374151; stroke-width: 1.5;" width="98" x="111.5" y="1672.3984"/><text fill="#000000" font-family="Segoe UI" font-size="14" lengthAdjust="spacingAndGlyphs" textLength="84" x="118.5" y="1692.3936">API Gateway</text></a><a href="/microservices/svc-check-in/" target="_top" title="/microservices/svc-check-in/" xlink:actuate="onRequest" xlink:href="/microservices/svc-check-in/" xlink:show="new" xlink:title="/microservices/svc-check-in/" xlink:type="simple"><rect fill="#DBEAFE" height="30.2969" rx="4" ry="4" style="stroke: #374151; stroke-width: 1.5;" width="101" x="313" y="116.1875"/><text fill="#000000" font-family="Segoe UI" font-size="14" lengthAdjust="spacingAndGlyphs" textLength="87" x="320" y="136.1826">svc-check-in</text><rect fill="#DBEAFE" height="30.2969" rx="4" ry="4" style="stroke: #374151; stroke-width: 1.5;" width="101" x="313" y="1672.3984"/><text fill="#000000" font-family="Segoe UI" font-size="14" lengthAdjust="spacingAndGlyphs" textLength="87" x="320" y="1692.3936">svc-check-in</text></a><a href="/microservices/svc-reservations/" target="_top" title="/microservices/svc-reservations/" xlink:actuate="onRequest" xlink:href="/microservices/svc-reservations/" xlink:show="new" xlink:title="/microservices/svc-reservations/" xlink:type="simple"><rect fill="#D1FAE5" height="30.2969" rx="4" ry="4" style="stroke: #374151; stroke-width: 1.5;" width="104" x="1021.5" y="116.1875"/><text fill="#000000" font-family="Segoe UI" font-size="14" lengthAdjust="spacingAndGlyphs" textLength="90" x="1028.5" y="136.1826">Reservations</text><rect fill="#D1FAE5" height="30.2969" rx="4" ry="4" style="stroke: #374151; stroke-width: 1.5;" width="104" x="1021.5" y="1672.3984"/><text fill="#000000" font-family="Segoe UI" font-size="14" lengthAdjust="spacingAndGlyphs" textLength="90" x="1028.5" y="1692.3936">Reservations</text></a><a href="/microservices/svc-guest-profiles/" target="_top" title="/microservices/svc-guest-profiles/" xlink:actuate="onRequest" xlink:href="/microservices/svc-guest-profiles/" xlink:show="new" xlink:title="/microservices/svc-guest-profiles/" xlink:type="simple"><rect fill="#EDE9FE" height="30.2969" rx="4" ry="4" style="stroke: #374151; stroke-width: 1.5;" width="110" x="1135.5" y="116.1875"/><text fill="#000000" font-family="Segoe UI" font-size="14" lengthAdjust="spacingAndGlyphs" textLength="96" x="1142.5" y="136.1826">Guest Profiles</text><rect fill="#EDE9FE" height="30.2969" rx="4" ry="4" style="stroke: #374151; stroke-width: 1.5;" width="110" x="1135.5" y="1672.3984"/><text fill="#000000" font-family="Segoe UI" font-size="14" lengthAdjust="spacingAndGlyphs" textLength="96" x="1142.5" y="1692.3936">Guest Profiles</text></a><a href="/microservices/svc-trip-catalog/" target="_top" title="/microservices/svc-trip-catalog/" xlink:actuate="onRequest" xlink:href="/microservices/svc-trip-catalog/" xlink:show="new" xlink:title="/microservices/svc-trip-catalog/" xlink:type="simple"><rect fill="#FEF3C7" height="30.2969" rx="4" ry="4" style="stroke: #374151; stroke-width: 1.5;" width="96" x="1255.5" y="116.1875"/><text fill="#000000" font-family="Segoe UI" font-size="14" lengthAdjust="spacingAndGlyphs" textLength="82" x="1262.5" y="136.1826">Trip Catalog</text><rect fill="#FEF3C7" height="30.2969" rx="4" ry="4" style="stroke: #374151; stroke-width: 1.5;" width="96" x="1255.5" y="1672.3984"/><text fill="#000000" font-family="Segoe UI" font-size="14" lengthAdjust="spacingAndGlyphs" textLength="82" x="1262.5" y="1692.3936">Trip Catalog</text></a><a href="/microservices/svc-safety-compliance/" target="_top" title="/microservices/svc-safety-compliance/" xlink:actuate="onRequest" xlink:href="/microservices/svc-safety-compliance/" xlink:show="new" xlink:title="/microservices/svc-safety-compliance/" xlink:type="simple"><rect fill="#FEE2E2" height="30.2969" rx="4" ry="4" style="stroke: #374151; stroke-width: 1.5;" width="141" x="1361.5" y="116.1875"/><text fill="#000000" font-family="Segoe UI" font-size="14" lengthAdjust="spacingAndGlyphs" textLength="127" x="1368.5" y="136.1826">Safety Compliance</text><rect fill="#FEE2E2" height="30.2969" rx="4" ry="4" style="stroke: #374151; stroke-width: 1.5;" width="141" x="1361.5" y="1672.3984"/><text fill="#000000" font-family="Segoe UI" font-size="14" lengthAdjust="spacingAndGlyphs" textLength="127" x="1368.5" y="1692.3936">Safety Compliance</text></a><a href="/microservices/svc-notifications/" target="_top" title="/microservices/svc-notifications/" xlink:actuate="onRequest" xlink:href="/microservices/svc-notifications/" xlink:show="new" xlink:title="/microservices/svc-notifications/" xlink:type="simple"><rect fill="#F1F5F9" height="30.2969" rx="4" ry="4" style="stroke: #374151; stroke-width: 1.5;" width="98" x="1512.5" y="116.1875"/><text fill="#000000" font-family="Segoe UI" font-size="14" lengthAdjust="spacingAndGlyphs" textLength="84" x="1519.5" y="136.1826">Notifications</text><rect fill="#F1F5F9" height="30.2969" rx="4" ry="4" style="stroke: #374151; stroke-width: 1.5;" width="98" x="1512.5" y="1672.3984"/><text fill="#000000" font-family="Segoe UI" font-size="14" lengthAdjust="spacingAndGlyphs" textLength="84" x="1519.5" y="1692.3936">Notifications</text></a><text fill="#000000" font-family="Segoe UI" font-size="14" lengthAdjust="spacingAndGlyphs" textLength="39" x="1620.5" y="144.1826">Redis</text><path d="M1625,95.1875 C1625,85.1875 1643,85.1875 1643,85.1875 C1643,85.1875 1661,85.1875 1661,95.1875 L1661,121.1875 C1661,131.1875 1643,131.1875 1643,131.1875 C1643,131.1875 1625,131.1875 1625,121.1875 L1625,95.1875 " fill="#FECDD3" style="stroke: #000000; stroke-width: 1.5;"/><path d="M1625,95.1875 C1625,105.1875 1643,105.1875 1643,105.1875 C1643,105.1875 1661,105.1875 1661,95.1875 " fill="none" style="stroke: #000000; stroke-width: 1.5;"/><text fill="#000000" font-family="Segoe UI" font-size="14" lengthAdjust="spacingAndGlyphs" textLength="39" x="1620.5" y="1685.3936">Redis</text><path d="M1625,1698.6953 C1625,1688.6953 1643,1688.6953 1643,1688.6953 C1643,1688.6953 1661,1688.6953 1661,1698.6953 L1661,1724.6953 C1661,1734.6953 1643,1734.6953 1643,1734.6953 C1643,1734.6953 1625,1734.6953 1625,1724.6953 L1625,1698.6953 " fill="#FECDD3" style="stroke: #000000; stroke-width: 1.5;"/><path d="M1625,1698.6953 C1625,1708.6953 1643,1708.6953 1643,1708.6953 C1643,1708.6953 1661,1708.6953 1661,1698.6953 " fill="none" style="stroke: #000000; stroke-width: 1.5;"/><a href="/microservices/svc-check-in/#data-store" target="_top" title="/microservices/svc-check-in/#data-store" xlink:actuate="onRequest" xlink:href="/microservices/svc-check-in/#data-store" xlink:show="new" xlink:title="/microservices/svc-check-in/#data-store" xlink:type="simple"><text fill="#000000" font-family="Segoe UI" font-size="14" lengthAdjust="spacingAndGlyphs" textLength="81" x="1675.5" y="144.1826">PostgreSQL</text><path d="M1701,95.1875 C1701,85.1875 1719,85.1875 1719,85.1875 C1719,85.1875 1737,85.1875 1737,95.1875 L1737,121.1875 C1737,131.1875 1719,131.1875 1719,131.1875 C1719,131.1875 1701,131.1875 1701,121.1875 L1701,95.1875 " fill="#FEF9C3" style="stroke: #000000; stroke-width: 1.5;"/><path d="M1701,95.1875 C1701,105.1875 1719,105.1875 1719,105.1875 C1719,105.1875 1737,105.1875 1737,95.1875 " fill="none" style="stroke: #000000; stroke-width: 1.5;"/><text fill="#000000" font-family="Segoe UI" font-size="14" lengthAdjust="spacingAndGlyphs" textLength="81" x="1675.5" y="1685.3936">PostgreSQL</text><path d="M1701,1698.6953 C1701,1688.6953 1719,1688.6953 1719,1688.6953 C1719,1688.6953 1737,1688.6953 1737,1698.6953 L1737,1724.6953 C1737,1734.6953 1719,1734.6953 1719,1734.6953 C1719,1734.6953 1701,1734.6953 1701,1724.6953 L1701,1698.6953 " fill="#FEF9C3" style="stroke: #000000; stroke-width: 1.5;"/><path d="M1701,1698.6953 C1701,1708.6953 1719,1708.6953 1719,1708.6953 C1719,1708.6953 1737,1708.6953 1737,1698.6953 " fill="none" style="stroke: #000000; stroke-width: 1.5;"/></a><rect fill="#059669" height="1441.6484" style="stroke: #6B7280; stroke-width: 1.0;" width="10" x="155.5" y="213.75"/><rect fill="#059669" height="1383.3828" style="stroke: #6B7280; stroke-width: 1.0;" width="10" x="358.5" y="242.8828"/><rect fill="#D1FAE5" height="44.2656" style="stroke: #6B7280; stroke-width: 1.0;" width="10" x="1068.5" y="365.4141"/><rect fill="#EDE9FE" height="29.1328" style="stroke: #6B7280; stroke-width: 1.0;" width="10" x="1185.5" y="643.4141"/><rect fill="#FEF3C7" height="44.2656" style="stroke: #6B7280; stroke-width: 1.0;" width="10" x="1298.5" y="825.2109"/><rect fill="#FEE2E2" height="29.1328" style="stroke: #6B7280; stroke-width: 1.0;" width="10" x="1427" y="1076.6719"/><rect fill="#FECDD3" height="53.2656" style="stroke: #6B7280; stroke-width: 1.0;" width="10" x="1638" y="517.0781"/><rect fill="#FECDD3" height="29.1328" style="stroke: #6B7280; stroke-width: 1.0;" width="10" x="1638" y="716.8125"/><rect fill="#FEF9C3" height="29.1328" style="stroke: #6B7280; stroke-width: 1.0;" width="10" x="1714" y="1369.9375"/><rect fill="#FEF9C3" height="29.1328" style="stroke: #6B7280; stroke-width: 1.0;" width="10" x="1714" y="1458.4688"/><path d="M293,166.4844 L293,183.4844 A4,4 0 0 0 297,187.4844 L430,187.4844 A4,4 0 0 0 434,183.4844 L434,172.4844 L424,162.4844 L297,162.4844 A4,4 0 0 0 293,166.4844 " fill="#FBFB77" style="stroke: #A80036; stroke-width: 1.0;"/><path d="M424,162.4844 L424,170.4844 A2,2 0 0 0 426,172.4844 L434,172.4844 L424,162.4844 " fill="#FBFB77" style="stroke: #A80036; stroke-width: 1.0;"/><a href="/services/api/svc-check-in.html#/Check-Ins/createCheckIn" target="_top" title="/services/api/svc-check-in.html#/Check-Ins/createCheckIn" xlink:actuate="onRequest" xlink:href="/services/api/svc-check-in.html#/Check-Ins/createCheckIn" xlink:show="new" xlink:title="/services/api/svc-check-in.html#/Check-Ins/createCheckIn" xlink:type="simple"><text fill="#0000FF" font-family="Segoe UI" font-size="13" lengthAdjust="spacingAndGlyphs" text-decoration="underline" textLength="120" x="299" y="179.5513">View in Swagger UI</text></a><polygon fill="#059669" points="143.5,209.75,153.5,213.75,143.5,217.75,147.5,213.75" style="stroke: #059669; stroke-width: 1.0;"/><line style="stroke: #059669; stroke-width: 1.0;" x1="34.5" x2="149.5" y1="213.75" y2="213.75"/><text fill="#000000" font-family="Segoe UI" font-size="13" lengthAdjust="spacingAndGlyphs" textLength="102" x="41.5" y="208.6841">POST /check-ins</text><polygon fill="#059669" points="346.5,238.8828,356.5,242.8828,346.5,246.8828,350.5,242.8828" style="stroke: #059669; stroke-width: 1.0;"/><line style="stroke: #059669; stroke-width: 1.0;" x1="165.5" x2="352.5" y1="242.8828" y2="242.8828"/><text fill="#000000" font-family="Segoe UI" font-size="13" lengthAdjust="spacingAndGlyphs" textLength="87" x="172.5" y="237.8169">route request</text><path d="M373,259.8828 L373,291.8828 A4,4 0 0 0 377,295.8828 L609,295.8828 A4,4 0 0 0 613,291.8828 L613,265.8828 L603,255.8828 L377,255.8828 A4,4 0 0 0 373,259.8828 " fill="#FBFB77" style="stroke: #A80036; stroke-width: 1.0;"/><path d="M603,255.8828 L603,263.8828 A2,2 0 0 0 605,265.8828 L613,265.8828 L603,255.8828 " fill="#FBFB77" style="stroke: #A80036; stroke-width: 1.0;"/><text fill="#000000" font-family="Segoe UI" font-size="13" lengthAdjust="spacingAndGlyphs" textLength="140" x="379" y="272.9497">Validate request body</text><text fill="#000000" font-family="Segoe UI" font-size="13" lengthAdjust="spacingAndGlyphs" textLength="219" x="379" y="288.0825">(reservation_id, guest_id required)</text><rect fill="#EEEEEE" height="3" style="stroke: #EEEEEE; stroke-width: 1.0;" width="1779.5" x="3" y="321.7148"/><line style="stroke: #000000; stroke-width: 1.0;" x1="3" x2="1782.5" y1="321.7148" y2="321.7148"/><line style="stroke: #000000; stroke-width: 1.0;" x1="3" x2="1782.5" y1="324.7148" y2="324.7148"/><rect fill="#EEEEEE" height="23.1328" style="stroke: #000000; stroke-width: 2.0;" width="185" x="800.25" y="311.1484"/><text fill="#000000" font-family="Segoe UI" font-size="13" font-weight="bold" lengthAdjust="spacingAndGlyphs" textLength="166" x="806.25" y="327.2153">Reservation Validation</text><polygon fill="#059669" points="1056.5,361.4141,1066.5,365.4141,1056.5,369.4141,1060.5,365.4141" style="stroke: #059669; stroke-width: 1.0;"/><line style="stroke: #059669; stroke-width: 1.0;" x1="368.5" x2="1062.5" y1="365.4141" y2="365.4141"/><a href="/microservices/svc-reservations/#get-reservationsreservation_id-get-reservation-details GET /reservations/" target="_top" title="id" xlink:actuate="onRequest" xlink:href="/microservices/svc-reservations/#get-reservationsreservation_id-get-reservation-details GET /reservations/" xlink:show="new" xlink:title="id" xlink:type="simple"><text fill="#0000FF" font-family="Segoe UI" font-size="13" lengthAdjust="spacingAndGlyphs" text-decoration="underline" textLength="681" x="375.5" y="360.3481">/microservices/svc-reservations/#get-reservationsreservation_id-get-reservation-details GET /reservations/</text></a><polygon fill="#059669" points="379.5,405.6797,369.5,409.6797,379.5,413.6797,375.5,409.6797" style="stroke: #059669; stroke-width: 1.0;"/><line style="stroke: #059669; stroke-width: 1.0; stroke-dasharray: 2.0,2.0;" x1="373.5" x2="1072.5" y1="409.6797" y2="409.6797"/><text fill="#000000" font-family="Segoe UI" font-size="13" lengthAdjust="spacingAndGlyphs" textLength="121" x="385.5" y="389.481">Reservation details</text><text fill="#000000" font-family="Segoe UI" font-size="13" lengthAdjust="spacingAndGlyphs" textLength="233" x="385.5" y="404.6138">(adventure_category, trip_id, status)</text><path d="M373,426.6797 L373,443.6797 A4,4 0 0 0 377,447.6797 L584,447.6797 A4,4 0 0 0 588,443.6797 L588,432.6797 L578,422.6797 L377,422.6797 A4,4 0 0 0 373,426.6797 " fill="#FBFB77" style="stroke: #A80036; stroke-width: 1.0;"/><path d="M578,422.6797 L578,430.6797 A2,2 0 0 0 580,432.6797 L588,432.6797 L578,422.6797 " fill="#FBFB77" style="stroke: #A80036; stroke-width: 1.0;"/><text fill="#000000" font-family="Segoe UI" font-size="13" lengthAdjust="spacingAndGlyphs" textLength="194" x="379" y="439.7466">Reject if status != CONFIRMED</text><rect fill="#EEEEEE" height="3" style="stroke: #EEEEEE; stroke-width: 1.0;" width="1779.5" x="3" y="473.3789"/><line style="stroke: #000000; stroke-width: 1.0;" x1="3" x2="1782.5" y1="473.3789" y2="473.3789"/><line style="stroke: #000000; stroke-width: 1.0;" x1="3" x2="1782.5" y1="476.3789" y2="476.3789"/><rect fill="#EEEEEE" height="23.1328" style="stroke: #000000; stroke-width: 2.0;" width="252" x="766.75" y="462.8125"/><text fill="#000000" font-family="Segoe UI" font-size="13" font-weight="bold" lengthAdjust="spacingAndGlyphs" textLength="233" x="772.75" y="478.8794">Guest Identity — Session Cache</text><polygon fill="#059669" points="1626,513.0781,1636,517.0781,1626,521.0781,1630,517.0781" style="stroke: #059669; stroke-width: 1.0;"/><line style="stroke: #059669; stroke-width: 1.0;" x1="368.5" x2="1632" y1="517.0781" y2="517.0781"/><text fill="#000000" font-family="Segoe UI" font-size="13" lengthAdjust="spacingAndGlyphs" textLength="246" x="375.5" y="512.0122">GET session:{kiosk_token}:{guest_id}</text><path d="M307,532.0781 L367,532.0781 L367,539.0781 L357,549.0781 L303,549.0781 L303,536.0781 " fill="#EEEEEE" style="stroke: #000000; stroke-width: 1.0;"/><rect fill="none" height="221.8672" rx="4" ry="4" style="stroke: #000000; stroke-width: 2.0;" width="1372.5" x="303" y="532.0781"/><text fill="#000000" font-family="Segoe UI" font-size="13" font-weight="bold" lengthAdjust="spacingAndGlyphs" textLength="19" x="318" y="545.145">alt</text><text fill="#000000" font-family="Segoe UI" font-size="11" font-weight="bold" lengthAdjust="spacingAndGlyphs" textLength="75" x="382" y="544.2886">[Cache HIT]</text><polygon fill="#059669" points="379.5,566.3438,369.5,570.3438,379.5,574.3438,375.5,570.3438" style="stroke: #059669; stroke-width: 1.0;"/><line style="stroke: #059669; stroke-width: 1.0; stroke-dasharray: 2.0,2.0;" x1="373.5" x2="1642" y1="570.3438" y2="570.3438"/><text fill="#000000" font-family="Segoe UI" font-size="13" lengthAdjust="spacingAndGlyphs" textLength="131" x="385.5" y="565.2778">Cached guest profile</text><line style="stroke: #000000; stroke-width: 1.0; stroke-dasharray: 2.0,2.0;" x1="303" x2="1675.5" y1="579.3438" y2="579.3438"/><text fill="#000000" font-family="Segoe UI" font-size="11" font-weight="bold" lengthAdjust="spacingAndGlyphs" textLength="85" x="308" y="589.5542">[Cache MISS]</text><polygon fill="#059669" points="379.5,610.2813,369.5,614.2813,379.5,618.2813,375.5,614.2813" style="stroke: #059669; stroke-width: 1.0;"/><line style="stroke: #059669; stroke-width: 1.0; stroke-dasharray: 2.0,2.0;" x1="373.5" x2="1642" y1="614.2813" y2="614.2813"/><text fill="#000000" font-family="Segoe UI" font-size="13" lengthAdjust="spacingAndGlyphs" textLength="22" x="385.5" y="609.2153">null</text><polygon fill="#059669" points="1173.5,639.4141,1183.5,643.4141,1173.5,647.4141,1177.5,643.4141" style="stroke: #059669; stroke-width: 1.0;"/><line style="stroke: #059669; stroke-width: 1.0;" x1="368.5" x2="1179.5" y1="643.4141" y2="643.4141"/><a href="/microservices/svc-guest-profiles/#get-guestsguest_id-get-guest-profile GET /guests/" target="_top" title="guest_id" xlink:actuate="onRequest" xlink:href="/microservices/svc-guest-profiles/#get-guestsguest_id-get-guest-profile GET /guests/" xlink:show="new" xlink:title="guest_id" xlink:type="simple"><text fill="#0000FF" font-family="Segoe UI" font-size="13" lengthAdjust="spacingAndGlyphs" text-decoration="underline" textLength="542" x="375.5" y="638.3481">/microservices/svc-guest-profiles/#get-guestsguest_id-get-guest-profile GET /guests/</text></a><polygon fill="#059669" points="379.5,668.5469,369.5,672.5469,379.5,676.5469,375.5,672.5469" style="stroke: #059669; stroke-width: 1.0;"/><line style="stroke: #059669; stroke-width: 1.0; stroke-dasharray: 2.0,2.0;" x1="373.5" x2="1189.5" y1="672.5469" y2="672.5469"/><text fill="#000000" font-family="Segoe UI" font-size="13" lengthAdjust="spacingAndGlyphs" textLength="81" x="385.5" y="667.481">Guest profile</text><polygon fill="#059669" points="1626,712.8125,1636,716.8125,1626,720.8125,1630,716.8125" style="stroke: #059669; stroke-width: 1.0;"/><line style="stroke: #059669; stroke-width: 1.0;" x1="368.5" x2="1632" y1="716.8125" y2="716.8125"/><text fill="#000000" font-family="Segoe UI" font-size="13" lengthAdjust="spacingAndGlyphs" textLength="245" x="375.5" y="696.6138">SET session:{kiosk_token}:{guest_id}</text><text fill="#000000" font-family="Segoe UI" font-size="13" lengthAdjust="spacingAndGlyphs" textLength="139" x="375.5" y="711.7466">TTL 15 min (ADR-009)</text><polygon fill="#059669" points="379.5,741.9453,369.5,745.9453,379.5,749.9453,375.5,745.9453" style="stroke: #059669; stroke-width: 1.0;"/><line style="stroke: #059669; stroke-width: 1.0; stroke-dasharray: 2.0,2.0;" x1="373.5" x2="1642" y1="745.9453" y2="745.9453"/><text fill="#000000" font-family="Segoe UI" font-size="13" lengthAdjust="spacingAndGlyphs" textLength="18" x="385.5" y="740.8794">OK</text><rect fill="#EEEEEE" height="3" style="stroke: #EEEEEE; stroke-width: 1.0;" width="1779.5" x="3" y="781.5117"/><line style="stroke: #000000; stroke-width: 1.0;" x1="3" x2="1782.5" y1="781.5117" y2="781.5117"/><line style="stroke: #000000; stroke-width: 1.0;" x1="3" x2="1782.5" y1="784.5117" y2="784.5117"/><rect fill="#EEEEEE" height="23.1328" style="stroke: #000000; stroke-width: 2.0;" width="351" x="717.25" y="770.9453"/><text fill="#000000" font-family="Segoe UI" font-size="13" font-weight="bold" lengthAdjust="spacingAndGlyphs" textLength="332" x="723.25" y="787.0122">Adventure Classification (ADR-004, ADR-005)</text><polygon fill="#059669" points="1286.5,821.2109,1296.5,825.2109,1286.5,829.2109,1290.5,825.2109" style="stroke: #059669; stroke-width: 1.0;"/><line style="stroke: #059669; stroke-width: 1.0;" x1="368.5" x2="1292.5" y1="825.2109" y2="825.2109"/><a href="/microservices/svc-trip-catalog/#get-tripstrip_id-get-trip-details GET /trips/" target="_top" title="trip_id" xlink:actuate="onRequest" xlink:href="/microservices/svc-trip-catalog/#get-tripstrip_id-get-trip-details GET /trips/" xlink:show="new" xlink:title="trip_id" xlink:type="simple"><text fill="#0000FF" font-family="Segoe UI" font-size="13" lengthAdjust="spacingAndGlyphs" text-decoration="underline" textLength="471" x="375.5" y="820.145">/microservices/svc-trip-catalog/#get-tripstrip_id-get-trip-details GET /trips/</text></a><polygon fill="#059669" points="379.5,865.4766,369.5,869.4766,379.5,873.4766,375.5,869.4766" style="stroke: #059669; stroke-width: 1.0;"/><line style="stroke: #059669; stroke-width: 1.0; stroke-dasharray: 2.0,2.0;" x1="373.5" x2="1302.5" y1="869.4766" y2="869.4766"/><text fill="#000000" font-family="Segoe UI" font-size="13" lengthAdjust="spacingAndGlyphs" textLength="69" x="385.5" y="849.2778">Trip details</text><text fill="#000000" font-family="Segoe UI" font-size="13" lengthAdjust="spacingAndGlyphs" textLength="138" x="385.5" y="864.4106">(adventure_category)</text><path d="M373,886.4766 L373,978.4766 A4,4 0 0 0 377,982.4766 L584,982.4766 A4,4 0 0 0 588,978.4766 L588,892.4766 L578,882.4766 L377,882.4766 A4,4 0 0 0 373,886.4766 " fill="#FBFB77" style="stroke: #A80036; stroke-width: 1.0;"/><path d="M578,882.4766 L578,890.4766 A2,2 0 0 0 580,892.4766 L588,892.4766 L578,882.4766 " fill="#FBFB77" style="stroke: #A80036; stroke-width: 1.0;"/><text fill="#000000" font-family="Segoe UI" font-size="13" lengthAdjust="spacingAndGlyphs" textLength="159" x="379" y="899.5435">Map adventure_category</text><text fill="#000000" font-family="Segoe UI" font-size="13" lengthAdjust="spacingAndGlyphs" textLength="121" x="379" y="914.6763">to check-in pattern</text><text fill="#000000" font-family="Segoe UI" font-size="13" lengthAdjust="spacingAndGlyphs" textLength="175" x="379" y="929.8091">via configuration (ADR-004)</text><text fill="#000000" font-family="Segoe UI" font-size="13" lengthAdjust="spacingAndGlyphs" textLength="0" x="383" y="944.9419"/><text fill="#000000" font-family="Segoe UI" font-size="13" lengthAdjust="spacingAndGlyphs" textLength="129" x="379" y="960.0747">Unknown categories</text><text fill="#000000" font-family="Segoe UI" font-size="13" lengthAdjust="spacingAndGlyphs" textLength="194" x="379" y="975.2075">default to Pattern 3 (ADR-005)</text><path d="M307,995.2734 L367,995.2734 L367,1002.2734 L357,1012.2734 L303,1012.2734 L303,999.2734 " fill="#EEEEEE" style="stroke: #000000; stroke-width: 1.0;"/><rect fill="none" height="233.8672" rx="4" ry="4" style="stroke: #000000; stroke-width: 2.0;" width="1209.5" x="303" y="995.2734"/><text fill="#000000" font-family="Segoe UI" font-size="13" font-weight="bold" lengthAdjust="spacingAndGlyphs" textLength="19" x="318" y="1008.3403">alt</text><text fill="#000000" font-family="Segoe UI" font-size="11" font-weight="bold" lengthAdjust="spacingAndGlyphs" textLength="282" x="382" y="1007.4839">[Pattern 2 or Pattern 3 (guided/full service)]</text><rect fill="#EEEEEE" height="3" style="stroke: #EEEEEE; stroke-width: 1.0;" width="1779.5" x="3" y="1032.9727"/><line style="stroke: #000000; stroke-width: 1.0;" x1="3" x2="1782.5" y1="1032.9727" y2="1032.9727"/><line style="stroke: #000000; stroke-width: 1.0;" x1="3" x2="1782.5" y1="1035.9727" y2="1035.9727"/><rect fill="#EEEEEE" height="23.1328" style="stroke: #000000; stroke-width: 2.0;" width="148" x="818.75" y="1022.4063"/><text fill="#000000" font-family="Segoe UI" font-size="13" font-weight="bold" lengthAdjust="spacingAndGlyphs" textLength="129" x="824.75" y="1038.4731">Waiver Validation</text><polygon fill="#059669" points="1415,1072.6719,1425,1076.6719,1415,1080.6719,1419,1076.6719" style="stroke: #059669; stroke-width: 1.0;"/><line style="stroke: #059669; stroke-width: 1.0;" x1="368.5" x2="1421" y1="1076.6719" y2="1076.6719"/><a href="/microservices/svc-safety-compliance/#get-waivers-list-waivers-by-guest GET /waivers?guest_id=" target="_top" title="guest_id" xlink:actuate="onRequest" xlink:href="/microservices/svc-safety-compliance/#get-waivers-list-waivers-by-guest GET /waivers?guest_id=" xlink:show="new" xlink:title="guest_id" xlink:type="simple"><text fill="#0000FF" font-family="Segoe UI" font-size="13" lengthAdjust="spacingAndGlyphs" text-decoration="underline" textLength="619" x="375.5" y="1071.606">/microservices/svc-safety-compliance/#get-waivers-list-waivers-by-guest GET /waivers?guest_id=</text></a><polygon fill="#059669" points="379.5,1101.8047,369.5,1105.8047,379.5,1109.8047,375.5,1105.8047" style="stroke: #059669; stroke-width: 1.0;"/><line style="stroke: #059669; stroke-width: 1.0; stroke-dasharray: 2.0,2.0;" x1="373.5" x2="1431" y1="1105.8047" y2="1105.8047"/><text fill="#000000" font-family="Segoe UI" font-size="13" lengthAdjust="spacingAndGlyphs" textLength="90" x="385.5" y="1100.7388">Active waivers</text><path d="M373,1122.8047 L373,1154.8047 A4,4 0 0 0 377,1158.8047 L493,1158.8047 A4,4 0 0 0 497,1154.8047 L497,1128.8047 L487,1118.8047 L377,1118.8047 A4,4 0 0 0 373,1122.8047 " fill="#FBFB77" style="stroke: #A80036; stroke-width: 1.0;"/><path d="M487,1118.8047 L487,1126.8047 A2,2 0 0 0 489,1128.8047 L497,1128.8047 L487,1118.8047 " fill="#FBFB77" style="stroke: #A80036; stroke-width: 1.0;"/><text fill="#000000" font-family="Segoe UI" font-size="13" lengthAdjust="spacingAndGlyphs" textLength="103" x="379" y="1135.8716">Reject if no valid</text><text fill="#000000" font-family="Segoe UI" font-size="13" lengthAdjust="spacingAndGlyphs" textLength="82" x="379" y="1151.0044">waiver on file</text><line style="stroke: #000000; stroke-width: 1.0; stroke-dasharray: 2.0,2.0;" x1="303" x2="1512.5" y1="1165.0703" y2="1165.0703"/><text fill="#000000" font-family="Segoe UI" font-size="11" font-weight="bold" lengthAdjust="spacingAndGlyphs" textLength="204" x="308" y="1175.2808">[Pattern 1 (basic self-check-in)]</text><path d="M373,1187.875 L373,1219.875 A4,4 0 0 0 377,1223.875 L526,1223.875 A4,4 0 0 0 530,1219.875 L530,1193.875 L520,1183.875 L377,1183.875 A4,4 0 0 0 373,1187.875 " fill="#FBFB77" style="stroke: #A80036; stroke-width: 1.0;"/><path d="M520,1183.875 L520,1191.875 A2,2 0 0 0 522,1193.875 L530,1193.875 L520,1183.875 " fill="#FBFB77" style="stroke: #A80036; stroke-width: 1.0;"/><text fill="#000000" font-family="Segoe UI" font-size="13" lengthAdjust="spacingAndGlyphs" textLength="136" x="379" y="1200.9419">Waiver check skipped</text><text fill="#000000" font-family="Segoe UI" font-size="13" lengthAdjust="spacingAndGlyphs" textLength="126" x="379" y="1216.0747">(low-risk adventure)</text><rect fill="#EEEEEE" height="3" style="stroke: #EEEEEE; stroke-width: 1.0;" width="1779.5" x="3" y="1256.707"/><line style="stroke: #000000; stroke-width: 1.0;" x1="3" x2="1782.5" y1="1256.707" y2="1256.707"/><line style="stroke: #000000; stroke-width: 1.0;" x1="3" x2="1782.5" y1="1259.707" y2="1259.707"/><rect fill="#EEEEEE" height="23.1328" style="stroke: #000000; stroke-width: 2.0;" width="180" x="802.75" y="1246.1406"/><text fill="#000000" font-family="Segoe UI" font-size="13" font-weight="bold" lengthAdjust="spacingAndGlyphs" textLength="161" x="808.75" y="1262.2075">Database Transaction</text><path d="M307,1286.2734 L611,1286.2734 L611,1293.2734 L601,1303.2734 L303,1303.2734 L303,1290.2734 " fill="#EEEEEE" style="stroke: #000000; stroke-width: 1.0;"/><rect fill="none" height="209.3281" rx="4" ry="4" style="stroke: #000000; stroke-width: 2.0;" width="1469.5" x="303" y="1286.2734"/><text fill="#000000" font-family="Segoe UI" font-size="13" font-weight="bold" lengthAdjust="spacingAndGlyphs" textLength="263" x="318" y="1299.3403">Transaction boundary (PostgreSQL)</text><polygon fill="#059669" points="1702,1365.9375,1712,1369.9375,1702,1373.9375,1706,1369.9375" style="stroke: #059669; stroke-width: 1.0;"/><line style="stroke: #059669; stroke-width: 1.0;" x1="368.5" x2="1708" y1="1369.9375" y2="1369.9375"/><text fill="#000000" font-family="Segoe UI" font-size="13" lengthAdjust="spacingAndGlyphs" textLength="145" x="375.5" y="1319.4731">INSERT INTO check_ins</text><text fill="#000000" font-family="Segoe UI" font-size="13" lengthAdjust="spacingAndGlyphs" textLength="180" x="375.5" y="1334.606">(check_in_id, reservation_id,</text><text fill="#000000" font-family="Segoe UI" font-size="13" lengthAdjust="spacingAndGlyphs" textLength="194" x="375.5" y="1349.7388">guest_id, adventure_category,</text><text fill="#000000" font-family="Segoe UI" font-size="13" lengthAdjust="spacingAndGlyphs" textLength="162" x="375.5" y="1364.8716">check_in_pattern, status)</text><polygon fill="#059669" points="379.5,1395.0703,369.5,1399.0703,379.5,1403.0703,375.5,1399.0703" style="stroke: #059669; stroke-width: 1.0;"/><line style="stroke: #059669; stroke-width: 1.0; stroke-dasharray: 2.0,2.0;" x1="373.5" x2="1718" y1="1399.0703" y2="1399.0703"/><text fill="#000000" font-family="Segoe UI" font-size="13" lengthAdjust="spacingAndGlyphs" textLength="77" x="385.5" y="1394.0044">Created row</text><polygon fill="#059669" points="1702,1454.4688,1712,1458.4688,1702,1462.4688,1706,1458.4688" style="stroke: #059669; stroke-width: 1.0;"/><line style="stroke: #059669; stroke-width: 1.0;" x1="368.5" x2="1708" y1="1458.4688" y2="1458.4688"/><text fill="#000000" font-family="Segoe UI" font-size="13" lengthAdjust="spacingAndGlyphs" textLength="233" x="375.5" y="1423.1372">INSERT INTO wristband_assignments</text><text fill="#000000" font-family="Segoe UI" font-size="13" lengthAdjust="spacingAndGlyphs" textLength="169" x="375.5" y="1438.27">(wristband_id, check_in_id,</text><text fill="#000000" font-family="Segoe UI" font-size="13" lengthAdjust="spacingAndGlyphs" textLength="138" x="375.5" y="1453.4028">rfid_tag, assigned_at)</text><polygon fill="#059669" points="379.5,1483.6016,369.5,1487.6016,379.5,1491.6016,375.5,1487.6016" style="stroke: #059669; stroke-width: 1.0;"/><line style="stroke: #059669; stroke-width: 1.0; stroke-dasharray: 2.0,2.0;" x1="373.5" x2="1718" y1="1487.6016" y2="1487.6016"/><text fill="#000000" font-family="Segoe UI" font-size="13" lengthAdjust="spacingAndGlyphs" textLength="77" x="385.5" y="1482.5356">Created row</text><rect fill="#EEEEEE" height="3" style="stroke: #EEEEEE; stroke-width: 1.0;" width="1779.5" x="3" y="1523.168"/><line style="stroke: #000000; stroke-width: 1.0;" x1="3" x2="1782.5" y1="1523.168" y2="1523.168"/><line style="stroke: #000000; stroke-width: 1.0;" x1="3" x2="1782.5" y1="1526.168" y2="1526.168"/><rect fill="#EEEEEE" height="23.1328" style="stroke: #000000; stroke-width: 2.0;" width="116" x="834.75" y="1512.6016"/><text fill="#000000" font-family="Segoe UI" font-size="13" font-weight="bold" lengthAdjust="spacingAndGlyphs" textLength="97" x="840.75" y="1528.6685">Async Events</text><line style="stroke: #059669; stroke-width: 1.0;" x1="1559.5" x2="1549.5" y1="1566.8672" y2="1562.8672"/><line style="stroke: #059669; stroke-width: 1.0;" x1="1559.5" x2="1549.5" y1="1566.8672" y2="1570.8672"/><line style="stroke: #059669; stroke-width: 1.0;" x1="368.5" x2="1560.5" y1="1566.8672" y2="1566.8672"/><a href="/microservices/svc-notifications/#post-notifications-send-a-notification" target="_top" title="/microservices/svc-notifications/#post-notifications-send-a-notification" xlink:actuate="onRequest" xlink:href="/microservices/svc-notifications/#post-notifications-send-a-notification" xlink:show="new" xlink:title="/microservices/svc-notifications/#post-notifications-send-a-notification" xlink:type="simple"><text fill="#0000FF" font-family="Segoe UI" font-size="13" lengthAdjust="spacingAndGlyphs" text-decoration="underline" textLength="174" x="375.5" y="1561.8013">Send check-in confirmation</text></a><polygon fill="#059669" points="176.5,1622.2656,166.5,1626.2656,176.5,1630.2656,172.5,1626.2656" style="stroke: #059669; stroke-width: 1.0;"/><line style="stroke: #059669; stroke-width: 1.0; stroke-dasharray: 2.0,2.0;" x1="170.5" x2="362.5" y1="1626.2656" y2="1626.2656"/><text fill="#000000" font-family="Segoe UI" font-size="13" lengthAdjust="spacingAndGlyphs" textLength="79" x="182.5" y="1590.9341">201 Created</text><text fill="#000000" font-family="Segoe UI" font-size="13" lengthAdjust="spacingAndGlyphs" textLength="169" x="182.5" y="1606.0669">(check_in_id, wristband_id,</text><text fill="#000000" font-family="Segoe UI" font-size="13" lengthAdjust="spacingAndGlyphs" textLength="114" x="182.5" y="1621.1997">check_in_pattern)</text><polygon fill="#059669" points="45.5,1651.3984,35.5,1655.3984,45.5,1659.3984,41.5,1655.3984" style="stroke: #059669; stroke-width: 1.0;"/><line style="stroke: #059669; stroke-width: 1.0; stroke-dasharray: 2.0,2.0;" x1="39.5" x2="159.5" y1="1655.3984" y2="1655.3984"/><text fill="#000000" font-family="Segoe UI" font-size="13" lengthAdjust="spacingAndGlyphs" textLength="79" x="51.5" y="1650.3325">201 Created</text><a href="/microservices/svc-check-in/#integration-context" target="_top" title="/microservices/svc-check-in/#integration-context" xlink:actuate="onRequest" xlink:href="/microservices/svc-check-in/#integration-context" xlink:show="new" xlink:title="/microservices/svc-check-in/#integration-context" xlink:type="simple"><text fill="#0000FF" font-family="Segoe UI" font-size="10" lengthAdjust="spacingAndGlyphs" text-decoration="underline" textLength="169" x="1613.5" y="12.2822">⬆ svc-check-in Integration Context</text></a><!--MD5=[16e814042a0f5ba27e73a4af485da18c]
@startuml svc-check-in- -post-check-ins


skinparam backgroundColor #FEFEFE
skinparam shadowing false
skinparam defaultFontName "Segoe UI"
skinparam sequence {
    ParticipantBorderColor #374151
    ParticipantBackgroundColor #F9FAFB
    LifeLineBorderColor #6B7280
    BoxBorderColor #94A3B8
    BoxBackgroundColor #F8FAFC
    NoteBorderColor #64748B
    NoteBackgroundColor #F8FAFC
}

skinparam rectangle {
    BorderColor #374151
    BackgroundColor #FFFFFF
}
skinparam component {
    BackgroundColor #F9FAFB
    BorderColor #374151
}
skinparam roundCorner 8



skinparam sequence {
    ArrowColor #059669
}

header [[/microservices/svc-check-in/#integration-context ⬆ svc-check-in Integration Context]]

title POST /check-ins\nInitiate check-in for a participant\n<size:10><color:#7c3aed>ARCHITECT OVERRIDE — enriched with internal behavior</color></size>

participant "Client" as Client [[/applications/]]
participant "API Gateway" as GW [[/actors/#api-gateway]] #E0F2FE
participant "svc-check-in" as Svc [[/microservices/svc-check-in/]] #DBEAFE
participant "Reservations" as Res [[/microservices/svc-reservations/]] #D1FAE5
participant "Guest Profiles" as GP [[/microservices/svc-guest-profiles/]] #EDE9FE
participant "Trip Catalog" as TC [[/microservices/svc-trip-catalog/]] #FEF3C7
participant "Safety Compliance" as Safety [[/microservices/svc-safety-compliance/]] #FEE2E2
participant "Notifications" as Ntfy [[/microservices/svc-notifications/]] #F1F5F9
database "Redis" as Cache #FECDD3
database "PostgreSQL" as DB [[/microservices/svc-check-in/#data-store]] #FEF9C3

note over Svc
  [[/services/api/svc-check-in.html#/Check-Ins/createCheckIn View in Swagger UI]]
end note

Client -> GW : POST /check-ins
activate GW #059669
GW -> Svc : route request
activate Svc #059669

note right of Svc : Validate request body\n(reservation_id, guest_id required)

== Reservation Validation ==

Svc -> Res : [[/microservices/svc-reservations/#get-reservationsreservation_id-get-reservation-details GET /reservations/{id}]]
activate Res #D1FAE5
Res - -> Svc : Reservation details\n(adventure_category, trip_id, status)
deactivate Res
note right of Svc : Reject if status != CONFIRMED

== Guest Identity — Session Cache ==

Svc -> Cache : GET session:{kiosk_token}:{guest_id}
activate Cache #FECDD3
alt Cache HIT
    Cache - -> Svc : Cached guest profile
    deactivate Cache
else Cache MISS
    Cache - -> Svc : null
    deactivate Cache
    Svc -> GP : [[/microservices/svc-guest-profiles/#get-guestsguest_id-get-guest-profile GET /guests/{guest_id}]]
    activate GP #EDE9FE
    GP - -> Svc : Guest profile
    deactivate GP
    Svc -> Cache : SET session:{kiosk_token}:{guest_id}\nTTL 15 min (ADR-009)
    activate Cache #FECDD3
    Cache - -> Svc : OK
    deactivate Cache
end

== Adventure Classification (ADR-004, ADR-005) ==

Svc -> TC : [[/microservices/svc-trip-catalog/#get-tripstrip_id-get-trip-details GET /trips/{trip_id}]]
activate TC #FEF3C7
TC - -> Svc : Trip details\n(adventure_category)
deactivate TC

note right of Svc : Map adventure_category\nto check-in pattern\nvia configuration (ADR-004)\n\nUnknown categories\ndefault to Pattern 3 (ADR-005)

alt Pattern 2 or Pattern 3 (guided/full service)
    == Waiver Validation ==
    Svc -> Safety : [[/microservices/svc-safety-compliance/#get-waivers-list-waivers-by-guest GET /waivers?guest_id={guest_id}]]
    activate Safety #FEE2E2
    Safety - -> Svc : Active waivers
    deactivate Safety
    note right of Svc : Reject if no valid\nwaiver on file
else Pattern 1 (basic self-check-in)
    note right of Svc : Waiver check skipped\n(low-risk adventure)
end

== Database Transaction ==

group Transaction boundary (PostgreSQL)
    Svc -> DB : INSERT INTO check_ins\n(check_in_id, reservation_id,\nguest_id, adventure_category,\ncheck_in_pattern, status)
    activate DB #FEF9C3
    DB - -> Svc : Created row
    deactivate DB

    Svc -> DB : INSERT INTO wristband_assignments\n(wristband_id, check_in_id,\nrfid_tag, assigned_at)
    activate DB #FEF9C3
    DB - -> Svc : Created row
    deactivate DB
end

== Async Events ==

Svc ->> Ntfy : [[/microservices/svc-notifications/#post-notifications-send-a-notification Send check-in confirmation]]

Svc - -> GW : 201 Created\n(check_in_id, wristband_id,\ncheck_in_pattern)
deactivate Svc
GW - -> Client : 201 Created
deactivate GW

@enduml

PlantUML version 1.2020.02(Sun Mar 01 10:22:07 UTC 2020)
(GPL source distribution)
Java Runtime: OpenJDK Runtime Environment
JVM: OpenJDK 64-Bit Server VM
Java Version: 17.0.18+8
Operating System: Linux
Default Encoding: UTF-8
Language: en
Country: null
--></g></svg>