<?xml version="1.0" encoding="UTF-8" standalone="no"?><svg xmlns="http://www.w3.org/2000/svg" xmlns:xlink="http://www.w3.org/1999/xlink" contentScriptType="application/ecmascript" contentStyleType="text/css" height="583px" preserveAspectRatio="none" style="width:676px;height:583px;background:#FEFEFE;" version="1.1" viewBox="0 0 676 583" width="676px" zoomAndPan="magnify"><defs/><g><text fill="#000000" font-family="Segoe UI" font-size="18" lengthAdjust="spacingAndGlyphs" textLength="194" x="236.5" y="41.3486">GET /weather/current</text><text fill="#000000" font-family="Segoe UI" font-size="18" lengthAdjust="spacingAndGlyphs" textLength="278" x="194.5" y="62.3018">Get current weather conditions</text><rect fill="#2563EB" height="290.1953" style="stroke: #6B7280; stroke-width: 1.0;" width="10" x="187.5" y="202.1094"/><rect fill="#2563EB" height="231.9297" style="stroke: #6B7280; stroke-width: 1.0;" width="10" x="303.5" y="231.2422"/><rect fill="#F3F4F6" height="29.1328" style="stroke: #6B7280; stroke-width: 1.0;" width="10" x="486.5" y="303.5078"/><rect fill="#FEF9C3" height="29.1328" style="stroke: #6B7280; stroke-width: 1.0;" width="10" x="609" y="404.9063"/><line style="stroke: #6B7280; stroke-width: 1.0; stroke-dasharray: 5.0,5.0;" x1="34" x2="34" y1="135.8438" y2="510.3047"/><line style="stroke: #6B7280; stroke-width: 1.0; stroke-dasharray: 5.0,5.0;" x1="192.5" x2="192.5" y1="135.8438" y2="510.3047"/><line style="stroke: #6B7280; stroke-width: 1.0; stroke-dasharray: 5.0,5.0;" x1="308.5" x2="308.5" y1="135.8438" y2="510.3047"/><line style="stroke: #6B7280; stroke-width: 1.0; stroke-dasharray: 5.0,5.0;" x1="491" x2="491" y1="135.8438" y2="510.3047"/><line style="stroke: #6B7280; stroke-width: 1.0; stroke-dasharray: 5.0,5.0;" x1="614" x2="614" y1="135.8438" y2="510.3047"/><a href="/applications/" target="_top" title="/applications/" xlink:actuate="onRequest" xlink:href="/applications/" xlink:show="new" xlink:title="/applications/" xlink:type="simple"><rect fill="#F9FAFB" height="30.2969" style="stroke: #374151; stroke-width: 1.5;" width="53" x="8" y="104.5469"/><text fill="#000000" font-family="Segoe UI" font-size="14" lengthAdjust="spacingAndGlyphs" textLength="39" x="15" y="124.542">Client</text><rect fill="#F9FAFB" height="30.2969" style="stroke: #374151; stroke-width: 1.5;" width="53" x="8" y="509.3047"/><text fill="#000000" font-family="Segoe UI" font-size="14" lengthAdjust="spacingAndGlyphs" textLength="39" x="15" y="529.2998">Client</text></a><a href="/actors/#api-gateway" target="_top" title="/actors/#api-gateway" xlink:actuate="onRequest" xlink:href="/actors/#api-gateway" xlink:show="new" xlink:title="/actors/#api-gateway" xlink:type="simple"><rect fill="#E0F2FE" height="30.2969" style="stroke: #374151; stroke-width: 1.5;" width="98" x="143.5" y="104.5469"/><text fill="#000000" font-family="Segoe UI" font-size="14" lengthAdjust="spacingAndGlyphs" textLength="84" x="150.5" y="124.542">API Gateway</text><rect fill="#E0F2FE" height="30.2969" style="stroke: #374151; stroke-width: 1.5;" width="98" x="143.5" y="509.3047"/><text fill="#000000" font-family="Segoe UI" font-size="14" lengthAdjust="spacingAndGlyphs" textLength="84" x="150.5" y="529.2998">API Gateway</text></a><a href="/microservices/svc-weather/" target="_top" title="/microservices/svc-weather/" xlink:actuate="onRequest" xlink:href="/microservices/svc-weather/" xlink:show="new" xlink:title="/microservices/svc-weather/" xlink:type="simple"><rect fill="#F1F5F9" height="30.2969" style="stroke: #374151; stroke-width: 1.5;" width="98" x="259.5" y="104.5469"/><text fill="#000000" font-family="Segoe UI" font-size="14" lengthAdjust="spacingAndGlyphs" textLength="84" x="266.5" y="124.542">svc-weather</text><rect fill="#F1F5F9" height="30.2969" style="stroke: #374151; stroke-width: 1.5;" width="98" x="259.5" y="509.3047"/><text fill="#000000" font-family="Segoe UI" font-size="14" lengthAdjust="spacingAndGlyphs" textLength="84" x="266.5" y="529.2998">svc-weather</text></a><a href="/actors/#openweather-api" target="_top" title="/actors/#openweather-api" xlink:actuate="onRequest" xlink:href="/actors/#openweather-api" xlink:show="new" xlink:title="/actors/#openweather-api" xlink:type="simple"><rect fill="#F3F4F6" height="30.2969" style="stroke: #374151; stroke-width: 1.5;" width="135" x="424" y="104.5469"/><text fill="#000000" font-family="Segoe UI" font-size="14" lengthAdjust="spacingAndGlyphs" textLength="121" x="431" y="124.542">OpenWeather API</text><rect fill="#F3F4F6" height="30.2969" style="stroke: #374151; stroke-width: 1.5;" width="135" x="424" y="509.3047"/><text fill="#000000" font-family="Segoe UI" font-size="14" lengthAdjust="spacingAndGlyphs" textLength="121" x="431" y="529.2998">OpenWeather API</text></a><a href="/microservices/svc-weather/#data-store" target="_top" title="/microservices/svc-weather/#data-store" xlink:actuate="onRequest" xlink:href="/microservices/svc-weather/#data-store" xlink:show="new" xlink:title="/microservices/svc-weather/#data-store" xlink:type="simple"><text fill="#000000" font-family="Segoe UI" font-size="14" lengthAdjust="spacingAndGlyphs" textLength="84" x="569" y="132.542">Valkey + PG</text><path d="M596,83.5469 C596,73.5469 614,73.5469 614,73.5469 C614,73.5469 632,73.5469 632,83.5469 L632,109.5469 C632,119.5469 614,119.5469 614,119.5469 C614,119.5469 596,119.5469 596,109.5469 L596,83.5469 " fill="#FEF9C3" style="stroke: #000000; stroke-width: 1.5;"/><path d="M596,83.5469 C596,93.5469 614,93.5469 614,93.5469 C614,93.5469 632,93.5469 632,83.5469 " fill="none" style="stroke: #000000; stroke-width: 1.5;"/><text fill="#000000" font-family="Segoe UI" font-size="14" lengthAdjust="spacingAndGlyphs" textLength="84" x="569" y="522.2998">Valkey + PG</text><path d="M596,535.6016 C596,525.6016 614,525.6016 614,525.6016 C614,525.6016 632,525.6016 632,535.6016 L632,561.6016 C632,571.6016 614,571.6016 614,571.6016 C614,571.6016 596,571.6016 596,561.6016 L596,535.6016 " fill="#FEF9C3" style="stroke: #000000; stroke-width: 1.5;"/><path d="M596,535.6016 C596,545.6016 614,545.6016 614,545.6016 C614,545.6016 632,545.6016 632,535.6016 " fill="none" style="stroke: #000000; stroke-width: 1.5;"/></a><rect fill="#2563EB" height="290.1953" style="stroke: #6B7280; stroke-width: 1.0;" width="10" x="187.5" y="202.1094"/><rect fill="#2563EB" height="231.9297" style="stroke: #6B7280; stroke-width: 1.0;" width="10" x="303.5" y="231.2422"/><rect fill="#F3F4F6" height="29.1328" style="stroke: #6B7280; stroke-width: 1.0;" width="10" x="486.5" y="303.5078"/><rect fill="#FEF9C3" height="29.1328" style="stroke: #6B7280; stroke-width: 1.0;" width="10" x="609" y="404.9063"/><path d="M238,150.8438 L238,175.8438 L379,175.8438 L379,160.8438 L369,150.8438 L238,150.8438 " fill="#FBFB77" style="stroke: #A80036; stroke-width: 1.0;"/><path d="M369,150.8438 L369,160.8438 L379,160.8438 L369,150.8438 " fill="#FBFB77" style="stroke: #A80036; stroke-width: 1.0;"/><a href="/services/api/svc-weather.html#/Weather/getCurrentWeather" target="_top" title="/services/api/svc-weather.html#/Weather/getCurrentWeather" xlink:actuate="onRequest" xlink:href="/services/api/svc-weather.html#/Weather/getCurrentWeather" xlink:show="new" xlink:title="/services/api/svc-weather.html#/Weather/getCurrentWeather" xlink:type="simple"><text fill="#0000FF" font-family="Segoe UI" font-size="13" lengthAdjust="spacingAndGlyphs" text-decoration="underline" textLength="120" x="244" y="167.9106">View in Swagger UI</text></a><polygon fill="#2563EB" points="175.5,198.1094,185.5,202.1094,175.5,206.1094,179.5,202.1094" style="stroke: #2563EB; stroke-width: 1.0;"/><line style="stroke: #2563EB; stroke-width: 1.0;" x1="34.5" x2="181.5" y1="202.1094" y2="202.1094"/><text fill="#000000" font-family="Segoe UI" font-size="13" lengthAdjust="spacingAndGlyphs" textLength="134" x="41.5" y="197.0435">GET /weather/current</text><polygon fill="#2563EB" points="291.5,227.2422,301.5,231.2422,291.5,235.2422,295.5,231.2422" style="stroke: #2563EB; stroke-width: 1.0;"/><line style="stroke: #2563EB; stroke-width: 1.0;" x1="197.5" x2="297.5" y1="231.2422" y2="231.2422"/><text fill="#000000" font-family="Segoe UI" font-size="13" lengthAdjust="spacingAndGlyphs" textLength="87" x="204.5" y="226.1763">route request</text><rect fill="#EEEEEE" height="3" style="stroke: #EEEEEE; stroke-width: 1.0;" width="661" x="3" y="259.8086"/><line style="stroke: #000000; stroke-width: 1.0;" x1="3" x2="664" y1="259.8086" y2="259.8086"/><line style="stroke: #000000; stroke-width: 1.0;" x1="3" x2="664" y1="262.8086" y2="262.8086"/><rect fill="#EEEEEE" height="23.1328" style="stroke: #000000; stroke-width: 2.0;" width="204" x="231.5" y="249.2422"/><text fill="#000000" font-family="Segoe UI" font-size="13" font-weight="bold" lengthAdjust="spacingAndGlyphs" textLength="185" x="237.5" y="265.3091">Cross-Service Integration</text><polygon fill="#2563EB" points="474.5,299.5078,484.5,303.5078,474.5,307.5078,478.5,303.5078" style="stroke: #2563EB; stroke-width: 1.0;"/><line style="stroke: #2563EB; stroke-width: 1.0;" x1="313.5" x2="480.5" y1="303.5078" y2="303.5078"/><text fill="#000000" font-family="Segoe UI" font-size="13" lengthAdjust="spacingAndGlyphs" textLength="154" x="320.5" y="298.4419">Fetch current conditions</text><polygon fill="#2563EB" points="324.5,328.6406,314.5,332.6406,324.5,336.6406,320.5,332.6406" style="stroke: #2563EB; stroke-width: 1.0;"/><line style="stroke: #2563EB; stroke-width: 1.0; stroke-dasharray: 2.0,2.0;" x1="318.5" x2="490.5" y1="332.6406" y2="332.6406"/><text fill="#000000" font-family="Segoe UI" font-size="13" lengthAdjust="spacingAndGlyphs" textLength="18" x="330.5" y="327.5747">OK</text><rect fill="#EEEEEE" height="3" style="stroke: #EEEEEE; stroke-width: 1.0;" width="661" x="3" y="361.207"/><line style="stroke: #000000; stroke-width: 1.0;" x1="3" x2="664" y1="361.207" y2="361.207"/><line style="stroke: #000000; stroke-width: 1.0;" x1="3" x2="664" y1="364.207" y2="364.207"/><rect fill="#EEEEEE" height="23.1328" style="stroke: #000000; stroke-width: 2.0;" width="90" x="288.5" y="350.6406"/><text fill="#000000" font-family="Segoe UI" font-size="13" font-weight="bold" lengthAdjust="spacingAndGlyphs" textLength="71" x="294.5" y="366.7075">Database</text><polygon fill="#2563EB" points="597,400.9063,607,404.9063,597,408.9063,601,404.9063" style="stroke: #2563EB; stroke-width: 1.0;"/><line style="stroke: #2563EB; stroke-width: 1.0;" x1="313.5" x2="603" y1="404.9063" y2="404.9063"/><text fill="#000000" font-family="Segoe UI" font-size="13" lengthAdjust="spacingAndGlyphs" textLength="152" x="320.5" y="399.8403">SELECT ... WHERE filters</text><polygon fill="#2563EB" points="324.5,430.0391,314.5,434.0391,324.5,438.0391,320.5,434.0391" style="stroke: #2563EB; stroke-width: 1.0;"/><line style="stroke: #2563EB; stroke-width: 1.0; stroke-dasharray: 2.0,2.0;" x1="318.5" x2="613" y1="434.0391" y2="434.0391"/><text fill="#000000" font-family="Segoe UI" font-size="13" lengthAdjust="spacingAndGlyphs" textLength="95" x="330.5" y="428.9731">Page of results</text><polygon fill="#2563EB" points="208.5,459.1719,198.5,463.1719,208.5,467.1719,204.5,463.1719" style="stroke: #2563EB; stroke-width: 1.0;"/><line style="stroke: #2563EB; stroke-width: 1.0; stroke-dasharray: 2.0,2.0;" x1="202.5" x2="307.5" y1="463.1719" y2="463.1719"/><text fill="#000000" font-family="Segoe UI" font-size="13" lengthAdjust="spacingAndGlyphs" textLength="46" x="214.5" y="458.106">200 OK</text><polygon fill="#2563EB" points="45.5,488.3047,35.5,492.3047,45.5,496.3047,41.5,492.3047" style="stroke: #2563EB; stroke-width: 1.0;"/><line style="stroke: #2563EB; stroke-width: 1.0; stroke-dasharray: 2.0,2.0;" x1="39.5" x2="191.5" y1="492.3047" y2="492.3047"/><text fill="#000000" font-family="Segoe UI" font-size="13" lengthAdjust="spacingAndGlyphs" textLength="46" x="51.5" y="487.2388">200 OK</text><a href="/microservices/svc-weather/#integration-context" target="_top" title="/microservices/svc-weather/#integration-context" xlink:actuate="onRequest" xlink:href="/microservices/svc-weather/#integration-context" xlink:show="new" xlink:title="/microservices/svc-weather/#integration-context" xlink:type="simple"><text fill="#0000FF" font-family="Segoe UI" font-size="10" lengthAdjust="spacingAndGlyphs" text-decoration="underline" textLength="170" x="494" y="12.2822">⬆ svc-weather Integration Context</text></a><!--MD5=[085e0e2ca60a3b933a7bb6dd2a33b680]
@startuml svc-weather- -get-weather-current

skinparam backgroundColor #FEFEFE
skinparam shadowing false
skinparam defaultFontName "Segoe UI"
skinparam sequence {
    ArrowColor #2563eb
    ParticipantBorderColor #374151
    ParticipantBackgroundColor #F9FAFB
    LifeLineBorderColor #6B7280
    BoxBorderColor #94A3B8
    BoxBackgroundColor #F8FAFC
    NoteBorderColor #64748B
    NoteBackgroundColor #F8FAFC
}

header [[/microservices/svc-weather/#integration-context ⬆ svc-weather Integration Context]]

title GET /weather/current\nGet current weather conditions

participant "Client" as Client [[/applications/]]
participant "API Gateway" as GW [[/actors/#api-gateway]] #E0F2FE
participant "svc-weather" as Svc [[/microservices/svc-weather/]] #F1F5F9
participant "OpenWeather API" as ExtWx [[/actors/#openweather-api]] #F3F4F6
database "Valkey + PG" as DB [[/microservices/svc-weather/#data-store]] #FEF9C3

note over Svc
  [[/services/api/svc-weather.html#/Weather/getCurrentWeather View in Swagger UI]]
end note

Client -> GW : GET /weather/current
activate GW #2563eb
GW -> Svc : route request
activate Svc #2563eb

== Cross-Service Integration ==

Svc -> ExtWx : Fetch current conditions
activate ExtWx #F3F4F6
ExtWx - -> Svc : OK
deactivate ExtWx

== Database ==

Svc -> DB : SELECT ... WHERE filters
activate DB #FEF9C3
DB - -> Svc : Page of results
deactivate DB

Svc - -> GW : 200 OK
deactivate Svc
GW - -> Client : 200 OK
deactivate GW

@enduml

PlantUML version 1.2020.02(Sun Mar 01 10:22:07 UTC 2020)
(GPL source distribution)
Java Runtime: OpenJDK Runtime Environment
JVM: OpenJDK 64-Bit Server VM
Java Version: 17.0.18+8
Operating System: Linux
Default Encoding: UTF-8
Language: en
Country: null
--></g></svg>