<svg xmlns="http://www.w3.org/2000/svg" xmlns:xlink="http://www.w3.org/1999/xlink" contentStyleType="text/css" data-diagram-type="SEQUENCE" height="474px" preserveAspectRatio="none" style="width:523px;height:474px;background:#FEFEFE;" version="1.1" viewBox="0 0 523 474" width="523px" zoomAndPan="magnify"><title>GET /gear-items</title><defs/><g><rect fill="#FEFEFE" height="474" style="stroke:none;stroke-width:1;" width="523" x="0" y="0"/><text fill="#000000" font-family="Segoe UI" font-size="14" font-weight="bold" lengthAdjust="spacing" textLength="121.9326" x="196.9597" y="28.5352">GET /gear-items</text><text fill="#000000" font-family="Segoe UI" font-size="14" font-weight="bold" lengthAdjust="spacing" textLength="157.2949" x="179.2786" y="45.0234">Search gear inventory</text><g><title>API Gateway</title><rect fill="#2563EB" height="189.8633" style="stroke:#A23B72;stroke-width:1;" width="10" x="156.3394" y="188.0859"/></g><g><title>svc-gear-inventory</title><rect fill="#2563EB" height="131.2422" style="stroke:#A23B72;stroke-width:1;" width="10" x="287.1748" y="217.3965"/></g><g><title>PostgreSQL</title><rect fill="#FCE4EC" height="29.3105" style="stroke:#A23B72;stroke-width:1;" width="10" x="465.4272" y="290.0176"/></g><g><title>Client</title><rect fill="#000000" fill-opacity="0.00000" height="274.4844" width="8" x="27.7524" y="121.4648"/><line style="stroke:#A23B72;stroke-width:0.5;stroke-dasharray:5,5;" x1="31" x2="31" y1="121.4648" y2="395.9492"/></g><g><title>API Gateway</title><rect fill="#000000" fill-opacity="0.00000" height="274.4844" width="8" x="157.3394" y="121.4648"/><line style="stroke:#A23B72;stroke-width:0.5;stroke-dasharray:5,5;" x1="161.0503" x2="161.0503" y1="121.4648" y2="395.9492"/></g><g><title>svc-gear-inventory</title><rect fill="#000000" fill-opacity="0.00000" height="274.4844" width="8" x="288.1748" y="121.4648"/><line style="stroke:#A23B72;stroke-width:0.5;stroke-dasharray:5,5;" x1="291.6284" x2="291.6284" y1="121.4648" y2="395.9492"/></g><g><title>PostgreSQL</title><rect fill="#000000" fill-opacity="0.00000" height="274.4844" width="8" x="466.4272" y="121.4648"/><line style="stroke:#A23B72;stroke-width:0.5;stroke-dasharray:5,5;" x1="470.0024" x2="470.0024" y1="121.4648" y2="395.9492"/></g><g class="participant participant-head" data-participant="Client"><rect fill="#E8F4F8" height="30.4883" rx="2.5" ry="2.5" style="stroke:#2E86AB;stroke-width:0.5;" width="53.5049" x="5" y="89.9766"/><text fill="#000000" font-family="Segoe UI" font-size="14" lengthAdjust="spacing" textLength="39.5049" x="12" y="110.5117">Client</text></g><g class="participant participant-tail" data-participant="Client"><rect fill="#E8F4F8" height="30.4883" rx="2.5" ry="2.5" style="stroke:#2E86AB;stroke-width:0.5;" width="53.5049" x="5" y="394.9492"/><text fill="#000000" font-family="Segoe UI" font-size="14" lengthAdjust="spacing" textLength="39.5049" x="12" y="415.4844">Client</text></g><g class="participant participant-head" data-participant="GW"><rect fill="#DBEAFE" height="30.4883" rx="2.5" ry="2.5" style="stroke:#2E86AB;stroke-width:0.5;" width="96.5781" x="113.0503" y="89.9766"/><text fill="#000000" font-family="Segoe UI" font-size="14" lengthAdjust="spacing" textLength="82.5781" x="120.0503" y="110.5117">API Gateway</text></g><g class="participant participant-tail" data-participant="GW"><rect fill="#DBEAFE" height="30.4883" rx="2.5" ry="2.5" style="stroke:#2E86AB;stroke-width:0.5;" width="96.5781" x="113.0503" y="394.9492"/><text fill="#000000" font-family="Segoe UI" font-size="14" lengthAdjust="spacing" textLength="82.5781" x="120.0503" y="415.4844">API Gateway</text></g><g class="participant participant-head" data-participant="Svc"><a href="/microservices/svc-gear-inventory/" target="_top" title="/microservices/svc-gear-inventory/" xlink:actuate="onRequest" xlink:href="/microservices/svc-gear-inventory/" xlink:show="new" xlink:title="/microservices/svc-gear-inventory/" xlink:type="simple"><rect fill="#E8F4F8" height="30.4883" rx="2.5" ry="2.5" style="stroke:#2E86AB;stroke-width:0.5;" width="145.0928" x="219.6284" y="89.9766"/><text fill="#000000" font-family="Segoe UI" font-size="14" lengthAdjust="spacing" textLength="131.0928" x="226.6284" y="110.5117">svc-gear-inventory</text></a></g><g class="participant participant-tail" data-participant="Svc"><a href="/microservices/svc-gear-inventory/" target="_top" title="/microservices/svc-gear-inventory/" xlink:actuate="onRequest" xlink:href="/microservices/svc-gear-inventory/" xlink:show="new" xlink:title="/microservices/svc-gear-inventory/" xlink:type="simple"><rect fill="#E8F4F8" height="30.4883" rx="2.5" ry="2.5" style="stroke:#2E86AB;stroke-width:0.5;" width="145.0928" x="219.6284" y="394.9492"/><text fill="#000000" font-family="Segoe UI" font-size="14" lengthAdjust="spacing" textLength="131.0928" x="226.6284" y="415.4844">svc-gear-inventory</text></a></g><g class="participant participant-head" data-participant="DB"><text fill="#000000" font-family="Segoe UI" font-size="14" lengthAdjust="spacing" textLength="76.8496" x="429.0024" y="118.5117">PostgreSQL</text><path d="M452.4272,68.9766 C452.4272,58.9766 470.4272,58.9766 470.4272,58.9766 C470.4272,58.9766 488.4272,58.9766 488.4272,68.9766 L488.4272,94.9766 C488.4272,104.9766 470.4272,104.9766 470.4272,104.9766 C470.4272,104.9766 452.4272,104.9766 452.4272,94.9766 L452.4272,68.9766" fill="#FCE4EC" style="stroke:#181818;stroke-width:0.5;"/><path d="M452.4272,68.9766 C452.4272,78.9766 470.4272,78.9766 470.4272,78.9766 C470.4272,78.9766 488.4272,78.9766 488.4272,68.9766" fill="none" style="stroke:#181818;stroke-width:0.5;"/></g><g class="participant participant-tail" data-participant="DB"><text fill="#000000" font-family="Segoe UI" font-size="14" lengthAdjust="spacing" textLength="76.8496" x="429.0024" y="408.4844">PostgreSQL</text><path d="M452.4272,421.4375 C452.4272,411.4375 470.4272,411.4375 470.4272,411.4375 C470.4272,411.4375 488.4272,411.4375 488.4272,421.4375 L488.4272,447.4375 C488.4272,457.4375 470.4272,457.4375 470.4272,457.4375 C470.4272,457.4375 452.4272,457.4375 452.4272,447.4375 L452.4272,421.4375" fill="#FCE4EC" style="stroke:#181818;stroke-width:0.5;"/><path d="M452.4272,421.4375 C452.4272,431.4375 470.4272,431.4375 470.4272,431.4375 C470.4272,431.4375 488.4272,431.4375 488.4272,421.4375" fill="none" style="stroke:#181818;stroke-width:0.5;"/></g><g><title>API Gateway</title><rect fill="#2563EB" height="189.8633" style="stroke:#A23B72;stroke-width:1;" width="10" x="156.3394" y="188.0859"/></g><g><title>svc-gear-inventory</title><rect fill="#2563EB" height="131.2422" style="stroke:#A23B72;stroke-width:1;" width="10" x="287.1748" y="217.3965"/></g><g><title>PostgreSQL</title><rect fill="#FCE4EC" height="29.3105" style="stroke:#A23B72;stroke-width:1;" width="10" x="465.4272" y="290.0176"/></g><path d="M221,136.4648 L221,161.4648 L361,161.4648 L361,146.4648 L351,136.4648 L221,136.4648" fill="#FEFFDD" style="stroke:#181818;stroke-width:0.5;"/><path d="M351,136.4648 L351,146.4648 L361,146.4648 L351,136.4648" fill="#FEFFDD" style="stroke:#181818;stroke-width:0.5;"/><a href="/services/api/svc-gear-inventory.html#/Gear%20Items/searchGearItems" target="_top" title="/services/api/svc-gear-inventory.html#/Gear%20Items/searchGearItems" xlink:actuate="onRequest" xlink:href="/services/api/svc-gear-inventory.html#/Gear%20Items/searchGearItems" xlink:show="new" xlink:title="/services/api/svc-gear-inventory.html#/Gear%20Items/searchGearItems" xlink:type="simple"><text fill="#0000FF" font-family="Segoe UI" font-size="13" lengthAdjust="spacing" text-decoration="underline" textLength="119.4058" x="227" y="154.0332">View in Swagger UI</text></a><g class="message" data-participant-1="Client" data-participant-2="GW"><polygon fill="#2563EB" points="144.3394,184.0859,154.3394,188.0859,144.3394,192.0859,148.3394,188.0859" style="stroke:#2563EB;stroke-width:1;"/><line style="stroke:#2563EB;stroke-width:1;" x1="31.7524" x2="150.3394" y1="188.0859" y2="188.0859"/><text fill="#000000" font-family="Segoe UI" font-size="13" lengthAdjust="spacing" textLength="105.5869" x="38.7524" y="183.3438">GET /gear-items</text></g><g class="message" data-participant-1="GW" data-participant-2="Svc"><polygon fill="#2563EB" points="275.1748,213.3965,285.1748,217.3965,275.1748,221.3965,279.1748,217.3965" style="stroke:#2563EB;stroke-width:1;"/><line style="stroke:#2563EB;stroke-width:1;" x1="166.3394" x2="281.1748" y1="217.3965" y2="217.3965"/><text fill="#000000" font-family="Segoe UI" font-size="13" lengthAdjust="spacing" textLength="85.1348" x="173.3394" y="212.6543">route request</text></g><rect fill="#EEEEEE" height="3" style="stroke:#EEEEEE;stroke-width:1;" width="516.8521" x="0" y="246.0518"/><line style="stroke:#000000;stroke-width:1;" x1="0" x2="516.8521" y1="246.0518" y2="246.0518"/><line style="stroke:#000000;stroke-width:1;" x1="0" x2="516.8521" y1="249.0518" y2="249.0518"/><rect fill="#EEEEEE" height="23.3105" style="stroke:#000000;stroke-width:2;" width="80.3711" x="218.2405" y="235.3965"/><text fill="#000000" font-family="Segoe UI" font-size="13" font-weight="bold" lengthAdjust="spacing" textLength="62.0864" x="224.2405" y="251.9648">Database</text><g class="message" data-participant-1="Svc" data-participant-2="DB"><polygon fill="#2563EB" points="453.4272,286.0176,463.4272,290.0176,453.4272,294.0176,457.4272,290.0176" style="stroke:#2563EB;stroke-width:1;"/><line style="stroke:#2563EB;stroke-width:1;" x1="297.1748" x2="459.4272" y1="290.0176" y2="290.0176"/><text fill="#000000" font-family="Segoe UI" font-size="13" lengthAdjust="spacing" textLength="149.2524" x="304.1748" y="285.2754">SELECT ... WHERE filters</text></g><g class="message" data-participant-1="DB" data-participant-2="Svc"><polygon fill="#2563EB" points="308.1748,315.3281,298.1748,319.3281,308.1748,323.3281,304.1748,319.3281" style="stroke:#2563EB;stroke-width:1;"/><line style="stroke:#2563EB;stroke-width:1;stroke-dasharray:2,2;" x1="302.1748" x2="469.4272" y1="319.3281" y2="319.3281"/><text fill="#000000" font-family="Segoe UI" font-size="13" lengthAdjust="spacing" textLength="93.209" x="314.1748" y="314.5859">Page of results</text></g><g class="message" data-participant-1="Svc" data-participant-2="GW"><polygon fill="#2563EB" points="177.3394,344.6387,167.3394,348.6387,177.3394,352.6387,173.3394,348.6387" style="stroke:#2563EB;stroke-width:1;"/><line style="stroke:#2563EB;stroke-width:1;stroke-dasharray:2,2;" x1="171.3394" x2="291.1748" y1="348.6387" y2="348.6387"/><text fill="#000000" font-family="Segoe UI" font-size="13" lengthAdjust="spacing" textLength="47.3599" x="183.3394" y="343.8965">200 OK</text></g><g class="message" data-participant-1="GW" data-participant-2="Client"><polygon fill="#2563EB" points="42.7524,373.9492,32.7524,377.9492,42.7524,381.9492,38.7524,377.9492" style="stroke:#2563EB;stroke-width:1;"/><line style="stroke:#2563EB;stroke-width:1;stroke-dasharray:2,2;" x1="36.7524" x2="160.3394" y1="377.9492" y2="377.9492"/><text fill="#000000" font-family="Segoe UI" font-size="13" lengthAdjust="spacing" textLength="47.3599" x="48.7524" y="373.207">200 OK</text></g><!--SRC=[RPDTRzem58Rl_IkEGBlaez0LXCGa0Wv3GnrRsd7HSM6IGx0QR6QRq6hQVzzn-6XeIMwSyxu-RyxZn3vBjHL6R60fukVKw9rAXZhJ1geXzpUpPuTTYqJlfKfX9JAB9IN1bTXbBjJAtOiDGYN2L2CyJYhbxVXdXof6-Ck0he4nUd-CQds-Q-EoAC-4SJAMMw5Se4s2vcJXtRj1yC7o_gLvDxmDkuLjAbSubGelsWnQxQ3JAlH0lrn8uKqtRDwSfGyumf3qGhxNxh9htEaisoNj2iesxx1_Z3dfCeGnVu16YiBKfCED_QqYMiThy2MGAaVbj7bbRFisALI6cQHw1OI5m_9I7imcC1OEz-Ary8pdK1q5V417UE6pULmxH9zo2dkKn_3qrDZ8s6YB9fSnsiP7RsEnE4DEX1DBOUcuPzgwr63qOrhq6WKqyf3VyY5ZYdY0pj7u12946UVsOYklHDJNRfDL6sCgVcer9nuGRV5yVAbuXbyIzmGAehr8K-hzE5ai6Ae4V1nZ1pvG- -8fzDxZPY9sCYTK1QFZjqTBidiAFQ2Z8z7uxzMwDxSNJtRMxyFeD7-_pvWNgG6DteE8J_dm0UhrEio_yfySLZ9pQ4h19KAqh9sJPo8bMYlAjlG_MPPWQSinv3HLgzc4xz_A5a_Opq6E8u5hhl6S_GS0]--></g></svg>