<svg xmlns="http://www.w3.org/2000/svg" xmlns:xlink="http://www.w3.org/1999/xlink" contentStyleType="text/css" data-diagram-type="SEQUENCE" height="474px" preserveAspectRatio="none" style="width:716px;height:474px;background:#FEFEFE;" version="1.1" viewBox="0 0 716 474" width="716px" zoomAndPan="magnify"><title>GET /members/{guest_id}/transactions</title><defs/><g><rect fill="#FEFEFE" height="474" style="stroke:none;stroke-width:1;" width="716" x="0" y="0"/><text fill="#000000" font-family="Segoe UI" font-size="14" font-weight="bold" lengthAdjust="spacing" textLength="284.751" x="211.6335" y="28.5352">GET /members/{guest_id}/transactions</text><text fill="#000000" font-family="Segoe UI" font-size="14" font-weight="bold" lengthAdjust="spacing" textLength="264.8721" x="221.573" y="45.0234">List point transactions for a member</text><g><title>API Gateway</title><rect fill="#2563EB" height="189.8633" style="stroke:#A23B72;stroke-width:1;" width="10" x="297.8604" y="188.0859"/></g><g><title>svc-loyalty-rewards</title><rect fill="#2563EB" height="131.2422" style="stroke:#A23B72;stroke-width:1;" width="10" x="431.0337" y="217.3965"/></g><g><title>Couchbase</title><rect fill="#FCE4EC" height="29.3105" style="stroke:#A23B72;stroke-width:1;" width="10" x="658.8613" y="290.0176"/></g><g><title>Client</title><rect fill="#000000" fill-opacity="0.00000" height="274.4844" width="8" x="27.7524" y="121.4648"/><line style="stroke:#A23B72;stroke-width:0.5;stroke-dasharray:5,5;" x1="31" x2="31" y1="121.4648" y2="395.9492"/></g><g><title>API Gateway</title><rect fill="#000000" fill-opacity="0.00000" height="274.4844" width="8" x="298.8604" y="121.4648"/><line style="stroke:#A23B72;stroke-width:0.5;stroke-dasharray:5,5;" x1="302.5713" x2="302.5713" y1="121.4648" y2="395.9492"/></g><g><title>svc-loyalty-rewards</title><rect fill="#000000" fill-opacity="0.00000" height="274.4844" width="8" x="432.0337" y="121.4648"/><line style="stroke:#A23B72;stroke-width:0.5;stroke-dasharray:5,5;" x1="435.1494" x2="435.1494" y1="121.4648" y2="395.9492"/></g><g><title>Couchbase</title><rect fill="#000000" fill-opacity="0.00000" height="274.4844" width="8" x="659.8613" y="121.4648"/><line style="stroke:#A23B72;stroke-width:0.5;stroke-dasharray:5,5;" x1="663.7046" x2="663.7046" y1="121.4648" y2="395.9492"/></g><g class="participant participant-head" data-participant="Client"><rect fill="#E8F4F8" height="30.4883" rx="2.5" ry="2.5" style="stroke:#2E86AB;stroke-width:0.5;" width="53.5049" x="5" y="89.9766"/><text fill="#000000" font-family="Segoe UI" font-size="14" lengthAdjust="spacing" textLength="39.5049" x="12" y="110.5117">Client</text></g><g class="participant participant-tail" data-participant="Client"><rect fill="#E8F4F8" height="30.4883" rx="2.5" ry="2.5" style="stroke:#2E86AB;stroke-width:0.5;" width="53.5049" x="5" y="394.9492"/><text fill="#000000" font-family="Segoe UI" font-size="14" lengthAdjust="spacing" textLength="39.5049" x="12" y="415.4844">Client</text></g><g class="participant participant-head" data-participant="GW"><rect fill="#DBEAFE" height="30.4883" rx="2.5" ry="2.5" style="stroke:#2E86AB;stroke-width:0.5;" width="96.5781" x="254.5713" y="89.9766"/><text fill="#000000" font-family="Segoe UI" font-size="14" lengthAdjust="spacing" textLength="82.5781" x="261.5713" y="110.5117">API Gateway</text></g><g class="participant participant-tail" data-participant="GW"><rect fill="#DBEAFE" height="30.4883" rx="2.5" ry="2.5" style="stroke:#2E86AB;stroke-width:0.5;" width="96.5781" x="254.5713" y="394.9492"/><text fill="#000000" font-family="Segoe UI" font-size="14" lengthAdjust="spacing" textLength="82.5781" x="261.5713" y="415.4844">API Gateway</text></g><g class="participant participant-head" data-participant="Svc"><a href="/microservices/svc-loyalty-rewards/" target="_top" title="/microservices/svc-loyalty-rewards/" xlink:actuate="onRequest" xlink:href="/microservices/svc-loyalty-rewards/" xlink:show="new" xlink:title="/microservices/svc-loyalty-rewards/" xlink:type="simple"><rect fill="#E8F4F8" height="30.4883" rx="2.5" ry="2.5" style="stroke:#2E86AB;stroke-width:0.5;" width="149.7686" x="361.1494" y="89.9766"/><text fill="#000000" font-family="Segoe UI" font-size="14" lengthAdjust="spacing" textLength="135.7686" x="368.1494" y="110.5117">svc-loyalty-rewards</text></a></g><g class="participant participant-tail" data-participant="Svc"><a href="/microservices/svc-loyalty-rewards/" target="_top" title="/microservices/svc-loyalty-rewards/" xlink:actuate="onRequest" xlink:href="/microservices/svc-loyalty-rewards/" xlink:show="new" xlink:title="/microservices/svc-loyalty-rewards/" xlink:type="simple"><rect fill="#E8F4F8" height="30.4883" rx="2.5" ry="2.5" style="stroke:#2E86AB;stroke-width:0.5;" width="149.7686" x="361.1494" y="394.9492"/><text fill="#000000" font-family="Segoe UI" font-size="14" lengthAdjust="spacing" textLength="135.7686" x="368.1494" y="415.4844">svc-loyalty-rewards</text></a></g><g class="participant participant-head" data-participant="DB"><text fill="#000000" font-family="Segoe UI" font-size="14" lengthAdjust="spacing" textLength="74.3135" x="623.7046" y="118.5117">Couchbase</text><path d="M645.8613,68.9766 C645.8613,58.9766 663.8613,58.9766 663.8613,58.9766 C663.8613,58.9766 681.8613,58.9766 681.8613,68.9766 L681.8613,94.9766 C681.8613,104.9766 663.8613,104.9766 663.8613,104.9766 C663.8613,104.9766 645.8613,104.9766 645.8613,94.9766 L645.8613,68.9766" fill="#FCE4EC" style="stroke:#181818;stroke-width:0.5;"/><path d="M645.8613,68.9766 C645.8613,78.9766 663.8613,78.9766 663.8613,78.9766 C663.8613,78.9766 681.8613,78.9766 681.8613,68.9766" fill="none" style="stroke:#181818;stroke-width:0.5;"/></g><g class="participant participant-tail" data-participant="DB"><text fill="#000000" font-family="Segoe UI" font-size="14" lengthAdjust="spacing" textLength="74.3135" x="623.7046" y="408.4844">Couchbase</text><path d="M645.8613,421.4375 C645.8613,411.4375 663.8613,411.4375 663.8613,411.4375 C663.8613,411.4375 681.8613,411.4375 681.8613,421.4375 L681.8613,447.4375 C681.8613,457.4375 663.8613,457.4375 663.8613,457.4375 C663.8613,457.4375 645.8613,457.4375 645.8613,447.4375 L645.8613,421.4375" fill="#FCE4EC" style="stroke:#181818;stroke-width:0.5;"/><path d="M645.8613,421.4375 C645.8613,431.4375 663.8613,431.4375 663.8613,431.4375 C663.8613,431.4375 681.8613,431.4375 681.8613,421.4375" fill="none" style="stroke:#181818;stroke-width:0.5;"/></g><g><title>API Gateway</title><rect fill="#2563EB" height="189.8633" style="stroke:#A23B72;stroke-width:1;" width="10" x="297.8604" y="188.0859"/></g><g><title>svc-loyalty-rewards</title><rect fill="#2563EB" height="131.2422" style="stroke:#A23B72;stroke-width:1;" width="10" x="431.0337" y="217.3965"/></g><g><title>Couchbase</title><rect fill="#FCE4EC" height="29.3105" style="stroke:#A23B72;stroke-width:1;" width="10" x="658.8613" y="290.0176"/></g><path d="M365,136.4648 L365,161.4648 L505,161.4648 L505,146.4648 L495,136.4648 L365,136.4648" fill="#FEFFDD" style="stroke:#181818;stroke-width:0.5;"/><path d="M495,136.4648 L495,146.4648 L505,146.4648 L495,136.4648" fill="#FEFFDD" style="stroke:#181818;stroke-width:0.5;"/><a href="/services/api/svc-loyalty-rewards.html#/Transactions/getMemberTransactions" target="_top" title="/services/api/svc-loyalty-rewards.html#/Transactions/getMemberTransactions" xlink:actuate="onRequest" xlink:href="/services/api/svc-loyalty-rewards.html#/Transactions/getMemberTransactions" xlink:show="new" xlink:title="/services/api/svc-loyalty-rewards.html#/Transactions/getMemberTransactions" xlink:type="simple"><text fill="#0000FF" font-family="Segoe UI" font-size="13" lengthAdjust="spacing" text-decoration="underline" textLength="119.4058" x="371" y="154.0332">View in Swagger UI</text></a><g class="message" data-participant-1="Client" data-participant-2="GW"><polygon fill="#2563EB" points="285.8604,184.0859,295.8604,188.0859,285.8604,192.0859,289.8604,188.0859" style="stroke:#2563EB;stroke-width:1;"/><line style="stroke:#2563EB;stroke-width:1;" x1="31.7524" x2="291.8604" y1="188.0859" y2="188.0859"/><text fill="#000000" font-family="Segoe UI" font-size="13" lengthAdjust="spacing" textLength="247.1079" x="38.7524" y="183.3438">GET /members/{guest_id}/transactions</text></g><g class="message" data-participant-1="GW" data-participant-2="Svc"><polygon fill="#2563EB" points="419.0337,213.3965,429.0337,217.3965,419.0337,221.3965,423.0337,217.3965" style="stroke:#2563EB;stroke-width:1;"/><line style="stroke:#2563EB;stroke-width:1;" x1="307.8604" x2="425.0337" y1="217.3965" y2="217.3965"/><text fill="#000000" font-family="Segoe UI" font-size="13" lengthAdjust="spacing" textLength="85.1348" x="314.8604" y="212.6543">route request</text></g><rect fill="#EEEEEE" height="3" style="stroke:#EEEEEE;stroke-width:1;" width="709.0181" x="0" y="246.0518"/><line style="stroke:#000000;stroke-width:1;" x1="0" x2="709.0181" y1="246.0518" y2="246.0518"/><line style="stroke:#000000;stroke-width:1;" x1="0" x2="709.0181" y1="249.0518" y2="249.0518"/><rect fill="#EEEEEE" height="23.3105" style="stroke:#000000;stroke-width:2;" width="80.3711" x="314.3235" y="235.3965"/><text fill="#000000" font-family="Segoe UI" font-size="13" font-weight="bold" lengthAdjust="spacing" textLength="62.0864" x="320.3235" y="251.9648">Database</text><g class="message" data-participant-1="Svc" data-participant-2="DB"><polygon fill="#2563EB" points="646.8613,286.0176,656.8613,290.0176,646.8613,294.0176,650.8613,290.0176" style="stroke:#2563EB;stroke-width:1;"/><line style="stroke:#2563EB;stroke-width:1;" x1="441.0337" x2="652.8613" y1="290.0176" y2="290.0176"/><text fill="#000000" font-family="Segoe UI" font-size="13" lengthAdjust="spacing" textLength="198.8276" x="448.0337" y="285.2754">N1QL: SELECT WHERE parent_id</text></g><g class="message" data-participant-1="DB" data-participant-2="Svc"><polygon fill="#2563EB" points="452.0337,315.3281,442.0337,319.3281,452.0337,323.3281,448.0337,319.3281" style="stroke:#2563EB;stroke-width:1;"/><line style="stroke:#2563EB;stroke-width:1;stroke-dasharray:2,2;" x1="446.0337" x2="662.8613" y1="319.3281" y2="319.3281"/><text fill="#000000" font-family="Segoe UI" font-size="13" lengthAdjust="spacing" textLength="87.604" x="458.0337" y="314.5859">Document set</text></g><g class="message" data-participant-1="Svc" data-participant-2="GW"><polygon fill="#2563EB" points="318.8604,344.6387,308.8604,348.6387,318.8604,352.6387,314.8604,348.6387" style="stroke:#2563EB;stroke-width:1;"/><line style="stroke:#2563EB;stroke-width:1;stroke-dasharray:2,2;" x1="312.8604" x2="435.0337" y1="348.6387" y2="348.6387"/><text fill="#000000" font-family="Segoe UI" font-size="13" lengthAdjust="spacing" textLength="47.3599" x="324.8604" y="343.8965">200 OK</text></g><g class="message" data-participant-1="GW" data-participant-2="Client"><polygon fill="#2563EB" points="42.7524,373.9492,32.7524,377.9492,42.7524,381.9492,38.7524,377.9492" style="stroke:#2563EB;stroke-width:1;"/><line style="stroke:#2563EB;stroke-width:1;stroke-dasharray:2,2;" x1="36.7524" x2="301.8604" y1="377.9492" y2="377.9492"/><text fill="#000000" font-family="Segoe UI" font-size="13" lengthAdjust="spacing" textLength="47.3599" x="48.7524" y="373.207">200 OK</text></g><!--SRC=[ZP9RZzem48NV_Ij6y4p3PRiW92gHu51KocuBMnwsg3B94AnDR6exKBJQ_ruxt4ANXoOF6UKSdx6_iNxXOiCKos39efT4oLp4WKobWcf8tKlqsQ7NB9OxBX9OiLHZIObnnVBKX5AO2SiGAbDC9CBJg59UZhzp5172Am7xz9MIksEhviVx5YwBtuzC6Hxn3HF6bof6TRBGpdtVVsVvTzEq4zw5dS8svYiSSu5NCVrcosyt2zsNVwwaiD49wuspz0v765gza2VINAT6xVQoLT9ke6pHDdaZn72J8Wpf3BmCioKgxRqcEMhpYyTldb5CQ1OPBeN-ASPS6zX8BWoK1LZPI0Q7vOHiBZIW4gGSXQa0qt0eh-N-umY6pE2ExGlFS0xLWK_xTinNFhsDQgdSizJiQygwLQmB_tGRmVEpb_58IOrgooFKtWspjrYSHn4pmvPCsqiHo3nQkxB86lYMIq3lQ428iD10Rb6v3XQZxN6EPnj-gyM7jSdIgZShWV4ID5yBAkM_y8FZ3hY0wOubYMtnD5ei28eON5T23foWzidHwFxNQ8ZxRYt70k3nyjhIPZX2NR2pjw9o5rwRYzk99plfzM1mGjFh4U946s2nT67I-3RkmfIEQJ23-MVwdOATZzsctSebhaJGbhLpzu6CyioTIQCXCPRynowdipRhTNZuKhOu_EuWrd7aSiird9E_]--></g></svg>