<svg xmlns="http://www.w3.org/2000/svg" xmlns:xlink="http://www.w3.org/1999/xlink" contentStyleType="text/css" data-diagram-type="SEQUENCE" height="603px" preserveAspectRatio="none" style="width:759px;height:603px;background:#FEFEFE;" version="1.1" viewBox="0 0 759 603" width="759px" zoomAndPan="magnify"><title>POST /trips/{trip_id}/schedule</title><defs/><g><rect fill="#FEFEFE" height="603" style="stroke:none;stroke-width:1;" width="759" x="0" y="0"/><text fill="#000000" font-family="Segoe UI" font-size="14" font-weight="bold" lengthAdjust="spacing" textLength="220.9785" x="265.2625" y="28.5352">POST /trips/{trip_id}/schedule</text><text fill="#000000" font-family="Segoe UI" font-size="14" font-weight="bold" lengthAdjust="spacing" textLength="194.9883" x="278.2576" y="45.0234">Add a scheduled departure</text><g><title>API Gateway</title><rect fill="#059669" height="319.1055" style="stroke:#A23B72;stroke-width:1;" width="10" x="241.436" y="188.0859"/></g><g><title>svc-trip-catalog</title><rect fill="#059669" height="260.4844" style="stroke:#A23B72;stroke-width:1;" width="10" x="362.1372" y="217.3965"/></g><g><title>PostgreSQL</title><rect fill="#FCE4EC" height="29.3105" style="stroke:#A23B72;stroke-width:1;" width="10" x="568.5415" y="325.3281"/></g><g><title>PostgreSQL</title><rect fill="#FCE4EC" height="29.3105" style="stroke:#A23B72;stroke-width:1;" width="10" x="568.5415" y="419.2598"/></g><g><title>Client</title><rect fill="#000000" fill-opacity="0.00000" height="403.7266" width="8" x="27.7524" y="121.4648"/><line style="stroke:#A23B72;stroke-width:0.5;stroke-dasharray:5,5;" x1="31" x2="31" y1="121.4648" y2="525.1914"/></g><g><title>API Gateway</title><rect fill="#000000" fill-opacity="0.00000" height="403.7266" width="8" x="242.436" y="121.4648"/><line style="stroke:#A23B72;stroke-width:0.5;stroke-dasharray:5,5;" x1="246.147" x2="246.147" y1="121.4648" y2="525.1914"/></g><g><title>svc-trip-catalog</title><rect fill="#000000" fill-opacity="0.00000" height="403.7266" width="8" x="363.1372" y="121.4648"/><line style="stroke:#A23B72;stroke-width:0.5;stroke-dasharray:5,5;" x1="366.7251" x2="366.7251" y1="121.4648" y2="525.1914"/></g><g><title>PostgreSQL</title><rect fill="#000000" fill-opacity="0.00000" height="403.7266" width="8" x="569.5415" y="121.4648"/><line style="stroke:#A23B72;stroke-width:0.5;stroke-dasharray:5,5;" x1="573.1167" x2="573.1167" y1="121.4648" y2="525.1914"/></g><g class="participant participant-head" data-participant="Client"><rect fill="#E8F4F8" height="30.4883" rx="2.5" ry="2.5" style="stroke:#2E86AB;stroke-width:0.5;" width="53.5049" x="5" y="89.9766"/><text fill="#000000" font-family="Segoe UI" font-size="14" lengthAdjust="spacing" textLength="39.5049" x="12" y="110.5117">Client</text></g><g class="participant participant-tail" data-participant="Client"><rect fill="#E8F4F8" height="30.4883" rx="2.5" ry="2.5" style="stroke:#2E86AB;stroke-width:0.5;" width="53.5049" x="5" y="524.1914"/><text fill="#000000" font-family="Segoe UI" font-size="14" lengthAdjust="spacing" textLength="39.5049" x="12" y="544.7266">Client</text></g><g class="participant participant-head" data-participant="GW"><rect fill="#DBEAFE" height="30.4883" rx="2.5" ry="2.5" style="stroke:#2E86AB;stroke-width:0.5;" width="96.5781" x="198.147" y="89.9766"/><text fill="#000000" font-family="Segoe UI" font-size="14" lengthAdjust="spacing" textLength="82.5781" x="205.147" y="110.5117">API Gateway</text></g><g class="participant participant-tail" data-participant="GW"><rect fill="#DBEAFE" height="30.4883" rx="2.5" ry="2.5" style="stroke:#2E86AB;stroke-width:0.5;" width="96.5781" x="198.147" y="524.1914"/><text fill="#000000" font-family="Segoe UI" font-size="14" lengthAdjust="spacing" textLength="82.5781" x="205.147" y="544.7266">API Gateway</text></g><g class="participant participant-head" data-participant="Svc"><a href="/microservices/svc-trip-catalog/" target="_top" title="/microservices/svc-trip-catalog/" xlink:actuate="onRequest" xlink:href="/microservices/svc-trip-catalog/" xlink:show="new" xlink:title="/microservices/svc-trip-catalog/" xlink:type="simple"><rect fill="#E8F4F8" height="30.4883" rx="2.5" ry="2.5" style="stroke:#2E86AB;stroke-width:0.5;" width="124.8242" x="304.7251" y="89.9766"/><text fill="#000000" font-family="Segoe UI" font-size="14" lengthAdjust="spacing" textLength="110.8242" x="311.7251" y="110.5117">svc-trip-catalog</text></a></g><g class="participant participant-tail" data-participant="Svc"><a href="/microservices/svc-trip-catalog/" target="_top" title="/microservices/svc-trip-catalog/" xlink:actuate="onRequest" xlink:href="/microservices/svc-trip-catalog/" xlink:show="new" xlink:title="/microservices/svc-trip-catalog/" xlink:type="simple"><rect fill="#E8F4F8" height="30.4883" rx="2.5" ry="2.5" style="stroke:#2E86AB;stroke-width:0.5;" width="124.8242" x="304.7251" y="524.1914"/><text fill="#000000" font-family="Segoe UI" font-size="14" lengthAdjust="spacing" textLength="110.8242" x="311.7251" y="544.7266">svc-trip-catalog</text></a></g><g class="participant participant-head" data-participant="DB"><text fill="#000000" font-family="Segoe UI" font-size="14" lengthAdjust="spacing" textLength="76.8496" x="532.1167" y="118.5117">PostgreSQL</text><path d="M555.5415,68.9766 C555.5415,58.9766 573.5415,58.9766 573.5415,58.9766 C573.5415,58.9766 591.5415,58.9766 591.5415,68.9766 L591.5415,94.9766 C591.5415,104.9766 573.5415,104.9766 573.5415,104.9766 C573.5415,104.9766 555.5415,104.9766 555.5415,94.9766 L555.5415,68.9766" fill="#FCE4EC" style="stroke:#181818;stroke-width:0.5;"/><path d="M555.5415,68.9766 C555.5415,78.9766 573.5415,78.9766 573.5415,78.9766 C573.5415,78.9766 591.5415,78.9766 591.5415,68.9766" fill="none" style="stroke:#181818;stroke-width:0.5;"/></g><g class="participant participant-tail" data-participant="DB"><text fill="#000000" font-family="Segoe UI" font-size="14" lengthAdjust="spacing" textLength="76.8496" x="532.1167" y="537.7266">PostgreSQL</text><path d="M555.5415,550.6797 C555.5415,540.6797 573.5415,540.6797 573.5415,540.6797 C573.5415,540.6797 591.5415,540.6797 591.5415,550.6797 L591.5415,576.6797 C591.5415,586.6797 573.5415,586.6797 573.5415,586.6797 C573.5415,586.6797 555.5415,586.6797 555.5415,576.6797 L555.5415,550.6797" fill="#FCE4EC" style="stroke:#181818;stroke-width:0.5;"/><path d="M555.5415,550.6797 C555.5415,560.6797 573.5415,560.6797 573.5415,560.6797 C573.5415,560.6797 591.5415,560.6797 591.5415,550.6797" fill="none" style="stroke:#181818;stroke-width:0.5;"/></g><g><title>API Gateway</title><rect fill="#059669" height="319.1055" style="stroke:#A23B72;stroke-width:1;" width="10" x="241.436" y="188.0859"/></g><g><title>svc-trip-catalog</title><rect fill="#059669" height="260.4844" style="stroke:#A23B72;stroke-width:1;" width="10" x="362.1372" y="217.3965"/></g><g><title>PostgreSQL</title><rect fill="#FCE4EC" height="29.3105" style="stroke:#A23B72;stroke-width:1;" width="10" x="568.5415" y="325.3281"/></g><g><title>PostgreSQL</title><rect fill="#FCE4EC" height="29.3105" style="stroke:#A23B72;stroke-width:1;" width="10" x="568.5415" y="419.2598"/></g><path d="M296,136.4648 L296,161.4648 L436,161.4648 L436,146.4648 L426,136.4648 L296,136.4648" fill="#FEFFDD" style="stroke:#181818;stroke-width:0.5;"/><path d="M426,136.4648 L426,146.4648 L436,146.4648 L426,136.4648" fill="#FEFFDD" style="stroke:#181818;stroke-width:0.5;"/><a href="/services/api/svc-trip-catalog.html#/Schedule/addScheduledDeparture" target="_top" title="/services/api/svc-trip-catalog.html#/Schedule/addScheduledDeparture" xlink:actuate="onRequest" xlink:href="/services/api/svc-trip-catalog.html#/Schedule/addScheduledDeparture" xlink:show="new" xlink:title="/services/api/svc-trip-catalog.html#/Schedule/addScheduledDeparture" xlink:type="simple"><text fill="#0000FF" font-family="Segoe UI" font-size="13" lengthAdjust="spacing" text-decoration="underline" textLength="119.4058" x="302" y="154.0332">View in Swagger UI</text></a><g class="message" data-participant-1="Client" data-participant-2="GW"><polygon fill="#059669" points="229.436,184.0859,239.436,188.0859,229.436,192.0859,233.436,188.0859" style="stroke:#059669;stroke-width:1;"/><line style="stroke:#059669;stroke-width:1;" x1="31.7524" x2="235.436" y1="188.0859" y2="188.0859"/><text fill="#000000" font-family="Segoe UI" font-size="13" lengthAdjust="spacing" textLength="190.6836" x="38.7524" y="183.3438">POST /trips/{trip_id}/schedule</text></g><g class="message" data-participant-1="GW" data-participant-2="Svc"><polygon fill="#059669" points="350.1372,213.3965,360.1372,217.3965,350.1372,221.3965,354.1372,217.3965" style="stroke:#059669;stroke-width:1;"/><line style="stroke:#059669;stroke-width:1;" x1="251.436" x2="356.1372" y1="217.3965" y2="217.3965"/><text fill="#000000" font-family="Segoe UI" font-size="13" lengthAdjust="spacing" textLength="85.1348" x="258.436" y="212.6543">route request</text></g><path d="M377,230.3965 L377,255.3965 L535,255.3965 L535,240.3965 L525,230.3965 L377,230.3965" fill="#FEFFDD" style="stroke:#181818;stroke-width:0.5;"/><path d="M525,230.3965 L525,240.3965 L535,240.3965 L525,230.3965" fill="#FEFFDD" style="stroke:#181818;stroke-width:0.5;"/><text fill="#000000" font-family="Segoe UI" font-size="13" lengthAdjust="spacing" textLength="137.5728" x="383" y="247.9648">Validate request body</text><rect fill="#EEEEEE" height="3" style="stroke:#EEEEEE;stroke-width:1;" width="752.5034" x="0" y="281.3623"/><line style="stroke:#000000;stroke-width:1;" x1="0" x2="752.5034" y1="281.3623" y2="281.3623"/><line style="stroke:#000000;stroke-width:1;" x1="0" x2="752.5034" y1="284.3623" y2="284.3623"/><rect fill="#EEEEEE" height="23.3105" style="stroke:#000000;stroke-width:2;" width="80.3711" x="336.0662" y="270.707"/><text fill="#000000" font-family="Segoe UI" font-size="13" font-weight="bold" lengthAdjust="spacing" textLength="62.0864" x="342.0662" y="287.2754">Database</text><g class="message" data-participant-1="Svc" data-participant-2="DB"><polygon fill="#059669" points="556.5415,321.3281,566.5415,325.3281,556.5415,329.3281,560.5415,325.3281" style="stroke:#059669;stroke-width:1;"/><line style="stroke:#059669;stroke-width:1;" x1="372.1372" x2="562.5415" y1="325.3281" y2="325.3281"/><text fill="#000000" font-family="Segoe UI" font-size="13" lengthAdjust="spacing" textLength="177.4043" x="379.1372" y="320.5859">SELECT parent WHERE id = ?</text></g><g class="message" data-participant-1="DB" data-participant-2="Svc"><polygon fill="#059669" points="383.1372,350.6387,373.1372,354.6387,383.1372,358.6387,379.1372,354.6387" style="stroke:#059669;stroke-width:1;"/><line style="stroke:#059669;stroke-width:1;stroke-dasharray:2,2;" x1="377.1372" x2="572.5415" y1="354.6387" y2="354.6387"/><text fill="#000000" font-family="Segoe UI" font-size="13" lengthAdjust="spacing" textLength="67.2915" x="389.1372" y="349.8965">Parent row</text></g><path d="M578,367.6387 L578,392.6387 L747,392.6387 L747,377.6387 L737,367.6387 L578,367.6387" fill="#FEFFDD" style="stroke:#181818;stroke-width:0.5;"/><path d="M737,367.6387 L737,377.6387 L747,377.6387 L737,367.6387" fill="#FEFFDD" style="stroke:#181818;stroke-width:0.5;"/><text fill="#000000" font-family="Segoe UI" font-size="13" lengthAdjust="spacing" textLength="148.5034" x="584" y="385.207">404 if parent not found</text><g class="message" data-participant-1="Svc" data-participant-2="DB"><polygon fill="#059669" points="556.5415,415.2598,566.5415,419.2598,556.5415,423.2598,560.5415,419.2598" style="stroke:#059669;stroke-width:1;"/><line style="stroke:#059669;stroke-width:1;" x1="372.1372" x2="562.5415" y1="419.2598" y2="419.2598"/><text fill="#000000" font-family="Segoe UI" font-size="13" lengthAdjust="spacing" textLength="96.0718" x="379.1372" y="414.5176">INSERT INTO ...</text></g><g class="message" data-participant-1="DB" data-participant-2="Svc"><polygon fill="#059669" points="383.1372,444.5703,373.1372,448.5703,383.1372,452.5703,379.1372,448.5703" style="stroke:#059669;stroke-width:1;"/><line style="stroke:#059669;stroke-width:1;stroke-dasharray:2,2;" x1="377.1372" x2="572.5415" y1="448.5703" y2="448.5703"/><text fill="#000000" font-family="Segoe UI" font-size="13" lengthAdjust="spacing" textLength="76.4575" x="389.1372" y="443.8281">Created row</text></g><g class="message" data-participant-1="Svc" data-participant-2="GW"><polygon fill="#059669" points="262.436,473.8809,252.436,477.8809,262.436,481.8809,258.436,477.8809" style="stroke:#059669;stroke-width:1;"/><line style="stroke:#059669;stroke-width:1;stroke-dasharray:2,2;" x1="256.436" x2="366.1372" y1="477.8809" y2="477.8809"/><text fill="#000000" font-family="Segoe UI" font-size="13" lengthAdjust="spacing" textLength="77.7969" x="268.436" y="473.1387">201 Created</text></g><g class="message" data-participant-1="GW" data-participant-2="Client"><polygon fill="#059669" points="42.7524,503.1914,32.7524,507.1914,42.7524,511.1914,38.7524,507.1914" style="stroke:#059669;stroke-width:1;"/><line style="stroke:#059669;stroke-width:1;stroke-dasharray:2,2;" x1="36.7524" x2="245.436" y1="507.1914" y2="507.1914"/><text fill="#000000" font-family="Segoe UI" font-size="13" lengthAdjust="spacing" textLength="77.7969" x="48.7524" y="502.4492">201 Created</text></g><!--SRC=[XPFRRk8m48Rl_HGZUWsXb0LQYLrnI5WaHDc6jXTTj3Bn4Ao6cBKDjAhwxZiEX4Ffgib5dFp_7FoDOvvbkkIQBs3Ae-TOgrKgEYfH6Yu2tztCx1rcpeNQo3I66KyC7Ya2PtoLs42bTiWN28KGOuLmtoySX-FV5QOHmXi3kbfQgyskLFdRTQrsdNqUSMrb99SyjMsb1UgTfU8tQgtscULZqtuZg0QDp3QGCnp854_Ij2fNxNebqzlgvKGABXj1-N8ldU480j8pUQZiQTQeNfzU7McVeBpow-oTCIjjWZ2w3SVWMIsNndjpZpzIl7iccgDO9VWxRGa17F9tGNm9eLrfP6nvs3mKEed4r1Q06zWkJ-NMg0yzRd73NpDFxn4kkcs_HLCzyPbrL7HT52DkUQBYp1ok8tXwyXOoqigWNii8ZVVHwKqcU-Q2FasveUcFbB6nnl3N8ClKRHE1Zb_rEuobX0VK6hNBJy2emZuvNygp0gMvNIGNNhX3uN4XyhNevbJWGU86P0hXXiSnvRxlJoOCKm6k76DRDb3yxWZSV46VySZADL7BSErE9YqfsY6v0HeiYTgTPcCFRYVczkqsjOpd5jHi5_V04odu8HIcIhmorcn2DoVNR3Bcp5IBeDr0w0_ypXXecwx_nv_-dGzIG1D-7EeUqQLbST_cQ1j4FnaJUEJ-q5jMfrgkWfpbTSW0CtTwJvlf3qF_RaoFyIsKIgMlE-Xe95byqi8sRpwFIlaoznxxt05ntCcs6-1_hRr7zWy0]--></g></svg>