<svg xmlns="http://www.w3.org/2000/svg" xmlns:xlink="http://www.w3.org/1999/xlink" contentStyleType="text/css" data-diagram-type="SEQUENCE" height="742px" preserveAspectRatio="none" style="width:841px;height:742px;background:#FEFEFE;" version="1.1" viewBox="0 0 841 742" width="841px" zoomAndPan="magnify"><title>POST /waivers</title><defs/><g><rect fill="#FEFEFE" height="742" style="stroke:none;stroke-width:1;" width="841" x="0" y="0"/><text fill="#000000" font-family="Segoe UI" font-size="14" font-weight="bold" lengthAdjust="spacing" textLength="105.9502" x="363.9314" y="28.5352">POST /waivers</text><text fill="#000000" font-family="Segoe UI" font-size="14" font-weight="bold" lengthAdjust="spacing" textLength="198.6523" x="317.5803" y="45.0234">Guest signs a safety waiver</text><g><title>API Gateway</title><rect fill="#059669" height="458.3477" style="stroke:#A23B72;stroke-width:1;" width="10" x="141.0605" y="188.0859"/></g><g><title>svc-safety-compliance</title><rect fill="#059669" height="399.7266" style="stroke:#A23B72;stroke-width:1;" width="10" x="283.9785" y="217.3965"/></g><g><title>Guest Profiles</title><rect fill="#DBEAFE" height="29.3105" style="stroke:#A23B72;stroke-width:1;" width="10" x="454.2964" y="325.3281"/></g><g><title>DocuSign API</title><rect fill="#DBEAFE" height="29.3105" style="stroke:#A23B72;stroke-width:1;" width="10" x="570.0278" y="383.9492"/></g><g><title>PostgreSQL</title><rect fill="#FCE4EC" height="29.3105" style="stroke:#A23B72;stroke-width:1;" width="10" x="783.3882" y="485.8809"/></g><g><title>Client</title><rect fill="#000000" fill-opacity="0.00000" height="542.9688" width="8" x="27.7524" y="121.4648"/><line style="stroke:#A23B72;stroke-width:0.5;stroke-dasharray:5,5;" x1="31" x2="31" y1="121.4648" y2="664.4336"/></g><g><title>API Gateway</title><rect fill="#000000" fill-opacity="0.00000" height="542.9688" width="8" x="142.0605" y="121.4648"/><line style="stroke:#A23B72;stroke-width:0.5;stroke-dasharray:5,5;" x1="145.7715" x2="145.7715" y1="121.4648" y2="664.4336"/></g><g><title>svc-safety-compliance</title><rect fill="#000000" fill-opacity="0.00000" height="542.9688" width="8" x="284.9785" y="121.4648"/><line style="stroke:#A23B72;stroke-width:0.5;stroke-dasharray:5,5;" x1="288.3496" x2="288.3496" y1="121.4648" y2="664.4336"/></g><g><title>Guest Profiles</title><rect fill="#000000" fill-opacity="0.00000" height="542.9688" width="8" x="455.2964" y="121.4648"/><line style="stroke:#A23B72;stroke-width:0.5;stroke-dasharray:5,5;" x1="458.4702" x2="458.4702" y1="121.4648" y2="664.4336"/></g><g><title>DocuSign API</title><rect fill="#000000" fill-opacity="0.00000" height="542.9688" width="8" x="571.0278" y="121.4648"/><line style="stroke:#A23B72;stroke-width:0.5;stroke-dasharray:5,5;" x1="574.1226" x2="574.1226" y1="121.4648" y2="664.4336"/></g><g><title>Notifications</title><rect fill="#000000" fill-opacity="0.00000" height="542.9688" width="8" x="682.9482" y="121.4648"/><line style="stroke:#A23B72;stroke-width:0.5;stroke-dasharray:5,5;" x1="686.9331" x2="686.9331" y1="121.4648" y2="664.4336"/></g><g><title>PostgreSQL</title><rect fill="#000000" fill-opacity="0.00000" height="542.9688" width="8" x="784.3882" y="121.4648"/><line style="stroke:#A23B72;stroke-width:0.5;stroke-dasharray:5,5;" x1="787.9634" x2="787.9634" y1="121.4648" y2="664.4336"/></g><g class="participant participant-head" data-participant="Client"><rect fill="#E8F4F8" height="30.4883" rx="2.5" ry="2.5" style="stroke:#2E86AB;stroke-width:0.5;" width="53.5049" x="5" y="89.9766"/><text fill="#000000" font-family="Segoe UI" font-size="14" lengthAdjust="spacing" textLength="39.5049" x="12" y="110.5117">Client</text></g><g class="participant participant-tail" data-participant="Client"><rect fill="#E8F4F8" height="30.4883" rx="2.5" ry="2.5" style="stroke:#2E86AB;stroke-width:0.5;" width="53.5049" x="5" y="663.4336"/><text fill="#000000" font-family="Segoe UI" font-size="14" lengthAdjust="spacing" textLength="39.5049" x="12" y="683.9688">Client</text></g><g class="participant participant-head" data-participant="GW"><rect fill="#DBEAFE" height="30.4883" rx="2.5" ry="2.5" style="stroke:#2E86AB;stroke-width:0.5;" width="96.5781" x="97.7715" y="89.9766"/><text fill="#000000" font-family="Segoe UI" font-size="14" lengthAdjust="spacing" textLength="82.5781" x="104.7715" y="110.5117">API Gateway</text></g><g class="participant participant-tail" data-participant="GW"><rect fill="#DBEAFE" height="30.4883" rx="2.5" ry="2.5" style="stroke:#2E86AB;stroke-width:0.5;" width="96.5781" x="97.7715" y="663.4336"/><text fill="#000000" font-family="Segoe UI" font-size="14" lengthAdjust="spacing" textLength="82.5781" x="104.7715" y="683.9688">API Gateway</text></g><g class="participant participant-head" data-participant="Svc"><a href="/microservices/svc-safety-compliance/" target="_top" title="/microservices/svc-safety-compliance/" xlink:actuate="onRequest" xlink:href="/microservices/svc-safety-compliance/" xlink:show="new" xlink:title="/microservices/svc-safety-compliance/" xlink:type="simple"><rect fill="#E8F4F8" height="30.4883" rx="2.5" ry="2.5" style="stroke:#2E86AB;stroke-width:0.5;" width="169.2578" x="204.3496" y="89.9766"/><text fill="#000000" font-family="Segoe UI" font-size="14" lengthAdjust="spacing" textLength="155.2578" x="211.3496" y="110.5117">svc-safety-compliance</text></a></g><g class="participant participant-tail" data-participant="Svc"><a href="/microservices/svc-safety-compliance/" target="_top" title="/microservices/svc-safety-compliance/" xlink:actuate="onRequest" xlink:href="/microservices/svc-safety-compliance/" xlink:show="new" xlink:title="/microservices/svc-safety-compliance/" xlink:type="simple"><rect fill="#E8F4F8" height="30.4883" rx="2.5" ry="2.5" style="stroke:#2E86AB;stroke-width:0.5;" width="169.2578" x="204.3496" y="663.4336"/><text fill="#000000" font-family="Segoe UI" font-size="14" lengthAdjust="spacing" textLength="155.2578" x="211.3496" y="683.9688">svc-safety-compliance</text></a></g><g class="participant participant-head" data-participant="GP"><a href="/microservices/svc-guest-profiles/" target="_top" title="/microservices/svc-guest-profiles/" xlink:actuate="onRequest" xlink:href="/microservices/svc-guest-profiles/" xlink:show="new" xlink:title="/microservices/svc-guest-profiles/" xlink:type="simple"><rect fill="#FFF8F0" height="30.4883" rx="2.5" ry="2.5" style="stroke:#2E86AB;stroke-width:0.5;" width="107.6523" x="405.4702" y="89.9766"/><text fill="#000000" font-family="Segoe UI" font-size="14" lengthAdjust="spacing" textLength="93.6523" x="412.4702" y="110.5117">Guest Profiles</text></a></g><g class="participant participant-tail" data-participant="GP"><a href="/microservices/svc-guest-profiles/" target="_top" title="/microservices/svc-guest-profiles/" xlink:actuate="onRequest" xlink:href="/microservices/svc-guest-profiles/" xlink:show="new" xlink:title="/microservices/svc-guest-profiles/" xlink:type="simple"><rect fill="#FFF8F0" height="30.4883" rx="2.5" ry="2.5" style="stroke:#2E86AB;stroke-width:0.5;" width="107.6523" x="405.4702" y="663.4336"/><text fill="#000000" font-family="Segoe UI" font-size="14" lengthAdjust="spacing" textLength="93.6523" x="412.4702" y="683.9688">Guest Profiles</text></a></g><g class="participant participant-head" data-participant="DS"><rect fill="#F5F5F5" height="30.4883" rx="2.5" ry="2.5" style="stroke:#2E86AB;stroke-width:0.5;" width="103.8105" x="523.1226" y="89.9766"/><text fill="#000000" font-family="Segoe UI" font-size="14" lengthAdjust="spacing" textLength="89.8105" x="530.1226" y="110.5117">DocuSign API</text></g><g class="participant participant-tail" data-participant="DS"><rect fill="#F5F5F5" height="30.4883" rx="2.5" ry="2.5" style="stroke:#2E86AB;stroke-width:0.5;" width="103.8105" x="523.1226" y="663.4336"/><text fill="#000000" font-family="Segoe UI" font-size="14" lengthAdjust="spacing" textLength="89.8105" x="530.1226" y="683.9688">DocuSign API</text></g><g class="participant participant-head" data-participant="Ntfy"><a href="/microservices/svc-notifications/" target="_top" title="/microservices/svc-notifications/" xlink:actuate="onRequest" xlink:href="/microservices/svc-notifications/" xlink:show="new" xlink:title="/microservices/svc-notifications/" xlink:type="simple"><rect fill="#FFF8F0" height="30.4883" rx="2.5" ry="2.5" style="stroke:#2E86AB;stroke-width:0.5;" width="100.0303" x="636.9331" y="89.9766"/><text fill="#000000" font-family="Segoe UI" font-size="14" lengthAdjust="spacing" textLength="86.0303" x="643.9331" y="110.5117">Notifications</text></a></g><g class="participant participant-tail" data-participant="Ntfy"><a href="/microservices/svc-notifications/" target="_top" title="/microservices/svc-notifications/" xlink:actuate="onRequest" xlink:href="/microservices/svc-notifications/" xlink:show="new" xlink:title="/microservices/svc-notifications/" xlink:type="simple"><rect fill="#FFF8F0" height="30.4883" rx="2.5" ry="2.5" style="stroke:#2E86AB;stroke-width:0.5;" width="100.0303" x="636.9331" y="663.4336"/><text fill="#000000" font-family="Segoe UI" font-size="14" lengthAdjust="spacing" textLength="86.0303" x="643.9331" y="683.9688">Notifications</text></a></g><g class="participant participant-head" data-participant="DB"><text fill="#000000" font-family="Segoe UI" font-size="14" lengthAdjust="spacing" textLength="76.8496" x="746.9634" y="118.5117">PostgreSQL</text><path d="M770.3882,68.9766 C770.3882,58.9766 788.3882,58.9766 788.3882,58.9766 C788.3882,58.9766 806.3882,58.9766 806.3882,68.9766 L806.3882,94.9766 C806.3882,104.9766 788.3882,104.9766 788.3882,104.9766 C788.3882,104.9766 770.3882,104.9766 770.3882,94.9766 L770.3882,68.9766" fill="#FCE4EC" style="stroke:#181818;stroke-width:0.5;"/><path d="M770.3882,68.9766 C770.3882,78.9766 788.3882,78.9766 788.3882,78.9766 C788.3882,78.9766 806.3882,78.9766 806.3882,68.9766" fill="none" style="stroke:#181818;stroke-width:0.5;"/></g><g class="participant participant-tail" data-participant="DB"><text fill="#000000" font-family="Segoe UI" font-size="14" lengthAdjust="spacing" textLength="76.8496" x="746.9634" y="676.9688">PostgreSQL</text><path d="M770.3882,689.9219 C770.3882,679.9219 788.3882,679.9219 788.3882,679.9219 C788.3882,679.9219 806.3882,679.9219 806.3882,689.9219 L806.3882,715.9219 C806.3882,725.9219 788.3882,725.9219 788.3882,725.9219 C788.3882,725.9219 770.3882,725.9219 770.3882,715.9219 L770.3882,689.9219" fill="#FCE4EC" style="stroke:#181818;stroke-width:0.5;"/><path d="M770.3882,689.9219 C770.3882,699.9219 788.3882,699.9219 788.3882,699.9219 C788.3882,699.9219 806.3882,699.9219 806.3882,689.9219" fill="none" style="stroke:#181818;stroke-width:0.5;"/></g><g><title>API Gateway</title><rect fill="#059669" height="458.3477" style="stroke:#A23B72;stroke-width:1;" width="10" x="141.0605" y="188.0859"/></g><g><title>svc-safety-compliance</title><rect fill="#059669" height="399.7266" style="stroke:#A23B72;stroke-width:1;" width="10" x="283.9785" y="217.3965"/></g><g><title>Guest Profiles</title><rect fill="#DBEAFE" height="29.3105" style="stroke:#A23B72;stroke-width:1;" width="10" x="454.2964" y="325.3281"/></g><g><title>DocuSign API</title><rect fill="#DBEAFE" height="29.3105" style="stroke:#A23B72;stroke-width:1;" width="10" x="570.0278" y="383.9492"/></g><g><title>PostgreSQL</title><rect fill="#FCE4EC" height="29.3105" style="stroke:#A23B72;stroke-width:1;" width="10" x="783.3882" y="485.8809"/></g><path d="M218,136.4648 L218,161.4648 L358,161.4648 L358,146.4648 L348,136.4648 L218,136.4648" fill="#FEFFDD" style="stroke:#181818;stroke-width:0.5;"/><path d="M348,136.4648 L348,146.4648 L358,146.4648 L348,136.4648" fill="#FEFFDD" style="stroke:#181818;stroke-width:0.5;"/><a href="/services/api/svc-safety-compliance.html#/Waivers/signWaiver" target="_top" title="/services/api/svc-safety-compliance.html#/Waivers/signWaiver" xlink:actuate="onRequest" xlink:href="/services/api/svc-safety-compliance.html#/Waivers/signWaiver" xlink:show="new" xlink:title="/services/api/svc-safety-compliance.html#/Waivers/signWaiver" xlink:type="simple"><text fill="#0000FF" font-family="Segoe UI" font-size="13" lengthAdjust="spacing" text-decoration="underline" textLength="119.4058" x="224" y="154.0332">View in Swagger UI</text></a><g class="message" data-participant-1="Client" data-participant-2="GW"><polygon fill="#059669" points="129.0605,184.0859,139.0605,188.0859,129.0605,192.0859,133.0605,188.0859" style="stroke:#059669;stroke-width:1;"/><line style="stroke:#059669;stroke-width:1;" x1="31.7524" x2="135.0605" y1="188.0859" y2="188.0859"/><text fill="#000000" font-family="Segoe UI" font-size="13" lengthAdjust="spacing" textLength="90.3081" x="38.7524" y="183.3438">POST /waivers</text></g><g class="message" data-participant-1="GW" data-participant-2="Svc"><polygon fill="#059669" points="271.9785,213.3965,281.9785,217.3965,271.9785,221.3965,275.9785,217.3965" style="stroke:#059669;stroke-width:1;"/><line style="stroke:#059669;stroke-width:1;" x1="151.0605" x2="277.9785" y1="217.3965" y2="217.3965"/><text fill="#000000" font-family="Segoe UI" font-size="13" lengthAdjust="spacing" textLength="85.1348" x="158.0605" y="212.6543">route request</text></g><path d="M298,230.3965 L298,255.3965 L456,255.3965 L456,240.3965 L446,230.3965 L298,230.3965" fill="#FEFFDD" style="stroke:#181818;stroke-width:0.5;"/><path d="M446,230.3965 L446,240.3965 L456,240.3965 L446,230.3965" fill="#FEFFDD" style="stroke:#181818;stroke-width:0.5;"/><text fill="#000000" font-family="Segoe UI" font-size="13" lengthAdjust="spacing" textLength="137.5728" x="304" y="247.9648">Validate request body</text><rect fill="#EEEEEE" height="3" style="stroke:#EEEEEE;stroke-width:1;" width="834.813" x="0" y="281.3623"/><line style="stroke:#000000;stroke-width:1;" x1="0" x2="834.813" y1="281.3623" y2="281.3623"/><line style="stroke:#000000;stroke-width:1;" x1="0" x2="834.813" y1="284.3623" y2="284.3623"/><rect fill="#EEEEEE" height="23.3105" style="stroke:#000000;stroke-width:2;" width="190.6743" x="322.0693" y="270.707"/><text fill="#000000" font-family="Segoe UI" font-size="13" font-weight="bold" lengthAdjust="spacing" textLength="172.3896" x="328.0693" y="287.2754">Cross-Service Integration</text><g class="message" data-participant-1="Svc" data-participant-2="GP"><polygon fill="#059669" points="442.2964,321.3281,452.2964,325.3281,442.2964,329.3281,446.2964,325.3281" style="stroke:#059669;stroke-width:1;"/><line style="stroke:#059669;stroke-width:1;" x1="293.9785" x2="448.2964" y1="325.3281" y2="325.3281"/><a href="/microservices/svc-guest-profiles/#get-guestsguest_id-get-guest-profile" target="_top" title="/microservices/svc-guest-profiles/#get-guestsguest_id-get-guest-profile" xlink:actuate="onRequest" xlink:href="/microservices/svc-guest-profiles/#get-guestsguest_id-get-guest-profile" xlink:show="new" xlink:title="/microservices/svc-guest-profiles/#get-guestsguest_id-get-guest-profile" xlink:type="simple"><text fill="#0000FF" font-family="Segoe UI" font-size="13" lengthAdjust="spacing" text-decoration="underline" textLength="141.3179" x="300.9785" y="320.5859">Validate guest identity</text></a></g><g class="message" data-participant-1="GP" data-participant-2="Svc"><polygon fill="#059669" points="304.9785,350.6387,294.9785,354.6387,304.9785,358.6387,300.9785,354.6387" style="stroke:#059669;stroke-width:1;"/><line style="stroke:#059669;stroke-width:1;stroke-dasharray:2,2;" x1="298.9785" x2="458.2964" y1="354.6387" y2="354.6387"/><text fill="#000000" font-family="Segoe UI" font-size="13" lengthAdjust="spacing" textLength="18.5859" x="310.9785" y="349.8965">OK</text></g><g class="message" data-participant-1="Svc" data-participant-2="DS"><polygon fill="#059669" points="558.0278,379.9492,568.0278,383.9492,558.0278,387.9492,562.0278,383.9492" style="stroke:#059669;stroke-width:1;"/><line style="stroke:#059669;stroke-width:1;" x1="293.9785" x2="564.0278" y1="383.9492" y2="383.9492"/><text fill="#000000" font-family="Segoe UI" font-size="13" lengthAdjust="spacing" textLength="143.4507" x="300.9785" y="379.207">Verify digital signature</text></g><g class="message" data-participant-1="DS" data-participant-2="Svc"><polygon fill="#059669" points="304.9785,409.2598,294.9785,413.2598,304.9785,417.2598,300.9785,413.2598" style="stroke:#059669;stroke-width:1;"/><line style="stroke:#059669;stroke-width:1;stroke-dasharray:2,2;" x1="298.9785" x2="574.0278" y1="413.2598" y2="413.2598"/><text fill="#000000" font-family="Segoe UI" font-size="13" lengthAdjust="spacing" textLength="18.5859" x="310.9785" y="408.5176">OK</text></g><rect fill="#EEEEEE" height="3" style="stroke:#EEEEEE;stroke-width:1;" width="834.813" x="0" y="441.915"/><line style="stroke:#000000;stroke-width:1;" x1="0" x2="834.813" y1="441.915" y2="441.915"/><line style="stroke:#000000;stroke-width:1;" x1="0" x2="834.813" y1="444.915" y2="444.915"/><rect fill="#EEEEEE" height="23.3105" style="stroke:#000000;stroke-width:2;" width="80.3711" x="377.2209" y="431.2598"/><text fill="#000000" font-family="Segoe UI" font-size="13" font-weight="bold" lengthAdjust="spacing" textLength="62.0864" x="383.2209" y="447.8281">Database</text><g class="message" data-participant-1="Svc" data-participant-2="DB"><polygon fill="#059669" points="771.3882,481.8809,781.3882,485.8809,771.3882,489.8809,775.3882,485.8809" style="stroke:#059669;stroke-width:1;"/><line style="stroke:#059669;stroke-width:1;" x1="293.9785" x2="777.3882" y1="485.8809" y2="485.8809"/><text fill="#000000" font-family="Segoe UI" font-size="13" lengthAdjust="spacing" textLength="96.0718" x="300.9785" y="481.1387">INSERT INTO ...</text></g><g class="message" data-participant-1="DB" data-participant-2="Svc"><polygon fill="#059669" points="304.9785,511.1914,294.9785,515.1914,304.9785,519.1914,300.9785,515.1914" style="stroke:#059669;stroke-width:1;"/><line style="stroke:#059669;stroke-width:1;stroke-dasharray:2,2;" x1="298.9785" x2="787.3882" y1="515.1914" y2="515.1914"/><text fill="#000000" font-family="Segoe UI" font-size="13" lengthAdjust="spacing" textLength="76.4575" x="310.9785" y="510.4492">Created row</text></g><rect fill="#EEEEEE" height="3" style="stroke:#EEEEEE;stroke-width:1;" width="834.813" x="0" y="543.8467"/><line style="stroke:#000000;stroke-width:1;" x1="0" x2="834.813" y1="543.8467" y2="543.8467"/><line style="stroke:#000000;stroke-width:1;" x1="0" x2="834.813" y1="546.8467" y2="546.8467"/><rect fill="#EEEEEE" height="23.3105" style="stroke:#000000;stroke-width:2;" width="106.8218" x="363.9956" y="533.1914"/><text fill="#000000" font-family="Segoe UI" font-size="13" font-weight="bold" lengthAdjust="spacing" textLength="88.5371" x="369.9956" y="549.7598">Async Events</text><g class="message" data-participant-1="Svc" data-participant-2="Ntfy"><line style="stroke:#059669;stroke-width:1;" x1="684.9482" x2="674.9482" y1="587.8125" y2="583.8125"/><line style="stroke:#059669;stroke-width:1;" x1="684.9482" x2="674.9482" y1="587.8125" y2="591.8125"/><line style="stroke:#059669;stroke-width:1;" x1="293.9785" x2="685.9482" y1="587.8125" y2="587.8125"/><a href="/microservices/svc-notifications/#post-notifications-send-a-notification" target="_top" title="/microservices/svc-notifications/#post-notifications-send-a-notification" xlink:actuate="onRequest" xlink:href="/microservices/svc-notifications/#post-notifications-send-a-notification" xlink:show="new" xlink:title="/microservices/svc-notifications/#post-notifications-send-a-notification" xlink:type="simple"><text fill="#0000FF" font-family="Segoe UI" font-size="13" lengthAdjust="spacing" text-decoration="underline" textLength="108.583" x="300.9785" y="583.0703">Send waiver copy</text></a></g><g class="message" data-participant-1="Svc" data-participant-2="GW"><polygon fill="#059669" points="162.0605,613.123,152.0605,617.123,162.0605,621.123,158.0605,617.123" style="stroke:#059669;stroke-width:1;"/><line style="stroke:#059669;stroke-width:1;stroke-dasharray:2,2;" x1="156.0605" x2="287.9785" y1="617.123" y2="617.123"/><text fill="#000000" font-family="Segoe UI" font-size="13" lengthAdjust="spacing" textLength="77.7969" x="168.0605" y="612.3809">201 Created</text></g><g class="message" data-participant-1="GW" data-participant-2="Client"><polygon fill="#059669" points="42.7524,642.4336,32.7524,646.4336,42.7524,650.4336,38.7524,646.4336" style="stroke:#059669;stroke-width:1;"/><line style="stroke:#059669;stroke-width:1;stroke-dasharray:2,2;" x1="36.7524" x2="145.0605" y1="646.4336" y2="646.4336"/><text fill="#000000" font-family="Segoe UI" font-size="13" lengthAdjust="spacing" textLength="77.7969" x="48.7524" y="641.6914">201 Created</text></g><!--SRC=[ZLFRRk8m47ttLupWET3IRg58LEAI8BHLcztqyj15AvCugTLWixQ1HQlzznqd8PSjbKeaudYEpyoSETPlN6oeecjOqV0jKN8hegbCfOAsvzg7w1AXNsaazrma4DDKireaOZ7TfiQJmjpHDODMm1B9u77HgXzdlxPCX0p-4C3VM2cvBrATVRc-khhEjdsg30_vXWepaIfYge3qtC7LUF8Eyd_Hxi2xz0OPx9R7x9OBrg0Pzouc_LuMdyZVZP1tFl3EpilGEpay3-DP-4wQ9clOxwykQh4JKbwuVVAN4CDDoi2_3nwWkwTynvJ-8UPRfWredWWD53IDcJb07YLaKtKBhMdAcJ0je1hoPJCyzXSmfuRjwI73p9-XFPkuOnnZ0wTtePEdSKAvtgISuboo4y4kX9UNxfg7IcgcTZnakdiItbqkIxaRv7atlf8nJvdEw_1FaoOMwcmAQCPOoDnWdCbm6w0wWFrbVBC0WL_iqmIY-3pc8JLSYZppdOaFftEBEhQUEgA6hgX65_jIcqInuDjjddM2cAbxwKu9mTCC90x8AeQ3nnGbEztmqv9rNiqwRNUVyxbtxS3pDJnnjWSk8DZJ9C7lnyLoIPY8mEOX99yrE3TseiEcVGWD3T_XqBDf5pS9bmYsmnm26X63oju-RIgq3HxXUJkA9wy6P5oSUw8fZsXr55OoEX0o6i4KfTHEaFSB2s5OeZ8TOJGYn9wsbVh8yPcfjnDcyZsT_V_aaLDk7M5LDTasy0W5uUQ0CbNz-wNRSUcK0jn_9H6heSeIqKRO9bCSFHBnX1kQPhUGcgrY5QzrMy6BouzuPq6cpUpedfeKQ9mXBEu2z_i3lXxkeTFfrEWhM-6oefygXk48vxTlv9baUSRw849mToY3hkMwoHq__8pdsnlqTtFFqMWwXpOs8R16pDq6eTnOpVDiHp_spiwFrTOhjJV36X5XXO4_XCwVoJy0]--></g></svg>