<svg xmlns="http://www.w3.org/2000/svg" xmlns:xlink="http://www.w3.org/1999/xlink" contentStyleType="text/css" data-diagram-type="SEQUENCE" height="616px" preserveAspectRatio="none" style="width:782px;height:616px;background:#FEFEFE;" version="1.1" viewBox="0 0 782 616" width="782px" zoomAndPan="magnify"><title>POST /trails/{trail_id}/closures</title><defs/><g><rect fill="#FEFEFE" height="616" style="stroke:none;stroke-width:1;" width="782" x="0" y="0"/><text fill="#000000" font-family="Segoe UI" font-size="14" font-weight="bold" lengthAdjust="spacing" textLength="224.54" x="274.9817" y="41.3125">POST /trails/{trail_id}/closures</text><text fill="#000000" font-family="Segoe UI" font-size="14" font-weight="bold" lengthAdjust="spacing" textLength="150.7188" x="311.8923" y="57.8008">Create a trail closure</text><g><title>API Gateway</title><rect fill="#059669" height="319.1055" style="stroke:#A23B72;stroke-width:1;" width="10" x="243.3848" y="200.8633"/></g><g><title>svc-trail-management</title><rect fill="#059669" height="260.4844" style="stroke:#A23B72;stroke-width:1;" width="10" x="385.2192" y="230.1738"/></g><g><title>PostGIS</title><rect fill="#FCE4EC" height="29.3105" style="stroke:#A23B72;stroke-width:1;" width="10" x="591.6235" y="338.1055"/></g><g><title>PostGIS</title><rect fill="#FCE4EC" height="29.3105" style="stroke:#A23B72;stroke-width:1;" width="10" x="591.6235" y="432.0371"/></g><g><title>Client</title><rect fill="#000000" fill-opacity="0.00000" height="403.7266" width="8" x="27.7524" y="134.2422"/><line style="stroke:#A23B72;stroke-width:0.5;stroke-dasharray:5,5;" x1="31" x2="31" y1="134.2422" y2="537.9688"/></g><g><title>API Gateway</title><rect fill="#000000" fill-opacity="0.00000" height="403.7266" width="8" x="244.3848" y="134.2422"/><line style="stroke:#A23B72;stroke-width:0.5;stroke-dasharray:5,5;" x1="248.0957" x2="248.0957" y1="134.2422" y2="537.9688"/></g><g><title>svc-trail-management</title><rect fill="#000000" fill-opacity="0.00000" height="403.7266" width="8" x="386.2192" y="134.2422"/><line style="stroke:#A23B72;stroke-width:0.5;stroke-dasharray:5,5;" x1="389.6738" x2="389.6738" y1="134.2422" y2="537.9688"/></g><g><title>PostGIS</title><rect fill="#000000" fill-opacity="0.00000" height="403.7266" width="8" x="592.6235" y="134.2422"/><line style="stroke:#A23B72;stroke-width:0.5;stroke-dasharray:5,5;" x1="596.4229" x2="596.4229" y1="134.2422" y2="537.9688"/></g><g class="participant participant-head" data-participant="Client"><a href="/applications/" target="_top" title="/applications/" xlink:actuate="onRequest" xlink:href="/applications/" xlink:show="new" xlink:title="/applications/" xlink:type="simple"><rect fill="#E8F4F8" height="30.4883" rx="2.5" ry="2.5" style="stroke:#2E86AB;stroke-width:0.5;" width="53.5049" x="5" y="102.7539"/><text fill="#000000" font-family="Segoe UI" font-size="14" lengthAdjust="spacing" textLength="39.5049" x="12" y="123.2891">Client</text></a></g><g class="participant participant-tail" data-participant="Client"><a href="/applications/" target="_top" title="/applications/" xlink:actuate="onRequest" xlink:href="/applications/" xlink:show="new" xlink:title="/applications/" xlink:type="simple"><rect fill="#E8F4F8" height="30.4883" rx="2.5" ry="2.5" style="stroke:#2E86AB;stroke-width:0.5;" width="53.5049" x="5" y="536.9688"/><text fill="#000000" font-family="Segoe UI" font-size="14" lengthAdjust="spacing" textLength="39.5049" x="12" y="557.5039">Client</text></a></g><g class="participant participant-head" data-participant="GW"><rect fill="#DBEAFE" height="30.4883" rx="2.5" ry="2.5" style="stroke:#2E86AB;stroke-width:0.5;" width="96.5781" x="200.0957" y="102.7539"/><text fill="#000000" font-family="Segoe UI" font-size="14" lengthAdjust="spacing" textLength="82.5781" x="207.0957" y="123.2891">API Gateway</text></g><g class="participant participant-tail" data-participant="GW"><rect fill="#DBEAFE" height="30.4883" rx="2.5" ry="2.5" style="stroke:#2E86AB;stroke-width:0.5;" width="96.5781" x="200.0957" y="536.9688"/><text fill="#000000" font-family="Segoe UI" font-size="14" lengthAdjust="spacing" textLength="82.5781" x="207.0957" y="557.5039">API Gateway</text></g><g class="participant participant-head" data-participant="Svc"><a href="/microservices/svc-trail-management/" target="_top" title="/microservices/svc-trail-management/" xlink:actuate="onRequest" xlink:href="/microservices/svc-trail-management/" xlink:show="new" xlink:title="/microservices/svc-trail-management/" xlink:type="simple"><rect fill="#E8F4F8" height="30.4883" rx="2.5" ry="2.5" style="stroke:#2E86AB;stroke-width:0.5;" width="167.0908" x="306.6738" y="102.7539"/><text fill="#000000" font-family="Segoe UI" font-size="14" lengthAdjust="spacing" textLength="153.0908" x="313.6738" y="123.2891">svc-trail-management</text></a></g><g class="participant participant-tail" data-participant="Svc"><a href="/microservices/svc-trail-management/" target="_top" title="/microservices/svc-trail-management/" xlink:actuate="onRequest" xlink:href="/microservices/svc-trail-management/" xlink:show="new" xlink:title="/microservices/svc-trail-management/" xlink:type="simple"><rect fill="#E8F4F8" height="30.4883" rx="2.5" ry="2.5" style="stroke:#2E86AB;stroke-width:0.5;" width="167.0908" x="306.6738" y="536.9688"/><text fill="#000000" font-family="Segoe UI" font-size="14" lengthAdjust="spacing" textLength="153.0908" x="313.6738" y="557.5039">svc-trail-management</text></a></g><g class="participant participant-head" data-participant="DB"><text fill="#000000" font-family="Segoe UI" font-size="14" lengthAdjust="spacing" textLength="50.4014" x="568.4229" y="131.2891">PostGIS</text><path d="M578.6235,81.7539 C578.6235,71.7539 596.6235,71.7539 596.6235,71.7539 C596.6235,71.7539 614.6235,71.7539 614.6235,81.7539 L614.6235,107.7539 C614.6235,117.7539 596.6235,117.7539 596.6235,117.7539 C596.6235,117.7539 578.6235,117.7539 578.6235,107.7539 L578.6235,81.7539" fill="#FCE4EC" style="stroke:#181818;stroke-width:0.5;"/><path d="M578.6235,81.7539 C578.6235,91.7539 596.6235,91.7539 596.6235,91.7539 C596.6235,91.7539 614.6235,91.7539 614.6235,81.7539" fill="none" style="stroke:#181818;stroke-width:0.5;"/></g><g class="participant participant-tail" data-participant="DB"><text fill="#000000" font-family="Segoe UI" font-size="14" lengthAdjust="spacing" textLength="50.4014" x="568.4229" y="550.5039">PostGIS</text><path d="M578.6235,563.457 C578.6235,553.457 596.6235,553.457 596.6235,553.457 C596.6235,553.457 614.6235,553.457 614.6235,563.457 L614.6235,589.457 C614.6235,599.457 596.6235,599.457 596.6235,599.457 C596.6235,599.457 578.6235,599.457 578.6235,589.457 L578.6235,563.457" fill="#FCE4EC" style="stroke:#181818;stroke-width:0.5;"/><path d="M578.6235,563.457 C578.6235,573.457 596.6235,573.457 596.6235,573.457 C596.6235,573.457 614.6235,573.457 614.6235,563.457" fill="none" style="stroke:#181818;stroke-width:0.5;"/></g><g><title>API Gateway</title><rect fill="#059669" height="319.1055" style="stroke:#A23B72;stroke-width:1;" width="10" x="243.3848" y="200.8633"/></g><g><title>svc-trail-management</title><rect fill="#059669" height="260.4844" style="stroke:#A23B72;stroke-width:1;" width="10" x="385.2192" y="230.1738"/></g><g><title>PostGIS</title><rect fill="#FCE4EC" height="29.3105" style="stroke:#A23B72;stroke-width:1;" width="10" x="591.6235" y="338.1055"/></g><g><title>PostGIS</title><rect fill="#FCE4EC" height="29.3105" style="stroke:#A23B72;stroke-width:1;" width="10" x="591.6235" y="432.0371"/></g><path d="M320,149.2422 L320,174.2422 L460,174.2422 L460,159.2422 L450,149.2422 L320,149.2422" fill="#FEFFDD" style="stroke:#181818;stroke-width:0.5;"/><path d="M450,149.2422 L450,159.2422 L460,159.2422 L450,149.2422" fill="#FEFFDD" style="stroke:#181818;stroke-width:0.5;"/><a href="/services/api/svc-trail-management.html#/Closures/createTrailClosure" target="_top" title="/services/api/svc-trail-management.html#/Closures/createTrailClosure" xlink:actuate="onRequest" xlink:href="/services/api/svc-trail-management.html#/Closures/createTrailClosure" xlink:show="new" xlink:title="/services/api/svc-trail-management.html#/Closures/createTrailClosure" xlink:type="simple"><text fill="#0000FF" font-family="Segoe UI" font-size="13" lengthAdjust="spacing" text-decoration="underline" textLength="119.4058" x="326" y="166.8105">View in Swagger UI</text></a><g class="message" data-participant-1="Client" data-participant-2="GW"><polygon fill="#059669" points="231.3848,196.8633,241.3848,200.8633,231.3848,204.8633,235.3848,200.8633" style="stroke:#059669;stroke-width:1;"/><line style="stroke:#059669;stroke-width:1;" x1="31.7524" x2="237.3848" y1="200.8633" y2="200.8633"/><text fill="#000000" font-family="Segoe UI" font-size="13" lengthAdjust="spacing" textLength="192.6323" x="38.7524" y="196.1211">POST /trails/{trail_id}/closures</text></g><g class="message" data-participant-1="GW" data-participant-2="Svc"><polygon fill="#059669" points="373.2192,226.1738,383.2192,230.1738,373.2192,234.1738,377.2192,230.1738" style="stroke:#059669;stroke-width:1;"/><line style="stroke:#059669;stroke-width:1;" x1="253.3848" x2="379.2192" y1="230.1738" y2="230.1738"/><text fill="#000000" font-family="Segoe UI" font-size="13" lengthAdjust="spacing" textLength="85.1348" x="260.3848" y="225.4316">route request</text></g><path d="M400,243.1738 L400,268.1738 L558,268.1738 L558,253.1738 L548,243.1738 L400,243.1738" fill="#FEFFDD" style="stroke:#181818;stroke-width:0.5;"/><path d="M548,243.1738 L548,253.1738 L558,253.1738 L548,243.1738" fill="#FEFFDD" style="stroke:#181818;stroke-width:0.5;"/><text fill="#000000" font-family="Segoe UI" font-size="13" lengthAdjust="spacing" textLength="137.5728" x="406" y="260.7422">Validate request body</text><rect fill="#EEEEEE" height="3" style="stroke:#EEEEEE;stroke-width:1;" width="775.5034" x="0" y="294.1396"/><line style="stroke:#000000;stroke-width:1;" x1="0" x2="775.5034" y1="294.1396" y2="294.1396"/><line style="stroke:#000000;stroke-width:1;" x1="0" x2="775.5034" y1="297.1396" y2="297.1396"/><rect fill="#EEEEEE" height="23.3105" style="stroke:#000000;stroke-width:2;" width="80.3711" x="347.5662" y="283.4844"/><text fill="#000000" font-family="Segoe UI" font-size="13" font-weight="bold" lengthAdjust="spacing" textLength="62.0864" x="353.5662" y="300.0527">Database</text><g class="message" data-participant-1="Svc" data-participant-2="DB"><polygon fill="#059669" points="579.6235,334.1055,589.6235,338.1055,579.6235,342.1055,583.6235,338.1055" style="stroke:#059669;stroke-width:1;"/><line style="stroke:#059669;stroke-width:1;" x1="395.2192" x2="585.6235" y1="338.1055" y2="338.1055"/><text fill="#000000" font-family="Segoe UI" font-size="13" lengthAdjust="spacing" textLength="177.4043" x="402.2192" y="333.3633">SELECT parent WHERE id = ?</text></g><g class="message" data-participant-1="DB" data-participant-2="Svc"><polygon fill="#059669" points="406.2192,363.416,396.2192,367.416,406.2192,371.416,402.2192,367.416" style="stroke:#059669;stroke-width:1;"/><line style="stroke:#059669;stroke-width:1;stroke-dasharray:2,2;" x1="400.2192" x2="595.6235" y1="367.416" y2="367.416"/><text fill="#000000" font-family="Segoe UI" font-size="13" lengthAdjust="spacing" textLength="67.2915" x="412.2192" y="362.6738">Parent row</text></g><path d="M601,380.416 L601,405.416 L770,405.416 L770,390.416 L760,380.416 L601,380.416" fill="#FEFFDD" style="stroke:#181818;stroke-width:0.5;"/><path d="M760,380.416 L760,390.416 L770,390.416 L760,380.416" fill="#FEFFDD" style="stroke:#181818;stroke-width:0.5;"/><text fill="#000000" font-family="Segoe UI" font-size="13" lengthAdjust="spacing" textLength="148.5034" x="607" y="397.9844">404 if parent not found</text><g class="message" data-participant-1="Svc" data-participant-2="DB"><polygon fill="#059669" points="579.6235,428.0371,589.6235,432.0371,579.6235,436.0371,583.6235,432.0371" style="stroke:#059669;stroke-width:1;"/><line style="stroke:#059669;stroke-width:1;" x1="395.2192" x2="585.6235" y1="432.0371" y2="432.0371"/><text fill="#000000" font-family="Segoe UI" font-size="13" lengthAdjust="spacing" textLength="96.0718" x="402.2192" y="427.2949">INSERT INTO ...</text></g><g class="message" data-participant-1="DB" data-participant-2="Svc"><polygon fill="#059669" points="406.2192,457.3477,396.2192,461.3477,406.2192,465.3477,402.2192,461.3477" style="stroke:#059669;stroke-width:1;"/><line style="stroke:#059669;stroke-width:1;stroke-dasharray:2,2;" x1="400.2192" x2="595.6235" y1="461.3477" y2="461.3477"/><text fill="#000000" font-family="Segoe UI" font-size="13" lengthAdjust="spacing" textLength="76.4575" x="412.2192" y="456.6055">Created row</text></g><g class="message" data-participant-1="Svc" data-participant-2="GW"><polygon fill="#059669" points="264.3848,486.6582,254.3848,490.6582,264.3848,494.6582,260.3848,490.6582" style="stroke:#059669;stroke-width:1;"/><line style="stroke:#059669;stroke-width:1;stroke-dasharray:2,2;" x1="258.3848" x2="389.2192" y1="490.6582" y2="490.6582"/><text fill="#000000" font-family="Segoe UI" font-size="13" lengthAdjust="spacing" textLength="77.7969" x="270.3848" y="485.916">201 Created</text></g><g class="message" data-participant-1="GW" data-participant-2="Client"><polygon fill="#059669" points="42.7524,515.9688,32.7524,519.9688,42.7524,523.9688,38.7524,519.9688" style="stroke:#059669;stroke-width:1;"/><line style="stroke:#059669;stroke-width:1;stroke-dasharray:2,2;" x1="36.7524" x2="247.3848" y1="519.9688" y2="519.9688"/><text fill="#000000" font-family="Segoe UI" font-size="13" lengthAdjust="spacing" textLength="77.7969" x="48.7524" y="515.2266">201 Created</text></g><a href="/microservices/svc-trail-management/#integration-context" target="_top" title="/microservices/svc-trail-management/#integration-context" xlink:actuate="onRequest" xlink:href="/microservices/svc-trail-management/#integration-context" xlink:show="new" xlink:title="/microservices/svc-trail-management/#integration-context" xlink:type="simple"><text fill="#0000FF" font-family="Segoe UI" font-size="10" lengthAdjust="spacing" text-decoration="underline" textLength="220.5225" x="553.981" y="14.668">&#11014; svc-trail-management Integration Context</text></a><!--SRC=[ZLDTRzem57tthxY2PmYbhD1AR88qOKXLYnhQFdHekYGcM0isimsqglgwNxDVjL-own2-MgOkUOYLS-uzr-VOveUGSzGuWp76FrAj5ZBnLQOqbCF0lSni6MQAYLe9cS84CyFta8HFS97PK4bxZJCEfOYdYiDTlxHVpdykk8mvl32WfwErMXLIjK_dPsVd-Uy1QYjYCKTfkqedN1UKUj0wwtJVKTuE7RJ2HjZAQLTYmg-4v0TjElNJRhEUurtrT0259wsmThA5tjaHXeJdyBMoXrtZPdDykeSTiV8qQB9NngOSgGmU7xsPYBKoN2z5p8rdbd75QXHPPOOIKpxZqdfb8IrFDLgXP2KcS_cJXJ-_Vy4nDlHtPF3NvD68CIjinc5m4mt1oskCzv9_lularOipPHQQcs_Irnmj1uGSX09WRBvp6qf-9aYg16XWlNGxmVay4t4kR3oIFAZe3FhGeyOhVCxBUWzGlkm67JfP1xnZMyeBecNydtQDHjly4xGuHaCdSQ2CxVMZlDLbbwBmWqRWCoOf9r1Boe84A3cIs7R7kJYgK9tQMLRs_C8pByuj6pfMyG_k1L-1a12jC4sf-LsV3E4o0QV7M65QvRFpuUB3L1Z6LYnTBCwsufRGakgTBHT0Xun0xMwMiJks0pVqzKwrIASMrAIekyTC9BWhXR5AdXbhj-5ouroxpPWZanRvTW5HS1NuGw3Gt0uUlWQt0OW4sl1bfxjdC2qhsp47woAwy2pXU-mti-KwZLe3n6IZGmIOk9jqE4p_EWfkX_GPta2rMlruWlNfJewCiEwxIQHUEzbmztdkZ3ZVYLP4-4zgxu7z1G00]--></g></svg>