<svg xmlns="http://www.w3.org/2000/svg" xmlns:xlink="http://www.w3.org/1999/xlink" contentStyleType="text/css" data-diagram-type="SEQUENCE" height="487px" preserveAspectRatio="none" style="width:529px;height:487px;background:#FEFEFE;" version="1.1" viewBox="0 0 529 487" width="529px" zoomAndPan="magnify"><title>GET /activity-types</title><defs/><g><rect fill="#FEFEFE" height="487" style="stroke:none;stroke-width:1;" width="529" x="0" y="0"/><text fill="#000000" font-family="Segoe UI" font-size="14" font-weight="bold" lengthAdjust="spacing" textLength="141.8115" x="189.8687" y="41.3125">GET /activity-types</text><text fill="#000000" font-family="Segoe UI" font-size="14" font-weight="bold" lengthAdjust="spacing" textLength="196.0957" x="162.7266" y="57.8008">List available activity types</text><g><title>API Gateway</title><rect fill="#2563EB" height="189.8633" style="stroke:#A23B72;stroke-width:1;" width="10" x="172.1704" y="200.8633"/></g><g><title>svc-trip-catalog</title><rect fill="#2563EB" height="131.2422" style="stroke:#A23B72;stroke-width:1;" width="10" x="292.8716" y="230.1738"/></g><g><title>PostgreSQL</title><rect fill="#FCE4EC" height="29.3105" style="stroke:#A23B72;stroke-width:1;" width="10" x="471.124" y="302.7949"/></g><g><title>Client</title><rect fill="#000000" fill-opacity="0.00000" height="274.4844" width="8" x="27.7524" y="134.2422"/><line style="stroke:#A23B72;stroke-width:0.5;stroke-dasharray:5,5;" x1="31" x2="31" y1="134.2422" y2="408.7266"/></g><g><title>API Gateway</title><rect fill="#000000" fill-opacity="0.00000" height="274.4844" width="8" x="173.1704" y="134.2422"/><line style="stroke:#A23B72;stroke-width:0.5;stroke-dasharray:5,5;" x1="176.8813" x2="176.8813" y1="134.2422" y2="408.7266"/></g><g><title>svc-trip-catalog</title><rect fill="#000000" fill-opacity="0.00000" height="274.4844" width="8" x="293.8716" y="134.2422"/><line style="stroke:#A23B72;stroke-width:0.5;stroke-dasharray:5,5;" x1="297.4595" x2="297.4595" y1="134.2422" y2="408.7266"/></g><g><title>PostgreSQL</title><rect fill="#000000" fill-opacity="0.00000" height="274.4844" width="8" x="472.124" y="134.2422"/><line style="stroke:#A23B72;stroke-width:0.5;stroke-dasharray:5,5;" x1="475.6992" x2="475.6992" y1="134.2422" y2="408.7266"/></g><g class="participant participant-head" data-participant="Client"><a href="/applications/" target="_top" title="/applications/" xlink:actuate="onRequest" xlink:href="/applications/" xlink:show="new" xlink:title="/applications/" xlink:type="simple"><rect fill="#E8F4F8" height="30.4883" rx="2.5" ry="2.5" style="stroke:#2E86AB;stroke-width:0.5;" width="53.5049" x="5" y="102.7539"/><text fill="#000000" font-family="Segoe UI" font-size="14" lengthAdjust="spacing" textLength="39.5049" x="12" y="123.2891">Client</text></a></g><g class="participant participant-tail" data-participant="Client"><a href="/applications/" target="_top" title="/applications/" xlink:actuate="onRequest" xlink:href="/applications/" xlink:show="new" xlink:title="/applications/" xlink:type="simple"><rect fill="#E8F4F8" height="30.4883" rx="2.5" ry="2.5" style="stroke:#2E86AB;stroke-width:0.5;" width="53.5049" x="5" y="407.7266"/><text fill="#000000" font-family="Segoe UI" font-size="14" lengthAdjust="spacing" textLength="39.5049" x="12" y="428.2617">Client</text></a></g><g class="participant participant-head" data-participant="GW"><rect fill="#DBEAFE" height="30.4883" rx="2.5" ry="2.5" style="stroke:#2E86AB;stroke-width:0.5;" width="96.5781" x="128.8813" y="102.7539"/><text fill="#000000" font-family="Segoe UI" font-size="14" lengthAdjust="spacing" textLength="82.5781" x="135.8813" y="123.2891">API Gateway</text></g><g class="participant participant-tail" data-participant="GW"><rect fill="#DBEAFE" height="30.4883" rx="2.5" ry="2.5" style="stroke:#2E86AB;stroke-width:0.5;" width="96.5781" x="128.8813" y="407.7266"/><text fill="#000000" font-family="Segoe UI" font-size="14" lengthAdjust="spacing" textLength="82.5781" x="135.8813" y="428.2617">API Gateway</text></g><g class="participant participant-head" data-participant="Svc"><a href="/microservices/svc-trip-catalog/" target="_top" title="/microservices/svc-trip-catalog/" xlink:actuate="onRequest" xlink:href="/microservices/svc-trip-catalog/" xlink:show="new" xlink:title="/microservices/svc-trip-catalog/" xlink:type="simple"><rect fill="#E8F4F8" height="30.4883" rx="2.5" ry="2.5" style="stroke:#2E86AB;stroke-width:0.5;" width="124.8242" x="235.4595" y="102.7539"/><text fill="#000000" font-family="Segoe UI" font-size="14" lengthAdjust="spacing" textLength="110.8242" x="242.4595" y="123.2891">svc-trip-catalog</text></a></g><g class="participant participant-tail" data-participant="Svc"><a href="/microservices/svc-trip-catalog/" target="_top" title="/microservices/svc-trip-catalog/" xlink:actuate="onRequest" xlink:href="/microservices/svc-trip-catalog/" xlink:show="new" xlink:title="/microservices/svc-trip-catalog/" xlink:type="simple"><rect fill="#E8F4F8" height="30.4883" rx="2.5" ry="2.5" style="stroke:#2E86AB;stroke-width:0.5;" width="124.8242" x="235.4595" y="407.7266"/><text fill="#000000" font-family="Segoe UI" font-size="14" lengthAdjust="spacing" textLength="110.8242" x="242.4595" y="428.2617">svc-trip-catalog</text></a></g><g class="participant participant-head" data-participant="DB"><text fill="#000000" font-family="Segoe UI" font-size="14" lengthAdjust="spacing" textLength="76.8496" x="434.6992" y="131.2891">PostgreSQL</text><path d="M458.124,81.7539 C458.124,71.7539 476.124,71.7539 476.124,71.7539 C476.124,71.7539 494.124,71.7539 494.124,81.7539 L494.124,107.7539 C494.124,117.7539 476.124,117.7539 476.124,117.7539 C476.124,117.7539 458.124,117.7539 458.124,107.7539 L458.124,81.7539" fill="#FCE4EC" style="stroke:#181818;stroke-width:0.5;"/><path d="M458.124,81.7539 C458.124,91.7539 476.124,91.7539 476.124,91.7539 C476.124,91.7539 494.124,91.7539 494.124,81.7539" fill="none" style="stroke:#181818;stroke-width:0.5;"/></g><g class="participant participant-tail" data-participant="DB"><text fill="#000000" font-family="Segoe UI" font-size="14" lengthAdjust="spacing" textLength="76.8496" x="434.6992" y="421.2617">PostgreSQL</text><path d="M458.124,434.2148 C458.124,424.2148 476.124,424.2148 476.124,424.2148 C476.124,424.2148 494.124,424.2148 494.124,434.2148 L494.124,460.2148 C494.124,470.2148 476.124,470.2148 476.124,470.2148 C476.124,470.2148 458.124,470.2148 458.124,460.2148 L458.124,434.2148" fill="#FCE4EC" style="stroke:#181818;stroke-width:0.5;"/><path d="M458.124,434.2148 C458.124,444.2148 476.124,444.2148 476.124,444.2148 C476.124,444.2148 494.124,444.2148 494.124,434.2148" fill="none" style="stroke:#181818;stroke-width:0.5;"/></g><g><title>API Gateway</title><rect fill="#2563EB" height="189.8633" style="stroke:#A23B72;stroke-width:1;" width="10" x="172.1704" y="200.8633"/></g><g><title>svc-trip-catalog</title><rect fill="#2563EB" height="131.2422" style="stroke:#A23B72;stroke-width:1;" width="10" x="292.8716" y="230.1738"/></g><g><title>PostgreSQL</title><rect fill="#FCE4EC" height="29.3105" style="stroke:#A23B72;stroke-width:1;" width="10" x="471.124" y="302.7949"/></g><path d="M227,149.2422 L227,174.2422 L367,174.2422 L367,159.2422 L357,149.2422 L227,149.2422" fill="#FEFFDD" style="stroke:#181818;stroke-width:0.5;"/><path d="M357,149.2422 L357,159.2422 L367,159.2422 L357,149.2422" fill="#FEFFDD" style="stroke:#181818;stroke-width:0.5;"/><a href="/services/api/svc-trip-catalog.html#/Reference%20Data/listActivityTypes" target="_top" title="/services/api/svc-trip-catalog.html#/Reference%20Data/listActivityTypes" xlink:actuate="onRequest" xlink:href="/services/api/svc-trip-catalog.html#/Reference%20Data/listActivityTypes" xlink:show="new" xlink:title="/services/api/svc-trip-catalog.html#/Reference%20Data/listActivityTypes" xlink:type="simple"><text fill="#0000FF" font-family="Segoe UI" font-size="13" lengthAdjust="spacing" text-decoration="underline" textLength="119.4058" x="233" y="166.8105">View in Swagger UI</text></a><g class="message" data-participant-1="Client" data-participant-2="GW"><polygon fill="#2563EB" points="160.1704,196.8633,170.1704,200.8633,160.1704,204.8633,164.1704,200.8633" style="stroke:#2563EB;stroke-width:1;"/><line style="stroke:#2563EB;stroke-width:1;" x1="31.7524" x2="166.1704" y1="200.8633" y2="200.8633"/><text fill="#000000" font-family="Segoe UI" font-size="13" lengthAdjust="spacing" textLength="121.418" x="38.7524" y="196.1211">GET /activity-types</text></g><g class="message" data-participant-1="GW" data-participant-2="Svc"><polygon fill="#2563EB" points="280.8716,226.1738,290.8716,230.1738,280.8716,234.1738,284.8716,230.1738" style="stroke:#2563EB;stroke-width:1;"/><line style="stroke:#2563EB;stroke-width:1;" x1="182.1704" x2="286.8716" y1="230.1738" y2="230.1738"/><text fill="#000000" font-family="Segoe UI" font-size="13" lengthAdjust="spacing" textLength="85.1348" x="189.1704" y="225.4316">route request</text></g><rect fill="#EEEEEE" height="3" style="stroke:#EEEEEE;stroke-width:1;" width="522.5488" x="0" y="258.8291"/><line style="stroke:#000000;stroke-width:1;" x1="0" x2="522.5488" y1="258.8291" y2="258.8291"/><line style="stroke:#000000;stroke-width:1;" x1="0" x2="522.5488" y1="261.8291" y2="261.8291"/><rect fill="#EEEEEE" height="23.3105" style="stroke:#000000;stroke-width:2;" width="80.3711" x="221.0889" y="248.1738"/><text fill="#000000" font-family="Segoe UI" font-size="13" font-weight="bold" lengthAdjust="spacing" textLength="62.0864" x="227.0889" y="264.7422">Database</text><g class="message" data-participant-1="Svc" data-participant-2="DB"><polygon fill="#2563EB" points="459.124,298.7949,469.124,302.7949,459.124,306.7949,463.124,302.7949" style="stroke:#2563EB;stroke-width:1;"/><line style="stroke:#2563EB;stroke-width:1;" x1="302.8716" x2="465.124" y1="302.7949" y2="302.7949"/><text fill="#000000" font-family="Segoe UI" font-size="13" lengthAdjust="spacing" textLength="149.2524" x="309.8716" y="298.0527">SELECT ... WHERE filters</text></g><g class="message" data-participant-1="DB" data-participant-2="Svc"><polygon fill="#2563EB" points="313.8716,328.1055,303.8716,332.1055,313.8716,336.1055,309.8716,332.1055" style="stroke:#2563EB;stroke-width:1;"/><line style="stroke:#2563EB;stroke-width:1;stroke-dasharray:2,2;" x1="307.8716" x2="475.124" y1="332.1055" y2="332.1055"/><text fill="#000000" font-family="Segoe UI" font-size="13" lengthAdjust="spacing" textLength="93.209" x="319.8716" y="327.3633">Page of results</text></g><g class="message" data-participant-1="Svc" data-participant-2="GW"><polygon fill="#2563EB" points="193.1704,357.416,183.1704,361.416,193.1704,365.416,189.1704,361.416" style="stroke:#2563EB;stroke-width:1;"/><line style="stroke:#2563EB;stroke-width:1;stroke-dasharray:2,2;" x1="187.1704" x2="296.8716" y1="361.416" y2="361.416"/><text fill="#000000" font-family="Segoe UI" font-size="13" lengthAdjust="spacing" textLength="47.3599" x="199.1704" y="356.6738">200 OK</text></g><g class="message" data-participant-1="GW" data-participant-2="Client"><polygon fill="#2563EB" points="42.7524,386.7266,32.7524,390.7266,42.7524,394.7266,38.7524,390.7266" style="stroke:#2563EB;stroke-width:1;"/><line style="stroke:#2563EB;stroke-width:1;stroke-dasharray:2,2;" x1="36.7524" x2="176.1704" y1="390.7266" y2="390.7266"/><text fill="#000000" font-family="Segoe UI" font-size="13" lengthAdjust="spacing" textLength="47.3599" x="48.7524" y="385.9844">200 OK</text></g><a href="/microservices/svc-trip-catalog/#integration-context" target="_top" title="/microservices/svc-trip-catalog/#integration-context" xlink:actuate="onRequest" xlink:href="/microservices/svc-trip-catalog/#integration-context" xlink:show="new" xlink:title="/microservices/svc-trip-catalog/#integration-context" xlink:type="simple"><text fill="#0000FF" font-family="Segoe UI" font-size="10" lengthAdjust="spacing" text-decoration="underline" textLength="190.332" x="331.2168" y="14.668">&#11014; svc-trip-catalog Integration Context</text></a><!--SRC=[ZPFDSjem58NtUeexC5s22QI1oGoTuSUcJ9c4XgGiKXON- -9eOYHN4f1Cfzi-JP-gJz9h1uZvMTJUo3xdtYDzakopL2aQNC8Sm-VOw9MAUZhH1ig1dxt2xXts2IEzaIg61IQM2af42rmbBj3AtU2Ie3IXM1Cy34l5Slgn8XKI_1J0JySOlTb6rJzUDMYU_nwZSJAKAIhNrIOYixFuhQjEzyHoF6c_5Lm6hTmsaWiQIKK7RJhrHhTPp_MkVZcGWejMKBlOIoSuWe3rNBxHxh1hs6pE6mNj3Cg6tnI_X7WYv39uVFIMCZJQabdBaAndrs756PbMGdIOwDWhI-KeDkYaLfMGmTABWxz_ViEn4uRlHkYz6MSp8Pnq2S70lmSFGoVNqhrMt6jAzhiQIUi0roWJdBDd9qCk2v6-yuLIBv6aN0dGmjimcpkcQIB3FD9w77PGqHaFOO2EDlYQbmscKEvt_GwVfGFVyK9oysGT_WUSsMo_qn7_cgFbCpVMriM69bz7UQT-bxdt_4k_9uJYJG6zPl3SdxU94_RDCPKd0TKdjqpAtXqjo6H7zaEzrcV5InXSPqlhFeC5toHjG2gOR32EkV_3a76GYY2B56ABhF8fet1zRZT4_icuSaxRYy13BibON0EV8nPDTdciUtTduiuksctexpYqsq9a8ZTW1DSmyKT-xnwgrIfCF_jtFYnauiWKWWkaU5ZP9uynPceBphPykQs8g52o3Tcjh5whmUsNeYKZdQs37LiAvro3gVW7]--></g></svg>