<?xml version="1.0" encoding="UTF-8" standalone="no"?><svg xmlns="http://www.w3.org/2000/svg" xmlns:xlink="http://www.w3.org/1999/xlink" contentScriptType="application/ecmascript" contentStyleType="text/css" height="517px" preserveAspectRatio="none" style="width:592px;height:517px;background:#FEFEFE;" version="1.1" viewBox="0 0 592 517" width="592px" zoomAndPan="magnify"><defs/><g><text fill="#000000" font-family="Segoe UI" font-size="18" lengthAdjust="spacingAndGlyphs" textLength="218" x="182.75" y="41.3486">POST /stock-adjustments</text><text fill="#000000" font-family="Segoe UI" font-size="18" lengthAdjust="spacingAndGlyphs" textLength="234" x="174.75" y="62.3018">Record a stock adjustment</text><rect fill="#059669" height="223.9297" style="stroke: #6B7280; stroke-width: 1.0;" width="10" x="214.5" y="202.1094"/><rect fill="#059669" height="165.6641" style="stroke: #6B7280; stroke-width: 1.0;" width="10" x="373.5" y="231.2422"/><rect fill="#FEF9C3" height="29.1328" style="stroke: #6B7280; stroke-width: 1.0;" width="10" x="527" y="338.6406"/><line style="stroke: #6B7280; stroke-width: 1.0; stroke-dasharray: 5.0,5.0;" x1="34" x2="34" y1="135.8438" y2="444.0391"/><line style="stroke: #6B7280; stroke-width: 1.0; stroke-dasharray: 5.0,5.0;" x1="219.5" x2="219.5" y1="135.8438" y2="444.0391"/><line style="stroke: #6B7280; stroke-width: 1.0; stroke-dasharray: 5.0,5.0;" x1="378.5" x2="378.5" y1="135.8438" y2="444.0391"/><line style="stroke: #6B7280; stroke-width: 1.0; stroke-dasharray: 5.0,5.0;" x1="531.5" x2="531.5" y1="135.8438" y2="444.0391"/><a href="/applications/" target="_top" title="/applications/" xlink:actuate="onRequest" xlink:href="/applications/" xlink:show="new" xlink:title="/applications/" xlink:type="simple"><rect fill="#F9FAFB" height="30.2969" style="stroke: #374151; stroke-width: 1.5;" width="53" x="8" y="104.5469"/><text fill="#000000" font-family="Segoe UI" font-size="14" lengthAdjust="spacingAndGlyphs" textLength="39" x="15" y="124.542">Client</text><rect fill="#F9FAFB" height="30.2969" style="stroke: #374151; stroke-width: 1.5;" width="53" x="8" y="443.0391"/><text fill="#000000" font-family="Segoe UI" font-size="14" lengthAdjust="spacingAndGlyphs" textLength="39" x="15" y="463.0342">Client</text></a><a href="/actors/#api-gateway" target="_top" title="/actors/#api-gateway" xlink:actuate="onRequest" xlink:href="/actors/#api-gateway" xlink:show="new" xlink:title="/actors/#api-gateway" xlink:type="simple"><rect fill="#E0F2FE" height="30.2969" style="stroke: #374151; stroke-width: 1.5;" width="98" x="170.5" y="104.5469"/><text fill="#000000" font-family="Segoe UI" font-size="14" lengthAdjust="spacingAndGlyphs" textLength="84" x="177.5" y="124.542">API Gateway</text><rect fill="#E0F2FE" height="30.2969" style="stroke: #374151; stroke-width: 1.5;" width="98" x="170.5" y="443.0391"/><text fill="#000000" font-family="Segoe UI" font-size="14" lengthAdjust="spacingAndGlyphs" textLength="84" x="177.5" y="463.0342">API Gateway</text></a><a href="/microservices/svc-inventory-procurement/" target="_top" title="/microservices/svc-inventory-procurement/" xlink:actuate="onRequest" xlink:href="/microservices/svc-inventory-procurement/" xlink:show="new" xlink:title="/microservices/svc-inventory-procurement/" xlink:type="simple"><rect fill="#F1F5F9" height="30.2969" style="stroke: #374151; stroke-width: 1.5;" width="200" x="278.5" y="104.5469"/><text fill="#000000" font-family="Segoe UI" font-size="14" lengthAdjust="spacingAndGlyphs" textLength="186" x="285.5" y="124.542">svc-inventory-procurement</text><rect fill="#F1F5F9" height="30.2969" style="stroke: #374151; stroke-width: 1.5;" width="200" x="278.5" y="443.0391"/><text fill="#000000" font-family="Segoe UI" font-size="14" lengthAdjust="spacingAndGlyphs" textLength="186" x="285.5" y="463.0342">svc-inventory-procurement</text></a><a href="/microservices/svc-inventory-procurement/#data-store" target="_top" title="/microservices/svc-inventory-procurement/#data-store" xlink:actuate="onRequest" xlink:href="/microservices/svc-inventory-procurement/#data-store" xlink:show="new" xlink:title="/microservices/svc-inventory-procurement/#data-store" xlink:type="simple"><text fill="#000000" font-family="Segoe UI" font-size="14" lengthAdjust="spacingAndGlyphs" textLength="81" x="488.5" y="132.542">PostgreSQL</text><path d="M514,83.5469 C514,73.5469 532,73.5469 532,73.5469 C532,73.5469 550,73.5469 550,83.5469 L550,109.5469 C550,119.5469 532,119.5469 532,119.5469 C532,119.5469 514,119.5469 514,109.5469 L514,83.5469 " fill="#FEF9C3" style="stroke: #000000; stroke-width: 1.5;"/><path d="M514,83.5469 C514,93.5469 532,93.5469 532,93.5469 C532,93.5469 550,93.5469 550,83.5469 " fill="none" style="stroke: #000000; stroke-width: 1.5;"/><text fill="#000000" font-family="Segoe UI" font-size="14" lengthAdjust="spacingAndGlyphs" textLength="81" x="488.5" y="456.0342">PostgreSQL</text><path d="M514,469.3359 C514,459.3359 532,459.3359 532,459.3359 C532,459.3359 550,459.3359 550,469.3359 L550,495.3359 C550,505.3359 532,505.3359 532,505.3359 C532,505.3359 514,505.3359 514,495.3359 L514,469.3359 " fill="#FEF9C3" style="stroke: #000000; stroke-width: 1.5;"/><path d="M514,469.3359 C514,479.3359 532,479.3359 532,479.3359 C532,479.3359 550,479.3359 550,469.3359 " fill="none" style="stroke: #000000; stroke-width: 1.5;"/></a><rect fill="#059669" height="223.9297" style="stroke: #6B7280; stroke-width: 1.0;" width="10" x="214.5" y="202.1094"/><rect fill="#059669" height="165.6641" style="stroke: #6B7280; stroke-width: 1.0;" width="10" x="373.5" y="231.2422"/><rect fill="#FEF9C3" height="29.1328" style="stroke: #6B7280; stroke-width: 1.0;" width="10" x="527" y="338.6406"/><path d="M308,150.8438 L308,175.8438 L449,175.8438 L449,160.8438 L439,150.8438 L308,150.8438 " fill="#FBFB77" style="stroke: #A80036; stroke-width: 1.0;"/><path d="M439,150.8438 L439,160.8438 L449,160.8438 L439,150.8438 " fill="#FBFB77" style="stroke: #A80036; stroke-width: 1.0;"/><a href="/services/api/svc-inventory-procurement.html" target="_top" title="/services/api/svc-inventory-procurement.html" xlink:actuate="onRequest" xlink:href="/services/api/svc-inventory-procurement.html" xlink:show="new" xlink:title="/services/api/svc-inventory-procurement.html" xlink:type="simple"><text fill="#0000FF" font-family="Segoe UI" font-size="13" lengthAdjust="spacingAndGlyphs" text-decoration="underline" textLength="120" x="314" y="167.9106">View in Swagger UI</text></a><polygon fill="#059669" points="202.5,198.1094,212.5,202.1094,202.5,206.1094,206.5,202.1094" style="stroke: #059669; stroke-width: 1.0;"/><line style="stroke: #059669; stroke-width: 1.0;" x1="34.5" x2="208.5" y1="202.1094" y2="202.1094"/><text fill="#000000" font-family="Segoe UI" font-size="13" lengthAdjust="spacingAndGlyphs" textLength="161" x="41.5" y="197.0435">POST /stock-adjustments</text><polygon fill="#059669" points="361.5,227.2422,371.5,231.2422,361.5,235.2422,365.5,231.2422" style="stroke: #059669; stroke-width: 1.0;"/><line style="stroke: #059669; stroke-width: 1.0;" x1="224.5" x2="367.5" y1="231.2422" y2="231.2422"/><text fill="#000000" font-family="Segoe UI" font-size="13" lengthAdjust="spacingAndGlyphs" textLength="87" x="231.5" y="226.1763">route request</text><path d="M388,244.2422 L388,269.2422 L549,269.2422 L549,254.2422 L539,244.2422 L388,244.2422 " fill="#FBFB77" style="stroke: #A80036; stroke-width: 1.0;"/><path d="M539,244.2422 L539,254.2422 L549,254.2422 L539,244.2422 " fill="#FBFB77" style="stroke: #A80036; stroke-width: 1.0;"/><text fill="#000000" font-family="Segoe UI" font-size="13" lengthAdjust="spacingAndGlyphs" textLength="140" x="394" y="261.3091">Validate request body</text><rect fill="#EEEEEE" height="3" style="stroke: #EEEEEE; stroke-width: 1.0;" width="577.5" x="3" y="294.9414"/><line style="stroke: #000000; stroke-width: 1.0;" x1="3" x2="580.5" y1="294.9414" y2="294.9414"/><line style="stroke: #000000; stroke-width: 1.0;" x1="3" x2="580.5" y1="297.9414" y2="297.9414"/><rect fill="#EEEEEE" height="23.1328" style="stroke: #000000; stroke-width: 2.0;" width="90" x="246.75" y="284.375"/><text fill="#000000" font-family="Segoe UI" font-size="13" font-weight="bold" lengthAdjust="spacingAndGlyphs" textLength="71" x="252.75" y="300.4419">Database</text><polygon fill="#059669" points="515,334.6406,525,338.6406,515,342.6406,519,338.6406" style="stroke: #059669; stroke-width: 1.0;"/><line style="stroke: #059669; stroke-width: 1.0;" x1="383.5" x2="521" y1="338.6406" y2="338.6406"/><text fill="#000000" font-family="Segoe UI" font-size="13" lengthAdjust="spacingAndGlyphs" textLength="95" x="390.5" y="333.5747">INSERT INTO ...</text><polygon fill="#059669" points="394.5,363.7734,384.5,367.7734,394.5,371.7734,390.5,367.7734" style="stroke: #059669; stroke-width: 1.0;"/><line style="stroke: #059669; stroke-width: 1.0; stroke-dasharray: 2.0,2.0;" x1="388.5" x2="531" y1="367.7734" y2="367.7734"/><text fill="#000000" font-family="Segoe UI" font-size="13" lengthAdjust="spacingAndGlyphs" textLength="77" x="400.5" y="362.7075">Created row</text><polygon fill="#059669" points="235.5,392.9063,225.5,396.9063,235.5,400.9063,231.5,396.9063" style="stroke: #059669; stroke-width: 1.0;"/><line style="stroke: #059669; stroke-width: 1.0; stroke-dasharray: 2.0,2.0;" x1="229.5" x2="377.5" y1="396.9063" y2="396.9063"/><text fill="#000000" font-family="Segoe UI" font-size="13" lengthAdjust="spacingAndGlyphs" textLength="79" x="241.5" y="391.8403">201 Created</text><polygon fill="#059669" points="45.5,422.0391,35.5,426.0391,45.5,430.0391,41.5,426.0391" style="stroke: #059669; stroke-width: 1.0;"/><line style="stroke: #059669; stroke-width: 1.0; stroke-dasharray: 2.0,2.0;" x1="39.5" x2="218.5" y1="426.0391" y2="426.0391"/><text fill="#000000" font-family="Segoe UI" font-size="13" lengthAdjust="spacingAndGlyphs" textLength="79" x="51.5" y="420.9731">201 Created</text><a href="/microservices/svc-inventory-procurement/#integration-context" target="_top" title="/microservices/svc-inventory-procurement/#integration-context" xlink:actuate="onRequest" xlink:href="/microservices/svc-inventory-procurement/#integration-context" xlink:show="new" xlink:title="/microservices/svc-inventory-procurement/#integration-context" xlink:type="simple"><text fill="#0000FF" font-family="Segoe UI" font-size="10" lengthAdjust="spacingAndGlyphs" text-decoration="underline" textLength="243" x="337.5" y="12.2822">⬆ svc-inventory-procurement Integration Context</text></a><!--MD5=[4fd4b450987b58845e778e7d1ae16e27]
@startuml svc-inventory-procurement- -post-stock-adjustments

skinparam backgroundColor #FEFEFE
skinparam shadowing false
skinparam defaultFontName "Segoe UI"
skinparam sequence {
    ArrowColor #059669
    ParticipantBorderColor #374151
    ParticipantBackgroundColor #F9FAFB
    LifeLineBorderColor #6B7280
    BoxBorderColor #94A3B8
    BoxBackgroundColor #F8FAFC
    NoteBorderColor #64748B
    NoteBackgroundColor #F8FAFC
}

header [[/microservices/svc-inventory-procurement/#integration-context ⬆ svc-inventory-procurement Integration Context]]

title POST /stock-adjustments\nRecord a stock adjustment

participant "Client" as Client [[/applications/]]
participant "API Gateway" as GW [[/actors/#api-gateway]] #E0F2FE
participant "svc-inventory-procurement" as Svc [[/microservices/svc-inventory-procurement/]] #F1F5F9
database "PostgreSQL" as DB [[/microservices/svc-inventory-procurement/#data-store]] #FEF9C3

note over Svc
  [[/services/api/svc-inventory-procurement.html View in Swagger UI]]
end note

Client -> GW : POST /stock-adjustments
activate GW #059669
GW -> Svc : route request
activate Svc #059669

note right of Svc : Validate request body

== Database ==

Svc -> DB : INSERT INTO ...
activate DB #FEF9C3
DB - -> Svc : Created row
deactivate DB

Svc - -> GW : 201 Created
deactivate Svc
GW - -> Client : 201 Created
deactivate GW

@enduml

PlantUML version 1.2020.02(Sun Mar 01 10:22:07 UTC 2020)
(GPL source distribution)
Java Runtime: OpenJDK Runtime Environment
JVM: OpenJDK 64-Bit Server VM
Java Version: 17.0.18+8
Operating System: Linux
Default Encoding: UTF-8
Language: en
Country: null
--></g></svg>