<?xml version="1.0" encoding="UTF-8" standalone="no"?><svg xmlns="http://www.w3.org/2000/svg" xmlns:xlink="http://www.w3.org/1999/xlink" contentScriptType="application/ecmascript" contentStyleType="text/css" height="517px" preserveAspectRatio="none" style="width:506px;height:517px;background:#FEFEFE;" version="1.1" viewBox="0 0 506 517" width="506px" zoomAndPan="magnify"><defs/><g><text fill="#000000" font-family="Segoe UI" font-size="18" lengthAdjust="spacingAndGlyphs" textLength="134" x="181.75" y="41.3486">POST /partners</text><text fill="#000000" font-family="Segoe UI" font-size="18" lengthAdjust="spacingAndGlyphs" textLength="206" x="145.75" y="62.3018">Register a new partner</text><rect fill="#059669" height="223.9297" style="stroke: #6B7280; stroke-width: 1.0;" width="10" x="149.5" y="202.1094"/><rect fill="#059669" height="165.6641" style="stroke: #6B7280; stroke-width: 1.0;" width="10" x="298" y="231.2422"/><rect fill="#FEF9C3" height="29.1328" style="stroke: #6B7280; stroke-width: 1.0;" width="10" x="441" y="338.6406"/><line style="stroke: #6B7280; stroke-width: 1.0; stroke-dasharray: 5.0,5.0;" x1="34" x2="34" y1="135.8438" y2="444.0391"/><line style="stroke: #6B7280; stroke-width: 1.0; stroke-dasharray: 5.0,5.0;" x1="154.5" x2="154.5" y1="135.8438" y2="444.0391"/><line style="stroke: #6B7280; stroke-width: 1.0; stroke-dasharray: 5.0,5.0;" x1="302.5" x2="302.5" y1="135.8438" y2="444.0391"/><line style="stroke: #6B7280; stroke-width: 1.0; stroke-dasharray: 5.0,5.0;" x1="445.5" x2="445.5" y1="135.8438" y2="444.0391"/><a href="/applications/" target="_top" title="/applications/" xlink:actuate="onRequest" xlink:href="/applications/" xlink:show="new" xlink:title="/applications/" xlink:type="simple"><rect fill="#F9FAFB" height="30.2969" style="stroke: #374151; stroke-width: 1.5;" width="53" x="8" y="104.5469"/><text fill="#000000" font-family="Segoe UI" font-size="14" lengthAdjust="spacingAndGlyphs" textLength="39" x="15" y="124.542">Client</text><rect fill="#F9FAFB" height="30.2969" style="stroke: #374151; stroke-width: 1.5;" width="53" x="8" y="443.0391"/><text fill="#000000" font-family="Segoe UI" font-size="14" lengthAdjust="spacingAndGlyphs" textLength="39" x="15" y="463.0342">Client</text></a><a href="/actors/#api-gateway" target="_top" title="/actors/#api-gateway" xlink:actuate="onRequest" xlink:href="/actors/#api-gateway" xlink:show="new" xlink:title="/actors/#api-gateway" xlink:type="simple"><rect fill="#E0F2FE" height="30.2969" style="stroke: #374151; stroke-width: 1.5;" width="98" x="105.5" y="104.5469"/><text fill="#000000" font-family="Segoe UI" font-size="14" lengthAdjust="spacingAndGlyphs" textLength="84" x="112.5" y="124.542">API Gateway</text><rect fill="#E0F2FE" height="30.2969" style="stroke: #374151; stroke-width: 1.5;" width="98" x="105.5" y="443.0391"/><text fill="#000000" font-family="Segoe UI" font-size="14" lengthAdjust="spacingAndGlyphs" textLength="84" x="112.5" y="463.0342">API Gateway</text></a><a href="/microservices/svc-partner-integrations/" target="_top" title="/microservices/svc-partner-integrations/" xlink:actuate="onRequest" xlink:href="/microservices/svc-partner-integrations/" xlink:show="new" xlink:title="/microservices/svc-partner-integrations/" xlink:type="simple"><rect fill="#F3E8FF" height="30.2969" style="stroke: #374151; stroke-width: 1.5;" width="179" x="213.5" y="104.5469"/><text fill="#000000" font-family="Segoe UI" font-size="14" lengthAdjust="spacingAndGlyphs" textLength="165" x="220.5" y="124.542">svc-partner-integrations</text><rect fill="#F3E8FF" height="30.2969" style="stroke: #374151; stroke-width: 1.5;" width="179" x="213.5" y="443.0391"/><text fill="#000000" font-family="Segoe UI" font-size="14" lengthAdjust="spacingAndGlyphs" textLength="165" x="220.5" y="463.0342">svc-partner-integrations</text></a><a href="/microservices/svc-partner-integrations/#data-store" target="_top" title="/microservices/svc-partner-integrations/#data-store" xlink:actuate="onRequest" xlink:href="/microservices/svc-partner-integrations/#data-store" xlink:show="new" xlink:title="/microservices/svc-partner-integrations/#data-store" xlink:type="simple"><text fill="#000000" font-family="Segoe UI" font-size="14" lengthAdjust="spacingAndGlyphs" textLength="81" x="402.5" y="132.542">PostgreSQL</text><path d="M428,83.5469 C428,73.5469 446,73.5469 446,73.5469 C446,73.5469 464,73.5469 464,83.5469 L464,109.5469 C464,119.5469 446,119.5469 446,119.5469 C446,119.5469 428,119.5469 428,109.5469 L428,83.5469 " fill="#FEF9C3" style="stroke: #000000; stroke-width: 1.5;"/><path d="M428,83.5469 C428,93.5469 446,93.5469 446,93.5469 C446,93.5469 464,93.5469 464,83.5469 " fill="none" style="stroke: #000000; stroke-width: 1.5;"/><text fill="#000000" font-family="Segoe UI" font-size="14" lengthAdjust="spacingAndGlyphs" textLength="81" x="402.5" y="456.0342">PostgreSQL</text><path d="M428,469.3359 C428,459.3359 446,459.3359 446,459.3359 C446,459.3359 464,459.3359 464,469.3359 L464,495.3359 C464,505.3359 446,505.3359 446,505.3359 C446,505.3359 428,505.3359 428,495.3359 L428,469.3359 " fill="#FEF9C3" style="stroke: #000000; stroke-width: 1.5;"/><path d="M428,469.3359 C428,479.3359 446,479.3359 446,479.3359 C446,479.3359 464,479.3359 464,469.3359 " fill="none" style="stroke: #000000; stroke-width: 1.5;"/></a><rect fill="#059669" height="223.9297" style="stroke: #6B7280; stroke-width: 1.0;" width="10" x="149.5" y="202.1094"/><rect fill="#059669" height="165.6641" style="stroke: #6B7280; stroke-width: 1.0;" width="10" x="298" y="231.2422"/><rect fill="#FEF9C3" height="29.1328" style="stroke: #6B7280; stroke-width: 1.0;" width="10" x="441" y="338.6406"/><path d="M232,150.8438 L232,175.8438 L373,175.8438 L373,160.8438 L363,150.8438 L232,150.8438 " fill="#FBFB77" style="stroke: #A80036; stroke-width: 1.0;"/><path d="M363,150.8438 L363,160.8438 L373,160.8438 L363,150.8438 " fill="#FBFB77" style="stroke: #A80036; stroke-width: 1.0;"/><a href="/services/api/svc-partner-integrations.html#/Partners/registerPartner" target="_top" title="/services/api/svc-partner-integrations.html#/Partners/registerPartner" xlink:actuate="onRequest" xlink:href="/services/api/svc-partner-integrations.html#/Partners/registerPartner" xlink:show="new" xlink:title="/services/api/svc-partner-integrations.html#/Partners/registerPartner" xlink:type="simple"><text fill="#0000FF" font-family="Segoe UI" font-size="13" lengthAdjust="spacingAndGlyphs" text-decoration="underline" textLength="120" x="238" y="167.9106">View in Swagger UI</text></a><polygon fill="#059669" points="137.5,198.1094,147.5,202.1094,137.5,206.1094,141.5,202.1094" style="stroke: #059669; stroke-width: 1.0;"/><line style="stroke: #059669; stroke-width: 1.0;" x1="34.5" x2="143.5" y1="202.1094" y2="202.1094"/><text fill="#000000" font-family="Segoe UI" font-size="13" lengthAdjust="spacingAndGlyphs" textLength="96" x="41.5" y="197.0435">POST /partners</text><polygon fill="#059669" points="286,227.2422,296,231.2422,286,235.2422,290,231.2422" style="stroke: #059669; stroke-width: 1.0;"/><line style="stroke: #059669; stroke-width: 1.0;" x1="159.5" x2="292" y1="231.2422" y2="231.2422"/><text fill="#000000" font-family="Segoe UI" font-size="13" lengthAdjust="spacingAndGlyphs" textLength="87" x="166.5" y="226.1763">route request</text><path d="M313,244.2422 L313,269.2422 L474,269.2422 L474,254.2422 L464,244.2422 L313,244.2422 " fill="#FBFB77" style="stroke: #A80036; stroke-width: 1.0;"/><path d="M464,244.2422 L464,254.2422 L474,254.2422 L464,244.2422 " fill="#FBFB77" style="stroke: #A80036; stroke-width: 1.0;"/><text fill="#000000" font-family="Segoe UI" font-size="13" lengthAdjust="spacingAndGlyphs" textLength="140" x="319" y="261.3091">Validate request body</text><rect fill="#EEEEEE" height="3" style="stroke: #EEEEEE; stroke-width: 1.0;" width="491.5" x="3" y="294.9414"/><line style="stroke: #000000; stroke-width: 1.0;" x1="3" x2="494.5" y1="294.9414" y2="294.9414"/><line style="stroke: #000000; stroke-width: 1.0;" x1="3" x2="494.5" y1="297.9414" y2="297.9414"/><rect fill="#EEEEEE" height="23.1328" style="stroke: #000000; stroke-width: 2.0;" width="90" x="203.75" y="284.375"/><text fill="#000000" font-family="Segoe UI" font-size="13" font-weight="bold" lengthAdjust="spacingAndGlyphs" textLength="71" x="209.75" y="300.4419">Database</text><polygon fill="#059669" points="429,334.6406,439,338.6406,429,342.6406,433,338.6406" style="stroke: #059669; stroke-width: 1.0;"/><line style="stroke: #059669; stroke-width: 1.0;" x1="308" x2="435" y1="338.6406" y2="338.6406"/><text fill="#000000" font-family="Segoe UI" font-size="13" lengthAdjust="spacingAndGlyphs" textLength="95" x="315" y="333.5747">INSERT INTO ...</text><polygon fill="#059669" points="319,363.7734,309,367.7734,319,371.7734,315,367.7734" style="stroke: #059669; stroke-width: 1.0;"/><line style="stroke: #059669; stroke-width: 1.0; stroke-dasharray: 2.0,2.0;" x1="313" x2="445" y1="367.7734" y2="367.7734"/><text fill="#000000" font-family="Segoe UI" font-size="13" lengthAdjust="spacingAndGlyphs" textLength="77" x="325" y="362.7075">Created row</text><polygon fill="#059669" points="170.5,392.9063,160.5,396.9063,170.5,400.9063,166.5,396.9063" style="stroke: #059669; stroke-width: 1.0;"/><line style="stroke: #059669; stroke-width: 1.0; stroke-dasharray: 2.0,2.0;" x1="164.5" x2="302" y1="396.9063" y2="396.9063"/><text fill="#000000" font-family="Segoe UI" font-size="13" lengthAdjust="spacingAndGlyphs" textLength="79" x="176.5" y="391.8403">201 Created</text><polygon fill="#059669" points="45.5,422.0391,35.5,426.0391,45.5,430.0391,41.5,426.0391" style="stroke: #059669; stroke-width: 1.0;"/><line style="stroke: #059669; stroke-width: 1.0; stroke-dasharray: 2.0,2.0;" x1="39.5" x2="153.5" y1="426.0391" y2="426.0391"/><text fill="#000000" font-family="Segoe UI" font-size="13" lengthAdjust="spacingAndGlyphs" textLength="79" x="51.5" y="420.9731">201 Created</text><a href="/microservices/svc-partner-integrations/#integration-context" target="_top" title="/microservices/svc-partner-integrations/#integration-context" xlink:actuate="onRequest" xlink:href="/microservices/svc-partner-integrations/#integration-context" xlink:show="new" xlink:title="/microservices/svc-partner-integrations/#integration-context" xlink:type="simple"><text fill="#0000FF" font-family="Segoe UI" font-size="10" lengthAdjust="spacingAndGlyphs" text-decoration="underline" textLength="227" x="267.5" y="12.2822">⬆ svc-partner-integrations Integration Context</text></a><!--MD5=[815685df13628e622bff11806d6e62f1]
@startuml svc-partner-integrations- -post-partners

skinparam backgroundColor #FEFEFE
skinparam shadowing false
skinparam defaultFontName "Segoe UI"
skinparam sequence {
    ArrowColor #059669
    ParticipantBorderColor #374151
    ParticipantBackgroundColor #F9FAFB
    LifeLineBorderColor #6B7280
    BoxBorderColor #94A3B8
    BoxBackgroundColor #F8FAFC
    NoteBorderColor #64748B
    NoteBackgroundColor #F8FAFC
}

header [[/microservices/svc-partner-integrations/#integration-context ⬆ svc-partner-integrations Integration Context]]

title POST /partners\nRegister a new partner

participant "Client" as Client [[/applications/]]
participant "API Gateway" as GW [[/actors/#api-gateway]] #E0F2FE
participant "svc-partner-integrations" as Svc [[/microservices/svc-partner-integrations/]] #F3E8FF
database "PostgreSQL" as DB [[/microservices/svc-partner-integrations/#data-store]] #FEF9C3

note over Svc
  [[/services/api/svc-partner-integrations.html#/Partners/registerPartner View in Swagger UI]]
end note

Client -> GW : POST /partners
activate GW #059669
GW -> Svc : route request
activate Svc #059669

note right of Svc : Validate request body

== Database ==

Svc -> DB : INSERT INTO ...
activate DB #FEF9C3
DB - -> Svc : Created row
deactivate DB

Svc - -> GW : 201 Created
deactivate Svc
GW - -> Client : 201 Created
deactivate GW

@enduml

PlantUML version 1.2020.02(Sun Mar 01 10:22:07 UTC 2020)
(GPL source distribution)
Java Runtime: OpenJDK Runtime Environment
JVM: OpenJDK 64-Bit Server VM
Java Version: 17.0.18+8
Operating System: Linux
Default Encoding: UTF-8
Language: en
Country: null
--></g></svg>