<svg xmlns="http://www.w3.org/2000/svg" xmlns:xlink="http://www.w3.org/1999/xlink" contentStyleType="text/css" data-diagram-type="SEQUENCE" height="474px" preserveAspectRatio="none" style="width:625px;height:474px;background:#FEFEFE;" version="1.1" viewBox="0 0 625 474" width="625px" zoomAndPan="magnify"><title>GET /trips/{trip_id}/pricing</title><defs/><g><rect fill="#FEFEFE" height="474" style="stroke:none;stroke-width:1;" width="625" x="0" y="0"/><text fill="#000000" font-family="Segoe UI" font-size="14" font-weight="bold" lengthAdjust="spacing" textLength="198.3516" x="209.8059" y="28.5352">GET /trips/{trip_id}/pricing</text><text fill="#000000" font-family="Segoe UI" font-size="14" font-weight="bold" lengthAdjust="spacing" textLength="116.8809" x="250.5413" y="45.0234">Get pricing tiers</text><g><title>API Gateway</title><rect fill="#2563EB" height="189.8633" style="stroke:#A23B72;stroke-width:1;" width="10" x="221.5933" y="188.0859"/></g><g><title>svc-trip-catalog</title><rect fill="#2563EB" height="131.2422" style="stroke:#A23B72;stroke-width:1;" width="10" x="342.2944" y="217.3965"/></g><g><title>PostgreSQL</title><rect fill="#FCE4EC" height="29.3105" style="stroke:#A23B72;stroke-width:1;" width="10" x="567.5386" y="290.0176"/></g><g><title>Client</title><rect fill="#000000" fill-opacity="0.00000" height="274.4844" width="8" x="27.7524" y="121.4648"/><line style="stroke:#A23B72;stroke-width:0.5;stroke-dasharray:5,5;" x1="31" x2="31" y1="121.4648" y2="395.9492"/></g><g><title>API Gateway</title><rect fill="#000000" fill-opacity="0.00000" height="274.4844" width="8" x="222.5933" y="121.4648"/><line style="stroke:#A23B72;stroke-width:0.5;stroke-dasharray:5,5;" x1="226.3042" x2="226.3042" y1="121.4648" y2="395.9492"/></g><g><title>svc-trip-catalog</title><rect fill="#000000" fill-opacity="0.00000" height="274.4844" width="8" x="343.2944" y="121.4648"/><line style="stroke:#A23B72;stroke-width:0.5;stroke-dasharray:5,5;" x1="346.8823" x2="346.8823" y1="121.4648" y2="395.9492"/></g><g><title>PostgreSQL</title><rect fill="#000000" fill-opacity="0.00000" height="274.4844" width="8" x="568.5386" y="121.4648"/><line style="stroke:#A23B72;stroke-width:0.5;stroke-dasharray:5,5;" x1="572.1138" x2="572.1138" y1="121.4648" y2="395.9492"/></g><g class="participant participant-head" data-participant="Client"><rect fill="#E8F4F8" height="30.4883" rx="2.5" ry="2.5" style="stroke:#2E86AB;stroke-width:0.5;" width="53.5049" x="5" y="89.9766"/><text fill="#000000" font-family="Segoe UI" font-size="14" lengthAdjust="spacing" textLength="39.5049" x="12" y="110.5117">Client</text></g><g class="participant participant-tail" data-participant="Client"><rect fill="#E8F4F8" height="30.4883" rx="2.5" ry="2.5" style="stroke:#2E86AB;stroke-width:0.5;" width="53.5049" x="5" y="394.9492"/><text fill="#000000" font-family="Segoe UI" font-size="14" lengthAdjust="spacing" textLength="39.5049" x="12" y="415.4844">Client</text></g><g class="participant participant-head" data-participant="GW"><rect fill="#DBEAFE" height="30.4883" rx="2.5" ry="2.5" style="stroke:#2E86AB;stroke-width:0.5;" width="96.5781" x="178.3042" y="89.9766"/><text fill="#000000" font-family="Segoe UI" font-size="14" lengthAdjust="spacing" textLength="82.5781" x="185.3042" y="110.5117">API Gateway</text></g><g class="participant participant-tail" data-participant="GW"><rect fill="#DBEAFE" height="30.4883" rx="2.5" ry="2.5" style="stroke:#2E86AB;stroke-width:0.5;" width="96.5781" x="178.3042" y="394.9492"/><text fill="#000000" font-family="Segoe UI" font-size="14" lengthAdjust="spacing" textLength="82.5781" x="185.3042" y="415.4844">API Gateway</text></g><g class="participant participant-head" data-participant="Svc"><a href="/microservices/svc-trip-catalog/" target="_top" title="/microservices/svc-trip-catalog/" xlink:actuate="onRequest" xlink:href="/microservices/svc-trip-catalog/" xlink:show="new" xlink:title="/microservices/svc-trip-catalog/" xlink:type="simple"><rect fill="#E8F4F8" height="30.4883" rx="2.5" ry="2.5" style="stroke:#2E86AB;stroke-width:0.5;" width="124.8242" x="284.8823" y="89.9766"/><text fill="#000000" font-family="Segoe UI" font-size="14" lengthAdjust="spacing" textLength="110.8242" x="291.8823" y="110.5117">svc-trip-catalog</text></a></g><g class="participant participant-tail" data-participant="Svc"><a href="/microservices/svc-trip-catalog/" target="_top" title="/microservices/svc-trip-catalog/" xlink:actuate="onRequest" xlink:href="/microservices/svc-trip-catalog/" xlink:show="new" xlink:title="/microservices/svc-trip-catalog/" xlink:type="simple"><rect fill="#E8F4F8" height="30.4883" rx="2.5" ry="2.5" style="stroke:#2E86AB;stroke-width:0.5;" width="124.8242" x="284.8823" y="394.9492"/><text fill="#000000" font-family="Segoe UI" font-size="14" lengthAdjust="spacing" textLength="110.8242" x="291.8823" y="415.4844">svc-trip-catalog</text></a></g><g class="participant participant-head" data-participant="DB"><text fill="#000000" font-family="Segoe UI" font-size="14" lengthAdjust="spacing" textLength="76.8496" x="531.1138" y="118.5117">PostgreSQL</text><path d="M554.5386,68.9766 C554.5386,58.9766 572.5386,58.9766 572.5386,58.9766 C572.5386,58.9766 590.5386,58.9766 590.5386,68.9766 L590.5386,94.9766 C590.5386,104.9766 572.5386,104.9766 572.5386,104.9766 C572.5386,104.9766 554.5386,104.9766 554.5386,94.9766 L554.5386,68.9766" fill="#FCE4EC" style="stroke:#181818;stroke-width:0.5;"/><path d="M554.5386,68.9766 C554.5386,78.9766 572.5386,78.9766 572.5386,78.9766 C572.5386,78.9766 590.5386,78.9766 590.5386,68.9766" fill="none" style="stroke:#181818;stroke-width:0.5;"/></g><g class="participant participant-tail" data-participant="DB"><text fill="#000000" font-family="Segoe UI" font-size="14" lengthAdjust="spacing" textLength="76.8496" x="531.1138" y="408.4844">PostgreSQL</text><path d="M554.5386,421.4375 C554.5386,411.4375 572.5386,411.4375 572.5386,411.4375 C572.5386,411.4375 590.5386,411.4375 590.5386,421.4375 L590.5386,447.4375 C590.5386,457.4375 572.5386,457.4375 572.5386,457.4375 C572.5386,457.4375 554.5386,457.4375 554.5386,447.4375 L554.5386,421.4375" fill="#FCE4EC" style="stroke:#181818;stroke-width:0.5;"/><path d="M554.5386,421.4375 C554.5386,431.4375 572.5386,431.4375 572.5386,431.4375 C572.5386,431.4375 590.5386,431.4375 590.5386,421.4375" fill="none" style="stroke:#181818;stroke-width:0.5;"/></g><g><title>API Gateway</title><rect fill="#2563EB" height="189.8633" style="stroke:#A23B72;stroke-width:1;" width="10" x="221.5933" y="188.0859"/></g><g><title>svc-trip-catalog</title><rect fill="#2563EB" height="131.2422" style="stroke:#A23B72;stroke-width:1;" width="10" x="342.2944" y="217.3965"/></g><g><title>PostgreSQL</title><rect fill="#FCE4EC" height="29.3105" style="stroke:#A23B72;stroke-width:1;" width="10" x="567.5386" y="290.0176"/></g><path d="M277,136.4648 L277,161.4648 L417,161.4648 L417,146.4648 L407,136.4648 L277,136.4648" fill="#FEFFDD" style="stroke:#181818;stroke-width:0.5;"/><path d="M407,136.4648 L407,146.4648 L417,146.4648 L407,136.4648" fill="#FEFFDD" style="stroke:#181818;stroke-width:0.5;"/><a href="/services/api/svc-trip-catalog.html#/Pricing/getTripPricing" target="_top" title="/services/api/svc-trip-catalog.html#/Pricing/getTripPricing" xlink:actuate="onRequest" xlink:href="/services/api/svc-trip-catalog.html#/Pricing/getTripPricing" xlink:show="new" xlink:title="/services/api/svc-trip-catalog.html#/Pricing/getTripPricing" xlink:type="simple"><text fill="#0000FF" font-family="Segoe UI" font-size="13" lengthAdjust="spacing" text-decoration="underline" textLength="119.4058" x="283" y="154.0332">View in Swagger UI</text></a><g class="message" data-participant-1="Client" data-participant-2="GW"><polygon fill="#2563EB" points="209.5933,184.0859,219.5933,188.0859,209.5933,192.0859,213.5933,188.0859" style="stroke:#2563EB;stroke-width:1;"/><line style="stroke:#2563EB;stroke-width:1;" x1="31.7524" x2="215.5933" y1="188.0859" y2="188.0859"/><text fill="#000000" font-family="Segoe UI" font-size="13" lengthAdjust="spacing" textLength="170.8408" x="38.7524" y="183.3438">GET /trips/{trip_id}/pricing</text></g><g class="message" data-participant-1="GW" data-participant-2="Svc"><polygon fill="#2563EB" points="330.2944,213.3965,340.2944,217.3965,330.2944,221.3965,334.2944,217.3965" style="stroke:#2563EB;stroke-width:1;"/><line style="stroke:#2563EB;stroke-width:1;" x1="231.5933" x2="336.2944" y1="217.3965" y2="217.3965"/><a href="/microservices/svc-trip-catalog/#get-tripstrip_idpricing-get-pricing-tiers" target="_top" title="/microservices/svc-trip-catalog/#get-tripstrip_idpricing-get-pricing-tiers" xlink:actuate="onRequest" xlink:href="/microservices/svc-trip-catalog/#get-tripstrip_idpricing-get-pricing-tiers" xlink:show="new" xlink:title="/microservices/svc-trip-catalog/#get-tripstrip_idpricing-get-pricing-tiers" xlink:type="simple"><text fill="#0000FF" font-family="Segoe UI" font-size="13" lengthAdjust="spacing" text-decoration="underline" textLength="85.1348" x="238.5933" y="212.6543">route request</text></a></g><rect fill="#EEEEEE" height="3" style="stroke:#EEEEEE;stroke-width:1;" width="618.9634" x="0" y="246.0518"/><line style="stroke:#000000;stroke-width:1;" x1="0" x2="618.9634" y1="246.0518" y2="246.0518"/><line style="stroke:#000000;stroke-width:1;" x1="0" x2="618.9634" y1="249.0518" y2="249.0518"/><rect fill="#EEEEEE" height="23.3105" style="stroke:#000000;stroke-width:2;" width="80.3711" x="269.2961" y="235.3965"/><text fill="#000000" font-family="Segoe UI" font-size="13" font-weight="bold" lengthAdjust="spacing" textLength="62.0864" x="275.2961" y="251.9648">Database</text><g class="message" data-participant-1="Svc" data-participant-2="DB"><polygon fill="#2563EB" points="555.5386,286.0176,565.5386,290.0176,555.5386,294.0176,559.5386,290.0176" style="stroke:#2563EB;stroke-width:1;"/><line style="stroke:#2563EB;stroke-width:1;" x1="352.2944" x2="561.5386" y1="290.0176" y2="290.0176"/><text fill="#000000" font-family="Segoe UI" font-size="13" lengthAdjust="spacing" textLength="196.2441" x="359.2944" y="285.2754">SELECT ... WHERE parent_id = ?</text></g><g class="message" data-participant-1="DB" data-participant-2="Svc"><polygon fill="#2563EB" points="363.2944,315.3281,353.2944,319.3281,363.2944,323.3281,359.2944,319.3281" style="stroke:#2563EB;stroke-width:1;"/><line style="stroke:#2563EB;stroke-width:1;stroke-dasharray:2,2;" x1="357.2944" x2="571.5386" y1="319.3281" y2="319.3281"/><text fill="#000000" font-family="Segoe UI" font-size="13" lengthAdjust="spacing" textLength="57.8843" x="369.2944" y="314.5859">ResultSet</text></g><g class="message" data-participant-1="Svc" data-participant-2="GW"><polygon fill="#2563EB" points="242.5933,344.6387,232.5933,348.6387,242.5933,352.6387,238.5933,348.6387" style="stroke:#2563EB;stroke-width:1;"/><line style="stroke:#2563EB;stroke-width:1;stroke-dasharray:2,2;" x1="236.5933" x2="346.2944" y1="348.6387" y2="348.6387"/><text fill="#000000" font-family="Segoe UI" font-size="13" lengthAdjust="spacing" textLength="47.3599" x="248.5933" y="343.8965">200 OK</text></g><g class="message" data-participant-1="GW" data-participant-2="Client"><polygon fill="#2563EB" points="42.7524,373.9492,32.7524,377.9492,42.7524,381.9492,38.7524,377.9492" style="stroke:#2563EB;stroke-width:1;"/><line style="stroke:#2563EB;stroke-width:1;stroke-dasharray:2,2;" x1="36.7524" x2="225.5933" y1="377.9492" y2="377.9492"/><text fill="#000000" font-family="Segoe UI" font-size="13" lengthAdjust="spacing" textLength="47.3599" x="48.7524" y="373.207">200 OK</text></g><!--SRC=[ZPDHRzem58NV_Ikku1b2eIi8YKq44eQ6EjRGyT2XoIINr6gmcMrWKzN_lkiGQ2ZLDFA0utDoZ-zt4_Cav8PhleObZvzIhROo6QXCQQY6WRkOEJdC8q_KNiWKLZmpM58INF5jPaCbxIrV8rGYJ1N2_RXIVXn_RL762CyCwDVNMksBgEQ7cnOky-qfrrR4OiEbzPLEK1yjGUUcxrzOtXuww8JNOIUtJSGA9qBYMPb-i-MtcxdkgzzdKdZL2HjN9-a2HnYIdiktofvNZTljPQkalOEo5RJP2sDMs0nX5Cp0irfiZFVi_dwAvCNRQ6fAfZ_a22qKDs05QiFOvhLbg0moWT9MW1iuBC_b_dGC8svnp__adj4SgaC_wDCiptnc5zTSU2tcbcSgpStHBeQ71syjOgqCwfs8qNXldTvYSIATqDQI6vhvL1cRQeo-JV9AGv_w7WJNmO0nIL10xL2x-eI94ax5-KPS1DGVxJghUjC312z5EoErk8Nl0lSW94HxdgPKytwyM32K2RWOnWvCeFRHTTxz9sl6Oojsn2g7LBo5jAHd7OZkVw2eqk7o7LCKBqhNtFvndKyHw8sW9Eq-0sFfoATmbtLCPxqU38zCUpt6d4Zd8PnTY899C9X1lLw7-UVWBW0QAFLAgT23Jwy5I-nfMJkrSuU6FjC8BKkmP2v2ZiIQZGPy_LAskAavBEGewBxd6itPNm00]--></g></svg>