<?plantuml 1.2026.2?><svg xmlns="http://www.w3.org/2000/svg" xmlns:xlink="http://www.w3.org/1999/xlink" contentStyleType="text/css" data-diagram-type="SEQUENCE" height="616px" preserveAspectRatio="none" style="width:542px;height:616px;background:#FEFEFE;" version="1.1" viewBox="0 0 542 616" width="542px" zoomAndPan="magnify"><title>PATCH /trips/{trip_id}
Update trip details</title><defs/><g><rect fill="#FEFEFE" height="616" style="stroke:none;stroke-width:1;" width="542" x="0" y="0"/><text fill="#000000" font-family="'Segoe UI'" font-size="14" font-weight="bold" lengthAdjust="spacing" textLength="160.7539" x="186.9673" y="41.3125">PATCH /trips/{trip_id}</text><text fill="#000000" font-family="'Segoe UI'" font-size="14" font-weight="bold" lengthAdjust="spacing" textLength="134.4697" x="200.1094" y="57.8008">Update trip details</text><g><title>API Gateway</title><rect fill="#7C3AED" height="319.1055" style="stroke:#181818;stroke-width:1;" width="10" x="189.1885" y="200.8633"/></g><g><title>svc-trip-catalog</title><rect fill="#7C3AED" height="260.4844" style="stroke:#181818;stroke-width:1;" width="10" x="309.8896" y="230.1738"/></g><g><title>PostgreSQL</title><rect fill="#FCE4EC" height="29.3105" style="stroke:#181818;stroke-width:1;" width="10" x="484.2637" y="338.1055"/></g><g><title>PostgreSQL</title><rect fill="#FCE4EC" height="29.3105" style="stroke:#181818;stroke-width:1;" width="10" x="484.2637" y="432.0371"/></g><g class="participant-lifeline" data-entity-uid="part1" data-qualified-name="Client" id="part1-lifeline"><g><title>Client</title><rect fill="#000000" fill-opacity="0.00000" height="403.7266" width="8" x="27.7524" y="134.2422"/><line style="stroke:#A23B72;stroke-width:0.5;stroke-dasharray:5,5;" x1="31" x2="31" y1="134.2422" y2="537.9688"/></g></g><g class="participant-lifeline" data-entity-uid="part2" data-qualified-name="GW" id="part2-lifeline"><g><title>API Gateway</title><rect fill="#000000" fill-opacity="0.00000" height="403.7266" width="8" x="190.1885" y="134.2422"/><line style="stroke:#A23B72;stroke-width:0.5;stroke-dasharray:5,5;" x1="193.8994" x2="193.8994" y1="134.2422" y2="537.9688"/></g></g><g class="participant-lifeline" data-entity-uid="part3" data-qualified-name="Svc" id="part3-lifeline"><g><title>svc-trip-catalog</title><rect fill="#000000" fill-opacity="0.00000" height="403.7266" width="8" x="310.8896" y="134.2422"/><line style="stroke:#A23B72;stroke-width:0.5;stroke-dasharray:5,5;" x1="314.4775" x2="314.4775" y1="134.2422" y2="537.9688"/></g></g><g class="participant-lifeline" data-entity-uid="part4" data-qualified-name="DB" id="part4-lifeline"><g><title>PostgreSQL</title><rect fill="#000000" fill-opacity="0.00000" height="403.7266" width="8" x="485.2637" y="134.2422"/><line style="stroke:#A23B72;stroke-width:0.5;stroke-dasharray:5,5;" x1="488.8389" x2="488.8389" y1="134.2422" y2="537.9688"/></g></g><g class="participant participant-head" data-entity-uid="part1" data-qualified-name="Client" id="part1-head"><a href="/applications/" target="_top" title="/applications/" xlink:actuate="onRequest" xlink:href="/applications/" xlink:show="new" xlink:title="/applications/" xlink:type="simple"><rect fill="#E8F4F8" height="30.4883" rx="2.5" ry="2.5" style="stroke:#2E86AB;stroke-width:0.5;" width="53.5049" x="5" y="102.7539"/><text fill="#000000" font-family="'Segoe UI'" font-size="14" lengthAdjust="spacing" textLength="39.5049" x="12" y="123.2891">Client</text></a></g><g class="participant participant-tail" data-entity-uid="part1" data-qualified-name="Client" id="part1-tail"><a href="/applications/" target="_top" title="/applications/" xlink:actuate="onRequest" xlink:href="/applications/" xlink:show="new" xlink:title="/applications/" xlink:type="simple"><rect fill="#E8F4F8" height="30.4883" rx="2.5" ry="2.5" style="stroke:#2E86AB;stroke-width:0.5;" width="53.5049" x="5" y="536.9688"/><text fill="#000000" font-family="'Segoe UI'" font-size="14" lengthAdjust="spacing" textLength="39.5049" x="12" y="557.5039">Client</text></a></g><g class="participant participant-head" data-entity-uid="part2" data-qualified-name="GW" id="part2-head"><a href="/actors/#api-gateway" target="_top" title="/actors/#api-gateway" xlink:actuate="onRequest" xlink:href="/actors/#api-gateway" xlink:show="new" xlink:title="/actors/#api-gateway" xlink:type="simple"><rect fill="#DBEAFE" height="30.4883" rx="2.5" ry="2.5" style="stroke:#2E86AB;stroke-width:0.5;" width="96.5781" x="145.8994" y="102.7539"/><text fill="#000000" font-family="'Segoe UI'" font-size="14" lengthAdjust="spacing" textLength="82.5781" x="152.8994" y="123.2891">API Gateway</text></a></g><g class="participant participant-tail" data-entity-uid="part2" data-qualified-name="GW" id="part2-tail"><a href="/actors/#api-gateway" target="_top" title="/actors/#api-gateway" xlink:actuate="onRequest" xlink:href="/actors/#api-gateway" xlink:show="new" xlink:title="/actors/#api-gateway" xlink:type="simple"><rect fill="#DBEAFE" height="30.4883" rx="2.5" ry="2.5" style="stroke:#2E86AB;stroke-width:0.5;" width="96.5781" x="145.8994" y="536.9688"/><text fill="#000000" font-family="'Segoe UI'" font-size="14" lengthAdjust="spacing" textLength="82.5781" x="152.8994" y="557.5039">API Gateway</text></a></g><g class="participant participant-head" data-entity-uid="part3" data-qualified-name="Svc" id="part3-head"><a href="/microservices/svc-trip-catalog/" target="_top" title="/microservices/svc-trip-catalog/" xlink:actuate="onRequest" xlink:href="/microservices/svc-trip-catalog/" xlink:show="new" xlink:title="/microservices/svc-trip-catalog/" xlink:type="simple"><rect fill="#E8F4F8" height="30.4883" rx="2.5" ry="2.5" style="stroke:#2E86AB;stroke-width:0.5;" width="124.8242" x="252.4775" y="102.7539"/><text fill="#000000" font-family="'Segoe UI'" font-size="14" lengthAdjust="spacing" textLength="110.8242" x="259.4775" y="123.2891">svc-trip-catalog</text></a></g><g class="participant participant-tail" data-entity-uid="part3" data-qualified-name="Svc" id="part3-tail"><a href="/microservices/svc-trip-catalog/" target="_top" title="/microservices/svc-trip-catalog/" xlink:actuate="onRequest" xlink:href="/microservices/svc-trip-catalog/" xlink:show="new" xlink:title="/microservices/svc-trip-catalog/" xlink:type="simple"><rect fill="#E8F4F8" height="30.4883" rx="2.5" ry="2.5" style="stroke:#2E86AB;stroke-width:0.5;" width="124.8242" x="252.4775" y="536.9688"/><text fill="#000000" font-family="'Segoe UI'" font-size="14" lengthAdjust="spacing" textLength="110.8242" x="259.4775" y="557.5039">svc-trip-catalog</text></a></g><g class="participant participant-head" data-entity-uid="part4" data-qualified-name="DB" id="part4-head"><text fill="#000000" font-family="'Segoe UI'" font-size="14" lengthAdjust="spacing" textLength="76.8496" x="447.8389" y="131.2891">PostgreSQL</text><path d="M471.2637,81.7539 C471.2637,71.7539 489.2637,71.7539 489.2637,71.7539 C489.2637,71.7539 507.2637,71.7539 507.2637,81.7539 L507.2637,107.7539 C507.2637,117.7539 489.2637,117.7539 489.2637,117.7539 C489.2637,117.7539 471.2637,117.7539 471.2637,107.7539 L471.2637,81.7539" fill="#FCE4EC" style="stroke:#181818;stroke-width:0.5;"/><path d="M471.2637,81.7539 C471.2637,91.7539 489.2637,91.7539 489.2637,91.7539 C489.2637,91.7539 507.2637,91.7539 507.2637,81.7539" fill="none" style="stroke:#181818;stroke-width:0.5;"/></g><g class="participant participant-tail" data-entity-uid="part4" data-qualified-name="DB" id="part4-tail"><text fill="#000000" font-family="'Segoe UI'" font-size="14" lengthAdjust="spacing" textLength="76.8496" x="447.8389" y="550.5039">PostgreSQL</text><path d="M471.2637,563.457 C471.2637,553.457 489.2637,553.457 489.2637,553.457 C489.2637,553.457 507.2637,553.457 507.2637,563.457 L507.2637,589.457 C507.2637,599.457 489.2637,599.457 489.2637,599.457 C489.2637,599.457 471.2637,599.457 471.2637,589.457 L471.2637,563.457" fill="#FCE4EC" style="stroke:#181818;stroke-width:0.5;"/><path d="M471.2637,563.457 C471.2637,573.457 489.2637,573.457 489.2637,573.457 C489.2637,573.457 507.2637,573.457 507.2637,563.457" fill="none" style="stroke:#181818;stroke-width:0.5;"/></g><g><title>API Gateway</title><rect fill="#7C3AED" height="319.1055" style="stroke:#181818;stroke-width:1;" width="10" x="189.1885" y="200.8633"/></g><g><title>svc-trip-catalog</title><rect fill="#7C3AED" height="260.4844" style="stroke:#181818;stroke-width:1;" width="10" x="309.8896" y="230.1738"/></g><g><title>PostgreSQL</title><rect fill="#FCE4EC" height="29.3105" style="stroke:#181818;stroke-width:1;" width="10" x="484.2637" y="338.1055"/></g><g><title>PostgreSQL</title><rect fill="#FCE4EC" height="29.3105" style="stroke:#181818;stroke-width:1;" width="10" x="484.2637" y="432.0371"/></g><path d="M244,149.2422 L244,174.2422 L384,174.2422 L384,159.2422 L374,149.2422 L244,149.2422" fill="#FEFFDD" style="stroke:#181818;stroke-width:0.5;"/><path d="M374,149.2422 L374,159.2422 L384,159.2422 L374,149.2422" fill="#FEFFDD" style="stroke:#181818;stroke-width:0.5;"/><a href="/services/api/svc-trip-catalog.html#/Trips/updateTrip" target="_top" title="/services/api/svc-trip-catalog.html#/Trips/updateTrip" xlink:actuate="onRequest" xlink:href="/services/api/svc-trip-catalog.html#/Trips/updateTrip" xlink:show="new" xlink:title="/services/api/svc-trip-catalog.html#/Trips/updateTrip" xlink:type="simple"><text fill="#0000FF" font-family="'Segoe UI'" font-size="13" lengthAdjust="spacing" text-decoration="underline" textLength="119.4058" x="250" y="166.8105">View in Swagger UI</text></a><g class="message" data-entity-1="part1" data-entity-2="part2" id="msg1"><polygon fill="#7C3AED" points="177.1885,196.8633,187.1885,200.8633,177.1885,204.8633,181.1885,200.8633" style="stroke:#7C3AED;stroke-width:1;"/><line style="stroke:#7C3AED;stroke-width:1;" x1="31.7524" x2="183.1885" y1="200.8633" y2="200.8633"/><text fill="#000000" font-family="'Segoe UI'" font-size="13" lengthAdjust="spacing" textLength="138.436" x="38.7524" y="196.1211">PATCH /trips/{trip_id}</text></g><g class="message" data-entity-1="part2" data-entity-2="part3" id="msg2"><polygon fill="#7C3AED" points="297.8896,226.1738,307.8896,230.1738,297.8896,234.1738,301.8896,230.1738" style="stroke:#7C3AED;stroke-width:1;"/><line style="stroke:#7C3AED;stroke-width:1;" x1="199.1885" x2="303.8896" y1="230.1738" y2="230.1738"/><text fill="#000000" font-family="'Segoe UI'" font-size="13" lengthAdjust="spacing" textLength="85.1348" x="206.1885" y="225.4316">route request</text></g><path d="M324,243.1738 L324,268.1738 L482,268.1738 L482,253.1738 L472,243.1738 L324,243.1738" fill="#FEFFDD" style="stroke:#181818;stroke-width:0.5;"/><path d="M472,243.1738 L472,253.1738 L482,253.1738 L472,243.1738" fill="#FEFFDD" style="stroke:#181818;stroke-width:0.5;"/><text fill="#000000" font-family="'Segoe UI'" font-size="13" lengthAdjust="spacing" textLength="137.5728" x="330" y="260.7422">Validate request body</text><rect fill="#EEEEEE" height="3" style="stroke:#EEEEEE;stroke-width:1;" width="535.6885" x="0" y="294.1396"/><line style="stroke:#000000;stroke-width:1;" x1="0" x2="535.6885" y1="294.1396" y2="294.1396"/><line style="stroke:#000000;stroke-width:1;" x1="0" x2="535.6885" y1="297.1396" y2="297.1396"/><rect fill="#EEEEEE" height="23.3105" style="stroke:#000000;stroke-width:2;" width="80.3711" x="227.6587" y="283.4844"/><text fill="#000000" font-family="'Segoe UI'" font-size="13" font-weight="bold" lengthAdjust="spacing" textLength="62.0864" x="233.6587" y="300.0527">Database</text><g class="message" data-entity-1="part3" data-entity-2="part4" id="msg3"><polygon fill="#7C3AED" points="472.2637,334.1055,482.2637,338.1055,472.2637,342.1055,476.2637,338.1055" style="stroke:#7C3AED;stroke-width:1;"/><line style="stroke:#7C3AED;stroke-width:1;" x1="319.8896" x2="478.2637" y1="338.1055" y2="338.1055"/><text fill="#000000" font-family="'Segoe UI'" font-size="13" lengthAdjust="spacing" textLength="145.374" x="326.8896" y="333.3633">SELECT ... FOR UPDATE</text></g><g class="message" data-entity-1="part4" data-entity-2="part3" id="msg4"><polygon fill="#7C3AED" points="330.8896,363.416,320.8896,367.416,330.8896,371.416,326.8896,367.416" style="stroke:#7C3AED;stroke-width:1;"/><line style="stroke:#7C3AED;stroke-width:1;stroke-dasharray:2,2;" x1="324.8896" x2="488.2637" y1="367.416" y2="367.416"/><text fill="#000000" font-family="'Segoe UI'" font-size="13" lengthAdjust="spacing" textLength="75.3086" x="336.8896" y="362.6738">Current row</text></g><path d="M324,380.416 L324,405.416 L510,405.416 L510,390.416 L500,380.416 L324,380.416" fill="#FEFFDD" style="stroke:#181818;stroke-width:0.5;"/><path d="M500,380.416 L500,390.416 L510,390.416 L500,380.416" fill="#FEFFDD" style="stroke:#181818;stroke-width:0.5;"/><text fill="#000000" font-family="'Segoe UI'" font-size="13" lengthAdjust="spacing" textLength="165.9023" x="330" y="397.9844">Merge changed fields only</text><g class="message" data-entity-1="part3" data-entity-2="part4" id="msg5"><polygon fill="#7C3AED" points="472.2637,428.0371,482.2637,432.0371,472.2637,436.0371,476.2637,432.0371" style="stroke:#7C3AED;stroke-width:1;"/><line style="stroke:#7C3AED;stroke-width:1;" x1="319.8896" x2="478.2637" y1="432.0371" y2="432.0371"/><text fill="#000000" font-family="'Segoe UI'" font-size="13" lengthAdjust="spacing" textLength="109.4526" x="326.8896" y="427.2949">UPDATE ... SET ...</text></g><g class="message" data-entity-1="part4" data-entity-2="part3" id="msg6"><polygon fill="#7C3AED" points="330.8896,457.3477,320.8896,461.3477,330.8896,465.3477,326.8896,461.3477" style="stroke:#7C3AED;stroke-width:1;"/><line style="stroke:#7C3AED;stroke-width:1;stroke-dasharray:2,2;" x1="324.8896" x2="488.2637" y1="461.3477" y2="461.3477"/><text fill="#000000" font-family="'Segoe UI'" font-size="13" lengthAdjust="spacing" textLength="80.2725" x="336.8896" y="456.6055">Updated row</text></g><g class="message" data-entity-1="part3" data-entity-2="part2" id="msg7"><polygon fill="#7C3AED" points="210.1885,486.6582,200.1885,490.6582,210.1885,494.6582,206.1885,490.6582" style="stroke:#7C3AED;stroke-width:1;"/><line style="stroke:#7C3AED;stroke-width:1;stroke-dasharray:2,2;" x1="204.1885" x2="313.8896" y1="490.6582" y2="490.6582"/><text fill="#000000" font-family="'Segoe UI'" font-size="13" lengthAdjust="spacing" textLength="47.3599" x="216.1885" y="485.916">200 OK</text></g><g class="message" data-entity-1="part2" data-entity-2="part1" id="msg8"><polygon fill="#7C3AED" points="42.7524,515.9688,32.7524,519.9688,42.7524,523.9688,38.7524,519.9688" style="stroke:#7C3AED;stroke-width:1;"/><line style="stroke:#7C3AED;stroke-width:1;stroke-dasharray:2,2;" x1="36.7524" x2="193.1885" y1="519.9688" y2="519.9688"/><text fill="#000000" font-family="'Segoe UI'" font-size="13" lengthAdjust="spacing" textLength="47.3599" x="48.7524" y="515.2266">200 OK</text></g><a href="/microservices/svc-trip-catalog/#integration-context" target="_top" title="/microservices/svc-trip-catalog/#integration-context" xlink:actuate="onRequest" xlink:href="/microservices/svc-trip-catalog/#integration-context" xlink:show="new" xlink:title="/microservices/svc-trip-catalog/#integration-context" xlink:type="simple"><text fill="#0000FF" font-family="'Segoe UI'" font-size="10" lengthAdjust="spacing" text-decoration="underline" textLength="190.332" x="344.3564" y="14.668">&#11014; svc-trip-catalog Integration Context</text></a><?plantuml-src ZLFRRjf047tVhnZ1CpY1gA18L3B6Jb5fGWea3ocgblLYLZ6xxku2YQAyzclwLVsIpjhcbb2rzeDNdZDdPiwPDOz2PbJJ9SmeUqoqMiauKAdIK8r2znApGvW5ZTL6o0JcD3Ny81BpELsbDbBINjCbXyg89uh3f5yvJES_Lbmo3Yy4yF6rLfkoL8irAO_ptqEghM0Yez9sbOwvBY6DiFt1xxw3l6qwR4SNKJk73SIS3uJaHpH-ezbjDV9uLpqTXQBpTdHslWkzaoEAC9w7hvKzPcMjrgnv43iXPJDiaLT25fnY6ZmyU4l1j39ShmNZnZDhLhDQP3L6BKrLubM5j3pHr0ebQmo5vKyMVl_w2M-HqDy38IY0qoaXLjYKmz0V1v_0Smd6Ut6Vxo9-_IOdMKmj1_S3tRDKf8QGR2yiL89KS6ahG0qKHzSqpR9KiBoMyR3AKOO_xCCLicxeSvvsTP-dCAkqyQeq4xMaY4wdKErrGn-twuZWxMWvosZD_aCkHrbwZuFH6JMuXKDbRABvw7QGC_Mww4GGNeG18H9j0hL6Av0VZSCAEtBiz5s1-i8kqwetpdLSvUAvCzm9lW4XORIXIO9iapwgmcKChW0XfNArZqwCox-uGL0YiNPs86Xx5_28MMxuIy1Lmg1szyVOFTe5j_1Y82sIXGKrB_FkQ2focyjKcAducP1E1tfRZJeTGXmOQw4ybp0A1s4mXdgz3j7DLvWCU_uut9Sya12FjLs7mKfhDoXUQHBp0_Z9lhvmdN1W2oeJ7iDSy3Gse6JwVDnBKJplPHJcFVsxaMAlunED5DHR9nfdPt3p-H3Yzi29ZeZIjLEegtlo1m00?></g></svg>