<svg xmlns="http://www.w3.org/2000/svg" xmlns:xlink="http://www.w3.org/1999/xlink" contentStyleType="text/css" data-diagram-type="SEQUENCE" height="474px" preserveAspectRatio="none" style="width:571px;height:474px;background:#FEFEFE;" version="1.1" viewBox="0 0 571 474" width="571px" zoomAndPan="magnify"><title>GET /reorder-alerts</title><defs/><g><rect fill="#FEFEFE" height="474" style="stroke:none;stroke-width:1;" width="571" x="0" y="0"/><text fill="#000000" font-family="Segoe UI" font-size="14" font-weight="bold" lengthAdjust="spacing" textLength="144.6348" x="209.5046" y="28.5352">GET /reorder-alerts</text><text fill="#000000" font-family="Segoe UI" font-size="14" font-weight="bold" lengthAdjust="spacing" textLength="175.2324" x="194.2058" y="45.0234">Get active reorder alerts</text><g><title>API Gateway</title><rect fill="#2563EB" height="189.8633" style="stroke:#A23B72;stroke-width:1;" width="10" x="175.4648" y="188.0859"/></g><g><title>svc-inventory-procurement</title><rect fill="#2563EB" height="131.2422" style="stroke:#A23B72;stroke-width:1;" width="10" x="334.9668" y="217.3965"/></g><g><title>PostgreSQL</title><rect fill="#FCE4EC" height="29.3105" style="stroke:#A23B72;stroke-width:1;" width="10" x="513.2192" y="290.0176"/></g><g><title>Client</title><rect fill="#000000" fill-opacity="0.00000" height="274.4844" width="8" x="27.7524" y="121.4648"/><line style="stroke:#A23B72;stroke-width:0.5;stroke-dasharray:5,5;" x1="31" x2="31" y1="121.4648" y2="395.9492"/></g><g><title>API Gateway</title><rect fill="#000000" fill-opacity="0.00000" height="274.4844" width="8" x="176.4648" y="121.4648"/><line style="stroke:#A23B72;stroke-width:0.5;stroke-dasharray:5,5;" x1="180.1758" x2="180.1758" y1="121.4648" y2="395.9492"/></g><g><title>svc-inventory-procurement</title><rect fill="#000000" fill-opacity="0.00000" height="274.4844" width="8" x="335.9668" y="121.4648"/><line style="stroke:#A23B72;stroke-width:0.5;stroke-dasharray:5,5;" x1="339.7539" x2="339.7539" y1="121.4648" y2="395.9492"/></g><g><title>PostgreSQL</title><rect fill="#000000" fill-opacity="0.00000" height="274.4844" width="8" x="514.2192" y="121.4648"/><line style="stroke:#A23B72;stroke-width:0.5;stroke-dasharray:5,5;" x1="517.7944" x2="517.7944" y1="121.4648" y2="395.9492"/></g><g class="participant participant-head" data-participant="Client"><rect fill="#E8F4F8" height="30.4883" rx="2.5" ry="2.5" style="stroke:#2E86AB;stroke-width:0.5;" width="53.5049" x="5" y="89.9766"/><text fill="#000000" font-family="Segoe UI" font-size="14" lengthAdjust="spacing" textLength="39.5049" x="12" y="110.5117">Client</text></g><g class="participant participant-tail" data-participant="Client"><rect fill="#E8F4F8" height="30.4883" rx="2.5" ry="2.5" style="stroke:#2E86AB;stroke-width:0.5;" width="53.5049" x="5" y="394.9492"/><text fill="#000000" font-family="Segoe UI" font-size="14" lengthAdjust="spacing" textLength="39.5049" x="12" y="415.4844">Client</text></g><g class="participant participant-head" data-participant="GW"><rect fill="#DBEAFE" height="30.4883" rx="2.5" ry="2.5" style="stroke:#2E86AB;stroke-width:0.5;" width="96.5781" x="132.1758" y="89.9766"/><text fill="#000000" font-family="Segoe UI" font-size="14" lengthAdjust="spacing" textLength="82.5781" x="139.1758" y="110.5117">API Gateway</text></g><g class="participant participant-tail" data-participant="GW"><rect fill="#DBEAFE" height="30.4883" rx="2.5" ry="2.5" style="stroke:#2E86AB;stroke-width:0.5;" width="96.5781" x="132.1758" y="394.9492"/><text fill="#000000" font-family="Segoe UI" font-size="14" lengthAdjust="spacing" textLength="82.5781" x="139.1758" y="415.4844">API Gateway</text></g><g class="participant participant-head" data-participant="Svc"><a href="/microservices/svc-inventory-procurement/" target="_top" title="/microservices/svc-inventory-procurement/" xlink:actuate="onRequest" xlink:href="/microservices/svc-inventory-procurement/" xlink:show="new" xlink:title="/microservices/svc-inventory-procurement/" xlink:type="simple"><rect fill="#E8F4F8" height="30.4883" rx="2.5" ry="2.5" style="stroke:#2E86AB;stroke-width:0.5;" width="202.4258" x="238.7539" y="89.9766"/><text fill="#000000" font-family="Segoe UI" font-size="14" lengthAdjust="spacing" textLength="188.4258" x="245.7539" y="110.5117">svc-inventory-procurement</text></a></g><g class="participant participant-tail" data-participant="Svc"><a href="/microservices/svc-inventory-procurement/" target="_top" title="/microservices/svc-inventory-procurement/" xlink:actuate="onRequest" xlink:href="/microservices/svc-inventory-procurement/" xlink:show="new" xlink:title="/microservices/svc-inventory-procurement/" xlink:type="simple"><rect fill="#E8F4F8" height="30.4883" rx="2.5" ry="2.5" style="stroke:#2E86AB;stroke-width:0.5;" width="202.4258" x="238.7539" y="394.9492"/><text fill="#000000" font-family="Segoe UI" font-size="14" lengthAdjust="spacing" textLength="188.4258" x="245.7539" y="415.4844">svc-inventory-procurement</text></a></g><g class="participant participant-head" data-participant="DB"><text fill="#000000" font-family="Segoe UI" font-size="14" lengthAdjust="spacing" textLength="76.8496" x="476.7944" y="118.5117">PostgreSQL</text><path d="M500.2192,68.9766 C500.2192,58.9766 518.2192,58.9766 518.2192,58.9766 C518.2192,58.9766 536.2192,58.9766 536.2192,68.9766 L536.2192,94.9766 C536.2192,104.9766 518.2192,104.9766 518.2192,104.9766 C518.2192,104.9766 500.2192,104.9766 500.2192,94.9766 L500.2192,68.9766" fill="#FCE4EC" style="stroke:#181818;stroke-width:0.5;"/><path d="M500.2192,68.9766 C500.2192,78.9766 518.2192,78.9766 518.2192,78.9766 C518.2192,78.9766 536.2192,78.9766 536.2192,68.9766" fill="none" style="stroke:#181818;stroke-width:0.5;"/></g><g class="participant participant-tail" data-participant="DB"><text fill="#000000" font-family="Segoe UI" font-size="14" lengthAdjust="spacing" textLength="76.8496" x="476.7944" y="408.4844">PostgreSQL</text><path d="M500.2192,421.4375 C500.2192,411.4375 518.2192,411.4375 518.2192,411.4375 C518.2192,411.4375 536.2192,411.4375 536.2192,421.4375 L536.2192,447.4375 C536.2192,457.4375 518.2192,457.4375 518.2192,457.4375 C518.2192,457.4375 500.2192,457.4375 500.2192,447.4375 L500.2192,421.4375" fill="#FCE4EC" style="stroke:#181818;stroke-width:0.5;"/><path d="M500.2192,421.4375 C500.2192,431.4375 518.2192,431.4375 518.2192,431.4375 C518.2192,431.4375 536.2192,431.4375 536.2192,421.4375" fill="none" style="stroke:#181818;stroke-width:0.5;"/></g><g><title>API Gateway</title><rect fill="#2563EB" height="189.8633" style="stroke:#A23B72;stroke-width:1;" width="10" x="175.4648" y="188.0859"/></g><g><title>svc-inventory-procurement</title><rect fill="#2563EB" height="131.2422" style="stroke:#A23B72;stroke-width:1;" width="10" x="334.9668" y="217.3965"/></g><g><title>PostgreSQL</title><rect fill="#FCE4EC" height="29.3105" style="stroke:#A23B72;stroke-width:1;" width="10" x="513.2192" y="290.0176"/></g><path d="M269,136.4648 L269,161.4648 L409,161.4648 L409,146.4648 L399,136.4648 L269,136.4648" fill="#FEFFDD" style="stroke:#181818;stroke-width:0.5;"/><path d="M399,136.4648 L399,146.4648 L409,146.4648 L399,136.4648" fill="#FEFFDD" style="stroke:#181818;stroke-width:0.5;"/><a href="/services/api/svc-inventory-procurement.html" target="_top" title="/services/api/svc-inventory-procurement.html" xlink:actuate="onRequest" xlink:href="/services/api/svc-inventory-procurement.html" xlink:show="new" xlink:title="/services/api/svc-inventory-procurement.html" xlink:type="simple"><text fill="#0000FF" font-family="Segoe UI" font-size="13" lengthAdjust="spacing" text-decoration="underline" textLength="119.4058" x="275" y="154.0332">View in Swagger UI</text></a><g class="message" data-participant-1="Client" data-participant-2="GW"><polygon fill="#2563EB" points="163.4648,184.0859,173.4648,188.0859,163.4648,192.0859,167.4648,188.0859" style="stroke:#2563EB;stroke-width:1;"/><line style="stroke:#2563EB;stroke-width:1;" x1="31.7524" x2="169.4648" y1="188.0859" y2="188.0859"/><text fill="#000000" font-family="Segoe UI" font-size="13" lengthAdjust="spacing" textLength="124.7124" x="38.7524" y="183.3438">GET /reorder-alerts</text></g><g class="message" data-participant-1="GW" data-participant-2="Svc"><polygon fill="#2563EB" points="322.9668,213.3965,332.9668,217.3965,322.9668,221.3965,326.9668,217.3965" style="stroke:#2563EB;stroke-width:1;"/><line style="stroke:#2563EB;stroke-width:1;" x1="185.4648" x2="328.9668" y1="217.3965" y2="217.3965"/><a href="/microservices/svc-inventory-procurement/#get-reorder-alerts-get-active-reorder-alerts" target="_top" title="/microservices/svc-inventory-procurement/#get-reorder-alerts-get-active-reorder-alerts" xlink:actuate="onRequest" xlink:href="/microservices/svc-inventory-procurement/#get-reorder-alerts-get-active-reorder-alerts" xlink:show="new" xlink:title="/microservices/svc-inventory-procurement/#get-reorder-alerts-get-active-reorder-alerts" xlink:type="simple"><text fill="#0000FF" font-family="Segoe UI" font-size="13" lengthAdjust="spacing" text-decoration="underline" textLength="85.1348" x="192.4648" y="212.6543">route request</text></a></g><rect fill="#EEEEEE" height="3" style="stroke:#EEEEEE;stroke-width:1;" width="564.644" x="0" y="246.0518"/><line style="stroke:#000000;stroke-width:1;" x1="0" x2="564.644" y1="246.0518" y2="246.0518"/><line style="stroke:#000000;stroke-width:1;" x1="0" x2="564.644" y1="249.0518" y2="249.0518"/><rect fill="#EEEEEE" height="23.3105" style="stroke:#000000;stroke-width:2;" width="80.3711" x="242.1365" y="235.3965"/><text fill="#000000" font-family="Segoe UI" font-size="13" font-weight="bold" lengthAdjust="spacing" textLength="62.0864" x="248.1365" y="251.9648">Database</text><g class="message" data-participant-1="Svc" data-participant-2="DB"><polygon fill="#2563EB" points="501.2192,286.0176,511.2192,290.0176,501.2192,294.0176,505.2192,290.0176" style="stroke:#2563EB;stroke-width:1;"/><line style="stroke:#2563EB;stroke-width:1;" x1="344.9668" x2="507.2192" y1="290.0176" y2="290.0176"/><text fill="#000000" font-family="Segoe UI" font-size="13" lengthAdjust="spacing" textLength="149.2524" x="351.9668" y="285.2754">SELECT ... WHERE filters</text></g><g class="message" data-participant-1="DB" data-participant-2="Svc"><polygon fill="#2563EB" points="355.9668,315.3281,345.9668,319.3281,355.9668,323.3281,351.9668,319.3281" style="stroke:#2563EB;stroke-width:1;"/><line style="stroke:#2563EB;stroke-width:1;stroke-dasharray:2,2;" x1="349.9668" x2="517.2192" y1="319.3281" y2="319.3281"/><text fill="#000000" font-family="Segoe UI" font-size="13" lengthAdjust="spacing" textLength="93.209" x="361.9668" y="314.5859">Page of results</text></g><g class="message" data-participant-1="Svc" data-participant-2="GW"><polygon fill="#2563EB" points="196.4648,344.6387,186.4648,348.6387,196.4648,352.6387,192.4648,348.6387" style="stroke:#2563EB;stroke-width:1;"/><line style="stroke:#2563EB;stroke-width:1;stroke-dasharray:2,2;" x1="190.4648" x2="338.9668" y1="348.6387" y2="348.6387"/><text fill="#000000" font-family="Segoe UI" font-size="13" lengthAdjust="spacing" textLength="47.3599" x="202.4648" y="343.8965">200 OK</text></g><g class="message" data-participant-1="GW" data-participant-2="Client"><polygon fill="#2563EB" points="42.7524,373.9492,32.7524,377.9492,42.7524,381.9492,38.7524,377.9492" style="stroke:#2563EB;stroke-width:1;"/><line style="stroke:#2563EB;stroke-width:1;stroke-dasharray:2,2;" x1="36.7524" x2="179.4648" y1="377.9492" y2="377.9492"/><text fill="#000000" font-family="Segoe UI" font-size="13" lengthAdjust="spacing" textLength="47.3599" x="48.7524" y="373.207">200 OK</text></g><!--SRC=[bPDTRzem58Rl_IkEu3f0eIi8YKa478Q6EZhQST5nOP93QZNOp3PXrRJ_tfC0MTBIYoKtbj_tV3ssxRDKEs745jOYV8wDtgjef1Dje1xmx6UsSDWd4Uc3L35iH6Anf4Iu4Vl41LgvMx55g2qmrWWFqrev77_jKOK8VnZGDpH67qwbsfzkEhZEj-V2E1dAdL3EroP2SxRmtitGVsTvspJl1TT1BxVDv0PdKc4bpR3TyRljNFVrxueKNFM2rbKXlSCH1AJdygrsrQnXjxlkbBGBA3kyo_uovgHB42Ry7fe6ynIUID0u-rDDq848dKmHJX8S9SPs_oQ6sYYHg5mDX8NZiYeFvrEO28S7yP9x9akeZtq-fAEi-6mQUbAb5A_DYxSpEjmRt9upBz8G7X-RMnaQRT6aCaJR_32akLeLw2FXn5fOkWHpRLriS74torEEVG8nujTyn9WYIg1J6f4A4JSgLLGHE_bnfSQJsoRmG-81f8B5GSGn9NcOhbOCLGHPNiQEMC3xd0tVlqIRvQ29KexdTFreII7PvFt_cRqUe_EgwRriwtYMRnIWQ-6o0wQtO1rrNJIIrJrtmWO369yv3WQCPIBrHWZxiE0pFhg7HgC1oo_yEuUDJ1oQqambqhJqYg7c8YRg6wfkwRLQ5c4fv5Ja3AtTQi6thsLBTb8P8dAS05zoJPRi5G00]--></g></svg>