<svg xmlns="http://www.w3.org/2000/svg" xmlns:xlink="http://www.w3.org/1999/xlink" contentStyleType="text/css" data-diagram-type="SEQUENCE" height="522px" preserveAspectRatio="none" style="width:522px;height:522px;background:#FEFEFE;" version="1.1" viewBox="0 0 522 522" width="522px" zoomAndPan="magnify"><title>POST /suppliers</title><defs/><g><rect fill="#FEFEFE" height="522" style="stroke:none;stroke-width:1;" width="522" x="0" y="0"/><text fill="#000000" font-family="Segoe UI" font-size="14" font-weight="bold" lengthAdjust="spacing" textLength="117.5508" x="198.4834" y="41.3125">POST /suppliers</text><text fill="#000000" font-family="Segoe UI" font-size="14" font-weight="bold" lengthAdjust="spacing" textLength="170.6934" x="171.9121" y="57.8008">Register a new supplier</text><g><title>API Gateway</title><rect fill="#059669" height="225.1738" style="stroke:#A23B72;stroke-width:1;" width="10" x="151.9531" y="200.8633"/></g><g><title>svc-inventory-procurement</title><rect fill="#059669" height="166.5527" style="stroke:#A23B72;stroke-width:1;" width="10" x="311.4551" y="230.1738"/></g><g><title>PostgreSQL</title><rect fill="#FCE4EC" height="29.3105" style="stroke:#A23B72;stroke-width:1;" width="10" x="464.0928" y="338.1055"/></g><g><title>Client</title><rect fill="#000000" fill-opacity="0.00000" height="309.7949" width="8" x="27.7524" y="134.2422"/><line style="stroke:#A23B72;stroke-width:0.5;stroke-dasharray:5,5;" x1="31" x2="31" y1="134.2422" y2="444.0371"/></g><g><title>API Gateway</title><rect fill="#000000" fill-opacity="0.00000" height="309.7949" width="8" x="152.9531" y="134.2422"/><line style="stroke:#A23B72;stroke-width:0.5;stroke-dasharray:5,5;" x1="156.6641" x2="156.6641" y1="134.2422" y2="444.0371"/></g><g><title>svc-inventory-procurement</title><rect fill="#000000" fill-opacity="0.00000" height="309.7949" width="8" x="312.4551" y="134.2422"/><line style="stroke:#A23B72;stroke-width:0.5;stroke-dasharray:5,5;" x1="316.2422" x2="316.2422" y1="134.2422" y2="444.0371"/></g><g><title>PostgreSQL</title><rect fill="#000000" fill-opacity="0.00000" height="309.7949" width="8" x="465.0928" y="134.2422"/><line style="stroke:#A23B72;stroke-width:0.5;stroke-dasharray:5,5;" x1="468.668" x2="468.668" y1="134.2422" y2="444.0371"/></g><g class="participant participant-head" data-participant="Client"><rect fill="#E8F4F8" height="30.4883" rx="2.5" ry="2.5" style="stroke:#2E86AB;stroke-width:0.5;" width="53.5049" x="5" y="102.7539"/><text fill="#000000" font-family="Segoe UI" font-size="14" lengthAdjust="spacing" textLength="39.5049" x="12" y="123.2891">Client</text></g><g class="participant participant-tail" data-participant="Client"><rect fill="#E8F4F8" height="30.4883" rx="2.5" ry="2.5" style="stroke:#2E86AB;stroke-width:0.5;" width="53.5049" x="5" y="443.0371"/><text fill="#000000" font-family="Segoe UI" font-size="14" lengthAdjust="spacing" textLength="39.5049" x="12" y="463.5723">Client</text></g><g class="participant participant-head" data-participant="GW"><rect fill="#DBEAFE" height="30.4883" rx="2.5" ry="2.5" style="stroke:#2E86AB;stroke-width:0.5;" width="96.5781" x="108.6641" y="102.7539"/><text fill="#000000" font-family="Segoe UI" font-size="14" lengthAdjust="spacing" textLength="82.5781" x="115.6641" y="123.2891">API Gateway</text></g><g class="participant participant-tail" data-participant="GW"><rect fill="#DBEAFE" height="30.4883" rx="2.5" ry="2.5" style="stroke:#2E86AB;stroke-width:0.5;" width="96.5781" x="108.6641" y="443.0371"/><text fill="#000000" font-family="Segoe UI" font-size="14" lengthAdjust="spacing" textLength="82.5781" x="115.6641" y="463.5723">API Gateway</text></g><g class="participant participant-head" data-participant="Svc"><a href="/microservices/svc-inventory-procurement/" target="_top" title="/microservices/svc-inventory-procurement/" xlink:actuate="onRequest" xlink:href="/microservices/svc-inventory-procurement/" xlink:show="new" xlink:title="/microservices/svc-inventory-procurement/" xlink:type="simple"><rect fill="#E8F4F8" height="30.4883" rx="2.5" ry="2.5" style="stroke:#2E86AB;stroke-width:0.5;" width="202.4258" x="215.2422" y="102.7539"/><text fill="#000000" font-family="Segoe UI" font-size="14" lengthAdjust="spacing" textLength="188.4258" x="222.2422" y="123.2891">svc-inventory-procurement</text></a></g><g class="participant participant-tail" data-participant="Svc"><a href="/microservices/svc-inventory-procurement/" target="_top" title="/microservices/svc-inventory-procurement/" xlink:actuate="onRequest" xlink:href="/microservices/svc-inventory-procurement/" xlink:show="new" xlink:title="/microservices/svc-inventory-procurement/" xlink:type="simple"><rect fill="#E8F4F8" height="30.4883" rx="2.5" ry="2.5" style="stroke:#2E86AB;stroke-width:0.5;" width="202.4258" x="215.2422" y="443.0371"/><text fill="#000000" font-family="Segoe UI" font-size="14" lengthAdjust="spacing" textLength="188.4258" x="222.2422" y="463.5723">svc-inventory-procurement</text></a></g><g class="participant participant-head" data-participant="DB"><text fill="#000000" font-family="Segoe UI" font-size="14" lengthAdjust="spacing" textLength="76.8496" x="427.668" y="131.2891">PostgreSQL</text><path d="M451.0928,81.7539 C451.0928,71.7539 469.0928,71.7539 469.0928,71.7539 C469.0928,71.7539 487.0928,71.7539 487.0928,81.7539 L487.0928,107.7539 C487.0928,117.7539 469.0928,117.7539 469.0928,117.7539 C469.0928,117.7539 451.0928,117.7539 451.0928,107.7539 L451.0928,81.7539" fill="#FCE4EC" style="stroke:#181818;stroke-width:0.5;"/><path d="M451.0928,81.7539 C451.0928,91.7539 469.0928,91.7539 469.0928,91.7539 C469.0928,91.7539 487.0928,91.7539 487.0928,81.7539" fill="none" style="stroke:#181818;stroke-width:0.5;"/></g><g class="participant participant-tail" data-participant="DB"><text fill="#000000" font-family="Segoe UI" font-size="14" lengthAdjust="spacing" textLength="76.8496" x="427.668" y="456.5723">PostgreSQL</text><path d="M451.0928,469.5254 C451.0928,459.5254 469.0928,459.5254 469.0928,459.5254 C469.0928,459.5254 487.0928,459.5254 487.0928,469.5254 L487.0928,495.5254 C487.0928,505.5254 469.0928,505.5254 469.0928,505.5254 C469.0928,505.5254 451.0928,505.5254 451.0928,495.5254 L451.0928,469.5254" fill="#FCE4EC" style="stroke:#181818;stroke-width:0.5;"/><path d="M451.0928,469.5254 C451.0928,479.5254 469.0928,479.5254 469.0928,479.5254 C469.0928,479.5254 487.0928,479.5254 487.0928,469.5254" fill="none" style="stroke:#181818;stroke-width:0.5;"/></g><g><title>API Gateway</title><rect fill="#059669" height="225.1738" style="stroke:#A23B72;stroke-width:1;" width="10" x="151.9531" y="200.8633"/></g><g><title>svc-inventory-procurement</title><rect fill="#059669" height="166.5527" style="stroke:#A23B72;stroke-width:1;" width="10" x="311.4551" y="230.1738"/></g><g><title>PostgreSQL</title><rect fill="#FCE4EC" height="29.3105" style="stroke:#A23B72;stroke-width:1;" width="10" x="464.0928" y="338.1055"/></g><path d="M246,149.2422 L246,174.2422 L386,174.2422 L386,159.2422 L376,149.2422 L246,149.2422" fill="#FEFFDD" style="stroke:#181818;stroke-width:0.5;"/><path d="M376,149.2422 L376,159.2422 L386,159.2422 L376,149.2422" fill="#FEFFDD" style="stroke:#181818;stroke-width:0.5;"/><a href="/services/api/svc-inventory-procurement.html" target="_top" title="/services/api/svc-inventory-procurement.html" xlink:actuate="onRequest" xlink:href="/services/api/svc-inventory-procurement.html" xlink:show="new" xlink:title="/services/api/svc-inventory-procurement.html" xlink:type="simple"><text fill="#0000FF" font-family="Segoe UI" font-size="13" lengthAdjust="spacing" text-decoration="underline" textLength="119.4058" x="252" y="166.8105">View in Swagger UI</text></a><g class="message" data-participant-1="Client" data-participant-2="GW"><polygon fill="#059669" points="139.9531,196.8633,149.9531,200.8633,139.9531,204.8633,143.9531,200.8633" style="stroke:#059669;stroke-width:1;"/><line style="stroke:#059669;stroke-width:1;" x1="31.7524" x2="145.9531" y1="200.8633" y2="200.8633"/><text fill="#000000" font-family="Segoe UI" font-size="13" lengthAdjust="spacing" textLength="101.2007" x="38.7524" y="196.1211">POST /suppliers</text></g><g class="message" data-participant-1="GW" data-participant-2="Svc"><polygon fill="#059669" points="299.4551,226.1738,309.4551,230.1738,299.4551,234.1738,303.4551,230.1738" style="stroke:#059669;stroke-width:1;"/><line style="stroke:#059669;stroke-width:1;" x1="161.9531" x2="305.4551" y1="230.1738" y2="230.1738"/><text fill="#000000" font-family="Segoe UI" font-size="13" lengthAdjust="spacing" textLength="85.1348" x="168.9531" y="225.4316">route request</text></g><path d="M326,243.1738 L326,268.1738 L484,268.1738 L484,253.1738 L474,243.1738 L326,243.1738" fill="#FEFFDD" style="stroke:#181818;stroke-width:0.5;"/><path d="M474,243.1738 L474,253.1738 L484,253.1738 L474,243.1738" fill="#FEFFDD" style="stroke:#181818;stroke-width:0.5;"/><text fill="#000000" font-family="Segoe UI" font-size="13" lengthAdjust="spacing" textLength="137.5728" x="332" y="260.7422">Validate request body</text><rect fill="#EEEEEE" height="3" style="stroke:#EEEEEE;stroke-width:1;" width="515.5176" x="0" y="294.1396"/><line style="stroke:#000000;stroke-width:1;" x1="0" x2="515.5176" y1="294.1396" y2="294.1396"/><line style="stroke:#000000;stroke-width:1;" x1="0" x2="515.5176" y1="297.1396" y2="297.1396"/><rect fill="#EEEEEE" height="23.3105" style="stroke:#000000;stroke-width:2;" width="80.3711" x="217.5732" y="283.4844"/><text fill="#000000" font-family="Segoe UI" font-size="13" font-weight="bold" lengthAdjust="spacing" textLength="62.0864" x="223.5732" y="300.0527">Database</text><g class="message" data-participant-1="Svc" data-participant-2="DB"><polygon fill="#059669" points="452.0928,334.1055,462.0928,338.1055,452.0928,342.1055,456.0928,338.1055" style="stroke:#059669;stroke-width:1;"/><line style="stroke:#059669;stroke-width:1;" x1="321.4551" x2="458.0928" y1="338.1055" y2="338.1055"/><text fill="#000000" font-family="Segoe UI" font-size="13" lengthAdjust="spacing" textLength="96.0718" x="328.4551" y="333.3633">INSERT INTO ...</text></g><g class="message" data-participant-1="DB" data-participant-2="Svc"><polygon fill="#059669" points="332.4551,363.416,322.4551,367.416,332.4551,371.416,328.4551,367.416" style="stroke:#059669;stroke-width:1;"/><line style="stroke:#059669;stroke-width:1;stroke-dasharray:2,2;" x1="326.4551" x2="468.0928" y1="367.416" y2="367.416"/><text fill="#000000" font-family="Segoe UI" font-size="13" lengthAdjust="spacing" textLength="76.4575" x="338.4551" y="362.6738">Created row</text></g><g class="message" data-participant-1="Svc" data-participant-2="GW"><polygon fill="#059669" points="172.9531,392.7266,162.9531,396.7266,172.9531,400.7266,168.9531,396.7266" style="stroke:#059669;stroke-width:1;"/><line style="stroke:#059669;stroke-width:1;stroke-dasharray:2,2;" x1="166.9531" x2="315.4551" y1="396.7266" y2="396.7266"/><text fill="#000000" font-family="Segoe UI" font-size="13" lengthAdjust="spacing" textLength="77.7969" x="178.9531" y="391.9844">201 Created</text></g><g class="message" data-participant-1="GW" data-participant-2="Client"><polygon fill="#059669" points="42.7524,422.0371,32.7524,426.0371,42.7524,430.0371,38.7524,426.0371" style="stroke:#059669;stroke-width:1;"/><line style="stroke:#059669;stroke-width:1;stroke-dasharray:2,2;" x1="36.7524" x2="155.9531" y1="426.0371" y2="426.0371"/><text fill="#000000" font-family="Segoe UI" font-size="13" lengthAdjust="spacing" textLength="77.7969" x="48.7524" y="421.2949">201 Created</text></g><a href="/microservices/svc-inventory-procurement/#integration-context" target="_top" title="/microservices/svc-inventory-procurement/#integration-context" xlink:actuate="onRequest" xlink:href="/microservices/svc-inventory-procurement/#integration-context" xlink:show="new" xlink:title="/microservices/svc-inventory-procurement/#integration-context" xlink:type="simple"><text fill="#0000FF" font-family="Segoe UI" font-size="10" lengthAdjust="spacing" text-decoration="underline" textLength="245.7617" x="268.7559" y="14.668">&#11014; svc-inventory-procurement Integration Context</text></a><!--SRC=[bPFBRjf058RtynH7iEQU0a6Y4ZOsGa893IHPf2m6-s16CJFkp011KRTzcZvLdwJ7vcQIigYzyDZ_VsxVZCsha0dNV0Lp7hn6MgrbwAfOQIZwNdepStAO9G_LLiW85Zmsc5D2NF1rR7qbxHrV8HGc62c4ns4X7uu_rYW3X7S6TFMqLjj3gUgNssRpDliyvjgAG2HSMaVf4FN1KlVQpPxpoVAnQQ_jt_Zjp3OI2nm9YHTfUlM6qwfdkgFUBYI_rlQhjPFq2OVlavx9TyfUPWrQhNaZf_q3PSDhiP-CBP5J6BoyL5OYqCgWteW0JSLiWfAG6vHMwLqfqIfOQrpHQwKefCL8SokKB0L46Dyi_Fdz2ww6mF0S0Uu-OZPZp0eR8upl9rEec7MIn0Ar-IuVC1B6KbCS96xXg32Md3b3mQLlqXQ06zWlB-NUU0W3Rd7BTvbdy0p5lkFrw01T-AusdKLDDi7_e9dDJXiUSildtD3H6ojZ8usJRwCiPTyX_AvtuxcCITeRK1iQbGhHRb6fKnMUYEkLoakxYk5941uXORBbKKH97eT45MK8QLx6zbYWz3KTllEHC-E15HiYbA4v77XQaZsTkWDqNaZKwKzYxDcTYaVxVW0jegK5jJZ4FV5OXFmS2dCLxXZhTg5_PDBjCfQQgHRXwC3mRk8zJEanlOTokNmkbeD5ozAfDrSZoI7rk6KXvko7lCUPwzNQqPltfRJJKSbsW7JLEdXcVm40]--></g></svg>