<svg xmlns="http://www.w3.org/2000/svg" xmlns:xlink="http://www.w3.org/1999/xlink" contentStyleType="text/css" data-diagram-type="SEQUENCE" height="474px" preserveAspectRatio="none" style="width:555px;height:474px;background:#FEFEFE;" version="1.1" viewBox="0 0 555 474" width="555px" zoomAndPan="magnify"><title>GET /inventory-levels</title><defs/><g><rect fill="#FEFEFE" height="474" style="stroke:none;stroke-width:1;" width="555" x="0" y="0"/><text fill="#000000" font-family="Segoe UI" font-size="14" font-weight="bold" lengthAdjust="spacing" textLength="160.3027" x="193.6279" y="28.5352">GET /inventory-levels</text><text fill="#000000" font-family="Segoe UI" font-size="14" font-weight="bold" lengthAdjust="spacing" textLength="296.5156" x="125.5215" y="45.0234">Get stock levels by location and category</text><g><title>API Gateway</title><rect fill="#2563EB" height="189.8633" style="stroke:#A23B72;stroke-width:1;" width="10" x="188.0459" y="188.0859"/></g><g><title>svc-gear-inventory</title><rect fill="#2563EB" height="131.2422" style="stroke:#A23B72;stroke-width:1;" width="10" x="318.8813" y="217.3965"/></g><g><title>PostgreSQL</title><rect fill="#FCE4EC" height="29.3105" style="stroke:#A23B72;stroke-width:1;" width="10" x="497.1338" y="290.0176"/></g><g><title>Client</title><rect fill="#000000" fill-opacity="0.00000" height="274.4844" width="8" x="27.7524" y="121.4648"/><line style="stroke:#A23B72;stroke-width:0.5;stroke-dasharray:5,5;" x1="31" x2="31" y1="121.4648" y2="395.9492"/></g><g><title>API Gateway</title><rect fill="#000000" fill-opacity="0.00000" height="274.4844" width="8" x="189.0459" y="121.4648"/><line style="stroke:#A23B72;stroke-width:0.5;stroke-dasharray:5,5;" x1="192.7568" x2="192.7568" y1="121.4648" y2="395.9492"/></g><g><title>svc-gear-inventory</title><rect fill="#000000" fill-opacity="0.00000" height="274.4844" width="8" x="319.8813" y="121.4648"/><line style="stroke:#A23B72;stroke-width:0.5;stroke-dasharray:5,5;" x1="323.335" x2="323.335" y1="121.4648" y2="395.9492"/></g><g><title>PostgreSQL</title><rect fill="#000000" fill-opacity="0.00000" height="274.4844" width="8" x="498.1338" y="121.4648"/><line style="stroke:#A23B72;stroke-width:0.5;stroke-dasharray:5,5;" x1="501.709" x2="501.709" y1="121.4648" y2="395.9492"/></g><g class="participant participant-head" data-participant="Client"><rect fill="#E8F4F8" height="30.4883" rx="2.5" ry="2.5" style="stroke:#2E86AB;stroke-width:0.5;" width="53.5049" x="5" y="89.9766"/><text fill="#000000" font-family="Segoe UI" font-size="14" lengthAdjust="spacing" textLength="39.5049" x="12" y="110.5117">Client</text></g><g class="participant participant-tail" data-participant="Client"><rect fill="#E8F4F8" height="30.4883" rx="2.5" ry="2.5" style="stroke:#2E86AB;stroke-width:0.5;" width="53.5049" x="5" y="394.9492"/><text fill="#000000" font-family="Segoe UI" font-size="14" lengthAdjust="spacing" textLength="39.5049" x="12" y="415.4844">Client</text></g><g class="participant participant-head" data-participant="GW"><rect fill="#DBEAFE" height="30.4883" rx="2.5" ry="2.5" style="stroke:#2E86AB;stroke-width:0.5;" width="96.5781" x="144.7568" y="89.9766"/><text fill="#000000" font-family="Segoe UI" font-size="14" lengthAdjust="spacing" textLength="82.5781" x="151.7568" y="110.5117">API Gateway</text></g><g class="participant participant-tail" data-participant="GW"><rect fill="#DBEAFE" height="30.4883" rx="2.5" ry="2.5" style="stroke:#2E86AB;stroke-width:0.5;" width="96.5781" x="144.7568" y="394.9492"/><text fill="#000000" font-family="Segoe UI" font-size="14" lengthAdjust="spacing" textLength="82.5781" x="151.7568" y="415.4844">API Gateway</text></g><g class="participant participant-head" data-participant="Svc"><a href="/microservices/svc-gear-inventory/" target="_top" title="/microservices/svc-gear-inventory/" xlink:actuate="onRequest" xlink:href="/microservices/svc-gear-inventory/" xlink:show="new" xlink:title="/microservices/svc-gear-inventory/" xlink:type="simple"><rect fill="#E8F4F8" height="30.4883" rx="2.5" ry="2.5" style="stroke:#2E86AB;stroke-width:0.5;" width="145.0928" x="251.335" y="89.9766"/><text fill="#000000" font-family="Segoe UI" font-size="14" lengthAdjust="spacing" textLength="131.0928" x="258.335" y="110.5117">svc-gear-inventory</text></a></g><g class="participant participant-tail" data-participant="Svc"><a href="/microservices/svc-gear-inventory/" target="_top" title="/microservices/svc-gear-inventory/" xlink:actuate="onRequest" xlink:href="/microservices/svc-gear-inventory/" xlink:show="new" xlink:title="/microservices/svc-gear-inventory/" xlink:type="simple"><rect fill="#E8F4F8" height="30.4883" rx="2.5" ry="2.5" style="stroke:#2E86AB;stroke-width:0.5;" width="145.0928" x="251.335" y="394.9492"/><text fill="#000000" font-family="Segoe UI" font-size="14" lengthAdjust="spacing" textLength="131.0928" x="258.335" y="415.4844">svc-gear-inventory</text></a></g><g class="participant participant-head" data-participant="DB"><text fill="#000000" font-family="Segoe UI" font-size="14" lengthAdjust="spacing" textLength="76.8496" x="460.709" y="118.5117">PostgreSQL</text><path d="M484.1338,68.9766 C484.1338,58.9766 502.1338,58.9766 502.1338,58.9766 C502.1338,58.9766 520.1338,58.9766 520.1338,68.9766 L520.1338,94.9766 C520.1338,104.9766 502.1338,104.9766 502.1338,104.9766 C502.1338,104.9766 484.1338,104.9766 484.1338,94.9766 L484.1338,68.9766" fill="#FCE4EC" style="stroke:#181818;stroke-width:0.5;"/><path d="M484.1338,68.9766 C484.1338,78.9766 502.1338,78.9766 502.1338,78.9766 C502.1338,78.9766 520.1338,78.9766 520.1338,68.9766" fill="none" style="stroke:#181818;stroke-width:0.5;"/></g><g class="participant participant-tail" data-participant="DB"><text fill="#000000" font-family="Segoe UI" font-size="14" lengthAdjust="spacing" textLength="76.8496" x="460.709" y="408.4844">PostgreSQL</text><path d="M484.1338,421.4375 C484.1338,411.4375 502.1338,411.4375 502.1338,411.4375 C502.1338,411.4375 520.1338,411.4375 520.1338,421.4375 L520.1338,447.4375 C520.1338,457.4375 502.1338,457.4375 502.1338,457.4375 C502.1338,457.4375 484.1338,457.4375 484.1338,447.4375 L484.1338,421.4375" fill="#FCE4EC" style="stroke:#181818;stroke-width:0.5;"/><path d="M484.1338,421.4375 C484.1338,431.4375 502.1338,431.4375 502.1338,431.4375 C502.1338,431.4375 520.1338,431.4375 520.1338,421.4375" fill="none" style="stroke:#181818;stroke-width:0.5;"/></g><g><title>API Gateway</title><rect fill="#2563EB" height="189.8633" style="stroke:#A23B72;stroke-width:1;" width="10" x="188.0459" y="188.0859"/></g><g><title>svc-gear-inventory</title><rect fill="#2563EB" height="131.2422" style="stroke:#A23B72;stroke-width:1;" width="10" x="318.8813" y="217.3965"/></g><g><title>PostgreSQL</title><rect fill="#FCE4EC" height="29.3105" style="stroke:#A23B72;stroke-width:1;" width="10" x="497.1338" y="290.0176"/></g><path d="M253,136.4648 L253,161.4648 L393,161.4648 L393,146.4648 L383,136.4648 L253,136.4648" fill="#FEFFDD" style="stroke:#181818;stroke-width:0.5;"/><path d="M383,136.4648 L383,146.4648 L393,146.4648 L383,136.4648" fill="#FEFFDD" style="stroke:#181818;stroke-width:0.5;"/><a href="/services/api/svc-gear-inventory.html#/Inventory%20Levels/getInventoryLevels" target="_top" title="/services/api/svc-gear-inventory.html#/Inventory%20Levels/getInventoryLevels" xlink:actuate="onRequest" xlink:href="/services/api/svc-gear-inventory.html#/Inventory%20Levels/getInventoryLevels" xlink:show="new" xlink:title="/services/api/svc-gear-inventory.html#/Inventory%20Levels/getInventoryLevels" xlink:type="simple"><text fill="#0000FF" font-family="Segoe UI" font-size="13" lengthAdjust="spacing" text-decoration="underline" textLength="119.4058" x="259" y="154.0332">View in Swagger UI</text></a><g class="message" data-participant-1="Client" data-participant-2="GW"><polygon fill="#2563EB" points="176.0459,184.0859,186.0459,188.0859,176.0459,192.0859,180.0459,188.0859" style="stroke:#2563EB;stroke-width:1;"/><line style="stroke:#2563EB;stroke-width:1;" x1="31.7524" x2="182.0459" y1="188.0859" y2="188.0859"/><text fill="#000000" font-family="Segoe UI" font-size="13" lengthAdjust="spacing" textLength="137.2935" x="38.7524" y="183.3438">GET /inventory-levels</text></g><g class="message" data-participant-1="GW" data-participant-2="Svc"><polygon fill="#2563EB" points="306.8813,213.3965,316.8813,217.3965,306.8813,221.3965,310.8813,217.3965" style="stroke:#2563EB;stroke-width:1;"/><line style="stroke:#2563EB;stroke-width:1;" x1="198.0459" x2="312.8813" y1="217.3965" y2="217.3965"/><a href="/microservices/svc-gear-inventory/#get-inventory-levels-get-stock-levels-by-location-and-category" target="_top" title="/microservices/svc-gear-inventory/#get-inventory-levels-get-stock-levels-by-location-and-category" xlink:actuate="onRequest" xlink:href="/microservices/svc-gear-inventory/#get-inventory-levels-get-stock-levels-by-location-and-category" xlink:show="new" xlink:title="/microservices/svc-gear-inventory/#get-inventory-levels-get-stock-levels-by-location-and-category" xlink:type="simple"><text fill="#0000FF" font-family="Segoe UI" font-size="13" lengthAdjust="spacing" text-decoration="underline" textLength="85.1348" x="205.0459" y="212.6543">route request</text></a></g><rect fill="#EEEEEE" height="3" style="stroke:#EEEEEE;stroke-width:1;" width="548.5586" x="0" y="246.0518"/><line style="stroke:#000000;stroke-width:1;" x1="0" x2="548.5586" y1="246.0518" y2="246.0518"/><line style="stroke:#000000;stroke-width:1;" x1="0" x2="548.5586" y1="249.0518" y2="249.0518"/><rect fill="#EEEEEE" height="23.3105" style="stroke:#000000;stroke-width:2;" width="80.3711" x="234.0938" y="235.3965"/><text fill="#000000" font-family="Segoe UI" font-size="13" font-weight="bold" lengthAdjust="spacing" textLength="62.0864" x="240.0938" y="251.9648">Database</text><g class="message" data-participant-1="Svc" data-participant-2="DB"><polygon fill="#2563EB" points="485.1338,286.0176,495.1338,290.0176,485.1338,294.0176,489.1338,290.0176" style="stroke:#2563EB;stroke-width:1;"/><line style="stroke:#2563EB;stroke-width:1;" x1="328.8813" x2="491.1338" y1="290.0176" y2="290.0176"/><text fill="#000000" font-family="Segoe UI" font-size="13" lengthAdjust="spacing" textLength="149.2524" x="335.8813" y="285.2754">SELECT ... WHERE filters</text></g><g class="message" data-participant-1="DB" data-participant-2="Svc"><polygon fill="#2563EB" points="339.8813,315.3281,329.8813,319.3281,339.8813,323.3281,335.8813,319.3281" style="stroke:#2563EB;stroke-width:1;"/><line style="stroke:#2563EB;stroke-width:1;stroke-dasharray:2,2;" x1="333.8813" x2="501.1338" y1="319.3281" y2="319.3281"/><text fill="#000000" font-family="Segoe UI" font-size="13" lengthAdjust="spacing" textLength="93.209" x="345.8813" y="314.5859">Page of results</text></g><g class="message" data-participant-1="Svc" data-participant-2="GW"><polygon fill="#2563EB" points="209.0459,344.6387,199.0459,348.6387,209.0459,352.6387,205.0459,348.6387" style="stroke:#2563EB;stroke-width:1;"/><line style="stroke:#2563EB;stroke-width:1;stroke-dasharray:2,2;" x1="203.0459" x2="322.8813" y1="348.6387" y2="348.6387"/><text fill="#000000" font-family="Segoe UI" font-size="13" lengthAdjust="spacing" textLength="47.3599" x="215.0459" y="343.8965">200 OK</text></g><g class="message" data-participant-1="GW" data-participant-2="Client"><polygon fill="#2563EB" points="42.7524,373.9492,32.7524,377.9492,42.7524,381.9492,38.7524,377.9492" style="stroke:#2563EB;stroke-width:1;"/><line style="stroke:#2563EB;stroke-width:1;stroke-dasharray:2,2;" x1="36.7524" x2="192.0459" y1="377.9492" y2="377.9492"/><text fill="#000000" font-family="Segoe UI" font-size="13" lengthAdjust="spacing" textLength="47.3599" x="48.7524" y="373.207">200 OK</text></g><!--SRC=[ZPF1Zjem48RlVeeHgCSG5hOBGg8IWOIYeYqjk-MmvM2I8MiHR6gRiAZgktSII1eM3aqkplo_PyRVE6OZv8vhleKL3pUnLdiP3LMYDDG3FtkPAHtcbKVg86GCQvuOh2WHhla-iO6Izf5l4MfpZ1N2ywHMtOw_zYX3XDyCw1behGxdKgsF3srSvU4PrrQ4OiUbzPIEK1SMl_imyAuixvlsky5zqCrjKx76gP1uaMRGQdkTLgvxwkr22kwwGVEkbAvm107fkVoex6NMiDDPjIlQ3PHjlyF-C6Q5JH36_XEuGgOehT979y4K4_DJZj62iIhSm2a2goCaAkHMA0bSHa1B0gkFZEt-CO3QC16KgGRSm6bvAGzc4nZJpWC_vfxn0keZpn_GS2zy9WsT6Bbsoivo-pmDuUN5tOfGAuCw5I4QzzhhBfSb_eXRlkA6Bi9C6Hjhd7-Rvhb67i4O-lV-a359f42bgBCAn8vgbEdvJjmeqNYrswJkJehl3wtcD0VbncZBw2a4FmGUG4YO7tWSKv7doNB9a21cTHaxWGBdKuQZTtiYZ8TMf4GkHtQ-fBIaJHcKtdzXgLDlpllCJXRCHrq4LYITH-tGg9rYr43tY1hGsSzZB1sXx2bheMYAzVimAg3t-unb8hL9l7imzwV-y0aQZGOiFllVVLYBnAAk7Ayo5bewvVbcFAOHhQcweT_Ri0WhMyv52eAjPXE-VgbQih5cjCXnfdtBDLwmlm00]--></g></svg>