<?xml version="1.0" encoding="UTF-8" standalone="no"?><svg xmlns="http://www.w3.org/2000/svg" xmlns:xlink="http://www.w3.org/1999/xlink" contentScriptType="application/ecmascript" contentStyleType="text/css" height="610px" preserveAspectRatio="none" style="width:581px;height:610px;background:#FEFEFE;" version="1.1" viewBox="0 0 581 610" width="581px" zoomAndPan="magnify"><defs/><g><text fill="#000000" font-family="Segoe UI" font-size="18" lengthAdjust="spacingAndGlyphs" textLength="238" x="167.25" y="41.3486">PUT /trips/{trip_id}/pricing</text><text fill="#000000" font-family="Segoe UI" font-size="18" lengthAdjust="spacingAndGlyphs" textLength="181" x="195.75" y="62.3018">Replace pricing tiers</text><rect fill="#C77B30" height="317.3281" style="stroke: #6B7280; stroke-width: 1.0;" width="10" x="219.5" y="202.1094"/><rect fill="#C77B30" height="259.0625" style="stroke: #6B7280; stroke-width: 1.0;" width="10" x="338" y="231.2422"/><rect fill="#FEF9C3" height="29.1328" style="stroke: #6B7280; stroke-width: 1.0;" width="10" x="516" y="338.6406"/><rect fill="#FEF9C3" height="29.1328" style="stroke: #6B7280; stroke-width: 1.0;" width="10" x="516" y="432.0391"/><line style="stroke: #6B7280; stroke-width: 1.0; stroke-dasharray: 5.0,5.0;" x1="34" x2="34" y1="135.8438" y2="537.4375"/><line style="stroke: #6B7280; stroke-width: 1.0; stroke-dasharray: 5.0,5.0;" x1="224.5" x2="224.5" y1="135.8438" y2="537.4375"/><line style="stroke: #6B7280; stroke-width: 1.0; stroke-dasharray: 5.0,5.0;" x1="342.5" x2="342.5" y1="135.8438" y2="537.4375"/><line style="stroke: #6B7280; stroke-width: 1.0; stroke-dasharray: 5.0,5.0;" x1="520.5" x2="520.5" y1="135.8438" y2="537.4375"/><a href="/applications/" target="_top" title="/applications/" xlink:actuate="onRequest" xlink:href="/applications/" xlink:show="new" xlink:title="/applications/" xlink:type="simple"><rect fill="#F9FAFB" height="30.2969" style="stroke: #374151; stroke-width: 1.5;" width="53" x="8" y="104.5469"/><text fill="#000000" font-family="Segoe UI" font-size="14" lengthAdjust="spacingAndGlyphs" textLength="39" x="15" y="124.542">Client</text><rect fill="#F9FAFB" height="30.2969" style="stroke: #374151; stroke-width: 1.5;" width="53" x="8" y="536.4375"/><text fill="#000000" font-family="Segoe UI" font-size="14" lengthAdjust="spacingAndGlyphs" textLength="39" x="15" y="556.4326">Client</text></a><a href="/actors/#api-gateway" target="_top" title="/actors/#api-gateway" xlink:actuate="onRequest" xlink:href="/actors/#api-gateway" xlink:show="new" xlink:title="/actors/#api-gateway" xlink:type="simple"><rect fill="#E0F2FE" height="30.2969" style="stroke: #374151; stroke-width: 1.5;" width="98" x="175.5" y="104.5469"/><text fill="#000000" font-family="Segoe UI" font-size="14" lengthAdjust="spacingAndGlyphs" textLength="84" x="182.5" y="124.542">API Gateway</text><rect fill="#E0F2FE" height="30.2969" style="stroke: #374151; stroke-width: 1.5;" width="98" x="175.5" y="536.4375"/><text fill="#000000" font-family="Segoe UI" font-size="14" lengthAdjust="spacingAndGlyphs" textLength="84" x="182.5" y="556.4326">API Gateway</text></a><a href="/microservices/svc-trip-catalog/" target="_top" title="/microservices/svc-trip-catalog/" xlink:actuate="onRequest" xlink:href="/microservices/svc-trip-catalog/" xlink:show="new" xlink:title="/microservices/svc-trip-catalog/" xlink:type="simple"><rect fill="#FEF3C7" height="30.2969" style="stroke: #374151; stroke-width: 1.5;" width="119" x="283.5" y="104.5469"/><text fill="#000000" font-family="Segoe UI" font-size="14" lengthAdjust="spacingAndGlyphs" textLength="105" x="290.5" y="124.542">svc-trip-catalog</text><rect fill="#FEF3C7" height="30.2969" style="stroke: #374151; stroke-width: 1.5;" width="119" x="283.5" y="536.4375"/><text fill="#000000" font-family="Segoe UI" font-size="14" lengthAdjust="spacingAndGlyphs" textLength="105" x="290.5" y="556.4326">svc-trip-catalog</text></a><a href="/microservices/svc-trip-catalog/#data-store" target="_top" title="/microservices/svc-trip-catalog/#data-store" xlink:actuate="onRequest" xlink:href="/microservices/svc-trip-catalog/#data-store" xlink:show="new" xlink:title="/microservices/svc-trip-catalog/#data-store" xlink:type="simple"><text fill="#000000" font-family="Segoe UI" font-size="14" lengthAdjust="spacingAndGlyphs" textLength="81" x="477.5" y="132.542">PostgreSQL</text><path d="M503,83.5469 C503,73.5469 521,73.5469 521,73.5469 C521,73.5469 539,73.5469 539,83.5469 L539,109.5469 C539,119.5469 521,119.5469 521,119.5469 C521,119.5469 503,119.5469 503,109.5469 L503,83.5469 " fill="#FEF9C3" style="stroke: #000000; stroke-width: 1.5;"/><path d="M503,83.5469 C503,93.5469 521,93.5469 521,93.5469 C521,93.5469 539,93.5469 539,83.5469 " fill="none" style="stroke: #000000; stroke-width: 1.5;"/><text fill="#000000" font-family="Segoe UI" font-size="14" lengthAdjust="spacingAndGlyphs" textLength="81" x="477.5" y="549.4326">PostgreSQL</text><path d="M503,562.7344 C503,552.7344 521,552.7344 521,552.7344 C521,552.7344 539,552.7344 539,562.7344 L539,588.7344 C539,598.7344 521,598.7344 521,598.7344 C521,598.7344 503,598.7344 503,588.7344 L503,562.7344 " fill="#FEF9C3" style="stroke: #000000; stroke-width: 1.5;"/><path d="M503,562.7344 C503,572.7344 521,572.7344 521,572.7344 C521,572.7344 539,572.7344 539,562.7344 " fill="none" style="stroke: #000000; stroke-width: 1.5;"/></a><rect fill="#C77B30" height="317.3281" style="stroke: #6B7280; stroke-width: 1.0;" width="10" x="219.5" y="202.1094"/><rect fill="#C77B30" height="259.0625" style="stroke: #6B7280; stroke-width: 1.0;" width="10" x="338" y="231.2422"/><rect fill="#FEF9C3" height="29.1328" style="stroke: #6B7280; stroke-width: 1.0;" width="10" x="516" y="338.6406"/><rect fill="#FEF9C3" height="29.1328" style="stroke: #6B7280; stroke-width: 1.0;" width="10" x="516" y="432.0391"/><path d="M272,150.8438 L272,175.8438 L413,175.8438 L413,160.8438 L403,150.8438 L272,150.8438 " fill="#FBFB77" style="stroke: #A80036; stroke-width: 1.0;"/><path d="M403,150.8438 L403,160.8438 L413,160.8438 L403,150.8438 " fill="#FBFB77" style="stroke: #A80036; stroke-width: 1.0;"/><a href="/services/api/svc-trip-catalog.html#/Pricing/updateTripPricing" target="_top" title="/services/api/svc-trip-catalog.html#/Pricing/updateTripPricing" xlink:actuate="onRequest" xlink:href="/services/api/svc-trip-catalog.html#/Pricing/updateTripPricing" xlink:show="new" xlink:title="/services/api/svc-trip-catalog.html#/Pricing/updateTripPricing" xlink:type="simple"><text fill="#0000FF" font-family="Segoe UI" font-size="13" lengthAdjust="spacingAndGlyphs" text-decoration="underline" textLength="120" x="278" y="167.9106">View in Swagger UI</text></a><polygon fill="#C77B30" points="207.5,198.1094,217.5,202.1094,207.5,206.1094,211.5,202.1094" style="stroke: #C77B30; stroke-width: 1.0;"/><line style="stroke: #C77B30; stroke-width: 1.0;" x1="34.5" x2="213.5" y1="202.1094" y2="202.1094"/><text fill="#000000" font-family="Segoe UI" font-size="13" lengthAdjust="spacingAndGlyphs" textLength="166" x="41.5" y="197.0435">PUT /trips/{trip_id}/pricing</text><polygon fill="#C77B30" points="326,227.2422,336,231.2422,326,235.2422,330,231.2422" style="stroke: #C77B30; stroke-width: 1.0;"/><line style="stroke: #C77B30; stroke-width: 1.0;" x1="229.5" x2="332" y1="231.2422" y2="231.2422"/><text fill="#000000" font-family="Segoe UI" font-size="13" lengthAdjust="spacingAndGlyphs" textLength="87" x="236.5" y="226.1763">route request</text><path d="M353,244.2422 L353,269.2422 L514,269.2422 L514,254.2422 L504,244.2422 L353,244.2422 " fill="#FBFB77" style="stroke: #A80036; stroke-width: 1.0;"/><path d="M504,244.2422 L504,254.2422 L514,254.2422 L504,244.2422 " fill="#FBFB77" style="stroke: #A80036; stroke-width: 1.0;"/><text fill="#000000" font-family="Segoe UI" font-size="13" lengthAdjust="spacingAndGlyphs" textLength="140" x="359" y="261.3091">Validate request body</text><rect fill="#EEEEEE" height="3" style="stroke: #EEEEEE; stroke-width: 1.0;" width="566.5" x="3" y="294.9414"/><line style="stroke: #000000; stroke-width: 1.0;" x1="3" x2="569.5" y1="294.9414" y2="294.9414"/><line style="stroke: #000000; stroke-width: 1.0;" x1="3" x2="569.5" y1="297.9414" y2="297.9414"/><rect fill="#EEEEEE" height="23.1328" style="stroke: #000000; stroke-width: 2.0;" width="90" x="241.25" y="284.375"/><text fill="#000000" font-family="Segoe UI" font-size="13" font-weight="bold" lengthAdjust="spacingAndGlyphs" textLength="71" x="247.25" y="300.4419">Database</text><polygon fill="#C77B30" points="504,334.6406,514,338.6406,504,342.6406,508,338.6406" style="stroke: #C77B30; stroke-width: 1.0;"/><line style="stroke: #C77B30; stroke-width: 1.0;" x1="348" x2="510" y1="338.6406" y2="338.6406"/><text fill="#000000" font-family="Segoe UI" font-size="13" lengthAdjust="spacingAndGlyphs" textLength="149" x="355" y="333.5747">SELECT ... FOR UPDATE</text><polygon fill="#C77B30" points="359,363.7734,349,367.7734,359,371.7734,355,367.7734" style="stroke: #C77B30; stroke-width: 1.0;"/><line style="stroke: #C77B30; stroke-width: 1.0; stroke-dasharray: 2.0,2.0;" x1="353" x2="520" y1="367.7734" y2="367.7734"/><text fill="#000000" font-family="Segoe UI" font-size="13" lengthAdjust="spacingAndGlyphs" textLength="74" x="365" y="362.7075">Current row</text><path d="M353,380.7734 L353,405.7734 L518,405.7734 L518,390.7734 L508,380.7734 L353,380.7734 " fill="#FBFB77" style="stroke: #A80036; stroke-width: 1.0;"/><path d="M508,380.7734 L508,390.7734 L518,390.7734 L508,380.7734 " fill="#FBFB77" style="stroke: #A80036; stroke-width: 1.0;"/><text fill="#000000" font-family="Segoe UI" font-size="13" lengthAdjust="spacingAndGlyphs" textLength="144" x="359" y="397.8403">Replace mutable fields</text><polygon fill="#C77B30" points="504,428.0391,514,432.0391,504,436.0391,508,432.0391" style="stroke: #C77B30; stroke-width: 1.0;"/><line style="stroke: #C77B30; stroke-width: 1.0;" x1="348" x2="510" y1="432.0391" y2="432.0391"/><text fill="#000000" font-family="Segoe UI" font-size="13" lengthAdjust="spacingAndGlyphs" textLength="112" x="355" y="426.9731">UPDATE ... SET ...</text><polygon fill="#C77B30" points="359,457.1719,349,461.1719,359,465.1719,355,461.1719" style="stroke: #C77B30; stroke-width: 1.0;"/><line style="stroke: #C77B30; stroke-width: 1.0; stroke-dasharray: 2.0,2.0;" x1="353" x2="520" y1="461.1719" y2="461.1719"/><text fill="#000000" font-family="Segoe UI" font-size="13" lengthAdjust="spacingAndGlyphs" textLength="81" x="365" y="456.106">Updated row</text><polygon fill="#C77B30" points="240.5,486.3047,230.5,490.3047,240.5,494.3047,236.5,490.3047" style="stroke: #C77B30; stroke-width: 1.0;"/><line style="stroke: #C77B30; stroke-width: 1.0; stroke-dasharray: 2.0,2.0;" x1="234.5" x2="342" y1="490.3047" y2="490.3047"/><text fill="#000000" font-family="Segoe UI" font-size="13" lengthAdjust="spacingAndGlyphs" textLength="46" x="246.5" y="485.2388">200 OK</text><polygon fill="#C77B30" points="45.5,515.4375,35.5,519.4375,45.5,523.4375,41.5,519.4375" style="stroke: #C77B30; stroke-width: 1.0;"/><line style="stroke: #C77B30; stroke-width: 1.0; stroke-dasharray: 2.0,2.0;" x1="39.5" x2="223.5" y1="519.4375" y2="519.4375"/><text fill="#000000" font-family="Segoe UI" font-size="13" lengthAdjust="spacingAndGlyphs" textLength="46" x="51.5" y="514.3716">200 OK</text><a href="/microservices/svc-trip-catalog/#integration-context" target="_top" title="/microservices/svc-trip-catalog/#integration-context" xlink:actuate="onRequest" xlink:href="/microservices/svc-trip-catalog/#integration-context" xlink:show="new" xlink:title="/microservices/svc-trip-catalog/#integration-context" xlink:type="simple"><text fill="#0000FF" font-family="Segoe UI" font-size="10" lengthAdjust="spacingAndGlyphs" text-decoration="underline" textLength="185" x="384.5" y="12.2822">⬆ svc-trip-catalog Integration Context</text></a><!--MD5=[5cf45d64efe462fb711b3574b12784f6]
@startuml svc-trip-catalog- -put-trips-trip_id-pricing

skinparam backgroundColor #FEFEFE
skinparam shadowing false
skinparam defaultFontName "Segoe UI"
skinparam sequence {
    ArrowColor #c77b30
    ParticipantBorderColor #374151
    ParticipantBackgroundColor #F9FAFB
    LifeLineBorderColor #6B7280
    BoxBorderColor #94A3B8
    BoxBackgroundColor #F8FAFC
    NoteBorderColor #64748B
    NoteBackgroundColor #F8FAFC
}

header [[/microservices/svc-trip-catalog/#integration-context ⬆ svc-trip-catalog Integration Context]]

title PUT /trips/{trip_id}/pricing\nReplace pricing tiers

participant "Client" as Client [[/applications/]]
participant "API Gateway" as GW [[/actors/#api-gateway]] #E0F2FE
participant "svc-trip-catalog" as Svc [[/microservices/svc-trip-catalog/]] #FEF3C7
database "PostgreSQL" as DB [[/microservices/svc-trip-catalog/#data-store]] #FEF9C3

note over Svc
  [[/services/api/svc-trip-catalog.html#/Pricing/updateTripPricing View in Swagger UI]]
end note

Client -> GW : PUT /trips/{trip_id}/pricing
activate GW #c77b30
GW -> Svc : route request
activate Svc #c77b30

note right of Svc : Validate request body

== Database ==

Svc -> DB : SELECT ... FOR UPDATE
activate DB #FEF9C3
DB - -> Svc : Current row
deactivate DB
note right of Svc : Replace mutable fields

Svc -> DB : UPDATE ... SET ...
activate DB #FEF9C3
DB - -> Svc : Updated row
deactivate DB

Svc - -> GW : 200 OK
deactivate Svc
GW - -> Client : 200 OK
deactivate GW

@enduml

PlantUML version 1.2020.02(Sun Mar 01 10:22:07 UTC 2020)
(GPL source distribution)
Java Runtime: OpenJDK Runtime Environment
JVM: OpenJDK 64-Bit Server VM
Java Version: 17.0.18+8
Operating System: Linux
Default Encoding: UTF-8
Language: en
Country: null
--></g></svg>