<?xml version="1.0" encoding="UTF-8" standalone="no"?><svg xmlns="http://www.w3.org/2000/svg" xmlns:xlink="http://www.w3.org/1999/xlink" contentScriptType="application/ecmascript" contentStyleType="text/css" height="482px" preserveAspectRatio="none" style="width:710px;height:482px;background:#FEFEFE;" version="1.1" viewBox="0 0 710 482" width="710px" zoomAndPan="magnify"><defs/><g><text fill="#000000" font-family="Segoe UI" font-size="18" lengthAdjust="spacingAndGlyphs" textLength="320" x="190.75" y="41.3486">GET /guests/{guest_id}/medical-info</text><text fill="#000000" font-family="Segoe UI" font-size="18" lengthAdjust="spacingAndGlyphs" textLength="268" x="216.75" y="62.3018">Get guest medical information</text><rect fill="#2563EB" height="188.7969" style="stroke: #6B7280; stroke-width: 1.0;" width="10" x="285.5" y="202.1094"/><rect fill="#2563EB" height="130.5313" style="stroke: #6B7280; stroke-width: 1.0;" width="10" x="413" y="231.2422"/><rect fill="#FEF9C3" height="29.1328" style="stroke: #6B7280; stroke-width: 1.0;" width="10" x="645" y="303.5078"/><line style="stroke: #6B7280; stroke-width: 1.0; stroke-dasharray: 5.0,5.0;" x1="34" x2="34" y1="135.8438" y2="408.9063"/><line style="stroke: #6B7280; stroke-width: 1.0; stroke-dasharray: 5.0,5.0;" x1="290.5" x2="290.5" y1="135.8438" y2="408.9063"/><line style="stroke: #6B7280; stroke-width: 1.0; stroke-dasharray: 5.0,5.0;" x1="417.5" x2="417.5" y1="135.8438" y2="408.9063"/><line style="stroke: #6B7280; stroke-width: 1.0; stroke-dasharray: 5.0,5.0;" x1="649.5" x2="649.5" y1="135.8438" y2="408.9063"/><a href="/applications/" target="_top" title="/applications/" xlink:actuate="onRequest" xlink:href="/applications/" xlink:show="new" xlink:title="/applications/" xlink:type="simple"><rect fill="#F9FAFB" height="30.2969" style="stroke: #374151; stroke-width: 1.5;" width="53" x="8" y="104.5469"/><text fill="#000000" font-family="Segoe UI" font-size="14" lengthAdjust="spacingAndGlyphs" textLength="39" x="15" y="124.542">Client</text><rect fill="#F9FAFB" height="30.2969" style="stroke: #374151; stroke-width: 1.5;" width="53" x="8" y="407.9063"/><text fill="#000000" font-family="Segoe UI" font-size="14" lengthAdjust="spacingAndGlyphs" textLength="39" x="15" y="427.9014">Client</text></a><a href="/actors/#api-gateway" target="_top" title="/actors/#api-gateway" xlink:actuate="onRequest" xlink:href="/actors/#api-gateway" xlink:show="new" xlink:title="/actors/#api-gateway" xlink:type="simple"><rect fill="#E0F2FE" height="30.2969" style="stroke: #374151; stroke-width: 1.5;" width="98" x="241.5" y="104.5469"/><text fill="#000000" font-family="Segoe UI" font-size="14" lengthAdjust="spacingAndGlyphs" textLength="84" x="248.5" y="124.542">API Gateway</text><rect fill="#E0F2FE" height="30.2969" style="stroke: #374151; stroke-width: 1.5;" width="98" x="241.5" y="407.9063"/><text fill="#000000" font-family="Segoe UI" font-size="14" lengthAdjust="spacingAndGlyphs" textLength="84" x="248.5" y="427.9014">API Gateway</text></a><a href="/microservices/svc-guest-profiles/" target="_top" title="/microservices/svc-guest-profiles/" xlink:actuate="onRequest" xlink:href="/microservices/svc-guest-profiles/" xlink:show="new" xlink:title="/microservices/svc-guest-profiles/" xlink:type="simple"><rect fill="#EDE9FE" height="30.2969" style="stroke: #374151; stroke-width: 1.5;" width="137" x="349.5" y="104.5469"/><text fill="#000000" font-family="Segoe UI" font-size="14" lengthAdjust="spacingAndGlyphs" textLength="123" x="356.5" y="124.542">svc-guest-profiles</text><rect fill="#EDE9FE" height="30.2969" style="stroke: #374151; stroke-width: 1.5;" width="137" x="349.5" y="407.9063"/><text fill="#000000" font-family="Segoe UI" font-size="14" lengthAdjust="spacingAndGlyphs" textLength="123" x="356.5" y="427.9014">svc-guest-profiles</text></a><a href="/microservices/svc-guest-profiles/#data-store" target="_top" title="/microservices/svc-guest-profiles/#data-store" xlink:actuate="onRequest" xlink:href="/microservices/svc-guest-profiles/#data-store" xlink:show="new" xlink:title="/microservices/svc-guest-profiles/#data-store" xlink:type="simple"><text fill="#000000" font-family="Segoe UI" font-size="14" lengthAdjust="spacingAndGlyphs" textLength="81" x="606.5" y="132.542">PostgreSQL</text><path d="M632,83.5469 C632,73.5469 650,73.5469 650,73.5469 C650,73.5469 668,73.5469 668,83.5469 L668,109.5469 C668,119.5469 650,119.5469 650,119.5469 C650,119.5469 632,119.5469 632,109.5469 L632,83.5469 " fill="#FEF9C3" style="stroke: #000000; stroke-width: 1.5;"/><path d="M632,83.5469 C632,93.5469 650,93.5469 650,93.5469 C650,93.5469 668,93.5469 668,83.5469 " fill="none" style="stroke: #000000; stroke-width: 1.5;"/><text fill="#000000" font-family="Segoe UI" font-size="14" lengthAdjust="spacingAndGlyphs" textLength="81" x="606.5" y="420.9014">PostgreSQL</text><path d="M632,434.2031 C632,424.2031 650,424.2031 650,424.2031 C650,424.2031 668,424.2031 668,434.2031 L668,460.2031 C668,470.2031 650,470.2031 650,470.2031 C650,470.2031 632,470.2031 632,460.2031 L632,434.2031 " fill="#FEF9C3" style="stroke: #000000; stroke-width: 1.5;"/><path d="M632,434.2031 C632,444.2031 650,444.2031 650,444.2031 C650,444.2031 668,444.2031 668,434.2031 " fill="none" style="stroke: #000000; stroke-width: 1.5;"/></a><rect fill="#2563EB" height="188.7969" style="stroke: #6B7280; stroke-width: 1.0;" width="10" x="285.5" y="202.1094"/><rect fill="#2563EB" height="130.5313" style="stroke: #6B7280; stroke-width: 1.0;" width="10" x="413" y="231.2422"/><rect fill="#FEF9C3" height="29.1328" style="stroke: #6B7280; stroke-width: 1.0;" width="10" x="645" y="303.5078"/><path d="M347,150.8438 L347,175.8438 L488,175.8438 L488,160.8438 L478,150.8438 L347,150.8438 " fill="#FBFB77" style="stroke: #A80036; stroke-width: 1.0;"/><path d="M478,150.8438 L478,160.8438 L488,160.8438 L478,150.8438 " fill="#FBFB77" style="stroke: #A80036; stroke-width: 1.0;"/><a href="/services/api/svc-guest-profiles.html#/Medical/getGuestMedicalInfo" target="_top" title="/services/api/svc-guest-profiles.html#/Medical/getGuestMedicalInfo" xlink:actuate="onRequest" xlink:href="/services/api/svc-guest-profiles.html#/Medical/getGuestMedicalInfo" xlink:show="new" xlink:title="/services/api/svc-guest-profiles.html#/Medical/getGuestMedicalInfo" xlink:type="simple"><text fill="#0000FF" font-family="Segoe UI" font-size="13" lengthAdjust="spacingAndGlyphs" text-decoration="underline" textLength="120" x="353" y="167.9106">View in Swagger UI</text></a><polygon fill="#2563EB" points="273.5,198.1094,283.5,202.1094,273.5,206.1094,277.5,202.1094" style="stroke: #2563EB; stroke-width: 1.0;"/><line style="stroke: #2563EB; stroke-width: 1.0;" x1="34.5" x2="279.5" y1="202.1094" y2="202.1094"/><text fill="#000000" font-family="Segoe UI" font-size="13" lengthAdjust="spacingAndGlyphs" textLength="232" x="41.5" y="197.0435">GET /guests/{guest_id}/medical-info</text><polygon fill="#2563EB" points="401,227.2422,411,231.2422,401,235.2422,405,231.2422" style="stroke: #2563EB; stroke-width: 1.0;"/><line style="stroke: #2563EB; stroke-width: 1.0;" x1="295.5" x2="407" y1="231.2422" y2="231.2422"/><text fill="#000000" font-family="Segoe UI" font-size="13" lengthAdjust="spacingAndGlyphs" textLength="87" x="302.5" y="226.1763">route request</text><rect fill="#EEEEEE" height="3" style="stroke: #EEEEEE; stroke-width: 1.0;" width="695.5" x="3" y="259.8086"/><line style="stroke: #000000; stroke-width: 1.0;" x1="3" x2="698.5" y1="259.8086" y2="259.8086"/><line style="stroke: #000000; stroke-width: 1.0;" x1="3" x2="698.5" y1="262.8086" y2="262.8086"/><rect fill="#EEEEEE" height="23.1328" style="stroke: #000000; stroke-width: 2.0;" width="90" x="305.75" y="249.2422"/><text fill="#000000" font-family="Segoe UI" font-size="13" font-weight="bold" lengthAdjust="spacingAndGlyphs" textLength="71" x="311.75" y="265.3091">Database</text><polygon fill="#2563EB" points="633,299.5078,643,303.5078,633,307.5078,637,303.5078" style="stroke: #2563EB; stroke-width: 1.0;"/><line style="stroke: #2563EB; stroke-width: 1.0;" x1="423" x2="639" y1="303.5078" y2="303.5078"/><text fill="#000000" font-family="Segoe UI" font-size="13" lengthAdjust="spacingAndGlyphs" textLength="203" x="430" y="298.4419">SELECT ... WHERE parent_id = ?</text><polygon fill="#2563EB" points="434,328.6406,424,332.6406,434,336.6406,430,332.6406" style="stroke: #2563EB; stroke-width: 1.0;"/><line style="stroke: #2563EB; stroke-width: 1.0; stroke-dasharray: 2.0,2.0;" x1="428" x2="649" y1="332.6406" y2="332.6406"/><text fill="#000000" font-family="Segoe UI" font-size="13" lengthAdjust="spacingAndGlyphs" textLength="61" x="440" y="327.5747">ResultSet</text><polygon fill="#2563EB" points="306.5,357.7734,296.5,361.7734,306.5,365.7734,302.5,361.7734" style="stroke: #2563EB; stroke-width: 1.0;"/><line style="stroke: #2563EB; stroke-width: 1.0; stroke-dasharray: 2.0,2.0;" x1="300.5" x2="417" y1="361.7734" y2="361.7734"/><text fill="#000000" font-family="Segoe UI" font-size="13" lengthAdjust="spacingAndGlyphs" textLength="46" x="312.5" y="356.7075">200 OK</text><polygon fill="#2563EB" points="45.5,386.9063,35.5,390.9063,45.5,394.9063,41.5,390.9063" style="stroke: #2563EB; stroke-width: 1.0;"/><line style="stroke: #2563EB; stroke-width: 1.0; stroke-dasharray: 2.0,2.0;" x1="39.5" x2="289.5" y1="390.9063" y2="390.9063"/><text fill="#000000" font-family="Segoe UI" font-size="13" lengthAdjust="spacingAndGlyphs" textLength="46" x="51.5" y="385.8403">200 OK</text><a href="/microservices/svc-guest-profiles/#integration-context" target="_top" title="/microservices/svc-guest-profiles/#integration-context" xlink:actuate="onRequest" xlink:href="/microservices/svc-guest-profiles/#integration-context" xlink:show="new" xlink:title="/microservices/svc-guest-profiles/#integration-context" xlink:type="simple"><text fill="#0000FF" font-family="Segoe UI" font-size="10" lengthAdjust="spacingAndGlyphs" text-decoration="underline" textLength="196" x="502.5" y="12.2822">⬆ svc-guest-profiles Integration Context</text></a><!--MD5=[3752009ff63450aa53fe63604b730267]
@startuml svc-guest-profiles- -get-guests-guest_id-medical-info

skinparam backgroundColor #FEFEFE
skinparam shadowing false
skinparam defaultFontName "Segoe UI"
skinparam sequence {
    ArrowColor #2563eb
    ParticipantBorderColor #374151
    ParticipantBackgroundColor #F9FAFB
    LifeLineBorderColor #6B7280
    BoxBorderColor #94A3B8
    BoxBackgroundColor #F8FAFC
    NoteBorderColor #64748B
    NoteBackgroundColor #F8FAFC
}

header [[/microservices/svc-guest-profiles/#integration-context ⬆ svc-guest-profiles Integration Context]]

title GET /guests/{guest_id}/medical-info\nGet guest medical information

participant "Client" as Client [[/applications/]]
participant "API Gateway" as GW [[/actors/#api-gateway]] #E0F2FE
participant "svc-guest-profiles" as Svc [[/microservices/svc-guest-profiles/]] #EDE9FE
database "PostgreSQL" as DB [[/microservices/svc-guest-profiles/#data-store]] #FEF9C3

note over Svc
  [[/services/api/svc-guest-profiles.html#/Medical/getGuestMedicalInfo View in Swagger UI]]
end note

Client -> GW : GET /guests/{guest_id}/medical-info
activate GW #2563eb
GW -> Svc : route request
activate Svc #2563eb

== Database ==

Svc -> DB : SELECT ... WHERE parent_id = ?
activate DB #FEF9C3
DB - -> Svc : ResultSet
deactivate DB

Svc - -> GW : 200 OK
deactivate Svc
GW - -> Client : 200 OK
deactivate GW

@enduml

PlantUML version 1.2020.02(Sun Mar 01 10:22:07 UTC 2020)
(GPL source distribution)
Java Runtime: OpenJDK Runtime Environment
JVM: OpenJDK 64-Bit Server VM
Java Version: 17.0.18+8
Operating System: Linux
Default Encoding: UTF-8
Language: en
Country: null
--></g></svg>