<svg xmlns="http://www.w3.org/2000/svg" xmlns:xlink="http://www.w3.org/1999/xlink" contentStyleType="text/css" data-diagram-type="SEQUENCE" height="474px" preserveAspectRatio="none" style="width:532px;height:474px;background:#FEFEFE;" version="1.1" viewBox="0 0 532 474" width="532px" zoomAndPan="magnify"><title>GET /analytics/revenue</title><defs/><g><rect fill="#FEFEFE" height="474" style="stroke:none;stroke-width:1;" width="532" x="0" y="0"/><text fill="#000000" font-family="Segoe UI" font-size="14" font-weight="bold" lengthAdjust="spacing" textLength="170.584" x="176.7173" y="28.5352">GET /analytics/revenue</text><text fill="#000000" font-family="Segoe UI" font-size="14" font-weight="bold" lengthAdjust="spacing" textLength="244.9727" x="139.5229" y="45.0234">Get revenue analytics for a period</text><g><title>API Gateway</title><rect fill="#2563EB" height="189.8633" style="stroke:#A23B72;stroke-width:1;" width="10" x="197.9546" y="188.0859"/></g><g><title>svc-analytics</title><rect fill="#2563EB" height="131.2422" style="stroke:#A23B72;stroke-width:1;" width="10" x="312.0894" y="217.3965"/></g><g><title>Oracle</title><rect fill="#FCE4EC" height="29.3105" style="stroke:#A23B72;stroke-width:1;" width="10" x="490.3418" y="290.0176"/></g><g><title>Client</title><rect fill="#000000" fill-opacity="0.00000" height="274.4844" width="8" x="27.7524" y="121.4648"/><line style="stroke:#A23B72;stroke-width:0.5;stroke-dasharray:5,5;" x1="31" x2="31" y1="121.4648" y2="395.9492"/></g><g><title>API Gateway</title><rect fill="#000000" fill-opacity="0.00000" height="274.4844" width="8" x="198.9546" y="121.4648"/><line style="stroke:#A23B72;stroke-width:0.5;stroke-dasharray:5,5;" x1="202.6655" x2="202.6655" y1="121.4648" y2="395.9492"/></g><g><title>svc-analytics</title><rect fill="#000000" fill-opacity="0.00000" height="274.4844" width="8" x="313.0894" y="121.4648"/><line style="stroke:#A23B72;stroke-width:0.5;stroke-dasharray:5,5;" x1="316.7104" x2="316.7104" y1="121.4648" y2="395.9492"/></g><g><title>Oracle</title><rect fill="#000000" fill-opacity="0.00000" height="274.4844" width="8" x="491.3418" y="121.4648"/><line style="stroke:#A23B72;stroke-width:0.5;stroke-dasharray:5,5;" x1="494.665" x2="494.665" y1="121.4648" y2="395.9492"/></g><g class="participant participant-head" data-participant="Client"><rect fill="#E8F4F8" height="30.4883" rx="2.5" ry="2.5" style="stroke:#2E86AB;stroke-width:0.5;" width="53.5049" x="5" y="89.9766"/><text fill="#000000" font-family="Segoe UI" font-size="14" lengthAdjust="spacing" textLength="39.5049" x="12" y="110.5117">Client</text></g><g class="participant participant-tail" data-participant="Client"><rect fill="#E8F4F8" height="30.4883" rx="2.5" ry="2.5" style="stroke:#2E86AB;stroke-width:0.5;" width="53.5049" x="5" y="394.9492"/><text fill="#000000" font-family="Segoe UI" font-size="14" lengthAdjust="spacing" textLength="39.5049" x="12" y="415.4844">Client</text></g><g class="participant participant-head" data-participant="GW"><rect fill="#DBEAFE" height="30.4883" rx="2.5" ry="2.5" style="stroke:#2E86AB;stroke-width:0.5;" width="96.5781" x="154.6655" y="89.9766"/><text fill="#000000" font-family="Segoe UI" font-size="14" lengthAdjust="spacing" textLength="82.5781" x="161.6655" y="110.5117">API Gateway</text></g><g class="participant participant-tail" data-participant="GW"><rect fill="#DBEAFE" height="30.4883" rx="2.5" ry="2.5" style="stroke:#2E86AB;stroke-width:0.5;" width="96.5781" x="154.6655" y="394.9492"/><text fill="#000000" font-family="Segoe UI" font-size="14" lengthAdjust="spacing" textLength="82.5781" x="161.6655" y="415.4844">API Gateway</text></g><g class="participant participant-head" data-participant="Svc"><a href="/microservices/svc-analytics/" target="_top" title="/microservices/svc-analytics/" xlink:actuate="onRequest" xlink:href="/microservices/svc-analytics/" xlink:show="new" xlink:title="/microservices/svc-analytics/" xlink:type="simple"><rect fill="#E8F4F8" height="30.4883" rx="2.5" ry="2.5" style="stroke:#2E86AB;stroke-width:0.5;" width="102.7578" x="265.7104" y="89.9766"/><text fill="#000000" font-family="Segoe UI" font-size="14" lengthAdjust="spacing" textLength="88.7578" x="272.7104" y="110.5117">svc-analytics</text></a></g><g class="participant participant-tail" data-participant="Svc"><a href="/microservices/svc-analytics/" target="_top" title="/microservices/svc-analytics/" xlink:actuate="onRequest" xlink:href="/microservices/svc-analytics/" xlink:show="new" xlink:title="/microservices/svc-analytics/" xlink:type="simple"><rect fill="#E8F4F8" height="30.4883" rx="2.5" ry="2.5" style="stroke:#2E86AB;stroke-width:0.5;" width="102.7578" x="265.7104" y="394.9492"/><text fill="#000000" font-family="Segoe UI" font-size="14" lengthAdjust="spacing" textLength="88.7578" x="272.7104" y="415.4844">svc-analytics</text></a></g><g class="participant participant-head" data-participant="DB"><text fill="#000000" font-family="Segoe UI" font-size="14" lengthAdjust="spacing" textLength="43.3535" x="470.665" y="118.5117">Oracle</text><path d="M477.3418,68.9766 C477.3418,58.9766 495.3418,58.9766 495.3418,58.9766 C495.3418,58.9766 513.3418,58.9766 513.3418,68.9766 L513.3418,94.9766 C513.3418,104.9766 495.3418,104.9766 495.3418,104.9766 C495.3418,104.9766 477.3418,104.9766 477.3418,94.9766 L477.3418,68.9766" fill="#FCE4EC" style="stroke:#181818;stroke-width:0.5;"/><path d="M477.3418,68.9766 C477.3418,78.9766 495.3418,78.9766 495.3418,78.9766 C495.3418,78.9766 513.3418,78.9766 513.3418,68.9766" fill="none" style="stroke:#181818;stroke-width:0.5;"/></g><g class="participant participant-tail" data-participant="DB"><text fill="#000000" font-family="Segoe UI" font-size="14" lengthAdjust="spacing" textLength="43.3535" x="470.665" y="408.4844">Oracle</text><path d="M477.3418,421.4375 C477.3418,411.4375 495.3418,411.4375 495.3418,411.4375 C495.3418,411.4375 513.3418,411.4375 513.3418,421.4375 L513.3418,447.4375 C513.3418,457.4375 495.3418,457.4375 495.3418,457.4375 C495.3418,457.4375 477.3418,457.4375 477.3418,447.4375 L477.3418,421.4375" fill="#FCE4EC" style="stroke:#181818;stroke-width:0.5;"/><path d="M477.3418,421.4375 C477.3418,431.4375 495.3418,431.4375 495.3418,431.4375 C495.3418,431.4375 513.3418,431.4375 513.3418,421.4375" fill="none" style="stroke:#181818;stroke-width:0.5;"/></g><g><title>API Gateway</title><rect fill="#2563EB" height="189.8633" style="stroke:#A23B72;stroke-width:1;" width="10" x="197.9546" y="188.0859"/></g><g><title>svc-analytics</title><rect fill="#2563EB" height="131.2422" style="stroke:#A23B72;stroke-width:1;" width="10" x="312.0894" y="217.3965"/></g><g><title>Oracle</title><rect fill="#FCE4EC" height="29.3105" style="stroke:#A23B72;stroke-width:1;" width="10" x="490.3418" y="290.0176"/></g><path d="M246,136.4648 L246,161.4648 L386,161.4648 L386,146.4648 L376,136.4648 L246,136.4648" fill="#FEFFDD" style="stroke:#181818;stroke-width:0.5;"/><path d="M376,136.4648 L376,146.4648 L386,146.4648 L376,136.4648" fill="#FEFFDD" style="stroke:#181818;stroke-width:0.5;"/><a href="/services/api/svc-analytics.html#/Revenue/getRevenueAnalytics" target="_top" title="/services/api/svc-analytics.html#/Revenue/getRevenueAnalytics" xlink:actuate="onRequest" xlink:href="/services/api/svc-analytics.html#/Revenue/getRevenueAnalytics" xlink:show="new" xlink:title="/services/api/svc-analytics.html#/Revenue/getRevenueAnalytics" xlink:type="simple"><text fill="#0000FF" font-family="Segoe UI" font-size="13" lengthAdjust="spacing" text-decoration="underline" textLength="119.4058" x="252" y="154.0332">View in Swagger UI</text></a><g class="message" data-participant-1="Client" data-participant-2="GW"><polygon fill="#2563EB" points="185.9546,184.0859,195.9546,188.0859,185.9546,192.0859,189.9546,188.0859" style="stroke:#2563EB;stroke-width:1;"/><line style="stroke:#2563EB;stroke-width:1;" x1="31.7524" x2="191.9546" y1="188.0859" y2="188.0859"/><text fill="#000000" font-family="Segoe UI" font-size="13" lengthAdjust="spacing" textLength="147.2021" x="38.7524" y="183.3438">GET /analytics/revenue</text></g><g class="message" data-participant-1="GW" data-participant-2="Svc"><polygon fill="#2563EB" points="300.0894,213.3965,310.0894,217.3965,300.0894,221.3965,304.0894,217.3965" style="stroke:#2563EB;stroke-width:1;"/><line style="stroke:#2563EB;stroke-width:1;" x1="207.9546" x2="306.0894" y1="217.3965" y2="217.3965"/><text fill="#000000" font-family="Segoe UI" font-size="13" lengthAdjust="spacing" textLength="85.1348" x="214.9546" y="212.6543">route request</text></g><rect fill="#EEEEEE" height="3" style="stroke:#EEEEEE;stroke-width:1;" width="525.0186" x="0" y="246.0518"/><line style="stroke:#000000;stroke-width:1;" x1="0" x2="525.0186" y1="246.0518" y2="246.0518"/><line style="stroke:#000000;stroke-width:1;" x1="0" x2="525.0186" y1="249.0518" y2="249.0518"/><rect fill="#EEEEEE" height="23.3105" style="stroke:#000000;stroke-width:2;" width="80.3711" x="222.3237" y="235.3965"/><text fill="#000000" font-family="Segoe UI" font-size="13" font-weight="bold" lengthAdjust="spacing" textLength="62.0864" x="228.3237" y="251.9648">Database</text><g class="message" data-participant-1="Svc" data-participant-2="DB"><polygon fill="#2563EB" points="478.3418,286.0176,488.3418,290.0176,478.3418,294.0176,482.3418,290.0176" style="stroke:#2563EB;stroke-width:1;"/><line style="stroke:#2563EB;stroke-width:1;" x1="322.0894" x2="484.3418" y1="290.0176" y2="290.0176"/><text fill="#000000" font-family="Segoe UI" font-size="13" lengthAdjust="spacing" textLength="149.2524" x="329.0894" y="285.2754">SELECT ... WHERE filters</text></g><g class="message" data-participant-1="DB" data-participant-2="Svc"><polygon fill="#2563EB" points="333.0894,315.3281,323.0894,319.3281,333.0894,323.3281,329.0894,319.3281" style="stroke:#2563EB;stroke-width:1;"/><line style="stroke:#2563EB;stroke-width:1;stroke-dasharray:2,2;" x1="327.0894" x2="494.3418" y1="319.3281" y2="319.3281"/><text fill="#000000" font-family="Segoe UI" font-size="13" lengthAdjust="spacing" textLength="93.209" x="339.0894" y="314.5859">Page of results</text></g><g class="message" data-participant-1="Svc" data-participant-2="GW"><polygon fill="#2563EB" points="218.9546,344.6387,208.9546,348.6387,218.9546,352.6387,214.9546,348.6387" style="stroke:#2563EB;stroke-width:1;"/><line style="stroke:#2563EB;stroke-width:1;stroke-dasharray:2,2;" x1="212.9546" x2="316.0894" y1="348.6387" y2="348.6387"/><text fill="#000000" font-family="Segoe UI" font-size="13" lengthAdjust="spacing" textLength="47.3599" x="224.9546" y="343.8965">200 OK</text></g><g class="message" data-participant-1="GW" data-participant-2="Client"><polygon fill="#2563EB" points="42.7524,373.9492,32.7524,377.9492,42.7524,381.9492,38.7524,377.9492" style="stroke:#2563EB;stroke-width:1;"/><line style="stroke:#2563EB;stroke-width:1;stroke-dasharray:2,2;" x1="36.7524" x2="201.9546" y1="377.9492" y2="377.9492"/><text fill="#000000" font-family="Segoe UI" font-size="13" lengthAdjust="spacing" textLength="47.3599" x="48.7524" y="373.207">200 OK</text></g><!--SRC=[TPDHRzem58NV_Ikku1b2eIi8YKa990mDjQYquw7ZuPBSf5Q3pMmJMatxxtD2I9ErWnU7StmkvxEZNxWueC8zx31yIPGyYcWgKwcW7VZvb-dAePynaYSk4eWnrLHJ8ehnc9f02dEBUuBMcX99yBXerRVJhoE9aE0t0_jnbPAdSbJ_oys0TiNFArI6X_o0mdXIHQGk5dzquteVBF_-QNyKN0UZmhRaCIsve4QCsnzumtwXU_Ar8GLNew1tLKaVS0I1rGlvLffcQZWSxWOrxHEK0t_8_Z1ck4a9vlu3E2WmVRD5jACe8t6ads9E1ie7g6I8RGJ2WHIN4ME7z_RGcgQSX6a1QZWlcxAxMi0S3PtmhV3CDz2UURvhZxNXqrdOgUOLpdKMmjEJi-UXaffKnaFIJiFcRBSLxWWDxb3RWxzJ6APKHCmyMtpgN_jJneIb0Z8ZbGTRJZQwIiK3RoPtdyq-RJltPn1EGgPSkXMI7vnEm0MiJvWaDlLniTqo4X7aWnWxiu3Erxpn-3-u6OQ6PvPEWQMyWdPfT-Njns1Fq8eglxRQlBjpyM9damdCBkKd4yPoqGROxcDO-qj_-W3TRXSst_nx7sAU6bBwFQg6o2uxrUGL9XPNR6Th-rff5b5jIpdaKgxVwy7TzxebHvpti8uIn6Uk-ORz1G00]--></g></svg>