<svg xmlns="http://www.w3.org/2000/svg" xmlns:xlink="http://www.w3.org/1999/xlink" contentStyleType="text/css" data-diagram-type="SEQUENCE" height="742px" preserveAspectRatio="none" style="width:802px;height:742px;background:#FEFEFE;" version="1.1" viewBox="0 0 802 742" width="802px" zoomAndPan="magnify"><title>POST /reservations</title><defs/><g><rect fill="#FEFEFE" height="742" style="stroke:none;stroke-width:1;" width="802" x="0" y="0"/><text fill="#000000" font-family="Segoe UI" font-size="14" font-weight="bold" lengthAdjust="spacing" textLength="140.1641" x="327.0486" y="28.5352">POST /reservations</text><text fill="#000000" font-family="Segoe UI" font-size="14" font-weight="bold" lengthAdjust="spacing" textLength="180.1475" x="307.0569" y="45.0234">Create a new reservation</text><g><title>API Gateway</title><rect fill="#059669" height="458.3477" style="stroke:#A23B72;stroke-width:1;" width="10" x="171.1484" y="188.0859"/></g><g><title>svc-reservations</title><rect fill="#059669" height="399.7266" style="stroke:#A23B72;stroke-width:1;" width="10" x="292.7041" y="217.3965"/></g><g><title>Guest Profiles</title><rect fill="#DBEAFE" height="29.3105" style="stroke:#A23B72;stroke-width:1;" width="10" x="463.022" y="325.3281"/></g><g><title>Trip Catalog</title><rect fill="#DBEAFE" height="29.3105" style="stroke:#A23B72;stroke-width:1;" width="10" x="575.6636" y="383.9492"/></g><g><title>PostgreSQL</title><rect fill="#FCE4EC" height="29.3105" style="stroke:#A23B72;stroke-width:1;" width="10" x="743.8364" y="485.8809"/></g><g><title>Client</title><rect fill="#000000" fill-opacity="0.00000" height="542.9688" width="8" x="27.7524" y="121.4648"/><line style="stroke:#A23B72;stroke-width:0.5;stroke-dasharray:5,5;" x1="31" x2="31" y1="121.4648" y2="664.4336"/></g><g><title>API Gateway</title><rect fill="#000000" fill-opacity="0.00000" height="542.9688" width="8" x="172.1484" y="121.4648"/><line style="stroke:#A23B72;stroke-width:0.5;stroke-dasharray:5,5;" x1="175.8594" x2="175.8594" y1="121.4648" y2="664.4336"/></g><g><title>svc-reservations</title><rect fill="#000000" fill-opacity="0.00000" height="542.9688" width="8" x="293.7041" y="121.4648"/><line style="stroke:#A23B72;stroke-width:0.5;stroke-dasharray:5,5;" x1="297.4375" x2="297.4375" y1="121.4648" y2="664.4336"/></g><g><title>Guest Profiles</title><rect fill="#000000" fill-opacity="0.00000" height="542.9688" width="8" x="464.022" y="121.4648"/><line style="stroke:#A23B72;stroke-width:0.5;stroke-dasharray:5,5;" x1="467.1958" x2="467.1958" y1="121.4648" y2="664.4336"/></g><g><title>Trip Catalog</title><rect fill="#000000" fill-opacity="0.00000" height="542.9688" width="8" x="576.6636" y="121.4648"/><line style="stroke:#A23B72;stroke-width:0.5;stroke-dasharray:5,5;" x1="579.8481" x2="579.8481" y1="121.4648" y2="664.4336"/></g><g><title>Kafka</title><rect fill="#000000" fill-opacity="0.00000" height="542.9688" width="8" x="664.4453" y="121.4648"/><line style="stroke:#A23B72;stroke-width:0.5;stroke-dasharray:5,5;" x1="667.479" x2="667.479" y1="121.4648" y2="664.4336"/></g><g><title>PostgreSQL</title><rect fill="#000000" fill-opacity="0.00000" height="542.9688" width="8" x="744.8364" y="121.4648"/><line style="stroke:#A23B72;stroke-width:0.5;stroke-dasharray:5,5;" x1="748.4116" x2="748.4116" y1="121.4648" y2="664.4336"/></g><g class="participant participant-head" data-participant="Client"><rect fill="#E8F4F8" height="30.4883" rx="2.5" ry="2.5" style="stroke:#2E86AB;stroke-width:0.5;" width="53.5049" x="5" y="89.9766"/><text fill="#000000" font-family="Segoe UI" font-size="14" lengthAdjust="spacing" textLength="39.5049" x="12" y="110.5117">Client</text></g><g class="participant participant-tail" data-participant="Client"><rect fill="#E8F4F8" height="30.4883" rx="2.5" ry="2.5" style="stroke:#2E86AB;stroke-width:0.5;" width="53.5049" x="5" y="663.4336"/><text fill="#000000" font-family="Segoe UI" font-size="14" lengthAdjust="spacing" textLength="39.5049" x="12" y="683.9688">Client</text></g><g class="participant participant-head" data-participant="GW"><rect fill="#DBEAFE" height="30.4883" rx="2.5" ry="2.5" style="stroke:#2E86AB;stroke-width:0.5;" width="96.5781" x="127.8594" y="89.9766"/><text fill="#000000" font-family="Segoe UI" font-size="14" lengthAdjust="spacing" textLength="82.5781" x="134.8594" y="110.5117">API Gateway</text></g><g class="participant participant-tail" data-participant="GW"><rect fill="#DBEAFE" height="30.4883" rx="2.5" ry="2.5" style="stroke:#2E86AB;stroke-width:0.5;" width="96.5781" x="127.8594" y="663.4336"/><text fill="#000000" font-family="Segoe UI" font-size="14" lengthAdjust="spacing" textLength="82.5781" x="134.8594" y="683.9688">API Gateway</text></g><g class="participant participant-head" data-participant="Svc"><a href="/microservices/svc-reservations/" target="_top" title="/microservices/svc-reservations/" xlink:actuate="onRequest" xlink:href="/microservices/svc-reservations/" xlink:show="new" xlink:title="/microservices/svc-reservations/" xlink:type="simple"><rect fill="#E8F4F8" height="30.4883" rx="2.5" ry="2.5" style="stroke:#2E86AB;stroke-width:0.5;" width="126.5332" x="234.4375" y="89.9766"/><text fill="#000000" font-family="Segoe UI" font-size="14" lengthAdjust="spacing" textLength="112.5332" x="241.4375" y="110.5117">svc-reservations</text></a></g><g class="participant participant-tail" data-participant="Svc"><a href="/microservices/svc-reservations/" target="_top" title="/microservices/svc-reservations/" xlink:actuate="onRequest" xlink:href="/microservices/svc-reservations/" xlink:show="new" xlink:title="/microservices/svc-reservations/" xlink:type="simple"><rect fill="#E8F4F8" height="30.4883" rx="2.5" ry="2.5" style="stroke:#2E86AB;stroke-width:0.5;" width="126.5332" x="234.4375" y="663.4336"/><text fill="#000000" font-family="Segoe UI" font-size="14" lengthAdjust="spacing" textLength="112.5332" x="241.4375" y="683.9688">svc-reservations</text></a></g><g class="participant participant-head" data-participant="GP"><a href="/microservices/svc-guest-profiles/" target="_top" title="/microservices/svc-guest-profiles/" xlink:actuate="onRequest" xlink:href="/microservices/svc-guest-profiles/" xlink:show="new" xlink:title="/microservices/svc-guest-profiles/" xlink:type="simple"><rect fill="#FFF8F0" height="30.4883" rx="2.5" ry="2.5" style="stroke:#2E86AB;stroke-width:0.5;" width="107.6523" x="414.1958" y="89.9766"/><text fill="#000000" font-family="Segoe UI" font-size="14" lengthAdjust="spacing" textLength="93.6523" x="421.1958" y="110.5117">Guest Profiles</text></a></g><g class="participant participant-tail" data-participant="GP"><a href="/microservices/svc-guest-profiles/" target="_top" title="/microservices/svc-guest-profiles/" xlink:actuate="onRequest" xlink:href="/microservices/svc-guest-profiles/" xlink:show="new" xlink:title="/microservices/svc-guest-profiles/" xlink:type="simple"><rect fill="#FFF8F0" height="30.4883" rx="2.5" ry="2.5" style="stroke:#2E86AB;stroke-width:0.5;" width="107.6523" x="414.1958" y="663.4336"/><text fill="#000000" font-family="Segoe UI" font-size="14" lengthAdjust="spacing" textLength="93.6523" x="421.1958" y="683.9688">Guest Profiles</text></a></g><g class="participant participant-head" data-participant="TC"><a href="/microservices/svc-trip-catalog/" target="_top" title="/microservices/svc-trip-catalog/" xlink:actuate="onRequest" xlink:href="/microservices/svc-trip-catalog/" xlink:show="new" xlink:title="/microservices/svc-trip-catalog/" xlink:type="simple"><rect fill="#FFF8F0" height="30.4883" rx="2.5" ry="2.5" style="stroke:#2E86AB;stroke-width:0.5;" width="97.6309" x="531.8481" y="89.9766"/><text fill="#000000" font-family="Segoe UI" font-size="14" lengthAdjust="spacing" textLength="83.6309" x="538.8481" y="110.5117">Trip Catalog</text></a></g><g class="participant participant-tail" data-participant="TC"><a href="/microservices/svc-trip-catalog/" target="_top" title="/microservices/svc-trip-catalog/" xlink:actuate="onRequest" xlink:href="/microservices/svc-trip-catalog/" xlink:show="new" xlink:title="/microservices/svc-trip-catalog/" xlink:type="simple"><rect fill="#FFF8F0" height="30.4883" rx="2.5" ry="2.5" style="stroke:#2E86AB;stroke-width:0.5;" width="97.6309" x="531.8481" y="663.4336"/><text fill="#000000" font-family="Segoe UI" font-size="14" lengthAdjust="spacing" textLength="83.6309" x="538.8481" y="683.9688">Trip Catalog</text></a></g><g class="participant participant-head" data-participant="Kafka"><path d="M644.479,94.9766 L692.4116,94.9766 C697.4116,94.9766 697.4116,108.2207 697.4116,108.2207 C697.4116,108.2207 697.4116,121.4648 692.4116,121.4648 L644.479,121.4648 C639.479,121.4648 639.479,108.2207 639.479,108.2207 C639.479,108.2207 639.479,94.9766 644.479,94.9766" fill="#F0E6FF" style="stroke:#181818;stroke-width:0.5;"/><path d="M692.4116,94.9766 C687.4116,94.9766 687.4116,108.2207 687.4116,108.2207 C687.4116,121.4648 692.4116,121.4648 692.4116,121.4648" fill="none" style="stroke:#181818;stroke-width:0.5;"/><text fill="#000000" font-family="Segoe UI" font-size="14" lengthAdjust="spacing" textLength="37.9326" x="644.479" y="113.5117">Kafka</text></g><g class="participant participant-tail" data-participant="Kafka"><path d="M644.479,663.4336 L692.4116,663.4336 C697.4116,663.4336 697.4116,676.6777 697.4116,676.6777 C697.4116,676.6777 697.4116,689.9219 692.4116,689.9219 L644.479,689.9219 C639.479,689.9219 639.479,676.6777 639.479,676.6777 C639.479,676.6777 639.479,663.4336 644.479,663.4336" fill="#F0E6FF" style="stroke:#181818;stroke-width:0.5;"/><path d="M692.4116,663.4336 C687.4116,663.4336 687.4116,676.6777 687.4116,676.6777 C687.4116,689.9219 692.4116,689.9219 692.4116,689.9219" fill="none" style="stroke:#181818;stroke-width:0.5;"/><text fill="#000000" font-family="Segoe UI" font-size="14" lengthAdjust="spacing" textLength="37.9326" x="644.479" y="681.9688">Kafka</text></g><g class="participant participant-head" data-participant="DB"><text fill="#000000" font-family="Segoe UI" font-size="14" lengthAdjust="spacing" textLength="76.8496" x="707.4116" y="118.5117">PostgreSQL</text><path d="M730.8364,68.9766 C730.8364,58.9766 748.8364,58.9766 748.8364,58.9766 C748.8364,58.9766 766.8364,58.9766 766.8364,68.9766 L766.8364,94.9766 C766.8364,104.9766 748.8364,104.9766 748.8364,104.9766 C748.8364,104.9766 730.8364,104.9766 730.8364,94.9766 L730.8364,68.9766" fill="#FCE4EC" style="stroke:#181818;stroke-width:0.5;"/><path d="M730.8364,68.9766 C730.8364,78.9766 748.8364,78.9766 748.8364,78.9766 C748.8364,78.9766 766.8364,78.9766 766.8364,68.9766" fill="none" style="stroke:#181818;stroke-width:0.5;"/></g><g class="participant participant-tail" data-participant="DB"><text fill="#000000" font-family="Segoe UI" font-size="14" lengthAdjust="spacing" textLength="76.8496" x="707.4116" y="676.9688">PostgreSQL</text><path d="M730.8364,689.9219 C730.8364,679.9219 748.8364,679.9219 748.8364,679.9219 C748.8364,679.9219 766.8364,679.9219 766.8364,689.9219 L766.8364,715.9219 C766.8364,725.9219 748.8364,725.9219 748.8364,725.9219 C748.8364,725.9219 730.8364,725.9219 730.8364,715.9219 L730.8364,689.9219" fill="#FCE4EC" style="stroke:#181818;stroke-width:0.5;"/><path d="M730.8364,689.9219 C730.8364,699.9219 748.8364,699.9219 748.8364,699.9219 C748.8364,699.9219 766.8364,699.9219 766.8364,689.9219" fill="none" style="stroke:#181818;stroke-width:0.5;"/></g><g><title>API Gateway</title><rect fill="#059669" height="458.3477" style="stroke:#A23B72;stroke-width:1;" width="10" x="171.1484" y="188.0859"/></g><g><title>svc-reservations</title><rect fill="#059669" height="399.7266" style="stroke:#A23B72;stroke-width:1;" width="10" x="292.7041" y="217.3965"/></g><g><title>Guest Profiles</title><rect fill="#DBEAFE" height="29.3105" style="stroke:#A23B72;stroke-width:1;" width="10" x="463.022" y="325.3281"/></g><g><title>Trip Catalog</title><rect fill="#DBEAFE" height="29.3105" style="stroke:#A23B72;stroke-width:1;" width="10" x="575.6636" y="383.9492"/></g><g><title>PostgreSQL</title><rect fill="#FCE4EC" height="29.3105" style="stroke:#A23B72;stroke-width:1;" width="10" x="743.8364" y="485.8809"/></g><path d="M227,136.4648 L227,161.4648 L367,161.4648 L367,146.4648 L357,136.4648 L227,136.4648" fill="#FEFFDD" style="stroke:#181818;stroke-width:0.5;"/><path d="M357,136.4648 L357,146.4648 L367,146.4648 L357,136.4648" fill="#FEFFDD" style="stroke:#181818;stroke-width:0.5;"/><a href="/services/api/svc-reservations.html#/Reservations/createReservation" target="_top" title="/services/api/svc-reservations.html#/Reservations/createReservation" xlink:actuate="onRequest" xlink:href="/services/api/svc-reservations.html#/Reservations/createReservation" xlink:show="new" xlink:title="/services/api/svc-reservations.html#/Reservations/createReservation" xlink:type="simple"><text fill="#0000FF" font-family="Segoe UI" font-size="13" lengthAdjust="spacing" text-decoration="underline" textLength="119.4058" x="233" y="154.0332">View in Swagger UI</text></a><g class="message" data-participant-1="Client" data-participant-2="GW"><polygon fill="#059669" points="159.1484,184.0859,169.1484,188.0859,159.1484,192.0859,163.1484,188.0859" style="stroke:#059669;stroke-width:1;"/><line style="stroke:#059669;stroke-width:1;" x1="31.7524" x2="165.1484" y1="188.0859" y2="188.0859"/><text fill="#000000" font-family="Segoe UI" font-size="13" lengthAdjust="spacing" textLength="120.396" x="38.7524" y="183.3438">POST /reservations</text></g><g class="message" data-participant-1="GW" data-participant-2="Svc"><polygon fill="#059669" points="280.7041,213.3965,290.7041,217.3965,280.7041,221.3965,284.7041,217.3965" style="stroke:#059669;stroke-width:1;"/><line style="stroke:#059669;stroke-width:1;" x1="181.1484" x2="286.7041" y1="217.3965" y2="217.3965"/><text fill="#000000" font-family="Segoe UI" font-size="13" lengthAdjust="spacing" textLength="85.1348" x="188.1484" y="212.6543">route request</text></g><path d="M307,230.3965 L307,255.3965 L465,255.3965 L465,240.3965 L455,230.3965 L307,230.3965" fill="#FEFFDD" style="stroke:#181818;stroke-width:0.5;"/><path d="M455,230.3965 L455,240.3965 L465,240.3965 L455,230.3965" fill="#FEFFDD" style="stroke:#181818;stroke-width:0.5;"/><text fill="#000000" font-family="Segoe UI" font-size="13" lengthAdjust="spacing" textLength="137.5728" x="313" y="247.9648">Validate request body</text><rect fill="#EEEEEE" height="3" style="stroke:#EEEEEE;stroke-width:1;" width="795.2612" x="0" y="281.3623"/><line style="stroke:#000000;stroke-width:1;" x1="0" x2="795.2612" y1="281.3623" y2="281.3623"/><line style="stroke:#000000;stroke-width:1;" x1="0" x2="795.2612" y1="284.3623" y2="284.3623"/><rect fill="#EEEEEE" height="23.3105" style="stroke:#000000;stroke-width:2;" width="190.6743" x="302.2935" y="270.707"/><text fill="#000000" font-family="Segoe UI" font-size="13" font-weight="bold" lengthAdjust="spacing" textLength="172.3896" x="308.2935" y="287.2754">Cross-Service Integration</text><g class="message" data-participant-1="Svc" data-participant-2="GP"><polygon fill="#059669" points="451.022,321.3281,461.022,325.3281,451.022,329.3281,455.022,325.3281" style="stroke:#059669;stroke-width:1;"/><line style="stroke:#059669;stroke-width:1;" x1="302.7041" x2="457.022" y1="325.3281" y2="325.3281"/><a href="/microservices/svc-guest-profiles/" target="_top" title="/microservices/svc-guest-profiles/" xlink:actuate="onRequest" xlink:href="/microservices/svc-guest-profiles/" xlink:show="new" xlink:title="/microservices/svc-guest-profiles/" xlink:type="simple"><text fill="#0000FF" font-family="Segoe UI" font-size="13" lengthAdjust="spacing" text-decoration="underline" textLength="141.3179" x="309.7041" y="320.5859">Validate guest identity</text></a></g><g class="message" data-participant-1="GP" data-participant-2="Svc"><polygon fill="#059669" points="313.7041,350.6387,303.7041,354.6387,313.7041,358.6387,309.7041,354.6387" style="stroke:#059669;stroke-width:1;"/><line style="stroke:#059669;stroke-width:1;stroke-dasharray:2,2;" x1="307.7041" x2="467.022" y1="354.6387" y2="354.6387"/><text fill="#000000" font-family="Segoe UI" font-size="13" lengthAdjust="spacing" textLength="18.5859" x="319.7041" y="349.8965">OK</text></g><g class="message" data-participant-1="Svc" data-participant-2="TC"><polygon fill="#059669" points="563.6636,379.9492,573.6636,383.9492,563.6636,387.9492,567.6636,383.9492" style="stroke:#059669;stroke-width:1;"/><line style="stroke:#059669;stroke-width:1;" x1="302.7041" x2="569.6636" y1="383.9492" y2="383.9492"/><a href="/microservices/svc-trip-catalog/" target="_top" title="/microservices/svc-trip-catalog/" xlink:actuate="onRequest" xlink:href="/microservices/svc-trip-catalog/" xlink:show="new" xlink:title="/microservices/svc-trip-catalog/" xlink:type="simple"><text fill="#0000FF" font-family="Segoe UI" font-size="13" lengthAdjust="spacing" text-decoration="underline" textLength="135.8018" x="309.7041" y="379.207">Check trip availability</text></a></g><g class="message" data-participant-1="TC" data-participant-2="Svc"><polygon fill="#059669" points="313.7041,409.2598,303.7041,413.2598,313.7041,417.2598,309.7041,413.2598" style="stroke:#059669;stroke-width:1;"/><line style="stroke:#059669;stroke-width:1;stroke-dasharray:2,2;" x1="307.7041" x2="579.6636" y1="413.2598" y2="413.2598"/><text fill="#000000" font-family="Segoe UI" font-size="13" lengthAdjust="spacing" textLength="18.5859" x="319.7041" y="408.5176">OK</text></g><rect fill="#EEEEEE" height="3" style="stroke:#EEEEEE;stroke-width:1;" width="795.2612" x="0" y="441.915"/><line style="stroke:#000000;stroke-width:1;" x1="0" x2="795.2612" y1="441.915" y2="441.915"/><line style="stroke:#000000;stroke-width:1;" x1="0" x2="795.2612" y1="444.915" y2="444.915"/><rect fill="#EEEEEE" height="23.3105" style="stroke:#000000;stroke-width:2;" width="80.3711" x="357.4451" y="431.2598"/><text fill="#000000" font-family="Segoe UI" font-size="13" font-weight="bold" lengthAdjust="spacing" textLength="62.0864" x="363.4451" y="447.8281">Database</text><g class="message" data-participant-1="Svc" data-participant-2="DB"><polygon fill="#059669" points="731.8364,481.8809,741.8364,485.8809,731.8364,489.8809,735.8364,485.8809" style="stroke:#059669;stroke-width:1;"/><line style="stroke:#059669;stroke-width:1;" x1="302.7041" x2="737.8364" y1="485.8809" y2="485.8809"/><text fill="#000000" font-family="Segoe UI" font-size="13" lengthAdjust="spacing" textLength="96.0718" x="309.7041" y="481.1387">INSERT INTO ...</text></g><g class="message" data-participant-1="DB" data-participant-2="Svc"><polygon fill="#059669" points="313.7041,511.1914,303.7041,515.1914,313.7041,519.1914,309.7041,515.1914" style="stroke:#059669;stroke-width:1;"/><line style="stroke:#059669;stroke-width:1;stroke-dasharray:2,2;" x1="307.7041" x2="747.8364" y1="515.1914" y2="515.1914"/><text fill="#000000" font-family="Segoe UI" font-size="13" lengthAdjust="spacing" textLength="76.4575" x="319.7041" y="510.4492">Created row</text></g><rect fill="#EEEEEE" height="3" style="stroke:#EEEEEE;stroke-width:1;" width="795.2612" x="0" y="543.8467"/><line style="stroke:#000000;stroke-width:1;" x1="0" x2="795.2612" y1="543.8467" y2="543.8467"/><line style="stroke:#000000;stroke-width:1;" x1="0" x2="795.2612" y1="546.8467" y2="546.8467"/><rect fill="#EEEEEE" height="23.3105" style="stroke:#000000;stroke-width:2;" width="106.8218" x="344.2197" y="533.1914"/><text fill="#000000" font-family="Segoe UI" font-size="13" font-weight="bold" lengthAdjust="spacing" textLength="88.5371" x="350.2197" y="549.7598">Async Events</text><g class="message" data-participant-1="Svc" data-participant-2="Kafka"><line style="stroke:#059669;stroke-width:1;" x1="666.4453" x2="656.4453" y1="587.8125" y2="583.8125"/><line style="stroke:#059669;stroke-width:1;" x1="666.4453" x2="656.4453" y1="587.8125" y2="591.8125"/><line style="stroke:#059669;stroke-width:1;" x1="302.7041" x2="667.4453" y1="587.8125" y2="587.8125"/><text fill="#000000" font-family="Segoe UI" font-size="13" lengthAdjust="spacing" textLength="121.1323" x="309.7041" y="583.0703">reservation.created</text></g><g class="message" data-participant-1="Svc" data-participant-2="GW"><polygon fill="#059669" points="192.1484,613.123,182.1484,617.123,192.1484,621.123,188.1484,617.123" style="stroke:#059669;stroke-width:1;"/><line style="stroke:#059669;stroke-width:1;stroke-dasharray:2,2;" x1="186.1484" x2="296.7041" y1="617.123" y2="617.123"/><text fill="#000000" font-family="Segoe UI" font-size="13" lengthAdjust="spacing" textLength="77.7969" x="198.1484" y="612.3809">201 Created</text></g><g class="message" data-participant-1="GW" data-participant-2="Client"><polygon fill="#059669" points="42.7524,642.4336,32.7524,646.4336,42.7524,650.4336,38.7524,646.4336" style="stroke:#059669;stroke-width:1;"/><line style="stroke:#059669;stroke-width:1;stroke-dasharray:2,2;" x1="36.7524" x2="175.1484" y1="646.4336" y2="646.4336"/><text fill="#000000" font-family="Segoe UI" font-size="13" lengthAdjust="spacing" textLength="77.7969" x="48.7524" y="641.6914">201 Created</text></g><!--SRC=[ZLHDR-8m5BpxLppHCn-bNQ18L8AG8DIgP0jj3rqE9Z718jYiRM3HQl_xFZi1GakbaWEMPppZzzuaUid5cYgwWXcDbecI6n5xCfKAhWBVFaGV6Nf1OxdZ8e4vJJKh836Rqqrg0YdC4rqnA8rP8Xcy34l5u-ptXec8mLy2-Eig9NUvLUt7NQDnvxP3gWoF-9eAqvCgPYgdrFrMezlxHFbuQRyLt0OjHtlaS_R81JkJwTPlUiswmtlopnaKNBU2slKH-jIE843SmK_IdAj6pURife1TQEMDtoJ_237Sf0p2qNW2LSKqKrjgk1Jwb_0KeuO11S5sK808MP_gXPANSYPC2QY6R7aETyCX351dH_UECtY3gtxFx-8WptXw6vMB_euytaRm_bvTyKX92_68wUf7PdKwFRRvJ7AmOTf0gEISfomJ78INzH9BBQzpgbFCstkcE55y3HurD9M9qvjub_KC4ijHHYogOU0scCO7EbzI9-1M2DVyHX2G64_Cg4P6ABL951l_V7IqVWyvdd_hUuG872Z8BLEsFJXYlC3Hcwxvf_vK5cQLNbMVYosBt6mBM_3ASSfSm7X7amIrNuRJAM4Y1cj7I3PQAD_R0ROlv8NGoF2j3OoTSFx-u19Fs2cs0UE7eBBld3OdjWKFzAmqnPE50JdFpxtIbCVqT1HcCjuJqkc0XqtNvN5MEmo5OOdAYkbq2B6dxNL3rFZEp4z63W0UOy7SxB4DfzB2OtXnMJxMDdeWCIkmZkwOZ_Ot4WBUWaLBi7j0jvIdTCRJ3zueTV36vLVU4y-rfdy8Kg4JcA4s39_6_lC4_oOZg5Gg9_b2md1vai- -0Z6ERrVqwVUSJrVlHGJ-5bkb2rxtUQxRnUz69GjTd9CEKQhNhWycHGERRHiVfENP-v8wU2F_0G00]--></g></svg>