<svg xmlns="http://www.w3.org/2000/svg" xmlns:xlink="http://www.w3.org/1999/xlink" contentStyleType="text/css" data-diagram-type="SEQUENCE" height="474px" preserveAspectRatio="none" style="width:490px;height:474px;background:#FEFEFE;" version="1.1" viewBox="0 0 490 474" width="490px" zoomAndPan="magnify"><title>GET /regions</title><defs/><g><rect fill="#FEFEFE" height="474" style="stroke:none;stroke-width:1;" width="490" x="0" y="0"/><text fill="#000000" font-family="Segoe UI" font-size="14" font-weight="bold" lengthAdjust="spacing" textLength="95.4434" x="193.6924" y="28.5352">GET /regions</text><text fill="#000000" font-family="Segoe UI" font-size="14" font-weight="bold" lengthAdjust="spacing" textLength="159.5918" x="161.6182" y="45.0234">List operating regions</text><g><title>API Gateway</title><rect fill="#2563EB" height="189.8633" style="stroke:#A23B72;stroke-width:1;" width="10" x="133.4497" y="188.0859"/></g><g><title>svc-trip-catalog</title><rect fill="#2563EB" height="131.2422" style="stroke:#A23B72;stroke-width:1;" width="10" x="254.1509" y="217.3965"/></g><g><title>PostgreSQL</title><rect fill="#FCE4EC" height="29.3105" style="stroke:#A23B72;stroke-width:1;" width="10" x="432.4033" y="290.0176"/></g><g><title>Client</title><rect fill="#000000" fill-opacity="0.00000" height="274.4844" width="8" x="27.7524" y="121.4648"/><line style="stroke:#A23B72;stroke-width:0.5;stroke-dasharray:5,5;" x1="31" x2="31" y1="121.4648" y2="395.9492"/></g><g><title>API Gateway</title><rect fill="#000000" fill-opacity="0.00000" height="274.4844" width="8" x="134.4497" y="121.4648"/><line style="stroke:#A23B72;stroke-width:0.5;stroke-dasharray:5,5;" x1="138.1606" x2="138.1606" y1="121.4648" y2="395.9492"/></g><g><title>svc-trip-catalog</title><rect fill="#000000" fill-opacity="0.00000" height="274.4844" width="8" x="255.1509" y="121.4648"/><line style="stroke:#A23B72;stroke-width:0.5;stroke-dasharray:5,5;" x1="258.7388" x2="258.7388" y1="121.4648" y2="395.9492"/></g><g><title>PostgreSQL</title><rect fill="#000000" fill-opacity="0.00000" height="274.4844" width="8" x="433.4033" y="121.4648"/><line style="stroke:#A23B72;stroke-width:0.5;stroke-dasharray:5,5;" x1="436.9785" x2="436.9785" y1="121.4648" y2="395.9492"/></g><g class="participant participant-head" data-participant="Client"><rect fill="#E8F4F8" height="30.4883" rx="2.5" ry="2.5" style="stroke:#2E86AB;stroke-width:0.5;" width="53.5049" x="5" y="89.9766"/><text fill="#000000" font-family="Segoe UI" font-size="14" lengthAdjust="spacing" textLength="39.5049" x="12" y="110.5117">Client</text></g><g class="participant participant-tail" data-participant="Client"><rect fill="#E8F4F8" height="30.4883" rx="2.5" ry="2.5" style="stroke:#2E86AB;stroke-width:0.5;" width="53.5049" x="5" y="394.9492"/><text fill="#000000" font-family="Segoe UI" font-size="14" lengthAdjust="spacing" textLength="39.5049" x="12" y="415.4844">Client</text></g><g class="participant participant-head" data-participant="GW"><rect fill="#DBEAFE" height="30.4883" rx="2.5" ry="2.5" style="stroke:#2E86AB;stroke-width:0.5;" width="96.5781" x="90.1606" y="89.9766"/><text fill="#000000" font-family="Segoe UI" font-size="14" lengthAdjust="spacing" textLength="82.5781" x="97.1606" y="110.5117">API Gateway</text></g><g class="participant participant-tail" data-participant="GW"><rect fill="#DBEAFE" height="30.4883" rx="2.5" ry="2.5" style="stroke:#2E86AB;stroke-width:0.5;" width="96.5781" x="90.1606" y="394.9492"/><text fill="#000000" font-family="Segoe UI" font-size="14" lengthAdjust="spacing" textLength="82.5781" x="97.1606" y="415.4844">API Gateway</text></g><g class="participant participant-head" data-participant="Svc"><a href="/microservices/svc-trip-catalog/" target="_top" title="/microservices/svc-trip-catalog/" xlink:actuate="onRequest" xlink:href="/microservices/svc-trip-catalog/" xlink:show="new" xlink:title="/microservices/svc-trip-catalog/" xlink:type="simple"><rect fill="#E8F4F8" height="30.4883" rx="2.5" ry="2.5" style="stroke:#2E86AB;stroke-width:0.5;" width="124.8242" x="196.7388" y="89.9766"/><text fill="#000000" font-family="Segoe UI" font-size="14" lengthAdjust="spacing" textLength="110.8242" x="203.7388" y="110.5117">svc-trip-catalog</text></a></g><g class="participant participant-tail" data-participant="Svc"><a href="/microservices/svc-trip-catalog/" target="_top" title="/microservices/svc-trip-catalog/" xlink:actuate="onRequest" xlink:href="/microservices/svc-trip-catalog/" xlink:show="new" xlink:title="/microservices/svc-trip-catalog/" xlink:type="simple"><rect fill="#E8F4F8" height="30.4883" rx="2.5" ry="2.5" style="stroke:#2E86AB;stroke-width:0.5;" width="124.8242" x="196.7388" y="394.9492"/><text fill="#000000" font-family="Segoe UI" font-size="14" lengthAdjust="spacing" textLength="110.8242" x="203.7388" y="415.4844">svc-trip-catalog</text></a></g><g class="participant participant-head" data-participant="DB"><text fill="#000000" font-family="Segoe UI" font-size="14" lengthAdjust="spacing" textLength="76.8496" x="395.9785" y="118.5117">PostgreSQL</text><path d="M419.4033,68.9766 C419.4033,58.9766 437.4033,58.9766 437.4033,58.9766 C437.4033,58.9766 455.4033,58.9766 455.4033,68.9766 L455.4033,94.9766 C455.4033,104.9766 437.4033,104.9766 437.4033,104.9766 C437.4033,104.9766 419.4033,104.9766 419.4033,94.9766 L419.4033,68.9766" fill="#FCE4EC" style="stroke:#181818;stroke-width:0.5;"/><path d="M419.4033,68.9766 C419.4033,78.9766 437.4033,78.9766 437.4033,78.9766 C437.4033,78.9766 455.4033,78.9766 455.4033,68.9766" fill="none" style="stroke:#181818;stroke-width:0.5;"/></g><g class="participant participant-tail" data-participant="DB"><text fill="#000000" font-family="Segoe UI" font-size="14" lengthAdjust="spacing" textLength="76.8496" x="395.9785" y="408.4844">PostgreSQL</text><path d="M419.4033,421.4375 C419.4033,411.4375 437.4033,411.4375 437.4033,411.4375 C437.4033,411.4375 455.4033,411.4375 455.4033,421.4375 L455.4033,447.4375 C455.4033,457.4375 437.4033,457.4375 437.4033,457.4375 C437.4033,457.4375 419.4033,457.4375 419.4033,447.4375 L419.4033,421.4375" fill="#FCE4EC" style="stroke:#181818;stroke-width:0.5;"/><path d="M419.4033,421.4375 C419.4033,431.4375 437.4033,431.4375 437.4033,431.4375 C437.4033,431.4375 455.4033,431.4375 455.4033,421.4375" fill="none" style="stroke:#181818;stroke-width:0.5;"/></g><g><title>API Gateway</title><rect fill="#2563EB" height="189.8633" style="stroke:#A23B72;stroke-width:1;" width="10" x="133.4497" y="188.0859"/></g><g><title>svc-trip-catalog</title><rect fill="#2563EB" height="131.2422" style="stroke:#A23B72;stroke-width:1;" width="10" x="254.1509" y="217.3965"/></g><g><title>PostgreSQL</title><rect fill="#FCE4EC" height="29.3105" style="stroke:#A23B72;stroke-width:1;" width="10" x="432.4033" y="290.0176"/></g><path d="M188,136.4648 L188,161.4648 L328,161.4648 L328,146.4648 L318,136.4648 L188,136.4648" fill="#FEFFDD" style="stroke:#181818;stroke-width:0.5;"/><path d="M318,136.4648 L318,146.4648 L328,146.4648 L318,136.4648" fill="#FEFFDD" style="stroke:#181818;stroke-width:0.5;"/><a href="/services/api/svc-trip-catalog.html#/Reference%20Data/listRegions" target="_top" title="/services/api/svc-trip-catalog.html#/Reference%20Data/listRegions" xlink:actuate="onRequest" xlink:href="/services/api/svc-trip-catalog.html#/Reference%20Data/listRegions" xlink:show="new" xlink:title="/services/api/svc-trip-catalog.html#/Reference%20Data/listRegions" xlink:type="simple"><text fill="#0000FF" font-family="Segoe UI" font-size="13" lengthAdjust="spacing" text-decoration="underline" textLength="119.4058" x="194" y="154.0332">View in Swagger UI</text></a><g class="message" data-participant-1="Client" data-participant-2="GW"><polygon fill="#2563EB" points="121.4497,184.0859,131.4497,188.0859,121.4497,192.0859,125.4497,188.0859" style="stroke:#2563EB;stroke-width:1;"/><line style="stroke:#2563EB;stroke-width:1;" x1="31.7524" x2="127.4497" y1="188.0859" y2="188.0859"/><text fill="#000000" font-family="Segoe UI" font-size="13" lengthAdjust="spacing" textLength="82.6973" x="38.7524" y="183.3438">GET /regions</text></g><g class="message" data-participant-1="GW" data-participant-2="Svc"><polygon fill="#2563EB" points="242.1509,213.3965,252.1509,217.3965,242.1509,221.3965,246.1509,217.3965" style="stroke:#2563EB;stroke-width:1;"/><line style="stroke:#2563EB;stroke-width:1;" x1="143.4497" x2="248.1509" y1="217.3965" y2="217.3965"/><text fill="#000000" font-family="Segoe UI" font-size="13" lengthAdjust="spacing" textLength="85.1348" x="150.4497" y="212.6543">route request</text></g><rect fill="#EEEEEE" height="3" style="stroke:#EEEEEE;stroke-width:1;" width="483.8281" x="0" y="246.0518"/><line style="stroke:#000000;stroke-width:1;" x1="0" x2="483.8281" y1="246.0518" y2="246.0518"/><line style="stroke:#000000;stroke-width:1;" x1="0" x2="483.8281" y1="249.0518" y2="249.0518"/><rect fill="#EEEEEE" height="23.3105" style="stroke:#000000;stroke-width:2;" width="80.3711" x="201.7285" y="235.3965"/><text fill="#000000" font-family="Segoe UI" font-size="13" font-weight="bold" lengthAdjust="spacing" textLength="62.0864" x="207.7285" y="251.9648">Database</text><g class="message" data-participant-1="Svc" data-participant-2="DB"><polygon fill="#2563EB" points="420.4033,286.0176,430.4033,290.0176,420.4033,294.0176,424.4033,290.0176" style="stroke:#2563EB;stroke-width:1;"/><line style="stroke:#2563EB;stroke-width:1;" x1="264.1509" x2="426.4033" y1="290.0176" y2="290.0176"/><text fill="#000000" font-family="Segoe UI" font-size="13" lengthAdjust="spacing" textLength="149.2524" x="271.1509" y="285.2754">SELECT ... WHERE filters</text></g><g class="message" data-participant-1="DB" data-participant-2="Svc"><polygon fill="#2563EB" points="275.1509,315.3281,265.1509,319.3281,275.1509,323.3281,271.1509,319.3281" style="stroke:#2563EB;stroke-width:1;"/><line style="stroke:#2563EB;stroke-width:1;stroke-dasharray:2,2;" x1="269.1509" x2="436.4033" y1="319.3281" y2="319.3281"/><text fill="#000000" font-family="Segoe UI" font-size="13" lengthAdjust="spacing" textLength="93.209" x="281.1509" y="314.5859">Page of results</text></g><g class="message" data-participant-1="Svc" data-participant-2="GW"><polygon fill="#2563EB" points="154.4497,344.6387,144.4497,348.6387,154.4497,352.6387,150.4497,348.6387" style="stroke:#2563EB;stroke-width:1;"/><line style="stroke:#2563EB;stroke-width:1;stroke-dasharray:2,2;" x1="148.4497" x2="258.1509" y1="348.6387" y2="348.6387"/><text fill="#000000" font-family="Segoe UI" font-size="13" lengthAdjust="spacing" textLength="47.3599" x="160.4497" y="343.8965">200 OK</text></g><g class="message" data-participant-1="GW" data-participant-2="Client"><polygon fill="#2563EB" points="42.7524,373.9492,32.7524,377.9492,42.7524,381.9492,38.7524,377.9492" style="stroke:#2563EB;stroke-width:1;"/><line style="stroke:#2563EB;stroke-width:1;stroke-dasharray:2,2;" x1="36.7524" x2="137.4497" y1="377.9492" y2="377.9492"/><text fill="#000000" font-family="Segoe UI" font-size="13" lengthAdjust="spacing" textLength="47.3599" x="48.7524" y="373.207">200 OK</text></g><!--SRC=[RPDVRzem5CNV_IckG7k4KEWAGc8I0OUXeOv1Enuw7anoareDTcORw3Jjk-yc_6bI6buidvDxE3yxzaMgJ1YnXOq8NnAZToeQwLGRg0Sy_p5xSTXd4Uc3L0d48hLOKYACnIvrWLRkNcmHQajCDCBZj5P-7N_lK8K8VndGCpH67qvHxSzt7TmKstDXd0nb9fJpjOdGd2syTpVqhopl_pJl1RT1hx3DP8mpgR0oPjZk-DrseVlwjI85DxsWTNEHhd040Uc5VAzTTMhOxMuw9Uq3b1tUPVyOSzAb21F-09x1H6fbVwcPj0vqXaQu7Evfdx7ihIVKHgb4vMeWB1oNLNaudy94E3o8FuLdieBwsET3Ei2Ap-x3XZCoQuJ2YLGdXNcv3-7foTlAq6YBPYz3jDvxfxTUN_16jBKHbWvwhgrB32v_p8f9Ov_AZlWj7p6cY0JeFPfyFh6XXCjmaSchWEQpswPrRu4ncloUV6gtngHuAU5P79d0Jua7a0gM1v4aDFbnkbupL17aOOmToK3ZIzw_Ny7CHEZadWWLQ4uNZfRapUltWSwBH9DVKklUtBbujhF10CRdweC1Oxb80wXr7vPynaSFq6msOVMLBpZ4CdLeIi4bEBHiN9Bd8Y5GCMLR-eWiYx3qoYdaNAdTQi7tRsLB3ZVlGOvJ_OzSanNx3m00]--></g></svg>