<?xml version="1.0" encoding="UTF-8" standalone="no"?><svg xmlns="http://www.w3.org/2000/svg" xmlns:xlink="http://www.w3.org/1999/xlink" contentScriptType="application/ecmascript" contentStyleType="text/css" height="784px" preserveAspectRatio="none" style="width:1042px;height:784px;background:#FEFEFE;" version="1.1" viewBox="0 0 1042 784" width="1042px" zoomAndPan="magnify"><defs/><g><text fill="#000000" font-family="Segoe UI" font-size="18" lengthAdjust="spacingAndGlyphs" textLength="341" x="346" y="41.3486">POST /payments/{payment_id}/refund</text><text fill="#000000" font-family="Segoe UI" font-size="18" lengthAdjust="spacingAndGlyphs" textLength="142" x="445.5" y="62.3018">Initiate a refund</text><rect fill="#059669" height="490.9922" style="stroke: #6B7280; stroke-width: 1.0;" width="10" x="299.5" y="202.1094"/><rect fill="#059669" height="432.7266" style="stroke: #6B7280; stroke-width: 1.0;" width="10" x="415.5" y="231.2422"/><rect fill="#F3F4F6" height="29.1328" style="stroke: #6B7280; stroke-width: 1.0;" width="10" x="618.5" y="338.6406"/><rect fill="#FEF9C3" height="29.1328" style="stroke: #6B7280; stroke-width: 1.0;" width="10" x="848.5" y="440.0391"/><rect fill="#FEF9C3" height="29.1328" style="stroke: #6B7280; stroke-width: 1.0;" width="10" x="848.5" y="533.4375"/><line style="stroke: #6B7280; stroke-width: 1.0; stroke-dasharray: 5.0,5.0;" x1="34" x2="34" y1="135.8438" y2="711.1016"/><line style="stroke: #6B7280; stroke-width: 1.0; stroke-dasharray: 5.0,5.0;" x1="304.5" x2="304.5" y1="135.8438" y2="711.1016"/><line style="stroke: #6B7280; stroke-width: 1.0; stroke-dasharray: 5.0,5.0;" x1="420.5" x2="420.5" y1="135.8438" y2="711.1016"/><line style="stroke: #6B7280; stroke-width: 1.0; stroke-dasharray: 5.0,5.0;" x1="623" x2="623" y1="135.8438" y2="711.1016"/><line style="stroke: #6B7280; stroke-width: 1.0; stroke-dasharray: 5.0,5.0;" x1="751" x2="751" y1="135.8438" y2="711.1016"/><line style="stroke: #6B7280; stroke-width: 1.0; stroke-dasharray: 5.0,5.0;" x1="853" x2="853" y1="135.8438" y2="711.1016"/><a href="/applications/" target="_top" title="/applications/" xlink:actuate="onRequest" xlink:href="/applications/" xlink:show="new" xlink:title="/applications/" xlink:type="simple"><rect fill="#F9FAFB" height="30.2969" style="stroke: #374151; stroke-width: 1.5;" width="53" x="8" y="104.5469"/><text fill="#000000" font-family="Segoe UI" font-size="14" lengthAdjust="spacingAndGlyphs" textLength="39" x="15" y="124.542">Client</text><rect fill="#F9FAFB" height="30.2969" style="stroke: #374151; stroke-width: 1.5;" width="53" x="8" y="710.1016"/><text fill="#000000" font-family="Segoe UI" font-size="14" lengthAdjust="spacingAndGlyphs" textLength="39" x="15" y="730.0967">Client</text></a><a href="/actors/#api-gateway" target="_top" title="/actors/#api-gateway" xlink:actuate="onRequest" xlink:href="/actors/#api-gateway" xlink:show="new" xlink:title="/actors/#api-gateway" xlink:type="simple"><rect fill="#E0F2FE" height="30.2969" style="stroke: #374151; stroke-width: 1.5;" width="98" x="255.5" y="104.5469"/><text fill="#000000" font-family="Segoe UI" font-size="14" lengthAdjust="spacingAndGlyphs" textLength="84" x="262.5" y="124.542">API Gateway</text><rect fill="#E0F2FE" height="30.2969" style="stroke: #374151; stroke-width: 1.5;" width="98" x="255.5" y="710.1016"/><text fill="#000000" font-family="Segoe UI" font-size="14" lengthAdjust="spacingAndGlyphs" textLength="84" x="262.5" y="730.0967">API Gateway</text></a><a href="/microservices/svc-payments/" target="_top" title="/microservices/svc-payments/" xlink:actuate="onRequest" xlink:href="/microservices/svc-payments/" xlink:show="new" xlink:title="/microservices/svc-payments/" xlink:type="simple"><rect fill="#FEE2E2" height="30.2969" style="stroke: #374151; stroke-width: 1.5;" width="110" x="365.5" y="104.5469"/><text fill="#000000" font-family="Segoe UI" font-size="14" lengthAdjust="spacingAndGlyphs" textLength="96" x="372.5" y="124.542">svc-payments</text><rect fill="#FEE2E2" height="30.2969" style="stroke: #374151; stroke-width: 1.5;" width="110" x="365.5" y="710.1016"/><text fill="#000000" font-family="Segoe UI" font-size="14" lengthAdjust="spacingAndGlyphs" textLength="96" x="372.5" y="730.0967">svc-payments</text></a><a href="/actors/#payment-gateway" target="_top" title="/actors/#payment-gateway" xlink:actuate="onRequest" xlink:href="/actors/#payment-gateway" xlink:show="new" xlink:title="/actors/#payment-gateway" xlink:type="simple"><rect fill="#FEE2E2" height="30.2969" style="stroke: #374151; stroke-width: 1.5;" width="137" x="555" y="104.5469"/><text fill="#000000" font-family="Segoe UI" font-size="14" lengthAdjust="spacingAndGlyphs" textLength="123" x="562" y="124.542">Payment Gateway</text><rect fill="#FEE2E2" height="30.2969" style="stroke: #374151; stroke-width: 1.5;" width="137" x="555" y="710.1016"/><text fill="#000000" font-family="Segoe UI" font-size="14" lengthAdjust="spacingAndGlyphs" textLength="123" x="562" y="730.0967">Payment Gateway</text></a><a href="/microservices/svc-notifications/" target="_top" title="/microservices/svc-notifications/" xlink:actuate="onRequest" xlink:href="/microservices/svc-notifications/" xlink:show="new" xlink:title="/microservices/svc-notifications/" xlink:type="simple"><rect fill="#F1F5F9" height="30.2969" style="stroke: #374151; stroke-width: 1.5;" width="98" x="702" y="104.5469"/><text fill="#000000" font-family="Segoe UI" font-size="14" lengthAdjust="spacingAndGlyphs" textLength="84" x="709" y="124.542">Notifications</text><rect fill="#F1F5F9" height="30.2969" style="stroke: #374151; stroke-width: 1.5;" width="98" x="702" y="710.1016"/><text fill="#000000" font-family="Segoe UI" font-size="14" lengthAdjust="spacingAndGlyphs" textLength="84" x="709" y="730.0967">Notifications</text></a><a href="/microservices/svc-payments/#data-store" target="_top" title="/microservices/svc-payments/#data-store" xlink:actuate="onRequest" xlink:href="/microservices/svc-payments/#data-store" xlink:show="new" xlink:title="/microservices/svc-payments/#data-store" xlink:type="simple"><text fill="#000000" font-family="Segoe UI" font-size="14" lengthAdjust="spacingAndGlyphs" textLength="81" x="810" y="132.542">PostgreSQL</text><path d="M835.5,83.5469 C835.5,73.5469 853.5,73.5469 853.5,73.5469 C853.5,73.5469 871.5,73.5469 871.5,83.5469 L871.5,109.5469 C871.5,119.5469 853.5,119.5469 853.5,119.5469 C853.5,119.5469 835.5,119.5469 835.5,109.5469 L835.5,83.5469 " fill="#FEF9C3" style="stroke: #000000; stroke-width: 1.5;"/><path d="M835.5,83.5469 C835.5,93.5469 853.5,93.5469 853.5,93.5469 C853.5,93.5469 871.5,93.5469 871.5,83.5469 " fill="none" style="stroke: #000000; stroke-width: 1.5;"/><text fill="#000000" font-family="Segoe UI" font-size="14" lengthAdjust="spacingAndGlyphs" textLength="81" x="810" y="723.0967">PostgreSQL</text><path d="M835.5,736.3984 C835.5,726.3984 853.5,726.3984 853.5,726.3984 C853.5,726.3984 871.5,726.3984 871.5,736.3984 L871.5,762.3984 C871.5,772.3984 853.5,772.3984 853.5,772.3984 C853.5,772.3984 835.5,772.3984 835.5,762.3984 L835.5,736.3984 " fill="#FEF9C3" style="stroke: #000000; stroke-width: 1.5;"/><path d="M835.5,736.3984 C835.5,746.3984 853.5,746.3984 853.5,746.3984 C853.5,746.3984 871.5,746.3984 871.5,736.3984 " fill="none" style="stroke: #000000; stroke-width: 1.5;"/></a><rect fill="#059669" height="490.9922" style="stroke: #6B7280; stroke-width: 1.0;" width="10" x="299.5" y="202.1094"/><rect fill="#059669" height="432.7266" style="stroke: #6B7280; stroke-width: 1.0;" width="10" x="415.5" y="231.2422"/><rect fill="#F3F4F6" height="29.1328" style="stroke: #6B7280; stroke-width: 1.0;" width="10" x="618.5" y="338.6406"/><rect fill="#FEF9C3" height="29.1328" style="stroke: #6B7280; stroke-width: 1.0;" width="10" x="848.5" y="440.0391"/><rect fill="#FEF9C3" height="29.1328" style="stroke: #6B7280; stroke-width: 1.0;" width="10" x="848.5" y="533.4375"/><path d="M350,150.8438 L350,175.8438 L491,175.8438 L491,160.8438 L481,150.8438 L350,150.8438 " fill="#FBFB77" style="stroke: #A80036; stroke-width: 1.0;"/><path d="M481,150.8438 L481,160.8438 L491,160.8438 L481,150.8438 " fill="#FBFB77" style="stroke: #A80036; stroke-width: 1.0;"/><a href="/services/api/svc-payments.html#/Refunds/refundPayment" target="_top" title="/services/api/svc-payments.html#/Refunds/refundPayment" xlink:actuate="onRequest" xlink:href="/services/api/svc-payments.html#/Refunds/refundPayment" xlink:show="new" xlink:title="/services/api/svc-payments.html#/Refunds/refundPayment" xlink:type="simple"><text fill="#0000FF" font-family="Segoe UI" font-size="13" lengthAdjust="spacingAndGlyphs" text-decoration="underline" textLength="120" x="356" y="167.9106">View in Swagger UI</text></a><polygon fill="#059669" points="287.5,198.1094,297.5,202.1094,287.5,206.1094,291.5,202.1094" style="stroke: #059669; stroke-width: 1.0;"/><line style="stroke: #059669; stroke-width: 1.0;" x1="34.5" x2="293.5" y1="202.1094" y2="202.1094"/><text fill="#000000" font-family="Segoe UI" font-size="13" lengthAdjust="spacingAndGlyphs" textLength="246" x="41.5" y="197.0435">POST /payments/{payment_id}/refund</text><polygon fill="#059669" points="403.5,227.2422,413.5,231.2422,403.5,235.2422,407.5,231.2422" style="stroke: #059669; stroke-width: 1.0;"/><line style="stroke: #059669; stroke-width: 1.0;" x1="309.5" x2="409.5" y1="231.2422" y2="231.2422"/><text fill="#000000" font-family="Segoe UI" font-size="13" lengthAdjust="spacingAndGlyphs" textLength="87" x="316.5" y="226.1763">route request</text><path d="M430,244.2422 L430,269.2422 L591,269.2422 L591,254.2422 L581,244.2422 L430,244.2422 " fill="#FBFB77" style="stroke: #A80036; stroke-width: 1.0;"/><path d="M581,244.2422 L581,254.2422 L591,254.2422 L581,244.2422 " fill="#FBFB77" style="stroke: #A80036; stroke-width: 1.0;"/><text fill="#000000" font-family="Segoe UI" font-size="13" lengthAdjust="spacingAndGlyphs" textLength="140" x="436" y="261.3091">Validate request body</text><rect fill="#EEEEEE" height="3" style="stroke: #EEEEEE; stroke-width: 1.0;" width="1027" x="3" y="294.9414"/><line style="stroke: #000000; stroke-width: 1.0;" x1="3" x2="1030" y1="294.9414" y2="294.9414"/><line style="stroke: #000000; stroke-width: 1.0;" x1="3" x2="1030" y1="297.9414" y2="297.9414"/><rect fill="#EEEEEE" height="23.1328" style="stroke: #000000; stroke-width: 2.0;" width="204" x="414.5" y="284.375"/><text fill="#000000" font-family="Segoe UI" font-size="13" font-weight="bold" lengthAdjust="spacingAndGlyphs" textLength="185" x="420.5" y="300.4419">Cross-Service Integration</text><polygon fill="#DC2626" points="606.5,334.6406,616.5,338.6406,606.5,342.6406,610.5,338.6406" style="stroke: #DC2626; stroke-width: 1.0;"/><line style="stroke: #DC2626; stroke-width: 1.0;" x1="425.5" x2="612.5" y1="338.6406" y2="338.6406"/><text fill="#000000" font-family="Segoe UI" font-size="13" lengthAdjust="spacingAndGlyphs" textLength="174" x="432.5" y="333.5747">Process refund via gateway</text><polygon fill="#DC2626" points="436.5,363.7734,426.5,367.7734,436.5,371.7734,432.5,367.7734" style="stroke: #DC2626; stroke-width: 1.0;"/><line style="stroke: #DC2626; stroke-width: 1.0; stroke-dasharray: 2.0,2.0;" x1="430.5" x2="622.5" y1="367.7734" y2="367.7734"/><text fill="#000000" font-family="Segoe UI" font-size="13" lengthAdjust="spacingAndGlyphs" textLength="18" x="442.5" y="362.7075">OK</text><rect fill="#EEEEEE" height="3" style="stroke: #EEEEEE; stroke-width: 1.0;" width="1027" x="3" y="396.3398"/><line style="stroke: #000000; stroke-width: 1.0;" x1="3" x2="1030" y1="396.3398" y2="396.3398"/><line style="stroke: #000000; stroke-width: 1.0;" x1="3" x2="1030" y1="399.3398" y2="399.3398"/><rect fill="#EEEEEE" height="23.1328" style="stroke: #000000; stroke-width: 2.0;" width="90" x="471.5" y="385.7734"/><text fill="#000000" font-family="Segoe UI" font-size="13" font-weight="bold" lengthAdjust="spacingAndGlyphs" textLength="71" x="477.5" y="401.8403">Database</text><polygon fill="#059669" points="836.5,436.0391,846.5,440.0391,836.5,444.0391,840.5,440.0391" style="stroke: #059669; stroke-width: 1.0;"/><line style="stroke: #059669; stroke-width: 1.0;" x1="425.5" x2="842.5" y1="440.0391" y2="440.0391"/><text fill="#000000" font-family="Segoe UI" font-size="13" lengthAdjust="spacingAndGlyphs" textLength="184" x="432.5" y="434.9731">SELECT parent WHERE id = ?</text><polygon fill="#059669" points="436.5,465.1719,426.5,469.1719,436.5,473.1719,432.5,469.1719" style="stroke: #059669; stroke-width: 1.0;"/><line style="stroke: #059669; stroke-width: 1.0; stroke-dasharray: 2.0,2.0;" x1="430.5" x2="852.5" y1="469.1719" y2="469.1719"/><text fill="#000000" font-family="Segoe UI" font-size="13" lengthAdjust="spacingAndGlyphs" textLength="68" x="442.5" y="464.106">Parent row</text><path d="M858,482.1719 L858,507.1719 L1025,507.1719 L1025,492.1719 L1015,482.1719 L858,482.1719 " fill="#FBFB77" style="stroke: #A80036; stroke-width: 1.0;"/><path d="M1015,482.1719 L1015,492.1719 L1025,492.1719 L1015,482.1719 " fill="#FBFB77" style="stroke: #A80036; stroke-width: 1.0;"/><text fill="#000000" font-family="Segoe UI" font-size="13" lengthAdjust="spacingAndGlyphs" textLength="146" x="864" y="499.2388">404 if parent not found</text><polygon fill="#059669" points="836.5,529.4375,846.5,533.4375,836.5,537.4375,840.5,533.4375" style="stroke: #059669; stroke-width: 1.0;"/><line style="stroke: #059669; stroke-width: 1.0;" x1="425.5" x2="842.5" y1="533.4375" y2="533.4375"/><text fill="#000000" font-family="Segoe UI" font-size="13" lengthAdjust="spacingAndGlyphs" textLength="95" x="432.5" y="528.3716">INSERT INTO ...</text><polygon fill="#059669" points="436.5,558.5703,426.5,562.5703,436.5,566.5703,432.5,562.5703" style="stroke: #059669; stroke-width: 1.0;"/><line style="stroke: #059669; stroke-width: 1.0; stroke-dasharray: 2.0,2.0;" x1="430.5" x2="852.5" y1="562.5703" y2="562.5703"/><text fill="#000000" font-family="Segoe UI" font-size="13" lengthAdjust="spacingAndGlyphs" textLength="77" x="442.5" y="557.5044">Created row</text><rect fill="#EEEEEE" height="3" style="stroke: #EEEEEE; stroke-width: 1.0;" width="1027" x="3" y="591.1367"/><line style="stroke: #000000; stroke-width: 1.0;" x1="3" x2="1030" y1="591.1367" y2="591.1367"/><line style="stroke: #000000; stroke-width: 1.0;" x1="3" x2="1030" y1="594.1367" y2="594.1367"/><rect fill="#EEEEEE" height="23.1328" style="stroke: #000000; stroke-width: 2.0;" width="116" x="458.5" y="580.5703"/><text fill="#000000" font-family="Segoe UI" font-size="13" font-weight="bold" lengthAdjust="spacingAndGlyphs" textLength="97" x="464.5" y="596.6372">Async Events</text><line style="stroke: #059669; stroke-width: 1.0;" x1="749" x2="739" y1="634.8359" y2="630.8359"/><line style="stroke: #059669; stroke-width: 1.0;" x1="749" x2="739" y1="634.8359" y2="638.8359"/><line style="stroke: #059669; stroke-width: 1.0;" x1="425.5" x2="750" y1="634.8359" y2="634.8359"/><a href="/microservices/svc-notifications/#post-notifications-send-a-notification" target="_top" title="/microservices/svc-notifications/#post-notifications-send-a-notification" xlink:actuate="onRequest" xlink:href="/microservices/svc-notifications/#post-notifications-send-a-notification" xlink:show="new" xlink:title="/microservices/svc-notifications/#post-notifications-send-a-notification" xlink:type="simple"><text fill="#0000FF" font-family="Segoe UI" font-size="13" lengthAdjust="spacingAndGlyphs" text-decoration="underline" textLength="162" x="432.5" y="629.77">Send refund confirmation</text></a><polygon fill="#059669" points="320.5,659.9688,310.5,663.9688,320.5,667.9688,316.5,663.9688" style="stroke: #059669; stroke-width: 1.0;"/><line style="stroke: #059669; stroke-width: 1.0; stroke-dasharray: 2.0,2.0;" x1="314.5" x2="419.5" y1="663.9688" y2="663.9688"/><text fill="#000000" font-family="Segoe UI" font-size="13" lengthAdjust="spacingAndGlyphs" textLength="79" x="326.5" y="658.9028">201 Created</text><polygon fill="#059669" points="45.5,689.1016,35.5,693.1016,45.5,697.1016,41.5,693.1016" style="stroke: #059669; stroke-width: 1.0;"/><line style="stroke: #059669; stroke-width: 1.0; stroke-dasharray: 2.0,2.0;" x1="39.5" x2="303.5" y1="693.1016" y2="693.1016"/><text fill="#000000" font-family="Segoe UI" font-size="13" lengthAdjust="spacingAndGlyphs" textLength="79" x="51.5" y="688.0356">201 Created</text><a href="/microservices/svc-payments/#integration-context" target="_top" title="/microservices/svc-payments/#integration-context" xlink:actuate="onRequest" xlink:href="/microservices/svc-payments/#integration-context" xlink:show="new" xlink:title="/microservices/svc-payments/#integration-context" xlink:type="simple"><text fill="#0000FF" font-family="Segoe UI" font-size="10" lengthAdjust="spacingAndGlyphs" text-decoration="underline" textLength="179" x="851" y="12.2822">⬆ svc-payments Integration Context</text></a><!--MD5=[9313466ed69ea6b731338b21d38cb4e9]
@startuml svc-payments- -post-payments-payment_id-refund

skinparam backgroundColor #FEFEFE
skinparam shadowing false
skinparam defaultFontName "Segoe UI"
skinparam sequence {
    ArrowColor #059669
    ParticipantBorderColor #374151
    ParticipantBackgroundColor #F9FAFB
    LifeLineBorderColor #6B7280
    BoxBorderColor #94A3B8
    BoxBackgroundColor #F8FAFC
    NoteBorderColor #64748B
    NoteBackgroundColor #F8FAFC
}

header [[/microservices/svc-payments/#integration-context ⬆ svc-payments Integration Context]]

title POST /payments/{payment_id}/refund\nInitiate a refund

participant "Client" as Client [[/applications/]]
participant "API Gateway" as GW [[/actors/#api-gateway]] #E0F2FE
participant "svc-payments" as Svc [[/microservices/svc-payments/]] #FEE2E2
participant "Payment Gateway" as PGW [[/actors/#payment-gateway]] #FEE2E2
participant "Notifications" as Ntfy [[/microservices/svc-notifications/]] #F1F5F9
database "PostgreSQL" as DB [[/microservices/svc-payments/#data-store]] #FEF9C3

note over Svc
  [[/services/api/svc-payments.html#/Refunds/refundPayment View in Swagger UI]]
end note

Client -> GW : POST /payments/{payment_id}/refund
activate GW #059669
GW -> Svc : route request
activate Svc #059669

note right of Svc : Validate request body

== Cross-Service Integration ==

Svc -[#DC2626]> PGW : Process refund via gateway
activate PGW #F3F4F6
PGW - -[#DC2626]> Svc : OK
deactivate PGW

== Database ==

Svc -> DB : SELECT parent WHERE id = ?
activate DB #FEF9C3
DB - -> Svc : Parent row
deactivate DB
note right of DB : 404 if parent not found

Svc -> DB : INSERT INTO ...
activate DB #FEF9C3
DB - -> Svc : Created row
deactivate DB

== Async Events ==

Svc ->> Ntfy : [[/microservices/svc-notifications/#post-notifications-send-a-notification Send refund confirmation]]

Svc - -> GW : 201 Created
deactivate Svc
GW - -> Client : 201 Created
deactivate GW

@enduml

PlantUML version 1.2020.02(Sun Mar 01 10:22:07 UTC 2020)
(GPL source distribution)
Java Runtime: OpenJDK Runtime Environment
JVM: OpenJDK 64-Bit Server VM
Java Version: 17.0.18+8
Operating System: Linux
Default Encoding: UTF-8
Language: en
Country: null
--></g></svg>