<?xml version="1.0" encoding="UTF-8" standalone="no"?><svg xmlns="http://www.w3.org/2000/svg" xmlns:xlink="http://www.w3.org/1999/xlink" contentScriptType="application/ecmascript" contentStyleType="text/css" height="482px" preserveAspectRatio="none" style="width:562px;height:482px;background:#FEFEFE;" version="1.1" viewBox="0 0 562 482" width="562px" zoomAndPan="magnify"><defs/><g><text fill="#000000" font-family="Segoe UI" font-size="18" lengthAdjust="spacingAndGlyphs" textLength="193" x="180.25" y="41.3486">GET /inventory-levels</text><text fill="#000000" font-family="Segoe UI" font-size="18" lengthAdjust="spacingAndGlyphs" textLength="365" x="94.25" y="62.3018">Get stock levels by location and category</text><rect fill="#2563EB" height="188.7969" style="stroke: #6B7280; stroke-width: 1.0;" width="10" x="186.5" y="202.1094"/><rect fill="#2563EB" height="130.5313" style="stroke: #6B7280; stroke-width: 1.0;" width="10" x="316" y="231.2422"/><rect fill="#FEF9C3" height="29.1328" style="stroke: #6B7280; stroke-width: 1.0;" width="10" x="497" y="303.5078"/><line style="stroke: #6B7280; stroke-width: 1.0; stroke-dasharray: 5.0,5.0;" x1="34" x2="34" y1="135.8438" y2="408.9063"/><line style="stroke: #6B7280; stroke-width: 1.0; stroke-dasharray: 5.0,5.0;" x1="191.5" x2="191.5" y1="135.8438" y2="408.9063"/><line style="stroke: #6B7280; stroke-width: 1.0; stroke-dasharray: 5.0,5.0;" x1="320.5" x2="320.5" y1="135.8438" y2="408.9063"/><line style="stroke: #6B7280; stroke-width: 1.0; stroke-dasharray: 5.0,5.0;" x1="501.5" x2="501.5" y1="135.8438" y2="408.9063"/><a href="/applications/" target="_top" title="/applications/" xlink:actuate="onRequest" xlink:href="/applications/" xlink:show="new" xlink:title="/applications/" xlink:type="simple"><rect fill="#F9FAFB" height="30.2969" style="stroke: #374151; stroke-width: 1.5;" width="53" x="8" y="104.5469"/><text fill="#000000" font-family="Segoe UI" font-size="14" lengthAdjust="spacingAndGlyphs" textLength="39" x="15" y="124.542">Client</text><rect fill="#F9FAFB" height="30.2969" style="stroke: #374151; stroke-width: 1.5;" width="53" x="8" y="407.9063"/><text fill="#000000" font-family="Segoe UI" font-size="14" lengthAdjust="spacingAndGlyphs" textLength="39" x="15" y="427.9014">Client</text></a><a href="/actors/#api-gateway" target="_top" title="/actors/#api-gateway" xlink:actuate="onRequest" xlink:href="/actors/#api-gateway" xlink:show="new" xlink:title="/actors/#api-gateway" xlink:type="simple"><rect fill="#E0F2FE" height="30.2969" style="stroke: #374151; stroke-width: 1.5;" width="98" x="142.5" y="104.5469"/><text fill="#000000" font-family="Segoe UI" font-size="14" lengthAdjust="spacingAndGlyphs" textLength="84" x="149.5" y="124.542">API Gateway</text><rect fill="#E0F2FE" height="30.2969" style="stroke: #374151; stroke-width: 1.5;" width="98" x="142.5" y="407.9063"/><text fill="#000000" font-family="Segoe UI" font-size="14" lengthAdjust="spacingAndGlyphs" textLength="84" x="149.5" y="427.9014">API Gateway</text></a><a href="/microservices/svc-gear-inventory/" target="_top" title="/microservices/svc-gear-inventory/" xlink:actuate="onRequest" xlink:href="/microservices/svc-gear-inventory/" xlink:show="new" xlink:title="/microservices/svc-gear-inventory/" xlink:type="simple"><rect fill="#CFFAFE" height="30.2969" style="stroke: #374151; stroke-width: 1.5;" width="141" x="250.5" y="104.5469"/><text fill="#000000" font-family="Segoe UI" font-size="14" lengthAdjust="spacingAndGlyphs" textLength="127" x="257.5" y="124.542">svc-gear-inventory</text><rect fill="#CFFAFE" height="30.2969" style="stroke: #374151; stroke-width: 1.5;" width="141" x="250.5" y="407.9063"/><text fill="#000000" font-family="Segoe UI" font-size="14" lengthAdjust="spacingAndGlyphs" textLength="127" x="257.5" y="427.9014">svc-gear-inventory</text></a><a href="/microservices/svc-gear-inventory/#data-store" target="_top" title="/microservices/svc-gear-inventory/#data-store" xlink:actuate="onRequest" xlink:href="/microservices/svc-gear-inventory/#data-store" xlink:show="new" xlink:title="/microservices/svc-gear-inventory/#data-store" xlink:type="simple"><text fill="#000000" font-family="Segoe UI" font-size="14" lengthAdjust="spacingAndGlyphs" textLength="81" x="458.5" y="132.542">PostgreSQL</text><path d="M484,83.5469 C484,73.5469 502,73.5469 502,73.5469 C502,73.5469 520,73.5469 520,83.5469 L520,109.5469 C520,119.5469 502,119.5469 502,119.5469 C502,119.5469 484,119.5469 484,109.5469 L484,83.5469 " fill="#FEF9C3" style="stroke: #000000; stroke-width: 1.5;"/><path d="M484,83.5469 C484,93.5469 502,93.5469 502,93.5469 C502,93.5469 520,93.5469 520,83.5469 " fill="none" style="stroke: #000000; stroke-width: 1.5;"/><text fill="#000000" font-family="Segoe UI" font-size="14" lengthAdjust="spacingAndGlyphs" textLength="81" x="458.5" y="420.9014">PostgreSQL</text><path d="M484,434.2031 C484,424.2031 502,424.2031 502,424.2031 C502,424.2031 520,424.2031 520,434.2031 L520,460.2031 C520,470.2031 502,470.2031 502,470.2031 C502,470.2031 484,470.2031 484,460.2031 L484,434.2031 " fill="#FEF9C3" style="stroke: #000000; stroke-width: 1.5;"/><path d="M484,434.2031 C484,444.2031 502,444.2031 502,444.2031 C502,444.2031 520,444.2031 520,434.2031 " fill="none" style="stroke: #000000; stroke-width: 1.5;"/></a><rect fill="#2563EB" height="188.7969" style="stroke: #6B7280; stroke-width: 1.0;" width="10" x="186.5" y="202.1094"/><rect fill="#2563EB" height="130.5313" style="stroke: #6B7280; stroke-width: 1.0;" width="10" x="316" y="231.2422"/><rect fill="#FEF9C3" height="29.1328" style="stroke: #6B7280; stroke-width: 1.0;" width="10" x="497" y="303.5078"/><path d="M250,150.8438 L250,175.8438 L391,175.8438 L391,160.8438 L381,150.8438 L250,150.8438 " fill="#FBFB77" style="stroke: #A80036; stroke-width: 1.0;"/><path d="M381,150.8438 L381,160.8438 L391,160.8438 L381,150.8438 " fill="#FBFB77" style="stroke: #A80036; stroke-width: 1.0;"/><a href="/services/api/svc-gear-inventory.html#/Inventory%20Levels/getInventoryLevels" target="_top" title="/services/api/svc-gear-inventory.html#/Inventory%20Levels/getInventoryLevels" xlink:actuate="onRequest" xlink:href="/services/api/svc-gear-inventory.html#/Inventory%20Levels/getInventoryLevels" xlink:show="new" xlink:title="/services/api/svc-gear-inventory.html#/Inventory%20Levels/getInventoryLevels" xlink:type="simple"><text fill="#0000FF" font-family="Segoe UI" font-size="13" lengthAdjust="spacingAndGlyphs" text-decoration="underline" textLength="120" x="256" y="167.9106">View in Swagger UI</text></a><polygon fill="#2563EB" points="174.5,198.1094,184.5,202.1094,174.5,206.1094,178.5,202.1094" style="stroke: #2563EB; stroke-width: 1.0;"/><line style="stroke: #2563EB; stroke-width: 1.0;" x1="34.5" x2="180.5" y1="202.1094" y2="202.1094"/><text fill="#000000" font-family="Segoe UI" font-size="13" lengthAdjust="spacingAndGlyphs" textLength="133" x="41.5" y="197.0435">GET /inventory-levels</text><polygon fill="#2563EB" points="304,227.2422,314,231.2422,304,235.2422,308,231.2422" style="stroke: #2563EB; stroke-width: 1.0;"/><line style="stroke: #2563EB; stroke-width: 1.0;" x1="196.5" x2="310" y1="231.2422" y2="231.2422"/><text fill="#000000" font-family="Segoe UI" font-size="13" lengthAdjust="spacingAndGlyphs" textLength="87" x="203.5" y="226.1763">route request</text><rect fill="#EEEEEE" height="3" style="stroke: #EEEEEE; stroke-width: 1.0;" width="547.5" x="3" y="259.8086"/><line style="stroke: #000000; stroke-width: 1.0;" x1="3" x2="550.5" y1="259.8086" y2="259.8086"/><line style="stroke: #000000; stroke-width: 1.0;" x1="3" x2="550.5" y1="262.8086" y2="262.8086"/><rect fill="#EEEEEE" height="23.1328" style="stroke: #000000; stroke-width: 2.0;" width="90" x="231.75" y="249.2422"/><text fill="#000000" font-family="Segoe UI" font-size="13" font-weight="bold" lengthAdjust="spacingAndGlyphs" textLength="71" x="237.75" y="265.3091">Database</text><polygon fill="#2563EB" points="485,299.5078,495,303.5078,485,307.5078,489,303.5078" style="stroke: #2563EB; stroke-width: 1.0;"/><line style="stroke: #2563EB; stroke-width: 1.0;" x1="326" x2="491" y1="303.5078" y2="303.5078"/><text fill="#000000" font-family="Segoe UI" font-size="13" lengthAdjust="spacingAndGlyphs" textLength="152" x="333" y="298.4419">SELECT ... WHERE filters</text><polygon fill="#2563EB" points="337,328.6406,327,332.6406,337,336.6406,333,332.6406" style="stroke: #2563EB; stroke-width: 1.0;"/><line style="stroke: #2563EB; stroke-width: 1.0; stroke-dasharray: 2.0,2.0;" x1="331" x2="501" y1="332.6406" y2="332.6406"/><text fill="#000000" font-family="Segoe UI" font-size="13" lengthAdjust="spacingAndGlyphs" textLength="95" x="343" y="327.5747">Page of results</text><polygon fill="#2563EB" points="207.5,357.7734,197.5,361.7734,207.5,365.7734,203.5,361.7734" style="stroke: #2563EB; stroke-width: 1.0;"/><line style="stroke: #2563EB; stroke-width: 1.0; stroke-dasharray: 2.0,2.0;" x1="201.5" x2="320" y1="361.7734" y2="361.7734"/><text fill="#000000" font-family="Segoe UI" font-size="13" lengthAdjust="spacingAndGlyphs" textLength="46" x="213.5" y="356.7075">200 OK</text><polygon fill="#2563EB" points="45.5,386.9063,35.5,390.9063,45.5,394.9063,41.5,390.9063" style="stroke: #2563EB; stroke-width: 1.0;"/><line style="stroke: #2563EB; stroke-width: 1.0; stroke-dasharray: 2.0,2.0;" x1="39.5" x2="190.5" y1="390.9063" y2="390.9063"/><text fill="#000000" font-family="Segoe UI" font-size="13" lengthAdjust="spacingAndGlyphs" textLength="46" x="51.5" y="385.8403">200 OK</text><a href="/microservices/svc-gear-inventory/#integration-context" target="_top" title="/microservices/svc-gear-inventory/#integration-context" xlink:actuate="onRequest" xlink:href="/microservices/svc-gear-inventory/#integration-context" xlink:show="new" xlink:title="/microservices/svc-gear-inventory/#integration-context" xlink:type="simple"><text fill="#0000FF" font-family="Segoe UI" font-size="10" lengthAdjust="spacingAndGlyphs" text-decoration="underline" textLength="202" x="348.5" y="12.2822">⬆ svc-gear-inventory Integration Context</text></a><!--MD5=[17d29a7904a02a6085c7024ec2a33e09]
@startuml svc-gear-inventory- -get-inventory-levels

skinparam backgroundColor #FEFEFE
skinparam shadowing false
skinparam defaultFontName "Segoe UI"
skinparam sequence {
    ArrowColor #2563eb
    ParticipantBorderColor #374151
    ParticipantBackgroundColor #F9FAFB
    LifeLineBorderColor #6B7280
    BoxBorderColor #94A3B8
    BoxBackgroundColor #F8FAFC
    NoteBorderColor #64748B
    NoteBackgroundColor #F8FAFC
}

header [[/microservices/svc-gear-inventory/#integration-context ⬆ svc-gear-inventory Integration Context]]

title GET /inventory-levels\nGet stock levels by location and category

participant "Client" as Client [[/applications/]]
participant "API Gateway" as GW [[/actors/#api-gateway]] #E0F2FE
participant "svc-gear-inventory" as Svc [[/microservices/svc-gear-inventory/]] #CFFAFE
database "PostgreSQL" as DB [[/microservices/svc-gear-inventory/#data-store]] #FEF9C3

note over Svc
  [[/services/api/svc-gear-inventory.html#/Inventory%20Levels/getInventoryLevels View in Swagger UI]]
end note

Client -> GW : GET /inventory-levels
activate GW #2563eb
GW -> Svc : route request
activate Svc #2563eb

== Database ==

Svc -> DB : SELECT ... WHERE filters
activate DB #FEF9C3
DB - -> Svc : Page of results
deactivate DB

Svc - -> GW : 200 OK
deactivate Svc
GW - -> Client : 200 OK
deactivate GW

@enduml

PlantUML version 1.2020.02(Sun Mar 01 10:22:07 UTC 2020)
(GPL source distribution)
Java Runtime: OpenJDK Runtime Environment
JVM: OpenJDK 64-Bit Server VM
Java Version: 17.0.18+8
Operating System: Linux
Default Encoding: UTF-8
Language: en
Country: null
--></g></svg>