<svg xmlns="http://www.w3.org/2000/svg" xmlns:xlink="http://www.w3.org/1999/xlink" contentStyleType="text/css" data-diagram-type="SEQUENCE" height="474px" preserveAspectRatio="none" style="width:637px;height:474px;background:#FEFEFE;" version="1.1" viewBox="0 0 637 474" width="637px" zoomAndPan="magnify"><title>GET /trips/{trip_id}/schedule</title><defs/><g><rect fill="#FEFEFE" height="474" style="stroke:none;stroke-width:1;" width="637" x="0" y="0"/><text fill="#000000" font-family="Segoe UI" font-size="14" font-weight="bold" lengthAdjust="spacing" textLength="211.7158" x="209.1223" y="28.5352">GET /trips/{trip_id}/schedule</text><text fill="#000000" font-family="Segoe UI" font-size="14" font-weight="bold" lengthAdjust="spacing" textLength="185.5137" x="222.2234" y="45.0234">Get scheduled departures</text><g><title>API Gateway</title><rect fill="#2563EB" height="189.8633" style="stroke:#A23B72;stroke-width:1;" width="10" x="233.5903" y="188.0859"/></g><g><title>svc-trip-catalog</title><rect fill="#2563EB" height="131.2422" style="stroke:#A23B72;stroke-width:1;" width="10" x="354.2915" y="217.3965"/></g><g><title>PostgreSQL</title><rect fill="#FCE4EC" height="29.3105" style="stroke:#A23B72;stroke-width:1;" width="10" x="579.5356" y="290.0176"/></g><g><title>Client</title><rect fill="#000000" fill-opacity="0.00000" height="274.4844" width="8" x="27.7524" y="121.4648"/><line style="stroke:#A23B72;stroke-width:0.5;stroke-dasharray:5,5;" x1="31" x2="31" y1="121.4648" y2="395.9492"/></g><g><title>API Gateway</title><rect fill="#000000" fill-opacity="0.00000" height="274.4844" width="8" x="234.5903" y="121.4648"/><line style="stroke:#A23B72;stroke-width:0.5;stroke-dasharray:5,5;" x1="238.3013" x2="238.3013" y1="121.4648" y2="395.9492"/></g><g><title>svc-trip-catalog</title><rect fill="#000000" fill-opacity="0.00000" height="274.4844" width="8" x="355.2915" y="121.4648"/><line style="stroke:#A23B72;stroke-width:0.5;stroke-dasharray:5,5;" x1="358.8794" x2="358.8794" y1="121.4648" y2="395.9492"/></g><g><title>PostgreSQL</title><rect fill="#000000" fill-opacity="0.00000" height="274.4844" width="8" x="580.5356" y="121.4648"/><line style="stroke:#A23B72;stroke-width:0.5;stroke-dasharray:5,5;" x1="584.1108" x2="584.1108" y1="121.4648" y2="395.9492"/></g><g class="participant participant-head" data-participant="Client"><rect fill="#E8F4F8" height="30.4883" rx="2.5" ry="2.5" style="stroke:#2E86AB;stroke-width:0.5;" width="53.5049" x="5" y="89.9766"/><text fill="#000000" font-family="Segoe UI" font-size="14" lengthAdjust="spacing" textLength="39.5049" x="12" y="110.5117">Client</text></g><g class="participant participant-tail" data-participant="Client"><rect fill="#E8F4F8" height="30.4883" rx="2.5" ry="2.5" style="stroke:#2E86AB;stroke-width:0.5;" width="53.5049" x="5" y="394.9492"/><text fill="#000000" font-family="Segoe UI" font-size="14" lengthAdjust="spacing" textLength="39.5049" x="12" y="415.4844">Client</text></g><g class="participant participant-head" data-participant="GW"><rect fill="#DBEAFE" height="30.4883" rx="2.5" ry="2.5" style="stroke:#2E86AB;stroke-width:0.5;" width="96.5781" x="190.3013" y="89.9766"/><text fill="#000000" font-family="Segoe UI" font-size="14" lengthAdjust="spacing" textLength="82.5781" x="197.3013" y="110.5117">API Gateway</text></g><g class="participant participant-tail" data-participant="GW"><rect fill="#DBEAFE" height="30.4883" rx="2.5" ry="2.5" style="stroke:#2E86AB;stroke-width:0.5;" width="96.5781" x="190.3013" y="394.9492"/><text fill="#000000" font-family="Segoe UI" font-size="14" lengthAdjust="spacing" textLength="82.5781" x="197.3013" y="415.4844">API Gateway</text></g><g class="participant participant-head" data-participant="Svc"><a href="/microservices/svc-trip-catalog/" target="_top" title="/microservices/svc-trip-catalog/" xlink:actuate="onRequest" xlink:href="/microservices/svc-trip-catalog/" xlink:show="new" xlink:title="/microservices/svc-trip-catalog/" xlink:type="simple"><rect fill="#E8F4F8" height="30.4883" rx="2.5" ry="2.5" style="stroke:#2E86AB;stroke-width:0.5;" width="124.8242" x="296.8794" y="89.9766"/><text fill="#000000" font-family="Segoe UI" font-size="14" lengthAdjust="spacing" textLength="110.8242" x="303.8794" y="110.5117">svc-trip-catalog</text></a></g><g class="participant participant-tail" data-participant="Svc"><a href="/microservices/svc-trip-catalog/" target="_top" title="/microservices/svc-trip-catalog/" xlink:actuate="onRequest" xlink:href="/microservices/svc-trip-catalog/" xlink:show="new" xlink:title="/microservices/svc-trip-catalog/" xlink:type="simple"><rect fill="#E8F4F8" height="30.4883" rx="2.5" ry="2.5" style="stroke:#2E86AB;stroke-width:0.5;" width="124.8242" x="296.8794" y="394.9492"/><text fill="#000000" font-family="Segoe UI" font-size="14" lengthAdjust="spacing" textLength="110.8242" x="303.8794" y="415.4844">svc-trip-catalog</text></a></g><g class="participant participant-head" data-participant="DB"><text fill="#000000" font-family="Segoe UI" font-size="14" lengthAdjust="spacing" textLength="76.8496" x="543.1108" y="118.5117">PostgreSQL</text><path d="M566.5356,68.9766 C566.5356,58.9766 584.5356,58.9766 584.5356,58.9766 C584.5356,58.9766 602.5356,58.9766 602.5356,68.9766 L602.5356,94.9766 C602.5356,104.9766 584.5356,104.9766 584.5356,104.9766 C584.5356,104.9766 566.5356,104.9766 566.5356,94.9766 L566.5356,68.9766" fill="#FCE4EC" style="stroke:#181818;stroke-width:0.5;"/><path d="M566.5356,68.9766 C566.5356,78.9766 584.5356,78.9766 584.5356,78.9766 C584.5356,78.9766 602.5356,78.9766 602.5356,68.9766" fill="none" style="stroke:#181818;stroke-width:0.5;"/></g><g class="participant participant-tail" data-participant="DB"><text fill="#000000" font-family="Segoe UI" font-size="14" lengthAdjust="spacing" textLength="76.8496" x="543.1108" y="408.4844">PostgreSQL</text><path d="M566.5356,421.4375 C566.5356,411.4375 584.5356,411.4375 584.5356,411.4375 C584.5356,411.4375 602.5356,411.4375 602.5356,421.4375 L602.5356,447.4375 C602.5356,457.4375 584.5356,457.4375 584.5356,457.4375 C584.5356,457.4375 566.5356,457.4375 566.5356,447.4375 L566.5356,421.4375" fill="#FCE4EC" style="stroke:#181818;stroke-width:0.5;"/><path d="M566.5356,421.4375 C566.5356,431.4375 584.5356,431.4375 584.5356,431.4375 C584.5356,431.4375 602.5356,431.4375 602.5356,421.4375" fill="none" style="stroke:#181818;stroke-width:0.5;"/></g><g><title>API Gateway</title><rect fill="#2563EB" height="189.8633" style="stroke:#A23B72;stroke-width:1;" width="10" x="233.5903" y="188.0859"/></g><g><title>svc-trip-catalog</title><rect fill="#2563EB" height="131.2422" style="stroke:#A23B72;stroke-width:1;" width="10" x="354.2915" y="217.3965"/></g><g><title>PostgreSQL</title><rect fill="#FCE4EC" height="29.3105" style="stroke:#A23B72;stroke-width:1;" width="10" x="579.5356" y="290.0176"/></g><path d="M289,136.4648 L289,161.4648 L429,161.4648 L429,146.4648 L419,136.4648 L289,136.4648" fill="#FEFFDD" style="stroke:#181818;stroke-width:0.5;"/><path d="M419,136.4648 L419,146.4648 L429,146.4648 L419,136.4648" fill="#FEFFDD" style="stroke:#181818;stroke-width:0.5;"/><a href="/services/api/svc-trip-catalog.html#/Schedule/getTripSchedule" target="_top" title="/services/api/svc-trip-catalog.html#/Schedule/getTripSchedule" xlink:actuate="onRequest" xlink:href="/services/api/svc-trip-catalog.html#/Schedule/getTripSchedule" xlink:show="new" xlink:title="/services/api/svc-trip-catalog.html#/Schedule/getTripSchedule" xlink:type="simple"><text fill="#0000FF" font-family="Segoe UI" font-size="13" lengthAdjust="spacing" text-decoration="underline" textLength="119.4058" x="295" y="154.0332">View in Swagger UI</text></a><g class="message" data-participant-1="Client" data-participant-2="GW"><polygon fill="#2563EB" points="221.5903,184.0859,231.5903,188.0859,221.5903,192.0859,225.5903,188.0859" style="stroke:#2563EB;stroke-width:1;"/><line style="stroke:#2563EB;stroke-width:1;" x1="31.7524" x2="227.5903" y1="188.0859" y2="188.0859"/><text fill="#000000" font-family="Segoe UI" font-size="13" lengthAdjust="spacing" textLength="182.8379" x="38.7524" y="183.3438">GET /trips/{trip_id}/schedule</text></g><g class="message" data-participant-1="GW" data-participant-2="Svc"><polygon fill="#2563EB" points="342.2915,213.3965,352.2915,217.3965,342.2915,221.3965,346.2915,217.3965" style="stroke:#2563EB;stroke-width:1;"/><line style="stroke:#2563EB;stroke-width:1;" x1="243.5903" x2="348.2915" y1="217.3965" y2="217.3965"/><text fill="#000000" font-family="Segoe UI" font-size="13" lengthAdjust="spacing" textLength="85.1348" x="250.5903" y="212.6543">route request</text></g><rect fill="#EEEEEE" height="3" style="stroke:#EEEEEE;stroke-width:1;" width="630.9604" x="0" y="246.0518"/><line style="stroke:#000000;stroke-width:1;" x1="0" x2="630.9604" y1="246.0518" y2="246.0518"/><line style="stroke:#000000;stroke-width:1;" x1="0" x2="630.9604" y1="249.0518" y2="249.0518"/><rect fill="#EEEEEE" height="23.3105" style="stroke:#000000;stroke-width:2;" width="80.3711" x="275.2947" y="235.3965"/><text fill="#000000" font-family="Segoe UI" font-size="13" font-weight="bold" lengthAdjust="spacing" textLength="62.0864" x="281.2947" y="251.9648">Database</text><g class="message" data-participant-1="Svc" data-participant-2="DB"><polygon fill="#2563EB" points="567.5356,286.0176,577.5356,290.0176,567.5356,294.0176,571.5356,290.0176" style="stroke:#2563EB;stroke-width:1;"/><line style="stroke:#2563EB;stroke-width:1;" x1="364.2915" x2="573.5356" y1="290.0176" y2="290.0176"/><text fill="#000000" font-family="Segoe UI" font-size="13" lengthAdjust="spacing" textLength="196.2441" x="371.2915" y="285.2754">SELECT ... WHERE parent_id = ?</text></g><g class="message" data-participant-1="DB" data-participant-2="Svc"><polygon fill="#2563EB" points="375.2915,315.3281,365.2915,319.3281,375.2915,323.3281,371.2915,319.3281" style="stroke:#2563EB;stroke-width:1;"/><line style="stroke:#2563EB;stroke-width:1;stroke-dasharray:2,2;" x1="369.2915" x2="583.5356" y1="319.3281" y2="319.3281"/><text fill="#000000" font-family="Segoe UI" font-size="13" lengthAdjust="spacing" textLength="57.8843" x="381.2915" y="314.5859">ResultSet</text></g><g class="message" data-participant-1="Svc" data-participant-2="GW"><polygon fill="#2563EB" points="254.5903,344.6387,244.5903,348.6387,254.5903,352.6387,250.5903,348.6387" style="stroke:#2563EB;stroke-width:1;"/><line style="stroke:#2563EB;stroke-width:1;stroke-dasharray:2,2;" x1="248.5903" x2="358.2915" y1="348.6387" y2="348.6387"/><text fill="#000000" font-family="Segoe UI" font-size="13" lengthAdjust="spacing" textLength="47.3599" x="260.5903" y="343.8965">200 OK</text></g><g class="message" data-participant-1="GW" data-participant-2="Client"><polygon fill="#2563EB" points="42.7524,373.9492,32.7524,377.9492,42.7524,381.9492,38.7524,377.9492" style="stroke:#2563EB;stroke-width:1;"/><line style="stroke:#2563EB;stroke-width:1;stroke-dasharray:2,2;" x1="36.7524" x2="237.5903" y1="377.9492" y2="377.9492"/><text fill="#000000" font-family="Segoe UI" font-size="13" lengthAdjust="spacing" textLength="47.3599" x="48.7524" y="373.207">200 OK</text></g><!--SRC=[VPDTRzem58Rl_IkEu1f2eIi8YKq475ODjQoXuw93aqaEmMg8cMrWKzN_lkEKG2ZLaelOVb-VZyUEUPRPHcYnXeM8dXEjjbayKAdIK0suUvavEinAn6elimIM8ZLOKc9SYcrg0vNPEx56g8IOA8J7sqfvE_xUOXOXl32Wfw-rsXzIDJ_Tj72HBq-4jZAI6v5PN-aOTM7XdPk-Vs5vNpJl1DT19xUDvHB7CiEpCFrcosytSzrNVywauAeJDAwEqWME820zb- -KFOyQjTkBLadx06MBjzahOrRQ5674f-1PBJV6Ut6VNp9-zKoqmdYRuiziX1QAMKnmYP_TQZICRKwjGsMGIini1OI1j-6vt9_SmaXOt8k_kMSqW-hGvtqwqpEVsKKrLqGj4bQaAidDuIw2foTlBIEj3EgTZD1uxvtUV7ua7jFIGXWw-uaoDj4OVX_daOO-zJ_Wrtp0M4PmGErGk_Y4Yp8SWukDl4XGNzbrMlN20milGJibkPZ33ubxa1c4Uv4a5FNnTZvdcCNW4Z7sHWLgdrtltVzJPoAoSaUuSaw72qb3sknOT87EaqJjBh6n9xSJ2plhzM1OSEZr67CY1I04NGZvc0-cKA_NOVQLFt2WGw3gg0ZemPTJm18l6jQE-H_Gq2yMecKnbio794MFpKO3xh-LBOwqwuCS1nuVkKOpzWy0]--></g></svg>