<?xml version="1.0" encoding="UTF-8" standalone="no"?><svg xmlns="http://www.w3.org/2000/svg" xmlns:xlink="http://www.w3.org/1999/xlink" contentScriptType="application/ecmascript" contentStyleType="text/css" height="575px" preserveAspectRatio="none" style="width:786px;height:575px;background:#FEFEFE;" version="1.1" viewBox="0 0 786 575" width="786px" zoomAndPan="magnify"><defs/><g><text fill="#000000" font-family="Segoe UI" font-size="18" lengthAdjust="spacingAndGlyphs" textLength="242" x="267.5" y="41.3486">DELETE /media/{media_id}</text><text fill="#000000" font-family="Segoe UI" font-size="18" lengthAdjust="spacingAndGlyphs" textLength="181" x="298" y="62.3018">Delete a media item</text><rect fill="#DC2626" height="282.1953" style="stroke: #6B7280; stroke-width: 1.0;" width="10" x="227.5" y="202.1094"/><rect fill="#DC2626" height="223.9297" style="stroke: #6B7280; stroke-width: 1.0;" width="10" x="362.5" y="231.2422"/><rect fill="#FEF9C3" height="29.1328" style="stroke: #6B7280; stroke-width: 1.0;" width="10" x="585.5" y="303.5078"/><rect fill="#FEF9C3" height="29.1328" style="stroke: #6B7280; stroke-width: 1.0;" width="10" x="585.5" y="396.9063"/><line style="stroke: #6B7280; stroke-width: 1.0; stroke-dasharray: 5.0,5.0;" x1="34" x2="34" y1="135.8438" y2="502.3047"/><line style="stroke: #6B7280; stroke-width: 1.0; stroke-dasharray: 5.0,5.0;" x1="232.5" x2="232.5" y1="135.8438" y2="502.3047"/><line style="stroke: #6B7280; stroke-width: 1.0; stroke-dasharray: 5.0,5.0;" x1="367" x2="367" y1="135.8438" y2="502.3047"/><line style="stroke: #6B7280; stroke-width: 1.0; stroke-dasharray: 5.0,5.0;" x1="590" x2="590" y1="135.8438" y2="502.3047"/><a href="/applications/" target="_top" title="/applications/" xlink:actuate="onRequest" xlink:href="/applications/" xlink:show="new" xlink:title="/applications/" xlink:type="simple"><rect fill="#F9FAFB" height="30.2969" style="stroke: #374151; stroke-width: 1.5;" width="53" x="8" y="104.5469"/><text fill="#000000" font-family="Segoe UI" font-size="14" lengthAdjust="spacingAndGlyphs" textLength="39" x="15" y="124.542">Client</text><rect fill="#F9FAFB" height="30.2969" style="stroke: #374151; stroke-width: 1.5;" width="53" x="8" y="501.3047"/><text fill="#000000" font-family="Segoe UI" font-size="14" lengthAdjust="spacingAndGlyphs" textLength="39" x="15" y="521.2998">Client</text></a><a href="/actors/#api-gateway" target="_top" title="/actors/#api-gateway" xlink:actuate="onRequest" xlink:href="/actors/#api-gateway" xlink:show="new" xlink:title="/actors/#api-gateway" xlink:type="simple"><rect fill="#E0F2FE" height="30.2969" style="stroke: #374151; stroke-width: 1.5;" width="98" x="183.5" y="104.5469"/><text fill="#000000" font-family="Segoe UI" font-size="14" lengthAdjust="spacingAndGlyphs" textLength="84" x="190.5" y="124.542">API Gateway</text><rect fill="#E0F2FE" height="30.2969" style="stroke: #374151; stroke-width: 1.5;" width="98" x="183.5" y="501.3047"/><text fill="#000000" font-family="Segoe UI" font-size="14" lengthAdjust="spacingAndGlyphs" textLength="84" x="190.5" y="521.2998">API Gateway</text></a><a href="/microservices/svc-media-gallery/" target="_top" title="/microservices/svc-media-gallery/" xlink:actuate="onRequest" xlink:href="/microservices/svc-media-gallery/" xlink:show="new" xlink:title="/microservices/svc-media-gallery/" xlink:type="simple"><rect fill="#F1F5F9" height="30.2969" style="stroke: #374151; stroke-width: 1.5;" width="133" x="301" y="104.5469"/><text fill="#000000" font-family="Segoe UI" font-size="14" lengthAdjust="spacingAndGlyphs" textLength="119" x="308" y="124.542">svc-media-gallery</text><rect fill="#F1F5F9" height="30.2969" style="stroke: #374151; stroke-width: 1.5;" width="133" x="301" y="501.3047"/><text fill="#000000" font-family="Segoe UI" font-size="14" lengthAdjust="spacingAndGlyphs" textLength="119" x="308" y="521.2998">svc-media-gallery</text></a><a href="/microservices/svc-media-gallery/#data-store" target="_top" title="/microservices/svc-media-gallery/#data-store" xlink:actuate="onRequest" xlink:href="/microservices/svc-media-gallery/#data-store" xlink:show="new" xlink:title="/microservices/svc-media-gallery/#data-store" xlink:type="simple"><text fill="#000000" font-family="Segoe UI" font-size="14" lengthAdjust="spacingAndGlyphs" textLength="81" x="547" y="132.542">PostgreSQL</text><path d="M572.5,83.5469 C572.5,73.5469 590.5,73.5469 590.5,73.5469 C590.5,73.5469 608.5,73.5469 608.5,83.5469 L608.5,109.5469 C608.5,119.5469 590.5,119.5469 590.5,119.5469 C590.5,119.5469 572.5,119.5469 572.5,109.5469 L572.5,83.5469 " fill="#FEF9C3" style="stroke: #000000; stroke-width: 1.5;"/><path d="M572.5,83.5469 C572.5,93.5469 590.5,93.5469 590.5,93.5469 C590.5,93.5469 608.5,93.5469 608.5,83.5469 " fill="none" style="stroke: #000000; stroke-width: 1.5;"/><text fill="#000000" font-family="Segoe UI" font-size="14" lengthAdjust="spacingAndGlyphs" textLength="81" x="547" y="514.2998">PostgreSQL</text><path d="M572.5,527.6016 C572.5,517.6016 590.5,517.6016 590.5,517.6016 C590.5,517.6016 608.5,517.6016 608.5,527.6016 L608.5,553.6016 C608.5,563.6016 590.5,563.6016 590.5,563.6016 C590.5,563.6016 572.5,563.6016 572.5,553.6016 L572.5,527.6016 " fill="#FEF9C3" style="stroke: #000000; stroke-width: 1.5;"/><path d="M572.5,527.6016 C572.5,537.6016 590.5,537.6016 590.5,537.6016 C590.5,537.6016 608.5,537.6016 608.5,527.6016 " fill="none" style="stroke: #000000; stroke-width: 1.5;"/></a><rect fill="#DC2626" height="282.1953" style="stroke: #6B7280; stroke-width: 1.0;" width="10" x="227.5" y="202.1094"/><rect fill="#DC2626" height="223.9297" style="stroke: #6B7280; stroke-width: 1.0;" width="10" x="362.5" y="231.2422"/><rect fill="#FEF9C3" height="29.1328" style="stroke: #6B7280; stroke-width: 1.0;" width="10" x="585.5" y="303.5078"/><rect fill="#FEF9C3" height="29.1328" style="stroke: #6B7280; stroke-width: 1.0;" width="10" x="585.5" y="396.9063"/><path d="M297,150.8438 L297,175.8438 L438,175.8438 L438,160.8438 L428,150.8438 L297,150.8438 " fill="#FBFB77" style="stroke: #A80036; stroke-width: 1.0;"/><path d="M428,150.8438 L428,160.8438 L438,160.8438 L428,150.8438 " fill="#FBFB77" style="stroke: #A80036; stroke-width: 1.0;"/><a href="/services/api/svc-media-gallery.html#/Media/deleteMedia" target="_top" title="/services/api/svc-media-gallery.html#/Media/deleteMedia" xlink:actuate="onRequest" xlink:href="/services/api/svc-media-gallery.html#/Media/deleteMedia" xlink:show="new" xlink:title="/services/api/svc-media-gallery.html#/Media/deleteMedia" xlink:type="simple"><text fill="#0000FF" font-family="Segoe UI" font-size="13" lengthAdjust="spacingAndGlyphs" text-decoration="underline" textLength="120" x="303" y="167.9106">View in Swagger UI</text></a><polygon fill="#DC2626" points="215.5,198.1094,225.5,202.1094,215.5,206.1094,219.5,202.1094" style="stroke: #DC2626; stroke-width: 1.0;"/><line style="stroke: #DC2626; stroke-width: 1.0;" x1="34.5" x2="221.5" y1="202.1094" y2="202.1094"/><text fill="#000000" font-family="Segoe UI" font-size="13" lengthAdjust="spacingAndGlyphs" textLength="174" x="41.5" y="197.0435">DELETE /media/{media_id}</text><polygon fill="#DC2626" points="350.5,227.2422,360.5,231.2422,350.5,235.2422,354.5,231.2422" style="stroke: #DC2626; stroke-width: 1.0;"/><line style="stroke: #DC2626; stroke-width: 1.0;" x1="237.5" x2="356.5" y1="231.2422" y2="231.2422"/><text fill="#000000" font-family="Segoe UI" font-size="13" lengthAdjust="spacingAndGlyphs" textLength="87" x="244.5" y="226.1763">route request</text><rect fill="#EEEEEE" height="3" style="stroke: #EEEEEE; stroke-width: 1.0;" width="771" x="3" y="259.8086"/><line style="stroke: #000000; stroke-width: 1.0;" x1="3" x2="774" y1="259.8086" y2="259.8086"/><line style="stroke: #000000; stroke-width: 1.0;" x1="3" x2="774" y1="262.8086" y2="262.8086"/><rect fill="#EEEEEE" height="23.1328" style="stroke: #000000; stroke-width: 2.0;" width="90" x="343.5" y="249.2422"/><text fill="#000000" font-family="Segoe UI" font-size="13" font-weight="bold" lengthAdjust="spacingAndGlyphs" textLength="71" x="349.5" y="265.3091">Database</text><polygon fill="#DC2626" points="573.5,299.5078,583.5,303.5078,573.5,307.5078,577.5,303.5078" style="stroke: #DC2626; stroke-width: 1.0;"/><line style="stroke: #DC2626; stroke-width: 1.0;" x1="372.5" x2="579.5" y1="303.5078" y2="303.5078"/><text fill="#000000" font-family="Segoe UI" font-size="13" lengthAdjust="spacingAndGlyphs" textLength="154" x="379.5" y="298.4419">SELECT ... WHERE id = ?</text><polygon fill="#DC2626" points="383.5,328.6406,373.5,332.6406,383.5,336.6406,379.5,332.6406" style="stroke: #DC2626; stroke-width: 1.0;"/><line style="stroke: #DC2626; stroke-width: 1.0; stroke-dasharray: 2.0,2.0;" x1="377.5" x2="589.5" y1="332.6406" y2="332.6406"/><text fill="#000000" font-family="Segoe UI" font-size="13" lengthAdjust="spacingAndGlyphs" textLength="25" x="389.5" y="327.5747">Row</text><path d="M595,345.6406 L595,370.6406 L769,370.6406 L769,355.6406 L759,345.6406 L595,345.6406 " fill="#FBFB77" style="stroke: #A80036; stroke-width: 1.0;"/><path d="M759,345.6406 L759,355.6406 L769,355.6406 L759,345.6406 " fill="#FBFB77" style="stroke: #A80036; stroke-width: 1.0;"/><text fill="#000000" font-family="Segoe UI" font-size="13" lengthAdjust="spacingAndGlyphs" textLength="153" x="601" y="362.7075">Returns 404 if not found</text><polygon fill="#DC2626" points="573.5,392.9063,583.5,396.9063,573.5,400.9063,577.5,396.9063" style="stroke: #DC2626; stroke-width: 1.0;"/><line style="stroke: #DC2626; stroke-width: 1.0;" x1="372.5" x2="579.5" y1="396.9063" y2="396.9063"/><text fill="#000000" font-family="Segoe UI" font-size="13" lengthAdjust="spacingAndGlyphs" textLength="194" x="379.5" y="391.8403">DELETE FROM ... WHERE id = ?</text><polygon fill="#DC2626" points="383.5,422.0391,373.5,426.0391,383.5,430.0391,379.5,426.0391" style="stroke: #DC2626; stroke-width: 1.0;"/><line style="stroke: #DC2626; stroke-width: 1.0; stroke-dasharray: 2.0,2.0;" x1="377.5" x2="589.5" y1="426.0391" y2="426.0391"/><text fill="#000000" font-family="Segoe UI" font-size="13" lengthAdjust="spacingAndGlyphs" textLength="18" x="389.5" y="420.9731">OK</text><polygon fill="#DC2626" points="248.5,451.1719,238.5,455.1719,248.5,459.1719,244.5,455.1719" style="stroke: #DC2626; stroke-width: 1.0;"/><line style="stroke: #DC2626; stroke-width: 1.0; stroke-dasharray: 2.0,2.0;" x1="242.5" x2="366.5" y1="455.1719" y2="455.1719"/><text fill="#000000" font-family="Segoe UI" font-size="13" lengthAdjust="spacingAndGlyphs" textLength="101" x="254.5" y="450.106">204 No Content</text><polygon fill="#DC2626" points="45.5,480.3047,35.5,484.3047,45.5,488.3047,41.5,484.3047" style="stroke: #DC2626; stroke-width: 1.0;"/><line style="stroke: #DC2626; stroke-width: 1.0; stroke-dasharray: 2.0,2.0;" x1="39.5" x2="231.5" y1="484.3047" y2="484.3047"/><text fill="#000000" font-family="Segoe UI" font-size="13" lengthAdjust="spacingAndGlyphs" textLength="101" x="51.5" y="479.2388">204 No Content</text><a href="/microservices/svc-media-gallery/#integration-context" target="_top" title="/microservices/svc-media-gallery/#integration-context" xlink:actuate="onRequest" xlink:href="/microservices/svc-media-gallery/#integration-context" xlink:show="new" xlink:title="/microservices/svc-media-gallery/#integration-context" xlink:type="simple"><text fill="#0000FF" font-family="Segoe UI" font-size="10" lengthAdjust="spacingAndGlyphs" text-decoration="underline" textLength="196" x="578" y="12.2822">⬆ svc-media-gallery Integration Context</text></a><!--MD5=[b781b65c6c59aacfd5347e9f0164715d]
@startuml svc-media-gallery- -delete-media-media_id

skinparam backgroundColor #FEFEFE
skinparam shadowing false
skinparam defaultFontName "Segoe UI"
skinparam sequence {
    ArrowColor #dc2626
    ParticipantBorderColor #374151
    ParticipantBackgroundColor #F9FAFB
    LifeLineBorderColor #6B7280
    BoxBorderColor #94A3B8
    BoxBackgroundColor #F8FAFC
    NoteBorderColor #64748B
    NoteBackgroundColor #F8FAFC
}

header [[/microservices/svc-media-gallery/#integration-context ⬆ svc-media-gallery Integration Context]]

title DELETE /media/{media_id}\nDelete a media item

participant "Client" as Client [[/applications/]]
participant "API Gateway" as GW [[/actors/#api-gateway]] #E0F2FE
participant "svc-media-gallery" as Svc [[/microservices/svc-media-gallery/]] #F1F5F9
database "PostgreSQL" as DB [[/microservices/svc-media-gallery/#data-store]] #FEF9C3

note over Svc
  [[/services/api/svc-media-gallery.html#/Media/deleteMedia View in Swagger UI]]
end note

Client -> GW : DELETE /media/{media_id}
activate GW #dc2626
GW -> Svc : route request
activate Svc #dc2626

== Database ==

Svc -> DB : SELECT ... WHERE id = ?
activate DB #FEF9C3
DB - -> Svc : Row
deactivate DB
note right of DB : Returns 404 if not found

Svc -> DB : DELETE FROM ... WHERE id = ?
activate DB #FEF9C3
DB - -> Svc : OK
deactivate DB

Svc - -> GW : 204 No Content
deactivate Svc
GW - -> Client : 204 No Content
deactivate GW

@enduml

PlantUML version 1.2020.02(Sun Mar 01 10:22:07 UTC 2020)
(GPL source distribution)
Java Runtime: OpenJDK Runtime Environment
JVM: OpenJDK 64-Bit Server VM
Java Version: 17.0.18+8
Operating System: Linux
Default Encoding: UTF-8
Language: en
Country: null
--></g></svg>