<svg xmlns="http://www.w3.org/2000/svg" xmlns:xlink="http://www.w3.org/1999/xlink" contentStyleType="text/css" data-diagram-type="SEQUENCE" height="474px" preserveAspectRatio="none" style="width:538px;height:474px;background:#FEFEFE;" version="1.1" viewBox="0 0 538 474" width="538px" zoomAndPan="magnify"><title>GET /trail-conditions</title><defs/><g><rect fill="#FEFEFE" height="474" style="stroke:none;stroke-width:1;" width="538" x="0" y="0"/><text fill="#000000" font-family="Segoe UI" font-size="14" font-weight="bold" lengthAdjust="spacing" textLength="155.0459" x="187.5359" y="28.5352">GET /trail-conditions</text><text fill="#000000" font-family="Segoe UI" font-size="14" font-weight="bold" lengthAdjust="spacing" textLength="195.6719" x="167.2229" y="45.0234">Get current trail conditions</text><g><title>API Gateway</title><rect fill="#2563EB" height="189.8633" style="stroke:#A23B72;stroke-width:1;" width="10" x="184.6943" y="188.0859"/></g><g><title>svc-weather</title><rect fill="#2563EB" height="131.2422" style="stroke:#A23B72;stroke-width:1;" width="10" x="298.8291" y="217.3965"/></g><g><title>Valkey . PG</title><rect fill="#FCE4EC" height="29.3105" style="stroke:#A23B72;stroke-width:1;" width="10" x="477.0815" y="290.0176"/></g><g><title>Client</title><rect fill="#000000" fill-opacity="0.00000" height="274.4844" width="8" x="27.7524" y="121.4648"/><line style="stroke:#A23B72;stroke-width:0.5;stroke-dasharray:5,5;" x1="31" x2="31" y1="121.4648" y2="395.9492"/></g><g><title>API Gateway</title><rect fill="#000000" fill-opacity="0.00000" height="274.4844" width="8" x="185.6943" y="121.4648"/><line style="stroke:#A23B72;stroke-width:0.5;stroke-dasharray:5,5;" x1="189.4053" x2="189.4053" y1="121.4648" y2="395.9492"/></g><g><title>svc-weather</title><rect fill="#000000" fill-opacity="0.00000" height="274.4844" width="8" x="299.8291" y="121.4648"/><line style="stroke:#A23B72;stroke-width:0.5;stroke-dasharray:5,5;" x1="303.1162" x2="303.1162" y1="121.4648" y2="395.9492"/></g><g><title>Valkey . PG</title><rect fill="#000000" fill-opacity="0.00000" height="274.4844" width="8" x="478.0815" y="121.4648"/><line style="stroke:#A23B72;stroke-width:0.5;stroke-dasharray:5,5;" x1="482.0454" x2="482.0454" y1="121.4648" y2="395.9492"/></g><g class="participant participant-head" data-participant="Client"><rect fill="#E8F4F8" height="30.4883" rx="2.5" ry="2.5" style="stroke:#2E86AB;stroke-width:0.5;" width="53.5049" x="5" y="89.9766"/><text fill="#000000" font-family="Segoe UI" font-size="14" lengthAdjust="spacing" textLength="39.5049" x="12" y="110.5117">Client</text></g><g class="participant participant-tail" data-participant="Client"><rect fill="#E8F4F8" height="30.4883" rx="2.5" ry="2.5" style="stroke:#2E86AB;stroke-width:0.5;" width="53.5049" x="5" y="394.9492"/><text fill="#000000" font-family="Segoe UI" font-size="14" lengthAdjust="spacing" textLength="39.5049" x="12" y="415.4844">Client</text></g><g class="participant participant-head" data-participant="GW"><rect fill="#DBEAFE" height="30.4883" rx="2.5" ry="2.5" style="stroke:#2E86AB;stroke-width:0.5;" width="96.5781" x="141.4053" y="89.9766"/><text fill="#000000" font-family="Segoe UI" font-size="14" lengthAdjust="spacing" textLength="82.5781" x="148.4053" y="110.5117">API Gateway</text></g><g class="participant participant-tail" data-participant="GW"><rect fill="#DBEAFE" height="30.4883" rx="2.5" ry="2.5" style="stroke:#2E86AB;stroke-width:0.5;" width="96.5781" x="141.4053" y="394.9492"/><text fill="#000000" font-family="Segoe UI" font-size="14" lengthAdjust="spacing" textLength="82.5781" x="148.4053" y="415.4844">API Gateway</text></g><g class="participant participant-head" data-participant="Svc"><a href="/microservices/svc-weather/" target="_top" title="/microservices/svc-weather/" xlink:actuate="onRequest" xlink:href="/microservices/svc-weather/" xlink:show="new" xlink:title="/microservices/svc-weather/" xlink:type="simple"><rect fill="#E8F4F8" height="30.4883" rx="2.5" ry="2.5" style="stroke:#2E86AB;stroke-width:0.5;" width="97.4258" x="255.1162" y="89.9766"/><text fill="#000000" font-family="Segoe UI" font-size="14" lengthAdjust="spacing" textLength="83.4258" x="262.1162" y="110.5117">svc-weather</text></a></g><g class="participant participant-tail" data-participant="Svc"><a href="/microservices/svc-weather/" target="_top" title="/microservices/svc-weather/" xlink:actuate="onRequest" xlink:href="/microservices/svc-weather/" xlink:show="new" xlink:title="/microservices/svc-weather/" xlink:type="simple"><rect fill="#E8F4F8" height="30.4883" rx="2.5" ry="2.5" style="stroke:#2E86AB;stroke-width:0.5;" width="97.4258" x="255.1162" y="394.9492"/><text fill="#000000" font-family="Segoe UI" font-size="14" lengthAdjust="spacing" textLength="83.4258" x="262.1162" y="415.4844">svc-weather</text></a></g><g class="participant participant-head" data-participant="DB"><text fill="#000000" font-family="Segoe UI" font-size="14" lengthAdjust="spacing" textLength="82.0723" x="438.0454" y="118.5117">Valkey + PG</text><path d="M464.0815,68.9766 C464.0815,58.9766 482.0815,58.9766 482.0815,58.9766 C482.0815,58.9766 500.0815,58.9766 500.0815,68.9766 L500.0815,94.9766 C500.0815,104.9766 482.0815,104.9766 482.0815,104.9766 C482.0815,104.9766 464.0815,104.9766 464.0815,94.9766 L464.0815,68.9766" fill="#FCE4EC" style="stroke:#181818;stroke-width:0.5;"/><path d="M464.0815,68.9766 C464.0815,78.9766 482.0815,78.9766 482.0815,78.9766 C482.0815,78.9766 500.0815,78.9766 500.0815,68.9766" fill="none" style="stroke:#181818;stroke-width:0.5;"/></g><g class="participant participant-tail" data-participant="DB"><text fill="#000000" font-family="Segoe UI" font-size="14" lengthAdjust="spacing" textLength="82.0723" x="438.0454" y="408.4844">Valkey + PG</text><path d="M464.0815,421.4375 C464.0815,411.4375 482.0815,411.4375 482.0815,411.4375 C482.0815,411.4375 500.0815,411.4375 500.0815,421.4375 L500.0815,447.4375 C500.0815,457.4375 482.0815,457.4375 482.0815,457.4375 C482.0815,457.4375 464.0815,457.4375 464.0815,447.4375 L464.0815,421.4375" fill="#FCE4EC" style="stroke:#181818;stroke-width:0.5;"/><path d="M464.0815,421.4375 C464.0815,431.4375 482.0815,431.4375 482.0815,431.4375 C482.0815,431.4375 500.0815,431.4375 500.0815,421.4375" fill="none" style="stroke:#181818;stroke-width:0.5;"/></g><g><title>API Gateway</title><rect fill="#2563EB" height="189.8633" style="stroke:#A23B72;stroke-width:1;" width="10" x="184.6943" y="188.0859"/></g><g><title>svc-weather</title><rect fill="#2563EB" height="131.2422" style="stroke:#A23B72;stroke-width:1;" width="10" x="298.8291" y="217.3965"/></g><g><title>Valkey . PG</title><rect fill="#FCE4EC" height="29.3105" style="stroke:#A23B72;stroke-width:1;" width="10" x="477.0815" y="290.0176"/></g><path d="M233,136.4648 L233,161.4648 L373,161.4648 L373,146.4648 L363,136.4648 L233,136.4648" fill="#FEFFDD" style="stroke:#181818;stroke-width:0.5;"/><path d="M363,136.4648 L363,146.4648 L373,146.4648 L363,136.4648" fill="#FEFFDD" style="stroke:#181818;stroke-width:0.5;"/><a href="/services/api/svc-weather.html#/Trail%20Conditions/getTrailConditions" target="_top" title="/services/api/svc-weather.html#/Trail%20Conditions/getTrailConditions" xlink:actuate="onRequest" xlink:href="/services/api/svc-weather.html#/Trail%20Conditions/getTrailConditions" xlink:show="new" xlink:title="/services/api/svc-weather.html#/Trail%20Conditions/getTrailConditions" xlink:type="simple"><text fill="#0000FF" font-family="Segoe UI" font-size="13" lengthAdjust="spacing" text-decoration="underline" textLength="119.4058" x="239" y="154.0332">View in Swagger UI</text></a><g class="message" data-participant-1="Client" data-participant-2="GW"><polygon fill="#2563EB" points="172.6943,184.0859,182.6943,188.0859,172.6943,192.0859,176.6943,188.0859" style="stroke:#2563EB;stroke-width:1;"/><line style="stroke:#2563EB;stroke-width:1;" x1="31.7524" x2="178.6943" y1="188.0859" y2="188.0859"/><text fill="#000000" font-family="Segoe UI" font-size="13" lengthAdjust="spacing" textLength="133.9419" x="38.7524" y="183.3438">GET /trail-conditions</text></g><g class="message" data-participant-1="GW" data-participant-2="Svc"><polygon fill="#2563EB" points="286.8291,213.3965,296.8291,217.3965,286.8291,221.3965,290.8291,217.3965" style="stroke:#2563EB;stroke-width:1;"/><line style="stroke:#2563EB;stroke-width:1;" x1="194.6943" x2="292.8291" y1="217.3965" y2="217.3965"/><text fill="#000000" font-family="Segoe UI" font-size="13" lengthAdjust="spacing" textLength="85.1348" x="201.6943" y="212.6543">route request</text></g><rect fill="#EEEEEE" height="3" style="stroke:#EEEEEE;stroke-width:1;" width="531.1177" x="0" y="246.0518"/><line style="stroke:#000000;stroke-width:1;" x1="0" x2="531.1177" y1="246.0518" y2="246.0518"/><line style="stroke:#000000;stroke-width:1;" x1="0" x2="531.1177" y1="249.0518" y2="249.0518"/><rect fill="#EEEEEE" height="23.3105" style="stroke:#000000;stroke-width:2;" width="80.3711" x="225.3733" y="235.3965"/><text fill="#000000" font-family="Segoe UI" font-size="13" font-weight="bold" lengthAdjust="spacing" textLength="62.0864" x="231.3733" y="251.9648">Database</text><g class="message" data-participant-1="Svc" data-participant-2="DB"><polygon fill="#2563EB" points="465.0815,286.0176,475.0815,290.0176,465.0815,294.0176,469.0815,290.0176" style="stroke:#2563EB;stroke-width:1;"/><line style="stroke:#2563EB;stroke-width:1;" x1="308.8291" x2="471.0815" y1="290.0176" y2="290.0176"/><text fill="#000000" font-family="Segoe UI" font-size="13" lengthAdjust="spacing" textLength="149.2524" x="315.8291" y="285.2754">SELECT ... WHERE filters</text></g><g class="message" data-participant-1="DB" data-participant-2="Svc"><polygon fill="#2563EB" points="319.8291,315.3281,309.8291,319.3281,319.8291,323.3281,315.8291,319.3281" style="stroke:#2563EB;stroke-width:1;"/><line style="stroke:#2563EB;stroke-width:1;stroke-dasharray:2,2;" x1="313.8291" x2="481.0815" y1="319.3281" y2="319.3281"/><text fill="#000000" font-family="Segoe UI" font-size="13" lengthAdjust="spacing" textLength="93.209" x="325.8291" y="314.5859">Page of results</text></g><g class="message" data-participant-1="Svc" data-participant-2="GW"><polygon fill="#2563EB" points="205.6943,344.6387,195.6943,348.6387,205.6943,352.6387,201.6943,348.6387" style="stroke:#2563EB;stroke-width:1;"/><line style="stroke:#2563EB;stroke-width:1;stroke-dasharray:2,2;" x1="199.6943" x2="302.8291" y1="348.6387" y2="348.6387"/><text fill="#000000" font-family="Segoe UI" font-size="13" lengthAdjust="spacing" textLength="47.3599" x="211.6943" y="343.8965">200 OK</text></g><g class="message" data-participant-1="GW" data-participant-2="Client"><polygon fill="#2563EB" points="42.7524,373.9492,32.7524,377.9492,42.7524,381.9492,38.7524,377.9492" style="stroke:#2563EB;stroke-width:1;"/><line style="stroke:#2563EB;stroke-width:1;stroke-dasharray:2,2;" x1="36.7524" x2="188.6943" y1="377.9492" y2="377.9492"/><text fill="#000000" font-family="Segoe UI" font-size="13" lengthAdjust="spacing" textLength="47.3599" x="48.7524" y="373.207">200 OK</text></g><!--SRC=[RPDHRzem58NV_IkkG7kQ81IwWf2OH8AJeQ4E3LeUEXvCSWaMmMQs8Qsc_VVPAOImahnOznoVc_lPqLikzaon7QnOl4sLF8Waa9bKK0-fUuak7Nh34fbpaSAQPHehIe9hTiXCA8LvP3k4sWnJYV0qhbMtu-y3YXZX3m7x39MI-QbL-yj31rT5USgKuJ7VCs5ygH9KPmljFGpz3vR_FvhsmlkmLzWcV8qJBl0gPjZk-DrseVlozKeAxtfXwwwKFk08GwiNygCqrwbnjxlgLBGRA3kqI_uIOhZ9428w1yyenhD6B4N23PT2_n8H6eWFIg4mKAXmKGdPNyQ6Mf1nwwe1q_2-l9Q7qp54p63EtWfFj83woAT3UvvNFdsC6paoiq5L-6R765vUl1sFbTIeZZn6xLLCtd9PCawOOIkcxMa_isoBR_0Pfb6HClBjo06zfm4Xml80UKJbiYqXcru6ipslXZStPfVLlRcR_5Ex5PIpUocQedefmJF77BY0MSxIrAO_ZPTBWY81rv2GToZG-Ef6xzy6JbXi-D5IAl2Sxg1TsasEGn_i4LfHkNkhpSNjnBET30OmEeCO30XneWsm2FemenCQpA7PRCBY6_r9OSqpWwhIk4BABXjbvobBBRMrxQtjVwL9WfKjfoRdsTgj5lpuNhKuqcuEwpXnkEMA5kGV]--></g></svg>