<svg xmlns="http://www.w3.org/2000/svg" xmlns:xlink="http://www.w3.org/1999/xlink" contentStyleType="text/css" data-diagram-type="SEQUENCE" height="589px" preserveAspectRatio="none" style="width:665px;height:589px;background:#FEFEFE;" version="1.1" viewBox="0 0 665 589" width="665px" zoomAndPan="magnify"><title>GET /weather/current</title><defs/><g><rect fill="#FEFEFE" height="589" style="stroke:none;stroke-width:1;" width="665" x="0" y="0"/><text fill="#000000" font-family="Segoe UI" font-size="14" font-weight="bold" lengthAdjust="spacing" textLength="159.3457" x="249.2539" y="41.3125">GET /weather/current</text><text fill="#000000" font-family="Segoe UI" font-size="14" font-weight="bold" lengthAdjust="spacing" textLength="224.2461" x="216.8037" y="57.8008">Get current weather conditions</text><g><title>API Gateway</title><rect fill="#2563EB" height="291.7949" style="stroke:#A23B72;stroke-width:1;" width="10" x="188.6299" y="200.8633"/></g><g><title>svc-weather</title><rect fill="#2563EB" height="233.1738" style="stroke:#A23B72;stroke-width:1;" width="10" x="302.7646" y="230.1738"/></g><g><title>OpenWeather API</title><rect fill="#DBEAFE" height="29.3105" style="stroke:#A23B72;stroke-width:1;" width="10" x="485.2827" y="302.7949"/></g><g><title>Valkey . PG</title><rect fill="#FCE4EC" height="29.3105" style="stroke:#A23B72;stroke-width:1;" width="10" x="604.8174" y="404.7266"/></g><g><title>Client</title><rect fill="#000000" fill-opacity="0.00000" height="376.416" width="8" x="27.7524" y="134.2422"/><line style="stroke:#A23B72;stroke-width:0.5;stroke-dasharray:5,5;" x1="31" x2="31" y1="134.2422" y2="510.6582"/></g><g><title>API Gateway</title><rect fill="#000000" fill-opacity="0.00000" height="376.416" width="8" x="189.6299" y="134.2422"/><line style="stroke:#A23B72;stroke-width:0.5;stroke-dasharray:5,5;" x1="193.3408" x2="193.3408" y1="134.2422" y2="510.6582"/></g><g><title>svc-weather</title><rect fill="#000000" fill-opacity="0.00000" height="376.416" width="8" x="303.7646" y="134.2422"/><line style="stroke:#A23B72;stroke-width:0.5;stroke-dasharray:5,5;" x1="307.0518" x2="307.0518" y1="134.2422" y2="510.6582"/></g><g><title>OpenWeather API</title><rect fill="#000000" fill-opacity="0.00000" height="376.416" width="8" x="486.2827" y="134.2422"/><line style="stroke:#A23B72;stroke-width:0.5;stroke-dasharray:5,5;" x1="489.7842" x2="489.7842" y1="134.2422" y2="510.6582"/></g><g><title>Valkey . PG</title><rect fill="#000000" fill-opacity="0.00000" height="376.416" width="8" x="605.8174" y="134.2422"/><line style="stroke:#A23B72;stroke-width:0.5;stroke-dasharray:5,5;" x1="609.7813" x2="609.7813" y1="134.2422" y2="510.6582"/></g><g class="participant participant-head" data-participant="Client"><a href="/applications/" target="_top" title="/applications/" xlink:actuate="onRequest" xlink:href="/applications/" xlink:show="new" xlink:title="/applications/" xlink:type="simple"><rect fill="#E8F4F8" height="30.4883" rx="2.5" ry="2.5" style="stroke:#2E86AB;stroke-width:0.5;" width="53.5049" x="5" y="102.7539"/><text fill="#000000" font-family="Segoe UI" font-size="14" lengthAdjust="spacing" textLength="39.5049" x="12" y="123.2891">Client</text></a></g><g class="participant participant-tail" data-participant="Client"><a href="/applications/" target="_top" title="/applications/" xlink:actuate="onRequest" xlink:href="/applications/" xlink:show="new" xlink:title="/applications/" xlink:type="simple"><rect fill="#E8F4F8" height="30.4883" rx="2.5" ry="2.5" style="stroke:#2E86AB;stroke-width:0.5;" width="53.5049" x="5" y="509.6582"/><text fill="#000000" font-family="Segoe UI" font-size="14" lengthAdjust="spacing" textLength="39.5049" x="12" y="530.1934">Client</text></a></g><g class="participant participant-head" data-participant="GW"><rect fill="#DBEAFE" height="30.4883" rx="2.5" ry="2.5" style="stroke:#2E86AB;stroke-width:0.5;" width="96.5781" x="145.3408" y="102.7539"/><text fill="#000000" font-family="Segoe UI" font-size="14" lengthAdjust="spacing" textLength="82.5781" x="152.3408" y="123.2891">API Gateway</text></g><g class="participant participant-tail" data-participant="GW"><rect fill="#DBEAFE" height="30.4883" rx="2.5" ry="2.5" style="stroke:#2E86AB;stroke-width:0.5;" width="96.5781" x="145.3408" y="509.6582"/><text fill="#000000" font-family="Segoe UI" font-size="14" lengthAdjust="spacing" textLength="82.5781" x="152.3408" y="530.1934">API Gateway</text></g><g class="participant participant-head" data-participant="Svc"><a href="/microservices/svc-weather/" target="_top" title="/microservices/svc-weather/" xlink:actuate="onRequest" xlink:href="/microservices/svc-weather/" xlink:show="new" xlink:title="/microservices/svc-weather/" xlink:type="simple"><rect fill="#E8F4F8" height="30.4883" rx="2.5" ry="2.5" style="stroke:#2E86AB;stroke-width:0.5;" width="97.4258" x="259.0518" y="102.7539"/><text fill="#000000" font-family="Segoe UI" font-size="14" lengthAdjust="spacing" textLength="83.4258" x="266.0518" y="123.2891">svc-weather</text></a></g><g class="participant participant-tail" data-participant="Svc"><a href="/microservices/svc-weather/" target="_top" title="/microservices/svc-weather/" xlink:actuate="onRequest" xlink:href="/microservices/svc-weather/" xlink:show="new" xlink:title="/microservices/svc-weather/" xlink:type="simple"><rect fill="#E8F4F8" height="30.4883" rx="2.5" ry="2.5" style="stroke:#2E86AB;stroke-width:0.5;" width="97.4258" x="259.0518" y="509.6582"/><text fill="#000000" font-family="Segoe UI" font-size="14" lengthAdjust="spacing" textLength="83.4258" x="266.0518" y="530.1934">svc-weather</text></a></g><g class="participant participant-head" data-participant="ExtWx"><rect fill="#F5F5F5" height="30.4883" rx="2.5" ry="2.5" style="stroke:#2E86AB;stroke-width:0.5;" width="130.9971" x="424.7842" y="102.7539"/><text fill="#000000" font-family="Segoe UI" font-size="14" lengthAdjust="spacing" textLength="116.9971" x="431.7842" y="123.2891">OpenWeather API</text></g><g class="participant participant-tail" data-participant="ExtWx"><rect fill="#F5F5F5" height="30.4883" rx="2.5" ry="2.5" style="stroke:#2E86AB;stroke-width:0.5;" width="130.9971" x="424.7842" y="509.6582"/><text fill="#000000" font-family="Segoe UI" font-size="14" lengthAdjust="spacing" textLength="116.9971" x="431.7842" y="530.1934">OpenWeather API</text></g><g class="participant participant-head" data-participant="DB"><text fill="#000000" font-family="Segoe UI" font-size="14" lengthAdjust="spacing" textLength="82.0723" x="565.7813" y="131.2891">Valkey + PG</text><path d="M591.8174,81.7539 C591.8174,71.7539 609.8174,71.7539 609.8174,71.7539 C609.8174,71.7539 627.8174,71.7539 627.8174,81.7539 L627.8174,107.7539 C627.8174,117.7539 609.8174,117.7539 609.8174,117.7539 C609.8174,117.7539 591.8174,117.7539 591.8174,107.7539 L591.8174,81.7539" fill="#FCE4EC" style="stroke:#181818;stroke-width:0.5;"/><path d="M591.8174,81.7539 C591.8174,91.7539 609.8174,91.7539 609.8174,91.7539 C609.8174,91.7539 627.8174,91.7539 627.8174,81.7539" fill="none" style="stroke:#181818;stroke-width:0.5;"/></g><g class="participant participant-tail" data-participant="DB"><text fill="#000000" font-family="Segoe UI" font-size="14" lengthAdjust="spacing" textLength="82.0723" x="565.7813" y="523.1934">Valkey + PG</text><path d="M591.8174,536.1465 C591.8174,526.1465 609.8174,526.1465 609.8174,526.1465 C609.8174,526.1465 627.8174,526.1465 627.8174,536.1465 L627.8174,562.1465 C627.8174,572.1465 609.8174,572.1465 609.8174,572.1465 C609.8174,572.1465 591.8174,572.1465 591.8174,562.1465 L591.8174,536.1465" fill="#FCE4EC" style="stroke:#181818;stroke-width:0.5;"/><path d="M591.8174,536.1465 C591.8174,546.1465 609.8174,546.1465 609.8174,546.1465 C609.8174,546.1465 627.8174,546.1465 627.8174,536.1465" fill="none" style="stroke:#181818;stroke-width:0.5;"/></g><g><title>API Gateway</title><rect fill="#2563EB" height="291.7949" style="stroke:#A23B72;stroke-width:1;" width="10" x="188.6299" y="200.8633"/></g><g><title>svc-weather</title><rect fill="#2563EB" height="233.1738" style="stroke:#A23B72;stroke-width:1;" width="10" x="302.7646" y="230.1738"/></g><g><title>OpenWeather API</title><rect fill="#DBEAFE" height="29.3105" style="stroke:#A23B72;stroke-width:1;" width="10" x="485.2827" y="302.7949"/></g><g><title>Valkey . PG</title><rect fill="#FCE4EC" height="29.3105" style="stroke:#A23B72;stroke-width:1;" width="10" x="604.8174" y="404.7266"/></g><path d="M237,149.2422 L237,174.2422 L377,174.2422 L377,159.2422 L367,149.2422 L237,149.2422" fill="#FEFFDD" style="stroke:#181818;stroke-width:0.5;"/><path d="M367,149.2422 L367,159.2422 L377,159.2422 L367,149.2422" fill="#FEFFDD" style="stroke:#181818;stroke-width:0.5;"/><a href="/services/api/svc-weather.html#/Weather/getCurrentWeather" target="_top" title="/services/api/svc-weather.html#/Weather/getCurrentWeather" xlink:actuate="onRequest" xlink:href="/services/api/svc-weather.html#/Weather/getCurrentWeather" xlink:show="new" xlink:title="/services/api/svc-weather.html#/Weather/getCurrentWeather" xlink:type="simple"><text fill="#0000FF" font-family="Segoe UI" font-size="13" lengthAdjust="spacing" text-decoration="underline" textLength="119.4058" x="243" y="166.8105">View in Swagger UI</text></a><g class="message" data-participant-1="Client" data-participant-2="GW"><polygon fill="#2563EB" points="176.6299,196.8633,186.6299,200.8633,176.6299,204.8633,180.6299,200.8633" style="stroke:#2563EB;stroke-width:1;"/><line style="stroke:#2563EB;stroke-width:1;" x1="31.7524" x2="182.6299" y1="200.8633" y2="200.8633"/><text fill="#000000" font-family="Segoe UI" font-size="13" lengthAdjust="spacing" textLength="137.8774" x="38.7524" y="196.1211">GET /weather/current</text></g><g class="message" data-participant-1="GW" data-participant-2="Svc"><polygon fill="#2563EB" points="290.7646,226.1738,300.7646,230.1738,290.7646,234.1738,294.7646,230.1738" style="stroke:#2563EB;stroke-width:1;"/><line style="stroke:#2563EB;stroke-width:1;" x1="198.6299" x2="296.7646" y1="230.1738" y2="230.1738"/><text fill="#000000" font-family="Segoe UI" font-size="13" lengthAdjust="spacing" textLength="85.1348" x="205.6299" y="225.4316">route request</text></g><rect fill="#EEEEEE" height="3" style="stroke:#EEEEEE;stroke-width:1;" width="658.8535" x="0" y="258.8291"/><line style="stroke:#000000;stroke-width:1;" x1="0" x2="658.8535" y1="258.8291" y2="258.8291"/><line style="stroke:#000000;stroke-width:1;" x1="0" x2="658.8535" y1="261.8291" y2="261.8291"/><rect fill="#EEEEEE" height="23.3105" style="stroke:#000000;stroke-width:2;" width="190.6743" x="234.0896" y="248.1738"/><text fill="#000000" font-family="Segoe UI" font-size="13" font-weight="bold" lengthAdjust="spacing" textLength="172.3896" x="240.0896" y="264.7422">Cross-Service Integration</text><g class="message" data-participant-1="Svc" data-participant-2="ExtWx"><polygon fill="#2563EB" points="473.2827,298.7949,483.2827,302.7949,473.2827,306.7949,477.2827,302.7949" style="stroke:#2563EB;stroke-width:1;"/><line style="stroke:#2563EB;stroke-width:1;" x1="312.7646" x2="479.2827" y1="302.7949" y2="302.7949"/><text fill="#000000" font-family="Segoe UI" font-size="13" lengthAdjust="spacing" textLength="153.5181" x="319.7646" y="298.0527">Fetch current conditions</text></g><g class="message" data-participant-1="ExtWx" data-participant-2="Svc"><polygon fill="#2563EB" points="323.7646,328.1055,313.7646,332.1055,323.7646,336.1055,319.7646,332.1055" style="stroke:#2563EB;stroke-width:1;"/><line style="stroke:#2563EB;stroke-width:1;stroke-dasharray:2,2;" x1="317.7646" x2="489.2827" y1="332.1055" y2="332.1055"/><text fill="#000000" font-family="Segoe UI" font-size="13" lengthAdjust="spacing" textLength="18.5859" x="329.7646" y="327.3633">OK</text></g><rect fill="#EEEEEE" height="3" style="stroke:#EEEEEE;stroke-width:1;" width="658.8535" x="0" y="360.7607"/><line style="stroke:#000000;stroke-width:1;" x1="0" x2="658.8535" y1="360.7607" y2="360.7607"/><line style="stroke:#000000;stroke-width:1;" x1="0" x2="658.8535" y1="363.7607" y2="363.7607"/><rect fill="#EEEEEE" height="23.3105" style="stroke:#000000;stroke-width:2;" width="80.3711" x="289.2412" y="350.1055"/><text fill="#000000" font-family="Segoe UI" font-size="13" font-weight="bold" lengthAdjust="spacing" textLength="62.0864" x="295.2412" y="366.6738">Database</text><g class="message" data-participant-1="Svc" data-participant-2="DB"><polygon fill="#2563EB" points="592.8174,400.7266,602.8174,404.7266,592.8174,408.7266,596.8174,404.7266" style="stroke:#2563EB;stroke-width:1;"/><line style="stroke:#2563EB;stroke-width:1;" x1="312.7646" x2="598.8174" y1="404.7266" y2="404.7266"/><text fill="#000000" font-family="Segoe UI" font-size="13" lengthAdjust="spacing" textLength="149.2524" x="319.7646" y="399.9844">SELECT ... WHERE filters</text></g><g class="message" data-participant-1="DB" data-participant-2="Svc"><polygon fill="#2563EB" points="323.7646,430.0371,313.7646,434.0371,323.7646,438.0371,319.7646,434.0371" style="stroke:#2563EB;stroke-width:1;"/><line style="stroke:#2563EB;stroke-width:1;stroke-dasharray:2,2;" x1="317.7646" x2="608.8174" y1="434.0371" y2="434.0371"/><text fill="#000000" font-family="Segoe UI" font-size="13" lengthAdjust="spacing" textLength="93.209" x="329.7646" y="429.2949">Page of results</text></g><g class="message" data-participant-1="Svc" data-participant-2="GW"><polygon fill="#2563EB" points="209.6299,459.3477,199.6299,463.3477,209.6299,467.3477,205.6299,463.3477" style="stroke:#2563EB;stroke-width:1;"/><line style="stroke:#2563EB;stroke-width:1;stroke-dasharray:2,2;" x1="203.6299" x2="306.7646" y1="463.3477" y2="463.3477"/><text fill="#000000" font-family="Segoe UI" font-size="13" lengthAdjust="spacing" textLength="47.3599" x="215.6299" y="458.6055">200 OK</text></g><g class="message" data-participant-1="GW" data-participant-2="Client"><polygon fill="#2563EB" points="42.7524,488.6582,32.7524,492.6582,42.7524,496.6582,38.7524,492.6582" style="stroke:#2563EB;stroke-width:1;"/><line style="stroke:#2563EB;stroke-width:1;stroke-dasharray:2,2;" x1="36.7524" x2="192.6299" y1="492.6582" y2="492.6582"/><text fill="#000000" font-family="Segoe UI" font-size="13" lengthAdjust="spacing" textLength="47.3599" x="48.7524" y="487.916">200 OK</text></g><a href="/microservices/svc-weather/#integration-context" target="_top" title="/microservices/svc-weather/#integration-context" xlink:actuate="onRequest" xlink:href="/microservices/svc-weather/#integration-context" xlink:show="new" xlink:title="/microservices/svc-weather/#integration-context" xlink:type="simple"><text fill="#0000FF" font-family="Segoe UI" font-size="10" lengthAdjust="spacing" text-decoration="underline" textLength="170.7617" x="487.0918" y="14.668">&#11014; svc-weather Integration Context</text></a><!--SRC=[VLHDRzf04BtlhnZ1iG8JI092eX8sDaMD4bIIS4WvBFPWLZ5hTtVvYAfU-slwg_fBEZQsOoTHyMMNUVlUx7jZwsSX4wxu3jRSVmvLl9U14qUnWgRdfW_J9K9lUH0VXGnXmoEDbKg06xwFZ1TBSyjt28q5XZ72mwnHFOu_zYXzX9yCw3TMAZxcKjshwnwkix_dN1dXYuHBOySgG5L0tC7rs7u7UTkqE_0klK46kn4Rl14IQpJZRi_kTxEw7Pzg9UzYu7Kkoj8xEpoFwbdvDZPrLh_VN_SgjG-ixBbzzeknBN8w1azFraxuAjQe3i97RUc3tpeYDrjKLbD8Ww7YHiIovPEdU3Bmzyzlg81Wzee1vunPhHWpmaG8K_SUh8BEtok5qdoNKpIGRw2W8Vf0f2IQiUJLLsWuaI1S0xY6ypBjcIT99FnCL5iaLpindizWoWqU-KjsRBg4viHsnpH3DLpb5XbkSV3_xyTgLUPQ8xfBK2xpUv1uHkQUpF94Xb-b3mkuuMkkQI0VUVICB_09vjCCDx49vBYNhiEOfCWWFX0BjK8XKZDb7pmHrLxQMxEBcbQkQeLedBEXHH-F0eyW92oEF0nf_p0Zcr06a8embblP-fowC_mm9yPz8mxaOsPW_cRGaiwaJWs11ekAAdsRT0MT5Wiu6ut08JTrQt6-I6rSHYF6KZGndkqQWeV6tvR3KHcAaZutDW_ql6kLFTrzPG7MiLaJaoA0YYPPFuI5U-Cwzz1kjs7vnVtcmaP41bL5i98GBL-bvZoaj3PaWAPFZgxgJknSfF2ts-cyQIrDE3MJ47aM7w6cI_OF]--></g></svg>