<svg xmlns="http://www.w3.org/2000/svg" xmlns:xlink="http://www.w3.org/1999/xlink" contentStyleType="text/css" data-diagram-type="SEQUENCE" height="576px" preserveAspectRatio="none" style="width:640px;height:576px;background:#FEFEFE;" version="1.1" viewBox="0 0 640 576" width="640px" zoomAndPan="magnify"><title>GET /weather/current</title><defs/><g><rect fill="#FEFEFE" height="576" style="stroke:none;stroke-width:1;" width="640" x="0" y="0"/><text fill="#000000" font-family="Segoe UI" font-size="14" font-weight="bold" lengthAdjust="spacing" textLength="159.3457" x="236.4194" y="28.5352">GET /weather/current</text><text fill="#000000" font-family="Segoe UI" font-size="14" font-weight="bold" lengthAdjust="spacing" textLength="224.2461" x="203.9692" y="45.0234">Get current weather conditions</text><g><title>API Gateway</title><rect fill="#2563EB" height="291.7949" style="stroke:#A23B72;stroke-width:1;" width="10" x="188.6299" y="188.0859"/></g><g><title>svc-weather</title><rect fill="#2563EB" height="233.1738" style="stroke:#A23B72;stroke-width:1;" width="10" x="302.7646" y="217.3965"/></g><g><title>Weather API</title><rect fill="#DBEAFE" height="29.3105" style="stroke:#A23B72;stroke-width:1;" width="10" x="485.2827" y="290.0176"/></g><g><title>Redis . PG</title><rect fill="#FCE4EC" height="29.3105" style="stroke:#A23B72;stroke-width:1;" width="10" x="582.939" y="391.9492"/></g><g><title>Client</title><rect fill="#000000" fill-opacity="0.00000" height="376.416" width="8" x="27.7524" y="121.4648"/><line style="stroke:#A23B72;stroke-width:0.5;stroke-dasharray:5,5;" x1="31" x2="31" y1="121.4648" y2="497.8809"/></g><g><title>API Gateway</title><rect fill="#000000" fill-opacity="0.00000" height="376.416" width="8" x="189.6299" y="121.4648"/><line style="stroke:#A23B72;stroke-width:0.5;stroke-dasharray:5,5;" x1="193.3408" x2="193.3408" y1="121.4648" y2="497.8809"/></g><g><title>svc-weather</title><rect fill="#000000" fill-opacity="0.00000" height="376.416" width="8" x="303.7646" y="121.4648"/><line style="stroke:#A23B72;stroke-width:0.5;stroke-dasharray:5,5;" x1="307.0518" x2="307.0518" y1="121.4648" y2="497.8809"/></g><g><title>Weather API</title><rect fill="#000000" fill-opacity="0.00000" height="376.416" width="8" x="486.2827" y="121.4648"/><line style="stroke:#A23B72;stroke-width:0.5;stroke-dasharray:5,5;" x1="489.8721" x2="489.8721" y1="121.4648" y2="497.8809"/></g><g><title>Redis . PG</title><rect fill="#000000" fill-opacity="0.00000" height="376.416" width="8" x="583.939" y="121.4648"/><line style="stroke:#A23B72;stroke-width:0.5;stroke-dasharray:5,5;" x1="587.6934" x2="587.6934" y1="121.4648" y2="497.8809"/></g><g class="participant participant-head" data-participant="Client"><rect fill="#E8F4F8" height="30.4883" rx="2.5" ry="2.5" style="stroke:#2E86AB;stroke-width:0.5;" width="53.5049" x="5" y="89.9766"/><text fill="#000000" font-family="Segoe UI" font-size="14" lengthAdjust="spacing" textLength="39.5049" x="12" y="110.5117">Client</text></g><g class="participant participant-tail" data-participant="Client"><rect fill="#E8F4F8" height="30.4883" rx="2.5" ry="2.5" style="stroke:#2E86AB;stroke-width:0.5;" width="53.5049" x="5" y="496.8809"/><text fill="#000000" font-family="Segoe UI" font-size="14" lengthAdjust="spacing" textLength="39.5049" x="12" y="517.416">Client</text></g><g class="participant participant-head" data-participant="GW"><rect fill="#DBEAFE" height="30.4883" rx="2.5" ry="2.5" style="stroke:#2E86AB;stroke-width:0.5;" width="96.5781" x="145.3408" y="89.9766"/><text fill="#000000" font-family="Segoe UI" font-size="14" lengthAdjust="spacing" textLength="82.5781" x="152.3408" y="110.5117">API Gateway</text></g><g class="participant participant-tail" data-participant="GW"><rect fill="#DBEAFE" height="30.4883" rx="2.5" ry="2.5" style="stroke:#2E86AB;stroke-width:0.5;" width="96.5781" x="145.3408" y="496.8809"/><text fill="#000000" font-family="Segoe UI" font-size="14" lengthAdjust="spacing" textLength="82.5781" x="152.3408" y="517.416">API Gateway</text></g><g class="participant participant-head" data-participant="Svc"><a href="/microservices/svc-weather/" target="_top" title="/microservices/svc-weather/" xlink:actuate="onRequest" xlink:href="/microservices/svc-weather/" xlink:show="new" xlink:title="/microservices/svc-weather/" xlink:type="simple"><rect fill="#E8F4F8" height="30.4883" rx="2.5" ry="2.5" style="stroke:#2E86AB;stroke-width:0.5;" width="97.4258" x="259.0518" y="89.9766"/><text fill="#000000" font-family="Segoe UI" font-size="14" lengthAdjust="spacing" textLength="83.4258" x="266.0518" y="110.5117">svc-weather</text></a></g><g class="participant participant-tail" data-participant="Svc"><a href="/microservices/svc-weather/" target="_top" title="/microservices/svc-weather/" xlink:actuate="onRequest" xlink:href="/microservices/svc-weather/" xlink:show="new" xlink:title="/microservices/svc-weather/" xlink:type="simple"><rect fill="#E8F4F8" height="30.4883" rx="2.5" ry="2.5" style="stroke:#2E86AB;stroke-width:0.5;" width="97.4258" x="259.0518" y="496.8809"/><text fill="#000000" font-family="Segoe UI" font-size="14" lengthAdjust="spacing" textLength="83.4258" x="266.0518" y="517.416">svc-weather</text></a></g><g class="participant participant-head" data-participant="ExtWx"><rect fill="#F5F5F5" height="30.4883" rx="2.5" ry="2.5" style="stroke:#2E86AB;stroke-width:0.5;" width="94.8213" x="442.8721" y="89.9766"/><text fill="#000000" font-family="Segoe UI" font-size="14" lengthAdjust="spacing" textLength="80.8213" x="449.8721" y="110.5117">Weather API</text></g><g class="participant participant-tail" data-participant="ExtWx"><rect fill="#F5F5F5" height="30.4883" rx="2.5" ry="2.5" style="stroke:#2E86AB;stroke-width:0.5;" width="94.8213" x="442.8721" y="496.8809"/><text fill="#000000" font-family="Segoe UI" font-size="14" lengthAdjust="spacing" textLength="80.8213" x="449.8721" y="517.416">Weather API</text></g><g class="participant participant-head" data-participant="DB"><text fill="#000000" font-family="Segoe UI" font-size="14" lengthAdjust="spacing" textLength="74.4912" x="547.6934" y="118.5117">Redis + PG</text><path d="M569.939,68.9766 C569.939,58.9766 587.939,58.9766 587.939,58.9766 C587.939,58.9766 605.939,58.9766 605.939,68.9766 L605.939,94.9766 C605.939,104.9766 587.939,104.9766 587.939,104.9766 C587.939,104.9766 569.939,104.9766 569.939,94.9766 L569.939,68.9766" fill="#FCE4EC" style="stroke:#181818;stroke-width:0.5;"/><path d="M569.939,68.9766 C569.939,78.9766 587.939,78.9766 587.939,78.9766 C587.939,78.9766 605.939,78.9766 605.939,68.9766" fill="none" style="stroke:#181818;stroke-width:0.5;"/></g><g class="participant participant-tail" data-participant="DB"><text fill="#000000" font-family="Segoe UI" font-size="14" lengthAdjust="spacing" textLength="74.4912" x="547.6934" y="510.416">Redis + PG</text><path d="M569.939,523.3691 C569.939,513.3691 587.939,513.3691 587.939,513.3691 C587.939,513.3691 605.939,513.3691 605.939,523.3691 L605.939,549.3691 C605.939,559.3691 587.939,559.3691 587.939,559.3691 C587.939,559.3691 569.939,559.3691 569.939,549.3691 L569.939,523.3691" fill="#FCE4EC" style="stroke:#181818;stroke-width:0.5;"/><path d="M569.939,523.3691 C569.939,533.3691 587.939,533.3691 587.939,533.3691 C587.939,533.3691 605.939,533.3691 605.939,523.3691" fill="none" style="stroke:#181818;stroke-width:0.5;"/></g><g><title>API Gateway</title><rect fill="#2563EB" height="291.7949" style="stroke:#A23B72;stroke-width:1;" width="10" x="188.6299" y="188.0859"/></g><g><title>svc-weather</title><rect fill="#2563EB" height="233.1738" style="stroke:#A23B72;stroke-width:1;" width="10" x="302.7646" y="217.3965"/></g><g><title>Weather API</title><rect fill="#DBEAFE" height="29.3105" style="stroke:#A23B72;stroke-width:1;" width="10" x="485.2827" y="290.0176"/></g><g><title>Redis . PG</title><rect fill="#FCE4EC" height="29.3105" style="stroke:#A23B72;stroke-width:1;" width="10" x="582.939" y="391.9492"/></g><path d="M237,136.4648 L237,161.4648 L377,161.4648 L377,146.4648 L367,136.4648 L237,136.4648" fill="#FEFFDD" style="stroke:#181818;stroke-width:0.5;"/><path d="M367,136.4648 L367,146.4648 L377,146.4648 L367,136.4648" fill="#FEFFDD" style="stroke:#181818;stroke-width:0.5;"/><a href="/services/api/svc-weather.html#/Weather/getCurrentWeather" target="_top" title="/services/api/svc-weather.html#/Weather/getCurrentWeather" xlink:actuate="onRequest" xlink:href="/services/api/svc-weather.html#/Weather/getCurrentWeather" xlink:show="new" xlink:title="/services/api/svc-weather.html#/Weather/getCurrentWeather" xlink:type="simple"><text fill="#0000FF" font-family="Segoe UI" font-size="13" lengthAdjust="spacing" text-decoration="underline" textLength="119.4058" x="243" y="154.0332">View in Swagger UI</text></a><g class="message" data-participant-1="Client" data-participant-2="GW"><polygon fill="#2563EB" points="176.6299,184.0859,186.6299,188.0859,176.6299,192.0859,180.6299,188.0859" style="stroke:#2563EB;stroke-width:1;"/><line style="stroke:#2563EB;stroke-width:1;" x1="31.7524" x2="182.6299" y1="188.0859" y2="188.0859"/><text fill="#000000" font-family="Segoe UI" font-size="13" lengthAdjust="spacing" textLength="137.8774" x="38.7524" y="183.3438">GET /weather/current</text></g><g class="message" data-participant-1="GW" data-participant-2="Svc"><polygon fill="#2563EB" points="290.7646,213.3965,300.7646,217.3965,290.7646,221.3965,294.7646,217.3965" style="stroke:#2563EB;stroke-width:1;"/><line style="stroke:#2563EB;stroke-width:1;" x1="198.6299" x2="296.7646" y1="217.3965" y2="217.3965"/><text fill="#000000" font-family="Segoe UI" font-size="13" lengthAdjust="spacing" textLength="85.1348" x="205.6299" y="212.6543">route request</text></g><rect fill="#EEEEEE" height="3" style="stroke:#EEEEEE;stroke-width:1;" width="633.1846" x="0" y="246.0518"/><line style="stroke:#000000;stroke-width:1;" x1="0" x2="633.1846" y1="246.0518" y2="246.0518"/><line style="stroke:#000000;stroke-width:1;" x1="0" x2="633.1846" y1="249.0518" y2="249.0518"/><rect fill="#EEEEEE" height="23.3105" style="stroke:#000000;stroke-width:2;" width="190.6743" x="221.2551" y="235.3965"/><text fill="#000000" font-family="Segoe UI" font-size="13" font-weight="bold" lengthAdjust="spacing" textLength="172.3896" x="227.2551" y="251.9648">Cross-Service Integration</text><g class="message" data-participant-1="Svc" data-participant-2="ExtWx"><polygon fill="#2563EB" points="473.2827,286.0176,483.2827,290.0176,473.2827,294.0176,477.2827,290.0176" style="stroke:#2563EB;stroke-width:1;"/><line style="stroke:#2563EB;stroke-width:1;" x1="312.7646" x2="479.2827" y1="290.0176" y2="290.0176"/><text fill="#000000" font-family="Segoe UI" font-size="13" lengthAdjust="spacing" textLength="153.5181" x="319.7646" y="285.2754">Fetch current conditions</text></g><g class="message" data-participant-1="ExtWx" data-participant-2="Svc"><polygon fill="#2563EB" points="323.7646,315.3281,313.7646,319.3281,323.7646,323.3281,319.7646,319.3281" style="stroke:#2563EB;stroke-width:1;"/><line style="stroke:#2563EB;stroke-width:1;stroke-dasharray:2,2;" x1="317.7646" x2="489.2827" y1="319.3281" y2="319.3281"/><text fill="#000000" font-family="Segoe UI" font-size="13" lengthAdjust="spacing" textLength="18.5859" x="329.7646" y="314.5859">OK</text></g><rect fill="#EEEEEE" height="3" style="stroke:#EEEEEE;stroke-width:1;" width="633.1846" x="0" y="347.9834"/><line style="stroke:#000000;stroke-width:1;" x1="0" x2="633.1846" y1="347.9834" y2="347.9834"/><line style="stroke:#000000;stroke-width:1;" x1="0" x2="633.1846" y1="350.9834" y2="350.9834"/><rect fill="#EEEEEE" height="23.3105" style="stroke:#000000;stroke-width:2;" width="80.3711" x="276.4067" y="337.3281"/><text fill="#000000" font-family="Segoe UI" font-size="13" font-weight="bold" lengthAdjust="spacing" textLength="62.0864" x="282.4067" y="353.8965">Database</text><g class="message" data-participant-1="Svc" data-participant-2="DB"><polygon fill="#2563EB" points="570.939,387.9492,580.939,391.9492,570.939,395.9492,574.939,391.9492" style="stroke:#2563EB;stroke-width:1;"/><line style="stroke:#2563EB;stroke-width:1;" x1="312.7646" x2="576.939" y1="391.9492" y2="391.9492"/><text fill="#000000" font-family="Segoe UI" font-size="13" lengthAdjust="spacing" textLength="149.2524" x="319.7646" y="387.207">SELECT ... WHERE filters</text></g><g class="message" data-participant-1="DB" data-participant-2="Svc"><polygon fill="#2563EB" points="323.7646,417.2598,313.7646,421.2598,323.7646,425.2598,319.7646,421.2598" style="stroke:#2563EB;stroke-width:1;"/><line style="stroke:#2563EB;stroke-width:1;stroke-dasharray:2,2;" x1="317.7646" x2="586.939" y1="421.2598" y2="421.2598"/><text fill="#000000" font-family="Segoe UI" font-size="13" lengthAdjust="spacing" textLength="93.209" x="329.7646" y="416.5176">Page of results</text></g><g class="message" data-participant-1="Svc" data-participant-2="GW"><polygon fill="#2563EB" points="209.6299,446.5703,199.6299,450.5703,209.6299,454.5703,205.6299,450.5703" style="stroke:#2563EB;stroke-width:1;"/><line style="stroke:#2563EB;stroke-width:1;stroke-dasharray:2,2;" x1="203.6299" x2="306.7646" y1="450.5703" y2="450.5703"/><text fill="#000000" font-family="Segoe UI" font-size="13" lengthAdjust="spacing" textLength="47.3599" x="215.6299" y="445.8281">200 OK</text></g><g class="message" data-participant-1="GW" data-participant-2="Client"><polygon fill="#2563EB" points="42.7524,475.8809,32.7524,479.8809,42.7524,483.8809,38.7524,479.8809" style="stroke:#2563EB;stroke-width:1;"/><line style="stroke:#2563EB;stroke-width:1;stroke-dasharray:2,2;" x1="36.7524" x2="192.6299" y1="479.8809" y2="479.8809"/><text fill="#000000" font-family="Segoe UI" font-size="13" lengthAdjust="spacing" textLength="47.3599" x="48.7524" y="475.1387">200 OK</text></g><!--SRC=[RLFHRjem57ttLrpHnmb2eIq8YKaaE0mDTQYquw7ZmIINO3NOp3RGQTg_xoQ4D6bBNcpEoJt7vpZsHQgzC687Qn6z94OVL1peL1ku2ddsC5iox5R4-YHL0XkHMgmWCMx48NMXLkvUx10Q2qmqmjEqKNqTVnzGHGX_6T1lP8m-5LATsxikhlE_vy8u6SczKCxN9aPpeV3-tSZ_G7blclV3cx2VqsPoWpEfi3PcrEdwlKwE-_gr1eNN_R1zNK8VuWX3mdFuNhlwrAZNMtShs2THTdcF_MFCIPSYJFWZU2SKRel6Ymx6e7A_r0GT51ieG8YqYgMJMbd6zc_dXaQGIk8rG5WuB-lmQ3w5YN1u4dzopcG9LsEVZwZG6iyUesQXbVCMnmYUdxsTZ8osQ8uoGkjLIDvgLOPS6xGi39DmFeY_kkKhdVmsUrWid5WBIpVZ0MDfuGlC9pbjx1Cdu3SyO4nHTA2FD8HSK9ZaexGWzh9gexLrk_JAAqIz15rm3kvYuwV44qW5YvD84je_JLShXYg6J8InSsJG_9e5C_Yq3oOY9uyKOPvTSKDfIUza8Gs02YRGPBVQLjWPUA6puH022j8s5-U3m5GvJ8p86eNXaB6CJHFFQGqWH1TjoqjGARySN-HQT7dUDKjFFxwp6ElStCJuadz5aw8Vm8BFUF08hLOBbj_u0uUDJ1sQYc2b8Lg-ISr5GcrjA01BdxwjwexzGkIIRwVTVcSjQpWBanX55v-n9als7m00]--></g></svg>