<?plantuml 1.2026.2?><svg xmlns="http://www.w3.org/2000/svg" xmlns:xlink="http://www.w3.org/1999/xlink" contentStyleType="text/css" data-diagram-type="SEQUENCE" height="1666px" preserveAspectRatio="none" style="width:1327px;height:1666px;background:#FEFEFE;" version="1.1" viewBox="0 0 1327 1666" width="1327px" zoomAndPan="magnify"><title>POST /schedule-requests
Request optimal daily schedule
&lt;size:10&gt;&lt;color:#7c3aed&gt;ARCHITECT OVERRIDE &#8212; enriched with parallel lookup and constraint logic&lt;/color&gt;&lt;/size&gt;</title><defs/><g><rect fill="#FEFEFE" height="1666" style="stroke:none;stroke-width:1;" width="1327" x="0" y="0"/><text fill="#000000" font-family="'Segoe UI'" font-size="14" font-weight="bold" lengthAdjust="spacing" textLength="185.9785" x="566.853" y="41.3125">POST /schedule-requests</text><text fill="#000000" font-family="'Segoe UI'" font-size="14" font-weight="bold" lengthAdjust="spacing" textLength="225.5381" x="547.0732" y="57.8008">Request optimal daily schedule</text><text fill="#7C3AED" font-family="'Segoe UI'" font-size="10" font-weight="bold" lengthAdjust="spacing" textLength="388.7256" x="465.4795" y="70.4219">ARCHITECT OVERRIDE &#8212; enriched with parallel lookup and constraint logic</text><g><title>API Gateway</title><rect fill="#2563EB" height="766.3164" style="stroke:#181818;stroke-width:1;" width="10" x="226.729" y="212.6406"/></g><g><title>svc-scheduling-orchestrator</title><rect fill="#2563EB" height="707.6953" style="stroke:#181818;stroke-width:1;" width="10" x="437.5532" y="241.9512"/></g><g><title>Trip Catalog</title><rect fill="#FEF3C7" height="59.9316" style="stroke:#181818;stroke-width:1;" width="10" x="728.5" y="365.1934"/></g><g><title>Guide Mgmt</title><rect fill="#E0E7FF" height="118.5527" style="stroke:#181818;stroke-width:1;" width="10" x="835.8096" y="548.3672"/></g><g><title>Trail Mgmt</title><rect fill="#FEF3C7" height="149.1738" style="stroke:#181818;stroke-width:1;" width="10" x="938.269" y="577.6777"/></g><g><title>Weather Svc</title><rect fill="#F1F5F9" height="179.7949" style="stroke:#181818;stroke-width:1;" width="10" x="1039.9082" y="606.9883"/></g><g><title>PG . Valkey</title><rect fill="#FEF9C3" height="29.3105" style="stroke:#181818;stroke-width:1;" width="10" x="1251.6484" y="1371.8359"/></g><rect fill="none" height="288.3262" rx="4" ry="4" style="stroke:#000000;stroke-width:1.5;" width="647.0928" x="10" y="845.0938"/><rect fill="none" height="121.8633" rx="4" ry="4" style="stroke:#000000;stroke-width:1.5;" width="982.605" x="328.0796" y="1287.2832"/><g class="participant-lifeline" data-entity-uid="part1" data-qualified-name="Client" id="part1-lifeline"><g><title>Client</title><rect fill="#000000" fill-opacity="0.00000" height="1441.9902" width="8" x="42.7524" y="146.0195"/><line style="stroke:#6B7280;stroke-width:0.5;stroke-dasharray:5,5;" x1="46" x2="46" y1="146.0195" y2="1588.0098"/></g></g><g class="participant-lifeline" data-entity-uid="part2" data-qualified-name="GW" id="part2-lifeline"><g><title>API Gateway</title><rect fill="#000000" fill-opacity="0.00000" height="1441.9902" width="8" x="227.729" y="146.0195"/><line style="stroke:#6B7280;stroke-width:0.5;stroke-dasharray:5,5;" x1="231.4399" x2="231.4399" y1="146.0195" y2="1588.0098"/></g></g><g class="participant-lifeline" data-entity-uid="part3" data-qualified-name="Svc" id="part3-lifeline"><g><title>svc-scheduling-orchestrator</title><rect fill="#000000" fill-opacity="0.00000" height="1441.9902" width="8" x="438.5532" y="146.0195"/><line style="stroke:#6B7280;stroke-width:0.5;stroke-dasharray:5,5;" x1="442.0796" x2="442.0796" y1="146.0195" y2="1588.0098"/></g></g><g class="participant-lifeline" data-entity-uid="part4" data-qualified-name="TC" id="part4-lifeline"><g><title>Trip Catalog</title><rect fill="#000000" fill-opacity="0.00000" height="1441.9902" width="8" x="729.5" y="146.0195"/><line style="stroke:#6B7280;stroke-width:0.5;stroke-dasharray:5,5;" x1="732.6846" x2="732.6846" y1="146.0195" y2="1588.0098"/></g></g><g class="participant-lifeline" data-entity-uid="part5" data-qualified-name="GM" id="part5-lifeline"><g><title>Guide Mgmt</title><rect fill="#000000" fill-opacity="0.00000" height="1441.9902" width="8" x="836.8096" y="146.0195"/><line style="stroke:#6B7280;stroke-width:0.5;stroke-dasharray:5,5;" x1="840.3154" x2="840.3154" y1="146.0195" y2="1588.0098"/></g></g><g class="participant-lifeline" data-entity-uid="part6" data-qualified-name="TM" id="part6-lifeline"><g><title>Trail Mgmt</title><rect fill="#000000" fill-opacity="0.00000" height="1441.9902" width="8" x="939.269" y="146.0195"/><line style="stroke:#6B7280;stroke-width:0.5;stroke-dasharray:5,5;" x1="942.3037" x2="942.3037" y1="146.0195" y2="1588.0098"/></g></g><g class="participant-lifeline" data-entity-uid="part7" data-qualified-name="WX" id="part7-lifeline"><g><title>Weather Svc</title><rect fill="#000000" fill-opacity="0.00000" height="1441.9902" width="8" x="1040.9082" y="146.0195"/><line style="stroke:#6B7280;stroke-width:0.5;stroke-dasharray:5,5;" x1="1044.2344" x2="1044.2344" y1="146.0195" y2="1588.0098"/></g></g><g class="participant-lifeline" data-entity-uid="part8" data-qualified-name="Ntfy" id="part8-lifeline"><g><title>Notifications</title><rect fill="#000000" fill-opacity="0.00000" height="1441.9902" width="8" x="1148.5972" y="146.0195"/><line style="stroke:#6B7280;stroke-width:0.5;stroke-dasharray:5,5;" x1="1152.582" x2="1152.582" y1="146.0195" y2="1588.0098"/></g></g><g class="participant-lifeline" data-entity-uid="part9" data-qualified-name="DB" id="part9-lifeline"><g><title>PG . Valkey</title><rect fill="#000000" fill-opacity="0.00000" height="1441.9902" width="8" x="1252.6484" y="146.0195"/><line style="stroke:#6B7280;stroke-width:0.5;stroke-dasharray:5,5;" x1="1256.6123" x2="1256.6123" y1="146.0195" y2="1588.0098"/></g></g><g class="participant participant-head" data-entity-uid="part1" data-qualified-name="Client" id="part1-head"><a href="/applications/" target="_top" title="/applications/" xlink:actuate="onRequest" xlink:href="/applications/" xlink:show="new" xlink:title="/applications/" xlink:type="simple"><rect fill="#F9FAFB" height="30.4883" rx="4" ry="4" style="stroke:#374151;stroke-width:0.5;" width="53.5049" x="20" y="114.5313"/><text fill="#000000" font-family="'Segoe UI'" font-size="14" lengthAdjust="spacing" textLength="39.5049" x="27" y="135.0664">Client</text></a></g><g class="participant participant-tail" data-entity-uid="part1" data-qualified-name="Client" id="part1-tail"><a href="/applications/" target="_top" title="/applications/" xlink:actuate="onRequest" xlink:href="/applications/" xlink:show="new" xlink:title="/applications/" xlink:type="simple"><rect fill="#F9FAFB" height="30.4883" rx="4" ry="4" style="stroke:#374151;stroke-width:0.5;" width="53.5049" x="20" y="1587.0098"/><text fill="#000000" font-family="'Segoe UI'" font-size="14" lengthAdjust="spacing" textLength="39.5049" x="27" y="1607.5449">Client</text></a></g><g class="participant participant-head" data-entity-uid="part2" data-qualified-name="GW" id="part2-head"><a href="/actors/#api-gateway" target="_top" title="/actors/#api-gateway" xlink:actuate="onRequest" xlink:href="/actors/#api-gateway" xlink:show="new" xlink:title="/actors/#api-gateway" xlink:type="simple"><rect fill="#E0F2FE" height="30.4883" rx="4" ry="4" style="stroke:#374151;stroke-width:0.5;" width="96.5781" x="183.4399" y="114.5313"/><text fill="#000000" font-family="'Segoe UI'" font-size="14" lengthAdjust="spacing" textLength="82.5781" x="190.4399" y="135.0664">API Gateway</text></a></g><g class="participant participant-tail" data-entity-uid="part2" data-qualified-name="GW" id="part2-tail"><a href="/actors/#api-gateway" target="_top" title="/actors/#api-gateway" xlink:actuate="onRequest" xlink:href="/actors/#api-gateway" xlink:show="new" xlink:title="/actors/#api-gateway" xlink:type="simple"><rect fill="#E0F2FE" height="30.4883" rx="4" ry="4" style="stroke:#374151;stroke-width:0.5;" width="96.5781" x="183.4399" y="1587.0098"/><text fill="#000000" font-family="'Segoe UI'" font-size="14" lengthAdjust="spacing" textLength="82.5781" x="190.4399" y="1607.5449">API Gateway</text></a></g><g class="participant participant-head" data-entity-uid="part3" data-qualified-name="Svc" id="part3-head"><a href="/microservices/svc-scheduling-orchestrator/" target="_top" title="/microservices/svc-scheduling-orchestrator/" xlink:actuate="onRequest" xlink:href="/microservices/svc-scheduling-orchestrator/" xlink:show="new" xlink:title="/microservices/svc-scheduling-orchestrator/" xlink:type="simple"><rect fill="#DBEAFE" height="30.4883" rx="4" ry="4" style="stroke:#374151;stroke-width:0.5;" width="208.9473" x="338.0796" y="114.5313"/><text fill="#000000" font-family="'Segoe UI'" font-size="14" lengthAdjust="spacing" textLength="194.9473" x="345.0796" y="135.0664">svc-scheduling-orchestrator</text></a></g><g class="participant participant-tail" data-entity-uid="part3" data-qualified-name="Svc" id="part3-tail"><a href="/microservices/svc-scheduling-orchestrator/" target="_top" title="/microservices/svc-scheduling-orchestrator/" xlink:actuate="onRequest" xlink:href="/microservices/svc-scheduling-orchestrator/" xlink:show="new" xlink:title="/microservices/svc-scheduling-orchestrator/" xlink:type="simple"><rect fill="#DBEAFE" height="30.4883" rx="4" ry="4" style="stroke:#374151;stroke-width:0.5;" width="208.9473" x="338.0796" y="1587.0098"/><text fill="#000000" font-family="'Segoe UI'" font-size="14" lengthAdjust="spacing" textLength="194.9473" x="345.0796" y="1607.5449">svc-scheduling-orchestrator</text></a></g><g class="participant participant-head" data-entity-uid="part4" data-qualified-name="TC" id="part4-head"><a href="/microservices/svc-trip-catalog/" target="_top" title="/microservices/svc-trip-catalog/" xlink:actuate="onRequest" xlink:href="/microservices/svc-trip-catalog/" xlink:show="new" xlink:title="/microservices/svc-trip-catalog/" xlink:type="simple"><rect fill="#FEF3C7" height="30.4883" rx="4" ry="4" style="stroke:#374151;stroke-width:0.5;" width="97.6309" x="684.6846" y="114.5313"/><text fill="#000000" font-family="'Segoe UI'" font-size="14" lengthAdjust="spacing" textLength="83.6309" x="691.6846" y="135.0664">Trip Catalog</text></a></g><g class="participant participant-tail" data-entity-uid="part4" data-qualified-name="TC" id="part4-tail"><a href="/microservices/svc-trip-catalog/" target="_top" title="/microservices/svc-trip-catalog/" xlink:actuate="onRequest" xlink:href="/microservices/svc-trip-catalog/" xlink:show="new" xlink:title="/microservices/svc-trip-catalog/" xlink:type="simple"><rect fill="#FEF3C7" height="30.4883" rx="4" ry="4" style="stroke:#374151;stroke-width:0.5;" width="97.6309" x="684.6846" y="1587.0098"/><text fill="#000000" font-family="'Segoe UI'" font-size="14" lengthAdjust="spacing" textLength="83.6309" x="691.6846" y="1607.5449">Trip Catalog</text></a></g><g class="participant participant-head" data-entity-uid="part5" data-qualified-name="GM" id="part5-head"><a href="/microservices/svc-guide-management/" target="_top" title="/microservices/svc-guide-management/" xlink:actuate="onRequest" xlink:href="/microservices/svc-guide-management/" xlink:show="new" xlink:title="/microservices/svc-guide-management/" xlink:type="simple"><rect fill="#E0E7FF" height="30.4883" rx="4" ry="4" style="stroke:#374151;stroke-width:0.5;" width="96.9883" x="792.3154" y="114.5313"/><text fill="#000000" font-family="'Segoe UI'" font-size="14" lengthAdjust="spacing" textLength="82.9883" x="799.3154" y="135.0664">Guide Mgmt</text></a></g><g class="participant participant-tail" data-entity-uid="part5" data-qualified-name="GM" id="part5-tail"><a href="/microservices/svc-guide-management/" target="_top" title="/microservices/svc-guide-management/" xlink:actuate="onRequest" xlink:href="/microservices/svc-guide-management/" xlink:show="new" xlink:title="/microservices/svc-guide-management/" xlink:type="simple"><rect fill="#E0E7FF" height="30.4883" rx="4" ry="4" style="stroke:#374151;stroke-width:0.5;" width="96.9883" x="792.3154" y="1587.0098"/><text fill="#000000" font-family="'Segoe UI'" font-size="14" lengthAdjust="spacing" textLength="82.9883" x="799.3154" y="1607.5449">Guide Mgmt</text></a></g><g class="participant participant-head" data-entity-uid="part6" data-qualified-name="TM" id="part6-head"><a href="/microservices/svc-trail-management/" target="_top" title="/microservices/svc-trail-management/" xlink:actuate="onRequest" xlink:href="/microservices/svc-trail-management/" xlink:show="new" xlink:title="/microservices/svc-trail-management/" xlink:type="simple"><rect fill="#FEF3C7" height="30.4883" rx="4" ry="4" style="stroke:#374151;stroke-width:0.5;" width="87.9307" x="899.3037" y="114.5313"/><text fill="#000000" font-family="'Segoe UI'" font-size="14" lengthAdjust="spacing" textLength="73.9307" x="906.3037" y="135.0664">Trail Mgmt</text></a></g><g class="participant participant-tail" data-entity-uid="part6" data-qualified-name="TM" id="part6-tail"><a href="/microservices/svc-trail-management/" target="_top" title="/microservices/svc-trail-management/" xlink:actuate="onRequest" xlink:href="/microservices/svc-trail-management/" xlink:show="new" xlink:title="/microservices/svc-trail-management/" xlink:type="simple"><rect fill="#FEF3C7" height="30.4883" rx="4" ry="4" style="stroke:#374151;stroke-width:0.5;" width="87.9307" x="899.3037" y="1587.0098"/><text fill="#000000" font-family="'Segoe UI'" font-size="14" lengthAdjust="spacing" textLength="73.9307" x="906.3037" y="1607.5449">Trail Mgmt</text></a></g><g class="participant participant-head" data-entity-uid="part7" data-qualified-name="WX" id="part7-head"><a href="/microservices/svc-weather/" target="_top" title="/microservices/svc-weather/" xlink:actuate="onRequest" xlink:href="/microservices/svc-weather/" xlink:show="new" xlink:title="/microservices/svc-weather/" xlink:type="simple"><rect fill="#F1F5F9" height="30.4883" rx="4" ry="4" style="stroke:#374151;stroke-width:0.5;" width="95.3477" x="997.2344" y="114.5313"/><text fill="#000000" font-family="'Segoe UI'" font-size="14" lengthAdjust="spacing" textLength="81.3477" x="1004.2344" y="135.0664">Weather Svc</text></a></g><g class="participant participant-tail" data-entity-uid="part7" data-qualified-name="WX" id="part7-tail"><a href="/microservices/svc-weather/" target="_top" title="/microservices/svc-weather/" xlink:actuate="onRequest" xlink:href="/microservices/svc-weather/" xlink:show="new" xlink:title="/microservices/svc-weather/" xlink:type="simple"><rect fill="#F1F5F9" height="30.4883" rx="4" ry="4" style="stroke:#374151;stroke-width:0.5;" width="95.3477" x="997.2344" y="1587.0098"/><text fill="#000000" font-family="'Segoe UI'" font-size="14" lengthAdjust="spacing" textLength="81.3477" x="1004.2344" y="1607.5449">Weather Svc</text></a></g><g class="participant participant-head" data-entity-uid="part8" data-qualified-name="Ntfy" id="part8-head"><a href="/microservices/svc-notifications/" target="_top" title="/microservices/svc-notifications/" xlink:actuate="onRequest" xlink:href="/microservices/svc-notifications/" xlink:show="new" xlink:title="/microservices/svc-notifications/" xlink:type="simple"><rect fill="#F1F5F9" height="30.4883" rx="4" ry="4" style="stroke:#374151;stroke-width:0.5;" width="100.0303" x="1102.582" y="114.5313"/><text fill="#000000" font-family="'Segoe UI'" font-size="14" lengthAdjust="spacing" textLength="86.0303" x="1109.582" y="135.0664">Notifications</text></a></g><g class="participant participant-tail" data-entity-uid="part8" data-qualified-name="Ntfy" id="part8-tail"><a href="/microservices/svc-notifications/" target="_top" title="/microservices/svc-notifications/" xlink:actuate="onRequest" xlink:href="/microservices/svc-notifications/" xlink:show="new" xlink:title="/microservices/svc-notifications/" xlink:type="simple"><rect fill="#F1F5F9" height="30.4883" rx="4" ry="4" style="stroke:#374151;stroke-width:0.5;" width="100.0303" x="1102.582" y="1587.0098"/><text fill="#000000" font-family="'Segoe UI'" font-size="14" lengthAdjust="spacing" textLength="86.0303" x="1109.582" y="1607.5449">Notifications</text></a></g><g class="participant participant-head" data-entity-uid="part9" data-qualified-name="DB" id="part9-head"><a href="/microservices/svc-scheduling-orchestrator/#data-store" target="_top" title="/microservices/svc-scheduling-orchestrator/#data-store" xlink:actuate="onRequest" xlink:href="/microservices/svc-scheduling-orchestrator/#data-store" xlink:show="new" xlink:title="/microservices/svc-scheduling-orchestrator/#data-store" xlink:type="simple"><text fill="#000000" font-family="'Segoe UI'" font-size="14" lengthAdjust="spacing" textLength="82.0723" x="1212.6123" y="143.0664">PG + Valkey</text><path d="M1238.6484,93.5313 C1238.6484,83.5313 1256.6484,83.5313 1256.6484,83.5313 C1256.6484,83.5313 1274.6484,83.5313 1274.6484,93.5313 L1274.6484,119.5313 C1274.6484,129.5313 1256.6484,129.5313 1256.6484,129.5313 C1256.6484,129.5313 1238.6484,129.5313 1238.6484,119.5313 L1238.6484,93.5313" fill="#FEF9C3" style="stroke:#181818;stroke-width:0.5;"/><path d="M1238.6484,93.5313 C1238.6484,103.5313 1256.6484,103.5313 1256.6484,103.5313 C1256.6484,103.5313 1274.6484,103.5313 1274.6484,93.5313" fill="none" style="stroke:#181818;stroke-width:0.5;"/></a></g><g class="participant participant-tail" data-entity-uid="part9" data-qualified-name="DB" id="part9-tail"><a href="/microservices/svc-scheduling-orchestrator/#data-store" target="_top" title="/microservices/svc-scheduling-orchestrator/#data-store" xlink:actuate="onRequest" xlink:href="/microservices/svc-scheduling-orchestrator/#data-store" xlink:show="new" xlink:title="/microservices/svc-scheduling-orchestrator/#data-store" xlink:type="simple"><text fill="#000000" font-family="'Segoe UI'" font-size="14" lengthAdjust="spacing" textLength="82.0723" x="1212.6123" y="1600.5449">PG + Valkey</text><path d="M1238.6484,1613.498 C1238.6484,1603.498 1256.6484,1603.498 1256.6484,1603.498 C1256.6484,1603.498 1274.6484,1603.498 1274.6484,1613.498 L1274.6484,1639.498 C1274.6484,1649.498 1256.6484,1649.498 1256.6484,1649.498 C1256.6484,1649.498 1238.6484,1649.498 1238.6484,1639.498 L1238.6484,1613.498" fill="#FEF9C3" style="stroke:#181818;stroke-width:0.5;"/><path d="M1238.6484,1613.498 C1238.6484,1623.498 1256.6484,1623.498 1256.6484,1623.498 C1256.6484,1623.498 1274.6484,1623.498 1274.6484,1613.498" fill="none" style="stroke:#181818;stroke-width:0.5;"/></a></g><g><title>API Gateway</title><rect fill="#2563EB" height="766.3164" style="stroke:#181818;stroke-width:1;" width="10" x="226.729" y="212.6406"/></g><g><title>svc-scheduling-orchestrator</title><rect fill="#2563EB" height="707.6953" style="stroke:#181818;stroke-width:1;" width="10" x="437.5532" y="241.9512"/></g><g><title>Trip Catalog</title><rect fill="#FEF3C7" height="59.9316" style="stroke:#181818;stroke-width:1;" width="10" x="728.5" y="365.1934"/></g><g><title>Guide Mgmt</title><rect fill="#E0E7FF" height="118.5527" style="stroke:#181818;stroke-width:1;" width="10" x="835.8096" y="548.3672"/></g><g><title>Trail Mgmt</title><rect fill="#FEF3C7" height="149.1738" style="stroke:#181818;stroke-width:1;" width="10" x="938.269" y="577.6777"/></g><g><title>Weather Svc</title><rect fill="#F1F5F9" height="179.7949" style="stroke:#181818;stroke-width:1;" width="10" x="1039.9082" y="606.9883"/></g><g><title>PG . Valkey</title><rect fill="#FEF9C3" height="29.3105" style="stroke:#181818;stroke-width:1;" width="10" x="1251.6484" y="1371.8359"/></g><path d="M372,165.0195 L372,182.0195 A4,4 0 0 0 376,186.0195 L508,186.0195 A4,4 0 0 0 512,182.0195 L512,171.0195 L502,161.0195 L376,161.0195 A4,4 0 0 0 372,165.0195" fill="#FEFFDD" style="stroke:#181818;stroke-width:0.5;"/><path d="M502,161.0195 L502,169.0195 A2,2 0 0 0 504,171.0195 L512,171.0195 L502,161.0195" fill="#FEFFDD" style="stroke:#181818;stroke-width:0.5;"/><a href="/services/api/svc-scheduling-orchestrator.html" target="_top" title="/services/api/svc-scheduling-orchestrator.html" xlink:actuate="onRequest" xlink:href="/services/api/svc-scheduling-orchestrator.html" xlink:show="new" xlink:title="/services/api/svc-scheduling-orchestrator.html" xlink:type="simple"><text fill="#0000FF" font-family="'Segoe UI'" font-size="13" lengthAdjust="spacing" text-decoration="underline" textLength="119.4058" x="378" y="178.5879">View in Swagger UI</text></a><g class="message" data-entity-1="part1" data-entity-2="part2" id="msg1"><polygon fill="#2563EB" points="214.729,208.6406,224.729,212.6406,214.729,216.6406,218.729,212.6406" style="stroke:#2563EB;stroke-width:1;"/><line style="stroke:#2563EB;stroke-width:1;" x1="46.7524" x2="220.729" y1="212.6406" y2="212.6406"/><text fill="#000000" font-family="'Segoe UI'" font-size="13" lengthAdjust="spacing" textLength="160.9766" x="53.7524" y="207.8984">POST /schedule-requests</text></g><g class="message" data-entity-1="part2" data-entity-2="part3" id="msg2"><polygon fill="#2563EB" points="425.5532,237.9512,435.5532,241.9512,425.5532,245.9512,429.5532,241.9512" style="stroke:#2563EB;stroke-width:1;"/><line style="stroke:#2563EB;stroke-width:1;" x1="236.729" x2="431.5532" y1="241.9512" y2="241.9512"/><text fill="#000000" font-family="'Segoe UI'" font-size="13" lengthAdjust="spacing" textLength="85.1348" x="243.729" y="237.209">route request</text></g><path d="M452,258.9512 L452,290.9512 A4,4 0 0 0 456,294.9512 L663,294.9512 A4,4 0 0 0 667,290.9512 L667,264.9512 L657,254.9512 L456,254.9512 A4,4 0 0 0 452,258.9512" fill="#FEFFDD" style="stroke:#181818;stroke-width:0.5;"/><path d="M657,254.9512 L657,262.9512 A2,2 0 0 0 659,264.9512 L667,264.9512 L657,254.9512" fill="#FEFFDD" style="stroke:#181818;stroke-width:0.5;"/><text fill="#000000" font-family="'Segoe UI'" font-size="13" lengthAdjust="spacing" textLength="102.3179" x="458" y="272.5195">Validate request</text><text fill="#000000" font-family="'Segoe UI'" font-size="13" lengthAdjust="spacing" textLength="194.7334" x="458" y="287.8301">(trip_id, date, required_guides)</text><rect fill="#EEEEEE" height="3" rx="4" ry="4" style="stroke:#EEEEEE;stroke-width:1;" width="1320.6846" x="0" y="321.2275"/><line style="stroke:#000000;stroke-width:1;" x1="0" x2="1320.6846" y1="321.2275" y2="321.2275"/><line style="stroke:#000000;stroke-width:1;" x1="0" x2="1320.6846" y1="324.2275" y2="324.2275"/><rect fill="#EEEEEE" height="23.3105" rx="4" ry="4" style="stroke:#000000;stroke-width:2;" width="143.1621" x="588.7612" y="310.5723"/><text fill="#000000" font-family="'Segoe UI'" font-size="13" font-weight="bold" lengthAdjust="spacing" textLength="124.8774" x="594.7612" y="327.1406">Trip Requirements</text><g class="message" data-entity-1="part3" data-entity-2="part4" id="msg3"><polygon fill="#2563EB" points="716.5,361.1934,726.5,365.1934,716.5,369.1934,720.5,365.1934" style="stroke:#2563EB;stroke-width:1;"/><line style="stroke:#2563EB;stroke-width:1;" x1="447.5532" x2="722.5" y1="365.1934" y2="365.1934"/><a href="/microservices/svc-trip-catalog/#get-tripstrip_id-get-trip-details" target="_top" title="/microservices/svc-trip-catalog/#get-tripstrip_id-get-trip-details" xlink:actuate="onRequest" xlink:href="/microservices/svc-trip-catalog/#get-tripstrip_id-get-trip-details" xlink:show="new" xlink:title="/microservices/svc-trip-catalog/#get-tripstrip_id-get-trip-details" xlink:type="simple"><text fill="#0000FF" font-family="'Segoe UI'" font-size="13" lengthAdjust="spacing" text-decoration="underline" textLength="120.1738" x="454.5532" y="360.4512">GET /trips/{trip_id}</text></a></g><g class="message" data-entity-1="part4" data-entity-2="part3" id="msg4"><polygon fill="#2563EB" points="458.5532,421.125,448.5532,425.125,458.5532,429.125,454.5532,425.125" style="stroke:#2563EB;stroke-width:1;"/><line style="stroke:#2563EB;stroke-width:1;stroke-dasharray:2,2;" x1="452.5532" x2="732.5" y1="425.125" y2="425.125"/><text fill="#000000" font-family="'Segoe UI'" font-size="13" lengthAdjust="spacing" textLength="71.2017" x="464.5532" y="389.7617">Trip details</text><text fill="#000000" font-family="'Segoe UI'" font-size="13" lengthAdjust="spacing" textLength="183.4219" x="464.5532" y="405.0723">(adventure_category, trail_id,</text><text fill="#000000" font-family="'Segoe UI'" font-size="13" lengthAdjust="spacing" textLength="256.9468" x="464.5532" y="420.3828">difficulty, min_guides, max_participants)</text></g><rect fill="#EEEEEE" height="3" rx="4" ry="4" style="stroke:#EEEEEE;stroke-width:1;" width="1320.6846" x="0" y="453.7803"/><line style="stroke:#000000;stroke-width:1;" x1="0" x2="1320.6846" y1="453.7803" y2="453.7803"/><line style="stroke:#000000;stroke-width:1;" x1="0" x2="1320.6846" y1="456.7803" y2="456.7803"/><rect fill="#EEEEEE" height="23.3105" rx="4" ry="4" style="stroke:#000000;stroke-width:2;" width="197.7964" x="561.4441" y="443.125"/><text fill="#000000" font-family="'Segoe UI'" font-size="13" font-weight="bold" lengthAdjust="spacing" textLength="179.5117" x="567.4441" y="459.6934">Parallel Upstream Lookups</text><path d="M452,485.4355 L452,517.4355 A4,4 0 0 0 456,521.4355 L677,521.4355 A4,4 0 0 0 681,517.4355 L681,491.4355 L671,481.4355 L456,481.4355 A4,4 0 0 0 452,485.4355" fill="#FEFFDD" style="stroke:#181818;stroke-width:0.5;"/><path d="M671,481.4355 L671,489.4355 A2,2 0 0 0 673,491.4355 L681,491.4355 L671,481.4355" fill="#FEFFDD" style="stroke:#181818;stroke-width:0.5;"/><text fill="#000000" font-family="'Segoe UI'" font-size="13" lengthAdjust="spacing" textLength="159.7451" x="458" y="499.0039">These three calls execute</text><text fill="#000000" font-family="'Segoe UI'" font-size="13" lengthAdjust="spacing" textLength="208.2603" x="458" y="514.3145">in parallel via CompletableFuture</text><g class="message" data-entity-1="part3" data-entity-2="part5" id="msg5"><polygon fill="#2563EB" points="823.8096,544.3672,833.8096,548.3672,823.8096,552.3672,827.8096,548.3672" style="stroke:#2563EB;stroke-width:1;"/><line style="stroke:#2563EB;stroke-width:1;" x1="447.5532" x2="829.8096" y1="548.3672" y2="548.3672"/><a href="/microservices/svc-guide-management/#get-guidesguide_idavailability-check-guide-availability" target="_top" title="/microservices/svc-guide-management/#get-guidesguide_idavailability-check-guide-availability" xlink:actuate="onRequest" xlink:href="/microservices/svc-guide-management/#get-guidesguide_idavailability-check-guide-availability" xlink:show="new" xlink:title="/microservices/svc-guide-management/#get-guidesguide_idavailability-check-guide-availability" xlink:type="simple"><text fill="#0000FF" font-family="'Segoe UI'" font-size="13" lengthAdjust="spacing" text-decoration="underline" textLength="178.4961" x="454.5532" y="543.625">GET /guides/{id}/availability</text></a></g><g class="message" data-entity-1="part3" data-entity-2="part6" id="msg6"><polygon fill="#2563EB" points="926.269,573.6777,936.269,577.6777,926.269,581.6777,930.269,577.6777" style="stroke:#2563EB;stroke-width:1;"/><line style="stroke:#2563EB;stroke-width:1;" x1="447.5532" x2="932.269" y1="577.6777" y2="577.6777"/><a href="/microservices/svc-trail-management/#get-trailstrail_idconditions-get-trail-conditions" target="_top" title="/microservices/svc-trail-management/#get-trailstrail_idconditions-get-trail-conditions" xlink:actuate="onRequest" xlink:href="/microservices/svc-trail-management/#get-trailstrail_idconditions-get-trail-conditions" xlink:show="new" xlink:title="/microservices/svc-trail-management/#get-trailstrail_idconditions-get-trail-conditions" xlink:type="simple"><text fill="#0000FF" font-family="'Segoe UI'" font-size="13" lengthAdjust="spacing" text-decoration="underline" textLength="167.0767" x="454.5532" y="572.9355">GET /trails/{id}/conditions</text></a></g><g class="message" data-entity-1="part3" data-entity-2="part7" id="msg7"><polygon fill="#2563EB" points="1027.9082,602.9883,1037.9082,606.9883,1027.9082,610.9883,1031.9082,606.9883" style="stroke:#2563EB;stroke-width:1;"/><line style="stroke:#2563EB;stroke-width:1;" x1="447.5532" x2="1033.9082" y1="606.9883" y2="606.9883"/><a href="/microservices/svc-weather/#get-weatherforecast-get-weather-forecast" target="_top" title="/microservices/svc-weather/#get-weatherforecast-get-weather-forecast" xlink:actuate="onRequest" xlink:href="/microservices/svc-weather/#get-weatherforecast-get-weather-forecast" xlink:show="new" xlink:title="/microservices/svc-weather/#get-weatherforecast-get-weather-forecast" xlink:type="simple"><text fill="#0000FF" font-family="'Segoe UI'" font-size="13" lengthAdjust="spacing" text-decoration="underline" textLength="142.9937" x="454.5532" y="602.2461">GET /weather/forecast</text></a></g><g class="message" data-entity-1="part5" data-entity-2="part3" id="msg8"><polygon fill="#2563EB" points="458.5532,662.9199,448.5532,666.9199,458.5532,670.9199,454.5532,666.9199" style="stroke:#2563EB;stroke-width:1;"/><line style="stroke:#2563EB;stroke-width:1;stroke-dasharray:2,2;" x1="452.5532" x2="839.8096" y1="666.9199" y2="666.9199"/><text fill="#000000" font-family="'Segoe UI'" font-size="13" lengthAdjust="spacing" textLength="107.6499" x="464.5532" y="631.5566">Guide availability</text><text fill="#000000" font-family="'Segoe UI'" font-size="13" lengthAdjust="spacing" textLength="136.1064" x="464.5532" y="646.8672">(available guides with</text><text fill="#000000" font-family="'Segoe UI'" font-size="13" lengthAdjust="spacing" textLength="191.3247" x="464.5532" y="662.1777">certifications and preferences)</text></g><g class="message" data-entity-1="part6" data-entity-2="part3" id="msg9"><polygon fill="#2563EB" points="458.5532,722.8516,448.5532,726.8516,458.5532,730.8516,454.5532,726.8516" style="stroke:#2563EB;stroke-width:1;"/><line style="stroke:#2563EB;stroke-width:1;stroke-dasharray:2,2;" x1="452.5532" x2="942.269" y1="726.8516" y2="726.8516"/><text fill="#000000" font-family="'Segoe UI'" font-size="13" lengthAdjust="spacing" textLength="98.2998" x="464.5532" y="691.4883">Trail conditions</text><text fill="#000000" font-family="'Segoe UI'" font-size="13" lengthAdjust="spacing" textLength="136.0684" x="464.5532" y="706.7988">(status, safety_rating,</text><text fill="#000000" font-family="'Segoe UI'" font-size="13" lengthAdjust="spacing" textLength="98.3633" x="464.5532" y="722.1094">last_inspection)</text></g><g class="message" data-entity-1="part7" data-entity-2="part3" id="msg10"><polygon fill="#2563EB" points="458.5532,782.7832,448.5532,786.7832,458.5532,790.7832,454.5532,786.7832" style="stroke:#2563EB;stroke-width:1;"/><line style="stroke:#2563EB;stroke-width:1;stroke-dasharray:2,2;" x1="452.5532" x2="1043.9082" y1="786.7832" y2="786.7832"/><text fill="#000000" font-family="'Segoe UI'" font-size="13" lengthAdjust="spacing" textLength="105.8027" x="464.5532" y="751.4199">Weather forecast</text><text fill="#000000" font-family="'Segoe UI'" font-size="13" lengthAdjust="spacing" textLength="200.5859" x="464.5532" y="766.7305">(conditions, wind, precipitation,</text><text fill="#000000" font-family="'Segoe UI'" font-size="13" lengthAdjust="spacing" textLength="90.5811" x="464.5532" y="782.041">lightning_risk)</text></g><rect fill="#EEEEEE" height="3" rx="4" ry="4" style="stroke:#EEEEEE;stroke-width:1;" width="1320.6846" x="0" y="815.4385"/><line style="stroke:#000000;stroke-width:1;" x1="0" x2="1320.6846" y1="815.4385" y2="815.4385"/><line style="stroke:#000000;stroke-width:1;" x1="0" x2="1320.6846" y1="818.4385" y2="818.4385"/><rect fill="#EEEEEE" height="23.3105" rx="4" ry="4" style="stroke:#000000;stroke-width:2;" width="162.7827" x="578.9509" y="804.7832"/><text fill="#000000" font-family="'Segoe UI'" font-size="13" font-weight="bold" lengthAdjust="spacing" textLength="144.498" x="584.9509" y="821.3516">Constraint Evaluation</text><path d="M14,845.0938 L72.1387,845.0938 L72.1387,852.4043 L62.1387,862.4043 L10,862.4043 L10,849.0938 A4,4 0 0 1 14,845.0938" fill="#EEEEEE" style="stroke:#000000;stroke-width:1.5;"/><rect fill="none" height="288.3262" rx="4" ry="4" style="stroke:#000000;stroke-width:1.5;" width="647.0928" x="10" y="845.0938"/><text fill="#000000" font-family="'Segoe UI'" font-size="13" font-weight="bold" lengthAdjust="spacing" textLength="17.1387" x="25" y="858.6621">alt</text><text fill="#000000" font-family="'Segoe UI'" font-size="11" font-weight="bold" lengthAdjust="spacing" textLength="245.8188" x="87.1387" y="857.7285">[Trail CLOSED or safety_rating &lt; minimum]</text><path d="M452,871.4043 L452,903.4043 A4,4 0 0 0 456,907.4043 L642,907.4043 A4,4 0 0 0 646,903.4043 L646,877.4043 L636,867.4043 L456,867.4043 A4,4 0 0 0 452,871.4043" fill="#FEE2E2" style="stroke:#181818;stroke-width:0.5;"/><path d="M636,867.4043 L636,875.4043 A2,2 0 0 0 638,877.4043 L646,877.4043 L636,867.4043" fill="#FEE2E2" style="stroke:#181818;stroke-width:0.5;"/><text fill="#000000" font-family="'Segoe UI'" font-size="13" lengthAdjust="spacing" textLength="173.4941" x="458" y="884.9727">Schedule cannot be created</text><text fill="#000000" font-family="'Segoe UI'" font-size="13" lengthAdjust="spacing" textLength="144.3774" x="458" y="900.2832">Trail conditions unsafe</text><g class="message" data-entity-1="part3" data-entity-2="part2" id="msg11"><polygon fill="#2563EB" points="247.729,945.6465,237.729,949.6465,247.729,953.6465,243.729,949.6465" style="stroke:#2563EB;stroke-width:1;"/><line style="stroke:#2563EB;stroke-width:1;stroke-dasharray:2,2;" x1="241.729" x2="441.5532" y1="949.6465" y2="949.6465"/><text fill="#000000" font-family="'Segoe UI'" font-size="13" lengthAdjust="spacing" textLength="120.853" x="253.729" y="929.5938">422 Unprocessable</text><text fill="#000000" font-family="'Segoe UI'" font-size="13" lengthAdjust="spacing" textLength="150.2871" x="253.729" y="944.9043">(reason: TRAIL_UNSAFE)</text></g><g class="message" data-entity-1="part2" data-entity-2="part1" id="msg12"><polygon fill="#2563EB" points="57.7524,974.957,47.7524,978.957,57.7524,982.957,53.7524,978.957" style="stroke:#2563EB;stroke-width:1;"/><line style="stroke:#2563EB;stroke-width:1;stroke-dasharray:2,2;" x1="51.7524" x2="230.729" y1="978.957" y2="978.957"/><text fill="#000000" font-family="'Segoe UI'" font-size="13" lengthAdjust="spacing" textLength="120.853" x="63.7524" y="974.2148">422 Unprocessable</text></g><line style="stroke:#000000;stroke-width:1;stroke-dasharray:2,2;" x1="10" x2="657.0928" y1="987.957" y2="987.957"/><text fill="#000000" font-family="'Segoe UI'" font-size="11" font-weight="bold" lengthAdjust="spacing" textLength="144.4985" x="15" y="998.5918">[Weather forecast severe]</text><path d="M447,1010.9121 L447,1057.9121 A4,4 0 0 0 451,1061.9121 L643,1061.9121 A4,4 0 0 0 647,1057.9121 L647,1016.9121 L637,1006.9121 L451,1006.9121 A4,4 0 0 0 447,1010.9121" fill="#FEF3C7" style="stroke:#181818;stroke-width:0.5;"/><path d="M637,1006.9121 L637,1014.9121 A2,2 0 0 0 639,1016.9121 L647,1016.9121 L637,1006.9121" fill="#FEF3C7" style="stroke:#181818;stroke-width:0.5;"/><text fill="#000000" font-family="'Segoe UI'" font-size="13" lengthAdjust="spacing" textLength="179.0928" x="453" y="1024.4805">Flag as WEATHER_ADVISORY</text><text fill="#000000" font-family="'Segoe UI'" font-size="13" lengthAdjust="spacing" textLength="137.8394" x="453" y="1039.791">Schedule created with</text><text fill="#000000" font-family="'Segoe UI'" font-size="13" lengthAdjust="spacing" textLength="162.9063" x="453" y="1055.1016">weather warning attached</text><line style="stroke:#000000;stroke-width:1;stroke-dasharray:2,2;" x1="10" x2="657.0928" y1="1068.8438" y2="1068.8438"/><text fill="#000000" font-family="'Segoe UI'" font-size="11" font-weight="bold" lengthAdjust="spacing" textLength="120.5811" x="15" y="1079.4785">[All constraints pass]</text><path d="M447,1091.7988 L447,1123.7988 A4,4 0 0 0 451,1127.7988 L576,1127.7988 A4,4 0 0 0 580,1123.7988 L580,1097.7988 L570,1087.7988 L451,1087.7988 A4,4 0 0 0 447,1091.7988" fill="#D1FAE5" style="stroke:#181818;stroke-width:0.5;"/><path d="M570,1087.7988 L570,1095.7988 A2,2 0 0 0 572,1097.7988 L580,1097.7988 L570,1087.7988" fill="#D1FAE5" style="stroke:#181818;stroke-width:0.5;"/><text fill="#000000" font-family="'Segoe UI'" font-size="13" lengthAdjust="spacing" textLength="80.6343" x="453" y="1105.3672">Proceed with</text><text fill="#000000" font-family="'Segoe UI'" font-size="13" lengthAdjust="spacing" textLength="112.144" x="453" y="1120.6777">guide assignment</text><path d="M447,1149.4199 L447,1227.4199 A4,4 0 0 0 451,1231.4199 L671,1231.4199 A4,4 0 0 0 675,1227.4199 L675,1155.4199 L665,1145.4199 L451,1145.4199 A4,4 0 0 0 447,1149.4199" fill="#FEFFDD" style="stroke:#181818;stroke-width:0.5;"/><path d="M665,1145.4199 L665,1153.4199 A2,2 0 0 0 667,1155.4199 L675,1155.4199 L665,1145.4199" fill="#FEFFDD" style="stroke:#181818;stroke-width:0.5;"/><text fill="#000000" font-family="'Segoe UI'" font-size="13" lengthAdjust="spacing" textLength="149.2842" x="453" y="1162.9883">Guide selection criteria:</text><text fill="#000000" font-family="'Segoe UI'" font-size="13" lengthAdjust="spacing" textLength="207.9873" x="453" y="1178.2988">1. Certification matches trip type</text><text fill="#000000" font-family="'Segoe UI'" font-size="13" lengthAdjust="spacing" textLength="188.0684" x="453" y="1193.6094">2. Trail familiarity (prior trips)</text><text fill="#000000" font-family="'Segoe UI'" font-size="13" lengthAdjust="spacing" textLength="196.8091" x="453" y="1208.9199">3. Language match with guests</text><text fill="#000000" font-family="'Segoe UI'" font-size="13" lengthAdjust="spacing" textLength="127.9561" x="453" y="1224.2305">4. Workload balance</text><rect fill="#EEEEEE" height="3" rx="4" ry="4" style="stroke:#EEEEEE;stroke-width:1;" width="1320.6846" x="0" y="1257.6279"/><line style="stroke:#000000;stroke-width:1;" x1="0" x2="1320.6846" y1="1257.6279" y2="1257.6279"/><line style="stroke:#000000;stroke-width:1;" x1="0" x2="1320.6846" y1="1260.6279" y2="1260.6279"/><rect fill="#EEEEEE" height="23.3105" rx="4" ry="4" style="stroke:#000000;stroke-width:2;" width="80.3711" x="620.1567" y="1246.9727"/><text fill="#000000" font-family="'Segoe UI'" font-size="13" font-weight="bold" lengthAdjust="spacing" textLength="62.0864" x="626.1567" y="1263.541">Database</text><path d="M332.0796,1287.2832 L520.4087,1287.2832 L520.4087,1294.5938 L510.4087,1304.5938 L328.0796,1304.5938 L328.0796,1291.2832 A4,4 0 0 1 332.0796,1287.2832" fill="#EEEEEE" style="stroke:#000000;stroke-width:1.5;"/><rect fill="none" height="121.8633" rx="4" ry="4" style="stroke:#000000;stroke-width:1.5;" width="982.605" x="328.0796" y="1287.2832"/><text fill="#000000" font-family="'Segoe UI'" font-size="13" font-weight="bold" lengthAdjust="spacing" textLength="147.3291" x="343.0796" y="1300.8516">Transaction boundary</text><g class="message" data-entity-1="part3" data-entity-2="part9" id="msg13"><polygon fill="#2563EB" points="1239.6484,1367.8359,1249.6484,1371.8359,1239.6484,1375.8359,1243.6484,1371.8359" style="stroke:#2563EB;stroke-width:1;"/><line style="stroke:#2563EB;stroke-width:1;" x1="442.5532" x2="1245.6484" y1="1371.8359" y2="1371.8359"/><text fill="#000000" font-family="'Segoe UI'" font-size="13" lengthAdjust="spacing" textLength="200.2495" x="449.5532" y="1321.1621">INSERT INTO schedule_requests</text><text fill="#000000" font-family="'Segoe UI'" font-size="13" lengthAdjust="spacing" textLength="158.8057" x="449.5532" y="1336.4727">(request_id, trip_id, date,</text><text fill="#000000" font-family="'Segoe UI'" font-size="13" lengthAdjust="spacing" textLength="186.2148" x="449.5532" y="1351.7832">assigned_guides, trail_status,</text><text fill="#000000" font-family="'Segoe UI'" font-size="13" lengthAdjust="spacing" textLength="253.8555" x="449.5532" y="1367.0938">weather_advisory, status = CONFIRMED)</text></g><g class="message" data-entity-1="part9" data-entity-2="part3" id="msg14"><polygon fill="#2563EB" points="453.5532,1397.1465,443.5532,1401.1465,453.5532,1405.1465,449.5532,1401.1465" style="stroke:#2563EB;stroke-width:1;"/><line style="stroke:#2563EB;stroke-width:1;stroke-dasharray:2,2;" x1="447.5532" x2="1255.6484" y1="1401.1465" y2="1401.1465"/><text fill="#000000" font-family="'Segoe UI'" font-size="13" lengthAdjust="spacing" textLength="76.4575" x="459.5532" y="1396.4043">Created row</text></g><rect fill="#EEEEEE" height="3" rx="4" ry="4" style="stroke:#EEEEEE;stroke-width:1;" width="1320.6846" x="0" y="1436.8018"/><line style="stroke:#000000;stroke-width:1;" x1="0" x2="1320.6846" y1="1436.8018" y2="1436.8018"/><line style="stroke:#000000;stroke-width:1;" x1="0" x2="1320.6846" y1="1439.8018" y2="1439.8018"/><rect fill="#EEEEEE" height="23.3105" rx="4" ry="4" style="stroke:#000000;stroke-width:2;" width="148.1831" x="586.2507" y="1426.1465"/><text fill="#000000" font-family="'Segoe UI'" font-size="13" font-weight="bold" lengthAdjust="spacing" textLength="129.8984" x="592.2507" y="1442.7148">Async Notifications</text><g class="message" data-entity-1="part3" data-entity-2="part8" id="msg15"><line style="stroke:#2563EB;stroke-width:1;" x1="1150.5972" x2="1140.5972" y1="1480.7676" y2="1476.7676"/><line style="stroke:#2563EB;stroke-width:1;" x1="1150.5972" x2="1140.5972" y1="1480.7676" y2="1484.7676"/><line style="stroke:#2563EB;stroke-width:1;" x1="442.5532" x2="1151.5972" y1="1480.7676" y2="1480.7676"/><a href="/microservices/svc-notifications/#post-notifications-send-a-notification" target="_top" title="/microservices/svc-notifications/#post-notifications-send-a-notification" xlink:actuate="onRequest" xlink:href="/microservices/svc-notifications/#post-notifications-send-a-notification" xlink:show="new" xlink:title="/microservices/svc-notifications/#post-notifications-send-a-notification" xlink:type="simple"><text fill="#0000FF" font-family="'Segoe UI'" font-size="13" lengthAdjust="spacing" text-decoration="underline" textLength="143.7808" x="449.5532" y="1476.0254">Notify assigned guides</text></a></g><g class="message" data-entity-1="part3" data-entity-2="part2" id="msg16"><polygon fill="#2563EB" points="242.729,1536.6992,232.729,1540.6992,242.729,1544.6992,238.729,1540.6992" style="stroke:#2563EB;stroke-width:1;"/><line style="stroke:#2563EB;stroke-width:1;stroke-dasharray:2,2;" x1="236.729" x2="441.5532" y1="1540.6992" y2="1540.6992"/><text fill="#000000" font-family="'Segoe UI'" font-size="13" lengthAdjust="spacing" textLength="77.7969" x="248.729" y="1505.3359">201 Created</text><text fill="#000000" font-family="'Segoe UI'" font-size="13" lengthAdjust="spacing" textLength="186.8242" x="248.729" y="1520.6465">(request_id, assigned_guides,</text><text fill="#000000" font-family="'Segoe UI'" font-size="13" lengthAdjust="spacing" textLength="159.6816" x="248.729" y="1535.957">weather_advisory, status)</text></g><g class="message" data-entity-1="part2" data-entity-2="part1" id="msg17"><polygon fill="#2563EB" points="57.7524,1566.0098,47.7524,1570.0098,57.7524,1574.0098,53.7524,1570.0098" style="stroke:#2563EB;stroke-width:1;"/><line style="stroke:#2563EB;stroke-width:1;stroke-dasharray:2,2;" x1="51.7524" x2="230.729" y1="1570.0098" y2="1570.0098"/><text fill="#000000" font-family="'Segoe UI'" font-size="13" lengthAdjust="spacing" textLength="77.7969" x="63.7524" y="1565.2676">201 Created</text></g><a href="/microservices/svc-scheduling-orchestrator/#integration-context" target="_top" title="/microservices/svc-scheduling-orchestrator/#integration-context" xlink:actuate="onRequest" xlink:href="/microservices/svc-scheduling-orchestrator/#integration-context" xlink:show="new" xlink:title="/microservices/svc-scheduling-orchestrator/#integration-context" xlink:type="simple"><text fill="#0000FF" font-family="'Segoe UI'" font-size="10" lengthAdjust="spacing" text-decoration="underline" textLength="250.4199" x="1069.2646" y="14.668">&#11014; svc-scheduling-orchestrator Integration Context</text></a><?plantuml-src bLVTRjis5BxNKvpLDoqMsOtJhgYH671jEJKG9u7j91tgm60aMY52Knf9EVMA0hlQ4-mnzbHzaXsIaYLvJj3c8g58dh-Ft_d9Bqo4F8ieD9ijVKzNj9bcA-wf1oPI8iaA5FqZeoAayDK3_Eb9cJps4vv8QBJV_dP4xxnlddTFIKGbVFxSMh5G9ehADGkfQgbrwAlmdaOPPoBs4ubhfINHYMmrcD0qnZLBX1yc-F55m_T__uPdX61Koa3VoTpUUfvccbEul9ZEe9MBKbyQpvLMSp5nAqXIpLQ4GqGOtq1nSIwE5VkJTWvVTuz34rcdyIuy8ZJgzYRzZwDPq9_1nNKmcOm60Np_wn-WGZ8Z2uzCtuE1YNFAWIV9GvO24H5WECPZZ11tOnOUjwpYxd7BMEfw7Wff5hAKu8qNVSweq2-0A71B0oH9Kyv26wbgOOmrYTxb24w9fezaOyLERwn8Y12fLeEap8_TwUqjD8BNm_Omg2ju1cEhSBeEV-urZQ71Xw2tQsWcMGfzeWdYO3NF-liLQxpeX-wYrJOCXaVzTtLjfnb3gexZbKFhTBnVLsok-IiYI8oC5hhbO0ZU3OUxtY4JIdspyLE-uRLTVVlykw44aqWQ-Ap2cq_x5JwwUqxFuV3jy7rTptcYsR9uVQlfN2yt-tM9wjsgnWZ1l2EAmelBK_WLhWb_e8ukWmy_cQf6bQzmIVF8t_UFF0yjKqZMBbwi3gXpgmuv-9pAvhrUSRXcz16OWEaZYMDKSpL2ebFC7wFPy_9ayBk6tvsdqjj3shCrqjtSAceIBb7CiBW3CidmCBzUtZQ7nNKNYcJnFHQ9PIw7WB68bA9pyTAGTC6Y0p3x1_Q0IHejBE7KAyyxEG7B-8axCMHHS7BYUKObUeJix_m0_ninrNP7vHRzOiEFg4Oo8lS31CDUQNtDBtr3zBRXeQM2ehZqjsXOzt8b6169rkXZ9ka2RTCuaPi3i7GtOSv5n9R8hOnht5unaGUAQ_9bKM4iXXxHYcaBn6LH6AzC61HxoPcja0wGVOZFa1yKzBsa54AKLK2_q11VRowG9Tj2ksO4Y_ygvHZ57QV3pFY_XHYBGkS7ouA5sOLaVsFCP8snapl6cTxuIBNm8HUh7ZZmdM3hAmBVgfvMNm6TAGfFmO3nqmpOgJ8v2ynB5K-2ZILYDjFzxQ5VRXQiC2BEiVAiHexnbXovMrYfEi_NAkjD_h74IX0IfVtAdbziEYSAiMAtQXwD5KNAGuHAShhwNWNJKDHzOeDtYDksEyUHH5OAdssxgQHBAisqKYVawTYRZMivOCf-2GqQKPhe38cjo9BgpSAC62B61E3e-e89bTBGNAtpVEnX9ANQeleN8QFQqiO1kYsmSg2Fc3DCMxUD0PC2IEzu8PbwgEc_-MJpg5yE4y6QyCnDFoQ72DTvBFspYsam09oGQW70iSbQjifMTdZxVyuX2u9sq4RdftbTnSGJU0_kS8L9gsaq5xjuGIQC6QlJygSeqM_QRRWIgKpm1PHvCeG0bQX48EYJtkXiSNK-nHdXbHMjXEeQ21WjHbbU-VSet1KylV4enwAnYptEhTYOwDDX6_AZWI4diUtKGM_sCPWiUeFhqVHYyljSb80u67BQvRo6HoBDgm7HcfYRpeqUvvNXJs7DKkef7mQ7mrxmrZGs4zxMGEnoG2aM2rC6J4FSNovTjYZA7JVHKQQfPAGp5uTDw5Vp0mksDjqNJAi0lKdnPThDd3nBii9S8z9KjfUfPCWYsrXUpSLH4yu8keGboQbmCs-S3zPlcd2Jo0UUa0Zk22UOUPQoWsBqC2oDiG6dnXIInZbwbsGY8d9J4gXhPf8EZCwdmMI6VsONs_5yKSxnB_EbRS7rNZmN3h5jCoxQM9xOsuTROCTZolOvTmIOOHVdmz5a70mSBxVaGf-AOSViusUPxFsS5VZlq2ud1n_Sco4GFRKH8TJ6kSeuq7LZNUT71hj6cc2zhUtv2itufBRfR6sWG2ElcUQVf5gcjbyV5Y7iuBgBuzF8rOgLoU3TxAqOyUev-ny0?></g></svg>