<svg xmlns="http://www.w3.org/2000/svg" xmlns:xlink="http://www.w3.org/1999/xlink" contentStyleType="text/css" data-diagram-type="SEQUENCE" height="509px" preserveAspectRatio="none" style="width:473px;height:509px;background:#FEFEFE;" version="1.1" viewBox="0 0 473 509" width="473px" zoomAndPan="magnify"><title>POST /routes</title><defs/><g><rect fill="#FEFEFE" height="509" style="stroke:none;stroke-width:1;" width="473" x="0" y="0"/><text fill="#000000" font-family="Segoe UI" font-size="14" font-weight="bold" lengthAdjust="spacing" textLength="96.5918" x="184.3218" y="28.5352">POST /routes</text><text fill="#000000" font-family="Segoe UI" font-size="14" font-weight="bold" lengthAdjust="spacing" textLength="208.8242" x="128.2056" y="45.0234">Create a new transport route</text><g><title>API Gateway</title><rect fill="#059669" height="225.1738" style="stroke:#A23B72;stroke-width:1;" width="10" x="134.2939" y="188.0859"/></g><g><title>svc-transport-logistics</title><rect fill="#059669" height="166.5527" style="stroke:#A23B72;stroke-width:1;" width="10" x="277.9844" y="217.3965"/></g><g><title>PostgreSQL</title><rect fill="#FCE4EC" height="29.3105" style="stroke:#A23B72;stroke-width:1;" width="10" x="414.8105" y="325.3281"/></g><g><title>Client</title><rect fill="#000000" fill-opacity="0.00000" height="309.7949" width="8" x="27.7524" y="121.4648"/><line style="stroke:#A23B72;stroke-width:0.5;stroke-dasharray:5,5;" x1="31" x2="31" y1="121.4648" y2="431.2598"/></g><g><title>API Gateway</title><rect fill="#000000" fill-opacity="0.00000" height="309.7949" width="8" x="135.2939" y="121.4648"/><line style="stroke:#A23B72;stroke-width:0.5;stroke-dasharray:5,5;" x1="139.0049" x2="139.0049" y1="121.4648" y2="431.2598"/></g><g><title>svc-transport-logistics</title><rect fill="#000000" fill-opacity="0.00000" height="309.7949" width="8" x="278.9844" y="121.4648"/><line style="stroke:#A23B72;stroke-width:0.5;stroke-dasharray:5,5;" x1="282.583" x2="282.583" y1="121.4648" y2="431.2598"/></g><g><title>PostgreSQL</title><rect fill="#000000" fill-opacity="0.00000" height="309.7949" width="8" x="415.8105" y="121.4648"/><line style="stroke:#A23B72;stroke-width:0.5;stroke-dasharray:5,5;" x1="419.3857" x2="419.3857" y1="121.4648" y2="431.2598"/></g><g class="participant participant-head" data-participant="Client"><rect fill="#E8F4F8" height="30.4883" rx="2.5" ry="2.5" style="stroke:#2E86AB;stroke-width:0.5;" width="53.5049" x="5" y="89.9766"/><text fill="#000000" font-family="Segoe UI" font-size="14" lengthAdjust="spacing" textLength="39.5049" x="12" y="110.5117">Client</text></g><g class="participant participant-tail" data-participant="Client"><rect fill="#E8F4F8" height="30.4883" rx="2.5" ry="2.5" style="stroke:#2E86AB;stroke-width:0.5;" width="53.5049" x="5" y="430.2598"/><text fill="#000000" font-family="Segoe UI" font-size="14" lengthAdjust="spacing" textLength="39.5049" x="12" y="450.7949">Client</text></g><g class="participant participant-head" data-participant="GW"><rect fill="#DBEAFE" height="30.4883" rx="2.5" ry="2.5" style="stroke:#2E86AB;stroke-width:0.5;" width="96.5781" x="91.0049" y="89.9766"/><text fill="#000000" font-family="Segoe UI" font-size="14" lengthAdjust="spacing" textLength="82.5781" x="98.0049" y="110.5117">API Gateway</text></g><g class="participant participant-tail" data-participant="GW"><rect fill="#DBEAFE" height="30.4883" rx="2.5" ry="2.5" style="stroke:#2E86AB;stroke-width:0.5;" width="96.5781" x="91.0049" y="430.2598"/><text fill="#000000" font-family="Segoe UI" font-size="14" lengthAdjust="spacing" textLength="82.5781" x="98.0049" y="450.7949">API Gateway</text></g><g class="participant participant-head" data-participant="Svc"><a href="/microservices/svc-transport-logistics/" target="_top" title="/microservices/svc-transport-logistics/" xlink:actuate="onRequest" xlink:href="/microservices/svc-transport-logistics/" xlink:show="new" xlink:title="/microservices/svc-transport-logistics/" xlink:type="simple"><rect fill="#E8F4F8" height="30.4883" rx="2.5" ry="2.5" style="stroke:#2E86AB;stroke-width:0.5;" width="170.8027" x="197.583" y="89.9766"/><text fill="#000000" font-family="Segoe UI" font-size="14" lengthAdjust="spacing" textLength="156.8027" x="204.583" y="110.5117">svc-transport-logistics</text></a></g><g class="participant participant-tail" data-participant="Svc"><a href="/microservices/svc-transport-logistics/" target="_top" title="/microservices/svc-transport-logistics/" xlink:actuate="onRequest" xlink:href="/microservices/svc-transport-logistics/" xlink:show="new" xlink:title="/microservices/svc-transport-logistics/" xlink:type="simple"><rect fill="#E8F4F8" height="30.4883" rx="2.5" ry="2.5" style="stroke:#2E86AB;stroke-width:0.5;" width="170.8027" x="197.583" y="430.2598"/><text fill="#000000" font-family="Segoe UI" font-size="14" lengthAdjust="spacing" textLength="156.8027" x="204.583" y="450.7949">svc-transport-logistics</text></a></g><g class="participant participant-head" data-participant="DB"><text fill="#000000" font-family="Segoe UI" font-size="14" lengthAdjust="spacing" textLength="76.8496" x="378.3857" y="118.5117">PostgreSQL</text><path d="M401.8105,68.9766 C401.8105,58.9766 419.8105,58.9766 419.8105,58.9766 C419.8105,58.9766 437.8105,58.9766 437.8105,68.9766 L437.8105,94.9766 C437.8105,104.9766 419.8105,104.9766 419.8105,104.9766 C419.8105,104.9766 401.8105,104.9766 401.8105,94.9766 L401.8105,68.9766" fill="#FCE4EC" style="stroke:#181818;stroke-width:0.5;"/><path d="M401.8105,68.9766 C401.8105,78.9766 419.8105,78.9766 419.8105,78.9766 C419.8105,78.9766 437.8105,78.9766 437.8105,68.9766" fill="none" style="stroke:#181818;stroke-width:0.5;"/></g><g class="participant participant-tail" data-participant="DB"><text fill="#000000" font-family="Segoe UI" font-size="14" lengthAdjust="spacing" textLength="76.8496" x="378.3857" y="443.7949">PostgreSQL</text><path d="M401.8105,456.748 C401.8105,446.748 419.8105,446.748 419.8105,446.748 C419.8105,446.748 437.8105,446.748 437.8105,456.748 L437.8105,482.748 C437.8105,492.748 419.8105,492.748 419.8105,492.748 C419.8105,492.748 401.8105,492.748 401.8105,482.748 L401.8105,456.748" fill="#FCE4EC" style="stroke:#181818;stroke-width:0.5;"/><path d="M401.8105,456.748 C401.8105,466.748 419.8105,466.748 419.8105,466.748 C419.8105,466.748 437.8105,466.748 437.8105,456.748" fill="none" style="stroke:#181818;stroke-width:0.5;"/></g><g><title>API Gateway</title><rect fill="#059669" height="225.1738" style="stroke:#A23B72;stroke-width:1;" width="10" x="134.2939" y="188.0859"/></g><g><title>svc-transport-logistics</title><rect fill="#059669" height="166.5527" style="stroke:#A23B72;stroke-width:1;" width="10" x="277.9844" y="217.3965"/></g><g><title>PostgreSQL</title><rect fill="#FCE4EC" height="29.3105" style="stroke:#A23B72;stroke-width:1;" width="10" x="414.8105" y="325.3281"/></g><path d="M212,136.4648 L212,161.4648 L352,161.4648 L352,146.4648 L342,136.4648 L212,136.4648" fill="#FEFFDD" style="stroke:#181818;stroke-width:0.5;"/><path d="M342,136.4648 L342,146.4648 L352,146.4648 L342,136.4648" fill="#FEFFDD" style="stroke:#181818;stroke-width:0.5;"/><a href="/services/api/svc-transport-logistics.html" target="_top" title="/services/api/svc-transport-logistics.html" xlink:actuate="onRequest" xlink:href="/services/api/svc-transport-logistics.html" xlink:show="new" xlink:title="/services/api/svc-transport-logistics.html" xlink:type="simple"><text fill="#0000FF" font-family="Segoe UI" font-size="13" lengthAdjust="spacing" text-decoration="underline" textLength="119.4058" x="218" y="154.0332">View in Swagger UI</text></a><g class="message" data-participant-1="Client" data-participant-2="GW"><polygon fill="#059669" points="122.2939,184.0859,132.2939,188.0859,122.2939,192.0859,126.2939,188.0859" style="stroke:#059669;stroke-width:1;"/><line style="stroke:#059669;stroke-width:1;" x1="31.7524" x2="128.2939" y1="188.0859" y2="188.0859"/><text fill="#000000" font-family="Segoe UI" font-size="13" lengthAdjust="spacing" textLength="83.5415" x="38.7524" y="183.3438">POST /routes</text></g><g class="message" data-participant-1="GW" data-participant-2="Svc"><polygon fill="#059669" points="265.9844,213.3965,275.9844,217.3965,265.9844,221.3965,269.9844,217.3965" style="stroke:#059669;stroke-width:1;"/><line style="stroke:#059669;stroke-width:1;" x1="144.2939" x2="271.9844" y1="217.3965" y2="217.3965"/><text fill="#000000" font-family="Segoe UI" font-size="13" lengthAdjust="spacing" textLength="85.1348" x="151.2939" y="212.6543">route request</text></g><path d="M292,230.3965 L292,255.3965 L450,255.3965 L450,240.3965 L440,230.3965 L292,230.3965" fill="#FEFFDD" style="stroke:#181818;stroke-width:0.5;"/><path d="M440,230.3965 L440,240.3965 L450,240.3965 L440,230.3965" fill="#FEFFDD" style="stroke:#181818;stroke-width:0.5;"/><text fill="#000000" font-family="Segoe UI" font-size="13" lengthAdjust="spacing" textLength="137.5728" x="298" y="247.9648">Validate request body</text><rect fill="#EEEEEE" height="3" style="stroke:#EEEEEE;stroke-width:1;" width="466.2354" x="0" y="281.3623"/><line style="stroke:#000000;stroke-width:1;" x1="0" x2="466.2354" y1="281.3623" y2="281.3623"/><line style="stroke:#000000;stroke-width:1;" x1="0" x2="466.2354" y1="284.3623" y2="284.3623"/><rect fill="#EEEEEE" height="23.3105" style="stroke:#000000;stroke-width:2;" width="80.3711" x="192.9321" y="270.707"/><text fill="#000000" font-family="Segoe UI" font-size="13" font-weight="bold" lengthAdjust="spacing" textLength="62.0864" x="198.9321" y="287.2754">Database</text><g class="message" data-participant-1="Svc" data-participant-2="DB"><polygon fill="#059669" points="402.8105,321.3281,412.8105,325.3281,402.8105,329.3281,406.8105,325.3281" style="stroke:#059669;stroke-width:1;"/><line style="stroke:#059669;stroke-width:1;" x1="287.9844" x2="408.8105" y1="325.3281" y2="325.3281"/><text fill="#000000" font-family="Segoe UI" font-size="13" lengthAdjust="spacing" textLength="96.0718" x="294.9844" y="320.5859">INSERT INTO ...</text></g><g class="message" data-participant-1="DB" data-participant-2="Svc"><polygon fill="#059669" points="298.9844,350.6387,288.9844,354.6387,298.9844,358.6387,294.9844,354.6387" style="stroke:#059669;stroke-width:1;"/><line style="stroke:#059669;stroke-width:1;stroke-dasharray:2,2;" x1="292.9844" x2="418.8105" y1="354.6387" y2="354.6387"/><text fill="#000000" font-family="Segoe UI" font-size="13" lengthAdjust="spacing" textLength="76.4575" x="304.9844" y="349.8965">Created row</text></g><g class="message" data-participant-1="Svc" data-participant-2="GW"><polygon fill="#059669" points="155.2939,379.9492,145.2939,383.9492,155.2939,387.9492,151.2939,383.9492" style="stroke:#059669;stroke-width:1;"/><line style="stroke:#059669;stroke-width:1;stroke-dasharray:2,2;" x1="149.2939" x2="281.9844" y1="383.9492" y2="383.9492"/><text fill="#000000" font-family="Segoe UI" font-size="13" lengthAdjust="spacing" textLength="77.7969" x="161.2939" y="379.207">201 Created</text></g><g class="message" data-participant-1="GW" data-participant-2="Client"><polygon fill="#059669" points="42.7524,409.2598,32.7524,413.2598,42.7524,417.2598,38.7524,413.2598" style="stroke:#059669;stroke-width:1;"/><line style="stroke:#059669;stroke-width:1;stroke-dasharray:2,2;" x1="36.7524" x2="138.2939" y1="413.2598" y2="413.2598"/><text fill="#000000" font-family="Segoe UI" font-size="13" lengthAdjust="spacing" textLength="77.7969" x="48.7524" y="408.5176">201 Created</text></g><!--SRC=[TP9FR-8m4CNl_XGZUkP_5oWIAn5841AYx8QsXou7amp1Qh1Psv2jLllTrqv2IDgI76BblPdd-TdgZV4ZbVG0MngyHLASU3WHiP1mvxds9Qfmg3qDHS9u13iQAomf8UxeATQUu7f93mWr7oE1y3IlbSlnzmbvWF2NW7d6KeeaZsfzU-Zr7jBVAoer2zYHSkq86QBCBHrtq1ixdomVD-qEl7jlaDeMR8SBnh7IPjpfElrEgZlYJqNosWElrIwaJpWyp-Yfl1IwsZNezxVTalO5ogxR9_y8qKp72Aj7VmrDuz2eVl69HAeHA71CG4lArL583QbCoF4wBTGcCKEkQq0LPCkgF5xDOMPw9VGzzSnUu6xgk6DpZ1MVEWVr8gWUYuWf8wgqnZy7yFhQFB102eNop09KpHi5pSscG1vIJRTKcSDV2QKZYVwFHTfmwXW04_VUdH323HqGPvGsnl0oGKK6FR9REOszFiJmp0mVni5FQ1IP5a_ppOOW3y5s9IG30lNlTknXXJ6XWMPd2zaIoM-RMHgl7NUOiGPfRwZILxSLB_Pixv95UmrYbzSzqvY5z5eAMn6-4p8QmVI2OpGYn9fDbY4nXFdITt-kpMVz28r6unfMucIMzM9lsVK8pHuJ4cB9dlUz3DnfjI_Uii-2jgCQMqxefdNsGlu3]--></g></svg>