<?xml version="1.0" encoding="UTF-8" standalone="no"?><svg xmlns="http://www.w3.org/2000/svg" xmlns:xlink="http://www.w3.org/1999/xlink" contentScriptType="application/ecmascript" contentStyleType="text/css" height="610px" preserveAspectRatio="none" style="width:623px;height:610px;background:#FEFEFE;" version="1.1" viewBox="0 0 623 610" width="623px" zoomAndPan="magnify"><defs/><g><text fill="#000000" font-family="Segoe UI" font-size="18" lengthAdjust="spacingAndGlyphs" textLength="261" x="176.5" y="41.3486">PATCH /vehicles/{vehicle_id}</text><text fill="#000000" font-family="Segoe UI" font-size="18" lengthAdjust="spacingAndGlyphs" textLength="241" x="186.5" y="62.3018">Update vehicle information</text><rect fill="#7C3AED" height="317.3281" style="stroke: #6B7280; stroke-width: 1.0;" width="10" x="237.5" y="202.1094"/><rect fill="#7C3AED" height="259.0625" style="stroke: #6B7280; stroke-width: 1.0;" width="10" x="379.5" y="231.2422"/><rect fill="#FEF9C3" height="29.1328" style="stroke: #6B7280; stroke-width: 1.0;" width="10" x="557.5" y="338.6406"/><rect fill="#FEF9C3" height="29.1328" style="stroke: #6B7280; stroke-width: 1.0;" width="10" x="557.5" y="432.0391"/><line style="stroke: #6B7280; stroke-width: 1.0; stroke-dasharray: 5.0,5.0;" x1="34" x2="34" y1="135.8438" y2="537.4375"/><line style="stroke: #6B7280; stroke-width: 1.0; stroke-dasharray: 5.0,5.0;" x1="242.5" x2="242.5" y1="135.8438" y2="537.4375"/><line style="stroke: #6B7280; stroke-width: 1.0; stroke-dasharray: 5.0,5.0;" x1="384.5" x2="384.5" y1="135.8438" y2="537.4375"/><line style="stroke: #6B7280; stroke-width: 1.0; stroke-dasharray: 5.0,5.0;" x1="562" x2="562" y1="135.8438" y2="537.4375"/><a href="/applications/" target="_top" title="/applications/" xlink:actuate="onRequest" xlink:href="/applications/" xlink:show="new" xlink:title="/applications/" xlink:type="simple"><rect fill="#F9FAFB" height="30.2969" style="stroke: #374151; stroke-width: 1.5;" width="53" x="8" y="104.5469"/><text fill="#000000" font-family="Segoe UI" font-size="14" lengthAdjust="spacingAndGlyphs" textLength="39" x="15" y="124.542">Client</text><rect fill="#F9FAFB" height="30.2969" style="stroke: #374151; stroke-width: 1.5;" width="53" x="8" y="536.4375"/><text fill="#000000" font-family="Segoe UI" font-size="14" lengthAdjust="spacingAndGlyphs" textLength="39" x="15" y="556.4326">Client</text></a><a href="/actors/#api-gateway" target="_top" title="/actors/#api-gateway" xlink:actuate="onRequest" xlink:href="/actors/#api-gateway" xlink:show="new" xlink:title="/actors/#api-gateway" xlink:type="simple"><rect fill="#E0F2FE" height="30.2969" style="stroke: #374151; stroke-width: 1.5;" width="98" x="193.5" y="104.5469"/><text fill="#000000" font-family="Segoe UI" font-size="14" lengthAdjust="spacingAndGlyphs" textLength="84" x="200.5" y="124.542">API Gateway</text><rect fill="#E0F2FE" height="30.2969" style="stroke: #374151; stroke-width: 1.5;" width="98" x="193.5" y="536.4375"/><text fill="#000000" font-family="Segoe UI" font-size="14" lengthAdjust="spacingAndGlyphs" textLength="84" x="200.5" y="556.4326">API Gateway</text></a><a href="/microservices/svc-transport-logistics/" target="_top" title="/microservices/svc-transport-logistics/" xlink:actuate="onRequest" xlink:href="/microservices/svc-transport-logistics/" xlink:show="new" xlink:title="/microservices/svc-transport-logistics/" xlink:type="simple"><rect fill="#CFFAFE" height="30.2969" style="stroke: #374151; stroke-width: 1.5;" width="166" x="301.5" y="104.5469"/><text fill="#000000" font-family="Segoe UI" font-size="14" lengthAdjust="spacingAndGlyphs" textLength="152" x="308.5" y="124.542">svc-transport-logistics</text><rect fill="#CFFAFE" height="30.2969" style="stroke: #374151; stroke-width: 1.5;" width="166" x="301.5" y="536.4375"/><text fill="#000000" font-family="Segoe UI" font-size="14" lengthAdjust="spacingAndGlyphs" textLength="152" x="308.5" y="556.4326">svc-transport-logistics</text></a><a href="/microservices/svc-transport-logistics/#data-store" target="_top" title="/microservices/svc-transport-logistics/#data-store" xlink:actuate="onRequest" xlink:href="/microservices/svc-transport-logistics/#data-store" xlink:show="new" xlink:title="/microservices/svc-transport-logistics/#data-store" xlink:type="simple"><text fill="#000000" font-family="Segoe UI" font-size="14" lengthAdjust="spacingAndGlyphs" textLength="81" x="519" y="132.542">PostgreSQL</text><path d="M544.5,83.5469 C544.5,73.5469 562.5,73.5469 562.5,73.5469 C562.5,73.5469 580.5,73.5469 580.5,83.5469 L580.5,109.5469 C580.5,119.5469 562.5,119.5469 562.5,119.5469 C562.5,119.5469 544.5,119.5469 544.5,109.5469 L544.5,83.5469 " fill="#FEF9C3" style="stroke: #000000; stroke-width: 1.5;"/><path d="M544.5,83.5469 C544.5,93.5469 562.5,93.5469 562.5,93.5469 C562.5,93.5469 580.5,93.5469 580.5,83.5469 " fill="none" style="stroke: #000000; stroke-width: 1.5;"/><text fill="#000000" font-family="Segoe UI" font-size="14" lengthAdjust="spacingAndGlyphs" textLength="81" x="519" y="549.4326">PostgreSQL</text><path d="M544.5,562.7344 C544.5,552.7344 562.5,552.7344 562.5,552.7344 C562.5,552.7344 580.5,552.7344 580.5,562.7344 L580.5,588.7344 C580.5,598.7344 562.5,598.7344 562.5,598.7344 C562.5,598.7344 544.5,598.7344 544.5,588.7344 L544.5,562.7344 " fill="#FEF9C3" style="stroke: #000000; stroke-width: 1.5;"/><path d="M544.5,562.7344 C544.5,572.7344 562.5,572.7344 562.5,572.7344 C562.5,572.7344 580.5,572.7344 580.5,562.7344 " fill="none" style="stroke: #000000; stroke-width: 1.5;"/></a><rect fill="#7C3AED" height="317.3281" style="stroke: #6B7280; stroke-width: 1.0;" width="10" x="237.5" y="202.1094"/><rect fill="#7C3AED" height="259.0625" style="stroke: #6B7280; stroke-width: 1.0;" width="10" x="379.5" y="231.2422"/><rect fill="#FEF9C3" height="29.1328" style="stroke: #6B7280; stroke-width: 1.0;" width="10" x="557.5" y="338.6406"/><rect fill="#FEF9C3" height="29.1328" style="stroke: #6B7280; stroke-width: 1.0;" width="10" x="557.5" y="432.0391"/><path d="M314,150.8438 L314,175.8438 L455,175.8438 L455,160.8438 L445,150.8438 L314,150.8438 " fill="#FBFB77" style="stroke: #A80036; stroke-width: 1.0;"/><path d="M445,150.8438 L445,160.8438 L455,160.8438 L445,150.8438 " fill="#FBFB77" style="stroke: #A80036; stroke-width: 1.0;"/><a href="/services/api/svc-transport-logistics.html" target="_top" title="/services/api/svc-transport-logistics.html" xlink:actuate="onRequest" xlink:href="/services/api/svc-transport-logistics.html" xlink:show="new" xlink:title="/services/api/svc-transport-logistics.html" xlink:type="simple"><text fill="#0000FF" font-family="Segoe UI" font-size="13" lengthAdjust="spacingAndGlyphs" text-decoration="underline" textLength="120" x="320" y="167.9106">View in Swagger UI</text></a><polygon fill="#7C3AED" points="225.5,198.1094,235.5,202.1094,225.5,206.1094,229.5,202.1094" style="stroke: #7C3AED; stroke-width: 1.0;"/><line style="stroke: #7C3AED; stroke-width: 1.0;" x1="34.5" x2="231.5" y1="202.1094" y2="202.1094"/><text fill="#000000" font-family="Segoe UI" font-size="13" lengthAdjust="spacingAndGlyphs" textLength="184" x="41.5" y="197.0435">PATCH /vehicles/{vehicle_id}</text><polygon fill="#7C3AED" points="367.5,227.2422,377.5,231.2422,367.5,235.2422,371.5,231.2422" style="stroke: #7C3AED; stroke-width: 1.0;"/><line style="stroke: #7C3AED; stroke-width: 1.0;" x1="247.5" x2="373.5" y1="231.2422" y2="231.2422"/><text fill="#000000" font-family="Segoe UI" font-size="13" lengthAdjust="spacingAndGlyphs" textLength="87" x="254.5" y="226.1763">route request</text><path d="M394,244.2422 L394,269.2422 L555,269.2422 L555,254.2422 L545,244.2422 L394,244.2422 " fill="#FBFB77" style="stroke: #A80036; stroke-width: 1.0;"/><path d="M545,244.2422 L545,254.2422 L555,254.2422 L545,244.2422 " fill="#FBFB77" style="stroke: #A80036; stroke-width: 1.0;"/><text fill="#000000" font-family="Segoe UI" font-size="13" lengthAdjust="spacingAndGlyphs" textLength="140" x="400" y="261.3091">Validate request body</text><rect fill="#EEEEEE" height="3" style="stroke: #EEEEEE; stroke-width: 1.0;" width="608" x="3" y="294.9414"/><line style="stroke: #000000; stroke-width: 1.0;" x1="3" x2="611" y1="294.9414" y2="294.9414"/><line style="stroke: #000000; stroke-width: 1.0;" x1="3" x2="611" y1="297.9414" y2="297.9414"/><rect fill="#EEEEEE" height="23.1328" style="stroke: #000000; stroke-width: 2.0;" width="90" x="262" y="284.375"/><text fill="#000000" font-family="Segoe UI" font-size="13" font-weight="bold" lengthAdjust="spacingAndGlyphs" textLength="71" x="268" y="300.4419">Database</text><polygon fill="#7C3AED" points="545.5,334.6406,555.5,338.6406,545.5,342.6406,549.5,338.6406" style="stroke: #7C3AED; stroke-width: 1.0;"/><line style="stroke: #7C3AED; stroke-width: 1.0;" x1="389.5" x2="551.5" y1="338.6406" y2="338.6406"/><text fill="#000000" font-family="Segoe UI" font-size="13" lengthAdjust="spacingAndGlyphs" textLength="149" x="396.5" y="333.5747">SELECT ... FOR UPDATE</text><polygon fill="#7C3AED" points="400.5,363.7734,390.5,367.7734,400.5,371.7734,396.5,367.7734" style="stroke: #7C3AED; stroke-width: 1.0;"/><line style="stroke: #7C3AED; stroke-width: 1.0; stroke-dasharray: 2.0,2.0;" x1="394.5" x2="561.5" y1="367.7734" y2="367.7734"/><text fill="#000000" font-family="Segoe UI" font-size="13" lengthAdjust="spacingAndGlyphs" textLength="74" x="406.5" y="362.7075">Current row</text><path d="M394,380.7734 L394,405.7734 L581,405.7734 L581,390.7734 L571,380.7734 L394,380.7734 " fill="#FBFB77" style="stroke: #A80036; stroke-width: 1.0;"/><path d="M571,380.7734 L571,390.7734 L581,390.7734 L571,380.7734 " fill="#FBFB77" style="stroke: #A80036; stroke-width: 1.0;"/><text fill="#000000" font-family="Segoe UI" font-size="13" lengthAdjust="spacingAndGlyphs" textLength="166" x="400" y="397.8403">Merge changed fields only</text><polygon fill="#7C3AED" points="545.5,428.0391,555.5,432.0391,545.5,436.0391,549.5,432.0391" style="stroke: #7C3AED; stroke-width: 1.0;"/><line style="stroke: #7C3AED; stroke-width: 1.0;" x1="389.5" x2="551.5" y1="432.0391" y2="432.0391"/><text fill="#000000" font-family="Segoe UI" font-size="13" lengthAdjust="spacingAndGlyphs" textLength="112" x="396.5" y="426.9731">UPDATE ... SET ...</text><polygon fill="#7C3AED" points="400.5,457.1719,390.5,461.1719,400.5,465.1719,396.5,461.1719" style="stroke: #7C3AED; stroke-width: 1.0;"/><line style="stroke: #7C3AED; stroke-width: 1.0; stroke-dasharray: 2.0,2.0;" x1="394.5" x2="561.5" y1="461.1719" y2="461.1719"/><text fill="#000000" font-family="Segoe UI" font-size="13" lengthAdjust="spacingAndGlyphs" textLength="81" x="406.5" y="456.106">Updated row</text><polygon fill="#7C3AED" points="258.5,486.3047,248.5,490.3047,258.5,494.3047,254.5,490.3047" style="stroke: #7C3AED; stroke-width: 1.0;"/><line style="stroke: #7C3AED; stroke-width: 1.0; stroke-dasharray: 2.0,2.0;" x1="252.5" x2="383.5" y1="490.3047" y2="490.3047"/><text fill="#000000" font-family="Segoe UI" font-size="13" lengthAdjust="spacingAndGlyphs" textLength="46" x="264.5" y="485.2388">200 OK</text><polygon fill="#7C3AED" points="45.5,515.4375,35.5,519.4375,45.5,523.4375,41.5,519.4375" style="stroke: #7C3AED; stroke-width: 1.0;"/><line style="stroke: #7C3AED; stroke-width: 1.0; stroke-dasharray: 2.0,2.0;" x1="39.5" x2="241.5" y1="519.4375" y2="519.4375"/><text fill="#000000" font-family="Segoe UI" font-size="13" lengthAdjust="spacingAndGlyphs" textLength="46" x="51.5" y="514.3716">200 OK</text><a href="/microservices/svc-transport-logistics/#integration-context" target="_top" title="/microservices/svc-transport-logistics/#integration-context" xlink:actuate="onRequest" xlink:href="/microservices/svc-transport-logistics/#integration-context" xlink:show="new" xlink:title="/microservices/svc-transport-logistics/#integration-context" xlink:type="simple"><text fill="#0000FF" font-family="Segoe UI" font-size="10" lengthAdjust="spacingAndGlyphs" text-decoration="underline" textLength="216" x="395" y="12.2822">⬆ svc-transport-logistics Integration Context</text></a><!--MD5=[5aa4d8ef7fe65b9fda631d2e77258da1]
@startuml svc-transport-logistics- -patch-vehicles-vehicle_id

skinparam backgroundColor #FEFEFE
skinparam shadowing false
skinparam defaultFontName "Segoe UI"
skinparam sequence {
    ArrowColor #7c3aed
    ParticipantBorderColor #374151
    ParticipantBackgroundColor #F9FAFB
    LifeLineBorderColor #6B7280
    BoxBorderColor #94A3B8
    BoxBackgroundColor #F8FAFC
    NoteBorderColor #64748B
    NoteBackgroundColor #F8FAFC
}

header [[/microservices/svc-transport-logistics/#integration-context ⬆ svc-transport-logistics Integration Context]]

title PATCH /vehicles/{vehicle_id}\nUpdate vehicle information

participant "Client" as Client [[/applications/]]
participant "API Gateway" as GW [[/actors/#api-gateway]] #E0F2FE
participant "svc-transport-logistics" as Svc [[/microservices/svc-transport-logistics/]] #CFFAFE
database "PostgreSQL" as DB [[/microservices/svc-transport-logistics/#data-store]] #FEF9C3

note over Svc
  [[/services/api/svc-transport-logistics.html View in Swagger UI]]
end note

Client -> GW : PATCH /vehicles/{vehicle_id}
activate GW #7c3aed
GW -> Svc : route request
activate Svc #7c3aed

note right of Svc : Validate request body

== Database ==

Svc -> DB : SELECT ... FOR UPDATE
activate DB #FEF9C3
DB - -> Svc : Current row
deactivate DB
note right of Svc : Merge changed fields only

Svc -> DB : UPDATE ... SET ...
activate DB #FEF9C3
DB - -> Svc : Updated row
deactivate DB

Svc - -> GW : 200 OK
deactivate Svc
GW - -> Client : 200 OK
deactivate GW

@enduml

PlantUML version 1.2020.02(Sun Mar 01 10:22:07 UTC 2020)
(GPL source distribution)
Java Runtime: OpenJDK Runtime Environment
JVM: OpenJDK 64-Bit Server VM
Java Version: 17.0.18+8
Operating System: Linux
Default Encoding: UTF-8
Language: en
Country: null
--></g></svg>