<svg xmlns="http://www.w3.org/2000/svg" xmlns:xlink="http://www.w3.org/1999/xlink" contentStyleType="text/css" data-diagram-type="SEQUENCE" height="474px" preserveAspectRatio="none" style="width:685px;height:474px;background:#FEFEFE;" version="1.1" viewBox="0 0 685 474" width="685px" zoomAndPan="magnify"><title>GET /members/{guest_id}/balance</title><defs/><g><rect fill="#FEFEFE" height="474" style="stroke:none;stroke-width:1;" width="685" x="0" y="0"/><text fill="#000000" font-family="Segoe UI" font-size="14" font-weight="bold" lengthAdjust="spacing" textLength="250.5508" x="213.6128" y="28.5352">GET /members/{guest_id}/balance</text><text fill="#000000" font-family="Segoe UI" font-size="14" font-weight="bold" lengthAdjust="spacing" textLength="294.6016" x="191.5874" y="45.0234">Get loyalty member balance and tier info</text><g><title>API Gateway</title><rect fill="#2563EB" height="189.8633" style="stroke:#A23B72;stroke-width:1;" width="10" x="268.9341" y="188.0859"/></g><g><title>svc-loyalty-rewards</title><rect fill="#2563EB" height="131.2422" style="stroke:#A23B72;stroke-width:1;" width="10" x="402.1074" y="217.3965"/></g><g><title>PostgreSQL</title><rect fill="#FCE4EC" height="29.3105" style="stroke:#A23B72;stroke-width:1;" width="10" x="627.3516" y="290.0176"/></g><g><title>Client</title><rect fill="#000000" fill-opacity="0.00000" height="274.4844" width="8" x="27.7524" y="121.4648"/><line style="stroke:#A23B72;stroke-width:0.5;stroke-dasharray:5,5;" x1="31" x2="31" y1="121.4648" y2="395.9492"/></g><g><title>API Gateway</title><rect fill="#000000" fill-opacity="0.00000" height="274.4844" width="8" x="269.9341" y="121.4648"/><line style="stroke:#A23B72;stroke-width:0.5;stroke-dasharray:5,5;" x1="273.645" x2="273.645" y1="121.4648" y2="395.9492"/></g><g><title>svc-loyalty-rewards</title><rect fill="#000000" fill-opacity="0.00000" height="274.4844" width="8" x="403.1074" y="121.4648"/><line style="stroke:#A23B72;stroke-width:0.5;stroke-dasharray:5,5;" x1="406.2231" x2="406.2231" y1="121.4648" y2="395.9492"/></g><g><title>PostgreSQL</title><rect fill="#000000" fill-opacity="0.00000" height="274.4844" width="8" x="628.3516" y="121.4648"/><line style="stroke:#A23B72;stroke-width:0.5;stroke-dasharray:5,5;" x1="631.9268" x2="631.9268" y1="121.4648" y2="395.9492"/></g><g class="participant participant-head" data-participant="Client"><rect fill="#E8F4F8" height="30.4883" rx="2.5" ry="2.5" style="stroke:#2E86AB;stroke-width:0.5;" width="53.5049" x="5" y="89.9766"/><text fill="#000000" font-family="Segoe UI" font-size="14" lengthAdjust="spacing" textLength="39.5049" x="12" y="110.5117">Client</text></g><g class="participant participant-tail" data-participant="Client"><rect fill="#E8F4F8" height="30.4883" rx="2.5" ry="2.5" style="stroke:#2E86AB;stroke-width:0.5;" width="53.5049" x="5" y="394.9492"/><text fill="#000000" font-family="Segoe UI" font-size="14" lengthAdjust="spacing" textLength="39.5049" x="12" y="415.4844">Client</text></g><g class="participant participant-head" data-participant="GW"><rect fill="#DBEAFE" height="30.4883" rx="2.5" ry="2.5" style="stroke:#2E86AB;stroke-width:0.5;" width="96.5781" x="225.645" y="89.9766"/><text fill="#000000" font-family="Segoe UI" font-size="14" lengthAdjust="spacing" textLength="82.5781" x="232.645" y="110.5117">API Gateway</text></g><g class="participant participant-tail" data-participant="GW"><rect fill="#DBEAFE" height="30.4883" rx="2.5" ry="2.5" style="stroke:#2E86AB;stroke-width:0.5;" width="96.5781" x="225.645" y="394.9492"/><text fill="#000000" font-family="Segoe UI" font-size="14" lengthAdjust="spacing" textLength="82.5781" x="232.645" y="415.4844">API Gateway</text></g><g class="participant participant-head" data-participant="Svc"><a href="/microservices/svc-loyalty-rewards/" target="_top" title="/microservices/svc-loyalty-rewards/" xlink:actuate="onRequest" xlink:href="/microservices/svc-loyalty-rewards/" xlink:show="new" xlink:title="/microservices/svc-loyalty-rewards/" xlink:type="simple"><rect fill="#E8F4F8" height="30.4883" rx="2.5" ry="2.5" style="stroke:#2E86AB;stroke-width:0.5;" width="149.7686" x="332.2231" y="89.9766"/><text fill="#000000" font-family="Segoe UI" font-size="14" lengthAdjust="spacing" textLength="135.7686" x="339.2231" y="110.5117">svc-loyalty-rewards</text></a></g><g class="participant participant-tail" data-participant="Svc"><a href="/microservices/svc-loyalty-rewards/" target="_top" title="/microservices/svc-loyalty-rewards/" xlink:actuate="onRequest" xlink:href="/microservices/svc-loyalty-rewards/" xlink:show="new" xlink:title="/microservices/svc-loyalty-rewards/" xlink:type="simple"><rect fill="#E8F4F8" height="30.4883" rx="2.5" ry="2.5" style="stroke:#2E86AB;stroke-width:0.5;" width="149.7686" x="332.2231" y="394.9492"/><text fill="#000000" font-family="Segoe UI" font-size="14" lengthAdjust="spacing" textLength="135.7686" x="339.2231" y="415.4844">svc-loyalty-rewards</text></a></g><g class="participant participant-head" data-participant="DB"><text fill="#000000" font-family="Segoe UI" font-size="14" lengthAdjust="spacing" textLength="76.8496" x="590.9268" y="118.5117">PostgreSQL</text><path d="M614.3516,68.9766 C614.3516,58.9766 632.3516,58.9766 632.3516,58.9766 C632.3516,58.9766 650.3516,58.9766 650.3516,68.9766 L650.3516,94.9766 C650.3516,104.9766 632.3516,104.9766 632.3516,104.9766 C632.3516,104.9766 614.3516,104.9766 614.3516,94.9766 L614.3516,68.9766" fill="#FCE4EC" style="stroke:#181818;stroke-width:0.5;"/><path d="M614.3516,68.9766 C614.3516,78.9766 632.3516,78.9766 632.3516,78.9766 C632.3516,78.9766 650.3516,78.9766 650.3516,68.9766" fill="none" style="stroke:#181818;stroke-width:0.5;"/></g><g class="participant participant-tail" data-participant="DB"><text fill="#000000" font-family="Segoe UI" font-size="14" lengthAdjust="spacing" textLength="76.8496" x="590.9268" y="408.4844">PostgreSQL</text><path d="M614.3516,421.4375 C614.3516,411.4375 632.3516,411.4375 632.3516,411.4375 C632.3516,411.4375 650.3516,411.4375 650.3516,421.4375 L650.3516,447.4375 C650.3516,457.4375 632.3516,457.4375 632.3516,457.4375 C632.3516,457.4375 614.3516,457.4375 614.3516,447.4375 L614.3516,421.4375" fill="#FCE4EC" style="stroke:#181818;stroke-width:0.5;"/><path d="M614.3516,421.4375 C614.3516,431.4375 632.3516,431.4375 632.3516,431.4375 C632.3516,431.4375 650.3516,431.4375 650.3516,421.4375" fill="none" style="stroke:#181818;stroke-width:0.5;"/></g><g><title>API Gateway</title><rect fill="#2563EB" height="189.8633" style="stroke:#A23B72;stroke-width:1;" width="10" x="268.9341" y="188.0859"/></g><g><title>svc-loyalty-rewards</title><rect fill="#2563EB" height="131.2422" style="stroke:#A23B72;stroke-width:1;" width="10" x="402.1074" y="217.3965"/></g><g><title>PostgreSQL</title><rect fill="#FCE4EC" height="29.3105" style="stroke:#A23B72;stroke-width:1;" width="10" x="627.3516" y="290.0176"/></g><path d="M336,136.4648 L336,161.4648 L476,161.4648 L476,146.4648 L466,136.4648 L336,136.4648" fill="#FEFFDD" style="stroke:#181818;stroke-width:0.5;"/><path d="M466,136.4648 L466,146.4648 L476,146.4648 L466,136.4648" fill="#FEFFDD" style="stroke:#181818;stroke-width:0.5;"/><a href="/services/api/svc-loyalty-rewards.html#/Members/getMemberBalance" target="_top" title="/services/api/svc-loyalty-rewards.html#/Members/getMemberBalance" xlink:actuate="onRequest" xlink:href="/services/api/svc-loyalty-rewards.html#/Members/getMemberBalance" xlink:show="new" xlink:title="/services/api/svc-loyalty-rewards.html#/Members/getMemberBalance" xlink:type="simple"><text fill="#0000FF" font-family="Segoe UI" font-size="13" lengthAdjust="spacing" text-decoration="underline" textLength="119.4058" x="342" y="154.0332">View in Swagger UI</text></a><g class="message" data-participant-1="Client" data-participant-2="GW"><polygon fill="#2563EB" points="256.9341,184.0859,266.9341,188.0859,256.9341,192.0859,260.9341,188.0859" style="stroke:#2563EB;stroke-width:1;"/><line style="stroke:#2563EB;stroke-width:1;" x1="31.7524" x2="262.9341" y1="188.0859" y2="188.0859"/><text fill="#000000" font-family="Segoe UI" font-size="13" lengthAdjust="spacing" textLength="218.1816" x="38.7524" y="183.3438">GET /members/{guest_id}/balance</text></g><g class="message" data-participant-1="GW" data-participant-2="Svc"><polygon fill="#2563EB" points="390.1074,213.3965,400.1074,217.3965,390.1074,221.3965,394.1074,217.3965" style="stroke:#2563EB;stroke-width:1;"/><line style="stroke:#2563EB;stroke-width:1;" x1="278.9341" x2="396.1074" y1="217.3965" y2="217.3965"/><a href="/microservices/svc-loyalty-rewards/#get-membersguest_idbalance-get-loyalty-member-balance-and-tier-info" target="_top" title="/microservices/svc-loyalty-rewards/#get-membersguest_idbalance-get-loyalty-member-balance-and-tier-info" xlink:actuate="onRequest" xlink:href="/microservices/svc-loyalty-rewards/#get-membersguest_idbalance-get-loyalty-member-balance-and-tier-info" xlink:show="new" xlink:title="/microservices/svc-loyalty-rewards/#get-membersguest_idbalance-get-loyalty-member-balance-and-tier-info" xlink:type="simple"><text fill="#0000FF" font-family="Segoe UI" font-size="13" lengthAdjust="spacing" text-decoration="underline" textLength="85.1348" x="285.9341" y="212.6543">route request</text></a></g><rect fill="#EEEEEE" height="3" style="stroke:#EEEEEE;stroke-width:1;" width="678.7764" x="0" y="246.0518"/><line style="stroke:#000000;stroke-width:1;" x1="0" x2="678.7764" y1="246.0518" y2="246.0518"/><line style="stroke:#000000;stroke-width:1;" x1="0" x2="678.7764" y1="249.0518" y2="249.0518"/><rect fill="#EEEEEE" height="23.3105" style="stroke:#000000;stroke-width:2;" width="80.3711" x="299.2026" y="235.3965"/><text fill="#000000" font-family="Segoe UI" font-size="13" font-weight="bold" lengthAdjust="spacing" textLength="62.0864" x="305.2026" y="251.9648">Database</text><g class="message" data-participant-1="Svc" data-participant-2="DB"><polygon fill="#2563EB" points="615.3516,286.0176,625.3516,290.0176,615.3516,294.0176,619.3516,290.0176" style="stroke:#2563EB;stroke-width:1;"/><line style="stroke:#2563EB;stroke-width:1;" x1="412.1074" x2="621.3516" y1="290.0176" y2="290.0176"/><text fill="#000000" font-family="Segoe UI" font-size="13" lengthAdjust="spacing" textLength="196.2441" x="419.1074" y="285.2754">SELECT ... WHERE parent_id = ?</text></g><g class="message" data-participant-1="DB" data-participant-2="Svc"><polygon fill="#2563EB" points="423.1074,315.3281,413.1074,319.3281,423.1074,323.3281,419.1074,319.3281" style="stroke:#2563EB;stroke-width:1;"/><line style="stroke:#2563EB;stroke-width:1;stroke-dasharray:2,2;" x1="417.1074" x2="631.3516" y1="319.3281" y2="319.3281"/><text fill="#000000" font-family="Segoe UI" font-size="13" lengthAdjust="spacing" textLength="57.8843" x="429.1074" y="314.5859">ResultSet</text></g><g class="message" data-participant-1="Svc" data-participant-2="GW"><polygon fill="#2563EB" points="289.9341,344.6387,279.9341,348.6387,289.9341,352.6387,285.9341,348.6387" style="stroke:#2563EB;stroke-width:1;"/><line style="stroke:#2563EB;stroke-width:1;stroke-dasharray:2,2;" x1="283.9341" x2="406.1074" y1="348.6387" y2="348.6387"/><text fill="#000000" font-family="Segoe UI" font-size="13" lengthAdjust="spacing" textLength="47.3599" x="295.9341" y="343.8965">200 OK</text></g><g class="message" data-participant-1="GW" data-participant-2="Client"><polygon fill="#2563EB" points="42.7524,373.9492,32.7524,377.9492,42.7524,381.9492,38.7524,377.9492" style="stroke:#2563EB;stroke-width:1;"/><line style="stroke:#2563EB;stroke-width:1;stroke-dasharray:2,2;" x1="36.7524" x2="272.9341" y1="377.9492" y2="377.9492"/><text fill="#000000" font-family="Segoe UI" font-size="13" lengthAdjust="spacing" textLength="47.3599" x="48.7524" y="373.207">200 OK</text></g><!--SRC=[ZPDHRzem58NV_Ikku3c4GbSG4fi89AmQxLZJZeSEJKvoIQqcCRCD35Nzxxi92GqhqfQyM3udzrn_rz7F8bjpnLC8UFWSAxd9eh5Cf8Acv-OlqqU7VkAHt8aiXXLFDDQK25TyanXFPkQMfmWD7sE9y73Tg7-ElpQOXGWl3EWPAILtPLJdmrKNWs9xpfKHeLZpp3XIHQWgYzk_6ZdlB7ytxVQzIwzVs6PYXJEHuKcPKQVhz3g5xiZV9v9tqVVQ5qVf7GxF8xsGRwKvhHhsUa6tffr1sNLxx9Kn8qo2C7NlmKun3L1f-oNUe3O_HVHg1ppXHEX7DaK3YTppnEpXu8DI0vv5O0HjY6mb6Lk_mO36E16OcGPm3OVbgJoQNyEK6zpnVU6PBg0vSTmHJVd4fxUXLQPRYjmgqeNVtuRm-6Yd8bHIezgA4BLzncmlbyT9HDpmW6kw4tEfJQpG_pOhYaqSuZ9sBzqnOnb10xcbGr44OQIGOts-5kSoMaycJPhsJGanHdDOEYMcxm9tX0Zy7OzZAlnmlLmo97Pv5cC7F61zp24C_ZKGnaCZjaIkG5RULbhIvpcJmVzHQLAJLXbIHPG1LYvL_eF5gYGQk9KFtCe73dIjg0sL_qlQq96EdUMDLAsnuH0c5VZXaB5Sf6Q9-G1yT-QExw7LQi7Yitld0isUM50pC8HFRmLh0wAbTJph7MhwrtqqBCAQkGofY7RQRVZwfMx9Hvip8qT9_vnhkc1_0000]--></g></svg>