<svg xmlns="http://www.w3.org/2000/svg" xmlns:xlink="http://www.w3.org/1999/xlink" contentStyleType="text/css" data-diagram-type="SEQUENCE" height="616px" preserveAspectRatio="none" style="width:639px;height:616px;background:#FEFEFE;" version="1.1" viewBox="0 0 639 616" width="639px" zoomAndPan="magnify"><title>PATCH /reservations/{reservation_id}</title><defs/><g><rect fill="#FEFEFE" height="616" style="stroke:none;stroke-width:1;" width="639" x="0" y="0"/><text fill="#000000" font-family="Segoe UI" font-size="14" font-weight="bold" lengthAdjust="spacing" textLength="272.918" x="179.5229" y="41.3125">PATCH /reservations/{reservation_id}</text><text fill="#000000" font-family="Segoe UI" font-size="14" font-weight="bold" lengthAdjust="spacing" textLength="150.377" x="240.7935" y="57.8008">Update a reservation</text><g><title>API Gateway</title><rect fill="#7C3AED" height="319.1055" style="stroke:#A23B72;stroke-width:1;" width="10" x="285.6094" y="200.8633"/></g><g><title>svc-reservations</title><rect fill="#7C3AED" height="260.4844" style="stroke:#A23B72;stroke-width:1;" width="10" x="407.165" y="230.1738"/></g><g><title>PostgreSQL</title><rect fill="#FCE4EC" height="29.3105" style="stroke:#A23B72;stroke-width:1;" width="10" x="581.5391" y="338.1055"/></g><g><title>PostgreSQL</title><rect fill="#FCE4EC" height="29.3105" style="stroke:#A23B72;stroke-width:1;" width="10" x="581.5391" y="432.0371"/></g><g><title>Client</title><rect fill="#000000" fill-opacity="0.00000" height="403.7266" width="8" x="27.7524" y="134.2422"/><line style="stroke:#A23B72;stroke-width:0.5;stroke-dasharray:5,5;" x1="31" x2="31" y1="134.2422" y2="537.9688"/></g><g><title>API Gateway</title><rect fill="#000000" fill-opacity="0.00000" height="403.7266" width="8" x="286.6094" y="134.2422"/><line style="stroke:#A23B72;stroke-width:0.5;stroke-dasharray:5,5;" x1="290.3203" x2="290.3203" y1="134.2422" y2="537.9688"/></g><g><title>svc-reservations</title><rect fill="#000000" fill-opacity="0.00000" height="403.7266" width="8" x="408.165" y="134.2422"/><line style="stroke:#A23B72;stroke-width:0.5;stroke-dasharray:5,5;" x1="411.8984" x2="411.8984" y1="134.2422" y2="537.9688"/></g><g><title>PostgreSQL</title><rect fill="#000000" fill-opacity="0.00000" height="403.7266" width="8" x="582.5391" y="134.2422"/><line style="stroke:#A23B72;stroke-width:0.5;stroke-dasharray:5,5;" x1="586.1143" x2="586.1143" y1="134.2422" y2="537.9688"/></g><g class="participant participant-head" data-participant="Client"><a href="/applications/" target="_top" title="/applications/" xlink:actuate="onRequest" xlink:href="/applications/" xlink:show="new" xlink:title="/applications/" xlink:type="simple"><rect fill="#E8F4F8" height="30.4883" rx="2.5" ry="2.5" style="stroke:#2E86AB;stroke-width:0.5;" width="53.5049" x="5" y="102.7539"/><text fill="#000000" font-family="Segoe UI" font-size="14" lengthAdjust="spacing" textLength="39.5049" x="12" y="123.2891">Client</text></a></g><g class="participant participant-tail" data-participant="Client"><a href="/applications/" target="_top" title="/applications/" xlink:actuate="onRequest" xlink:href="/applications/" xlink:show="new" xlink:title="/applications/" xlink:type="simple"><rect fill="#E8F4F8" height="30.4883" rx="2.5" ry="2.5" style="stroke:#2E86AB;stroke-width:0.5;" width="53.5049" x="5" y="536.9688"/><text fill="#000000" font-family="Segoe UI" font-size="14" lengthAdjust="spacing" textLength="39.5049" x="12" y="557.5039">Client</text></a></g><g class="participant participant-head" data-participant="GW"><rect fill="#DBEAFE" height="30.4883" rx="2.5" ry="2.5" style="stroke:#2E86AB;stroke-width:0.5;" width="96.5781" x="242.3203" y="102.7539"/><text fill="#000000" font-family="Segoe UI" font-size="14" lengthAdjust="spacing" textLength="82.5781" x="249.3203" y="123.2891">API Gateway</text></g><g class="participant participant-tail" data-participant="GW"><rect fill="#DBEAFE" height="30.4883" rx="2.5" ry="2.5" style="stroke:#2E86AB;stroke-width:0.5;" width="96.5781" x="242.3203" y="536.9688"/><text fill="#000000" font-family="Segoe UI" font-size="14" lengthAdjust="spacing" textLength="82.5781" x="249.3203" y="557.5039">API Gateway</text></g><g class="participant participant-head" data-participant="Svc"><a href="/microservices/svc-reservations/" target="_top" title="/microservices/svc-reservations/" xlink:actuate="onRequest" xlink:href="/microservices/svc-reservations/" xlink:show="new" xlink:title="/microservices/svc-reservations/" xlink:type="simple"><rect fill="#E8F4F8" height="30.4883" rx="2.5" ry="2.5" style="stroke:#2E86AB;stroke-width:0.5;" width="126.5332" x="348.8984" y="102.7539"/><text fill="#000000" font-family="Segoe UI" font-size="14" lengthAdjust="spacing" textLength="112.5332" x="355.8984" y="123.2891">svc-reservations</text></a></g><g class="participant participant-tail" data-participant="Svc"><a href="/microservices/svc-reservations/" target="_top" title="/microservices/svc-reservations/" xlink:actuate="onRequest" xlink:href="/microservices/svc-reservations/" xlink:show="new" xlink:title="/microservices/svc-reservations/" xlink:type="simple"><rect fill="#E8F4F8" height="30.4883" rx="2.5" ry="2.5" style="stroke:#2E86AB;stroke-width:0.5;" width="126.5332" x="348.8984" y="536.9688"/><text fill="#000000" font-family="Segoe UI" font-size="14" lengthAdjust="spacing" textLength="112.5332" x="355.8984" y="557.5039">svc-reservations</text></a></g><g class="participant participant-head" data-participant="DB"><text fill="#000000" font-family="Segoe UI" font-size="14" lengthAdjust="spacing" textLength="76.8496" x="545.1143" y="131.2891">PostgreSQL</text><path d="M568.5391,81.7539 C568.5391,71.7539 586.5391,71.7539 586.5391,71.7539 C586.5391,71.7539 604.5391,71.7539 604.5391,81.7539 L604.5391,107.7539 C604.5391,117.7539 586.5391,117.7539 586.5391,117.7539 C586.5391,117.7539 568.5391,117.7539 568.5391,107.7539 L568.5391,81.7539" fill="#FCE4EC" style="stroke:#181818;stroke-width:0.5;"/><path d="M568.5391,81.7539 C568.5391,91.7539 586.5391,91.7539 586.5391,91.7539 C586.5391,91.7539 604.5391,91.7539 604.5391,81.7539" fill="none" style="stroke:#181818;stroke-width:0.5;"/></g><g class="participant participant-tail" data-participant="DB"><text fill="#000000" font-family="Segoe UI" font-size="14" lengthAdjust="spacing" textLength="76.8496" x="545.1143" y="550.5039">PostgreSQL</text><path d="M568.5391,563.457 C568.5391,553.457 586.5391,553.457 586.5391,553.457 C586.5391,553.457 604.5391,553.457 604.5391,563.457 L604.5391,589.457 C604.5391,599.457 586.5391,599.457 586.5391,599.457 C586.5391,599.457 568.5391,599.457 568.5391,589.457 L568.5391,563.457" fill="#FCE4EC" style="stroke:#181818;stroke-width:0.5;"/><path d="M568.5391,563.457 C568.5391,573.457 586.5391,573.457 586.5391,573.457 C586.5391,573.457 604.5391,573.457 604.5391,563.457" fill="none" style="stroke:#181818;stroke-width:0.5;"/></g><g><title>API Gateway</title><rect fill="#7C3AED" height="319.1055" style="stroke:#A23B72;stroke-width:1;" width="10" x="285.6094" y="200.8633"/></g><g><title>svc-reservations</title><rect fill="#7C3AED" height="260.4844" style="stroke:#A23B72;stroke-width:1;" width="10" x="407.165" y="230.1738"/></g><g><title>PostgreSQL</title><rect fill="#FCE4EC" height="29.3105" style="stroke:#A23B72;stroke-width:1;" width="10" x="581.5391" y="338.1055"/></g><g><title>PostgreSQL</title><rect fill="#FCE4EC" height="29.3105" style="stroke:#A23B72;stroke-width:1;" width="10" x="581.5391" y="432.0371"/></g><path d="M341,149.2422 L341,174.2422 L481,174.2422 L481,159.2422 L471,149.2422 L341,149.2422" fill="#FEFFDD" style="stroke:#181818;stroke-width:0.5;"/><path d="M471,149.2422 L471,159.2422 L481,159.2422 L471,149.2422" fill="#FEFFDD" style="stroke:#181818;stroke-width:0.5;"/><a href="/services/api/svc-reservations.html#/Reservations/updateReservation" target="_top" title="/services/api/svc-reservations.html#/Reservations/updateReservation" xlink:actuate="onRequest" xlink:href="/services/api/svc-reservations.html#/Reservations/updateReservation" xlink:show="new" xlink:title="/services/api/svc-reservations.html#/Reservations/updateReservation" xlink:type="simple"><text fill="#0000FF" font-family="Segoe UI" font-size="13" lengthAdjust="spacing" text-decoration="underline" textLength="119.4058" x="347" y="166.8105">View in Swagger UI</text></a><g class="message" data-participant-1="Client" data-participant-2="GW"><polygon fill="#7C3AED" points="273.6094,196.8633,283.6094,200.8633,273.6094,204.8633,277.6094,200.8633" style="stroke:#7C3AED;stroke-width:1;"/><line style="stroke:#7C3AED;stroke-width:1;" x1="31.7524" x2="279.6094" y1="200.8633" y2="200.8633"/><text fill="#000000" font-family="Segoe UI" font-size="13" lengthAdjust="spacing" textLength="234.8569" x="38.7524" y="196.1211">PATCH /reservations/{reservation_id}</text></g><g class="message" data-participant-1="GW" data-participant-2="Svc"><polygon fill="#7C3AED" points="395.165,226.1738,405.165,230.1738,395.165,234.1738,399.165,230.1738" style="stroke:#7C3AED;stroke-width:1;"/><line style="stroke:#7C3AED;stroke-width:1;" x1="295.6094" x2="401.165" y1="230.1738" y2="230.1738"/><text fill="#000000" font-family="Segoe UI" font-size="13" lengthAdjust="spacing" textLength="85.1348" x="302.6094" y="225.4316">route request</text></g><path d="M422,243.1738 L422,268.1738 L580,268.1738 L580,253.1738 L570,243.1738 L422,243.1738" fill="#FEFFDD" style="stroke:#181818;stroke-width:0.5;"/><path d="M570,243.1738 L570,253.1738 L580,253.1738 L570,243.1738" fill="#FEFFDD" style="stroke:#181818;stroke-width:0.5;"/><text fill="#000000" font-family="Segoe UI" font-size="13" lengthAdjust="spacing" textLength="137.5728" x="428" y="260.7422">Validate request body</text><rect fill="#EEEEEE" height="3" style="stroke:#EEEEEE;stroke-width:1;" width="632.9639" x="0" y="294.1396"/><line style="stroke:#000000;stroke-width:1;" x1="0" x2="632.9639" y1="294.1396" y2="294.1396"/><line style="stroke:#000000;stroke-width:1;" x1="0" x2="632.9639" y1="297.1396" y2="297.1396"/><rect fill="#EEEEEE" height="23.3105" style="stroke:#000000;stroke-width:2;" width="80.3711" x="276.2964" y="283.4844"/><text fill="#000000" font-family="Segoe UI" font-size="13" font-weight="bold" lengthAdjust="spacing" textLength="62.0864" x="282.2964" y="300.0527">Database</text><g class="message" data-participant-1="Svc" data-participant-2="DB"><polygon fill="#7C3AED" points="569.5391,334.1055,579.5391,338.1055,569.5391,342.1055,573.5391,338.1055" style="stroke:#7C3AED;stroke-width:1;"/><line style="stroke:#7C3AED;stroke-width:1;" x1="417.165" x2="575.5391" y1="338.1055" y2="338.1055"/><text fill="#000000" font-family="Segoe UI" font-size="13" lengthAdjust="spacing" textLength="145.374" x="424.165" y="333.3633">SELECT ... FOR UPDATE</text></g><g class="message" data-participant-1="DB" data-participant-2="Svc"><polygon fill="#7C3AED" points="428.165,363.416,418.165,367.416,428.165,371.416,424.165,367.416" style="stroke:#7C3AED;stroke-width:1;"/><line style="stroke:#7C3AED;stroke-width:1;stroke-dasharray:2,2;" x1="422.165" x2="585.5391" y1="367.416" y2="367.416"/><text fill="#000000" font-family="Segoe UI" font-size="13" lengthAdjust="spacing" textLength="75.3086" x="434.165" y="362.6738">Current row</text></g><path d="M422,380.416 L422,405.416 L608,405.416 L608,390.416 L598,380.416 L422,380.416" fill="#FEFFDD" style="stroke:#181818;stroke-width:0.5;"/><path d="M598,380.416 L598,390.416 L608,390.416 L598,380.416" fill="#FEFFDD" style="stroke:#181818;stroke-width:0.5;"/><text fill="#000000" font-family="Segoe UI" font-size="13" lengthAdjust="spacing" textLength="165.9023" x="428" y="397.9844">Merge changed fields only</text><g class="message" data-participant-1="Svc" data-participant-2="DB"><polygon fill="#7C3AED" points="569.5391,428.0371,579.5391,432.0371,569.5391,436.0371,573.5391,432.0371" style="stroke:#7C3AED;stroke-width:1;"/><line style="stroke:#7C3AED;stroke-width:1;" x1="417.165" x2="575.5391" y1="432.0371" y2="432.0371"/><text fill="#000000" font-family="Segoe UI" font-size="13" lengthAdjust="spacing" textLength="109.4526" x="424.165" y="427.2949">UPDATE ... SET ...</text></g><g class="message" data-participant-1="DB" data-participant-2="Svc"><polygon fill="#7C3AED" points="428.165,457.3477,418.165,461.3477,428.165,465.3477,424.165,461.3477" style="stroke:#7C3AED;stroke-width:1;"/><line style="stroke:#7C3AED;stroke-width:1;stroke-dasharray:2,2;" x1="422.165" x2="585.5391" y1="461.3477" y2="461.3477"/><text fill="#000000" font-family="Segoe UI" font-size="13" lengthAdjust="spacing" textLength="80.2725" x="434.165" y="456.6055">Updated row</text></g><g class="message" data-participant-1="Svc" data-participant-2="GW"><polygon fill="#7C3AED" points="306.6094,486.6582,296.6094,490.6582,306.6094,494.6582,302.6094,490.6582" style="stroke:#7C3AED;stroke-width:1;"/><line style="stroke:#7C3AED;stroke-width:1;stroke-dasharray:2,2;" x1="300.6094" x2="411.165" y1="490.6582" y2="490.6582"/><text fill="#000000" font-family="Segoe UI" font-size="13" lengthAdjust="spacing" textLength="47.3599" x="312.6094" y="485.916">200 OK</text></g><g class="message" data-participant-1="GW" data-participant-2="Client"><polygon fill="#7C3AED" points="42.7524,515.9688,32.7524,519.9688,42.7524,523.9688,38.7524,519.9688" style="stroke:#7C3AED;stroke-width:1;"/><line style="stroke:#7C3AED;stroke-width:1;stroke-dasharray:2,2;" x1="36.7524" x2="289.6094" y1="519.9688" y2="519.9688"/><text fill="#000000" font-family="Segoe UI" font-size="13" lengthAdjust="spacing" textLength="47.3599" x="48.7524" y="515.2266">200 OK</text></g><a href="/microservices/svc-reservations/#integration-context" target="_top" title="/microservices/svc-reservations/#integration-context" xlink:actuate="onRequest" xlink:href="/microservices/svc-reservations/#integration-context" xlink:show="new" xlink:title="/microservices/svc-reservations/#integration-context" xlink:type="simple"><text fill="#0000FF" font-family="Segoe UI" font-size="10" lengthAdjust="spacing" text-decoration="underline" textLength="191.5527" x="440.4111" y="14.668">&#11014; svc-reservations Integration Context</text></a><!--SRC=[ZLFRRXen47ttLupWcKiWAYWIbPPbDqMb2GsGFAIeClQmM5dihTT0eYYl_Pf-LR-azhA1tGIfWHTxpvapCsV6wOEG2TLq3GlA7YAjDfBxAbOQgc7W_YGzCD8LvMedP0HB6gTOG3WkwIOsePBcYguHAXEC5C9iM2c6uwyDIeRmJC3-FAtLBa_LOMsAFFiyfje89X8gJLzfZZgdj8Bk9w__ZlAswA0RdeVTZ3OIInm9YIKPhzNkTrePtbUF9IWywuRDimFqpeumj7W6NobJLcMTpg9Tm4vOsGuwv8MG5L8R1lVtZRLWMgMeju9XsaYthARHNQaHIgQDgf068vtTQimQYuy6_lxv3M-PC3mImTyJvtD2Z30nmjYR-b-WKP9-Bjn-2lxoGyuIJWq2XG92I7Bq6If-B52Q2j0KzaVN0qsIMB1SrYOjHNZZ8LnQsHrzoi8kxw0ww0UUtQaIxsr36NcoPHymQJu_JDmsG1SqjRitLgc9D4w-ZpAbGT_wxmVdWK-8jCC1jRK3iFfsN3R3GPmcubs2-igiushZffXpatbL-0It0dSW94nsD8gizcnehK39mQKZ9BUhzjavSF6XYH3AZDYwaJZJyjTXZrR36NC1ThaigDsBIisHxS1N-hvPBQAL0RNCusvfBB9Hvw6mKFo9a5uF1g_-zNg4EBBDPQsxW4am2lmfrEjr2AzlO3OUUDFWcB9WhptM3XNw6wrTs_QH4uu5-icwlg6E4DYAoWWvB0N6F0KbuwToBVlaMIsJ8Alf_uNiTvkVA6Gl_JgNLhC9rr-B5BSZpdJBo6TuYdLvH_u1]--></g></svg>