<?xml version="1.0" encoding="UTF-8" standalone="no"?><svg xmlns="http://www.w3.org/2000/svg" xmlns:xlink="http://www.w3.org/1999/xlink" contentScriptType="application/ecmascript" contentStyleType="text/css" height="575px" preserveAspectRatio="none" style="width:897px;height:575px;background:#FEFEFE;" version="1.1" viewBox="0 0 897 575" width="897px" zoomAndPan="magnify"><defs/><g><text fill="#000000" font-family="Segoe UI" font-size="18" lengthAdjust="spacingAndGlyphs" textLength="387" x="250.5" y="41.3486">DELETE /gear-assignments/{assignment_id}</text><text fill="#000000" font-family="Segoe UI" font-size="18" lengthAdjust="spacingAndGlyphs" textLength="276" x="306" y="62.3018">Return gear (close assignment)</text><rect fill="#DC2626" height="282.1953" style="stroke: #6B7280; stroke-width: 1.0;" width="10" x="338.5" y="202.1094"/><rect fill="#DC2626" height="223.9297" style="stroke: #6B7280; stroke-width: 1.0;" width="10" x="473.5" y="231.2422"/><rect fill="#FEF9C3" height="29.1328" style="stroke: #6B7280; stroke-width: 1.0;" width="10" x="696.5" y="303.5078"/><rect fill="#FEF9C3" height="29.1328" style="stroke: #6B7280; stroke-width: 1.0;" width="10" x="696.5" y="396.9063"/><line style="stroke: #6B7280; stroke-width: 1.0; stroke-dasharray: 5.0,5.0;" x1="34" x2="34" y1="135.8438" y2="502.3047"/><line style="stroke: #6B7280; stroke-width: 1.0; stroke-dasharray: 5.0,5.0;" x1="343.5" x2="343.5" y1="135.8438" y2="502.3047"/><line style="stroke: #6B7280; stroke-width: 1.0; stroke-dasharray: 5.0,5.0;" x1="478" x2="478" y1="135.8438" y2="502.3047"/><line style="stroke: #6B7280; stroke-width: 1.0; stroke-dasharray: 5.0,5.0;" x1="701" x2="701" y1="135.8438" y2="502.3047"/><a href="/applications/" target="_top" title="/applications/" xlink:actuate="onRequest" xlink:href="/applications/" xlink:show="new" xlink:title="/applications/" xlink:type="simple"><rect fill="#F9FAFB" height="30.2969" style="stroke: #374151; stroke-width: 1.5;" width="53" x="8" y="104.5469"/><text fill="#000000" font-family="Segoe UI" font-size="14" lengthAdjust="spacingAndGlyphs" textLength="39" x="15" y="124.542">Client</text><rect fill="#F9FAFB" height="30.2969" style="stroke: #374151; stroke-width: 1.5;" width="53" x="8" y="501.3047"/><text fill="#000000" font-family="Segoe UI" font-size="14" lengthAdjust="spacingAndGlyphs" textLength="39" x="15" y="521.2998">Client</text></a><a href="/actors/#api-gateway" target="_top" title="/actors/#api-gateway" xlink:actuate="onRequest" xlink:href="/actors/#api-gateway" xlink:show="new" xlink:title="/actors/#api-gateway" xlink:type="simple"><rect fill="#E0F2FE" height="30.2969" style="stroke: #374151; stroke-width: 1.5;" width="98" x="294.5" y="104.5469"/><text fill="#000000" font-family="Segoe UI" font-size="14" lengthAdjust="spacingAndGlyphs" textLength="84" x="301.5" y="124.542">API Gateway</text><rect fill="#E0F2FE" height="30.2969" style="stroke: #374151; stroke-width: 1.5;" width="98" x="294.5" y="501.3047"/><text fill="#000000" font-family="Segoe UI" font-size="14" lengthAdjust="spacingAndGlyphs" textLength="84" x="301.5" y="521.2998">API Gateway</text></a><a href="/microservices/svc-gear-inventory/" target="_top" title="/microservices/svc-gear-inventory/" xlink:actuate="onRequest" xlink:href="/microservices/svc-gear-inventory/" xlink:show="new" xlink:title="/microservices/svc-gear-inventory/" xlink:type="simple"><rect fill="#CFFAFE" height="30.2969" style="stroke: #374151; stroke-width: 1.5;" width="141" x="408" y="104.5469"/><text fill="#000000" font-family="Segoe UI" font-size="14" lengthAdjust="spacingAndGlyphs" textLength="127" x="415" y="124.542">svc-gear-inventory</text><rect fill="#CFFAFE" height="30.2969" style="stroke: #374151; stroke-width: 1.5;" width="141" x="408" y="501.3047"/><text fill="#000000" font-family="Segoe UI" font-size="14" lengthAdjust="spacingAndGlyphs" textLength="127" x="415" y="521.2998">svc-gear-inventory</text></a><a href="/microservices/svc-gear-inventory/#data-store" target="_top" title="/microservices/svc-gear-inventory/#data-store" xlink:actuate="onRequest" xlink:href="/microservices/svc-gear-inventory/#data-store" xlink:show="new" xlink:title="/microservices/svc-gear-inventory/#data-store" xlink:type="simple"><text fill="#000000" font-family="Segoe UI" font-size="14" lengthAdjust="spacingAndGlyphs" textLength="81" x="658" y="132.542">PostgreSQL</text><path d="M683.5,83.5469 C683.5,73.5469 701.5,73.5469 701.5,73.5469 C701.5,73.5469 719.5,73.5469 719.5,83.5469 L719.5,109.5469 C719.5,119.5469 701.5,119.5469 701.5,119.5469 C701.5,119.5469 683.5,119.5469 683.5,109.5469 L683.5,83.5469 " fill="#FEF9C3" style="stroke: #000000; stroke-width: 1.5;"/><path d="M683.5,83.5469 C683.5,93.5469 701.5,93.5469 701.5,93.5469 C701.5,93.5469 719.5,93.5469 719.5,83.5469 " fill="none" style="stroke: #000000; stroke-width: 1.5;"/><text fill="#000000" font-family="Segoe UI" font-size="14" lengthAdjust="spacingAndGlyphs" textLength="81" x="658" y="514.2998">PostgreSQL</text><path d="M683.5,527.6016 C683.5,517.6016 701.5,517.6016 701.5,517.6016 C701.5,517.6016 719.5,517.6016 719.5,527.6016 L719.5,553.6016 C719.5,563.6016 701.5,563.6016 701.5,563.6016 C701.5,563.6016 683.5,563.6016 683.5,553.6016 L683.5,527.6016 " fill="#FEF9C3" style="stroke: #000000; stroke-width: 1.5;"/><path d="M683.5,527.6016 C683.5,537.6016 701.5,537.6016 701.5,537.6016 C701.5,537.6016 719.5,537.6016 719.5,527.6016 " fill="none" style="stroke: #000000; stroke-width: 1.5;"/></a><rect fill="#DC2626" height="282.1953" style="stroke: #6B7280; stroke-width: 1.0;" width="10" x="338.5" y="202.1094"/><rect fill="#DC2626" height="223.9297" style="stroke: #6B7280; stroke-width: 1.0;" width="10" x="473.5" y="231.2422"/><rect fill="#FEF9C3" height="29.1328" style="stroke: #6B7280; stroke-width: 1.0;" width="10" x="696.5" y="303.5078"/><rect fill="#FEF9C3" height="29.1328" style="stroke: #6B7280; stroke-width: 1.0;" width="10" x="696.5" y="396.9063"/><path d="M408,150.8438 L408,175.8438 L549,175.8438 L549,160.8438 L539,150.8438 L408,150.8438 " fill="#FBFB77" style="stroke: #A80036; stroke-width: 1.0;"/><path d="M539,150.8438 L539,160.8438 L549,160.8438 L539,150.8438 " fill="#FBFB77" style="stroke: #A80036; stroke-width: 1.0;"/><a href="/services/api/svc-gear-inventory.html#/Gear%20Assignments/returnGearAssignment" target="_top" title="/services/api/svc-gear-inventory.html#/Gear%20Assignments/returnGearAssignment" xlink:actuate="onRequest" xlink:href="/services/api/svc-gear-inventory.html#/Gear%20Assignments/returnGearAssignment" xlink:show="new" xlink:title="/services/api/svc-gear-inventory.html#/Gear%20Assignments/returnGearAssignment" xlink:type="simple"><text fill="#0000FF" font-family="Segoe UI" font-size="13" lengthAdjust="spacingAndGlyphs" text-decoration="underline" textLength="120" x="414" y="167.9106">View in Swagger UI</text></a><polygon fill="#DC2626" points="326.5,198.1094,336.5,202.1094,326.5,206.1094,330.5,202.1094" style="stroke: #DC2626; stroke-width: 1.0;"/><line style="stroke: #DC2626; stroke-width: 1.0;" x1="34.5" x2="332.5" y1="202.1094" y2="202.1094"/><text fill="#000000" font-family="Segoe UI" font-size="13" lengthAdjust="spacingAndGlyphs" textLength="285" x="41.5" y="197.0435">DELETE /gear-assignments/{assignment_id}</text><polygon fill="#DC2626" points="461.5,227.2422,471.5,231.2422,461.5,235.2422,465.5,231.2422" style="stroke: #DC2626; stroke-width: 1.0;"/><line style="stroke: #DC2626; stroke-width: 1.0;" x1="348.5" x2="467.5" y1="231.2422" y2="231.2422"/><text fill="#000000" font-family="Segoe UI" font-size="13" lengthAdjust="spacingAndGlyphs" textLength="87" x="355.5" y="226.1763">route request</text><rect fill="#EEEEEE" height="3" style="stroke: #EEEEEE; stroke-width: 1.0;" width="882" x="3" y="259.8086"/><line style="stroke: #000000; stroke-width: 1.0;" x1="3" x2="885" y1="259.8086" y2="259.8086"/><line style="stroke: #000000; stroke-width: 1.0;" x1="3" x2="885" y1="262.8086" y2="262.8086"/><rect fill="#EEEEEE" height="23.1328" style="stroke: #000000; stroke-width: 2.0;" width="90" x="399" y="249.2422"/><text fill="#000000" font-family="Segoe UI" font-size="13" font-weight="bold" lengthAdjust="spacingAndGlyphs" textLength="71" x="405" y="265.3091">Database</text><polygon fill="#DC2626" points="684.5,299.5078,694.5,303.5078,684.5,307.5078,688.5,303.5078" style="stroke: #DC2626; stroke-width: 1.0;"/><line style="stroke: #DC2626; stroke-width: 1.0;" x1="483.5" x2="690.5" y1="303.5078" y2="303.5078"/><text fill="#000000" font-family="Segoe UI" font-size="13" lengthAdjust="spacingAndGlyphs" textLength="154" x="490.5" y="298.4419">SELECT ... WHERE id = ?</text><polygon fill="#DC2626" points="494.5,328.6406,484.5,332.6406,494.5,336.6406,490.5,332.6406" style="stroke: #DC2626; stroke-width: 1.0;"/><line style="stroke: #DC2626; stroke-width: 1.0; stroke-dasharray: 2.0,2.0;" x1="488.5" x2="700.5" y1="332.6406" y2="332.6406"/><text fill="#000000" font-family="Segoe UI" font-size="13" lengthAdjust="spacingAndGlyphs" textLength="25" x="500.5" y="327.5747">Row</text><path d="M706,345.6406 L706,370.6406 L880,370.6406 L880,355.6406 L870,345.6406 L706,345.6406 " fill="#FBFB77" style="stroke: #A80036; stroke-width: 1.0;"/><path d="M870,345.6406 L870,355.6406 L880,355.6406 L870,345.6406 " fill="#FBFB77" style="stroke: #A80036; stroke-width: 1.0;"/><text fill="#000000" font-family="Segoe UI" font-size="13" lengthAdjust="spacingAndGlyphs" textLength="153" x="712" y="362.7075">Returns 404 if not found</text><polygon fill="#DC2626" points="684.5,392.9063,694.5,396.9063,684.5,400.9063,688.5,396.9063" style="stroke: #DC2626; stroke-width: 1.0;"/><line style="stroke: #DC2626; stroke-width: 1.0;" x1="483.5" x2="690.5" y1="396.9063" y2="396.9063"/><text fill="#000000" font-family="Segoe UI" font-size="13" lengthAdjust="spacingAndGlyphs" textLength="194" x="490.5" y="391.8403">DELETE FROM ... WHERE id = ?</text><polygon fill="#DC2626" points="494.5,422.0391,484.5,426.0391,494.5,430.0391,490.5,426.0391" style="stroke: #DC2626; stroke-width: 1.0;"/><line style="stroke: #DC2626; stroke-width: 1.0; stroke-dasharray: 2.0,2.0;" x1="488.5" x2="700.5" y1="426.0391" y2="426.0391"/><text fill="#000000" font-family="Segoe UI" font-size="13" lengthAdjust="spacingAndGlyphs" textLength="18" x="500.5" y="420.9731">OK</text><polygon fill="#DC2626" points="359.5,451.1719,349.5,455.1719,359.5,459.1719,355.5,455.1719" style="stroke: #DC2626; stroke-width: 1.0;"/><line style="stroke: #DC2626; stroke-width: 1.0; stroke-dasharray: 2.0,2.0;" x1="353.5" x2="477.5" y1="455.1719" y2="455.1719"/><text fill="#000000" font-family="Segoe UI" font-size="13" lengthAdjust="spacingAndGlyphs" textLength="101" x="365.5" y="450.106">204 No Content</text><polygon fill="#DC2626" points="45.5,480.3047,35.5,484.3047,45.5,488.3047,41.5,484.3047" style="stroke: #DC2626; stroke-width: 1.0;"/><line style="stroke: #DC2626; stroke-width: 1.0; stroke-dasharray: 2.0,2.0;" x1="39.5" x2="342.5" y1="484.3047" y2="484.3047"/><text fill="#000000" font-family="Segoe UI" font-size="13" lengthAdjust="spacingAndGlyphs" textLength="101" x="51.5" y="479.2388">204 No Content</text><a href="/microservices/svc-gear-inventory/#integration-context" target="_top" title="/microservices/svc-gear-inventory/#integration-context" xlink:actuate="onRequest" xlink:href="/microservices/svc-gear-inventory/#integration-context" xlink:show="new" xlink:title="/microservices/svc-gear-inventory/#integration-context" xlink:type="simple"><text fill="#0000FF" font-family="Segoe UI" font-size="10" lengthAdjust="spacingAndGlyphs" text-decoration="underline" textLength="202" x="683" y="12.2822">⬆ svc-gear-inventory Integration Context</text></a><!--MD5=[0c8c8de8e26b42815bde4c184ec63a96]
@startuml svc-gear-inventory- -delete-gear-assignments-assignment_id

skinparam backgroundColor #FEFEFE
skinparam shadowing false
skinparam defaultFontName "Segoe UI"
skinparam sequence {
    ArrowColor #dc2626
    ParticipantBorderColor #374151
    ParticipantBackgroundColor #F9FAFB
    LifeLineBorderColor #6B7280
    BoxBorderColor #94A3B8
    BoxBackgroundColor #F8FAFC
    NoteBorderColor #64748B
    NoteBackgroundColor #F8FAFC
}

header [[/microservices/svc-gear-inventory/#integration-context ⬆ svc-gear-inventory Integration Context]]

title DELETE /gear-assignments/{assignment_id}\nReturn gear (close assignment)

participant "Client" as Client [[/applications/]]
participant "API Gateway" as GW [[/actors/#api-gateway]] #E0F2FE
participant "svc-gear-inventory" as Svc [[/microservices/svc-gear-inventory/]] #CFFAFE
database "PostgreSQL" as DB [[/microservices/svc-gear-inventory/#data-store]] #FEF9C3

note over Svc
  [[/services/api/svc-gear-inventory.html#/Gear%20Assignments/returnGearAssignment View in Swagger UI]]
end note

Client -> GW : DELETE /gear-assignments/{assignment_id}
activate GW #dc2626
GW -> Svc : route request
activate Svc #dc2626

== Database ==

Svc -> DB : SELECT ... WHERE id = ?
activate DB #FEF9C3
DB - -> Svc : Row
deactivate DB
note right of DB : Returns 404 if not found

Svc -> DB : DELETE FROM ... WHERE id = ?
activate DB #FEF9C3
DB - -> Svc : OK
deactivate DB

Svc - -> GW : 204 No Content
deactivate Svc
GW - -> Client : 204 No Content
deactivate GW

@enduml

PlantUML version 1.2020.02(Sun Mar 01 10:22:07 UTC 2020)
(GPL source distribution)
Java Runtime: OpenJDK Runtime Environment
JVM: OpenJDK 64-Bit Server VM
Java Version: 17.0.18+8
Operating System: Linux
Default Encoding: UTF-8
Language: en
Country: null
--></g></svg>