<svg xmlns="http://www.w3.org/2000/svg" xmlns:xlink="http://www.w3.org/1999/xlink" contentStyleType="text/css" data-diagram-type="SEQUENCE" height="487px" preserveAspectRatio="none" style="width:693px;height:487px;background:#FEFEFE;" version="1.1" viewBox="0 0 693 487" width="693px" zoomAndPan="magnify"><title>GET /locations/{location_id}/capacity</title><defs/><g><rect fill="#FEFEFE" height="487" style="stroke:none;stroke-width:1;" width="693" x="0" y="0"/><text fill="#000000" font-family="Segoe UI" font-size="14" font-weight="bold" lengthAdjust="spacing" textLength="270.0947" x="207.9443" y="41.3125">GET /locations/{location_id}/capacity</text><text fill="#000000" font-family="Segoe UI" font-size="14" font-weight="bold" lengthAdjust="spacing" textLength="223.0225" x="231.4805" y="57.8008">Get current capacity utilization</text><g><title>API Gateway</title><rect fill="#2563EB" height="189.8633" style="stroke:#A23B72;stroke-width:1;" width="10" x="285.2793" y="200.8633"/></g><g><title>svc-location-services</title><rect fill="#2563EB" height="131.2422" style="stroke:#A23B72;stroke-width:1;" width="10" x="423.5386" y="230.1738"/></g><g><title>PostGIS</title><rect fill="#FCE4EC" height="29.3105" style="stroke:#A23B72;stroke-width:1;" width="10" x="648.7827" y="302.7949"/></g><g><title>Client</title><rect fill="#000000" fill-opacity="0.00000" height="274.4844" width="8" x="27.7524" y="134.2422"/><line style="stroke:#A23B72;stroke-width:0.5;stroke-dasharray:5,5;" x1="31" x2="31" y1="134.2422" y2="408.7266"/></g><g><title>API Gateway</title><rect fill="#000000" fill-opacity="0.00000" height="274.4844" width="8" x="286.2793" y="134.2422"/><line style="stroke:#A23B72;stroke-width:0.5;stroke-dasharray:5,5;" x1="289.9902" x2="289.9902" y1="134.2422" y2="408.7266"/></g><g><title>svc-location-services</title><rect fill="#000000" fill-opacity="0.00000" height="274.4844" width="8" x="424.5386" y="134.2422"/><line style="stroke:#A23B72;stroke-width:0.5;stroke-dasharray:5,5;" x1="427.5684" x2="427.5684" y1="134.2422" y2="408.7266"/></g><g><title>PostGIS</title><rect fill="#000000" fill-opacity="0.00000" height="274.4844" width="8" x="649.7827" y="134.2422"/><line style="stroke:#A23B72;stroke-width:0.5;stroke-dasharray:5,5;" x1="653.582" x2="653.582" y1="134.2422" y2="408.7266"/></g><g class="participant participant-head" data-participant="Client"><rect fill="#E8F4F8" height="30.4883" rx="2.5" ry="2.5" style="stroke:#2E86AB;stroke-width:0.5;" width="53.5049" x="5" y="102.7539"/><text fill="#000000" font-family="Segoe UI" font-size="14" lengthAdjust="spacing" textLength="39.5049" x="12" y="123.2891">Client</text></g><g class="participant participant-tail" data-participant="Client"><rect fill="#E8F4F8" height="30.4883" rx="2.5" ry="2.5" style="stroke:#2E86AB;stroke-width:0.5;" width="53.5049" x="5" y="407.7266"/><text fill="#000000" font-family="Segoe UI" font-size="14" lengthAdjust="spacing" textLength="39.5049" x="12" y="428.2617">Client</text></g><g class="participant participant-head" data-participant="GW"><rect fill="#DBEAFE" height="30.4883" rx="2.5" ry="2.5" style="stroke:#2E86AB;stroke-width:0.5;" width="96.5781" x="241.9902" y="102.7539"/><text fill="#000000" font-family="Segoe UI" font-size="14" lengthAdjust="spacing" textLength="82.5781" x="248.9902" y="123.2891">API Gateway</text></g><g class="participant participant-tail" data-participant="GW"><rect fill="#DBEAFE" height="30.4883" rx="2.5" ry="2.5" style="stroke:#2E86AB;stroke-width:0.5;" width="96.5781" x="241.9902" y="407.7266"/><text fill="#000000" font-family="Segoe UI" font-size="14" lengthAdjust="spacing" textLength="82.5781" x="248.9902" y="428.2617">API Gateway</text></g><g class="participant participant-head" data-participant="Svc"><a href="/microservices/svc-location-services/" target="_top" title="/microservices/svc-location-services/" xlink:actuate="onRequest" xlink:href="/microservices/svc-location-services/" xlink:show="new" xlink:title="/microservices/svc-location-services/" xlink:type="simple"><rect fill="#E8F4F8" height="30.4883" rx="2.5" ry="2.5" style="stroke:#2E86AB;stroke-width:0.5;" width="159.9404" x="348.5684" y="102.7539"/><text fill="#000000" font-family="Segoe UI" font-size="14" lengthAdjust="spacing" textLength="145.9404" x="355.5684" y="123.2891">svc-location-services</text></a></g><g class="participant participant-tail" data-participant="Svc"><a href="/microservices/svc-location-services/" target="_top" title="/microservices/svc-location-services/" xlink:actuate="onRequest" xlink:href="/microservices/svc-location-services/" xlink:show="new" xlink:title="/microservices/svc-location-services/" xlink:type="simple"><rect fill="#E8F4F8" height="30.4883" rx="2.5" ry="2.5" style="stroke:#2E86AB;stroke-width:0.5;" width="159.9404" x="348.5684" y="407.7266"/><text fill="#000000" font-family="Segoe UI" font-size="14" lengthAdjust="spacing" textLength="145.9404" x="355.5684" y="428.2617">svc-location-services</text></a></g><g class="participant participant-head" data-participant="DB"><text fill="#000000" font-family="Segoe UI" font-size="14" lengthAdjust="spacing" textLength="50.4014" x="625.582" y="131.2891">PostGIS</text><path d="M635.7827,81.7539 C635.7827,71.7539 653.7827,71.7539 653.7827,71.7539 C653.7827,71.7539 671.7827,71.7539 671.7827,81.7539 L671.7827,107.7539 C671.7827,117.7539 653.7827,117.7539 653.7827,117.7539 C653.7827,117.7539 635.7827,117.7539 635.7827,107.7539 L635.7827,81.7539" fill="#FCE4EC" style="stroke:#181818;stroke-width:0.5;"/><path d="M635.7827,81.7539 C635.7827,91.7539 653.7827,91.7539 653.7827,91.7539 C653.7827,91.7539 671.7827,91.7539 671.7827,81.7539" fill="none" style="stroke:#181818;stroke-width:0.5;"/></g><g class="participant participant-tail" data-participant="DB"><text fill="#000000" font-family="Segoe UI" font-size="14" lengthAdjust="spacing" textLength="50.4014" x="625.582" y="421.2617">PostGIS</text><path d="M635.7827,434.2148 C635.7827,424.2148 653.7827,424.2148 653.7827,424.2148 C653.7827,424.2148 671.7827,424.2148 671.7827,434.2148 L671.7827,460.2148 C671.7827,470.2148 653.7827,470.2148 653.7827,470.2148 C653.7827,470.2148 635.7827,470.2148 635.7827,460.2148 L635.7827,434.2148" fill="#FCE4EC" style="stroke:#181818;stroke-width:0.5;"/><path d="M635.7827,434.2148 C635.7827,444.2148 653.7827,444.2148 653.7827,444.2148 C653.7827,444.2148 671.7827,444.2148 671.7827,434.2148" fill="none" style="stroke:#181818;stroke-width:0.5;"/></g><g><title>API Gateway</title><rect fill="#2563EB" height="189.8633" style="stroke:#A23B72;stroke-width:1;" width="10" x="285.2793" y="200.8633"/></g><g><title>svc-location-services</title><rect fill="#2563EB" height="131.2422" style="stroke:#A23B72;stroke-width:1;" width="10" x="423.5386" y="230.1738"/></g><g><title>PostGIS</title><rect fill="#FCE4EC" height="29.3105" style="stroke:#A23B72;stroke-width:1;" width="10" x="648.7827" y="302.7949"/></g><path d="M358,149.2422 L358,174.2422 L498,174.2422 L498,159.2422 L488,149.2422 L358,149.2422" fill="#FEFFDD" style="stroke:#181818;stroke-width:0.5;"/><path d="M488,149.2422 L488,159.2422 L498,159.2422 L488,149.2422" fill="#FEFFDD" style="stroke:#181818;stroke-width:0.5;"/><a href="/services/api/svc-location-services.html" target="_top" title="/services/api/svc-location-services.html" xlink:actuate="onRequest" xlink:href="/services/api/svc-location-services.html" xlink:show="new" xlink:title="/services/api/svc-location-services.html" xlink:type="simple"><text fill="#0000FF" font-family="Segoe UI" font-size="13" lengthAdjust="spacing" text-decoration="underline" textLength="119.4058" x="364" y="166.8105">View in Swagger UI</text></a><g class="message" data-participant-1="Client" data-participant-2="GW"><polygon fill="#2563EB" points="273.2793,196.8633,283.2793,200.8633,273.2793,204.8633,277.2793,200.8633" style="stroke:#2563EB;stroke-width:1;"/><line style="stroke:#2563EB;stroke-width:1;" x1="31.7524" x2="279.2793" y1="200.8633" y2="200.8633"/><text fill="#000000" font-family="Segoe UI" font-size="13" lengthAdjust="spacing" textLength="234.5269" x="38.7524" y="196.1211">GET /locations/{location_id}/capacity</text></g><g class="message" data-participant-1="GW" data-participant-2="Svc"><polygon fill="#2563EB" points="411.5386,226.1738,421.5386,230.1738,411.5386,234.1738,415.5386,230.1738" style="stroke:#2563EB;stroke-width:1;"/><line style="stroke:#2563EB;stroke-width:1;" x1="295.2793" x2="417.5386" y1="230.1738" y2="230.1738"/><text fill="#000000" font-family="Segoe UI" font-size="13" lengthAdjust="spacing" textLength="85.1348" x="302.2793" y="225.4316">route request</text></g><rect fill="#EEEEEE" height="3" style="stroke:#EEEEEE;stroke-width:1;" width="686.9834" x="0" y="258.8291"/><line style="stroke:#000000;stroke-width:1;" x1="0" x2="686.9834" y1="258.8291" y2="258.8291"/><line style="stroke:#000000;stroke-width:1;" x1="0" x2="686.9834" y1="261.8291" y2="261.8291"/><rect fill="#EEEEEE" height="23.3105" style="stroke:#000000;stroke-width:2;" width="80.3711" x="303.3062" y="248.1738"/><text fill="#000000" font-family="Segoe UI" font-size="13" font-weight="bold" lengthAdjust="spacing" textLength="62.0864" x="309.3062" y="264.7422">Database</text><g class="message" data-participant-1="Svc" data-participant-2="DB"><polygon fill="#2563EB" points="636.7827,298.7949,646.7827,302.7949,636.7827,306.7949,640.7827,302.7949" style="stroke:#2563EB;stroke-width:1;"/><line style="stroke:#2563EB;stroke-width:1;" x1="433.5386" x2="642.7827" y1="302.7949" y2="302.7949"/><text fill="#000000" font-family="Segoe UI" font-size="13" lengthAdjust="spacing" textLength="196.2441" x="440.5386" y="298.0527">SELECT ... WHERE parent_id = ?</text></g><g class="message" data-participant-1="DB" data-participant-2="Svc"><polygon fill="#2563EB" points="444.5386,328.1055,434.5386,332.1055,444.5386,336.1055,440.5386,332.1055" style="stroke:#2563EB;stroke-width:1;"/><line style="stroke:#2563EB;stroke-width:1;stroke-dasharray:2,2;" x1="438.5386" x2="652.7827" y1="332.1055" y2="332.1055"/><text fill="#000000" font-family="Segoe UI" font-size="13" lengthAdjust="spacing" textLength="57.8843" x="450.5386" y="327.3633">ResultSet</text></g><g class="message" data-participant-1="Svc" data-participant-2="GW"><polygon fill="#2563EB" points="306.2793,357.416,296.2793,361.416,306.2793,365.416,302.2793,361.416" style="stroke:#2563EB;stroke-width:1;"/><line style="stroke:#2563EB;stroke-width:1;stroke-dasharray:2,2;" x1="300.2793" x2="427.5386" y1="361.416" y2="361.416"/><text fill="#000000" font-family="Segoe UI" font-size="13" lengthAdjust="spacing" textLength="47.3599" x="312.2793" y="356.6738">200 OK</text></g><g class="message" data-participant-1="GW" data-participant-2="Client"><polygon fill="#2563EB" points="42.7524,386.7266,32.7524,390.7266,42.7524,394.7266,38.7524,390.7266" style="stroke:#2563EB;stroke-width:1;"/><line style="stroke:#2563EB;stroke-width:1;stroke-dasharray:2,2;" x1="36.7524" x2="289.2793" y1="390.7266" y2="390.7266"/><text fill="#000000" font-family="Segoe UI" font-size="13" lengthAdjust="spacing" textLength="47.3599" x="48.7524" y="385.9844">200 OK</text></g><a href="/microservices/svc-location-services/#integration-context" target="_top" title="/microservices/svc-location-services/#integration-context" xlink:actuate="onRequest" xlink:href="/microservices/svc-location-services/#integration-context" xlink:show="new" xlink:title="/microservices/svc-location-services/#integration-context" xlink:type="simple"><text fill="#0000FF" font-family="Segoe UI" font-size="10" lengthAdjust="spacing" text-decoration="underline" textLength="215.415" x="470.5684" y="14.668">&#11014; svc-location-services Integration Context</text></a><!--SRC=[ZLDDRzf04BtlhnZ1cOz06X0IhS3O53LAKPoKGuggPJsOLSmktLqWQPHhVqr_LNz9nmQCQJW47nZDU_DcvyskVPHgnGrVmeoBnzZejOeydMW3vS1FFsPpXbtmI6-bYc7E4ui59C8vNoSkqChTy2L2ASHO8zoFIiLo_Bb69H1U6D2lPupUxbirFbmrSPQbnzmuAUIAAzVN9a9peFZjgrx_3UN_G_lju39ePxHhESThgV14fjTezbkD3E_hfnCek6W7zOiSUcD7412UmJVQdQgALclMB61dh6pwBVRAs08vbS73GsqfXT4MpKOAj3Mx4PL42-waLfKyMvRAOMnsMK7kufE3ltz-mrawZ8viy7RiwPGn9rs2CFJle7QeiRMNG_X3HgyrmLTSIFVyNGtHWLWRWuh-zrbOEvd8NncTiTNHVYXvYIHc2RY5NNWAzyOZ67A7M_wSSOOJA0_wVe_krGdlx3nPHRWHxtLhEitt7t77PzpIJHnhwuQZCDCQz6aLdd_fUumfsXFe3Us2Ej3cg4Skn5VoV8lgmYqJ-2Pn2r91kELnJ0Bt8t8PLGIf9cCx7w3oCPssypxV6HTERiYepA7zSw2GH583Ea2tYK2JFY7hZkmKFD1Pjmk3mzpTBcCfI08qTGT2_zhtxg1QhSBait_h0zbFfwH3G1S-7GKB5b5OoVlVegK77g9Z4HR8-oQ7MHlrEdpzKgIavgPp46FlopdMSCB-0G00]--></g></svg>