<svg xmlns="http://www.w3.org/2000/svg" xmlns:xlink="http://www.w3.org/1999/xlink" contentStyleType="text/css" data-diagram-type="SEQUENCE" height="487px" preserveAspectRatio="none" style="width:512px;height:487px;background:#FEFEFE;" version="1.1" viewBox="0 0 512 487" width="512px" zoomAndPan="magnify"><title>GET /waivers</title><defs/><g><rect fill="#FEFEFE" height="487" style="stroke:none;stroke-width:1;" width="512" x="0" y="0"/><text fill="#000000" font-family="Segoe UI" font-size="14" font-weight="bold" lengthAdjust="spacing" textLength="96.6875" x="204.0613" y="41.3125">GET /waivers</text><text fill="#000000" font-family="Segoe UI" font-size="14" font-weight="bold" lengthAdjust="spacing" textLength="153.4395" x="175.6853" y="57.8008">List waivers by guest</text><g><title>API Gateway</title><rect fill="#2563EB" height="189.8633" style="stroke:#A23B72;stroke-width:1;" width="10" x="133.2148" y="200.8633"/></g><g><title>svc-safety-compliance</title><rect fill="#2563EB" height="131.2422" style="stroke:#A23B72;stroke-width:1;" width="10" x="276.1328" y="230.1738"/></g><g><title>PostgreSQL</title><rect fill="#FCE4EC" height="29.3105" style="stroke:#A23B72;stroke-width:1;" width="10" x="454.3853" y="302.7949"/></g><g><title>Client</title><rect fill="#000000" fill-opacity="0.00000" height="274.4844" width="8" x="27.7524" y="134.2422"/><line style="stroke:#A23B72;stroke-width:0.5;stroke-dasharray:5,5;" x1="31" x2="31" y1="134.2422" y2="408.7266"/></g><g><title>API Gateway</title><rect fill="#000000" fill-opacity="0.00000" height="274.4844" width="8" x="134.2148" y="134.2422"/><line style="stroke:#A23B72;stroke-width:0.5;stroke-dasharray:5,5;" x1="137.9258" x2="137.9258" y1="134.2422" y2="408.7266"/></g><g><title>svc-safety-compliance</title><rect fill="#000000" fill-opacity="0.00000" height="274.4844" width="8" x="277.1328" y="134.2422"/><line style="stroke:#A23B72;stroke-width:0.5;stroke-dasharray:5,5;" x1="280.5039" x2="280.5039" y1="134.2422" y2="408.7266"/></g><g><title>PostgreSQL</title><rect fill="#000000" fill-opacity="0.00000" height="274.4844" width="8" x="455.3853" y="134.2422"/><line style="stroke:#A23B72;stroke-width:0.5;stroke-dasharray:5,5;" x1="458.9604" x2="458.9604" y1="134.2422" y2="408.7266"/></g><g class="participant participant-head" data-participant="Client"><a href="/applications/" target="_top" title="/applications/" xlink:actuate="onRequest" xlink:href="/applications/" xlink:show="new" xlink:title="/applications/" xlink:type="simple"><rect fill="#E8F4F8" height="30.4883" rx="2.5" ry="2.5" style="stroke:#2E86AB;stroke-width:0.5;" width="53.5049" x="5" y="102.7539"/><text fill="#000000" font-family="Segoe UI" font-size="14" lengthAdjust="spacing" textLength="39.5049" x="12" y="123.2891">Client</text></a></g><g class="participant participant-tail" data-participant="Client"><a href="/applications/" target="_top" title="/applications/" xlink:actuate="onRequest" xlink:href="/applications/" xlink:show="new" xlink:title="/applications/" xlink:type="simple"><rect fill="#E8F4F8" height="30.4883" rx="2.5" ry="2.5" style="stroke:#2E86AB;stroke-width:0.5;" width="53.5049" x="5" y="407.7266"/><text fill="#000000" font-family="Segoe UI" font-size="14" lengthAdjust="spacing" textLength="39.5049" x="12" y="428.2617">Client</text></a></g><g class="participant participant-head" data-participant="GW"><rect fill="#DBEAFE" height="30.4883" rx="2.5" ry="2.5" style="stroke:#2E86AB;stroke-width:0.5;" width="96.5781" x="89.9258" y="102.7539"/><text fill="#000000" font-family="Segoe UI" font-size="14" lengthAdjust="spacing" textLength="82.5781" x="96.9258" y="123.2891">API Gateway</text></g><g class="participant participant-tail" data-participant="GW"><rect fill="#DBEAFE" height="30.4883" rx="2.5" ry="2.5" style="stroke:#2E86AB;stroke-width:0.5;" width="96.5781" x="89.9258" y="407.7266"/><text fill="#000000" font-family="Segoe UI" font-size="14" lengthAdjust="spacing" textLength="82.5781" x="96.9258" y="428.2617">API Gateway</text></g><g class="participant participant-head" data-participant="Svc"><a href="/microservices/svc-safety-compliance/" target="_top" title="/microservices/svc-safety-compliance/" xlink:actuate="onRequest" xlink:href="/microservices/svc-safety-compliance/" xlink:show="new" xlink:title="/microservices/svc-safety-compliance/" xlink:type="simple"><rect fill="#E8F4F8" height="30.4883" rx="2.5" ry="2.5" style="stroke:#2E86AB;stroke-width:0.5;" width="169.2578" x="196.5039" y="102.7539"/><text fill="#000000" font-family="Segoe UI" font-size="14" lengthAdjust="spacing" textLength="155.2578" x="203.5039" y="123.2891">svc-safety-compliance</text></a></g><g class="participant participant-tail" data-participant="Svc"><a href="/microservices/svc-safety-compliance/" target="_top" title="/microservices/svc-safety-compliance/" xlink:actuate="onRequest" xlink:href="/microservices/svc-safety-compliance/" xlink:show="new" xlink:title="/microservices/svc-safety-compliance/" xlink:type="simple"><rect fill="#E8F4F8" height="30.4883" rx="2.5" ry="2.5" style="stroke:#2E86AB;stroke-width:0.5;" width="169.2578" x="196.5039" y="407.7266"/><text fill="#000000" font-family="Segoe UI" font-size="14" lengthAdjust="spacing" textLength="155.2578" x="203.5039" y="428.2617">svc-safety-compliance</text></a></g><g class="participant participant-head" data-participant="DB"><text fill="#000000" font-family="Segoe UI" font-size="14" lengthAdjust="spacing" textLength="76.8496" x="417.9604" y="131.2891">PostgreSQL</text><path d="M441.3853,81.7539 C441.3853,71.7539 459.3853,71.7539 459.3853,71.7539 C459.3853,71.7539 477.3853,71.7539 477.3853,81.7539 L477.3853,107.7539 C477.3853,117.7539 459.3853,117.7539 459.3853,117.7539 C459.3853,117.7539 441.3853,117.7539 441.3853,107.7539 L441.3853,81.7539" fill="#FCE4EC" style="stroke:#181818;stroke-width:0.5;"/><path d="M441.3853,81.7539 C441.3853,91.7539 459.3853,91.7539 459.3853,91.7539 C459.3853,91.7539 477.3853,91.7539 477.3853,81.7539" fill="none" style="stroke:#181818;stroke-width:0.5;"/></g><g class="participant participant-tail" data-participant="DB"><text fill="#000000" font-family="Segoe UI" font-size="14" lengthAdjust="spacing" textLength="76.8496" x="417.9604" y="421.2617">PostgreSQL</text><path d="M441.3853,434.2148 C441.3853,424.2148 459.3853,424.2148 459.3853,424.2148 C459.3853,424.2148 477.3853,424.2148 477.3853,434.2148 L477.3853,460.2148 C477.3853,470.2148 459.3853,470.2148 459.3853,470.2148 C459.3853,470.2148 441.3853,470.2148 441.3853,460.2148 L441.3853,434.2148" fill="#FCE4EC" style="stroke:#181818;stroke-width:0.5;"/><path d="M441.3853,434.2148 C441.3853,444.2148 459.3853,444.2148 459.3853,444.2148 C459.3853,444.2148 477.3853,444.2148 477.3853,434.2148" fill="none" style="stroke:#181818;stroke-width:0.5;"/></g><g><title>API Gateway</title><rect fill="#2563EB" height="189.8633" style="stroke:#A23B72;stroke-width:1;" width="10" x="133.2148" y="200.8633"/></g><g><title>svc-safety-compliance</title><rect fill="#2563EB" height="131.2422" style="stroke:#A23B72;stroke-width:1;" width="10" x="276.1328" y="230.1738"/></g><g><title>PostgreSQL</title><rect fill="#FCE4EC" height="29.3105" style="stroke:#A23B72;stroke-width:1;" width="10" x="454.3853" y="302.7949"/></g><path d="M210,149.2422 L210,174.2422 L350,174.2422 L350,159.2422 L340,149.2422 L210,149.2422" fill="#FEFFDD" style="stroke:#181818;stroke-width:0.5;"/><path d="M340,149.2422 L340,159.2422 L350,159.2422 L340,149.2422" fill="#FEFFDD" style="stroke:#181818;stroke-width:0.5;"/><a href="/services/api/svc-safety-compliance.html#/Waivers/listWaivers" target="_top" title="/services/api/svc-safety-compliance.html#/Waivers/listWaivers" xlink:actuate="onRequest" xlink:href="/services/api/svc-safety-compliance.html#/Waivers/listWaivers" xlink:show="new" xlink:title="/services/api/svc-safety-compliance.html#/Waivers/listWaivers" xlink:type="simple"><text fill="#0000FF" font-family="Segoe UI" font-size="13" lengthAdjust="spacing" text-decoration="underline" textLength="119.4058" x="216" y="166.8105">View in Swagger UI</text></a><g class="message" data-participant-1="Client" data-participant-2="GW"><polygon fill="#2563EB" points="121.2148,196.8633,131.2148,200.8633,121.2148,204.8633,125.2148,200.8633" style="stroke:#2563EB;stroke-width:1;"/><line style="stroke:#2563EB;stroke-width:1;" x1="31.7524" x2="127.2148" y1="200.8633" y2="200.8633"/><text fill="#000000" font-family="Segoe UI" font-size="13" lengthAdjust="spacing" textLength="82.4624" x="38.7524" y="196.1211">GET /waivers</text></g><g class="message" data-participant-1="GW" data-participant-2="Svc"><polygon fill="#2563EB" points="264.1328,226.1738,274.1328,230.1738,264.1328,234.1738,268.1328,230.1738" style="stroke:#2563EB;stroke-width:1;"/><line style="stroke:#2563EB;stroke-width:1;" x1="143.2148" x2="270.1328" y1="230.1738" y2="230.1738"/><text fill="#000000" font-family="Segoe UI" font-size="13" lengthAdjust="spacing" textLength="85.1348" x="150.2148" y="225.4316">route request</text></g><rect fill="#EEEEEE" height="3" style="stroke:#EEEEEE;stroke-width:1;" width="505.8101" x="0" y="258.8291"/><line style="stroke:#000000;stroke-width:1;" x1="0" x2="505.8101" y1="258.8291" y2="258.8291"/><line style="stroke:#000000;stroke-width:1;" x1="0" x2="505.8101" y1="261.8291" y2="261.8291"/><rect fill="#EEEEEE" height="23.3105" style="stroke:#000000;stroke-width:2;" width="80.3711" x="212.7195" y="248.1738"/><text fill="#000000" font-family="Segoe UI" font-size="13" font-weight="bold" lengthAdjust="spacing" textLength="62.0864" x="218.7195" y="264.7422">Database</text><g class="message" data-participant-1="Svc" data-participant-2="DB"><polygon fill="#2563EB" points="442.3853,298.7949,452.3853,302.7949,442.3853,306.7949,446.3853,302.7949" style="stroke:#2563EB;stroke-width:1;"/><line style="stroke:#2563EB;stroke-width:1;" x1="286.1328" x2="448.3853" y1="302.7949" y2="302.7949"/><text fill="#000000" font-family="Segoe UI" font-size="13" lengthAdjust="spacing" textLength="149.2524" x="293.1328" y="298.0527">SELECT ... WHERE filters</text></g><g class="message" data-participant-1="DB" data-participant-2="Svc"><polygon fill="#2563EB" points="297.1328,328.1055,287.1328,332.1055,297.1328,336.1055,293.1328,332.1055" style="stroke:#2563EB;stroke-width:1;"/><line style="stroke:#2563EB;stroke-width:1;stroke-dasharray:2,2;" x1="291.1328" x2="458.3853" y1="332.1055" y2="332.1055"/><text fill="#000000" font-family="Segoe UI" font-size="13" lengthAdjust="spacing" textLength="93.209" x="303.1328" y="327.3633">Page of results</text></g><g class="message" data-participant-1="Svc" data-participant-2="GW"><polygon fill="#2563EB" points="154.2148,357.416,144.2148,361.416,154.2148,365.416,150.2148,361.416" style="stroke:#2563EB;stroke-width:1;"/><line style="stroke:#2563EB;stroke-width:1;stroke-dasharray:2,2;" x1="148.2148" x2="280.1328" y1="361.416" y2="361.416"/><text fill="#000000" font-family="Segoe UI" font-size="13" lengthAdjust="spacing" textLength="47.3599" x="160.2148" y="356.6738">200 OK</text></g><g class="message" data-participant-1="GW" data-participant-2="Client"><polygon fill="#2563EB" points="42.7524,386.7266,32.7524,390.7266,42.7524,394.7266,38.7524,390.7266" style="stroke:#2563EB;stroke-width:1;"/><line style="stroke:#2563EB;stroke-width:1;stroke-dasharray:2,2;" x1="36.7524" x2="137.2148" y1="390.7266" y2="390.7266"/><text fill="#000000" font-family="Segoe UI" font-size="13" lengthAdjust="spacing" textLength="47.3599" x="48.7524" y="385.9844">200 OK</text></g><a href="/microservices/svc-safety-compliance/#integration-context" target="_top" title="/microservices/svc-safety-compliance/#integration-context" xlink:actuate="onRequest" xlink:href="/microservices/svc-safety-compliance/#integration-context" xlink:show="new" xlink:title="/microservices/svc-safety-compliance/#integration-context" xlink:type="simple"><text fill="#0000FF" font-family="Segoe UI" font-size="10" lengthAdjust="spacing" text-decoration="underline" textLength="222.0703" x="282.7397" y="14.668">&#11014; svc-safety-compliance Integration Context</text></a><!--SRC=[ZPFFRjf04CRl-nGZE8C9f04XKOa_DaL5AIr9EQGS1dimgvXTkhj0KDLhdwPFrIVfs1Y26mw5ozhVD_Fj_7PjdwNQeC4rB31yZetUggYl4ssW7FZfNzYpmwumqdkfObXYOkb2YMY9syG5MhbxN1EKfXHhWiTHwRASlcz9XGG_1F2lQupUvr7rTtSDMcIl9sYS3EK6bUjf4v4vMVpMNRVtnlBlflrMS1kqCjjOBcai5HNQTEkDNhEUwJtzKf22crPGkpbBRt040UkPVAzTiMlOR2uQ5zeLb0s_ANuAiIBaCdXwyjOoDDgIsScGh6TtOSNYajoX4khr9f78fBooL8vYWqvgnU_vuSN1dz-_uAeTHgzkw1_TyxaGJhg4OEW_WBT7kIDZlwcnj0xo9rWS8DwITK9iNj52gPz8Kgu4QE6uJBUD6quBimphSVT2HNSoWY4wskCXAnlEe3pe-Ls-HWNVrUrd5TDT-BzmvlFpSKVeS86MBzv4MnSRcduUP-q6FORVzs_zlX2AJmOq3vo6y5bnp3a1D_9wIdNbradPcnr9UGbZozVmLT8Uf8Bf7kEOkpwE60Uf2D8W8N9abVSfXNO1ly3GoHrpoW3bbv-Nx4tdRmFV7HPD-i7mgPpTgNYoYqu71gUnEnqXKf4RyCHjcFfZl_y0rMeLPX_yBpuiPU8AmHTWU5av9qymPaXBphRyGLiHqKL97d8QgLwhmQUFbvOKR3e7E_Bnhxc6C_4N]--></g></svg>