<svg xmlns="http://www.w3.org/2000/svg" xmlns:xlink="http://www.w3.org/1999/xlink" contentStyleType="text/css" data-diagram-type="SEQUENCE" height="522px" preserveAspectRatio="none" style="width:460px;height:522px;background:#FEFEFE;" version="1.1" viewBox="0 0 460 522" width="460px" zoomAndPan="magnify"><title>POST /trails</title><defs/><g><rect fill="#FEFEFE" height="522" style="stroke:none;stroke-width:1;" width="460" x="0" y="0"/><text fill="#000000" font-family="Segoe UI" font-size="14" font-weight="bold" lengthAdjust="spacing" textLength="87.5889" x="182.4919" y="41.3125">POST /trails</text><text fill="#000000" font-family="Segoe UI" font-size="14" font-weight="bold" lengthAdjust="spacing" textLength="127.5723" x="162.5002" y="57.8008">Create a new trail</text><g><title>API Gateway</title><rect fill="#059669" height="225.1738" style="stroke:#A23B72;stroke-width:1;" width="10" x="133.5493" y="200.8633"/></g><g><title>svc-trail-management</title><rect fill="#059669" height="166.5527" style="stroke:#A23B72;stroke-width:1;" width="10" x="275.3838" y="230.1738"/></g><g><title>PostGIS</title><rect fill="#FCE4EC" height="29.3105" style="stroke:#A23B72;stroke-width:1;" width="10" x="400.4556" y="338.1055"/></g><g><title>Client</title><rect fill="#000000" fill-opacity="0.00000" height="309.7949" width="8" x="27.7524" y="134.2422"/><line style="stroke:#A23B72;stroke-width:0.5;stroke-dasharray:5,5;" x1="31" x2="31" y1="134.2422" y2="444.0371"/></g><g><title>API Gateway</title><rect fill="#000000" fill-opacity="0.00000" height="309.7949" width="8" x="134.5493" y="134.2422"/><line style="stroke:#A23B72;stroke-width:0.5;stroke-dasharray:5,5;" x1="138.2603" x2="138.2603" y1="134.2422" y2="444.0371"/></g><g><title>svc-trail-management</title><rect fill="#000000" fill-opacity="0.00000" height="309.7949" width="8" x="276.3838" y="134.2422"/><line style="stroke:#A23B72;stroke-width:0.5;stroke-dasharray:5,5;" x1="279.8384" x2="279.8384" y1="134.2422" y2="444.0371"/></g><g><title>PostGIS</title><rect fill="#000000" fill-opacity="0.00000" height="309.7949" width="8" x="401.4556" y="134.2422"/><line style="stroke:#A23B72;stroke-width:0.5;stroke-dasharray:5,5;" x1="405.2549" x2="405.2549" y1="134.2422" y2="444.0371"/></g><g class="participant participant-head" data-participant="Client"><a href="/applications/" target="_top" title="/applications/" xlink:actuate="onRequest" xlink:href="/applications/" xlink:show="new" xlink:title="/applications/" xlink:type="simple"><rect fill="#E8F4F8" height="30.4883" rx="2.5" ry="2.5" style="stroke:#2E86AB;stroke-width:0.5;" width="53.5049" x="5" y="102.7539"/><text fill="#000000" font-family="Segoe UI" font-size="14" lengthAdjust="spacing" textLength="39.5049" x="12" y="123.2891">Client</text></a></g><g class="participant participant-tail" data-participant="Client"><a href="/applications/" target="_top" title="/applications/" xlink:actuate="onRequest" xlink:href="/applications/" xlink:show="new" xlink:title="/applications/" xlink:type="simple"><rect fill="#E8F4F8" height="30.4883" rx="2.5" ry="2.5" style="stroke:#2E86AB;stroke-width:0.5;" width="53.5049" x="5" y="443.0371"/><text fill="#000000" font-family="Segoe UI" font-size="14" lengthAdjust="spacing" textLength="39.5049" x="12" y="463.5723">Client</text></a></g><g class="participant participant-head" data-participant="GW"><rect fill="#DBEAFE" height="30.4883" rx="2.5" ry="2.5" style="stroke:#2E86AB;stroke-width:0.5;" width="96.5781" x="90.2603" y="102.7539"/><text fill="#000000" font-family="Segoe UI" font-size="14" lengthAdjust="spacing" textLength="82.5781" x="97.2603" y="123.2891">API Gateway</text></g><g class="participant participant-tail" data-participant="GW"><rect fill="#DBEAFE" height="30.4883" rx="2.5" ry="2.5" style="stroke:#2E86AB;stroke-width:0.5;" width="96.5781" x="90.2603" y="443.0371"/><text fill="#000000" font-family="Segoe UI" font-size="14" lengthAdjust="spacing" textLength="82.5781" x="97.2603" y="463.5723">API Gateway</text></g><g class="participant participant-head" data-participant="Svc"><a href="/microservices/svc-trail-management/" target="_top" title="/microservices/svc-trail-management/" xlink:actuate="onRequest" xlink:href="/microservices/svc-trail-management/" xlink:show="new" xlink:title="/microservices/svc-trail-management/" xlink:type="simple"><rect fill="#E8F4F8" height="30.4883" rx="2.5" ry="2.5" style="stroke:#2E86AB;stroke-width:0.5;" width="167.0908" x="196.8384" y="102.7539"/><text fill="#000000" font-family="Segoe UI" font-size="14" lengthAdjust="spacing" textLength="153.0908" x="203.8384" y="123.2891">svc-trail-management</text></a></g><g class="participant participant-tail" data-participant="Svc"><a href="/microservices/svc-trail-management/" target="_top" title="/microservices/svc-trail-management/" xlink:actuate="onRequest" xlink:href="/microservices/svc-trail-management/" xlink:show="new" xlink:title="/microservices/svc-trail-management/" xlink:type="simple"><rect fill="#E8F4F8" height="30.4883" rx="2.5" ry="2.5" style="stroke:#2E86AB;stroke-width:0.5;" width="167.0908" x="196.8384" y="443.0371"/><text fill="#000000" font-family="Segoe UI" font-size="14" lengthAdjust="spacing" textLength="153.0908" x="203.8384" y="463.5723">svc-trail-management</text></a></g><g class="participant participant-head" data-participant="DB"><text fill="#000000" font-family="Segoe UI" font-size="14" lengthAdjust="spacing" textLength="50.4014" x="377.2549" y="131.2891">PostGIS</text><path d="M387.4556,81.7539 C387.4556,71.7539 405.4556,71.7539 405.4556,71.7539 C405.4556,71.7539 423.4556,71.7539 423.4556,81.7539 L423.4556,107.7539 C423.4556,117.7539 405.4556,117.7539 405.4556,117.7539 C405.4556,117.7539 387.4556,117.7539 387.4556,107.7539 L387.4556,81.7539" fill="#FCE4EC" style="stroke:#181818;stroke-width:0.5;"/><path d="M387.4556,81.7539 C387.4556,91.7539 405.4556,91.7539 405.4556,91.7539 C405.4556,91.7539 423.4556,91.7539 423.4556,81.7539" fill="none" style="stroke:#181818;stroke-width:0.5;"/></g><g class="participant participant-tail" data-participant="DB"><text fill="#000000" font-family="Segoe UI" font-size="14" lengthAdjust="spacing" textLength="50.4014" x="377.2549" y="456.5723">PostGIS</text><path d="M387.4556,469.5254 C387.4556,459.5254 405.4556,459.5254 405.4556,459.5254 C405.4556,459.5254 423.4556,459.5254 423.4556,469.5254 L423.4556,495.5254 C423.4556,505.5254 405.4556,505.5254 405.4556,505.5254 C405.4556,505.5254 387.4556,505.5254 387.4556,495.5254 L387.4556,469.5254" fill="#FCE4EC" style="stroke:#181818;stroke-width:0.5;"/><path d="M387.4556,469.5254 C387.4556,479.5254 405.4556,479.5254 405.4556,479.5254 C405.4556,479.5254 423.4556,479.5254 423.4556,469.5254" fill="none" style="stroke:#181818;stroke-width:0.5;"/></g><g><title>API Gateway</title><rect fill="#059669" height="225.1738" style="stroke:#A23B72;stroke-width:1;" width="10" x="133.5493" y="200.8633"/></g><g><title>svc-trail-management</title><rect fill="#059669" height="166.5527" style="stroke:#A23B72;stroke-width:1;" width="10" x="275.3838" y="230.1738"/></g><g><title>PostGIS</title><rect fill="#FCE4EC" height="29.3105" style="stroke:#A23B72;stroke-width:1;" width="10" x="400.4556" y="338.1055"/></g><path d="M210,149.2422 L210,174.2422 L350,174.2422 L350,159.2422 L340,149.2422 L210,149.2422" fill="#FEFFDD" style="stroke:#181818;stroke-width:0.5;"/><path d="M340,149.2422 L340,159.2422 L350,159.2422 L340,149.2422" fill="#FEFFDD" style="stroke:#181818;stroke-width:0.5;"/><a href="/services/api/svc-trail-management.html#/Trails/createTrail" target="_top" title="/services/api/svc-trail-management.html#/Trails/createTrail" xlink:actuate="onRequest" xlink:href="/services/api/svc-trail-management.html#/Trails/createTrail" xlink:show="new" xlink:title="/services/api/svc-trail-management.html#/Trails/createTrail" xlink:type="simple"><text fill="#0000FF" font-family="Segoe UI" font-size="13" lengthAdjust="spacing" text-decoration="underline" textLength="119.4058" x="216" y="166.8105">View in Swagger UI</text></a><g class="message" data-participant-1="Client" data-participant-2="GW"><polygon fill="#059669" points="121.5493,196.8633,131.5493,200.8633,121.5493,204.8633,125.5493,200.8633" style="stroke:#059669;stroke-width:1;"/><line style="stroke:#059669;stroke-width:1;" x1="31.7524" x2="127.5493" y1="200.8633" y2="200.8633"/><text fill="#000000" font-family="Segoe UI" font-size="13" lengthAdjust="spacing" textLength="74.9404" x="38.7524" y="196.1211">POST /trails</text></g><g class="message" data-participant-1="GW" data-participant-2="Svc"><polygon fill="#059669" points="263.3838,226.1738,273.3838,230.1738,263.3838,234.1738,267.3838,230.1738" style="stroke:#059669;stroke-width:1;"/><line style="stroke:#059669;stroke-width:1;" x1="143.5493" x2="269.3838" y1="230.1738" y2="230.1738"/><text fill="#000000" font-family="Segoe UI" font-size="13" lengthAdjust="spacing" textLength="85.1348" x="150.5493" y="225.4316">route request</text></g><path d="M290,243.1738 L290,268.1738 L448,268.1738 L448,253.1738 L438,243.1738 L290,243.1738" fill="#FEFFDD" style="stroke:#181818;stroke-width:0.5;"/><path d="M438,243.1738 L438,253.1738 L448,253.1738 L438,243.1738" fill="#FEFFDD" style="stroke:#181818;stroke-width:0.5;"/><text fill="#000000" font-family="Segoe UI" font-size="13" lengthAdjust="spacing" textLength="137.5728" x="296" y="260.7422">Validate request body</text><rect fill="#EEEEEE" height="3" style="stroke:#EEEEEE;stroke-width:1;" width="453.5728" x="0" y="294.1396"/><line style="stroke:#000000;stroke-width:1;" x1="0" x2="453.5728" y1="294.1396" y2="294.1396"/><line style="stroke:#000000;stroke-width:1;" x1="0" x2="453.5728" y1="297.1396" y2="297.1396"/><rect fill="#EEEEEE" height="23.3105" style="stroke:#000000;stroke-width:2;" width="80.3711" x="186.6008" y="283.4844"/><text fill="#000000" font-family="Segoe UI" font-size="13" font-weight="bold" lengthAdjust="spacing" textLength="62.0864" x="192.6008" y="300.0527">Database</text><g class="message" data-participant-1="Svc" data-participant-2="DB"><polygon fill="#059669" points="388.4556,334.1055,398.4556,338.1055,388.4556,342.1055,392.4556,338.1055" style="stroke:#059669;stroke-width:1;"/><line style="stroke:#059669;stroke-width:1;" x1="285.3838" x2="394.4556" y1="338.1055" y2="338.1055"/><text fill="#000000" font-family="Segoe UI" font-size="13" lengthAdjust="spacing" textLength="96.0718" x="292.3838" y="333.3633">INSERT INTO ...</text></g><g class="message" data-participant-1="DB" data-participant-2="Svc"><polygon fill="#059669" points="296.3838,363.416,286.3838,367.416,296.3838,371.416,292.3838,367.416" style="stroke:#059669;stroke-width:1;"/><line style="stroke:#059669;stroke-width:1;stroke-dasharray:2,2;" x1="290.3838" x2="404.4556" y1="367.416" y2="367.416"/><text fill="#000000" font-family="Segoe UI" font-size="13" lengthAdjust="spacing" textLength="76.4575" x="302.3838" y="362.6738">Created row</text></g><g class="message" data-participant-1="Svc" data-participant-2="GW"><polygon fill="#059669" points="154.5493,392.7266,144.5493,396.7266,154.5493,400.7266,150.5493,396.7266" style="stroke:#059669;stroke-width:1;"/><line style="stroke:#059669;stroke-width:1;stroke-dasharray:2,2;" x1="148.5493" x2="279.3838" y1="396.7266" y2="396.7266"/><text fill="#000000" font-family="Segoe UI" font-size="13" lengthAdjust="spacing" textLength="77.7969" x="160.5493" y="391.9844">201 Created</text></g><g class="message" data-participant-1="GW" data-participant-2="Client"><polygon fill="#059669" points="42.7524,422.0371,32.7524,426.0371,42.7524,430.0371,38.7524,426.0371" style="stroke:#059669;stroke-width:1;"/><line style="stroke:#059669;stroke-width:1;stroke-dasharray:2,2;" x1="36.7524" x2="137.5493" y1="426.0371" y2="426.0371"/><text fill="#000000" font-family="Segoe UI" font-size="13" lengthAdjust="spacing" textLength="77.7969" x="48.7524" y="421.2949">201 Created</text></g><a href="/microservices/svc-trail-management/#integration-context" target="_top" title="/microservices/svc-trail-management/#integration-context" xlink:actuate="onRequest" xlink:href="/microservices/svc-trail-management/#integration-context" xlink:show="new" xlink:title="/microservices/svc-trail-management/#integration-context" xlink:type="simple"><text fill="#0000FF" font-family="Segoe UI" font-size="10" lengthAdjust="spacing" text-decoration="underline" textLength="220.5225" x="232.0503" y="14.668">&#11014; svc-trail-management Integration Context</text></a><!--SRC=[ZPFFRjf04CRl-nGZE8Fvam91eX866o552IeaEQGS1dingvXTkhj0eghNFasVga_IyMB0D5Gg75WyttmpyzknUHLoWnhNiC3eDT5gA-E1IfM6SXXaNsPE2hF2MEs5J629gU65ICoNk4rjgAIznpM7qfGdYiFZk5HCvz-sN4OSlZEWJrzhjSzBrJxTjbgtxl44jHMHsA2qlj8nrxca4NHQVV-3vE-cWqvu4tQSx4ui-PsG_CActsZwxOQB- -hj8XJMEs6jVWfzm16657VXUsKlNQDsUz4inAwWR0PjzeEn5KTAWvSNRoqYhGpNEn5nuvbTLB4QHLfPeyI4hxcqNbb8onEDLYXPYGWkVxFm-zTFkAQ6yLaCWuDuFcVC2fjoc3nCP-2v7FDL3ZH7om51yZsuXunjpbIXD4W5MPO03HoEMSUusQGYSWMCHzON6Vt964PakiTtbpPwXlBG3_gqGHUwQwsxXEak-ayiy_dfdcEqk4136pTHnex6KsSrz0dv8BW91en9kWzGEs9E1UY6gCJ97JVYQeNgogxJiZTpjBp8mN9_u4aGC25XkiSa8S_7CN7WCeQi36CvgyhdRFpk1NI6aHMxZ7f69bzuEf8scxmBj2yKrDbBOknPdGMFyiCmMYGh2sgPvprXAc8yfy92nU-CzNemFCBfzHZBn5IBq7HXV3yDlipeP_O0rMhrNAm0ZewLKs-7VOcfnpsBUK6U-nu7RjJgHsrHbv7FHYLPJkYVqj4p-mC0]--></g></svg>