<svg xmlns="http://www.w3.org/2000/svg" xmlns:xlink="http://www.w3.org/1999/xlink" contentStyleType="text/css" data-diagram-type="SEQUENCE" height="522px" preserveAspectRatio="none" style="width:583px;height:522px;background:#FEFEFE;" version="1.1" viewBox="0 0 583 522" width="583px" zoomAndPan="magnify"><title>POST /stock-adjustments</title><defs/><g><rect fill="#FEFEFE" height="522" style="stroke:none;stroke-width:1;" width="583" x="0" y="0"/><text fill="#000000" font-family="Segoe UI" font-size="14" font-weight="bold" lengthAdjust="spacing" textLength="187.5986" x="194.1091" y="41.3125">POST /stock-adjustments</text><text fill="#000000" font-family="Segoe UI" font-size="14" font-weight="bold" lengthAdjust="spacing" textLength="192.4111" x="191.7029" y="57.8008">Record a stock adjustment</text><g><title>API Gateway</title><rect fill="#059669" height="225.1738" style="stroke:#A23B72;stroke-width:1;" width="10" x="213.2524" y="200.8633"/></g><g><title>svc-inventory-procurement</title><rect fill="#059669" height="166.5527" style="stroke:#A23B72;stroke-width:1;" width="10" x="372.7544" y="230.1738"/></g><g><title>PostgreSQL</title><rect fill="#FCE4EC" height="29.3105" style="stroke:#A23B72;stroke-width:1;" width="10" x="525.3921" y="338.1055"/></g><g><title>Client</title><rect fill="#000000" fill-opacity="0.00000" height="309.7949" width="8" x="27.7524" y="134.2422"/><line style="stroke:#A23B72;stroke-width:0.5;stroke-dasharray:5,5;" x1="31" x2="31" y1="134.2422" y2="444.0371"/></g><g><title>API Gateway</title><rect fill="#000000" fill-opacity="0.00000" height="309.7949" width="8" x="214.2524" y="134.2422"/><line style="stroke:#A23B72;stroke-width:0.5;stroke-dasharray:5,5;" x1="217.9634" x2="217.9634" y1="134.2422" y2="444.0371"/></g><g><title>svc-inventory-procurement</title><rect fill="#000000" fill-opacity="0.00000" height="309.7949" width="8" x="373.7544" y="134.2422"/><line style="stroke:#A23B72;stroke-width:0.5;stroke-dasharray:5,5;" x1="377.5415" x2="377.5415" y1="134.2422" y2="444.0371"/></g><g><title>PostgreSQL</title><rect fill="#000000" fill-opacity="0.00000" height="309.7949" width="8" x="526.3921" y="134.2422"/><line style="stroke:#A23B72;stroke-width:0.5;stroke-dasharray:5,5;" x1="529.9673" x2="529.9673" y1="134.2422" y2="444.0371"/></g><g class="participant participant-head" data-participant="Client"><rect fill="#E8F4F8" height="30.4883" rx="2.5" ry="2.5" style="stroke:#2E86AB;stroke-width:0.5;" width="53.5049" x="5" y="102.7539"/><text fill="#000000" font-family="Segoe UI" font-size="14" lengthAdjust="spacing" textLength="39.5049" x="12" y="123.2891">Client</text></g><g class="participant participant-tail" data-participant="Client"><rect fill="#E8F4F8" height="30.4883" rx="2.5" ry="2.5" style="stroke:#2E86AB;stroke-width:0.5;" width="53.5049" x="5" y="443.0371"/><text fill="#000000" font-family="Segoe UI" font-size="14" lengthAdjust="spacing" textLength="39.5049" x="12" y="463.5723">Client</text></g><g class="participant participant-head" data-participant="GW"><rect fill="#DBEAFE" height="30.4883" rx="2.5" ry="2.5" style="stroke:#2E86AB;stroke-width:0.5;" width="96.5781" x="169.9634" y="102.7539"/><text fill="#000000" font-family="Segoe UI" font-size="14" lengthAdjust="spacing" textLength="82.5781" x="176.9634" y="123.2891">API Gateway</text></g><g class="participant participant-tail" data-participant="GW"><rect fill="#DBEAFE" height="30.4883" rx="2.5" ry="2.5" style="stroke:#2E86AB;stroke-width:0.5;" width="96.5781" x="169.9634" y="443.0371"/><text fill="#000000" font-family="Segoe UI" font-size="14" lengthAdjust="spacing" textLength="82.5781" x="176.9634" y="463.5723">API Gateway</text></g><g class="participant participant-head" data-participant="Svc"><a href="/microservices/svc-inventory-procurement/" target="_top" title="/microservices/svc-inventory-procurement/" xlink:actuate="onRequest" xlink:href="/microservices/svc-inventory-procurement/" xlink:show="new" xlink:title="/microservices/svc-inventory-procurement/" xlink:type="simple"><rect fill="#E8F4F8" height="30.4883" rx="2.5" ry="2.5" style="stroke:#2E86AB;stroke-width:0.5;" width="202.4258" x="276.5415" y="102.7539"/><text fill="#000000" font-family="Segoe UI" font-size="14" lengthAdjust="spacing" textLength="188.4258" x="283.5415" y="123.2891">svc-inventory-procurement</text></a></g><g class="participant participant-tail" data-participant="Svc"><a href="/microservices/svc-inventory-procurement/" target="_top" title="/microservices/svc-inventory-procurement/" xlink:actuate="onRequest" xlink:href="/microservices/svc-inventory-procurement/" xlink:show="new" xlink:title="/microservices/svc-inventory-procurement/" xlink:type="simple"><rect fill="#E8F4F8" height="30.4883" rx="2.5" ry="2.5" style="stroke:#2E86AB;stroke-width:0.5;" width="202.4258" x="276.5415" y="443.0371"/><text fill="#000000" font-family="Segoe UI" font-size="14" lengthAdjust="spacing" textLength="188.4258" x="283.5415" y="463.5723">svc-inventory-procurement</text></a></g><g class="participant participant-head" data-participant="DB"><text fill="#000000" font-family="Segoe UI" font-size="14" lengthAdjust="spacing" textLength="76.8496" x="488.9673" y="131.2891">PostgreSQL</text><path d="M512.3921,81.7539 C512.3921,71.7539 530.3921,71.7539 530.3921,71.7539 C530.3921,71.7539 548.3921,71.7539 548.3921,81.7539 L548.3921,107.7539 C548.3921,117.7539 530.3921,117.7539 530.3921,117.7539 C530.3921,117.7539 512.3921,117.7539 512.3921,107.7539 L512.3921,81.7539" fill="#FCE4EC" style="stroke:#181818;stroke-width:0.5;"/><path d="M512.3921,81.7539 C512.3921,91.7539 530.3921,91.7539 530.3921,91.7539 C530.3921,91.7539 548.3921,91.7539 548.3921,81.7539" fill="none" style="stroke:#181818;stroke-width:0.5;"/></g><g class="participant participant-tail" data-participant="DB"><text fill="#000000" font-family="Segoe UI" font-size="14" lengthAdjust="spacing" textLength="76.8496" x="488.9673" y="456.5723">PostgreSQL</text><path d="M512.3921,469.5254 C512.3921,459.5254 530.3921,459.5254 530.3921,459.5254 C530.3921,459.5254 548.3921,459.5254 548.3921,469.5254 L548.3921,495.5254 C548.3921,505.5254 530.3921,505.5254 530.3921,505.5254 C530.3921,505.5254 512.3921,505.5254 512.3921,495.5254 L512.3921,469.5254" fill="#FCE4EC" style="stroke:#181818;stroke-width:0.5;"/><path d="M512.3921,469.5254 C512.3921,479.5254 530.3921,479.5254 530.3921,479.5254 C530.3921,479.5254 548.3921,479.5254 548.3921,469.5254" fill="none" style="stroke:#181818;stroke-width:0.5;"/></g><g><title>API Gateway</title><rect fill="#059669" height="225.1738" style="stroke:#A23B72;stroke-width:1;" width="10" x="213.2524" y="200.8633"/></g><g><title>svc-inventory-procurement</title><rect fill="#059669" height="166.5527" style="stroke:#A23B72;stroke-width:1;" width="10" x="372.7544" y="230.1738"/></g><g><title>PostgreSQL</title><rect fill="#FCE4EC" height="29.3105" style="stroke:#A23B72;stroke-width:1;" width="10" x="525.3921" y="338.1055"/></g><path d="M307,149.2422 L307,174.2422 L447,174.2422 L447,159.2422 L437,149.2422 L307,149.2422" fill="#FEFFDD" style="stroke:#181818;stroke-width:0.5;"/><path d="M437,149.2422 L437,159.2422 L447,159.2422 L437,149.2422" fill="#FEFFDD" style="stroke:#181818;stroke-width:0.5;"/><a href="/services/api/svc-inventory-procurement.html" target="_top" title="/services/api/svc-inventory-procurement.html" xlink:actuate="onRequest" xlink:href="/services/api/svc-inventory-procurement.html" xlink:show="new" xlink:title="/services/api/svc-inventory-procurement.html" xlink:type="simple"><text fill="#0000FF" font-family="Segoe UI" font-size="13" lengthAdjust="spacing" text-decoration="underline" textLength="119.4058" x="313" y="166.8105">View in Swagger UI</text></a><g class="message" data-participant-1="Client" data-participant-2="GW"><polygon fill="#059669" points="201.2524,196.8633,211.2524,200.8633,201.2524,204.8633,205.2524,200.8633" style="stroke:#059669;stroke-width:1;"/><line style="stroke:#059669;stroke-width:1;" x1="31.7524" x2="207.2524" y1="200.8633" y2="200.8633"/><text fill="#000000" font-family="Segoe UI" font-size="13" lengthAdjust="spacing" textLength="162.5" x="38.7524" y="196.1211">POST /stock-adjustments</text></g><g class="message" data-participant-1="GW" data-participant-2="Svc"><polygon fill="#059669" points="360.7544,226.1738,370.7544,230.1738,360.7544,234.1738,364.7544,230.1738" style="stroke:#059669;stroke-width:1;"/><line style="stroke:#059669;stroke-width:1;" x1="223.2524" x2="366.7544" y1="230.1738" y2="230.1738"/><text fill="#000000" font-family="Segoe UI" font-size="13" lengthAdjust="spacing" textLength="85.1348" x="230.2524" y="225.4316">route request</text></g><path d="M387,243.1738 L387,268.1738 L545,268.1738 L545,253.1738 L535,243.1738 L387,243.1738" fill="#FEFFDD" style="stroke:#181818;stroke-width:0.5;"/><path d="M535,243.1738 L535,253.1738 L545,253.1738 L535,243.1738" fill="#FEFFDD" style="stroke:#181818;stroke-width:0.5;"/><text fill="#000000" font-family="Segoe UI" font-size="13" lengthAdjust="spacing" textLength="137.5728" x="393" y="260.7422">Validate request body</text><rect fill="#EEEEEE" height="3" style="stroke:#EEEEEE;stroke-width:1;" width="576.8169" x="0" y="294.1396"/><line style="stroke:#000000;stroke-width:1;" x1="0" x2="576.8169" y1="294.1396" y2="294.1396"/><line style="stroke:#000000;stroke-width:1;" x1="0" x2="576.8169" y1="297.1396" y2="297.1396"/><rect fill="#EEEEEE" height="23.3105" style="stroke:#000000;stroke-width:2;" width="80.3711" x="248.2229" y="283.4844"/><text fill="#000000" font-family="Segoe UI" font-size="13" font-weight="bold" lengthAdjust="spacing" textLength="62.0864" x="254.2229" y="300.0527">Database</text><g class="message" data-participant-1="Svc" data-participant-2="DB"><polygon fill="#059669" points="513.3921,334.1055,523.3921,338.1055,513.3921,342.1055,517.3921,338.1055" style="stroke:#059669;stroke-width:1;"/><line style="stroke:#059669;stroke-width:1;" x1="382.7544" x2="519.3921" y1="338.1055" y2="338.1055"/><text fill="#000000" font-family="Segoe UI" font-size="13" lengthAdjust="spacing" textLength="96.0718" x="389.7544" y="333.3633">INSERT INTO ...</text></g><g class="message" data-participant-1="DB" data-participant-2="Svc"><polygon fill="#059669" points="393.7544,363.416,383.7544,367.416,393.7544,371.416,389.7544,367.416" style="stroke:#059669;stroke-width:1;"/><line style="stroke:#059669;stroke-width:1;stroke-dasharray:2,2;" x1="387.7544" x2="529.3921" y1="367.416" y2="367.416"/><text fill="#000000" font-family="Segoe UI" font-size="13" lengthAdjust="spacing" textLength="76.4575" x="399.7544" y="362.6738">Created row</text></g><g class="message" data-participant-1="Svc" data-participant-2="GW"><polygon fill="#059669" points="234.2524,392.7266,224.2524,396.7266,234.2524,400.7266,230.2524,396.7266" style="stroke:#059669;stroke-width:1;"/><line style="stroke:#059669;stroke-width:1;stroke-dasharray:2,2;" x1="228.2524" x2="376.7544" y1="396.7266" y2="396.7266"/><text fill="#000000" font-family="Segoe UI" font-size="13" lengthAdjust="spacing" textLength="77.7969" x="240.2524" y="391.9844">201 Created</text></g><g class="message" data-participant-1="GW" data-participant-2="Client"><polygon fill="#059669" points="42.7524,422.0371,32.7524,426.0371,42.7524,430.0371,38.7524,426.0371" style="stroke:#059669;stroke-width:1;"/><line style="stroke:#059669;stroke-width:1;stroke-dasharray:2,2;" x1="36.7524" x2="217.2524" y1="426.0371" y2="426.0371"/><text fill="#000000" font-family="Segoe UI" font-size="13" lengthAdjust="spacing" textLength="77.7969" x="48.7524" y="421.2949">201 Created</text></g><a href="/microservices/svc-inventory-procurement/#integration-context" target="_top" title="/microservices/svc-inventory-procurement/#integration-context" xlink:actuate="onRequest" xlink:href="/microservices/svc-inventory-procurement/#integration-context" xlink:show="new" xlink:title="/microservices/svc-inventory-procurement/#integration-context" xlink:type="simple"><text fill="#0000FF" font-family="Segoe UI" font-size="10" lengthAdjust="spacing" text-decoration="underline" textLength="245.7617" x="330.0552" y="14.668">&#11014; svc-inventory-procurement Integration Context</text></a><!--SRC=[bLFBSjem5DthA-x0cdSAX1awmyDcc6482IHPf2o4V34gHgAIm64wtVPh-bNzabwRTrCMjHUMTSwvZtCbkvHgpGrVmOoBPMZqHWKT7Ma3MTzBNcPF3BlWWOwb2c7E8uiNI81plecShvKRyXL2PeoXHdZkPoxb-6s3IY1yPq1FonWT7r8LFzrNg_VfzeWR9uLSS-NQsWHe3fIoLw-ssXyeVnVjrVqxlvxI1dAE0wdmAaohN6dNoYdUrkzNa5-g-yNI2VfWX-yJdi93xQwZYbfjLhd0_c5bnQkn7umja9CCtjuAAocCjcYsKg0jsAt8IRL5vRJPvTP6Yut15VqMib8v30rtKgkS88VntS7lNp_XfWJwPmLqzehfb34dNOGmUXXFe62T5iiS3xvkh4iqzejwGa4z0OSKWpF6sFhiE6GwaQJD370B- -Krt1hreSSTndoNSdglaEsslHOTfIlUpV9JrNWh_iUawVGq-e0xFkEM3k58MnSQ73yEqf3TDWsYuzrv7SOKJGdqbYP1YMXkbEgKXQ_bxKpvXLj5y28n1gbW7FCmf23FVV8NLG19NCRsja3kSz9yuvRZZ0idj-HKQj7X2j2IP4dt3Q0JHA19herrPtO27kdxHemC5mxq_A1xuP4C-5aACnti66iseNlqfjbaB25JBhAb0VtXs7kQq6Vo0Fby_fpimZHQvawrTGmI752DCGlmWdw8U-ozN2mTkPUynFMaLQ8TpBf9xRsoFm00]--></g></svg>