<svg xmlns="http://www.w3.org/2000/svg" xmlns:xlink="http://www.w3.org/1999/xlink" contentStyleType="text/css" data-diagram-type="SEQUENCE" height="487px" preserveAspectRatio="none" style="width:637px;height:487px;background:#FEFEFE;" version="1.1" viewBox="0 0 637 487" width="637px" zoomAndPan="magnify"><title>GET /trips/{trip_id}/schedule</title><defs/><g><rect fill="#FEFEFE" height="487" style="stroke:none;stroke-width:1;" width="637" x="0" y="0"/><text fill="#000000" font-family="Segoe UI" font-size="14" font-weight="bold" lengthAdjust="spacing" textLength="211.7158" x="209.1223" y="41.3125">GET /trips/{trip_id}/schedule</text><text fill="#000000" font-family="Segoe UI" font-size="14" font-weight="bold" lengthAdjust="spacing" textLength="185.5137" x="222.2234" y="57.8008">Get scheduled departures</text><g><title>API Gateway</title><rect fill="#2563EB" height="189.8633" style="stroke:#A23B72;stroke-width:1;" width="10" x="233.5903" y="200.8633"/></g><g><title>svc-trip-catalog</title><rect fill="#2563EB" height="131.2422" style="stroke:#A23B72;stroke-width:1;" width="10" x="354.2915" y="230.1738"/></g><g><title>PostgreSQL</title><rect fill="#FCE4EC" height="29.3105" style="stroke:#A23B72;stroke-width:1;" width="10" x="579.5356" y="302.7949"/></g><g><title>Client</title><rect fill="#000000" fill-opacity="0.00000" height="274.4844" width="8" x="27.7524" y="134.2422"/><line style="stroke:#A23B72;stroke-width:0.5;stroke-dasharray:5,5;" x1="31" x2="31" y1="134.2422" y2="408.7266"/></g><g><title>API Gateway</title><rect fill="#000000" fill-opacity="0.00000" height="274.4844" width="8" x="234.5903" y="134.2422"/><line style="stroke:#A23B72;stroke-width:0.5;stroke-dasharray:5,5;" x1="238.3013" x2="238.3013" y1="134.2422" y2="408.7266"/></g><g><title>svc-trip-catalog</title><rect fill="#000000" fill-opacity="0.00000" height="274.4844" width="8" x="355.2915" y="134.2422"/><line style="stroke:#A23B72;stroke-width:0.5;stroke-dasharray:5,5;" x1="358.8794" x2="358.8794" y1="134.2422" y2="408.7266"/></g><g><title>PostgreSQL</title><rect fill="#000000" fill-opacity="0.00000" height="274.4844" width="8" x="580.5356" y="134.2422"/><line style="stroke:#A23B72;stroke-width:0.5;stroke-dasharray:5,5;" x1="584.1108" x2="584.1108" y1="134.2422" y2="408.7266"/></g><g class="participant participant-head" data-participant="Client"><rect fill="#E8F4F8" height="30.4883" rx="2.5" ry="2.5" style="stroke:#2E86AB;stroke-width:0.5;" width="53.5049" x="5" y="102.7539"/><text fill="#000000" font-family="Segoe UI" font-size="14" lengthAdjust="spacing" textLength="39.5049" x="12" y="123.2891">Client</text></g><g class="participant participant-tail" data-participant="Client"><rect fill="#E8F4F8" height="30.4883" rx="2.5" ry="2.5" style="stroke:#2E86AB;stroke-width:0.5;" width="53.5049" x="5" y="407.7266"/><text fill="#000000" font-family="Segoe UI" font-size="14" lengthAdjust="spacing" textLength="39.5049" x="12" y="428.2617">Client</text></g><g class="participant participant-head" data-participant="GW"><rect fill="#DBEAFE" height="30.4883" rx="2.5" ry="2.5" style="stroke:#2E86AB;stroke-width:0.5;" width="96.5781" x="190.3013" y="102.7539"/><text fill="#000000" font-family="Segoe UI" font-size="14" lengthAdjust="spacing" textLength="82.5781" x="197.3013" y="123.2891">API Gateway</text></g><g class="participant participant-tail" data-participant="GW"><rect fill="#DBEAFE" height="30.4883" rx="2.5" ry="2.5" style="stroke:#2E86AB;stroke-width:0.5;" width="96.5781" x="190.3013" y="407.7266"/><text fill="#000000" font-family="Segoe UI" font-size="14" lengthAdjust="spacing" textLength="82.5781" x="197.3013" y="428.2617">API Gateway</text></g><g class="participant participant-head" data-participant="Svc"><a href="/microservices/svc-trip-catalog/" target="_top" title="/microservices/svc-trip-catalog/" xlink:actuate="onRequest" xlink:href="/microservices/svc-trip-catalog/" xlink:show="new" xlink:title="/microservices/svc-trip-catalog/" xlink:type="simple"><rect fill="#E8F4F8" height="30.4883" rx="2.5" ry="2.5" style="stroke:#2E86AB;stroke-width:0.5;" width="124.8242" x="296.8794" y="102.7539"/><text fill="#000000" font-family="Segoe UI" font-size="14" lengthAdjust="spacing" textLength="110.8242" x="303.8794" y="123.2891">svc-trip-catalog</text></a></g><g class="participant participant-tail" data-participant="Svc"><a href="/microservices/svc-trip-catalog/" target="_top" title="/microservices/svc-trip-catalog/" xlink:actuate="onRequest" xlink:href="/microservices/svc-trip-catalog/" xlink:show="new" xlink:title="/microservices/svc-trip-catalog/" xlink:type="simple"><rect fill="#E8F4F8" height="30.4883" rx="2.5" ry="2.5" style="stroke:#2E86AB;stroke-width:0.5;" width="124.8242" x="296.8794" y="407.7266"/><text fill="#000000" font-family="Segoe UI" font-size="14" lengthAdjust="spacing" textLength="110.8242" x="303.8794" y="428.2617">svc-trip-catalog</text></a></g><g class="participant participant-head" data-participant="DB"><text fill="#000000" font-family="Segoe UI" font-size="14" lengthAdjust="spacing" textLength="76.8496" x="543.1108" y="131.2891">PostgreSQL</text><path d="M566.5356,81.7539 C566.5356,71.7539 584.5356,71.7539 584.5356,71.7539 C584.5356,71.7539 602.5356,71.7539 602.5356,81.7539 L602.5356,107.7539 C602.5356,117.7539 584.5356,117.7539 584.5356,117.7539 C584.5356,117.7539 566.5356,117.7539 566.5356,107.7539 L566.5356,81.7539" fill="#FCE4EC" style="stroke:#181818;stroke-width:0.5;"/><path d="M566.5356,81.7539 C566.5356,91.7539 584.5356,91.7539 584.5356,91.7539 C584.5356,91.7539 602.5356,91.7539 602.5356,81.7539" fill="none" style="stroke:#181818;stroke-width:0.5;"/></g><g class="participant participant-tail" data-participant="DB"><text fill="#000000" font-family="Segoe UI" font-size="14" lengthAdjust="spacing" textLength="76.8496" x="543.1108" y="421.2617">PostgreSQL</text><path d="M566.5356,434.2148 C566.5356,424.2148 584.5356,424.2148 584.5356,424.2148 C584.5356,424.2148 602.5356,424.2148 602.5356,434.2148 L602.5356,460.2148 C602.5356,470.2148 584.5356,470.2148 584.5356,470.2148 C584.5356,470.2148 566.5356,470.2148 566.5356,460.2148 L566.5356,434.2148" fill="#FCE4EC" style="stroke:#181818;stroke-width:0.5;"/><path d="M566.5356,434.2148 C566.5356,444.2148 584.5356,444.2148 584.5356,444.2148 C584.5356,444.2148 602.5356,444.2148 602.5356,434.2148" fill="none" style="stroke:#181818;stroke-width:0.5;"/></g><g><title>API Gateway</title><rect fill="#2563EB" height="189.8633" style="stroke:#A23B72;stroke-width:1;" width="10" x="233.5903" y="200.8633"/></g><g><title>svc-trip-catalog</title><rect fill="#2563EB" height="131.2422" style="stroke:#A23B72;stroke-width:1;" width="10" x="354.2915" y="230.1738"/></g><g><title>PostgreSQL</title><rect fill="#FCE4EC" height="29.3105" style="stroke:#A23B72;stroke-width:1;" width="10" x="579.5356" y="302.7949"/></g><path d="M289,149.2422 L289,174.2422 L429,174.2422 L429,159.2422 L419,149.2422 L289,149.2422" fill="#FEFFDD" style="stroke:#181818;stroke-width:0.5;"/><path d="M419,149.2422 L419,159.2422 L429,159.2422 L419,149.2422" fill="#FEFFDD" style="stroke:#181818;stroke-width:0.5;"/><a href="/services/api/svc-trip-catalog.html#/Schedule/getTripSchedule" target="_top" title="/services/api/svc-trip-catalog.html#/Schedule/getTripSchedule" xlink:actuate="onRequest" xlink:href="/services/api/svc-trip-catalog.html#/Schedule/getTripSchedule" xlink:show="new" xlink:title="/services/api/svc-trip-catalog.html#/Schedule/getTripSchedule" xlink:type="simple"><text fill="#0000FF" font-family="Segoe UI" font-size="13" lengthAdjust="spacing" text-decoration="underline" textLength="119.4058" x="295" y="166.8105">View in Swagger UI</text></a><g class="message" data-participant-1="Client" data-participant-2="GW"><polygon fill="#2563EB" points="221.5903,196.8633,231.5903,200.8633,221.5903,204.8633,225.5903,200.8633" style="stroke:#2563EB;stroke-width:1;"/><line style="stroke:#2563EB;stroke-width:1;" x1="31.7524" x2="227.5903" y1="200.8633" y2="200.8633"/><text fill="#000000" font-family="Segoe UI" font-size="13" lengthAdjust="spacing" textLength="182.8379" x="38.7524" y="196.1211">GET /trips/{trip_id}/schedule</text></g><g class="message" data-participant-1="GW" data-participant-2="Svc"><polygon fill="#2563EB" points="342.2915,226.1738,352.2915,230.1738,342.2915,234.1738,346.2915,230.1738" style="stroke:#2563EB;stroke-width:1;"/><line style="stroke:#2563EB;stroke-width:1;" x1="243.5903" x2="348.2915" y1="230.1738" y2="230.1738"/><text fill="#000000" font-family="Segoe UI" font-size="13" lengthAdjust="spacing" textLength="85.1348" x="250.5903" y="225.4316">route request</text></g><rect fill="#EEEEEE" height="3" style="stroke:#EEEEEE;stroke-width:1;" width="630.9604" x="0" y="258.8291"/><line style="stroke:#000000;stroke-width:1;" x1="0" x2="630.9604" y1="258.8291" y2="258.8291"/><line style="stroke:#000000;stroke-width:1;" x1="0" x2="630.9604" y1="261.8291" y2="261.8291"/><rect fill="#EEEEEE" height="23.3105" style="stroke:#000000;stroke-width:2;" width="80.3711" x="275.2947" y="248.1738"/><text fill="#000000" font-family="Segoe UI" font-size="13" font-weight="bold" lengthAdjust="spacing" textLength="62.0864" x="281.2947" y="264.7422">Database</text><g class="message" data-participant-1="Svc" data-participant-2="DB"><polygon fill="#2563EB" points="567.5356,298.7949,577.5356,302.7949,567.5356,306.7949,571.5356,302.7949" style="stroke:#2563EB;stroke-width:1;"/><line style="stroke:#2563EB;stroke-width:1;" x1="364.2915" x2="573.5356" y1="302.7949" y2="302.7949"/><text fill="#000000" font-family="Segoe UI" font-size="13" lengthAdjust="spacing" textLength="196.2441" x="371.2915" y="298.0527">SELECT ... WHERE parent_id = ?</text></g><g class="message" data-participant-1="DB" data-participant-2="Svc"><polygon fill="#2563EB" points="375.2915,328.1055,365.2915,332.1055,375.2915,336.1055,371.2915,332.1055" style="stroke:#2563EB;stroke-width:1;"/><line style="stroke:#2563EB;stroke-width:1;stroke-dasharray:2,2;" x1="369.2915" x2="583.5356" y1="332.1055" y2="332.1055"/><text fill="#000000" font-family="Segoe UI" font-size="13" lengthAdjust="spacing" textLength="57.8843" x="381.2915" y="327.3633">ResultSet</text></g><g class="message" data-participant-1="Svc" data-participant-2="GW"><polygon fill="#2563EB" points="254.5903,357.416,244.5903,361.416,254.5903,365.416,250.5903,361.416" style="stroke:#2563EB;stroke-width:1;"/><line style="stroke:#2563EB;stroke-width:1;stroke-dasharray:2,2;" x1="248.5903" x2="358.2915" y1="361.416" y2="361.416"/><text fill="#000000" font-family="Segoe UI" font-size="13" lengthAdjust="spacing" textLength="47.3599" x="260.5903" y="356.6738">200 OK</text></g><g class="message" data-participant-1="GW" data-participant-2="Client"><polygon fill="#2563EB" points="42.7524,386.7266,32.7524,390.7266,42.7524,394.7266,38.7524,390.7266" style="stroke:#2563EB;stroke-width:1;"/><line style="stroke:#2563EB;stroke-width:1;stroke-dasharray:2,2;" x1="36.7524" x2="237.5903" y1="390.7266" y2="390.7266"/><text fill="#000000" font-family="Segoe UI" font-size="13" lengthAdjust="spacing" textLength="47.3599" x="48.7524" y="385.9844">200 OK</text></g><a href="/microservices/svc-trip-catalog/#integration-context" target="_top" title="/microservices/svc-trip-catalog/#integration-context" xlink:actuate="onRequest" xlink:href="/microservices/svc-trip-catalog/#integration-context" xlink:show="new" xlink:title="/microservices/svc-trip-catalog/#integration-context" xlink:type="simple"><text fill="#0000FF" font-family="Segoe UI" font-size="10" lengthAdjust="spacing" text-decoration="underline" textLength="190.332" x="439.6284" y="14.668">&#11014; svc-trip-catalog Integration Context</text></a><!--SRC=[ZPFHRjem58Rl_HH7S0sXq1M4n2O82KD37MlekEZGP9BJO3NOp3RGgUhjdcPFjIVPII0Ge9gMNCJE__kSu-_Ovad85TTy2NCUFiLQhMNagaHfAFjU-Z9pS9W5ZzHMo1WUUMAme4JuoDU9zPMqjto9K0emLWZtmr9nEVvOemmHNXZGqzLQRVUfwkzk6ZZFVe-vjY8KAovjJ-a8TMxnMZVTteNbl6YlvL_xhSms4eyu4X9FmdJhZLwpdkazzNmY-LSjltPra2vm-3xfcNohx6dKiDcSDmhQ6oWRNfEzChP0JilWuS5PYb0hWteZGZIEsOGLgyMg4dBB4nKxPI4jnffReMGb9B3uRE7FxrzmxeJXqGZkpZYRCMQ5JH06tWISr6wSb_JpNKIlZWaN6AqJ_2O7Q26VHTH6wfHTQpIChOwGeUGc0gKj0JUm6vxAtV4G1jpYbl_CF8CfbFizhqkdvyHtNdfc3ZRXV-2OpGwzZUZNd1iwPMDbRAmn-3BA8lLxHDhrhZsNCKbj0BKXr1IV6aCP3i7vIbmag2xiCYaxmPw54wETa9pFuQl0BGW9mPR7CKMz7n9Zb16aYHZRKO7A-tJlxNzJPpoqOaEuCaxxeqz3MfooQ0ET719rUbsCFRfJCRUpJWVwEOTEXx5Kf024e0s1D_BS2LIhLPX-zEuye2PGTLG4TE33CM215mqhX_ntQEWo1sXPX0NpFac-ntgj1fy_5IqfwNGVvDZpUCircBA_]--></g></svg>