<svg xmlns="http://www.w3.org/2000/svg" xmlns:xlink="http://www.w3.org/1999/xlink" contentStyleType="text/css" data-diagram-type="SEQUENCE" height="487px" preserveAspectRatio="none" style="width:666px;height:487px;background:#FEFEFE;" version="1.1" viewBox="0 0 666 487" width="666px" zoomAndPan="magnify"><title>GET /trips/{trip_id}/requirements</title><defs/><g><rect fill="#FEFEFE" height="487" style="stroke:none;stroke-width:1;" width="666" x="0" y="0"/><text fill="#000000" font-family="Segoe UI" font-size="14" font-weight="bold" lengthAdjust="spacing" textLength="244.4463" x="206.8679" y="41.3125">GET /trips/{trip_id}/requirements</text><text fill="#000000" font-family="Segoe UI" font-size="14" font-weight="bold" lengthAdjust="spacing" textLength="156.1328" x="251.0247" y="57.8008">Get trip requirements</text><g><title>API Gateway</title><rect fill="#2563EB" height="189.8633" style="stroke:#A23B72;stroke-width:1;" width="10" x="261.812" y="200.8633"/></g><g><title>svc-trip-catalog</title><rect fill="#2563EB" height="131.2422" style="stroke:#A23B72;stroke-width:1;" width="10" x="382.5132" y="230.1738"/></g><g><title>PostgreSQL</title><rect fill="#FCE4EC" height="29.3105" style="stroke:#A23B72;stroke-width:1;" width="10" x="607.7573" y="302.7949"/></g><g><title>Client</title><rect fill="#000000" fill-opacity="0.00000" height="274.4844" width="8" x="27.7524" y="134.2422"/><line style="stroke:#A23B72;stroke-width:0.5;stroke-dasharray:5,5;" x1="31" x2="31" y1="134.2422" y2="408.7266"/></g><g><title>API Gateway</title><rect fill="#000000" fill-opacity="0.00000" height="274.4844" width="8" x="262.812" y="134.2422"/><line style="stroke:#A23B72;stroke-width:0.5;stroke-dasharray:5,5;" x1="266.5229" x2="266.5229" y1="134.2422" y2="408.7266"/></g><g><title>svc-trip-catalog</title><rect fill="#000000" fill-opacity="0.00000" height="274.4844" width="8" x="383.5132" y="134.2422"/><line style="stroke:#A23B72;stroke-width:0.5;stroke-dasharray:5,5;" x1="387.1011" x2="387.1011" y1="134.2422" y2="408.7266"/></g><g><title>PostgreSQL</title><rect fill="#000000" fill-opacity="0.00000" height="274.4844" width="8" x="608.7573" y="134.2422"/><line style="stroke:#A23B72;stroke-width:0.5;stroke-dasharray:5,5;" x1="612.3325" x2="612.3325" y1="134.2422" y2="408.7266"/></g><g class="participant participant-head" data-participant="Client"><a href="/applications/" target="_top" title="/applications/" xlink:actuate="onRequest" xlink:href="/applications/" xlink:show="new" xlink:title="/applications/" xlink:type="simple"><rect fill="#E8F4F8" height="30.4883" rx="2.5" ry="2.5" style="stroke:#2E86AB;stroke-width:0.5;" width="53.5049" x="5" y="102.7539"/><text fill="#000000" font-family="Segoe UI" font-size="14" lengthAdjust="spacing" textLength="39.5049" x="12" y="123.2891">Client</text></a></g><g class="participant participant-tail" data-participant="Client"><a href="/applications/" target="_top" title="/applications/" xlink:actuate="onRequest" xlink:href="/applications/" xlink:show="new" xlink:title="/applications/" xlink:type="simple"><rect fill="#E8F4F8" height="30.4883" rx="2.5" ry="2.5" style="stroke:#2E86AB;stroke-width:0.5;" width="53.5049" x="5" y="407.7266"/><text fill="#000000" font-family="Segoe UI" font-size="14" lengthAdjust="spacing" textLength="39.5049" x="12" y="428.2617">Client</text></a></g><g class="participant participant-head" data-participant="GW"><rect fill="#DBEAFE" height="30.4883" rx="2.5" ry="2.5" style="stroke:#2E86AB;stroke-width:0.5;" width="96.5781" x="218.5229" y="102.7539"/><text fill="#000000" font-family="Segoe UI" font-size="14" lengthAdjust="spacing" textLength="82.5781" x="225.5229" y="123.2891">API Gateway</text></g><g class="participant participant-tail" data-participant="GW"><rect fill="#DBEAFE" height="30.4883" rx="2.5" ry="2.5" style="stroke:#2E86AB;stroke-width:0.5;" width="96.5781" x="218.5229" y="407.7266"/><text fill="#000000" font-family="Segoe UI" font-size="14" lengthAdjust="spacing" textLength="82.5781" x="225.5229" y="428.2617">API Gateway</text></g><g class="participant participant-head" data-participant="Svc"><a href="/microservices/svc-trip-catalog/" target="_top" title="/microservices/svc-trip-catalog/" xlink:actuate="onRequest" xlink:href="/microservices/svc-trip-catalog/" xlink:show="new" xlink:title="/microservices/svc-trip-catalog/" xlink:type="simple"><rect fill="#E8F4F8" height="30.4883" rx="2.5" ry="2.5" style="stroke:#2E86AB;stroke-width:0.5;" width="124.8242" x="325.1011" y="102.7539"/><text fill="#000000" font-family="Segoe UI" font-size="14" lengthAdjust="spacing" textLength="110.8242" x="332.1011" y="123.2891">svc-trip-catalog</text></a></g><g class="participant participant-tail" data-participant="Svc"><a href="/microservices/svc-trip-catalog/" target="_top" title="/microservices/svc-trip-catalog/" xlink:actuate="onRequest" xlink:href="/microservices/svc-trip-catalog/" xlink:show="new" xlink:title="/microservices/svc-trip-catalog/" xlink:type="simple"><rect fill="#E8F4F8" height="30.4883" rx="2.5" ry="2.5" style="stroke:#2E86AB;stroke-width:0.5;" width="124.8242" x="325.1011" y="407.7266"/><text fill="#000000" font-family="Segoe UI" font-size="14" lengthAdjust="spacing" textLength="110.8242" x="332.1011" y="428.2617">svc-trip-catalog</text></a></g><g class="participant participant-head" data-participant="DB"><text fill="#000000" font-family="Segoe UI" font-size="14" lengthAdjust="spacing" textLength="76.8496" x="571.3325" y="131.2891">PostgreSQL</text><path d="M594.7573,81.7539 C594.7573,71.7539 612.7573,71.7539 612.7573,71.7539 C612.7573,71.7539 630.7573,71.7539 630.7573,81.7539 L630.7573,107.7539 C630.7573,117.7539 612.7573,117.7539 612.7573,117.7539 C612.7573,117.7539 594.7573,117.7539 594.7573,107.7539 L594.7573,81.7539" fill="#FCE4EC" style="stroke:#181818;stroke-width:0.5;"/><path d="M594.7573,81.7539 C594.7573,91.7539 612.7573,91.7539 612.7573,91.7539 C612.7573,91.7539 630.7573,91.7539 630.7573,81.7539" fill="none" style="stroke:#181818;stroke-width:0.5;"/></g><g class="participant participant-tail" data-participant="DB"><text fill="#000000" font-family="Segoe UI" font-size="14" lengthAdjust="spacing" textLength="76.8496" x="571.3325" y="421.2617">PostgreSQL</text><path d="M594.7573,434.2148 C594.7573,424.2148 612.7573,424.2148 612.7573,424.2148 C612.7573,424.2148 630.7573,424.2148 630.7573,434.2148 L630.7573,460.2148 C630.7573,470.2148 612.7573,470.2148 612.7573,470.2148 C612.7573,470.2148 594.7573,470.2148 594.7573,460.2148 L594.7573,434.2148" fill="#FCE4EC" style="stroke:#181818;stroke-width:0.5;"/><path d="M594.7573,434.2148 C594.7573,444.2148 612.7573,444.2148 612.7573,444.2148 C612.7573,444.2148 630.7573,444.2148 630.7573,434.2148" fill="none" style="stroke:#181818;stroke-width:0.5;"/></g><g><title>API Gateway</title><rect fill="#2563EB" height="189.8633" style="stroke:#A23B72;stroke-width:1;" width="10" x="261.812" y="200.8633"/></g><g><title>svc-trip-catalog</title><rect fill="#2563EB" height="131.2422" style="stroke:#A23B72;stroke-width:1;" width="10" x="382.5132" y="230.1738"/></g><g><title>PostgreSQL</title><rect fill="#FCE4EC" height="29.3105" style="stroke:#A23B72;stroke-width:1;" width="10" x="607.7573" y="302.7949"/></g><path d="M317,149.2422 L317,174.2422 L457,174.2422 L457,159.2422 L447,149.2422 L317,149.2422" fill="#FEFFDD" style="stroke:#181818;stroke-width:0.5;"/><path d="M447,149.2422 L447,159.2422 L457,159.2422 L447,149.2422" fill="#FEFFDD" style="stroke:#181818;stroke-width:0.5;"/><a href="/services/api/svc-trip-catalog.html#/Requirements/getTripRequirements" target="_top" title="/services/api/svc-trip-catalog.html#/Requirements/getTripRequirements" xlink:actuate="onRequest" xlink:href="/services/api/svc-trip-catalog.html#/Requirements/getTripRequirements" xlink:show="new" xlink:title="/services/api/svc-trip-catalog.html#/Requirements/getTripRequirements" xlink:type="simple"><text fill="#0000FF" font-family="Segoe UI" font-size="13" lengthAdjust="spacing" text-decoration="underline" textLength="119.4058" x="323" y="166.8105">View in Swagger UI</text></a><g class="message" data-participant-1="Client" data-participant-2="GW"><polygon fill="#2563EB" points="249.812,196.8633,259.812,200.8633,249.812,204.8633,253.812,200.8633" style="stroke:#2563EB;stroke-width:1;"/><line style="stroke:#2563EB;stroke-width:1;" x1="31.7524" x2="255.812" y1="200.8633" y2="200.8633"/><text fill="#000000" font-family="Segoe UI" font-size="13" lengthAdjust="spacing" textLength="211.0596" x="38.7524" y="196.1211">GET /trips/{trip_id}/requirements</text></g><g class="message" data-participant-1="GW" data-participant-2="Svc"><polygon fill="#2563EB" points="370.5132,226.1738,380.5132,230.1738,370.5132,234.1738,374.5132,230.1738" style="stroke:#2563EB;stroke-width:1;"/><line style="stroke:#2563EB;stroke-width:1;" x1="271.812" x2="376.5132" y1="230.1738" y2="230.1738"/><text fill="#000000" font-family="Segoe UI" font-size="13" lengthAdjust="spacing" textLength="85.1348" x="278.812" y="225.4316">route request</text></g><rect fill="#EEEEEE" height="3" style="stroke:#EEEEEE;stroke-width:1;" width="659.1821" x="0" y="258.8291"/><line style="stroke:#000000;stroke-width:1;" x1="0" x2="659.1821" y1="258.8291" y2="258.8291"/><line style="stroke:#000000;stroke-width:1;" x1="0" x2="659.1821" y1="261.8291" y2="261.8291"/><rect fill="#EEEEEE" height="23.3105" style="stroke:#000000;stroke-width:2;" width="80.3711" x="289.4055" y="248.1738"/><text fill="#000000" font-family="Segoe UI" font-size="13" font-weight="bold" lengthAdjust="spacing" textLength="62.0864" x="295.4055" y="264.7422">Database</text><g class="message" data-participant-1="Svc" data-participant-2="DB"><polygon fill="#2563EB" points="595.7573,298.7949,605.7573,302.7949,595.7573,306.7949,599.7573,302.7949" style="stroke:#2563EB;stroke-width:1;"/><line style="stroke:#2563EB;stroke-width:1;" x1="392.5132" x2="601.7573" y1="302.7949" y2="302.7949"/><text fill="#000000" font-family="Segoe UI" font-size="13" lengthAdjust="spacing" textLength="196.2441" x="399.5132" y="298.0527">SELECT ... WHERE parent_id = ?</text></g><g class="message" data-participant-1="DB" data-participant-2="Svc"><polygon fill="#2563EB" points="403.5132,328.1055,393.5132,332.1055,403.5132,336.1055,399.5132,332.1055" style="stroke:#2563EB;stroke-width:1;"/><line style="stroke:#2563EB;stroke-width:1;stroke-dasharray:2,2;" x1="397.5132" x2="611.7573" y1="332.1055" y2="332.1055"/><text fill="#000000" font-family="Segoe UI" font-size="13" lengthAdjust="spacing" textLength="57.8843" x="409.5132" y="327.3633">ResultSet</text></g><g class="message" data-participant-1="Svc" data-participant-2="GW"><polygon fill="#2563EB" points="282.812,357.416,272.812,361.416,282.812,365.416,278.812,361.416" style="stroke:#2563EB;stroke-width:1;"/><line style="stroke:#2563EB;stroke-width:1;stroke-dasharray:2,2;" x1="276.812" x2="386.5132" y1="361.416" y2="361.416"/><text fill="#000000" font-family="Segoe UI" font-size="13" lengthAdjust="spacing" textLength="47.3599" x="288.812" y="356.6738">200 OK</text></g><g class="message" data-participant-1="GW" data-participant-2="Client"><polygon fill="#2563EB" points="42.7524,386.7266,32.7524,390.7266,42.7524,394.7266,38.7524,390.7266" style="stroke:#2563EB;stroke-width:1;"/><line style="stroke:#2563EB;stroke-width:1;stroke-dasharray:2,2;" x1="36.7524" x2="265.812" y1="390.7266" y2="390.7266"/><text fill="#000000" font-family="Segoe UI" font-size="13" lengthAdjust="spacing" textLength="47.3599" x="48.7524" y="385.9844">200 OK</text></g><a href="/microservices/svc-trip-catalog/#integration-context" target="_top" title="/microservices/svc-trip-catalog/#integration-context" xlink:actuate="onRequest" xlink:href="/microservices/svc-trip-catalog/#integration-context" xlink:show="new" xlink:title="/microservices/svc-trip-catalog/#integration-context" xlink:type="simple"><text fill="#0000FF" font-family="Segoe UI" font-size="10" lengthAdjust="spacing" text-decoration="underline" textLength="190.332" x="467.8501" y="14.668">&#11014; svc-trip-catalog Integration Context</text></a><!--SRC=[ZPFRRjf048Rlzob6S0qca0Q4H2iEDaL5AGLIBb9KBVRWh69stTq5KaMvxTFqgVeadNKu68ZKsXTUpV_FZFURNVCePCerNy62Xu-nLciPTLMYD1G3txtC71pcWKTgAsGCIvuOp2aHBlawiO6IzfQl40eJZ1N2tQ2GJySVQvGXmZC3UjfQg-skLVNTJGqNMNZ4jHMXIBcq7QKZr7kBtxXfTouivp_jDuBhe97PXcA9Go7nf4oxMklKgvdUKKydKd3L22fN1-a2Hn2GdictofvM3UlrHIsdlO6ovjVP2sCFo2aDxk-zbGYrCgWt8aJZcKrOibgafP1RdgZOAmffCTRS2YLB8O759mj_Vl-2SoSCZaRelXhdSyQii0b2tv-2v-p6UtQVxo9wyJHDGcXSeRJcc-oZ1IT1FinOUgGCXMuYA5e0Rk1rwNR0qpGHOTROUDJo9ACz6a2VMzpodrbQVmR5NiTlquawyPrl9pDFDk5_89hF3_EEABJWXaxUI1aRQvny6MQLUXsYt_Ml_IvZaaO3QaFugJuDYpeSYlDKN3GeFzXLKlJ6EInUZ7PAbdmClWhSWf0msV8ufkft0uA1CWBNaB4TiD9xnw3vxuam7bgn8NGPiztLe2KLS5oQG2UBH9U2nXxTJjpRMQi5lJsJLein9r81mj64YJ_qkrCebyim- -YFVQ21K6Fw4MZ1XsF173jQbWxznsZeia_GiWXpvbsJ_JwhbGfy_fItEEfk7-JOCNdBrP-nlm00]--></g></svg>