<?xml version="1.0" encoding="UTF-8" standalone="no"?><svg xmlns="http://www.w3.org/2000/svg" xmlns:xlink="http://www.w3.org/1999/xlink" contentScriptType="application/ecmascript" contentStyleType="text/css" height="610px" preserveAspectRatio="none" style="width:684px;height:610px;background:#FEFEFE;" version="1.1" viewBox="0 0 684 610" width="684px" zoomAndPan="magnify"><defs/><g><text fill="#000000" font-family="Segoe UI" font-size="18" lengthAdjust="spacingAndGlyphs" textLength="356" x="159.75" y="41.3486">PUT /gear-items/{item_id}/maintenance</text><text fill="#000000" font-family="Segoe UI" font-size="18" lengthAdjust="spacingAndGlyphs" textLength="224" x="225.75" y="62.3018">Log a maintenance event</text><rect fill="#C77B30" height="317.3281" style="stroke: #6B7280; stroke-width: 1.0;" width="10" x="311.5" y="202.1094"/><rect fill="#C77B30" height="259.0625" style="stroke: #6B7280; stroke-width: 1.0;" width="10" x="441" y="231.2422"/><rect fill="#FEF9C3" height="29.1328" style="stroke: #6B7280; stroke-width: 1.0;" width="10" x="619" y="338.6406"/><rect fill="#FEF9C3" height="29.1328" style="stroke: #6B7280; stroke-width: 1.0;" width="10" x="619" y="432.0391"/><line style="stroke: #6B7280; stroke-width: 1.0; stroke-dasharray: 5.0,5.0;" x1="34" x2="34" y1="135.8438" y2="537.4375"/><line style="stroke: #6B7280; stroke-width: 1.0; stroke-dasharray: 5.0,5.0;" x1="316.5" x2="316.5" y1="135.8438" y2="537.4375"/><line style="stroke: #6B7280; stroke-width: 1.0; stroke-dasharray: 5.0,5.0;" x1="445.5" x2="445.5" y1="135.8438" y2="537.4375"/><line style="stroke: #6B7280; stroke-width: 1.0; stroke-dasharray: 5.0,5.0;" x1="623.5" x2="623.5" y1="135.8438" y2="537.4375"/><a href="/applications/" target="_top" title="/applications/" xlink:actuate="onRequest" xlink:href="/applications/" xlink:show="new" xlink:title="/applications/" xlink:type="simple"><rect fill="#F9FAFB" height="30.2969" style="stroke: #374151; stroke-width: 1.5;" width="53" x="8" y="104.5469"/><text fill="#000000" font-family="Segoe UI" font-size="14" lengthAdjust="spacingAndGlyphs" textLength="39" x="15" y="124.542">Client</text><rect fill="#F9FAFB" height="30.2969" style="stroke: #374151; stroke-width: 1.5;" width="53" x="8" y="536.4375"/><text fill="#000000" font-family="Segoe UI" font-size="14" lengthAdjust="spacingAndGlyphs" textLength="39" x="15" y="556.4326">Client</text></a><a href="/actors/#api-gateway" target="_top" title="/actors/#api-gateway" xlink:actuate="onRequest" xlink:href="/actors/#api-gateway" xlink:show="new" xlink:title="/actors/#api-gateway" xlink:type="simple"><rect fill="#E0F2FE" height="30.2969" style="stroke: #374151; stroke-width: 1.5;" width="98" x="267.5" y="104.5469"/><text fill="#000000" font-family="Segoe UI" font-size="14" lengthAdjust="spacingAndGlyphs" textLength="84" x="274.5" y="124.542">API Gateway</text><rect fill="#E0F2FE" height="30.2969" style="stroke: #374151; stroke-width: 1.5;" width="98" x="267.5" y="536.4375"/><text fill="#000000" font-family="Segoe UI" font-size="14" lengthAdjust="spacingAndGlyphs" textLength="84" x="274.5" y="556.4326">API Gateway</text></a><a href="/microservices/svc-gear-inventory/" target="_top" title="/microservices/svc-gear-inventory/" xlink:actuate="onRequest" xlink:href="/microservices/svc-gear-inventory/" xlink:show="new" xlink:title="/microservices/svc-gear-inventory/" xlink:type="simple"><rect fill="#CFFAFE" height="30.2969" style="stroke: #374151; stroke-width: 1.5;" width="141" x="375.5" y="104.5469"/><text fill="#000000" font-family="Segoe UI" font-size="14" lengthAdjust="spacingAndGlyphs" textLength="127" x="382.5" y="124.542">svc-gear-inventory</text><rect fill="#CFFAFE" height="30.2969" style="stroke: #374151; stroke-width: 1.5;" width="141" x="375.5" y="536.4375"/><text fill="#000000" font-family="Segoe UI" font-size="14" lengthAdjust="spacingAndGlyphs" textLength="127" x="382.5" y="556.4326">svc-gear-inventory</text></a><a href="/microservices/svc-gear-inventory/#data-store" target="_top" title="/microservices/svc-gear-inventory/#data-store" xlink:actuate="onRequest" xlink:href="/microservices/svc-gear-inventory/#data-store" xlink:show="new" xlink:title="/microservices/svc-gear-inventory/#data-store" xlink:type="simple"><text fill="#000000" font-family="Segoe UI" font-size="14" lengthAdjust="spacingAndGlyphs" textLength="81" x="580.5" y="132.542">PostgreSQL</text><path d="M606,83.5469 C606,73.5469 624,73.5469 624,73.5469 C624,73.5469 642,73.5469 642,83.5469 L642,109.5469 C642,119.5469 624,119.5469 624,119.5469 C624,119.5469 606,119.5469 606,109.5469 L606,83.5469 " fill="#FEF9C3" style="stroke: #000000; stroke-width: 1.5;"/><path d="M606,83.5469 C606,93.5469 624,93.5469 624,93.5469 C624,93.5469 642,93.5469 642,83.5469 " fill="none" style="stroke: #000000; stroke-width: 1.5;"/><text fill="#000000" font-family="Segoe UI" font-size="14" lengthAdjust="spacingAndGlyphs" textLength="81" x="580.5" y="549.4326">PostgreSQL</text><path d="M606,562.7344 C606,552.7344 624,552.7344 624,552.7344 C624,552.7344 642,552.7344 642,562.7344 L642,588.7344 C642,598.7344 624,598.7344 624,598.7344 C624,598.7344 606,598.7344 606,588.7344 L606,562.7344 " fill="#FEF9C3" style="stroke: #000000; stroke-width: 1.5;"/><path d="M606,562.7344 C606,572.7344 624,572.7344 624,572.7344 C624,572.7344 642,572.7344 642,562.7344 " fill="none" style="stroke: #000000; stroke-width: 1.5;"/></a><rect fill="#C77B30" height="317.3281" style="stroke: #6B7280; stroke-width: 1.0;" width="10" x="311.5" y="202.1094"/><rect fill="#C77B30" height="259.0625" style="stroke: #6B7280; stroke-width: 1.0;" width="10" x="441" y="231.2422"/><rect fill="#FEF9C3" height="29.1328" style="stroke: #6B7280; stroke-width: 1.0;" width="10" x="619" y="338.6406"/><rect fill="#FEF9C3" height="29.1328" style="stroke: #6B7280; stroke-width: 1.0;" width="10" x="619" y="432.0391"/><path d="M375,150.8438 L375,175.8438 L516,175.8438 L516,160.8438 L506,150.8438 L375,150.8438 " fill="#FBFB77" style="stroke: #A80036; stroke-width: 1.0;"/><path d="M506,150.8438 L506,160.8438 L516,160.8438 L506,150.8438 " fill="#FBFB77" style="stroke: #A80036; stroke-width: 1.0;"/><a href="/services/api/svc-gear-inventory.html#/Maintenance/logMaintenanceEvent" target="_top" title="/services/api/svc-gear-inventory.html#/Maintenance/logMaintenanceEvent" xlink:actuate="onRequest" xlink:href="/services/api/svc-gear-inventory.html#/Maintenance/logMaintenanceEvent" xlink:show="new" xlink:title="/services/api/svc-gear-inventory.html#/Maintenance/logMaintenanceEvent" xlink:type="simple"><text fill="#0000FF" font-family="Segoe UI" font-size="13" lengthAdjust="spacingAndGlyphs" text-decoration="underline" textLength="120" x="381" y="167.9106">View in Swagger UI</text></a><polygon fill="#C77B30" points="299.5,198.1094,309.5,202.1094,299.5,206.1094,303.5,202.1094" style="stroke: #C77B30; stroke-width: 1.0;"/><line style="stroke: #C77B30; stroke-width: 1.0;" x1="34.5" x2="305.5" y1="202.1094" y2="202.1094"/><text fill="#000000" font-family="Segoe UI" font-size="13" lengthAdjust="spacingAndGlyphs" textLength="258" x="41.5" y="197.0435">PUT /gear-items/{item_id}/maintenance</text><polygon fill="#C77B30" points="429,227.2422,439,231.2422,429,235.2422,433,231.2422" style="stroke: #C77B30; stroke-width: 1.0;"/><line style="stroke: #C77B30; stroke-width: 1.0;" x1="321.5" x2="435" y1="231.2422" y2="231.2422"/><text fill="#000000" font-family="Segoe UI" font-size="13" lengthAdjust="spacingAndGlyphs" textLength="87" x="328.5" y="226.1763">route request</text><path d="M456,244.2422 L456,269.2422 L617,269.2422 L617,254.2422 L607,244.2422 L456,244.2422 " fill="#FBFB77" style="stroke: #A80036; stroke-width: 1.0;"/><path d="M607,244.2422 L607,254.2422 L617,254.2422 L607,244.2422 " fill="#FBFB77" style="stroke: #A80036; stroke-width: 1.0;"/><text fill="#000000" font-family="Segoe UI" font-size="13" lengthAdjust="spacingAndGlyphs" textLength="140" x="462" y="261.3091">Validate request body</text><rect fill="#EEEEEE" height="3" style="stroke: #EEEEEE; stroke-width: 1.0;" width="669.5" x="3" y="294.9414"/><line style="stroke: #000000; stroke-width: 1.0;" x1="3" x2="672.5" y1="294.9414" y2="294.9414"/><line style="stroke: #000000; stroke-width: 1.0;" x1="3" x2="672.5" y1="297.9414" y2="297.9414"/><rect fill="#EEEEEE" height="23.1328" style="stroke: #000000; stroke-width: 2.0;" width="90" x="292.75" y="284.375"/><text fill="#000000" font-family="Segoe UI" font-size="13" font-weight="bold" lengthAdjust="spacingAndGlyphs" textLength="71" x="298.75" y="300.4419">Database</text><polygon fill="#C77B30" points="607,334.6406,617,338.6406,607,342.6406,611,338.6406" style="stroke: #C77B30; stroke-width: 1.0;"/><line style="stroke: #C77B30; stroke-width: 1.0;" x1="451" x2="613" y1="338.6406" y2="338.6406"/><text fill="#000000" font-family="Segoe UI" font-size="13" lengthAdjust="spacingAndGlyphs" textLength="149" x="458" y="333.5747">SELECT ... FOR UPDATE</text><polygon fill="#C77B30" points="462,363.7734,452,367.7734,462,371.7734,458,367.7734" style="stroke: #C77B30; stroke-width: 1.0;"/><line style="stroke: #C77B30; stroke-width: 1.0; stroke-dasharray: 2.0,2.0;" x1="456" x2="623" y1="367.7734" y2="367.7734"/><text fill="#000000" font-family="Segoe UI" font-size="13" lengthAdjust="spacingAndGlyphs" textLength="74" x="468" y="362.7075">Current row</text><path d="M456,380.7734 L456,405.7734 L621,405.7734 L621,390.7734 L611,380.7734 L456,380.7734 " fill="#FBFB77" style="stroke: #A80036; stroke-width: 1.0;"/><path d="M611,380.7734 L611,390.7734 L621,390.7734 L611,380.7734 " fill="#FBFB77" style="stroke: #A80036; stroke-width: 1.0;"/><text fill="#000000" font-family="Segoe UI" font-size="13" lengthAdjust="spacingAndGlyphs" textLength="144" x="462" y="397.8403">Replace mutable fields</text><polygon fill="#C77B30" points="607,428.0391,617,432.0391,607,436.0391,611,432.0391" style="stroke: #C77B30; stroke-width: 1.0;"/><line style="stroke: #C77B30; stroke-width: 1.0;" x1="451" x2="613" y1="432.0391" y2="432.0391"/><text fill="#000000" font-family="Segoe UI" font-size="13" lengthAdjust="spacingAndGlyphs" textLength="112" x="458" y="426.9731">UPDATE ... SET ...</text><polygon fill="#C77B30" points="462,457.1719,452,461.1719,462,465.1719,458,461.1719" style="stroke: #C77B30; stroke-width: 1.0;"/><line style="stroke: #C77B30; stroke-width: 1.0; stroke-dasharray: 2.0,2.0;" x1="456" x2="623" y1="461.1719" y2="461.1719"/><text fill="#000000" font-family="Segoe UI" font-size="13" lengthAdjust="spacingAndGlyphs" textLength="81" x="468" y="456.106">Updated row</text><polygon fill="#C77B30" points="332.5,486.3047,322.5,490.3047,332.5,494.3047,328.5,490.3047" style="stroke: #C77B30; stroke-width: 1.0;"/><line style="stroke: #C77B30; stroke-width: 1.0; stroke-dasharray: 2.0,2.0;" x1="326.5" x2="445" y1="490.3047" y2="490.3047"/><text fill="#000000" font-family="Segoe UI" font-size="13" lengthAdjust="spacingAndGlyphs" textLength="46" x="338.5" y="485.2388">200 OK</text><polygon fill="#C77B30" points="45.5,515.4375,35.5,519.4375,45.5,523.4375,41.5,519.4375" style="stroke: #C77B30; stroke-width: 1.0;"/><line style="stroke: #C77B30; stroke-width: 1.0; stroke-dasharray: 2.0,2.0;" x1="39.5" x2="315.5" y1="519.4375" y2="519.4375"/><text fill="#000000" font-family="Segoe UI" font-size="13" lengthAdjust="spacingAndGlyphs" textLength="46" x="51.5" y="514.3716">200 OK</text><a href="/microservices/svc-gear-inventory/#integration-context" target="_top" title="/microservices/svc-gear-inventory/#integration-context" xlink:actuate="onRequest" xlink:href="/microservices/svc-gear-inventory/#integration-context" xlink:show="new" xlink:title="/microservices/svc-gear-inventory/#integration-context" xlink:type="simple"><text fill="#0000FF" font-family="Segoe UI" font-size="10" lengthAdjust="spacingAndGlyphs" text-decoration="underline" textLength="202" x="470.5" y="12.2822">⬆ svc-gear-inventory Integration Context</text></a><!--MD5=[0b2c9fa23727db794ac3b12c799a06c0]
@startuml svc-gear-inventory- -put-gear-items-item_id-maintenance

skinparam backgroundColor #FEFEFE
skinparam shadowing false
skinparam defaultFontName "Segoe UI"
skinparam sequence {
    ArrowColor #c77b30
    ParticipantBorderColor #374151
    ParticipantBackgroundColor #F9FAFB
    LifeLineBorderColor #6B7280
    BoxBorderColor #94A3B8
    BoxBackgroundColor #F8FAFC
    NoteBorderColor #64748B
    NoteBackgroundColor #F8FAFC
}

header [[/microservices/svc-gear-inventory/#integration-context ⬆ svc-gear-inventory Integration Context]]

title PUT /gear-items/{item_id}/maintenance\nLog a maintenance event

participant "Client" as Client [[/applications/]]
participant "API Gateway" as GW [[/actors/#api-gateway]] #E0F2FE
participant "svc-gear-inventory" as Svc [[/microservices/svc-gear-inventory/]] #CFFAFE
database "PostgreSQL" as DB [[/microservices/svc-gear-inventory/#data-store]] #FEF9C3

note over Svc
  [[/services/api/svc-gear-inventory.html#/Maintenance/logMaintenanceEvent View in Swagger UI]]
end note

Client -> GW : PUT /gear-items/{item_id}/maintenance
activate GW #c77b30
GW -> Svc : route request
activate Svc #c77b30

note right of Svc : Validate request body

== Database ==

Svc -> DB : SELECT ... FOR UPDATE
activate DB #FEF9C3
DB - -> Svc : Current row
deactivate DB
note right of Svc : Replace mutable fields

Svc -> DB : UPDATE ... SET ...
activate DB #FEF9C3
DB - -> Svc : Updated row
deactivate DB

Svc - -> GW : 200 OK
deactivate Svc
GW - -> Client : 200 OK
deactivate GW

@enduml

PlantUML version 1.2020.02(Sun Mar 01 10:22:07 UTC 2020)
(GPL source distribution)
Java Runtime: OpenJDK Runtime Environment
JVM: OpenJDK 64-Bit Server VM
Java Version: 17.0.18+8
Operating System: Linux
Default Encoding: UTF-8
Language: en
Country: null
--></g></svg>