<svg xmlns="http://www.w3.org/2000/svg" xmlns:xlink="http://www.w3.org/1999/xlink" contentStyleType="text/css" data-diagram-type="SEQUENCE" height="474px" preserveAspectRatio="none" style="width:702px;height:474px;background:#FEFEFE;" version="1.1" viewBox="0 0 702 474" width="702px" zoomAndPan="magnify"><title>GET /guides/{guide_id}/availability</title><defs/><g><rect fill="#FEFEFE" height="474" style="stroke:none;stroke-width:1;" width="702" x="0" y="0"/><text fill="#000000" font-family="Segoe UI" font-size="14" font-weight="bold" lengthAdjust="spacing" textLength="255.7871" x="219.2322" y="28.5352">GET /guides/{guide_id}/availability</text><text fill="#000000" font-family="Segoe UI" font-size="14" font-weight="bold" lengthAdjust="spacing" textLength="221.5322" x="236.3596" y="45.0234">Get guide availability windows</text><g><title>API Gateway</title><rect fill="#2563EB" height="189.8633" style="stroke:#A23B72;stroke-width:1;" width="10" x="271.105" y="188.0859"/></g><g><title>svc-guide-management</title><rect fill="#2563EB" height="131.2422" style="stroke:#A23B72;stroke-width:1;" width="10" x="418.5825" y="217.3965"/></g><g><title>PostgreSQL</title><rect fill="#FCE4EC" height="29.3105" style="stroke:#A23B72;stroke-width:1;" width="10" x="643.8267" y="290.0176"/></g><g><title>Client</title><rect fill="#000000" fill-opacity="0.00000" height="274.4844" width="8" x="27.7524" y="121.4648"/><line style="stroke:#A23B72;stroke-width:0.5;stroke-dasharray:5,5;" x1="31" x2="31" y1="121.4648" y2="395.9492"/></g><g><title>API Gateway</title><rect fill="#000000" fill-opacity="0.00000" height="274.4844" width="8" x="272.105" y="121.4648"/><line style="stroke:#A23B72;stroke-width:0.5;stroke-dasharray:5,5;" x1="275.8159" x2="275.8159" y1="121.4648" y2="395.9492"/></g><g><title>svc-guide-management</title><rect fill="#000000" fill-opacity="0.00000" height="274.4844" width="8" x="419.5825" y="121.4648"/><line style="stroke:#A23B72;stroke-width:0.5;stroke-dasharray:5,5;" x1="423.394" x2="423.394" y1="121.4648" y2="395.9492"/></g><g><title>PostgreSQL</title><rect fill="#000000" fill-opacity="0.00000" height="274.4844" width="8" x="644.8267" y="121.4648"/><line style="stroke:#A23B72;stroke-width:0.5;stroke-dasharray:5,5;" x1="648.4019" x2="648.4019" y1="121.4648" y2="395.9492"/></g><g class="participant participant-head" data-participant="Client"><rect fill="#E8F4F8" height="30.4883" rx="2.5" ry="2.5" style="stroke:#2E86AB;stroke-width:0.5;" width="53.5049" x="5" y="89.9766"/><text fill="#000000" font-family="Segoe UI" font-size="14" lengthAdjust="spacing" textLength="39.5049" x="12" y="110.5117">Client</text></g><g class="participant participant-tail" data-participant="Client"><rect fill="#E8F4F8" height="30.4883" rx="2.5" ry="2.5" style="stroke:#2E86AB;stroke-width:0.5;" width="53.5049" x="5" y="394.9492"/><text fill="#000000" font-family="Segoe UI" font-size="14" lengthAdjust="spacing" textLength="39.5049" x="12" y="415.4844">Client</text></g><g class="participant participant-head" data-participant="GW"><rect fill="#DBEAFE" height="30.4883" rx="2.5" ry="2.5" style="stroke:#2E86AB;stroke-width:0.5;" width="96.5781" x="227.8159" y="89.9766"/><text fill="#000000" font-family="Segoe UI" font-size="14" lengthAdjust="spacing" textLength="82.5781" x="234.8159" y="110.5117">API Gateway</text></g><g class="participant participant-tail" data-participant="GW"><rect fill="#DBEAFE" height="30.4883" rx="2.5" ry="2.5" style="stroke:#2E86AB;stroke-width:0.5;" width="96.5781" x="227.8159" y="394.9492"/><text fill="#000000" font-family="Segoe UI" font-size="14" lengthAdjust="spacing" textLength="82.5781" x="234.8159" y="415.4844">API Gateway</text></g><g class="participant participant-head" data-participant="Svc"><a href="/microservices/svc-guide-management/" target="_top" title="/microservices/svc-guide-management/" xlink:actuate="onRequest" xlink:href="/microservices/svc-guide-management/" xlink:show="new" xlink:title="/microservices/svc-guide-management/" xlink:type="simple"><rect fill="#E8F4F8" height="30.4883" rx="2.5" ry="2.5" style="stroke:#2E86AB;stroke-width:0.5;" width="178.377" x="334.394" y="89.9766"/><text fill="#000000" font-family="Segoe UI" font-size="14" lengthAdjust="spacing" textLength="164.377" x="341.394" y="110.5117">svc-guide-management</text></a></g><g class="participant participant-tail" data-participant="Svc"><a href="/microservices/svc-guide-management/" target="_top" title="/microservices/svc-guide-management/" xlink:actuate="onRequest" xlink:href="/microservices/svc-guide-management/" xlink:show="new" xlink:title="/microservices/svc-guide-management/" xlink:type="simple"><rect fill="#E8F4F8" height="30.4883" rx="2.5" ry="2.5" style="stroke:#2E86AB;stroke-width:0.5;" width="178.377" x="334.394" y="394.9492"/><text fill="#000000" font-family="Segoe UI" font-size="14" lengthAdjust="spacing" textLength="164.377" x="341.394" y="415.4844">svc-guide-management</text></a></g><g class="participant participant-head" data-participant="DB"><text fill="#000000" font-family="Segoe UI" font-size="14" lengthAdjust="spacing" textLength="76.8496" x="607.4019" y="118.5117">PostgreSQL</text><path d="M630.8267,68.9766 C630.8267,58.9766 648.8267,58.9766 648.8267,58.9766 C648.8267,58.9766 666.8267,58.9766 666.8267,68.9766 L666.8267,94.9766 C666.8267,104.9766 648.8267,104.9766 648.8267,104.9766 C648.8267,104.9766 630.8267,104.9766 630.8267,94.9766 L630.8267,68.9766" fill="#FCE4EC" style="stroke:#181818;stroke-width:0.5;"/><path d="M630.8267,68.9766 C630.8267,78.9766 648.8267,78.9766 648.8267,78.9766 C648.8267,78.9766 666.8267,78.9766 666.8267,68.9766" fill="none" style="stroke:#181818;stroke-width:0.5;"/></g><g class="participant participant-tail" data-participant="DB"><text fill="#000000" font-family="Segoe UI" font-size="14" lengthAdjust="spacing" textLength="76.8496" x="607.4019" y="408.4844">PostgreSQL</text><path d="M630.8267,421.4375 C630.8267,411.4375 648.8267,411.4375 648.8267,411.4375 C648.8267,411.4375 666.8267,411.4375 666.8267,421.4375 L666.8267,447.4375 C666.8267,457.4375 648.8267,457.4375 648.8267,457.4375 C648.8267,457.4375 630.8267,457.4375 630.8267,447.4375 L630.8267,421.4375" fill="#FCE4EC" style="stroke:#181818;stroke-width:0.5;"/><path d="M630.8267,421.4375 C630.8267,431.4375 648.8267,431.4375 648.8267,431.4375 C648.8267,431.4375 666.8267,431.4375 666.8267,421.4375" fill="none" style="stroke:#181818;stroke-width:0.5;"/></g><g><title>API Gateway</title><rect fill="#2563EB" height="189.8633" style="stroke:#A23B72;stroke-width:1;" width="10" x="271.105" y="188.0859"/></g><g><title>svc-guide-management</title><rect fill="#2563EB" height="131.2422" style="stroke:#A23B72;stroke-width:1;" width="10" x="418.5825" y="217.3965"/></g><g><title>PostgreSQL</title><rect fill="#FCE4EC" height="29.3105" style="stroke:#A23B72;stroke-width:1;" width="10" x="643.8267" y="290.0176"/></g><path d="M353,136.4648 L353,161.4648 L493,161.4648 L493,146.4648 L483,136.4648 L353,136.4648" fill="#FEFFDD" style="stroke:#181818;stroke-width:0.5;"/><path d="M483,136.4648 L483,146.4648 L493,146.4648 L483,136.4648" fill="#FEFFDD" style="stroke:#181818;stroke-width:0.5;"/><a href="/services/api/svc-guide-management.html#/Availability/getGuideAvailability" target="_top" title="/services/api/svc-guide-management.html#/Availability/getGuideAvailability" xlink:actuate="onRequest" xlink:href="/services/api/svc-guide-management.html#/Availability/getGuideAvailability" xlink:show="new" xlink:title="/services/api/svc-guide-management.html#/Availability/getGuideAvailability" xlink:type="simple"><text fill="#0000FF" font-family="Segoe UI" font-size="13" lengthAdjust="spacing" text-decoration="underline" textLength="119.4058" x="359" y="154.0332">View in Swagger UI</text></a><g class="message" data-participant-1="Client" data-participant-2="GW"><polygon fill="#2563EB" points="259.105,184.0859,269.105,188.0859,259.105,192.0859,263.105,188.0859" style="stroke:#2563EB;stroke-width:1;"/><line style="stroke:#2563EB;stroke-width:1;" x1="31.7524" x2="265.105" y1="188.0859" y2="188.0859"/><text fill="#000000" font-family="Segoe UI" font-size="13" lengthAdjust="spacing" textLength="220.3525" x="38.7524" y="183.3438">GET /guides/{guide_id}/availability</text></g><g class="message" data-participant-1="GW" data-participant-2="Svc"><polygon fill="#2563EB" points="406.5825,213.3965,416.5825,217.3965,406.5825,221.3965,410.5825,217.3965" style="stroke:#2563EB;stroke-width:1;"/><line style="stroke:#2563EB;stroke-width:1;" x1="281.105" x2="412.5825" y1="217.3965" y2="217.3965"/><a href="/microservices/svc-guide-management/#get-guidesguide_idavailability-get-guide-availability-windows" target="_top" title="/microservices/svc-guide-management/#get-guidesguide_idavailability-get-guide-availability-windows" xlink:actuate="onRequest" xlink:href="/microservices/svc-guide-management/#get-guidesguide_idavailability-get-guide-availability-windows" xlink:show="new" xlink:title="/microservices/svc-guide-management/#get-guidesguide_idavailability-get-guide-availability-windows" xlink:type="simple"><text fill="#0000FF" font-family="Segoe UI" font-size="13" lengthAdjust="spacing" text-decoration="underline" textLength="85.1348" x="288.105" y="212.6543">route request</text></a></g><rect fill="#EEEEEE" height="3" style="stroke:#EEEEEE;stroke-width:1;" width="695.2515" x="0" y="246.0518"/><line style="stroke:#000000;stroke-width:1;" x1="0" x2="695.2515" y1="246.0518" y2="246.0518"/><line style="stroke:#000000;stroke-width:1;" x1="0" x2="695.2515" y1="249.0518" y2="249.0518"/><rect fill="#EEEEEE" height="23.3105" style="stroke:#000000;stroke-width:2;" width="80.3711" x="307.4402" y="235.3965"/><text fill="#000000" font-family="Segoe UI" font-size="13" font-weight="bold" lengthAdjust="spacing" textLength="62.0864" x="313.4402" y="251.9648">Database</text><g class="message" data-participant-1="Svc" data-participant-2="DB"><polygon fill="#2563EB" points="631.8267,286.0176,641.8267,290.0176,631.8267,294.0176,635.8267,290.0176" style="stroke:#2563EB;stroke-width:1;"/><line style="stroke:#2563EB;stroke-width:1;" x1="428.5825" x2="637.8267" y1="290.0176" y2="290.0176"/><text fill="#000000" font-family="Segoe UI" font-size="13" lengthAdjust="spacing" textLength="196.2441" x="435.5825" y="285.2754">SELECT ... WHERE parent_id = ?</text></g><g class="message" data-participant-1="DB" data-participant-2="Svc"><polygon fill="#2563EB" points="439.5825,315.3281,429.5825,319.3281,439.5825,323.3281,435.5825,319.3281" style="stroke:#2563EB;stroke-width:1;"/><line style="stroke:#2563EB;stroke-width:1;stroke-dasharray:2,2;" x1="433.5825" x2="647.8267" y1="319.3281" y2="319.3281"/><text fill="#000000" font-family="Segoe UI" font-size="13" lengthAdjust="spacing" textLength="57.8843" x="445.5825" y="314.5859">ResultSet</text></g><g class="message" data-participant-1="Svc" data-participant-2="GW"><polygon fill="#2563EB" points="292.105,344.6387,282.105,348.6387,292.105,352.6387,288.105,348.6387" style="stroke:#2563EB;stroke-width:1;"/><line style="stroke:#2563EB;stroke-width:1;stroke-dasharray:2,2;" x1="286.105" x2="422.5825" y1="348.6387" y2="348.6387"/><text fill="#000000" font-family="Segoe UI" font-size="13" lengthAdjust="spacing" textLength="47.3599" x="298.105" y="343.8965">200 OK</text></g><g class="message" data-participant-1="GW" data-participant-2="Client"><polygon fill="#2563EB" points="42.7524,373.9492,32.7524,377.9492,42.7524,381.9492,38.7524,377.9492" style="stroke:#2563EB;stroke-width:1;"/><line style="stroke:#2563EB;stroke-width:1;stroke-dasharray:2,2;" x1="36.7524" x2="275.105" y1="377.9492" y2="377.9492"/><text fill="#000000" font-family="Segoe UI" font-size="13" lengthAdjust="spacing" textLength="47.3599" x="48.7524" y="373.207">200 OK</text></g><!--SRC=[ZLF1Rjf05BplLpp16KmW3GY9LWPi6XMbD4xA8KNLOZ-SLUnTkhkOHb7-lSy67BlX43YmUZEy6S-ipPEGMwvv2ciUFiLQxMGqKOdIqFIz_CjCoJ2FF59x8MFOyCHW1ObmmtU9zPMqDpn5Q0GOAuJxwqRrx_XdXp94U6507rThjJzATJzTzN1TZ1TSMn6ABPTsh7I4-aJn1bVk-1tbVzFUmB_q1mLjBZOu5n9hQznkRzpl5lXO_Qr1_iN0xroKqBiuV9_m0hvHjhurxFVNlGfs9igUrsUlZ5bX4uIPTmTEl1CH6kUb-FqjebU7PrmaV2qIOPz_oHbQA32epe4Ae1OCOzkt6A0nIGHAsm1ku72im-xY6cRSufu_5vpP4fhJiUTIlpMUoS9MeTbAkUGnfgUbGHR2muEJYb0hWpeJ8La_ntPMgxA5Y5k-veRkmq8P6siCVioBRTCnPJBnBhq9Ov820vMXpZKeGb8f1VXMd1LfFzeqQJfk9HSdHZlBQTKX_1Iu1o4XsFCu9edxwzMAeOmWLsNi41MqFkU133zI2-EX5HabMKHulBTqf1LvHCCFXjGajuUfEUbKLLebtAgDZzq3tIroeFCNobXwej9Kxk7aYer6C3qrC1enbeFaay8VGk3DlSaTjDjjM7xrRZsWQq36o0UCuClRmafJT6oLZtcBXbxu02sBi48-Yfm2xNOwyFrRbP9tdCT5Z6FuvrYp9Vi7]--></g></svg>