<?xml version="1.0" encoding="UTF-8" standalone="no"?><svg xmlns="http://www.w3.org/2000/svg" xmlns:xlink="http://www.w3.org/1999/xlink" contentScriptType="application/ecmascript" contentStyleType="text/css" height="691px" preserveAspectRatio="none" style="width:682px;height:691px;background:#FEFEFE;" version="1.1" viewBox="0 0 682 691" width="682px" zoomAndPan="magnify"><defs/><g><text fill="#000000" font-family="Segoe UI" font-size="18" lengthAdjust="spacingAndGlyphs" textLength="116" x="278.5" y="41.3486">POST /guests</text><text fill="#000000" font-family="Segoe UI" font-size="18" lengthAdjust="spacingAndGlyphs" textLength="188" x="242.5" y="62.3018">Register a new guest</text><rect fill="#059669" height="397.5938" style="stroke: #6B7280; stroke-width: 1.0;" width="10" x="138.5" y="202.1094"/><rect fill="#059669" height="339.3281" style="stroke: #6B7280; stroke-width: 1.0;" width="10" x="266" y="231.2422"/><rect fill="#F3F4F6" height="29.1328" style="stroke: #6B7280; stroke-width: 1.0;" width="10" x="451" y="338.6406"/><rect fill="#FEF9C3" height="29.1328" style="stroke: #6B7280; stroke-width: 1.0;" width="10" x="616.5" y="440.0391"/><line style="stroke: #6B7280; stroke-width: 1.0; stroke-dasharray: 5.0,5.0;" x1="34" x2="34" y1="135.8438" y2="617.7031"/><line style="stroke: #6B7280; stroke-width: 1.0; stroke-dasharray: 5.0,5.0;" x1="143.5" x2="143.5" y1="135.8438" y2="617.7031"/><line style="stroke: #6B7280; stroke-width: 1.0; stroke-dasharray: 5.0,5.0;" x1="270.5" x2="270.5" y1="135.8438" y2="617.7031"/><line style="stroke: #6B7280; stroke-width: 1.0; stroke-dasharray: 5.0,5.0;" x1="456" x2="456" y1="135.8438" y2="617.7031"/><line style="stroke: #6B7280; stroke-width: 1.0; stroke-dasharray: 5.0,5.0;" x1="539" x2="539" y1="135.8438" y2="617.7031"/><line style="stroke: #6B7280; stroke-width: 1.0; stroke-dasharray: 5.0,5.0;" x1="621" x2="621" y1="135.8438" y2="617.7031"/><a href="/applications/" target="_top" title="/applications/" xlink:actuate="onRequest" xlink:href="/applications/" xlink:show="new" xlink:title="/applications/" xlink:type="simple"><rect fill="#F9FAFB" height="30.2969" style="stroke: #374151; stroke-width: 1.5;" width="53" x="8" y="104.5469"/><text fill="#000000" font-family="Segoe UI" font-size="14" lengthAdjust="spacingAndGlyphs" textLength="39" x="15" y="124.542">Client</text><rect fill="#F9FAFB" height="30.2969" style="stroke: #374151; stroke-width: 1.5;" width="53" x="8" y="616.7031"/><text fill="#000000" font-family="Segoe UI" font-size="14" lengthAdjust="spacingAndGlyphs" textLength="39" x="15" y="636.6982">Client</text></a><a href="/actors/#api-gateway" target="_top" title="/actors/#api-gateway" xlink:actuate="onRequest" xlink:href="/actors/#api-gateway" xlink:show="new" xlink:title="/actors/#api-gateway" xlink:type="simple"><rect fill="#E0F2FE" height="30.2969" style="stroke: #374151; stroke-width: 1.5;" width="98" x="94.5" y="104.5469"/><text fill="#000000" font-family="Segoe UI" font-size="14" lengthAdjust="spacingAndGlyphs" textLength="84" x="101.5" y="124.542">API Gateway</text><rect fill="#E0F2FE" height="30.2969" style="stroke: #374151; stroke-width: 1.5;" width="98" x="94.5" y="616.7031"/><text fill="#000000" font-family="Segoe UI" font-size="14" lengthAdjust="spacingAndGlyphs" textLength="84" x="101.5" y="636.6982">API Gateway</text></a><a href="/microservices/svc-guest-profiles/" target="_top" title="/microservices/svc-guest-profiles/" xlink:actuate="onRequest" xlink:href="/microservices/svc-guest-profiles/" xlink:show="new" xlink:title="/microservices/svc-guest-profiles/" xlink:type="simple"><rect fill="#EDE9FE" height="30.2969" style="stroke: #374151; stroke-width: 1.5;" width="137" x="202.5" y="104.5469"/><text fill="#000000" font-family="Segoe UI" font-size="14" lengthAdjust="spacingAndGlyphs" textLength="123" x="209.5" y="124.542">svc-guest-profiles</text><rect fill="#EDE9FE" height="30.2969" style="stroke: #374151; stroke-width: 1.5;" width="137" x="202.5" y="616.7031"/><text fill="#000000" font-family="Segoe UI" font-size="14" lengthAdjust="spacingAndGlyphs" textLength="123" x="209.5" y="636.6982">svc-guest-profiles</text></a><a href="/actors/#idverify-api" target="_top" title="/actors/#idverify-api" xlink:actuate="onRequest" xlink:href="/actors/#idverify-api" xlink:show="new" xlink:title="/actors/#idverify-api" xlink:type="simple"><rect fill="#F3F4F6" height="30.2969" style="stroke: #374151; stroke-width: 1.5;" width="90" x="411" y="104.5469"/><text fill="#000000" font-family="Segoe UI" font-size="14" lengthAdjust="spacingAndGlyphs" textLength="76" x="418" y="124.542">IDVerify API</text><rect fill="#F3F4F6" height="30.2969" style="stroke: #374151; stroke-width: 1.5;" width="90" x="411" y="616.7031"/><text fill="#000000" font-family="Segoe UI" font-size="14" lengthAdjust="spacingAndGlyphs" textLength="76" x="418" y="636.6982">IDVerify API</text></a><a href="/actors/#event-bus" target="_top" title="/actors/#event-bus" xlink:actuate="onRequest" xlink:href="/actors/#event-bus" xlink:show="new" xlink:title="/actors/#event-bus" xlink:type="simple"><path d="M516,109.5469 L563,109.5469 C568,109.5469 568,122.6953 568,122.6953 C568,122.6953 568,135.8438 563,135.8438 L516,135.8438 C511,135.8438 511,122.6953 511,122.6953 C511,122.6953 511,109.5469 516,109.5469 " fill="#F5F3FF" style="stroke: #A80036; stroke-width: 2.0;"/><path d="M563,109.5469 C558,109.5469 558,122.6953 558,122.6953 C558,135.8438 563,135.8438 563,135.8438 " fill="none" style="stroke: #A80036; stroke-width: 2.0;"/><text fill="#000000" font-family="Segoe UI" font-size="14" lengthAdjust="spacingAndGlyphs" textLength="37" x="516" y="127.542">Kafka</text><path d="M516,616.7031 L563,616.7031 C568,616.7031 568,629.8516 568,629.8516 C568,629.8516 568,643 563,643 L516,643 C511,643 511,629.8516 511,629.8516 C511,629.8516 511,616.7031 516,616.7031 " fill="#F5F3FF" style="stroke: #A80036; stroke-width: 2.0;"/><path d="M563,616.7031 C558,616.7031 558,629.8516 558,629.8516 C558,643 563,643 563,643 " fill="none" style="stroke: #A80036; stroke-width: 2.0;"/><text fill="#000000" font-family="Segoe UI" font-size="14" lengthAdjust="spacingAndGlyphs" textLength="37" x="516" y="634.6982">Kafka</text></a><a href="/microservices/svc-guest-profiles/#data-store" target="_top" title="/microservices/svc-guest-profiles/#data-store" xlink:actuate="onRequest" xlink:href="/microservices/svc-guest-profiles/#data-store" xlink:show="new" xlink:title="/microservices/svc-guest-profiles/#data-store" xlink:type="simple"><text fill="#000000" font-family="Segoe UI" font-size="14" lengthAdjust="spacingAndGlyphs" textLength="81" x="578" y="132.542">PostgreSQL</text><path d="M603.5,83.5469 C603.5,73.5469 621.5,73.5469 621.5,73.5469 C621.5,73.5469 639.5,73.5469 639.5,83.5469 L639.5,109.5469 C639.5,119.5469 621.5,119.5469 621.5,119.5469 C621.5,119.5469 603.5,119.5469 603.5,109.5469 L603.5,83.5469 " fill="#FEF9C3" style="stroke: #000000; stroke-width: 1.5;"/><path d="M603.5,83.5469 C603.5,93.5469 621.5,93.5469 621.5,93.5469 C621.5,93.5469 639.5,93.5469 639.5,83.5469 " fill="none" style="stroke: #000000; stroke-width: 1.5;"/><text fill="#000000" font-family="Segoe UI" font-size="14" lengthAdjust="spacingAndGlyphs" textLength="81" x="578" y="629.6982">PostgreSQL</text><path d="M603.5,643 C603.5,633 621.5,633 621.5,633 C621.5,633 639.5,633 639.5,643 L639.5,669 C639.5,679 621.5,679 621.5,679 C621.5,679 603.5,679 603.5,669 L603.5,643 " fill="#FEF9C3" style="stroke: #000000; stroke-width: 1.5;"/><path d="M603.5,643 C603.5,653 621.5,653 621.5,653 C621.5,653 639.5,653 639.5,643 " fill="none" style="stroke: #000000; stroke-width: 1.5;"/></a><rect fill="#059669" height="397.5938" style="stroke: #6B7280; stroke-width: 1.0;" width="10" x="138.5" y="202.1094"/><rect fill="#059669" height="339.3281" style="stroke: #6B7280; stroke-width: 1.0;" width="10" x="266" y="231.2422"/><rect fill="#F3F4F6" height="29.1328" style="stroke: #6B7280; stroke-width: 1.0;" width="10" x="451" y="338.6406"/><rect fill="#FEF9C3" height="29.1328" style="stroke: #6B7280; stroke-width: 1.0;" width="10" x="616.5" y="440.0391"/><path d="M200,150.8438 L200,175.8438 L341,175.8438 L341,160.8438 L331,150.8438 L200,150.8438 " fill="#FBFB77" style="stroke: #A80036; stroke-width: 1.0;"/><path d="M331,150.8438 L331,160.8438 L341,160.8438 L331,150.8438 " fill="#FBFB77" style="stroke: #A80036; stroke-width: 1.0;"/><a href="/services/api/svc-guest-profiles.html#/Guests/createGuest" target="_top" title="/services/api/svc-guest-profiles.html#/Guests/createGuest" xlink:actuate="onRequest" xlink:href="/services/api/svc-guest-profiles.html#/Guests/createGuest" xlink:show="new" xlink:title="/services/api/svc-guest-profiles.html#/Guests/createGuest" xlink:type="simple"><text fill="#0000FF" font-family="Segoe UI" font-size="13" lengthAdjust="spacingAndGlyphs" text-decoration="underline" textLength="120" x="206" y="167.9106">View in Swagger UI</text></a><polygon fill="#059669" points="126.5,198.1094,136.5,202.1094,126.5,206.1094,130.5,202.1094" style="stroke: #059669; stroke-width: 1.0;"/><line style="stroke: #059669; stroke-width: 1.0;" x1="34.5" x2="132.5" y1="202.1094" y2="202.1094"/><text fill="#000000" font-family="Segoe UI" font-size="13" lengthAdjust="spacingAndGlyphs" textLength="85" x="41.5" y="197.0435">POST /guests</text><polygon fill="#059669" points="254,227.2422,264,231.2422,254,235.2422,258,231.2422" style="stroke: #059669; stroke-width: 1.0;"/><line style="stroke: #059669; stroke-width: 1.0;" x1="148.5" x2="260" y1="231.2422" y2="231.2422"/><text fill="#000000" font-family="Segoe UI" font-size="13" lengthAdjust="spacingAndGlyphs" textLength="87" x="155.5" y="226.1763">route request</text><path d="M281,244.2422 L281,269.2422 L442,269.2422 L442,254.2422 L432,244.2422 L281,244.2422 " fill="#FBFB77" style="stroke: #A80036; stroke-width: 1.0;"/><path d="M432,244.2422 L432,254.2422 L442,254.2422 L432,244.2422 " fill="#FBFB77" style="stroke: #A80036; stroke-width: 1.0;"/><text fill="#000000" font-family="Segoe UI" font-size="13" lengthAdjust="spacingAndGlyphs" textLength="140" x="287" y="261.3091">Validate request body</text><rect fill="#EEEEEE" height="3" style="stroke: #EEEEEE; stroke-width: 1.0;" width="667" x="3" y="294.9414"/><line style="stroke: #000000; stroke-width: 1.0;" x1="3" x2="670" y1="294.9414" y2="294.9414"/><line style="stroke: #000000; stroke-width: 1.0;" x1="3" x2="670" y1="297.9414" y2="297.9414"/><rect fill="#EEEEEE" height="23.1328" style="stroke: #000000; stroke-width: 2.0;" width="204" x="234.5" y="284.375"/><text fill="#000000" font-family="Segoe UI" font-size="13" font-weight="bold" lengthAdjust="spacingAndGlyphs" textLength="185" x="240.5" y="300.4419">Cross-Service Integration</text><polygon fill="#059669" points="439,334.6406,449,338.6406,439,342.6406,443,338.6406" style="stroke: #059669; stroke-width: 1.0;"/><line style="stroke: #059669; stroke-width: 1.0;" x1="276" x2="445" y1="338.6406" y2="338.6406"/><text fill="#000000" font-family="Segoe UI" font-size="13" lengthAdjust="spacingAndGlyphs" textLength="156" x="283" y="333.5747">Verify identity document</text><polygon fill="#059669" points="287,363.7734,277,367.7734,287,371.7734,283,367.7734" style="stroke: #059669; stroke-width: 1.0;"/><line style="stroke: #059669; stroke-width: 1.0; stroke-dasharray: 2.0,2.0;" x1="281" x2="455" y1="367.7734" y2="367.7734"/><text fill="#000000" font-family="Segoe UI" font-size="13" lengthAdjust="spacingAndGlyphs" textLength="18" x="293" y="362.7075">OK</text><rect fill="#EEEEEE" height="3" style="stroke: #EEEEEE; stroke-width: 1.0;" width="667" x="3" y="396.3398"/><line style="stroke: #000000; stroke-width: 1.0;" x1="3" x2="670" y1="396.3398" y2="396.3398"/><line style="stroke: #000000; stroke-width: 1.0;" x1="3" x2="670" y1="399.3398" y2="399.3398"/><rect fill="#EEEEEE" height="23.1328" style="stroke: #000000; stroke-width: 2.0;" width="90" x="291.5" y="385.7734"/><text fill="#000000" font-family="Segoe UI" font-size="13" font-weight="bold" lengthAdjust="spacingAndGlyphs" textLength="71" x="297.5" y="401.8403">Database</text><polygon fill="#059669" points="604.5,436.0391,614.5,440.0391,604.5,444.0391,608.5,440.0391" style="stroke: #059669; stroke-width: 1.0;"/><line style="stroke: #059669; stroke-width: 1.0;" x1="276" x2="610.5" y1="440.0391" y2="440.0391"/><text fill="#000000" font-family="Segoe UI" font-size="13" lengthAdjust="spacingAndGlyphs" textLength="95" x="283" y="434.9731">INSERT INTO ...</text><polygon fill="#059669" points="287,465.1719,277,469.1719,287,473.1719,283,469.1719" style="stroke: #059669; stroke-width: 1.0;"/><line style="stroke: #059669; stroke-width: 1.0; stroke-dasharray: 2.0,2.0;" x1="281" x2="620.5" y1="469.1719" y2="469.1719"/><text fill="#000000" font-family="Segoe UI" font-size="13" lengthAdjust="spacingAndGlyphs" textLength="77" x="293" y="464.106">Created row</text><rect fill="#EEEEEE" height="3" style="stroke: #EEEEEE; stroke-width: 1.0;" width="667" x="3" y="497.7383"/><line style="stroke: #000000; stroke-width: 1.0;" x1="3" x2="670" y1="497.7383" y2="497.7383"/><line style="stroke: #000000; stroke-width: 1.0;" x1="3" x2="670" y1="500.7383" y2="500.7383"/><rect fill="#EEEEEE" height="23.1328" style="stroke: #000000; stroke-width: 2.0;" width="116" x="278.5" y="487.1719"/><text fill="#000000" font-family="Segoe UI" font-size="13" font-weight="bold" lengthAdjust="spacingAndGlyphs" textLength="97" x="284.5" y="503.2388">Async Events</text><line style="stroke: #059669; stroke-width: 1.0;" x1="537.5" x2="527.5" y1="541.4375" y2="537.4375"/><line style="stroke: #059669; stroke-width: 1.0;" x1="537.5" x2="527.5" y1="541.4375" y2="545.4375"/><line style="stroke: #059669; stroke-width: 1.0;" x1="276" x2="538.5" y1="541.4375" y2="541.4375"/><a href="/events/#guestregistered" target="_top" title="/events/#guestregistered" xlink:actuate="onRequest" xlink:href="/events/#guestregistered" xlink:show="new" xlink:title="/events/#guestregistered" xlink:type="simple"><text fill="#0000FF" font-family="Segoe UI" font-size="13" lengthAdjust="spacingAndGlyphs" text-decoration="underline" textLength="105" x="283" y="536.3716">guest.registered</text></a><polygon fill="#059669" points="159.5,566.5703,149.5,570.5703,159.5,574.5703,155.5,570.5703" style="stroke: #059669; stroke-width: 1.0;"/><line style="stroke: #059669; stroke-width: 1.0; stroke-dasharray: 2.0,2.0;" x1="153.5" x2="270" y1="570.5703" y2="570.5703"/><text fill="#000000" font-family="Segoe UI" font-size="13" lengthAdjust="spacingAndGlyphs" textLength="79" x="165.5" y="565.5044">201 Created</text><polygon fill="#059669" points="45.5,595.7031,35.5,599.7031,45.5,603.7031,41.5,599.7031" style="stroke: #059669; stroke-width: 1.0;"/><line style="stroke: #059669; stroke-width: 1.0; stroke-dasharray: 2.0,2.0;" x1="39.5" x2="142.5" y1="599.7031" y2="599.7031"/><text fill="#000000" font-family="Segoe UI" font-size="13" lengthAdjust="spacingAndGlyphs" textLength="79" x="51.5" y="594.6372">201 Created</text><a href="/microservices/svc-guest-profiles/#integration-context" target="_top" title="/microservices/svc-guest-profiles/#integration-context" xlink:actuate="onRequest" xlink:href="/microservices/svc-guest-profiles/#integration-context" xlink:show="new" xlink:title="/microservices/svc-guest-profiles/#integration-context" xlink:type="simple"><text fill="#0000FF" font-family="Segoe UI" font-size="10" lengthAdjust="spacingAndGlyphs" text-decoration="underline" textLength="196" x="474" y="12.2822">⬆ svc-guest-profiles Integration Context</text></a><!--MD5=[b29b9fca8479f9f17386346af9dda4e5]
@startuml svc-guest-profiles- -post-guests

skinparam backgroundColor #FEFEFE
skinparam shadowing false
skinparam defaultFontName "Segoe UI"
skinparam sequence {
    ArrowColor #059669
    ParticipantBorderColor #374151
    ParticipantBackgroundColor #F9FAFB
    LifeLineBorderColor #6B7280
    BoxBorderColor #94A3B8
    BoxBackgroundColor #F8FAFC
    NoteBorderColor #64748B
    NoteBackgroundColor #F8FAFC
}

header [[/microservices/svc-guest-profiles/#integration-context ⬆ svc-guest-profiles Integration Context]]

title POST /guests\nRegister a new guest

participant "Client" as Client [[/applications/]]
participant "API Gateway" as GW [[/actors/#api-gateway]] #E0F2FE
participant "svc-guest-profiles" as Svc [[/microservices/svc-guest-profiles/]] #EDE9FE
participant "IDVerify API" as ExtID [[/actors/#idverify-api]] #F3F4F6
queue "Kafka" as Kafka [[/actors/#event-bus]] #F5F3FF
database "PostgreSQL" as DB [[/microservices/svc-guest-profiles/#data-store]] #FEF9C3

note over Svc
  [[/services/api/svc-guest-profiles.html#/Guests/createGuest View in Swagger UI]]
end note

Client -> GW : POST /guests
activate GW #059669
GW -> Svc : route request
activate Svc #059669

note right of Svc : Validate request body

== Cross-Service Integration ==

Svc -> ExtID : Verify identity document
activate ExtID #F3F4F6
ExtID - -> Svc : OK
deactivate ExtID

== Database ==

Svc -> DB : INSERT INTO ...
activate DB #FEF9C3
DB - -> Svc : Created row
deactivate DB

== Async Events ==

Svc ->> Kafka : [[/events/#guestregistered guest.registered]]

Svc - -> GW : 201 Created
deactivate Svc
GW - -> Client : 201 Created
deactivate GW

@enduml

PlantUML version 1.2020.02(Sun Mar 01 10:22:07 UTC 2020)
(GPL source distribution)
Java Runtime: OpenJDK Runtime Environment
JVM: OpenJDK 64-Bit Server VM
Java Version: 17.0.18+8
Operating System: Linux
Default Encoding: UTF-8
Language: en
Country: null
--></g></svg>