<svg xmlns="http://www.w3.org/2000/svg" xmlns:xlink="http://www.w3.org/1999/xlink" contentStyleType="text/css" data-diagram-type="SEQUENCE" height="522px" preserveAspectRatio="none" style="width:815px;height:522px;background:#FEFEFE;" version="1.1" viewBox="0 0 815 522" width="815px" zoomAndPan="magnify"><title>GET /gear-assignments/{assignment_id}</title><defs/><g><rect fill="#FEFEFE" height="522" style="stroke:none;stroke-width:1;" width="815" x="0" y="0"/><text fill="#000000" font-family="Segoe UI" font-size="14" font-weight="bold" lengthAdjust="spacing" textLength="296.4336" x="255.3118" y="41.3125">GET /gear-assignments/{assignment_id}</text><text fill="#000000" font-family="Segoe UI" font-size="14" font-weight="bold" lengthAdjust="spacing" textLength="202.2891" x="302.384" y="57.8008">Get gear assignment details</text><g><title>API Gateway</title><rect fill="#2563EB" height="225.1738" style="stroke:#A23B72;stroke-width:1;" width="10" x="307.4009" y="200.8633"/></g><g><title>svc-gear-inventory</title><rect fill="#2563EB" height="166.5527" style="stroke:#A23B72;stroke-width:1;" width="10" x="438.2363" y="230.1738"/></g><g><title>PostgreSQL</title><rect fill="#FCE4EC" height="29.3105" style="stroke:#A23B72;stroke-width:1;" width="10" x="616.127" y="302.7949"/></g><g><title>Client</title><rect fill="#000000" fill-opacity="0.00000" height="309.7949" width="8" x="27.7524" y="134.2422"/><line style="stroke:#A23B72;stroke-width:0.5;stroke-dasharray:5,5;" x1="31" x2="31" y1="134.2422" y2="444.0371"/></g><g><title>API Gateway</title><rect fill="#000000" fill-opacity="0.00000" height="309.7949" width="8" x="308.4009" y="134.2422"/><line style="stroke:#A23B72;stroke-width:0.5;stroke-dasharray:5,5;" x1="312.1118" x2="312.1118" y1="134.2422" y2="444.0371"/></g><g><title>svc-gear-inventory</title><rect fill="#000000" fill-opacity="0.00000" height="309.7949" width="8" x="439.2363" y="134.2422"/><line style="stroke:#A23B72;stroke-width:0.5;stroke-dasharray:5,5;" x1="442.6899" x2="442.6899" y1="134.2422" y2="444.0371"/></g><g><title>PostgreSQL</title><rect fill="#000000" fill-opacity="0.00000" height="309.7949" width="8" x="617.127" y="134.2422"/><line style="stroke:#A23B72;stroke-width:0.5;stroke-dasharray:5,5;" x1="620.7021" x2="620.7021" y1="134.2422" y2="444.0371"/></g><g class="participant participant-head" data-participant="Client"><rect fill="#E8F4F8" height="30.4883" rx="2.5" ry="2.5" style="stroke:#2E86AB;stroke-width:0.5;" width="53.5049" x="5" y="102.7539"/><text fill="#000000" font-family="Segoe UI" font-size="14" lengthAdjust="spacing" textLength="39.5049" x="12" y="123.2891">Client</text></g><g class="participant participant-tail" data-participant="Client"><rect fill="#E8F4F8" height="30.4883" rx="2.5" ry="2.5" style="stroke:#2E86AB;stroke-width:0.5;" width="53.5049" x="5" y="443.0371"/><text fill="#000000" font-family="Segoe UI" font-size="14" lengthAdjust="spacing" textLength="39.5049" x="12" y="463.5723">Client</text></g><g class="participant participant-head" data-participant="GW"><rect fill="#DBEAFE" height="30.4883" rx="2.5" ry="2.5" style="stroke:#2E86AB;stroke-width:0.5;" width="96.5781" x="264.1118" y="102.7539"/><text fill="#000000" font-family="Segoe UI" font-size="14" lengthAdjust="spacing" textLength="82.5781" x="271.1118" y="123.2891">API Gateway</text></g><g class="participant participant-tail" data-participant="GW"><rect fill="#DBEAFE" height="30.4883" rx="2.5" ry="2.5" style="stroke:#2E86AB;stroke-width:0.5;" width="96.5781" x="264.1118" y="443.0371"/><text fill="#000000" font-family="Segoe UI" font-size="14" lengthAdjust="spacing" textLength="82.5781" x="271.1118" y="463.5723">API Gateway</text></g><g class="participant participant-head" data-participant="Svc"><a href="/microservices/svc-gear-inventory/" target="_top" title="/microservices/svc-gear-inventory/" xlink:actuate="onRequest" xlink:href="/microservices/svc-gear-inventory/" xlink:show="new" xlink:title="/microservices/svc-gear-inventory/" xlink:type="simple"><rect fill="#E8F4F8" height="30.4883" rx="2.5" ry="2.5" style="stroke:#2E86AB;stroke-width:0.5;" width="145.0928" x="370.6899" y="102.7539"/><text fill="#000000" font-family="Segoe UI" font-size="14" lengthAdjust="spacing" textLength="131.0928" x="377.6899" y="123.2891">svc-gear-inventory</text></a></g><g class="participant participant-tail" data-participant="Svc"><a href="/microservices/svc-gear-inventory/" target="_top" title="/microservices/svc-gear-inventory/" xlink:actuate="onRequest" xlink:href="/microservices/svc-gear-inventory/" xlink:show="new" xlink:title="/microservices/svc-gear-inventory/" xlink:type="simple"><rect fill="#E8F4F8" height="30.4883" rx="2.5" ry="2.5" style="stroke:#2E86AB;stroke-width:0.5;" width="145.0928" x="370.6899" y="443.0371"/><text fill="#000000" font-family="Segoe UI" font-size="14" lengthAdjust="spacing" textLength="131.0928" x="377.6899" y="463.5723">svc-gear-inventory</text></a></g><g class="participant participant-head" data-participant="DB"><text fill="#000000" font-family="Segoe UI" font-size="14" lengthAdjust="spacing" textLength="76.8496" x="579.7021" y="131.2891">PostgreSQL</text><path d="M603.127,81.7539 C603.127,71.7539 621.127,71.7539 621.127,71.7539 C621.127,71.7539 639.127,71.7539 639.127,81.7539 L639.127,107.7539 C639.127,117.7539 621.127,117.7539 621.127,117.7539 C621.127,117.7539 603.127,117.7539 603.127,107.7539 L603.127,81.7539" fill="#FCE4EC" style="stroke:#181818;stroke-width:0.5;"/><path d="M603.127,81.7539 C603.127,91.7539 621.127,91.7539 621.127,91.7539 C621.127,91.7539 639.127,91.7539 639.127,81.7539" fill="none" style="stroke:#181818;stroke-width:0.5;"/></g><g class="participant participant-tail" data-participant="DB"><text fill="#000000" font-family="Segoe UI" font-size="14" lengthAdjust="spacing" textLength="76.8496" x="579.7021" y="456.5723">PostgreSQL</text><path d="M603.127,469.5254 C603.127,459.5254 621.127,459.5254 621.127,459.5254 C621.127,459.5254 639.127,459.5254 639.127,469.5254 L639.127,495.5254 C639.127,505.5254 621.127,505.5254 621.127,505.5254 C621.127,505.5254 603.127,505.5254 603.127,495.5254 L603.127,469.5254" fill="#FCE4EC" style="stroke:#181818;stroke-width:0.5;"/><path d="M603.127,469.5254 C603.127,479.5254 621.127,479.5254 621.127,479.5254 C621.127,479.5254 639.127,479.5254 639.127,469.5254" fill="none" style="stroke:#181818;stroke-width:0.5;"/></g><g><title>API Gateway</title><rect fill="#2563EB" height="225.1738" style="stroke:#A23B72;stroke-width:1;" width="10" x="307.4009" y="200.8633"/></g><g><title>svc-gear-inventory</title><rect fill="#2563EB" height="166.5527" style="stroke:#A23B72;stroke-width:1;" width="10" x="438.2363" y="230.1738"/></g><g><title>PostgreSQL</title><rect fill="#FCE4EC" height="29.3105" style="stroke:#A23B72;stroke-width:1;" width="10" x="616.127" y="302.7949"/></g><path d="M373,149.2422 L373,174.2422 L513,174.2422 L513,159.2422 L503,149.2422 L373,149.2422" fill="#FEFFDD" style="stroke:#181818;stroke-width:0.5;"/><path d="M503,149.2422 L503,159.2422 L513,159.2422 L503,149.2422" fill="#FEFFDD" style="stroke:#181818;stroke-width:0.5;"/><a href="/services/api/svc-gear-inventory.html#/Gear%20Assignments/getGearAssignment" target="_top" title="/services/api/svc-gear-inventory.html#/Gear%20Assignments/getGearAssignment" xlink:actuate="onRequest" xlink:href="/services/api/svc-gear-inventory.html#/Gear%20Assignments/getGearAssignment" xlink:show="new" xlink:title="/services/api/svc-gear-inventory.html#/Gear%20Assignments/getGearAssignment" xlink:type="simple"><text fill="#0000FF" font-family="Segoe UI" font-size="13" lengthAdjust="spacing" text-decoration="underline" textLength="119.4058" x="379" y="166.8105">View in Swagger UI</text></a><g class="message" data-participant-1="Client" data-participant-2="GW"><polygon fill="#2563EB" points="295.4009,196.8633,305.4009,200.8633,295.4009,204.8633,299.4009,200.8633" style="stroke:#2563EB;stroke-width:1;"/><line style="stroke:#2563EB;stroke-width:1;" x1="31.7524" x2="301.4009" y1="200.8633" y2="200.8633"/><text fill="#000000" font-family="Segoe UI" font-size="13" lengthAdjust="spacing" textLength="256.6484" x="38.7524" y="196.1211">GET /gear-assignments/{assignment_id}</text></g><g class="message" data-participant-1="GW" data-participant-2="Svc"><polygon fill="#2563EB" points="426.2363,226.1738,436.2363,230.1738,426.2363,234.1738,430.2363,230.1738" style="stroke:#2563EB;stroke-width:1;"/><line style="stroke:#2563EB;stroke-width:1;" x1="317.4009" x2="432.2363" y1="230.1738" y2="230.1738"/><text fill="#000000" font-family="Segoe UI" font-size="13" lengthAdjust="spacing" textLength="85.1348" x="324.4009" y="225.4316">route request</text></g><rect fill="#EEEEEE" height="3" style="stroke:#EEEEEE;stroke-width:1;" width="808.0571" x="0" y="258.8291"/><line style="stroke:#000000;stroke-width:1;" x1="0" x2="808.0571" y1="258.8291" y2="258.8291"/><line style="stroke:#000000;stroke-width:1;" x1="0" x2="808.0571" y1="261.8291" y2="261.8291"/><rect fill="#EEEEEE" height="23.3105" style="stroke:#000000;stroke-width:2;" width="80.3711" x="363.843" y="248.1738"/><text fill="#000000" font-family="Segoe UI" font-size="13" font-weight="bold" lengthAdjust="spacing" textLength="62.0864" x="369.843" y="264.7422">Database</text><g class="message" data-participant-1="Svc" data-participant-2="DB"><polygon fill="#2563EB" points="604.127,298.7949,614.127,302.7949,604.127,306.7949,608.127,302.7949" style="stroke:#2563EB;stroke-width:1;"/><line style="stroke:#2563EB;stroke-width:1;" x1="448.2363" x2="610.127" y1="302.7949" y2="302.7949"/><text fill="#000000" font-family="Segoe UI" font-size="13" lengthAdjust="spacing" textLength="148.8906" x="455.2363" y="298.0527">SELECT ... WHERE id = ?</text></g><g class="message" data-participant-1="DB" data-participant-2="Svc"><polygon fill="#2563EB" points="459.2363,328.1055,449.2363,332.1055,459.2363,336.1055,455.2363,332.1055" style="stroke:#2563EB;stroke-width:1;"/><line style="stroke:#2563EB;stroke-width:1;stroke-dasharray:2,2;" x1="453.2363" x2="620.127" y1="332.1055" y2="332.1055"/><text fill="#000000" font-family="Segoe UI" font-size="13" lengthAdjust="spacing" textLength="26.2222" x="465.2363" y="327.3633">Row</text></g><path d="M626,345.1055 L626,370.1055 L803,370.1055 L803,355.1055 L793,345.1055 L626,345.1055" fill="#FEFFDD" style="stroke:#181818;stroke-width:0.5;"/><path d="M793,345.1055 L793,355.1055 L803,355.1055 L793,345.1055" fill="#FEFFDD" style="stroke:#181818;stroke-width:0.5;"/><text fill="#000000" font-family="Segoe UI" font-size="13" lengthAdjust="spacing" textLength="156.0571" x="632" y="362.6738">Returns 404 if not found</text><g class="message" data-participant-1="Svc" data-participant-2="GW"><polygon fill="#2563EB" points="328.4009,392.7266,318.4009,396.7266,328.4009,400.7266,324.4009,396.7266" style="stroke:#2563EB;stroke-width:1;"/><line style="stroke:#2563EB;stroke-width:1;stroke-dasharray:2,2;" x1="322.4009" x2="442.2363" y1="396.7266" y2="396.7266"/><text fill="#000000" font-family="Segoe UI" font-size="13" lengthAdjust="spacing" textLength="47.3599" x="334.4009" y="391.9844">200 OK</text></g><g class="message" data-participant-1="GW" data-participant-2="Client"><polygon fill="#2563EB" points="42.7524,422.0371,32.7524,426.0371,42.7524,430.0371,38.7524,426.0371" style="stroke:#2563EB;stroke-width:1;"/><line style="stroke:#2563EB;stroke-width:1;stroke-dasharray:2,2;" x1="36.7524" x2="311.4009" y1="426.0371" y2="426.0371"/><text fill="#000000" font-family="Segoe UI" font-size="13" lengthAdjust="spacing" textLength="47.3599" x="48.7524" y="421.2949">200 OK</text></g><a href="/microservices/svc-gear-inventory/#integration-context" target="_top" title="/microservices/svc-gear-inventory/#integration-context" xlink:actuate="onRequest" xlink:href="/microservices/svc-gear-inventory/#integration-context" xlink:show="new" xlink:title="/microservices/svc-gear-inventory/#integration-context" xlink:type="simple"><text fill="#0000FF" font-family="Segoe UI" font-size="10" lengthAdjust="spacing" text-decoration="underline" textLength="204.8096" x="602.2476" y="14.668">&#11014; svc-gear-inventory Integration Context</text></a><!--SRC=[ZPFVRjem5CRl_HH7e5tofy0AGc8Jq8IXePP1EouwD9da4Am6cza6MbMztTFigVOaEmv_4WONJMuSVv-_u_oERPw4N77Dbp3ZmLEarLg6NHKh3NdVSoypHuTPy51jXOnWpcE36IN4EL_7rbVItl8bGcwCaK9uwEUoo_7N6cM0yCg0dhRMQhilLVbuNSLPCZtasef0hBYq7QL3r0UBrxXkTyui_s_QQ_Wrlv7O1cAE0o7n9APTgNRgbKJlgESJoRzg-EMhetI6m_T9J-HRPKzJWtfzLire5r1MlJfxOso1d9R1usDfAGAj3EgD2D2Kp2OeHCXrGSWDIglqIoalfCL8SokKB0I45fyj_Ftp6ywzq4-jqDrPfrF6hB0nGi-xXrAoW1iZ8hcaHQRqcdxy5E7R3zb32yu5gK2DjLp4Xh5LoXnotLYGc2CZx8QdSdlOXnwtkEKlYQStWVnDnslJOJhndVz7OXzlWdVncKwFxGwvvJDkwE0DbR6Hnl6tGP9rqo7uNQ_cTHcJr1bG6w9F5QXNLECOprVYGedYmYxZVAb7anygvNO6NeJMpQPJy5tW5eI4yPP74TLuw5C3K8RWoZAsumI5Juv6ytqjOJomOaCW4uBxEq932d6Cca17Z4JjxfMngTk91pjhjU3cGAVLOio9541WcZ3s1bxt7eh58ao-U2CFH0Wj-9mcPV3Hi70iF59R5cB6jeEhHRImeEQxz17QjPO6QkKQYBdZ07Dt9_PxEA2ebCjmzpKRvzhZVfCSUsoNNBq9-mS0]--></g></svg>