<svg xmlns="http://www.w3.org/2000/svg" xmlns:xlink="http://www.w3.org/1999/xlink" contentStyleType="text/css" data-diagram-type="SEQUENCE" height="718px" preserveAspectRatio="none" style="width:926px;height:718px;background:#FEFEFE;" version="1.1" viewBox="0 0 926 718" width="926px" zoomAndPan="magnify"><title>POST /reservations/{reservation_id}/participants</title><defs/><g><rect fill="#FEFEFE" height="718" style="stroke:none;stroke-width:1;" width="926" x="0" y="0"/><text fill="#000000" font-family="Segoe UI" font-size="14" font-weight="bold" lengthAdjust="spacing" textLength="355.5439" x="281.4797" y="41.3125">POST /reservations/{reservation_id}/participants</text><text fill="#000000" font-family="Segoe UI" font-size="14" font-weight="bold" lengthAdjust="spacing" textLength="243.4346" x="337.5344" y="57.8008">Add a participant to a reservation</text><g><title>API Gateway</title><rect fill="#059669" height="421.0371" style="stroke:#A23B72;stroke-width:1;" width="10" x="356.646" y="200.8633"/></g><g><title>svc-reservations</title><rect fill="#059669" height="362.416" style="stroke:#A23B72;stroke-width:1;" width="10" x="478.2017" y="230.1738"/></g><g><title>Guest Profiles</title><rect fill="#DBEAFE" height="29.3105" style="stroke:#A23B72;stroke-width:1;" width="10" x="629.9844" y="338.1055"/></g><g><title>PostgreSQL</title><rect fill="#FCE4EC" height="29.3105" style="stroke:#A23B72;stroke-width:1;" width="10" x="735.2354" y="440.0371"/></g><g><title>PostgreSQL</title><rect fill="#FCE4EC" height="29.3105" style="stroke:#A23B72;stroke-width:1;" width="10" x="735.2354" y="533.9688"/></g><g><title>Client</title><rect fill="#000000" fill-opacity="0.00000" height="505.6582" width="8" x="27.7524" y="134.2422"/><line style="stroke:#A23B72;stroke-width:0.5;stroke-dasharray:5,5;" x1="31" x2="31" y1="134.2422" y2="639.9004"/></g><g><title>API Gateway</title><rect fill="#000000" fill-opacity="0.00000" height="505.6582" width="8" x="357.646" y="134.2422"/><line style="stroke:#A23B72;stroke-width:0.5;stroke-dasharray:5,5;" x1="361.3569" x2="361.3569" y1="134.2422" y2="639.9004"/></g><g><title>svc-reservations</title><rect fill="#000000" fill-opacity="0.00000" height="505.6582" width="8" x="479.2017" y="134.2422"/><line style="stroke:#A23B72;stroke-width:0.5;stroke-dasharray:5,5;" x1="482.9351" x2="482.9351" y1="134.2422" y2="639.9004"/></g><g><title>Guest Profiles</title><rect fill="#000000" fill-opacity="0.00000" height="505.6582" width="8" x="630.9844" y="134.2422"/><line style="stroke:#A23B72;stroke-width:0.5;stroke-dasharray:5,5;" x1="634.1582" x2="634.1582" y1="134.2422" y2="639.9004"/></g><g><title>PostgreSQL</title><rect fill="#000000" fill-opacity="0.00000" height="505.6582" width="8" x="736.2354" y="134.2422"/><line style="stroke:#A23B72;stroke-width:0.5;stroke-dasharray:5,5;" x1="739.8105" x2="739.8105" y1="134.2422" y2="639.9004"/></g><g class="participant participant-head" data-participant="Client"><a href="/applications/" target="_top" title="/applications/" xlink:actuate="onRequest" xlink:href="/applications/" xlink:show="new" xlink:title="/applications/" xlink:type="simple"><rect fill="#E8F4F8" height="30.4883" rx="2.5" ry="2.5" style="stroke:#2E86AB;stroke-width:0.5;" width="53.5049" x="5" y="102.7539"/><text fill="#000000" font-family="Segoe UI" font-size="14" lengthAdjust="spacing" textLength="39.5049" x="12" y="123.2891">Client</text></a></g><g class="participant participant-tail" data-participant="Client"><a href="/applications/" target="_top" title="/applications/" xlink:actuate="onRequest" xlink:href="/applications/" xlink:show="new" xlink:title="/applications/" xlink:type="simple"><rect fill="#E8F4F8" height="30.4883" rx="2.5" ry="2.5" style="stroke:#2E86AB;stroke-width:0.5;" width="53.5049" x="5" y="638.9004"/><text fill="#000000" font-family="Segoe UI" font-size="14" lengthAdjust="spacing" textLength="39.5049" x="12" y="659.4355">Client</text></a></g><g class="participant participant-head" data-participant="GW"><rect fill="#DBEAFE" height="30.4883" rx="2.5" ry="2.5" style="stroke:#2E86AB;stroke-width:0.5;" width="96.5781" x="313.3569" y="102.7539"/><text fill="#000000" font-family="Segoe UI" font-size="14" lengthAdjust="spacing" textLength="82.5781" x="320.3569" y="123.2891">API Gateway</text></g><g class="participant participant-tail" data-participant="GW"><rect fill="#DBEAFE" height="30.4883" rx="2.5" ry="2.5" style="stroke:#2E86AB;stroke-width:0.5;" width="96.5781" x="313.3569" y="638.9004"/><text fill="#000000" font-family="Segoe UI" font-size="14" lengthAdjust="spacing" textLength="82.5781" x="320.3569" y="659.4355">API Gateway</text></g><g class="participant participant-head" data-participant="Svc"><a href="/microservices/svc-reservations/" target="_top" title="/microservices/svc-reservations/" xlink:actuate="onRequest" xlink:href="/microservices/svc-reservations/" xlink:show="new" xlink:title="/microservices/svc-reservations/" xlink:type="simple"><rect fill="#E8F4F8" height="30.4883" rx="2.5" ry="2.5" style="stroke:#2E86AB;stroke-width:0.5;" width="126.5332" x="419.9351" y="102.7539"/><text fill="#000000" font-family="Segoe UI" font-size="14" lengthAdjust="spacing" textLength="112.5332" x="426.9351" y="123.2891">svc-reservations</text></a></g><g class="participant participant-tail" data-participant="Svc"><a href="/microservices/svc-reservations/" target="_top" title="/microservices/svc-reservations/" xlink:actuate="onRequest" xlink:href="/microservices/svc-reservations/" xlink:show="new" xlink:title="/microservices/svc-reservations/" xlink:type="simple"><rect fill="#E8F4F8" height="30.4883" rx="2.5" ry="2.5" style="stroke:#2E86AB;stroke-width:0.5;" width="126.5332" x="419.9351" y="638.9004"/><text fill="#000000" font-family="Segoe UI" font-size="14" lengthAdjust="spacing" textLength="112.5332" x="426.9351" y="659.4355">svc-reservations</text></a></g><g class="participant participant-head" data-participant="GP"><a href="/microservices/svc-guest-profiles/" target="_top" title="/microservices/svc-guest-profiles/" xlink:actuate="onRequest" xlink:href="/microservices/svc-guest-profiles/" xlink:show="new" xlink:title="/microservices/svc-guest-profiles/" xlink:type="simple"><rect fill="#FFF8F0" height="30.4883" rx="2.5" ry="2.5" style="stroke:#2E86AB;stroke-width:0.5;" width="107.6523" x="581.1582" y="102.7539"/><text fill="#000000" font-family="Segoe UI" font-size="14" lengthAdjust="spacing" textLength="93.6523" x="588.1582" y="123.2891">Guest Profiles</text></a></g><g class="participant participant-tail" data-participant="GP"><a href="/microservices/svc-guest-profiles/" target="_top" title="/microservices/svc-guest-profiles/" xlink:actuate="onRequest" xlink:href="/microservices/svc-guest-profiles/" xlink:show="new" xlink:title="/microservices/svc-guest-profiles/" xlink:type="simple"><rect fill="#FFF8F0" height="30.4883" rx="2.5" ry="2.5" style="stroke:#2E86AB;stroke-width:0.5;" width="107.6523" x="581.1582" y="638.9004"/><text fill="#000000" font-family="Segoe UI" font-size="14" lengthAdjust="spacing" textLength="93.6523" x="588.1582" y="659.4355">Guest Profiles</text></a></g><g class="participant participant-head" data-participant="DB"><text fill="#000000" font-family="Segoe UI" font-size="14" lengthAdjust="spacing" textLength="76.8496" x="698.8105" y="131.2891">PostgreSQL</text><path d="M722.2354,81.7539 C722.2354,71.7539 740.2354,71.7539 740.2354,71.7539 C740.2354,71.7539 758.2354,71.7539 758.2354,81.7539 L758.2354,107.7539 C758.2354,117.7539 740.2354,117.7539 740.2354,117.7539 C740.2354,117.7539 722.2354,117.7539 722.2354,107.7539 L722.2354,81.7539" fill="#FCE4EC" style="stroke:#181818;stroke-width:0.5;"/><path d="M722.2354,81.7539 C722.2354,91.7539 740.2354,91.7539 740.2354,91.7539 C740.2354,91.7539 758.2354,91.7539 758.2354,81.7539" fill="none" style="stroke:#181818;stroke-width:0.5;"/></g><g class="participant participant-tail" data-participant="DB"><text fill="#000000" font-family="Segoe UI" font-size="14" lengthAdjust="spacing" textLength="76.8496" x="698.8105" y="652.4355">PostgreSQL</text><path d="M722.2354,665.3887 C722.2354,655.3887 740.2354,655.3887 740.2354,655.3887 C740.2354,655.3887 758.2354,655.3887 758.2354,665.3887 L758.2354,691.3887 C758.2354,701.3887 740.2354,701.3887 740.2354,701.3887 C740.2354,701.3887 722.2354,701.3887 722.2354,691.3887 L722.2354,665.3887" fill="#FCE4EC" style="stroke:#181818;stroke-width:0.5;"/><path d="M722.2354,665.3887 C722.2354,675.3887 740.2354,675.3887 740.2354,675.3887 C740.2354,675.3887 758.2354,675.3887 758.2354,665.3887" fill="none" style="stroke:#181818;stroke-width:0.5;"/></g><g><title>API Gateway</title><rect fill="#059669" height="421.0371" style="stroke:#A23B72;stroke-width:1;" width="10" x="356.646" y="200.8633"/></g><g><title>svc-reservations</title><rect fill="#059669" height="362.416" style="stroke:#A23B72;stroke-width:1;" width="10" x="478.2017" y="230.1738"/></g><g><title>Guest Profiles</title><rect fill="#DBEAFE" height="29.3105" style="stroke:#A23B72;stroke-width:1;" width="10" x="629.9844" y="338.1055"/></g><g><title>PostgreSQL</title><rect fill="#FCE4EC" height="29.3105" style="stroke:#A23B72;stroke-width:1;" width="10" x="735.2354" y="440.0371"/></g><g><title>PostgreSQL</title><rect fill="#FCE4EC" height="29.3105" style="stroke:#A23B72;stroke-width:1;" width="10" x="735.2354" y="533.9688"/></g><path d="M412,149.2422 L412,174.2422 L552,174.2422 L552,159.2422 L542,149.2422 L412,149.2422" fill="#FEFFDD" style="stroke:#181818;stroke-width:0.5;"/><path d="M542,149.2422 L542,159.2422 L552,159.2422 L542,149.2422" fill="#FEFFDD" style="stroke:#181818;stroke-width:0.5;"/><a href="/services/api/svc-reservations.html#/Reservations/addParticipant" target="_top" title="/services/api/svc-reservations.html#/Reservations/addParticipant" xlink:actuate="onRequest" xlink:href="/services/api/svc-reservations.html#/Reservations/addParticipant" xlink:show="new" xlink:title="/services/api/svc-reservations.html#/Reservations/addParticipant" xlink:type="simple"><text fill="#0000FF" font-family="Segoe UI" font-size="13" lengthAdjust="spacing" text-decoration="underline" textLength="119.4058" x="418" y="166.8105">View in Swagger UI</text></a><g class="message" data-participant-1="Client" data-participant-2="GW"><polygon fill="#059669" points="344.646,196.8633,354.646,200.8633,344.646,204.8633,348.646,200.8633" style="stroke:#059669;stroke-width:1;"/><line style="stroke:#059669;stroke-width:1;" x1="31.7524" x2="350.646" y1="200.8633" y2="200.8633"/><text fill="#000000" font-family="Segoe UI" font-size="13" lengthAdjust="spacing" textLength="305.8936" x="38.7524" y="196.1211">POST /reservations/{reservation_id}/participants</text></g><g class="message" data-participant-1="GW" data-participant-2="Svc"><polygon fill="#059669" points="466.2017,226.1738,476.2017,230.1738,466.2017,234.1738,470.2017,230.1738" style="stroke:#059669;stroke-width:1;"/><line style="stroke:#059669;stroke-width:1;" x1="366.646" x2="472.2017" y1="230.1738" y2="230.1738"/><text fill="#000000" font-family="Segoe UI" font-size="13" lengthAdjust="spacing" textLength="85.1348" x="373.646" y="225.4316">route request</text></g><path d="M493,243.1738 L493,268.1738 L651,268.1738 L651,253.1738 L641,243.1738 L493,243.1738" fill="#FEFFDD" style="stroke:#181818;stroke-width:0.5;"/><path d="M641,243.1738 L641,253.1738 L651,253.1738 L641,243.1738" fill="#FEFFDD" style="stroke:#181818;stroke-width:0.5;"/><text fill="#000000" font-family="Segoe UI" font-size="13" lengthAdjust="spacing" textLength="137.5728" x="499" y="260.7422">Validate request body</text><rect fill="#EEEEEE" height="3" style="stroke:#EEEEEE;stroke-width:1;" width="919.5034" x="0" y="294.1396"/><line style="stroke:#000000;stroke-width:1;" x1="0" x2="919.5034" y1="294.1396" y2="294.1396"/><line style="stroke:#000000;stroke-width:1;" x1="0" x2="919.5034" y1="297.1396" y2="297.1396"/><rect fill="#EEEEEE" height="23.3105" style="stroke:#000000;stroke-width:2;" width="190.6743" x="364.4146" y="283.4844"/><text fill="#000000" font-family="Segoe UI" font-size="13" font-weight="bold" lengthAdjust="spacing" textLength="172.3896" x="370.4146" y="300.0527">Cross-Service Integration</text><g class="message" data-participant-1="Svc" data-participant-2="GP"><polygon fill="#059669" points="617.9844,334.1055,627.9844,338.1055,617.9844,342.1055,621.9844,338.1055" style="stroke:#059669;stroke-width:1;"/><line style="stroke:#059669;stroke-width:1;" x1="488.2017" x2="623.9844" y1="338.1055" y2="338.1055"/><a href="/microservices/svc-guest-profiles/#get-guestsguest_id-get-guest-profile" target="_top" title="/microservices/svc-guest-profiles/#get-guestsguest_id-get-guest-profile" xlink:actuate="onRequest" xlink:href="/microservices/svc-guest-profiles/#get-guestsguest_id-get-guest-profile" xlink:show="new" xlink:title="/microservices/svc-guest-profiles/#get-guestsguest_id-get-guest-profile" xlink:type="simple"><text fill="#0000FF" font-family="Segoe UI" font-size="13" lengthAdjust="spacing" text-decoration="underline" textLength="122.7827" x="495.2017" y="333.3633">Validate participant</text></a></g><g class="message" data-participant-1="GP" data-participant-2="Svc"><polygon fill="#059669" points="499.2017,363.416,489.2017,367.416,499.2017,371.416,495.2017,367.416" style="stroke:#059669;stroke-width:1;"/><line style="stroke:#059669;stroke-width:1;stroke-dasharray:2,2;" x1="493.2017" x2="633.9844" y1="367.416" y2="367.416"/><text fill="#000000" font-family="Segoe UI" font-size="13" lengthAdjust="spacing" textLength="18.5859" x="505.2017" y="362.6738">OK</text></g><rect fill="#EEEEEE" height="3" style="stroke:#EEEEEE;stroke-width:1;" width="919.5034" x="0" y="396.0713"/><line style="stroke:#000000;stroke-width:1;" x1="0" x2="919.5034" y1="396.0713" y2="396.0713"/><line style="stroke:#000000;stroke-width:1;" x1="0" x2="919.5034" y1="399.0713" y2="399.0713"/><rect fill="#EEEEEE" height="23.3105" style="stroke:#000000;stroke-width:2;" width="80.3711" x="419.5662" y="385.416"/><text fill="#000000" font-family="Segoe UI" font-size="13" font-weight="bold" lengthAdjust="spacing" textLength="62.0864" x="425.5662" y="401.9844">Database</text><g class="message" data-participant-1="Svc" data-participant-2="DB"><polygon fill="#059669" points="723.2354,436.0371,733.2354,440.0371,723.2354,444.0371,727.2354,440.0371" style="stroke:#059669;stroke-width:1;"/><line style="stroke:#059669;stroke-width:1;" x1="488.2017" x2="729.2354" y1="440.0371" y2="440.0371"/><text fill="#000000" font-family="Segoe UI" font-size="13" lengthAdjust="spacing" textLength="177.4043" x="495.2017" y="435.2949">SELECT parent WHERE id = ?</text></g><g class="message" data-participant-1="DB" data-participant-2="Svc"><polygon fill="#059669" points="499.2017,465.3477,489.2017,469.3477,499.2017,473.3477,495.2017,469.3477" style="stroke:#059669;stroke-width:1;"/><line style="stroke:#059669;stroke-width:1;stroke-dasharray:2,2;" x1="493.2017" x2="739.2354" y1="469.3477" y2="469.3477"/><text fill="#000000" font-family="Segoe UI" font-size="13" lengthAdjust="spacing" textLength="67.2915" x="505.2017" y="464.6055">Parent row</text></g><path d="M745,482.3477 L745,507.3477 L914,507.3477 L914,492.3477 L904,482.3477 L745,482.3477" fill="#FEFFDD" style="stroke:#181818;stroke-width:0.5;"/><path d="M904,482.3477 L904,492.3477 L914,492.3477 L904,482.3477" fill="#FEFFDD" style="stroke:#181818;stroke-width:0.5;"/><text fill="#000000" font-family="Segoe UI" font-size="13" lengthAdjust="spacing" textLength="148.5034" x="751" y="499.916">404 if parent not found</text><g class="message" data-participant-1="Svc" data-participant-2="DB"><polygon fill="#059669" points="723.2354,529.9688,733.2354,533.9688,723.2354,537.9688,727.2354,533.9688" style="stroke:#059669;stroke-width:1;"/><line style="stroke:#059669;stroke-width:1;" x1="488.2017" x2="729.2354" y1="533.9688" y2="533.9688"/><text fill="#000000" font-family="Segoe UI" font-size="13" lengthAdjust="spacing" textLength="96.0718" x="495.2017" y="529.2266">INSERT INTO ...</text></g><g class="message" data-participant-1="DB" data-participant-2="Svc"><polygon fill="#059669" points="499.2017,559.2793,489.2017,563.2793,499.2017,567.2793,495.2017,563.2793" style="stroke:#059669;stroke-width:1;"/><line style="stroke:#059669;stroke-width:1;stroke-dasharray:2,2;" x1="493.2017" x2="739.2354" y1="563.2793" y2="563.2793"/><text fill="#000000" font-family="Segoe UI" font-size="13" lengthAdjust="spacing" textLength="76.4575" x="505.2017" y="558.5371">Created row</text></g><g class="message" data-participant-1="Svc" data-participant-2="GW"><polygon fill="#059669" points="377.646,588.5898,367.646,592.5898,377.646,596.5898,373.646,592.5898" style="stroke:#059669;stroke-width:1;"/><line style="stroke:#059669;stroke-width:1;stroke-dasharray:2,2;" x1="371.646" x2="482.2017" y1="592.5898" y2="592.5898"/><text fill="#000000" font-family="Segoe UI" font-size="13" lengthAdjust="spacing" textLength="77.7969" x="383.646" y="587.8477">201 Created</text></g><g class="message" data-participant-1="GW" data-participant-2="Client"><polygon fill="#059669" points="42.7524,617.9004,32.7524,621.9004,42.7524,625.9004,38.7524,621.9004" style="stroke:#059669;stroke-width:1;"/><line style="stroke:#059669;stroke-width:1;stroke-dasharray:2,2;" x1="36.7524" x2="360.646" y1="621.9004" y2="621.9004"/><text fill="#000000" font-family="Segoe UI" font-size="13" lengthAdjust="spacing" textLength="77.7969" x="48.7524" y="617.1582">201 Created</text></g><a href="/microservices/svc-reservations/#integration-context" target="_top" title="/microservices/svc-reservations/#integration-context" xlink:actuate="onRequest" xlink:href="/microservices/svc-reservations/#integration-context" xlink:show="new" xlink:title="/microservices/svc-reservations/#integration-context" xlink:type="simple"><text fill="#0000FF" font-family="Segoe UI" font-size="10" lengthAdjust="spacing" text-decoration="underline" textLength="191.5527" x="726.9507" y="14.668">&#11014; svc-reservations Integration Context</text></a><!--SRC=[bLHTRzem57tthxY2PpvAMQ6Ls0GXOMYepHhQFdHeCea9LaFCR0Ejghxkr-nNxPViEWaaePtMWGIsxxddtdjy4lN0upMLT0LpwZ-4KcpYm1AHa51rRFCbwe1GIng87Oz3MD18iK8aO0kwYRGZOdr9Lmmg7Wi5WvjnfPZEVcnOx3Du9e2VlfHYbvLgVZW_EpjFZbqgDVVvciPw86J0P0PfsTsp_k0LvBXfk-kqdMu2c_05c_2ObMZwhTD1fvN41-An579Ekaxpv11w9OVZO3m9NmfTPlKxdVbf8VQ6bATsXxmGicGKq-3-lh7YlXIAoIttcMgehL-Jp6ofvY9MZIgFDGjbiglvA2nxrF3xrqyuHi8u1uAL0cSpGZJN4GFtofj2eyJyNDXzvy5BOvthgRx5_I002eKpq08F2ac45ACLA-8irXMW2jAbcOwkrn7tiuhOJYcZxuvXH3NRqQSaRNG7rU70xgFRIhZZKHEmj_NV8TziTl12YNAqOKg3AyM2Homb7BblyuK6Mbjdq8Gnyq10DPrJXJvtXTAXPDxNIK8r7236ijksHKYCHW2nnSl6Zj4QMED0JzVyLSlrfLv5rSPrSGeQ10MpmordE-0nU3iQXaXyCqPbMHo0gKL8fdxjen7quh-ldb1VSuonv3woHnANo6Sqlm1qD0QbUOoLpj4ck8UdKqiUBZM8HPPtIoCUq3mLvY9u8gJN0mibLpKlbQLav5wF49DjXd6HupqtL0sPJizKyeiJrWv7UrZUJM5sb34VtZsO4PUrm_HNNqZ02gXaWE7U2OL-qGGNuDaJsvgQ6kPAxZxRrpRm07hmAQzKS0ikyqfkceIlnsB5uU18tAHEkza6ljZNGG0ip7kdtCpuqhElf_WtlO9wlVxl3Yp9C1oyqKBAkxTOgtconnPnnl36E0ZBFFbNwEYE_040]--></g></svg>