<svg xmlns="http://www.w3.org/2000/svg" xmlns:xlink="http://www.w3.org/1999/xlink" contentStyleType="text/css" data-diagram-type="SEQUENCE" height="568px" preserveAspectRatio="none" style="width:771px;height:568px;background:#FEFEFE;" version="1.1" viewBox="0 0 771 568" width="771px" zoomAndPan="magnify"><title>DELETE /media/{media_id}</title><defs/><g><rect fill="#FEFEFE" height="568" style="stroke:none;stroke-width:1;" width="771" x="0" y="0"/><text fill="#000000" font-family="Segoe UI" font-size="14" font-weight="bold" lengthAdjust="spacing" textLength="193.457" x="284.8" y="28.5352">DELETE /media/{media_id}</text><text fill="#000000" font-family="Segoe UI" font-size="14" font-weight="bold" lengthAdjust="spacing" textLength="143.8555" x="309.6008" y="45.0234">Delete a media item</text><g><title>API Gateway</title><rect fill="#DC2626" height="283.7949" style="stroke:#A23B72;stroke-width:1;" width="10" x="218.4194" y="188.0859"/></g><g><title>svc-media-gallery</title><rect fill="#DC2626" height="225.1738" style="stroke:#A23B72;stroke-width:1;" width="10" x="352.979" y="217.3965"/></g><g><title>PostgreSQL</title><rect fill="#FCE4EC" height="29.3105" style="stroke:#A23B72;stroke-width:1;" width="10" x="572.2563" y="290.0176"/></g><g><title>PostgreSQL</title><rect fill="#FCE4EC" height="29.3105" style="stroke:#A23B72;stroke-width:1;" width="10" x="572.2563" y="383.9492"/></g><g><title>Client</title><rect fill="#000000" fill-opacity="0.00000" height="368.416" width="8" x="27.7524" y="121.4648"/><line style="stroke:#A23B72;stroke-width:0.5;stroke-dasharray:5,5;" x1="31" x2="31" y1="121.4648" y2="489.8809"/></g><g><title>API Gateway</title><rect fill="#000000" fill-opacity="0.00000" height="368.416" width="8" x="219.4194" y="121.4648"/><line style="stroke:#A23B72;stroke-width:0.5;stroke-dasharray:5,5;" x1="223.1304" x2="223.1304" y1="121.4648" y2="489.8809"/></g><g><title>svc-media-gallery</title><rect fill="#000000" fill-opacity="0.00000" height="368.416" width="8" x="353.979" y="121.4648"/><line style="stroke:#A23B72;stroke-width:0.5;stroke-dasharray:5,5;" x1="357.6729" x2="357.6729" y1="121.4648" y2="489.8809"/></g><g><title>PostgreSQL</title><rect fill="#000000" fill-opacity="0.00000" height="368.416" width="8" x="573.2563" y="121.4648"/><line style="stroke:#A23B72;stroke-width:0.5;stroke-dasharray:5,5;" x1="576.8315" x2="576.8315" y1="121.4648" y2="489.8809"/></g><g class="participant participant-head" data-participant="Client"><rect fill="#E8F4F8" height="30.4883" rx="2.5" ry="2.5" style="stroke:#2E86AB;stroke-width:0.5;" width="53.5049" x="5" y="89.9766"/><text fill="#000000" font-family="Segoe UI" font-size="14" lengthAdjust="spacing" textLength="39.5049" x="12" y="110.5117">Client</text></g><g class="participant participant-tail" data-participant="Client"><rect fill="#E8F4F8" height="30.4883" rx="2.5" ry="2.5" style="stroke:#2E86AB;stroke-width:0.5;" width="53.5049" x="5" y="488.8809"/><text fill="#000000" font-family="Segoe UI" font-size="14" lengthAdjust="spacing" textLength="39.5049" x="12" y="509.416">Client</text></g><g class="participant participant-head" data-participant="GW"><rect fill="#DBEAFE" height="30.4883" rx="2.5" ry="2.5" style="stroke:#2E86AB;stroke-width:0.5;" width="96.5781" x="175.1304" y="89.9766"/><text fill="#000000" font-family="Segoe UI" font-size="14" lengthAdjust="spacing" textLength="82.5781" x="182.1304" y="110.5117">API Gateway</text></g><g class="participant participant-tail" data-participant="GW"><rect fill="#DBEAFE" height="30.4883" rx="2.5" ry="2.5" style="stroke:#2E86AB;stroke-width:0.5;" width="96.5781" x="175.1304" y="488.8809"/><text fill="#000000" font-family="Segoe UI" font-size="14" lengthAdjust="spacing" textLength="82.5781" x="182.1304" y="509.416">API Gateway</text></g><g class="participant participant-head" data-participant="Svc"><a href="/microservices/svc-media-gallery/" target="_top" title="/microservices/svc-media-gallery/" xlink:actuate="onRequest" xlink:href="/microservices/svc-media-gallery/" xlink:show="new" xlink:title="/microservices/svc-media-gallery/" xlink:type="simple"><rect fill="#E8F4F8" height="30.4883" rx="2.5" ry="2.5" style="stroke:#2E86AB;stroke-width:0.5;" width="138.6123" x="288.6729" y="89.9766"/><text fill="#000000" font-family="Segoe UI" font-size="14" lengthAdjust="spacing" textLength="124.6123" x="295.6729" y="110.5117">svc-media-gallery</text></a></g><g class="participant participant-tail" data-participant="Svc"><a href="/microservices/svc-media-gallery/" target="_top" title="/microservices/svc-media-gallery/" xlink:actuate="onRequest" xlink:href="/microservices/svc-media-gallery/" xlink:show="new" xlink:title="/microservices/svc-media-gallery/" xlink:type="simple"><rect fill="#E8F4F8" height="30.4883" rx="2.5" ry="2.5" style="stroke:#2E86AB;stroke-width:0.5;" width="138.6123" x="288.6729" y="488.8809"/><text fill="#000000" font-family="Segoe UI" font-size="14" lengthAdjust="spacing" textLength="124.6123" x="295.6729" y="509.416">svc-media-gallery</text></a></g><g class="participant participant-head" data-participant="DB"><text fill="#000000" font-family="Segoe UI" font-size="14" lengthAdjust="spacing" textLength="76.8496" x="535.8315" y="118.5117">PostgreSQL</text><path d="M559.2563,68.9766 C559.2563,58.9766 577.2563,58.9766 577.2563,58.9766 C577.2563,58.9766 595.2563,58.9766 595.2563,68.9766 L595.2563,94.9766 C595.2563,104.9766 577.2563,104.9766 577.2563,104.9766 C577.2563,104.9766 559.2563,104.9766 559.2563,94.9766 L559.2563,68.9766" fill="#FCE4EC" style="stroke:#181818;stroke-width:0.5;"/><path d="M559.2563,68.9766 C559.2563,78.9766 577.2563,78.9766 577.2563,78.9766 C577.2563,78.9766 595.2563,78.9766 595.2563,68.9766" fill="none" style="stroke:#181818;stroke-width:0.5;"/></g><g class="participant participant-tail" data-participant="DB"><text fill="#000000" font-family="Segoe UI" font-size="14" lengthAdjust="spacing" textLength="76.8496" x="535.8315" y="502.416">PostgreSQL</text><path d="M559.2563,515.3691 C559.2563,505.3691 577.2563,505.3691 577.2563,505.3691 C577.2563,505.3691 595.2563,505.3691 595.2563,515.3691 L595.2563,541.3691 C595.2563,551.3691 577.2563,551.3691 577.2563,551.3691 C577.2563,551.3691 559.2563,551.3691 559.2563,541.3691 L559.2563,515.3691" fill="#FCE4EC" style="stroke:#181818;stroke-width:0.5;"/><path d="M559.2563,515.3691 C559.2563,525.3691 577.2563,525.3691 577.2563,525.3691 C577.2563,525.3691 595.2563,525.3691 595.2563,515.3691" fill="none" style="stroke:#181818;stroke-width:0.5;"/></g><g><title>API Gateway</title><rect fill="#DC2626" height="283.7949" style="stroke:#A23B72;stroke-width:1;" width="10" x="218.4194" y="188.0859"/></g><g><title>svc-media-gallery</title><rect fill="#DC2626" height="225.1738" style="stroke:#A23B72;stroke-width:1;" width="10" x="352.979" y="217.3965"/></g><g><title>PostgreSQL</title><rect fill="#FCE4EC" height="29.3105" style="stroke:#A23B72;stroke-width:1;" width="10" x="572.2563" y="290.0176"/></g><g><title>PostgreSQL</title><rect fill="#FCE4EC" height="29.3105" style="stroke:#A23B72;stroke-width:1;" width="10" x="572.2563" y="383.9492"/></g><path d="M287,136.4648 L287,161.4648 L427,161.4648 L427,146.4648 L417,136.4648 L287,136.4648" fill="#FEFFDD" style="stroke:#181818;stroke-width:0.5;"/><path d="M417,136.4648 L417,146.4648 L427,146.4648 L417,136.4648" fill="#FEFFDD" style="stroke:#181818;stroke-width:0.5;"/><a href="/services/api/svc-media-gallery.html#/Media/deleteMedia" target="_top" title="/services/api/svc-media-gallery.html#/Media/deleteMedia" xlink:actuate="onRequest" xlink:href="/services/api/svc-media-gallery.html#/Media/deleteMedia" xlink:show="new" xlink:title="/services/api/svc-media-gallery.html#/Media/deleteMedia" xlink:type="simple"><text fill="#0000FF" font-family="Segoe UI" font-size="13" lengthAdjust="spacing" text-decoration="underline" textLength="119.4058" x="293" y="154.0332">View in Swagger UI</text></a><g class="message" data-participant-1="Client" data-participant-2="GW"><polygon fill="#DC2626" points="206.4194,184.0859,216.4194,188.0859,206.4194,192.0859,210.4194,188.0859" style="stroke:#DC2626;stroke-width:1;"/><line style="stroke:#DC2626;stroke-width:1;" x1="31.7524" x2="212.4194" y1="188.0859" y2="188.0859"/><text fill="#000000" font-family="Segoe UI" font-size="13" lengthAdjust="spacing" textLength="167.667" x="38.7524" y="183.3438">DELETE /media/{media_id}</text></g><g class="message" data-participant-1="GW" data-participant-2="Svc"><polygon fill="#DC2626" points="340.979,213.3965,350.979,217.3965,340.979,221.3965,344.979,217.3965" style="stroke:#DC2626;stroke-width:1;"/><line style="stroke:#DC2626;stroke-width:1;" x1="228.4194" x2="346.979" y1="217.3965" y2="217.3965"/><text fill="#000000" font-family="Segoe UI" font-size="13" lengthAdjust="spacing" textLength="85.1348" x="235.4194" y="212.6543">route request</text></g><rect fill="#EEEEEE" height="3" style="stroke:#EEEEEE;stroke-width:1;" width="764.0571" x="0" y="246.0518"/><line style="stroke:#000000;stroke-width:1;" x1="0" x2="764.0571" y1="246.0518" y2="246.0518"/><line style="stroke:#000000;stroke-width:1;" x1="0" x2="764.0571" y1="249.0518" y2="249.0518"/><rect fill="#EEEEEE" height="23.3105" style="stroke:#000000;stroke-width:2;" width="80.3711" x="341.843" y="235.3965"/><text fill="#000000" font-family="Segoe UI" font-size="13" font-weight="bold" lengthAdjust="spacing" textLength="62.0864" x="347.843" y="251.9648">Database</text><g class="message" data-participant-1="Svc" data-participant-2="DB"><polygon fill="#DC2626" points="560.2563,286.0176,570.2563,290.0176,560.2563,294.0176,564.2563,290.0176" style="stroke:#DC2626;stroke-width:1;"/><line style="stroke:#DC2626;stroke-width:1;" x1="362.979" x2="566.2563" y1="290.0176" y2="290.0176"/><text fill="#000000" font-family="Segoe UI" font-size="13" lengthAdjust="spacing" textLength="148.8906" x="369.979" y="285.2754">SELECT ... WHERE id = ?</text></g><g class="message" data-participant-1="DB" data-participant-2="Svc"><polygon fill="#DC2626" points="373.979,315.3281,363.979,319.3281,373.979,323.3281,369.979,319.3281" style="stroke:#DC2626;stroke-width:1;"/><line style="stroke:#DC2626;stroke-width:1;stroke-dasharray:2,2;" x1="367.979" x2="576.2563" y1="319.3281" y2="319.3281"/><text fill="#000000" font-family="Segoe UI" font-size="13" lengthAdjust="spacing" textLength="26.2222" x="379.979" y="314.5859">Row</text></g><path d="M582,332.3281 L582,357.3281 L759,357.3281 L759,342.3281 L749,332.3281 L582,332.3281" fill="#FEFFDD" style="stroke:#181818;stroke-width:0.5;"/><path d="M749,332.3281 L749,342.3281 L759,342.3281 L749,332.3281" fill="#FEFFDD" style="stroke:#181818;stroke-width:0.5;"/><text fill="#000000" font-family="Segoe UI" font-size="13" lengthAdjust="spacing" textLength="156.0571" x="588" y="349.8965">Returns 404 if not found</text><g class="message" data-participant-1="Svc" data-participant-2="DB"><polygon fill="#DC2626" points="560.2563,379.9492,570.2563,383.9492,560.2563,387.9492,564.2563,383.9492" style="stroke:#DC2626;stroke-width:1;"/><line style="stroke:#DC2626;stroke-width:1;" x1="362.979" x2="566.2563" y1="383.9492" y2="383.9492"/><text fill="#000000" font-family="Segoe UI" font-size="13" lengthAdjust="spacing" textLength="190.2773" x="369.979" y="379.207">DELETE FROM ... WHERE id = ?</text></g><g class="message" data-participant-1="DB" data-participant-2="Svc"><polygon fill="#DC2626" points="373.979,409.2598,363.979,413.2598,373.979,417.2598,369.979,413.2598" style="stroke:#DC2626;stroke-width:1;"/><line style="stroke:#DC2626;stroke-width:1;stroke-dasharray:2,2;" x1="367.979" x2="576.2563" y1="413.2598" y2="413.2598"/><text fill="#000000" font-family="Segoe UI" font-size="13" lengthAdjust="spacing" textLength="18.5859" x="379.979" y="408.5176">OK</text></g><g class="message" data-participant-1="Svc" data-participant-2="GW"><polygon fill="#DC2626" points="239.4194,438.5703,229.4194,442.5703,239.4194,446.5703,235.4194,442.5703" style="stroke:#DC2626;stroke-width:1;"/><line style="stroke:#DC2626;stroke-width:1;stroke-dasharray:2,2;" x1="233.4194" x2="356.979" y1="442.5703" y2="442.5703"/><text fill="#000000" font-family="Segoe UI" font-size="13" lengthAdjust="spacing" textLength="100.5596" x="245.4194" y="437.8281">204 No Content</text></g><g class="message" data-participant-1="GW" data-participant-2="Client"><polygon fill="#DC2626" points="42.7524,467.8809,32.7524,471.8809,42.7524,475.8809,38.7524,471.8809" style="stroke:#DC2626;stroke-width:1;"/><line style="stroke:#DC2626;stroke-width:1;stroke-dasharray:2,2;" x1="36.7524" x2="222.4194" y1="471.8809" y2="471.8809"/><text fill="#000000" font-family="Segoe UI" font-size="13" lengthAdjust="spacing" textLength="100.5596" x="48.7524" y="467.1387">204 No Content</text></g><!--SRC=[dLDTRzem57tthxY2Pw0510Y9JGGSLerI1kruwD1aaakmcjZCCMHJrVy-stmbPTl3aeTOFiVdt7kkaxvmiMMA9R1YmKkav4w40nbB1MMVsfUaPqQwOQ7Ck8XWpU8KSqY8QxQBjI-5dh04eJJ7I28ytPNon_773aM0y4h0F7sbP7Qq2eDwgzvosrEcD0_ubWdjIHMYEbBgjDFgUrUKzqNJZj_qEuusvciSSu45cNwzuRNh3lVapmBattRyczipT1M7xnlSmHEfYwf1kxrgvB0_HDcWRV96YEOwHXZICNsaK4imvApswZxVUVZsJGmnHet0mEq1rvWGihqq3AL1p57e4h0K3iiYt9_UmOXfpDWlnnaje3pqQDzCii1Bzq75ULGY5iUe3kpvFe3dvrh20oLJL7iUO5gxejQMotFI8TDinL8pywbCTQHm_cNif8QUwNj0ctH0Y32XWDoZiWOc9cDnLcTRVkrGtUWaBjVkNJwXoyIjuIl73BY0USQYoEWztIsN14K8reAGGo9G-M3xxlurPy82pVSc9HVFyVQPfJbd4-Y26Pu1bRsngRwmBNYYaruFXgVcUpr2B6W4JDzTc1lZmIDKgrLOVA8p2Zo47doyAENICSlAsNWcCn9YZdR8Jl5eeq6k3-epr3ibKcZUD86lRUkmjhUjMCEnUN_sSFyVXJnyVbV7GVkKRDrOJoGCp1zlhs2EQYTiepJCupJ-nHujo6y0]--></g></svg>