<?plantuml 1.2026.2?><svg xmlns="http://www.w3.org/2000/svg" xmlns:xlink="http://www.w3.org/1999/xlink" contentStyleType="text/css" data-diagram-type="SEQUENCE" height="1727px" preserveAspectRatio="none" style="width:939px;height:1727px;background:#FEFEFE;" version="1.1" viewBox="0 0 939 1727" width="939px" zoomAndPan="magnify"><title>POST /incidents
File a safety incident report
&lt;size:10&gt;&lt;color:#7c3aed&gt;ARCHITECT OVERRIDE &#8212; enriched with severity classification and escalation&lt;/color&gt;&lt;/size&gt;</title><defs/><g><rect fill="#FEFEFE" height="1727" style="stroke:none;stroke-width:1;" width="939" x="0" y="0"/><text fill="#000000" font-family="'Segoe UI'" font-size="14" font-weight="bold" lengthAdjust="spacing" textLength="116.3135" x="407.5354" y="41.3125">POST /incidents</text><text fill="#000000" font-family="'Segoe UI'" font-size="14" font-weight="bold" lengthAdjust="spacing" textLength="198.9463" x="366.219" y="57.8008">File a safety incident report</text><text fill="#7C3AED" font-family="'Segoe UI'" font-size="10" font-weight="bold" lengthAdjust="spacing" textLength="395.21" x="268.0872" y="70.4219">ARCHITECT OVERRIDE &#8212; enriched with severity classification and escalation</text><g><title>API Gateway</title><rect fill="#DC2626" height="1418.8086" style="stroke:#181818;stroke-width:1;" width="10" x="151.4136" y="212.6406"/></g><g><title>svc-safety-compliance</title><rect fill="#DC2626" height="1360.1875" style="stroke:#181818;stroke-width:1;" width="10" x="332.6729" y="241.9512"/></g><g><title>Guest Profiles</title><rect fill="#EDE9FE" height="59.9316" style="stroke:#181818;stroke-width:1;" width="10" x="543.6899" y="426.4355"/></g><g><title>Guide Mgmt</title><rect fill="#E0E7FF" height="59.9316" style="stroke:#181818;stroke-width:1;" width="10" x="656.0103" y="558.9883"/></g><g><title>PostgreSQL</title><rect fill="#FEF9C3" height="29.3105" style="stroke:#181818;stroke-width:1;" width="10" x="865.9595" y="1328.7227"/></g><g><title>PostgreSQL</title><rect fill="#FEF9C3" height="29.3105" style="stroke:#181818;stroke-width:1;" width="10" x="865.9595" y="1417.9648"/></g><rect fill="none" height="494.3184" rx="4" ry="4" style="stroke:#000000;stroke-width:1.5;" width="291.6973" x="337" y="677.2305"/><rect fill="none" height="226.416" rx="4" ry="4" style="stroke:#000000;stroke-width:1.5;" width="679.3403" x="243.0439" y="1228.8594"/><g class="participant-lifeline" data-entity-uid="part1" data-qualified-name="Client" id="part1-lifeline"><g><title>Client</title><rect fill="#000000" fill-opacity="0.00000" height="1503.4297" width="8" x="27.7524" y="146.0195"/><line style="stroke:#6B7280;stroke-width:0.5;stroke-dasharray:5,5;" x1="31" x2="31" y1="146.0195" y2="1649.4492"/></g></g><g class="participant-lifeline" data-entity-uid="part2" data-qualified-name="GW" id="part2-lifeline"><g><title>API Gateway</title><rect fill="#000000" fill-opacity="0.00000" height="1503.4297" width="8" x="152.4136" y="146.0195"/><line style="stroke:#6B7280;stroke-width:0.5;stroke-dasharray:5,5;" x1="156.1245" x2="156.1245" y1="146.0195" y2="1649.4492"/></g></g><g class="participant-lifeline" data-entity-uid="part3" data-qualified-name="Svc" id="part3-lifeline"><g><title>svc-safety-compliance</title><rect fill="#000000" fill-opacity="0.00000" height="1503.4297" width="8" x="333.6729" y="146.0195"/><line style="stroke:#6B7280;stroke-width:0.5;stroke-dasharray:5,5;" x1="337.0439" x2="337.0439" y1="146.0195" y2="1649.4492"/></g></g><g class="participant-lifeline" data-entity-uid="part4" data-qualified-name="GP" id="part4-lifeline"><g><title>Guest Profiles</title><rect fill="#000000" fill-opacity="0.00000" height="1503.4297" width="8" x="544.6899" y="146.0195"/><line style="stroke:#6B7280;stroke-width:0.5;stroke-dasharray:5,5;" x1="547.8638" x2="547.8638" y1="146.0195" y2="1649.4492"/></g></g><g class="participant-lifeline" data-entity-uid="part5" data-qualified-name="GM" id="part5-lifeline"><g><title>Guide Mgmt</title><rect fill="#000000" fill-opacity="0.00000" height="1503.4297" width="8" x="657.0103" y="146.0195"/><line style="stroke:#6B7280;stroke-width:0.5;stroke-dasharray:5,5;" x1="660.5161" x2="660.5161" y1="146.0195" y2="1649.4492"/></g></g><g class="participant-lifeline" data-entity-uid="part6" data-qualified-name="Ntfy" id="part6-lifeline"><g><title>Notifications</title><rect fill="#000000" fill-opacity="0.00000" height="1503.4297" width="8" x="765.5195" y="146.0195"/><line style="stroke:#6B7280;stroke-width:0.5;stroke-dasharray:5,5;" x1="769.5044" x2="769.5044" y1="146.0195" y2="1649.4492"/></g></g><g class="participant-lifeline" data-entity-uid="part7" data-qualified-name="DB" id="part7-lifeline"><g><title>PostgreSQL</title><rect fill="#000000" fill-opacity="0.00000" height="1503.4297" width="8" x="866.9595" y="146.0195"/><line style="stroke:#6B7280;stroke-width:0.5;stroke-dasharray:5,5;" x1="870.5347" x2="870.5347" y1="146.0195" y2="1649.4492"/></g></g><g class="participant participant-head" data-entity-uid="part1" data-qualified-name="Client" id="part1-head"><a href="/applications/" target="_top" title="/applications/" xlink:actuate="onRequest" xlink:href="/applications/" xlink:show="new" xlink:title="/applications/" xlink:type="simple"><rect fill="#F9FAFB" height="30.4883" rx="4" ry="4" style="stroke:#374151;stroke-width:0.5;" width="53.5049" x="5" y="114.5313"/><text fill="#000000" font-family="'Segoe UI'" font-size="14" lengthAdjust="spacing" textLength="39.5049" x="12" y="135.0664">Client</text></a></g><g class="participant participant-tail" data-entity-uid="part1" data-qualified-name="Client" id="part1-tail"><a href="/applications/" target="_top" title="/applications/" xlink:actuate="onRequest" xlink:href="/applications/" xlink:show="new" xlink:title="/applications/" xlink:type="simple"><rect fill="#F9FAFB" height="30.4883" rx="4" ry="4" style="stroke:#374151;stroke-width:0.5;" width="53.5049" x="5" y="1648.4492"/><text fill="#000000" font-family="'Segoe UI'" font-size="14" lengthAdjust="spacing" textLength="39.5049" x="12" y="1668.9844">Client</text></a></g><g class="participant participant-head" data-entity-uid="part2" data-qualified-name="GW" id="part2-head"><a href="/actors/#api-gateway" target="_top" title="/actors/#api-gateway" xlink:actuate="onRequest" xlink:href="/actors/#api-gateway" xlink:show="new" xlink:title="/actors/#api-gateway" xlink:type="simple"><rect fill="#E0F2FE" height="30.4883" rx="4" ry="4" style="stroke:#374151;stroke-width:0.5;" width="96.5781" x="108.1245" y="114.5313"/><text fill="#000000" font-family="'Segoe UI'" font-size="14" lengthAdjust="spacing" textLength="82.5781" x="115.1245" y="135.0664">API Gateway</text></a></g><g class="participant participant-tail" data-entity-uid="part2" data-qualified-name="GW" id="part2-tail"><a href="/actors/#api-gateway" target="_top" title="/actors/#api-gateway" xlink:actuate="onRequest" xlink:href="/actors/#api-gateway" xlink:show="new" xlink:title="/actors/#api-gateway" xlink:type="simple"><rect fill="#E0F2FE" height="30.4883" rx="4" ry="4" style="stroke:#374151;stroke-width:0.5;" width="96.5781" x="108.1245" y="1648.4492"/><text fill="#000000" font-family="'Segoe UI'" font-size="14" lengthAdjust="spacing" textLength="82.5781" x="115.1245" y="1668.9844">API Gateway</text></a></g><g class="participant participant-head" data-entity-uid="part3" data-qualified-name="Svc" id="part3-head"><a href="/microservices/svc-safety-compliance/" target="_top" title="/microservices/svc-safety-compliance/" xlink:actuate="onRequest" xlink:href="/microservices/svc-safety-compliance/" xlink:show="new" xlink:title="/microservices/svc-safety-compliance/" xlink:type="simple"><rect fill="#FEE2E2" height="30.4883" rx="4" ry="4" style="stroke:#374151;stroke-width:0.5;" width="169.2578" x="253.0439" y="114.5313"/><text fill="#000000" font-family="'Segoe UI'" font-size="14" lengthAdjust="spacing" textLength="155.2578" x="260.0439" y="135.0664">svc-safety-compliance</text></a></g><g class="participant participant-tail" data-entity-uid="part3" data-qualified-name="Svc" id="part3-tail"><a href="/microservices/svc-safety-compliance/" target="_top" title="/microservices/svc-safety-compliance/" xlink:actuate="onRequest" xlink:href="/microservices/svc-safety-compliance/" xlink:show="new" xlink:title="/microservices/svc-safety-compliance/" xlink:type="simple"><rect fill="#FEE2E2" height="30.4883" rx="4" ry="4" style="stroke:#374151;stroke-width:0.5;" width="169.2578" x="253.0439" y="1648.4492"/><text fill="#000000" font-family="'Segoe UI'" font-size="14" lengthAdjust="spacing" textLength="155.2578" x="260.0439" y="1668.9844">svc-safety-compliance</text></a></g><g class="participant participant-head" data-entity-uid="part4" data-qualified-name="GP" id="part4-head"><a href="/microservices/svc-guest-profiles/" target="_top" title="/microservices/svc-guest-profiles/" xlink:actuate="onRequest" xlink:href="/microservices/svc-guest-profiles/" xlink:show="new" xlink:title="/microservices/svc-guest-profiles/" xlink:type="simple"><rect fill="#EDE9FE" height="30.4883" rx="4" ry="4" style="stroke:#374151;stroke-width:0.5;" width="107.6523" x="494.8638" y="114.5313"/><text fill="#000000" font-family="'Segoe UI'" font-size="14" lengthAdjust="spacing" textLength="93.6523" x="501.8638" y="135.0664">Guest Profiles</text></a></g><g class="participant participant-tail" data-entity-uid="part4" data-qualified-name="GP" id="part4-tail"><a href="/microservices/svc-guest-profiles/" target="_top" title="/microservices/svc-guest-profiles/" xlink:actuate="onRequest" xlink:href="/microservices/svc-guest-profiles/" xlink:show="new" xlink:title="/microservices/svc-guest-profiles/" xlink:type="simple"><rect fill="#EDE9FE" height="30.4883" rx="4" ry="4" style="stroke:#374151;stroke-width:0.5;" width="107.6523" x="494.8638" y="1648.4492"/><text fill="#000000" font-family="'Segoe UI'" font-size="14" lengthAdjust="spacing" textLength="93.6523" x="501.8638" y="1668.9844">Guest Profiles</text></a></g><g class="participant participant-head" data-entity-uid="part5" data-qualified-name="GM" id="part5-head"><a href="/microservices/svc-guide-management/" target="_top" title="/microservices/svc-guide-management/" xlink:actuate="onRequest" xlink:href="/microservices/svc-guide-management/" xlink:show="new" xlink:title="/microservices/svc-guide-management/" xlink:type="simple"><rect fill="#E0E7FF" height="30.4883" rx="4" ry="4" style="stroke:#374151;stroke-width:0.5;" width="96.9883" x="612.5161" y="114.5313"/><text fill="#000000" font-family="'Segoe UI'" font-size="14" lengthAdjust="spacing" textLength="82.9883" x="619.5161" y="135.0664">Guide Mgmt</text></a></g><g class="participant participant-tail" data-entity-uid="part5" data-qualified-name="GM" id="part5-tail"><a href="/microservices/svc-guide-management/" target="_top" title="/microservices/svc-guide-management/" xlink:actuate="onRequest" xlink:href="/microservices/svc-guide-management/" xlink:show="new" xlink:title="/microservices/svc-guide-management/" xlink:type="simple"><rect fill="#E0E7FF" height="30.4883" rx="4" ry="4" style="stroke:#374151;stroke-width:0.5;" width="96.9883" x="612.5161" y="1648.4492"/><text fill="#000000" font-family="'Segoe UI'" font-size="14" lengthAdjust="spacing" textLength="82.9883" x="619.5161" y="1668.9844">Guide Mgmt</text></a></g><g class="participant participant-head" data-entity-uid="part6" data-qualified-name="Ntfy" id="part6-head"><a href="/microservices/svc-notifications/" target="_top" title="/microservices/svc-notifications/" xlink:actuate="onRequest" xlink:href="/microservices/svc-notifications/" xlink:show="new" xlink:title="/microservices/svc-notifications/" xlink:type="simple"><rect fill="#F1F5F9" height="30.4883" rx="4" ry="4" style="stroke:#374151;stroke-width:0.5;" width="100.0303" x="719.5044" y="114.5313"/><text fill="#000000" font-family="'Segoe UI'" font-size="14" lengthAdjust="spacing" textLength="86.0303" x="726.5044" y="135.0664">Notifications</text></a></g><g class="participant participant-tail" data-entity-uid="part6" data-qualified-name="Ntfy" id="part6-tail"><a href="/microservices/svc-notifications/" target="_top" title="/microservices/svc-notifications/" xlink:actuate="onRequest" xlink:href="/microservices/svc-notifications/" xlink:show="new" xlink:title="/microservices/svc-notifications/" xlink:type="simple"><rect fill="#F1F5F9" height="30.4883" rx="4" ry="4" style="stroke:#374151;stroke-width:0.5;" width="100.0303" x="719.5044" y="1648.4492"/><text fill="#000000" font-family="'Segoe UI'" font-size="14" lengthAdjust="spacing" textLength="86.0303" x="726.5044" y="1668.9844">Notifications</text></a></g><g class="participant participant-head" data-entity-uid="part7" data-qualified-name="DB" id="part7-head"><a href="/microservices/svc-safety-compliance/#data-store" target="_top" title="/microservices/svc-safety-compliance/#data-store" xlink:actuate="onRequest" xlink:href="/microservices/svc-safety-compliance/#data-store" xlink:show="new" xlink:title="/microservices/svc-safety-compliance/#data-store" xlink:type="simple"><text fill="#000000" font-family="'Segoe UI'" font-size="14" lengthAdjust="spacing" textLength="76.8496" x="829.5347" y="143.0664">PostgreSQL</text><path d="M852.9595,93.5313 C852.9595,83.5313 870.9595,83.5313 870.9595,83.5313 C870.9595,83.5313 888.9595,83.5313 888.9595,93.5313 L888.9595,119.5313 C888.9595,129.5313 870.9595,129.5313 870.9595,129.5313 C870.9595,129.5313 852.9595,129.5313 852.9595,119.5313 L852.9595,93.5313" fill="#FEF9C3" style="stroke:#181818;stroke-width:0.5;"/><path d="M852.9595,93.5313 C852.9595,103.5313 870.9595,103.5313 870.9595,103.5313 C870.9595,103.5313 888.9595,103.5313 888.9595,93.5313" fill="none" style="stroke:#181818;stroke-width:0.5;"/></a></g><g class="participant participant-tail" data-entity-uid="part7" data-qualified-name="DB" id="part7-tail"><a href="/microservices/svc-safety-compliance/#data-store" target="_top" title="/microservices/svc-safety-compliance/#data-store" xlink:actuate="onRequest" xlink:href="/microservices/svc-safety-compliance/#data-store" xlink:show="new" xlink:title="/microservices/svc-safety-compliance/#data-store" xlink:type="simple"><text fill="#000000" font-family="'Segoe UI'" font-size="14" lengthAdjust="spacing" textLength="76.8496" x="829.5347" y="1661.9844">PostgreSQL</text><path d="M852.9595,1674.9375 C852.9595,1664.9375 870.9595,1664.9375 870.9595,1664.9375 C870.9595,1664.9375 888.9595,1664.9375 888.9595,1674.9375 L888.9595,1700.9375 C888.9595,1710.9375 870.9595,1710.9375 870.9595,1710.9375 C870.9595,1710.9375 852.9595,1710.9375 852.9595,1700.9375 L852.9595,1674.9375" fill="#FEF9C3" style="stroke:#181818;stroke-width:0.5;"/><path d="M852.9595,1674.9375 C852.9595,1684.9375 870.9595,1684.9375 870.9595,1684.9375 C870.9595,1684.9375 888.9595,1684.9375 888.9595,1674.9375" fill="none" style="stroke:#181818;stroke-width:0.5;"/></a></g><g><title>API Gateway</title><rect fill="#DC2626" height="1418.8086" style="stroke:#181818;stroke-width:1;" width="10" x="151.4136" y="212.6406"/></g><g><title>svc-safety-compliance</title><rect fill="#DC2626" height="1360.1875" style="stroke:#181818;stroke-width:1;" width="10" x="332.6729" y="241.9512"/></g><g><title>Guest Profiles</title><rect fill="#EDE9FE" height="59.9316" style="stroke:#181818;stroke-width:1;" width="10" x="543.6899" y="426.4355"/></g><g><title>Guide Mgmt</title><rect fill="#E0E7FF" height="59.9316" style="stroke:#181818;stroke-width:1;" width="10" x="656.0103" y="558.9883"/></g><g><title>PostgreSQL</title><rect fill="#FEF9C3" height="29.3105" style="stroke:#181818;stroke-width:1;" width="10" x="865.9595" y="1328.7227"/></g><g><title>PostgreSQL</title><rect fill="#FEF9C3" height="29.3105" style="stroke:#181818;stroke-width:1;" width="10" x="865.9595" y="1417.9648"/></g><path d="M267,165.0195 L267,182.0195 A4,4 0 0 0 271,186.0195 L403,186.0195 A4,4 0 0 0 407,182.0195 L407,171.0195 L397,161.0195 L271,161.0195 A4,4 0 0 0 267,165.0195" fill="#FEFFDD" style="stroke:#181818;stroke-width:0.5;"/><path d="M397,161.0195 L397,169.0195 A2,2 0 0 0 399,171.0195 L407,171.0195 L397,161.0195" fill="#FEFFDD" style="stroke:#181818;stroke-width:0.5;"/><a href="/services/api/svc-safety-compliance.html" target="_top" title="/services/api/svc-safety-compliance.html" xlink:actuate="onRequest" xlink:href="/services/api/svc-safety-compliance.html" xlink:show="new" xlink:title="/services/api/svc-safety-compliance.html" xlink:type="simple"><text fill="#0000FF" font-family="'Segoe UI'" font-size="13" lengthAdjust="spacing" text-decoration="underline" textLength="119.4058" x="273" y="178.5879">View in Swagger UI</text></a><g class="message" data-entity-1="part1" data-entity-2="part2" id="msg1"><polygon fill="#DC2626" points="139.4136,208.6406,149.4136,212.6406,139.4136,216.6406,143.4136,212.6406" style="stroke:#DC2626;stroke-width:1;"/><line style="stroke:#DC2626;stroke-width:1;" x1="31.7524" x2="145.4136" y1="212.6406" y2="212.6406"/><text fill="#000000" font-family="'Segoe UI'" font-size="13" lengthAdjust="spacing" textLength="100.6611" x="38.7524" y="207.8984">POST /incidents</text></g><g class="message" data-entity-1="part2" data-entity-2="part3" id="msg2"><polygon fill="#DC2626" points="320.6729,237.9512,330.6729,241.9512,320.6729,245.9512,324.6729,241.9512" style="stroke:#DC2626;stroke-width:1;"/><line style="stroke:#DC2626;stroke-width:1;" x1="161.4136" x2="326.6729" y1="241.9512" y2="241.9512"/><text fill="#000000" font-family="'Segoe UI'" font-size="13" lengthAdjust="spacing" textLength="85.1348" x="168.4136" y="237.209">route request</text></g><path d="M347,258.9512 L347,351.9512 A4,4 0 0 0 351,355.9512 L626,355.9512 A4,4 0 0 0 630,351.9512 L630,264.9512 L620,254.9512 L351,254.9512 A4,4 0 0 0 347,258.9512" fill="#FEFFDD" style="stroke:#181818;stroke-width:0.5;"/><path d="M620,254.9512 L620,262.9512 A2,2 0 0 0 622,264.9512 L630,264.9512 L620,254.9512" fill="#FEFFDD" style="stroke:#181818;stroke-width:0.5;"/><text fill="#000000" font-family="'Segoe UI'" font-size="13" lengthAdjust="spacing" textLength="148.3955" x="353" y="272.5195">Validate incident report</text><text fill="#000000" font-family="'Segoe UI'" font-size="13" lengthAdjust="spacing" textLength="154.0894" x="353" y="287.8301">(incident_type, guest_id,</text><text fill="#000000" font-family="'Segoe UI'" font-size="13" lengthAdjust="spacing" textLength="190.7788" x="353" y="303.1406">location, description required)</text><text fill="#000000" font-family="'Segoe UI'" font-size="13" lengthAdjust="spacing" textLength="4.1133" x="353" y="318.4512">&#160;</text><text fill="#000000" font-family="'Segoe UI'" font-size="13" lengthAdjust="spacing" textLength="105.314" x="353" y="333.7617">Classify severity:</text><text fill="#000000" font-family="'Segoe UI'" font-size="13" lengthAdjust="spacing" textLength="262.5898" x="353" y="349.0723">MINOR | MODERATE | SERIOUS | CRITICAL</text><rect fill="#EEEEEE" height="3" rx="4" ry="4" style="stroke:#EEEEEE;stroke-width:1;" width="932.3843" x="0" y="382.4697"/><line style="stroke:#000000;stroke-width:1;" x1="0" x2="932.3843" y1="382.4697" y2="382.4697"/><line style="stroke:#000000;stroke-width:1;" x1="0" x2="932.3843" y1="385.4697" y2="385.4697"/><rect fill="#EEEEEE" height="23.3105" rx="4" ry="4" style="stroke:#000000;stroke-width:2;" width="195.5557" x="368.4143" y="371.8145"/><text fill="#000000" font-family="'Segoe UI'" font-size="13" font-weight="bold" lengthAdjust="spacing" textLength="177.271" x="374.4143" y="388.3828">Guest Contact Information</text><g class="message" data-entity-1="part3" data-entity-2="part4" id="msg3"><polygon fill="#DC2626" points="531.6899,422.4355,541.6899,426.4355,531.6899,430.4355,535.6899,426.4355" style="stroke:#DC2626;stroke-width:1;"/><line style="stroke:#DC2626;stroke-width:1;" x1="342.6729" x2="537.6899" y1="426.4355" y2="426.4355"/><a href="/microservices/svc-guest-profiles/#get-guestsguest_id-get-guest-profile" target="_top" title="/microservices/svc-guest-profiles/#get-guestsguest_id-get-guest-profile" xlink:actuate="onRequest" xlink:href="/microservices/svc-guest-profiles/#get-guestsguest_id-get-guest-profile" xlink:show="new" xlink:title="/microservices/svc-guest-profiles/#get-guestsguest_id-get-guest-profile" xlink:type="simple"><text fill="#0000FF" font-family="'Segoe UI'" font-size="13" lengthAdjust="spacing" text-decoration="underline" textLength="145.7422" x="349.6729" y="421.6934">GET /guests/{guest_id}</text></a></g><g class="message" data-entity-1="part4" data-entity-2="part3" id="msg4"><polygon fill="#DC2626" points="353.6729,482.3672,343.6729,486.3672,353.6729,490.3672,349.6729,486.3672" style="stroke:#DC2626;stroke-width:1;"/><line style="stroke:#DC2626;stroke-width:1;stroke-dasharray:2,2;" x1="347.6729" x2="547.6899" y1="486.3672" y2="486.3672"/><text fill="#000000" font-family="'Segoe UI'" font-size="13" lengthAdjust="spacing" textLength="81.3325" x="359.6729" y="451.0039">Guest profile</text><text fill="#000000" font-family="'Segoe UI'" font-size="13" lengthAdjust="spacing" textLength="177.0171" x="359.6729" y="466.3145">(name, emergency contacts,</text><text fill="#000000" font-family="'Segoe UI'" font-size="13" lengthAdjust="spacing" textLength="92.041" x="359.6729" y="481.625">medical notes)</text></g><rect fill="#EEEEEE" height="3" rx="4" ry="4" style="stroke:#EEEEEE;stroke-width:1;" width="932.3843" x="0" y="515.0225"/><line style="stroke:#000000;stroke-width:1;" x1="0" x2="932.3843" y1="515.0225" y2="515.0225"/><line style="stroke:#000000;stroke-width:1;" x1="0" x2="932.3843" y1="518.0225" y2="518.0225"/><rect fill="#EEEEEE" height="23.3105" rx="4" ry="4" style="stroke:#000000;stroke-width:2;" width="150.3477" x="391.0183" y="504.3672"/><text fill="#000000" font-family="'Segoe UI'" font-size="13" font-weight="bold" lengthAdjust="spacing" textLength="132.063" x="397.0183" y="520.9355">Guide Identification</text><g class="message" data-entity-1="part3" data-entity-2="part5" id="msg5"><polygon fill="#DC2626" points="644.0103,554.9883,654.0103,558.9883,644.0103,562.9883,648.0103,558.9883" style="stroke:#DC2626;stroke-width:1;"/><line style="stroke:#DC2626;stroke-width:1;" x1="342.6729" x2="650.0103" y1="558.9883" y2="558.9883"/><a href="/microservices/svc-guide-management/#get-guidesguide_id-get-guide-details" target="_top" title="/microservices/svc-guide-management/#get-guidesguide_id-get-guide-details" xlink:actuate="onRequest" xlink:href="/microservices/svc-guide-management/#get-guidesguide_id-get-guide-details" xlink:show="new" xlink:title="/microservices/svc-guide-management/#get-guidesguide_id-get-guide-details" xlink:type="simple"><text fill="#0000FF" font-family="'Segoe UI'" font-size="13" lengthAdjust="spacing" text-decoration="underline" textLength="146.6436" x="349.6729" y="554.2461">GET /guides/{guide_id}</text></a></g><g class="message" data-entity-1="part5" data-entity-2="part3" id="msg6"><polygon fill="#DC2626" points="353.6729,614.9199,343.6729,618.9199,353.6729,622.9199,349.6729,618.9199" style="stroke:#DC2626;stroke-width:1;"/><line style="stroke:#DC2626;stroke-width:1;stroke-dasharray:2,2;" x1="347.6729" x2="660.0103" y1="618.9199" y2="618.9199"/><text fill="#000000" font-family="'Segoe UI'" font-size="13" lengthAdjust="spacing" textLength="82.3672" x="359.6729" y="583.5566">Guide details</text><text fill="#000000" font-family="'Segoe UI'" font-size="13" lengthAdjust="spacing" textLength="132.7104" x="359.6729" y="598.8672">(name, certifications,</text><text fill="#000000" font-family="'Segoe UI'" font-size="13" lengthAdjust="spacing" textLength="86.252" x="359.6729" y="614.1777">assigned trip)</text></g><rect fill="#EEEEEE" height="3" rx="4" ry="4" style="stroke:#EEEEEE;stroke-width:1;" width="932.3843" x="0" y="647.5752"/><line style="stroke:#000000;stroke-width:1;" x1="0" x2="932.3843" y1="647.5752" y2="647.5752"/><line style="stroke:#000000;stroke-width:1;" x1="0" x2="932.3843" y1="650.5752" y2="650.5752"/><rect fill="#EEEEEE" height="23.3105" rx="4" ry="4" style="stroke:#000000;stroke-width:2;" width="212.9419" x="359.7212" y="636.9199"/><text fill="#000000" font-family="'Segoe UI'" font-size="13" font-weight="bold" lengthAdjust="spacing" textLength="194.6572" x="365.7212" y="653.4883">Severity-Based Alert Routing</text><path d="M341,677.2305 L399.1387,677.2305 L399.1387,684.541 L389.1387,694.541 L337,694.541 L337,681.2305 A4,4 0 0 1 341,677.2305" fill="#EEEEEE" style="stroke:#000000;stroke-width:1.5;"/><rect fill="none" height="494.3184" rx="4" ry="4" style="stroke:#000000;stroke-width:1.5;" width="291.6973" x="337" y="677.2305"/><text fill="#000000" font-family="'Segoe UI'" font-size="13" font-weight="bold" lengthAdjust="spacing" textLength="17.1387" x="352" y="690.7988">alt</text><text fill="#000000" font-family="'Segoe UI'" font-size="11" font-weight="bold" lengthAdjust="spacing" textLength="209.5586" x="414.1387" y="689.8652">[CRITICAL &#8212; Life-threatening injury]</text><path d="M347,703.541 L347,827.541 A4,4 0 0 0 351,831.541 L561,831.541 A4,4 0 0 0 565,827.541 L565,709.541 L555,699.541 L351,699.541 A4,4 0 0 0 347,703.541" fill="#FEE2E2" style="stroke:#181818;stroke-width:0.5;"/><path d="M555,699.541 L555,707.541 A2,2 0 0 0 557,709.541 L565,709.541 L555,699.541" fill="#FEE2E2" style="stroke:#181818;stroke-width:0.5;"/><text fill="#000000" font-family="'Segoe UI'" font-size="13" lengthAdjust="spacing" textLength="57.4526" x="353" y="717.1094">Route to:</text><text fill="#000000" font-family="'Segoe UI'" font-size="13" lengthAdjust="spacing" textLength="183.5552" x="353" y="732.4199">- Safety Director (immediate)</text><text fill="#000000" font-family="'Segoe UI'" font-size="13" lengthAdjust="spacing" textLength="180.0894" x="353" y="747.7305">- Emergency Response team</text><text fill="#000000" font-family="'Segoe UI'" font-size="13" lengthAdjust="spacing" textLength="197.8501" x="353" y="763.041">- External authorities if needed</text><text fill="#000000" font-family="'Segoe UI'" font-size="13" lengthAdjust="spacing" textLength="177.7661" x="353" y="778.3516">- Guest emergency contacts</text><text fill="#000000" font-family="'Segoe UI'" font-size="13" lengthAdjust="spacing" textLength="4.1133" x="353" y="793.6621">&#160;</text><text fill="#000000" font-family="'Segoe UI'" font-size="13" lengthAdjust="spacing" textLength="172.6689" x="353" y="808.9727">Trigger incident lock-down</text><text fill="#000000" font-family="'Segoe UI'" font-size="13" lengthAdjust="spacing" textLength="159.6245" x="353" y="824.2832">Freeze all related records</text><line style="stroke:#000000;stroke-width:1;stroke-dasharray:2,2;" x1="337" x2="628.6973" y1="838.0254" y2="838.0254"/><text fill="#000000" font-family="'Segoe UI'" font-size="11" font-weight="bold" lengthAdjust="spacing" textLength="265.8262" x="342" y="848.6602">[SERIOUS &#8212; Injury requiring medical attention]</text><path d="M347,860.9805 L347,953.9805 A4,4 0 0 0 351,957.9805 L549,957.9805 A4,4 0 0 0 553,953.9805 L553,866.9805 L543,856.9805 L351,856.9805 A4,4 0 0 0 347,860.9805" fill="#FEF3C7" style="stroke:#181818;stroke-width:0.5;"/><path d="M543,856.9805 L543,864.9805 A2,2 0 0 0 545,866.9805 L553,866.9805 L543,856.9805" fill="#FEF3C7" style="stroke:#181818;stroke-width:0.5;"/><text fill="#000000" font-family="'Segoe UI'" font-size="13" lengthAdjust="spacing" textLength="57.4526" x="353" y="874.5488">Route to:</text><text fill="#000000" font-family="'Segoe UI'" font-size="13" lengthAdjust="spacing" textLength="107.8975" x="353" y="889.8594">- Safety Manager</text><text fill="#000000" font-family="'Segoe UI'" font-size="13" lengthAdjust="spacing" textLength="116.4922" x="353" y="905.1699">- Operations team</text><text fill="#000000" font-family="'Segoe UI'" font-size="13" lengthAdjust="spacing" textLength="118.2505" x="353" y="920.4805">- Guide supervisor</text><text fill="#000000" font-family="'Segoe UI'" font-size="13" lengthAdjust="spacing" textLength="4.1133" x="353" y="935.791">&#160;</text><text fill="#000000" font-family="'Segoe UI'" font-size="13" lengthAdjust="spacing" textLength="185.4658" x="353" y="951.1016">Require follow-up within 24h</text><line style="stroke:#000000;stroke-width:1;stroke-dasharray:2,2;" x1="337" x2="628.6973" y1="964.8438" y2="964.8438"/><text fill="#000000" font-family="'Segoe UI'" font-size="11" font-weight="bold" lengthAdjust="spacing" textLength="257.1035" x="342" y="975.4785">[MODERATE &#8212; Equipment failure, near-miss]</text><path d="M347,987.7988 L347,1065.7988 A4,4 0 0 0 351,1069.7988 L549,1069.7988 A4,4 0 0 0 553,1065.7988 L553,993.7988 L543,983.7988 L351,983.7988 A4,4 0 0 0 347,987.7988" fill="#FEF3C7" style="stroke:#181818;stroke-width:0.5;"/><path d="M543,983.7988 L543,991.7988 A2,2 0 0 0 545,993.7988 L553,993.7988 L543,983.7988" fill="#FEF3C7" style="stroke:#181818;stroke-width:0.5;"/><text fill="#000000" font-family="'Segoe UI'" font-size="13" lengthAdjust="spacing" textLength="57.4526" x="353" y="1001.3672">Route to:</text><text fill="#000000" font-family="'Segoe UI'" font-size="13" lengthAdjust="spacing" textLength="125.106" x="353" y="1016.6777">- Safety team inbox</text><text fill="#000000" font-family="'Segoe UI'" font-size="13" lengthAdjust="spacing" textLength="175.1953" x="353" y="1031.9883">- Guide (acknowledgement)</text><text fill="#000000" font-family="'Segoe UI'" font-size="13" lengthAdjust="spacing" textLength="4.1133" x="353" y="1047.2988">&#160;</text><text fill="#000000" font-family="'Segoe UI'" font-size="13" lengthAdjust="spacing" textLength="185.4658" x="353" y="1062.6094">Require follow-up within 72h</text><line style="stroke:#000000;stroke-width:1;stroke-dasharray:2,2;" x1="337" x2="628.6973" y1="1076.3516" y2="1076.3516"/><text fill="#000000" font-family="'Segoe UI'" font-size="11" font-weight="bold" lengthAdjust="spacing" textLength="196.6465" x="342" y="1086.9863">[MINOR &#8212; Procedural observation]</text><path d="M347,1099.3066 L347,1162.3066 A4,4 0 0 0 351,1166.3066 L526,1166.3066 A4,4 0 0 0 530,1162.3066 L530,1105.3066 L520,1095.3066 L351,1095.3066 A4,4 0 0 0 347,1099.3066" fill="#D1FAE5" style="stroke:#181818;stroke-width:0.5;"/><path d="M520,1095.3066 L520,1103.3066 A2,2 0 0 0 522,1105.3066 L530,1105.3066 L520,1095.3066" fill="#D1FAE5" style="stroke:#181818;stroke-width:0.5;"/><text fill="#000000" font-family="'Segoe UI'" font-size="13" lengthAdjust="spacing" textLength="57.4526" x="353" y="1112.875">Route to:</text><text fill="#000000" font-family="'Segoe UI'" font-size="13" lengthAdjust="spacing" textLength="155.8223" x="353" y="1128.1855">- Safety team inbox only</text><text fill="#000000" font-family="'Segoe UI'" font-size="13" lengthAdjust="spacing" textLength="4.1133" x="353" y="1143.4961">&#160;</text><text fill="#000000" font-family="'Segoe UI'" font-size="13" lengthAdjust="spacing" textLength="162.2842" x="353" y="1158.8066">Queued for weekly review</text><rect fill="#EEEEEE" height="3" rx="4" ry="4" style="stroke:#EEEEEE;stroke-width:1;" width="932.3843" x="0" y="1199.2041"/><line style="stroke:#000000;stroke-width:1;" x1="0" x2="932.3843" y1="1199.2041" y2="1199.2041"/><line style="stroke:#000000;stroke-width:1;" x1="0" x2="932.3843" y1="1202.2041" y2="1202.2041"/><rect fill="#EEEEEE" height="23.3105" rx="4" ry="4" style="stroke:#000000;stroke-width:2;" width="80.3711" x="426.0066" y="1188.5488"/><text fill="#000000" font-family="'Segoe UI'" font-size="13" font-weight="bold" lengthAdjust="spacing" textLength="62.0864" x="432.0066" y="1205.1172">Database</text><path d="M247.0439,1228.8594 L525.9858,1228.8594 L525.9858,1236.1699 L515.9858,1246.1699 L243.0439,1246.1699 L243.0439,1232.8594 A4,4 0 0 1 247.0439,1228.8594" fill="#EEEEEE" style="stroke:#000000;stroke-width:1.5;"/><rect fill="none" height="226.416" rx="4" ry="4" style="stroke:#000000;stroke-width:1.5;" width="679.3403" x="243.0439" y="1228.8594"/><text fill="#000000" font-family="'Segoe UI'" font-size="13" font-weight="bold" lengthAdjust="spacing" textLength="237.9419" x="258.0439" y="1242.4277">Transaction boundary (PostgreSQL)</text><g class="message" data-entity-1="part3" data-entity-2="part7" id="msg7"><polygon fill="#DC2626" points="853.9595,1324.7227,863.9595,1328.7227,853.9595,1332.7227,857.9595,1328.7227" style="stroke:#DC2626;stroke-width:1;"/><line style="stroke:#DC2626;stroke-width:1;" x1="342.6729" x2="859.9595" y1="1328.7227" y2="1328.7227"/><text fill="#000000" font-family="'Segoe UI'" font-size="13" lengthAdjust="spacing" textLength="184.939" x="349.6729" y="1262.7383">INSERT INTO safety_incidents</text><text fill="#000000" font-family="'Segoe UI'" font-size="13" lengthAdjust="spacing" textLength="169.7808" x="349.6729" y="1278.0488">(incident_id, incident_type,</text><text fill="#000000" font-family="'Segoe UI'" font-size="13" lengthAdjust="spacing" textLength="176.2808" x="349.6729" y="1293.3594">severity, guest_id, guide_id,</text><text fill="#000000" font-family="'Segoe UI'" font-size="13" lengthAdjust="spacing" textLength="133.2373" x="349.6729" y="1308.6699">location, description,</text><text fill="#000000" font-family="'Segoe UI'" font-size="13" lengthAdjust="spacing" textLength="94.9482" x="349.6729" y="1323.9805">status = OPEN)</text></g><g class="message" data-entity-1="part7" data-entity-2="part3" id="msg8"><polygon fill="#DC2626" points="353.6729,1354.0332,343.6729,1358.0332,353.6729,1362.0332,349.6729,1358.0332" style="stroke:#DC2626;stroke-width:1;"/><line style="stroke:#DC2626;stroke-width:1;stroke-dasharray:2,2;" x1="347.6729" x2="869.9595" y1="1358.0332" y2="1358.0332"/><text fill="#000000" font-family="'Segoe UI'" font-size="13" lengthAdjust="spacing" textLength="76.4575" x="359.6729" y="1353.291">Created row</text></g><g class="message" data-entity-1="part3" data-entity-2="part7" id="msg9"><polygon fill="#DC2626" points="853.9595,1413.9648,863.9595,1417.9648,853.9595,1421.9648,857.9595,1417.9648" style="stroke:#DC2626;stroke-width:1;"/><line style="stroke:#DC2626;stroke-width:1;" x1="342.6729" x2="859.9595" y1="1417.9648" y2="1417.9648"/><text fill="#000000" font-family="'Segoe UI'" font-size="13" lengthAdjust="spacing" textLength="191.6548" x="349.6729" y="1382.6016">INSERT INTO incident_timeline</text><text fill="#000000" font-family="'Segoe UI'" font-size="13" lengthAdjust="spacing" textLength="129.0542" x="349.6729" y="1397.9121">(event_type = FILED,</text><text fill="#000000" font-family="'Segoe UI'" font-size="13" lengthAdjust="spacing" textLength="128.6353" x="349.6729" y="1413.2227">filed_by, timestamp)</text></g><g class="message" data-entity-1="part7" data-entity-2="part3" id="msg10"><polygon fill="#DC2626" points="353.6729,1443.2754,343.6729,1447.2754,353.6729,1451.2754,349.6729,1447.2754" style="stroke:#DC2626;stroke-width:1;"/><line style="stroke:#DC2626;stroke-width:1;stroke-dasharray:2,2;" x1="347.6729" x2="869.9595" y1="1447.2754" y2="1447.2754"/><text fill="#000000" font-family="'Segoe UI'" font-size="13" lengthAdjust="spacing" textLength="76.4575" x="359.6729" y="1442.5332">Created row</text></g><rect fill="#EEEEEE" height="3" rx="4" ry="4" style="stroke:#EEEEEE;stroke-width:1;" width="932.3843" x="0" y="1482.9307"/><line style="stroke:#000000;stroke-width:1;" x1="0" x2="932.3843" y1="1482.9307" y2="1482.9307"/><line style="stroke:#000000;stroke-width:1;" x1="0" x2="932.3843" y1="1485.9307" y2="1485.9307"/><rect fill="#EEEEEE" height="23.3105" rx="4" ry="4" style="stroke:#000000;stroke-width:2;" width="95.123" x="418.6306" y="1472.2754"/><text fill="#000000" font-family="'Segoe UI'" font-size="13" font-weight="bold" lengthAdjust="spacing" textLength="76.8384" x="424.6306" y="1488.8438">Async Alert</text><g class="message" data-entity-1="part3" data-entity-2="part6" id="msg11"><line style="stroke:#DC2626;stroke-width:1;" x1="767.5195" x2="757.5195" y1="1542.207" y2="1538.207"/><line style="stroke:#DC2626;stroke-width:1;" x1="767.5195" x2="757.5195" y1="1542.207" y2="1546.207"/><line style="stroke:#DC2626;stroke-width:1;" x1="342.6729" x2="768.5195" y1="1542.207" y2="1542.207"/><a href="/microservices/svc-notifications/#post-notifications-send-a-notification" target="_top" title="/microservices/svc-notifications/#post-notifications-send-a-notification" xlink:actuate="onRequest" xlink:href="/microservices/svc-notifications/#post-notifications-send-a-notification" xlink:show="new" xlink:title="/microservices/svc-notifications/#post-notifications-send-a-notification" xlink:type="simple"><text fill="#0000FF" font-family="'Segoe UI'" font-size="13" lengthAdjust="spacing" text-decoration="underline" textLength="104.5649" x="349.6729" y="1522.1543">Send safety alert</text></a><text fill="#000000" font-family="'Segoe UI'" font-size="13" lengthAdjust="spacing" textLength="218.2959" x="349.6729" y="1537.4648">(recipients determined by severity)</text></g><g class="message" data-entity-1="part3" data-entity-2="part2" id="msg12"><polygon fill="#DC2626" points="172.4136,1598.1387,162.4136,1602.1387,172.4136,1606.1387,168.4136,1602.1387" style="stroke:#DC2626;stroke-width:1;"/><line style="stroke:#DC2626;stroke-width:1;stroke-dasharray:2,2;" x1="166.4136" x2="336.6729" y1="1602.1387" y2="1602.1387"/><text fill="#000000" font-family="'Segoe UI'" font-size="13" lengthAdjust="spacing" textLength="77.7969" x="178.4136" y="1566.7754">201 Created</text><text fill="#000000" font-family="'Segoe UI'" font-size="13" lengthAdjust="spacing" textLength="134.1768" x="178.4136" y="1582.0859">(incident_id, severity,</text><text fill="#000000" font-family="'Segoe UI'" font-size="13" lengthAdjust="spacing" textLength="147.2593" x="178.4136" y="1597.3965">status, alert_recipients)</text></g><g class="message" data-entity-1="part2" data-entity-2="part1" id="msg13"><polygon fill="#DC2626" points="42.7524,1627.4492,32.7524,1631.4492,42.7524,1635.4492,38.7524,1631.4492" style="stroke:#DC2626;stroke-width:1;"/><line style="stroke:#DC2626;stroke-width:1;stroke-dasharray:2,2;" x1="36.7524" x2="155.4136" y1="1631.4492" y2="1631.4492"/><text fill="#000000" font-family="'Segoe UI'" font-size="13" lengthAdjust="spacing" textLength="77.7969" x="48.7524" y="1626.707">201 Created</text></g><a href="/microservices/svc-safety-compliance/#integration-context" target="_top" title="/microservices/svc-safety-compliance/#integration-context" xlink:actuate="onRequest" xlink:href="/microservices/svc-safety-compliance/#integration-context" xlink:show="new" xlink:title="/microservices/svc-safety-compliance/#integration-context" xlink:type="simple"><text fill="#0000FF" font-family="'Segoe UI'" font-size="10" lengthAdjust="spacing" text-decoration="underline" textLength="222.0703" x="709.314" y="14.668">&#11014; svc-safety-compliance Integration Context</text></a><?plantuml-src hLR1Rjj64BtpAxRHnGPCorQQ615i0uf4kG8iIv6Kv10RnfeSKLkJk-pkqhAI1kYfNz3Fw5VbIph39Id9iLEZQ0uEjJiSlfbvx-t-96IOv16m_VscNK0A-rcU9fwv5JBZcgVCm6yvo13O5u_XluxMQjbLYTAi4OMjrwtNtbVFMm2FGBDFdvgf2BKoeEz42APfxaBVy3dObH-gD4i4nqpDXf0MOisjK1BNySUzPT_-_fCz6iu6wsZMTT5NLvvdXKs0ZKVJ6MjY4I82QSsbx0jSvSobOTK6qv0fRI_biH6VeNruS7eSKX7jnb7uaaDqsfbqVndCWkwCZJu4aycW5x1lV_p5G6eHBY1YIs4Ns8ixq0BJXWatHin5w51n6J4m8K-AdyVD8lNfSPE-TUfvs4WhGf5nnF6YcmZ4yu9nmzmZTOrdMAnBPffOtDORdV60dN4BIxugNZlxMBmIMgLDiy4puSTkz-gADOA3VgiVR2TujAr5gkbT-DoXKV9-4BI2rdRoinoCPMEjvjXuum2E7qyQKwYVbQ55ng0Nl7a8zop7aR5XdBekdGsVoePXViebZv6sqhfy1y5Hlx-TxqBPUbGEu8MThnvFAZTZNSs7_LVzDrx4BR_X1jYBiJ8srZ1zTrxawhrzDkqfXszmRE2QsN_JVUbv-4bW2eb5qq2DOROw4GxtyMJx2vicx8E09LASJPSyZZ71-m5o1v2CbDFpIdxvfqIPzaEfUCWWSOVCeTrAo_Y8uKIBDjCgnqrD-ZTs7KsRLRW3hqMyi4pDo_S-y4H45FcT-7QgbMkxoc2F5OIu5j7UfKoKQ_eUYr19McI5iEZZGaEqUoalPTU9RbNBi7qfXuEBqOJzpeQZNZ3fp09yd0QJmUZz59-way5iqEsSUzx92NCy9V_0Ij1JvagdJhqd9vv7oAbFOyJ_7EusOh1kpLH5-FLI5SRE0couYsf-gUA-uepMhH_N6i17l-wzGrlcmSP9dcA_aESwHZD60t9r6EnS2X4IDYbcRdQz23QIbvMJdWRKzxLbRHOzVBhe1n8hoyPLK_nTbqs14LWk4bELJL5KjelRBdjOInKVDyicg6MUkkmGz8OgiMJYGIpHbIqIPRlaOL7oj6I8_nOb6x5EWXdO1FaiP5oKpXDRqwCm-dCn1zykD60MIL52_fhhLN7cVK_oqWaHyQGGYLN8HPzDtQ7JGygIExCTaT9qCEKkRGVr-2PWCYm5NmIU5blt5hJ4AVBSBXH25s2Oc3C944544OuHtpE0b353SAJ_Md2efbi_KalSwsk0ptWY9Wcg2GyeR0UYKpeo7YI8e98BDM5Gr5ogZffGSOjRI-nHykb-z5zsZvxenx0WaAQLKGRk93TrwMxc9i-8UKPfAcZYTC_cAadKqi-puln5fslzl72mQy4JxW2ZCo8ecoDnSesSaS2rdmfZ_XDYmeRTl57tQuGxFBoLQfb0vCIm-qEWHwqAQE5GX1BFo12YN6C_rGtfZF-eext3VYTuzQ_uc9B9Yf2yoo77sQAjiIN0RK9ZlCFpWSw3GXEzwWGZ_iTexXcRQIuDQGSDuKRbCk8u_Ptr0RTRW2jj0W-wDXjS85zc-DziL5wnhZVkNcj_HqzdssP_AIlRtl1zLhd3KoS0lMQvpGqxOQDnSE4GrN97JDKvIkluS-qbtKBBo7QrB3OtNABtrljXPMla8eL4I79W15-MWb3wW_EWXzZ8dQFh6oo98X5fclrl2AkvTSnAXgM5hLtxr5rYsi-vnZGodEZsccymlS-t5j4ryUfGNfmvVU_g2Wj7jn0PNIGC6JFeL93ptgoFuTqIKtNFQ1qSLgKzf4HDWMgiU-v3r-kFRDavtOZeIeAfoylCLlejv__e_GC0?></g></svg>