<svg xmlns="http://www.w3.org/2000/svg" xmlns:xlink="http://www.w3.org/1999/xlink" contentStyleType="text/css" data-diagram-type="SEQUENCE" height="474px" preserveAspectRatio="none" style="width:747px;height:474px;background:#FEFEFE;" version="1.1" viewBox="0 0 747 474" width="747px" zoomAndPan="magnify"><title>GET /locations/{location_id}/operating-hours</title><defs/><g><rect fill="#FEFEFE" height="474" style="stroke:none;stroke-width:1;" width="747" x="0" y="0"/><text fill="#000000" font-family="Segoe UI" font-size="14" font-weight="bold" lengthAdjust="spacing" textLength="331.29" x="203.8577" y="28.5352">GET /locations/{location_id}/operating-hours</text><text fill="#000000" font-family="Segoe UI" font-size="14" font-weight="bold" lengthAdjust="spacing" textLength="245.5469" x="246.7292" y="45.0234">Get operating hours for a location</text><g><title>API Gateway</title><rect fill="#2563EB" height="189.8633" style="stroke:#A23B72;stroke-width:1;" width="10" x="338.3013" y="188.0859"/></g><g><title>svc-location-services</title><rect fill="#2563EB" height="131.2422" style="stroke:#A23B72;stroke-width:1;" width="10" x="476.5605" y="217.3965"/></g><g><title>PostGIS</title><rect fill="#FCE4EC" height="29.3105" style="stroke:#A23B72;stroke-width:1;" width="10" x="701.8047" y="290.0176"/></g><g><title>Client</title><rect fill="#000000" fill-opacity="0.00000" height="274.4844" width="8" x="27.7524" y="121.4648"/><line style="stroke:#A23B72;stroke-width:0.5;stroke-dasharray:5,5;" x1="31" x2="31" y1="121.4648" y2="395.9492"/></g><g><title>API Gateway</title><rect fill="#000000" fill-opacity="0.00000" height="274.4844" width="8" x="339.3013" y="121.4648"/><line style="stroke:#A23B72;stroke-width:0.5;stroke-dasharray:5,5;" x1="343.0122" x2="343.0122" y1="121.4648" y2="395.9492"/></g><g><title>svc-location-services</title><rect fill="#000000" fill-opacity="0.00000" height="274.4844" width="8" x="477.5605" y="121.4648"/><line style="stroke:#A23B72;stroke-width:0.5;stroke-dasharray:5,5;" x1="480.5903" x2="480.5903" y1="121.4648" y2="395.9492"/></g><g><title>PostGIS</title><rect fill="#000000" fill-opacity="0.00000" height="274.4844" width="8" x="702.8047" y="121.4648"/><line style="stroke:#A23B72;stroke-width:0.5;stroke-dasharray:5,5;" x1="706.604" x2="706.604" y1="121.4648" y2="395.9492"/></g><g class="participant participant-head" data-participant="Client"><rect fill="#E8F4F8" height="30.4883" rx="2.5" ry="2.5" style="stroke:#2E86AB;stroke-width:0.5;" width="53.5049" x="5" y="89.9766"/><text fill="#000000" font-family="Segoe UI" font-size="14" lengthAdjust="spacing" textLength="39.5049" x="12" y="110.5117">Client</text></g><g class="participant participant-tail" data-participant="Client"><rect fill="#E8F4F8" height="30.4883" rx="2.5" ry="2.5" style="stroke:#2E86AB;stroke-width:0.5;" width="53.5049" x="5" y="394.9492"/><text fill="#000000" font-family="Segoe UI" font-size="14" lengthAdjust="spacing" textLength="39.5049" x="12" y="415.4844">Client</text></g><g class="participant participant-head" data-participant="GW"><rect fill="#DBEAFE" height="30.4883" rx="2.5" ry="2.5" style="stroke:#2E86AB;stroke-width:0.5;" width="96.5781" x="295.0122" y="89.9766"/><text fill="#000000" font-family="Segoe UI" font-size="14" lengthAdjust="spacing" textLength="82.5781" x="302.0122" y="110.5117">API Gateway</text></g><g class="participant participant-tail" data-participant="GW"><rect fill="#DBEAFE" height="30.4883" rx="2.5" ry="2.5" style="stroke:#2E86AB;stroke-width:0.5;" width="96.5781" x="295.0122" y="394.9492"/><text fill="#000000" font-family="Segoe UI" font-size="14" lengthAdjust="spacing" textLength="82.5781" x="302.0122" y="415.4844">API Gateway</text></g><g class="participant participant-head" data-participant="Svc"><a href="/microservices/svc-location-services/" target="_top" title="/microservices/svc-location-services/" xlink:actuate="onRequest" xlink:href="/microservices/svc-location-services/" xlink:show="new" xlink:title="/microservices/svc-location-services/" xlink:type="simple"><rect fill="#E8F4F8" height="30.4883" rx="2.5" ry="2.5" style="stroke:#2E86AB;stroke-width:0.5;" width="159.9404" x="401.5903" y="89.9766"/><text fill="#000000" font-family="Segoe UI" font-size="14" lengthAdjust="spacing" textLength="145.9404" x="408.5903" y="110.5117">svc-location-services</text></a></g><g class="participant participant-tail" data-participant="Svc"><a href="/microservices/svc-location-services/" target="_top" title="/microservices/svc-location-services/" xlink:actuate="onRequest" xlink:href="/microservices/svc-location-services/" xlink:show="new" xlink:title="/microservices/svc-location-services/" xlink:type="simple"><rect fill="#E8F4F8" height="30.4883" rx="2.5" ry="2.5" style="stroke:#2E86AB;stroke-width:0.5;" width="159.9404" x="401.5903" y="394.9492"/><text fill="#000000" font-family="Segoe UI" font-size="14" lengthAdjust="spacing" textLength="145.9404" x="408.5903" y="415.4844">svc-location-services</text></a></g><g class="participant participant-head" data-participant="DB"><text fill="#000000" font-family="Segoe UI" font-size="14" lengthAdjust="spacing" textLength="50.4014" x="678.604" y="118.5117">PostGIS</text><path d="M688.8047,68.9766 C688.8047,58.9766 706.8047,58.9766 706.8047,58.9766 C706.8047,58.9766 724.8047,58.9766 724.8047,68.9766 L724.8047,94.9766 C724.8047,104.9766 706.8047,104.9766 706.8047,104.9766 C706.8047,104.9766 688.8047,104.9766 688.8047,94.9766 L688.8047,68.9766" fill="#FCE4EC" style="stroke:#181818;stroke-width:0.5;"/><path d="M688.8047,68.9766 C688.8047,78.9766 706.8047,78.9766 706.8047,78.9766 C706.8047,78.9766 724.8047,78.9766 724.8047,68.9766" fill="none" style="stroke:#181818;stroke-width:0.5;"/></g><g class="participant participant-tail" data-participant="DB"><text fill="#000000" font-family="Segoe UI" font-size="14" lengthAdjust="spacing" textLength="50.4014" x="678.604" y="408.4844">PostGIS</text><path d="M688.8047,421.4375 C688.8047,411.4375 706.8047,411.4375 706.8047,411.4375 C706.8047,411.4375 724.8047,411.4375 724.8047,421.4375 L724.8047,447.4375 C724.8047,457.4375 706.8047,457.4375 706.8047,457.4375 C706.8047,457.4375 688.8047,457.4375 688.8047,447.4375 L688.8047,421.4375" fill="#FCE4EC" style="stroke:#181818;stroke-width:0.5;"/><path d="M688.8047,421.4375 C688.8047,431.4375 706.8047,431.4375 706.8047,431.4375 C706.8047,431.4375 724.8047,431.4375 724.8047,421.4375" fill="none" style="stroke:#181818;stroke-width:0.5;"/></g><g><title>API Gateway</title><rect fill="#2563EB" height="189.8633" style="stroke:#A23B72;stroke-width:1;" width="10" x="338.3013" y="188.0859"/></g><g><title>svc-location-services</title><rect fill="#2563EB" height="131.2422" style="stroke:#A23B72;stroke-width:1;" width="10" x="476.5605" y="217.3965"/></g><g><title>PostGIS</title><rect fill="#FCE4EC" height="29.3105" style="stroke:#A23B72;stroke-width:1;" width="10" x="701.8047" y="290.0176"/></g><path d="M411,136.4648 L411,161.4648 L551,161.4648 L551,146.4648 L541,136.4648 L411,136.4648" fill="#FEFFDD" style="stroke:#181818;stroke-width:0.5;"/><path d="M541,136.4648 L541,146.4648 L551,146.4648 L541,136.4648" fill="#FEFFDD" style="stroke:#181818;stroke-width:0.5;"/><a href="/services/api/svc-location-services.html" target="_top" title="/services/api/svc-location-services.html" xlink:actuate="onRequest" xlink:href="/services/api/svc-location-services.html" xlink:show="new" xlink:title="/services/api/svc-location-services.html" xlink:type="simple"><text fill="#0000FF" font-family="Segoe UI" font-size="13" lengthAdjust="spacing" text-decoration="underline" textLength="119.4058" x="417" y="154.0332">View in Swagger UI</text></a><g class="message" data-participant-1="Client" data-participant-2="GW"><polygon fill="#2563EB" points="326.3013,184.0859,336.3013,188.0859,326.3013,192.0859,330.3013,188.0859" style="stroke:#2563EB;stroke-width:1;"/><line style="stroke:#2563EB;stroke-width:1;" x1="31.7524" x2="332.3013" y1="188.0859" y2="188.0859"/><text fill="#000000" font-family="Segoe UI" font-size="13" lengthAdjust="spacing" textLength="287.5488" x="38.7524" y="183.3438">GET /locations/{location_id}/operating-hours</text></g><g class="message" data-participant-1="GW" data-participant-2="Svc"><polygon fill="#2563EB" points="464.5605,213.3965,474.5605,217.3965,464.5605,221.3965,468.5605,217.3965" style="stroke:#2563EB;stroke-width:1;"/><line style="stroke:#2563EB;stroke-width:1;" x1="348.3013" x2="470.5605" y1="217.3965" y2="217.3965"/><a href="/microservices/svc-location-services/#get-locationslocation_idoperating-hours-get-operating-hours-for-a-location" target="_top" title="/microservices/svc-location-services/#get-locationslocation_idoperating-hours-get-operating-hours-for-a-location" xlink:actuate="onRequest" xlink:href="/microservices/svc-location-services/#get-locationslocation_idoperating-hours-get-operating-hours-for-a-location" xlink:show="new" xlink:title="/microservices/svc-location-services/#get-locationslocation_idoperating-hours-get-operating-hours-for-a-location" xlink:type="simple"><text fill="#0000FF" font-family="Segoe UI" font-size="13" lengthAdjust="spacing" text-decoration="underline" textLength="85.1348" x="355.3013" y="212.6543">route request</text></a></g><rect fill="#EEEEEE" height="3" style="stroke:#EEEEEE;stroke-width:1;" width="740.0054" x="0" y="246.0518"/><line style="stroke:#000000;stroke-width:1;" x1="0" x2="740.0054" y1="246.0518" y2="246.0518"/><line style="stroke:#000000;stroke-width:1;" x1="0" x2="740.0054" y1="249.0518" y2="249.0518"/><rect fill="#EEEEEE" height="23.3105" style="stroke:#000000;stroke-width:2;" width="80.3711" x="329.8171" y="235.3965"/><text fill="#000000" font-family="Segoe UI" font-size="13" font-weight="bold" lengthAdjust="spacing" textLength="62.0864" x="335.8171" y="251.9648">Database</text><g class="message" data-participant-1="Svc" data-participant-2="DB"><polygon fill="#2563EB" points="689.8047,286.0176,699.8047,290.0176,689.8047,294.0176,693.8047,290.0176" style="stroke:#2563EB;stroke-width:1;"/><line style="stroke:#2563EB;stroke-width:1;" x1="486.5605" x2="695.8047" y1="290.0176" y2="290.0176"/><text fill="#000000" font-family="Segoe UI" font-size="13" lengthAdjust="spacing" textLength="196.2441" x="493.5605" y="285.2754">SELECT ... WHERE parent_id = ?</text></g><g class="message" data-participant-1="DB" data-participant-2="Svc"><polygon fill="#2563EB" points="497.5605,315.3281,487.5605,319.3281,497.5605,323.3281,493.5605,319.3281" style="stroke:#2563EB;stroke-width:1;"/><line style="stroke:#2563EB;stroke-width:1;stroke-dasharray:2,2;" x1="491.5605" x2="705.8047" y1="319.3281" y2="319.3281"/><text fill="#000000" font-family="Segoe UI" font-size="13" lengthAdjust="spacing" textLength="57.8843" x="503.5605" y="314.5859">ResultSet</text></g><g class="message" data-participant-1="Svc" data-participant-2="GW"><polygon fill="#2563EB" points="359.3013,344.6387,349.3013,348.6387,359.3013,352.6387,355.3013,348.6387" style="stroke:#2563EB;stroke-width:1;"/><line style="stroke:#2563EB;stroke-width:1;stroke-dasharray:2,2;" x1="353.3013" x2="480.5605" y1="348.6387" y2="348.6387"/><text fill="#000000" font-family="Segoe UI" font-size="13" lengthAdjust="spacing" textLength="47.3599" x="365.3013" y="343.8965">200 OK</text></g><g class="message" data-participant-1="GW" data-participant-2="Client"><polygon fill="#2563EB" points="42.7524,373.9492,32.7524,377.9492,42.7524,381.9492,38.7524,377.9492" style="stroke:#2563EB;stroke-width:1;"/><line style="stroke:#2563EB;stroke-width:1;stroke-dasharray:2,2;" x1="36.7524" x2="342.3013" y1="377.9492" y2="377.9492"/><text fill="#000000" font-family="Segoe UI" font-size="13" lengthAdjust="spacing" textLength="47.3599" x="48.7524" y="373.207">200 OK</text></g><!--SRC=[bLF1Rjf04BtlLupWR22G1eH4AmosYufI52VbaA9giGUpYjcbkmkaYlBl7JlOCOH3Qr_6yzwycNspDaz2Rhdc6rZow2dHQYVZaKgLXhhlPIyp9SEiUQmEGYQmugd12XBZYkzIwojfR_a6eHPYeX0U9hLgEVxUeOmGNXZGCzHQ7OwjsfzkEhZCqpEkhOZ4balhAXsZBYXUxsReVg2S3-tr_6k_bzEcOeLJ8V54PjZkkDrsZhlg-GJohtf-wwg4FjZX-uJdyAsofwfHjxliLB0BLdQyBdjbp0gR8WJUFJHJ5N4hb3JDboBy9UBNfjgYfY-PE6krq-Qd3D12cOGy2IkIvL3KCRPzzmHgerIWj3NW1jx2KtWucq30BHxudvmJpA4-ThqXBVk4P_QHKtHm3EgzYD3a5U4-WiV7vaP4MXL0yoAzkLYKIucvvKjkw7hCbB719CornYxvC_AklH5Zaim3jKUTTI0xgKSfnBVYSel6scvI-27m0492UE19GW8FayM2eOmXqsJipGTmFcUdxV_N0XYFhDYJNxbHnwjA8MbbFlJ_rObwWhPCcqh7itvEnZlFqRuTNbO3NIwQHsT_bB5qq7B4RA9YHZOOmBZmV31WB0DfQdAy3w4tzKRtq6WqOFxLk_E0LayEqJWmW2_lWfNrKEYKXxv3GtzyY9R5M24VcnG-jrij-FwjIiaMcvb7ZEDEBh62EViB]--></g></svg>