<svg xmlns="http://www.w3.org/2000/svg" xmlns:xlink="http://www.w3.org/1999/xlink" contentStyleType="text/css" data-diagram-type="SEQUENCE" height="474px" preserveAspectRatio="none" style="width:582px;height:474px;background:#FEFEFE;" version="1.1" viewBox="0 0 582 474" width="582px" zoomAndPan="magnify"><title>GET /safety-inspections</title><defs/><g><rect fill="#FEFEFE" height="474" style="stroke:none;stroke-width:1;" width="582" x="0" y="0"/><text fill="#000000" font-family="Segoe UI" font-size="14" font-weight="bold" lengthAdjust="spacing" textLength="176.8389" x="198.9707" y="28.5352">GET /safety-inspections</text><text fill="#000000" font-family="Segoe UI" font-size="14" font-weight="bold" lengthAdjust="spacing" textLength="263.0947" x="155.8428" y="45.0234">List safety inspections for a location</text><g><title>API Gateway</title><rect fill="#2563EB" height="189.8633" style="stroke:#A23B72;stroke-width:1;" width="10" x="203.1851" y="188.0859"/></g><g><title>svc-safety-compliance</title><rect fill="#2563EB" height="131.2422" style="stroke:#A23B72;stroke-width:1;" width="10" x="346.103" y="217.3965"/></g><g><title>PostgreSQL</title><rect fill="#FCE4EC" height="29.3105" style="stroke:#A23B72;stroke-width:1;" width="10" x="524.3555" y="290.0176"/></g><g><title>Client</title><rect fill="#000000" fill-opacity="0.00000" height="274.4844" width="8" x="27.7524" y="121.4648"/><line style="stroke:#A23B72;stroke-width:0.5;stroke-dasharray:5,5;" x1="31" x2="31" y1="121.4648" y2="395.9492"/></g><g><title>API Gateway</title><rect fill="#000000" fill-opacity="0.00000" height="274.4844" width="8" x="204.1851" y="121.4648"/><line style="stroke:#A23B72;stroke-width:0.5;stroke-dasharray:5,5;" x1="207.896" x2="207.896" y1="121.4648" y2="395.9492"/></g><g><title>svc-safety-compliance</title><rect fill="#000000" fill-opacity="0.00000" height="274.4844" width="8" x="347.103" y="121.4648"/><line style="stroke:#A23B72;stroke-width:0.5;stroke-dasharray:5,5;" x1="350.4741" x2="350.4741" y1="121.4648" y2="395.9492"/></g><g><title>PostgreSQL</title><rect fill="#000000" fill-opacity="0.00000" height="274.4844" width="8" x="525.3555" y="121.4648"/><line style="stroke:#A23B72;stroke-width:0.5;stroke-dasharray:5,5;" x1="528.9307" x2="528.9307" y1="121.4648" y2="395.9492"/></g><g class="participant participant-head" data-participant="Client"><rect fill="#E8F4F8" height="30.4883" rx="2.5" ry="2.5" style="stroke:#2E86AB;stroke-width:0.5;" width="53.5049" x="5" y="89.9766"/><text fill="#000000" font-family="Segoe UI" font-size="14" lengthAdjust="spacing" textLength="39.5049" x="12" y="110.5117">Client</text></g><g class="participant participant-tail" data-participant="Client"><rect fill="#E8F4F8" height="30.4883" rx="2.5" ry="2.5" style="stroke:#2E86AB;stroke-width:0.5;" width="53.5049" x="5" y="394.9492"/><text fill="#000000" font-family="Segoe UI" font-size="14" lengthAdjust="spacing" textLength="39.5049" x="12" y="415.4844">Client</text></g><g class="participant participant-head" data-participant="GW"><rect fill="#DBEAFE" height="30.4883" rx="2.5" ry="2.5" style="stroke:#2E86AB;stroke-width:0.5;" width="96.5781" x="159.896" y="89.9766"/><text fill="#000000" font-family="Segoe UI" font-size="14" lengthAdjust="spacing" textLength="82.5781" x="166.896" y="110.5117">API Gateway</text></g><g class="participant participant-tail" data-participant="GW"><rect fill="#DBEAFE" height="30.4883" rx="2.5" ry="2.5" style="stroke:#2E86AB;stroke-width:0.5;" width="96.5781" x="159.896" y="394.9492"/><text fill="#000000" font-family="Segoe UI" font-size="14" lengthAdjust="spacing" textLength="82.5781" x="166.896" y="415.4844">API Gateway</text></g><g class="participant participant-head" data-participant="Svc"><a href="/microservices/svc-safety-compliance/" target="_top" title="/microservices/svc-safety-compliance/" xlink:actuate="onRequest" xlink:href="/microservices/svc-safety-compliance/" xlink:show="new" xlink:title="/microservices/svc-safety-compliance/" xlink:type="simple"><rect fill="#E8F4F8" height="30.4883" rx="2.5" ry="2.5" style="stroke:#2E86AB;stroke-width:0.5;" width="169.2578" x="266.4741" y="89.9766"/><text fill="#000000" font-family="Segoe UI" font-size="14" lengthAdjust="spacing" textLength="155.2578" x="273.4741" y="110.5117">svc-safety-compliance</text></a></g><g class="participant participant-tail" data-participant="Svc"><a href="/microservices/svc-safety-compliance/" target="_top" title="/microservices/svc-safety-compliance/" xlink:actuate="onRequest" xlink:href="/microservices/svc-safety-compliance/" xlink:show="new" xlink:title="/microservices/svc-safety-compliance/" xlink:type="simple"><rect fill="#E8F4F8" height="30.4883" rx="2.5" ry="2.5" style="stroke:#2E86AB;stroke-width:0.5;" width="169.2578" x="266.4741" y="394.9492"/><text fill="#000000" font-family="Segoe UI" font-size="14" lengthAdjust="spacing" textLength="155.2578" x="273.4741" y="415.4844">svc-safety-compliance</text></a></g><g class="participant participant-head" data-participant="DB"><text fill="#000000" font-family="Segoe UI" font-size="14" lengthAdjust="spacing" textLength="76.8496" x="487.9307" y="118.5117">PostgreSQL</text><path d="M511.3555,68.9766 C511.3555,58.9766 529.3555,58.9766 529.3555,58.9766 C529.3555,58.9766 547.3555,58.9766 547.3555,68.9766 L547.3555,94.9766 C547.3555,104.9766 529.3555,104.9766 529.3555,104.9766 C529.3555,104.9766 511.3555,104.9766 511.3555,94.9766 L511.3555,68.9766" fill="#FCE4EC" style="stroke:#181818;stroke-width:0.5;"/><path d="M511.3555,68.9766 C511.3555,78.9766 529.3555,78.9766 529.3555,78.9766 C529.3555,78.9766 547.3555,78.9766 547.3555,68.9766" fill="none" style="stroke:#181818;stroke-width:0.5;"/></g><g class="participant participant-tail" data-participant="DB"><text fill="#000000" font-family="Segoe UI" font-size="14" lengthAdjust="spacing" textLength="76.8496" x="487.9307" y="408.4844">PostgreSQL</text><path d="M511.3555,421.4375 C511.3555,411.4375 529.3555,411.4375 529.3555,411.4375 C529.3555,411.4375 547.3555,411.4375 547.3555,421.4375 L547.3555,447.4375 C547.3555,457.4375 529.3555,457.4375 529.3555,457.4375 C529.3555,457.4375 511.3555,457.4375 511.3555,447.4375 L511.3555,421.4375" fill="#FCE4EC" style="stroke:#181818;stroke-width:0.5;"/><path d="M511.3555,421.4375 C511.3555,431.4375 529.3555,431.4375 529.3555,431.4375 C529.3555,431.4375 547.3555,431.4375 547.3555,421.4375" fill="none" style="stroke:#181818;stroke-width:0.5;"/></g><g><title>API Gateway</title><rect fill="#2563EB" height="189.8633" style="stroke:#A23B72;stroke-width:1;" width="10" x="203.1851" y="188.0859"/></g><g><title>svc-safety-compliance</title><rect fill="#2563EB" height="131.2422" style="stroke:#A23B72;stroke-width:1;" width="10" x="346.103" y="217.3965"/></g><g><title>PostgreSQL</title><rect fill="#FCE4EC" height="29.3105" style="stroke:#A23B72;stroke-width:1;" width="10" x="524.3555" y="290.0176"/></g><path d="M280,136.4648 L280,161.4648 L420,161.4648 L420,146.4648 L410,136.4648 L280,136.4648" fill="#FEFFDD" style="stroke:#181818;stroke-width:0.5;"/><path d="M410,136.4648 L410,146.4648 L420,146.4648 L410,136.4648" fill="#FEFFDD" style="stroke:#181818;stroke-width:0.5;"/><a href="/services/api/svc-safety-compliance.html#/Inspections/listSafetyInspections" target="_top" title="/services/api/svc-safety-compliance.html#/Inspections/listSafetyInspections" xlink:actuate="onRequest" xlink:href="/services/api/svc-safety-compliance.html#/Inspections/listSafetyInspections" xlink:show="new" xlink:title="/services/api/svc-safety-compliance.html#/Inspections/listSafetyInspections" xlink:type="simple"><text fill="#0000FF" font-family="Segoe UI" font-size="13" lengthAdjust="spacing" text-decoration="underline" textLength="119.4058" x="286" y="154.0332">View in Swagger UI</text></a><g class="message" data-participant-1="Client" data-participant-2="GW"><polygon fill="#2563EB" points="191.1851,184.0859,201.1851,188.0859,191.1851,192.0859,195.1851,188.0859" style="stroke:#2563EB;stroke-width:1;"/><line style="stroke:#2563EB;stroke-width:1;" x1="31.7524" x2="197.1851" y1="188.0859" y2="188.0859"/><text fill="#000000" font-family="Segoe UI" font-size="13" lengthAdjust="spacing" textLength="152.4326" x="38.7524" y="183.3438">GET /safety-inspections</text></g><g class="message" data-participant-1="GW" data-participant-2="Svc"><polygon fill="#2563EB" points="334.103,213.3965,344.103,217.3965,334.103,221.3965,338.103,217.3965" style="stroke:#2563EB;stroke-width:1;"/><line style="stroke:#2563EB;stroke-width:1;" x1="213.1851" x2="340.103" y1="217.3965" y2="217.3965"/><text fill="#000000" font-family="Segoe UI" font-size="13" lengthAdjust="spacing" textLength="85.1348" x="220.1851" y="212.6543">route request</text></g><rect fill="#EEEEEE" height="3" style="stroke:#EEEEEE;stroke-width:1;" width="575.7803" x="0" y="246.0518"/><line style="stroke:#000000;stroke-width:1;" x1="0" x2="575.7803" y1="246.0518" y2="246.0518"/><line style="stroke:#000000;stroke-width:1;" x1="0" x2="575.7803" y1="249.0518" y2="249.0518"/><rect fill="#EEEEEE" height="23.3105" style="stroke:#000000;stroke-width:2;" width="80.3711" x="247.7046" y="235.3965"/><text fill="#000000" font-family="Segoe UI" font-size="13" font-weight="bold" lengthAdjust="spacing" textLength="62.0864" x="253.7046" y="251.9648">Database</text><g class="message" data-participant-1="Svc" data-participant-2="DB"><polygon fill="#2563EB" points="512.3555,286.0176,522.3555,290.0176,512.3555,294.0176,516.3555,290.0176" style="stroke:#2563EB;stroke-width:1;"/><line style="stroke:#2563EB;stroke-width:1;" x1="356.103" x2="518.3555" y1="290.0176" y2="290.0176"/><text fill="#000000" font-family="Segoe UI" font-size="13" lengthAdjust="spacing" textLength="149.2524" x="363.103" y="285.2754">SELECT ... WHERE filters</text></g><g class="message" data-participant-1="DB" data-participant-2="Svc"><polygon fill="#2563EB" points="367.103,315.3281,357.103,319.3281,367.103,323.3281,363.103,319.3281" style="stroke:#2563EB;stroke-width:1;"/><line style="stroke:#2563EB;stroke-width:1;stroke-dasharray:2,2;" x1="361.103" x2="528.3555" y1="319.3281" y2="319.3281"/><text fill="#000000" font-family="Segoe UI" font-size="13" lengthAdjust="spacing" textLength="93.209" x="373.103" y="314.5859">Page of results</text></g><g class="message" data-participant-1="Svc" data-participant-2="GW"><polygon fill="#2563EB" points="224.1851,344.6387,214.1851,348.6387,224.1851,352.6387,220.1851,348.6387" style="stroke:#2563EB;stroke-width:1;"/><line style="stroke:#2563EB;stroke-width:1;stroke-dasharray:2,2;" x1="218.1851" x2="350.103" y1="348.6387" y2="348.6387"/><text fill="#000000" font-family="Segoe UI" font-size="13" lengthAdjust="spacing" textLength="47.3599" x="230.1851" y="343.8965">200 OK</text></g><g class="message" data-participant-1="GW" data-participant-2="Client"><polygon fill="#2563EB" points="42.7524,373.9492,32.7524,377.9492,42.7524,381.9492,38.7524,377.9492" style="stroke:#2563EB;stroke-width:1;"/><line style="stroke:#2563EB;stroke-width:1;stroke-dasharray:2,2;" x1="36.7524" x2="207.1851" y1="377.9492" y2="377.9492"/><text fill="#000000" font-family="Segoe UI" font-size="13" lengthAdjust="spacing" textLength="47.3599" x="48.7524" y="373.207">200 OK</text></g><!--SRC=[TPDVRzem5CNV_Icku1b2eIi8YKa478Q6Ehgquw7ZmIGtgTLWPxQ1LTE-Us_2lx2ov25Epl4zzkywzbMgN1YnXfM8NbEZDoeUwKmRg0Uyk9azEUoBYFLEgXGIaLciA34cOfEvG2jtBzO8jH1JZV0qhLMduwyDgWZX3mEwXiRetI6g_UckWwloyrmO9oEP2-LyRM8qHmlltGtz3vP_5yrxmMtGAsqpcU1CAhmeCsnt_6wxr7tz-q8ARdf1w-OaVS0H1AINyhrsbrMZRdVLgMXNK7Pub_rbp4cN8Kpu8tXM9EZU6bBP72CdjR8_rKnQ1ti1AW8aL4L0fYDHl3EMdn50RPH9LAu6mi9-U2aFvrEO28SxyLPw9WkeZtq-fDvU-EmsQXpM5Ebrdab1pIfdXDi8df-zjOoCjcYsCaBhNRLxo-Mf1x5mOYKidOQvjYur63xCod9ZduYC-2qVCQO85-WjcYA405BCAK7aydfAyyMjixetFGFoCW8NbhxAL_WXSKSS8To9DAMCf-booL35KCGojgS5ZSy5a_x_ki84FRS4i2HtEAeqf6a5c3vGfqaqnV6sxkmknAET3GOmFl8O31WhH2f0AFeGyXaVFKApsOJ55_wTGo8pXwOIN256myOfUIvIefTGjgNVpx8OArCE8SVTjLij-FQrQYc85_iWnu74DTTamTu1]--></g></svg>