<svg xmlns="http://www.w3.org/2000/svg" xmlns:xlink="http://www.w3.org/1999/xlink" contentStyleType="text/css" data-diagram-type="SEQUENCE" height="616px" preserveAspectRatio="none" style="width:684px;height:616px;background:#FEFEFE;" version="1.1" viewBox="0 0 684 616" width="684px" zoomAndPan="magnify"><title>PATCH /partner-bookings/{booking_id}</title><defs/><g><rect fill="#FEFEFE" height="616" style="stroke:none;stroke-width:1;" width="684" x="0" y="0"/><text fill="#000000" font-family="Segoe UI" font-size="14" font-weight="bold" lengthAdjust="spacing" textLength="289.2695" x="193.699" y="41.3125">PATCH /partner-bookings/{booking_id}</text><text fill="#000000" font-family="Segoe UI" font-size="14" font-weight="bold" lengthAdjust="spacing" textLength="185.3496" x="245.6589" y="57.8008">Update a partner booking</text><g><title>API Gateway</title><rect fill="#7C3AED" height="319.1055" style="stroke:#A23B72;stroke-width:1;" width="10" x="302.0054" y="200.8633"/></g><g><title>svc-partner-integrations</title><rect fill="#7C3AED" height="260.4844" style="stroke:#A23B72;stroke-width:1;" width="10" x="451.8687" y="230.1738"/></g><g><title>PostgreSQL</title><rect fill="#FCE4EC" height="29.3105" style="stroke:#A23B72;stroke-width:1;" width="10" x="626.2427" y="338.1055"/></g><g><title>PostgreSQL</title><rect fill="#FCE4EC" height="29.3105" style="stroke:#A23B72;stroke-width:1;" width="10" x="626.2427" y="432.0371"/></g><g><title>Client</title><rect fill="#000000" fill-opacity="0.00000" height="403.7266" width="8" x="27.7524" y="134.2422"/><line style="stroke:#A23B72;stroke-width:0.5;stroke-dasharray:5,5;" x1="31" x2="31" y1="134.2422" y2="537.9688"/></g><g><title>API Gateway</title><rect fill="#000000" fill-opacity="0.00000" height="403.7266" width="8" x="303.0054" y="134.2422"/><line style="stroke:#A23B72;stroke-width:0.5;stroke-dasharray:5,5;" x1="306.7163" x2="306.7163" y1="134.2422" y2="537.9688"/></g><g><title>svc-partner-integrations</title><rect fill="#000000" fill-opacity="0.00000" height="403.7266" width="8" x="452.8687" y="134.2422"/><line style="stroke:#A23B72;stroke-width:0.5;stroke-dasharray:5,5;" x1="456.2944" x2="456.2944" y1="134.2422" y2="537.9688"/></g><g><title>PostgreSQL</title><rect fill="#000000" fill-opacity="0.00000" height="403.7266" width="8" x="627.2427" y="134.2422"/><line style="stroke:#A23B72;stroke-width:0.5;stroke-dasharray:5,5;" x1="630.8179" x2="630.8179" y1="134.2422" y2="537.9688"/></g><g class="participant participant-head" data-participant="Client"><a href="/applications/" target="_top" title="/applications/" xlink:actuate="onRequest" xlink:href="/applications/" xlink:show="new" xlink:title="/applications/" xlink:type="simple"><rect fill="#E8F4F8" height="30.4883" rx="2.5" ry="2.5" style="stroke:#2E86AB;stroke-width:0.5;" width="53.5049" x="5" y="102.7539"/><text fill="#000000" font-family="Segoe UI" font-size="14" lengthAdjust="spacing" textLength="39.5049" x="12" y="123.2891">Client</text></a></g><g class="participant participant-tail" data-participant="Client"><a href="/applications/" target="_top" title="/applications/" xlink:actuate="onRequest" xlink:href="/applications/" xlink:show="new" xlink:title="/applications/" xlink:type="simple"><rect fill="#E8F4F8" height="30.4883" rx="2.5" ry="2.5" style="stroke:#2E86AB;stroke-width:0.5;" width="53.5049" x="5" y="536.9688"/><text fill="#000000" font-family="Segoe UI" font-size="14" lengthAdjust="spacing" textLength="39.5049" x="12" y="557.5039">Client</text></a></g><g class="participant participant-head" data-participant="GW"><rect fill="#DBEAFE" height="30.4883" rx="2.5" ry="2.5" style="stroke:#2E86AB;stroke-width:0.5;" width="96.5781" x="258.7163" y="102.7539"/><text fill="#000000" font-family="Segoe UI" font-size="14" lengthAdjust="spacing" textLength="82.5781" x="265.7163" y="123.2891">API Gateway</text></g><g class="participant participant-tail" data-participant="GW"><rect fill="#DBEAFE" height="30.4883" rx="2.5" ry="2.5" style="stroke:#2E86AB;stroke-width:0.5;" width="96.5781" x="258.7163" y="536.9688"/><text fill="#000000" font-family="Segoe UI" font-size="14" lengthAdjust="spacing" textLength="82.5781" x="265.7163" y="557.5039">API Gateway</text></g><g class="participant participant-head" data-participant="Svc"><a href="/microservices/svc-partner-integrations/" target="_top" title="/microservices/svc-partner-integrations/" xlink:actuate="onRequest" xlink:href="/microservices/svc-partner-integrations/" xlink:show="new" xlink:title="/microservices/svc-partner-integrations/" xlink:type="simple"><rect fill="#E8F4F8" height="30.4883" rx="2.5" ry="2.5" style="stroke:#2E86AB;stroke-width:0.5;" width="183.1484" x="365.2944" y="102.7539"/><text fill="#000000" font-family="Segoe UI" font-size="14" lengthAdjust="spacing" textLength="169.1484" x="372.2944" y="123.2891">svc-partner-integrations</text></a></g><g class="participant participant-tail" data-participant="Svc"><a href="/microservices/svc-partner-integrations/" target="_top" title="/microservices/svc-partner-integrations/" xlink:actuate="onRequest" xlink:href="/microservices/svc-partner-integrations/" xlink:show="new" xlink:title="/microservices/svc-partner-integrations/" xlink:type="simple"><rect fill="#E8F4F8" height="30.4883" rx="2.5" ry="2.5" style="stroke:#2E86AB;stroke-width:0.5;" width="183.1484" x="365.2944" y="536.9688"/><text fill="#000000" font-family="Segoe UI" font-size="14" lengthAdjust="spacing" textLength="169.1484" x="372.2944" y="557.5039">svc-partner-integrations</text></a></g><g class="participant participant-head" data-participant="DB"><text fill="#000000" font-family="Segoe UI" font-size="14" lengthAdjust="spacing" textLength="76.8496" x="589.8179" y="131.2891">PostgreSQL</text><path d="M613.2427,81.7539 C613.2427,71.7539 631.2427,71.7539 631.2427,71.7539 C631.2427,71.7539 649.2427,71.7539 649.2427,81.7539 L649.2427,107.7539 C649.2427,117.7539 631.2427,117.7539 631.2427,117.7539 C631.2427,117.7539 613.2427,117.7539 613.2427,107.7539 L613.2427,81.7539" fill="#FCE4EC" style="stroke:#181818;stroke-width:0.5;"/><path d="M613.2427,81.7539 C613.2427,91.7539 631.2427,91.7539 631.2427,91.7539 C631.2427,91.7539 649.2427,91.7539 649.2427,81.7539" fill="none" style="stroke:#181818;stroke-width:0.5;"/></g><g class="participant participant-tail" data-participant="DB"><text fill="#000000" font-family="Segoe UI" font-size="14" lengthAdjust="spacing" textLength="76.8496" x="589.8179" y="550.5039">PostgreSQL</text><path d="M613.2427,563.457 C613.2427,553.457 631.2427,553.457 631.2427,553.457 C631.2427,553.457 649.2427,553.457 649.2427,563.457 L649.2427,589.457 C649.2427,599.457 631.2427,599.457 631.2427,599.457 C631.2427,599.457 613.2427,599.457 613.2427,589.457 L613.2427,563.457" fill="#FCE4EC" style="stroke:#181818;stroke-width:0.5;"/><path d="M613.2427,563.457 C613.2427,573.457 631.2427,573.457 631.2427,573.457 C631.2427,573.457 649.2427,573.457 649.2427,563.457" fill="none" style="stroke:#181818;stroke-width:0.5;"/></g><g><title>API Gateway</title><rect fill="#7C3AED" height="319.1055" style="stroke:#A23B72;stroke-width:1;" width="10" x="302.0054" y="200.8633"/></g><g><title>svc-partner-integrations</title><rect fill="#7C3AED" height="260.4844" style="stroke:#A23B72;stroke-width:1;" width="10" x="451.8687" y="230.1738"/></g><g><title>PostgreSQL</title><rect fill="#FCE4EC" height="29.3105" style="stroke:#A23B72;stroke-width:1;" width="10" x="626.2427" y="338.1055"/></g><g><title>PostgreSQL</title><rect fill="#FCE4EC" height="29.3105" style="stroke:#A23B72;stroke-width:1;" width="10" x="626.2427" y="432.0371"/></g><path d="M386,149.2422 L386,174.2422 L526,174.2422 L526,159.2422 L516,149.2422 L386,149.2422" fill="#FEFFDD" style="stroke:#181818;stroke-width:0.5;"/><path d="M516,149.2422 L516,159.2422 L526,159.2422 L516,149.2422" fill="#FEFFDD" style="stroke:#181818;stroke-width:0.5;"/><a href="/services/api/svc-partner-integrations.html#/Partner%20Bookings/updatePartnerBooking" target="_top" title="/services/api/svc-partner-integrations.html#/Partner%20Bookings/updatePartnerBooking" xlink:actuate="onRequest" xlink:href="/services/api/svc-partner-integrations.html#/Partner%20Bookings/updatePartnerBooking" xlink:show="new" xlink:title="/services/api/svc-partner-integrations.html#/Partner%20Bookings/updatePartnerBooking" xlink:type="simple"><text fill="#0000FF" font-family="Segoe UI" font-size="13" lengthAdjust="spacing" text-decoration="underline" textLength="119.4058" x="392" y="166.8105">View in Swagger UI</text></a><g class="message" data-participant-1="Client" data-participant-2="GW"><polygon fill="#7C3AED" points="290.0054,196.8633,300.0054,200.8633,290.0054,204.8633,294.0054,200.8633" style="stroke:#7C3AED;stroke-width:1;"/><line style="stroke:#7C3AED;stroke-width:1;" x1="31.7524" x2="296.0054" y1="200.8633" y2="200.8633"/><text fill="#000000" font-family="Segoe UI" font-size="13" lengthAdjust="spacing" textLength="251.2529" x="38.7524" y="196.1211">PATCH /partner-bookings/{booking_id}</text></g><g class="message" data-participant-1="GW" data-participant-2="Svc"><polygon fill="#7C3AED" points="439.8687,226.1738,449.8687,230.1738,439.8687,234.1738,443.8687,230.1738" style="stroke:#7C3AED;stroke-width:1;"/><line style="stroke:#7C3AED;stroke-width:1;" x1="312.0054" x2="445.8687" y1="230.1738" y2="230.1738"/><text fill="#000000" font-family="Segoe UI" font-size="13" lengthAdjust="spacing" textLength="85.1348" x="319.0054" y="225.4316">route request</text></g><path d="M466,243.1738 L466,268.1738 L624,268.1738 L624,253.1738 L614,243.1738 L466,243.1738" fill="#FEFFDD" style="stroke:#181818;stroke-width:0.5;"/><path d="M614,243.1738 L614,253.1738 L624,253.1738 L614,243.1738" fill="#FEFFDD" style="stroke:#181818;stroke-width:0.5;"/><text fill="#000000" font-family="Segoe UI" font-size="13" lengthAdjust="spacing" textLength="137.5728" x="472" y="260.7422">Validate request body</text><rect fill="#EEEEEE" height="3" style="stroke:#EEEEEE;stroke-width:1;" width="677.6675" x="0" y="294.1396"/><line style="stroke:#000000;stroke-width:1;" x1="0" x2="677.6675" y1="294.1396" y2="294.1396"/><line style="stroke:#000000;stroke-width:1;" x1="0" x2="677.6675" y1="297.1396" y2="297.1396"/><rect fill="#EEEEEE" height="23.3105" style="stroke:#000000;stroke-width:2;" width="80.3711" x="298.6482" y="283.4844"/><text fill="#000000" font-family="Segoe UI" font-size="13" font-weight="bold" lengthAdjust="spacing" textLength="62.0864" x="304.6482" y="300.0527">Database</text><g class="message" data-participant-1="Svc" data-participant-2="DB"><polygon fill="#7C3AED" points="614.2427,334.1055,624.2427,338.1055,614.2427,342.1055,618.2427,338.1055" style="stroke:#7C3AED;stroke-width:1;"/><line style="stroke:#7C3AED;stroke-width:1;" x1="461.8687" x2="620.2427" y1="338.1055" y2="338.1055"/><text fill="#000000" font-family="Segoe UI" font-size="13" lengthAdjust="spacing" textLength="145.374" x="468.8687" y="333.3633">SELECT ... FOR UPDATE</text></g><g class="message" data-participant-1="DB" data-participant-2="Svc"><polygon fill="#7C3AED" points="472.8687,363.416,462.8687,367.416,472.8687,371.416,468.8687,367.416" style="stroke:#7C3AED;stroke-width:1;"/><line style="stroke:#7C3AED;stroke-width:1;stroke-dasharray:2,2;" x1="466.8687" x2="630.2427" y1="367.416" y2="367.416"/><text fill="#000000" font-family="Segoe UI" font-size="13" lengthAdjust="spacing" textLength="75.3086" x="478.8687" y="362.6738">Current row</text></g><path d="M466,380.416 L466,405.416 L652,405.416 L652,390.416 L642,380.416 L466,380.416" fill="#FEFFDD" style="stroke:#181818;stroke-width:0.5;"/><path d="M642,380.416 L642,390.416 L652,390.416 L642,380.416" fill="#FEFFDD" style="stroke:#181818;stroke-width:0.5;"/><text fill="#000000" font-family="Segoe UI" font-size="13" lengthAdjust="spacing" textLength="165.9023" x="472" y="397.9844">Merge changed fields only</text><g class="message" data-participant-1="Svc" data-participant-2="DB"><polygon fill="#7C3AED" points="614.2427,428.0371,624.2427,432.0371,614.2427,436.0371,618.2427,432.0371" style="stroke:#7C3AED;stroke-width:1;"/><line style="stroke:#7C3AED;stroke-width:1;" x1="461.8687" x2="620.2427" y1="432.0371" y2="432.0371"/><text fill="#000000" font-family="Segoe UI" font-size="13" lengthAdjust="spacing" textLength="109.4526" x="468.8687" y="427.2949">UPDATE ... SET ...</text></g><g class="message" data-participant-1="DB" data-participant-2="Svc"><polygon fill="#7C3AED" points="472.8687,457.3477,462.8687,461.3477,472.8687,465.3477,468.8687,461.3477" style="stroke:#7C3AED;stroke-width:1;"/><line style="stroke:#7C3AED;stroke-width:1;stroke-dasharray:2,2;" x1="466.8687" x2="630.2427" y1="461.3477" y2="461.3477"/><text fill="#000000" font-family="Segoe UI" font-size="13" lengthAdjust="spacing" textLength="80.2725" x="478.8687" y="456.6055">Updated row</text></g><g class="message" data-participant-1="Svc" data-participant-2="GW"><polygon fill="#7C3AED" points="323.0054,486.6582,313.0054,490.6582,323.0054,494.6582,319.0054,490.6582" style="stroke:#7C3AED;stroke-width:1;"/><line style="stroke:#7C3AED;stroke-width:1;stroke-dasharray:2,2;" x1="317.0054" x2="455.8687" y1="490.6582" y2="490.6582"/><text fill="#000000" font-family="Segoe UI" font-size="13" lengthAdjust="spacing" textLength="47.3599" x="329.0054" y="485.916">200 OK</text></g><g class="message" data-participant-1="GW" data-participant-2="Client"><polygon fill="#7C3AED" points="42.7524,515.9688,32.7524,519.9688,42.7524,523.9688,38.7524,519.9688" style="stroke:#7C3AED;stroke-width:1;"/><line style="stroke:#7C3AED;stroke-width:1;stroke-dasharray:2,2;" x1="36.7524" x2="306.0054" y1="519.9688" y2="519.9688"/><text fill="#000000" font-family="Segoe UI" font-size="13" lengthAdjust="spacing" textLength="47.3599" x="48.7524" y="515.2266">200 OK</text></g><a href="/microservices/svc-partner-integrations/#integration-context" target="_top" title="/microservices/svc-partner-integrations/#integration-context" xlink:actuate="onRequest" xlink:href="/microservices/svc-partner-integrations/#integration-context" xlink:show="new" xlink:title="/microservices/svc-partner-integrations/#integration-context" xlink:type="simple"><text fill="#0000FF" font-family="Segoe UI" font-size="10" lengthAdjust="spacing" text-decoration="underline" textLength="231.9922" x="444.6753" y="14.668">&#11014; svc-partner-integrations Integration Context</text></a><!--SRC=[bLJRRjf047tVhnY1-iWbK1KKYKgsiLDKcj0IaeSKLOizc5NChhkxGA8eh_sQVbM_f6DZm3H4RU5bxNDcpioPMPjx8LEk-H9cFBoFjLh9o5E9qb0D_EpFp9vX5ZnI6o5ZcFF4O0c9SCvNYGsKj9TyYL0POwmG9eDAEHo_hr2624yCwETehJQ5L2TiSuporoEkhGX5ogLrbOvG5vIMtttdk2yeVnRjTuEtGJUd3SKSXqBYKHgdrNOxhHntrSCH59nrW-RP7dfXHn0GdiENoXvd3JkTMRk4dR2oxNVOCsCBv1G6TtUDfGYrCgZN8aJJCEkmHZPPYRecfCLOSokKD8rgwQaMai7uOE7Npn_mMWGC3W_WRGEcKyQii0d2oBdsFa1Z5pXJYkOJcyPJSVecekUlSf96t29mA7XGe8ob1- -XuYK2fQq0Dx0zPdtnD4r4M5HFmaSHpcW05vHwmn_pi8jRgFPTtw4zE-AzrbmUD5w7_s7WTBhV2cgApxYX_HmfOsEDuy_3F6FVfHbv_blVOqpI046jgMdIeP6Iqbw4f-9LeVh2BfDgOxI5thIQxixRLUvc0HHluKRW1eI4yOR7CObD1kGLoWWoVSOAFsllCulE_sbiZ8TMhBEvPQuMLugEb2Dpx1ne8mdKsJKqzi3Em1rzsxqMySA2cXTnDpmH-JuKeRGDqIDZlHxqTuRsUenbPD8YByzXx0zzxnhgzJe4LrzWCkexr_v1ikGt7Mlx2hsLrbdRz6LW4PRe9-lwX3f621TSnXZ1N60I6L0oUJokPIkUrpBsyvh-NiZs0aGd2jcctisbrMp2rSSo9LkQp7HY53CynRguPRy1]--></g></svg>