<svg xmlns="http://www.w3.org/2000/svg" xmlns:xlink="http://www.w3.org/1999/xlink" contentStyleType="text/css" data-diagram-type="SEQUENCE" height="474px" preserveAspectRatio="none" style="width:627px;height:474px;background:#FEFEFE;" version="1.1" viewBox="0 0 627 474" width="627px" zoomAndPan="magnify"><title>GET /schedule-optimization</title><defs/><g><rect fill="#FEFEFE" height="474" style="stroke:none;stroke-width:1;" width="627" x="0" y="0"/><text fill="#000000" font-family="Segoe UI" font-size="14" font-weight="bold" lengthAdjust="spacing" textLength="205.4063" x="207.2769" y="28.5352">GET /schedule-optimization</text><text fill="#000000" font-family="Segoe UI" font-size="14" font-weight="bold" lengthAdjust="spacing" textLength="289.7891" x="165.0854" y="45.0234">Run synchronous schedule optimization</text><g><title>API Gateway</title><rect fill="#2563EB" height="189.8633" style="stroke:#A23B72;stroke-width:1;" width="10" x="229.6992" y="188.0859"/></g><g><title>svc-scheduling-orchestrator</title><rect fill="#2563EB" height="131.2422" style="stroke:#A23B72;stroke-width:1;" width="10" x="392.4619" y="217.3965"/></g><g><title>PG . Redis</title><rect fill="#FCE4EC" height="29.3105" style="stroke:#A23B72;stroke-width:1;" width="10" x="570.7144" y="290.0176"/></g><g><title>Client</title><rect fill="#000000" fill-opacity="0.00000" height="274.4844" width="8" x="27.7524" y="121.4648"/><line style="stroke:#A23B72;stroke-width:0.5;stroke-dasharray:5,5;" x1="31" x2="31" y1="121.4648" y2="395.9492"/></g><g><title>API Gateway</title><rect fill="#000000" fill-opacity="0.00000" height="274.4844" width="8" x="230.6992" y="121.4648"/><line style="stroke:#A23B72;stroke-width:0.5;stroke-dasharray:5,5;" x1="234.4102" x2="234.4102" y1="121.4648" y2="395.9492"/></g><g><title>svc-scheduling-orchestrator</title><rect fill="#000000" fill-opacity="0.00000" height="274.4844" width="8" x="393.4619" y="121.4648"/><line style="stroke:#A23B72;stroke-width:0.5;stroke-dasharray:5,5;" x1="396.9883" x2="396.9883" y1="121.4648" y2="395.9492"/></g><g><title>PG . Redis</title><rect fill="#000000" fill-opacity="0.00000" height="274.4844" width="8" x="571.7144" y="121.4648"/><line style="stroke:#A23B72;stroke-width:0.5;stroke-dasharray:5,5;" x1="575.4688" x2="575.4688" y1="121.4648" y2="395.9492"/></g><g class="participant participant-head" data-participant="Client"><rect fill="#E8F4F8" height="30.4883" rx="2.5" ry="2.5" style="stroke:#2E86AB;stroke-width:0.5;" width="53.5049" x="5" y="89.9766"/><text fill="#000000" font-family="Segoe UI" font-size="14" lengthAdjust="spacing" textLength="39.5049" x="12" y="110.5117">Client</text></g><g class="participant participant-tail" data-participant="Client"><rect fill="#E8F4F8" height="30.4883" rx="2.5" ry="2.5" style="stroke:#2E86AB;stroke-width:0.5;" width="53.5049" x="5" y="394.9492"/><text fill="#000000" font-family="Segoe UI" font-size="14" lengthAdjust="spacing" textLength="39.5049" x="12" y="415.4844">Client</text></g><g class="participant participant-head" data-participant="GW"><rect fill="#DBEAFE" height="30.4883" rx="2.5" ry="2.5" style="stroke:#2E86AB;stroke-width:0.5;" width="96.5781" x="186.4102" y="89.9766"/><text fill="#000000" font-family="Segoe UI" font-size="14" lengthAdjust="spacing" textLength="82.5781" x="193.4102" y="110.5117">API Gateway</text></g><g class="participant participant-tail" data-participant="GW"><rect fill="#DBEAFE" height="30.4883" rx="2.5" ry="2.5" style="stroke:#2E86AB;stroke-width:0.5;" width="96.5781" x="186.4102" y="394.9492"/><text fill="#000000" font-family="Segoe UI" font-size="14" lengthAdjust="spacing" textLength="82.5781" x="193.4102" y="415.4844">API Gateway</text></g><g class="participant participant-head" data-participant="Svc"><a href="/microservices/svc-scheduling-orchestrator/" target="_top" title="/microservices/svc-scheduling-orchestrator/" xlink:actuate="onRequest" xlink:href="/microservices/svc-scheduling-orchestrator/" xlink:show="new" xlink:title="/microservices/svc-scheduling-orchestrator/" xlink:type="simple"><rect fill="#E8F4F8" height="30.4883" rx="2.5" ry="2.5" style="stroke:#2E86AB;stroke-width:0.5;" width="208.9473" x="292.9883" y="89.9766"/><text fill="#000000" font-family="Segoe UI" font-size="14" lengthAdjust="spacing" textLength="194.9473" x="299.9883" y="110.5117">svc-scheduling-orchestrator</text></a></g><g class="participant participant-tail" data-participant="Svc"><a href="/microservices/svc-scheduling-orchestrator/" target="_top" title="/microservices/svc-scheduling-orchestrator/" xlink:actuate="onRequest" xlink:href="/microservices/svc-scheduling-orchestrator/" xlink:show="new" xlink:title="/microservices/svc-scheduling-orchestrator/" xlink:type="simple"><rect fill="#E8F4F8" height="30.4883" rx="2.5" ry="2.5" style="stroke:#2E86AB;stroke-width:0.5;" width="208.9473" x="292.9883" y="394.9492"/><text fill="#000000" font-family="Segoe UI" font-size="14" lengthAdjust="spacing" textLength="194.9473" x="299.9883" y="415.4844">svc-scheduling-orchestrator</text></a></g><g class="participant participant-head" data-participant="DB"><text fill="#000000" font-family="Segoe UI" font-size="14" lengthAdjust="spacing" textLength="74.4912" x="535.4688" y="118.5117">PG + Redis</text><path d="M557.7144,68.9766 C557.7144,58.9766 575.7144,58.9766 575.7144,58.9766 C575.7144,58.9766 593.7144,58.9766 593.7144,68.9766 L593.7144,94.9766 C593.7144,104.9766 575.7144,104.9766 575.7144,104.9766 C575.7144,104.9766 557.7144,104.9766 557.7144,94.9766 L557.7144,68.9766" fill="#FCE4EC" style="stroke:#181818;stroke-width:0.5;"/><path d="M557.7144,68.9766 C557.7144,78.9766 575.7144,78.9766 575.7144,78.9766 C575.7144,78.9766 593.7144,78.9766 593.7144,68.9766" fill="none" style="stroke:#181818;stroke-width:0.5;"/></g><g class="participant participant-tail" data-participant="DB"><text fill="#000000" font-family="Segoe UI" font-size="14" lengthAdjust="spacing" textLength="74.4912" x="535.4688" y="408.4844">PG + Redis</text><path d="M557.7144,421.4375 C557.7144,411.4375 575.7144,411.4375 575.7144,411.4375 C575.7144,411.4375 593.7144,411.4375 593.7144,421.4375 L593.7144,447.4375 C593.7144,457.4375 575.7144,457.4375 575.7144,457.4375 C575.7144,457.4375 557.7144,457.4375 557.7144,447.4375 L557.7144,421.4375" fill="#FCE4EC" style="stroke:#181818;stroke-width:0.5;"/><path d="M557.7144,421.4375 C557.7144,431.4375 575.7144,431.4375 575.7144,431.4375 C575.7144,431.4375 593.7144,431.4375 593.7144,421.4375" fill="none" style="stroke:#181818;stroke-width:0.5;"/></g><g><title>API Gateway</title><rect fill="#2563EB" height="189.8633" style="stroke:#A23B72;stroke-width:1;" width="10" x="229.6992" y="188.0859"/></g><g><title>svc-scheduling-orchestrator</title><rect fill="#2563EB" height="131.2422" style="stroke:#A23B72;stroke-width:1;" width="10" x="392.4619" y="217.3965"/></g><g><title>PG . Redis</title><rect fill="#FCE4EC" height="29.3105" style="stroke:#A23B72;stroke-width:1;" width="10" x="570.7144" y="290.0176"/></g><path d="M327,136.4648 L327,161.4648 L467,161.4648 L467,146.4648 L457,136.4648 L327,136.4648" fill="#FEFFDD" style="stroke:#181818;stroke-width:0.5;"/><path d="M457,136.4648 L457,146.4648 L467,146.4648 L457,136.4648" fill="#FEFFDD" style="stroke:#181818;stroke-width:0.5;"/><a href="/services/api/svc-scheduling-orchestrator.html" target="_top" title="/services/api/svc-scheduling-orchestrator.html" xlink:actuate="onRequest" xlink:href="/services/api/svc-scheduling-orchestrator.html" xlink:show="new" xlink:title="/services/api/svc-scheduling-orchestrator.html" xlink:type="simple"><text fill="#0000FF" font-family="Segoe UI" font-size="13" lengthAdjust="spacing" text-decoration="underline" textLength="119.4058" x="333" y="154.0332">View in Swagger UI</text></a><g class="message" data-participant-1="Client" data-participant-2="GW"><polygon fill="#2563EB" points="217.6992,184.0859,227.6992,188.0859,217.6992,192.0859,221.6992,188.0859" style="stroke:#2563EB;stroke-width:1;"/><line style="stroke:#2563EB;stroke-width:1;" x1="31.7524" x2="223.6992" y1="188.0859" y2="188.0859"/><text fill="#000000" font-family="Segoe UI" font-size="13" lengthAdjust="spacing" textLength="178.9468" x="38.7524" y="183.3438">GET /schedule-optimization</text></g><g class="message" data-participant-1="GW" data-participant-2="Svc"><polygon fill="#2563EB" points="380.4619,213.3965,390.4619,217.3965,380.4619,221.3965,384.4619,217.3965" style="stroke:#2563EB;stroke-width:1;"/><line style="stroke:#2563EB;stroke-width:1;" x1="239.6992" x2="386.4619" y1="217.3965" y2="217.3965"/><text fill="#000000" font-family="Segoe UI" font-size="13" lengthAdjust="spacing" textLength="85.1348" x="246.6992" y="212.6543">route request</text></g><rect fill="#EEEEEE" height="3" style="stroke:#EEEEEE;stroke-width:1;" width="620.96" x="0" y="246.0518"/><line style="stroke:#000000;stroke-width:1;" x1="0" x2="620.96" y1="246.0518" y2="246.0518"/><line style="stroke:#000000;stroke-width:1;" x1="0" x2="620.96" y1="249.0518" y2="249.0518"/><rect fill="#EEEEEE" height="23.3105" style="stroke:#000000;stroke-width:2;" width="80.3711" x="270.2944" y="235.3965"/><text fill="#000000" font-family="Segoe UI" font-size="13" font-weight="bold" lengthAdjust="spacing" textLength="62.0864" x="276.2944" y="251.9648">Database</text><g class="message" data-participant-1="Svc" data-participant-2="DB"><polygon fill="#2563EB" points="558.7144,286.0176,568.7144,290.0176,558.7144,294.0176,562.7144,290.0176" style="stroke:#2563EB;stroke-width:1;"/><line style="stroke:#2563EB;stroke-width:1;" x1="402.4619" x2="564.7144" y1="290.0176" y2="290.0176"/><text fill="#000000" font-family="Segoe UI" font-size="13" lengthAdjust="spacing" textLength="149.2524" x="409.4619" y="285.2754">SELECT ... WHERE filters</text></g><g class="message" data-participant-1="DB" data-participant-2="Svc"><polygon fill="#2563EB" points="413.4619,315.3281,403.4619,319.3281,413.4619,323.3281,409.4619,319.3281" style="stroke:#2563EB;stroke-width:1;"/><line style="stroke:#2563EB;stroke-width:1;stroke-dasharray:2,2;" x1="407.4619" x2="574.7144" y1="319.3281" y2="319.3281"/><text fill="#000000" font-family="Segoe UI" font-size="13" lengthAdjust="spacing" textLength="93.209" x="419.4619" y="314.5859">Page of results</text></g><g class="message" data-participant-1="Svc" data-participant-2="GW"><polygon fill="#2563EB" points="250.6992,344.6387,240.6992,348.6387,250.6992,352.6387,246.6992,348.6387" style="stroke:#2563EB;stroke-width:1;"/><line style="stroke:#2563EB;stroke-width:1;stroke-dasharray:2,2;" x1="244.6992" x2="396.4619" y1="348.6387" y2="348.6387"/><text fill="#000000" font-family="Segoe UI" font-size="13" lengthAdjust="spacing" textLength="47.3599" x="256.6992" y="343.8965">200 OK</text></g><g class="message" data-participant-1="GW" data-participant-2="Client"><polygon fill="#2563EB" points="42.7524,373.9492,32.7524,377.9492,42.7524,381.9492,38.7524,377.9492" style="stroke:#2563EB;stroke-width:1;"/><line style="stroke:#2563EB;stroke-width:1;stroke-dasharray:2,2;" x1="36.7524" x2="233.6992" y1="377.9492" y2="377.9492"/><text fill="#000000" font-family="Segoe UI" font-size="13" lengthAdjust="spacing" textLength="47.3599" x="48.7524" y="373.207">200 OK</text></g><!--SRC=[VPDRRnen48NV_Ij6vB7Y4aW3Gg8I2rwAYb84INb8UJ3UOR6osDJsGj8e_xsp6ovB4x6yM7lEp66-yRedfJV2YZKiX7oAhKbrr3E9iN0Lykp7tD7XLY8oEwLZM8h4OK69S2dIn8T6-pknHYXDCJO83yDIiHp_fAWbmYi3UhhMcjq-glxrje6B_FLOMA-asWZj0sCZj0SBRzrsWm-M__yqRuKtOIktZTGIHqhZMPjklH4qwxaUcESpARnkXRNhe_G1HnYIdijtnfztbStceb7GFa7Pu4tsnfXNFa4Oy7keEhd2A4smR3PUhTLVuPNHl_KarU1Uj5nPeqtgu623eesnpGa2b7g9GkrB81oy7y_bxdW80-5n9rvops06L_s0TscxPpwtbULz76svR2oTdRV26vlNJRSI7X-hQoMjSMYtIgAhNYYgpkV7ZKJ2YuLmT3V60_W24uoKovls0-BJupUynvWcU62sQBCemabXnnonKPUoAYk_Jk2NmXqe3TETY6Dgyp2Spndg2BBEZBt3WVAt347xmXgOa5vj2LdEQdyzwKYL6OGsq7P9jDcLTlxapiI3dNKwq3zCtUambedKW0PkmvIFUEyUAfKApBxp2OUbIZnQTsfLu4B7yZ5vB69YjAHiHv-SOn4MIlOXXm7hjHhy_56qP5opESYnX_6PQp1Z_m00]--></g></svg>