<?plantuml 1.2026.2?><svg xmlns="http://www.w3.org/2000/svg" xmlns:xlink="http://www.w3.org/1999/xlink" contentStyleType="text/css" data-diagram-type="SEQUENCE" height="1334px" preserveAspectRatio="none" style="width:971px;height:1334px;background:#FEFEFE;" version="1.1" viewBox="0 0 971 1334" width="971px" zoomAndPan="magnify"><title>POST /partner-bookings
Create partner booking
&lt;size:10&gt;&lt;color:#7c3aed&gt;ARCHITECT OVERRIDE &#8212; enriched with partner eligibility and commission tier&lt;/color&gt;&lt;/size&gt;</title><defs/><g><rect fill="#FEFEFE" height="1334" style="stroke:none;stroke-width:1;" width="971" x="0" y="0"/><text fill="#000000" font-family="'Segoe UI'" font-size="14" font-weight="bold" lengthAdjust="spacing" textLength="179.4639" x="392.1218" y="41.3125">POST /partner-bookings</text><text fill="#000000" font-family="'Segoe UI'" font-size="14" font-weight="bold" lengthAdjust="spacing" textLength="168.1846" x="397.7615" y="57.8008">Create partner booking</text><text fill="#7C3AED" font-family="'Segoe UI'" font-size="10" font-weight="bold" lengthAdjust="spacing" textLength="403.6768" x="280.0154" y="70.4219">ARCHITECT OVERRIDE &#8212; enriched with partner eligibility and commission tier</text><g><title>API Gateway</title><rect fill="#9333EA" height="318.0371" style="stroke:#181818;stroke-width:1;" width="10" x="221.1938" y="212.6406"/></g><g><title>svc-partner-integrations</title><rect fill="#9333EA" height="259.416" style="stroke:#181818;stroke-width:1;" width="10" x="420.6558" y="241.9512"/></g><g><title>Guest Profiles</title><rect fill="#EDE9FE" height="29.3105" style="stroke:#181818;stroke-width:1;" width="10" x="590.3979" y="610.2988"/></g><g><title>Trip Catalog</title><rect fill="#FEF3C7" height="44.6211" style="stroke:#181818;stroke-width:1;" width="10" x="703.0396" y="712.2305"/></g><g><title>Reservations</title><rect fill="#D1FAE5" height="44.6211" style="stroke:#181818;stroke-width:1;" width="10" x="811.8564" y="956.6465"/></g><g><title>PostgreSQL</title><rect fill="#FEF9C3" height="59.9316" style="stroke:#181818;stroke-width:1;" width="10" x="913.2827" y="337.1934"/></g><g><title>PostgreSQL</title><rect fill="#FEF9C3" height="29.3105" style="stroke:#181818;stroke-width:1;" width="10" x="913.2827" y="1119.8203"/></g><rect fill="none" height="126.5527" rx="4" ry="4" style="stroke:#000000;stroke-width:1.5;" width="639.3457" x="10" y="412.125"/><g class="participant-lifeline" data-entity-uid="part1" data-qualified-name="Client" id="part1-lifeline"><g><title>Client</title><rect fill="#000000" fill-opacity="0.00000" height="1110.3535" width="8" x="42.7524" y="146.0195"/><line style="stroke:#6B7280;stroke-width:0.5;stroke-dasharray:5,5;" x1="46" x2="46" y1="146.0195" y2="1256.373"/></g></g><g class="participant-lifeline" data-entity-uid="part2" data-qualified-name="GW" id="part2-lifeline"><g><title>API Gateway</title><rect fill="#000000" fill-opacity="0.00000" height="1110.3535" width="8" x="222.1938" y="146.0195"/><line style="stroke:#6B7280;stroke-width:0.5;stroke-dasharray:5,5;" x1="225.9048" x2="225.9048" y1="146.0195" y2="1256.373"/></g></g><g class="participant-lifeline" data-entity-uid="part3" data-qualified-name="Svc" id="part3-lifeline"><g><title>svc-partner-integrations</title><rect fill="#000000" fill-opacity="0.00000" height="1110.3535" width="8" x="421.6558" y="146.0195"/><line style="stroke:#6B7280;stroke-width:0.5;stroke-dasharray:5,5;" x1="425.0815" x2="425.0815" y1="146.0195" y2="1256.373"/></g></g><g class="participant-lifeline" data-entity-uid="part4" data-qualified-name="GP" id="part4-lifeline"><g><title>Guest Profiles</title><rect fill="#000000" fill-opacity="0.00000" height="1110.3535" width="8" x="591.3979" y="146.0195"/><line style="stroke:#6B7280;stroke-width:0.5;stroke-dasharray:5,5;" x1="594.5718" x2="594.5718" y1="146.0195" y2="1256.373"/></g></g><g class="participant-lifeline" data-entity-uid="part5" data-qualified-name="TC" id="part5-lifeline"><g><title>Trip Catalog</title><rect fill="#000000" fill-opacity="0.00000" height="1110.3535" width="8" x="704.0396" y="146.0195"/><line style="stroke:#6B7280;stroke-width:0.5;stroke-dasharray:5,5;" x1="707.2241" x2="707.2241" y1="146.0195" y2="1256.373"/></g></g><g class="participant-lifeline" data-entity-uid="part6" data-qualified-name="Res" id="part6-lifeline"><g><title>Reservations</title><rect fill="#000000" fill-opacity="0.00000" height="1110.3535" width="8" x="812.8564" y="146.0195"/><line style="stroke:#6B7280;stroke-width:0.5;stroke-dasharray:5,5;" x1="816.855" x2="816.855" y1="146.0195" y2="1256.373"/></g></g><g class="participant-lifeline" data-entity-uid="part7" data-qualified-name="DB" id="part7-lifeline"><g><title>PostgreSQL</title><rect fill="#000000" fill-opacity="0.00000" height="1110.3535" width="8" x="914.2827" y="146.0195"/><line style="stroke:#6B7280;stroke-width:0.5;stroke-dasharray:5,5;" x1="917.8579" x2="917.8579" y1="146.0195" y2="1256.373"/></g></g><g class="participant participant-head" data-entity-uid="part1" data-qualified-name="Client" id="part1-head"><a href="/applications/" target="_top" title="/applications/" xlink:actuate="onRequest" xlink:href="/applications/" xlink:show="new" xlink:title="/applications/" xlink:type="simple"><rect fill="#F9FAFB" height="30.4883" rx="4" ry="4" style="stroke:#374151;stroke-width:0.5;" width="53.5049" x="20" y="114.5313"/><text fill="#000000" font-family="'Segoe UI'" font-size="14" lengthAdjust="spacing" textLength="39.5049" x="27" y="135.0664">Client</text></a></g><g class="participant participant-tail" data-entity-uid="part1" data-qualified-name="Client" id="part1-tail"><a href="/applications/" target="_top" title="/applications/" xlink:actuate="onRequest" xlink:href="/applications/" xlink:show="new" xlink:title="/applications/" xlink:type="simple"><rect fill="#F9FAFB" height="30.4883" rx="4" ry="4" style="stroke:#374151;stroke-width:0.5;" width="53.5049" x="20" y="1255.373"/><text fill="#000000" font-family="'Segoe UI'" font-size="14" lengthAdjust="spacing" textLength="39.5049" x="27" y="1275.9082">Client</text></a></g><g class="participant participant-head" data-entity-uid="part2" data-qualified-name="GW" id="part2-head"><a href="/actors/#api-gateway" target="_top" title="/actors/#api-gateway" xlink:actuate="onRequest" xlink:href="/actors/#api-gateway" xlink:show="new" xlink:title="/actors/#api-gateway" xlink:type="simple"><rect fill="#E0F2FE" height="30.4883" rx="4" ry="4" style="stroke:#374151;stroke-width:0.5;" width="96.5781" x="177.9048" y="114.5313"/><text fill="#000000" font-family="'Segoe UI'" font-size="14" lengthAdjust="spacing" textLength="82.5781" x="184.9048" y="135.0664">API Gateway</text></a></g><g class="participant participant-tail" data-entity-uid="part2" data-qualified-name="GW" id="part2-tail"><a href="/actors/#api-gateway" target="_top" title="/actors/#api-gateway" xlink:actuate="onRequest" xlink:href="/actors/#api-gateway" xlink:show="new" xlink:title="/actors/#api-gateway" xlink:type="simple"><rect fill="#E0F2FE" height="30.4883" rx="4" ry="4" style="stroke:#374151;stroke-width:0.5;" width="96.5781" x="177.9048" y="1255.373"/><text fill="#000000" font-family="'Segoe UI'" font-size="14" lengthAdjust="spacing" textLength="82.5781" x="184.9048" y="1275.9082">API Gateway</text></a></g><g class="participant participant-head" data-entity-uid="part3" data-qualified-name="Svc" id="part3-head"><a href="/microservices/svc-partner-integrations/" target="_top" title="/microservices/svc-partner-integrations/" xlink:actuate="onRequest" xlink:href="/microservices/svc-partner-integrations/" xlink:show="new" xlink:title="/microservices/svc-partner-integrations/" xlink:type="simple"><rect fill="#F3E8FF" height="30.4883" rx="4" ry="4" style="stroke:#374151;stroke-width:0.5;" width="183.1484" x="334.0815" y="114.5313"/><text fill="#000000" font-family="'Segoe UI'" font-size="14" lengthAdjust="spacing" textLength="169.1484" x="341.0815" y="135.0664">svc-partner-integrations</text></a></g><g class="participant participant-tail" data-entity-uid="part3" data-qualified-name="Svc" id="part3-tail"><a href="/microservices/svc-partner-integrations/" target="_top" title="/microservices/svc-partner-integrations/" xlink:actuate="onRequest" xlink:href="/microservices/svc-partner-integrations/" xlink:show="new" xlink:title="/microservices/svc-partner-integrations/" xlink:type="simple"><rect fill="#F3E8FF" height="30.4883" rx="4" ry="4" style="stroke:#374151;stroke-width:0.5;" width="183.1484" x="334.0815" y="1255.373"/><text fill="#000000" font-family="'Segoe UI'" font-size="14" lengthAdjust="spacing" textLength="169.1484" x="341.0815" y="1275.9082">svc-partner-integrations</text></a></g><g class="participant participant-head" data-entity-uid="part4" data-qualified-name="GP" id="part4-head"><a href="/microservices/svc-guest-profiles/" target="_top" title="/microservices/svc-guest-profiles/" xlink:actuate="onRequest" xlink:href="/microservices/svc-guest-profiles/" xlink:show="new" xlink:title="/microservices/svc-guest-profiles/" xlink:type="simple"><rect fill="#EDE9FE" height="30.4883" rx="4" ry="4" style="stroke:#374151;stroke-width:0.5;" width="107.6523" x="541.5718" y="114.5313"/><text fill="#000000" font-family="'Segoe UI'" font-size="14" lengthAdjust="spacing" textLength="93.6523" x="548.5718" y="135.0664">Guest Profiles</text></a></g><g class="participant participant-tail" data-entity-uid="part4" data-qualified-name="GP" id="part4-tail"><a href="/microservices/svc-guest-profiles/" target="_top" title="/microservices/svc-guest-profiles/" xlink:actuate="onRequest" xlink:href="/microservices/svc-guest-profiles/" xlink:show="new" xlink:title="/microservices/svc-guest-profiles/" xlink:type="simple"><rect fill="#EDE9FE" height="30.4883" rx="4" ry="4" style="stroke:#374151;stroke-width:0.5;" width="107.6523" x="541.5718" y="1255.373"/><text fill="#000000" font-family="'Segoe UI'" font-size="14" lengthAdjust="spacing" textLength="93.6523" x="548.5718" y="1275.9082">Guest Profiles</text></a></g><g class="participant participant-head" data-entity-uid="part5" data-qualified-name="TC" id="part5-head"><a href="/microservices/svc-trip-catalog/" target="_top" title="/microservices/svc-trip-catalog/" xlink:actuate="onRequest" xlink:href="/microservices/svc-trip-catalog/" xlink:show="new" xlink:title="/microservices/svc-trip-catalog/" xlink:type="simple"><rect fill="#FEF3C7" height="30.4883" rx="4" ry="4" style="stroke:#374151;stroke-width:0.5;" width="97.6309" x="659.2241" y="114.5313"/><text fill="#000000" font-family="'Segoe UI'" font-size="14" lengthAdjust="spacing" textLength="83.6309" x="666.2241" y="135.0664">Trip Catalog</text></a></g><g class="participant participant-tail" data-entity-uid="part5" data-qualified-name="TC" id="part5-tail"><a href="/microservices/svc-trip-catalog/" target="_top" title="/microservices/svc-trip-catalog/" xlink:actuate="onRequest" xlink:href="/microservices/svc-trip-catalog/" xlink:show="new" xlink:title="/microservices/svc-trip-catalog/" xlink:type="simple"><rect fill="#FEF3C7" height="30.4883" rx="4" ry="4" style="stroke:#374151;stroke-width:0.5;" width="97.6309" x="659.2241" y="1255.373"/><text fill="#000000" font-family="'Segoe UI'" font-size="14" lengthAdjust="spacing" textLength="83.6309" x="666.2241" y="1275.9082">Trip Catalog</text></a></g><g class="participant participant-head" data-entity-uid="part6" data-qualified-name="Res" id="part6-head"><a href="/microservices/svc-reservations/" target="_top" title="/microservices/svc-reservations/" xlink:actuate="onRequest" xlink:href="/microservices/svc-reservations/" xlink:show="new" xlink:title="/microservices/svc-reservations/" xlink:type="simple"><rect fill="#D1FAE5" height="30.4883" rx="4" ry="4" style="stroke:#374151;stroke-width:0.5;" width="100.0029" x="766.855" y="114.5313"/><text fill="#000000" font-family="'Segoe UI'" font-size="14" lengthAdjust="spacing" textLength="86.0029" x="773.855" y="135.0664">Reservations</text></a></g><g class="participant participant-tail" data-entity-uid="part6" data-qualified-name="Res" id="part6-tail"><a href="/microservices/svc-reservations/" target="_top" title="/microservices/svc-reservations/" xlink:actuate="onRequest" xlink:href="/microservices/svc-reservations/" xlink:show="new" xlink:title="/microservices/svc-reservations/" xlink:type="simple"><rect fill="#D1FAE5" height="30.4883" rx="4" ry="4" style="stroke:#374151;stroke-width:0.5;" width="100.0029" x="766.855" y="1255.373"/><text fill="#000000" font-family="'Segoe UI'" font-size="14" lengthAdjust="spacing" textLength="86.0029" x="773.855" y="1275.9082">Reservations</text></a></g><g class="participant participant-head" data-entity-uid="part7" data-qualified-name="DB" id="part7-head"><a href="/microservices/svc-partner-integrations/#data-store" target="_top" title="/microservices/svc-partner-integrations/#data-store" xlink:actuate="onRequest" xlink:href="/microservices/svc-partner-integrations/#data-store" xlink:show="new" xlink:title="/microservices/svc-partner-integrations/#data-store" xlink:type="simple"><text fill="#000000" font-family="'Segoe UI'" font-size="14" lengthAdjust="spacing" textLength="76.8496" x="876.8579" y="143.0664">PostgreSQL</text><path d="M900.2827,93.5313 C900.2827,83.5313 918.2827,83.5313 918.2827,83.5313 C918.2827,83.5313 936.2827,83.5313 936.2827,93.5313 L936.2827,119.5313 C936.2827,129.5313 918.2827,129.5313 918.2827,129.5313 C918.2827,129.5313 900.2827,129.5313 900.2827,119.5313 L900.2827,93.5313" fill="#FEF9C3" style="stroke:#181818;stroke-width:0.5;"/><path d="M900.2827,93.5313 C900.2827,103.5313 918.2827,103.5313 918.2827,103.5313 C918.2827,103.5313 936.2827,103.5313 936.2827,93.5313" fill="none" style="stroke:#181818;stroke-width:0.5;"/></a></g><g class="participant participant-tail" data-entity-uid="part7" data-qualified-name="DB" id="part7-tail"><a href="/microservices/svc-partner-integrations/#data-store" target="_top" title="/microservices/svc-partner-integrations/#data-store" xlink:actuate="onRequest" xlink:href="/microservices/svc-partner-integrations/#data-store" xlink:show="new" xlink:title="/microservices/svc-partner-integrations/#data-store" xlink:type="simple"><text fill="#000000" font-family="'Segoe UI'" font-size="14" lengthAdjust="spacing" textLength="76.8496" x="876.8579" y="1268.9082">PostgreSQL</text><path d="M900.2827,1281.8613 C900.2827,1271.8613 918.2827,1271.8613 918.2827,1271.8613 C918.2827,1271.8613 936.2827,1271.8613 936.2827,1281.8613 L936.2827,1307.8613 C936.2827,1317.8613 918.2827,1317.8613 918.2827,1317.8613 C918.2827,1317.8613 900.2827,1317.8613 900.2827,1307.8613 L900.2827,1281.8613" fill="#FEF9C3" style="stroke:#181818;stroke-width:0.5;"/><path d="M900.2827,1281.8613 C900.2827,1291.8613 918.2827,1291.8613 918.2827,1291.8613 C918.2827,1291.8613 936.2827,1291.8613 936.2827,1281.8613" fill="none" style="stroke:#181818;stroke-width:0.5;"/></a></g><g><title>API Gateway</title><rect fill="#9333EA" height="318.0371" style="stroke:#181818;stroke-width:1;" width="10" x="221.1938" y="212.6406"/></g><g><title>svc-partner-integrations</title><rect fill="#9333EA" height="259.416" style="stroke:#181818;stroke-width:1;" width="10" x="420.6558" y="241.9512"/></g><g><title>Guest Profiles</title><rect fill="#EDE9FE" height="29.3105" style="stroke:#181818;stroke-width:1;" width="10" x="590.3979" y="610.2988"/></g><g><title>Trip Catalog</title><rect fill="#FEF3C7" height="44.6211" style="stroke:#181818;stroke-width:1;" width="10" x="703.0396" y="712.2305"/></g><g><title>Reservations</title><rect fill="#D1FAE5" height="44.6211" style="stroke:#181818;stroke-width:1;" width="10" x="811.8564" y="956.6465"/></g><g><title>PostgreSQL</title><rect fill="#FEF9C3" height="59.9316" style="stroke:#181818;stroke-width:1;" width="10" x="913.2827" y="337.1934"/></g><g><title>PostgreSQL</title><rect fill="#FEF9C3" height="29.3105" style="stroke:#181818;stroke-width:1;" width="10" x="913.2827" y="1119.8203"/></g><path d="M355,165.0195 L355,182.0195 A4,4 0 0 0 359,186.0195 L491,186.0195 A4,4 0 0 0 495,182.0195 L495,171.0195 L485,161.0195 L359,161.0195 A4,4 0 0 0 355,165.0195" fill="#FEFFDD" style="stroke:#181818;stroke-width:0.5;"/><path d="M485,161.0195 L485,169.0195 A2,2 0 0 0 487,171.0195 L495,171.0195 L485,161.0195" fill="#FEFFDD" style="stroke:#181818;stroke-width:0.5;"/><a href="/services/api/svc-partner-integrations.html" target="_top" title="/services/api/svc-partner-integrations.html" xlink:actuate="onRequest" xlink:href="/services/api/svc-partner-integrations.html" xlink:show="new" xlink:title="/services/api/svc-partner-integrations.html" xlink:type="simple"><text fill="#0000FF" font-family="'Segoe UI'" font-size="13" lengthAdjust="spacing" text-decoration="underline" textLength="119.4058" x="361" y="178.5879">View in Swagger UI</text></a><g class="message" data-entity-1="part1" data-entity-2="part2" id="msg1"><polygon fill="#9333EA" points="209.1938,208.6406,219.1938,212.6406,209.1938,216.6406,213.1938,212.6406" style="stroke:#9333EA;stroke-width:1;"/><line style="stroke:#9333EA;stroke-width:1;" x1="46.7524" x2="215.1938" y1="212.6406" y2="212.6406"/><text fill="#000000" font-family="'Segoe UI'" font-size="13" lengthAdjust="spacing" textLength="155.4414" x="53.7524" y="207.8984">POST /partner-bookings</text></g><g class="message" data-entity-1="part2" data-entity-2="part3" id="msg2"><polygon fill="#9333EA" points="408.6558,237.9512,418.6558,241.9512,408.6558,245.9512,412.6558,241.9512" style="stroke:#9333EA;stroke-width:1;"/><line style="stroke:#9333EA;stroke-width:1;" x1="231.1938" x2="414.6558" y1="241.9512" y2="241.9512"/><text fill="#000000" font-family="'Segoe UI'" font-size="13" lengthAdjust="spacing" textLength="85.1348" x="238.1938" y="237.209">route request</text></g><path d="M435,258.9512 L435,290.9512 A4,4 0 0 0 439,294.9512 L586,294.9512 A4,4 0 0 0 590,290.9512 L590,264.9512 L580,254.9512 L439,254.9512 A4,4 0 0 0 435,258.9512" fill="#FEFFDD" style="stroke:#181818;stroke-width:0.5;"/><path d="M580,254.9512 L580,262.9512 A2,2 0 0 0 582,264.9512 L590,264.9512 L580,254.9512" fill="#FEFFDD" style="stroke:#181818;stroke-width:0.5;"/><text fill="#000000" font-family="'Segoe UI'" font-size="13" lengthAdjust="spacing" textLength="100.4199" x="441" y="272.5195">Validate API key</text><text fill="#000000" font-family="'Segoe UI'" font-size="13" lengthAdjust="spacing" textLength="134.1577" x="441" y="287.8301">Load partner account</text><g class="message" data-entity-1="part3" data-entity-2="part7" id="msg3"><polygon fill="#9333EA" points="901.2827,333.1934,911.2827,337.1934,901.2827,341.1934,905.2827,337.1934" style="stroke:#9333EA;stroke-width:1;"/><line style="stroke:#9333EA;stroke-width:1;" x1="430.6558" x2="907.2827" y1="337.1934" y2="337.1934"/><text fill="#000000" font-family="'Segoe UI'" font-size="13" lengthAdjust="spacing" textLength="142.7524" x="437.6558" y="317.1406">SELECT FROM partners</text><text fill="#000000" font-family="'Segoe UI'" font-size="13" lengthAdjust="spacing" textLength="154.8384" x="437.6558" y="332.4512">WHERE api_key_hash = ?</text></g><g class="message" data-entity-1="part7" data-entity-2="part3" id="msg4"><polygon fill="#9333EA" points="441.6558,393.125,431.6558,397.125,441.6558,401.125,437.6558,397.125" style="stroke:#9333EA;stroke-width:1;"/><line style="stroke:#9333EA;stroke-width:1;stroke-dasharray:2,2;" x1="435.6558" x2="917.2827" y1="397.125" y2="397.125"/><text fill="#000000" font-family="'Segoe UI'" font-size="13" lengthAdjust="spacing" textLength="89.9971" x="447.6558" y="361.7617">Partner record</text><text fill="#000000" font-family="'Segoe UI'" font-size="13" lengthAdjust="spacing" textLength="119.4058" x="447.6558" y="377.0723">(partner_id, status,</text><text fill="#000000" font-family="'Segoe UI'" font-size="13" lengthAdjust="spacing" textLength="188.3223" x="447.6558" y="392.3828">commission_tier, daily_quota)</text></g><path d="M14,412.125 L72.1387,412.125 L72.1387,419.4355 L62.1387,429.4355 L10,429.4355 L10,416.125 A4,4 0 0 1 14,412.125" fill="#EEEEEE" style="stroke:#000000;stroke-width:1.5;"/><rect fill="none" height="126.5527" rx="4" ry="4" style="stroke:#000000;stroke-width:1.5;" width="639.3457" x="10" y="412.125"/><text fill="#000000" font-family="'Segoe UI'" font-size="13" font-weight="bold" lengthAdjust="spacing" textLength="17.1387" x="25" y="425.6934">alt</text><text fill="#000000" font-family="'Segoe UI'" font-size="11" font-weight="bold" lengthAdjust="spacing" textLength="226.0747" x="87.1387" y="424.7598">[Partner suspended or over daily quota]</text><path d="M435,438.4355 L435,470.4355 A4,4 0 0 0 439,474.4355 L635,474.4355 A4,4 0 0 0 639,470.4355 L639,444.4355 L629,434.4355 L439,434.4355 A4,4 0 0 0 435,438.4355" fill="#FEE2E2" style="stroke:#181818;stroke-width:0.5;"/><path d="M629,434.4355 L629,442.4355 A2,2 0 0 0 631,444.4355 L639,444.4355 L629,434.4355" fill="#FEE2E2" style="stroke:#181818;stroke-width:0.5;"/><text fill="#000000" font-family="'Segoe UI'" font-size="13" lengthAdjust="spacing" textLength="146.1738" x="441" y="452.0039">Reject: partner account</text><text fill="#000000" font-family="'Segoe UI'" font-size="13" lengthAdjust="spacing" textLength="183.3457" x="441" y="467.3145">not active or quota exceeded</text><g class="message" data-entity-1="part3" data-entity-2="part2" id="msg5"><polygon fill="#9333EA" points="242.1938,497.3672,232.1938,501.3672,242.1938,505.3672,238.1938,501.3672" style="stroke:#9333EA;stroke-width:1;"/><line style="stroke:#9333EA;stroke-width:1;stroke-dasharray:2,2;" x1="236.1938" x2="424.6558" y1="501.3672" y2="501.3672"/><text fill="#000000" font-family="'Segoe UI'" font-size="13" lengthAdjust="spacing" textLength="92.6631" x="248.1938" y="496.625">403 Forbidden</text></g><g class="message" data-entity-1="part2" data-entity-2="part1" id="msg6"><polygon fill="#9333EA" points="57.7524,526.6777,47.7524,530.6777,57.7524,534.6777,53.7524,530.6777" style="stroke:#9333EA;stroke-width:1;"/><line style="stroke:#9333EA;stroke-width:1;stroke-dasharray:2,2;" x1="51.7524" x2="225.1938" y1="530.6777" y2="530.6777"/><text fill="#000000" font-family="'Segoe UI'" font-size="13" lengthAdjust="spacing" textLength="92.6631" x="63.7524" y="525.9355">403 Forbidden</text></g><rect fill="#EEEEEE" height="3" rx="4" ry="4" style="stroke:#EEEEEE;stroke-width:1;" width="964.7075" x="0" y="566.333"/><line style="stroke:#000000;stroke-width:1;" x1="0" x2="964.7075" y1="566.333" y2="566.333"/><line style="stroke:#000000;stroke-width:1;" x1="0" x2="964.7075" y1="569.333" y2="569.333"/><rect fill="#EEEEEE" height="23.3105" rx="4" ry="4" style="stroke:#000000;stroke-width:2;" width="128.8101" x="417.9487" y="555.6777"/><text fill="#000000" font-family="'Segoe UI'" font-size="13" font-weight="bold" lengthAdjust="spacing" textLength="110.5254" x="423.9487" y="572.2461">Guest Validation</text><g class="message" data-entity-1="part3" data-entity-2="part4" id="msg7"><polygon fill="#9333EA" points="578.3979,606.2988,588.3979,610.2988,578.3979,614.2988,582.3979,610.2988" style="stroke:#9333EA;stroke-width:1;"/><line style="stroke:#9333EA;stroke-width:1;" x1="425.6558" x2="584.3979" y1="610.2988" y2="610.2988"/><a href="/microservices/svc-guest-profiles/#get-guestsguest_id-get-guest-profile" target="_top" title="/microservices/svc-guest-profiles/#get-guestsguest_id-get-guest-profile" xlink:actuate="onRequest" xlink:href="/microservices/svc-guest-profiles/#get-guestsguest_id-get-guest-profile" xlink:show="new" xlink:title="/microservices/svc-guest-profiles/#get-guestsguest_id-get-guest-profile" xlink:type="simple"><text fill="#0000FF" font-family="'Segoe UI'" font-size="13" lengthAdjust="spacing" text-decoration="underline" textLength="145.7422" x="432.6558" y="605.5566">GET /guests/{guest_id}</text></a></g><g class="message" data-entity-1="part4" data-entity-2="part3" id="msg8"><polygon fill="#9333EA" points="436.6558,635.6094,426.6558,639.6094,436.6558,643.6094,432.6558,639.6094" style="stroke:#9333EA;stroke-width:1;"/><line style="stroke:#9333EA;stroke-width:1;stroke-dasharray:2,2;" x1="430.6558" x2="594.3979" y1="639.6094" y2="639.6094"/><text fill="#000000" font-family="'Segoe UI'" font-size="13" lengthAdjust="spacing" textLength="81.3325" x="442.6558" y="634.8672">Guest profile</text></g><rect fill="#EEEEEE" height="3" rx="4" ry="4" style="stroke:#EEEEEE;stroke-width:1;" width="964.7075" x="0" y="668.2646"/><line style="stroke:#000000;stroke-width:1;" x1="0" x2="964.7075" y1="668.2646" y2="668.2646"/><line style="stroke:#000000;stroke-width:1;" x1="0" x2="964.7075" y1="671.2646" y2="671.2646"/><rect fill="#EEEEEE" height="23.3105" rx="4" ry="4" style="stroke:#000000;stroke-width:2;" width="125.4585" x="419.6245" y="657.6094"/><text fill="#000000" font-family="'Segoe UI'" font-size="13" font-weight="bold" lengthAdjust="spacing" textLength="107.1738" x="425.6245" y="674.1777">Trip Availability</text><g class="message" data-entity-1="part3" data-entity-2="part5" id="msg9"><polygon fill="#9333EA" points="691.0396,708.2305,701.0396,712.2305,691.0396,716.2305,695.0396,712.2305" style="stroke:#9333EA;stroke-width:1;"/><line style="stroke:#9333EA;stroke-width:1;" x1="425.6558" x2="697.0396" y1="712.2305" y2="712.2305"/><a href="/microservices/svc-trip-catalog/#get-tripstrip_id-get-trip-details" target="_top" title="/microservices/svc-trip-catalog/#get-tripstrip_id-get-trip-details" xlink:actuate="onRequest" xlink:href="/microservices/svc-trip-catalog/#get-tripstrip_id-get-trip-details" xlink:show="new" xlink:title="/microservices/svc-trip-catalog/#get-tripstrip_id-get-trip-details" xlink:type="simple"><text fill="#0000FF" font-family="'Segoe UI'" font-size="13" lengthAdjust="spacing" text-decoration="underline" textLength="120.1738" x="432.6558" y="707.4883">GET /trips/{trip_id}</text></a></g><g class="message" data-entity-1="part5" data-entity-2="part3" id="msg10"><polygon fill="#9333EA" points="436.6558,752.8516,426.6558,756.8516,436.6558,760.8516,432.6558,756.8516" style="stroke:#9333EA;stroke-width:1;"/><line style="stroke:#9333EA;stroke-width:1;stroke-dasharray:2,2;" x1="430.6558" x2="707.0396" y1="756.8516" y2="756.8516"/><text fill="#000000" font-family="'Segoe UI'" font-size="13" lengthAdjust="spacing" textLength="71.2017" x="442.6558" y="736.7988">Trip details</text><text fill="#000000" font-family="'Segoe UI'" font-size="13" lengthAdjust="spacing" textLength="127.4229" x="442.6558" y="752.1094">(availability, pricing)</text></g><rect fill="#EEEEEE" height="3" rx="4" ry="4" style="stroke:#EEEEEE;stroke-width:1;" width="964.7075" x="0" y="785.5068"/><line style="stroke:#000000;stroke-width:1;" x1="0" x2="964.7075" y1="785.5068" y2="785.5068"/><line style="stroke:#000000;stroke-width:1;" x1="0" x2="964.7075" y1="788.5068" y2="788.5068"/><rect fill="#EEEEEE" height="23.3105" rx="4" ry="4" style="stroke:#000000;stroke-width:2;" width="145.041" x="409.8333" y="774.8516"/><text fill="#000000" font-family="'Segoe UI'" font-size="13" font-weight="bold" lengthAdjust="spacing" textLength="126.7563" x="415.8333" y="791.4199">Create Reservation</text><path d="M430,817.1621 L430,895.1621 A4,4 0 0 0 434,899.1621 L657,899.1621 A4,4 0 0 0 661,895.1621 L661,823.1621 L651,813.1621 L434,813.1621 A4,4 0 0 0 430,817.1621" fill="#FEFFDD" style="stroke:#181818;stroke-width:0.5;"/><path d="M651,813.1621 L651,821.1621 A2,2 0 0 0 653,823.1621 L661,823.1621 L651,813.1621" fill="#FEFFDD" style="stroke:#181818;stroke-width:0.5;"/><text fill="#000000" font-family="'Segoe UI'" font-size="13" lengthAdjust="spacing" textLength="195.4316" x="436" y="830.7305">Apply partner commission tier:</text><text fill="#000000" font-family="'Segoe UI'" font-size="13" lengthAdjust="spacing" textLength="154.1655" x="436" y="846.041">- Gold: 15% commission</text><text fill="#000000" font-family="'Segoe UI'" font-size="13" lengthAdjust="spacing" textLength="158.6533" x="436" y="861.3516">- Silver: 12% commission</text><text fill="#000000" font-family="'Segoe UI'" font-size="13" lengthAdjust="spacing" textLength="168.3906" x="436" y="876.6621">- Bronze: 10% commission</text><text fill="#000000" font-family="'Segoe UI'" font-size="13" lengthAdjust="spacing" textLength="210.2344" x="436" y="891.9727">Include partner_ref in reservation</text><g class="message" data-entity-1="part3" data-entity-2="part6" id="msg11"><polygon fill="#9333EA" points="799.8564,952.6465,809.8564,956.6465,799.8564,960.6465,803.8564,956.6465" style="stroke:#9333EA;stroke-width:1;"/><line style="stroke:#9333EA;stroke-width:1;" x1="425.6558" x2="805.8564" y1="956.6465" y2="956.6465"/><a href="/microservices/svc-reservations/#post-reservations-create-a-new-reservation" target="_top" title="/microservices/svc-reservations/#post-reservations-create-a-new-reservation" xlink:actuate="onRequest" xlink:href="/microservices/svc-reservations/#post-reservations-create-a-new-reservation" xlink:show="new" xlink:title="/microservices/svc-reservations/#post-reservations-create-a-new-reservation" xlink:type="simple"><text fill="#0000FF" font-family="'Segoe UI'" font-size="13" lengthAdjust="spacing" text-decoration="underline" textLength="120.396" x="432.6558" y="921.2832">POST /reservations</text></a><text fill="#000000" font-family="'Segoe UI'" font-size="13" lengthAdjust="spacing" textLength="110.4746" x="432.6558" y="936.5938">(guest_id, trip_id,</text><text fill="#000000" font-family="'Segoe UI'" font-size="13" lengthAdjust="spacing" textLength="207.5366" x="432.6558" y="951.9043">partner_ref, channel = PARTNER)</text></g><g class="message" data-entity-1="part6" data-entity-2="part3" id="msg12"><polygon fill="#9333EA" points="436.6558,997.2676,426.6558,1001.2676,436.6558,1005.2676,432.6558,1001.2676" style="stroke:#9333EA;stroke-width:1;"/><line style="stroke:#9333EA;stroke-width:1;stroke-dasharray:2,2;" x1="430.6558" x2="815.8564" y1="1001.2676" y2="1001.2676"/><text fill="#000000" font-family="'Segoe UI'" font-size="13" lengthAdjust="spacing" textLength="124.0332" x="442.6558" y="981.2148">Reservation created</text><text fill="#000000" font-family="'Segoe UI'" font-size="13" lengthAdjust="spacing" textLength="222.5806" x="442.6558" y="996.5254">(reservation_id, confirmation_code)</text></g><rect fill="#EEEEEE" height="3" rx="4" ry="4" style="stroke:#EEEEEE;stroke-width:1;" width="964.7075" x="0" y="1029.9229"/><line style="stroke:#000000;stroke-width:1;" x1="0" x2="964.7075" y1="1029.9229" y2="1029.9229"/><line style="stroke:#000000;stroke-width:1;" x1="0" x2="964.7075" y1="1032.9229" y2="1032.9229"/><rect fill="#EEEEEE" height="23.3105" rx="4" ry="4" style="stroke:#000000;stroke-width:2;" width="176.4048" x="394.1514" y="1019.2676"/><text fill="#000000" font-family="'Segoe UI'" font-size="13" font-weight="bold" lengthAdjust="spacing" textLength="158.1201" x="400.1514" y="1035.8359">Record Partner Booking</text><g class="message" data-entity-1="part3" data-entity-2="part7" id="msg13"><polygon fill="#9333EA" points="901.2827,1115.8203,911.2827,1119.8203,901.2827,1123.8203,905.2827,1119.8203" style="stroke:#9333EA;stroke-width:1;"/><line style="stroke:#9333EA;stroke-width:1;" x1="425.6558" x2="907.2827" y1="1119.8203" y2="1119.8203"/><text fill="#000000" font-family="'Segoe UI'" font-size="13" lengthAdjust="spacing" textLength="194.7144" x="432.6558" y="1069.1465">INSERT INTO partner_bookings</text><text fill="#000000" font-family="'Segoe UI'" font-size="13" lengthAdjust="spacing" textLength="151.3027" x="432.6558" y="1084.457">(booking_id, partner_id,</text><text fill="#000000" font-family="'Segoe UI'" font-size="13" lengthAdjust="spacing" textLength="204.5342" x="432.6558" y="1099.7676">reservation_id, commission_tier,</text><text fill="#000000" font-family="'Segoe UI'" font-size="13" lengthAdjust="spacing" textLength="232.4004" x="432.6558" y="1115.0781">commission_rate, status = PENDING)</text></g><g class="message" data-entity-1="part7" data-entity-2="part3" id="msg14"><polygon fill="#9333EA" points="436.6558,1145.1309,426.6558,1149.1309,436.6558,1153.1309,432.6558,1149.1309" style="stroke:#9333EA;stroke-width:1;"/><line style="stroke:#9333EA;stroke-width:1;stroke-dasharray:2,2;" x1="430.6558" x2="917.2827" y1="1149.1309" y2="1149.1309"/><text fill="#000000" font-family="'Segoe UI'" font-size="13" lengthAdjust="spacing" textLength="76.4575" x="442.6558" y="1144.3887">Created row</text></g><g class="message" data-entity-1="part3" data-entity-2="part2" id="msg15"><polygon fill="#9333EA" points="237.1938,1205.0625,227.1938,1209.0625,237.1938,1213.0625,233.1938,1209.0625" style="stroke:#9333EA;stroke-width:1;"/><line style="stroke:#9333EA;stroke-width:1;stroke-dasharray:2,2;" x1="231.1938" x2="424.6558" y1="1209.0625" y2="1209.0625"/><text fill="#000000" font-family="'Segoe UI'" font-size="13" lengthAdjust="spacing" textLength="77.7969" x="243.1938" y="1173.6992">201 Created</text><text fill="#000000" font-family="'Segoe UI'" font-size="13" lengthAdjust="spacing" textLength="175.4619" x="243.1938" y="1189.0098">(booking_id, reservation_id,</text><text fill="#000000" font-family="'Segoe UI'" font-size="13" lengthAdjust="spacing" textLength="167.8066" x="243.1938" y="1204.3203">confirmation_code, status)</text></g><g class="message" data-entity-1="part2" data-entity-2="part1" id="msg16"><polygon fill="#9333EA" points="57.7524,1234.373,47.7524,1238.373,57.7524,1242.373,53.7524,1238.373" style="stroke:#9333EA;stroke-width:1;"/><line style="stroke:#9333EA;stroke-width:1;stroke-dasharray:2,2;" x1="51.7524" x2="225.1938" y1="1238.373" y2="1238.373"/><text fill="#000000" font-family="'Segoe UI'" font-size="13" lengthAdjust="spacing" textLength="77.7969" x="63.7524" y="1233.6309">201 Created</text></g><a href="/microservices/svc-partner-integrations/#integration-context" target="_top" title="/microservices/svc-partner-integrations/#integration-context" xlink:actuate="onRequest" xlink:href="/microservices/svc-partner-integrations/#integration-context" xlink:show="new" xlink:title="/microservices/svc-partner-integrations/#integration-context" xlink:type="simple"><text fill="#0000FF" font-family="'Segoe UI'" font-size="10" lengthAdjust="spacing" text-decoration="underline" textLength="231.9922" x="731.7153" y="14.668">&#11014; svc-partner-integrations Integration Context</text></a><?plantuml-src bLPTJXj947wVKzHYhHGa3mQSA8i5h8mPEvPOyDfUU8WjrCmKuzwCkvtkjXqMHSfJJh37s5Fb95lTy-CP1nJ2WsbtLNtr_xL_uI9CbX72tbx3p72EUulbFF7q1ouMJB4vQFouH14YF7f0VssbvBeZ4wcWTjHiDf5vdprlXYn21U_VD-OyL5AZMl4GTKElGfzWZ43bSs4mLinmANIZLlhcXvA-V3BmxR-ly9m5z3TVe9CQJAUUPxX940PNep4qShixAIdyM4z4Ho4p29a0Ci5476l-3xOEza-FGvjAg_OsR3ACJjl3phl-EEYCuUew60xxvm5y-_8le50yd644Qsvc1HecFEPtFE7c0PY889JpETVQ1cWugkE6mpuzRbXdfvvdxNZ85qmOsEaa78NP0QOXFThYiSKYuM5M8igkOj4UzA57sQpPWpFhtJYJq4X5zMGBxiUfT3g5Mh3VFUm6LO3dIklGHglm9zfdNNIRmM_TRjL5RudQm439UvvW2jmRF8qRMrL_aQawnE0yEDeEUgpu0ZhCi4J63c_SUHhFaA8VfeffV46tsNbRHHkYjIcbJHTFmwcIfeCxF-YsWpTUH1xkc4RO6KXjOeMZFoySqldPpuo_XV4rjGwpK8ywJSyJaePLhcYsg1sqRWHOO563dyNRcvbv0jSSry05ZDOiZWdZhpwD4D9WMbZFoyRCFxMJqtfcPJoQ9xwoEqDA-OBJaQpiXBH0oIK9bIK5RJRQLfYhfsae7iyCoFlCxfebFBAQTem_uCD4N4WM5Rl4mb0kXV4ygqtEg9ej60KNTXMxmwi_SaNQwPjtmJ00AiSjmTpEc9x12Vo-2OLCyuBIqIyY7sIk58PIHHFnAeEyvL4Tj65cgUiJiLdYMxl4TOWOJnvkFowbORjUX2KtdiSIKy3gfLvGiOaaY1fT3vqbE4j7dT-NXU8C3eD32cw8VsDeMjlrc0Wo0kSJBQu30_mK8f8dX-eAbZVrzNuJkbBTyIX2uSIbYDEP0gjf3R9v-85HxyQEaEUTd42wt5aZBSkTd1JzeYrllMZFQp6Qz4wxJwg-NrpbQj0BQ3PJhSPZhlUPndaJrw3W2pfkkfm6cU6K-zKRk2GSdxHNr1gMKNSf2-AMrWlOnULWRxJzo3DmAX4QWjPf0awbyPWfLS8dJpb1qN4JlWil0w4HPQL0wvGL4Pc8AsCuxhYqieUkn6ykhwSsiKsFp4CnQ5kFLciYVEZ996h1mPjVIr9xF-89pJL93hSbPqeAUb3XOBygwMS_Bl9LKtXl6Qf4haNjBHEtNi35jGNnRkNA3rtoFlC5hikIZEFAkjCfLJKVg3fahQ6zBqLOXt36XC24U6NG7eulW-7kfdCsplmniETDxyh5JqEoB5FoxbpIZvrxhkRfHIWZhBIJC5m_Xuwa2d8vI-cvFAkE8VkNes0ufd_ZgwB6cry_hxAZyrjYkuduFgWgwrLua1uPp1dIbYIuFEzVzdP_pBZfK4RqPgotcRF2MeVx1xdkLj1RSTgmjggN1rQfecMwRPOhEV6g_FO_?></g></svg>