<svg xmlns="http://www.w3.org/2000/svg" xmlns:xlink="http://www.w3.org/1999/xlink" contentStyleType="text/css" data-diagram-type="SEQUENCE" height="522px" preserveAspectRatio="none" style="width:727px;height:522px;background:#FEFEFE;" version="1.1" viewBox="0 0 727 522" width="727px" zoomAndPan="magnify"><title>GET /check-ins/{check_in_id}</title><defs/><g><rect fill="#FEFEFE" height="522" style="stroke:none;stroke-width:1;" width="727" x="0" y="0"/><text fill="#000000" font-family="Segoe UI" font-size="14" font-weight="bold" lengthAdjust="spacing" textLength="213.8281" x="252.6145" y="41.3125">GET /check-ins/{check_in_id}</text><text fill="#000000" font-family="Segoe UI" font-size="14" font-weight="bold" lengthAdjust="spacing" textLength="145.7969" x="286.6301" y="57.8008">Get check-in details</text><g><title>API Gateway</title><rect fill="#2563EB" height="225.1738" style="stroke:#A23B72;stroke-width:1;" width="10" x="236.8086" y="200.8633"/></g><g><title>svc-check-in</title><rect fill="#2563EB" height="166.5527" style="stroke:#A23B72;stroke-width:1;" width="10" x="350.9434" y="230.1738"/></g><g><title>PostgreSQL</title><rect fill="#FCE4EC" height="29.3105" style="stroke:#A23B72;stroke-width:1;" width="10" x="528.834" y="302.7949"/></g><g><title>Client</title><rect fill="#000000" fill-opacity="0.00000" height="309.7949" width="8" x="27.7524" y="134.2422"/><line style="stroke:#A23B72;stroke-width:0.5;stroke-dasharray:5,5;" x1="31" x2="31" y1="134.2422" y2="444.0371"/></g><g><title>API Gateway</title><rect fill="#000000" fill-opacity="0.00000" height="309.7949" width="8" x="237.8086" y="134.2422"/><line style="stroke:#A23B72;stroke-width:0.5;stroke-dasharray:5,5;" x1="241.5195" x2="241.5195" y1="134.2422" y2="444.0371"/></g><g><title>svc-check-in</title><rect fill="#000000" fill-opacity="0.00000" height="309.7949" width="8" x="351.9434" y="134.2422"/><line style="stroke:#A23B72;stroke-width:0.5;stroke-dasharray:5,5;" x1="355.1919" x2="355.1919" y1="134.2422" y2="444.0371"/></g><g><title>PostgreSQL</title><rect fill="#000000" fill-opacity="0.00000" height="309.7949" width="8" x="529.834" y="134.2422"/><line style="stroke:#A23B72;stroke-width:0.5;stroke-dasharray:5,5;" x1="533.4092" x2="533.4092" y1="134.2422" y2="444.0371"/></g><g class="participant participant-head" data-participant="Client"><rect fill="#E8F4F8" height="30.4883" rx="2.5" ry="2.5" style="stroke:#2E86AB;stroke-width:0.5;" width="53.5049" x="5" y="102.7539"/><text fill="#000000" font-family="Segoe UI" font-size="14" lengthAdjust="spacing" textLength="39.5049" x="12" y="123.2891">Client</text></g><g class="participant participant-tail" data-participant="Client"><rect fill="#E8F4F8" height="30.4883" rx="2.5" ry="2.5" style="stroke:#2E86AB;stroke-width:0.5;" width="53.5049" x="5" y="443.0371"/><text fill="#000000" font-family="Segoe UI" font-size="14" lengthAdjust="spacing" textLength="39.5049" x="12" y="463.5723">Client</text></g><g class="participant participant-head" data-participant="GW"><rect fill="#DBEAFE" height="30.4883" rx="2.5" ry="2.5" style="stroke:#2E86AB;stroke-width:0.5;" width="96.5781" x="193.5195" y="102.7539"/><text fill="#000000" font-family="Segoe UI" font-size="14" lengthAdjust="spacing" textLength="82.5781" x="200.5195" y="123.2891">API Gateway</text></g><g class="participant participant-tail" data-participant="GW"><rect fill="#DBEAFE" height="30.4883" rx="2.5" ry="2.5" style="stroke:#2E86AB;stroke-width:0.5;" width="96.5781" x="193.5195" y="443.0371"/><text fill="#000000" font-family="Segoe UI" font-size="14" lengthAdjust="spacing" textLength="82.5781" x="200.5195" y="463.5723">API Gateway</text></g><g class="participant participant-head" data-participant="Svc"><a href="/microservices/svc-check-in/" target="_top" title="/microservices/svc-check-in/" xlink:actuate="onRequest" xlink:href="/microservices/svc-check-in/" xlink:show="new" xlink:title="/microservices/svc-check-in/" xlink:type="simple"><rect fill="#E8F4F8" height="30.4883" rx="2.5" ry="2.5" style="stroke:#2E86AB;stroke-width:0.5;" width="103.5029" x="304.1919" y="102.7539"/><text fill="#000000" font-family="Segoe UI" font-size="14" lengthAdjust="spacing" textLength="89.5029" x="311.1919" y="123.2891">svc-check-in</text></a></g><g class="participant participant-tail" data-participant="Svc"><a href="/microservices/svc-check-in/" target="_top" title="/microservices/svc-check-in/" xlink:actuate="onRequest" xlink:href="/microservices/svc-check-in/" xlink:show="new" xlink:title="/microservices/svc-check-in/" xlink:type="simple"><rect fill="#E8F4F8" height="30.4883" rx="2.5" ry="2.5" style="stroke:#2E86AB;stroke-width:0.5;" width="103.5029" x="304.1919" y="443.0371"/><text fill="#000000" font-family="Segoe UI" font-size="14" lengthAdjust="spacing" textLength="89.5029" x="311.1919" y="463.5723">svc-check-in</text></a></g><g class="participant participant-head" data-participant="DB"><text fill="#000000" font-family="Segoe UI" font-size="14" lengthAdjust="spacing" textLength="76.8496" x="492.4092" y="131.2891">PostgreSQL</text><path d="M515.834,81.7539 C515.834,71.7539 533.834,71.7539 533.834,71.7539 C533.834,71.7539 551.834,71.7539 551.834,81.7539 L551.834,107.7539 C551.834,117.7539 533.834,117.7539 533.834,117.7539 C533.834,117.7539 515.834,117.7539 515.834,107.7539 L515.834,81.7539" fill="#FCE4EC" style="stroke:#181818;stroke-width:0.5;"/><path d="M515.834,81.7539 C515.834,91.7539 533.834,91.7539 533.834,91.7539 C533.834,91.7539 551.834,91.7539 551.834,81.7539" fill="none" style="stroke:#181818;stroke-width:0.5;"/></g><g class="participant participant-tail" data-participant="DB"><text fill="#000000" font-family="Segoe UI" font-size="14" lengthAdjust="spacing" textLength="76.8496" x="492.4092" y="456.5723">PostgreSQL</text><path d="M515.834,469.5254 C515.834,459.5254 533.834,459.5254 533.834,459.5254 C533.834,459.5254 551.834,459.5254 551.834,469.5254 L551.834,495.5254 C551.834,505.5254 533.834,505.5254 533.834,505.5254 C533.834,505.5254 515.834,505.5254 515.834,495.5254 L515.834,469.5254" fill="#FCE4EC" style="stroke:#181818;stroke-width:0.5;"/><path d="M515.834,469.5254 C515.834,479.5254 533.834,479.5254 533.834,479.5254 C533.834,479.5254 551.834,479.5254 551.834,469.5254" fill="none" style="stroke:#181818;stroke-width:0.5;"/></g><g><title>API Gateway</title><rect fill="#2563EB" height="225.1738" style="stroke:#A23B72;stroke-width:1;" width="10" x="236.8086" y="200.8633"/></g><g><title>svc-check-in</title><rect fill="#2563EB" height="166.5527" style="stroke:#A23B72;stroke-width:1;" width="10" x="350.9434" y="230.1738"/></g><g><title>PostgreSQL</title><rect fill="#FCE4EC" height="29.3105" style="stroke:#A23B72;stroke-width:1;" width="10" x="528.834" y="302.7949"/></g><path d="M285,149.2422 L285,174.2422 L425,174.2422 L425,159.2422 L415,149.2422 L285,149.2422" fill="#FEFFDD" style="stroke:#181818;stroke-width:0.5;"/><path d="M415,149.2422 L415,159.2422 L425,159.2422 L415,149.2422" fill="#FEFFDD" style="stroke:#181818;stroke-width:0.5;"/><a href="/services/api/svc-check-in.html#/Check-Ins/getCheckIn" target="_top" title="/services/api/svc-check-in.html#/Check-Ins/getCheckIn" xlink:actuate="onRequest" xlink:href="/services/api/svc-check-in.html#/Check-Ins/getCheckIn" xlink:show="new" xlink:title="/services/api/svc-check-in.html#/Check-Ins/getCheckIn" xlink:type="simple"><text fill="#0000FF" font-family="Segoe UI" font-size="13" lengthAdjust="spacing" text-decoration="underline" textLength="119.4058" x="291" y="166.8105">View in Swagger UI</text></a><g class="message" data-participant-1="Client" data-participant-2="GW"><polygon fill="#2563EB" points="224.8086,196.8633,234.8086,200.8633,224.8086,204.8633,228.8086,200.8633" style="stroke:#2563EB;stroke-width:1;"/><line style="stroke:#2563EB;stroke-width:1;" x1="31.7524" x2="230.8086" y1="200.8633" y2="200.8633"/><text fill="#000000" font-family="Segoe UI" font-size="13" lengthAdjust="spacing" textLength="186.0562" x="38.7524" y="196.1211">GET /check-ins/{check_in_id}</text></g><g class="message" data-participant-1="GW" data-participant-2="Svc"><polygon fill="#2563EB" points="338.9434,226.1738,348.9434,230.1738,338.9434,234.1738,342.9434,230.1738" style="stroke:#2563EB;stroke-width:1;"/><line style="stroke:#2563EB;stroke-width:1;" x1="246.8086" x2="344.9434" y1="230.1738" y2="230.1738"/><text fill="#000000" font-family="Segoe UI" font-size="13" lengthAdjust="spacing" textLength="85.1348" x="253.8086" y="225.4316">route request</text></g><rect fill="#EEEEEE" height="3" style="stroke:#EEEEEE;stroke-width:1;" width="720.0571" x="0" y="258.8291"/><line style="stroke:#000000;stroke-width:1;" x1="0" x2="720.0571" y1="258.8291" y2="258.8291"/><line style="stroke:#000000;stroke-width:1;" x1="0" x2="720.0571" y1="261.8291" y2="261.8291"/><rect fill="#EEEEEE" height="23.3105" style="stroke:#000000;stroke-width:2;" width="80.3711" x="319.843" y="248.1738"/><text fill="#000000" font-family="Segoe UI" font-size="13" font-weight="bold" lengthAdjust="spacing" textLength="62.0864" x="325.843" y="264.7422">Database</text><g class="message" data-participant-1="Svc" data-participant-2="DB"><polygon fill="#2563EB" points="516.834,298.7949,526.834,302.7949,516.834,306.7949,520.834,302.7949" style="stroke:#2563EB;stroke-width:1;"/><line style="stroke:#2563EB;stroke-width:1;" x1="360.9434" x2="522.834" y1="302.7949" y2="302.7949"/><text fill="#000000" font-family="Segoe UI" font-size="13" lengthAdjust="spacing" textLength="148.8906" x="367.9434" y="298.0527">SELECT ... WHERE id = ?</text></g><g class="message" data-participant-1="DB" data-participant-2="Svc"><polygon fill="#2563EB" points="371.9434,328.1055,361.9434,332.1055,371.9434,336.1055,367.9434,332.1055" style="stroke:#2563EB;stroke-width:1;"/><line style="stroke:#2563EB;stroke-width:1;stroke-dasharray:2,2;" x1="365.9434" x2="532.834" y1="332.1055" y2="332.1055"/><text fill="#000000" font-family="Segoe UI" font-size="13" lengthAdjust="spacing" textLength="26.2222" x="377.9434" y="327.3633">Row</text></g><path d="M538,345.1055 L538,370.1055 L715,370.1055 L715,355.1055 L705,345.1055 L538,345.1055" fill="#FEFFDD" style="stroke:#181818;stroke-width:0.5;"/><path d="M705,345.1055 L705,355.1055 L715,355.1055 L705,345.1055" fill="#FEFFDD" style="stroke:#181818;stroke-width:0.5;"/><text fill="#000000" font-family="Segoe UI" font-size="13" lengthAdjust="spacing" textLength="156.0571" x="544" y="362.6738">Returns 404 if not found</text><g class="message" data-participant-1="Svc" data-participant-2="GW"><polygon fill="#2563EB" points="257.8086,392.7266,247.8086,396.7266,257.8086,400.7266,253.8086,396.7266" style="stroke:#2563EB;stroke-width:1;"/><line style="stroke:#2563EB;stroke-width:1;stroke-dasharray:2,2;" x1="251.8086" x2="354.9434" y1="396.7266" y2="396.7266"/><text fill="#000000" font-family="Segoe UI" font-size="13" lengthAdjust="spacing" textLength="47.3599" x="263.8086" y="391.9844">200 OK</text></g><g class="message" data-participant-1="GW" data-participant-2="Client"><polygon fill="#2563EB" points="42.7524,422.0371,32.7524,426.0371,42.7524,430.0371,38.7524,426.0371" style="stroke:#2563EB;stroke-width:1;"/><line style="stroke:#2563EB;stroke-width:1;stroke-dasharray:2,2;" x1="36.7524" x2="240.8086" y1="426.0371" y2="426.0371"/><text fill="#000000" font-family="Segoe UI" font-size="13" lengthAdjust="spacing" textLength="47.3599" x="48.7524" y="421.2949">200 OK</text></g><a href="/microservices/svc-check-in/#integration-context" target="_top" title="/microservices/svc-check-in/#integration-context" xlink:actuate="onRequest" xlink:href="/microservices/svc-check-in/#integration-context" xlink:show="new" xlink:title="/microservices/svc-check-in/#integration-context" xlink:type="simple"><text fill="#0000FF" font-family="Segoe UI" font-size="10" lengthAdjust="spacing" text-decoration="underline" textLength="175.1025" x="543.9546" y="14.668">&#11014; svc-check-in Integration Context</text></a><!--SRC=[XPFVRjem5CRl_HH7SCsV0Yi8YKqG4eQ6EWRjkEXGPPAJO3NOp3RGgUhjdcPFjIVPIO2GhDMMtDZvFd_s-Vd4F0gvvPflOCNznqYhdGmS5IiDPSzDNcOoXrdpG1s4Z23aiS6S4c38Tx7rbBGtV8DGccEa4Ex6fVno_Bv3wICyCw2dhxKwdBPglBjkuYhzFENQ2bzikRG3fGFKPulRkUuFNbd-FhJRyLfU9xLDH8WJ8R4Gqsyq1-r6gW_KKq7ohZfU_IgJNk7mFD9J-KRPOghVRg-QEUqDb4stpLuOMoEdPN1_Nzi8Nok3UYzyD3Mpzol-6lt7Yf2rif0M8ysjKBBY4rHyil3xrq_8ks1yCO5pD2sNZ5bXOuIHUmkrizNKdjFXWv0F8dZv9aTe8Si9q78H6yQs5wvGScA1qfQ06pWEYt9_EeOHjtZWFrBFQ07buS3jKyCKVFaJfyRvtlzFzSjbTeq1jtp53JNKL1aRQPn_cQGfmm51TToMwp0cYJYeFL6bRBe3Ii-2-LOKmgjhkudBDIUTZWbCX3QTZ2Ly5NW0uZ4_y2YYjBinuKGPGB81OqSAK7cVrDhz9s36VIlsH2V5Scfk6jBQfFmkK6-Gg9CVmjYBEn7FTjRhmV1SVg_7M29I05NUXRaxSPrRg5QhiFZepbmG0VJWmoKfnuU6bMpZcJgm07Es8pqjehK55HxJPsXtMXferLiWmgHy29DcFftXJA1HhyFdJ_cuX7zI9ZbEjDvoZHRi3m00]--></g></svg>