<svg xmlns="http://www.w3.org/2000/svg" xmlns:xlink="http://www.w3.org/1999/xlink" contentStyleType="text/css" data-diagram-type="SEQUENCE" height="640px" preserveAspectRatio="none" style="width:935px;height:640px;background:#FEFEFE;" version="1.1" viewBox="0 0 935 640" width="935px" zoomAndPan="magnify"><title>POST /notifications/bulk</title><defs/><g><rect fill="#FEFEFE" height="640" style="stroke:none;stroke-width:1;" width="935" x="0" y="0"/><text fill="#000000" font-family="Segoe UI" font-size="14" font-weight="bold" lengthAdjust="spacing" textLength="180.7764" x="373.5674" y="28.5352">POST /notifications/bulk</text><text fill="#000000" font-family="Segoe UI" font-size="14" font-weight="bold" lengthAdjust="spacing" textLength="166.4619" x="380.7246" y="45.0234">Send bulk notifications</text><g><title>API Gateway</title><rect fill="#059669" height="356.416" style="stroke:#A23B72;stroke-width:1;" width="10" x="206.9619" y="188.0859"/></g><g><title>svc-notifications</title><rect fill="#059669" height="297.7949" style="stroke:#A23B72;stroke-width:1;" width="10" x="329.2661" y="217.3965"/></g><g><title>PG . Valkey</title><rect fill="#FCE4EC" height="29.3105" style="stroke:#A23B72;stroke-width:1;" width="10" x="874.875" y="325.3281"/></g><g><title>Client</title><rect fill="#000000" fill-opacity="0.00000" height="441.0371" width="8" x="27.7524" y="121.4648"/><line style="stroke:#A23B72;stroke-width:0.5;stroke-dasharray:5,5;" x1="31" x2="31" y1="121.4648" y2="562.502"/></g><g><title>API Gateway</title><rect fill="#000000" fill-opacity="0.00000" height="441.0371" width="8" x="207.9619" y="121.4648"/><line style="stroke:#A23B72;stroke-width:0.5;stroke-dasharray:5,5;" x1="211.6729" x2="211.6729" y1="121.4648" y2="562.502"/></g><g><title>svc-notifications</title><rect fill="#000000" fill-opacity="0.00000" height="441.0371" width="8" x="330.2661" y="121.4648"/><line style="stroke:#A23B72;stroke-width:0.5;stroke-dasharray:5,5;" x1="334.251" x2="334.251" y1="121.4648" y2="562.502"/></g><g><title>SendGrid API</title><rect fill="#000000" fill-opacity="0.00000" height="441.0371" width="8" x="479.5859" y="121.4648"/><line style="stroke:#A23B72;stroke-width:0.5;stroke-dasharray:5,5;" x1="482.8838" x2="482.8838" y1="121.4648" y2="562.502"/></g><g><title>Twilio API</title><rect fill="#000000" fill-opacity="0.00000" height="441.0371" width="8" x="580.4082" y="121.4648"/><line style="stroke:#A23B72;stroke-width:0.5;stroke-dasharray:5,5;" x1="584.2881" x2="584.2881" y1="121.4648" y2="562.502"/></g><g><title>Firebase Cloud Messaging</title><rect fill="#000000" fill-opacity="0.00000" height="441.0371" width="8" x="726.1836" y="121.4648"/><line style="stroke:#A23B72;stroke-width:0.5;stroke-dasharray:5,5;" x1="729.5283" x2="729.5283" y1="121.4648" y2="562.502"/></g><g><title>PG . Valkey</title><rect fill="#000000" fill-opacity="0.00000" height="441.0371" width="8" x="875.875" y="121.4648"/><line style="stroke:#A23B72;stroke-width:0.5;stroke-dasharray:5,5;" x1="879.8389" x2="879.8389" y1="121.4648" y2="562.502"/></g><g class="participant participant-head" data-participant="Client"><rect fill="#E8F4F8" height="30.4883" rx="2.5" ry="2.5" style="stroke:#2E86AB;stroke-width:0.5;" width="53.5049" x="5" y="89.9766"/><text fill="#000000" font-family="Segoe UI" font-size="14" lengthAdjust="spacing" textLength="39.5049" x="12" y="110.5117">Client</text></g><g class="participant participant-tail" data-participant="Client"><rect fill="#E8F4F8" height="30.4883" rx="2.5" ry="2.5" style="stroke:#2E86AB;stroke-width:0.5;" width="53.5049" x="5" y="561.502"/><text fill="#000000" font-family="Segoe UI" font-size="14" lengthAdjust="spacing" textLength="39.5049" x="12" y="582.0371">Client</text></g><g class="participant participant-head" data-participant="GW"><rect fill="#DBEAFE" height="30.4883" rx="2.5" ry="2.5" style="stroke:#2E86AB;stroke-width:0.5;" width="96.5781" x="163.6729" y="89.9766"/><text fill="#000000" font-family="Segoe UI" font-size="14" lengthAdjust="spacing" textLength="82.5781" x="170.6729" y="110.5117">API Gateway</text></g><g class="participant participant-tail" data-participant="GW"><rect fill="#DBEAFE" height="30.4883" rx="2.5" ry="2.5" style="stroke:#2E86AB;stroke-width:0.5;" width="96.5781" x="163.6729" y="561.502"/><text fill="#000000" font-family="Segoe UI" font-size="14" lengthAdjust="spacing" textLength="82.5781" x="170.6729" y="582.0371">API Gateway</text></g><g class="participant participant-head" data-participant="Svc"><a href="/microservices/svc-notifications/" target="_top" title="/microservices/svc-notifications/" xlink:actuate="onRequest" xlink:href="/microservices/svc-notifications/" xlink:show="new" xlink:title="/microservices/svc-notifications/" xlink:type="simple"><rect fill="#E8F4F8" height="30.4883" rx="2.5" ry="2.5" style="stroke:#2E86AB;stroke-width:0.5;" width="128.0303" x="270.251" y="89.9766"/><text fill="#000000" font-family="Segoe UI" font-size="14" lengthAdjust="spacing" textLength="114.0303" x="277.251" y="110.5117">svc-notifications</text></a></g><g class="participant participant-tail" data-participant="Svc"><a href="/microservices/svc-notifications/" target="_top" title="/microservices/svc-notifications/" xlink:actuate="onRequest" xlink:href="/microservices/svc-notifications/" xlink:show="new" xlink:title="/microservices/svc-notifications/" xlink:type="simple"><rect fill="#E8F4F8" height="30.4883" rx="2.5" ry="2.5" style="stroke:#2E86AB;stroke-width:0.5;" width="128.0303" x="270.251" y="561.502"/><text fill="#000000" font-family="Segoe UI" font-size="14" lengthAdjust="spacing" textLength="114.0303" x="277.251" y="582.0371">svc-notifications</text></a></g><g class="participant participant-head" data-participant="SG"><rect fill="#F5F5F5" height="30.4883" rx="2.5" ry="2.5" style="stroke:#2E86AB;stroke-width:0.5;" width="101.4043" x="432.8838" y="89.9766"/><text fill="#000000" font-family="Segoe UI" font-size="14" lengthAdjust="spacing" textLength="87.4043" x="439.8838" y="110.5117">SendGrid API</text></g><g class="participant participant-tail" data-participant="SG"><rect fill="#F5F5F5" height="30.4883" rx="2.5" ry="2.5" style="stroke:#2E86AB;stroke-width:0.5;" width="101.4043" x="432.8838" y="561.502"/><text fill="#000000" font-family="Segoe UI" font-size="14" lengthAdjust="spacing" textLength="87.4043" x="439.8838" y="582.0371">SendGrid API</text></g><g class="participant participant-head" data-participant="TW"><rect fill="#F5F5F5" height="30.4883" rx="2.5" ry="2.5" style="stroke:#2E86AB;stroke-width:0.5;" width="80.2402" x="544.2881" y="89.9766"/><text fill="#000000" font-family="Segoe UI" font-size="14" lengthAdjust="spacing" textLength="66.2402" x="551.2881" y="110.5117">Twilio API</text></g><g class="participant participant-tail" data-participant="TW"><rect fill="#F5F5F5" height="30.4883" rx="2.5" ry="2.5" style="stroke:#2E86AB;stroke-width:0.5;" width="80.2402" x="544.2881" y="561.502"/><text fill="#000000" font-family="Segoe UI" font-size="14" lengthAdjust="spacing" textLength="66.2402" x="551.2881" y="582.0371">Twilio API</text></g><g class="participant participant-head" data-participant="FCM"><rect fill="#F5F5F5" height="30.4883" rx="2.5" ry="2.5" style="stroke:#2E86AB;stroke-width:0.5;" width="191.3105" x="634.5283" y="89.9766"/><text fill="#000000" font-family="Segoe UI" font-size="14" lengthAdjust="spacing" textLength="177.3105" x="641.5283" y="110.5117">Firebase Cloud Messaging</text></g><g class="participant participant-tail" data-participant="FCM"><rect fill="#F5F5F5" height="30.4883" rx="2.5" ry="2.5" style="stroke:#2E86AB;stroke-width:0.5;" width="191.3105" x="634.5283" y="561.502"/><text fill="#000000" font-family="Segoe UI" font-size="14" lengthAdjust="spacing" textLength="177.3105" x="641.5283" y="582.0371">Firebase Cloud Messaging</text></g><g class="participant participant-head" data-participant="DB"><text fill="#000000" font-family="Segoe UI" font-size="14" lengthAdjust="spacing" textLength="82.0723" x="835.8389" y="118.5117">PG + Valkey</text><path d="M861.875,68.9766 C861.875,58.9766 879.875,58.9766 879.875,58.9766 C879.875,58.9766 897.875,58.9766 897.875,68.9766 L897.875,94.9766 C897.875,104.9766 879.875,104.9766 879.875,104.9766 C879.875,104.9766 861.875,104.9766 861.875,94.9766 L861.875,68.9766" fill="#FCE4EC" style="stroke:#181818;stroke-width:0.5;"/><path d="M861.875,68.9766 C861.875,78.9766 879.875,78.9766 879.875,78.9766 C879.875,78.9766 897.875,78.9766 897.875,68.9766" fill="none" style="stroke:#181818;stroke-width:0.5;"/></g><g class="participant participant-tail" data-participant="DB"><text fill="#000000" font-family="Segoe UI" font-size="14" lengthAdjust="spacing" textLength="82.0723" x="835.8389" y="575.0371">PG + Valkey</text><path d="M861.875,587.9902 C861.875,577.9902 879.875,577.9902 879.875,577.9902 C879.875,577.9902 897.875,577.9902 897.875,587.9902 L897.875,613.9902 C897.875,623.9902 879.875,623.9902 879.875,623.9902 C879.875,623.9902 861.875,623.9902 861.875,613.9902 L861.875,587.9902" fill="#FCE4EC" style="stroke:#181818;stroke-width:0.5;"/><path d="M861.875,587.9902 C861.875,597.9902 879.875,597.9902 879.875,597.9902 C879.875,597.9902 897.875,597.9902 897.875,587.9902" fill="none" style="stroke:#181818;stroke-width:0.5;"/></g><g><title>API Gateway</title><rect fill="#059669" height="356.416" style="stroke:#A23B72;stroke-width:1;" width="10" x="206.9619" y="188.0859"/></g><g><title>svc-notifications</title><rect fill="#059669" height="297.7949" style="stroke:#A23B72;stroke-width:1;" width="10" x="329.2661" y="217.3965"/></g><g><title>PG . Valkey</title><rect fill="#FCE4EC" height="29.3105" style="stroke:#A23B72;stroke-width:1;" width="10" x="874.875" y="325.3281"/></g><path d="M264,136.4648 L264,161.4648 L404,161.4648 L404,146.4648 L394,136.4648 L264,136.4648" fill="#FEFFDD" style="stroke:#181818;stroke-width:0.5;"/><path d="M394,136.4648 L394,146.4648 L404,146.4648 L394,136.4648" fill="#FEFFDD" style="stroke:#181818;stroke-width:0.5;"/><a href="/services/api/svc-notifications.html#/Notifications/sendBulkNotifications" target="_top" title="/services/api/svc-notifications.html#/Notifications/sendBulkNotifications" xlink:actuate="onRequest" xlink:href="/services/api/svc-notifications.html#/Notifications/sendBulkNotifications" xlink:show="new" xlink:title="/services/api/svc-notifications.html#/Notifications/sendBulkNotifications" xlink:type="simple"><text fill="#0000FF" font-family="Segoe UI" font-size="13" lengthAdjust="spacing" text-decoration="underline" textLength="119.4058" x="270" y="154.0332">View in Swagger UI</text></a><g class="message" data-participant-1="Client" data-participant-2="GW"><polygon fill="#059669" points="194.9619,184.0859,204.9619,188.0859,194.9619,192.0859,198.9619,188.0859" style="stroke:#059669;stroke-width:1;"/><line style="stroke:#059669;stroke-width:1;" x1="31.7524" x2="200.9619" y1="188.0859" y2="188.0859"/><text fill="#000000" font-family="Segoe UI" font-size="13" lengthAdjust="spacing" textLength="156.2095" x="38.7524" y="183.3438">POST /notifications/bulk</text></g><g class="message" data-participant-1="GW" data-participant-2="Svc"><polygon fill="#059669" points="317.2661,213.3965,327.2661,217.3965,317.2661,221.3965,321.2661,217.3965" style="stroke:#059669;stroke-width:1;"/><line style="stroke:#059669;stroke-width:1;" x1="216.9619" x2="323.2661" y1="217.3965" y2="217.3965"/><text fill="#000000" font-family="Segoe UI" font-size="13" lengthAdjust="spacing" textLength="85.1348" x="223.9619" y="212.6543">route request</text></g><path d="M344,230.3965 L344,255.3965 L502,255.3965 L502,240.3965 L492,230.3965 L344,230.3965" fill="#FEFFDD" style="stroke:#181818;stroke-width:0.5;"/><path d="M492,230.3965 L492,240.3965 L502,240.3965 L492,230.3965" fill="#FEFFDD" style="stroke:#181818;stroke-width:0.5;"/><text fill="#000000" font-family="Segoe UI" font-size="13" lengthAdjust="spacing" textLength="137.5728" x="350" y="247.9648">Validate request body</text><rect fill="#EEEEEE" height="3" style="stroke:#EEEEEE;stroke-width:1;" width="928.9111" x="0" y="281.3623"/><line style="stroke:#000000;stroke-width:1;" x1="0" x2="928.9111" y1="281.3623" y2="281.3623"/><line style="stroke:#000000;stroke-width:1;" x1="0" x2="928.9111" y1="284.3623" y2="284.3623"/><rect fill="#EEEEEE" height="23.3105" style="stroke:#000000;stroke-width:2;" width="80.3711" x="424.27" y="270.707"/><text fill="#000000" font-family="Segoe UI" font-size="13" font-weight="bold" lengthAdjust="spacing" textLength="62.0864" x="430.27" y="287.2754">Database</text><g class="message" data-participant-1="Svc" data-participant-2="DB"><polygon fill="#059669" points="862.875,321.3281,872.875,325.3281,862.875,329.3281,866.875,325.3281" style="stroke:#059669;stroke-width:1;"/><line style="stroke:#059669;stroke-width:1;" x1="339.2661" x2="868.875" y1="325.3281" y2="325.3281"/><text fill="#000000" font-family="Segoe UI" font-size="13" lengthAdjust="spacing" textLength="96.0718" x="346.2661" y="320.5859">INSERT INTO ...</text></g><g class="message" data-participant-1="DB" data-participant-2="Svc"><polygon fill="#059669" points="350.2661,350.6387,340.2661,354.6387,350.2661,358.6387,346.2661,354.6387" style="stroke:#059669;stroke-width:1;"/><line style="stroke:#059669;stroke-width:1;stroke-dasharray:2,2;" x1="344.2661" x2="878.875" y1="354.6387" y2="354.6387"/><text fill="#000000" font-family="Segoe UI" font-size="13" lengthAdjust="spacing" textLength="76.4575" x="356.2661" y="349.8965">Created row</text></g><rect fill="#EEEEEE" height="3" style="stroke:#EEEEEE;stroke-width:1;" width="928.9111" x="0" y="383.2939"/><line style="stroke:#000000;stroke-width:1;" x1="0" x2="928.9111" y1="383.2939" y2="383.2939"/><line style="stroke:#000000;stroke-width:1;" x1="0" x2="928.9111" y1="386.2939" y2="386.2939"/><rect fill="#EEEEEE" height="23.3105" style="stroke:#000000;stroke-width:2;" width="106.8218" x="411.0447" y="372.6387"/><text fill="#000000" font-family="Segoe UI" font-size="13" font-weight="bold" lengthAdjust="spacing" textLength="88.5371" x="417.0447" y="389.207">Async Events</text><g class="message" data-participant-1="Svc" data-participant-2="SG"><line style="stroke:#059669;stroke-width:1;" x1="481.5859" x2="471.5859" y1="427.2598" y2="423.2598"/><line style="stroke:#059669;stroke-width:1;" x1="481.5859" x2="471.5859" y1="427.2598" y2="431.2598"/><line style="stroke:#059669;stroke-width:1;" x1="339.2661" x2="482.5859" y1="427.2598" y2="427.2598"/><text fill="#000000" font-family="Segoe UI" font-size="13" lengthAdjust="spacing" textLength="120.3198" x="346.2661" y="422.5176">Deliver bulk emails</text></g><g class="message" data-participant-1="Svc" data-participant-2="TW"><line style="stroke:#059669;stroke-width:1;" x1="582.4082" x2="572.4082" y1="456.5703" y2="452.5703"/><line style="stroke:#059669;stroke-width:1;" x1="582.4082" x2="572.4082" y1="456.5703" y2="460.5703"/><line style="stroke:#059669;stroke-width:1;" x1="339.2661" x2="583.4082" y1="456.5703" y2="456.5703"/><text fill="#000000" font-family="Segoe UI" font-size="13" lengthAdjust="spacing" textLength="104.8188" x="346.2661" y="451.8281">Deliver bulk SMS</text></g><g class="message" data-participant-1="Svc" data-participant-2="FCM"><line style="stroke:#059669;stroke-width:1;" x1="728.1836" x2="718.1836" y1="485.8809" y2="481.8809"/><line style="stroke:#059669;stroke-width:1;" x1="728.1836" x2="718.1836" y1="485.8809" y2="489.8809"/><line style="stroke:#059669;stroke-width:1;" x1="339.2661" x2="729.1836" y1="485.8809" y2="485.8809"/><text fill="#000000" font-family="Segoe UI" font-size="13" lengthAdjust="spacing" textLength="179.7339" x="346.2661" y="481.1387">Send bulk push notifications</text></g><g class="message" data-participant-1="Svc" data-participant-2="GW"><polygon fill="#059669" points="227.9619,511.1914,217.9619,515.1914,227.9619,519.1914,223.9619,515.1914" style="stroke:#059669;stroke-width:1;"/><line style="stroke:#059669;stroke-width:1;stroke-dasharray:2,2;" x1="221.9619" x2="333.2661" y1="515.1914" y2="515.1914"/><text fill="#000000" font-family="Segoe UI" font-size="13" lengthAdjust="spacing" textLength="77.7969" x="233.9619" y="510.4492">201 Created</text></g><g class="message" data-participant-1="GW" data-participant-2="Client"><polygon fill="#059669" points="42.7524,540.502,32.7524,544.502,42.7524,548.502,38.7524,544.502" style="stroke:#059669;stroke-width:1;"/><line style="stroke:#059669;stroke-width:1;stroke-dasharray:2,2;" x1="36.7524" x2="210.9619" y1="544.502" y2="544.502"/><text fill="#000000" font-family="Segoe UI" font-size="13" lengthAdjust="spacing" textLength="77.7969" x="48.7524" y="539.7598">201 Created</text></g><!--SRC=[TLDTR-8m47pthrZHnrEXfHzG92eHI11IIz65beSU3oPPm2BOd6t8LQVxxxSE49BI9W-nCcFlpipQh8JSSCtNCEFHQg7LLiPTbIWD5u7lNcPoXbdoMAL2Bc3E4uC59COvtoOsKD8E-HgX4k928RmEAiNj-7kBCaBuou2UZjOgFPIwkdkult_8Ve-ujY8I6owjftIC-a2f-ytxZdT6-ToqtmnkWsP6Un9pV18IIyTqwZTUevxXdlfJWeBhPd1rdKDdTWG1uHayLBPyQjHep6uAs1TMtlWDzeynAso2C7e9nr2JoegvYBWLIfhQR9kiViaGPGnk2IMKiSr9D5IwYK1fAy0Dx9Tbk3CQG9zRJFb7nkbFuABd-HrAiyGpk-YoL2PZXxi8tjzhQn5fPL3lH8IcTaQjJQUvswL3dOA-5Z5G5_lp-cJ0dNlBn74g4g5osdZoDIqG6cVS82bLsnYUqHY-e27CDWNTvtnNp2tFY9LH7tx06qzMkDVVyuZKzM_zBcCa0a7jK3kTb1WfpKNoZJWNMbtQTN9H6vR46nBfKKgbl_0cC0KX8KpvOa4LNWVJANE1kgACxQE2oqSNIElR8M0yic97yMMv7Qu6BMcVYwO5D5a4QdUTZ3sn7NYaxsLgiLXQKFF3Fd94nFoq5MOg_c2itORUqRfscp57fbfaMWi6mz3_EQRF-0MgrUgfMC5IMbxclNKr4XnJZocBiK3FwdJCXup0tv4Dfb3hqSr82tgO21TCDlwuvY8nEM4y-Km8dyCSTMFGWjFTsMpDylC5ohX7x-jNryTMYsswaN1E4-qGrhVK_eJz1m00]--></g></svg>