<svg xmlns="http://www.w3.org/2000/svg" xmlns:xlink="http://www.w3.org/1999/xlink" contentStyleType="text/css" data-diagram-type="SEQUENCE" height="509px" preserveAspectRatio="none" style="width:815px;height:509px;background:#FEFEFE;" version="1.1" viewBox="0 0 815 509" width="815px" zoomAndPan="magnify"><title>GET /gear-assignments/{assignment_id}</title><defs/><g><rect fill="#FEFEFE" height="509" style="stroke:none;stroke-width:1;" width="815" x="0" y="0"/><text fill="#000000" font-family="Segoe UI" font-size="14" font-weight="bold" lengthAdjust="spacing" textLength="296.4336" x="255.3118" y="28.5352">GET /gear-assignments/{assignment_id}</text><text fill="#000000" font-family="Segoe UI" font-size="14" font-weight="bold" lengthAdjust="spacing" textLength="202.2891" x="302.384" y="45.0234">Get gear assignment details</text><g><title>API Gateway</title><rect fill="#2563EB" height="225.1738" style="stroke:#A23B72;stroke-width:1;" width="10" x="307.4009" y="188.0859"/></g><g><title>svc-gear-inventory</title><rect fill="#2563EB" height="166.5527" style="stroke:#A23B72;stroke-width:1;" width="10" x="438.2363" y="217.3965"/></g><g><title>PostgreSQL</title><rect fill="#FCE4EC" height="29.3105" style="stroke:#A23B72;stroke-width:1;" width="10" x="616.127" y="290.0176"/></g><g><title>Client</title><rect fill="#000000" fill-opacity="0.00000" height="309.7949" width="8" x="27.7524" y="121.4648"/><line style="stroke:#A23B72;stroke-width:0.5;stroke-dasharray:5,5;" x1="31" x2="31" y1="121.4648" y2="431.2598"/></g><g><title>API Gateway</title><rect fill="#000000" fill-opacity="0.00000" height="309.7949" width="8" x="308.4009" y="121.4648"/><line style="stroke:#A23B72;stroke-width:0.5;stroke-dasharray:5,5;" x1="312.1118" x2="312.1118" y1="121.4648" y2="431.2598"/></g><g><title>svc-gear-inventory</title><rect fill="#000000" fill-opacity="0.00000" height="309.7949" width="8" x="439.2363" y="121.4648"/><line style="stroke:#A23B72;stroke-width:0.5;stroke-dasharray:5,5;" x1="442.6899" x2="442.6899" y1="121.4648" y2="431.2598"/></g><g><title>PostgreSQL</title><rect fill="#000000" fill-opacity="0.00000" height="309.7949" width="8" x="617.127" y="121.4648"/><line style="stroke:#A23B72;stroke-width:0.5;stroke-dasharray:5,5;" x1="620.7021" x2="620.7021" y1="121.4648" y2="431.2598"/></g><g class="participant participant-head" data-participant="Client"><rect fill="#E8F4F8" height="30.4883" rx="2.5" ry="2.5" style="stroke:#2E86AB;stroke-width:0.5;" width="53.5049" x="5" y="89.9766"/><text fill="#000000" font-family="Segoe UI" font-size="14" lengthAdjust="spacing" textLength="39.5049" x="12" y="110.5117">Client</text></g><g class="participant participant-tail" data-participant="Client"><rect fill="#E8F4F8" height="30.4883" rx="2.5" ry="2.5" style="stroke:#2E86AB;stroke-width:0.5;" width="53.5049" x="5" y="430.2598"/><text fill="#000000" font-family="Segoe UI" font-size="14" lengthAdjust="spacing" textLength="39.5049" x="12" y="450.7949">Client</text></g><g class="participant participant-head" data-participant="GW"><rect fill="#DBEAFE" height="30.4883" rx="2.5" ry="2.5" style="stroke:#2E86AB;stroke-width:0.5;" width="96.5781" x="264.1118" y="89.9766"/><text fill="#000000" font-family="Segoe UI" font-size="14" lengthAdjust="spacing" textLength="82.5781" x="271.1118" y="110.5117">API Gateway</text></g><g class="participant participant-tail" data-participant="GW"><rect fill="#DBEAFE" height="30.4883" rx="2.5" ry="2.5" style="stroke:#2E86AB;stroke-width:0.5;" width="96.5781" x="264.1118" y="430.2598"/><text fill="#000000" font-family="Segoe UI" font-size="14" lengthAdjust="spacing" textLength="82.5781" x="271.1118" y="450.7949">API Gateway</text></g><g class="participant participant-head" data-participant="Svc"><a href="/microservices/svc-gear-inventory/" target="_top" title="/microservices/svc-gear-inventory/" xlink:actuate="onRequest" xlink:href="/microservices/svc-gear-inventory/" xlink:show="new" xlink:title="/microservices/svc-gear-inventory/" xlink:type="simple"><rect fill="#E8F4F8" height="30.4883" rx="2.5" ry="2.5" style="stroke:#2E86AB;stroke-width:0.5;" width="145.0928" x="370.6899" y="89.9766"/><text fill="#000000" font-family="Segoe UI" font-size="14" lengthAdjust="spacing" textLength="131.0928" x="377.6899" y="110.5117">svc-gear-inventory</text></a></g><g class="participant participant-tail" data-participant="Svc"><a href="/microservices/svc-gear-inventory/" target="_top" title="/microservices/svc-gear-inventory/" xlink:actuate="onRequest" xlink:href="/microservices/svc-gear-inventory/" xlink:show="new" xlink:title="/microservices/svc-gear-inventory/" xlink:type="simple"><rect fill="#E8F4F8" height="30.4883" rx="2.5" ry="2.5" style="stroke:#2E86AB;stroke-width:0.5;" width="145.0928" x="370.6899" y="430.2598"/><text fill="#000000" font-family="Segoe UI" font-size="14" lengthAdjust="spacing" textLength="131.0928" x="377.6899" y="450.7949">svc-gear-inventory</text></a></g><g class="participant participant-head" data-participant="DB"><text fill="#000000" font-family="Segoe UI" font-size="14" lengthAdjust="spacing" textLength="76.8496" x="579.7021" y="118.5117">PostgreSQL</text><path d="M603.127,68.9766 C603.127,58.9766 621.127,58.9766 621.127,58.9766 C621.127,58.9766 639.127,58.9766 639.127,68.9766 L639.127,94.9766 C639.127,104.9766 621.127,104.9766 621.127,104.9766 C621.127,104.9766 603.127,104.9766 603.127,94.9766 L603.127,68.9766" fill="#FCE4EC" style="stroke:#181818;stroke-width:0.5;"/><path d="M603.127,68.9766 C603.127,78.9766 621.127,78.9766 621.127,78.9766 C621.127,78.9766 639.127,78.9766 639.127,68.9766" fill="none" style="stroke:#181818;stroke-width:0.5;"/></g><g class="participant participant-tail" data-participant="DB"><text fill="#000000" font-family="Segoe UI" font-size="14" lengthAdjust="spacing" textLength="76.8496" x="579.7021" y="443.7949">PostgreSQL</text><path d="M603.127,456.748 C603.127,446.748 621.127,446.748 621.127,446.748 C621.127,446.748 639.127,446.748 639.127,456.748 L639.127,482.748 C639.127,492.748 621.127,492.748 621.127,492.748 C621.127,492.748 603.127,492.748 603.127,482.748 L603.127,456.748" fill="#FCE4EC" style="stroke:#181818;stroke-width:0.5;"/><path d="M603.127,456.748 C603.127,466.748 621.127,466.748 621.127,466.748 C621.127,466.748 639.127,466.748 639.127,456.748" fill="none" style="stroke:#181818;stroke-width:0.5;"/></g><g><title>API Gateway</title><rect fill="#2563EB" height="225.1738" style="stroke:#A23B72;stroke-width:1;" width="10" x="307.4009" y="188.0859"/></g><g><title>svc-gear-inventory</title><rect fill="#2563EB" height="166.5527" style="stroke:#A23B72;stroke-width:1;" width="10" x="438.2363" y="217.3965"/></g><g><title>PostgreSQL</title><rect fill="#FCE4EC" height="29.3105" style="stroke:#A23B72;stroke-width:1;" width="10" x="616.127" y="290.0176"/></g><path d="M373,136.4648 L373,161.4648 L513,161.4648 L513,146.4648 L503,136.4648 L373,136.4648" fill="#FEFFDD" style="stroke:#181818;stroke-width:0.5;"/><path d="M503,136.4648 L503,146.4648 L513,146.4648 L503,136.4648" fill="#FEFFDD" style="stroke:#181818;stroke-width:0.5;"/><a href="/services/api/svc-gear-inventory.html#/Gear%20Assignments/getGearAssignment" target="_top" title="/services/api/svc-gear-inventory.html#/Gear%20Assignments/getGearAssignment" xlink:actuate="onRequest" xlink:href="/services/api/svc-gear-inventory.html#/Gear%20Assignments/getGearAssignment" xlink:show="new" xlink:title="/services/api/svc-gear-inventory.html#/Gear%20Assignments/getGearAssignment" xlink:type="simple"><text fill="#0000FF" font-family="Segoe UI" font-size="13" lengthAdjust="spacing" text-decoration="underline" textLength="119.4058" x="379" y="154.0332">View in Swagger UI</text></a><g class="message" data-participant-1="Client" data-participant-2="GW"><polygon fill="#2563EB" points="295.4009,184.0859,305.4009,188.0859,295.4009,192.0859,299.4009,188.0859" style="stroke:#2563EB;stroke-width:1;"/><line style="stroke:#2563EB;stroke-width:1;" x1="31.7524" x2="301.4009" y1="188.0859" y2="188.0859"/><text fill="#000000" font-family="Segoe UI" font-size="13" lengthAdjust="spacing" textLength="256.6484" x="38.7524" y="183.3438">GET /gear-assignments/{assignment_id}</text></g><g class="message" data-participant-1="GW" data-participant-2="Svc"><polygon fill="#2563EB" points="426.2363,213.3965,436.2363,217.3965,426.2363,221.3965,430.2363,217.3965" style="stroke:#2563EB;stroke-width:1;"/><line style="stroke:#2563EB;stroke-width:1;" x1="317.4009" x2="432.2363" y1="217.3965" y2="217.3965"/><text fill="#000000" font-family="Segoe UI" font-size="13" lengthAdjust="spacing" textLength="85.1348" x="324.4009" y="212.6543">route request</text></g><rect fill="#EEEEEE" height="3" style="stroke:#EEEEEE;stroke-width:1;" width="808.0571" x="0" y="246.0518"/><line style="stroke:#000000;stroke-width:1;" x1="0" x2="808.0571" y1="246.0518" y2="246.0518"/><line style="stroke:#000000;stroke-width:1;" x1="0" x2="808.0571" y1="249.0518" y2="249.0518"/><rect fill="#EEEEEE" height="23.3105" style="stroke:#000000;stroke-width:2;" width="80.3711" x="363.843" y="235.3965"/><text fill="#000000" font-family="Segoe UI" font-size="13" font-weight="bold" lengthAdjust="spacing" textLength="62.0864" x="369.843" y="251.9648">Database</text><g class="message" data-participant-1="Svc" data-participant-2="DB"><polygon fill="#2563EB" points="604.127,286.0176,614.127,290.0176,604.127,294.0176,608.127,290.0176" style="stroke:#2563EB;stroke-width:1;"/><line style="stroke:#2563EB;stroke-width:1;" x1="448.2363" x2="610.127" y1="290.0176" y2="290.0176"/><text fill="#000000" font-family="Segoe UI" font-size="13" lengthAdjust="spacing" textLength="148.8906" x="455.2363" y="285.2754">SELECT ... WHERE id = ?</text></g><g class="message" data-participant-1="DB" data-participant-2="Svc"><polygon fill="#2563EB" points="459.2363,315.3281,449.2363,319.3281,459.2363,323.3281,455.2363,319.3281" style="stroke:#2563EB;stroke-width:1;"/><line style="stroke:#2563EB;stroke-width:1;stroke-dasharray:2,2;" x1="453.2363" x2="620.127" y1="319.3281" y2="319.3281"/><text fill="#000000" font-family="Segoe UI" font-size="13" lengthAdjust="spacing" textLength="26.2222" x="465.2363" y="314.5859">Row</text></g><path d="M626,332.3281 L626,357.3281 L803,357.3281 L803,342.3281 L793,332.3281 L626,332.3281" fill="#FEFFDD" style="stroke:#181818;stroke-width:0.5;"/><path d="M793,332.3281 L793,342.3281 L803,342.3281 L793,332.3281" fill="#FEFFDD" style="stroke:#181818;stroke-width:0.5;"/><text fill="#000000" font-family="Segoe UI" font-size="13" lengthAdjust="spacing" textLength="156.0571" x="632" y="349.8965">Returns 404 if not found</text><g class="message" data-participant-1="Svc" data-participant-2="GW"><polygon fill="#2563EB" points="328.4009,379.9492,318.4009,383.9492,328.4009,387.9492,324.4009,383.9492" style="stroke:#2563EB;stroke-width:1;"/><line style="stroke:#2563EB;stroke-width:1;stroke-dasharray:2,2;" x1="322.4009" x2="442.2363" y1="383.9492" y2="383.9492"/><text fill="#000000" font-family="Segoe UI" font-size="13" lengthAdjust="spacing" textLength="47.3599" x="334.4009" y="379.207">200 OK</text></g><g class="message" data-participant-1="GW" data-participant-2="Client"><polygon fill="#2563EB" points="42.7524,409.2598,32.7524,413.2598,42.7524,417.2598,38.7524,413.2598" style="stroke:#2563EB;stroke-width:1;"/><line style="stroke:#2563EB;stroke-width:1;stroke-dasharray:2,2;" x1="36.7524" x2="311.4009" y1="413.2598" y2="413.2598"/><text fill="#000000" font-family="Segoe UI" font-size="13" lengthAdjust="spacing" textLength="47.3599" x="48.7524" y="408.5176">200 OK</text></g><!--SRC=[ZP9RZzem48NV_Ij6e3voMQ0BGg8L0IT5HLiAk-LXYogJJ8ArmQQsWQrM-zzhXqj2uQ7XnSmvEUDyC_g5YmrJR0rB5huaIcv5D92fL53sgViHVNRe5Oladei4OfPgB2WHncoR6byAyy3M2AKP9XBXQLGglew_joX2X3S2zkah9VV7LesFzqrSPkK9KuQ7VCE4yQIAK9qij7FVzwui_rwQTloMtybiOnxZc0kyYEatcbwxaUcUVBsG_BkENxyxIrSuVD_gcVmWpMLgs6ulcmNj1iecRPDtGWmtAK907w6M85CLfZLFn1g5qRMt_Cyl7ht_504QS2x81OlQC9vgGZOv1IWDKcx5aZN2uNWfzoSZ29Z1FVkJUO8vb8SUxTlnNlZqBgnar-9YPqEaEjXdkn2Udsjh7YgfKUruYBfsxQqj5kS1HCom9TDs5IPIcqJXxFiuonfw5iU0jkY0465PWToXSXqiFTlZ7Cys_4QBwigiqt8jiCKFZNg_02z1uwfv2Nvmt0CNCDkp9B4zdaQB1K4HWMjBo84JL3uv6jt_6mbXeU4x2p8ZUDnQUxGXZb4NxD2jgDocQvExdNYoaruFXYSwlHuXJhG15amNPdHC1uzGhLPX_eLEAV08Ul0vJohWiyVAkV5Kxac41Ti1hkB9oe2C3-bJD5ibDBJgBU2num2nszBZ7Kue6lKwVFjQZ7FZSPzf7KTijrp1dFm5]--></g></svg>