<?plantuml 1.2026.2?><svg xmlns="http://www.w3.org/2000/svg" xmlns:xlink="http://www.w3.org/1999/xlink" contentStyleType="text/css" data-diagram-type="SEQUENCE" height="1609px" preserveAspectRatio="none" style="width:1224px;height:1609px;background:#FEFEFE;" version="1.1" viewBox="0 0 1224 1609" width="1224px" zoomAndPan="magnify"><title>POST /transport-requests
Submit transport request
&lt;size:10&gt;&lt;color:#7c3aed&gt;ARCHITECT OVERRIDE &#8212; enriched with route optimization and vehicle tracking&lt;/color&gt;&lt;/size&gt;</title><defs/><g><rect fill="#FEFEFE" height="1609" style="stroke:none;stroke-width:1;" width="1224" x="0" y="0"/><text fill="#000000" font-family="'Segoe UI'" font-size="14" font-weight="bold" lengthAdjust="spacing" textLength="189.6221" x="513.6709" y="41.3125">POST /transport-requests</text><text fill="#000000" font-family="'Segoe UI'" font-size="14" font-weight="bold" lengthAdjust="spacing" textLength="181.9658" x="517.499" y="57.8008">Submit transport request</text><text fill="#7C3AED" font-family="'Segoe UI'" font-size="10" font-weight="bold" lengthAdjust="spacing" textLength="408.8574" x="404.0532" y="70.4219">ARCHITECT OVERRIDE &#8212; enriched with route optimization and vehicle tracking</text><g><title>API Gateway</title><rect fill="#0891B2" height="1300.4141" style="stroke:#181818;stroke-width:1;" width="10" x="214.2871" y="212.6406"/></g><g><title>svc-transport-logistics</title><rect fill="#0891B2" height="1241.793" style="stroke:#181818;stroke-width:1;" width="10" x="465.1802" y="241.9512"/></g><g><title>Reservations</title><rect fill="#D1FAE5" height="59.9316" style="stroke:#181818;stroke-width:1;" width="10" x="648.8833" y="380.5039"/></g><g><title>Location Svc</title><rect fill="#F1F5F9" height="44.6211" style="stroke:#181818;stroke-width:1;" width="10" x="757.8472" y="513.0566"/></g><g><title>Google Maps</title><rect fill="#F3E8FF" height="59.9316" style="stroke:#181818;stroke-width:1;" width="10" x="867.8398" y="726.8516"/></g><g><title>Fleet GPS</title><rect fill="#F3E8FF" height="84.2422" style="stroke:#181818;stroke-width:1;" width="10" x="966.9771" y="874.7148"/></g><g><title>PostgreSQL</title><rect fill="#FEF9C3" height="29.3105" style="stroke:#181818;stroke-width:1;" width="10" x="1166.5391" y="1306.5703"/></g><rect fill="none" height="283.9922" rx="4" ry="4" style="stroke:#000000;stroke-width:1.5;" width="645.3052" x="374.7788" y="889.7148"/><g class="participant-lifeline" data-entity-uid="part1" data-qualified-name="Client" id="part1-lifeline"><g><title>Client</title><rect fill="#000000" fill-opacity="0.00000" height="1385.0352" width="8" x="27.7524" y="146.0195"/><line style="stroke:#6B7280;stroke-width:0.5;stroke-dasharray:5,5;" x1="31" x2="31" y1="146.0195" y2="1531.0547"/></g></g><g class="participant-lifeline" data-entity-uid="part2" data-qualified-name="GW" id="part2-lifeline"><g><title>API Gateway</title><rect fill="#000000" fill-opacity="0.00000" height="1385.0352" width="8" x="215.2871" y="146.0195"/><line style="stroke:#6B7280;stroke-width:0.5;stroke-dasharray:5,5;" x1="218.998" x2="218.998" y1="146.0195" y2="1531.0547"/></g></g><g class="participant-lifeline" data-entity-uid="part3" data-qualified-name="Svc" id="part3-lifeline"><g><title>svc-transport-logistics</title><rect fill="#000000" fill-opacity="0.00000" height="1385.0352" width="8" x="466.1802" y="146.0195"/><line style="stroke:#6B7280;stroke-width:0.5;stroke-dasharray:5,5;" x1="469.7788" x2="469.7788" y1="146.0195" y2="1531.0547"/></g></g><g class="participant-lifeline" data-entity-uid="part4" data-qualified-name="Res" id="part4-lifeline"><g><title>Reservations</title><rect fill="#000000" fill-opacity="0.00000" height="1385.0352" width="8" x="649.8833" y="146.0195"/><line style="stroke:#6B7280;stroke-width:0.5;stroke-dasharray:5,5;" x1="653.8818" x2="653.8818" y1="146.0195" y2="1531.0547"/></g></g><g class="participant-lifeline" data-entity-uid="part5" data-qualified-name="LS" id="part5-lifeline"><g><title>Location Svc</title><rect fill="#000000" fill-opacity="0.00000" height="1385.0352" width="8" x="758.8472" y="146.0195"/><line style="stroke:#6B7280;stroke-width:0.5;stroke-dasharray:5,5;" x1="761.8848" x2="761.8848" y1="146.0195" y2="1531.0547"/></g></g><g class="participant-lifeline" data-entity-uid="part6" data-qualified-name="ExtMap" id="part6-lifeline"><g><title>Google Maps</title><rect fill="#000000" fill-opacity="0.00000" height="1385.0352" width="8" x="868.8398" y="146.0195"/><line style="stroke:#6B7280;stroke-width:0.5;stroke-dasharray:5,5;" x1="872.8096" x2="872.8096" y1="146.0195" y2="1531.0547"/></g></g><g class="participant-lifeline" data-entity-uid="part7" data-qualified-name="FleetGPS" id="part7-lifeline"><g><title>Fleet GPS</title><rect fill="#000000" fill-opacity="0.00000" height="1385.0352" width="8" x="967.9771" y="146.0195"/><line style="stroke:#6B7280;stroke-width:0.5;stroke-dasharray:5,5;" x1="971.8701" x2="971.8701" y1="146.0195" y2="1531.0547"/></g></g><g class="participant-lifeline" data-entity-uid="part8" data-qualified-name="Ntfy" id="part8-lifeline"><g><title>Notifications</title><rect fill="#000000" fill-opacity="0.00000" height="1385.0352" width="8" x="1066.0991" y="146.0195"/><line style="stroke:#6B7280;stroke-width:0.5;stroke-dasharray:5,5;" x1="1070.084" x2="1070.084" y1="146.0195" y2="1531.0547"/></g></g><g class="participant-lifeline" data-entity-uid="part9" data-qualified-name="DB" id="part9-lifeline"><g><title>PostgreSQL</title><rect fill="#000000" fill-opacity="0.00000" height="1385.0352" width="8" x="1167.5391" y="146.0195"/><line style="stroke:#6B7280;stroke-width:0.5;stroke-dasharray:5,5;" x1="1171.1143" x2="1171.1143" y1="146.0195" y2="1531.0547"/></g></g><g class="participant participant-head" data-entity-uid="part1" data-qualified-name="Client" id="part1-head"><a href="/applications/" target="_top" title="/applications/" xlink:actuate="onRequest" xlink:href="/applications/" xlink:show="new" xlink:title="/applications/" xlink:type="simple"><rect fill="#F9FAFB" height="30.4883" rx="4" ry="4" style="stroke:#374151;stroke-width:0.5;" width="53.5049" x="5" y="114.5313"/><text fill="#000000" font-family="'Segoe UI'" font-size="14" lengthAdjust="spacing" textLength="39.5049" x="12" y="135.0664">Client</text></a></g><g class="participant participant-tail" data-entity-uid="part1" data-qualified-name="Client" id="part1-tail"><a href="/applications/" target="_top" title="/applications/" xlink:actuate="onRequest" xlink:href="/applications/" xlink:show="new" xlink:title="/applications/" xlink:type="simple"><rect fill="#F9FAFB" height="30.4883" rx="4" ry="4" style="stroke:#374151;stroke-width:0.5;" width="53.5049" x="5" y="1530.0547"/><text fill="#000000" font-family="'Segoe UI'" font-size="14" lengthAdjust="spacing" textLength="39.5049" x="12" y="1550.5898">Client</text></a></g><g class="participant participant-head" data-entity-uid="part2" data-qualified-name="GW" id="part2-head"><a href="/actors/#api-gateway" target="_top" title="/actors/#api-gateway" xlink:actuate="onRequest" xlink:href="/actors/#api-gateway" xlink:show="new" xlink:title="/actors/#api-gateway" xlink:type="simple"><rect fill="#E0F2FE" height="30.4883" rx="4" ry="4" style="stroke:#374151;stroke-width:0.5;" width="96.5781" x="170.998" y="114.5313"/><text fill="#000000" font-family="'Segoe UI'" font-size="14" lengthAdjust="spacing" textLength="82.5781" x="177.998" y="135.0664">API Gateway</text></a></g><g class="participant participant-tail" data-entity-uid="part2" data-qualified-name="GW" id="part2-tail"><a href="/actors/#api-gateway" target="_top" title="/actors/#api-gateway" xlink:actuate="onRequest" xlink:href="/actors/#api-gateway" xlink:show="new" xlink:title="/actors/#api-gateway" xlink:type="simple"><rect fill="#E0F2FE" height="30.4883" rx="4" ry="4" style="stroke:#374151;stroke-width:0.5;" width="96.5781" x="170.998" y="1530.0547"/><text fill="#000000" font-family="'Segoe UI'" font-size="14" lengthAdjust="spacing" textLength="82.5781" x="177.998" y="1550.5898">API Gateway</text></a></g><g class="participant participant-head" data-entity-uid="part3" data-qualified-name="Svc" id="part3-head"><a href="/microservices/svc-transport-logistics/" target="_top" title="/microservices/svc-transport-logistics/" xlink:actuate="onRequest" xlink:href="/microservices/svc-transport-logistics/" xlink:show="new" xlink:title="/microservices/svc-transport-logistics/" xlink:type="simple"><rect fill="#CFFAFE" height="30.4883" rx="4" ry="4" style="stroke:#374151;stroke-width:0.5;" width="170.8027" x="384.7788" y="114.5313"/><text fill="#000000" font-family="'Segoe UI'" font-size="14" lengthAdjust="spacing" textLength="156.8027" x="391.7788" y="135.0664">svc-transport-logistics</text></a></g><g class="participant participant-tail" data-entity-uid="part3" data-qualified-name="Svc" id="part3-tail"><a href="/microservices/svc-transport-logistics/" target="_top" title="/microservices/svc-transport-logistics/" xlink:actuate="onRequest" xlink:href="/microservices/svc-transport-logistics/" xlink:show="new" xlink:title="/microservices/svc-transport-logistics/" xlink:type="simple"><rect fill="#CFFAFE" height="30.4883" rx="4" ry="4" style="stroke:#374151;stroke-width:0.5;" width="170.8027" x="384.7788" y="1530.0547"/><text fill="#000000" font-family="'Segoe UI'" font-size="14" lengthAdjust="spacing" textLength="156.8027" x="391.7788" y="1550.5898">svc-transport-logistics</text></a></g><g class="participant participant-head" data-entity-uid="part4" data-qualified-name="Res" id="part4-head"><a href="/microservices/svc-reservations/" target="_top" title="/microservices/svc-reservations/" xlink:actuate="onRequest" xlink:href="/microservices/svc-reservations/" xlink:show="new" xlink:title="/microservices/svc-reservations/" xlink:type="simple"><rect fill="#D1FAE5" height="30.4883" rx="4" ry="4" style="stroke:#374151;stroke-width:0.5;" width="100.0029" x="603.8818" y="114.5313"/><text fill="#000000" font-family="'Segoe UI'" font-size="14" lengthAdjust="spacing" textLength="86.0029" x="610.8818" y="135.0664">Reservations</text></a></g><g class="participant participant-tail" data-entity-uid="part4" data-qualified-name="Res" id="part4-tail"><a href="/microservices/svc-reservations/" target="_top" title="/microservices/svc-reservations/" xlink:actuate="onRequest" xlink:href="/microservices/svc-reservations/" xlink:show="new" xlink:title="/microservices/svc-reservations/" xlink:type="simple"><rect fill="#D1FAE5" height="30.4883" rx="4" ry="4" style="stroke:#374151;stroke-width:0.5;" width="100.0029" x="603.8818" y="1530.0547"/><text fill="#000000" font-family="'Segoe UI'" font-size="14" lengthAdjust="spacing" textLength="86.0029" x="610.8818" y="1550.5898">Reservations</text></a></g><g class="participant participant-head" data-entity-uid="part5" data-qualified-name="LS" id="part5-head"><a href="/microservices/svc-location-services/" target="_top" title="/microservices/svc-location-services/" xlink:actuate="onRequest" xlink:href="/microservices/svc-location-services/" xlink:show="new" xlink:title="/microservices/svc-location-services/" xlink:type="simple"><rect fill="#F1F5F9" height="30.4883" rx="4" ry="4" style="stroke:#374151;stroke-width:0.5;" width="97.9248" x="713.8848" y="114.5313"/><text fill="#000000" font-family="'Segoe UI'" font-size="14" lengthAdjust="spacing" textLength="83.9248" x="720.8848" y="135.0664">Location Svc</text></a></g><g class="participant participant-tail" data-entity-uid="part5" data-qualified-name="LS" id="part5-tail"><a href="/microservices/svc-location-services/" target="_top" title="/microservices/svc-location-services/" xlink:actuate="onRequest" xlink:href="/microservices/svc-location-services/" xlink:show="new" xlink:title="/microservices/svc-location-services/" xlink:type="simple"><rect fill="#F1F5F9" height="30.4883" rx="4" ry="4" style="stroke:#374151;stroke-width:0.5;" width="97.9248" x="713.8848" y="1530.0547"/><text fill="#000000" font-family="'Segoe UI'" font-size="14" lengthAdjust="spacing" textLength="83.9248" x="720.8848" y="1550.5898">Location Svc</text></a></g><g class="participant participant-head" data-entity-uid="part6" data-qualified-name="ExtMap" id="part6-head"><rect fill="#F3E8FF" height="30.4883" rx="4" ry="4" style="stroke:#374151;stroke-width:0.5;" width="102.0605" x="821.8096" y="114.5313"/><text fill="#000000" font-family="'Segoe UI'" font-size="14" lengthAdjust="spacing" textLength="88.0605" x="828.8096" y="135.0664">Google Maps</text></g><g class="participant participant-tail" data-entity-uid="part6" data-qualified-name="ExtMap" id="part6-tail"><rect fill="#F3E8FF" height="30.4883" rx="4" ry="4" style="stroke:#374151;stroke-width:0.5;" width="102.0605" x="821.8096" y="1530.0547"/><text fill="#000000" font-family="'Segoe UI'" font-size="14" lengthAdjust="spacing" textLength="88.0605" x="828.8096" y="1550.5898">Google Maps</text></g><g class="participant participant-head" data-entity-uid="part7" data-qualified-name="FleetGPS" id="part7-head"><rect fill="#F3E8FF" height="30.4883" rx="4" ry="4" style="stroke:#374151;stroke-width:0.5;" width="76.2139" x="933.8701" y="114.5313"/><text fill="#000000" font-family="'Segoe UI'" font-size="14" lengthAdjust="spacing" textLength="62.2139" x="940.8701" y="135.0664">Fleet GPS</text></g><g class="participant participant-tail" data-entity-uid="part7" data-qualified-name="FleetGPS" id="part7-tail"><rect fill="#F3E8FF" height="30.4883" rx="4" ry="4" style="stroke:#374151;stroke-width:0.5;" width="76.2139" x="933.8701" y="1530.0547"/><text fill="#000000" font-family="'Segoe UI'" font-size="14" lengthAdjust="spacing" textLength="62.2139" x="940.8701" y="1550.5898">Fleet GPS</text></g><g class="participant participant-head" data-entity-uid="part8" data-qualified-name="Ntfy" id="part8-head"><a href="/microservices/svc-notifications/" target="_top" title="/microservices/svc-notifications/" xlink:actuate="onRequest" xlink:href="/microservices/svc-notifications/" xlink:show="new" xlink:title="/microservices/svc-notifications/" xlink:type="simple"><rect fill="#F1F5F9" height="30.4883" rx="4" ry="4" style="stroke:#374151;stroke-width:0.5;" width="100.0303" x="1020.084" y="114.5313"/><text fill="#000000" font-family="'Segoe UI'" font-size="14" lengthAdjust="spacing" textLength="86.0303" x="1027.084" y="135.0664">Notifications</text></a></g><g class="participant participant-tail" data-entity-uid="part8" data-qualified-name="Ntfy" id="part8-tail"><a href="/microservices/svc-notifications/" target="_top" title="/microservices/svc-notifications/" xlink:actuate="onRequest" xlink:href="/microservices/svc-notifications/" xlink:show="new" xlink:title="/microservices/svc-notifications/" xlink:type="simple"><rect fill="#F1F5F9" height="30.4883" rx="4" ry="4" style="stroke:#374151;stroke-width:0.5;" width="100.0303" x="1020.084" y="1530.0547"/><text fill="#000000" font-family="'Segoe UI'" font-size="14" lengthAdjust="spacing" textLength="86.0303" x="1027.084" y="1550.5898">Notifications</text></a></g><g class="participant participant-head" data-entity-uid="part9" data-qualified-name="DB" id="part9-head"><a href="/microservices/svc-transport-logistics/#data-store" target="_top" title="/microservices/svc-transport-logistics/#data-store" xlink:actuate="onRequest" xlink:href="/microservices/svc-transport-logistics/#data-store" xlink:show="new" xlink:title="/microservices/svc-transport-logistics/#data-store" xlink:type="simple"><text fill="#000000" font-family="'Segoe UI'" font-size="14" lengthAdjust="spacing" textLength="76.8496" x="1130.1143" y="143.0664">PostgreSQL</text><path d="M1153.5391,93.5313 C1153.5391,83.5313 1171.5391,83.5313 1171.5391,83.5313 C1171.5391,83.5313 1189.5391,83.5313 1189.5391,93.5313 L1189.5391,119.5313 C1189.5391,129.5313 1171.5391,129.5313 1171.5391,129.5313 C1171.5391,129.5313 1153.5391,129.5313 1153.5391,119.5313 L1153.5391,93.5313" fill="#FEF9C3" style="stroke:#181818;stroke-width:0.5;"/><path d="M1153.5391,93.5313 C1153.5391,103.5313 1171.5391,103.5313 1171.5391,103.5313 C1171.5391,103.5313 1189.5391,103.5313 1189.5391,93.5313" fill="none" style="stroke:#181818;stroke-width:0.5;"/></a></g><g class="participant participant-tail" data-entity-uid="part9" data-qualified-name="DB" id="part9-tail"><a href="/microservices/svc-transport-logistics/#data-store" target="_top" title="/microservices/svc-transport-logistics/#data-store" xlink:actuate="onRequest" xlink:href="/microservices/svc-transport-logistics/#data-store" xlink:show="new" xlink:title="/microservices/svc-transport-logistics/#data-store" xlink:type="simple"><text fill="#000000" font-family="'Segoe UI'" font-size="14" lengthAdjust="spacing" textLength="76.8496" x="1130.1143" y="1543.5898">PostgreSQL</text><path d="M1153.5391,1556.543 C1153.5391,1546.543 1171.5391,1546.543 1171.5391,1546.543 C1171.5391,1546.543 1189.5391,1546.543 1189.5391,1556.543 L1189.5391,1582.543 C1189.5391,1592.543 1171.5391,1592.543 1171.5391,1592.543 C1171.5391,1592.543 1153.5391,1592.543 1153.5391,1582.543 L1153.5391,1556.543" fill="#FEF9C3" style="stroke:#181818;stroke-width:0.5;"/><path d="M1153.5391,1556.543 C1153.5391,1566.543 1171.5391,1566.543 1171.5391,1566.543 C1171.5391,1566.543 1189.5391,1566.543 1189.5391,1556.543" fill="none" style="stroke:#181818;stroke-width:0.5;"/></a></g><g><title>API Gateway</title><rect fill="#0891B2" height="1300.4141" style="stroke:#181818;stroke-width:1;" width="10" x="214.2871" y="212.6406"/></g><g><title>svc-transport-logistics</title><rect fill="#0891B2" height="1241.793" style="stroke:#181818;stroke-width:1;" width="10" x="465.1802" y="241.9512"/></g><g><title>Reservations</title><rect fill="#D1FAE5" height="59.9316" style="stroke:#181818;stroke-width:1;" width="10" x="648.8833" y="380.5039"/></g><g><title>Location Svc</title><rect fill="#F1F5F9" height="44.6211" style="stroke:#181818;stroke-width:1;" width="10" x="757.8472" y="513.0566"/></g><g><title>Google Maps</title><rect fill="#F3E8FF" height="59.9316" style="stroke:#181818;stroke-width:1;" width="10" x="867.8398" y="726.8516"/></g><g><title>Fleet GPS</title><rect fill="#F3E8FF" height="84.2422" style="stroke:#181818;stroke-width:1;" width="10" x="966.9771" y="874.7148"/></g><g><title>PostgreSQL</title><rect fill="#FEF9C3" height="29.3105" style="stroke:#181818;stroke-width:1;" width="10" x="1166.5391" y="1306.5703"/></g><path d="M399,165.0195 L399,182.0195 A4,4 0 0 0 403,186.0195 L535,186.0195 A4,4 0 0 0 539,182.0195 L539,171.0195 L529,161.0195 L403,161.0195 A4,4 0 0 0 399,165.0195" fill="#FEFFDD" style="stroke:#181818;stroke-width:0.5;"/><path d="M529,161.0195 L529,169.0195 A2,2 0 0 0 531,171.0195 L539,171.0195 L529,161.0195" fill="#FEFFDD" style="stroke:#181818;stroke-width:0.5;"/><a href="/services/api/svc-transport-logistics.html" target="_top" title="/services/api/svc-transport-logistics.html" xlink:actuate="onRequest" xlink:href="/services/api/svc-transport-logistics.html" xlink:show="new" xlink:title="/services/api/svc-transport-logistics.html" xlink:type="simple"><text fill="#0000FF" font-family="'Segoe UI'" font-size="13" lengthAdjust="spacing" text-decoration="underline" textLength="119.4058" x="405" y="178.5879">View in Swagger UI</text></a><g class="message" data-entity-1="part1" data-entity-2="part2" id="msg1"><polygon fill="#0891B2" points="202.2871,208.6406,212.2871,212.6406,202.2871,216.6406,206.2871,212.6406" style="stroke:#0891B2;stroke-width:1;"/><line style="stroke:#0891B2;stroke-width:1;" x1="31.7524" x2="208.2871" y1="212.6406" y2="212.6406"/><text fill="#000000" font-family="'Segoe UI'" font-size="13" lengthAdjust="spacing" textLength="163.5347" x="38.7524" y="207.8984">POST /transport-requests</text></g><g class="message" data-entity-1="part2" data-entity-2="part3" id="msg2"><polygon fill="#0891B2" points="453.1802,237.9512,463.1802,241.9512,453.1802,245.9512,457.1802,241.9512" style="stroke:#0891B2;stroke-width:1;"/><line style="stroke:#0891B2;stroke-width:1;" x1="224.2871" x2="459.1802" y1="241.9512" y2="241.9512"/><text fill="#000000" font-family="'Segoe UI'" font-size="13" lengthAdjust="spacing" textLength="85.1348" x="231.2871" y="237.209">route request</text></g><path d="M480,258.9512 L480,305.9512 A4,4 0 0 0 484,309.9512 L720,309.9512 A4,4 0 0 0 724,305.9512 L724,264.9512 L714,254.9512 L484,254.9512 A4,4 0 0 0 480,258.9512" fill="#FEFFDD" style="stroke:#181818;stroke-width:0.5;"/><path d="M714,254.9512 L714,262.9512 A2,2 0 0 0 716,264.9512 L724,264.9512 L714,254.9512" fill="#FEFFDD" style="stroke:#181818;stroke-width:0.5;"/><text fill="#000000" font-family="'Segoe UI'" font-size="13" lengthAdjust="spacing" textLength="102.3179" x="486" y="272.5195">Validate request</text><text fill="#000000" font-family="'Segoe UI'" font-size="13" lengthAdjust="spacing" textLength="204.5405" x="486" y="287.8301">(reservation_id, pickup_location,</text><text fill="#000000" font-family="'Segoe UI'" font-size="13" lengthAdjust="spacing" textLength="223.1582" x="486" y="303.1406">dropoff_location, passenger_count)</text><rect fill="#EEEEEE" height="3" rx="4" ry="4" style="stroke:#EEEEEE;stroke-width:1;" width="1217.9639" x="0" y="336.5381"/><line style="stroke:#000000;stroke-width:1;" x1="0" x2="1217.9639" y1="336.5381" y2="336.5381"/><line style="stroke:#000000;stroke-width:1;" x1="0" x2="1217.9639" y1="339.5381" y2="339.5381"/><rect fill="#EEEEEE" height="23.3105" rx="4" ry="4" style="stroke:#000000;stroke-width:2;" width="154.2832" x="531.8403" y="325.8828"/><text fill="#000000" font-family="'Segoe UI'" font-size="13" font-weight="bold" lengthAdjust="spacing" textLength="135.9985" x="537.8403" y="342.4512">Booking Verification</text><g class="message" data-entity-1="part3" data-entity-2="part4" id="msg3"><polygon fill="#0891B2" points="636.8833,376.5039,646.8833,380.5039,636.8833,384.5039,640.8833,380.5039" style="stroke:#0891B2;stroke-width:1;"/><line style="stroke:#0891B2;stroke-width:1;" x1="475.1802" x2="642.8833" y1="380.5039" y2="380.5039"/><a href="/microservices/svc-reservations/#get-reservationsreservation_id-get-reservation-details" target="_top" title="/microservices/svc-reservations/#get-reservationsreservation_id-get-reservation-details" xlink:actuate="onRequest" xlink:href="/microservices/svc-reservations/#get-reservationsreservation_id-get-reservation-details" xlink:show="new" xlink:title="/microservices/svc-reservations/#get-reservationsreservation_id-get-reservation-details" xlink:type="simple"><text fill="#0000FF" font-family="'Segoe UI'" font-size="13" lengthAdjust="spacing" text-decoration="underline" textLength="139.7627" x="482.1802" y="375.7617">GET /reservations/{id}</text></a></g><g class="message" data-entity-1="part4" data-entity-2="part3" id="msg4"><polygon fill="#0891B2" points="486.1802,436.4355,476.1802,440.4355,486.1802,444.4355,482.1802,440.4355" style="stroke:#0891B2;stroke-width:1;"/><line style="stroke:#0891B2;stroke-width:1;stroke-dasharray:2,2;" x1="480.1802" x2="652.8833" y1="440.4355" y2="440.4355"/><text fill="#000000" font-family="'Segoe UI'" font-size="13" lengthAdjust="spacing" textLength="118.9551" x="492.1802" y="405.0723">Reservation details</text><text fill="#000000" font-family="'Segoe UI'" font-size="13" lengthAdjust="spacing" textLength="149.7031" x="492.1802" y="420.3828">(guest_count, trip_date,</text><text fill="#000000" font-family="'Segoe UI'" font-size="13" lengthAdjust="spacing" textLength="136.627" x="492.1802" y="435.6934">status = CONFIRMED)</text></g><rect fill="#EEEEEE" height="3" rx="4" ry="4" style="stroke:#EEEEEE;stroke-width:1;" width="1217.9639" x="0" y="469.0908"/><line style="stroke:#000000;stroke-width:1;" x1="0" x2="1217.9639" y1="469.0908" y2="469.0908"/><line style="stroke:#000000;stroke-width:1;" x1="0" x2="1217.9639" y1="472.0908" y2="472.0908"/><rect fill="#EEEEEE" height="23.3105" rx="4" ry="4" style="stroke:#000000;stroke-width:2;" width="147.104" x="535.4299" y="458.4355"/><text fill="#000000" font-family="'Segoe UI'" font-size="13" font-weight="bold" lengthAdjust="spacing" textLength="128.8193" x="541.4299" y="475.0039">Location Validation</text><g class="message" data-entity-1="part3" data-entity-2="part5" id="msg5"><polygon fill="#0891B2" points="745.8472,509.0566,755.8472,513.0566,745.8472,517.0566,749.8472,513.0566" style="stroke:#0891B2;stroke-width:1;"/><line style="stroke:#0891B2;stroke-width:1;" x1="475.1802" x2="751.8472" y1="513.0566" y2="513.0566"/><a href="/microservices/svc-location-services/#get-locationslocation_id-get-location-details" target="_top" title="/microservices/svc-location-services/#get-locationslocation_id-get-location-details" xlink:actuate="onRequest" xlink:href="/microservices/svc-location-services/#get-locationslocation_id-get-location-details" xlink:show="new" xlink:title="/microservices/svc-location-services/#get-locationslocation_id-get-location-details" xlink:type="simple"><text fill="#0000FF" font-family="'Segoe UI'" font-size="13" lengthAdjust="spacing" text-decoration="underline" textLength="119.6851" x="482.1802" y="508.3145">GET /locations/{id}</text></a></g><g class="message" data-entity-1="part5" data-entity-2="part3" id="msg6"><polygon fill="#0891B2" points="486.1802,553.6777,476.1802,557.6777,486.1802,561.6777,482.1802,557.6777" style="stroke:#0891B2;stroke-width:1;"/><line style="stroke:#0891B2;stroke-width:1;stroke-dasharray:2,2;" x1="480.1802" x2="761.8472" y1="557.6777" y2="557.6777"/><text fill="#000000" font-family="'Segoe UI'" font-size="13" lengthAdjust="spacing" textLength="119.4312" x="492.1802" y="537.625">Pickup coordinates</text><text fill="#000000" font-family="'Segoe UI'" font-size="13" lengthAdjust="spacing" textLength="135.2114" x="492.1802" y="552.9355">(lat, lng, access_type)</text></g><path d="M480,574.6777 L480,621.6777 A4,4 0 0 0 484,625.6777 L636,625.6777 A4,4 0 0 0 640,621.6777 L640,580.6777 L630,570.6777 L484,570.6777 A4,4 0 0 0 480,574.6777" fill="#FEFFDD" style="stroke:#181818;stroke-width:0.5;"/><path d="M630,570.6777 L630,578.6777 A2,2 0 0 0 632,580.6777 L640,580.6777 L630,570.6777" fill="#FEFFDD" style="stroke:#181818;stroke-width:0.5;"/><text fill="#000000" font-family="'Segoe UI'" font-size="13" lengthAdjust="spacing" textLength="111.7188" x="486" y="588.2461">Validate pickup is</text><text fill="#000000" font-family="'Segoe UI'" font-size="13" lengthAdjust="spacing" textLength="130.5903" x="486" y="603.5566">accessible by vehicle</text><text fill="#000000" font-family="'Segoe UI'" font-size="13" lengthAdjust="spacing" textLength="139.6548" x="486" y="618.8672">(road access required)</text><rect fill="#EEEEEE" height="3" rx="4" ry="4" style="stroke:#EEEEEE;stroke-width:1;" width="1217.9639" x="0" y="652.2646"/><line style="stroke:#000000;stroke-width:1;" x1="0" x2="1217.9639" y1="652.2646" y2="652.2646"/><line style="stroke:#000000;stroke-width:1;" x1="0" x2="1217.9639" y1="655.2646" y2="655.2646"/><rect fill="#EEEEEE" height="23.3105" rx="4" ry="4" style="stroke:#000000;stroke-width:2;" width="148.5703" x="534.6968" y="641.6094"/><text fill="#000000" font-family="'Segoe UI'" font-size="13" font-weight="bold" lengthAdjust="spacing" textLength="130.2856" x="540.6968" y="658.1777">Route Optimization</text><g class="message" data-entity-1="part3" data-entity-2="part6" id="msg7"><polygon fill="#0891B2" points="855.8398,722.8516,865.8398,726.8516,855.8398,730.8516,859.8398,726.8516" style="stroke:#0891B2;stroke-width:1;"/><line style="stroke:#0891B2;stroke-width:1;" x1="475.1802" x2="861.8398" y1="726.8516" y2="726.8516"/><text fill="#000000" font-family="'Segoe UI'" font-size="13" lengthAdjust="spacing" textLength="147.2656" x="482.1802" y="691.4883">Calculate optimal route</text><text fill="#000000" font-family="'Segoe UI'" font-size="13" lengthAdjust="spacing" textLength="119.228" x="482.1802" y="706.7988">(pickup &#8594; dropoff,</text><text fill="#000000" font-family="'Segoe UI'" font-size="13" lengthAdjust="spacing" textLength="192.8101" x="482.1802" y="722.1094">consider traffic, road closures)</text></g><g class="message" data-entity-1="part6" data-entity-2="part3" id="msg8"><polygon fill="#0891B2" points="486.1802,782.7832,476.1802,786.7832,486.1802,790.7832,482.1802,786.7832" style="stroke:#0891B2;stroke-width:1;"/><line style="stroke:#0891B2;stroke-width:1;stroke-dasharray:2,2;" x1="480.1802" x2="871.8398" y1="786.7832" y2="786.7832"/><text fill="#000000" font-family="'Segoe UI'" font-size="13" lengthAdjust="spacing" textLength="82.1006" x="492.1802" y="751.4199">Route details</text><text fill="#000000" font-family="'Segoe UI'" font-size="13" lengthAdjust="spacing" textLength="194.2637" x="492.1802" y="766.7305">(distance, duration, waypoints,</text><text fill="#000000" font-family="'Segoe UI'" font-size="13" lengthAdjust="spacing" textLength="81.2183" x="492.1802" y="782.041">traffic_delay)</text></g><rect fill="#EEEEEE" height="3" rx="4" ry="4" style="stroke:#EEEEEE;stroke-width:1;" width="1217.9639" x="0" y="815.4385"/><line style="stroke:#000000;stroke-width:1;" x1="0" x2="1217.9639" y1="815.4385" y2="815.4385"/><line style="stroke:#000000;stroke-width:1;" x1="0" x2="1217.9639" y1="818.4385" y2="818.4385"/><rect fill="#EEEEEE" height="23.3105" rx="4" ry="4" style="stroke:#000000;stroke-width:2;" width="150.4429" x="533.7605" y="804.7832"/><text fill="#000000" font-family="'Segoe UI'" font-size="13" font-weight="bold" lengthAdjust="spacing" textLength="132.1582" x="539.7605" y="821.3516">Vehicle Assignment</text><g class="message" data-entity-1="part3" data-entity-2="part7" id="msg9"><polygon fill="#0891B2" points="954.9771,870.7148,964.9771,874.7148,954.9771,878.7148,958.9771,874.7148" style="stroke:#0891B2;stroke-width:1;"/><line style="stroke:#0891B2;stroke-width:1;" x1="475.1802" x2="960.9771" y1="874.7148" y2="874.7148"/><text fill="#000000" font-family="'Segoe UI'" font-size="13" lengthAdjust="spacing" textLength="132.2026" x="482.1802" y="854.6621">Get real-time vehicle</text><text fill="#000000" font-family="'Segoe UI'" font-size="13" lengthAdjust="spacing" textLength="119.3994" x="482.1802" y="869.9727">locations and ETAs</text></g><path d="M378.7788,889.7148 L436.9175,889.7148 L436.9175,897.0254 L426.9175,907.0254 L374.7788,907.0254 L374.7788,893.7148 A4,4 0 0 1 378.7788,889.7148" fill="#EEEEEE" style="stroke:#000000;stroke-width:1.5;"/><rect fill="none" height="283.9922" rx="4" ry="4" style="stroke:#000000;stroke-width:1.5;" width="645.3052" x="374.7788" y="889.7148"/><text fill="#000000" font-family="'Segoe UI'" font-size="13" font-weight="bold" lengthAdjust="spacing" textLength="17.1387" x="389.7788" y="903.2832">alt</text><text fill="#000000" font-family="'Segoe UI'" font-size="11" font-weight="bold" lengthAdjust="spacing" textLength="114.27" x="451.9175" y="902.3496">[Fleet GPS available]</text><g class="message" data-entity-1="part7" data-entity-2="part3" id="msg10"><polygon fill="#0891B2" points="486.1802,954.957,476.1802,958.957,486.1802,962.957,482.1802,958.957" style="stroke:#0891B2;stroke-width:1;"/><line style="stroke:#0891B2;stroke-width:1;stroke-dasharray:2,2;" x1="480.1802" x2="970.9771" y1="958.957" y2="958.957"/><text fill="#000000" font-family="'Segoe UI'" font-size="13" lengthAdjust="spacing" textLength="107.1929" x="492.1802" y="923.5938">Vehicle positions</text><text fill="#000000" font-family="'Segoe UI'" font-size="13" lengthAdjust="spacing" textLength="122.4209" x="492.1802" y="938.9043">(vehicle_id, lat, lng,</text><text fill="#000000" font-family="'Segoe UI'" font-size="13" lengthAdjust="spacing" textLength="101.9497" x="492.1802" y="954.2148">status, capacity)</text></g><path d="M480,975.957 L480,1053.957 A4,4 0 0 0 484,1057.957 L702,1057.957 A4,4 0 0 0 706,1053.957 L706,981.957 L696,971.957 L484,971.957 A4,4 0 0 0 480,975.957" fill="#FEFFDD" style="stroke:#181818;stroke-width:0.5;"/><path d="M696,971.957 L696,979.957 A2,2 0 0 0 698,981.957 L706,981.957 L696,971.957" fill="#FEFFDD" style="stroke:#181818;stroke-width:0.5;"/><text fill="#000000" font-family="'Segoe UI'" font-size="13" lengthAdjust="spacing" textLength="107.5356" x="486" y="989.5254">Select vehicle by:</text><text fill="#000000" font-family="'Segoe UI'" font-size="13" lengthAdjust="spacing" textLength="128.0449" x="486" y="1004.8359">1. Nearest to pickup</text><text fill="#000000" font-family="'Segoe UI'" font-size="13" lengthAdjust="spacing" textLength="205.6831" x="486" y="1020.1465">2. Capacity &gt;= passenger_count</text><text fill="#000000" font-family="'Segoe UI'" font-size="13" lengthAdjust="spacing" textLength="167.1084" x="486" y="1035.457">3. Available (not en-route)</text><text fill="#000000" font-family="'Segoe UI'" font-size="13" lengthAdjust="spacing" textLength="137.5791" x="486" y="1050.7676">4. Fuel level adequate</text><line style="stroke:#000000;stroke-width:1;stroke-dasharray:2,2;" x1="374.7788" x2="1020.084" y1="1064.5098" y2="1064.5098"/><text fill="#000000" font-family="'Segoe UI'" font-size="11" font-weight="bold" lengthAdjust="spacing" textLength="128.7183" x="379.7788" y="1075.1445">[Fleet GPS unavailable]</text><g class="message" data-entity-1="part7" data-entity-2="part3" id="msg11"><polygon fill="#0891B2" points="486.1802,1095.7754,476.1802,1099.7754,486.1802,1103.7754,482.1802,1099.7754" style="stroke:#0891B2;stroke-width:1;"/><line style="stroke:#0891B2;stroke-width:1;stroke-dasharray:2,2;" x1="480.1802" x2="970.9771" y1="1099.7754" y2="1099.7754"/><text fill="#000000" font-family="'Segoe UI'" font-size="13" lengthAdjust="spacing" textLength="88.6196" x="492.1802" y="1095.0332">503 / timeout</text></g><path d="M480,1116.7754 L480,1163.7754 A4,4 0 0 0 484,1167.7754 L668,1167.7754 A4,4 0 0 0 672,1163.7754 L672,1122.7754 L662,1112.7754 L484,1112.7754 A4,4 0 0 0 480,1116.7754" fill="#FEF3C7" style="stroke:#181818;stroke-width:0.5;"/><path d="M662,1112.7754 L662,1120.7754 A2,2 0 0 0 664,1122.7754 L672,1122.7754 L662,1112.7754" fill="#FEF3C7" style="stroke:#181818;stroke-width:0.5;"/><text fill="#000000" font-family="'Segoe UI'" font-size="13" lengthAdjust="spacing" textLength="134.2085" x="486" y="1130.3438">Fallback: assign from</text><text fill="#000000" font-family="'Segoe UI'" font-size="13" lengthAdjust="spacing" textLength="122.9858" x="486" y="1145.6543">static vehicle roster</text><text fill="#000000" font-family="'Segoe UI'" font-size="13" lengthAdjust="spacing" textLength="171.666" x="486" y="1160.9648">(last known depot location)</text><rect fill="#EEEEEE" height="3" rx="4" ry="4" style="stroke:#EEEEEE;stroke-width:1;" width="1217.9639" x="0" y="1201.3623"/><line style="stroke:#000000;stroke-width:1;" x1="0" x2="1217.9639" y1="1201.3623" y2="1201.3623"/><line style="stroke:#000000;stroke-width:1;" x1="0" x2="1217.9639" y1="1204.3623" y2="1204.3623"/><rect fill="#EEEEEE" height="23.3105" rx="4" ry="4" style="stroke:#000000;stroke-width:2;" width="80.3711" x="568.7964" y="1190.707"/><text fill="#000000" font-family="'Segoe UI'" font-size="13" font-weight="bold" lengthAdjust="spacing" textLength="62.0864" x="574.7964" y="1207.2754">Database</text><g class="message" data-entity-1="part3" data-entity-2="part9" id="msg12"><polygon fill="#0891B2" points="1154.5391,1302.5703,1164.5391,1306.5703,1154.5391,1310.5703,1158.5391,1306.5703" style="stroke:#0891B2;stroke-width:1;"/><line style="stroke:#0891B2;stroke-width:1;" x1="475.1802" x2="1160.5391" y1="1306.5703" y2="1306.5703"/><text fill="#000000" font-family="'Segoe UI'" font-size="13" lengthAdjust="spacing" textLength="202.8076" x="482.1802" y="1240.5859">INSERT INTO transport_requests</text><text fill="#000000" font-family="'Segoe UI'" font-size="13" lengthAdjust="spacing" textLength="171.3232" x="482.1802" y="1255.8965">(request_id, reservation_id,</text><text fill="#000000" font-family="'Segoe UI'" font-size="13" lengthAdjust="spacing" textLength="151.563" x="482.1802" y="1271.207">assigned_vehicle, route,</text><text fill="#000000" font-family="'Segoe UI'" font-size="13" lengthAdjust="spacing" textLength="149.6523" x="482.1802" y="1286.5176">estimated_pickup_time,</text><text fill="#000000" font-family="'Segoe UI'" font-size="13" lengthAdjust="spacing" textLength="136.0684" x="482.1802" y="1301.8281">status = SCHEDULED)</text></g><g class="message" data-entity-1="part9" data-entity-2="part3" id="msg13"><polygon fill="#0891B2" points="486.1802,1331.8809,476.1802,1335.8809,486.1802,1339.8809,482.1802,1335.8809" style="stroke:#0891B2;stroke-width:1;"/><line style="stroke:#0891B2;stroke-width:1;stroke-dasharray:2,2;" x1="480.1802" x2="1170.5391" y1="1335.8809" y2="1335.8809"/><text fill="#000000" font-family="'Segoe UI'" font-size="13" lengthAdjust="spacing" textLength="76.4575" x="492.1802" y="1331.1387">Created row</text></g><rect fill="#EEEEEE" height="3" rx="4" ry="4" style="stroke:#EEEEEE;stroke-width:1;" width="1217.9639" x="0" y="1364.5361"/><line style="stroke:#000000;stroke-width:1;" x1="0" x2="1217.9639" y1="1364.5361" y2="1364.5361"/><line style="stroke:#000000;stroke-width:1;" x1="0" x2="1217.9639" y1="1367.5361" y2="1367.5361"/><rect fill="#EEEEEE" height="23.3105" rx="4" ry="4" style="stroke:#000000;stroke-width:2;" width="140.8325" x="538.5657" y="1353.8809"/><text fill="#000000" font-family="'Segoe UI'" font-size="13" font-weight="bold" lengthAdjust="spacing" textLength="122.5479" x="544.5657" y="1370.4492">Async Notification</text><g class="message" data-entity-1="part3" data-entity-2="part8" id="msg14"><line style="stroke:#0891B2;stroke-width:1;" x1="1068.0991" x2="1058.0991" y1="1423.8125" y2="1419.8125"/><line style="stroke:#0891B2;stroke-width:1;" x1="1068.0991" x2="1058.0991" y1="1423.8125" y2="1427.8125"/><line style="stroke:#0891B2;stroke-width:1;" x1="475.1802" x2="1069.0991" y1="1423.8125" y2="1423.8125"/><a href="/microservices/svc-notifications/#post-notifications-send-a-notification" target="_top" title="/microservices/svc-notifications/#post-notifications-send-a-notification" xlink:actuate="onRequest" xlink:href="/microservices/svc-notifications/#post-notifications-send-a-notification" xlink:show="new" xlink:title="/microservices/svc-notifications/#post-notifications-send-a-notification" xlink:type="simple"><text fill="#0000FF" font-family="'Segoe UI'" font-size="13" lengthAdjust="spacing" text-decoration="underline" textLength="138.7344" x="482.1802" y="1403.7598">Send transport details</text></a><text fill="#000000" font-family="'Segoe UI'" font-size="13" lengthAdjust="spacing" textLength="205.1055" x="482.1802" y="1419.0703">(pickup time, vehicle info, route)</text></g><g class="message" data-entity-1="part3" data-entity-2="part2" id="msg15"><polygon fill="#0891B2" points="235.2871,1479.7441,225.2871,1483.7441,235.2871,1487.7441,231.2871,1483.7441" style="stroke:#0891B2;stroke-width:1;"/><line style="stroke:#0891B2;stroke-width:1;stroke-dasharray:2,2;" x1="229.2871" x2="469.1802" y1="1483.7441" y2="1483.7441"/><text fill="#000000" font-family="'Segoe UI'" font-size="13" lengthAdjust="spacing" textLength="77.7969" x="241.2871" y="1448.3809">201 Created</text><text fill="#000000" font-family="'Segoe UI'" font-size="13" lengthAdjust="spacing" textLength="126.0073" x="241.2871" y="1463.6914">(request_id, vehicle,</text><text fill="#000000" font-family="'Segoe UI'" font-size="13" lengthAdjust="spacing" textLength="216.8931" x="241.2871" y="1479.002">estimated_pickup, route_duration)</text></g><g class="message" data-entity-1="part2" data-entity-2="part1" id="msg16"><polygon fill="#0891B2" points="42.7524,1509.0547,32.7524,1513.0547,42.7524,1517.0547,38.7524,1513.0547" style="stroke:#0891B2;stroke-width:1;"/><line style="stroke:#0891B2;stroke-width:1;stroke-dasharray:2,2;" x1="36.7524" x2="218.2871" y1="1513.0547" y2="1513.0547"/><text fill="#000000" font-family="'Segoe UI'" font-size="13" lengthAdjust="spacing" textLength="77.7969" x="48.7524" y="1508.3125">201 Created</text></g><a href="/microservices/svc-transport-logistics/#integration-context" target="_top" title="/microservices/svc-transport-logistics/#integration-context" xlink:actuate="onRequest" xlink:href="/microservices/svc-transport-logistics/#integration-context" xlink:show="new" xlink:title="/microservices/svc-transport-logistics/#integration-context" xlink:type="simple"><text fill="#0000FF" font-family="'Segoe UI'" font-size="10" lengthAdjust="spacing" text-decoration="underline" textLength="223.1738" x="993.79" y="14.668">&#11014; svc-transport-logistics Integration Context</text></a><?plantuml-src bLRRRjiu47tNLymsBmrWsRbiqTP83BYsb1f8awoTfWzrOD0IRHEbILMaxBf5WNtg1opsC_Qh-YKxfAYRcs2pVKXbQNXcvl3CvJSc8fx55DhjZbxHDMqdsPfxwXCJ2Kd96XJzd54HKVZc0VxhfwdS3YINAHmSlNfzF3_nldlUYfAOfl3nOsVDebGgccvOH5L7RI9VfqIeHARQvtB9b6QHwXmmeUao9Pf9uKSIVtpHyFEV7_380HXLzZ38xU_lFKyppIdSN4zkeLCTIqt8Igkfc6JpDTDGVWBtQIhE5FjAkyT7lRF89DCzU1cT4Xht-kF1sz5jCBY5wxjWF1uD0_Zvvzz0HSgY5OrXo_GAKfbf2ZBHRCs-va4H4SE6hbY4yQ2x2FbRddKiTk-iOvprF0yPnMnOGeI6PmFEgD3FW2Z87mrz94auYooawc26ZHFzcn5S44stP6UFNNomHo8jKwIK9CnVvb_lx-4WE0fFmg09y0Yx5cooYPv-VyR180px-mx6r1pDmxUe-E9XrBHcQU66ns4_UD64kvGv5IOu2tSvUHYDEqE_V6iWm-FmHVYw2NaXvHAlw1r9yW23BngVqVOqU1M6JTkGKwhXucPYBUql_F6mxPNKR57SdBM_qelTmz6AkcqzqfXeCYUAmhCRgVGofPC_BYtMyCt_g2s3uYiK1RNGGVXwSEfvw1Gbky4gHJAnb16lX4BfF0RNNkarXpj6jy3m7hPakKI8zoFK9aN96rJFS_hrUqQItKVhqKEfChnpQioAxe6FUCweh-lgofbNrkPZOPxdaRBbIeDSk7DtXBEOL4UdudbDNpCMjo1XqQSicHL2QKr5dCf4BXRLAqY8KbHWVhD8Pa8VUjxvERoHqjGotD6ql3GuF_SyuneZDmhlFa7Z1qkg6s-Q4Vfxd_sOQi8u5dc0N3QGlh7uEz9VqcCYACh7FFibdxLo18U7r2mDHNcABUnLB9aPxf0HfOdE59p3uFeg78tV1SD3BwPrFvQHiYeTxNk4O8rsdrgbbfJYjIeU2ZfA-mONfValH5nEoah2nug66tlt44cPnaoWfM614yoUYsKBI8IXg9dU9RIHx-NaFzIMQmeOmkKOR8wjPRuh1e6HeIInSs35oL8QvxeQMwrVrsT8ZKJNbhem83pAE2d63U5vaI2qy_xpnr_Wf8nNYBDKCJEAiVeMADSMs0WYBbM68ZgioDfhVEvdJJislaerCVO3Wdj02-8iTGM3eoQHECeLUdOEPp7bPDVWCOUsIT-v2Tb7hfPYRPf6BUcomtRXWffPJRYFETEAp_BkxRmDRlkrdl9BVoPSGzd2WMmm4O8NPDUOqhXAk8WjaOfP7vYqSsmxI2cOeb1Q4964H4nZkWQpbd81xzaF3ubeGZcDTBaop7VTgJXkmnKbU4suiKYdhgauQQC8SZ_GEzzlKbDnseP-aHiyHr-uhFXM98TJyNiRmenou7I3Vt59-vnXV1xbYjQuoSH_ilFYw1GwO6u3aHzDz-5ipGmw7Rn4b91mFiVbg8j3pIW05gbSvtoog2G3suQcgQrHfEAJa5lJlXBChBZ_GpDyhAA6nSYiwGYdPHT6LvDWV8l_tLvN-z-iMWsVkqTxjtlJ0klPXaVZcOkfbPSTVi4ZM8OQFxcHOZYfDy_9u6qmV7zfccT944PK369yh5WTeCOH2i6tzOePlh6vzTLEH53VB6fPzl85e_kK5UC0DQsRxx07YzWdZPSeIgogQbbsnNz_NtKRcsnvKKmif6FcqCLLx00dHyT5TdjS5up-IgM3cXKDfj55pDPYTWLquDQDXfEwwSK7xry0?></g></svg>