<svg xmlns="http://www.w3.org/2000/svg" xmlns:xlink="http://www.w3.org/1999/xlink" contentStyleType="text/css" data-diagram-type="SEQUENCE" height="522px" preserveAspectRatio="none" style="width:824px;height:522px;background:#FEFEFE;" version="1.1" viewBox="0 0 824 522" width="824px" zoomAndPan="magnify"><title>GET /schedule-requests/{request_id}</title><defs/><g><rect fill="#FEFEFE" height="522" style="stroke:none;stroke-width:1;" width="824" x="0" y="0"/><text fill="#000000" font-family="Segoe UI" font-size="14" font-weight="bold" lengthAdjust="spacing" textLength="270.6689" x="272.6941" y="41.3125">GET /schedule-requests/{request_id}</text><text fill="#000000" font-family="Segoe UI" font-size="14" font-weight="bold" lengthAdjust="spacing" textLength="279.4189" x="268.3191" y="57.8008">Get schedule request status and result</text><g><title>API Gateway</title><rect fill="#2563EB" height="225.1738" style="stroke:#A23B72;stroke-width:1;" width="10" x="285.1396" y="200.8633"/></g><g><title>svc-scheduling-orchestrator</title><rect fill="#2563EB" height="166.5527" style="stroke:#A23B72;stroke-width:1;" width="10" x="447.9023" y="230.1738"/></g><g><title>PG . Valkey</title><rect fill="#FCE4EC" height="29.3105" style="stroke:#A23B72;stroke-width:1;" width="10" x="625.793" y="302.7949"/></g><g><title>Client</title><rect fill="#000000" fill-opacity="0.00000" height="309.7949" width="8" x="27.7524" y="134.2422"/><line style="stroke:#A23B72;stroke-width:0.5;stroke-dasharray:5,5;" x1="31" x2="31" y1="134.2422" y2="444.0371"/></g><g><title>API Gateway</title><rect fill="#000000" fill-opacity="0.00000" height="309.7949" width="8" x="286.1396" y="134.2422"/><line style="stroke:#A23B72;stroke-width:0.5;stroke-dasharray:5,5;" x1="289.8506" x2="289.8506" y1="134.2422" y2="444.0371"/></g><g><title>svc-scheduling-orchestrator</title><rect fill="#000000" fill-opacity="0.00000" height="309.7949" width="8" x="448.9023" y="134.2422"/><line style="stroke:#A23B72;stroke-width:0.5;stroke-dasharray:5,5;" x1="452.4287" x2="452.4287" y1="134.2422" y2="444.0371"/></g><g><title>PG . Valkey</title><rect fill="#000000" fill-opacity="0.00000" height="309.7949" width="8" x="626.793" y="134.2422"/><line style="stroke:#A23B72;stroke-width:0.5;stroke-dasharray:5,5;" x1="630.7568" x2="630.7568" y1="134.2422" y2="444.0371"/></g><g class="participant participant-head" data-participant="Client"><rect fill="#E8F4F8" height="30.4883" rx="2.5" ry="2.5" style="stroke:#2E86AB;stroke-width:0.5;" width="53.5049" x="5" y="102.7539"/><text fill="#000000" font-family="Segoe UI" font-size="14" lengthAdjust="spacing" textLength="39.5049" x="12" y="123.2891">Client</text></g><g class="participant participant-tail" data-participant="Client"><rect fill="#E8F4F8" height="30.4883" rx="2.5" ry="2.5" style="stroke:#2E86AB;stroke-width:0.5;" width="53.5049" x="5" y="443.0371"/><text fill="#000000" font-family="Segoe UI" font-size="14" lengthAdjust="spacing" textLength="39.5049" x="12" y="463.5723">Client</text></g><g class="participant participant-head" data-participant="GW"><rect fill="#DBEAFE" height="30.4883" rx="2.5" ry="2.5" style="stroke:#2E86AB;stroke-width:0.5;" width="96.5781" x="241.8506" y="102.7539"/><text fill="#000000" font-family="Segoe UI" font-size="14" lengthAdjust="spacing" textLength="82.5781" x="248.8506" y="123.2891">API Gateway</text></g><g class="participant participant-tail" data-participant="GW"><rect fill="#DBEAFE" height="30.4883" rx="2.5" ry="2.5" style="stroke:#2E86AB;stroke-width:0.5;" width="96.5781" x="241.8506" y="443.0371"/><text fill="#000000" font-family="Segoe UI" font-size="14" lengthAdjust="spacing" textLength="82.5781" x="248.8506" y="463.5723">API Gateway</text></g><g class="participant participant-head" data-participant="Svc"><a href="/microservices/svc-scheduling-orchestrator/" target="_top" title="/microservices/svc-scheduling-orchestrator/" xlink:actuate="onRequest" xlink:href="/microservices/svc-scheduling-orchestrator/" xlink:show="new" xlink:title="/microservices/svc-scheduling-orchestrator/" xlink:type="simple"><rect fill="#E8F4F8" height="30.4883" rx="2.5" ry="2.5" style="stroke:#2E86AB;stroke-width:0.5;" width="208.9473" x="348.4287" y="102.7539"/><text fill="#000000" font-family="Segoe UI" font-size="14" lengthAdjust="spacing" textLength="194.9473" x="355.4287" y="123.2891">svc-scheduling-orchestrator</text></a></g><g class="participant participant-tail" data-participant="Svc"><a href="/microservices/svc-scheduling-orchestrator/" target="_top" title="/microservices/svc-scheduling-orchestrator/" xlink:actuate="onRequest" xlink:href="/microservices/svc-scheduling-orchestrator/" xlink:show="new" xlink:title="/microservices/svc-scheduling-orchestrator/" xlink:type="simple"><rect fill="#E8F4F8" height="30.4883" rx="2.5" ry="2.5" style="stroke:#2E86AB;stroke-width:0.5;" width="208.9473" x="348.4287" y="443.0371"/><text fill="#000000" font-family="Segoe UI" font-size="14" lengthAdjust="spacing" textLength="194.9473" x="355.4287" y="463.5723">svc-scheduling-orchestrator</text></a></g><g class="participant participant-head" data-participant="DB"><text fill="#000000" font-family="Segoe UI" font-size="14" lengthAdjust="spacing" textLength="82.0723" x="586.7568" y="131.2891">PG + Valkey</text><path d="M612.793,81.7539 C612.793,71.7539 630.793,71.7539 630.793,71.7539 C630.793,71.7539 648.793,71.7539 648.793,81.7539 L648.793,107.7539 C648.793,117.7539 630.793,117.7539 630.793,117.7539 C630.793,117.7539 612.793,117.7539 612.793,107.7539 L612.793,81.7539" fill="#FCE4EC" style="stroke:#181818;stroke-width:0.5;"/><path d="M612.793,81.7539 C612.793,91.7539 630.793,91.7539 630.793,91.7539 C630.793,91.7539 648.793,91.7539 648.793,81.7539" fill="none" style="stroke:#181818;stroke-width:0.5;"/></g><g class="participant participant-tail" data-participant="DB"><text fill="#000000" font-family="Segoe UI" font-size="14" lengthAdjust="spacing" textLength="82.0723" x="586.7568" y="456.5723">PG + Valkey</text><path d="M612.793,469.5254 C612.793,459.5254 630.793,459.5254 630.793,459.5254 C630.793,459.5254 648.793,459.5254 648.793,469.5254 L648.793,495.5254 C648.793,505.5254 630.793,505.5254 630.793,505.5254 C630.793,505.5254 612.793,505.5254 612.793,495.5254 L612.793,469.5254" fill="#FCE4EC" style="stroke:#181818;stroke-width:0.5;"/><path d="M612.793,469.5254 C612.793,479.5254 630.793,479.5254 630.793,479.5254 C630.793,479.5254 648.793,479.5254 648.793,469.5254" fill="none" style="stroke:#181818;stroke-width:0.5;"/></g><g><title>API Gateway</title><rect fill="#2563EB" height="225.1738" style="stroke:#A23B72;stroke-width:1;" width="10" x="285.1396" y="200.8633"/></g><g><title>svc-scheduling-orchestrator</title><rect fill="#2563EB" height="166.5527" style="stroke:#A23B72;stroke-width:1;" width="10" x="447.9023" y="230.1738"/></g><g><title>PG . Valkey</title><rect fill="#FCE4EC" height="29.3105" style="stroke:#A23B72;stroke-width:1;" width="10" x="625.793" y="302.7949"/></g><path d="M382,149.2422 L382,174.2422 L522,174.2422 L522,159.2422 L512,149.2422 L382,149.2422" fill="#FEFFDD" style="stroke:#181818;stroke-width:0.5;"/><path d="M512,149.2422 L512,159.2422 L522,159.2422 L512,149.2422" fill="#FEFFDD" style="stroke:#181818;stroke-width:0.5;"/><a href="/services/api/svc-scheduling-orchestrator.html" target="_top" title="/services/api/svc-scheduling-orchestrator.html" xlink:actuate="onRequest" xlink:href="/services/api/svc-scheduling-orchestrator.html" xlink:show="new" xlink:title="/services/api/svc-scheduling-orchestrator.html" xlink:type="simple"><text fill="#0000FF" font-family="Segoe UI" font-size="13" lengthAdjust="spacing" text-decoration="underline" textLength="119.4058" x="388" y="166.8105">View in Swagger UI</text></a><g class="message" data-participant-1="Client" data-participant-2="GW"><polygon fill="#2563EB" points="273.1396,196.8633,283.1396,200.8633,273.1396,204.8633,277.1396,200.8633" style="stroke:#2563EB;stroke-width:1;"/><line style="stroke:#2563EB;stroke-width:1;" x1="31.7524" x2="279.1396" y1="200.8633" y2="200.8633"/><text fill="#000000" font-family="Segoe UI" font-size="13" lengthAdjust="spacing" textLength="234.3872" x="38.7524" y="196.1211">GET /schedule-requests/{request_id}</text></g><g class="message" data-participant-1="GW" data-participant-2="Svc"><polygon fill="#2563EB" points="435.9023,226.1738,445.9023,230.1738,435.9023,234.1738,439.9023,230.1738" style="stroke:#2563EB;stroke-width:1;"/><line style="stroke:#2563EB;stroke-width:1;" x1="295.1396" x2="441.9023" y1="230.1738" y2="230.1738"/><text fill="#000000" font-family="Segoe UI" font-size="13" lengthAdjust="spacing" textLength="85.1348" x="302.1396" y="225.4316">route request</text></g><rect fill="#EEEEEE" height="3" style="stroke:#EEEEEE;stroke-width:1;" width="817.0571" x="0" y="258.8291"/><line style="stroke:#000000;stroke-width:1;" x1="0" x2="817.0571" y1="258.8291" y2="258.8291"/><line style="stroke:#000000;stroke-width:1;" x1="0" x2="817.0571" y1="261.8291" y2="261.8291"/><rect fill="#EEEEEE" height="23.3105" style="stroke:#000000;stroke-width:2;" width="80.3711" x="368.343" y="248.1738"/><text fill="#000000" font-family="Segoe UI" font-size="13" font-weight="bold" lengthAdjust="spacing" textLength="62.0864" x="374.343" y="264.7422">Database</text><g class="message" data-participant-1="Svc" data-participant-2="DB"><polygon fill="#2563EB" points="613.793,298.7949,623.793,302.7949,613.793,306.7949,617.793,302.7949" style="stroke:#2563EB;stroke-width:1;"/><line style="stroke:#2563EB;stroke-width:1;" x1="457.9023" x2="619.793" y1="302.7949" y2="302.7949"/><text fill="#000000" font-family="Segoe UI" font-size="13" lengthAdjust="spacing" textLength="148.8906" x="464.9023" y="298.0527">SELECT ... WHERE id = ?</text></g><g class="message" data-participant-1="DB" data-participant-2="Svc"><polygon fill="#2563EB" points="468.9023,328.1055,458.9023,332.1055,468.9023,336.1055,464.9023,332.1055" style="stroke:#2563EB;stroke-width:1;"/><line style="stroke:#2563EB;stroke-width:1;stroke-dasharray:2,2;" x1="462.9023" x2="629.793" y1="332.1055" y2="332.1055"/><text fill="#000000" font-family="Segoe UI" font-size="13" lengthAdjust="spacing" textLength="26.2222" x="474.9023" y="327.3633">Row</text></g><path d="M635,345.1055 L635,370.1055 L812,370.1055 L812,355.1055 L802,345.1055 L635,345.1055" fill="#FEFFDD" style="stroke:#181818;stroke-width:0.5;"/><path d="M802,345.1055 L802,355.1055 L812,355.1055 L802,345.1055" fill="#FEFFDD" style="stroke:#181818;stroke-width:0.5;"/><text fill="#000000" font-family="Segoe UI" font-size="13" lengthAdjust="spacing" textLength="156.0571" x="641" y="362.6738">Returns 404 if not found</text><g class="message" data-participant-1="Svc" data-participant-2="GW"><polygon fill="#2563EB" points="306.1396,392.7266,296.1396,396.7266,306.1396,400.7266,302.1396,396.7266" style="stroke:#2563EB;stroke-width:1;"/><line style="stroke:#2563EB;stroke-width:1;stroke-dasharray:2,2;" x1="300.1396" x2="451.9023" y1="396.7266" y2="396.7266"/><text fill="#000000" font-family="Segoe UI" font-size="13" lengthAdjust="spacing" textLength="47.3599" x="312.1396" y="391.9844">200 OK</text></g><g class="message" data-participant-1="GW" data-participant-2="Client"><polygon fill="#2563EB" points="42.7524,422.0371,32.7524,426.0371,42.7524,430.0371,38.7524,426.0371" style="stroke:#2563EB;stroke-width:1;"/><line style="stroke:#2563EB;stroke-width:1;stroke-dasharray:2,2;" x1="36.7524" x2="289.1396" y1="426.0371" y2="426.0371"/><text fill="#000000" font-family="Segoe UI" font-size="13" lengthAdjust="spacing" textLength="47.3599" x="48.7524" y="421.2949">200 OK</text></g><a href="/microservices/svc-scheduling-orchestrator/#integration-context" target="_top" title="/microservices/svc-scheduling-orchestrator/#integration-context" xlink:actuate="onRequest" xlink:href="/microservices/svc-scheduling-orchestrator/#integration-context" xlink:show="new" xlink:title="/microservices/svc-scheduling-orchestrator/#integration-context" xlink:type="simple"><text fill="#0000FF" font-family="Segoe UI" font-size="10" lengthAdjust="spacing" text-decoration="underline" textLength="250.4199" x="565.6372" y="14.668">&#11014; svc-scheduling-orchestrator Integration Context</text></a><!--SRC=[bLDTRzem57tthxY2nucF0Yi8YKqa90mDTGZQyj2XoIINO3NOp3RGgUhhVir-rNx9RaA0i5PeIrwkVCuzrpx7Dez2hhdcAvZpu37IQYD3LyLAGz7taf-P8yCiUQXsGaQmuB7171BYWczYwojfR_WAeJ31I27S3GhvTlo-GHaWF3EWhwkrscMZQk-lwpXFbqTSMn68DPVMKJf4VQ1uhUkkyuhozwQzbj_mMobjA1Ou51BFPBgrkjEifRYZdiuW_whbLw-Eq2ixV9_m5BvHzbmrQ3RdzHpsXfLrhybU65iYfpPuUAYiHA2LGRqL0PgAsGOb4omntCHaS4bfgetLt2fTAGffCQ9QA5aAo6Dyil3xrq-uq0I3Km-u-vxPZ34hR8pGzswXadLYIIV166igprdrJOGlNsKVBHmua25WBBSR0ro6j6GeSyRMfpYWuCO2fIq0Dx0lp-7kQ01zRd77VwIS_XIAFSVhqZqxurquMTetsGR_v-5iThmR8RTypWtTqb4Vti4zZnznlvkUGr6vNiDp6PEK8wWjPKMpA5cQTXp4r-BIiFBIhcAu5xW38M6our54CdS3yX_9jqIPiRqxKFgGUD3-bqGO3wpOadcfQzcJeP8a4ZlQG3VE7fCwiHFmG6UT3lGEv-zq64j04g2Jjs7Y3Jtt5ihbCam_UMCFH0WT-7XIolb3PUauUAnsBCGSRU-U5j7IWbhirSTeDreQQ5GR81Q92x18daYsXuCHjMeLldpEooN-9ySaHcRQMwp-bFq1]--></g></svg>