<?xml version="1.0" encoding="UTF-8" standalone="no"?><svg xmlns="http://www.w3.org/2000/svg" xmlns:xlink="http://www.w3.org/1999/xlink" contentScriptType="application/ecmascript" contentStyleType="text/css" height="517px" preserveAspectRatio="none" style="width:816px;height:517px;background:#FEFEFE;" version="1.1" viewBox="0 0 816 517" width="816px" zoomAndPan="magnify"><defs/><g><text fill="#000000" font-family="Segoe UI" font-size="18" lengthAdjust="spacingAndGlyphs" textLength="323" x="242" y="41.3486">GET /partner-bookings/{booking_id}</text><text fill="#000000" font-family="Segoe UI" font-size="18" lengthAdjust="spacingAndGlyphs" textLength="243" x="282" y="62.3018">Get partner booking details</text><rect fill="#2563EB" height="223.9297" style="stroke: #6B7280; stroke-width: 1.0;" width="10" x="283.5" y="202.1094"/><rect fill="#2563EB" height="165.6641" style="stroke: #6B7280; stroke-width: 1.0;" width="10" x="432" y="231.2422"/><rect fill="#FEF9C3" height="29.1328" style="stroke: #6B7280; stroke-width: 1.0;" width="10" x="615" y="303.5078"/><line style="stroke: #6B7280; stroke-width: 1.0; stroke-dasharray: 5.0,5.0;" x1="34" x2="34" y1="135.8438" y2="444.0391"/><line style="stroke: #6B7280; stroke-width: 1.0; stroke-dasharray: 5.0,5.0;" x1="288.5" x2="288.5" y1="135.8438" y2="444.0391"/><line style="stroke: #6B7280; stroke-width: 1.0; stroke-dasharray: 5.0,5.0;" x1="436.5" x2="436.5" y1="135.8438" y2="444.0391"/><line style="stroke: #6B7280; stroke-width: 1.0; stroke-dasharray: 5.0,5.0;" x1="619.5" x2="619.5" y1="135.8438" y2="444.0391"/><a href="/applications/" target="_top" title="/applications/" xlink:actuate="onRequest" xlink:href="/applications/" xlink:show="new" xlink:title="/applications/" xlink:type="simple"><rect fill="#F9FAFB" height="30.2969" style="stroke: #374151; stroke-width: 1.5;" width="53" x="8" y="104.5469"/><text fill="#000000" font-family="Segoe UI" font-size="14" lengthAdjust="spacingAndGlyphs" textLength="39" x="15" y="124.542">Client</text><rect fill="#F9FAFB" height="30.2969" style="stroke: #374151; stroke-width: 1.5;" width="53" x="8" y="443.0391"/><text fill="#000000" font-family="Segoe UI" font-size="14" lengthAdjust="spacingAndGlyphs" textLength="39" x="15" y="463.0342">Client</text></a><a href="/actors/#api-gateway" target="_top" title="/actors/#api-gateway" xlink:actuate="onRequest" xlink:href="/actors/#api-gateway" xlink:show="new" xlink:title="/actors/#api-gateway" xlink:type="simple"><rect fill="#E0F2FE" height="30.2969" style="stroke: #374151; stroke-width: 1.5;" width="98" x="239.5" y="104.5469"/><text fill="#000000" font-family="Segoe UI" font-size="14" lengthAdjust="spacingAndGlyphs" textLength="84" x="246.5" y="124.542">API Gateway</text><rect fill="#E0F2FE" height="30.2969" style="stroke: #374151; stroke-width: 1.5;" width="98" x="239.5" y="443.0391"/><text fill="#000000" font-family="Segoe UI" font-size="14" lengthAdjust="spacingAndGlyphs" textLength="84" x="246.5" y="463.0342">API Gateway</text></a><a href="/microservices/svc-partner-integrations/" target="_top" title="/microservices/svc-partner-integrations/" xlink:actuate="onRequest" xlink:href="/microservices/svc-partner-integrations/" xlink:show="new" xlink:title="/microservices/svc-partner-integrations/" xlink:type="simple"><rect fill="#F3E8FF" height="30.2969" style="stroke: #374151; stroke-width: 1.5;" width="179" x="347.5" y="104.5469"/><text fill="#000000" font-family="Segoe UI" font-size="14" lengthAdjust="spacingAndGlyphs" textLength="165" x="354.5" y="124.542">svc-partner-integrations</text><rect fill="#F3E8FF" height="30.2969" style="stroke: #374151; stroke-width: 1.5;" width="179" x="347.5" y="443.0391"/><text fill="#000000" font-family="Segoe UI" font-size="14" lengthAdjust="spacingAndGlyphs" textLength="165" x="354.5" y="463.0342">svc-partner-integrations</text></a><a href="/microservices/svc-partner-integrations/#data-store" target="_top" title="/microservices/svc-partner-integrations/#data-store" xlink:actuate="onRequest" xlink:href="/microservices/svc-partner-integrations/#data-store" xlink:show="new" xlink:title="/microservices/svc-partner-integrations/#data-store" xlink:type="simple"><text fill="#000000" font-family="Segoe UI" font-size="14" lengthAdjust="spacingAndGlyphs" textLength="81" x="576.5" y="132.542">PostgreSQL</text><path d="M602,83.5469 C602,73.5469 620,73.5469 620,73.5469 C620,73.5469 638,73.5469 638,83.5469 L638,109.5469 C638,119.5469 620,119.5469 620,119.5469 C620,119.5469 602,119.5469 602,109.5469 L602,83.5469 " fill="#FEF9C3" style="stroke: #000000; stroke-width: 1.5;"/><path d="M602,83.5469 C602,93.5469 620,93.5469 620,93.5469 C620,93.5469 638,93.5469 638,83.5469 " fill="none" style="stroke: #000000; stroke-width: 1.5;"/><text fill="#000000" font-family="Segoe UI" font-size="14" lengthAdjust="spacingAndGlyphs" textLength="81" x="576.5" y="456.0342">PostgreSQL</text><path d="M602,469.3359 C602,459.3359 620,459.3359 620,459.3359 C620,459.3359 638,459.3359 638,469.3359 L638,495.3359 C638,505.3359 620,505.3359 620,505.3359 C620,505.3359 602,505.3359 602,495.3359 L602,469.3359 " fill="#FEF9C3" style="stroke: #000000; stroke-width: 1.5;"/><path d="M602,469.3359 C602,479.3359 620,479.3359 620,479.3359 C620,479.3359 638,479.3359 638,469.3359 " fill="none" style="stroke: #000000; stroke-width: 1.5;"/></a><rect fill="#2563EB" height="223.9297" style="stroke: #6B7280; stroke-width: 1.0;" width="10" x="283.5" y="202.1094"/><rect fill="#2563EB" height="165.6641" style="stroke: #6B7280; stroke-width: 1.0;" width="10" x="432" y="231.2422"/><rect fill="#FEF9C3" height="29.1328" style="stroke: #6B7280; stroke-width: 1.0;" width="10" x="615" y="303.5078"/><path d="M366,150.8438 L366,175.8438 L507,175.8438 L507,160.8438 L497,150.8438 L366,150.8438 " fill="#FBFB77" style="stroke: #A80036; stroke-width: 1.0;"/><path d="M497,150.8438 L497,160.8438 L507,160.8438 L497,150.8438 " fill="#FBFB77" style="stroke: #A80036; stroke-width: 1.0;"/><a href="/services/api/svc-partner-integrations.html#/Partner%20Bookings/getPartnerBooking" target="_top" title="/services/api/svc-partner-integrations.html#/Partner%20Bookings/getPartnerBooking" xlink:actuate="onRequest" xlink:href="/services/api/svc-partner-integrations.html#/Partner%20Bookings/getPartnerBooking" xlink:show="new" xlink:title="/services/api/svc-partner-integrations.html#/Partner%20Bookings/getPartnerBooking" xlink:type="simple"><text fill="#0000FF" font-family="Segoe UI" font-size="13" lengthAdjust="spacingAndGlyphs" text-decoration="underline" textLength="120" x="372" y="167.9106">View in Swagger UI</text></a><polygon fill="#2563EB" points="271.5,198.1094,281.5,202.1094,271.5,206.1094,275.5,202.1094" style="stroke: #2563EB; stroke-width: 1.0;"/><line style="stroke: #2563EB; stroke-width: 1.0;" x1="34.5" x2="277.5" y1="202.1094" y2="202.1094"/><text fill="#000000" font-family="Segoe UI" font-size="13" lengthAdjust="spacingAndGlyphs" textLength="230" x="41.5" y="197.0435">GET /partner-bookings/{booking_id}</text><polygon fill="#2563EB" points="420,227.2422,430,231.2422,420,235.2422,424,231.2422" style="stroke: #2563EB; stroke-width: 1.0;"/><line style="stroke: #2563EB; stroke-width: 1.0;" x1="293.5" x2="426" y1="231.2422" y2="231.2422"/><text fill="#000000" font-family="Segoe UI" font-size="13" lengthAdjust="spacingAndGlyphs" textLength="87" x="300.5" y="226.1763">route request</text><rect fill="#EEEEEE" height="3" style="stroke: #EEEEEE; stroke-width: 1.0;" width="801" x="3" y="259.8086"/><line style="stroke: #000000; stroke-width: 1.0;" x1="3" x2="804" y1="259.8086" y2="259.8086"/><line style="stroke: #000000; stroke-width: 1.0;" x1="3" x2="804" y1="262.8086" y2="262.8086"/><rect fill="#EEEEEE" height="23.1328" style="stroke: #000000; stroke-width: 2.0;" width="90" x="358.5" y="249.2422"/><text fill="#000000" font-family="Segoe UI" font-size="13" font-weight="bold" lengthAdjust="spacingAndGlyphs" textLength="71" x="364.5" y="265.3091">Database</text><polygon fill="#2563EB" points="603,299.5078,613,303.5078,603,307.5078,607,303.5078" style="stroke: #2563EB; stroke-width: 1.0;"/><line style="stroke: #2563EB; stroke-width: 1.0;" x1="442" x2="609" y1="303.5078" y2="303.5078"/><text fill="#000000" font-family="Segoe UI" font-size="13" lengthAdjust="spacingAndGlyphs" textLength="154" x="449" y="298.4419">SELECT ... WHERE id = ?</text><polygon fill="#2563EB" points="453,328.6406,443,332.6406,453,336.6406,449,332.6406" style="stroke: #2563EB; stroke-width: 1.0;"/><line style="stroke: #2563EB; stroke-width: 1.0; stroke-dasharray: 2.0,2.0;" x1="447" x2="619" y1="332.6406" y2="332.6406"/><text fill="#000000" font-family="Segoe UI" font-size="13" lengthAdjust="spacingAndGlyphs" textLength="25" x="459" y="327.5747">Row</text><path d="M625,345.6406 L625,370.6406 L799,370.6406 L799,355.6406 L789,345.6406 L625,345.6406 " fill="#FBFB77" style="stroke: #A80036; stroke-width: 1.0;"/><path d="M789,345.6406 L789,355.6406 L799,355.6406 L789,345.6406 " fill="#FBFB77" style="stroke: #A80036; stroke-width: 1.0;"/><text fill="#000000" font-family="Segoe UI" font-size="13" lengthAdjust="spacingAndGlyphs" textLength="153" x="631" y="362.7075">Returns 404 if not found</text><polygon fill="#2563EB" points="304.5,392.9063,294.5,396.9063,304.5,400.9063,300.5,396.9063" style="stroke: #2563EB; stroke-width: 1.0;"/><line style="stroke: #2563EB; stroke-width: 1.0; stroke-dasharray: 2.0,2.0;" x1="298.5" x2="436" y1="396.9063" y2="396.9063"/><text fill="#000000" font-family="Segoe UI" font-size="13" lengthAdjust="spacingAndGlyphs" textLength="46" x="310.5" y="391.8403">200 OK</text><polygon fill="#2563EB" points="45.5,422.0391,35.5,426.0391,45.5,430.0391,41.5,426.0391" style="stroke: #2563EB; stroke-width: 1.0;"/><line style="stroke: #2563EB; stroke-width: 1.0; stroke-dasharray: 2.0,2.0;" x1="39.5" x2="287.5" y1="426.0391" y2="426.0391"/><text fill="#000000" font-family="Segoe UI" font-size="13" lengthAdjust="spacingAndGlyphs" textLength="46" x="51.5" y="420.9731">200 OK</text><a href="/microservices/svc-partner-integrations/#integration-context" target="_top" title="/microservices/svc-partner-integrations/#integration-context" xlink:actuate="onRequest" xlink:href="/microservices/svc-partner-integrations/#integration-context" xlink:show="new" xlink:title="/microservices/svc-partner-integrations/#integration-context" xlink:type="simple"><text fill="#0000FF" font-family="Segoe UI" font-size="10" lengthAdjust="spacingAndGlyphs" text-decoration="underline" textLength="227" x="577" y="12.2822">⬆ svc-partner-integrations Integration Context</text></a><!--MD5=[aadf8f287b33244e3a9841f803f349b8]
@startuml svc-partner-integrations- -get-partner-bookings-booking_id

skinparam backgroundColor #FEFEFE
skinparam shadowing false
skinparam defaultFontName "Segoe UI"
skinparam sequence {
    ArrowColor #2563eb
    ParticipantBorderColor #374151
    ParticipantBackgroundColor #F9FAFB
    LifeLineBorderColor #6B7280
    BoxBorderColor #94A3B8
    BoxBackgroundColor #F8FAFC
    NoteBorderColor #64748B
    NoteBackgroundColor #F8FAFC
}

header [[/microservices/svc-partner-integrations/#integration-context ⬆ svc-partner-integrations Integration Context]]

title GET /partner-bookings/{booking_id}\nGet partner booking details

participant "Client" as Client [[/applications/]]
participant "API Gateway" as GW [[/actors/#api-gateway]] #E0F2FE
participant "svc-partner-integrations" as Svc [[/microservices/svc-partner-integrations/]] #F3E8FF
database "PostgreSQL" as DB [[/microservices/svc-partner-integrations/#data-store]] #FEF9C3

note over Svc
  [[/services/api/svc-partner-integrations.html#/Partner%20Bookings/getPartnerBooking View in Swagger UI]]
end note

Client -> GW : GET /partner-bookings/{booking_id}
activate GW #2563eb
GW -> Svc : route request
activate Svc #2563eb

== Database ==

Svc -> DB : SELECT ... WHERE id = ?
activate DB #FEF9C3
DB - -> Svc : Row
deactivate DB
note right of DB : Returns 404 if not found

Svc - -> GW : 200 OK
deactivate Svc
GW - -> Client : 200 OK
deactivate GW

@enduml

PlantUML version 1.2020.02(Sun Mar 01 10:22:07 UTC 2020)
(GPL source distribution)
Java Runtime: OpenJDK Runtime Environment
JVM: OpenJDK 64-Bit Server VM
Java Version: 17.0.18+8
Operating System: Linux
Default Encoding: UTF-8
Language: en
Country: null
--></g></svg>