<svg xmlns="http://www.w3.org/2000/svg" xmlns:xlink="http://www.w3.org/1999/xlink" contentStyleType="text/css" data-diagram-type="SEQUENCE" height="509px" preserveAspectRatio="none" style="width:486px;height:509px;background:#FEFEFE;" version="1.1" viewBox="0 0 486 509" width="486px" zoomAndPan="magnify"><title>POST /weather/alerts</title><defs/><g><rect fill="#FEFEFE" height="509" style="stroke:none;stroke-width:1;" width="486" x="0" y="0"/><text fill="#000000" font-family="Segoe UI" font-size="14" font-weight="bold" lengthAdjust="spacing" textLength="157.1035" x="160.5325" y="28.5352">POST /weather/alerts</text><text fill="#000000" font-family="Segoe UI" font-size="14" font-weight="bold" lengthAdjust="spacing" textLength="230.6514" x="123.7585" y="45.0234">Create a weather alert (internal)</text><g><title>API Gateway</title><rect fill="#059669" height="225.1738" style="stroke:#A23B72;stroke-width:1;" width="10" x="185.9258" y="188.0859"/></g><g><title>svc-weather</title><rect fill="#059669" height="166.5527" style="stroke:#A23B72;stroke-width:1;" width="10" x="300.0605" y="217.3965"/></g><g><title>Valkey . PG</title><rect fill="#FCE4EC" height="29.3105" style="stroke:#A23B72;stroke-width:1;" width="10" x="425.1323" y="325.3281"/></g><g><title>Client</title><rect fill="#000000" fill-opacity="0.00000" height="309.7949" width="8" x="27.7524" y="121.4648"/><line style="stroke:#A23B72;stroke-width:0.5;stroke-dasharray:5,5;" x1="31" x2="31" y1="121.4648" y2="431.2598"/></g><g><title>API Gateway</title><rect fill="#000000" fill-opacity="0.00000" height="309.7949" width="8" x="186.9258" y="121.4648"/><line style="stroke:#A23B72;stroke-width:0.5;stroke-dasharray:5,5;" x1="190.6367" x2="190.6367" y1="121.4648" y2="431.2598"/></g><g><title>svc-weather</title><rect fill="#000000" fill-opacity="0.00000" height="309.7949" width="8" x="301.0605" y="121.4648"/><line style="stroke:#A23B72;stroke-width:0.5;stroke-dasharray:5,5;" x1="304.3477" x2="304.3477" y1="121.4648" y2="431.2598"/></g><g><title>Valkey . PG</title><rect fill="#000000" fill-opacity="0.00000" height="309.7949" width="8" x="426.1323" y="121.4648"/><line style="stroke:#A23B72;stroke-width:0.5;stroke-dasharray:5,5;" x1="430.0962" x2="430.0962" y1="121.4648" y2="431.2598"/></g><g class="participant participant-head" data-participant="Client"><rect fill="#E8F4F8" height="30.4883" rx="2.5" ry="2.5" style="stroke:#2E86AB;stroke-width:0.5;" width="53.5049" x="5" y="89.9766"/><text fill="#000000" font-family="Segoe UI" font-size="14" lengthAdjust="spacing" textLength="39.5049" x="12" y="110.5117">Client</text></g><g class="participant participant-tail" data-participant="Client"><rect fill="#E8F4F8" height="30.4883" rx="2.5" ry="2.5" style="stroke:#2E86AB;stroke-width:0.5;" width="53.5049" x="5" y="430.2598"/><text fill="#000000" font-family="Segoe UI" font-size="14" lengthAdjust="spacing" textLength="39.5049" x="12" y="450.7949">Client</text></g><g class="participant participant-head" data-participant="GW"><rect fill="#DBEAFE" height="30.4883" rx="2.5" ry="2.5" style="stroke:#2E86AB;stroke-width:0.5;" width="96.5781" x="142.6367" y="89.9766"/><text fill="#000000" font-family="Segoe UI" font-size="14" lengthAdjust="spacing" textLength="82.5781" x="149.6367" y="110.5117">API Gateway</text></g><g class="participant participant-tail" data-participant="GW"><rect fill="#DBEAFE" height="30.4883" rx="2.5" ry="2.5" style="stroke:#2E86AB;stroke-width:0.5;" width="96.5781" x="142.6367" y="430.2598"/><text fill="#000000" font-family="Segoe UI" font-size="14" lengthAdjust="spacing" textLength="82.5781" x="149.6367" y="450.7949">API Gateway</text></g><g class="participant participant-head" data-participant="Svc"><a href="/microservices/svc-weather/" target="_top" title="/microservices/svc-weather/" xlink:actuate="onRequest" xlink:href="/microservices/svc-weather/" xlink:show="new" xlink:title="/microservices/svc-weather/" xlink:type="simple"><rect fill="#E8F4F8" height="30.4883" rx="2.5" ry="2.5" style="stroke:#2E86AB;stroke-width:0.5;" width="97.4258" x="256.3477" y="89.9766"/><text fill="#000000" font-family="Segoe UI" font-size="14" lengthAdjust="spacing" textLength="83.4258" x="263.3477" y="110.5117">svc-weather</text></a></g><g class="participant participant-tail" data-participant="Svc"><a href="/microservices/svc-weather/" target="_top" title="/microservices/svc-weather/" xlink:actuate="onRequest" xlink:href="/microservices/svc-weather/" xlink:show="new" xlink:title="/microservices/svc-weather/" xlink:type="simple"><rect fill="#E8F4F8" height="30.4883" rx="2.5" ry="2.5" style="stroke:#2E86AB;stroke-width:0.5;" width="97.4258" x="256.3477" y="430.2598"/><text fill="#000000" font-family="Segoe UI" font-size="14" lengthAdjust="spacing" textLength="83.4258" x="263.3477" y="450.7949">svc-weather</text></a></g><g class="participant participant-head" data-participant="DB"><text fill="#000000" font-family="Segoe UI" font-size="14" lengthAdjust="spacing" textLength="82.0723" x="386.0962" y="118.5117">Valkey + PG</text><path d="M412.1323,68.9766 C412.1323,58.9766 430.1323,58.9766 430.1323,58.9766 C430.1323,58.9766 448.1323,58.9766 448.1323,68.9766 L448.1323,94.9766 C448.1323,104.9766 430.1323,104.9766 430.1323,104.9766 C430.1323,104.9766 412.1323,104.9766 412.1323,94.9766 L412.1323,68.9766" fill="#FCE4EC" style="stroke:#181818;stroke-width:0.5;"/><path d="M412.1323,68.9766 C412.1323,78.9766 430.1323,78.9766 430.1323,78.9766 C430.1323,78.9766 448.1323,78.9766 448.1323,68.9766" fill="none" style="stroke:#181818;stroke-width:0.5;"/></g><g class="participant participant-tail" data-participant="DB"><text fill="#000000" font-family="Segoe UI" font-size="14" lengthAdjust="spacing" textLength="82.0723" x="386.0962" y="443.7949">Valkey + PG</text><path d="M412.1323,456.748 C412.1323,446.748 430.1323,446.748 430.1323,446.748 C430.1323,446.748 448.1323,446.748 448.1323,456.748 L448.1323,482.748 C448.1323,492.748 430.1323,492.748 430.1323,492.748 C430.1323,492.748 412.1323,492.748 412.1323,482.748 L412.1323,456.748" fill="#FCE4EC" style="stroke:#181818;stroke-width:0.5;"/><path d="M412.1323,456.748 C412.1323,466.748 430.1323,466.748 430.1323,466.748 C430.1323,466.748 448.1323,466.748 448.1323,456.748" fill="none" style="stroke:#181818;stroke-width:0.5;"/></g><g><title>API Gateway</title><rect fill="#059669" height="225.1738" style="stroke:#A23B72;stroke-width:1;" width="10" x="185.9258" y="188.0859"/></g><g><title>svc-weather</title><rect fill="#059669" height="166.5527" style="stroke:#A23B72;stroke-width:1;" width="10" x="300.0605" y="217.3965"/></g><g><title>Valkey . PG</title><rect fill="#FCE4EC" height="29.3105" style="stroke:#A23B72;stroke-width:1;" width="10" x="425.1323" y="325.3281"/></g><path d="M234,136.4648 L234,161.4648 L374,161.4648 L374,146.4648 L364,136.4648 L234,136.4648" fill="#FEFFDD" style="stroke:#181818;stroke-width:0.5;"/><path d="M364,136.4648 L364,146.4648 L374,146.4648 L364,136.4648" fill="#FEFFDD" style="stroke:#181818;stroke-width:0.5;"/><a href="/services/api/svc-weather.html#/Alerts/createWeatherAlert" target="_top" title="/services/api/svc-weather.html#/Alerts/createWeatherAlert" xlink:actuate="onRequest" xlink:href="/services/api/svc-weather.html#/Alerts/createWeatherAlert" xlink:show="new" xlink:title="/services/api/svc-weather.html#/Alerts/createWeatherAlert" xlink:type="simple"><text fill="#0000FF" font-family="Segoe UI" font-size="13" lengthAdjust="spacing" text-decoration="underline" textLength="119.4058" x="240" y="154.0332">View in Swagger UI</text></a><g class="message" data-participant-1="Client" data-participant-2="GW"><polygon fill="#059669" points="173.9258,184.0859,183.9258,188.0859,173.9258,192.0859,177.9258,188.0859" style="stroke:#059669;stroke-width:1;"/><line style="stroke:#059669;stroke-width:1;" x1="31.7524" x2="179.9258" y1="188.0859" y2="188.0859"/><text fill="#000000" font-family="Segoe UI" font-size="13" lengthAdjust="spacing" textLength="135.1733" x="38.7524" y="183.3438">POST /weather/alerts</text></g><g class="message" data-participant-1="GW" data-participant-2="Svc"><polygon fill="#059669" points="288.0605,213.3965,298.0605,217.3965,288.0605,221.3965,292.0605,217.3965" style="stroke:#059669;stroke-width:1;"/><line style="stroke:#059669;stroke-width:1;" x1="195.9258" x2="294.0605" y1="217.3965" y2="217.3965"/><text fill="#000000" font-family="Segoe UI" font-size="13" lengthAdjust="spacing" textLength="85.1348" x="202.9258" y="212.6543">route request</text></g><path d="M315,230.3965 L315,255.3965 L473,255.3965 L473,240.3965 L463,230.3965 L315,230.3965" fill="#FEFFDD" style="stroke:#181818;stroke-width:0.5;"/><path d="M463,230.3965 L463,240.3965 L473,240.3965 L463,230.3965" fill="#FEFFDD" style="stroke:#181818;stroke-width:0.5;"/><text fill="#000000" font-family="Segoe UI" font-size="13" lengthAdjust="spacing" textLength="137.5728" x="321" y="247.9648">Validate request body</text><rect fill="#EEEEEE" height="3" style="stroke:#EEEEEE;stroke-width:1;" width="479.1685" x="0" y="281.3623"/><line style="stroke:#000000;stroke-width:1;" x1="0" x2="479.1685" y1="281.3623" y2="281.3623"/><line style="stroke:#000000;stroke-width:1;" x1="0" x2="479.1685" y1="284.3623" y2="284.3623"/><rect fill="#EEEEEE" height="23.3105" style="stroke:#000000;stroke-width:2;" width="80.3711" x="199.3987" y="270.707"/><text fill="#000000" font-family="Segoe UI" font-size="13" font-weight="bold" lengthAdjust="spacing" textLength="62.0864" x="205.3987" y="287.2754">Database</text><g class="message" data-participant-1="Svc" data-participant-2="DB"><polygon fill="#059669" points="413.1323,321.3281,423.1323,325.3281,413.1323,329.3281,417.1323,325.3281" style="stroke:#059669;stroke-width:1;"/><line style="stroke:#059669;stroke-width:1;" x1="310.0605" x2="419.1323" y1="325.3281" y2="325.3281"/><text fill="#000000" font-family="Segoe UI" font-size="13" lengthAdjust="spacing" textLength="96.0718" x="317.0605" y="320.5859">INSERT INTO ...</text></g><g class="message" data-participant-1="DB" data-participant-2="Svc"><polygon fill="#059669" points="321.0605,350.6387,311.0605,354.6387,321.0605,358.6387,317.0605,354.6387" style="stroke:#059669;stroke-width:1;"/><line style="stroke:#059669;stroke-width:1;stroke-dasharray:2,2;" x1="315.0605" x2="429.1323" y1="354.6387" y2="354.6387"/><text fill="#000000" font-family="Segoe UI" font-size="13" lengthAdjust="spacing" textLength="76.4575" x="327.0605" y="349.8965">Created row</text></g><g class="message" data-participant-1="Svc" data-participant-2="GW"><polygon fill="#059669" points="206.9258,379.9492,196.9258,383.9492,206.9258,387.9492,202.9258,383.9492" style="stroke:#059669;stroke-width:1;"/><line style="stroke:#059669;stroke-width:1;stroke-dasharray:2,2;" x1="200.9258" x2="304.0605" y1="383.9492" y2="383.9492"/><text fill="#000000" font-family="Segoe UI" font-size="13" lengthAdjust="spacing" textLength="77.7969" x="212.9258" y="379.207">201 Created</text></g><g class="message" data-participant-1="GW" data-participant-2="Client"><polygon fill="#059669" points="42.7524,409.2598,32.7524,413.2598,42.7524,417.2598,38.7524,413.2598" style="stroke:#059669;stroke-width:1;"/><line style="stroke:#059669;stroke-width:1;stroke-dasharray:2,2;" x1="36.7524" x2="189.9258" y1="413.2598" y2="413.2598"/><text fill="#000000" font-family="Segoe UI" font-size="13" lengthAdjust="spacing" textLength="77.7969" x="48.7524" y="408.5176">201 Created</text></g><!--SRC=[TP9FZzem4CNl_XGZkBIg8FpP0ej4fGGIXBHYKM6NmvQ3IOPW4MpgcAIewdVl90G8tIqvOFczUUFvsV5Eo0FNV0zhxkz2hOuo6Af8QQXwRlQn-Eg8jpnGgP0XR7WKOqa9SCEFaV6KD5E-HwZCCLG8BvDAkHn_7b7w2ByPqC_MMgL5gyRNnqxdCT-USMs4BmvS6aVf07LXQRczZksyi_nxQBVdFNYztFOaDlWa9Dx5sAssqstbkgD-tKbUi-SrcbVf7GxF8psNfyhSf_hTxhfTqZv0sNQxx0zZHfW8OVOyNu2L8ZTRr1QFK9luXnngsa3WK0YG2_19I8DQykWpOuVRw50PHWAbgG2FuRoyb-tP1COKcF9JxXaleJfoN9lkzCuN9twjw9ZxveaFRs_MNlXQnQWJuMDibKpMQdNb7733rpoc6t_bqGvFy0LcupnbvD3OG_V17J8cYGceX2QYRA94wTTWVX3byFhMxAEgPUT8B3ydiZnB-Hwy2an1I9YdF0mfyMMoMZ6K0MHD63k3WDgtRDp-Xw0Pzur8Cj8PaUBfqP9gij7xG3T7eiwUQsnkxaoysCyZQH5k3QXDKKS8HC1lfR1MmOcnmG165qo30MEPcNeHe3vCfdFt-uB-5izGhzTlpKhuQ5cxdktyHW8wOye2BDcBtClWhKRpuYtxClxPg6GhIFtNEbwolm00]--></g></svg>