<svg xmlns="http://www.w3.org/2000/svg" xmlns:xlink="http://www.w3.org/1999/xlink" contentStyleType="text/css" data-diagram-type="SEQUENCE" height="474px" preserveAspectRatio="none" style="width:504px;height:474px;background:#FEFEFE;" version="1.1" viewBox="0 0 504 474" width="504px" zoomAndPan="magnify"><title>GET /locations</title><defs/><g><rect fill="#FEFEFE" height="474" style="stroke:none;stroke-width:1;" width="504" x="0" y="0"/><text fill="#000000" font-family="Segoe UI" font-size="14" font-weight="bold" lengthAdjust="spacing" textLength="106.4902" x="195.2236" y="28.5352">GET /locations</text><text fill="#000000" font-family="Segoe UI" font-size="14" font-weight="bold" lengthAdjust="spacing" textLength="118.3027" x="189.3174" y="45.0234">List all locations</text><g><title>API Gateway</title><rect fill="#2563EB" height="189.8633" style="stroke:#A23B72;stroke-width:1;" width="10" x="143.2251" y="188.0859"/></g><g><title>svc-location-services</title><rect fill="#2563EB" height="131.2422" style="stroke:#A23B72;stroke-width:1;" width="10" x="281.4844" y="217.3965"/></g><g><title>PostGIS</title><rect fill="#FCE4EC" height="29.3105" style="stroke:#A23B72;stroke-width:1;" width="10" x="459.7368" y="290.0176"/></g><g><title>Client</title><rect fill="#000000" fill-opacity="0.00000" height="274.4844" width="8" x="27.7524" y="121.4648"/><line style="stroke:#A23B72;stroke-width:0.5;stroke-dasharray:5,5;" x1="31" x2="31" y1="121.4648" y2="395.9492"/></g><g><title>API Gateway</title><rect fill="#000000" fill-opacity="0.00000" height="274.4844" width="8" x="144.2251" y="121.4648"/><line style="stroke:#A23B72;stroke-width:0.5;stroke-dasharray:5,5;" x1="147.936" x2="147.936" y1="121.4648" y2="395.9492"/></g><g><title>svc-location-services</title><rect fill="#000000" fill-opacity="0.00000" height="274.4844" width="8" x="282.4844" y="121.4648"/><line style="stroke:#A23B72;stroke-width:0.5;stroke-dasharray:5,5;" x1="285.5142" x2="285.5142" y1="121.4648" y2="395.9492"/></g><g><title>PostGIS</title><rect fill="#000000" fill-opacity="0.00000" height="274.4844" width="8" x="460.7368" y="121.4648"/><line style="stroke:#A23B72;stroke-width:0.5;stroke-dasharray:5,5;" x1="464.5361" x2="464.5361" y1="121.4648" y2="395.9492"/></g><g class="participant participant-head" data-participant="Client"><rect fill="#E8F4F8" height="30.4883" rx="2.5" ry="2.5" style="stroke:#2E86AB;stroke-width:0.5;" width="53.5049" x="5" y="89.9766"/><text fill="#000000" font-family="Segoe UI" font-size="14" lengthAdjust="spacing" textLength="39.5049" x="12" y="110.5117">Client</text></g><g class="participant participant-tail" data-participant="Client"><rect fill="#E8F4F8" height="30.4883" rx="2.5" ry="2.5" style="stroke:#2E86AB;stroke-width:0.5;" width="53.5049" x="5" y="394.9492"/><text fill="#000000" font-family="Segoe UI" font-size="14" lengthAdjust="spacing" textLength="39.5049" x="12" y="415.4844">Client</text></g><g class="participant participant-head" data-participant="GW"><rect fill="#DBEAFE" height="30.4883" rx="2.5" ry="2.5" style="stroke:#2E86AB;stroke-width:0.5;" width="96.5781" x="99.936" y="89.9766"/><text fill="#000000" font-family="Segoe UI" font-size="14" lengthAdjust="spacing" textLength="82.5781" x="106.936" y="110.5117">API Gateway</text></g><g class="participant participant-tail" data-participant="GW"><rect fill="#DBEAFE" height="30.4883" rx="2.5" ry="2.5" style="stroke:#2E86AB;stroke-width:0.5;" width="96.5781" x="99.936" y="394.9492"/><text fill="#000000" font-family="Segoe UI" font-size="14" lengthAdjust="spacing" textLength="82.5781" x="106.936" y="415.4844">API Gateway</text></g><g class="participant participant-head" data-participant="Svc"><a href="/microservices/svc-location-services/" target="_top" title="/microservices/svc-location-services/" xlink:actuate="onRequest" xlink:href="/microservices/svc-location-services/" xlink:show="new" xlink:title="/microservices/svc-location-services/" xlink:type="simple"><rect fill="#E8F4F8" height="30.4883" rx="2.5" ry="2.5" style="stroke:#2E86AB;stroke-width:0.5;" width="159.9404" x="206.5142" y="89.9766"/><text fill="#000000" font-family="Segoe UI" font-size="14" lengthAdjust="spacing" textLength="145.9404" x="213.5142" y="110.5117">svc-location-services</text></a></g><g class="participant participant-tail" data-participant="Svc"><a href="/microservices/svc-location-services/" target="_top" title="/microservices/svc-location-services/" xlink:actuate="onRequest" xlink:href="/microservices/svc-location-services/" xlink:show="new" xlink:title="/microservices/svc-location-services/" xlink:type="simple"><rect fill="#E8F4F8" height="30.4883" rx="2.5" ry="2.5" style="stroke:#2E86AB;stroke-width:0.5;" width="159.9404" x="206.5142" y="394.9492"/><text fill="#000000" font-family="Segoe UI" font-size="14" lengthAdjust="spacing" textLength="145.9404" x="213.5142" y="415.4844">svc-location-services</text></a></g><g class="participant participant-head" data-participant="DB"><text fill="#000000" font-family="Segoe UI" font-size="14" lengthAdjust="spacing" textLength="50.4014" x="436.5361" y="118.5117">PostGIS</text><path d="M446.7368,68.9766 C446.7368,58.9766 464.7368,58.9766 464.7368,58.9766 C464.7368,58.9766 482.7368,58.9766 482.7368,68.9766 L482.7368,94.9766 C482.7368,104.9766 464.7368,104.9766 464.7368,104.9766 C464.7368,104.9766 446.7368,104.9766 446.7368,94.9766 L446.7368,68.9766" fill="#FCE4EC" style="stroke:#181818;stroke-width:0.5;"/><path d="M446.7368,68.9766 C446.7368,78.9766 464.7368,78.9766 464.7368,78.9766 C464.7368,78.9766 482.7368,78.9766 482.7368,68.9766" fill="none" style="stroke:#181818;stroke-width:0.5;"/></g><g class="participant participant-tail" data-participant="DB"><text fill="#000000" font-family="Segoe UI" font-size="14" lengthAdjust="spacing" textLength="50.4014" x="436.5361" y="408.4844">PostGIS</text><path d="M446.7368,421.4375 C446.7368,411.4375 464.7368,411.4375 464.7368,411.4375 C464.7368,411.4375 482.7368,411.4375 482.7368,421.4375 L482.7368,447.4375 C482.7368,457.4375 464.7368,457.4375 464.7368,457.4375 C464.7368,457.4375 446.7368,457.4375 446.7368,447.4375 L446.7368,421.4375" fill="#FCE4EC" style="stroke:#181818;stroke-width:0.5;"/><path d="M446.7368,421.4375 C446.7368,431.4375 464.7368,431.4375 464.7368,431.4375 C464.7368,431.4375 482.7368,431.4375 482.7368,421.4375" fill="none" style="stroke:#181818;stroke-width:0.5;"/></g><g><title>API Gateway</title><rect fill="#2563EB" height="189.8633" style="stroke:#A23B72;stroke-width:1;" width="10" x="143.2251" y="188.0859"/></g><g><title>svc-location-services</title><rect fill="#2563EB" height="131.2422" style="stroke:#A23B72;stroke-width:1;" width="10" x="281.4844" y="217.3965"/></g><g><title>PostGIS</title><rect fill="#FCE4EC" height="29.3105" style="stroke:#A23B72;stroke-width:1;" width="10" x="459.7368" y="290.0176"/></g><path d="M216,136.4648 L216,161.4648 L356,161.4648 L356,146.4648 L346,136.4648 L216,136.4648" fill="#FEFFDD" style="stroke:#181818;stroke-width:0.5;"/><path d="M346,136.4648 L346,146.4648 L356,146.4648 L346,136.4648" fill="#FEFFDD" style="stroke:#181818;stroke-width:0.5;"/><a href="/services/api/svc-location-services.html" target="_top" title="/services/api/svc-location-services.html" xlink:actuate="onRequest" xlink:href="/services/api/svc-location-services.html" xlink:show="new" xlink:title="/services/api/svc-location-services.html" xlink:type="simple"><text fill="#0000FF" font-family="Segoe UI" font-size="13" lengthAdjust="spacing" text-decoration="underline" textLength="119.4058" x="222" y="154.0332">View in Swagger UI</text></a><g class="message" data-participant-1="Client" data-participant-2="GW"><polygon fill="#2563EB" points="131.2251,184.0859,141.2251,188.0859,131.2251,192.0859,135.2251,188.0859" style="stroke:#2563EB;stroke-width:1;"/><line style="stroke:#2563EB;stroke-width:1;" x1="31.7524" x2="137.2251" y1="188.0859" y2="188.0859"/><text fill="#000000" font-family="Segoe UI" font-size="13" lengthAdjust="spacing" textLength="92.4727" x="38.7524" y="183.3438">GET /locations</text></g><g class="message" data-participant-1="GW" data-participant-2="Svc"><polygon fill="#2563EB" points="269.4844,213.3965,279.4844,217.3965,269.4844,221.3965,273.4844,217.3965" style="stroke:#2563EB;stroke-width:1;"/><line style="stroke:#2563EB;stroke-width:1;" x1="153.2251" x2="275.4844" y1="217.3965" y2="217.3965"/><a href="/microservices/svc-location-services/#get-locations-list-all-locations" target="_top" title="/microservices/svc-location-services/#get-locations-list-all-locations" xlink:actuate="onRequest" xlink:href="/microservices/svc-location-services/#get-locations-list-all-locations" xlink:show="new" xlink:title="/microservices/svc-location-services/#get-locations-list-all-locations" xlink:type="simple"><text fill="#0000FF" font-family="Segoe UI" font-size="13" lengthAdjust="spacing" text-decoration="underline" textLength="85.1348" x="160.2251" y="212.6543">route request</text></a></g><rect fill="#EEEEEE" height="3" style="stroke:#EEEEEE;stroke-width:1;" width="497.9375" x="0" y="246.0518"/><line style="stroke:#000000;stroke-width:1;" x1="0" x2="497.9375" y1="246.0518" y2="246.0518"/><line style="stroke:#000000;stroke-width:1;" x1="0" x2="497.9375" y1="249.0518" y2="249.0518"/><rect fill="#EEEEEE" height="23.3105" style="stroke:#000000;stroke-width:2;" width="80.3711" x="208.7832" y="235.3965"/><text fill="#000000" font-family="Segoe UI" font-size="13" font-weight="bold" lengthAdjust="spacing" textLength="62.0864" x="214.7832" y="251.9648">Database</text><g class="message" data-participant-1="Svc" data-participant-2="DB"><polygon fill="#2563EB" points="447.7368,286.0176,457.7368,290.0176,447.7368,294.0176,451.7368,290.0176" style="stroke:#2563EB;stroke-width:1;"/><line style="stroke:#2563EB;stroke-width:1;" x1="291.4844" x2="453.7368" y1="290.0176" y2="290.0176"/><text fill="#000000" font-family="Segoe UI" font-size="13" lengthAdjust="spacing" textLength="149.2524" x="298.4844" y="285.2754">SELECT ... WHERE filters</text></g><g class="message" data-participant-1="DB" data-participant-2="Svc"><polygon fill="#2563EB" points="302.4844,315.3281,292.4844,319.3281,302.4844,323.3281,298.4844,319.3281" style="stroke:#2563EB;stroke-width:1;"/><line style="stroke:#2563EB;stroke-width:1;stroke-dasharray:2,2;" x1="296.4844" x2="463.7368" y1="319.3281" y2="319.3281"/><text fill="#000000" font-family="Segoe UI" font-size="13" lengthAdjust="spacing" textLength="93.209" x="308.4844" y="314.5859">Page of results</text></g><g class="message" data-participant-1="Svc" data-participant-2="GW"><polygon fill="#2563EB" points="164.2251,344.6387,154.2251,348.6387,164.2251,352.6387,160.2251,348.6387" style="stroke:#2563EB;stroke-width:1;"/><line style="stroke:#2563EB;stroke-width:1;stroke-dasharray:2,2;" x1="158.2251" x2="285.4844" y1="348.6387" y2="348.6387"/><text fill="#000000" font-family="Segoe UI" font-size="13" lengthAdjust="spacing" textLength="47.3599" x="170.2251" y="343.8965">200 OK</text></g><g class="message" data-participant-1="GW" data-participant-2="Client"><polygon fill="#2563EB" points="42.7524,373.9492,32.7524,377.9492,42.7524,381.9492,38.7524,377.9492" style="stroke:#2563EB;stroke-width:1;"/><line style="stroke:#2563EB;stroke-width:1;stroke-dasharray:2,2;" x1="36.7524" x2="147.2251" y1="377.9492" y2="377.9492"/><text fill="#000000" font-family="Segoe UI" font-size="13" lengthAdjust="spacing" textLength="47.3599" x="48.7524" y="373.207">200 OK</text></g><!--SRC=[ZPD1R-8m48Nl_XKZE0SeT0j2OYK23eiMTL5fbqENWqc6rAgnMTj0Lwlzxvsa90qjXqqkbj_pFCytYNkMUYUisC9QnC-fDNkTZ8mo5keHprxcIeTx4eavIft2HYY75IN1ZTWh7ndjRyKMeRR0r20yJ6lLu_XxZpf6-Ck0dg6rvdYAQd-vwU0wtvuBwsKiTqBxqDW4RM7XlPjX-CdoyTAy5rr7lTmsankSIOrdPORjJjXjvtfeNiwawAeNjQvAwHEEA28zbs-DFwyQTxlhJaMxWBB3k-mVOrvwXJ3Xzz1K9XPU6kr-wPbq7eHIKEunjdll4ceZ9L7x6WW7RyjpUJYVmaHuF8e_kMUoXFeuv4CQtvdF7UAWY0WSseECqUKd5eSO7X-RMnbRKmZDY_RcQbLYJeGNQ-5eu7FZ_6Iwo6kDG-funA_vY35DEC0Sq6O918Wooa9Y9oz7D9xyLi5FYKUG6XP7aQPKu66wMZ7K2MGr6NlZ0C7NhDl-1wHCn5uUY4YEulHvqPBSMQVz_-srdg8ljrsWQ4u1pUbz2sZCb6ApRzjvkc0PdEKKoMmmW771QZ1WB1FfBaIg3mi-uwDxQ3GQiFp6xpXifF9eAprKWD8oA9kOYvJWRYZTqT_dM8AL8wUGWa-xrO8VtwkMR20P4dASM5voJPRi5G00]--></g></svg>