<?xml version="1.0" encoding="UTF-8" standalone="no"?><svg xmlns="http://www.w3.org/2000/svg" xmlns:xlink="http://www.w3.org/1999/xlink" contentScriptType="application/ecmascript" contentStyleType="text/css" height="517px" preserveAspectRatio="none" style="width:782px;height:517px;background:#FEFEFE;" version="1.1" viewBox="0 0 782 517" width="782px" zoomAndPan="magnify"><defs/><g><text fill="#000000" font-family="Segoe UI" font-size="18" lengthAdjust="spacingAndGlyphs" textLength="312" x="230.5" y="41.3486">GET /reservations/{reservation_id}</text><text fill="#000000" font-family="Segoe UI" font-size="18" lengthAdjust="spacingAndGlyphs" textLength="202" x="285.5" y="62.3018">Get reservation details</text><rect fill="#2563EB" height="223.9297" style="stroke: #6B7280; stroke-width: 1.0;" width="10" x="275.5" y="202.1094"/><rect fill="#2563EB" height="165.6641" style="stroke: #6B7280; stroke-width: 1.0;" width="10" x="398" y="231.2422"/><rect fill="#FEF9C3" height="29.1328" style="stroke: #6B7280; stroke-width: 1.0;" width="10" x="581" y="303.5078"/><line style="stroke: #6B7280; stroke-width: 1.0; stroke-dasharray: 5.0,5.0;" x1="34" x2="34" y1="135.8438" y2="444.0391"/><line style="stroke: #6B7280; stroke-width: 1.0; stroke-dasharray: 5.0,5.0;" x1="280.5" x2="280.5" y1="135.8438" y2="444.0391"/><line style="stroke: #6B7280; stroke-width: 1.0; stroke-dasharray: 5.0,5.0;" x1="402.5" x2="402.5" y1="135.8438" y2="444.0391"/><line style="stroke: #6B7280; stroke-width: 1.0; stroke-dasharray: 5.0,5.0;" x1="585.5" x2="585.5" y1="135.8438" y2="444.0391"/><a href="/applications/" target="_top" title="/applications/" xlink:actuate="onRequest" xlink:href="/applications/" xlink:show="new" xlink:title="/applications/" xlink:type="simple"><rect fill="#F9FAFB" height="30.2969" style="stroke: #374151; stroke-width: 1.5;" width="53" x="8" y="104.5469"/><text fill="#000000" font-family="Segoe UI" font-size="14" lengthAdjust="spacingAndGlyphs" textLength="39" x="15" y="124.542">Client</text><rect fill="#F9FAFB" height="30.2969" style="stroke: #374151; stroke-width: 1.5;" width="53" x="8" y="443.0391"/><text fill="#000000" font-family="Segoe UI" font-size="14" lengthAdjust="spacingAndGlyphs" textLength="39" x="15" y="463.0342">Client</text></a><a href="/actors/#api-gateway" target="_top" title="/actors/#api-gateway" xlink:actuate="onRequest" xlink:href="/actors/#api-gateway" xlink:show="new" xlink:title="/actors/#api-gateway" xlink:type="simple"><rect fill="#E0F2FE" height="30.2969" style="stroke: #374151; stroke-width: 1.5;" width="98" x="231.5" y="104.5469"/><text fill="#000000" font-family="Segoe UI" font-size="14" lengthAdjust="spacingAndGlyphs" textLength="84" x="238.5" y="124.542">API Gateway</text><rect fill="#E0F2FE" height="30.2969" style="stroke: #374151; stroke-width: 1.5;" width="98" x="231.5" y="443.0391"/><text fill="#000000" font-family="Segoe UI" font-size="14" lengthAdjust="spacingAndGlyphs" textLength="84" x="238.5" y="463.0342">API Gateway</text></a><a href="/microservices/svc-reservations/" target="_top" title="/microservices/svc-reservations/" xlink:actuate="onRequest" xlink:href="/microservices/svc-reservations/" xlink:show="new" xlink:title="/microservices/svc-reservations/" xlink:type="simple"><rect fill="#D1FAE5" height="30.2969" style="stroke: #374151; stroke-width: 1.5;" width="127" x="339.5" y="104.5469"/><text fill="#000000" font-family="Segoe UI" font-size="14" lengthAdjust="spacingAndGlyphs" textLength="113" x="346.5" y="124.542">svc-reservations</text><rect fill="#D1FAE5" height="30.2969" style="stroke: #374151; stroke-width: 1.5;" width="127" x="339.5" y="443.0391"/><text fill="#000000" font-family="Segoe UI" font-size="14" lengthAdjust="spacingAndGlyphs" textLength="113" x="346.5" y="463.0342">svc-reservations</text></a><a href="/microservices/svc-reservations/#data-store" target="_top" title="/microservices/svc-reservations/#data-store" xlink:actuate="onRequest" xlink:href="/microservices/svc-reservations/#data-store" xlink:show="new" xlink:title="/microservices/svc-reservations/#data-store" xlink:type="simple"><text fill="#000000" font-family="Segoe UI" font-size="14" lengthAdjust="spacingAndGlyphs" textLength="81" x="542.5" y="132.542">PostgreSQL</text><path d="M568,83.5469 C568,73.5469 586,73.5469 586,73.5469 C586,73.5469 604,73.5469 604,83.5469 L604,109.5469 C604,119.5469 586,119.5469 586,119.5469 C586,119.5469 568,119.5469 568,109.5469 L568,83.5469 " fill="#FEF9C3" style="stroke: #000000; stroke-width: 1.5;"/><path d="M568,83.5469 C568,93.5469 586,93.5469 586,93.5469 C586,93.5469 604,93.5469 604,83.5469 " fill="none" style="stroke: #000000; stroke-width: 1.5;"/><text fill="#000000" font-family="Segoe UI" font-size="14" lengthAdjust="spacingAndGlyphs" textLength="81" x="542.5" y="456.0342">PostgreSQL</text><path d="M568,469.3359 C568,459.3359 586,459.3359 586,459.3359 C586,459.3359 604,459.3359 604,469.3359 L604,495.3359 C604,505.3359 586,505.3359 586,505.3359 C586,505.3359 568,505.3359 568,495.3359 L568,469.3359 " fill="#FEF9C3" style="stroke: #000000; stroke-width: 1.5;"/><path d="M568,469.3359 C568,479.3359 586,479.3359 586,479.3359 C586,479.3359 604,479.3359 604,469.3359 " fill="none" style="stroke: #000000; stroke-width: 1.5;"/></a><rect fill="#2563EB" height="223.9297" style="stroke: #6B7280; stroke-width: 1.0;" width="10" x="275.5" y="202.1094"/><rect fill="#2563EB" height="165.6641" style="stroke: #6B7280; stroke-width: 1.0;" width="10" x="398" y="231.2422"/><rect fill="#FEF9C3" height="29.1328" style="stroke: #6B7280; stroke-width: 1.0;" width="10" x="581" y="303.5078"/><path d="M332,150.8438 L332,175.8438 L473,175.8438 L473,160.8438 L463,150.8438 L332,150.8438 " fill="#FBFB77" style="stroke: #A80036; stroke-width: 1.0;"/><path d="M463,150.8438 L463,160.8438 L473,160.8438 L463,150.8438 " fill="#FBFB77" style="stroke: #A80036; stroke-width: 1.0;"/><a href="/services/api/svc-reservations.html#/Reservations/getReservation" target="_top" title="/services/api/svc-reservations.html#/Reservations/getReservation" xlink:actuate="onRequest" xlink:href="/services/api/svc-reservations.html#/Reservations/getReservation" xlink:show="new" xlink:title="/services/api/svc-reservations.html#/Reservations/getReservation" xlink:type="simple"><text fill="#0000FF" font-family="Segoe UI" font-size="13" lengthAdjust="spacingAndGlyphs" text-decoration="underline" textLength="120" x="338" y="167.9106">View in Swagger UI</text></a><polygon fill="#2563EB" points="263.5,198.1094,273.5,202.1094,263.5,206.1094,267.5,202.1094" style="stroke: #2563EB; stroke-width: 1.0;"/><line style="stroke: #2563EB; stroke-width: 1.0;" x1="34.5" x2="269.5" y1="202.1094" y2="202.1094"/><text fill="#000000" font-family="Segoe UI" font-size="13" lengthAdjust="spacingAndGlyphs" textLength="222" x="41.5" y="197.0435">GET /reservations/{reservation_id}</text><polygon fill="#2563EB" points="386,227.2422,396,231.2422,386,235.2422,390,231.2422" style="stroke: #2563EB; stroke-width: 1.0;"/><line style="stroke: #2563EB; stroke-width: 1.0;" x1="285.5" x2="392" y1="231.2422" y2="231.2422"/><text fill="#000000" font-family="Segoe UI" font-size="13" lengthAdjust="spacingAndGlyphs" textLength="87" x="292.5" y="226.1763">route request</text><rect fill="#EEEEEE" height="3" style="stroke: #EEEEEE; stroke-width: 1.0;" width="767" x="3" y="259.8086"/><line style="stroke: #000000; stroke-width: 1.0;" x1="3" x2="770" y1="259.8086" y2="259.8086"/><line style="stroke: #000000; stroke-width: 1.0;" x1="3" x2="770" y1="262.8086" y2="262.8086"/><rect fill="#EEEEEE" height="23.1328" style="stroke: #000000; stroke-width: 2.0;" width="90" x="341.5" y="249.2422"/><text fill="#000000" font-family="Segoe UI" font-size="13" font-weight="bold" lengthAdjust="spacingAndGlyphs" textLength="71" x="347.5" y="265.3091">Database</text><polygon fill="#2563EB" points="569,299.5078,579,303.5078,569,307.5078,573,303.5078" style="stroke: #2563EB; stroke-width: 1.0;"/><line style="stroke: #2563EB; stroke-width: 1.0;" x1="408" x2="575" y1="303.5078" y2="303.5078"/><text fill="#000000" font-family="Segoe UI" font-size="13" lengthAdjust="spacingAndGlyphs" textLength="154" x="415" y="298.4419">SELECT ... WHERE id = ?</text><polygon fill="#2563EB" points="419,328.6406,409,332.6406,419,336.6406,415,332.6406" style="stroke: #2563EB; stroke-width: 1.0;"/><line style="stroke: #2563EB; stroke-width: 1.0; stroke-dasharray: 2.0,2.0;" x1="413" x2="585" y1="332.6406" y2="332.6406"/><text fill="#000000" font-family="Segoe UI" font-size="13" lengthAdjust="spacingAndGlyphs" textLength="25" x="425" y="327.5747">Row</text><path d="M591,345.6406 L591,370.6406 L765,370.6406 L765,355.6406 L755,345.6406 L591,345.6406 " fill="#FBFB77" style="stroke: #A80036; stroke-width: 1.0;"/><path d="M755,345.6406 L755,355.6406 L765,355.6406 L755,345.6406 " fill="#FBFB77" style="stroke: #A80036; stroke-width: 1.0;"/><text fill="#000000" font-family="Segoe UI" font-size="13" lengthAdjust="spacingAndGlyphs" textLength="153" x="597" y="362.7075">Returns 404 if not found</text><polygon fill="#2563EB" points="296.5,392.9063,286.5,396.9063,296.5,400.9063,292.5,396.9063" style="stroke: #2563EB; stroke-width: 1.0;"/><line style="stroke: #2563EB; stroke-width: 1.0; stroke-dasharray: 2.0,2.0;" x1="290.5" x2="402" y1="396.9063" y2="396.9063"/><text fill="#000000" font-family="Segoe UI" font-size="13" lengthAdjust="spacingAndGlyphs" textLength="46" x="302.5" y="391.8403">200 OK</text><polygon fill="#2563EB" points="45.5,422.0391,35.5,426.0391,45.5,430.0391,41.5,426.0391" style="stroke: #2563EB; stroke-width: 1.0;"/><line style="stroke: #2563EB; stroke-width: 1.0; stroke-dasharray: 2.0,2.0;" x1="39.5" x2="279.5" y1="426.0391" y2="426.0391"/><text fill="#000000" font-family="Segoe UI" font-size="13" lengthAdjust="spacingAndGlyphs" textLength="46" x="51.5" y="420.9731">200 OK</text><a href="/microservices/svc-reservations/#integration-context" target="_top" title="/microservices/svc-reservations/#integration-context" xlink:actuate="onRequest" xlink:href="/microservices/svc-reservations/#integration-context" xlink:show="new" xlink:title="/microservices/svc-reservations/#integration-context" xlink:type="simple"><text fill="#0000FF" font-family="Segoe UI" font-size="10" lengthAdjust="spacingAndGlyphs" text-decoration="underline" textLength="190" x="580" y="12.2822">⬆ svc-reservations Integration Context</text></a><!--MD5=[c74b79c374329a45870076fb382a53ae]
@startuml svc-reservations- -get-reservations-reservation_id

skinparam backgroundColor #FEFEFE
skinparam shadowing false
skinparam defaultFontName "Segoe UI"
skinparam sequence {
    ArrowColor #2563eb
    ParticipantBorderColor #374151
    ParticipantBackgroundColor #F9FAFB
    LifeLineBorderColor #6B7280
    BoxBorderColor #94A3B8
    BoxBackgroundColor #F8FAFC
    NoteBorderColor #64748B
    NoteBackgroundColor #F8FAFC
}

header [[/microservices/svc-reservations/#integration-context ⬆ svc-reservations Integration Context]]

title GET /reservations/{reservation_id}\nGet reservation details

participant "Client" as Client [[/applications/]]
participant "API Gateway" as GW [[/actors/#api-gateway]] #E0F2FE
participant "svc-reservations" as Svc [[/microservices/svc-reservations/]] #D1FAE5
database "PostgreSQL" as DB [[/microservices/svc-reservations/#data-store]] #FEF9C3

note over Svc
  [[/services/api/svc-reservations.html#/Reservations/getReservation View in Swagger UI]]
end note

Client -> GW : GET /reservations/{reservation_id}
activate GW #2563eb
GW -> Svc : route request
activate Svc #2563eb

== Database ==

Svc -> DB : SELECT ... WHERE id = ?
activate DB #FEF9C3
DB - -> Svc : Row
deactivate DB
note right of DB : Returns 404 if not found

Svc - -> GW : 200 OK
deactivate Svc
GW - -> Client : 200 OK
deactivate GW

@enduml

PlantUML version 1.2020.02(Sun Mar 01 10:22:07 UTC 2020)
(GPL source distribution)
Java Runtime: OpenJDK Runtime Environment
JVM: OpenJDK 64-Bit Server VM
Java Version: 17.0.18+8
Operating System: Linux
Default Encoding: UTF-8
Language: en
Country: null
--></g></svg>