<svg xmlns="http://www.w3.org/2000/svg" xmlns:xlink="http://www.w3.org/1999/xlink" contentStyleType="text/css" data-diagram-type="SEQUENCE" height="576px" preserveAspectRatio="none" style="width:589px;height:576px;background:#FEFEFE;" version="1.1" viewBox="0 0 589 576" width="589px" zoomAndPan="magnify"><title>GET /weather/alerts</title><defs/><g><rect fill="#FEFEFE" height="576" style="stroke:none;stroke-width:1;" width="589" x="0" y="0"/><text fill="#000000" font-family="Segoe UI" font-size="14" font-weight="bold" lengthAdjust="spacing" textLength="147.8408" x="216.8606" y="28.5352">GET /weather/alerts</text><text fill="#000000" font-family="Segoe UI" font-size="14" font-weight="bold" lengthAdjust="spacing" textLength="269.1377" x="156.2122" y="45.0234">Get active weather alerts for a region</text><g><title>API Gateway</title><rect fill="#2563EB" height="291.7949" style="stroke:#A23B72;stroke-width:1;" width="10" x="178.0801" y="188.0859"/></g><g><title>svc-weather</title><rect fill="#2563EB" height="233.1738" style="stroke:#A23B72;stroke-width:1;" width="10" x="292.2148" y="217.3965"/></g><g><title>Weather API</title><rect fill="#DBEAFE" height="29.3105" style="stroke:#A23B72;stroke-width:1;" width="10" x="434.6602" y="290.0176"/></g><g><title>Redis . PG</title><rect fill="#FCE4EC" height="29.3105" style="stroke:#A23B72;stroke-width:1;" width="10" x="532.3164" y="391.9492"/></g><g><title>Client</title><rect fill="#000000" fill-opacity="0.00000" height="376.416" width="8" x="27.7524" y="121.4648"/><line style="stroke:#A23B72;stroke-width:0.5;stroke-dasharray:5,5;" x1="31" x2="31" y1="121.4648" y2="497.8809"/></g><g><title>API Gateway</title><rect fill="#000000" fill-opacity="0.00000" height="376.416" width="8" x="179.0801" y="121.4648"/><line style="stroke:#A23B72;stroke-width:0.5;stroke-dasharray:5,5;" x1="182.791" x2="182.791" y1="121.4648" y2="497.8809"/></g><g><title>svc-weather</title><rect fill="#000000" fill-opacity="0.00000" height="376.416" width="8" x="293.2148" y="121.4648"/><line style="stroke:#A23B72;stroke-width:0.5;stroke-dasharray:5,5;" x1="296.502" x2="296.502" y1="121.4648" y2="497.8809"/></g><g><title>Weather API</title><rect fill="#000000" fill-opacity="0.00000" height="376.416" width="8" x="435.6602" y="121.4648"/><line style="stroke:#A23B72;stroke-width:0.5;stroke-dasharray:5,5;" x1="439.2495" x2="439.2495" y1="121.4648" y2="497.8809"/></g><g><title>Redis . PG</title><rect fill="#000000" fill-opacity="0.00000" height="376.416" width="8" x="533.3164" y="121.4648"/><line style="stroke:#A23B72;stroke-width:0.5;stroke-dasharray:5,5;" x1="537.0708" x2="537.0708" y1="121.4648" y2="497.8809"/></g><g class="participant participant-head" data-participant="Client"><rect fill="#E8F4F8" height="30.4883" rx="2.5" ry="2.5" style="stroke:#2E86AB;stroke-width:0.5;" width="53.5049" x="5" y="89.9766"/><text fill="#000000" font-family="Segoe UI" font-size="14" lengthAdjust="spacing" textLength="39.5049" x="12" y="110.5117">Client</text></g><g class="participant participant-tail" data-participant="Client"><rect fill="#E8F4F8" height="30.4883" rx="2.5" ry="2.5" style="stroke:#2E86AB;stroke-width:0.5;" width="53.5049" x="5" y="496.8809"/><text fill="#000000" font-family="Segoe UI" font-size="14" lengthAdjust="spacing" textLength="39.5049" x="12" y="517.416">Client</text></g><g class="participant participant-head" data-participant="GW"><rect fill="#DBEAFE" height="30.4883" rx="2.5" ry="2.5" style="stroke:#2E86AB;stroke-width:0.5;" width="96.5781" x="134.791" y="89.9766"/><text fill="#000000" font-family="Segoe UI" font-size="14" lengthAdjust="spacing" textLength="82.5781" x="141.791" y="110.5117">API Gateway</text></g><g class="participant participant-tail" data-participant="GW"><rect fill="#DBEAFE" height="30.4883" rx="2.5" ry="2.5" style="stroke:#2E86AB;stroke-width:0.5;" width="96.5781" x="134.791" y="496.8809"/><text fill="#000000" font-family="Segoe UI" font-size="14" lengthAdjust="spacing" textLength="82.5781" x="141.791" y="517.416">API Gateway</text></g><g class="participant participant-head" data-participant="Svc"><a href="/microservices/svc-weather/" target="_top" title="/microservices/svc-weather/" xlink:actuate="onRequest" xlink:href="/microservices/svc-weather/" xlink:show="new" xlink:title="/microservices/svc-weather/" xlink:type="simple"><rect fill="#E8F4F8" height="30.4883" rx="2.5" ry="2.5" style="stroke:#2E86AB;stroke-width:0.5;" width="97.4258" x="248.502" y="89.9766"/><text fill="#000000" font-family="Segoe UI" font-size="14" lengthAdjust="spacing" textLength="83.4258" x="255.502" y="110.5117">svc-weather</text></a></g><g class="participant participant-tail" data-participant="Svc"><a href="/microservices/svc-weather/" target="_top" title="/microservices/svc-weather/" xlink:actuate="onRequest" xlink:href="/microservices/svc-weather/" xlink:show="new" xlink:title="/microservices/svc-weather/" xlink:type="simple"><rect fill="#E8F4F8" height="30.4883" rx="2.5" ry="2.5" style="stroke:#2E86AB;stroke-width:0.5;" width="97.4258" x="248.502" y="496.8809"/><text fill="#000000" font-family="Segoe UI" font-size="14" lengthAdjust="spacing" textLength="83.4258" x="255.502" y="517.416">svc-weather</text></a></g><g class="participant participant-head" data-participant="ExtWx"><rect fill="#F5F5F5" height="30.4883" rx="2.5" ry="2.5" style="stroke:#2E86AB;stroke-width:0.5;" width="94.8213" x="392.2495" y="89.9766"/><text fill="#000000" font-family="Segoe UI" font-size="14" lengthAdjust="spacing" textLength="80.8213" x="399.2495" y="110.5117">Weather API</text></g><g class="participant participant-tail" data-participant="ExtWx"><rect fill="#F5F5F5" height="30.4883" rx="2.5" ry="2.5" style="stroke:#2E86AB;stroke-width:0.5;" width="94.8213" x="392.2495" y="496.8809"/><text fill="#000000" font-family="Segoe UI" font-size="14" lengthAdjust="spacing" textLength="80.8213" x="399.2495" y="517.416">Weather API</text></g><g class="participant participant-head" data-participant="DB"><text fill="#000000" font-family="Segoe UI" font-size="14" lengthAdjust="spacing" textLength="74.4912" x="497.0708" y="118.5117">Redis + PG</text><path d="M519.3164,68.9766 C519.3164,58.9766 537.3164,58.9766 537.3164,58.9766 C537.3164,58.9766 555.3164,58.9766 555.3164,68.9766 L555.3164,94.9766 C555.3164,104.9766 537.3164,104.9766 537.3164,104.9766 C537.3164,104.9766 519.3164,104.9766 519.3164,94.9766 L519.3164,68.9766" fill="#FCE4EC" style="stroke:#181818;stroke-width:0.5;"/><path d="M519.3164,68.9766 C519.3164,78.9766 537.3164,78.9766 537.3164,78.9766 C537.3164,78.9766 555.3164,78.9766 555.3164,68.9766" fill="none" style="stroke:#181818;stroke-width:0.5;"/></g><g class="participant participant-tail" data-participant="DB"><text fill="#000000" font-family="Segoe UI" font-size="14" lengthAdjust="spacing" textLength="74.4912" x="497.0708" y="510.416">Redis + PG</text><path d="M519.3164,523.3691 C519.3164,513.3691 537.3164,513.3691 537.3164,513.3691 C537.3164,513.3691 555.3164,513.3691 555.3164,523.3691 L555.3164,549.3691 C555.3164,559.3691 537.3164,559.3691 537.3164,559.3691 C537.3164,559.3691 519.3164,559.3691 519.3164,549.3691 L519.3164,523.3691" fill="#FCE4EC" style="stroke:#181818;stroke-width:0.5;"/><path d="M519.3164,523.3691 C519.3164,533.3691 537.3164,533.3691 537.3164,533.3691 C537.3164,533.3691 555.3164,533.3691 555.3164,523.3691" fill="none" style="stroke:#181818;stroke-width:0.5;"/></g><g><title>API Gateway</title><rect fill="#2563EB" height="291.7949" style="stroke:#A23B72;stroke-width:1;" width="10" x="178.0801" y="188.0859"/></g><g><title>svc-weather</title><rect fill="#2563EB" height="233.1738" style="stroke:#A23B72;stroke-width:1;" width="10" x="292.2148" y="217.3965"/></g><g><title>Weather API</title><rect fill="#DBEAFE" height="29.3105" style="stroke:#A23B72;stroke-width:1;" width="10" x="434.6602" y="290.0176"/></g><g><title>Redis . PG</title><rect fill="#FCE4EC" height="29.3105" style="stroke:#A23B72;stroke-width:1;" width="10" x="532.3164" y="391.9492"/></g><path d="M227,136.4648 L227,161.4648 L367,161.4648 L367,146.4648 L357,136.4648 L227,136.4648" fill="#FEFFDD" style="stroke:#181818;stroke-width:0.5;"/><path d="M357,136.4648 L357,146.4648 L367,146.4648 L357,136.4648" fill="#FEFFDD" style="stroke:#181818;stroke-width:0.5;"/><a href="/services/api/svc-weather.html#/Alerts/getWeatherAlerts" target="_top" title="/services/api/svc-weather.html#/Alerts/getWeatherAlerts" xlink:actuate="onRequest" xlink:href="/services/api/svc-weather.html#/Alerts/getWeatherAlerts" xlink:show="new" xlink:title="/services/api/svc-weather.html#/Alerts/getWeatherAlerts" xlink:type="simple"><text fill="#0000FF" font-family="Segoe UI" font-size="13" lengthAdjust="spacing" text-decoration="underline" textLength="119.4058" x="233" y="154.0332">View in Swagger UI</text></a><g class="message" data-participant-1="Client" data-participant-2="GW"><polygon fill="#2563EB" points="166.0801,184.0859,176.0801,188.0859,166.0801,192.0859,170.0801,188.0859" style="stroke:#2563EB;stroke-width:1;"/><line style="stroke:#2563EB;stroke-width:1;" x1="31.7524" x2="172.0801" y1="188.0859" y2="188.0859"/><text fill="#000000" font-family="Segoe UI" font-size="13" lengthAdjust="spacing" textLength="127.3276" x="38.7524" y="183.3438">GET /weather/alerts</text></g><g class="message" data-participant-1="GW" data-participant-2="Svc"><polygon fill="#2563EB" points="280.2148,213.3965,290.2148,217.3965,280.2148,221.3965,284.2148,217.3965" style="stroke:#2563EB;stroke-width:1;"/><line style="stroke:#2563EB;stroke-width:1;" x1="188.0801" x2="286.2148" y1="217.3965" y2="217.3965"/><a href="/microservices/svc-weather/#get-weatheralerts-get-active-weather-alerts-for-a-region" target="_top" title="/microservices/svc-weather/#get-weatheralerts-get-active-weather-alerts-for-a-region" xlink:actuate="onRequest" xlink:href="/microservices/svc-weather/#get-weatheralerts-get-active-weather-alerts-for-a-region" xlink:show="new" xlink:title="/microservices/svc-weather/#get-weatheralerts-get-active-weather-alerts-for-a-region" xlink:type="simple"><text fill="#0000FF" font-family="Segoe UI" font-size="13" lengthAdjust="spacing" text-decoration="underline" textLength="85.1348" x="195.0801" y="212.6543">route request</text></a></g><rect fill="#EEEEEE" height="3" style="stroke:#EEEEEE;stroke-width:1;" width="582.562" x="0" y="246.0518"/><line style="stroke:#000000;stroke-width:1;" x1="0" x2="582.562" y1="246.0518" y2="246.0518"/><line style="stroke:#000000;stroke-width:1;" x1="0" x2="582.562" y1="249.0518" y2="249.0518"/><rect fill="#EEEEEE" height="23.3105" style="stroke:#000000;stroke-width:2;" width="190.6743" x="195.9438" y="235.3965"/><text fill="#000000" font-family="Segoe UI" font-size="13" font-weight="bold" lengthAdjust="spacing" textLength="172.3896" x="201.9438" y="251.9648">Cross-Service Integration</text><g class="message" data-participant-1="Svc" data-participant-2="ExtWx"><polygon fill="#2563EB" points="422.6602,286.0176,432.6602,290.0176,422.6602,294.0176,426.6602,290.0176" style="stroke:#2563EB;stroke-width:1;"/><line style="stroke:#2563EB;stroke-width:1;" x1="302.2148" x2="428.6602" y1="290.0176" y2="290.0176"/><text fill="#000000" font-family="Segoe UI" font-size="13" lengthAdjust="spacing" textLength="113.4453" x="309.2148" y="285.2754">Fetch active alerts</text></g><g class="message" data-participant-1="ExtWx" data-participant-2="Svc"><polygon fill="#2563EB" points="313.2148,315.3281,303.2148,319.3281,313.2148,323.3281,309.2148,319.3281" style="stroke:#2563EB;stroke-width:1;"/><line style="stroke:#2563EB;stroke-width:1;stroke-dasharray:2,2;" x1="307.2148" x2="438.6602" y1="319.3281" y2="319.3281"/><text fill="#000000" font-family="Segoe UI" font-size="13" lengthAdjust="spacing" textLength="18.5859" x="319.2148" y="314.5859">OK</text></g><rect fill="#EEEEEE" height="3" style="stroke:#EEEEEE;stroke-width:1;" width="582.562" x="0" y="347.9834"/><line style="stroke:#000000;stroke-width:1;" x1="0" x2="582.562" y1="347.9834" y2="347.9834"/><line style="stroke:#000000;stroke-width:1;" x1="0" x2="582.562" y1="350.9834" y2="350.9834"/><rect fill="#EEEEEE" height="23.3105" style="stroke:#000000;stroke-width:2;" width="80.3711" x="251.0955" y="337.3281"/><text fill="#000000" font-family="Segoe UI" font-size="13" font-weight="bold" lengthAdjust="spacing" textLength="62.0864" x="257.0955" y="353.8965">Database</text><g class="message" data-participant-1="Svc" data-participant-2="DB"><polygon fill="#2563EB" points="520.3164,387.9492,530.3164,391.9492,520.3164,395.9492,524.3164,391.9492" style="stroke:#2563EB;stroke-width:1;"/><line style="stroke:#2563EB;stroke-width:1;" x1="302.2148" x2="526.3164" y1="391.9492" y2="391.9492"/><text fill="#000000" font-family="Segoe UI" font-size="13" lengthAdjust="spacing" textLength="149.2524" x="309.2148" y="387.207">SELECT ... WHERE filters</text></g><g class="message" data-participant-1="DB" data-participant-2="Svc"><polygon fill="#2563EB" points="313.2148,417.2598,303.2148,421.2598,313.2148,425.2598,309.2148,421.2598" style="stroke:#2563EB;stroke-width:1;"/><line style="stroke:#2563EB;stroke-width:1;stroke-dasharray:2,2;" x1="307.2148" x2="536.3164" y1="421.2598" y2="421.2598"/><text fill="#000000" font-family="Segoe UI" font-size="13" lengthAdjust="spacing" textLength="93.209" x="319.2148" y="416.5176">Page of results</text></g><g class="message" data-participant-1="Svc" data-participant-2="GW"><polygon fill="#2563EB" points="199.0801,446.5703,189.0801,450.5703,199.0801,454.5703,195.0801,450.5703" style="stroke:#2563EB;stroke-width:1;"/><line style="stroke:#2563EB;stroke-width:1;stroke-dasharray:2,2;" x1="193.0801" x2="296.2148" y1="450.5703" y2="450.5703"/><text fill="#000000" font-family="Segoe UI" font-size="13" lengthAdjust="spacing" textLength="47.3599" x="205.0801" y="445.8281">200 OK</text></g><g class="message" data-participant-1="GW" data-participant-2="Client"><polygon fill="#2563EB" points="42.7524,475.8809,32.7524,479.8809,42.7524,483.8809,38.7524,479.8809" style="stroke:#2563EB;stroke-width:1;"/><line style="stroke:#2563EB;stroke-width:1;stroke-dasharray:2,2;" x1="36.7524" x2="182.0801" y1="479.8809" y2="479.8809"/><text fill="#000000" font-family="Segoe UI" font-size="13" lengthAdjust="spacing" textLength="47.3599" x="48.7524" y="475.1387">200 OK</text></g><!--SRC=[VLHTRzem57tthxY2nocaXNOW92OHS1XQrQ7IZeUE1vDSWjLWCzk5JjF- -sw-QD9M8o-9pyazn-Sus2Uf3iA8FMn4z9GO_QpYYKwrWNR8iulPCyFkHAnFKYMm5Qd56XBZLZodBjJAtOezGck9YKPucBVgh-ElPrGHmXy6z1iReq-bLFVwSmyt-V9262SZUH3A1Th4Q2eA7tmU1-yeRqtpGNWL3dBQZTpYZLJO63Fkze9-DyS3_TA0mij1U75vXjx54OQ4v_2jTisfKR-_wTMm3wBiyJxxovYJBaMOyNlmJoZS3eqlKZJE_bGpT20Y9uy89GG515kQ8S1W8hLYxF2wVMXDKedAjK1OA6wRy7WnXvbmU1A_Syvi1UrfmCVKQuDdZv5NYkQyvJ62nqT_BoEZBPgZZD3wDPA_Nf-pRWnQbSv9E1_4NzpgXGAupYuM2oSsmj81kSDOMlW4YrbEcmR4cV0hFc5CKOAWZpI4N52cvEDiGHnatKPdv_Pfsn_dCVa9kbA-M80V4ayW5InF8abetiDylMQeOiWa62i20-zB5ilmer9OtWVbbmTNdbAwfLUoX8R_pwXDXgg7OfwNhHGTLu1N8jIn9xoYOw2pGvec-s2i8yzd6vbgvOEDHZ0XQUij2tMOAuU94IuRCHenbh79Qj71449qqQuwOcytM1PL7exYoJlly_it5cEJc-jFgq9hSjJb49RyXa_keTFfmEehl-EmbQb3KnEiLKwthr8BaL3zMzgzfRyKMzUT1gL8LLdtukADjUp8P0KHewpt8zPinVu1]--></g></svg>