<?xml version="1.0" encoding="UTF-8" standalone="no"?><svg xmlns="http://www.w3.org/2000/svg" xmlns:xlink="http://www.w3.org/1999/xlink" contentScriptType="application/ecmascript" contentStyleType="text/css" height="517px" preserveAspectRatio="none" style="width:745px;height:517px;background:#FEFEFE;" version="1.1" viewBox="0 0 745 517" width="745px" zoomAndPan="magnify"><defs/><g><text fill="#000000" font-family="Segoe UI" font-size="18" lengthAdjust="spacingAndGlyphs" textLength="266" x="235" y="41.3486">GET /payments/{payment_id}</text><text fill="#000000" font-family="Segoe UI" font-size="18" lengthAdjust="spacingAndGlyphs" textLength="224" x="256" y="62.3018">Retrieve payment details</text><rect fill="#2563EB" height="223.9297" style="stroke: #6B7280; stroke-width: 1.0;" width="10" x="245.5" y="202.1094"/><rect fill="#2563EB" height="165.6641" style="stroke: #6B7280; stroke-width: 1.0;" width="10" x="361.5" y="231.2422"/><rect fill="#FEF9C3" height="29.1328" style="stroke: #6B7280; stroke-width: 1.0;" width="10" x="544.5" y="303.5078"/><line style="stroke: #6B7280; stroke-width: 1.0; stroke-dasharray: 5.0,5.0;" x1="34" x2="34" y1="135.8438" y2="444.0391"/><line style="stroke: #6B7280; stroke-width: 1.0; stroke-dasharray: 5.0,5.0;" x1="250.5" x2="250.5" y1="135.8438" y2="444.0391"/><line style="stroke: #6B7280; stroke-width: 1.0; stroke-dasharray: 5.0,5.0;" x1="366.5" x2="366.5" y1="135.8438" y2="444.0391"/><line style="stroke: #6B7280; stroke-width: 1.0; stroke-dasharray: 5.0,5.0;" x1="549" x2="549" y1="135.8438" y2="444.0391"/><a href="/applications/" target="_top" title="/applications/" xlink:actuate="onRequest" xlink:href="/applications/" xlink:show="new" xlink:title="/applications/" xlink:type="simple"><rect fill="#F9FAFB" height="30.2969" style="stroke: #374151; stroke-width: 1.5;" width="53" x="8" y="104.5469"/><text fill="#000000" font-family="Segoe UI" font-size="14" lengthAdjust="spacingAndGlyphs" textLength="39" x="15" y="124.542">Client</text><rect fill="#F9FAFB" height="30.2969" style="stroke: #374151; stroke-width: 1.5;" width="53" x="8" y="443.0391"/><text fill="#000000" font-family="Segoe UI" font-size="14" lengthAdjust="spacingAndGlyphs" textLength="39" x="15" y="463.0342">Client</text></a><a href="/actors/#api-gateway" target="_top" title="/actors/#api-gateway" xlink:actuate="onRequest" xlink:href="/actors/#api-gateway" xlink:show="new" xlink:title="/actors/#api-gateway" xlink:type="simple"><rect fill="#E0F2FE" height="30.2969" style="stroke: #374151; stroke-width: 1.5;" width="98" x="201.5" y="104.5469"/><text fill="#000000" font-family="Segoe UI" font-size="14" lengthAdjust="spacingAndGlyphs" textLength="84" x="208.5" y="124.542">API Gateway</text><rect fill="#E0F2FE" height="30.2969" style="stroke: #374151; stroke-width: 1.5;" width="98" x="201.5" y="443.0391"/><text fill="#000000" font-family="Segoe UI" font-size="14" lengthAdjust="spacingAndGlyphs" textLength="84" x="208.5" y="463.0342">API Gateway</text></a><a href="/microservices/svc-payments/" target="_top" title="/microservices/svc-payments/" xlink:actuate="onRequest" xlink:href="/microservices/svc-payments/" xlink:show="new" xlink:title="/microservices/svc-payments/" xlink:type="simple"><rect fill="#FEE2E2" height="30.2969" style="stroke: #374151; stroke-width: 1.5;" width="110" x="311.5" y="104.5469"/><text fill="#000000" font-family="Segoe UI" font-size="14" lengthAdjust="spacingAndGlyphs" textLength="96" x="318.5" y="124.542">svc-payments</text><rect fill="#FEE2E2" height="30.2969" style="stroke: #374151; stroke-width: 1.5;" width="110" x="311.5" y="443.0391"/><text fill="#000000" font-family="Segoe UI" font-size="14" lengthAdjust="spacingAndGlyphs" textLength="96" x="318.5" y="463.0342">svc-payments</text></a><a href="/microservices/svc-payments/#data-store" target="_top" title="/microservices/svc-payments/#data-store" xlink:actuate="onRequest" xlink:href="/microservices/svc-payments/#data-store" xlink:show="new" xlink:title="/microservices/svc-payments/#data-store" xlink:type="simple"><text fill="#000000" font-family="Segoe UI" font-size="14" lengthAdjust="spacingAndGlyphs" textLength="81" x="506" y="132.542">PostgreSQL</text><path d="M531.5,83.5469 C531.5,73.5469 549.5,73.5469 549.5,73.5469 C549.5,73.5469 567.5,73.5469 567.5,83.5469 L567.5,109.5469 C567.5,119.5469 549.5,119.5469 549.5,119.5469 C549.5,119.5469 531.5,119.5469 531.5,109.5469 L531.5,83.5469 " fill="#FEF9C3" style="stroke: #000000; stroke-width: 1.5;"/><path d="M531.5,83.5469 C531.5,93.5469 549.5,93.5469 549.5,93.5469 C549.5,93.5469 567.5,93.5469 567.5,83.5469 " fill="none" style="stroke: #000000; stroke-width: 1.5;"/><text fill="#000000" font-family="Segoe UI" font-size="14" lengthAdjust="spacingAndGlyphs" textLength="81" x="506" y="456.0342">PostgreSQL</text><path d="M531.5,469.3359 C531.5,459.3359 549.5,459.3359 549.5,459.3359 C549.5,459.3359 567.5,459.3359 567.5,469.3359 L567.5,495.3359 C567.5,505.3359 549.5,505.3359 549.5,505.3359 C549.5,505.3359 531.5,505.3359 531.5,495.3359 L531.5,469.3359 " fill="#FEF9C3" style="stroke: #000000; stroke-width: 1.5;"/><path d="M531.5,469.3359 C531.5,479.3359 549.5,479.3359 549.5,479.3359 C549.5,479.3359 567.5,479.3359 567.5,469.3359 " fill="none" style="stroke: #000000; stroke-width: 1.5;"/></a><rect fill="#2563EB" height="223.9297" style="stroke: #6B7280; stroke-width: 1.0;" width="10" x="245.5" y="202.1094"/><rect fill="#2563EB" height="165.6641" style="stroke: #6B7280; stroke-width: 1.0;" width="10" x="361.5" y="231.2422"/><rect fill="#FEF9C3" height="29.1328" style="stroke: #6B7280; stroke-width: 1.0;" width="10" x="544.5" y="303.5078"/><path d="M296,150.8438 L296,175.8438 L437,175.8438 L437,160.8438 L427,150.8438 L296,150.8438 " fill="#FBFB77" style="stroke: #A80036; stroke-width: 1.0;"/><path d="M427,150.8438 L427,160.8438 L437,160.8438 L427,150.8438 " fill="#FBFB77" style="stroke: #A80036; stroke-width: 1.0;"/><a href="/services/api/svc-payments.html#/Payments/getPayment" target="_top" title="/services/api/svc-payments.html#/Payments/getPayment" xlink:actuate="onRequest" xlink:href="/services/api/svc-payments.html#/Payments/getPayment" xlink:show="new" xlink:title="/services/api/svc-payments.html#/Payments/getPayment" xlink:type="simple"><text fill="#0000FF" font-family="Segoe UI" font-size="13" lengthAdjust="spacingAndGlyphs" text-decoration="underline" textLength="120" x="302" y="167.9106">View in Swagger UI</text></a><polygon fill="#2563EB" points="233.5,198.1094,243.5,202.1094,233.5,206.1094,237.5,202.1094" style="stroke: #2563EB; stroke-width: 1.0;"/><line style="stroke: #2563EB; stroke-width: 1.0;" x1="34.5" x2="239.5" y1="202.1094" y2="202.1094"/><text fill="#000000" font-family="Segoe UI" font-size="13" lengthAdjust="spacingAndGlyphs" textLength="192" x="41.5" y="197.0435">GET /payments/{payment_id}</text><polygon fill="#2563EB" points="349.5,227.2422,359.5,231.2422,349.5,235.2422,353.5,231.2422" style="stroke: #2563EB; stroke-width: 1.0;"/><line style="stroke: #2563EB; stroke-width: 1.0;" x1="255.5" x2="355.5" y1="231.2422" y2="231.2422"/><text fill="#000000" font-family="Segoe UI" font-size="13" lengthAdjust="spacingAndGlyphs" textLength="87" x="262.5" y="226.1763">route request</text><rect fill="#EEEEEE" height="3" style="stroke: #EEEEEE; stroke-width: 1.0;" width="730" x="3" y="259.8086"/><line style="stroke: #000000; stroke-width: 1.0;" x1="3" x2="733" y1="259.8086" y2="259.8086"/><line style="stroke: #000000; stroke-width: 1.0;" x1="3" x2="733" y1="262.8086" y2="262.8086"/><rect fill="#EEEEEE" height="23.1328" style="stroke: #000000; stroke-width: 2.0;" width="90" x="323" y="249.2422"/><text fill="#000000" font-family="Segoe UI" font-size="13" font-weight="bold" lengthAdjust="spacingAndGlyphs" textLength="71" x="329" y="265.3091">Database</text><polygon fill="#2563EB" points="532.5,299.5078,542.5,303.5078,532.5,307.5078,536.5,303.5078" style="stroke: #2563EB; stroke-width: 1.0;"/><line style="stroke: #2563EB; stroke-width: 1.0;" x1="371.5" x2="538.5" y1="303.5078" y2="303.5078"/><text fill="#000000" font-family="Segoe UI" font-size="13" lengthAdjust="spacingAndGlyphs" textLength="154" x="378.5" y="298.4419">SELECT ... WHERE id = ?</text><polygon fill="#2563EB" points="382.5,328.6406,372.5,332.6406,382.5,336.6406,378.5,332.6406" style="stroke: #2563EB; stroke-width: 1.0;"/><line style="stroke: #2563EB; stroke-width: 1.0; stroke-dasharray: 2.0,2.0;" x1="376.5" x2="548.5" y1="332.6406" y2="332.6406"/><text fill="#000000" font-family="Segoe UI" font-size="13" lengthAdjust="spacingAndGlyphs" textLength="25" x="388.5" y="327.5747">Row</text><path d="M554,345.6406 L554,370.6406 L728,370.6406 L728,355.6406 L718,345.6406 L554,345.6406 " fill="#FBFB77" style="stroke: #A80036; stroke-width: 1.0;"/><path d="M718,345.6406 L718,355.6406 L728,355.6406 L718,345.6406 " fill="#FBFB77" style="stroke: #A80036; stroke-width: 1.0;"/><text fill="#000000" font-family="Segoe UI" font-size="13" lengthAdjust="spacingAndGlyphs" textLength="153" x="560" y="362.7075">Returns 404 if not found</text><polygon fill="#2563EB" points="266.5,392.9063,256.5,396.9063,266.5,400.9063,262.5,396.9063" style="stroke: #2563EB; stroke-width: 1.0;"/><line style="stroke: #2563EB; stroke-width: 1.0; stroke-dasharray: 2.0,2.0;" x1="260.5" x2="365.5" y1="396.9063" y2="396.9063"/><text fill="#000000" font-family="Segoe UI" font-size="13" lengthAdjust="spacingAndGlyphs" textLength="46" x="272.5" y="391.8403">200 OK</text><polygon fill="#2563EB" points="45.5,422.0391,35.5,426.0391,45.5,430.0391,41.5,426.0391" style="stroke: #2563EB; stroke-width: 1.0;"/><line style="stroke: #2563EB; stroke-width: 1.0; stroke-dasharray: 2.0,2.0;" x1="39.5" x2="249.5" y1="426.0391" y2="426.0391"/><text fill="#000000" font-family="Segoe UI" font-size="13" lengthAdjust="spacingAndGlyphs" textLength="46" x="51.5" y="420.9731">200 OK</text><a href="/microservices/svc-payments/#integration-context" target="_top" title="/microservices/svc-payments/#integration-context" xlink:actuate="onRequest" xlink:href="/microservices/svc-payments/#integration-context" xlink:show="new" xlink:title="/microservices/svc-payments/#integration-context" xlink:type="simple"><text fill="#0000FF" font-family="Segoe UI" font-size="10" lengthAdjust="spacingAndGlyphs" text-decoration="underline" textLength="179" x="554" y="12.2822">⬆ svc-payments Integration Context</text></a><!--MD5=[cd0402b9df0037e2ca3b8830bd0cb9e9]
@startuml svc-payments- -get-payments-payment_id

skinparam backgroundColor #FEFEFE
skinparam shadowing false
skinparam defaultFontName "Segoe UI"
skinparam sequence {
    ArrowColor #2563eb
    ParticipantBorderColor #374151
    ParticipantBackgroundColor #F9FAFB
    LifeLineBorderColor #6B7280
    BoxBorderColor #94A3B8
    BoxBackgroundColor #F8FAFC
    NoteBorderColor #64748B
    NoteBackgroundColor #F8FAFC
}

header [[/microservices/svc-payments/#integration-context ⬆ svc-payments Integration Context]]

title GET /payments/{payment_id}\nRetrieve payment details

participant "Client" as Client [[/applications/]]
participant "API Gateway" as GW [[/actors/#api-gateway]] #E0F2FE
participant "svc-payments" as Svc [[/microservices/svc-payments/]] #FEE2E2
database "PostgreSQL" as DB [[/microservices/svc-payments/#data-store]] #FEF9C3

note over Svc
  [[/services/api/svc-payments.html#/Payments/getPayment View in Swagger UI]]
end note

Client -> GW : GET /payments/{payment_id}
activate GW #2563eb
GW -> Svc : route request
activate Svc #2563eb

== Database ==

Svc -> DB : SELECT ... WHERE id = ?
activate DB #FEF9C3
DB - -> Svc : Row
deactivate DB
note right of DB : Returns 404 if not found

Svc - -> GW : 200 OK
deactivate Svc
GW - -> Client : 200 OK
deactivate GW

@enduml

PlantUML version 1.2020.02(Sun Mar 01 10:22:07 UTC 2020)
(GPL source distribution)
Java Runtime: OpenJDK Runtime Environment
JVM: OpenJDK 64-Bit Server VM
Java Version: 17.0.18+8
Operating System: Linux
Default Encoding: UTF-8
Language: en
Country: null
--></g></svg>