<?xml version="1.0" encoding="UTF-8" standalone="no"?><svg xmlns="http://www.w3.org/2000/svg" xmlns:xlink="http://www.w3.org/1999/xlink" contentScriptType="application/ecmascript" contentStyleType="text/css" height="482px" preserveAspectRatio="none" style="width:671px;height:482px;background:#FEFEFE;" version="1.1" viewBox="0 0 671 482" width="671px" zoomAndPan="magnify"><defs/><g><text fill="#000000" font-family="Segoe UI" font-size="18" lengthAdjust="spacingAndGlyphs" textLength="276" x="193" y="41.3486">GET /trails/{trail_id}/waypoints</text><text fill="#000000" font-family="Segoe UI" font-size="18" lengthAdjust="spacingAndGlyphs" textLength="214" x="224" y="62.3018">List waypoints for a trail</text><rect fill="#2563EB" height="188.7969" style="stroke: #6B7280; stroke-width: 1.0;" width="10" x="246.5" y="202.1094"/><rect fill="#2563EB" height="130.5313" style="stroke: #6B7280; stroke-width: 1.0;" width="10" x="387" y="231.2422"/><rect fill="#FEF9C3" height="29.1328" style="stroke: #6B7280; stroke-width: 1.0;" width="10" x="619" y="303.5078"/><line style="stroke: #6B7280; stroke-width: 1.0; stroke-dasharray: 5.0,5.0;" x1="34" x2="34" y1="135.8438" y2="408.9063"/><line style="stroke: #6B7280; stroke-width: 1.0; stroke-dasharray: 5.0,5.0;" x1="251.5" x2="251.5" y1="135.8438" y2="408.9063"/><line style="stroke: #6B7280; stroke-width: 1.0; stroke-dasharray: 5.0,5.0;" x1="391.5" x2="391.5" y1="135.8438" y2="408.9063"/><line style="stroke: #6B7280; stroke-width: 1.0; stroke-dasharray: 5.0,5.0;" x1="624" x2="624" y1="135.8438" y2="408.9063"/><a href="/applications/" target="_top" title="/applications/" xlink:actuate="onRequest" xlink:href="/applications/" xlink:show="new" xlink:title="/applications/" xlink:type="simple"><rect fill="#F9FAFB" height="30.2969" style="stroke: #374151; stroke-width: 1.5;" width="53" x="8" y="104.5469"/><text fill="#000000" font-family="Segoe UI" font-size="14" lengthAdjust="spacingAndGlyphs" textLength="39" x="15" y="124.542">Client</text><rect fill="#F9FAFB" height="30.2969" style="stroke: #374151; stroke-width: 1.5;" width="53" x="8" y="407.9063"/><text fill="#000000" font-family="Segoe UI" font-size="14" lengthAdjust="spacingAndGlyphs" textLength="39" x="15" y="427.9014">Client</text></a><a href="/actors/#api-gateway" target="_top" title="/actors/#api-gateway" xlink:actuate="onRequest" xlink:href="/actors/#api-gateway" xlink:show="new" xlink:title="/actors/#api-gateway" xlink:type="simple"><rect fill="#E0F2FE" height="30.2969" style="stroke: #374151; stroke-width: 1.5;" width="98" x="202.5" y="104.5469"/><text fill="#000000" font-family="Segoe UI" font-size="14" lengthAdjust="spacingAndGlyphs" textLength="84" x="209.5" y="124.542">API Gateway</text><rect fill="#E0F2FE" height="30.2969" style="stroke: #374151; stroke-width: 1.5;" width="98" x="202.5" y="407.9063"/><text fill="#000000" font-family="Segoe UI" font-size="14" lengthAdjust="spacingAndGlyphs" textLength="84" x="209.5" y="427.9014">API Gateway</text></a><a href="/microservices/svc-trail-management/" target="_top" title="/microservices/svc-trail-management/" xlink:actuate="onRequest" xlink:href="/microservices/svc-trail-management/" xlink:show="new" xlink:title="/microservices/svc-trail-management/" xlink:type="simple"><rect fill="#FEF3C7" height="30.2969" style="stroke: #374151; stroke-width: 1.5;" width="163" x="310.5" y="104.5469"/><text fill="#000000" font-family="Segoe UI" font-size="14" lengthAdjust="spacingAndGlyphs" textLength="149" x="317.5" y="124.542">svc-trail-management</text><rect fill="#FEF3C7" height="30.2969" style="stroke: #374151; stroke-width: 1.5;" width="163" x="310.5" y="407.9063"/><text fill="#000000" font-family="Segoe UI" font-size="14" lengthAdjust="spacingAndGlyphs" textLength="149" x="317.5" y="427.9014">svc-trail-management</text></a><a href="/microservices/svc-trail-management/#data-store" target="_top" title="/microservices/svc-trail-management/#data-store" xlink:actuate="onRequest" xlink:href="/microservices/svc-trail-management/#data-store" xlink:show="new" xlink:title="/microservices/svc-trail-management/#data-store" xlink:type="simple"><text fill="#000000" font-family="Segoe UI" font-size="14" lengthAdjust="spacingAndGlyphs" textLength="54" x="594" y="132.542">PostGIS</text><path d="M606,83.5469 C606,73.5469 624,73.5469 624,73.5469 C624,73.5469 642,73.5469 642,83.5469 L642,109.5469 C642,119.5469 624,119.5469 624,119.5469 C624,119.5469 606,119.5469 606,109.5469 L606,83.5469 " fill="#FEF9C3" style="stroke: #000000; stroke-width: 1.5;"/><path d="M606,83.5469 C606,93.5469 624,93.5469 624,93.5469 C624,93.5469 642,93.5469 642,83.5469 " fill="none" style="stroke: #000000; stroke-width: 1.5;"/><text fill="#000000" font-family="Segoe UI" font-size="14" lengthAdjust="spacingAndGlyphs" textLength="54" x="594" y="420.9014">PostGIS</text><path d="M606,434.2031 C606,424.2031 624,424.2031 624,424.2031 C624,424.2031 642,424.2031 642,434.2031 L642,460.2031 C642,470.2031 624,470.2031 624,470.2031 C624,470.2031 606,470.2031 606,460.2031 L606,434.2031 " fill="#FEF9C3" style="stroke: #000000; stroke-width: 1.5;"/><path d="M606,434.2031 C606,444.2031 624,444.2031 624,444.2031 C624,444.2031 642,444.2031 642,434.2031 " fill="none" style="stroke: #000000; stroke-width: 1.5;"/></a><rect fill="#2563EB" height="188.7969" style="stroke: #6B7280; stroke-width: 1.0;" width="10" x="246.5" y="202.1094"/><rect fill="#2563EB" height="130.5313" style="stroke: #6B7280; stroke-width: 1.0;" width="10" x="387" y="231.2422"/><rect fill="#FEF9C3" height="29.1328" style="stroke: #6B7280; stroke-width: 1.0;" width="10" x="619" y="303.5078"/><path d="M321,150.8438 L321,175.8438 L462,175.8438 L462,160.8438 L452,150.8438 L321,150.8438 " fill="#FBFB77" style="stroke: #A80036; stroke-width: 1.0;"/><path d="M452,150.8438 L452,160.8438 L462,160.8438 L452,150.8438 " fill="#FBFB77" style="stroke: #A80036; stroke-width: 1.0;"/><a href="/services/api/svc-trail-management.html#/Waypoints/getTrailWaypoints" target="_top" title="/services/api/svc-trail-management.html#/Waypoints/getTrailWaypoints" xlink:actuate="onRequest" xlink:href="/services/api/svc-trail-management.html#/Waypoints/getTrailWaypoints" xlink:show="new" xlink:title="/services/api/svc-trail-management.html#/Waypoints/getTrailWaypoints" xlink:type="simple"><text fill="#0000FF" font-family="Segoe UI" font-size="13" lengthAdjust="spacingAndGlyphs" text-decoration="underline" textLength="120" x="327" y="167.9106">View in Swagger UI</text></a><polygon fill="#2563EB" points="234.5,198.1094,244.5,202.1094,234.5,206.1094,238.5,202.1094" style="stroke: #2563EB; stroke-width: 1.0;"/><line style="stroke: #2563EB; stroke-width: 1.0;" x1="34.5" x2="240.5" y1="202.1094" y2="202.1094"/><text fill="#000000" font-family="Segoe UI" font-size="13" lengthAdjust="spacingAndGlyphs" textLength="193" x="41.5" y="197.0435">GET /trails/{trail_id}/waypoints</text><polygon fill="#2563EB" points="375,227.2422,385,231.2422,375,235.2422,379,231.2422" style="stroke: #2563EB; stroke-width: 1.0;"/><line style="stroke: #2563EB; stroke-width: 1.0;" x1="256.5" x2="381" y1="231.2422" y2="231.2422"/><text fill="#000000" font-family="Segoe UI" font-size="13" lengthAdjust="spacingAndGlyphs" textLength="87" x="263.5" y="226.1763">route request</text><rect fill="#EEEEEE" height="3" style="stroke: #EEEEEE; stroke-width: 1.0;" width="656" x="3" y="259.8086"/><line style="stroke: #000000; stroke-width: 1.0;" x1="3" x2="659" y1="259.8086" y2="259.8086"/><line style="stroke: #000000; stroke-width: 1.0;" x1="3" x2="659" y1="262.8086" y2="262.8086"/><rect fill="#EEEEEE" height="23.1328" style="stroke: #000000; stroke-width: 2.0;" width="90" x="286" y="249.2422"/><text fill="#000000" font-family="Segoe UI" font-size="13" font-weight="bold" lengthAdjust="spacingAndGlyphs" textLength="71" x="292" y="265.3091">Database</text><polygon fill="#2563EB" points="607,299.5078,617,303.5078,607,307.5078,611,303.5078" style="stroke: #2563EB; stroke-width: 1.0;"/><line style="stroke: #2563EB; stroke-width: 1.0;" x1="397" x2="613" y1="303.5078" y2="303.5078"/><text fill="#000000" font-family="Segoe UI" font-size="13" lengthAdjust="spacingAndGlyphs" textLength="203" x="404" y="298.4419">SELECT ... WHERE parent_id = ?</text><polygon fill="#2563EB" points="408,328.6406,398,332.6406,408,336.6406,404,332.6406" style="stroke: #2563EB; stroke-width: 1.0;"/><line style="stroke: #2563EB; stroke-width: 1.0; stroke-dasharray: 2.0,2.0;" x1="402" x2="623" y1="332.6406" y2="332.6406"/><text fill="#000000" font-family="Segoe UI" font-size="13" lengthAdjust="spacingAndGlyphs" textLength="61" x="414" y="327.5747">ResultSet</text><polygon fill="#2563EB" points="267.5,357.7734,257.5,361.7734,267.5,365.7734,263.5,361.7734" style="stroke: #2563EB; stroke-width: 1.0;"/><line style="stroke: #2563EB; stroke-width: 1.0; stroke-dasharray: 2.0,2.0;" x1="261.5" x2="391" y1="361.7734" y2="361.7734"/><text fill="#000000" font-family="Segoe UI" font-size="13" lengthAdjust="spacingAndGlyphs" textLength="46" x="273.5" y="356.7075">200 OK</text><polygon fill="#2563EB" points="45.5,386.9063,35.5,390.9063,45.5,394.9063,41.5,390.9063" style="stroke: #2563EB; stroke-width: 1.0;"/><line style="stroke: #2563EB; stroke-width: 1.0; stroke-dasharray: 2.0,2.0;" x1="39.5" x2="250.5" y1="390.9063" y2="390.9063"/><text fill="#000000" font-family="Segoe UI" font-size="13" lengthAdjust="spacingAndGlyphs" textLength="46" x="51.5" y="385.8403">200 OK</text><a href="/microservices/svc-trail-management/#integration-context" target="_top" title="/microservices/svc-trail-management/#integration-context" xlink:actuate="onRequest" xlink:href="/microservices/svc-trail-management/#integration-context" xlink:show="new" xlink:title="/microservices/svc-trail-management/#integration-context" xlink:type="simple"><text fill="#0000FF" font-family="Segoe UI" font-size="10" lengthAdjust="spacingAndGlyphs" text-decoration="underline" textLength="218" x="441" y="12.2822">⬆ svc-trail-management Integration Context</text></a><!--MD5=[d1aea27037c7c59d97255d15c23aaf56]
@startuml svc-trail-management- -get-trails-trail_id-waypoints

skinparam backgroundColor #FEFEFE
skinparam shadowing false
skinparam defaultFontName "Segoe UI"
skinparam sequence {
    ArrowColor #2563eb
    ParticipantBorderColor #374151
    ParticipantBackgroundColor #F9FAFB
    LifeLineBorderColor #6B7280
    BoxBorderColor #94A3B8
    BoxBackgroundColor #F8FAFC
    NoteBorderColor #64748B
    NoteBackgroundColor #F8FAFC
}

header [[/microservices/svc-trail-management/#integration-context ⬆ svc-trail-management Integration Context]]

title GET /trails/{trail_id}/waypoints\nList waypoints for a trail

participant "Client" as Client [[/applications/]]
participant "API Gateway" as GW [[/actors/#api-gateway]] #E0F2FE
participant "svc-trail-management" as Svc [[/microservices/svc-trail-management/]] #FEF3C7
database "PostGIS" as DB [[/microservices/svc-trail-management/#data-store]] #FEF9C3

note over Svc
  [[/services/api/svc-trail-management.html#/Waypoints/getTrailWaypoints View in Swagger UI]]
end note

Client -> GW : GET /trails/{trail_id}/waypoints
activate GW #2563eb
GW -> Svc : route request
activate Svc #2563eb

== Database ==

Svc -> DB : SELECT ... WHERE parent_id = ?
activate DB #FEF9C3
DB - -> Svc : ResultSet
deactivate DB

Svc - -> GW : 200 OK
deactivate Svc
GW - -> Client : 200 OK
deactivate GW

@enduml

PlantUML version 1.2020.02(Sun Mar 01 10:22:07 UTC 2020)
(GPL source distribution)
Java Runtime: OpenJDK Runtime Environment
JVM: OpenJDK 64-Bit Server VM
Java Version: 17.0.18+8
Operating System: Linux
Default Encoding: UTF-8
Language: en
Country: null
--></g></svg>