<svg xmlns="http://www.w3.org/2000/svg" xmlns:xlink="http://www.w3.org/1999/xlink" contentStyleType="text/css" data-diagram-type="SEQUENCE" height="742px" preserveAspectRatio="none" style="width:797px;height:742px;background:#FEFEFE;" version="1.1" viewBox="0 0 797 742" width="797px" zoomAndPan="magnify"><title>POST /payments</title><defs/><g><rect fill="#FEFEFE" height="742" style="stroke:none;stroke-width:1;" width="797" x="0" y="0"/><text fill="#000000" font-family="Segoe UI" font-size="14" font-weight="bold" lengthAdjust="spacing" textLength="120.5313" x="334.4546" y="28.5352">POST /payments</text><text fill="#000000" font-family="Segoe UI" font-size="14" font-weight="bold" lengthAdjust="spacing" textLength="135.1533" x="327.1436" y="45.0234">Process a payment</text><g><title>API Gateway</title><rect fill="#059669" height="458.3477" style="stroke:#A23B72;stroke-width:1;" width="10" x="155.2793" y="188.0859"/></g><g><title>svc-payments</title><rect fill="#059669" height="399.7266" style="stroke:#A23B72;stroke-width:1;" width="10" x="269.4141" y="217.3965"/></g><g><title>Fraud Detection API</title><rect fill="#DBEAFE" height="29.3105" style="stroke:#A23B72;stroke-width:1;" width="10" x="414.627" y="325.3281"/></g><g><title>Stripe API</title><rect fill="#DBEAFE" height="29.3105" style="stroke:#A23B72;stroke-width:1;" width="10" x="538.0488" y="383.9492"/></g><g><title>PostgreSQL</title><rect fill="#FCE4EC" height="29.3105" style="stroke:#A23B72;stroke-width:1;" width="10" x="739.0156" y="485.8809"/></g><g><title>Client</title><rect fill="#000000" fill-opacity="0.00000" height="542.9688" width="8" x="27.7524" y="121.4648"/><line style="stroke:#A23B72;stroke-width:0.5;stroke-dasharray:5,5;" x1="31" x2="31" y1="121.4648" y2="664.4336"/></g><g><title>API Gateway</title><rect fill="#000000" fill-opacity="0.00000" height="542.9688" width="8" x="156.2793" y="121.4648"/><line style="stroke:#A23B72;stroke-width:0.5;stroke-dasharray:5,5;" x1="159.9902" x2="159.9902" y1="121.4648" y2="664.4336"/></g><g><title>svc-payments</title><rect fill="#000000" fill-opacity="0.00000" height="542.9688" width="8" x="270.4141" y="121.4648"/><line style="stroke:#A23B72;stroke-width:0.5;stroke-dasharray:5,5;" x1="273.6924" x2="273.6924" y1="121.4648" y2="664.4336"/></g><g><title>Fraud Detection API</title><rect fill="#000000" fill-opacity="0.00000" height="542.9688" width="8" x="415.627" y="121.4648"/><line style="stroke:#A23B72;stroke-width:0.5;stroke-dasharray:5,5;" x1="418.7168" x2="418.7168" y1="121.4648" y2="664.4336"/></g><g><title>Stripe API</title><rect fill="#000000" fill-opacity="0.00000" height="542.9688" width="8" x="539.0488" y="121.4648"/><line style="stroke:#A23B72;stroke-width:0.5;stroke-dasharray:5,5;" x1="542.5371" x2="542.5371" y1="121.4648" y2="664.4336"/></g><g><title>Notifications</title><rect fill="#000000" fill-opacity="0.00000" height="542.9688" width="8" x="638.5757" y="121.4648"/><line style="stroke:#A23B72;stroke-width:0.5;stroke-dasharray:5,5;" x1="642.5605" x2="642.5605" y1="121.4648" y2="664.4336"/></g><g><title>PostgreSQL</title><rect fill="#000000" fill-opacity="0.00000" height="542.9688" width="8" x="740.0156" y="121.4648"/><line style="stroke:#A23B72;stroke-width:0.5;stroke-dasharray:5,5;" x1="743.5908" x2="743.5908" y1="121.4648" y2="664.4336"/></g><g class="participant participant-head" data-participant="Client"><rect fill="#E8F4F8" height="30.4883" rx="2.5" ry="2.5" style="stroke:#2E86AB;stroke-width:0.5;" width="53.5049" x="5" y="89.9766"/><text fill="#000000" font-family="Segoe UI" font-size="14" lengthAdjust="spacing" textLength="39.5049" x="12" y="110.5117">Client</text></g><g class="participant participant-tail" data-participant="Client"><rect fill="#E8F4F8" height="30.4883" rx="2.5" ry="2.5" style="stroke:#2E86AB;stroke-width:0.5;" width="53.5049" x="5" y="663.4336"/><text fill="#000000" font-family="Segoe UI" font-size="14" lengthAdjust="spacing" textLength="39.5049" x="12" y="683.9688">Client</text></g><g class="participant participant-head" data-participant="GW"><rect fill="#DBEAFE" height="30.4883" rx="2.5" ry="2.5" style="stroke:#2E86AB;stroke-width:0.5;" width="96.5781" x="111.9902" y="89.9766"/><text fill="#000000" font-family="Segoe UI" font-size="14" lengthAdjust="spacing" textLength="82.5781" x="118.9902" y="110.5117">API Gateway</text></g><g class="participant participant-tail" data-participant="GW"><rect fill="#DBEAFE" height="30.4883" rx="2.5" ry="2.5" style="stroke:#2E86AB;stroke-width:0.5;" width="96.5781" x="111.9902" y="663.4336"/><text fill="#000000" font-family="Segoe UI" font-size="14" lengthAdjust="spacing" textLength="82.5781" x="118.9902" y="683.9688">API Gateway</text></g><g class="participant participant-head" data-participant="Svc"><a href="/microservices/svc-payments/" target="_top" title="/microservices/svc-payments/" xlink:actuate="onRequest" xlink:href="/microservices/svc-payments/" xlink:show="new" xlink:title="/microservices/svc-payments/" xlink:type="simple"><rect fill="#E8F4F8" height="30.4883" rx="2.5" ry="2.5" style="stroke:#2E86AB;stroke-width:0.5;" width="109.4434" x="219.6924" y="89.9766"/><text fill="#000000" font-family="Segoe UI" font-size="14" lengthAdjust="spacing" textLength="95.4434" x="226.6924" y="110.5117">svc-payments</text></a></g><g class="participant participant-tail" data-participant="Svc"><a href="/microservices/svc-payments/" target="_top" title="/microservices/svc-payments/" xlink:actuate="onRequest" xlink:href="/microservices/svc-payments/" xlink:show="new" xlink:title="/microservices/svc-payments/" xlink:type="simple"><rect fill="#E8F4F8" height="30.4883" rx="2.5" ry="2.5" style="stroke:#2E86AB;stroke-width:0.5;" width="109.4434" x="219.6924" y="663.4336"/><text fill="#000000" font-family="Segoe UI" font-size="14" lengthAdjust="spacing" textLength="95.4434" x="226.6924" y="683.9688">svc-payments</text></a></g><g class="participant participant-head" data-participant="FD"><rect fill="#F5F5F5" height="30.4883" rx="2.5" ry="2.5" style="stroke:#2E86AB;stroke-width:0.5;" width="147.8203" x="345.7168" y="89.9766"/><text fill="#000000" font-family="Segoe UI" font-size="14" lengthAdjust="spacing" textLength="133.8203" x="352.7168" y="110.5117">Fraud Detection API</text></g><g class="participant participant-tail" data-participant="FD"><rect fill="#F5F5F5" height="30.4883" rx="2.5" ry="2.5" style="stroke:#2E86AB;stroke-width:0.5;" width="147.8203" x="345.7168" y="663.4336"/><text fill="#000000" font-family="Segoe UI" font-size="14" lengthAdjust="spacing" textLength="133.8203" x="352.7168" y="683.9688">Fraud Detection API</text></g><g class="participant participant-head" data-participant="ExtPay"><rect fill="#F5F5F5" height="30.4883" rx="2.5" ry="2.5" style="stroke:#2E86AB;stroke-width:0.5;" width="79.0234" x="503.5371" y="89.9766"/><text fill="#000000" font-family="Segoe UI" font-size="14" lengthAdjust="spacing" textLength="65.0234" x="510.5371" y="110.5117">Stripe API</text></g><g class="participant participant-tail" data-participant="ExtPay"><rect fill="#F5F5F5" height="30.4883" rx="2.5" ry="2.5" style="stroke:#2E86AB;stroke-width:0.5;" width="79.0234" x="503.5371" y="663.4336"/><text fill="#000000" font-family="Segoe UI" font-size="14" lengthAdjust="spacing" textLength="65.0234" x="510.5371" y="683.9688">Stripe API</text></g><g class="participant participant-head" data-participant="Ntfy"><a href="/microservices/svc-notifications/" target="_top" title="/microservices/svc-notifications/" xlink:actuate="onRequest" xlink:href="/microservices/svc-notifications/" xlink:show="new" xlink:title="/microservices/svc-notifications/" xlink:type="simple"><rect fill="#FFF8F0" height="30.4883" rx="2.5" ry="2.5" style="stroke:#2E86AB;stroke-width:0.5;" width="100.0303" x="592.5605" y="89.9766"/><text fill="#000000" font-family="Segoe UI" font-size="14" lengthAdjust="spacing" textLength="86.0303" x="599.5605" y="110.5117">Notifications</text></a></g><g class="participant participant-tail" data-participant="Ntfy"><a href="/microservices/svc-notifications/" target="_top" title="/microservices/svc-notifications/" xlink:actuate="onRequest" xlink:href="/microservices/svc-notifications/" xlink:show="new" xlink:title="/microservices/svc-notifications/" xlink:type="simple"><rect fill="#FFF8F0" height="30.4883" rx="2.5" ry="2.5" style="stroke:#2E86AB;stroke-width:0.5;" width="100.0303" x="592.5605" y="663.4336"/><text fill="#000000" font-family="Segoe UI" font-size="14" lengthAdjust="spacing" textLength="86.0303" x="599.5605" y="683.9688">Notifications</text></a></g><g class="participant participant-head" data-participant="DB"><text fill="#000000" font-family="Segoe UI" font-size="14" lengthAdjust="spacing" textLength="76.8496" x="702.5908" y="118.5117">PostgreSQL</text><path d="M726.0156,68.9766 C726.0156,58.9766 744.0156,58.9766 744.0156,58.9766 C744.0156,58.9766 762.0156,58.9766 762.0156,68.9766 L762.0156,94.9766 C762.0156,104.9766 744.0156,104.9766 744.0156,104.9766 C744.0156,104.9766 726.0156,104.9766 726.0156,94.9766 L726.0156,68.9766" fill="#FCE4EC" style="stroke:#181818;stroke-width:0.5;"/><path d="M726.0156,68.9766 C726.0156,78.9766 744.0156,78.9766 744.0156,78.9766 C744.0156,78.9766 762.0156,78.9766 762.0156,68.9766" fill="none" style="stroke:#181818;stroke-width:0.5;"/></g><g class="participant participant-tail" data-participant="DB"><text fill="#000000" font-family="Segoe UI" font-size="14" lengthAdjust="spacing" textLength="76.8496" x="702.5908" y="676.9688">PostgreSQL</text><path d="M726.0156,689.9219 C726.0156,679.9219 744.0156,679.9219 744.0156,679.9219 C744.0156,679.9219 762.0156,679.9219 762.0156,689.9219 L762.0156,715.9219 C762.0156,725.9219 744.0156,725.9219 744.0156,725.9219 C744.0156,725.9219 726.0156,725.9219 726.0156,715.9219 L726.0156,689.9219" fill="#FCE4EC" style="stroke:#181818;stroke-width:0.5;"/><path d="M726.0156,689.9219 C726.0156,699.9219 744.0156,699.9219 744.0156,699.9219 C744.0156,699.9219 762.0156,699.9219 762.0156,689.9219" fill="none" style="stroke:#181818;stroke-width:0.5;"/></g><g><title>API Gateway</title><rect fill="#059669" height="458.3477" style="stroke:#A23B72;stroke-width:1;" width="10" x="155.2793" y="188.0859"/></g><g><title>svc-payments</title><rect fill="#059669" height="399.7266" style="stroke:#A23B72;stroke-width:1;" width="10" x="269.4141" y="217.3965"/></g><g><title>Fraud Detection API</title><rect fill="#DBEAFE" height="29.3105" style="stroke:#A23B72;stroke-width:1;" width="10" x="414.627" y="325.3281"/></g><g><title>Stripe API</title><rect fill="#DBEAFE" height="29.3105" style="stroke:#A23B72;stroke-width:1;" width="10" x="538.0488" y="383.9492"/></g><g><title>PostgreSQL</title><rect fill="#FCE4EC" height="29.3105" style="stroke:#A23B72;stroke-width:1;" width="10" x="739.0156" y="485.8809"/></g><path d="M204,136.4648 L204,161.4648 L344,161.4648 L344,146.4648 L334,136.4648 L204,136.4648" fill="#FEFFDD" style="stroke:#181818;stroke-width:0.5;"/><path d="M334,136.4648 L334,146.4648 L344,146.4648 L334,136.4648" fill="#FEFFDD" style="stroke:#181818;stroke-width:0.5;"/><a href="/services/api/svc-payments.html#/Payments/processPayment" target="_top" title="/services/api/svc-payments.html#/Payments/processPayment" xlink:actuate="onRequest" xlink:href="/services/api/svc-payments.html#/Payments/processPayment" xlink:show="new" xlink:title="/services/api/svc-payments.html#/Payments/processPayment" xlink:type="simple"><text fill="#0000FF" font-family="Segoe UI" font-size="13" lengthAdjust="spacing" text-decoration="underline" textLength="119.4058" x="210" y="154.0332">View in Swagger UI</text></a><g class="message" data-participant-1="Client" data-participant-2="GW"><polygon fill="#059669" points="143.2793,184.0859,153.2793,188.0859,143.2793,192.0859,147.2793,188.0859" style="stroke:#059669;stroke-width:1;"/><line style="stroke:#059669;stroke-width:1;" x1="31.7524" x2="149.2793" y1="188.0859" y2="188.0859"/><text fill="#000000" font-family="Segoe UI" font-size="13" lengthAdjust="spacing" textLength="104.5269" x="38.7524" y="183.3438">POST /payments</text></g><g class="message" data-participant-1="GW" data-participant-2="Svc"><polygon fill="#059669" points="257.4141,213.3965,267.4141,217.3965,257.4141,221.3965,261.4141,217.3965" style="stroke:#059669;stroke-width:1;"/><line style="stroke:#059669;stroke-width:1;" x1="165.2793" x2="263.4141" y1="217.3965" y2="217.3965"/><text fill="#000000" font-family="Segoe UI" font-size="13" lengthAdjust="spacing" textLength="85.1348" x="172.2793" y="212.6543">route request</text></g><path d="M284,230.3965 L284,255.3965 L442,255.3965 L442,240.3965 L432,230.3965 L284,230.3965" fill="#FEFFDD" style="stroke:#181818;stroke-width:0.5;"/><path d="M432,230.3965 L432,240.3965 L442,240.3965 L432,230.3965" fill="#FEFFDD" style="stroke:#181818;stroke-width:0.5;"/><text fill="#000000" font-family="Segoe UI" font-size="13" lengthAdjust="spacing" textLength="137.5728" x="290" y="247.9648">Validate request body</text><rect fill="#EEEEEE" height="3" style="stroke:#EEEEEE;stroke-width:1;" width="790.4404" x="0" y="281.3623"/><line style="stroke:#000000;stroke-width:1;" x1="0" x2="790.4404" y1="281.3623" y2="281.3623"/><line style="stroke:#000000;stroke-width:1;" x1="0" x2="790.4404" y1="284.3623" y2="284.3623"/><rect fill="#EEEEEE" height="23.3105" style="stroke:#000000;stroke-width:2;" width="190.6743" x="299.8831" y="270.707"/><text fill="#000000" font-family="Segoe UI" font-size="13" font-weight="bold" lengthAdjust="spacing" textLength="172.3896" x="305.8831" y="287.2754">Cross-Service Integration</text><g class="message" data-participant-1="Svc" data-participant-2="FD"><polygon fill="#059669" points="402.627,321.3281,412.627,325.3281,402.627,329.3281,406.627,325.3281" style="stroke:#059669;stroke-width:1;"/><line style="stroke:#059669;stroke-width:1;" x1="279.4141" x2="408.627" y1="325.3281" y2="325.3281"/><text fill="#000000" font-family="Segoe UI" font-size="13" lengthAdjust="spacing" textLength="116.2129" x="286.4141" y="320.5859">Screen transaction</text></g><g class="message" data-participant-1="FD" data-participant-2="Svc"><polygon fill="#059669" points="290.4141,350.6387,280.4141,354.6387,290.4141,358.6387,286.4141,354.6387" style="stroke:#059669;stroke-width:1;"/><line style="stroke:#059669;stroke-width:1;stroke-dasharray:2,2;" x1="284.4141" x2="418.627" y1="354.6387" y2="354.6387"/><text fill="#000000" font-family="Segoe UI" font-size="13" lengthAdjust="spacing" textLength="18.5859" x="296.4141" y="349.8965">OK</text></g><g class="message" data-participant-1="Svc" data-participant-2="ExtPay"><polygon fill="#059669" points="526.0488,379.9492,536.0488,383.9492,526.0488,387.9492,530.0488,383.9492" style="stroke:#059669;stroke-width:1;"/><line style="stroke:#059669;stroke-width:1;" x1="279.4141" x2="532.0488" y1="383.9492" y2="383.9492"/><text fill="#000000" font-family="Segoe UI" font-size="13" lengthAdjust="spacing" textLength="106.2217" x="286.4141" y="379.207">Process payment</text></g><g class="message" data-participant-1="ExtPay" data-participant-2="Svc"><polygon fill="#059669" points="290.4141,409.2598,280.4141,413.2598,290.4141,417.2598,286.4141,413.2598" style="stroke:#059669;stroke-width:1;"/><line style="stroke:#059669;stroke-width:1;stroke-dasharray:2,2;" x1="284.4141" x2="542.0488" y1="413.2598" y2="413.2598"/><text fill="#000000" font-family="Segoe UI" font-size="13" lengthAdjust="spacing" textLength="18.5859" x="296.4141" y="408.5176">OK</text></g><rect fill="#EEEEEE" height="3" style="stroke:#EEEEEE;stroke-width:1;" width="790.4404" x="0" y="441.915"/><line style="stroke:#000000;stroke-width:1;" x1="0" x2="790.4404" y1="441.915" y2="441.915"/><line style="stroke:#000000;stroke-width:1;" x1="0" x2="790.4404" y1="444.915" y2="444.915"/><rect fill="#EEEEEE" height="23.3105" style="stroke:#000000;stroke-width:2;" width="80.3711" x="355.0347" y="431.2598"/><text fill="#000000" font-family="Segoe UI" font-size="13" font-weight="bold" lengthAdjust="spacing" textLength="62.0864" x="361.0347" y="447.8281">Database</text><g class="message" data-participant-1="Svc" data-participant-2="DB"><polygon fill="#059669" points="727.0156,481.8809,737.0156,485.8809,727.0156,489.8809,731.0156,485.8809" style="stroke:#059669;stroke-width:1;"/><line style="stroke:#059669;stroke-width:1;" x1="279.4141" x2="733.0156" y1="485.8809" y2="485.8809"/><text fill="#000000" font-family="Segoe UI" font-size="13" lengthAdjust="spacing" textLength="96.0718" x="286.4141" y="481.1387">INSERT INTO ...</text></g><g class="message" data-participant-1="DB" data-participant-2="Svc"><polygon fill="#059669" points="290.4141,511.1914,280.4141,515.1914,290.4141,519.1914,286.4141,515.1914" style="stroke:#059669;stroke-width:1;"/><line style="stroke:#059669;stroke-width:1;stroke-dasharray:2,2;" x1="284.4141" x2="743.0156" y1="515.1914" y2="515.1914"/><text fill="#000000" font-family="Segoe UI" font-size="13" lengthAdjust="spacing" textLength="76.4575" x="296.4141" y="510.4492">Created row</text></g><rect fill="#EEEEEE" height="3" style="stroke:#EEEEEE;stroke-width:1;" width="790.4404" x="0" y="543.8467"/><line style="stroke:#000000;stroke-width:1;" x1="0" x2="790.4404" y1="543.8467" y2="543.8467"/><line style="stroke:#000000;stroke-width:1;" x1="0" x2="790.4404" y1="546.8467" y2="546.8467"/><rect fill="#EEEEEE" height="23.3105" style="stroke:#000000;stroke-width:2;" width="106.8218" x="341.8093" y="533.1914"/><text fill="#000000" font-family="Segoe UI" font-size="13" font-weight="bold" lengthAdjust="spacing" textLength="88.5371" x="347.8093" y="549.7598">Async Events</text><g class="message" data-participant-1="Svc" data-participant-2="Ntfy"><line style="stroke:#059669;stroke-width:1;" x1="640.5757" x2="630.5757" y1="587.8125" y2="583.8125"/><line style="stroke:#059669;stroke-width:1;" x1="640.5757" x2="630.5757" y1="587.8125" y2="591.8125"/><line style="stroke:#059669;stroke-width:1;" x1="279.4141" x2="641.5757" y1="587.8125" y2="587.8125"/><a href="/microservices/svc-notifications/#post-notifications-send-a-notification" target="_top" title="/microservices/svc-notifications/#post-notifications-send-a-notification" xlink:actuate="onRequest" xlink:href="/microservices/svc-notifications/#post-notifications-send-a-notification" xlink:show="new" xlink:title="/microservices/svc-notifications/#post-notifications-send-a-notification" xlink:type="simple"><text fill="#0000FF" font-family="Segoe UI" font-size="13" lengthAdjust="spacing" text-decoration="underline" textLength="136.4492" x="286.4141" y="583.0703">Send payment receipt</text></a></g><g class="message" data-participant-1="Svc" data-participant-2="GW"><polygon fill="#059669" points="176.2793,613.123,166.2793,617.123,176.2793,621.123,172.2793,617.123" style="stroke:#059669;stroke-width:1;"/><line style="stroke:#059669;stroke-width:1;stroke-dasharray:2,2;" x1="170.2793" x2="273.4141" y1="617.123" y2="617.123"/><text fill="#000000" font-family="Segoe UI" font-size="13" lengthAdjust="spacing" textLength="77.7969" x="182.2793" y="612.3809">201 Created</text></g><g class="message" data-participant-1="GW" data-participant-2="Client"><polygon fill="#059669" points="42.7524,642.4336,32.7524,646.4336,42.7524,650.4336,38.7524,646.4336" style="stroke:#059669;stroke-width:1;"/><line style="stroke:#059669;stroke-width:1;stroke-dasharray:2,2;" x1="36.7524" x2="159.2793" y1="646.4336" y2="646.4336"/><text fill="#000000" font-family="Segoe UI" font-size="13" lengthAdjust="spacing" textLength="77.7969" x="48.7524" y="641.6914">201 Created</text></g><!--SRC=[ZLFRRk8m47ttLupW6MZf1Of49Iv9XRPgsKql3rqUJ3AaLi7EsWQALlllEywDPDjAInvmV8vdnkUSc3SX4wxv1fOyV8krsifeejPAGzFttCDCoJ2lF59x8MDOyRN12XBXYc_NrbVItl4DGYF0M24ypXhLu_XhYp94-Cs0VYEjrJvlTN9nTNbvbMxFkROY50cNTgnqX3gdTBt-vMZyWVBlq5xVF_VxAUrMhF1MIAoL6NNFnhrkYe_LUmtoJ_l-oMa9VP33zmbFuJjbwrN3NczvLi4-aVBCwx4_Z5bXrmZp- -01EWa_R51QyrFEjGhH6E2Gxp6M72y9ZSbQq6O3k85iMOT7yndSS8jxVaWvDy_Gd8wz4RbNuvbTs2gQfiHW5yBBIsSZGgqCwfsWAJfLLcUnA3MjbV8rtqOmHOkX5Ke2ZP1MzATqsmltrFc1rIB1akQzspa_V4ub1SLAXDpLpSQyiwl3vtFAAZSTDhSfufOlkQ4epfMniSRW-srQQpecpiGxzoQCqMa4jKFjX23tg4LPdIUYfaJxrMxMpSwy42R9BClVuKdW7eI4OC_Zc0e-pXOBXZ82ruEnp3LeNJjl1l_uppXfk2F_KkFoRu6Mn7O63O2YHA1stu-nHxO32tfs5otYLmjgbPzxuciHyUDHMAhemDXm21FIqRI2xB8manPZdOe8mo5ZxZGr9oy748GQKOBLN1gUUdqSm9cTvuoMhNBU-syimWghh9ZRJWBaWI_YNfABOEHbyzUlIcTmUgDfONZb0kJr06PtWVVZWVuUxg7TRXzRLP90osEBYKQ28r9zN-qr7QTzHkOWG_1sphXAh-iif8F_YMapeKZMzrg6ijBYjKq8N7voXSZ244LYALLPno9AtPFJOkBgj2xGBa94oxFt9VNccVq5]--></g></svg>