<svg xmlns="http://www.w3.org/2000/svg" xmlns:xlink="http://www.w3.org/1999/xlink" contentStyleType="text/css" data-diagram-type="SEQUENCE" height="509px" preserveAspectRatio="none" style="width:831px;height:509px;background:#FEFEFE;" version="1.1" viewBox="0 0 831 509" width="831px" zoomAndPan="magnify"><title>GET /analytics/guide-performance/{guide_id}</title><defs/><g><rect fill="#FEFEFE" height="509" style="stroke:none;stroke-width:1;" width="831" x="0" y="0"/><text fill="#000000" font-family="Segoe UI" font-size="14" font-weight="bold" lengthAdjust="spacing" textLength="333.5117" x="244.7727" y="28.5352">GET /analytics/guide-performance/{guide_id}</text><text fill="#000000" font-family="Segoe UI" font-size="14" font-weight="bold" lengthAdjust="spacing" textLength="322.3555" x="250.3508" y="45.0234">Get performance metrics for a specific guide</text><g><title>API Gateway</title><rect fill="#2563EB" height="225.1738" style="stroke:#A23B72;stroke-width:1;" width="10" x="340.104" y="188.0859"/></g><g><title>svc-analytics</title><rect fill="#2563EB" height="166.5527" style="stroke:#A23B72;stroke-width:1;" width="10" x="454.2388" y="217.3965"/></g><g><title>Oracle</title><rect fill="#FCE4EC" height="29.3105" style="stroke:#A23B72;stroke-width:1;" width="10" x="632.1294" y="290.0176"/></g><g><title>Client</title><rect fill="#000000" fill-opacity="0.00000" height="309.7949" width="8" x="27.7524" y="121.4648"/><line style="stroke:#A23B72;stroke-width:0.5;stroke-dasharray:5,5;" x1="31" x2="31" y1="121.4648" y2="431.2598"/></g><g><title>API Gateway</title><rect fill="#000000" fill-opacity="0.00000" height="309.7949" width="8" x="341.104" y="121.4648"/><line style="stroke:#A23B72;stroke-width:0.5;stroke-dasharray:5,5;" x1="344.8149" x2="344.8149" y1="121.4648" y2="431.2598"/></g><g><title>svc-analytics</title><rect fill="#000000" fill-opacity="0.00000" height="309.7949" width="8" x="455.2388" y="121.4648"/><line style="stroke:#A23B72;stroke-width:0.5;stroke-dasharray:5,5;" x1="458.8599" x2="458.8599" y1="121.4648" y2="431.2598"/></g><g><title>Oracle</title><rect fill="#000000" fill-opacity="0.00000" height="309.7949" width="8" x="633.1294" y="121.4648"/><line style="stroke:#A23B72;stroke-width:0.5;stroke-dasharray:5,5;" x1="636.4526" x2="636.4526" y1="121.4648" y2="431.2598"/></g><g class="participant participant-head" data-participant="Client"><rect fill="#E8F4F8" height="30.4883" rx="2.5" ry="2.5" style="stroke:#2E86AB;stroke-width:0.5;" width="53.5049" x="5" y="89.9766"/><text fill="#000000" font-family="Segoe UI" font-size="14" lengthAdjust="spacing" textLength="39.5049" x="12" y="110.5117">Client</text></g><g class="participant participant-tail" data-participant="Client"><rect fill="#E8F4F8" height="30.4883" rx="2.5" ry="2.5" style="stroke:#2E86AB;stroke-width:0.5;" width="53.5049" x="5" y="430.2598"/><text fill="#000000" font-family="Segoe UI" font-size="14" lengthAdjust="spacing" textLength="39.5049" x="12" y="450.7949">Client</text></g><g class="participant participant-head" data-participant="GW"><rect fill="#DBEAFE" height="30.4883" rx="2.5" ry="2.5" style="stroke:#2E86AB;stroke-width:0.5;" width="96.5781" x="296.8149" y="89.9766"/><text fill="#000000" font-family="Segoe UI" font-size="14" lengthAdjust="spacing" textLength="82.5781" x="303.8149" y="110.5117">API Gateway</text></g><g class="participant participant-tail" data-participant="GW"><rect fill="#DBEAFE" height="30.4883" rx="2.5" ry="2.5" style="stroke:#2E86AB;stroke-width:0.5;" width="96.5781" x="296.8149" y="430.2598"/><text fill="#000000" font-family="Segoe UI" font-size="14" lengthAdjust="spacing" textLength="82.5781" x="303.8149" y="450.7949">API Gateway</text></g><g class="participant participant-head" data-participant="Svc"><a href="/microservices/svc-analytics/" target="_top" title="/microservices/svc-analytics/" xlink:actuate="onRequest" xlink:href="/microservices/svc-analytics/" xlink:show="new" xlink:title="/microservices/svc-analytics/" xlink:type="simple"><rect fill="#E8F4F8" height="30.4883" rx="2.5" ry="2.5" style="stroke:#2E86AB;stroke-width:0.5;" width="102.7578" x="407.8599" y="89.9766"/><text fill="#000000" font-family="Segoe UI" font-size="14" lengthAdjust="spacing" textLength="88.7578" x="414.8599" y="110.5117">svc-analytics</text></a></g><g class="participant participant-tail" data-participant="Svc"><a href="/microservices/svc-analytics/" target="_top" title="/microservices/svc-analytics/" xlink:actuate="onRequest" xlink:href="/microservices/svc-analytics/" xlink:show="new" xlink:title="/microservices/svc-analytics/" xlink:type="simple"><rect fill="#E8F4F8" height="30.4883" rx="2.5" ry="2.5" style="stroke:#2E86AB;stroke-width:0.5;" width="102.7578" x="407.8599" y="430.2598"/><text fill="#000000" font-family="Segoe UI" font-size="14" lengthAdjust="spacing" textLength="88.7578" x="414.8599" y="450.7949">svc-analytics</text></a></g><g class="participant participant-head" data-participant="DB"><text fill="#000000" font-family="Segoe UI" font-size="14" lengthAdjust="spacing" textLength="43.3535" x="612.4526" y="118.5117">Oracle</text><path d="M619.1294,68.9766 C619.1294,58.9766 637.1294,58.9766 637.1294,58.9766 C637.1294,58.9766 655.1294,58.9766 655.1294,68.9766 L655.1294,94.9766 C655.1294,104.9766 637.1294,104.9766 637.1294,104.9766 C637.1294,104.9766 619.1294,104.9766 619.1294,94.9766 L619.1294,68.9766" fill="#FCE4EC" style="stroke:#181818;stroke-width:0.5;"/><path d="M619.1294,68.9766 C619.1294,78.9766 637.1294,78.9766 637.1294,78.9766 C637.1294,78.9766 655.1294,78.9766 655.1294,68.9766" fill="none" style="stroke:#181818;stroke-width:0.5;"/></g><g class="participant participant-tail" data-participant="DB"><text fill="#000000" font-family="Segoe UI" font-size="14" lengthAdjust="spacing" textLength="43.3535" x="612.4526" y="443.7949">Oracle</text><path d="M619.1294,456.748 C619.1294,446.748 637.1294,446.748 637.1294,446.748 C637.1294,446.748 655.1294,446.748 655.1294,456.748 L655.1294,482.748 C655.1294,492.748 637.1294,492.748 637.1294,492.748 C637.1294,492.748 619.1294,492.748 619.1294,482.748 L619.1294,456.748" fill="#FCE4EC" style="stroke:#181818;stroke-width:0.5;"/><path d="M619.1294,456.748 C619.1294,466.748 637.1294,466.748 637.1294,466.748 C637.1294,466.748 655.1294,466.748 655.1294,456.748" fill="none" style="stroke:#181818;stroke-width:0.5;"/></g><g><title>API Gateway</title><rect fill="#2563EB" height="225.1738" style="stroke:#A23B72;stroke-width:1;" width="10" x="340.104" y="188.0859"/></g><g><title>svc-analytics</title><rect fill="#2563EB" height="166.5527" style="stroke:#A23B72;stroke-width:1;" width="10" x="454.2388" y="217.3965"/></g><g><title>Oracle</title><rect fill="#FCE4EC" height="29.3105" style="stroke:#A23B72;stroke-width:1;" width="10" x="632.1294" y="290.0176"/></g><path d="M389,136.4648 L389,161.4648 L529,161.4648 L529,146.4648 L519,136.4648 L389,136.4648" fill="#FEFFDD" style="stroke:#181818;stroke-width:0.5;"/><path d="M519,136.4648 L519,146.4648 L529,146.4648 L519,136.4648" fill="#FEFFDD" style="stroke:#181818;stroke-width:0.5;"/><a href="/services/api/svc-analytics.html#/Staff/getGuidePerformance" target="_top" title="/services/api/svc-analytics.html#/Staff/getGuidePerformance" xlink:actuate="onRequest" xlink:href="/services/api/svc-analytics.html#/Staff/getGuidePerformance" xlink:show="new" xlink:title="/services/api/svc-analytics.html#/Staff/getGuidePerformance" xlink:type="simple"><text fill="#0000FF" font-family="Segoe UI" font-size="13" lengthAdjust="spacing" text-decoration="underline" textLength="119.4058" x="395" y="154.0332">View in Swagger UI</text></a><g class="message" data-participant-1="Client" data-participant-2="GW"><polygon fill="#2563EB" points="328.104,184.0859,338.104,188.0859,328.104,192.0859,332.104,188.0859" style="stroke:#2563EB;stroke-width:1;"/><line style="stroke:#2563EB;stroke-width:1;" x1="31.7524" x2="334.104" y1="188.0859" y2="188.0859"/><text fill="#000000" font-family="Segoe UI" font-size="13" lengthAdjust="spacing" textLength="289.3516" x="38.7524" y="183.3438">GET /analytics/guide-performance/{guide_id}</text></g><g class="message" data-participant-1="GW" data-participant-2="Svc"><polygon fill="#2563EB" points="442.2388,213.3965,452.2388,217.3965,442.2388,221.3965,446.2388,217.3965" style="stroke:#2563EB;stroke-width:1;"/><line style="stroke:#2563EB;stroke-width:1;" x1="350.104" x2="448.2388" y1="217.3965" y2="217.3965"/><text fill="#000000" font-family="Segoe UI" font-size="13" lengthAdjust="spacing" textLength="85.1348" x="357.104" y="212.6543">route request</text></g><rect fill="#EEEEEE" height="3" style="stroke:#EEEEEE;stroke-width:1;" width="824.0571" x="0" y="246.0518"/><line style="stroke:#000000;stroke-width:1;" x1="0" x2="824.0571" y1="246.0518" y2="246.0518"/><line style="stroke:#000000;stroke-width:1;" x1="0" x2="824.0571" y1="249.0518" y2="249.0518"/><rect fill="#EEEEEE" height="23.3105" style="stroke:#000000;stroke-width:2;" width="80.3711" x="371.843" y="235.3965"/><text fill="#000000" font-family="Segoe UI" font-size="13" font-weight="bold" lengthAdjust="spacing" textLength="62.0864" x="377.843" y="251.9648">Database</text><g class="message" data-participant-1="Svc" data-participant-2="DB"><polygon fill="#2563EB" points="620.1294,286.0176,630.1294,290.0176,620.1294,294.0176,624.1294,290.0176" style="stroke:#2563EB;stroke-width:1;"/><line style="stroke:#2563EB;stroke-width:1;" x1="464.2388" x2="626.1294" y1="290.0176" y2="290.0176"/><text fill="#000000" font-family="Segoe UI" font-size="13" lengthAdjust="spacing" textLength="148.8906" x="471.2388" y="285.2754">SELECT ... WHERE id = ?</text></g><g class="message" data-participant-1="DB" data-participant-2="Svc"><polygon fill="#2563EB" points="475.2388,315.3281,465.2388,319.3281,475.2388,323.3281,471.2388,319.3281" style="stroke:#2563EB;stroke-width:1;"/><line style="stroke:#2563EB;stroke-width:1;stroke-dasharray:2,2;" x1="469.2388" x2="636.1294" y1="319.3281" y2="319.3281"/><text fill="#000000" font-family="Segoe UI" font-size="13" lengthAdjust="spacing" textLength="26.2222" x="481.2388" y="314.5859">Row</text></g><path d="M642,332.3281 L642,357.3281 L819,357.3281 L819,342.3281 L809,332.3281 L642,332.3281" fill="#FEFFDD" style="stroke:#181818;stroke-width:0.5;"/><path d="M809,332.3281 L809,342.3281 L819,342.3281 L809,332.3281" fill="#FEFFDD" style="stroke:#181818;stroke-width:0.5;"/><text fill="#000000" font-family="Segoe UI" font-size="13" lengthAdjust="spacing" textLength="156.0571" x="648" y="349.8965">Returns 404 if not found</text><g class="message" data-participant-1="Svc" data-participant-2="GW"><polygon fill="#2563EB" points="361.104,379.9492,351.104,383.9492,361.104,387.9492,357.104,383.9492" style="stroke:#2563EB;stroke-width:1;"/><line style="stroke:#2563EB;stroke-width:1;stroke-dasharray:2,2;" x1="355.104" x2="458.2388" y1="383.9492" y2="383.9492"/><text fill="#000000" font-family="Segoe UI" font-size="13" lengthAdjust="spacing" textLength="47.3599" x="367.104" y="379.207">200 OK</text></g><g class="message" data-participant-1="GW" data-participant-2="Client"><polygon fill="#2563EB" points="42.7524,409.2598,32.7524,413.2598,42.7524,417.2598,38.7524,413.2598" style="stroke:#2563EB;stroke-width:1;"/><line style="stroke:#2563EB;stroke-width:1;stroke-dasharray:2,2;" x1="36.7524" x2="344.104" y1="413.2598" y2="413.2598"/><text fill="#000000" font-family="Segoe UI" font-size="13" lengthAdjust="spacing" textLength="47.3599" x="48.7524" y="408.5176">200 OK</text></g><!--SRC=[bP9HRzem58NV_Ikku1b2WHM4n2O2IOQ6MWJjUEZGP9ARO3MnCzkGLbN_-vm08LdxikJ5yZa-zltkLS-CfrJI17RKVuwaEF1WAc8XeUaw-KzKwL1x6eYCyGX26YkiA066z11hLt1zHnE4nXeZWV0uRrIFuvy3SX_XZO3v9bAAx7nLzyjj3tV5zf9ApNoMKgvj8GEK5uipl9tO7op_FjePkdrtMDWMBCG5urYBcNHxzg1RwBPugKdkpT3jt9JI1nokQ_H2lXEwdkeF1hjUHVi4PSyPa7T2DDCnWkSyW4KvZLzD8SgA3Yp0Leeo53AX1f7rLcpzPi7xB-wXXee62MffJe7P00egHP-5p8VY127f5GuqfZ53hXj05PoMTNcod8D7DMRqjV1u6sZER6TYkbxpgQFVAbzREDT77vwUh8JvKYYKH-QZicesQxijkn5GJNTKcRcubzIFiOYOsORBrEaxKqAuWGRYY38FDXXDT9bAKrPFRkzr4ZUjjQPXQ4MelRpmPGNGJuOPC0xhZ4QHoNoSRxS4UG3vDOISI43hQrxlw7zwGQYlsT40AqYTXzOiJLGEP0IcvqQK-Q0hVNNduiLEncEONNYCnuJaeWamE4QmTXREz07QxJPilZih1rW0O_XsJQf0CyjMUV5AP2J0Yks4LB9ehq64f_GLweFa2lgTFh0mfs5co0pf-GqN8DrE1-v_LEFofkHb6iSPtcSkRqF-0W00]--></g></svg>