<svg xmlns="http://www.w3.org/2000/svg" xmlns:xlink="http://www.w3.org/1999/xlink" contentStyleType="text/css" data-diagram-type="SEQUENCE" height="718px" preserveAspectRatio="none" style="width:884px;height:718px;background:#FEFEFE;" version="1.1" viewBox="0 0 884 718" width="884px" zoomAndPan="magnify"><title>PUT /reservations/{reservation_id}/status</title><defs/><g><rect fill="#FEFEFE" height="718" style="stroke:none;stroke-width:1;" width="884" x="0" y="0"/><text fill="#000000" font-family="Segoe UI" font-size="14" font-weight="bold" lengthAdjust="spacing" textLength="304.541" x="285.8394" y="41.3125">PUT /reservations/{reservation_id}/status</text><text fill="#000000" font-family="Segoe UI" font-size="14" font-weight="bold" lengthAdjust="spacing" textLength="210.0615" x="333.0791" y="57.8008">Transition reservation status</text><g><title>API Gateway</title><rect fill="#C77B30" height="421.0371" style="stroke:#A23B72;stroke-width:1;" width="10" x="312.1426" y="200.8633"/></g><g><title>svc-reservations</title><rect fill="#C77B30" height="362.416" style="stroke:#A23B72;stroke-width:1;" width="10" x="433.6982" y="230.1738"/></g><g><title>PostgreSQL</title><rect fill="#FCE4EC" height="29.3105" style="stroke:#A23B72;stroke-width:1;" width="10" x="825.7949" y="338.1055"/></g><g><title>PostgreSQL</title><rect fill="#FCE4EC" height="29.3105" style="stroke:#A23B72;stroke-width:1;" width="10" x="825.7949" y="432.0371"/></g><g><title>Client</title><rect fill="#000000" fill-opacity="0.00000" height="505.6582" width="8" x="27.7524" y="134.2422"/><line style="stroke:#A23B72;stroke-width:0.5;stroke-dasharray:5,5;" x1="31" x2="31" y1="134.2422" y2="639.9004"/></g><g><title>API Gateway</title><rect fill="#000000" fill-opacity="0.00000" height="505.6582" width="8" x="313.1426" y="134.2422"/><line style="stroke:#A23B72;stroke-width:0.5;stroke-dasharray:5,5;" x1="316.8535" x2="316.8535" y1="134.2422" y2="639.9004"/></g><g><title>svc-reservations</title><rect fill="#000000" fill-opacity="0.00000" height="505.6582" width="8" x="434.6982" y="134.2422"/><line style="stroke:#A23B72;stroke-width:0.5;stroke-dasharray:5,5;" x1="438.4316" x2="438.4316" y1="134.2422" y2="639.9004"/></g><g><title>Kafka</title><rect fill="#000000" fill-opacity="0.00000" height="505.6582" width="8" x="636.3735" y="134.2422"/><line style="stroke:#A23B72;stroke-width:0.5;stroke-dasharray:5,5;" x1="639.4072" x2="639.4072" y1="134.2422" y2="639.9004"/></g><g><title>Notifications</title><rect fill="#000000" fill-opacity="0.00000" height="505.6582" width="8" x="725.355" y="134.2422"/><line style="stroke:#A23B72;stroke-width:0.5;stroke-dasharray:5,5;" x1="729.3398" x2="729.3398" y1="134.2422" y2="639.9004"/></g><g><title>PostgreSQL</title><rect fill="#000000" fill-opacity="0.00000" height="505.6582" width="8" x="826.7949" y="134.2422"/><line style="stroke:#A23B72;stroke-width:0.5;stroke-dasharray:5,5;" x1="830.3701" x2="830.3701" y1="134.2422" y2="639.9004"/></g><g class="participant participant-head" data-participant="Client"><a href="/applications/" target="_top" title="/applications/" xlink:actuate="onRequest" xlink:href="/applications/" xlink:show="new" xlink:title="/applications/" xlink:type="simple"><rect fill="#E8F4F8" height="30.4883" rx="2.5" ry="2.5" style="stroke:#2E86AB;stroke-width:0.5;" width="53.5049" x="5" y="102.7539"/><text fill="#000000" font-family="Segoe UI" font-size="14" lengthAdjust="spacing" textLength="39.5049" x="12" y="123.2891">Client</text></a></g><g class="participant participant-tail" data-participant="Client"><a href="/applications/" target="_top" title="/applications/" xlink:actuate="onRequest" xlink:href="/applications/" xlink:show="new" xlink:title="/applications/" xlink:type="simple"><rect fill="#E8F4F8" height="30.4883" rx="2.5" ry="2.5" style="stroke:#2E86AB;stroke-width:0.5;" width="53.5049" x="5" y="638.9004"/><text fill="#000000" font-family="Segoe UI" font-size="14" lengthAdjust="spacing" textLength="39.5049" x="12" y="659.4355">Client</text></a></g><g class="participant participant-head" data-participant="GW"><rect fill="#DBEAFE" height="30.4883" rx="2.5" ry="2.5" style="stroke:#2E86AB;stroke-width:0.5;" width="96.5781" x="268.8535" y="102.7539"/><text fill="#000000" font-family="Segoe UI" font-size="14" lengthAdjust="spacing" textLength="82.5781" x="275.8535" y="123.2891">API Gateway</text></g><g class="participant participant-tail" data-participant="GW"><rect fill="#DBEAFE" height="30.4883" rx="2.5" ry="2.5" style="stroke:#2E86AB;stroke-width:0.5;" width="96.5781" x="268.8535" y="638.9004"/><text fill="#000000" font-family="Segoe UI" font-size="14" lengthAdjust="spacing" textLength="82.5781" x="275.8535" y="659.4355">API Gateway</text></g><g class="participant participant-head" data-participant="Svc"><a href="/microservices/svc-reservations/" target="_top" title="/microservices/svc-reservations/" xlink:actuate="onRequest" xlink:href="/microservices/svc-reservations/" xlink:show="new" xlink:title="/microservices/svc-reservations/" xlink:type="simple"><rect fill="#E8F4F8" height="30.4883" rx="2.5" ry="2.5" style="stroke:#2E86AB;stroke-width:0.5;" width="126.5332" x="375.4316" y="102.7539"/><text fill="#000000" font-family="Segoe UI" font-size="14" lengthAdjust="spacing" textLength="112.5332" x="382.4316" y="123.2891">svc-reservations</text></a></g><g class="participant participant-tail" data-participant="Svc"><a href="/microservices/svc-reservations/" target="_top" title="/microservices/svc-reservations/" xlink:actuate="onRequest" xlink:href="/microservices/svc-reservations/" xlink:show="new" xlink:title="/microservices/svc-reservations/" xlink:type="simple"><rect fill="#E8F4F8" height="30.4883" rx="2.5" ry="2.5" style="stroke:#2E86AB;stroke-width:0.5;" width="126.5332" x="375.4316" y="638.9004"/><text fill="#000000" font-family="Segoe UI" font-size="14" lengthAdjust="spacing" textLength="112.5332" x="382.4316" y="659.4355">svc-reservations</text></a></g><g class="participant participant-head" data-participant="Kafka"><path d="M616.4072,107.7539 L664.3398,107.7539 C669.3398,107.7539 669.3398,120.998 669.3398,120.998 C669.3398,120.998 669.3398,134.2422 664.3398,134.2422 L616.4072,134.2422 C611.4072,134.2422 611.4072,120.998 611.4072,120.998 C611.4072,120.998 611.4072,107.7539 616.4072,107.7539" fill="#F0E6FF" style="stroke:#181818;stroke-width:0.5;"/><path d="M664.3398,107.7539 C659.3398,107.7539 659.3398,120.998 659.3398,120.998 C659.3398,134.2422 664.3398,134.2422 664.3398,134.2422" fill="none" style="stroke:#181818;stroke-width:0.5;"/><text fill="#000000" font-family="Segoe UI" font-size="14" lengthAdjust="spacing" textLength="37.9326" x="616.4072" y="126.2891">Kafka</text></g><g class="participant participant-tail" data-participant="Kafka"><path d="M616.4072,638.9004 L664.3398,638.9004 C669.3398,638.9004 669.3398,652.1445 669.3398,652.1445 C669.3398,652.1445 669.3398,665.3887 664.3398,665.3887 L616.4072,665.3887 C611.4072,665.3887 611.4072,652.1445 611.4072,652.1445 C611.4072,652.1445 611.4072,638.9004 616.4072,638.9004" fill="#F0E6FF" style="stroke:#181818;stroke-width:0.5;"/><path d="M664.3398,638.9004 C659.3398,638.9004 659.3398,652.1445 659.3398,652.1445 C659.3398,665.3887 664.3398,665.3887 664.3398,665.3887" fill="none" style="stroke:#181818;stroke-width:0.5;"/><text fill="#000000" font-family="Segoe UI" font-size="14" lengthAdjust="spacing" textLength="37.9326" x="616.4072" y="657.4355">Kafka</text></g><g class="participant participant-head" data-participant="Ntfy"><a href="/microservices/svc-notifications/" target="_top" title="/microservices/svc-notifications/" xlink:actuate="onRequest" xlink:href="/microservices/svc-notifications/" xlink:show="new" xlink:title="/microservices/svc-notifications/" xlink:type="simple"><rect fill="#FFF8F0" height="30.4883" rx="2.5" ry="2.5" style="stroke:#2E86AB;stroke-width:0.5;" width="100.0303" x="679.3398" y="102.7539"/><text fill="#000000" font-family="Segoe UI" font-size="14" lengthAdjust="spacing" textLength="86.0303" x="686.3398" y="123.2891">Notifications</text></a></g><g class="participant participant-tail" data-participant="Ntfy"><a href="/microservices/svc-notifications/" target="_top" title="/microservices/svc-notifications/" xlink:actuate="onRequest" xlink:href="/microservices/svc-notifications/" xlink:show="new" xlink:title="/microservices/svc-notifications/" xlink:type="simple"><rect fill="#FFF8F0" height="30.4883" rx="2.5" ry="2.5" style="stroke:#2E86AB;stroke-width:0.5;" width="100.0303" x="679.3398" y="638.9004"/><text fill="#000000" font-family="Segoe UI" font-size="14" lengthAdjust="spacing" textLength="86.0303" x="686.3398" y="659.4355">Notifications</text></a></g><g class="participant participant-head" data-participant="DB"><text fill="#000000" font-family="Segoe UI" font-size="14" lengthAdjust="spacing" textLength="76.8496" x="789.3701" y="131.2891">PostgreSQL</text><path d="M812.7949,81.7539 C812.7949,71.7539 830.7949,71.7539 830.7949,71.7539 C830.7949,71.7539 848.7949,71.7539 848.7949,81.7539 L848.7949,107.7539 C848.7949,117.7539 830.7949,117.7539 830.7949,117.7539 C830.7949,117.7539 812.7949,117.7539 812.7949,107.7539 L812.7949,81.7539" fill="#FCE4EC" style="stroke:#181818;stroke-width:0.5;"/><path d="M812.7949,81.7539 C812.7949,91.7539 830.7949,91.7539 830.7949,91.7539 C830.7949,91.7539 848.7949,91.7539 848.7949,81.7539" fill="none" style="stroke:#181818;stroke-width:0.5;"/></g><g class="participant participant-tail" data-participant="DB"><text fill="#000000" font-family="Segoe UI" font-size="14" lengthAdjust="spacing" textLength="76.8496" x="789.3701" y="652.4355">PostgreSQL</text><path d="M812.7949,665.3887 C812.7949,655.3887 830.7949,655.3887 830.7949,655.3887 C830.7949,655.3887 848.7949,655.3887 848.7949,665.3887 L848.7949,691.3887 C848.7949,701.3887 830.7949,701.3887 830.7949,701.3887 C830.7949,701.3887 812.7949,701.3887 812.7949,691.3887 L812.7949,665.3887" fill="#FCE4EC" style="stroke:#181818;stroke-width:0.5;"/><path d="M812.7949,665.3887 C812.7949,675.3887 830.7949,675.3887 830.7949,675.3887 C830.7949,675.3887 848.7949,675.3887 848.7949,665.3887" fill="none" style="stroke:#181818;stroke-width:0.5;"/></g><g><title>API Gateway</title><rect fill="#C77B30" height="421.0371" style="stroke:#A23B72;stroke-width:1;" width="10" x="312.1426" y="200.8633"/></g><g><title>svc-reservations</title><rect fill="#C77B30" height="362.416" style="stroke:#A23B72;stroke-width:1;" width="10" x="433.6982" y="230.1738"/></g><g><title>PostgreSQL</title><rect fill="#FCE4EC" height="29.3105" style="stroke:#A23B72;stroke-width:1;" width="10" x="825.7949" y="338.1055"/></g><g><title>PostgreSQL</title><rect fill="#FCE4EC" height="29.3105" style="stroke:#A23B72;stroke-width:1;" width="10" x="825.7949" y="432.0371"/></g><path d="M368,149.2422 L368,174.2422 L508,174.2422 L508,159.2422 L498,149.2422 L368,149.2422" fill="#FEFFDD" style="stroke:#181818;stroke-width:0.5;"/><path d="M498,149.2422 L498,159.2422 L508,159.2422 L498,149.2422" fill="#FEFFDD" style="stroke:#181818;stroke-width:0.5;"/><a href="/services/api/svc-reservations.html#/Reservation%20Status/transitionStatus" target="_top" title="/services/api/svc-reservations.html#/Reservation%20Status/transitionStatus" xlink:actuate="onRequest" xlink:href="/services/api/svc-reservations.html#/Reservation%20Status/transitionStatus" xlink:show="new" xlink:title="/services/api/svc-reservations.html#/Reservation%20Status/transitionStatus" xlink:type="simple"><text fill="#0000FF" font-family="Segoe UI" font-size="13" lengthAdjust="spacing" text-decoration="underline" textLength="119.4058" x="374" y="166.8105">View in Swagger UI</text></a><g class="message" data-participant-1="Client" data-participant-2="GW"><polygon fill="#C77B30" points="300.1426,196.8633,310.1426,200.8633,300.1426,204.8633,304.1426,200.8633" style="stroke:#C77B30;stroke-width:1;"/><line style="stroke:#C77B30;stroke-width:1;" x1="31.7524" x2="306.1426" y1="200.8633" y2="200.8633"/><text fill="#000000" font-family="Segoe UI" font-size="13" lengthAdjust="spacing" textLength="261.3901" x="38.7524" y="196.1211">PUT /reservations/{reservation_id}/status</text></g><g class="message" data-participant-1="GW" data-participant-2="Svc"><polygon fill="#C77B30" points="421.6982,226.1738,431.6982,230.1738,421.6982,234.1738,425.6982,230.1738" style="stroke:#C77B30;stroke-width:1;"/><line style="stroke:#C77B30;stroke-width:1;" x1="322.1426" x2="427.6982" y1="230.1738" y2="230.1738"/><text fill="#000000" font-family="Segoe UI" font-size="13" lengthAdjust="spacing" textLength="85.1348" x="329.1426" y="225.4316">route request</text></g><path d="M448,243.1738 L448,268.1738 L606,268.1738 L606,253.1738 L596,243.1738 L448,243.1738" fill="#FEFFDD" style="stroke:#181818;stroke-width:0.5;"/><path d="M596,243.1738 L596,253.1738 L606,253.1738 L596,243.1738" fill="#FEFFDD" style="stroke:#181818;stroke-width:0.5;"/><text fill="#000000" font-family="Segoe UI" font-size="13" lengthAdjust="spacing" textLength="137.5728" x="454" y="260.7422">Validate request body</text><rect fill="#EEEEEE" height="3" style="stroke:#EEEEEE;stroke-width:1;" width="877.2197" x="0" y="294.1396"/><line style="stroke:#000000;stroke-width:1;" x1="0" x2="877.2197" y1="294.1396" y2="294.1396"/><line style="stroke:#000000;stroke-width:1;" x1="0" x2="877.2197" y1="297.1396" y2="297.1396"/><rect fill="#EEEEEE" height="23.3105" style="stroke:#000000;stroke-width:2;" width="80.3711" x="398.4243" y="283.4844"/><text fill="#000000" font-family="Segoe UI" font-size="13" font-weight="bold" lengthAdjust="spacing" textLength="62.0864" x="404.4243" y="300.0527">Database</text><g class="message" data-participant-1="Svc" data-participant-2="DB"><polygon fill="#C77B30" points="813.7949,334.1055,823.7949,338.1055,813.7949,342.1055,817.7949,338.1055" style="stroke:#C77B30;stroke-width:1;"/><line style="stroke:#C77B30;stroke-width:1;" x1="443.6982" x2="819.7949" y1="338.1055" y2="338.1055"/><text fill="#000000" font-family="Segoe UI" font-size="13" lengthAdjust="spacing" textLength="145.374" x="450.6982" y="333.3633">SELECT ... FOR UPDATE</text></g><g class="message" data-participant-1="DB" data-participant-2="Svc"><polygon fill="#C77B30" points="454.6982,363.416,444.6982,367.416,454.6982,371.416,450.6982,367.416" style="stroke:#C77B30;stroke-width:1;"/><line style="stroke:#C77B30;stroke-width:1;stroke-dasharray:2,2;" x1="448.6982" x2="829.7949" y1="367.416" y2="367.416"/><text fill="#000000" font-family="Segoe UI" font-size="13" lengthAdjust="spacing" textLength="75.3086" x="460.6982" y="362.6738">Current row</text></g><path d="M448,380.416 L448,405.416 L611,405.416 L611,390.416 L601,380.416 L448,380.416" fill="#FEFFDD" style="stroke:#181818;stroke-width:0.5;"/><path d="M601,380.416 L601,390.416 L611,390.416 L601,380.416" fill="#FEFFDD" style="stroke:#181818;stroke-width:0.5;"/><text fill="#000000" font-family="Segoe UI" font-size="13" lengthAdjust="spacing" textLength="142.4858" x="454" y="397.9844">Replace mutable fields</text><g class="message" data-participant-1="Svc" data-participant-2="DB"><polygon fill="#C77B30" points="813.7949,428.0371,823.7949,432.0371,813.7949,436.0371,817.7949,432.0371" style="stroke:#C77B30;stroke-width:1;"/><line style="stroke:#C77B30;stroke-width:1;" x1="443.6982" x2="819.7949" y1="432.0371" y2="432.0371"/><text fill="#000000" font-family="Segoe UI" font-size="13" lengthAdjust="spacing" textLength="109.4526" x="450.6982" y="427.2949">UPDATE ... SET ...</text></g><g class="message" data-participant-1="DB" data-participant-2="Svc"><polygon fill="#C77B30" points="454.6982,457.3477,444.6982,461.3477,454.6982,465.3477,450.6982,461.3477" style="stroke:#C77B30;stroke-width:1;"/><line style="stroke:#C77B30;stroke-width:1;stroke-dasharray:2,2;" x1="448.6982" x2="829.7949" y1="461.3477" y2="461.3477"/><text fill="#000000" font-family="Segoe UI" font-size="13" lengthAdjust="spacing" textLength="80.2725" x="460.6982" y="456.6055">Updated row</text></g><rect fill="#EEEEEE" height="3" style="stroke:#EEEEEE;stroke-width:1;" width="877.2197" x="0" y="490.0029"/><line style="stroke:#000000;stroke-width:1;" x1="0" x2="877.2197" y1="490.0029" y2="490.0029"/><line style="stroke:#000000;stroke-width:1;" x1="0" x2="877.2197" y1="493.0029" y2="493.0029"/><rect fill="#EEEEEE" height="23.3105" style="stroke:#000000;stroke-width:2;" width="106.8218" x="385.199" y="479.3477"/><text fill="#000000" font-family="Segoe UI" font-size="13" font-weight="bold" lengthAdjust="spacing" textLength="88.5371" x="391.199" y="495.916">Async Events</text><g class="message" data-participant-1="Svc" data-participant-2="Kafka"><line style="stroke:#C77B30;stroke-width:1;" x1="638.3735" x2="628.3735" y1="533.9688" y2="529.9688"/><line style="stroke:#C77B30;stroke-width:1;" x1="638.3735" x2="628.3735" y1="533.9688" y2="537.9688"/><line style="stroke:#C77B30;stroke-width:1;" x1="443.6982" x2="639.3735" y1="533.9688" y2="533.9688"/><a href="/events/#reservationstatus_changed" target="_top" title="/events/#reservationstatus_changed" xlink:actuate="onRequest" xlink:href="/events/#reservationstatus_changed" xlink:show="new" xlink:title="/events/#reservationstatus_changed" xlink:type="simple"><text fill="#0000FF" font-family="Segoe UI" font-size="13" lengthAdjust="spacing" text-decoration="underline" textLength="172.6753" x="450.6982" y="529.2266">reservation.status_changed</text></a></g><g class="message" data-participant-1="Svc" data-participant-2="Ntfy"><line style="stroke:#C77B30;stroke-width:1;" x1="727.355" x2="717.355" y1="563.2793" y2="559.2793"/><line style="stroke:#C77B30;stroke-width:1;" x1="727.355" x2="717.355" y1="563.2793" y2="567.2793"/><line style="stroke:#C77B30;stroke-width:1;" x1="443.6982" x2="728.355" y1="563.2793" y2="563.2793"/><a href="/microservices/svc-notifications/#post-notifications-send-a-notification" target="_top" title="/microservices/svc-notifications/#post-notifications-send-a-notification" xlink:actuate="onRequest" xlink:href="/microservices/svc-notifications/#post-notifications-send-a-notification" xlink:show="new" xlink:title="/microservices/svc-notifications/#post-notifications-send-a-notification" xlink:type="simple"><text fill="#0000FF" font-family="Segoe UI" font-size="13" lengthAdjust="spacing" text-decoration="underline" textLength="120.6626" x="450.6982" y="558.5371">Send status update</text></a></g><g class="message" data-participant-1="Svc" data-participant-2="GW"><polygon fill="#C77B30" points="333.1426,588.5898,323.1426,592.5898,333.1426,596.5898,329.1426,592.5898" style="stroke:#C77B30;stroke-width:1;"/><line style="stroke:#C77B30;stroke-width:1;stroke-dasharray:2,2;" x1="327.1426" x2="437.6982" y1="592.5898" y2="592.5898"/><text fill="#000000" font-family="Segoe UI" font-size="13" lengthAdjust="spacing" textLength="47.3599" x="339.1426" y="587.8477">200 OK</text></g><g class="message" data-participant-1="GW" data-participant-2="Client"><polygon fill="#C77B30" points="42.7524,617.9004,32.7524,621.9004,42.7524,625.9004,38.7524,621.9004" style="stroke:#C77B30;stroke-width:1;"/><line style="stroke:#C77B30;stroke-width:1;stroke-dasharray:2,2;" x1="36.7524" x2="316.1426" y1="621.9004" y2="621.9004"/><text fill="#000000" font-family="Segoe UI" font-size="13" lengthAdjust="spacing" textLength="47.3599" x="48.7524" y="617.1582">200 OK</text></g><a href="/microservices/svc-reservations/#integration-context" target="_top" title="/microservices/svc-reservations/#integration-context" xlink:actuate="onRequest" xlink:href="/microservices/svc-reservations/#integration-context" xlink:show="new" xlink:title="/microservices/svc-reservations/#integration-context" xlink:type="simple"><text fill="#0000FF" font-family="Segoe UI" font-size="10" lengthAdjust="spacing" text-decoration="underline" textLength="191.5527" x="684.667" y="14.668">&#11014; svc-reservations Integration Context</text></a><!--SRC=[ZLJRRk8m47ttLun0-mYXj6eH4fMu91Kgwh8Dj0zTL9d42LQ3axKD55LztQ_PhzelsR49aBH8MtXnF6Vcd9avYNhX8gEIBc5EWvTOfYiHzjCabL3rNFCdwe1G2ngc6ovYY6YYM24IieYk4ksbGj_H9OEAp-AKmNHOAQQpNoic0WPl1F3NbJBTv5J1rTNyl66lnrHg7l2C2jrBPSXa3ccwhSjkxnFaesYtvLruBGiRyOYDk62bCjtcUU-gQUEzzBKKyivQNkFi4Feq3i_3k0tVfRfSjQ3VnawCyjoz8k-4B1Z5D7XwSfOyaAbYSiq3fXor3cgIcKUgUIgKK-L2irZQfrg0WsMl6lx- -GqVaJ0y0g6_0yvcX6Yk4mRZwGISKk6tmjCp3zyTfQbUgPzY8gbGt9OfG60N9YGxJXqg_OGpeIj05UoEfYEQPGaFSXgKKCheZeTmGpNRqArDktc4wg3dTj5X9Tp7zYpONmTV6DbiTjW_Ecs5DhobqGkr5Um95z5mBpslp8WRuz5UjmNVwMXxcayKiPOmjqL8DPrJXPpZLEbOCl_7oDOQz13JTo_SFY6OpI1Tu_wn8NGBKXogqun_wgY-qCkawjmVhxur6xxTXwCFszfTm0Dd6-02_0sDOwIO3d45J8HWM0d9rrIxDfDlVzqNX0QQuosp6ykDZaSiPBRI1lGv1gLvkPK-earm3zyrBdcyq916UTu3JNX8ZwamJyCj8PqE3FQpx7G8CM3amZ6smNT7Rdy2zNeTlE_tC1qFkXFtI5aODHvh1uNzbPIcT_pUa90Lu2TrtRCieVYLMgvG1Rv14MT9gCf2TinMYEzQGVzNCSrCj-495QRdhjgA0DmrwbI5lgzpuxQDLvYDEjNYskoEdeC55R6fVOpKoo7qmhwYTNVxA_wkPkZbybrDeQLgj7G9lh7PZWzMjatp0R9yUxyr6mtuVbjitBm2naU8oBrv2dNpIFu1]--></g></svg>