<?xml version="1.0" encoding="UTF-8" standalone="no"?><svg xmlns="http://www.w3.org/2000/svg" xmlns:xlink="http://www.w3.org/1999/xlink" contentScriptType="application/ecmascript" contentStyleType="text/css" height="482px" preserveAspectRatio="none" style="width:534px;height:482px;background:#FEFEFE;" version="1.1" viewBox="0 0 534 482" width="534px" zoomAndPan="magnify"><defs/><g><text fill="#000000" font-family="Segoe UI" font-size="18" lengthAdjust="spacingAndGlyphs" textLength="158" x="183.75" y="41.3486">GET /reservations</text><text fill="#000000" font-family="Segoe UI" font-size="18" lengthAdjust="spacingAndGlyphs" textLength="175" x="175.25" y="62.3018">Search reservations</text><rect fill="#2563EB" height="188.7969" style="stroke: #6B7280; stroke-width: 1.0;" width="10" x="165.5" y="202.1094"/><rect fill="#2563EB" height="130.5313" style="stroke: #6B7280; stroke-width: 1.0;" width="10" x="288" y="231.2422"/><rect fill="#FEF9C3" height="29.1328" style="stroke: #6B7280; stroke-width: 1.0;" width="10" x="469" y="303.5078"/><line style="stroke: #6B7280; stroke-width: 1.0; stroke-dasharray: 5.0,5.0;" x1="34" x2="34" y1="135.8438" y2="408.9063"/><line style="stroke: #6B7280; stroke-width: 1.0; stroke-dasharray: 5.0,5.0;" x1="170.5" x2="170.5" y1="135.8438" y2="408.9063"/><line style="stroke: #6B7280; stroke-width: 1.0; stroke-dasharray: 5.0,5.0;" x1="292.5" x2="292.5" y1="135.8438" y2="408.9063"/><line style="stroke: #6B7280; stroke-width: 1.0; stroke-dasharray: 5.0,5.0;" x1="473.5" x2="473.5" y1="135.8438" y2="408.9063"/><a href="/applications/" target="_top" title="/applications/" xlink:actuate="onRequest" xlink:href="/applications/" xlink:show="new" xlink:title="/applications/" xlink:type="simple"><rect fill="#F9FAFB" height="30.2969" style="stroke: #374151; stroke-width: 1.5;" width="53" x="8" y="104.5469"/><text fill="#000000" font-family="Segoe UI" font-size="14" lengthAdjust="spacingAndGlyphs" textLength="39" x="15" y="124.542">Client</text><rect fill="#F9FAFB" height="30.2969" style="stroke: #374151; stroke-width: 1.5;" width="53" x="8" y="407.9063"/><text fill="#000000" font-family="Segoe UI" font-size="14" lengthAdjust="spacingAndGlyphs" textLength="39" x="15" y="427.9014">Client</text></a><a href="/actors/#api-gateway" target="_top" title="/actors/#api-gateway" xlink:actuate="onRequest" xlink:href="/actors/#api-gateway" xlink:show="new" xlink:title="/actors/#api-gateway" xlink:type="simple"><rect fill="#E0F2FE" height="30.2969" style="stroke: #374151; stroke-width: 1.5;" width="98" x="121.5" y="104.5469"/><text fill="#000000" font-family="Segoe UI" font-size="14" lengthAdjust="spacingAndGlyphs" textLength="84" x="128.5" y="124.542">API Gateway</text><rect fill="#E0F2FE" height="30.2969" style="stroke: #374151; stroke-width: 1.5;" width="98" x="121.5" y="407.9063"/><text fill="#000000" font-family="Segoe UI" font-size="14" lengthAdjust="spacingAndGlyphs" textLength="84" x="128.5" y="427.9014">API Gateway</text></a><a href="/microservices/svc-reservations/" target="_top" title="/microservices/svc-reservations/" xlink:actuate="onRequest" xlink:href="/microservices/svc-reservations/" xlink:show="new" xlink:title="/microservices/svc-reservations/" xlink:type="simple"><rect fill="#D1FAE5" height="30.2969" style="stroke: #374151; stroke-width: 1.5;" width="127" x="229.5" y="104.5469"/><text fill="#000000" font-family="Segoe UI" font-size="14" lengthAdjust="spacingAndGlyphs" textLength="113" x="236.5" y="124.542">svc-reservations</text><rect fill="#D1FAE5" height="30.2969" style="stroke: #374151; stroke-width: 1.5;" width="127" x="229.5" y="407.9063"/><text fill="#000000" font-family="Segoe UI" font-size="14" lengthAdjust="spacingAndGlyphs" textLength="113" x="236.5" y="427.9014">svc-reservations</text></a><a href="/microservices/svc-reservations/#data-store" target="_top" title="/microservices/svc-reservations/#data-store" xlink:actuate="onRequest" xlink:href="/microservices/svc-reservations/#data-store" xlink:show="new" xlink:title="/microservices/svc-reservations/#data-store" xlink:type="simple"><text fill="#000000" font-family="Segoe UI" font-size="14" lengthAdjust="spacingAndGlyphs" textLength="81" x="430.5" y="132.542">PostgreSQL</text><path d="M456,83.5469 C456,73.5469 474,73.5469 474,73.5469 C474,73.5469 492,73.5469 492,83.5469 L492,109.5469 C492,119.5469 474,119.5469 474,119.5469 C474,119.5469 456,119.5469 456,109.5469 L456,83.5469 " fill="#FEF9C3" style="stroke: #000000; stroke-width: 1.5;"/><path d="M456,83.5469 C456,93.5469 474,93.5469 474,93.5469 C474,93.5469 492,93.5469 492,83.5469 " fill="none" style="stroke: #000000; stroke-width: 1.5;"/><text fill="#000000" font-family="Segoe UI" font-size="14" lengthAdjust="spacingAndGlyphs" textLength="81" x="430.5" y="420.9014">PostgreSQL</text><path d="M456,434.2031 C456,424.2031 474,424.2031 474,424.2031 C474,424.2031 492,424.2031 492,434.2031 L492,460.2031 C492,470.2031 474,470.2031 474,470.2031 C474,470.2031 456,470.2031 456,460.2031 L456,434.2031 " fill="#FEF9C3" style="stroke: #000000; stroke-width: 1.5;"/><path d="M456,434.2031 C456,444.2031 474,444.2031 474,444.2031 C474,444.2031 492,444.2031 492,434.2031 " fill="none" style="stroke: #000000; stroke-width: 1.5;"/></a><rect fill="#2563EB" height="188.7969" style="stroke: #6B7280; stroke-width: 1.0;" width="10" x="165.5" y="202.1094"/><rect fill="#2563EB" height="130.5313" style="stroke: #6B7280; stroke-width: 1.0;" width="10" x="288" y="231.2422"/><rect fill="#FEF9C3" height="29.1328" style="stroke: #6B7280; stroke-width: 1.0;" width="10" x="469" y="303.5078"/><path d="M222,150.8438 L222,175.8438 L363,175.8438 L363,160.8438 L353,150.8438 L222,150.8438 " fill="#FBFB77" style="stroke: #A80036; stroke-width: 1.0;"/><path d="M353,150.8438 L353,160.8438 L363,160.8438 L353,150.8438 " fill="#FBFB77" style="stroke: #A80036; stroke-width: 1.0;"/><a href="/services/api/svc-reservations.html#/Reservation%20Search/searchReservations" target="_top" title="/services/api/svc-reservations.html#/Reservation%20Search/searchReservations" xlink:actuate="onRequest" xlink:href="/services/api/svc-reservations.html#/Reservation%20Search/searchReservations" xlink:show="new" xlink:title="/services/api/svc-reservations.html#/Reservation%20Search/searchReservations" xlink:type="simple"><text fill="#0000FF" font-family="Segoe UI" font-size="13" lengthAdjust="spacingAndGlyphs" text-decoration="underline" textLength="120" x="228" y="167.9106">View in Swagger UI</text></a><polygon fill="#2563EB" points="153.5,198.1094,163.5,202.1094,153.5,206.1094,157.5,202.1094" style="stroke: #2563EB; stroke-width: 1.0;"/><line style="stroke: #2563EB; stroke-width: 1.0;" x1="34.5" x2="159.5" y1="202.1094" y2="202.1094"/><text fill="#000000" font-family="Segoe UI" font-size="13" lengthAdjust="spacingAndGlyphs" textLength="112" x="41.5" y="197.0435">GET /reservations</text><polygon fill="#2563EB" points="276,227.2422,286,231.2422,276,235.2422,280,231.2422" style="stroke: #2563EB; stroke-width: 1.0;"/><line style="stroke: #2563EB; stroke-width: 1.0;" x1="175.5" x2="282" y1="231.2422" y2="231.2422"/><text fill="#000000" font-family="Segoe UI" font-size="13" lengthAdjust="spacingAndGlyphs" textLength="87" x="182.5" y="226.1763">route request</text><rect fill="#EEEEEE" height="3" style="stroke: #EEEEEE; stroke-width: 1.0;" width="519.5" x="3" y="259.8086"/><line style="stroke: #000000; stroke-width: 1.0;" x1="3" x2="522.5" y1="259.8086" y2="259.8086"/><line style="stroke: #000000; stroke-width: 1.0;" x1="3" x2="522.5" y1="262.8086" y2="262.8086"/><rect fill="#EEEEEE" height="23.1328" style="stroke: #000000; stroke-width: 2.0;" width="90" x="217.75" y="249.2422"/><text fill="#000000" font-family="Segoe UI" font-size="13" font-weight="bold" lengthAdjust="spacingAndGlyphs" textLength="71" x="223.75" y="265.3091">Database</text><polygon fill="#2563EB" points="457,299.5078,467,303.5078,457,307.5078,461,303.5078" style="stroke: #2563EB; stroke-width: 1.0;"/><line style="stroke: #2563EB; stroke-width: 1.0;" x1="298" x2="463" y1="303.5078" y2="303.5078"/><text fill="#000000" font-family="Segoe UI" font-size="13" lengthAdjust="spacingAndGlyphs" textLength="152" x="305" y="298.4419">SELECT ... WHERE filters</text><polygon fill="#2563EB" points="309,328.6406,299,332.6406,309,336.6406,305,332.6406" style="stroke: #2563EB; stroke-width: 1.0;"/><line style="stroke: #2563EB; stroke-width: 1.0; stroke-dasharray: 2.0,2.0;" x1="303" x2="473" y1="332.6406" y2="332.6406"/><text fill="#000000" font-family="Segoe UI" font-size="13" lengthAdjust="spacingAndGlyphs" textLength="95" x="315" y="327.5747">Page of results</text><polygon fill="#2563EB" points="186.5,357.7734,176.5,361.7734,186.5,365.7734,182.5,361.7734" style="stroke: #2563EB; stroke-width: 1.0;"/><line style="stroke: #2563EB; stroke-width: 1.0; stroke-dasharray: 2.0,2.0;" x1="180.5" x2="292" y1="361.7734" y2="361.7734"/><text fill="#000000" font-family="Segoe UI" font-size="13" lengthAdjust="spacingAndGlyphs" textLength="46" x="192.5" y="356.7075">200 OK</text><polygon fill="#2563EB" points="45.5,386.9063,35.5,390.9063,45.5,394.9063,41.5,390.9063" style="stroke: #2563EB; stroke-width: 1.0;"/><line style="stroke: #2563EB; stroke-width: 1.0; stroke-dasharray: 2.0,2.0;" x1="39.5" x2="169.5" y1="390.9063" y2="390.9063"/><text fill="#000000" font-family="Segoe UI" font-size="13" lengthAdjust="spacingAndGlyphs" textLength="46" x="51.5" y="385.8403">200 OK</text><a href="/microservices/svc-reservations/#integration-context" target="_top" title="/microservices/svc-reservations/#integration-context" xlink:actuate="onRequest" xlink:href="/microservices/svc-reservations/#integration-context" xlink:show="new" xlink:title="/microservices/svc-reservations/#integration-context" xlink:type="simple"><text fill="#0000FF" font-family="Segoe UI" font-size="10" lengthAdjust="spacingAndGlyphs" text-decoration="underline" textLength="190" x="332.5" y="12.2822">⬆ svc-reservations Integration Context</text></a><!--MD5=[0657c40d3a481466810bc0e756bc34c3]
@startuml svc-reservations- -get-reservations

skinparam backgroundColor #FEFEFE
skinparam shadowing false
skinparam defaultFontName "Segoe UI"
skinparam sequence {
    ArrowColor #2563eb
    ParticipantBorderColor #374151
    ParticipantBackgroundColor #F9FAFB
    LifeLineBorderColor #6B7280
    BoxBorderColor #94A3B8
    BoxBackgroundColor #F8FAFC
    NoteBorderColor #64748B
    NoteBackgroundColor #F8FAFC
}

header [[/microservices/svc-reservations/#integration-context ⬆ svc-reservations Integration Context]]

title GET /reservations\nSearch reservations

participant "Client" as Client [[/applications/]]
participant "API Gateway" as GW [[/actors/#api-gateway]] #E0F2FE
participant "svc-reservations" as Svc [[/microservices/svc-reservations/]] #D1FAE5
database "PostgreSQL" as DB [[/microservices/svc-reservations/#data-store]] #FEF9C3

note over Svc
  [[/services/api/svc-reservations.html#/Reservation%20Search/searchReservations View in Swagger UI]]
end note

Client -> GW : GET /reservations
activate GW #2563eb
GW -> Svc : route request
activate Svc #2563eb

== Database ==

Svc -> DB : SELECT ... WHERE filters
activate DB #FEF9C3
DB - -> Svc : Page of results
deactivate DB

Svc - -> GW : 200 OK
deactivate Svc
GW - -> Client : 200 OK
deactivate GW

@enduml

PlantUML version 1.2020.02(Sun Mar 01 10:22:07 UTC 2020)
(GPL source distribution)
Java Runtime: OpenJDK Runtime Environment
JVM: OpenJDK 64-Bit Server VM
Java Version: 17.0.18+8
Operating System: Linux
Default Encoding: UTF-8
Language: en
Country: null
--></g></svg>