<svg xmlns="http://www.w3.org/2000/svg" xmlns:xlink="http://www.w3.org/1999/xlink" contentStyleType="text/css" data-diagram-type="SEQUENCE" height="474px" preserveAspectRatio="none" style="width:483px;height:474px;background:#FEFEFE;" version="1.1" viewBox="0 0 483 474" width="483px" zoomAndPan="magnify"><title>GET /trails</title><defs/><g><rect fill="#FEFEFE" height="474" style="stroke:none;stroke-width:1;" width="483" x="0" y="0"/><text fill="#000000" font-family="Segoe UI" font-size="14" font-weight="bold" lengthAdjust="spacing" textLength="78.3262" x="198.4043" y="28.5352">GET /trails</text><text fill="#000000" font-family="Segoe UI" font-size="14" font-weight="bold" lengthAdjust="spacing" textLength="89.3457" x="192.8945" y="45.0234">Search trails</text><g><title>API Gateway</title><rect fill="#2563EB" height="189.8633" style="stroke:#A23B72;stroke-width:1;" width="10" x="117.8472" y="188.0859"/></g><g><title>svc-trail-management</title><rect fill="#2563EB" height="131.2422" style="stroke:#A23B72;stroke-width:1;" width="10" x="259.6816" y="217.3965"/></g><g><title>PostGIS</title><rect fill="#FCE4EC" height="29.3105" style="stroke:#A23B72;stroke-width:1;" width="10" x="437.9341" y="290.0176"/></g><g><title>Client</title><rect fill="#000000" fill-opacity="0.00000" height="274.4844" width="8" x="27.7524" y="121.4648"/><line style="stroke:#A23B72;stroke-width:0.5;stroke-dasharray:5,5;" x1="31" x2="31" y1="121.4648" y2="395.9492"/></g><g><title>API Gateway</title><rect fill="#000000" fill-opacity="0.00000" height="274.4844" width="8" x="118.8472" y="121.4648"/><line style="stroke:#A23B72;stroke-width:0.5;stroke-dasharray:5,5;" x1="122.5581" x2="122.5581" y1="121.4648" y2="395.9492"/></g><g><title>svc-trail-management</title><rect fill="#000000" fill-opacity="0.00000" height="274.4844" width="8" x="260.6816" y="121.4648"/><line style="stroke:#A23B72;stroke-width:0.5;stroke-dasharray:5,5;" x1="264.1362" x2="264.1362" y1="121.4648" y2="395.9492"/></g><g><title>PostGIS</title><rect fill="#000000" fill-opacity="0.00000" height="274.4844" width="8" x="438.9341" y="121.4648"/><line style="stroke:#A23B72;stroke-width:0.5;stroke-dasharray:5,5;" x1="442.7334" x2="442.7334" y1="121.4648" y2="395.9492"/></g><g class="participant participant-head" data-participant="Client"><rect fill="#E8F4F8" height="30.4883" rx="2.5" ry="2.5" style="stroke:#2E86AB;stroke-width:0.5;" width="53.5049" x="5" y="89.9766"/><text fill="#000000" font-family="Segoe UI" font-size="14" lengthAdjust="spacing" textLength="39.5049" x="12" y="110.5117">Client</text></g><g class="participant participant-tail" data-participant="Client"><rect fill="#E8F4F8" height="30.4883" rx="2.5" ry="2.5" style="stroke:#2E86AB;stroke-width:0.5;" width="53.5049" x="5" y="394.9492"/><text fill="#000000" font-family="Segoe UI" font-size="14" lengthAdjust="spacing" textLength="39.5049" x="12" y="415.4844">Client</text></g><g class="participant participant-head" data-participant="GW"><rect fill="#DBEAFE" height="30.4883" rx="2.5" ry="2.5" style="stroke:#2E86AB;stroke-width:0.5;" width="96.5781" x="74.5581" y="89.9766"/><text fill="#000000" font-family="Segoe UI" font-size="14" lengthAdjust="spacing" textLength="82.5781" x="81.5581" y="110.5117">API Gateway</text></g><g class="participant participant-tail" data-participant="GW"><rect fill="#DBEAFE" height="30.4883" rx="2.5" ry="2.5" style="stroke:#2E86AB;stroke-width:0.5;" width="96.5781" x="74.5581" y="394.9492"/><text fill="#000000" font-family="Segoe UI" font-size="14" lengthAdjust="spacing" textLength="82.5781" x="81.5581" y="415.4844">API Gateway</text></g><g class="participant participant-head" data-participant="Svc"><a href="/microservices/svc-trail-management/" target="_top" title="/microservices/svc-trail-management/" xlink:actuate="onRequest" xlink:href="/microservices/svc-trail-management/" xlink:show="new" xlink:title="/microservices/svc-trail-management/" xlink:type="simple"><rect fill="#E8F4F8" height="30.4883" rx="2.5" ry="2.5" style="stroke:#2E86AB;stroke-width:0.5;" width="167.0908" x="181.1362" y="89.9766"/><text fill="#000000" font-family="Segoe UI" font-size="14" lengthAdjust="spacing" textLength="153.0908" x="188.1362" y="110.5117">svc-trail-management</text></a></g><g class="participant participant-tail" data-participant="Svc"><a href="/microservices/svc-trail-management/" target="_top" title="/microservices/svc-trail-management/" xlink:actuate="onRequest" xlink:href="/microservices/svc-trail-management/" xlink:show="new" xlink:title="/microservices/svc-trail-management/" xlink:type="simple"><rect fill="#E8F4F8" height="30.4883" rx="2.5" ry="2.5" style="stroke:#2E86AB;stroke-width:0.5;" width="167.0908" x="181.1362" y="394.9492"/><text fill="#000000" font-family="Segoe UI" font-size="14" lengthAdjust="spacing" textLength="153.0908" x="188.1362" y="415.4844">svc-trail-management</text></a></g><g class="participant participant-head" data-participant="DB"><text fill="#000000" font-family="Segoe UI" font-size="14" lengthAdjust="spacing" textLength="50.4014" x="414.7334" y="118.5117">PostGIS</text><path d="M424.9341,68.9766 C424.9341,58.9766 442.9341,58.9766 442.9341,58.9766 C442.9341,58.9766 460.9341,58.9766 460.9341,68.9766 L460.9341,94.9766 C460.9341,104.9766 442.9341,104.9766 442.9341,104.9766 C442.9341,104.9766 424.9341,104.9766 424.9341,94.9766 L424.9341,68.9766" fill="#FCE4EC" style="stroke:#181818;stroke-width:0.5;"/><path d="M424.9341,68.9766 C424.9341,78.9766 442.9341,78.9766 442.9341,78.9766 C442.9341,78.9766 460.9341,78.9766 460.9341,68.9766" fill="none" style="stroke:#181818;stroke-width:0.5;"/></g><g class="participant participant-tail" data-participant="DB"><text fill="#000000" font-family="Segoe UI" font-size="14" lengthAdjust="spacing" textLength="50.4014" x="414.7334" y="408.4844">PostGIS</text><path d="M424.9341,421.4375 C424.9341,411.4375 442.9341,411.4375 442.9341,411.4375 C442.9341,411.4375 460.9341,411.4375 460.9341,421.4375 L460.9341,447.4375 C460.9341,457.4375 442.9341,457.4375 442.9341,457.4375 C442.9341,457.4375 424.9341,457.4375 424.9341,447.4375 L424.9341,421.4375" fill="#FCE4EC" style="stroke:#181818;stroke-width:0.5;"/><path d="M424.9341,421.4375 C424.9341,431.4375 442.9341,431.4375 442.9341,431.4375 C442.9341,431.4375 460.9341,431.4375 460.9341,421.4375" fill="none" style="stroke:#181818;stroke-width:0.5;"/></g><g><title>API Gateway</title><rect fill="#2563EB" height="189.8633" style="stroke:#A23B72;stroke-width:1;" width="10" x="117.8472" y="188.0859"/></g><g><title>svc-trail-management</title><rect fill="#2563EB" height="131.2422" style="stroke:#A23B72;stroke-width:1;" width="10" x="259.6816" y="217.3965"/></g><g><title>PostGIS</title><rect fill="#FCE4EC" height="29.3105" style="stroke:#A23B72;stroke-width:1;" width="10" x="437.9341" y="290.0176"/></g><path d="M194,136.4648 L194,161.4648 L334,161.4648 L334,146.4648 L324,136.4648 L194,136.4648" fill="#FEFFDD" style="stroke:#181818;stroke-width:0.5;"/><path d="M324,136.4648 L324,146.4648 L334,146.4648 L324,136.4648" fill="#FEFFDD" style="stroke:#181818;stroke-width:0.5;"/><a href="/services/api/svc-trail-management.html#/Trails/searchTrails" target="_top" title="/services/api/svc-trail-management.html#/Trails/searchTrails" xlink:actuate="onRequest" xlink:href="/services/api/svc-trail-management.html#/Trails/searchTrails" xlink:show="new" xlink:title="/services/api/svc-trail-management.html#/Trails/searchTrails" xlink:type="simple"><text fill="#0000FF" font-family="Segoe UI" font-size="13" lengthAdjust="spacing" text-decoration="underline" textLength="119.4058" x="200" y="154.0332">View in Swagger UI</text></a><g class="message" data-participant-1="Client" data-participant-2="GW"><polygon fill="#2563EB" points="105.8472,184.0859,115.8472,188.0859,105.8472,192.0859,109.8472,188.0859" style="stroke:#2563EB;stroke-width:1;"/><line style="stroke:#2563EB;stroke-width:1;" x1="31.7524" x2="111.8472" y1="188.0859" y2="188.0859"/><text fill="#000000" font-family="Segoe UI" font-size="13" lengthAdjust="spacing" textLength="67.0947" x="38.7524" y="183.3438">GET /trails</text></g><g class="message" data-participant-1="GW" data-participant-2="Svc"><polygon fill="#2563EB" points="247.6816,213.3965,257.6816,217.3965,247.6816,221.3965,251.6816,217.3965" style="stroke:#2563EB;stroke-width:1;"/><line style="stroke:#2563EB;stroke-width:1;" x1="127.8472" x2="253.6816" y1="217.3965" y2="217.3965"/><text fill="#000000" font-family="Segoe UI" font-size="13" lengthAdjust="spacing" textLength="85.1348" x="134.8472" y="212.6543">route request</text></g><rect fill="#EEEEEE" height="3" style="stroke:#EEEEEE;stroke-width:1;" width="476.1348" x="0" y="246.0518"/><line style="stroke:#000000;stroke-width:1;" x1="0" x2="476.1348" y1="246.0518" y2="246.0518"/><line style="stroke:#000000;stroke-width:1;" x1="0" x2="476.1348" y1="249.0518" y2="249.0518"/><rect fill="#EEEEEE" height="23.3105" style="stroke:#000000;stroke-width:2;" width="80.3711" x="197.8818" y="235.3965"/><text fill="#000000" font-family="Segoe UI" font-size="13" font-weight="bold" lengthAdjust="spacing" textLength="62.0864" x="203.8818" y="251.9648">Database</text><g class="message" data-participant-1="Svc" data-participant-2="DB"><polygon fill="#2563EB" points="425.9341,286.0176,435.9341,290.0176,425.9341,294.0176,429.9341,290.0176" style="stroke:#2563EB;stroke-width:1;"/><line style="stroke:#2563EB;stroke-width:1;" x1="269.6816" x2="431.9341" y1="290.0176" y2="290.0176"/><text fill="#000000" font-family="Segoe UI" font-size="13" lengthAdjust="spacing" textLength="149.2524" x="276.6816" y="285.2754">SELECT ... WHERE filters</text></g><g class="message" data-participant-1="DB" data-participant-2="Svc"><polygon fill="#2563EB" points="280.6816,315.3281,270.6816,319.3281,280.6816,323.3281,276.6816,319.3281" style="stroke:#2563EB;stroke-width:1;"/><line style="stroke:#2563EB;stroke-width:1;stroke-dasharray:2,2;" x1="274.6816" x2="441.9341" y1="319.3281" y2="319.3281"/><text fill="#000000" font-family="Segoe UI" font-size="13" lengthAdjust="spacing" textLength="93.209" x="286.6816" y="314.5859">Page of results</text></g><g class="message" data-participant-1="Svc" data-participant-2="GW"><polygon fill="#2563EB" points="138.8472,344.6387,128.8472,348.6387,138.8472,352.6387,134.8472,348.6387" style="stroke:#2563EB;stroke-width:1;"/><line style="stroke:#2563EB;stroke-width:1;stroke-dasharray:2,2;" x1="132.8472" x2="263.6816" y1="348.6387" y2="348.6387"/><text fill="#000000" font-family="Segoe UI" font-size="13" lengthAdjust="spacing" textLength="47.3599" x="144.8472" y="343.8965">200 OK</text></g><g class="message" data-participant-1="GW" data-participant-2="Client"><polygon fill="#2563EB" points="42.7524,373.9492,32.7524,377.9492,42.7524,381.9492,38.7524,377.9492" style="stroke:#2563EB;stroke-width:1;"/><line style="stroke:#2563EB;stroke-width:1;stroke-dasharray:2,2;" x1="36.7524" x2="121.8472" y1="377.9492" y2="377.9492"/><text fill="#000000" font-family="Segoe UI" font-size="13" lengthAdjust="spacing" textLength="47.3599" x="48.7524" y="373.207">200 OK</text></g><!--SRC=[RLDTRzem57tthxY2PpuANK58J2BWC3JKeOQEXuu7aro2rSHcje5Eq_vxhyD7mqhoOkSSdvDpRDjNgRR2Y1nM8dvDZTwfPAWpRQ0QSlyoUs7OZKZqGQeKrYApM48IN8jTvaAjtAF84IeHfXhXUL8fByVVErGnmby6z0oCqOUJLUlBGnjNnUUPC4x6SYkK2xH9q9mflFim23vH_lzftWtlmsv1cyerJgN2Avb1gnrqMWKUwBShABphXisx2_IfZZ0al80VjRjMZJkTLRk4tQYopJli7sDEkWnXpEVGS4R8pFvI4GeJR-0uPMpxaGugmqoYSXKG5ex3QtWmcy1OE3o8FmLdl83gAE03shOhdjt7jKA_bWibKipFej4-XfUNHYvZeosQlOpHDcwn6ylbfTn4EB4IbhPvfgqRJw92QXHGpY6_vqF659K0Ue_66r0jP75H5rjvqw6-SNbMRSoB6eZkIpbEuAV40qW5qK6aAOa-JvPBXYe1xyFOiHceVVNvU-LocOYTt5D1HJEdKqP3elhaFQ1D8j3uasdT1zk3Pphhzs5qJjplC-P14g2yFOZub0_dKA_NOV6DFt5OoyoXAHcNQg5XxU8yezYWr-HjwUPObc1foSdadAZLRCAFxsMAhzNd8COf_ItMUC7U0G00]--></g></svg>