<svg xmlns="http://www.w3.org/2000/svg" xmlns:xlink="http://www.w3.org/1999/xlink" contentStyleType="text/css" data-diagram-type="SEQUENCE" height="487px" preserveAspectRatio="none" style="width:600px;height:487px;background:#FEFEFE;" version="1.1" viewBox="0 0 600 487" width="600px" zoomAndPan="magnify"><title>GET /payments/daily-summary</title><defs/><g><rect fill="#FEFEFE" height="487" style="stroke:none;stroke-width:1;" width="600" x="0" y="0"/><text fill="#000000" font-family="Segoe UI" font-size="14" font-weight="bold" lengthAdjust="spacing" textLength="229.9199" x="181.2964" y="41.3125">GET /payments/daily-summary</text><text fill="#000000" font-family="Segoe UI" font-size="14" font-weight="bold" lengthAdjust="spacing" textLength="202.2686" x="195.1221" y="57.8008">Get daily payment summary</text><g><title>API Gateway</title><rect fill="#2563EB" height="189.8633" style="stroke:#A23B72;stroke-width:1;" width="10" x="249.7007" y="200.8633"/></g><g><title>svc-payments</title><rect fill="#2563EB" height="131.2422" style="stroke:#A23B72;stroke-width:1;" width="10" x="363.8354" y="230.1738"/></g><g><title>PostgreSQL</title><rect fill="#FCE4EC" height="29.3105" style="stroke:#A23B72;stroke-width:1;" width="10" x="542.0879" y="302.7949"/></g><g><title>Client</title><rect fill="#000000" fill-opacity="0.00000" height="274.4844" width="8" x="27.7524" y="134.2422"/><line style="stroke:#A23B72;stroke-width:0.5;stroke-dasharray:5,5;" x1="31" x2="31" y1="134.2422" y2="408.7266"/></g><g><title>API Gateway</title><rect fill="#000000" fill-opacity="0.00000" height="274.4844" width="8" x="250.7007" y="134.2422"/><line style="stroke:#A23B72;stroke-width:0.5;stroke-dasharray:5,5;" x1="254.4116" x2="254.4116" y1="134.2422" y2="408.7266"/></g><g><title>svc-payments</title><rect fill="#000000" fill-opacity="0.00000" height="274.4844" width="8" x="364.8354" y="134.2422"/><line style="stroke:#A23B72;stroke-width:0.5;stroke-dasharray:5,5;" x1="368.1138" x2="368.1138" y1="134.2422" y2="408.7266"/></g><g><title>PostgreSQL</title><rect fill="#000000" fill-opacity="0.00000" height="274.4844" width="8" x="543.0879" y="134.2422"/><line style="stroke:#A23B72;stroke-width:0.5;stroke-dasharray:5,5;" x1="546.6631" x2="546.6631" y1="134.2422" y2="408.7266"/></g><g class="participant participant-head" data-participant="Client"><a href="/applications/" target="_top" title="/applications/" xlink:actuate="onRequest" xlink:href="/applications/" xlink:show="new" xlink:title="/applications/" xlink:type="simple"><rect fill="#E8F4F8" height="30.4883" rx="2.5" ry="2.5" style="stroke:#2E86AB;stroke-width:0.5;" width="53.5049" x="5" y="102.7539"/><text fill="#000000" font-family="Segoe UI" font-size="14" lengthAdjust="spacing" textLength="39.5049" x="12" y="123.2891">Client</text></a></g><g class="participant participant-tail" data-participant="Client"><a href="/applications/" target="_top" title="/applications/" xlink:actuate="onRequest" xlink:href="/applications/" xlink:show="new" xlink:title="/applications/" xlink:type="simple"><rect fill="#E8F4F8" height="30.4883" rx="2.5" ry="2.5" style="stroke:#2E86AB;stroke-width:0.5;" width="53.5049" x="5" y="407.7266"/><text fill="#000000" font-family="Segoe UI" font-size="14" lengthAdjust="spacing" textLength="39.5049" x="12" y="428.2617">Client</text></a></g><g class="participant participant-head" data-participant="GW"><rect fill="#DBEAFE" height="30.4883" rx="2.5" ry="2.5" style="stroke:#2E86AB;stroke-width:0.5;" width="96.5781" x="206.4116" y="102.7539"/><text fill="#000000" font-family="Segoe UI" font-size="14" lengthAdjust="spacing" textLength="82.5781" x="213.4116" y="123.2891">API Gateway</text></g><g class="participant participant-tail" data-participant="GW"><rect fill="#DBEAFE" height="30.4883" rx="2.5" ry="2.5" style="stroke:#2E86AB;stroke-width:0.5;" width="96.5781" x="206.4116" y="407.7266"/><text fill="#000000" font-family="Segoe UI" font-size="14" lengthAdjust="spacing" textLength="82.5781" x="213.4116" y="428.2617">API Gateway</text></g><g class="participant participant-head" data-participant="Svc"><a href="/microservices/svc-payments/" target="_top" title="/microservices/svc-payments/" xlink:actuate="onRequest" xlink:href="/microservices/svc-payments/" xlink:show="new" xlink:title="/microservices/svc-payments/" xlink:type="simple"><rect fill="#FFE0E0" height="30.4883" rx="2.5" ry="2.5" style="stroke:#2E86AB;stroke-width:0.5;" width="109.4434" x="314.1138" y="102.7539"/><text fill="#000000" font-family="Segoe UI" font-size="14" lengthAdjust="spacing" textLength="95.4434" x="321.1138" y="123.2891">svc-payments</text></a></g><g class="participant participant-tail" data-participant="Svc"><a href="/microservices/svc-payments/" target="_top" title="/microservices/svc-payments/" xlink:actuate="onRequest" xlink:href="/microservices/svc-payments/" xlink:show="new" xlink:title="/microservices/svc-payments/" xlink:type="simple"><rect fill="#FFE0E0" height="30.4883" rx="2.5" ry="2.5" style="stroke:#2E86AB;stroke-width:0.5;" width="109.4434" x="314.1138" y="407.7266"/><text fill="#000000" font-family="Segoe UI" font-size="14" lengthAdjust="spacing" textLength="95.4434" x="321.1138" y="428.2617">svc-payments</text></a></g><g class="participant participant-head" data-participant="DB"><text fill="#000000" font-family="Segoe UI" font-size="14" lengthAdjust="spacing" textLength="76.8496" x="505.6631" y="131.2891">PostgreSQL</text><path d="M529.0879,81.7539 C529.0879,71.7539 547.0879,71.7539 547.0879,71.7539 C547.0879,71.7539 565.0879,71.7539 565.0879,81.7539 L565.0879,107.7539 C565.0879,117.7539 547.0879,117.7539 547.0879,117.7539 C547.0879,117.7539 529.0879,117.7539 529.0879,107.7539 L529.0879,81.7539" fill="#FCE4EC" style="stroke:#181818;stroke-width:0.5;"/><path d="M529.0879,81.7539 C529.0879,91.7539 547.0879,91.7539 547.0879,91.7539 C547.0879,91.7539 565.0879,91.7539 565.0879,81.7539" fill="none" style="stroke:#181818;stroke-width:0.5;"/></g><g class="participant participant-tail" data-participant="DB"><text fill="#000000" font-family="Segoe UI" font-size="14" lengthAdjust="spacing" textLength="76.8496" x="505.6631" y="421.2617">PostgreSQL</text><path d="M529.0879,434.2148 C529.0879,424.2148 547.0879,424.2148 547.0879,424.2148 C547.0879,424.2148 565.0879,424.2148 565.0879,434.2148 L565.0879,460.2148 C565.0879,470.2148 547.0879,470.2148 547.0879,470.2148 C547.0879,470.2148 529.0879,470.2148 529.0879,460.2148 L529.0879,434.2148" fill="#FCE4EC" style="stroke:#181818;stroke-width:0.5;"/><path d="M529.0879,434.2148 C529.0879,444.2148 547.0879,444.2148 547.0879,444.2148 C547.0879,444.2148 565.0879,444.2148 565.0879,434.2148" fill="none" style="stroke:#181818;stroke-width:0.5;"/></g><g><title>API Gateway</title><rect fill="#2563EB" height="189.8633" style="stroke:#A23B72;stroke-width:1;" width="10" x="249.7007" y="200.8633"/></g><g><title>svc-payments</title><rect fill="#2563EB" height="131.2422" style="stroke:#A23B72;stroke-width:1;" width="10" x="363.8354" y="230.1738"/></g><g><title>PostgreSQL</title><rect fill="#FCE4EC" height="29.3105" style="stroke:#A23B72;stroke-width:1;" width="10" x="542.0879" y="302.7949"/></g><path d="M298,149.2422 L298,174.2422 L438,174.2422 L438,159.2422 L428,149.2422 L298,149.2422" fill="#FEFFDD" style="stroke:#181818;stroke-width:0.5;"/><path d="M428,149.2422 L428,159.2422 L438,159.2422 L428,149.2422" fill="#FEFFDD" style="stroke:#181818;stroke-width:0.5;"/><a href="/services/api/svc-payments.html#/Reporting/getDailySummary" target="_top" title="/services/api/svc-payments.html#/Reporting/getDailySummary" xlink:actuate="onRequest" xlink:href="/services/api/svc-payments.html#/Reporting/getDailySummary" xlink:show="new" xlink:title="/services/api/svc-payments.html#/Reporting/getDailySummary" xlink:type="simple"><text fill="#0000FF" font-family="Segoe UI" font-size="13" lengthAdjust="spacing" text-decoration="underline" textLength="119.4058" x="304" y="166.8105">View in Swagger UI</text></a><g class="message" data-participant-1="Client" data-participant-2="GW"><polygon fill="#2563EB" points="237.7007,196.8633,247.7007,200.8633,237.7007,204.8633,241.7007,200.8633" style="stroke:#2563EB;stroke-width:1;"/><line style="stroke:#2563EB;stroke-width:1;" x1="31.7524" x2="243.7007" y1="200.8633" y2="200.8633"/><text fill="#000000" font-family="Segoe UI" font-size="13" lengthAdjust="spacing" textLength="198.9482" x="38.7524" y="196.1211">GET /payments/daily-summary</text></g><g class="message" data-participant-1="GW" data-participant-2="Svc"><polygon fill="#2563EB" points="351.8354,226.1738,361.8354,230.1738,351.8354,234.1738,355.8354,230.1738" style="stroke:#2563EB;stroke-width:1;"/><line style="stroke:#2563EB;stroke-width:1;" x1="259.7007" x2="357.8354" y1="230.1738" y2="230.1738"/><text fill="#000000" font-family="Segoe UI" font-size="13" lengthAdjust="spacing" textLength="85.1348" x="266.7007" y="225.4316">route request</text></g><rect fill="#EEEEEE" height="3" style="stroke:#EEEEEE;stroke-width:1;" width="593.5127" x="0" y="258.8291"/><line style="stroke:#000000;stroke-width:1;" x1="0" x2="593.5127" y1="258.8291" y2="258.8291"/><line style="stroke:#000000;stroke-width:1;" x1="0" x2="593.5127" y1="261.8291" y2="261.8291"/><rect fill="#EEEEEE" height="23.3105" style="stroke:#000000;stroke-width:2;" width="80.3711" x="256.5708" y="248.1738"/><text fill="#000000" font-family="Segoe UI" font-size="13" font-weight="bold" lengthAdjust="spacing" textLength="62.0864" x="262.5708" y="264.7422">Database</text><g class="message" data-participant-1="Svc" data-participant-2="DB"><polygon fill="#2563EB" points="530.0879,298.7949,540.0879,302.7949,530.0879,306.7949,534.0879,302.7949" style="stroke:#2563EB;stroke-width:1;"/><line style="stroke:#2563EB;stroke-width:1;" x1="373.8354" x2="536.0879" y1="302.7949" y2="302.7949"/><text fill="#000000" font-family="Segoe UI" font-size="13" lengthAdjust="spacing" textLength="149.2524" x="380.8354" y="298.0527">SELECT ... WHERE filters</text></g><g class="message" data-participant-1="DB" data-participant-2="Svc"><polygon fill="#2563EB" points="384.8354,328.1055,374.8354,332.1055,384.8354,336.1055,380.8354,332.1055" style="stroke:#2563EB;stroke-width:1;"/><line style="stroke:#2563EB;stroke-width:1;stroke-dasharray:2,2;" x1="378.8354" x2="546.0879" y1="332.1055" y2="332.1055"/><text fill="#000000" font-family="Segoe UI" font-size="13" lengthAdjust="spacing" textLength="93.209" x="390.8354" y="327.3633">Page of results</text></g><g class="message" data-participant-1="Svc" data-participant-2="GW"><polygon fill="#2563EB" points="270.7007,357.416,260.7007,361.416,270.7007,365.416,266.7007,361.416" style="stroke:#2563EB;stroke-width:1;"/><line style="stroke:#2563EB;stroke-width:1;stroke-dasharray:2,2;" x1="264.7007" x2="367.8354" y1="361.416" y2="361.416"/><text fill="#000000" font-family="Segoe UI" font-size="13" lengthAdjust="spacing" textLength="47.3599" x="276.7007" y="356.6738">200 OK</text></g><g class="message" data-participant-1="GW" data-participant-2="Client"><polygon fill="#2563EB" points="42.7524,386.7266,32.7524,390.7266,42.7524,394.7266,38.7524,390.7266" style="stroke:#2563EB;stroke-width:1;"/><line style="stroke:#2563EB;stroke-width:1;stroke-dasharray:2,2;" x1="36.7524" x2="253.7007" y1="390.7266" y2="390.7266"/><text fill="#000000" font-family="Segoe UI" font-size="13" lengthAdjust="spacing" textLength="47.3599" x="48.7524" y="385.9844">200 OK</text></g><a href="/microservices/svc-payments/#integration-context" target="_top" title="/microservices/svc-payments/#integration-context" xlink:actuate="onRequest" xlink:href="/microservices/svc-payments/#integration-context" xlink:show="new" xlink:title="/microservices/svc-payments/#integration-context" xlink:type="simple"><text fill="#0000FF" font-family="Segoe UI" font-size="10" lengthAdjust="spacing" text-decoration="underline" textLength="179.3457" x="413.167" y="14.668">&#11014; svc-payments Integration Context</text></a><!--SRC=[XPFVRjem5CRl_HH7S0sXq1M4n2J-E0mDTQoquwBZmYI7r6fYPxQ1ecctUvezrPva9o50MAijkR7oVUSxFZyxzbcgL1YHm4e4pv7H6nKETQmDL7sUlSoU7FP9X7edLGHh4LiiAI6knIPslbRkLYG8bJb66k5XKYcNuxSDgW3XEmDw-iReNT6g-UwcXQlyyqmO9mEP2kK6seHeZXRUkUaFNbd-tZJl-DT-9xTDvHgdKk55JB_P6hIRkJxGBnUIVzNn6rSdwHKEtoSzbs-rkqmDskrLgwIzWRB5s-m7Oqyeg0mU7xr41aPRD5iPeFNiDgYbOf-WSjQhIkKmCi99hMe1GSKN1xz__OIo2oPd4mmFfkMICITTZ33cz-2T0aCXuttDRf94cFrNDKO7-ISe7518ZALdjb0PnfB42WWBXsMsRv6ciGpojjQZXXSL_Ta4niBXJkppil42ggC1xzCzkl2L1ycDystm7oZBPNO6lC4RB1HEh8IbUpRJraK6vv-dUSfeG9uXl-P3nXGT1EWjmQPiEXfAFmMBL5w4rvzS4bUzEqmrRL95NeHkb06Q7xZ05uaxa0hcEn555FameSbHXP1rOQoWKtkV3Tpz5tmc0YUtH2X7KznxMb9fXg0BT6r8DDc_OjtPdOb7E-lrO7H4qEinbeaKGDDtOSwdV7WFzNeT5X_u7OUrZ1qQUuugGQ9bxTHv9Y82jgRUblvboq8ibHHDZXCs6mtuzB5ioI1dSv2ZeF6MQxnWVm00]--></g></svg>