<?plantuml 1.2026.2?><svg xmlns="http://www.w3.org/2000/svg" xmlns:xlink="http://www.w3.org/1999/xlink" contentStyleType="text/css" data-diagram-type="SEQUENCE" height="1038px" preserveAspectRatio="none" style="width:840px;height:1038px;background:#FEFEFE;" version="1.1" viewBox="0 0 840 1038" width="840px" zoomAndPan="magnify"><title>POST /notifications
Send a notification
&lt;size:10&gt;&lt;color:#7c3aed&gt;ARCHITECT OVERRIDE &#8212; enriched with multi-channel dispatch and preference routing&lt;/color&gt;&lt;/size&gt;</title><defs/><g><rect fill="#FEFEFE" height="1038" style="stroke:none;stroke-width:1;" width="840" x="0" y="0"/><text fill="#000000" font-family="'Segoe UI'" font-size="14" font-weight="bold" lengthAdjust="spacing" textLength="140.9775" x="345.5171" y="41.3125">POST /notifications</text><text fill="#000000" font-family="'Segoe UI'" font-size="14" font-weight="bold" lengthAdjust="spacing" textLength="134.8936" x="348.5591" y="57.8008">Send a notification</text><text fill="#7C3AED" font-family="'Segoe UI'" font-size="10" font-weight="bold" lengthAdjust="spacing" textLength="447.9053" x="192.0532" y="70.4219">ARCHITECT OVERRIDE &#8212; enriched with multi-channel dispatch and preference routing</text><g><title>svc-notifications</title><rect fill="#64748B" height="698.627" style="stroke:#181818;stroke-width:1;" width="10" x="280.4189" y="243.2617"/></g><g><title>Guest Profiles</title><rect fill="#EDE9FE" height="59.9316" style="stroke:#181818;stroke-width:1;" width="10" x="455.1611" y="303.1934"/></g><g><title>PostgreSQL</title><rect fill="#FEF9C3" height="29.3105" style="stroke:#181818;stroke-width:1;" width="10" x="781.5869" y="504.2988"/></g><g><title>PostgreSQL</title><rect fill="#FEF9C3" height="29.3105" style="stroke:#181818;stroke-width:1;" width="10" x="781.5869" y="852.6465"/></g><rect fill="none" height="245.1055" rx="4" ry="4" style="stroke:#000000;stroke-width:1.5;" width="553.7583" x="201.4038" y="548.6094"/><rect fill="none" height="61.9316" rx="4" ry="4" style="stroke:#000000;stroke-width:1.5;" width="404.1274" x="211.4038" y="572.9199"/><rect fill="none" height="61.9316" rx="4" ry="4" style="stroke:#000000;stroke-width:1.5;" width="474.5073" x="211.4038" y="648.8516"/><rect fill="none" height="61.9316" rx="4" ry="4" style="stroke:#000000;stroke-width:1.5;" width="533.7583" x="211.4038" y="724.7832"/><g class="participant-lifeline" data-entity-uid="part1" data-qualified-name="Client" id="part1-lifeline"><g><title>Caller Service</title><rect fill="#000000" fill-opacity="0.00000" height="813.8691" width="8" x="53.4009" y="146.0195"/><line style="stroke:#6B7280;stroke-width:0.5;stroke-dasharray:5,5;" x1="57" x2="57" y1="146.0195" y2="959.8887"/></g></g><g class="participant-lifeline" data-entity-uid="part2" data-qualified-name="Svc" id="part2-lifeline"><g><title>svc-notifications</title><rect fill="#000000" fill-opacity="0.00000" height="813.8691" width="8" x="281.4189" y="146.0195"/><line style="stroke:#6B7280;stroke-width:0.5;stroke-dasharray:5,5;" x1="285.4038" x2="285.4038" y1="146.0195" y2="959.8887"/></g></g><g class="participant-lifeline" data-entity-uid="part3" data-qualified-name="GP" id="part3-lifeline"><g><title>Guest Profiles</title><rect fill="#000000" fill-opacity="0.00000" height="813.8691" width="8" x="456.1611" y="146.0195"/><line style="stroke:#6B7280;stroke-width:0.5;stroke-dasharray:5,5;" x1="459.335" x2="459.335" y1="146.0195" y2="959.8887"/></g></g><g class="participant-lifeline" data-entity-uid="part4" data-qualified-name="Email" id="part4-lifeline"><g><title>SendGrid</title><rect fill="#000000" fill-opacity="0.00000" height="813.8691" width="8" x="560.7593" y="146.0195"/><line style="stroke:#6B7280;stroke-width:0.5;stroke-dasharray:5,5;" x1="563.9873" x2="563.9873" y1="146.0195" y2="959.8887"/></g></g><g class="participant-lifeline" data-entity-uid="part5" data-qualified-name="SMS" id="part5-lifeline"><g><title>Twilio</title><rect fill="#000000" fill-opacity="0.00000" height="813.8691" width="8" x="641.7212" y="146.0195"/><line style="stroke:#6B7280;stroke-width:0.5;stroke-dasharray:5,5;" x1="645.5313" x2="645.5313" y1="146.0195" y2="959.8887"/></g></g><g class="participant-lifeline" data-entity-uid="part6" data-qualified-name="Push" id="part6-lifeline"><g><title>FCM</title><rect fill="#000000" fill-opacity="0.00000" height="813.8691" width="8" x="706.5366" y="146.0195"/><line style="stroke:#6B7280;stroke-width:0.5;stroke-dasharray:5,5;" x1="709.9111" x2="709.9111" y1="146.0195" y2="959.8887"/></g></g><g class="participant-lifeline" data-entity-uid="part7" data-qualified-name="DB" id="part7-lifeline"><g><title>PostgreSQL</title><rect fill="#000000" fill-opacity="0.00000" height="813.8691" width="8" x="782.5869" y="146.0195"/><line style="stroke:#6B7280;stroke-width:0.5;stroke-dasharray:5,5;" x1="786.1621" x2="786.1621" y1="146.0195" y2="959.8887"/></g></g><g class="participant participant-head" data-entity-uid="part1" data-qualified-name="Client" id="part1-head"><a href="/applications/" target="_top" title="/applications/" xlink:actuate="onRequest" xlink:href="/applications/" xlink:show="new" xlink:title="/applications/" xlink:type="simple"><rect fill="#F9FAFB" height="30.4883" rx="4" ry="4" style="stroke:#374151;stroke-width:0.5;" width="104.8018" x="5" y="114.5313"/><text fill="#000000" font-family="'Segoe UI'" font-size="14" lengthAdjust="spacing" textLength="90.8018" x="12" y="135.0664">Caller Service</text></a></g><g class="participant participant-tail" data-entity-uid="part1" data-qualified-name="Client" id="part1-tail"><a href="/applications/" target="_top" title="/applications/" xlink:actuate="onRequest" xlink:href="/applications/" xlink:show="new" xlink:title="/applications/" xlink:type="simple"><rect fill="#F9FAFB" height="30.4883" rx="4" ry="4" style="stroke:#374151;stroke-width:0.5;" width="104.8018" x="5" y="958.8887"/><text fill="#000000" font-family="'Segoe UI'" font-size="14" lengthAdjust="spacing" textLength="90.8018" x="12" y="979.4238">Caller Service</text></a></g><g class="participant participant-head" data-entity-uid="part2" data-qualified-name="Svc" id="part2-head"><a href="/microservices/svc-notifications/" target="_top" title="/microservices/svc-notifications/" xlink:actuate="onRequest" xlink:href="/microservices/svc-notifications/" xlink:show="new" xlink:title="/microservices/svc-notifications/" xlink:type="simple"><rect fill="#F1F5F9" height="30.4883" rx="4" ry="4" style="stroke:#374151;stroke-width:0.5;" width="128.0303" x="221.4038" y="114.5313"/><text fill="#000000" font-family="'Segoe UI'" font-size="14" lengthAdjust="spacing" textLength="114.0303" x="228.4038" y="135.0664">svc-notifications</text></a></g><g class="participant participant-tail" data-entity-uid="part2" data-qualified-name="Svc" id="part2-tail"><a href="/microservices/svc-notifications/" target="_top" title="/microservices/svc-notifications/" xlink:actuate="onRequest" xlink:href="/microservices/svc-notifications/" xlink:show="new" xlink:title="/microservices/svc-notifications/" xlink:type="simple"><rect fill="#F1F5F9" height="30.4883" rx="4" ry="4" style="stroke:#374151;stroke-width:0.5;" width="128.0303" x="221.4038" y="958.8887"/><text fill="#000000" font-family="'Segoe UI'" font-size="14" lengthAdjust="spacing" textLength="114.0303" x="228.4038" y="979.4238">svc-notifications</text></a></g><g class="participant participant-head" data-entity-uid="part3" data-qualified-name="GP" id="part3-head"><a href="/microservices/svc-guest-profiles/" target="_top" title="/microservices/svc-guest-profiles/" xlink:actuate="onRequest" xlink:href="/microservices/svc-guest-profiles/" xlink:show="new" xlink:title="/microservices/svc-guest-profiles/" xlink:type="simple"><rect fill="#EDE9FE" height="30.4883" rx="4" ry="4" style="stroke:#374151;stroke-width:0.5;" width="107.6523" x="406.335" y="114.5313"/><text fill="#000000" font-family="'Segoe UI'" font-size="14" lengthAdjust="spacing" textLength="93.6523" x="413.335" y="135.0664">Guest Profiles</text></a></g><g class="participant participant-tail" data-entity-uid="part3" data-qualified-name="GP" id="part3-tail"><a href="/microservices/svc-guest-profiles/" target="_top" title="/microservices/svc-guest-profiles/" xlink:actuate="onRequest" xlink:href="/microservices/svc-guest-profiles/" xlink:show="new" xlink:title="/microservices/svc-guest-profiles/" xlink:type="simple"><rect fill="#EDE9FE" height="30.4883" rx="4" ry="4" style="stroke:#374151;stroke-width:0.5;" width="107.6523" x="406.335" y="958.8887"/><text fill="#000000" font-family="'Segoe UI'" font-size="14" lengthAdjust="spacing" textLength="93.6523" x="413.335" y="979.4238">Guest Profiles</text></a></g><g class="participant participant-head" data-entity-uid="part4" data-qualified-name="Email" id="part4-head"><path d="M528.9873,119.5313 L600.5313,119.5313 C605.5313,119.5313 605.5313,132.7754 605.5313,132.7754 C605.5313,132.7754 605.5313,146.0195 600.5313,146.0195 L528.9873,146.0195 C523.9873,146.0195 523.9873,132.7754 523.9873,132.7754 C523.9873,132.7754 523.9873,119.5313 528.9873,119.5313" fill="#F1F5F9" style="stroke:#181818;stroke-width:0.5;"/><path d="M600.5313,119.5313 C595.5313,119.5313 595.5313,132.7754 595.5313,132.7754 C595.5313,146.0195 600.5313,146.0195 600.5313,146.0195" fill="none" style="stroke:#181818;stroke-width:0.5;"/><text fill="#000000" font-family="'Segoe UI'" font-size="14" lengthAdjust="spacing" textLength="61.5439" x="528.9873" y="138.0664">SendGrid</text></g><g class="participant participant-tail" data-entity-uid="part4" data-qualified-name="Email" id="part4-tail"><path d="M528.9873,958.8887 L600.5313,958.8887 C605.5313,958.8887 605.5313,972.1328 605.5313,972.1328 C605.5313,972.1328 605.5313,985.377 600.5313,985.377 L528.9873,985.377 C523.9873,985.377 523.9873,972.1328 523.9873,972.1328 C523.9873,972.1328 523.9873,958.8887 528.9873,958.8887" fill="#F1F5F9" style="stroke:#181818;stroke-width:0.5;"/><path d="M600.5313,958.8887 C595.5313,958.8887 595.5313,972.1328 595.5313,972.1328 C595.5313,985.377 600.5313,985.377 600.5313,985.377" fill="none" style="stroke:#181818;stroke-width:0.5;"/><text fill="#000000" font-family="'Segoe UI'" font-size="14" lengthAdjust="spacing" textLength="61.5439" x="528.9873" y="977.4238">SendGrid</text></g><g class="participant participant-head" data-entity-uid="part5" data-qualified-name="SMS" id="part5-head"><path d="M620.5313,119.5313 L670.9111,119.5313 C675.9111,119.5313 675.9111,132.7754 675.9111,132.7754 C675.9111,132.7754 675.9111,146.0195 670.9111,146.0195 L620.5313,146.0195 C615.5313,146.0195 615.5313,132.7754 615.5313,132.7754 C615.5313,132.7754 615.5313,119.5313 620.5313,119.5313" fill="#F1F5F9" style="stroke:#181818;stroke-width:0.5;"/><path d="M670.9111,119.5313 C665.9111,119.5313 665.9111,132.7754 665.9111,132.7754 C665.9111,146.0195 670.9111,146.0195 670.9111,146.0195" fill="none" style="stroke:#181818;stroke-width:0.5;"/><text fill="#000000" font-family="'Segoe UI'" font-size="14" lengthAdjust="spacing" textLength="40.3799" x="620.5313" y="138.0664">Twilio</text></g><g class="participant participant-tail" data-entity-uid="part5" data-qualified-name="SMS" id="part5-tail"><path d="M620.5313,958.8887 L670.9111,958.8887 C675.9111,958.8887 675.9111,972.1328 675.9111,972.1328 C675.9111,972.1328 675.9111,985.377 670.9111,985.377 L620.5313,985.377 C615.5313,985.377 615.5313,972.1328 615.5313,972.1328 C615.5313,972.1328 615.5313,958.8887 620.5313,958.8887" fill="#F1F5F9" style="stroke:#181818;stroke-width:0.5;"/><path d="M670.9111,958.8887 C665.9111,958.8887 665.9111,972.1328 665.9111,972.1328 C665.9111,985.377 670.9111,985.377 670.9111,985.377" fill="none" style="stroke:#181818;stroke-width:0.5;"/><text fill="#000000" font-family="'Segoe UI'" font-size="14" lengthAdjust="spacing" textLength="40.3799" x="620.5313" y="977.4238">Twilio</text></g><g class="participant participant-head" data-entity-uid="part6" data-qualified-name="Push" id="part6-head"><path d="M690.9111,119.5313 L730.1621,119.5313 C735.1621,119.5313 735.1621,132.7754 735.1621,132.7754 C735.1621,132.7754 735.1621,146.0195 730.1621,146.0195 L690.9111,146.0195 C685.9111,146.0195 685.9111,132.7754 685.9111,132.7754 C685.9111,132.7754 685.9111,119.5313 690.9111,119.5313" fill="#F1F5F9" style="stroke:#181818;stroke-width:0.5;"/><path d="M730.1621,119.5313 C725.1621,119.5313 725.1621,132.7754 725.1621,132.7754 C725.1621,146.0195 730.1621,146.0195 730.1621,146.0195" fill="none" style="stroke:#181818;stroke-width:0.5;"/><text fill="#000000" font-family="'Segoe UI'" font-size="14" lengthAdjust="spacing" textLength="29.251" x="690.9111" y="138.0664">FCM</text></g><g class="participant participant-tail" data-entity-uid="part6" data-qualified-name="Push" id="part6-tail"><path d="M690.9111,958.8887 L730.1621,958.8887 C735.1621,958.8887 735.1621,972.1328 735.1621,972.1328 C735.1621,972.1328 735.1621,985.377 730.1621,985.377 L690.9111,985.377 C685.9111,985.377 685.9111,972.1328 685.9111,972.1328 C685.9111,972.1328 685.9111,958.8887 690.9111,958.8887" fill="#F1F5F9" style="stroke:#181818;stroke-width:0.5;"/><path d="M730.1621,958.8887 C725.1621,958.8887 725.1621,972.1328 725.1621,972.1328 C725.1621,985.377 730.1621,985.377 730.1621,985.377" fill="none" style="stroke:#181818;stroke-width:0.5;"/><text fill="#000000" font-family="'Segoe UI'" font-size="14" lengthAdjust="spacing" textLength="29.251" x="690.9111" y="977.4238">FCM</text></g><g class="participant participant-head" data-entity-uid="part7" data-qualified-name="DB" id="part7-head"><a href="/microservices/svc-notifications/#data-store" target="_top" title="/microservices/svc-notifications/#data-store" xlink:actuate="onRequest" xlink:href="/microservices/svc-notifications/#data-store" xlink:show="new" xlink:title="/microservices/svc-notifications/#data-store" xlink:type="simple"><text fill="#000000" font-family="'Segoe UI'" font-size="14" lengthAdjust="spacing" textLength="76.8496" x="745.1621" y="143.0664">PostgreSQL</text><path d="M768.5869,93.5313 C768.5869,83.5313 786.5869,83.5313 786.5869,83.5313 C786.5869,83.5313 804.5869,83.5313 804.5869,93.5313 L804.5869,119.5313 C804.5869,129.5313 786.5869,129.5313 786.5869,129.5313 C786.5869,129.5313 768.5869,129.5313 768.5869,119.5313 L768.5869,93.5313" fill="#FEF9C3" style="stroke:#181818;stroke-width:0.5;"/><path d="M768.5869,93.5313 C768.5869,103.5313 786.5869,103.5313 786.5869,103.5313 C786.5869,103.5313 804.5869,103.5313 804.5869,93.5313" fill="none" style="stroke:#181818;stroke-width:0.5;"/></a></g><g class="participant participant-tail" data-entity-uid="part7" data-qualified-name="DB" id="part7-tail"><a href="/microservices/svc-notifications/#data-store" target="_top" title="/microservices/svc-notifications/#data-store" xlink:actuate="onRequest" xlink:href="/microservices/svc-notifications/#data-store" xlink:show="new" xlink:title="/microservices/svc-notifications/#data-store" xlink:type="simple"><text fill="#000000" font-family="'Segoe UI'" font-size="14" lengthAdjust="spacing" textLength="76.8496" x="745.1621" y="972.4238">PostgreSQL</text><path d="M768.5869,985.377 C768.5869,975.377 786.5869,975.377 786.5869,975.377 C786.5869,975.377 804.5869,975.377 804.5869,985.377 L804.5869,1011.377 C804.5869,1021.377 786.5869,1021.377 786.5869,1021.377 C786.5869,1021.377 768.5869,1021.377 768.5869,1011.377 L768.5869,985.377" fill="#FEF9C3" style="stroke:#181818;stroke-width:0.5;"/><path d="M768.5869,985.377 C768.5869,995.377 786.5869,995.377 786.5869,995.377 C786.5869,995.377 804.5869,995.377 804.5869,985.377" fill="none" style="stroke:#181818;stroke-width:0.5;"/></a></g><g><title>svc-notifications</title><rect fill="#64748B" height="698.627" style="stroke:#181818;stroke-width:1;" width="10" x="280.4189" y="243.2617"/></g><g><title>Guest Profiles</title><rect fill="#EDE9FE" height="59.9316" style="stroke:#181818;stroke-width:1;" width="10" x="455.1611" y="303.1934"/></g><g><title>PostgreSQL</title><rect fill="#FEF9C3" height="29.3105" style="stroke:#181818;stroke-width:1;" width="10" x="781.5869" y="504.2988"/></g><g><title>PostgreSQL</title><rect fill="#FEF9C3" height="29.3105" style="stroke:#181818;stroke-width:1;" width="10" x="781.5869" y="852.6465"/></g><path d="M215,165.0195 L215,182.0195 A4,4 0 0 0 219,186.0195 L351,186.0195 A4,4 0 0 0 355,182.0195 L355,171.0195 L345,161.0195 L219,161.0195 A4,4 0 0 0 215,165.0195" fill="#FEFFDD" style="stroke:#181818;stroke-width:0.5;"/><path d="M345,161.0195 L345,169.0195 A2,2 0 0 0 347,171.0195 L355,171.0195 L345,161.0195" fill="#FEFFDD" style="stroke:#181818;stroke-width:0.5;"/><a href="/services/api/svc-notifications.html" target="_top" title="/services/api/svc-notifications.html" xlink:actuate="onRequest" xlink:href="/services/api/svc-notifications.html" xlink:show="new" xlink:title="/services/api/svc-notifications.html" xlink:type="simple"><text fill="#0000FF" font-family="'Segoe UI'" font-size="13" lengthAdjust="spacing" text-decoration="underline" textLength="119.4058" x="221" y="178.5879">View in Swagger UI</text></a><g class="message" data-entity-1="part1" data-entity-2="part2" id="msg1"><polygon fill="#64748B" points="268.4189,239.2617,278.4189,243.2617,268.4189,247.2617,272.4189,243.2617" style="stroke:#64748B;stroke-width:1;"/><line style="stroke:#64748B;stroke-width:1;" x1="57.4009" x2="274.4189" y1="243.2617" y2="243.2617"/><text fill="#000000" font-family="'Segoe UI'" font-size="13" lengthAdjust="spacing" textLength="121.7861" x="64.4009" y="207.8984">POST /notifications</text><text fill="#000000" font-family="'Segoe UI'" font-size="13" lengthAdjust="spacing" textLength="129.4922" x="64.4009" y="223.209">{ guest_id, template,</text><text fill="#000000" font-family="'Segoe UI'" font-size="13" lengthAdjust="spacing" textLength="178.6294" x="64.4009" y="238.5195">channel_override?, payload }</text></g><g class="message" data-entity-1="part2" data-entity-2="part3" id="msg2"><polygon fill="#64748B" points="443.1611,299.1934,453.1611,303.1934,443.1611,307.1934,447.1611,303.1934" style="stroke:#64748B;stroke-width:1;"/><line style="stroke:#64748B;stroke-width:1;" x1="290.4189" x2="449.1611" y1="303.1934" y2="303.1934"/><a href="/microservices/svc-guest-profiles/#get-guestsguest_id-get-guest-profile-by-id" target="_top" title="/microservices/svc-guest-profiles/#get-guestsguest_id-get-guest-profile-by-id" xlink:actuate="onRequest" xlink:href="/microservices/svc-guest-profiles/#get-guestsguest_id-get-guest-profile-by-id" xlink:show="new" xlink:title="/microservices/svc-guest-profiles/#get-guestsguest_id-get-guest-profile-by-id" xlink:type="simple"><text fill="#0000FF" font-family="'Segoe UI'" font-size="13" lengthAdjust="spacing" text-decoration="underline" textLength="145.7422" x="297.4189" y="267.8301">GET /guests/{guest_id}</text></a><text fill="#000000" font-family="'Segoe UI'" font-size="13" lengthAdjust="spacing" textLength="141.3433" x="297.4189" y="283.1406">Resolve contact info +</text><text fill="#000000" font-family="'Segoe UI'" font-size="13" lengthAdjust="spacing" textLength="127.0801" x="297.4189" y="298.4512">channel preferences</text></g><g class="message" data-entity-1="part3" data-entity-2="part2" id="msg3"><polygon fill="#64748B" points="301.4189,359.125,291.4189,363.125,301.4189,367.125,297.4189,363.125" style="stroke:#64748B;stroke-width:1;"/><line style="stroke:#64748B;stroke-width:1;stroke-dasharray:2,2;" x1="295.4189" x2="459.1611" y1="363.125" y2="363.125"/><text fill="#000000" font-family="'Segoe UI'" font-size="13" lengthAdjust="spacing" textLength="81.3325" x="307.4189" y="327.7617">Guest profile</text><text fill="#000000" font-family="'Segoe UI'" font-size="13" lengthAdjust="spacing" textLength="90.1875" x="307.4189" y="343.0723">(email, phone,</text><text fill="#000000" font-family="'Segoe UI'" font-size="13" lengthAdjust="spacing" textLength="133.6816" x="307.4189" y="358.3828">preferred_channels[])</text></g><path d="M295,380.125 L295,443.125 A4,4 0 0 0 299,447.125 L488,447.125 A4,4 0 0 0 492,443.125 L492,386.125 L482,376.125 L299,376.125 A4,4 0 0 0 295,380.125" fill="#FEFFDD" style="stroke:#181818;stroke-width:0.5;"/><path d="M482,376.125 L482,384.125 A2,2 0 0 0 484,386.125 L492,386.125 L482,376.125" fill="#FEFFDD" style="stroke:#181818;stroke-width:0.5;"/><text fill="#000000" font-family="'Segoe UI'" font-size="13" lengthAdjust="spacing" textLength="115.8066" x="301" y="393.6934">Channel selection:</text><text fill="#000000" font-family="'Segoe UI'" font-size="13" lengthAdjust="spacing" textLength="159.2627" x="301" y="409.0039">1. channel_override if set</text><text fill="#000000" font-family="'Segoe UI'" font-size="13" lengthAdjust="spacing" textLength="176.4648" x="301" y="424.3145">2. guest preferred_channels</text><text fill="#000000" font-family="'Segoe UI'" font-size="13" lengthAdjust="spacing" textLength="107.8403" x="301" y="439.625">3. fallback: email</text><g class="message" data-entity-1="part2" data-entity-2="part7" id="msg4"><polygon fill="#64748B" points="769.5869,500.2988,779.5869,504.2988,769.5869,508.2988,773.5869,504.2988" style="stroke:#64748B;stroke-width:1;"/><line style="stroke:#64748B;stroke-width:1;" x1="290.4189" x2="775.5869" y1="504.2988" y2="504.2988"/><text fill="#000000" font-family="'Segoe UI'" font-size="13" lengthAdjust="spacing" textLength="162.0811" x="297.4189" y="468.9355">INSERT INTO notifications</text><text fill="#000000" font-family="'Segoe UI'" font-size="13" lengthAdjust="spacing" textLength="189.2744" x="297.4189" y="484.2461">(template, guest_id, channels,</text><text fill="#000000" font-family="'Segoe UI'" font-size="13" lengthAdjust="spacing" textLength="117.3301" x="297.4189" y="499.5566">status = PENDING)</text></g><g class="message" data-entity-1="part7" data-entity-2="part2" id="msg5"><polygon fill="#64748B" points="301.4189,529.6094,291.4189,533.6094,301.4189,537.6094,297.4189,533.6094" style="stroke:#64748B;stroke-width:1;"/><line style="stroke:#64748B;stroke-width:1;stroke-dasharray:2,2;" x1="295.4189" x2="785.5869" y1="533.6094" y2="533.6094"/><text fill="#000000" font-family="'Segoe UI'" font-size="13" lengthAdjust="spacing" textLength="90.1621" x="307.4189" y="528.8672">notification_id</text></g><path d="M205.4038,548.6094 L268.5698,548.6094 L268.5698,555.9199 L258.5698,565.9199 L201.4038,565.9199 L201.4038,552.6094 A4,4 0 0 1 205.4038,548.6094" fill="#EEEEEE" style="stroke:#000000;stroke-width:1.5;"/><rect fill="none" height="245.1055" rx="4" ry="4" style="stroke:#000000;stroke-width:1.5;" width="553.7583" x="201.4038" y="548.6094"/><text fill="#000000" font-family="'Segoe UI'" font-size="13" font-weight="bold" lengthAdjust="spacing" textLength="22.166" x="216.4038" y="562.1777">par</text><text fill="#000000" font-family="'Segoe UI'" font-size="11" font-weight="bold" lengthAdjust="spacing" textLength="177.2944" x="283.5698" y="561.2441">[Dispatch to selected channels]</text><path d="M215.4038,572.9199 L278.5889,572.9199 L278.5889,580.2305 L268.5889,590.2305 L211.4038,590.2305 L211.4038,576.9199 A4,4 0 0 1 215.4038,572.9199" fill="#EEEEEE" style="stroke:#000000;stroke-width:1.5;"/><rect fill="none" height="61.9316" rx="4" ry="4" style="stroke:#000000;stroke-width:1.5;" width="404.1274" x="211.4038" y="572.9199"/><text fill="#000000" font-family="'Segoe UI'" font-size="13" font-weight="bold" lengthAdjust="spacing" textLength="22.1851" x="226.4038" y="586.4883">opt</text><text fill="#000000" font-family="'Segoe UI'" font-size="11" font-weight="bold" lengthAdjust="spacing" textLength="86.6895" x="293.5889" y="585.5547">[Email channel]</text><g class="message" data-entity-1="part2" data-entity-2="part4" id="msg6"><line style="stroke:#64748B;stroke-width:1;" x1="562.7593" x2="552.7593" y1="626.8516" y2="622.8516"/><line style="stroke:#64748B;stroke-width:1;" x1="562.7593" x2="552.7593" y1="626.8516" y2="630.8516"/><line style="stroke:#64748B;stroke-width:1;" x1="290.4189" x2="563.7593" y1="626.8516" y2="626.8516"/><text fill="#000000" font-family="'Segoe UI'" font-size="13" lengthAdjust="spacing" textLength="68.6816" x="297.4189" y="606.7988">Send email</text><text fill="#000000" font-family="'Segoe UI'" font-size="13" lengthAdjust="spacing" textLength="121.4053" x="297.4189" y="622.1094">(template, payload)</text></g><path d="M215.4038,648.8516 L278.5889,648.8516 L278.5889,656.1621 L268.5889,666.1621 L211.4038,666.1621 L211.4038,652.8516 A4,4 0 0 1 215.4038,648.8516" fill="#EEEEEE" style="stroke:#000000;stroke-width:1.5;"/><rect fill="none" height="61.9316" rx="4" ry="4" style="stroke:#000000;stroke-width:1.5;" width="474.5073" x="211.4038" y="648.8516"/><text fill="#000000" font-family="'Segoe UI'" font-size="13" font-weight="bold" lengthAdjust="spacing" textLength="22.1851" x="226.4038" y="662.4199">opt</text><text fill="#000000" font-family="'Segoe UI'" font-size="11" font-weight="bold" lengthAdjust="spacing" textLength="78.3481" x="293.5889" y="661.4863">[SMS channel]</text><g class="message" data-entity-1="part2" data-entity-2="part5" id="msg7"><line style="stroke:#64748B;stroke-width:1;" x1="643.7212" x2="633.7212" y1="702.7832" y2="698.7832"/><line style="stroke:#64748B;stroke-width:1;" x1="643.7212" x2="633.7212" y1="702.7832" y2="706.7832"/><line style="stroke:#64748B;stroke-width:1;" x1="290.4189" x2="644.7212" y1="702.7832" y2="702.7832"/><text fill="#000000" font-family="'Segoe UI'" font-size="13" lengthAdjust="spacing" textLength="59.8076" x="297.4189" y="682.7305">Send SMS</text><text fill="#000000" font-family="'Segoe UI'" font-size="13" lengthAdjust="spacing" textLength="121.4053" x="297.4189" y="698.041">(template, payload)</text></g><path d="M215.4038,724.7832 L278.5889,724.7832 L278.5889,732.0938 L268.5889,742.0938 L211.4038,742.0938 L211.4038,728.7832 A4,4 0 0 1 215.4038,724.7832" fill="#EEEEEE" style="stroke:#000000;stroke-width:1.5;"/><rect fill="none" height="61.9316" rx="4" ry="4" style="stroke:#000000;stroke-width:1.5;" width="533.7583" x="211.4038" y="724.7832"/><text fill="#000000" font-family="'Segoe UI'" font-size="13" font-weight="bold" lengthAdjust="spacing" textLength="22.1851" x="226.4038" y="738.3516">opt</text><text fill="#000000" font-family="'Segoe UI'" font-size="11" font-weight="bold" lengthAdjust="spacing" textLength="83.209" x="293.5889" y="737.418">[Push channel]</text><g class="message" data-entity-1="part2" data-entity-2="part6" id="msg8"><line style="stroke:#64748B;stroke-width:1;" x1="708.5366" x2="698.5366" y1="778.7148" y2="774.7148"/><line style="stroke:#64748B;stroke-width:1;" x1="708.5366" x2="698.5366" y1="778.7148" y2="782.7148"/><line style="stroke:#64748B;stroke-width:1;" x1="290.4189" x2="709.5366" y1="778.7148" y2="778.7148"/><text fill="#000000" font-family="'Segoe UI'" font-size="13" lengthAdjust="spacing" textLength="65.5522" x="297.4189" y="758.6621">Send push</text><text fill="#000000" font-family="'Segoe UI'" font-size="13" lengthAdjust="spacing" textLength="121.4053" x="297.4189" y="773.9727">(template, payload)</text></g><g class="message" data-entity-1="part2" data-entity-2="part7" id="msg9"><polygon fill="#64748B" points="769.5869,848.6465,779.5869,852.6465,769.5869,856.6465,773.5869,852.6465" style="stroke:#64748B;stroke-width:1;"/><line style="stroke:#64748B;stroke-width:1;" x1="290.4189" x2="775.5869" y1="852.6465" y2="852.6465"/><text fill="#000000" font-family="'Segoe UI'" font-size="13" lengthAdjust="spacing" textLength="132.6279" x="297.4189" y="817.2832">UPDATE notifications</text><text fill="#000000" font-family="'Segoe UI'" font-size="13" lengthAdjust="spacing" textLength="119.1519" x="297.4189" y="832.5938">SET status = SENT,</text><text fill="#000000" font-family="'Segoe UI'" font-size="13" lengthAdjust="spacing" textLength="170.4663" x="297.4189" y="847.9043">channels_dispatched = [...]</text></g><g class="message" data-entity-1="part7" data-entity-2="part2" id="msg10"><polygon fill="#64748B" points="301.4189,877.957,291.4189,881.957,301.4189,885.957,297.4189,881.957" style="stroke:#64748B;stroke-width:1;"/><line style="stroke:#64748B;stroke-width:1;stroke-dasharray:2,2;" x1="295.4189" x2="785.5869" y1="881.957" y2="881.957"/><text fill="#000000" font-family="'Segoe UI'" font-size="13" lengthAdjust="spacing" textLength="52.8379" x="307.4189" y="877.2148">Updated</text></g><g class="message" data-entity-1="part2" data-entity-2="part1" id="msg11"><polygon fill="#64748B" points="68.4009,937.8887,58.4009,941.8887,68.4009,945.8887,64.4009,941.8887" style="stroke:#64748B;stroke-width:1;"/><line style="stroke:#64748B;stroke-width:1;stroke-dasharray:2,2;" x1="62.4009" x2="284.4189" y1="941.8887" y2="941.8887"/><text fill="#000000" font-family="'Segoe UI'" font-size="13" lengthAdjust="spacing" textLength="77.7969" x="74.4009" y="906.5254">201 Created</text><text fill="#000000" font-family="'Segoe UI'" font-size="13" lengthAdjust="spacing" textLength="199.0181" x="74.4009" y="921.8359">(notification_id, channels_used,</text><text fill="#000000" font-family="'Segoe UI'" font-size="13" lengthAdjust="spacing" textLength="42.4531" x="74.4009" y="937.1465">status)</text></g><a href="/microservices/svc-notifications/#integration-context" target="_top" title="/microservices/svc-notifications/#integration-context" xlink:actuate="onRequest" xlink:href="/microservices/svc-notifications/#integration-context" xlink:show="new" xlink:title="/microservices/svc-notifications/#integration-context" xlink:type="simple"><text fill="#0000FF" font-family="'Segoe UI'" font-size="10" lengthAdjust="spacing" text-decoration="underline" textLength="192.6221" x="639.3896" y="14.668">&#11014; svc-notifications Integration Context</text></a><?plantuml-src ZLJRRjj647tdLqojbnWrgJXEcrfmL3WKfGfeR5MKys89mfeSYOjGkmntAJKr3FIfNz3Fw5VbIpgxlEYMj2OWYDoPFJDppinynqMK5Z62vxLrWYlqicALEkeZ5ndBsGeKVYfGH0YF3j1pdUTouyjKvj3wyVMRrpyzE4-Eao2BCOVx-_QAHxbKcAzvXAgjrf4hfEOB7Z7DfL3j5XSQbxdzSYD97xzh-FBFNt3a2iEj9_YbvspcE9hh565q6qwWlNTXAa8KCJ3OFPsAAyN_mCxvo-vLPDBkjDv45mpZxlNO_sKu2Vm9t7u8nkDXBu0lV_uDA78U9HZ3Xki4LaMgkHibJ0XC8UOgOpfAW56SBCS5vfQQN1QQY-LLsqReNhLDoAxZ48EQHpnZGiE9pzAKE0fBRaw0AV1JZcGYsbYMfGr7LENUpIDgxELm7Js7yDaCMltp_W_zottGGO5AmoYN2vvYYJWOVHrmQLpTh7ArY44lkEm73hL6WN1YU1_aFBOemOhnj8bPUKmsFEMopFjzU6Zj---jQLIefB75JBC7fiWyaaelSmn_-zLwzTuzgz7CVLTfcQEb8EXV-XUEGqu8Scs4M4VKqOJKWB2C7mDvYLwby87Z1hY0SCEMIxfyDoIHJBSPFCUfX7IxLfNErxlp4IoHSnwVWSPLbZADPrDHDTVS94KSuizdaB7FgMGnF3aiqdnDVXQt7ZZ7V50iqglpBCLQIzJbcQfJS9kZsirz-Epo60O1PLxwjXzhxwVPR2h6g6IwHZ1JItaH7Gi9tpS5x0o4skPDETRDGgzkmr3PVbNegNY1fckeyaGAGqg9bMCyhz3L_UpKYN47jz8ovyj4WrnKk7wLZC8K8qDyPohEFJWa6VY2NFHKlF9ALU0uubHSUB2WgNrWqSSEs0mRxga9Ep2y2OFnXFucjt0Wzej6uHtLQsGgK6cc2mLlOHJSz8OtWzCjPGHTjokzRYdRZK1mkspqtjbb0xrwGMbPCK2Bh8vgzxVCT3MXrR4zDKzPMBUoTi0kKrlqNZLLRvxQU-JIe9gv_XQciLM8zFeyFBiClWLeZHLYHk__3Mb-UyBTZNhNa-1Giv1Qlz4b36ucs-bKytht4w5luTxplDd_AtQNqHB28wLi9kHKROqEl7fv3dwEnfSAET1vspRpGc7SzCxUE9XbzYy0?></g></svg>