<svg xmlns="http://www.w3.org/2000/svg" xmlns:xlink="http://www.w3.org/1999/xlink" contentStyleType="text/css" data-diagram-type="SEQUENCE" height="616px" preserveAspectRatio="none" style="width:905px;height:616px;background:#FEFEFE;" version="1.1" viewBox="0 0 905 616" width="905px" zoomAndPan="magnify"><title>POST /check-ins/{check_in_id}/wristband-assignment</title><defs/><g><rect fill="#FEFEFE" height="616" style="stroke:none;stroke-width:1;" width="905" x="0" y="0"/><text fill="#000000" font-family="Segoe UI" font-size="14" font-weight="bold" lengthAdjust="spacing" textLength="396.2041" x="250.6497" y="41.3125">POST /check-ins/{check_in_id}/wristband-assignment</text><text fill="#000000" font-family="Segoe UI" font-size="14" font-weight="bold" lengthAdjust="spacing" textLength="352.6182" x="272.4426" y="57.8008">Assign RFID wristband to checked-in participant</text><g><title>API Gateway</title><rect fill="#059669" height="319.1055" style="stroke:#A23B72;stroke-width:1;" width="10" x="393.8623" y="200.8633"/></g><g><title>svc-check-in</title><rect fill="#059669" height="260.4844" style="stroke:#A23B72;stroke-width:1;" width="10" x="507.9971" y="230.1738"/></g><g><title>PostgreSQL</title><rect fill="#FCE4EC" height="29.3105" style="stroke:#A23B72;stroke-width:1;" width="10" x="714.4014" y="338.1055"/></g><g><title>PostgreSQL</title><rect fill="#FCE4EC" height="29.3105" style="stroke:#A23B72;stroke-width:1;" width="10" x="714.4014" y="432.0371"/></g><g><title>Client</title><rect fill="#000000" fill-opacity="0.00000" height="403.7266" width="8" x="27.7524" y="134.2422"/><line style="stroke:#A23B72;stroke-width:0.5;stroke-dasharray:5,5;" x1="31" x2="31" y1="134.2422" y2="537.9688"/></g><g><title>API Gateway</title><rect fill="#000000" fill-opacity="0.00000" height="403.7266" width="8" x="394.8623" y="134.2422"/><line style="stroke:#A23B72;stroke-width:0.5;stroke-dasharray:5,5;" x1="398.5732" x2="398.5732" y1="134.2422" y2="537.9688"/></g><g><title>svc-check-in</title><rect fill="#000000" fill-opacity="0.00000" height="403.7266" width="8" x="508.9971" y="134.2422"/><line style="stroke:#A23B72;stroke-width:0.5;stroke-dasharray:5,5;" x1="512.2456" x2="512.2456" y1="134.2422" y2="537.9688"/></g><g><title>PostgreSQL</title><rect fill="#000000" fill-opacity="0.00000" height="403.7266" width="8" x="715.4014" y="134.2422"/><line style="stroke:#A23B72;stroke-width:0.5;stroke-dasharray:5,5;" x1="718.9766" x2="718.9766" y1="134.2422" y2="537.9688"/></g><g class="participant participant-head" data-participant="Client"><rect fill="#E8F4F8" height="30.4883" rx="2.5" ry="2.5" style="stroke:#2E86AB;stroke-width:0.5;" width="53.5049" x="5" y="102.7539"/><text fill="#000000" font-family="Segoe UI" font-size="14" lengthAdjust="spacing" textLength="39.5049" x="12" y="123.2891">Client</text></g><g class="participant participant-tail" data-participant="Client"><rect fill="#E8F4F8" height="30.4883" rx="2.5" ry="2.5" style="stroke:#2E86AB;stroke-width:0.5;" width="53.5049" x="5" y="536.9688"/><text fill="#000000" font-family="Segoe UI" font-size="14" lengthAdjust="spacing" textLength="39.5049" x="12" y="557.5039">Client</text></g><g class="participant participant-head" data-participant="GW"><rect fill="#DBEAFE" height="30.4883" rx="2.5" ry="2.5" style="stroke:#2E86AB;stroke-width:0.5;" width="96.5781" x="350.5732" y="102.7539"/><text fill="#000000" font-family="Segoe UI" font-size="14" lengthAdjust="spacing" textLength="82.5781" x="357.5732" y="123.2891">API Gateway</text></g><g class="participant participant-tail" data-participant="GW"><rect fill="#DBEAFE" height="30.4883" rx="2.5" ry="2.5" style="stroke:#2E86AB;stroke-width:0.5;" width="96.5781" x="350.5732" y="536.9688"/><text fill="#000000" font-family="Segoe UI" font-size="14" lengthAdjust="spacing" textLength="82.5781" x="357.5732" y="557.5039">API Gateway</text></g><g class="participant participant-head" data-participant="Svc"><a href="/microservices/svc-check-in/" target="_top" title="/microservices/svc-check-in/" xlink:actuate="onRequest" xlink:href="/microservices/svc-check-in/" xlink:show="new" xlink:title="/microservices/svc-check-in/" xlink:type="simple"><rect fill="#E8F4F8" height="30.4883" rx="2.5" ry="2.5" style="stroke:#2E86AB;stroke-width:0.5;" width="103.5029" x="461.2456" y="102.7539"/><text fill="#000000" font-family="Segoe UI" font-size="14" lengthAdjust="spacing" textLength="89.5029" x="468.2456" y="123.2891">svc-check-in</text></a></g><g class="participant participant-tail" data-participant="Svc"><a href="/microservices/svc-check-in/" target="_top" title="/microservices/svc-check-in/" xlink:actuate="onRequest" xlink:href="/microservices/svc-check-in/" xlink:show="new" xlink:title="/microservices/svc-check-in/" xlink:type="simple"><rect fill="#E8F4F8" height="30.4883" rx="2.5" ry="2.5" style="stroke:#2E86AB;stroke-width:0.5;" width="103.5029" x="461.2456" y="536.9688"/><text fill="#000000" font-family="Segoe UI" font-size="14" lengthAdjust="spacing" textLength="89.5029" x="468.2456" y="557.5039">svc-check-in</text></a></g><g class="participant participant-head" data-participant="DB"><text fill="#000000" font-family="Segoe UI" font-size="14" lengthAdjust="spacing" textLength="76.8496" x="677.9766" y="131.2891">PostgreSQL</text><path d="M701.4014,81.7539 C701.4014,71.7539 719.4014,71.7539 719.4014,71.7539 C719.4014,71.7539 737.4014,71.7539 737.4014,81.7539 L737.4014,107.7539 C737.4014,117.7539 719.4014,117.7539 719.4014,117.7539 C719.4014,117.7539 701.4014,117.7539 701.4014,107.7539 L701.4014,81.7539" fill="#FCE4EC" style="stroke:#181818;stroke-width:0.5;"/><path d="M701.4014,81.7539 C701.4014,91.7539 719.4014,91.7539 719.4014,91.7539 C719.4014,91.7539 737.4014,91.7539 737.4014,81.7539" fill="none" style="stroke:#181818;stroke-width:0.5;"/></g><g class="participant participant-tail" data-participant="DB"><text fill="#000000" font-family="Segoe UI" font-size="14" lengthAdjust="spacing" textLength="76.8496" x="677.9766" y="550.5039">PostgreSQL</text><path d="M701.4014,563.457 C701.4014,553.457 719.4014,553.457 719.4014,553.457 C719.4014,553.457 737.4014,553.457 737.4014,563.457 L737.4014,589.457 C737.4014,599.457 719.4014,599.457 719.4014,599.457 C719.4014,599.457 701.4014,599.457 701.4014,589.457 L701.4014,563.457" fill="#FCE4EC" style="stroke:#181818;stroke-width:0.5;"/><path d="M701.4014,563.457 C701.4014,573.457 719.4014,573.457 719.4014,573.457 C719.4014,573.457 737.4014,573.457 737.4014,563.457" fill="none" style="stroke:#181818;stroke-width:0.5;"/></g><g><title>API Gateway</title><rect fill="#059669" height="319.1055" style="stroke:#A23B72;stroke-width:1;" width="10" x="393.8623" y="200.8633"/></g><g><title>svc-check-in</title><rect fill="#059669" height="260.4844" style="stroke:#A23B72;stroke-width:1;" width="10" x="507.9971" y="230.1738"/></g><g><title>PostgreSQL</title><rect fill="#FCE4EC" height="29.3105" style="stroke:#A23B72;stroke-width:1;" width="10" x="714.4014" y="338.1055"/></g><g><title>PostgreSQL</title><rect fill="#FCE4EC" height="29.3105" style="stroke:#A23B72;stroke-width:1;" width="10" x="714.4014" y="432.0371"/></g><path d="M442,149.2422 L442,174.2422 L582,174.2422 L582,159.2422 L572,149.2422 L442,149.2422" fill="#FEFFDD" style="stroke:#181818;stroke-width:0.5;"/><path d="M572,149.2422 L572,159.2422 L582,159.2422 L572,149.2422" fill="#FEFFDD" style="stroke:#181818;stroke-width:0.5;"/><a href="/services/api/svc-check-in.html#/Check-Ins/assignWristband" target="_top" title="/services/api/svc-check-in.html#/Check-Ins/assignWristband" xlink:actuate="onRequest" xlink:href="/services/api/svc-check-in.html#/Check-Ins/assignWristband" xlink:show="new" xlink:title="/services/api/svc-check-in.html#/Check-Ins/assignWristband" xlink:type="simple"><text fill="#0000FF" font-family="Segoe UI" font-size="13" lengthAdjust="spacing" text-decoration="underline" textLength="119.4058" x="448" y="166.8105">View in Swagger UI</text></a><g class="message" data-participant-1="Client" data-participant-2="GW"><polygon fill="#059669" points="381.8623,196.8633,391.8623,200.8633,381.8623,204.8633,385.8623,200.8633" style="stroke:#059669;stroke-width:1;"/><line style="stroke:#059669;stroke-width:1;" x1="31.7524" x2="387.8623" y1="200.8633" y2="200.8633"/><text fill="#000000" font-family="Segoe UI" font-size="13" lengthAdjust="spacing" textLength="343.1099" x="38.7524" y="196.1211">POST /check-ins/{check_in_id}/wristband-assignment</text></g><g class="message" data-participant-1="GW" data-participant-2="Svc"><polygon fill="#059669" points="495.9971,226.1738,505.9971,230.1738,495.9971,234.1738,499.9971,230.1738" style="stroke:#059669;stroke-width:1;"/><line style="stroke:#059669;stroke-width:1;" x1="403.8623" x2="501.9971" y1="230.1738" y2="230.1738"/><text fill="#000000" font-family="Segoe UI" font-size="13" lengthAdjust="spacing" textLength="85.1348" x="410.8623" y="225.4316">route request</text></g><path d="M522,243.1738 L522,268.1738 L680,268.1738 L680,253.1738 L670,243.1738 L522,243.1738" fill="#FEFFDD" style="stroke:#181818;stroke-width:0.5;"/><path d="M670,243.1738 L670,253.1738 L680,253.1738 L670,243.1738" fill="#FEFFDD" style="stroke:#181818;stroke-width:0.5;"/><text fill="#000000" font-family="Segoe UI" font-size="13" lengthAdjust="spacing" textLength="137.5728" x="528" y="260.7422">Validate request body</text><rect fill="#EEEEEE" height="3" style="stroke:#EEEEEE;stroke-width:1;" width="898.5034" x="0" y="294.1396"/><line style="stroke:#000000;stroke-width:1;" x1="0" x2="898.5034" y1="294.1396" y2="294.1396"/><line style="stroke:#000000;stroke-width:1;" x1="0" x2="898.5034" y1="297.1396" y2="297.1396"/><rect fill="#EEEEEE" height="23.3105" style="stroke:#000000;stroke-width:2;" width="80.3711" x="409.0662" y="283.4844"/><text fill="#000000" font-family="Segoe UI" font-size="13" font-weight="bold" lengthAdjust="spacing" textLength="62.0864" x="415.0662" y="300.0527">Database</text><g class="message" data-participant-1="Svc" data-participant-2="DB"><polygon fill="#059669" points="702.4014,334.1055,712.4014,338.1055,702.4014,342.1055,706.4014,338.1055" style="stroke:#059669;stroke-width:1;"/><line style="stroke:#059669;stroke-width:1;" x1="517.9971" x2="708.4014" y1="338.1055" y2="338.1055"/><text fill="#000000" font-family="Segoe UI" font-size="13" lengthAdjust="spacing" textLength="177.4043" x="524.9971" y="333.3633">SELECT parent WHERE id = ?</text></g><g class="message" data-participant-1="DB" data-participant-2="Svc"><polygon fill="#059669" points="528.9971,363.416,518.9971,367.416,528.9971,371.416,524.9971,367.416" style="stroke:#059669;stroke-width:1;"/><line style="stroke:#059669;stroke-width:1;stroke-dasharray:2,2;" x1="522.9971" x2="718.4014" y1="367.416" y2="367.416"/><text fill="#000000" font-family="Segoe UI" font-size="13" lengthAdjust="spacing" textLength="67.2915" x="534.9971" y="362.6738">Parent row</text></g><path d="M724,380.416 L724,405.416 L893,405.416 L893,390.416 L883,380.416 L724,380.416" fill="#FEFFDD" style="stroke:#181818;stroke-width:0.5;"/><path d="M883,380.416 L883,390.416 L893,390.416 L883,380.416" fill="#FEFFDD" style="stroke:#181818;stroke-width:0.5;"/><text fill="#000000" font-family="Segoe UI" font-size="13" lengthAdjust="spacing" textLength="148.5034" x="730" y="397.9844">404 if parent not found</text><g class="message" data-participant-1="Svc" data-participant-2="DB"><polygon fill="#059669" points="702.4014,428.0371,712.4014,432.0371,702.4014,436.0371,706.4014,432.0371" style="stroke:#059669;stroke-width:1;"/><line style="stroke:#059669;stroke-width:1;" x1="517.9971" x2="708.4014" y1="432.0371" y2="432.0371"/><text fill="#000000" font-family="Segoe UI" font-size="13" lengthAdjust="spacing" textLength="96.0718" x="524.9971" y="427.2949">INSERT INTO ...</text></g><g class="message" data-participant-1="DB" data-participant-2="Svc"><polygon fill="#059669" points="528.9971,457.3477,518.9971,461.3477,528.9971,465.3477,524.9971,461.3477" style="stroke:#059669;stroke-width:1;"/><line style="stroke:#059669;stroke-width:1;stroke-dasharray:2,2;" x1="522.9971" x2="718.4014" y1="461.3477" y2="461.3477"/><text fill="#000000" font-family="Segoe UI" font-size="13" lengthAdjust="spacing" textLength="76.4575" x="534.9971" y="456.6055">Created row</text></g><g class="message" data-participant-1="Svc" data-participant-2="GW"><polygon fill="#059669" points="414.8623,486.6582,404.8623,490.6582,414.8623,494.6582,410.8623,490.6582" style="stroke:#059669;stroke-width:1;"/><line style="stroke:#059669;stroke-width:1;stroke-dasharray:2,2;" x1="408.8623" x2="511.9971" y1="490.6582" y2="490.6582"/><text fill="#000000" font-family="Segoe UI" font-size="13" lengthAdjust="spacing" textLength="77.7969" x="420.8623" y="485.916">201 Created</text></g><g class="message" data-participant-1="GW" data-participant-2="Client"><polygon fill="#059669" points="42.7524,515.9688,32.7524,519.9688,42.7524,523.9688,38.7524,519.9688" style="stroke:#059669;stroke-width:1;"/><line style="stroke:#059669;stroke-width:1;stroke-dasharray:2,2;" x1="36.7524" x2="397.8623" y1="519.9688" y2="519.9688"/><text fill="#000000" font-family="Segoe UI" font-size="13" lengthAdjust="spacing" textLength="77.7969" x="48.7524" y="515.2266">201 Created</text></g><a href="/microservices/svc-check-in/#integration-context" target="_top" title="/microservices/svc-check-in/#integration-context" xlink:actuate="onRequest" xlink:href="/microservices/svc-check-in/#integration-context" xlink:show="new" xlink:title="/microservices/svc-check-in/#integration-context" xlink:type="simple"><text fill="#0000FF" font-family="Segoe UI" font-size="10" lengthAdjust="spacing" text-decoration="underline" textLength="175.1025" x="722.4009" y="14.668">&#11014; svc-check-in Integration Context</text></a><!--SRC=[dLF1Rjf04BtlLupW32P00ub4Ap1sQWab19DmI56qs8jPnUpItGqaYdBjr_Ih-YKTss3i95MauWDZlpTlPj_CwWSkDbJHDIney10f-IX2MyPIGTLraeVedA5ND9GxBY9OqbYp0XAo9NsCZIk5kQHh1XMVHPB1ZLSffhEVZqm435u8uA-lbDpjIpM-d9sUdgMVnrGP7l0D5MOWLSZKdj9qkgVzmJlAswQThjjskobjn9Tin0KhoVIRhK6dcU83-LI2t9EkspZ9eNTsk2xYANmfJLarw7GMhGBsWPKjfqDU2LanYcbmTsUjUQ2aPchB0wOjlGrgmOe53pKkh2eNXaMA6Yv5BK1JsPE1Fxz_GP45tf44TaQQpmantCGCnbV-5Am3LrilQNZFnJqFNwsTujeig0XhL6iUYJKJveVefp5CN6y8EGECX3INXKdHpT5xGWelKB5ZZYeLe1goi0ptnnvSKCDsz3dbNCoWEXmuVTom4gzun9JeRuDFx9hFyxc7rD05rRY1OwbDf9X_FKfLXWESWksq7PiGWIC2kSKne3OE3TLpORhX9V7wogpZgcMdhnuQcHaso-svvMm7Q8o_er64aZSU3e4Xa5GX9BC2Qb-J0v__nrW83GpVed6fO_kBWY4g9iwS0-uPWYgvNBh0Ji03FJknuj7AW5pkysvfp4DwJ8M539y9wVLWU32nroCa8MCjzEySV6VasDDa1v8ppRux4mTu23tuTgnRC1h3MjxcE4l2Eqz2Lc2_wIsjqswqWIyFTP00o-GobPlnBdrdCiM_wHNKw_NFEx0LGpZye8LCzp2ZPkFam2toabr9V4VQVgZ_f5xCo5y0]--></g></svg>