<svg xmlns="http://www.w3.org/2000/svg" xmlns:xlink="http://www.w3.org/1999/xlink" contentStyleType="text/css" data-diagram-type="SEQUENCE" height="509px" preserveAspectRatio="none" style="width:726px;height:509px;background:#FEFEFE;" version="1.1" viewBox="0 0 726 509" width="726px" zoomAndPan="magnify"><title>GET /waivers/{waiver_id}</title><defs/><g><rect fill="#FEFEFE" height="509" style="stroke:none;stroke-width:1;" width="726" x="0" y="0"/><text fill="#000000" font-family="Segoe UI" font-size="14" font-weight="bold" lengthAdjust="spacing" textLength="183.5449" x="267.2561" y="28.5352">GET /waivers/{waiver_id}</text><text fill="#000000" font-family="Segoe UI" font-size="14" font-weight="bold" lengthAdjust="spacing" textLength="149.3311" x="284.363" y="45.0234">Get a specific waiver</text><g><title>API Gateway</title><rect fill="#2563EB" height="225.1738" style="stroke:#A23B72;stroke-width:1;" width="10" x="207.1714" y="188.0859"/></g><g><title>svc-safety-compliance</title><rect fill="#2563EB" height="166.5527" style="stroke:#A23B72;stroke-width:1;" width="10" x="350.0894" y="217.3965"/></g><g><title>PostgreSQL</title><rect fill="#FCE4EC" height="29.3105" style="stroke:#A23B72;stroke-width:1;" width="10" x="527.98" y="290.0176"/></g><g><title>Client</title><rect fill="#000000" fill-opacity="0.00000" height="309.7949" width="8" x="27.7524" y="121.4648"/><line style="stroke:#A23B72;stroke-width:0.5;stroke-dasharray:5,5;" x1="31" x2="31" y1="121.4648" y2="431.2598"/></g><g><title>API Gateway</title><rect fill="#000000" fill-opacity="0.00000" height="309.7949" width="8" x="208.1714" y="121.4648"/><line style="stroke:#A23B72;stroke-width:0.5;stroke-dasharray:5,5;" x1="211.8823" x2="211.8823" y1="121.4648" y2="431.2598"/></g><g><title>svc-safety-compliance</title><rect fill="#000000" fill-opacity="0.00000" height="309.7949" width="8" x="351.0894" y="121.4648"/><line style="stroke:#A23B72;stroke-width:0.5;stroke-dasharray:5,5;" x1="354.4604" x2="354.4604" y1="121.4648" y2="431.2598"/></g><g><title>PostgreSQL</title><rect fill="#000000" fill-opacity="0.00000" height="309.7949" width="8" x="528.98" y="121.4648"/><line style="stroke:#A23B72;stroke-width:0.5;stroke-dasharray:5,5;" x1="532.5552" x2="532.5552" y1="121.4648" y2="431.2598"/></g><g class="participant participant-head" data-participant="Client"><rect fill="#E8F4F8" height="30.4883" rx="2.5" ry="2.5" style="stroke:#2E86AB;stroke-width:0.5;" width="53.5049" x="5" y="89.9766"/><text fill="#000000" font-family="Segoe UI" font-size="14" lengthAdjust="spacing" textLength="39.5049" x="12" y="110.5117">Client</text></g><g class="participant participant-tail" data-participant="Client"><rect fill="#E8F4F8" height="30.4883" rx="2.5" ry="2.5" style="stroke:#2E86AB;stroke-width:0.5;" width="53.5049" x="5" y="430.2598"/><text fill="#000000" font-family="Segoe UI" font-size="14" lengthAdjust="spacing" textLength="39.5049" x="12" y="450.7949">Client</text></g><g class="participant participant-head" data-participant="GW"><rect fill="#DBEAFE" height="30.4883" rx="2.5" ry="2.5" style="stroke:#2E86AB;stroke-width:0.5;" width="96.5781" x="163.8823" y="89.9766"/><text fill="#000000" font-family="Segoe UI" font-size="14" lengthAdjust="spacing" textLength="82.5781" x="170.8823" y="110.5117">API Gateway</text></g><g class="participant participant-tail" data-participant="GW"><rect fill="#DBEAFE" height="30.4883" rx="2.5" ry="2.5" style="stroke:#2E86AB;stroke-width:0.5;" width="96.5781" x="163.8823" y="430.2598"/><text fill="#000000" font-family="Segoe UI" font-size="14" lengthAdjust="spacing" textLength="82.5781" x="170.8823" y="450.7949">API Gateway</text></g><g class="participant participant-head" data-participant="Svc"><a href="/microservices/svc-safety-compliance/" target="_top" title="/microservices/svc-safety-compliance/" xlink:actuate="onRequest" xlink:href="/microservices/svc-safety-compliance/" xlink:show="new" xlink:title="/microservices/svc-safety-compliance/" xlink:type="simple"><rect fill="#E8F4F8" height="30.4883" rx="2.5" ry="2.5" style="stroke:#2E86AB;stroke-width:0.5;" width="169.2578" x="270.4604" y="89.9766"/><text fill="#000000" font-family="Segoe UI" font-size="14" lengthAdjust="spacing" textLength="155.2578" x="277.4604" y="110.5117">svc-safety-compliance</text></a></g><g class="participant participant-tail" data-participant="Svc"><a href="/microservices/svc-safety-compliance/" target="_top" title="/microservices/svc-safety-compliance/" xlink:actuate="onRequest" xlink:href="/microservices/svc-safety-compliance/" xlink:show="new" xlink:title="/microservices/svc-safety-compliance/" xlink:type="simple"><rect fill="#E8F4F8" height="30.4883" rx="2.5" ry="2.5" style="stroke:#2E86AB;stroke-width:0.5;" width="169.2578" x="270.4604" y="430.2598"/><text fill="#000000" font-family="Segoe UI" font-size="14" lengthAdjust="spacing" textLength="155.2578" x="277.4604" y="450.7949">svc-safety-compliance</text></a></g><g class="participant participant-head" data-participant="DB"><text fill="#000000" font-family="Segoe UI" font-size="14" lengthAdjust="spacing" textLength="76.8496" x="491.5552" y="118.5117">PostgreSQL</text><path d="M514.98,68.9766 C514.98,58.9766 532.98,58.9766 532.98,58.9766 C532.98,58.9766 550.98,58.9766 550.98,68.9766 L550.98,94.9766 C550.98,104.9766 532.98,104.9766 532.98,104.9766 C532.98,104.9766 514.98,104.9766 514.98,94.9766 L514.98,68.9766" fill="#FCE4EC" style="stroke:#181818;stroke-width:0.5;"/><path d="M514.98,68.9766 C514.98,78.9766 532.98,78.9766 532.98,78.9766 C532.98,78.9766 550.98,78.9766 550.98,68.9766" fill="none" style="stroke:#181818;stroke-width:0.5;"/></g><g class="participant participant-tail" data-participant="DB"><text fill="#000000" font-family="Segoe UI" font-size="14" lengthAdjust="spacing" textLength="76.8496" x="491.5552" y="443.7949">PostgreSQL</text><path d="M514.98,456.748 C514.98,446.748 532.98,446.748 532.98,446.748 C532.98,446.748 550.98,446.748 550.98,456.748 L550.98,482.748 C550.98,492.748 532.98,492.748 532.98,492.748 C532.98,492.748 514.98,492.748 514.98,482.748 L514.98,456.748" fill="#FCE4EC" style="stroke:#181818;stroke-width:0.5;"/><path d="M514.98,456.748 C514.98,466.748 532.98,466.748 532.98,466.748 C532.98,466.748 550.98,466.748 550.98,456.748" fill="none" style="stroke:#181818;stroke-width:0.5;"/></g><g><title>API Gateway</title><rect fill="#2563EB" height="225.1738" style="stroke:#A23B72;stroke-width:1;" width="10" x="207.1714" y="188.0859"/></g><g><title>svc-safety-compliance</title><rect fill="#2563EB" height="166.5527" style="stroke:#A23B72;stroke-width:1;" width="10" x="350.0894" y="217.3965"/></g><g><title>PostgreSQL</title><rect fill="#FCE4EC" height="29.3105" style="stroke:#A23B72;stroke-width:1;" width="10" x="527.98" y="290.0176"/></g><path d="M284,136.4648 L284,161.4648 L424,161.4648 L424,146.4648 L414,136.4648 L284,136.4648" fill="#FEFFDD" style="stroke:#181818;stroke-width:0.5;"/><path d="M414,136.4648 L414,146.4648 L424,146.4648 L414,136.4648" fill="#FEFFDD" style="stroke:#181818;stroke-width:0.5;"/><a href="/services/api/svc-safety-compliance.html#/Waivers/getWaiver" target="_top" title="/services/api/svc-safety-compliance.html#/Waivers/getWaiver" xlink:actuate="onRequest" xlink:href="/services/api/svc-safety-compliance.html#/Waivers/getWaiver" xlink:show="new" xlink:title="/services/api/svc-safety-compliance.html#/Waivers/getWaiver" xlink:type="simple"><text fill="#0000FF" font-family="Segoe UI" font-size="13" lengthAdjust="spacing" text-decoration="underline" textLength="119.4058" x="290" y="154.0332">View in Swagger UI</text></a><g class="message" data-participant-1="Client" data-participant-2="GW"><polygon fill="#2563EB" points="195.1714,184.0859,205.1714,188.0859,195.1714,192.0859,199.1714,188.0859" style="stroke:#2563EB;stroke-width:1;"/><line style="stroke:#2563EB;stroke-width:1;" x1="31.7524" x2="201.1714" y1="188.0859" y2="188.0859"/><text fill="#000000" font-family="Segoe UI" font-size="13" lengthAdjust="spacing" textLength="156.4189" x="38.7524" y="183.3438">GET /waivers/{waiver_id}</text></g><g class="message" data-participant-1="GW" data-participant-2="Svc"><polygon fill="#2563EB" points="338.0894,213.3965,348.0894,217.3965,338.0894,221.3965,342.0894,217.3965" style="stroke:#2563EB;stroke-width:1;"/><line style="stroke:#2563EB;stroke-width:1;" x1="217.1714" x2="344.0894" y1="217.3965" y2="217.3965"/><text fill="#000000" font-family="Segoe UI" font-size="13" lengthAdjust="spacing" textLength="85.1348" x="224.1714" y="212.6543">route request</text></g><rect fill="#EEEEEE" height="3" style="stroke:#EEEEEE;stroke-width:1;" width="719.0571" x="0" y="246.0518"/><line style="stroke:#000000;stroke-width:1;" x1="0" x2="719.0571" y1="246.0518" y2="246.0518"/><line style="stroke:#000000;stroke-width:1;" x1="0" x2="719.0571" y1="249.0518" y2="249.0518"/><rect fill="#EEEEEE" height="23.3105" style="stroke:#000000;stroke-width:2;" width="80.3711" x="319.343" y="235.3965"/><text fill="#000000" font-family="Segoe UI" font-size="13" font-weight="bold" lengthAdjust="spacing" textLength="62.0864" x="325.343" y="251.9648">Database</text><g class="message" data-participant-1="Svc" data-participant-2="DB"><polygon fill="#2563EB" points="515.98,286.0176,525.98,290.0176,515.98,294.0176,519.98,290.0176" style="stroke:#2563EB;stroke-width:1;"/><line style="stroke:#2563EB;stroke-width:1;" x1="360.0894" x2="521.98" y1="290.0176" y2="290.0176"/><text fill="#000000" font-family="Segoe UI" font-size="13" lengthAdjust="spacing" textLength="148.8906" x="367.0894" y="285.2754">SELECT ... WHERE id = ?</text></g><g class="message" data-participant-1="DB" data-participant-2="Svc"><polygon fill="#2563EB" points="371.0894,315.3281,361.0894,319.3281,371.0894,323.3281,367.0894,319.3281" style="stroke:#2563EB;stroke-width:1;"/><line style="stroke:#2563EB;stroke-width:1;stroke-dasharray:2,2;" x1="365.0894" x2="531.98" y1="319.3281" y2="319.3281"/><text fill="#000000" font-family="Segoe UI" font-size="13" lengthAdjust="spacing" textLength="26.2222" x="377.0894" y="314.5859">Row</text></g><path d="M537,332.3281 L537,357.3281 L714,357.3281 L714,342.3281 L704,332.3281 L537,332.3281" fill="#FEFFDD" style="stroke:#181818;stroke-width:0.5;"/><path d="M704,332.3281 L704,342.3281 L714,342.3281 L704,332.3281" fill="#FEFFDD" style="stroke:#181818;stroke-width:0.5;"/><text fill="#000000" font-family="Segoe UI" font-size="13" lengthAdjust="spacing" textLength="156.0571" x="543" y="349.8965">Returns 404 if not found</text><g class="message" data-participant-1="Svc" data-participant-2="GW"><polygon fill="#2563EB" points="228.1714,379.9492,218.1714,383.9492,228.1714,387.9492,224.1714,383.9492" style="stroke:#2563EB;stroke-width:1;"/><line style="stroke:#2563EB;stroke-width:1;stroke-dasharray:2,2;" x1="222.1714" x2="354.0894" y1="383.9492" y2="383.9492"/><text fill="#000000" font-family="Segoe UI" font-size="13" lengthAdjust="spacing" textLength="47.3599" x="234.1714" y="379.207">200 OK</text></g><g class="message" data-participant-1="GW" data-participant-2="Client"><polygon fill="#2563EB" points="42.7524,409.2598,32.7524,413.2598,42.7524,417.2598,38.7524,413.2598" style="stroke:#2563EB;stroke-width:1;"/><line style="stroke:#2563EB;stroke-width:1;stroke-dasharray:2,2;" x1="36.7524" x2="211.1714" y1="413.2598" y2="413.2598"/><text fill="#000000" font-family="Segoe UI" font-size="13" lengthAdjust="spacing" textLength="47.3599" x="48.7524" y="408.5176">200 OK</text></g><!--SRC=[TP9jRzem4CVV-rESu3KF1LOG4fi8EAmQQXcquqM79fDSWjLWPxOXgwf-zza93s5boPjB_l-xy_tE-eMBb2csXJKBNc8bTo8SoKGggFhKlKIV77h3Gfbn4KF44eqb9SI8xHBZIs7ksHQXii1O8ZpTLShf-7k78a1u8s2VeL8oExHgVRfjuph_FMFAy82dJ1XFgX3LqK9xjqFlW-NVGzEUt_5xkMtA8vnoWHTbXgssrstbkYV_N4Z-JSzltfoa3pXyt-gvV2_DPTMWsrstIzeLb6tQ9U-466uIX0bzX4R6-1wLRhmLmIyUllyK4pJ0GASOy8W7K4Y4fEUHeJ9AE0fJ0QQX22_buUmE9inWnbvppsG9rR57XtQN5pwz3sgQHMXUQu7SfWbdTZbvnc8VmFDpOyi39JMgFGzGDwxQ6wlLYNd835ipRRS_azh42XVVftcviMS9Z6Y7ZWWH5Wz8EvDhOe7PDgSEBENNkzGtPfjK6yi3i1XD4S8FZXbm0OkCnR7zVhfRhGYA45mRGWewKFli6FJ_IvsmmF2z9PQZEjn56zeyHw8FTfLMLEx-QdDsE_5e9uC1Z8y01WD2d6WBsDdxiA1JEdg4UhqEowzqJe67C80lvqebGZQidHhFPKP2BDaAVeh76mCoAghFqUoKqD1fTe17RdI8tDqxdE4uVQlPX8TlvN9k0svCwpYGkkQQBCbV]--></g></svg>