<?xml version="1.0" encoding="UTF-8" standalone="no"?><svg xmlns="http://www.w3.org/2000/svg" xmlns:xlink="http://www.w3.org/1999/xlink" contentScriptType="application/ecmascript" contentStyleType="text/css" height="482px" preserveAspectRatio="none" style="width:710px;height:482px;background:#FEFEFE;" version="1.1" viewBox="0 0 710 482" width="710px" zoomAndPan="magnify"><defs/><g><text fill="#000000" font-family="Segoe UI" font-size="18" lengthAdjust="spacingAndGlyphs" textLength="326" x="187.75" y="41.3486">GET /locations/{location_id}/capacity</text><text fill="#000000" font-family="Segoe UI" font-size="18" lengthAdjust="spacingAndGlyphs" textLength="273" x="214.25" y="62.3018">Get current capacity utilization</text><rect fill="#2563EB" height="188.7969" style="stroke: #6B7280; stroke-width: 1.0;" width="10" x="288.5" y="202.1094"/><rect fill="#2563EB" height="130.5313" style="stroke: #6B7280; stroke-width: 1.0;" width="10" x="426.5" y="231.2422"/><rect fill="#FEF9C3" height="29.1328" style="stroke: #6B7280; stroke-width: 1.0;" width="10" x="658.5" y="303.5078"/><line style="stroke: #6B7280; stroke-width: 1.0; stroke-dasharray: 5.0,5.0;" x1="34" x2="34" y1="135.8438" y2="408.9063"/><line style="stroke: #6B7280; stroke-width: 1.0; stroke-dasharray: 5.0,5.0;" x1="293.5" x2="293.5" y1="135.8438" y2="408.9063"/><line style="stroke: #6B7280; stroke-width: 1.0; stroke-dasharray: 5.0,5.0;" x1="431.5" x2="431.5" y1="135.8438" y2="408.9063"/><line style="stroke: #6B7280; stroke-width: 1.0; stroke-dasharray: 5.0,5.0;" x1="663.5" x2="663.5" y1="135.8438" y2="408.9063"/><a href="/applications/" target="_top" title="/applications/" xlink:actuate="onRequest" xlink:href="/applications/" xlink:show="new" xlink:title="/applications/" xlink:type="simple"><rect fill="#F9FAFB" height="30.2969" style="stroke: #374151; stroke-width: 1.5;" width="53" x="8" y="104.5469"/><text fill="#000000" font-family="Segoe UI" font-size="14" lengthAdjust="spacingAndGlyphs" textLength="39" x="15" y="124.542">Client</text><rect fill="#F9FAFB" height="30.2969" style="stroke: #374151; stroke-width: 1.5;" width="53" x="8" y="407.9063"/><text fill="#000000" font-family="Segoe UI" font-size="14" lengthAdjust="spacingAndGlyphs" textLength="39" x="15" y="427.9014">Client</text></a><a href="/actors/#api-gateway" target="_top" title="/actors/#api-gateway" xlink:actuate="onRequest" xlink:href="/actors/#api-gateway" xlink:show="new" xlink:title="/actors/#api-gateway" xlink:type="simple"><rect fill="#E0F2FE" height="30.2969" style="stroke: #374151; stroke-width: 1.5;" width="98" x="244.5" y="104.5469"/><text fill="#000000" font-family="Segoe UI" font-size="14" lengthAdjust="spacingAndGlyphs" textLength="84" x="251.5" y="124.542">API Gateway</text><rect fill="#E0F2FE" height="30.2969" style="stroke: #374151; stroke-width: 1.5;" width="98" x="244.5" y="407.9063"/><text fill="#000000" font-family="Segoe UI" font-size="14" lengthAdjust="spacingAndGlyphs" textLength="84" x="251.5" y="427.9014">API Gateway</text></a><a href="/microservices/svc-location-services/" target="_top" title="/microservices/svc-location-services/" xlink:actuate="onRequest" xlink:href="/microservices/svc-location-services/" xlink:show="new" xlink:title="/microservices/svc-location-services/" xlink:type="simple"><rect fill="#F1F5F9" height="30.2969" style="stroke: #374151; stroke-width: 1.5;" width="158" x="352.5" y="104.5469"/><text fill="#000000" font-family="Segoe UI" font-size="14" lengthAdjust="spacingAndGlyphs" textLength="144" x="359.5" y="124.542">svc-location-services</text><rect fill="#F1F5F9" height="30.2969" style="stroke: #374151; stroke-width: 1.5;" width="158" x="352.5" y="407.9063"/><text fill="#000000" font-family="Segoe UI" font-size="14" lengthAdjust="spacingAndGlyphs" textLength="144" x="359.5" y="427.9014">svc-location-services</text></a><a href="/microservices/svc-location-services/#data-store" target="_top" title="/microservices/svc-location-services/#data-store" xlink:actuate="onRequest" xlink:href="/microservices/svc-location-services/#data-store" xlink:show="new" xlink:title="/microservices/svc-location-services/#data-store" xlink:type="simple"><text fill="#000000" font-family="Segoe UI" font-size="14" lengthAdjust="spacingAndGlyphs" textLength="54" x="633.5" y="132.542">PostGIS</text><path d="M645.5,83.5469 C645.5,73.5469 663.5,73.5469 663.5,73.5469 C663.5,73.5469 681.5,73.5469 681.5,83.5469 L681.5,109.5469 C681.5,119.5469 663.5,119.5469 663.5,119.5469 C663.5,119.5469 645.5,119.5469 645.5,109.5469 L645.5,83.5469 " fill="#FEF9C3" style="stroke: #000000; stroke-width: 1.5;"/><path d="M645.5,83.5469 C645.5,93.5469 663.5,93.5469 663.5,93.5469 C663.5,93.5469 681.5,93.5469 681.5,83.5469 " fill="none" style="stroke: #000000; stroke-width: 1.5;"/><text fill="#000000" font-family="Segoe UI" font-size="14" lengthAdjust="spacingAndGlyphs" textLength="54" x="633.5" y="420.9014">PostGIS</text><path d="M645.5,434.2031 C645.5,424.2031 663.5,424.2031 663.5,424.2031 C663.5,424.2031 681.5,424.2031 681.5,434.2031 L681.5,460.2031 C681.5,470.2031 663.5,470.2031 663.5,470.2031 C663.5,470.2031 645.5,470.2031 645.5,460.2031 L645.5,434.2031 " fill="#FEF9C3" style="stroke: #000000; stroke-width: 1.5;"/><path d="M645.5,434.2031 C645.5,444.2031 663.5,444.2031 663.5,444.2031 C663.5,444.2031 681.5,444.2031 681.5,434.2031 " fill="none" style="stroke: #000000; stroke-width: 1.5;"/></a><rect fill="#2563EB" height="188.7969" style="stroke: #6B7280; stroke-width: 1.0;" width="10" x="288.5" y="202.1094"/><rect fill="#2563EB" height="130.5313" style="stroke: #6B7280; stroke-width: 1.0;" width="10" x="426.5" y="231.2422"/><rect fill="#FEF9C3" height="29.1328" style="stroke: #6B7280; stroke-width: 1.0;" width="10" x="658.5" y="303.5078"/><path d="M361,150.8438 L361,175.8438 L502,175.8438 L502,160.8438 L492,150.8438 L361,150.8438 " fill="#FBFB77" style="stroke: #A80036; stroke-width: 1.0;"/><path d="M492,150.8438 L492,160.8438 L502,160.8438 L492,150.8438 " fill="#FBFB77" style="stroke: #A80036; stroke-width: 1.0;"/><a href="/services/api/svc-location-services.html" target="_top" title="/services/api/svc-location-services.html" xlink:actuate="onRequest" xlink:href="/services/api/svc-location-services.html" xlink:show="new" xlink:title="/services/api/svc-location-services.html" xlink:type="simple"><text fill="#0000FF" font-family="Segoe UI" font-size="13" lengthAdjust="spacingAndGlyphs" text-decoration="underline" textLength="120" x="367" y="167.9106">View in Swagger UI</text></a><polygon fill="#2563EB" points="276.5,198.1094,286.5,202.1094,276.5,206.1094,280.5,202.1094" style="stroke: #2563EB; stroke-width: 1.0;"/><line style="stroke: #2563EB; stroke-width: 1.0;" x1="34.5" x2="282.5" y1="202.1094" y2="202.1094"/><text fill="#000000" font-family="Segoe UI" font-size="13" lengthAdjust="spacingAndGlyphs" textLength="235" x="41.5" y="197.0435">GET /locations/{location_id}/capacity</text><polygon fill="#2563EB" points="414.5,227.2422,424.5,231.2422,414.5,235.2422,418.5,231.2422" style="stroke: #2563EB; stroke-width: 1.0;"/><line style="stroke: #2563EB; stroke-width: 1.0;" x1="298.5" x2="420.5" y1="231.2422" y2="231.2422"/><text fill="#000000" font-family="Segoe UI" font-size="13" lengthAdjust="spacingAndGlyphs" textLength="87" x="305.5" y="226.1763">route request</text><rect fill="#EEEEEE" height="3" style="stroke: #EEEEEE; stroke-width: 1.0;" width="695.5" x="3" y="259.8086"/><line style="stroke: #000000; stroke-width: 1.0;" x1="3" x2="698.5" y1="259.8086" y2="259.8086"/><line style="stroke: #000000; stroke-width: 1.0;" x1="3" x2="698.5" y1="262.8086" y2="262.8086"/><rect fill="#EEEEEE" height="23.1328" style="stroke: #000000; stroke-width: 2.0;" width="90" x="305.75" y="249.2422"/><text fill="#000000" font-family="Segoe UI" font-size="13" font-weight="bold" lengthAdjust="spacingAndGlyphs" textLength="71" x="311.75" y="265.3091">Database</text><polygon fill="#2563EB" points="646.5,299.5078,656.5,303.5078,646.5,307.5078,650.5,303.5078" style="stroke: #2563EB; stroke-width: 1.0;"/><line style="stroke: #2563EB; stroke-width: 1.0;" x1="436.5" x2="652.5" y1="303.5078" y2="303.5078"/><text fill="#000000" font-family="Segoe UI" font-size="13" lengthAdjust="spacingAndGlyphs" textLength="203" x="443.5" y="298.4419">SELECT ... WHERE parent_id = ?</text><polygon fill="#2563EB" points="447.5,328.6406,437.5,332.6406,447.5,336.6406,443.5,332.6406" style="stroke: #2563EB; stroke-width: 1.0;"/><line style="stroke: #2563EB; stroke-width: 1.0; stroke-dasharray: 2.0,2.0;" x1="441.5" x2="662.5" y1="332.6406" y2="332.6406"/><text fill="#000000" font-family="Segoe UI" font-size="13" lengthAdjust="spacingAndGlyphs" textLength="61" x="453.5" y="327.5747">ResultSet</text><polygon fill="#2563EB" points="309.5,357.7734,299.5,361.7734,309.5,365.7734,305.5,361.7734" style="stroke: #2563EB; stroke-width: 1.0;"/><line style="stroke: #2563EB; stroke-width: 1.0; stroke-dasharray: 2.0,2.0;" x1="303.5" x2="430.5" y1="361.7734" y2="361.7734"/><text fill="#000000" font-family="Segoe UI" font-size="13" lengthAdjust="spacingAndGlyphs" textLength="46" x="315.5" y="356.7075">200 OK</text><polygon fill="#2563EB" points="45.5,386.9063,35.5,390.9063,45.5,394.9063,41.5,390.9063" style="stroke: #2563EB; stroke-width: 1.0;"/><line style="stroke: #2563EB; stroke-width: 1.0; stroke-dasharray: 2.0,2.0;" x1="39.5" x2="292.5" y1="390.9063" y2="390.9063"/><text fill="#000000" font-family="Segoe UI" font-size="13" lengthAdjust="spacingAndGlyphs" textLength="46" x="51.5" y="385.8403">200 OK</text><a href="/microservices/svc-location-services/#integration-context" target="_top" title="/microservices/svc-location-services/#integration-context" xlink:actuate="onRequest" xlink:href="/microservices/svc-location-services/#integration-context" xlink:show="new" xlink:title="/microservices/svc-location-services/#integration-context" xlink:type="simple"><text fill="#0000FF" font-family="Segoe UI" font-size="10" lengthAdjust="spacingAndGlyphs" text-decoration="underline" textLength="210" x="488.5" y="12.2822">⬆ svc-location-services Integration Context</text></a><!--MD5=[6555746431b2035129efc133e83f708f]
@startuml svc-location-services- -get-locations-location_id-capacity

skinparam backgroundColor #FEFEFE
skinparam shadowing false
skinparam defaultFontName "Segoe UI"
skinparam sequence {
    ArrowColor #2563eb
    ParticipantBorderColor #374151
    ParticipantBackgroundColor #F9FAFB
    LifeLineBorderColor #6B7280
    BoxBorderColor #94A3B8
    BoxBackgroundColor #F8FAFC
    NoteBorderColor #64748B
    NoteBackgroundColor #F8FAFC
}

header [[/microservices/svc-location-services/#integration-context ⬆ svc-location-services Integration Context]]

title GET /locations/{location_id}/capacity\nGet current capacity utilization

participant "Client" as Client [[/applications/]]
participant "API Gateway" as GW [[/actors/#api-gateway]] #E0F2FE
participant "svc-location-services" as Svc [[/microservices/svc-location-services/]] #F1F5F9
database "PostGIS" as DB [[/microservices/svc-location-services/#data-store]] #FEF9C3

note over Svc
  [[/services/api/svc-location-services.html View in Swagger UI]]
end note

Client -> GW : GET /locations/{location_id}/capacity
activate GW #2563eb
GW -> Svc : route request
activate Svc #2563eb

== Database ==

Svc -> DB : SELECT ... WHERE parent_id = ?
activate DB #FEF9C3
DB - -> Svc : ResultSet
deactivate DB

Svc - -> GW : 200 OK
deactivate Svc
GW - -> Client : 200 OK
deactivate GW

@enduml

PlantUML version 1.2020.02(Sun Mar 01 10:22:07 UTC 2020)
(GPL source distribution)
Java Runtime: OpenJDK Runtime Environment
JVM: OpenJDK 64-Bit Server VM
Java Version: 17.0.18+8
Operating System: Linux
Default Encoding: UTF-8
Language: en
Country: null
--></g></svg>