<svg xmlns="http://www.w3.org/2000/svg" xmlns:xlink="http://www.w3.org/1999/xlink" contentStyleType="text/css" data-diagram-type="SEQUENCE" height="487px" preserveAspectRatio="none" style="width:679px;height:487px;background:#FEFEFE;" version="1.1" viewBox="0 0 679 487" width="679px" zoomAndPan="magnify"><title>GET /guides/{guide_id}/ratings</title><defs/><g><rect fill="#FEFEFE" height="487" style="stroke:none;stroke-width:1;" width="679" x="0" y="0"/><text fill="#000000" font-family="Segoe UI" font-size="14" font-weight="bold" lengthAdjust="spacing" textLength="228.0811" x="221.5991" y="41.3125">GET /guides/{guide_id}/ratings</text><text fill="#000000" font-family="Segoe UI" font-size="14" font-weight="bold" lengthAdjust="spacing" textLength="216.4873" x="227.396" y="57.8008">Get guest ratings and reviews</text><g><title>API Gateway</title><rect fill="#2563EB" height="189.8633" style="stroke:#A23B72;stroke-width:1;" width="10" x="248.1328" y="200.8633"/></g><g><title>svc-guide-management</title><rect fill="#2563EB" height="131.2422" style="stroke:#A23B72;stroke-width:1;" width="10" x="395.6104" y="230.1738"/></g><g><title>PostgreSQL</title><rect fill="#FCE4EC" height="29.3105" style="stroke:#A23B72;stroke-width:1;" width="10" x="620.8545" y="302.7949"/></g><g><title>Client</title><rect fill="#000000" fill-opacity="0.00000" height="274.4844" width="8" x="27.7524" y="134.2422"/><line style="stroke:#A23B72;stroke-width:0.5;stroke-dasharray:5,5;" x1="31" x2="31" y1="134.2422" y2="408.7266"/></g><g><title>API Gateway</title><rect fill="#000000" fill-opacity="0.00000" height="274.4844" width="8" x="249.1328" y="134.2422"/><line style="stroke:#A23B72;stroke-width:0.5;stroke-dasharray:5,5;" x1="252.8438" x2="252.8438" y1="134.2422" y2="408.7266"/></g><g><title>svc-guide-management</title><rect fill="#000000" fill-opacity="0.00000" height="274.4844" width="8" x="396.6104" y="134.2422"/><line style="stroke:#A23B72;stroke-width:0.5;stroke-dasharray:5,5;" x1="400.4219" x2="400.4219" y1="134.2422" y2="408.7266"/></g><g><title>PostgreSQL</title><rect fill="#000000" fill-opacity="0.00000" height="274.4844" width="8" x="621.8545" y="134.2422"/><line style="stroke:#A23B72;stroke-width:0.5;stroke-dasharray:5,5;" x1="625.4297" x2="625.4297" y1="134.2422" y2="408.7266"/></g><g class="participant participant-head" data-participant="Client"><a href="/applications/" target="_top" title="/applications/" xlink:actuate="onRequest" xlink:href="/applications/" xlink:show="new" xlink:title="/applications/" xlink:type="simple"><rect fill="#E8F4F8" height="30.4883" rx="2.5" ry="2.5" style="stroke:#2E86AB;stroke-width:0.5;" width="53.5049" x="5" y="102.7539"/><text fill="#000000" font-family="Segoe UI" font-size="14" lengthAdjust="spacing" textLength="39.5049" x="12" y="123.2891">Client</text></a></g><g class="participant participant-tail" data-participant="Client"><a href="/applications/" target="_top" title="/applications/" xlink:actuate="onRequest" xlink:href="/applications/" xlink:show="new" xlink:title="/applications/" xlink:type="simple"><rect fill="#E8F4F8" height="30.4883" rx="2.5" ry="2.5" style="stroke:#2E86AB;stroke-width:0.5;" width="53.5049" x="5" y="407.7266"/><text fill="#000000" font-family="Segoe UI" font-size="14" lengthAdjust="spacing" textLength="39.5049" x="12" y="428.2617">Client</text></a></g><g class="participant participant-head" data-participant="GW"><rect fill="#DBEAFE" height="30.4883" rx="2.5" ry="2.5" style="stroke:#2E86AB;stroke-width:0.5;" width="96.5781" x="204.8438" y="102.7539"/><text fill="#000000" font-family="Segoe UI" font-size="14" lengthAdjust="spacing" textLength="82.5781" x="211.8438" y="123.2891">API Gateway</text></g><g class="participant participant-tail" data-participant="GW"><rect fill="#DBEAFE" height="30.4883" rx="2.5" ry="2.5" style="stroke:#2E86AB;stroke-width:0.5;" width="96.5781" x="204.8438" y="407.7266"/><text fill="#000000" font-family="Segoe UI" font-size="14" lengthAdjust="spacing" textLength="82.5781" x="211.8438" y="428.2617">API Gateway</text></g><g class="participant participant-head" data-participant="Svc"><a href="/microservices/svc-guide-management/" target="_top" title="/microservices/svc-guide-management/" xlink:actuate="onRequest" xlink:href="/microservices/svc-guide-management/" xlink:show="new" xlink:title="/microservices/svc-guide-management/" xlink:type="simple"><rect fill="#E8F4F8" height="30.4883" rx="2.5" ry="2.5" style="stroke:#2E86AB;stroke-width:0.5;" width="178.377" x="311.4219" y="102.7539"/><text fill="#000000" font-family="Segoe UI" font-size="14" lengthAdjust="spacing" textLength="164.377" x="318.4219" y="123.2891">svc-guide-management</text></a></g><g class="participant participant-tail" data-participant="Svc"><a href="/microservices/svc-guide-management/" target="_top" title="/microservices/svc-guide-management/" xlink:actuate="onRequest" xlink:href="/microservices/svc-guide-management/" xlink:show="new" xlink:title="/microservices/svc-guide-management/" xlink:type="simple"><rect fill="#E8F4F8" height="30.4883" rx="2.5" ry="2.5" style="stroke:#2E86AB;stroke-width:0.5;" width="178.377" x="311.4219" y="407.7266"/><text fill="#000000" font-family="Segoe UI" font-size="14" lengthAdjust="spacing" textLength="164.377" x="318.4219" y="428.2617">svc-guide-management</text></a></g><g class="participant participant-head" data-participant="DB"><text fill="#000000" font-family="Segoe UI" font-size="14" lengthAdjust="spacing" textLength="76.8496" x="584.4297" y="131.2891">PostgreSQL</text><path d="M607.8545,81.7539 C607.8545,71.7539 625.8545,71.7539 625.8545,71.7539 C625.8545,71.7539 643.8545,71.7539 643.8545,81.7539 L643.8545,107.7539 C643.8545,117.7539 625.8545,117.7539 625.8545,117.7539 C625.8545,117.7539 607.8545,117.7539 607.8545,107.7539 L607.8545,81.7539" fill="#FCE4EC" style="stroke:#181818;stroke-width:0.5;"/><path d="M607.8545,81.7539 C607.8545,91.7539 625.8545,91.7539 625.8545,91.7539 C625.8545,91.7539 643.8545,91.7539 643.8545,81.7539" fill="none" style="stroke:#181818;stroke-width:0.5;"/></g><g class="participant participant-tail" data-participant="DB"><text fill="#000000" font-family="Segoe UI" font-size="14" lengthAdjust="spacing" textLength="76.8496" x="584.4297" y="421.2617">PostgreSQL</text><path d="M607.8545,434.2148 C607.8545,424.2148 625.8545,424.2148 625.8545,424.2148 C625.8545,424.2148 643.8545,424.2148 643.8545,434.2148 L643.8545,460.2148 C643.8545,470.2148 625.8545,470.2148 625.8545,470.2148 C625.8545,470.2148 607.8545,470.2148 607.8545,460.2148 L607.8545,434.2148" fill="#FCE4EC" style="stroke:#181818;stroke-width:0.5;"/><path d="M607.8545,434.2148 C607.8545,444.2148 625.8545,444.2148 625.8545,444.2148 C625.8545,444.2148 643.8545,444.2148 643.8545,434.2148" fill="none" style="stroke:#181818;stroke-width:0.5;"/></g><g><title>API Gateway</title><rect fill="#2563EB" height="189.8633" style="stroke:#A23B72;stroke-width:1;" width="10" x="248.1328" y="200.8633"/></g><g><title>svc-guide-management</title><rect fill="#2563EB" height="131.2422" style="stroke:#A23B72;stroke-width:1;" width="10" x="395.6104" y="230.1738"/></g><g><title>PostgreSQL</title><rect fill="#FCE4EC" height="29.3105" style="stroke:#A23B72;stroke-width:1;" width="10" x="620.8545" y="302.7949"/></g><path d="M330,149.2422 L330,174.2422 L470,174.2422 L470,159.2422 L460,149.2422 L330,149.2422" fill="#FEFFDD" style="stroke:#181818;stroke-width:0.5;"/><path d="M460,149.2422 L460,159.2422 L470,159.2422 L460,149.2422" fill="#FEFFDD" style="stroke:#181818;stroke-width:0.5;"/><a href="/services/api/svc-guide-management.html#/Ratings/getGuideRatings" target="_top" title="/services/api/svc-guide-management.html#/Ratings/getGuideRatings" xlink:actuate="onRequest" xlink:href="/services/api/svc-guide-management.html#/Ratings/getGuideRatings" xlink:show="new" xlink:title="/services/api/svc-guide-management.html#/Ratings/getGuideRatings" xlink:type="simple"><text fill="#0000FF" font-family="Segoe UI" font-size="13" lengthAdjust="spacing" text-decoration="underline" textLength="119.4058" x="336" y="166.8105">View in Swagger UI</text></a><g class="message" data-participant-1="Client" data-participant-2="GW"><polygon fill="#2563EB" points="236.1328,196.8633,246.1328,200.8633,236.1328,204.8633,240.1328,200.8633" style="stroke:#2563EB;stroke-width:1;"/><line style="stroke:#2563EB;stroke-width:1;" x1="31.7524" x2="242.1328" y1="200.8633" y2="200.8633"/><text fill="#000000" font-family="Segoe UI" font-size="13" lengthAdjust="spacing" textLength="197.3804" x="38.7524" y="196.1211">GET /guides/{guide_id}/ratings</text></g><g class="message" data-participant-1="GW" data-participant-2="Svc"><polygon fill="#2563EB" points="383.6104,226.1738,393.6104,230.1738,383.6104,234.1738,387.6104,230.1738" style="stroke:#2563EB;stroke-width:1;"/><line style="stroke:#2563EB;stroke-width:1;" x1="258.1328" x2="389.6104" y1="230.1738" y2="230.1738"/><text fill="#000000" font-family="Segoe UI" font-size="13" lengthAdjust="spacing" textLength="85.1348" x="265.1328" y="225.4316">route request</text></g><rect fill="#EEEEEE" height="3" style="stroke:#EEEEEE;stroke-width:1;" width="672.2793" x="0" y="258.8291"/><line style="stroke:#000000;stroke-width:1;" x1="0" x2="672.2793" y1="258.8291" y2="258.8291"/><line style="stroke:#000000;stroke-width:1;" x1="0" x2="672.2793" y1="261.8291" y2="261.8291"/><rect fill="#EEEEEE" height="23.3105" style="stroke:#000000;stroke-width:2;" width="80.3711" x="295.9541" y="248.1738"/><text fill="#000000" font-family="Segoe UI" font-size="13" font-weight="bold" lengthAdjust="spacing" textLength="62.0864" x="301.9541" y="264.7422">Database</text><g class="message" data-participant-1="Svc" data-participant-2="DB"><polygon fill="#2563EB" points="608.8545,298.7949,618.8545,302.7949,608.8545,306.7949,612.8545,302.7949" style="stroke:#2563EB;stroke-width:1;"/><line style="stroke:#2563EB;stroke-width:1;" x1="405.6104" x2="614.8545" y1="302.7949" y2="302.7949"/><text fill="#000000" font-family="Segoe UI" font-size="13" lengthAdjust="spacing" textLength="196.2441" x="412.6104" y="298.0527">SELECT ... WHERE parent_id = ?</text></g><g class="message" data-participant-1="DB" data-participant-2="Svc"><polygon fill="#2563EB" points="416.6104,328.1055,406.6104,332.1055,416.6104,336.1055,412.6104,332.1055" style="stroke:#2563EB;stroke-width:1;"/><line style="stroke:#2563EB;stroke-width:1;stroke-dasharray:2,2;" x1="410.6104" x2="624.8545" y1="332.1055" y2="332.1055"/><text fill="#000000" font-family="Segoe UI" font-size="13" lengthAdjust="spacing" textLength="57.8843" x="422.6104" y="327.3633">ResultSet</text></g><g class="message" data-participant-1="Svc" data-participant-2="GW"><polygon fill="#2563EB" points="269.1328,357.416,259.1328,361.416,269.1328,365.416,265.1328,361.416" style="stroke:#2563EB;stroke-width:1;"/><line style="stroke:#2563EB;stroke-width:1;stroke-dasharray:2,2;" x1="263.1328" x2="399.6104" y1="361.416" y2="361.416"/><text fill="#000000" font-family="Segoe UI" font-size="13" lengthAdjust="spacing" textLength="47.3599" x="275.1328" y="356.6738">200 OK</text></g><g class="message" data-participant-1="GW" data-participant-2="Client"><polygon fill="#2563EB" points="42.7524,386.7266,32.7524,390.7266,42.7524,394.7266,38.7524,390.7266" style="stroke:#2563EB;stroke-width:1;"/><line style="stroke:#2563EB;stroke-width:1;stroke-dasharray:2,2;" x1="36.7524" x2="252.1328" y1="390.7266" y2="390.7266"/><text fill="#000000" font-family="Segoe UI" font-size="13" lengthAdjust="spacing" textLength="47.3599" x="48.7524" y="385.9844">200 OK</text></g><a href="/microservices/svc-guide-management/#integration-context" target="_top" title="/microservices/svc-guide-management/#integration-context" xlink:actuate="onRequest" xlink:href="/microservices/svc-guide-management/#integration-context" xlink:show="new" xlink:title="/microservices/svc-guide-management/#integration-context" xlink:type="simple"><text fill="#0000FF" font-family="Segoe UI" font-size="10" lengthAdjust="spacing" text-decoration="underline" textLength="228.584" x="442.6953" y="14.668">&#11014; svc-guide-management Integration Context</text></a><!--SRC=[ZPFVRjem5CRl_HH7S0sXq1M4n2R-91aQQXbfnqM79fCSWjLWCzj0fwgtUvezrPva9o50M94skC3a-yxvuj-npPEGQwxv2kOyV8grsiYehnAbeUovwPUPeyCiUQHsGiQmu8d1WXBXWcyIwobfR_aAeHHWh10UXgLYENxVe0mHNXZGfwkrskLHzNSt3PndZyTSMn6ADPUsftI4-c1nMpVTtXlBto_jjhnhhvNPHcA18o7nh4sttkWrwvdUKyzdadVLycfNH-aD3iyZFPDlbJtl6ZQRyqP1ku2ouJRPAsDBv5G6Zu_EIeHQ6THR4Q9np3Qin1iHOMN59OznXT8wPI4jnffReMGb9BZuRE7thvzmoGt3andwU_DinfWLDa7mtNjmiXBZl6I_tqJqwgHs6PklqaSByGQDXVmHS1c1ngt0dM5iVK8EfNuYAAy4tC1-cMw7hzU92BDqur3kMKLtF0IVMzpn7rcPFuNoeETswNYT-IxjAoi8jk5_CflDZeSWufRFkQ7ZE5R6nXg3pwEisw178-cxrswVCKdp0hMbcL06JP1IZW5yBIw6L9TsbPIToPwK4wFrKqV-7xuGCn0IWXsFOshyC2GUI3ZJBCPoPfNtAORsFoR3U6Z5bj1bpF9xGakgJfcqWOuPYJgzMyQUtAbuiBDE1mO75fqEOwb83GX36m9tvFRleLgjmlIZEt611aAlH-y07VXmQbXWHilACN-2Xcv-W9P5M33d8OTDrcirkFjKjAIqqtsG8mTooULFsHy0]--></g></svg>