<svg xmlns="http://www.w3.org/2000/svg" xmlns:xlink="http://www.w3.org/1999/xlink" contentStyleType="text/css" data-diagram-type="SEQUENCE" height="474px" preserveAspectRatio="none" style="width:693px;height:474px;background:#FEFEFE;" version="1.1" viewBox="0 0 693 474" width="693px" zoomAndPan="magnify"><title>GET /locations/{location_id}/capacity</title><defs/><g><rect fill="#FEFEFE" height="474" style="stroke:none;stroke-width:1;" width="693" x="0" y="0"/><text fill="#000000" font-family="Segoe UI" font-size="14" font-weight="bold" lengthAdjust="spacing" textLength="270.0947" x="207.9443" y="28.5352">GET /locations/{location_id}/capacity</text><text fill="#000000" font-family="Segoe UI" font-size="14" font-weight="bold" lengthAdjust="spacing" textLength="223.0225" x="231.4805" y="45.0234">Get current capacity utilization</text><g><title>API Gateway</title><rect fill="#2563EB" height="189.8633" style="stroke:#A23B72;stroke-width:1;" width="10" x="285.2793" y="188.0859"/></g><g><title>svc-location-services</title><rect fill="#2563EB" height="131.2422" style="stroke:#A23B72;stroke-width:1;" width="10" x="423.5386" y="217.3965"/></g><g><title>PostGIS</title><rect fill="#FCE4EC" height="29.3105" style="stroke:#A23B72;stroke-width:1;" width="10" x="648.7827" y="290.0176"/></g><g><title>Client</title><rect fill="#000000" fill-opacity="0.00000" height="274.4844" width="8" x="27.7524" y="121.4648"/><line style="stroke:#A23B72;stroke-width:0.5;stroke-dasharray:5,5;" x1="31" x2="31" y1="121.4648" y2="395.9492"/></g><g><title>API Gateway</title><rect fill="#000000" fill-opacity="0.00000" height="274.4844" width="8" x="286.2793" y="121.4648"/><line style="stroke:#A23B72;stroke-width:0.5;stroke-dasharray:5,5;" x1="289.9902" x2="289.9902" y1="121.4648" y2="395.9492"/></g><g><title>svc-location-services</title><rect fill="#000000" fill-opacity="0.00000" height="274.4844" width="8" x="424.5386" y="121.4648"/><line style="stroke:#A23B72;stroke-width:0.5;stroke-dasharray:5,5;" x1="427.5684" x2="427.5684" y1="121.4648" y2="395.9492"/></g><g><title>PostGIS</title><rect fill="#000000" fill-opacity="0.00000" height="274.4844" width="8" x="649.7827" y="121.4648"/><line style="stroke:#A23B72;stroke-width:0.5;stroke-dasharray:5,5;" x1="653.582" x2="653.582" y1="121.4648" y2="395.9492"/></g><g class="participant participant-head" data-participant="Client"><rect fill="#E8F4F8" height="30.4883" rx="2.5" ry="2.5" style="stroke:#2E86AB;stroke-width:0.5;" width="53.5049" x="5" y="89.9766"/><text fill="#000000" font-family="Segoe UI" font-size="14" lengthAdjust="spacing" textLength="39.5049" x="12" y="110.5117">Client</text></g><g class="participant participant-tail" data-participant="Client"><rect fill="#E8F4F8" height="30.4883" rx="2.5" ry="2.5" style="stroke:#2E86AB;stroke-width:0.5;" width="53.5049" x="5" y="394.9492"/><text fill="#000000" font-family="Segoe UI" font-size="14" lengthAdjust="spacing" textLength="39.5049" x="12" y="415.4844">Client</text></g><g class="participant participant-head" data-participant="GW"><rect fill="#DBEAFE" height="30.4883" rx="2.5" ry="2.5" style="stroke:#2E86AB;stroke-width:0.5;" width="96.5781" x="241.9902" y="89.9766"/><text fill="#000000" font-family="Segoe UI" font-size="14" lengthAdjust="spacing" textLength="82.5781" x="248.9902" y="110.5117">API Gateway</text></g><g class="participant participant-tail" data-participant="GW"><rect fill="#DBEAFE" height="30.4883" rx="2.5" ry="2.5" style="stroke:#2E86AB;stroke-width:0.5;" width="96.5781" x="241.9902" y="394.9492"/><text fill="#000000" font-family="Segoe UI" font-size="14" lengthAdjust="spacing" textLength="82.5781" x="248.9902" y="415.4844">API Gateway</text></g><g class="participant participant-head" data-participant="Svc"><a href="/microservices/svc-location-services/" target="_top" title="/microservices/svc-location-services/" xlink:actuate="onRequest" xlink:href="/microservices/svc-location-services/" xlink:show="new" xlink:title="/microservices/svc-location-services/" xlink:type="simple"><rect fill="#E8F4F8" height="30.4883" rx="2.5" ry="2.5" style="stroke:#2E86AB;stroke-width:0.5;" width="159.9404" x="348.5684" y="89.9766"/><text fill="#000000" font-family="Segoe UI" font-size="14" lengthAdjust="spacing" textLength="145.9404" x="355.5684" y="110.5117">svc-location-services</text></a></g><g class="participant participant-tail" data-participant="Svc"><a href="/microservices/svc-location-services/" target="_top" title="/microservices/svc-location-services/" xlink:actuate="onRequest" xlink:href="/microservices/svc-location-services/" xlink:show="new" xlink:title="/microservices/svc-location-services/" xlink:type="simple"><rect fill="#E8F4F8" height="30.4883" rx="2.5" ry="2.5" style="stroke:#2E86AB;stroke-width:0.5;" width="159.9404" x="348.5684" y="394.9492"/><text fill="#000000" font-family="Segoe UI" font-size="14" lengthAdjust="spacing" textLength="145.9404" x="355.5684" y="415.4844">svc-location-services</text></a></g><g class="participant participant-head" data-participant="DB"><text fill="#000000" font-family="Segoe UI" font-size="14" lengthAdjust="spacing" textLength="50.4014" x="625.582" y="118.5117">PostGIS</text><path d="M635.7827,68.9766 C635.7827,58.9766 653.7827,58.9766 653.7827,58.9766 C653.7827,58.9766 671.7827,58.9766 671.7827,68.9766 L671.7827,94.9766 C671.7827,104.9766 653.7827,104.9766 653.7827,104.9766 C653.7827,104.9766 635.7827,104.9766 635.7827,94.9766 L635.7827,68.9766" fill="#FCE4EC" style="stroke:#181818;stroke-width:0.5;"/><path d="M635.7827,68.9766 C635.7827,78.9766 653.7827,78.9766 653.7827,78.9766 C653.7827,78.9766 671.7827,78.9766 671.7827,68.9766" fill="none" style="stroke:#181818;stroke-width:0.5;"/></g><g class="participant participant-tail" data-participant="DB"><text fill="#000000" font-family="Segoe UI" font-size="14" lengthAdjust="spacing" textLength="50.4014" x="625.582" y="408.4844">PostGIS</text><path d="M635.7827,421.4375 C635.7827,411.4375 653.7827,411.4375 653.7827,411.4375 C653.7827,411.4375 671.7827,411.4375 671.7827,421.4375 L671.7827,447.4375 C671.7827,457.4375 653.7827,457.4375 653.7827,457.4375 C653.7827,457.4375 635.7827,457.4375 635.7827,447.4375 L635.7827,421.4375" fill="#FCE4EC" style="stroke:#181818;stroke-width:0.5;"/><path d="M635.7827,421.4375 C635.7827,431.4375 653.7827,431.4375 653.7827,431.4375 C653.7827,431.4375 671.7827,431.4375 671.7827,421.4375" fill="none" style="stroke:#181818;stroke-width:0.5;"/></g><g><title>API Gateway</title><rect fill="#2563EB" height="189.8633" style="stroke:#A23B72;stroke-width:1;" width="10" x="285.2793" y="188.0859"/></g><g><title>svc-location-services</title><rect fill="#2563EB" height="131.2422" style="stroke:#A23B72;stroke-width:1;" width="10" x="423.5386" y="217.3965"/></g><g><title>PostGIS</title><rect fill="#FCE4EC" height="29.3105" style="stroke:#A23B72;stroke-width:1;" width="10" x="648.7827" y="290.0176"/></g><path d="M358,136.4648 L358,161.4648 L498,161.4648 L498,146.4648 L488,136.4648 L358,136.4648" fill="#FEFFDD" style="stroke:#181818;stroke-width:0.5;"/><path d="M488,136.4648 L488,146.4648 L498,146.4648 L488,136.4648" fill="#FEFFDD" style="stroke:#181818;stroke-width:0.5;"/><a href="/services/api/svc-location-services.html" target="_top" title="/services/api/svc-location-services.html" xlink:actuate="onRequest" xlink:href="/services/api/svc-location-services.html" xlink:show="new" xlink:title="/services/api/svc-location-services.html" xlink:type="simple"><text fill="#0000FF" font-family="Segoe UI" font-size="13" lengthAdjust="spacing" text-decoration="underline" textLength="119.4058" x="364" y="154.0332">View in Swagger UI</text></a><g class="message" data-participant-1="Client" data-participant-2="GW"><polygon fill="#2563EB" points="273.2793,184.0859,283.2793,188.0859,273.2793,192.0859,277.2793,188.0859" style="stroke:#2563EB;stroke-width:1;"/><line style="stroke:#2563EB;stroke-width:1;" x1="31.7524" x2="279.2793" y1="188.0859" y2="188.0859"/><text fill="#000000" font-family="Segoe UI" font-size="13" lengthAdjust="spacing" textLength="234.5269" x="38.7524" y="183.3438">GET /locations/{location_id}/capacity</text></g><g class="message" data-participant-1="GW" data-participant-2="Svc"><polygon fill="#2563EB" points="411.5386,213.3965,421.5386,217.3965,411.5386,221.3965,415.5386,217.3965" style="stroke:#2563EB;stroke-width:1;"/><line style="stroke:#2563EB;stroke-width:1;" x1="295.2793" x2="417.5386" y1="217.3965" y2="217.3965"/><text fill="#000000" font-family="Segoe UI" font-size="13" lengthAdjust="spacing" textLength="85.1348" x="302.2793" y="212.6543">route request</text></g><rect fill="#EEEEEE" height="3" style="stroke:#EEEEEE;stroke-width:1;" width="686.9834" x="0" y="246.0518"/><line style="stroke:#000000;stroke-width:1;" x1="0" x2="686.9834" y1="246.0518" y2="246.0518"/><line style="stroke:#000000;stroke-width:1;" x1="0" x2="686.9834" y1="249.0518" y2="249.0518"/><rect fill="#EEEEEE" height="23.3105" style="stroke:#000000;stroke-width:2;" width="80.3711" x="303.3062" y="235.3965"/><text fill="#000000" font-family="Segoe UI" font-size="13" font-weight="bold" lengthAdjust="spacing" textLength="62.0864" x="309.3062" y="251.9648">Database</text><g class="message" data-participant-1="Svc" data-participant-2="DB"><polygon fill="#2563EB" points="636.7827,286.0176,646.7827,290.0176,636.7827,294.0176,640.7827,290.0176" style="stroke:#2563EB;stroke-width:1;"/><line style="stroke:#2563EB;stroke-width:1;" x1="433.5386" x2="642.7827" y1="290.0176" y2="290.0176"/><text fill="#000000" font-family="Segoe UI" font-size="13" lengthAdjust="spacing" textLength="196.2441" x="440.5386" y="285.2754">SELECT ... WHERE parent_id = ?</text></g><g class="message" data-participant-1="DB" data-participant-2="Svc"><polygon fill="#2563EB" points="444.5386,315.3281,434.5386,319.3281,444.5386,323.3281,440.5386,319.3281" style="stroke:#2563EB;stroke-width:1;"/><line style="stroke:#2563EB;stroke-width:1;stroke-dasharray:2,2;" x1="438.5386" x2="652.7827" y1="319.3281" y2="319.3281"/><text fill="#000000" font-family="Segoe UI" font-size="13" lengthAdjust="spacing" textLength="57.8843" x="450.5386" y="314.5859">ResultSet</text></g><g class="message" data-participant-1="Svc" data-participant-2="GW"><polygon fill="#2563EB" points="306.2793,344.6387,296.2793,348.6387,306.2793,352.6387,302.2793,348.6387" style="stroke:#2563EB;stroke-width:1;"/><line style="stroke:#2563EB;stroke-width:1;stroke-dasharray:2,2;" x1="300.2793" x2="427.5386" y1="348.6387" y2="348.6387"/><text fill="#000000" font-family="Segoe UI" font-size="13" lengthAdjust="spacing" textLength="47.3599" x="312.2793" y="343.8965">200 OK</text></g><g class="message" data-participant-1="GW" data-participant-2="Client"><polygon fill="#2563EB" points="42.7524,373.9492,32.7524,377.9492,42.7524,381.9492,38.7524,377.9492" style="stroke:#2563EB;stroke-width:1;"/><line style="stroke:#2563EB;stroke-width:1;stroke-dasharray:2,2;" x1="36.7524" x2="289.2793" y1="377.9492" y2="377.9492"/><text fill="#000000" font-family="Segoe UI" font-size="13" lengthAdjust="spacing" textLength="47.3599" x="48.7524" y="373.207">200 OK</text></g><!--SRC=[ZPDVRzem5CNV_Ickw3D_2br1I6mYu6Heg4DDEnuwD1ddGgq6cza6sbNzxhj92OILXoKFiNn-FjVts75FIg-55IkO2_cqj6QZau59ZOMBa6SlSmV2FOh4x9HUmaAa3ajAWWknINrejByHAuHAZ4k3S3-gb9VZxmrgYV3AW9w-jMQtBzNyTDt2UJuz4TOhgTP2-y3O16s1yCvrF_Y0_BjftWclmawEZTK2nqhZYKs_sGhQpLmFpFE955vsmiRbGVeGHnYIdiitnf-wodPxtYffPw9iyJPxOymhdo94_0xggP72AwDT_RKO_bB9MrsAjP3Al_pK4NgG6sjHqtS_2nklKlKdnnbR7wE0oY1LH5P0E7WVdihzoGWYuN4dNd8cciB5CE1zEkCJpcrbjTXGrQ7TAeakNn5l9Jmyr5TAMbC8zRDuVJOxd4KYl9WBHxTYOfoFHd7kDGmebW6_uWF6D6K6Peisgq0fKes3aLYhyoLgZtwLmW-5Er0QufrOBidWVZIRCTG9P9wClUS0rSzPjzt_ovq9wTMMWieJsbzD6f995a0Nw6H9jDbrTlv8PsA1iruFXaNVlHvZcKW6r7KNOZxcWpkerMem_SflEL3yj4lQ1FJWoz6m514DguVwj-ZePulHimHByBv8qMkpqO3ltyf85cxM1n7xNCvHqPJz1G00]--></g></svg>