<?plantuml 1.2026.2?><svg xmlns="http://www.w3.org/2000/svg" xmlns:xlink="http://www.w3.org/1999/xlink" contentStyleType="text/css" data-diagram-type="SEQUENCE" height="616px" preserveAspectRatio="none" style="width:818px;height:616px;background:#FEFEFE;" version="1.1" viewBox="0 0 818 616" width="818px" zoomAndPan="magnify"><title>POST /guests/{guest_id}/certifications
Add a certification</title><defs/><g><rect fill="#FEFEFE" height="616" style="stroke:none;stroke-width:1;" width="818" x="0" y="0"/><text fill="#000000" font-family="'Segoe UI'" font-size="14" font-weight="bold" lengthAdjust="spacing" textLength="280.2598" x="265.1218" y="41.3125">POST /guests/{guest_id}/certifications</text><text fill="#000000" font-family="'Segoe UI'" font-size="14" font-weight="bold" lengthAdjust="spacing" textLength="132.9658" x="338.7688" y="57.8008">Add a certification</text><g><title>API Gateway</title><rect fill="#059669" height="319.1055" style="stroke:#181818;stroke-width:1;" width="10" x="292.6743" y="200.8633"/></g><g><title>svc-guest-profiles</title><rect fill="#059669" height="260.4844" style="stroke:#181818;stroke-width:1;" width="10" x="421.2949" y="230.1738"/></g><g><title>PostgreSQL</title><rect fill="#FCE4EC" height="29.3105" style="stroke:#181818;stroke-width:1;" width="10" x="627.6992" y="338.1055"/></g><g><title>PostgreSQL</title><rect fill="#FCE4EC" height="29.3105" style="stroke:#181818;stroke-width:1;" width="10" x="627.6992" y="432.0371"/></g><g class="participant-lifeline" data-entity-uid="part1" data-qualified-name="Client" id="part1-lifeline"><g><title>Client</title><rect fill="#000000" fill-opacity="0.00000" height="403.7266" width="8" x="27.7524" y="134.2422"/><line style="stroke:#A23B72;stroke-width:0.5;stroke-dasharray:5,5;" x1="31" x2="31" y1="134.2422" y2="537.9688"/></g></g><g class="participant-lifeline" data-entity-uid="part2" data-qualified-name="GW" id="part2-lifeline"><g><title>API Gateway</title><rect fill="#000000" fill-opacity="0.00000" height="403.7266" width="8" x="293.6743" y="134.2422"/><line style="stroke:#A23B72;stroke-width:0.5;stroke-dasharray:5,5;" x1="297.3853" x2="297.3853" y1="134.2422" y2="537.9688"/></g></g><g class="participant-lifeline" data-entity-uid="part3" data-qualified-name="Svc" id="part3-lifeline"><g><title>svc-guest-profiles</title><rect fill="#000000" fill-opacity="0.00000" height="403.7266" width="8" x="422.2949" y="134.2422"/><line style="stroke:#A23B72;stroke-width:0.5;stroke-dasharray:5,5;" x1="425.9634" x2="425.9634" y1="134.2422" y2="537.9688"/></g></g><g class="participant-lifeline" data-entity-uid="part4" data-qualified-name="DB" id="part4-lifeline"><g><title>PostgreSQL</title><rect fill="#000000" fill-opacity="0.00000" height="403.7266" width="8" x="628.6992" y="134.2422"/><line style="stroke:#A23B72;stroke-width:0.5;stroke-dasharray:5,5;" x1="632.2744" x2="632.2744" y1="134.2422" y2="537.9688"/></g></g><g class="participant participant-head" data-entity-uid="part1" data-qualified-name="Client" id="part1-head"><a href="/applications/" target="_top" title="/applications/" xlink:actuate="onRequest" xlink:href="/applications/" xlink:show="new" xlink:title="/applications/" xlink:type="simple"><rect fill="#E8F4F8" height="30.4883" rx="2.5" ry="2.5" style="stroke:#2E86AB;stroke-width:0.5;" width="53.5049" x="5" y="102.7539"/><text fill="#000000" font-family="'Segoe UI'" font-size="14" lengthAdjust="spacing" textLength="39.5049" x="12" y="123.2891">Client</text></a></g><g class="participant participant-tail" data-entity-uid="part1" data-qualified-name="Client" id="part1-tail"><a href="/applications/" target="_top" title="/applications/" xlink:actuate="onRequest" xlink:href="/applications/" xlink:show="new" xlink:title="/applications/" xlink:type="simple"><rect fill="#E8F4F8" height="30.4883" rx="2.5" ry="2.5" style="stroke:#2E86AB;stroke-width:0.5;" width="53.5049" x="5" y="536.9688"/><text fill="#000000" font-family="'Segoe UI'" font-size="14" lengthAdjust="spacing" textLength="39.5049" x="12" y="557.5039">Client</text></a></g><g class="participant participant-head" data-entity-uid="part2" data-qualified-name="GW" id="part2-head"><a href="/actors/#api-gateway" target="_top" title="/actors/#api-gateway" xlink:actuate="onRequest" xlink:href="/actors/#api-gateway" xlink:show="new" xlink:title="/actors/#api-gateway" xlink:type="simple"><rect fill="#DBEAFE" height="30.4883" rx="2.5" ry="2.5" style="stroke:#2E86AB;stroke-width:0.5;" width="96.5781" x="249.3853" y="102.7539"/><text fill="#000000" font-family="'Segoe UI'" font-size="14" lengthAdjust="spacing" textLength="82.5781" x="256.3853" y="123.2891">API Gateway</text></a></g><g class="participant participant-tail" data-entity-uid="part2" data-qualified-name="GW" id="part2-tail"><a href="/actors/#api-gateway" target="_top" title="/actors/#api-gateway" xlink:actuate="onRequest" xlink:href="/actors/#api-gateway" xlink:show="new" xlink:title="/actors/#api-gateway" xlink:type="simple"><rect fill="#DBEAFE" height="30.4883" rx="2.5" ry="2.5" style="stroke:#2E86AB;stroke-width:0.5;" width="96.5781" x="249.3853" y="536.9688"/><text fill="#000000" font-family="'Segoe UI'" font-size="14" lengthAdjust="spacing" textLength="82.5781" x="256.3853" y="557.5039">API Gateway</text></a></g><g class="participant participant-head" data-entity-uid="part3" data-qualified-name="Svc" id="part3-head"><a href="/microservices/svc-guest-profiles/" target="_top" title="/microservices/svc-guest-profiles/" xlink:actuate="onRequest" xlink:href="/microservices/svc-guest-profiles/" xlink:show="new" xlink:title="/microservices/svc-guest-profiles/" xlink:type="simple"><rect fill="#E8F4F8" height="30.4883" rx="2.5" ry="2.5" style="stroke:#2E86AB;stroke-width:0.5;" width="140.6631" x="355.9634" y="102.7539"/><text fill="#000000" font-family="'Segoe UI'" font-size="14" lengthAdjust="spacing" textLength="126.6631" x="362.9634" y="123.2891">svc-guest-profiles</text></a></g><g class="participant participant-tail" data-entity-uid="part3" data-qualified-name="Svc" id="part3-tail"><a href="/microservices/svc-guest-profiles/" target="_top" title="/microservices/svc-guest-profiles/" xlink:actuate="onRequest" xlink:href="/microservices/svc-guest-profiles/" xlink:show="new" xlink:title="/microservices/svc-guest-profiles/" xlink:type="simple"><rect fill="#E8F4F8" height="30.4883" rx="2.5" ry="2.5" style="stroke:#2E86AB;stroke-width:0.5;" width="140.6631" x="355.9634" y="536.9688"/><text fill="#000000" font-family="'Segoe UI'" font-size="14" lengthAdjust="spacing" textLength="126.6631" x="362.9634" y="557.5039">svc-guest-profiles</text></a></g><g class="participant participant-head" data-entity-uid="part4" data-qualified-name="DB" id="part4-head"><text fill="#000000" font-family="'Segoe UI'" font-size="14" lengthAdjust="spacing" textLength="76.8496" x="591.2744" y="131.2891">PostgreSQL</text><path d="M614.6992,81.7539 C614.6992,71.7539 632.6992,71.7539 632.6992,71.7539 C632.6992,71.7539 650.6992,71.7539 650.6992,81.7539 L650.6992,107.7539 C650.6992,117.7539 632.6992,117.7539 632.6992,117.7539 C632.6992,117.7539 614.6992,117.7539 614.6992,107.7539 L614.6992,81.7539" fill="#FCE4EC" style="stroke:#181818;stroke-width:0.5;"/><path d="M614.6992,81.7539 C614.6992,91.7539 632.6992,91.7539 632.6992,91.7539 C632.6992,91.7539 650.6992,91.7539 650.6992,81.7539" fill="none" style="stroke:#181818;stroke-width:0.5;"/></g><g class="participant participant-tail" data-entity-uid="part4" data-qualified-name="DB" id="part4-tail"><text fill="#000000" font-family="'Segoe UI'" font-size="14" lengthAdjust="spacing" textLength="76.8496" x="591.2744" y="550.5039">PostgreSQL</text><path d="M614.6992,563.457 C614.6992,553.457 632.6992,553.457 632.6992,553.457 C632.6992,553.457 650.6992,553.457 650.6992,563.457 L650.6992,589.457 C650.6992,599.457 632.6992,599.457 632.6992,599.457 C632.6992,599.457 614.6992,599.457 614.6992,589.457 L614.6992,563.457" fill="#FCE4EC" style="stroke:#181818;stroke-width:0.5;"/><path d="M614.6992,563.457 C614.6992,573.457 632.6992,573.457 632.6992,573.457 C632.6992,573.457 650.6992,573.457 650.6992,563.457" fill="none" style="stroke:#181818;stroke-width:0.5;"/></g><g><title>API Gateway</title><rect fill="#059669" height="319.1055" style="stroke:#181818;stroke-width:1;" width="10" x="292.6743" y="200.8633"/></g><g><title>svc-guest-profiles</title><rect fill="#059669" height="260.4844" style="stroke:#181818;stroke-width:1;" width="10" x="421.2949" y="230.1738"/></g><g><title>PostgreSQL</title><rect fill="#FCE4EC" height="29.3105" style="stroke:#181818;stroke-width:1;" width="10" x="627.6992" y="338.1055"/></g><g><title>PostgreSQL</title><rect fill="#FCE4EC" height="29.3105" style="stroke:#181818;stroke-width:1;" width="10" x="627.6992" y="432.0371"/></g><path d="M356,149.2422 L356,174.2422 L496,174.2422 L496,159.2422 L486,149.2422 L356,149.2422" fill="#FEFFDD" style="stroke:#181818;stroke-width:0.5;"/><path d="M486,149.2422 L486,159.2422 L496,159.2422 L486,149.2422" fill="#FEFFDD" style="stroke:#181818;stroke-width:0.5;"/><a href="/services/api/svc-guest-profiles.html#/Certifications/addGuestCertification" target="_top" title="/services/api/svc-guest-profiles.html#/Certifications/addGuestCertification" xlink:actuate="onRequest" xlink:href="/services/api/svc-guest-profiles.html#/Certifications/addGuestCertification" xlink:show="new" xlink:title="/services/api/svc-guest-profiles.html#/Certifications/addGuestCertification" xlink:type="simple"><text fill="#0000FF" font-family="'Segoe UI'" font-size="13" lengthAdjust="spacing" text-decoration="underline" textLength="119.4058" x="362" y="166.8105">View in Swagger UI</text></a><g class="message" data-entity-1="part1" data-entity-2="part2" id="msg1"><polygon fill="#059669" points="280.6743,196.8633,290.6743,200.8633,280.6743,204.8633,284.6743,200.8633" style="stroke:#059669;stroke-width:1;"/><line style="stroke:#059669;stroke-width:1;" x1="31.7524" x2="286.6743" y1="200.8633" y2="200.8633"/><text fill="#000000" font-family="'Segoe UI'" font-size="13" lengthAdjust="spacing" textLength="241.9219" x="38.7524" y="196.1211">POST /guests/{guest_id}/certifications</text></g><g class="message" data-entity-1="part2" data-entity-2="part3" id="msg2"><polygon fill="#059669" points="409.2949,226.1738,419.2949,230.1738,409.2949,234.1738,413.2949,230.1738" style="stroke:#059669;stroke-width:1;"/><line style="stroke:#059669;stroke-width:1;" x1="302.6743" x2="415.2949" y1="230.1738" y2="230.1738"/><text fill="#000000" font-family="'Segoe UI'" font-size="13" lengthAdjust="spacing" textLength="85.1348" x="309.6743" y="225.4316">route request</text></g><path d="M436,243.1738 L436,268.1738 L594,268.1738 L594,253.1738 L584,243.1738 L436,243.1738" fill="#FEFFDD" style="stroke:#181818;stroke-width:0.5;"/><path d="M584,243.1738 L584,253.1738 L594,253.1738 L584,243.1738" fill="#FEFFDD" style="stroke:#181818;stroke-width:0.5;"/><text fill="#000000" font-family="'Segoe UI'" font-size="13" lengthAdjust="spacing" textLength="137.5728" x="442" y="260.7422">Validate request body</text><rect fill="#EEEEEE" height="3" style="stroke:#EEEEEE;stroke-width:1;" width="811.5034" x="0" y="294.1396"/><line style="stroke:#000000;stroke-width:1;" x1="0" x2="811.5034" y1="294.1396" y2="294.1396"/><line style="stroke:#000000;stroke-width:1;" x1="0" x2="811.5034" y1="297.1396" y2="297.1396"/><rect fill="#EEEEEE" height="23.3105" style="stroke:#000000;stroke-width:2;" width="80.3711" x="365.5662" y="283.4844"/><text fill="#000000" font-family="'Segoe UI'" font-size="13" font-weight="bold" lengthAdjust="spacing" textLength="62.0864" x="371.5662" y="300.0527">Database</text><g class="message" data-entity-1="part3" data-entity-2="part4" id="msg3"><polygon fill="#059669" points="615.6992,334.1055,625.6992,338.1055,615.6992,342.1055,619.6992,338.1055" style="stroke:#059669;stroke-width:1;"/><line style="stroke:#059669;stroke-width:1;" x1="431.2949" x2="621.6992" y1="338.1055" y2="338.1055"/><text fill="#000000" font-family="'Segoe UI'" font-size="13" lengthAdjust="spacing" textLength="177.4043" x="438.2949" y="333.3633">SELECT parent WHERE id = ?</text></g><g class="message" data-entity-1="part4" data-entity-2="part3" id="msg4"><polygon fill="#059669" points="442.2949,363.416,432.2949,367.416,442.2949,371.416,438.2949,367.416" style="stroke:#059669;stroke-width:1;"/><line style="stroke:#059669;stroke-width:1;stroke-dasharray:2,2;" x1="436.2949" x2="631.6992" y1="367.416" y2="367.416"/><text fill="#000000" font-family="'Segoe UI'" font-size="13" lengthAdjust="spacing" textLength="67.2915" x="448.2949" y="362.6738">Parent row</text></g><path d="M637,380.416 L637,405.416 L806,405.416 L806,390.416 L796,380.416 L637,380.416" fill="#FEFFDD" style="stroke:#181818;stroke-width:0.5;"/><path d="M796,380.416 L796,390.416 L806,390.416 L796,380.416" fill="#FEFFDD" style="stroke:#181818;stroke-width:0.5;"/><text fill="#000000" font-family="'Segoe UI'" font-size="13" lengthAdjust="spacing" textLength="148.5034" x="643" y="397.9844">404 if parent not found</text><g class="message" data-entity-1="part3" data-entity-2="part4" id="msg5"><polygon fill="#059669" points="615.6992,428.0371,625.6992,432.0371,615.6992,436.0371,619.6992,432.0371" style="stroke:#059669;stroke-width:1;"/><line style="stroke:#059669;stroke-width:1;" x1="431.2949" x2="621.6992" y1="432.0371" y2="432.0371"/><text fill="#000000" font-family="'Segoe UI'" font-size="13" lengthAdjust="spacing" textLength="96.0718" x="438.2949" y="427.2949">INSERT INTO ...</text></g><g class="message" data-entity-1="part4" data-entity-2="part3" id="msg6"><polygon fill="#059669" points="442.2949,457.3477,432.2949,461.3477,442.2949,465.3477,438.2949,461.3477" style="stroke:#059669;stroke-width:1;"/><line style="stroke:#059669;stroke-width:1;stroke-dasharray:2,2;" x1="436.2949" x2="631.6992" y1="461.3477" y2="461.3477"/><text fill="#000000" font-family="'Segoe UI'" font-size="13" lengthAdjust="spacing" textLength="76.4575" x="448.2949" y="456.6055">Created row</text></g><g class="message" data-entity-1="part3" data-entity-2="part2" id="msg7"><polygon fill="#059669" points="313.6743,486.6582,303.6743,490.6582,313.6743,494.6582,309.6743,490.6582" style="stroke:#059669;stroke-width:1;"/><line style="stroke:#059669;stroke-width:1;stroke-dasharray:2,2;" x1="307.6743" x2="425.2949" y1="490.6582" y2="490.6582"/><text fill="#000000" font-family="'Segoe UI'" font-size="13" lengthAdjust="spacing" textLength="77.7969" x="319.6743" y="485.916">201 Created</text></g><g class="message" data-entity-1="part2" data-entity-2="part1" id="msg8"><polygon fill="#059669" points="42.7524,515.9688,32.7524,519.9688,42.7524,523.9688,38.7524,519.9688" style="stroke:#059669;stroke-width:1;"/><line style="stroke:#059669;stroke-width:1;stroke-dasharray:2,2;" x1="36.7524" x2="296.6743" y1="519.9688" y2="519.9688"/><text fill="#000000" font-family="'Segoe UI'" font-size="13" lengthAdjust="spacing" textLength="77.7969" x="48.7524" y="515.2266">201 Created</text></g><a href="/microservices/svc-guest-profiles/#integration-context" target="_top" title="/microservices/svc-guest-profiles/#integration-context" xlink:actuate="onRequest" xlink:href="/microservices/svc-guest-profiles/#integration-context" xlink:show="new" xlink:title="/microservices/svc-guest-profiles/#integration-context" xlink:type="simple"><text fill="#0000FF" font-family="'Segoe UI'" font-size="10" lengthAdjust="spacing" text-decoration="underline" textLength="201.6455" x="608.8579" y="14.668">&#11014; svc-guest-profiles Integration Context</text></a><?plantuml-src ZLJHRjem57ttLrp1CuHILcWbDa6QC2JKieQs3nsQJEm4go7ER0EjghxkQ_PL-v9T1mAaT5hX8P7FEVTSdsj7FueqeuekO4R3nrZ9PSfScKW5LT-pVw9t33sdJAv56aD44yqF4COZkaoCBrDpHHSSAW6F9OVROULGpdykUHfoU260lvvIShsrQdmwFpixpvV7L1aHYeocfYyLusfBQNgTirx_YFAsQQ_Zj_nEJXk9Y8z4oajbUitJVhkPuttvL8ByauxVEDb1Ht7uFk8vV2LDkMhORizE3x1teZprskILa3cdA8E71sSXGYKrLoiHSkteLLYBbroRMgPa919SgehKy5XH8sHQ2p5Q_cJWp-zVSCo5uPuAxeOwdH9YX4auZA-32JYvGZil-VE7OAzEo377I8IvJ7zFUum1XT8g8Ta-RAYuYU2fgG3Li7cr6w5PbXH577GjANhZ8GoeuMlwdCi6zxaaD5BX3cacQl46dKwXUjdtUdZYIWMEDvlN2LRXXqAqPRTdWb53PrJZwHnBRMB5Ws-ZlDPb7oVaUYtF9IJ5yO5SuOZG0GUA7hlosEqx5lMvMIHLnos5wL361fPMMeOxmTSWKWZMD8xHutQ8UV6KWRKbP9jfxREDwUA3SoCOfbXXY5PKt2HynIesf0l0WuYWihTFcptRWWLzisqbuha16MrrTpGHZEwbC9FicP1k5owB9BjTGYmPlJ342mYyaUTE00Tezt7_rRlnG33emfUzxq7Q-5hRjJdUYF2ZG1W_OB_fBVTfDLeWei872H3PsrPkPdWLU3SJV4okeLwl_xy3Lt64sJijREeMSsasJWhk8SyU69ixqhQ3_2TrS4_-0W00?></g></svg>