<svg xmlns="http://www.w3.org/2000/svg" xmlns:xlink="http://www.w3.org/1999/xlink" contentStyleType="text/css" data-diagram-type="SEQUENCE" height="522px" preserveAspectRatio="none" style="width:808px;height:522px;background:#FEFEFE;" version="1.1" viewBox="0 0 808 522" width="808px" zoomAndPan="magnify"><title>GET /transport-requests/{request_id}</title><defs/><g><rect fill="#FEFEFE" height="522" style="stroke:none;stroke-width:1;" width="808" x="0" y="0"/><text fill="#000000" font-family="Segoe UI" font-size="14" font-weight="bold" lengthAdjust="spacing" textLength="274.3125" x="262.8723" y="41.3125">GET /transport-requests/{request_id}</text><text fill="#000000" font-family="Segoe UI" font-size="14" font-weight="bold" lengthAdjust="spacing" textLength="209.0293" x="295.5139" y="57.8008">Get transport request details</text><g><title>API Gateway</title><rect fill="#2563EB" height="225.1738" style="stroke:#A23B72;stroke-width:1;" width="10" x="287.6978" y="200.8633"/></g><g><title>svc-transport-logistics</title><rect fill="#2563EB" height="166.5527" style="stroke:#A23B72;stroke-width:1;" width="10" x="431.3882" y="230.1738"/></g><g><title>PostgreSQL</title><rect fill="#FCE4EC" height="29.3105" style="stroke:#A23B72;stroke-width:1;" width="10" x="609.2788" y="302.7949"/></g><g><title>Client</title><rect fill="#000000" fill-opacity="0.00000" height="309.7949" width="8" x="27.7524" y="134.2422"/><line style="stroke:#A23B72;stroke-width:0.5;stroke-dasharray:5,5;" x1="31" x2="31" y1="134.2422" y2="444.0371"/></g><g><title>API Gateway</title><rect fill="#000000" fill-opacity="0.00000" height="309.7949" width="8" x="288.6978" y="134.2422"/><line style="stroke:#A23B72;stroke-width:0.5;stroke-dasharray:5,5;" x1="292.4087" x2="292.4087" y1="134.2422" y2="444.0371"/></g><g><title>svc-transport-logistics</title><rect fill="#000000" fill-opacity="0.00000" height="309.7949" width="8" x="432.3882" y="134.2422"/><line style="stroke:#A23B72;stroke-width:0.5;stroke-dasharray:5,5;" x1="435.9868" x2="435.9868" y1="134.2422" y2="444.0371"/></g><g><title>PostgreSQL</title><rect fill="#000000" fill-opacity="0.00000" height="309.7949" width="8" x="610.2788" y="134.2422"/><line style="stroke:#A23B72;stroke-width:0.5;stroke-dasharray:5,5;" x1="613.854" x2="613.854" y1="134.2422" y2="444.0371"/></g><g class="participant participant-head" data-participant="Client"><rect fill="#E8F4F8" height="30.4883" rx="2.5" ry="2.5" style="stroke:#2E86AB;stroke-width:0.5;" width="53.5049" x="5" y="102.7539"/><text fill="#000000" font-family="Segoe UI" font-size="14" lengthAdjust="spacing" textLength="39.5049" x="12" y="123.2891">Client</text></g><g class="participant participant-tail" data-participant="Client"><rect fill="#E8F4F8" height="30.4883" rx="2.5" ry="2.5" style="stroke:#2E86AB;stroke-width:0.5;" width="53.5049" x="5" y="443.0371"/><text fill="#000000" font-family="Segoe UI" font-size="14" lengthAdjust="spacing" textLength="39.5049" x="12" y="463.5723">Client</text></g><g class="participant participant-head" data-participant="GW"><rect fill="#DBEAFE" height="30.4883" rx="2.5" ry="2.5" style="stroke:#2E86AB;stroke-width:0.5;" width="96.5781" x="244.4087" y="102.7539"/><text fill="#000000" font-family="Segoe UI" font-size="14" lengthAdjust="spacing" textLength="82.5781" x="251.4087" y="123.2891">API Gateway</text></g><g class="participant participant-tail" data-participant="GW"><rect fill="#DBEAFE" height="30.4883" rx="2.5" ry="2.5" style="stroke:#2E86AB;stroke-width:0.5;" width="96.5781" x="244.4087" y="443.0371"/><text fill="#000000" font-family="Segoe UI" font-size="14" lengthAdjust="spacing" textLength="82.5781" x="251.4087" y="463.5723">API Gateway</text></g><g class="participant participant-head" data-participant="Svc"><a href="/microservices/svc-transport-logistics/" target="_top" title="/microservices/svc-transport-logistics/" xlink:actuate="onRequest" xlink:href="/microservices/svc-transport-logistics/" xlink:show="new" xlink:title="/microservices/svc-transport-logistics/" xlink:type="simple"><rect fill="#E8F4F8" height="30.4883" rx="2.5" ry="2.5" style="stroke:#2E86AB;stroke-width:0.5;" width="170.8027" x="350.9868" y="102.7539"/><text fill="#000000" font-family="Segoe UI" font-size="14" lengthAdjust="spacing" textLength="156.8027" x="357.9868" y="123.2891">svc-transport-logistics</text></a></g><g class="participant participant-tail" data-participant="Svc"><a href="/microservices/svc-transport-logistics/" target="_top" title="/microservices/svc-transport-logistics/" xlink:actuate="onRequest" xlink:href="/microservices/svc-transport-logistics/" xlink:show="new" xlink:title="/microservices/svc-transport-logistics/" xlink:type="simple"><rect fill="#E8F4F8" height="30.4883" rx="2.5" ry="2.5" style="stroke:#2E86AB;stroke-width:0.5;" width="170.8027" x="350.9868" y="443.0371"/><text fill="#000000" font-family="Segoe UI" font-size="14" lengthAdjust="spacing" textLength="156.8027" x="357.9868" y="463.5723">svc-transport-logistics</text></a></g><g class="participant participant-head" data-participant="DB"><text fill="#000000" font-family="Segoe UI" font-size="14" lengthAdjust="spacing" textLength="76.8496" x="572.854" y="131.2891">PostgreSQL</text><path d="M596.2788,81.7539 C596.2788,71.7539 614.2788,71.7539 614.2788,71.7539 C614.2788,71.7539 632.2788,71.7539 632.2788,81.7539 L632.2788,107.7539 C632.2788,117.7539 614.2788,117.7539 614.2788,117.7539 C614.2788,117.7539 596.2788,117.7539 596.2788,107.7539 L596.2788,81.7539" fill="#FCE4EC" style="stroke:#181818;stroke-width:0.5;"/><path d="M596.2788,81.7539 C596.2788,91.7539 614.2788,91.7539 614.2788,91.7539 C614.2788,91.7539 632.2788,91.7539 632.2788,81.7539" fill="none" style="stroke:#181818;stroke-width:0.5;"/></g><g class="participant participant-tail" data-participant="DB"><text fill="#000000" font-family="Segoe UI" font-size="14" lengthAdjust="spacing" textLength="76.8496" x="572.854" y="456.5723">PostgreSQL</text><path d="M596.2788,469.5254 C596.2788,459.5254 614.2788,459.5254 614.2788,459.5254 C614.2788,459.5254 632.2788,459.5254 632.2788,469.5254 L632.2788,495.5254 C632.2788,505.5254 614.2788,505.5254 614.2788,505.5254 C614.2788,505.5254 596.2788,505.5254 596.2788,495.5254 L596.2788,469.5254" fill="#FCE4EC" style="stroke:#181818;stroke-width:0.5;"/><path d="M596.2788,469.5254 C596.2788,479.5254 614.2788,479.5254 614.2788,479.5254 C614.2788,479.5254 632.2788,479.5254 632.2788,469.5254" fill="none" style="stroke:#181818;stroke-width:0.5;"/></g><g><title>API Gateway</title><rect fill="#2563EB" height="225.1738" style="stroke:#A23B72;stroke-width:1;" width="10" x="287.6978" y="200.8633"/></g><g><title>svc-transport-logistics</title><rect fill="#2563EB" height="166.5527" style="stroke:#A23B72;stroke-width:1;" width="10" x="431.3882" y="230.1738"/></g><g><title>PostgreSQL</title><rect fill="#FCE4EC" height="29.3105" style="stroke:#A23B72;stroke-width:1;" width="10" x="609.2788" y="302.7949"/></g><path d="M366,149.2422 L366,174.2422 L506,174.2422 L506,159.2422 L496,149.2422 L366,149.2422" fill="#FEFFDD" style="stroke:#181818;stroke-width:0.5;"/><path d="M496,149.2422 L496,159.2422 L506,159.2422 L496,149.2422" fill="#FEFFDD" style="stroke:#181818;stroke-width:0.5;"/><a href="/services/api/svc-transport-logistics.html" target="_top" title="/services/api/svc-transport-logistics.html" xlink:actuate="onRequest" xlink:href="/services/api/svc-transport-logistics.html" xlink:show="new" xlink:title="/services/api/svc-transport-logistics.html" xlink:type="simple"><text fill="#0000FF" font-family="Segoe UI" font-size="13" lengthAdjust="spacing" text-decoration="underline" textLength="119.4058" x="372" y="166.8105">View in Swagger UI</text></a><g class="message" data-participant-1="Client" data-participant-2="GW"><polygon fill="#2563EB" points="275.6978,196.8633,285.6978,200.8633,275.6978,204.8633,279.6978,200.8633" style="stroke:#2563EB;stroke-width:1;"/><line style="stroke:#2563EB;stroke-width:1;" x1="31.7524" x2="281.6978" y1="200.8633" y2="200.8633"/><text fill="#000000" font-family="Segoe UI" font-size="13" lengthAdjust="spacing" textLength="236.9453" x="38.7524" y="196.1211">GET /transport-requests/{request_id}</text></g><g class="message" data-participant-1="GW" data-participant-2="Svc"><polygon fill="#2563EB" points="419.3882,226.1738,429.3882,230.1738,419.3882,234.1738,423.3882,230.1738" style="stroke:#2563EB;stroke-width:1;"/><line style="stroke:#2563EB;stroke-width:1;" x1="297.6978" x2="425.3882" y1="230.1738" y2="230.1738"/><text fill="#000000" font-family="Segoe UI" font-size="13" lengthAdjust="spacing" textLength="85.1348" x="304.6978" y="225.4316">route request</text></g><rect fill="#EEEEEE" height="3" style="stroke:#EEEEEE;stroke-width:1;" width="801.0571" x="0" y="258.8291"/><line style="stroke:#000000;stroke-width:1;" x1="0" x2="801.0571" y1="258.8291" y2="258.8291"/><line style="stroke:#000000;stroke-width:1;" x1="0" x2="801.0571" y1="261.8291" y2="261.8291"/><rect fill="#EEEEEE" height="23.3105" style="stroke:#000000;stroke-width:2;" width="80.3711" x="360.343" y="248.1738"/><text fill="#000000" font-family="Segoe UI" font-size="13" font-weight="bold" lengthAdjust="spacing" textLength="62.0864" x="366.343" y="264.7422">Database</text><g class="message" data-participant-1="Svc" data-participant-2="DB"><polygon fill="#2563EB" points="597.2788,298.7949,607.2788,302.7949,597.2788,306.7949,601.2788,302.7949" style="stroke:#2563EB;stroke-width:1;"/><line style="stroke:#2563EB;stroke-width:1;" x1="441.3882" x2="603.2788" y1="302.7949" y2="302.7949"/><text fill="#000000" font-family="Segoe UI" font-size="13" lengthAdjust="spacing" textLength="148.8906" x="448.3882" y="298.0527">SELECT ... WHERE id = ?</text></g><g class="message" data-participant-1="DB" data-participant-2="Svc"><polygon fill="#2563EB" points="452.3882,328.1055,442.3882,332.1055,452.3882,336.1055,448.3882,332.1055" style="stroke:#2563EB;stroke-width:1;"/><line style="stroke:#2563EB;stroke-width:1;stroke-dasharray:2,2;" x1="446.3882" x2="613.2788" y1="332.1055" y2="332.1055"/><text fill="#000000" font-family="Segoe UI" font-size="13" lengthAdjust="spacing" textLength="26.2222" x="458.3882" y="327.3633">Row</text></g><path d="M619,345.1055 L619,370.1055 L796,370.1055 L796,355.1055 L786,345.1055 L619,345.1055" fill="#FEFFDD" style="stroke:#181818;stroke-width:0.5;"/><path d="M786,345.1055 L786,355.1055 L796,355.1055 L786,345.1055" fill="#FEFFDD" style="stroke:#181818;stroke-width:0.5;"/><text fill="#000000" font-family="Segoe UI" font-size="13" lengthAdjust="spacing" textLength="156.0571" x="625" y="362.6738">Returns 404 if not found</text><g class="message" data-participant-1="Svc" data-participant-2="GW"><polygon fill="#2563EB" points="308.6978,392.7266,298.6978,396.7266,308.6978,400.7266,304.6978,396.7266" style="stroke:#2563EB;stroke-width:1;"/><line style="stroke:#2563EB;stroke-width:1;stroke-dasharray:2,2;" x1="302.6978" x2="435.3882" y1="396.7266" y2="396.7266"/><text fill="#000000" font-family="Segoe UI" font-size="13" lengthAdjust="spacing" textLength="47.3599" x="314.6978" y="391.9844">200 OK</text></g><g class="message" data-participant-1="GW" data-participant-2="Client"><polygon fill="#2563EB" points="42.7524,422.0371,32.7524,426.0371,42.7524,430.0371,38.7524,426.0371" style="stroke:#2563EB;stroke-width:1;"/><line style="stroke:#2563EB;stroke-width:1;stroke-dasharray:2,2;" x1="36.7524" x2="291.6978" y1="426.0371" y2="426.0371"/><text fill="#000000" font-family="Segoe UI" font-size="13" lengthAdjust="spacing" textLength="47.3599" x="48.7524" y="421.2949">200 OK</text></g><a href="/microservices/svc-transport-logistics/#integration-context" target="_top" title="/microservices/svc-transport-logistics/#integration-context" xlink:actuate="onRequest" xlink:href="/microservices/svc-transport-logistics/#integration-context" xlink:show="new" xlink:title="/microservices/svc-transport-logistics/#integration-context" xlink:type="simple"><text fill="#0000FF" font-family="Segoe UI" font-size="10" lengthAdjust="spacing" text-decoration="underline" textLength="223.1738" x="576.8833" y="14.668">&#11014; svc-transport-logistics Integration Context</text></a><!--SRC=[ZPFTRjf048Nlzob6SCrFW0Q4H2imDaL52OMaNAIeMkonMSNiqjq5KaMvxTFqgVea7Hi3fWbIu6RbS-QCvvkrUHHopJLVmOBxZv5M6nauAbOQYfwR_9avEioI1sedP0GXZmtcb013lecjfwIzuIk4mXGZXN0_BEJByUS6fO_mp81-NQtLBcjL-t1TnqNwUCor5RvOSsbxIWUe3nQtTTtjlRBy_z9kosjuhTGs4Y6EXCIpc6wjtclMKhsddiuaxwhbLQ-EqYiSdaTwAjyeUvxgDvkBUavx0sNTRR8NnfR8gGmU7YehuMjbK6-5ZwPYjdx9QYxDMcbRYbKa3CreAaKXBKQQMw5aoIU- -6JXxv_VSA40XYS_E7l_VCwO5JP66BXtK3bLwMGZnfhAStRw8OANxtA05euco2JQiUKYDeojJ_YXuCG2fIq0Dx0_dilTyH06tEAE_qezWnaK-pstI_Vgp7TXchHcklNVpsi-Fzw1W5k-u8PkurWP6scSVXsbWVqURSHn6wx3cAHrWThIIgWDBP0Q7NlmjRZKfxoqgnY-2To1a33TyIYYYFiXeKOPG9BAs1u8b3ucOxVV1Pzntuej0Kj9PPy57IaZmT06kbKaPXKdTo8UxApJWVvXzaw7iKIa01gx3LDtv3ftK2wNOVRPdRWW0kZ0frDI3WuTIyV64xLZ0UPiUtHQH4iBAjodJz1kj3JGg3P0X0a629FF87k70ubQjGgtN_9n2VnaJ79arDvo3MRi7m00]--></g></svg>