<svg xmlns="http://www.w3.org/2000/svg" xmlns:xlink="http://www.w3.org/1999/xlink" contentStyleType="text/css" data-diagram-type="SEQUENCE" height="474px" preserveAspectRatio="none" style="width:683px;height:474px;background:#FEFEFE;" version="1.1" viewBox="0 0 683 474" width="683px" zoomAndPan="magnify"><title>GET /routes/{route_id}/schedule</title><defs/><g><rect fill="#FEFEFE" height="474" style="stroke:none;stroke-width:1;" width="683" x="0" y="0"/><text fill="#000000" font-family="Segoe UI" font-size="14" font-weight="bold" lengthAdjust="spacing" textLength="236.7354" x="219.4631" y="28.5352">GET /routes/{route_id}/schedule</text><text fill="#000000" font-family="Segoe UI" font-size="14" font-weight="bold" lengthAdjust="spacing" textLength="246.7295" x="214.4661" y="45.0234">Get schedule for a transport route</text><g><title>API Gateway</title><rect fill="#2563EB" height="189.8633" style="stroke:#A23B72;stroke-width:1;" width="10" x="256.3022" y="188.0859"/></g><g><title>svc-transport-logistics</title><rect fill="#2563EB" height="131.2422" style="stroke:#A23B72;stroke-width:1;" width="10" x="399.9927" y="217.3965"/></g><g><title>PostgreSQL</title><rect fill="#FCE4EC" height="29.3105" style="stroke:#A23B72;stroke-width:1;" width="10" x="625.2368" y="290.0176"/></g><g><title>Client</title><rect fill="#000000" fill-opacity="0.00000" height="274.4844" width="8" x="27.7524" y="121.4648"/><line style="stroke:#A23B72;stroke-width:0.5;stroke-dasharray:5,5;" x1="31" x2="31" y1="121.4648" y2="395.9492"/></g><g><title>API Gateway</title><rect fill="#000000" fill-opacity="0.00000" height="274.4844" width="8" x="257.3022" y="121.4648"/><line style="stroke:#A23B72;stroke-width:0.5;stroke-dasharray:5,5;" x1="261.0132" x2="261.0132" y1="121.4648" y2="395.9492"/></g><g><title>svc-transport-logistics</title><rect fill="#000000" fill-opacity="0.00000" height="274.4844" width="8" x="400.9927" y="121.4648"/><line style="stroke:#A23B72;stroke-width:0.5;stroke-dasharray:5,5;" x1="404.5913" x2="404.5913" y1="121.4648" y2="395.9492"/></g><g><title>PostgreSQL</title><rect fill="#000000" fill-opacity="0.00000" height="274.4844" width="8" x="626.2368" y="121.4648"/><line style="stroke:#A23B72;stroke-width:0.5;stroke-dasharray:5,5;" x1="629.812" x2="629.812" y1="121.4648" y2="395.9492"/></g><g class="participant participant-head" data-participant="Client"><rect fill="#E8F4F8" height="30.4883" rx="2.5" ry="2.5" style="stroke:#2E86AB;stroke-width:0.5;" width="53.5049" x="5" y="89.9766"/><text fill="#000000" font-family="Segoe UI" font-size="14" lengthAdjust="spacing" textLength="39.5049" x="12" y="110.5117">Client</text></g><g class="participant participant-tail" data-participant="Client"><rect fill="#E8F4F8" height="30.4883" rx="2.5" ry="2.5" style="stroke:#2E86AB;stroke-width:0.5;" width="53.5049" x="5" y="394.9492"/><text fill="#000000" font-family="Segoe UI" font-size="14" lengthAdjust="spacing" textLength="39.5049" x="12" y="415.4844">Client</text></g><g class="participant participant-head" data-participant="GW"><rect fill="#DBEAFE" height="30.4883" rx="2.5" ry="2.5" style="stroke:#2E86AB;stroke-width:0.5;" width="96.5781" x="213.0132" y="89.9766"/><text fill="#000000" font-family="Segoe UI" font-size="14" lengthAdjust="spacing" textLength="82.5781" x="220.0132" y="110.5117">API Gateway</text></g><g class="participant participant-tail" data-participant="GW"><rect fill="#DBEAFE" height="30.4883" rx="2.5" ry="2.5" style="stroke:#2E86AB;stroke-width:0.5;" width="96.5781" x="213.0132" y="394.9492"/><text fill="#000000" font-family="Segoe UI" font-size="14" lengthAdjust="spacing" textLength="82.5781" x="220.0132" y="415.4844">API Gateway</text></g><g class="participant participant-head" data-participant="Svc"><a href="/microservices/svc-transport-logistics/" target="_top" title="/microservices/svc-transport-logistics/" xlink:actuate="onRequest" xlink:href="/microservices/svc-transport-logistics/" xlink:show="new" xlink:title="/microservices/svc-transport-logistics/" xlink:type="simple"><rect fill="#E8F4F8" height="30.4883" rx="2.5" ry="2.5" style="stroke:#2E86AB;stroke-width:0.5;" width="170.8027" x="319.5913" y="89.9766"/><text fill="#000000" font-family="Segoe UI" font-size="14" lengthAdjust="spacing" textLength="156.8027" x="326.5913" y="110.5117">svc-transport-logistics</text></a></g><g class="participant participant-tail" data-participant="Svc"><a href="/microservices/svc-transport-logistics/" target="_top" title="/microservices/svc-transport-logistics/" xlink:actuate="onRequest" xlink:href="/microservices/svc-transport-logistics/" xlink:show="new" xlink:title="/microservices/svc-transport-logistics/" xlink:type="simple"><rect fill="#E8F4F8" height="30.4883" rx="2.5" ry="2.5" style="stroke:#2E86AB;stroke-width:0.5;" width="170.8027" x="319.5913" y="394.9492"/><text fill="#000000" font-family="Segoe UI" font-size="14" lengthAdjust="spacing" textLength="156.8027" x="326.5913" y="415.4844">svc-transport-logistics</text></a></g><g class="participant participant-head" data-participant="DB"><text fill="#000000" font-family="Segoe UI" font-size="14" lengthAdjust="spacing" textLength="76.8496" x="588.812" y="118.5117">PostgreSQL</text><path d="M612.2368,68.9766 C612.2368,58.9766 630.2368,58.9766 630.2368,58.9766 C630.2368,58.9766 648.2368,58.9766 648.2368,68.9766 L648.2368,94.9766 C648.2368,104.9766 630.2368,104.9766 630.2368,104.9766 C630.2368,104.9766 612.2368,104.9766 612.2368,94.9766 L612.2368,68.9766" fill="#FCE4EC" style="stroke:#181818;stroke-width:0.5;"/><path d="M612.2368,68.9766 C612.2368,78.9766 630.2368,78.9766 630.2368,78.9766 C630.2368,78.9766 648.2368,78.9766 648.2368,68.9766" fill="none" style="stroke:#181818;stroke-width:0.5;"/></g><g class="participant participant-tail" data-participant="DB"><text fill="#000000" font-family="Segoe UI" font-size="14" lengthAdjust="spacing" textLength="76.8496" x="588.812" y="408.4844">PostgreSQL</text><path d="M612.2368,421.4375 C612.2368,411.4375 630.2368,411.4375 630.2368,411.4375 C630.2368,411.4375 648.2368,411.4375 648.2368,421.4375 L648.2368,447.4375 C648.2368,457.4375 630.2368,457.4375 630.2368,457.4375 C630.2368,457.4375 612.2368,457.4375 612.2368,447.4375 L612.2368,421.4375" fill="#FCE4EC" style="stroke:#181818;stroke-width:0.5;"/><path d="M612.2368,421.4375 C612.2368,431.4375 630.2368,431.4375 630.2368,431.4375 C630.2368,431.4375 648.2368,431.4375 648.2368,421.4375" fill="none" style="stroke:#181818;stroke-width:0.5;"/></g><g><title>API Gateway</title><rect fill="#2563EB" height="189.8633" style="stroke:#A23B72;stroke-width:1;" width="10" x="256.3022" y="188.0859"/></g><g><title>svc-transport-logistics</title><rect fill="#2563EB" height="131.2422" style="stroke:#A23B72;stroke-width:1;" width="10" x="399.9927" y="217.3965"/></g><g><title>PostgreSQL</title><rect fill="#FCE4EC" height="29.3105" style="stroke:#A23B72;stroke-width:1;" width="10" x="625.2368" y="290.0176"/></g><path d="M334,136.4648 L334,161.4648 L474,161.4648 L474,146.4648 L464,136.4648 L334,136.4648" fill="#FEFFDD" style="stroke:#181818;stroke-width:0.5;"/><path d="M464,136.4648 L464,146.4648 L474,146.4648 L464,136.4648" fill="#FEFFDD" style="stroke:#181818;stroke-width:0.5;"/><a href="/services/api/svc-transport-logistics.html" target="_top" title="/services/api/svc-transport-logistics.html" xlink:actuate="onRequest" xlink:href="/services/api/svc-transport-logistics.html" xlink:show="new" xlink:title="/services/api/svc-transport-logistics.html" xlink:type="simple"><text fill="#0000FF" font-family="Segoe UI" font-size="13" lengthAdjust="spacing" text-decoration="underline" textLength="119.4058" x="340" y="154.0332">View in Swagger UI</text></a><g class="message" data-participant-1="Client" data-participant-2="GW"><polygon fill="#2563EB" points="244.3022,184.0859,254.3022,188.0859,244.3022,192.0859,248.3022,188.0859" style="stroke:#2563EB;stroke-width:1;"/><line style="stroke:#2563EB;stroke-width:1;" x1="31.7524" x2="250.3022" y1="188.0859" y2="188.0859"/><text fill="#000000" font-family="Segoe UI" font-size="13" lengthAdjust="spacing" textLength="205.5498" x="38.7524" y="183.3438">GET /routes/{route_id}/schedule</text></g><g class="message" data-participant-1="GW" data-participant-2="Svc"><polygon fill="#2563EB" points="387.9927,213.3965,397.9927,217.3965,387.9927,221.3965,391.9927,217.3965" style="stroke:#2563EB;stroke-width:1;"/><line style="stroke:#2563EB;stroke-width:1;" x1="266.3022" x2="393.9927" y1="217.3965" y2="217.3965"/><text fill="#000000" font-family="Segoe UI" font-size="13" lengthAdjust="spacing" textLength="85.1348" x="273.3022" y="212.6543">route request</text></g><rect fill="#EEEEEE" height="3" style="stroke:#EEEEEE;stroke-width:1;" width="676.6616" x="0" y="246.0518"/><line style="stroke:#000000;stroke-width:1;" x1="0" x2="676.6616" y1="246.0518" y2="246.0518"/><line style="stroke:#000000;stroke-width:1;" x1="0" x2="676.6616" y1="249.0518" y2="249.0518"/><rect fill="#EEEEEE" height="23.3105" style="stroke:#000000;stroke-width:2;" width="80.3711" x="298.1453" y="235.3965"/><text fill="#000000" font-family="Segoe UI" font-size="13" font-weight="bold" lengthAdjust="spacing" textLength="62.0864" x="304.1453" y="251.9648">Database</text><g class="message" data-participant-1="Svc" data-participant-2="DB"><polygon fill="#2563EB" points="613.2368,286.0176,623.2368,290.0176,613.2368,294.0176,617.2368,290.0176" style="stroke:#2563EB;stroke-width:1;"/><line style="stroke:#2563EB;stroke-width:1;" x1="409.9927" x2="619.2368" y1="290.0176" y2="290.0176"/><text fill="#000000" font-family="Segoe UI" font-size="13" lengthAdjust="spacing" textLength="196.2441" x="416.9927" y="285.2754">SELECT ... WHERE parent_id = ?</text></g><g class="message" data-participant-1="DB" data-participant-2="Svc"><polygon fill="#2563EB" points="420.9927,315.3281,410.9927,319.3281,420.9927,323.3281,416.9927,319.3281" style="stroke:#2563EB;stroke-width:1;"/><line style="stroke:#2563EB;stroke-width:1;stroke-dasharray:2,2;" x1="414.9927" x2="629.2368" y1="319.3281" y2="319.3281"/><text fill="#000000" font-family="Segoe UI" font-size="13" lengthAdjust="spacing" textLength="57.8843" x="426.9927" y="314.5859">ResultSet</text></g><g class="message" data-participant-1="Svc" data-participant-2="GW"><polygon fill="#2563EB" points="277.3022,344.6387,267.3022,348.6387,277.3022,352.6387,273.3022,348.6387" style="stroke:#2563EB;stroke-width:1;"/><line style="stroke:#2563EB;stroke-width:1;stroke-dasharray:2,2;" x1="271.3022" x2="403.9927" y1="348.6387" y2="348.6387"/><text fill="#000000" font-family="Segoe UI" font-size="13" lengthAdjust="spacing" textLength="47.3599" x="283.3022" y="343.8965">200 OK</text></g><g class="message" data-participant-1="GW" data-participant-2="Client"><polygon fill="#2563EB" points="42.7524,373.9492,32.7524,377.9492,42.7524,381.9492,38.7524,377.9492" style="stroke:#2563EB;stroke-width:1;"/><line style="stroke:#2563EB;stroke-width:1;stroke-dasharray:2,2;" x1="36.7524" x2="260.3022" y1="377.9492" y2="377.9492"/><text fill="#000000" font-family="Segoe UI" font-size="13" lengthAdjust="spacing" textLength="47.3599" x="48.7524" y="373.207">200 OK</text></g><!--SRC=[XLDTRzem57tthxYYptmKkeAGw4J0OMYeOqqx7ZeqcUGIh0QRsGOsLVtllGaGahNLaeSuEUUUS- -nOv-asWWZrh0GuLDiz5P50vre0nS-JszcSuPTYKZlfOfXAHAB1IJ2fTWcpjVAtOerGYN0M2CyZ2l5SlozHHKYF3EWgs-CtX-jcf-kMxZ8Fa-5SJAK6w6Sfqs4vaJXdUk-zuRoRzEyur_vdOmsaKkSI8KbcNwpvRMR6UxfFoN8l-puZSiSUXE7xnEUmRVQbLN3TdlHAc3lHDdYRVR2c9CkGHZnUwWJmQ6jFsVFNp9wgTjmXT4smPzgX0vERx0a2G7E26KtsZZ82XZRd6E0oY2Hg5m5X8N3iWptfsCO2OTxyJVZZ6PmCVHud_QtnBExi9eRLHCTIqkWpMg2NGYFZ_Mr38ssQ7OofEu_AAZFv_bUHCA9XR1qAgRQkjXWy7sI2GuzIcR0h_Y0CKMnWTwXIMqeI3BAFSH6VkHJMxbr0Zyaxa4g2FOYZadYOJoVCrGHfAgC7GA1waqwTlT_uJCHEhcZhBAGZYUJbbIU9j0zn0ycFStMdTafUAApNW-6fx5xFSPIa0HeuYu4VC87zr2hrM3sXTzne1sW_gW9wC7dis0X7bfMS_yxjFIl1UXOX0NoqUGqPRFHW6zVYvGqs7GEOXmJUOyrch5N]--></g></svg>