<?xml version="1.0" encoding="UTF-8" standalone="no"?><svg xmlns="http://www.w3.org/2000/svg" xmlns:xlink="http://www.w3.org/1999/xlink" contentScriptType="application/ecmascript" contentStyleType="text/css" height="482px" preserveAspectRatio="none" style="width:679px;height:482px;background:#FEFEFE;" version="1.1" viewBox="0 0 679 482" width="679px" zoomAndPan="magnify"><defs/><g><text fill="#000000" font-family="Segoe UI" font-size="18" lengthAdjust="spacingAndGlyphs" textLength="297" x="186.75" y="41.3486">GET /trips/{trip_id}/requirements</text><text fill="#000000" font-family="Segoe UI" font-size="18" lengthAdjust="spacingAndGlyphs" textLength="194" x="238.25" y="62.3018">Get trip requirements</text><rect fill="#2563EB" height="188.7969" style="stroke: #6B7280; stroke-width: 1.0;" width="10" x="263.5" y="202.1094"/><rect fill="#2563EB" height="130.5313" style="stroke: #6B7280; stroke-width: 1.0;" width="10" x="382" y="231.2422"/><rect fill="#FEF9C3" height="29.1328" style="stroke: #6B7280; stroke-width: 1.0;" width="10" x="614" y="303.5078"/><line style="stroke: #6B7280; stroke-width: 1.0; stroke-dasharray: 5.0,5.0;" x1="34" x2="34" y1="135.8438" y2="408.9063"/><line style="stroke: #6B7280; stroke-width: 1.0; stroke-dasharray: 5.0,5.0;" x1="268.5" x2="268.5" y1="135.8438" y2="408.9063"/><line style="stroke: #6B7280; stroke-width: 1.0; stroke-dasharray: 5.0,5.0;" x1="386.5" x2="386.5" y1="135.8438" y2="408.9063"/><line style="stroke: #6B7280; stroke-width: 1.0; stroke-dasharray: 5.0,5.0;" x1="618.5" x2="618.5" y1="135.8438" y2="408.9063"/><a href="/applications/" target="_top" title="/applications/" xlink:actuate="onRequest" xlink:href="/applications/" xlink:show="new" xlink:title="/applications/" xlink:type="simple"><rect fill="#F9FAFB" height="30.2969" style="stroke: #374151; stroke-width: 1.5;" width="53" x="8" y="104.5469"/><text fill="#000000" font-family="Segoe UI" font-size="14" lengthAdjust="spacingAndGlyphs" textLength="39" x="15" y="124.542">Client</text><rect fill="#F9FAFB" height="30.2969" style="stroke: #374151; stroke-width: 1.5;" width="53" x="8" y="407.9063"/><text fill="#000000" font-family="Segoe UI" font-size="14" lengthAdjust="spacingAndGlyphs" textLength="39" x="15" y="427.9014">Client</text></a><a href="/actors/#api-gateway" target="_top" title="/actors/#api-gateway" xlink:actuate="onRequest" xlink:href="/actors/#api-gateway" xlink:show="new" xlink:title="/actors/#api-gateway" xlink:type="simple"><rect fill="#E0F2FE" height="30.2969" style="stroke: #374151; stroke-width: 1.5;" width="98" x="219.5" y="104.5469"/><text fill="#000000" font-family="Segoe UI" font-size="14" lengthAdjust="spacingAndGlyphs" textLength="84" x="226.5" y="124.542">API Gateway</text><rect fill="#E0F2FE" height="30.2969" style="stroke: #374151; stroke-width: 1.5;" width="98" x="219.5" y="407.9063"/><text fill="#000000" font-family="Segoe UI" font-size="14" lengthAdjust="spacingAndGlyphs" textLength="84" x="226.5" y="427.9014">API Gateway</text></a><a href="/microservices/svc-trip-catalog/" target="_top" title="/microservices/svc-trip-catalog/" xlink:actuate="onRequest" xlink:href="/microservices/svc-trip-catalog/" xlink:show="new" xlink:title="/microservices/svc-trip-catalog/" xlink:type="simple"><rect fill="#FEF3C7" height="30.2969" style="stroke: #374151; stroke-width: 1.5;" width="119" x="327.5" y="104.5469"/><text fill="#000000" font-family="Segoe UI" font-size="14" lengthAdjust="spacingAndGlyphs" textLength="105" x="334.5" y="124.542">svc-trip-catalog</text><rect fill="#FEF3C7" height="30.2969" style="stroke: #374151; stroke-width: 1.5;" width="119" x="327.5" y="407.9063"/><text fill="#000000" font-family="Segoe UI" font-size="14" lengthAdjust="spacingAndGlyphs" textLength="105" x="334.5" y="427.9014">svc-trip-catalog</text></a><a href="/microservices/svc-trip-catalog/#data-store" target="_top" title="/microservices/svc-trip-catalog/#data-store" xlink:actuate="onRequest" xlink:href="/microservices/svc-trip-catalog/#data-store" xlink:show="new" xlink:title="/microservices/svc-trip-catalog/#data-store" xlink:type="simple"><text fill="#000000" font-family="Segoe UI" font-size="14" lengthAdjust="spacingAndGlyphs" textLength="81" x="575.5" y="132.542">PostgreSQL</text><path d="M601,83.5469 C601,73.5469 619,73.5469 619,73.5469 C619,73.5469 637,73.5469 637,83.5469 L637,109.5469 C637,119.5469 619,119.5469 619,119.5469 C619,119.5469 601,119.5469 601,109.5469 L601,83.5469 " fill="#FEF9C3" style="stroke: #000000; stroke-width: 1.5;"/><path d="M601,83.5469 C601,93.5469 619,93.5469 619,93.5469 C619,93.5469 637,93.5469 637,83.5469 " fill="none" style="stroke: #000000; stroke-width: 1.5;"/><text fill="#000000" font-family="Segoe UI" font-size="14" lengthAdjust="spacingAndGlyphs" textLength="81" x="575.5" y="420.9014">PostgreSQL</text><path d="M601,434.2031 C601,424.2031 619,424.2031 619,424.2031 C619,424.2031 637,424.2031 637,434.2031 L637,460.2031 C637,470.2031 619,470.2031 619,470.2031 C619,470.2031 601,470.2031 601,460.2031 L601,434.2031 " fill="#FEF9C3" style="stroke: #000000; stroke-width: 1.5;"/><path d="M601,434.2031 C601,444.2031 619,444.2031 619,444.2031 C619,444.2031 637,444.2031 637,434.2031 " fill="none" style="stroke: #000000; stroke-width: 1.5;"/></a><rect fill="#2563EB" height="188.7969" style="stroke: #6B7280; stroke-width: 1.0;" width="10" x="263.5" y="202.1094"/><rect fill="#2563EB" height="130.5313" style="stroke: #6B7280; stroke-width: 1.0;" width="10" x="382" y="231.2422"/><rect fill="#FEF9C3" height="29.1328" style="stroke: #6B7280; stroke-width: 1.0;" width="10" x="614" y="303.5078"/><path d="M316,150.8438 L316,175.8438 L457,175.8438 L457,160.8438 L447,150.8438 L316,150.8438 " fill="#FBFB77" style="stroke: #A80036; stroke-width: 1.0;"/><path d="M447,150.8438 L447,160.8438 L457,160.8438 L447,150.8438 " fill="#FBFB77" style="stroke: #A80036; stroke-width: 1.0;"/><a href="/services/api/svc-trip-catalog.html#/Requirements/getTripRequirements" target="_top" title="/services/api/svc-trip-catalog.html#/Requirements/getTripRequirements" xlink:actuate="onRequest" xlink:href="/services/api/svc-trip-catalog.html#/Requirements/getTripRequirements" xlink:show="new" xlink:title="/services/api/svc-trip-catalog.html#/Requirements/getTripRequirements" xlink:type="simple"><text fill="#0000FF" font-family="Segoe UI" font-size="13" lengthAdjust="spacingAndGlyphs" text-decoration="underline" textLength="120" x="322" y="167.9106">View in Swagger UI</text></a><polygon fill="#2563EB" points="251.5,198.1094,261.5,202.1094,251.5,206.1094,255.5,202.1094" style="stroke: #2563EB; stroke-width: 1.0;"/><line style="stroke: #2563EB; stroke-width: 1.0;" x1="34.5" x2="257.5" y1="202.1094" y2="202.1094"/><text fill="#000000" font-family="Segoe UI" font-size="13" lengthAdjust="spacingAndGlyphs" textLength="210" x="41.5" y="197.0435">GET /trips/{trip_id}/requirements</text><polygon fill="#2563EB" points="370,227.2422,380,231.2422,370,235.2422,374,231.2422" style="stroke: #2563EB; stroke-width: 1.0;"/><line style="stroke: #2563EB; stroke-width: 1.0;" x1="273.5" x2="376" y1="231.2422" y2="231.2422"/><text fill="#000000" font-family="Segoe UI" font-size="13" lengthAdjust="spacingAndGlyphs" textLength="87" x="280.5" y="226.1763">route request</text><rect fill="#EEEEEE" height="3" style="stroke: #EEEEEE; stroke-width: 1.0;" width="664.5" x="3" y="259.8086"/><line style="stroke: #000000; stroke-width: 1.0;" x1="3" x2="667.5" y1="259.8086" y2="259.8086"/><line style="stroke: #000000; stroke-width: 1.0;" x1="3" x2="667.5" y1="262.8086" y2="262.8086"/><rect fill="#EEEEEE" height="23.1328" style="stroke: #000000; stroke-width: 2.0;" width="90" x="290.25" y="249.2422"/><text fill="#000000" font-family="Segoe UI" font-size="13" font-weight="bold" lengthAdjust="spacingAndGlyphs" textLength="71" x="296.25" y="265.3091">Database</text><polygon fill="#2563EB" points="602,299.5078,612,303.5078,602,307.5078,606,303.5078" style="stroke: #2563EB; stroke-width: 1.0;"/><line style="stroke: #2563EB; stroke-width: 1.0;" x1="392" x2="608" y1="303.5078" y2="303.5078"/><text fill="#000000" font-family="Segoe UI" font-size="13" lengthAdjust="spacingAndGlyphs" textLength="203" x="399" y="298.4419">SELECT ... WHERE parent_id = ?</text><polygon fill="#2563EB" points="403,328.6406,393,332.6406,403,336.6406,399,332.6406" style="stroke: #2563EB; stroke-width: 1.0;"/><line style="stroke: #2563EB; stroke-width: 1.0; stroke-dasharray: 2.0,2.0;" x1="397" x2="618" y1="332.6406" y2="332.6406"/><text fill="#000000" font-family="Segoe UI" font-size="13" lengthAdjust="spacingAndGlyphs" textLength="61" x="409" y="327.5747">ResultSet</text><polygon fill="#2563EB" points="284.5,357.7734,274.5,361.7734,284.5,365.7734,280.5,361.7734" style="stroke: #2563EB; stroke-width: 1.0;"/><line style="stroke: #2563EB; stroke-width: 1.0; stroke-dasharray: 2.0,2.0;" x1="278.5" x2="386" y1="361.7734" y2="361.7734"/><text fill="#000000" font-family="Segoe UI" font-size="13" lengthAdjust="spacingAndGlyphs" textLength="46" x="290.5" y="356.7075">200 OK</text><polygon fill="#2563EB" points="45.5,386.9063,35.5,390.9063,45.5,394.9063,41.5,390.9063" style="stroke: #2563EB; stroke-width: 1.0;"/><line style="stroke: #2563EB; stroke-width: 1.0; stroke-dasharray: 2.0,2.0;" x1="39.5" x2="267.5" y1="390.9063" y2="390.9063"/><text fill="#000000" font-family="Segoe UI" font-size="13" lengthAdjust="spacingAndGlyphs" textLength="46" x="51.5" y="385.8403">200 OK</text><a href="/microservices/svc-trip-catalog/#integration-context" target="_top" title="/microservices/svc-trip-catalog/#integration-context" xlink:actuate="onRequest" xlink:href="/microservices/svc-trip-catalog/#integration-context" xlink:show="new" xlink:title="/microservices/svc-trip-catalog/#integration-context" xlink:type="simple"><text fill="#0000FF" font-family="Segoe UI" font-size="10" lengthAdjust="spacingAndGlyphs" text-decoration="underline" textLength="185" x="482.5" y="12.2822">⬆ svc-trip-catalog Integration Context</text></a><!--MD5=[ab4187f15a13126da91ddc387373af3c]
@startuml svc-trip-catalog- -get-trips-trip_id-requirements

skinparam backgroundColor #FEFEFE
skinparam shadowing false
skinparam defaultFontName "Segoe UI"
skinparam sequence {
    ArrowColor #2563eb
    ParticipantBorderColor #374151
    ParticipantBackgroundColor #F9FAFB
    LifeLineBorderColor #6B7280
    BoxBorderColor #94A3B8
    BoxBackgroundColor #F8FAFC
    NoteBorderColor #64748B
    NoteBackgroundColor #F8FAFC
}

header [[/microservices/svc-trip-catalog/#integration-context ⬆ svc-trip-catalog Integration Context]]

title GET /trips/{trip_id}/requirements\nGet trip requirements

participant "Client" as Client [[/applications/]]
participant "API Gateway" as GW [[/actors/#api-gateway]] #E0F2FE
participant "svc-trip-catalog" as Svc [[/microservices/svc-trip-catalog/]] #FEF3C7
database "PostgreSQL" as DB [[/microservices/svc-trip-catalog/#data-store]] #FEF9C3

note over Svc
  [[/services/api/svc-trip-catalog.html#/Requirements/getTripRequirements View in Swagger UI]]
end note

Client -> GW : GET /trips/{trip_id}/requirements
activate GW #2563eb
GW -> Svc : route request
activate Svc #2563eb

== Database ==

Svc -> DB : SELECT ... WHERE parent_id = ?
activate DB #FEF9C3
DB - -> Svc : ResultSet
deactivate DB

Svc - -> GW : 200 OK
deactivate Svc
GW - -> Client : 200 OK
deactivate GW

@enduml

PlantUML version 1.2020.02(Sun Mar 01 10:22:07 UTC 2020)
(GPL source distribution)
Java Runtime: OpenJDK Runtime Environment
JVM: OpenJDK 64-Bit Server VM
Java Version: 17.0.18+8
Operating System: Linux
Default Encoding: UTF-8
Language: en
Country: null
--></g></svg>