<?xml version="1.0" encoding="UTF-8" standalone="no"?><svg xmlns="http://www.w3.org/2000/svg" xmlns:xlink="http://www.w3.org/1999/xlink" contentScriptType="application/ecmascript" contentStyleType="text/css" height="749px" preserveAspectRatio="none" style="width:874px;height:749px;background:#FEFEFE;" version="1.1" viewBox="0 0 874 749" width="874px" zoomAndPan="magnify"><defs/><g><text fill="#000000" font-family="Segoe UI" font-size="18" lengthAdjust="spacingAndGlyphs" textLength="146" x="359.75" y="41.3486">POST /payments</text><text fill="#000000" font-family="Segoe UI" font-size="18" lengthAdjust="spacingAndGlyphs" textLength="166" x="349.75" y="62.3018">Process a payment</text><rect fill="#059669" height="455.8594" style="stroke: #6B7280; stroke-width: 1.0;" width="10" x="159.5" y="202.1094"/><rect fill="#059669" height="397.5938" style="stroke: #6B7280; stroke-width: 1.0;" width="10" x="275.5" y="231.2422"/><rect fill="#F3F4F6" height="29.1328" style="stroke: #6B7280; stroke-width: 1.0;" width="10" x="425.5" y="338.6406"/><rect fill="#F3F4F6" height="29.1328" style="stroke: #6B7280; stroke-width: 1.0;" width="10" x="579" y="396.9063"/><rect fill="#FEF9C3" height="29.1328" style="stroke: #6B7280; stroke-width: 1.0;" width="10" x="809" y="498.3047"/><line style="stroke: #6B7280; stroke-width: 1.0; stroke-dasharray: 5.0,5.0;" x1="34" x2="34" y1="135.8438" y2="675.9688"/><line style="stroke: #6B7280; stroke-width: 1.0; stroke-dasharray: 5.0,5.0;" x1="164.5" x2="164.5" y1="135.8438" y2="675.9688"/><line style="stroke: #6B7280; stroke-width: 1.0; stroke-dasharray: 5.0,5.0;" x1="280.5" x2="280.5" y1="135.8438" y2="675.9688"/><line style="stroke: #6B7280; stroke-width: 1.0; stroke-dasharray: 5.0,5.0;" x1="430.5" x2="430.5" y1="135.8438" y2="675.9688"/><line style="stroke: #6B7280; stroke-width: 1.0; stroke-dasharray: 5.0,5.0;" x1="583.5" x2="583.5" y1="135.8438" y2="675.9688"/><line style="stroke: #6B7280; stroke-width: 1.0; stroke-dasharray: 5.0,5.0;" x1="711.5" x2="711.5" y1="135.8438" y2="675.9688"/><line style="stroke: #6B7280; stroke-width: 1.0; stroke-dasharray: 5.0,5.0;" x1="813.5" x2="813.5" y1="135.8438" y2="675.9688"/><a href="/applications/" target="_top" title="/applications/" xlink:actuate="onRequest" xlink:href="/applications/" xlink:show="new" xlink:title="/applications/" xlink:type="simple"><rect fill="#F9FAFB" height="30.2969" style="stroke: #374151; stroke-width: 1.5;" width="53" x="8" y="104.5469"/><text fill="#000000" font-family="Segoe UI" font-size="14" lengthAdjust="spacingAndGlyphs" textLength="39" x="15" y="124.542">Client</text><rect fill="#F9FAFB" height="30.2969" style="stroke: #374151; stroke-width: 1.5;" width="53" x="8" y="674.9688"/><text fill="#000000" font-family="Segoe UI" font-size="14" lengthAdjust="spacingAndGlyphs" textLength="39" x="15" y="694.9639">Client</text></a><a href="/actors/#api-gateway" target="_top" title="/actors/#api-gateway" xlink:actuate="onRequest" xlink:href="/actors/#api-gateway" xlink:show="new" xlink:title="/actors/#api-gateway" xlink:type="simple"><rect fill="#E0F2FE" height="30.2969" style="stroke: #374151; stroke-width: 1.5;" width="98" x="115.5" y="104.5469"/><text fill="#000000" font-family="Segoe UI" font-size="14" lengthAdjust="spacingAndGlyphs" textLength="84" x="122.5" y="124.542">API Gateway</text><rect fill="#E0F2FE" height="30.2969" style="stroke: #374151; stroke-width: 1.5;" width="98" x="115.5" y="674.9688"/><text fill="#000000" font-family="Segoe UI" font-size="14" lengthAdjust="spacingAndGlyphs" textLength="84" x="122.5" y="694.9639">API Gateway</text></a><a href="/microservices/svc-payments/" target="_top" title="/microservices/svc-payments/" xlink:actuate="onRequest" xlink:href="/microservices/svc-payments/" xlink:show="new" xlink:title="/microservices/svc-payments/" xlink:type="simple"><rect fill="#FEE2E2" height="30.2969" style="stroke: #374151; stroke-width: 1.5;" width="110" x="225.5" y="104.5469"/><text fill="#000000" font-family="Segoe UI" font-size="14" lengthAdjust="spacingAndGlyphs" textLength="96" x="232.5" y="124.542">svc-payments</text><rect fill="#FEE2E2" height="30.2969" style="stroke: #374151; stroke-width: 1.5;" width="110" x="225.5" y="674.9688"/><text fill="#000000" font-family="Segoe UI" font-size="14" lengthAdjust="spacingAndGlyphs" textLength="96" x="232.5" y="694.9639">svc-payments</text></a><a href="/actors/#fraud-detection-api" target="_top" title="/actors/#fraud-detection-api" xlink:actuate="onRequest" xlink:href="/actors/#fraud-detection-api" xlink:show="new" xlink:title="/actors/#fraud-detection-api" xlink:type="simple"><rect fill="#FEE2E2" height="30.2969" style="stroke: #374151; stroke-width: 1.5;" width="150" x="355.5" y="104.5469"/><text fill="#000000" font-family="Segoe UI" font-size="14" lengthAdjust="spacingAndGlyphs" textLength="136" x="362.5" y="124.542">Fraud Detection API</text><rect fill="#FEE2E2" height="30.2969" style="stroke: #374151; stroke-width: 1.5;" width="150" x="355.5" y="674.9688"/><text fill="#000000" font-family="Segoe UI" font-size="14" lengthAdjust="spacingAndGlyphs" textLength="136" x="362.5" y="694.9639">Fraud Detection API</text></a><a href="/actors/#payment-gateway" target="_top" title="/actors/#payment-gateway" xlink:actuate="onRequest" xlink:href="/actors/#payment-gateway" xlink:show="new" xlink:title="/actors/#payment-gateway" xlink:type="simple"><rect fill="#FEE2E2" height="30.2969" style="stroke: #374151; stroke-width: 1.5;" width="137" x="515.5" y="104.5469"/><text fill="#000000" font-family="Segoe UI" font-size="14" lengthAdjust="spacingAndGlyphs" textLength="123" x="522.5" y="124.542">Payment Gateway</text><rect fill="#FEE2E2" height="30.2969" style="stroke: #374151; stroke-width: 1.5;" width="137" x="515.5" y="674.9688"/><text fill="#000000" font-family="Segoe UI" font-size="14" lengthAdjust="spacingAndGlyphs" textLength="123" x="522.5" y="694.9639">Payment Gateway</text></a><a href="/microservices/svc-notifications/" target="_top" title="/microservices/svc-notifications/" xlink:actuate="onRequest" xlink:href="/microservices/svc-notifications/" xlink:show="new" xlink:title="/microservices/svc-notifications/" xlink:type="simple"><rect fill="#F1F5F9" height="30.2969" style="stroke: #374151; stroke-width: 1.5;" width="98" x="662.5" y="104.5469"/><text fill="#000000" font-family="Segoe UI" font-size="14" lengthAdjust="spacingAndGlyphs" textLength="84" x="669.5" y="124.542">Notifications</text><rect fill="#F1F5F9" height="30.2969" style="stroke: #374151; stroke-width: 1.5;" width="98" x="662.5" y="674.9688"/><text fill="#000000" font-family="Segoe UI" font-size="14" lengthAdjust="spacingAndGlyphs" textLength="84" x="669.5" y="694.9639">Notifications</text></a><a href="/microservices/svc-payments/#data-store" target="_top" title="/microservices/svc-payments/#data-store" xlink:actuate="onRequest" xlink:href="/microservices/svc-payments/#data-store" xlink:show="new" xlink:title="/microservices/svc-payments/#data-store" xlink:type="simple"><text fill="#000000" font-family="Segoe UI" font-size="14" lengthAdjust="spacingAndGlyphs" textLength="81" x="770.5" y="132.542">PostgreSQL</text><path d="M796,83.5469 C796,73.5469 814,73.5469 814,73.5469 C814,73.5469 832,73.5469 832,83.5469 L832,109.5469 C832,119.5469 814,119.5469 814,119.5469 C814,119.5469 796,119.5469 796,109.5469 L796,83.5469 " fill="#FEF9C3" style="stroke: #000000; stroke-width: 1.5;"/><path d="M796,83.5469 C796,93.5469 814,93.5469 814,93.5469 C814,93.5469 832,93.5469 832,83.5469 " fill="none" style="stroke: #000000; stroke-width: 1.5;"/><text fill="#000000" font-family="Segoe UI" font-size="14" lengthAdjust="spacingAndGlyphs" textLength="81" x="770.5" y="687.9639">PostgreSQL</text><path d="M796,701.2656 C796,691.2656 814,691.2656 814,691.2656 C814,691.2656 832,691.2656 832,701.2656 L832,727.2656 C832,737.2656 814,737.2656 814,737.2656 C814,737.2656 796,737.2656 796,727.2656 L796,701.2656 " fill="#FEF9C3" style="stroke: #000000; stroke-width: 1.5;"/><path d="M796,701.2656 C796,711.2656 814,711.2656 814,711.2656 C814,711.2656 832,711.2656 832,701.2656 " fill="none" style="stroke: #000000; stroke-width: 1.5;"/></a><rect fill="#059669" height="455.8594" style="stroke: #6B7280; stroke-width: 1.0;" width="10" x="159.5" y="202.1094"/><rect fill="#059669" height="397.5938" style="stroke: #6B7280; stroke-width: 1.0;" width="10" x="275.5" y="231.2422"/><rect fill="#F3F4F6" height="29.1328" style="stroke: #6B7280; stroke-width: 1.0;" width="10" x="425.5" y="338.6406"/><rect fill="#F3F4F6" height="29.1328" style="stroke: #6B7280; stroke-width: 1.0;" width="10" x="579" y="396.9063"/><rect fill="#FEF9C3" height="29.1328" style="stroke: #6B7280; stroke-width: 1.0;" width="10" x="809" y="498.3047"/><path d="M210,150.8438 L210,175.8438 L351,175.8438 L351,160.8438 L341,150.8438 L210,150.8438 " fill="#FBFB77" style="stroke: #A80036; stroke-width: 1.0;"/><path d="M341,150.8438 L341,160.8438 L351,160.8438 L341,150.8438 " fill="#FBFB77" style="stroke: #A80036; stroke-width: 1.0;"/><a href="/services/api/svc-payments.html#/Payments/processPayment" target="_top" title="/services/api/svc-payments.html#/Payments/processPayment" xlink:actuate="onRequest" xlink:href="/services/api/svc-payments.html#/Payments/processPayment" xlink:show="new" xlink:title="/services/api/svc-payments.html#/Payments/processPayment" xlink:type="simple"><text fill="#0000FF" font-family="Segoe UI" font-size="13" lengthAdjust="spacingAndGlyphs" text-decoration="underline" textLength="120" x="216" y="167.9106">View in Swagger UI</text></a><polygon fill="#059669" points="147.5,198.1094,157.5,202.1094,147.5,206.1094,151.5,202.1094" style="stroke: #059669; stroke-width: 1.0;"/><line style="stroke: #059669; stroke-width: 1.0;" x1="34.5" x2="153.5" y1="202.1094" y2="202.1094"/><text fill="#000000" font-family="Segoe UI" font-size="13" lengthAdjust="spacingAndGlyphs" textLength="106" x="41.5" y="197.0435">POST /payments</text><polygon fill="#059669" points="263.5,227.2422,273.5,231.2422,263.5,235.2422,267.5,231.2422" style="stroke: #059669; stroke-width: 1.0;"/><line style="stroke: #059669; stroke-width: 1.0;" x1="169.5" x2="269.5" y1="231.2422" y2="231.2422"/><text fill="#000000" font-family="Segoe UI" font-size="13" lengthAdjust="spacingAndGlyphs" textLength="87" x="176.5" y="226.1763">route request</text><path d="M290,244.2422 L290,269.2422 L451,269.2422 L451,254.2422 L441,244.2422 L290,244.2422 " fill="#FBFB77" style="stroke: #A80036; stroke-width: 1.0;"/><path d="M441,244.2422 L441,254.2422 L451,254.2422 L441,244.2422 " fill="#FBFB77" style="stroke: #A80036; stroke-width: 1.0;"/><text fill="#000000" font-family="Segoe UI" font-size="13" lengthAdjust="spacingAndGlyphs" textLength="140" x="296" y="261.3091">Validate request body</text><rect fill="#EEEEEE" height="3" style="stroke: #EEEEEE; stroke-width: 1.0;" width="859.5" x="3" y="294.9414"/><line style="stroke: #000000; stroke-width: 1.0;" x1="3" x2="862.5" y1="294.9414" y2="294.9414"/><line style="stroke: #000000; stroke-width: 1.0;" x1="3" x2="862.5" y1="297.9414" y2="297.9414"/><rect fill="#EEEEEE" height="23.1328" style="stroke: #000000; stroke-width: 2.0;" width="204" x="330.75" y="284.375"/><text fill="#000000" font-family="Segoe UI" font-size="13" font-weight="bold" lengthAdjust="spacingAndGlyphs" textLength="185" x="336.75" y="300.4419">Cross-Service Integration</text><polygon fill="#DC2626" points="413.5,334.6406,423.5,338.6406,413.5,342.6406,417.5,338.6406" style="stroke: #DC2626; stroke-width: 1.0;"/><line style="stroke: #DC2626; stroke-width: 1.0;" x1="285.5" x2="419.5" y1="338.6406" y2="338.6406"/><text fill="#000000" font-family="Segoe UI" font-size="13" lengthAdjust="spacingAndGlyphs" textLength="121" x="292.5" y="333.5747">Screen transaction</text><polygon fill="#DC2626" points="296.5,363.7734,286.5,367.7734,296.5,371.7734,292.5,367.7734" style="stroke: #DC2626; stroke-width: 1.0;"/><line style="stroke: #DC2626; stroke-width: 1.0; stroke-dasharray: 2.0,2.0;" x1="290.5" x2="429.5" y1="367.7734" y2="367.7734"/><text fill="#000000" font-family="Segoe UI" font-size="13" lengthAdjust="spacingAndGlyphs" textLength="18" x="302.5" y="362.7075">OK</text><polygon fill="#DC2626" points="567,392.9063,577,396.9063,567,400.9063,571,396.9063" style="stroke: #DC2626; stroke-width: 1.0;"/><line style="stroke: #DC2626; stroke-width: 1.0;" x1="285.5" x2="573" y1="396.9063" y2="396.9063"/><text fill="#000000" font-family="Segoe UI" font-size="13" lengthAdjust="spacingAndGlyphs" textLength="170" x="292.5" y="391.8403">Tokenize &amp; route payment</text><polygon fill="#DC2626" points="296.5,422.0391,286.5,426.0391,296.5,430.0391,292.5,426.0391" style="stroke: #DC2626; stroke-width: 1.0;"/><line style="stroke: #DC2626; stroke-width: 1.0; stroke-dasharray: 2.0,2.0;" x1="290.5" x2="583" y1="426.0391" y2="426.0391"/><text fill="#000000" font-family="Segoe UI" font-size="13" lengthAdjust="spacingAndGlyphs" textLength="18" x="302.5" y="420.9731">OK</text><rect fill="#EEEEEE" height="3" style="stroke: #EEEEEE; stroke-width: 1.0;" width="859.5" x="3" y="454.6055"/><line style="stroke: #000000; stroke-width: 1.0;" x1="3" x2="862.5" y1="454.6055" y2="454.6055"/><line style="stroke: #000000; stroke-width: 1.0;" x1="3" x2="862.5" y1="457.6055" y2="457.6055"/><rect fill="#EEEEEE" height="23.1328" style="stroke: #000000; stroke-width: 2.0;" width="90" x="387.75" y="444.0391"/><text fill="#000000" font-family="Segoe UI" font-size="13" font-weight="bold" lengthAdjust="spacingAndGlyphs" textLength="71" x="393.75" y="460.106">Database</text><polygon fill="#059669" points="797,494.3047,807,498.3047,797,502.3047,801,498.3047" style="stroke: #059669; stroke-width: 1.0;"/><line style="stroke: #059669; stroke-width: 1.0;" x1="285.5" x2="803" y1="498.3047" y2="498.3047"/><text fill="#000000" font-family="Segoe UI" font-size="13" lengthAdjust="spacingAndGlyphs" textLength="95" x="292.5" y="493.2388">INSERT INTO ...</text><polygon fill="#059669" points="296.5,523.4375,286.5,527.4375,296.5,531.4375,292.5,527.4375" style="stroke: #059669; stroke-width: 1.0;"/><line style="stroke: #059669; stroke-width: 1.0; stroke-dasharray: 2.0,2.0;" x1="290.5" x2="813" y1="527.4375" y2="527.4375"/><text fill="#000000" font-family="Segoe UI" font-size="13" lengthAdjust="spacingAndGlyphs" textLength="77" x="302.5" y="522.3716">Created row</text><rect fill="#EEEEEE" height="3" style="stroke: #EEEEEE; stroke-width: 1.0;" width="859.5" x="3" y="556.0039"/><line style="stroke: #000000; stroke-width: 1.0;" x1="3" x2="862.5" y1="556.0039" y2="556.0039"/><line style="stroke: #000000; stroke-width: 1.0;" x1="3" x2="862.5" y1="559.0039" y2="559.0039"/><rect fill="#EEEEEE" height="23.1328" style="stroke: #000000; stroke-width: 2.0;" width="116" x="374.75" y="545.4375"/><text fill="#000000" font-family="Segoe UI" font-size="13" font-weight="bold" lengthAdjust="spacingAndGlyphs" textLength="97" x="380.75" y="561.5044">Async Events</text><line style="stroke: #059669; stroke-width: 1.0;" x1="709.5" x2="699.5" y1="599.7031" y2="595.7031"/><line style="stroke: #059669; stroke-width: 1.0;" x1="709.5" x2="699.5" y1="599.7031" y2="603.7031"/><line style="stroke: #059669; stroke-width: 1.0;" x1="285.5" x2="710.5" y1="599.7031" y2="599.7031"/><a href="/microservices/svc-notifications/#post-notifications-send-a-notification" target="_top" title="/microservices/svc-notifications/#post-notifications-send-a-notification" xlink:actuate="onRequest" xlink:href="/microservices/svc-notifications/#post-notifications-send-a-notification" xlink:show="new" xlink:title="/microservices/svc-notifications/#post-notifications-send-a-notification" xlink:type="simple"><text fill="#0000FF" font-family="Segoe UI" font-size="13" lengthAdjust="spacingAndGlyphs" text-decoration="underline" textLength="142" x="292.5" y="594.6372">Send payment receipt</text></a><polygon fill="#059669" points="180.5,624.8359,170.5,628.8359,180.5,632.8359,176.5,628.8359" style="stroke: #059669; stroke-width: 1.0;"/><line style="stroke: #059669; stroke-width: 1.0; stroke-dasharray: 2.0,2.0;" x1="174.5" x2="279.5" y1="628.8359" y2="628.8359"/><text fill="#000000" font-family="Segoe UI" font-size="13" lengthAdjust="spacingAndGlyphs" textLength="79" x="186.5" y="623.77">201 Created</text><polygon fill="#059669" points="45.5,653.9688,35.5,657.9688,45.5,661.9688,41.5,657.9688" style="stroke: #059669; stroke-width: 1.0;"/><line style="stroke: #059669; stroke-width: 1.0; stroke-dasharray: 2.0,2.0;" x1="39.5" x2="163.5" y1="657.9688" y2="657.9688"/><text fill="#000000" font-family="Segoe UI" font-size="13" lengthAdjust="spacingAndGlyphs" textLength="79" x="51.5" y="652.9028">201 Created</text><a href="/microservices/svc-payments/#integration-context" target="_top" title="/microservices/svc-payments/#integration-context" xlink:actuate="onRequest" xlink:href="/microservices/svc-payments/#integration-context" xlink:show="new" xlink:title="/microservices/svc-payments/#integration-context" xlink:type="simple"><text fill="#0000FF" font-family="Segoe UI" font-size="10" lengthAdjust="spacingAndGlyphs" text-decoration="underline" textLength="179" x="683.5" y="12.2822">⬆ svc-payments Integration Context</text></a><!--MD5=[8ddfce00da2136e96f1ae32c4878709c]
@startuml svc-payments- -post-payments

skinparam backgroundColor #FEFEFE
skinparam shadowing false
skinparam defaultFontName "Segoe UI"
skinparam sequence {
    ArrowColor #059669
    ParticipantBorderColor #374151
    ParticipantBackgroundColor #F9FAFB
    LifeLineBorderColor #6B7280
    BoxBorderColor #94A3B8
    BoxBackgroundColor #F8FAFC
    NoteBorderColor #64748B
    NoteBackgroundColor #F8FAFC
}

header [[/microservices/svc-payments/#integration-context ⬆ svc-payments Integration Context]]

title POST /payments\nProcess a payment

participant "Client" as Client [[/applications/]]
participant "API Gateway" as GW [[/actors/#api-gateway]] #E0F2FE
participant "svc-payments" as Svc [[/microservices/svc-payments/]] #FEE2E2
participant "Fraud Detection API" as FD [[/actors/#fraud-detection-api]] #FEE2E2
participant "Payment Gateway" as PGW [[/actors/#payment-gateway]] #FEE2E2
participant "Notifications" as Ntfy [[/microservices/svc-notifications/]] #F1F5F9
database "PostgreSQL" as DB [[/microservices/svc-payments/#data-store]] #FEF9C3

note over Svc
  [[/services/api/svc-payments.html#/Payments/processPayment View in Swagger UI]]
end note

Client -> GW : POST /payments
activate GW #059669
GW -> Svc : route request
activate Svc #059669

note right of Svc : Validate request body

== Cross-Service Integration ==

Svc -[#DC2626]> FD : Screen transaction
activate FD #F3F4F6
FD - -[#DC2626]> Svc : OK
deactivate FD

Svc -[#DC2626]> PGW : Tokenize & route payment
activate PGW #F3F4F6
PGW - -[#DC2626]> Svc : OK
deactivate PGW

== Database ==

Svc -> DB : INSERT INTO ...
activate DB #FEF9C3
DB - -> Svc : Created row
deactivate DB

== Async Events ==

Svc ->> Ntfy : [[/microservices/svc-notifications/#post-notifications-send-a-notification Send payment receipt]]

Svc - -> GW : 201 Created
deactivate Svc
GW - -> Client : 201 Created
deactivate GW

@enduml

PlantUML version 1.2020.02(Sun Mar 01 10:22:07 UTC 2020)
(GPL source distribution)
Java Runtime: OpenJDK Runtime Environment
JVM: OpenJDK 64-Bit Server VM
Java Version: 17.0.18+8
Operating System: Linux
Default Encoding: UTF-8
Language: en
Country: null
--></g></svg>