<?xml version="1.0" encoding="UTF-8" standalone="no"?><svg xmlns="http://www.w3.org/2000/svg" xmlns:xlink="http://www.w3.org/1999/xlink" contentScriptType="application/ecmascript" contentStyleType="text/css" height="482px" preserveAspectRatio="none" style="width:705px;height:482px;background:#FEFEFE;" version="1.1" viewBox="0 0 705 482" width="705px" zoomAndPan="magnify"><defs/><g><text fill="#000000" font-family="Segoe UI" font-size="18" lengthAdjust="spacingAndGlyphs" textLength="306" x="195" y="41.3486">GET /members/{guest_id}/balance</text><text fill="#000000" font-family="Segoe UI" font-size="18" lengthAdjust="spacingAndGlyphs" textLength="366" x="165" y="62.3018">Get loyalty member balance and tier info</text><rect fill="#2563EB" height="188.7969" style="stroke: #6B7280; stroke-width: 1.0;" width="10" x="276.5" y="202.1094"/><rect fill="#2563EB" height="130.5313" style="stroke: #6B7280; stroke-width: 1.0;" width="10" x="407.5" y="231.2422"/><rect fill="#FEF9C3" height="29.1328" style="stroke: #6B7280; stroke-width: 1.0;" width="10" x="640.5" y="303.5078"/><line style="stroke: #6B7280; stroke-width: 1.0; stroke-dasharray: 5.0,5.0;" x1="34" x2="34" y1="135.8438" y2="408.9063"/><line style="stroke: #6B7280; stroke-width: 1.0; stroke-dasharray: 5.0,5.0;" x1="281.5" x2="281.5" y1="135.8438" y2="408.9063"/><line style="stroke: #6B7280; stroke-width: 1.0; stroke-dasharray: 5.0,5.0;" x1="412.5" x2="412.5" y1="135.8438" y2="408.9063"/><line style="stroke: #6B7280; stroke-width: 1.0; stroke-dasharray: 5.0,5.0;" x1="645" x2="645" y1="135.8438" y2="408.9063"/><a href="/applications/" target="_top" title="/applications/" xlink:actuate="onRequest" xlink:href="/applications/" xlink:show="new" xlink:title="/applications/" xlink:type="simple"><rect fill="#F9FAFB" height="30.2969" style="stroke: #374151; stroke-width: 1.5;" width="53" x="8" y="104.5469"/><text fill="#000000" font-family="Segoe UI" font-size="14" lengthAdjust="spacingAndGlyphs" textLength="39" x="15" y="124.542">Client</text><rect fill="#F9FAFB" height="30.2969" style="stroke: #374151; stroke-width: 1.5;" width="53" x="8" y="407.9063"/><text fill="#000000" font-family="Segoe UI" font-size="14" lengthAdjust="spacingAndGlyphs" textLength="39" x="15" y="427.9014">Client</text></a><a href="/actors/#api-gateway" target="_top" title="/actors/#api-gateway" xlink:actuate="onRequest" xlink:href="/actors/#api-gateway" xlink:show="new" xlink:title="/actors/#api-gateway" xlink:type="simple"><rect fill="#E0F2FE" height="30.2969" style="stroke: #374151; stroke-width: 1.5;" width="98" x="232.5" y="104.5469"/><text fill="#000000" font-family="Segoe UI" font-size="14" lengthAdjust="spacingAndGlyphs" textLength="84" x="239.5" y="124.542">API Gateway</text><rect fill="#E0F2FE" height="30.2969" style="stroke: #374151; stroke-width: 1.5;" width="98" x="232.5" y="407.9063"/><text fill="#000000" font-family="Segoe UI" font-size="14" lengthAdjust="spacingAndGlyphs" textLength="84" x="239.5" y="427.9014">API Gateway</text></a><a href="/microservices/svc-loyalty-rewards/" target="_top" title="/microservices/svc-loyalty-rewards/" xlink:actuate="onRequest" xlink:href="/microservices/svc-loyalty-rewards/" xlink:show="new" xlink:title="/microservices/svc-loyalty-rewards/" xlink:type="simple"><rect fill="#F1F5F9" height="30.2969" style="stroke: #374151; stroke-width: 1.5;" width="144" x="340.5" y="104.5469"/><text fill="#000000" font-family="Segoe UI" font-size="14" lengthAdjust="spacingAndGlyphs" textLength="130" x="347.5" y="124.542">svc-loyalty-rewards</text><rect fill="#F1F5F9" height="30.2969" style="stroke: #374151; stroke-width: 1.5;" width="144" x="340.5" y="407.9063"/><text fill="#000000" font-family="Segoe UI" font-size="14" lengthAdjust="spacingAndGlyphs" textLength="130" x="347.5" y="427.9014">svc-loyalty-rewards</text></a><a href="/microservices/svc-loyalty-rewards/#data-store" target="_top" title="/microservices/svc-loyalty-rewards/#data-store" xlink:actuate="onRequest" xlink:href="/microservices/svc-loyalty-rewards/#data-store" xlink:show="new" xlink:title="/microservices/svc-loyalty-rewards/#data-store" xlink:type="simple"><text fill="#000000" font-family="Segoe UI" font-size="14" lengthAdjust="spacingAndGlyphs" textLength="79" x="603" y="132.542">Couchbase</text><path d="M627.5,83.5469 C627.5,73.5469 645.5,73.5469 645.5,73.5469 C645.5,73.5469 663.5,73.5469 663.5,83.5469 L663.5,109.5469 C663.5,119.5469 645.5,119.5469 645.5,119.5469 C645.5,119.5469 627.5,119.5469 627.5,109.5469 L627.5,83.5469 " fill="#FEF9C3" style="stroke: #000000; stroke-width: 1.5;"/><path d="M627.5,83.5469 C627.5,93.5469 645.5,93.5469 645.5,93.5469 C645.5,93.5469 663.5,93.5469 663.5,83.5469 " fill="none" style="stroke: #000000; stroke-width: 1.5;"/><text fill="#000000" font-family="Segoe UI" font-size="14" lengthAdjust="spacingAndGlyphs" textLength="79" x="603" y="420.9014">Couchbase</text><path d="M627.5,434.2031 C627.5,424.2031 645.5,424.2031 645.5,424.2031 C645.5,424.2031 663.5,424.2031 663.5,434.2031 L663.5,460.2031 C663.5,470.2031 645.5,470.2031 645.5,470.2031 C645.5,470.2031 627.5,470.2031 627.5,460.2031 L627.5,434.2031 " fill="#FEF9C3" style="stroke: #000000; stroke-width: 1.5;"/><path d="M627.5,434.2031 C627.5,444.2031 645.5,444.2031 645.5,444.2031 C645.5,444.2031 663.5,444.2031 663.5,434.2031 " fill="none" style="stroke: #000000; stroke-width: 1.5;"/></a><rect fill="#2563EB" height="188.7969" style="stroke: #6B7280; stroke-width: 1.0;" width="10" x="276.5" y="202.1094"/><rect fill="#2563EB" height="130.5313" style="stroke: #6B7280; stroke-width: 1.0;" width="10" x="407.5" y="231.2422"/><rect fill="#FEF9C3" height="29.1328" style="stroke: #6B7280; stroke-width: 1.0;" width="10" x="640.5" y="303.5078"/><path d="M342,150.8438 L342,175.8438 L483,175.8438 L483,160.8438 L473,150.8438 L342,150.8438 " fill="#FBFB77" style="stroke: #A80036; stroke-width: 1.0;"/><path d="M473,150.8438 L473,160.8438 L483,160.8438 L473,150.8438 " fill="#FBFB77" style="stroke: #A80036; stroke-width: 1.0;"/><a href="/services/api/svc-loyalty-rewards.html#/Members/getMemberBalance" target="_top" title="/services/api/svc-loyalty-rewards.html#/Members/getMemberBalance" xlink:actuate="onRequest" xlink:href="/services/api/svc-loyalty-rewards.html#/Members/getMemberBalance" xlink:show="new" xlink:title="/services/api/svc-loyalty-rewards.html#/Members/getMemberBalance" xlink:type="simple"><text fill="#0000FF" font-family="Segoe UI" font-size="13" lengthAdjust="spacingAndGlyphs" text-decoration="underline" textLength="120" x="348" y="167.9106">View in Swagger UI</text></a><polygon fill="#2563EB" points="264.5,198.1094,274.5,202.1094,264.5,206.1094,268.5,202.1094" style="stroke: #2563EB; stroke-width: 1.0;"/><line style="stroke: #2563EB; stroke-width: 1.0;" x1="34.5" x2="270.5" y1="202.1094" y2="202.1094"/><text fill="#000000" font-family="Segoe UI" font-size="13" lengthAdjust="spacingAndGlyphs" textLength="223" x="41.5" y="197.0435">GET /members/{guest_id}/balance</text><polygon fill="#2563EB" points="395.5,227.2422,405.5,231.2422,395.5,235.2422,399.5,231.2422" style="stroke: #2563EB; stroke-width: 1.0;"/><line style="stroke: #2563EB; stroke-width: 1.0;" x1="286.5" x2="401.5" y1="231.2422" y2="231.2422"/><text fill="#000000" font-family="Segoe UI" font-size="13" lengthAdjust="spacingAndGlyphs" textLength="87" x="293.5" y="226.1763">route request</text><rect fill="#EEEEEE" height="3" style="stroke: #EEEEEE; stroke-width: 1.0;" width="690" x="3" y="259.8086"/><line style="stroke: #000000; stroke-width: 1.0;" x1="3" x2="693" y1="259.8086" y2="259.8086"/><line style="stroke: #000000; stroke-width: 1.0;" x1="3" x2="693" y1="262.8086" y2="262.8086"/><rect fill="#EEEEEE" height="23.1328" style="stroke: #000000; stroke-width: 2.0;" width="90" x="303" y="249.2422"/><text fill="#000000" font-family="Segoe UI" font-size="13" font-weight="bold" lengthAdjust="spacingAndGlyphs" textLength="71" x="309" y="265.3091">Database</text><polygon fill="#2563EB" points="628.5,299.5078,638.5,303.5078,628.5,307.5078,632.5,303.5078" style="stroke: #2563EB; stroke-width: 1.0;"/><line style="stroke: #2563EB; stroke-width: 1.0;" x1="417.5" x2="634.5" y1="303.5078" y2="303.5078"/><text fill="#000000" font-family="Segoe UI" font-size="13" lengthAdjust="spacingAndGlyphs" textLength="204" x="424.5" y="298.4419">N1QL: SELECT WHERE parent_id</text><polygon fill="#2563EB" points="428.5,328.6406,418.5,332.6406,428.5,336.6406,424.5,332.6406" style="stroke: #2563EB; stroke-width: 1.0;"/><line style="stroke: #2563EB; stroke-width: 1.0; stroke-dasharray: 2.0,2.0;" x1="422.5" x2="644.5" y1="332.6406" y2="332.6406"/><text fill="#000000" font-family="Segoe UI" font-size="13" lengthAdjust="spacingAndGlyphs" textLength="91" x="434.5" y="327.5747">Document set</text><polygon fill="#2563EB" points="297.5,357.7734,287.5,361.7734,297.5,365.7734,293.5,361.7734" style="stroke: #2563EB; stroke-width: 1.0;"/><line style="stroke: #2563EB; stroke-width: 1.0; stroke-dasharray: 2.0,2.0;" x1="291.5" x2="411.5" y1="361.7734" y2="361.7734"/><text fill="#000000" font-family="Segoe UI" font-size="13" lengthAdjust="spacingAndGlyphs" textLength="46" x="303.5" y="356.7075">200 OK</text><polygon fill="#2563EB" points="45.5,386.9063,35.5,390.9063,45.5,394.9063,41.5,390.9063" style="stroke: #2563EB; stroke-width: 1.0;"/><line style="stroke: #2563EB; stroke-width: 1.0; stroke-dasharray: 2.0,2.0;" x1="39.5" x2="280.5" y1="390.9063" y2="390.9063"/><text fill="#000000" font-family="Segoe UI" font-size="13" lengthAdjust="spacingAndGlyphs" textLength="46" x="51.5" y="385.8403">200 OK</text><a href="/microservices/svc-loyalty-rewards/#integration-context" target="_top" title="/microservices/svc-loyalty-rewards/#integration-context" xlink:actuate="onRequest" xlink:href="/microservices/svc-loyalty-rewards/#integration-context" xlink:show="new" xlink:title="/microservices/svc-loyalty-rewards/#integration-context" xlink:type="simple"><text fill="#0000FF" font-family="Segoe UI" font-size="10" lengthAdjust="spacingAndGlyphs" text-decoration="underline" textLength="205" x="488" y="12.2822">⬆ svc-loyalty-rewards Integration Context</text></a><!--MD5=[99ddd45d344f50fb8fd0c39a92eba003]
@startuml svc-loyalty-rewards- -get-members-guest_id-balance

skinparam backgroundColor #FEFEFE
skinparam shadowing false
skinparam defaultFontName "Segoe UI"
skinparam sequence {
    ArrowColor #2563eb
    ParticipantBorderColor #374151
    ParticipantBackgroundColor #F9FAFB
    LifeLineBorderColor #6B7280
    BoxBorderColor #94A3B8
    BoxBackgroundColor #F8FAFC
    NoteBorderColor #64748B
    NoteBackgroundColor #F8FAFC
}

header [[/microservices/svc-loyalty-rewards/#integration-context ⬆ svc-loyalty-rewards Integration Context]]

title GET /members/{guest_id}/balance\nGet loyalty member balance and tier info

participant "Client" as Client [[/applications/]]
participant "API Gateway" as GW [[/actors/#api-gateway]] #E0F2FE
participant "svc-loyalty-rewards" as Svc [[/microservices/svc-loyalty-rewards/]] #F1F5F9
database "Couchbase" as DB [[/microservices/svc-loyalty-rewards/#data-store]] #FEF9C3

note over Svc
  [[/services/api/svc-loyalty-rewards.html#/Members/getMemberBalance View in Swagger UI]]
end note

Client -> GW : GET /members/{guest_id}/balance
activate GW #2563eb
GW -> Svc : route request
activate Svc #2563eb

== Database ==

Svc -> DB : N1QL: SELECT WHERE parent_id
activate DB #FEF9C3
DB - -> Svc : Document set
deactivate DB

Svc - -> GW : 200 OK
deactivate Svc
GW - -> Client : 200 OK
deactivate GW

@enduml

PlantUML version 1.2020.02(Sun Mar 01 10:22:07 UTC 2020)
(GPL source distribution)
Java Runtime: OpenJDK Runtime Environment
JVM: OpenJDK 64-Bit Server VM
Java Version: 17.0.18+8
Operating System: Linux
Default Encoding: UTF-8
Language: en
Country: null
--></g></svg>