<svg xmlns="http://www.w3.org/2000/svg" xmlns:xlink="http://www.w3.org/1999/xlink" contentStyleType="text/css" data-diagram-type="SEQUENCE" height="487px" preserveAspectRatio="none" style="width:532px;height:487px;background:#FEFEFE;" version="1.1" viewBox="0 0 532 487" width="532px" zoomAndPan="magnify"><title>GET /analytics/revenue</title><defs/><g><rect fill="#FEFEFE" height="487" style="stroke:none;stroke-width:1;" width="532" x="0" y="0"/><text fill="#000000" font-family="Segoe UI" font-size="14" font-weight="bold" lengthAdjust="spacing" textLength="170.584" x="176.7173" y="41.3125">GET /analytics/revenue</text><text fill="#000000" font-family="Segoe UI" font-size="14" font-weight="bold" lengthAdjust="spacing" textLength="244.9727" x="139.5229" y="57.8008">Get revenue analytics for a period</text><g><title>API Gateway</title><rect fill="#2563EB" height="189.8633" style="stroke:#A23B72;stroke-width:1;" width="10" x="197.9546" y="200.8633"/></g><g><title>svc-analytics</title><rect fill="#2563EB" height="131.2422" style="stroke:#A23B72;stroke-width:1;" width="10" x="312.0894" y="230.1738"/></g><g><title>Oracle</title><rect fill="#FCE4EC" height="29.3105" style="stroke:#A23B72;stroke-width:1;" width="10" x="490.3418" y="302.7949"/></g><g><title>Client</title><rect fill="#000000" fill-opacity="0.00000" height="274.4844" width="8" x="27.7524" y="134.2422"/><line style="stroke:#A23B72;stroke-width:0.5;stroke-dasharray:5,5;" x1="31" x2="31" y1="134.2422" y2="408.7266"/></g><g><title>API Gateway</title><rect fill="#000000" fill-opacity="0.00000" height="274.4844" width="8" x="198.9546" y="134.2422"/><line style="stroke:#A23B72;stroke-width:0.5;stroke-dasharray:5,5;" x1="202.6655" x2="202.6655" y1="134.2422" y2="408.7266"/></g><g><title>svc-analytics</title><rect fill="#000000" fill-opacity="0.00000" height="274.4844" width="8" x="313.0894" y="134.2422"/><line style="stroke:#A23B72;stroke-width:0.5;stroke-dasharray:5,5;" x1="316.7104" x2="316.7104" y1="134.2422" y2="408.7266"/></g><g><title>Oracle</title><rect fill="#000000" fill-opacity="0.00000" height="274.4844" width="8" x="491.3418" y="134.2422"/><line style="stroke:#A23B72;stroke-width:0.5;stroke-dasharray:5,5;" x1="494.665" x2="494.665" y1="134.2422" y2="408.7266"/></g><g class="participant participant-head" data-participant="Client"><a href="/applications/" target="_top" title="/applications/" xlink:actuate="onRequest" xlink:href="/applications/" xlink:show="new" xlink:title="/applications/" xlink:type="simple"><rect fill="#E8F4F8" height="30.4883" rx="2.5" ry="2.5" style="stroke:#2E86AB;stroke-width:0.5;" width="53.5049" x="5" y="102.7539"/><text fill="#000000" font-family="Segoe UI" font-size="14" lengthAdjust="spacing" textLength="39.5049" x="12" y="123.2891">Client</text></a></g><g class="participant participant-tail" data-participant="Client"><a href="/applications/" target="_top" title="/applications/" xlink:actuate="onRequest" xlink:href="/applications/" xlink:show="new" xlink:title="/applications/" xlink:type="simple"><rect fill="#E8F4F8" height="30.4883" rx="2.5" ry="2.5" style="stroke:#2E86AB;stroke-width:0.5;" width="53.5049" x="5" y="407.7266"/><text fill="#000000" font-family="Segoe UI" font-size="14" lengthAdjust="spacing" textLength="39.5049" x="12" y="428.2617">Client</text></a></g><g class="participant participant-head" data-participant="GW"><rect fill="#DBEAFE" height="30.4883" rx="2.5" ry="2.5" style="stroke:#2E86AB;stroke-width:0.5;" width="96.5781" x="154.6655" y="102.7539"/><text fill="#000000" font-family="Segoe UI" font-size="14" lengthAdjust="spacing" textLength="82.5781" x="161.6655" y="123.2891">API Gateway</text></g><g class="participant participant-tail" data-participant="GW"><rect fill="#DBEAFE" height="30.4883" rx="2.5" ry="2.5" style="stroke:#2E86AB;stroke-width:0.5;" width="96.5781" x="154.6655" y="407.7266"/><text fill="#000000" font-family="Segoe UI" font-size="14" lengthAdjust="spacing" textLength="82.5781" x="161.6655" y="428.2617">API Gateway</text></g><g class="participant participant-head" data-participant="Svc"><a href="/microservices/svc-analytics/" target="_top" title="/microservices/svc-analytics/" xlink:actuate="onRequest" xlink:href="/microservices/svc-analytics/" xlink:show="new" xlink:title="/microservices/svc-analytics/" xlink:type="simple"><rect fill="#E8F4F8" height="30.4883" rx="2.5" ry="2.5" style="stroke:#2E86AB;stroke-width:0.5;" width="102.7578" x="265.7104" y="102.7539"/><text fill="#000000" font-family="Segoe UI" font-size="14" lengthAdjust="spacing" textLength="88.7578" x="272.7104" y="123.2891">svc-analytics</text></a></g><g class="participant participant-tail" data-participant="Svc"><a href="/microservices/svc-analytics/" target="_top" title="/microservices/svc-analytics/" xlink:actuate="onRequest" xlink:href="/microservices/svc-analytics/" xlink:show="new" xlink:title="/microservices/svc-analytics/" xlink:type="simple"><rect fill="#E8F4F8" height="30.4883" rx="2.5" ry="2.5" style="stroke:#2E86AB;stroke-width:0.5;" width="102.7578" x="265.7104" y="407.7266"/><text fill="#000000" font-family="Segoe UI" font-size="14" lengthAdjust="spacing" textLength="88.7578" x="272.7104" y="428.2617">svc-analytics</text></a></g><g class="participant participant-head" data-participant="DB"><text fill="#000000" font-family="Segoe UI" font-size="14" lengthAdjust="spacing" textLength="43.3535" x="470.665" y="131.2891">Oracle</text><path d="M477.3418,81.7539 C477.3418,71.7539 495.3418,71.7539 495.3418,71.7539 C495.3418,71.7539 513.3418,71.7539 513.3418,81.7539 L513.3418,107.7539 C513.3418,117.7539 495.3418,117.7539 495.3418,117.7539 C495.3418,117.7539 477.3418,117.7539 477.3418,107.7539 L477.3418,81.7539" fill="#FCE4EC" style="stroke:#181818;stroke-width:0.5;"/><path d="M477.3418,81.7539 C477.3418,91.7539 495.3418,91.7539 495.3418,91.7539 C495.3418,91.7539 513.3418,91.7539 513.3418,81.7539" fill="none" style="stroke:#181818;stroke-width:0.5;"/></g><g class="participant participant-tail" data-participant="DB"><text fill="#000000" font-family="Segoe UI" font-size="14" lengthAdjust="spacing" textLength="43.3535" x="470.665" y="421.2617">Oracle</text><path d="M477.3418,434.2148 C477.3418,424.2148 495.3418,424.2148 495.3418,424.2148 C495.3418,424.2148 513.3418,424.2148 513.3418,434.2148 L513.3418,460.2148 C513.3418,470.2148 495.3418,470.2148 495.3418,470.2148 C495.3418,470.2148 477.3418,470.2148 477.3418,460.2148 L477.3418,434.2148" fill="#FCE4EC" style="stroke:#181818;stroke-width:0.5;"/><path d="M477.3418,434.2148 C477.3418,444.2148 495.3418,444.2148 495.3418,444.2148 C495.3418,444.2148 513.3418,444.2148 513.3418,434.2148" fill="none" style="stroke:#181818;stroke-width:0.5;"/></g><g><title>API Gateway</title><rect fill="#2563EB" height="189.8633" style="stroke:#A23B72;stroke-width:1;" width="10" x="197.9546" y="200.8633"/></g><g><title>svc-analytics</title><rect fill="#2563EB" height="131.2422" style="stroke:#A23B72;stroke-width:1;" width="10" x="312.0894" y="230.1738"/></g><g><title>Oracle</title><rect fill="#FCE4EC" height="29.3105" style="stroke:#A23B72;stroke-width:1;" width="10" x="490.3418" y="302.7949"/></g><path d="M246,149.2422 L246,174.2422 L386,174.2422 L386,159.2422 L376,149.2422 L246,149.2422" fill="#FEFFDD" style="stroke:#181818;stroke-width:0.5;"/><path d="M376,149.2422 L376,159.2422 L386,159.2422 L376,149.2422" fill="#FEFFDD" style="stroke:#181818;stroke-width:0.5;"/><a href="/services/api/svc-analytics.html#/Revenue/getRevenueAnalytics" target="_top" title="/services/api/svc-analytics.html#/Revenue/getRevenueAnalytics" xlink:actuate="onRequest" xlink:href="/services/api/svc-analytics.html#/Revenue/getRevenueAnalytics" xlink:show="new" xlink:title="/services/api/svc-analytics.html#/Revenue/getRevenueAnalytics" xlink:type="simple"><text fill="#0000FF" font-family="Segoe UI" font-size="13" lengthAdjust="spacing" text-decoration="underline" textLength="119.4058" x="252" y="166.8105">View in Swagger UI</text></a><g class="message" data-participant-1="Client" data-participant-2="GW"><polygon fill="#2563EB" points="185.9546,196.8633,195.9546,200.8633,185.9546,204.8633,189.9546,200.8633" style="stroke:#2563EB;stroke-width:1;"/><line style="stroke:#2563EB;stroke-width:1;" x1="31.7524" x2="191.9546" y1="200.8633" y2="200.8633"/><text fill="#000000" font-family="Segoe UI" font-size="13" lengthAdjust="spacing" textLength="147.2021" x="38.7524" y="196.1211">GET /analytics/revenue</text></g><g class="message" data-participant-1="GW" data-participant-2="Svc"><polygon fill="#2563EB" points="300.0894,226.1738,310.0894,230.1738,300.0894,234.1738,304.0894,230.1738" style="stroke:#2563EB;stroke-width:1;"/><line style="stroke:#2563EB;stroke-width:1;" x1="207.9546" x2="306.0894" y1="230.1738" y2="230.1738"/><text fill="#000000" font-family="Segoe UI" font-size="13" lengthAdjust="spacing" textLength="85.1348" x="214.9546" y="225.4316">route request</text></g><rect fill="#EEEEEE" height="3" style="stroke:#EEEEEE;stroke-width:1;" width="525.0186" x="0" y="258.8291"/><line style="stroke:#000000;stroke-width:1;" x1="0" x2="525.0186" y1="258.8291" y2="258.8291"/><line style="stroke:#000000;stroke-width:1;" x1="0" x2="525.0186" y1="261.8291" y2="261.8291"/><rect fill="#EEEEEE" height="23.3105" style="stroke:#000000;stroke-width:2;" width="80.3711" x="222.3237" y="248.1738"/><text fill="#000000" font-family="Segoe UI" font-size="13" font-weight="bold" lengthAdjust="spacing" textLength="62.0864" x="228.3237" y="264.7422">Database</text><g class="message" data-participant-1="Svc" data-participant-2="DB"><polygon fill="#2563EB" points="478.3418,298.7949,488.3418,302.7949,478.3418,306.7949,482.3418,302.7949" style="stroke:#2563EB;stroke-width:1;"/><line style="stroke:#2563EB;stroke-width:1;" x1="322.0894" x2="484.3418" y1="302.7949" y2="302.7949"/><text fill="#000000" font-family="Segoe UI" font-size="13" lengthAdjust="spacing" textLength="149.2524" x="329.0894" y="298.0527">SELECT ... WHERE filters</text></g><g class="message" data-participant-1="DB" data-participant-2="Svc"><polygon fill="#2563EB" points="333.0894,328.1055,323.0894,332.1055,333.0894,336.1055,329.0894,332.1055" style="stroke:#2563EB;stroke-width:1;"/><line style="stroke:#2563EB;stroke-width:1;stroke-dasharray:2,2;" x1="327.0894" x2="494.3418" y1="332.1055" y2="332.1055"/><text fill="#000000" font-family="Segoe UI" font-size="13" lengthAdjust="spacing" textLength="93.209" x="339.0894" y="327.3633">Page of results</text></g><g class="message" data-participant-1="Svc" data-participant-2="GW"><polygon fill="#2563EB" points="218.9546,357.416,208.9546,361.416,218.9546,365.416,214.9546,361.416" style="stroke:#2563EB;stroke-width:1;"/><line style="stroke:#2563EB;stroke-width:1;stroke-dasharray:2,2;" x1="212.9546" x2="316.0894" y1="361.416" y2="361.416"/><text fill="#000000" font-family="Segoe UI" font-size="13" lengthAdjust="spacing" textLength="47.3599" x="224.9546" y="356.6738">200 OK</text></g><g class="message" data-participant-1="GW" data-participant-2="Client"><polygon fill="#2563EB" points="42.7524,386.7266,32.7524,390.7266,42.7524,394.7266,38.7524,390.7266" style="stroke:#2563EB;stroke-width:1;"/><line style="stroke:#2563EB;stroke-width:1;stroke-dasharray:2,2;" x1="36.7524" x2="201.9546" y1="390.7266" y2="390.7266"/><text fill="#000000" font-family="Segoe UI" font-size="13" lengthAdjust="spacing" textLength="47.3599" x="48.7524" y="385.9844">200 OK</text></g><a href="/microservices/svc-analytics/#integration-context" target="_top" title="/microservices/svc-analytics/#integration-context" xlink:actuate="onRequest" xlink:href="/microservices/svc-analytics/#integration-context" xlink:show="new" xlink:title="/microservices/svc-analytics/#integration-context" xlink:type="simple"><text fill="#0000FF" font-family="Segoe UI" font-size="10" lengthAdjust="spacing" text-decoration="underline" textLength="174.5703" x="349.4482" y="14.668">&#11014; svc-analytics Integration Context</text></a><!--SRC=[XLFRRjf047tVhnZ1CvX06b0aAd6nAIfAef2KXvI7mHxCAcRNtLqWKTNNVas_gb_IiJ4NDwbglwnzpfpPSsRNFakLei4rB31yZetUg6YW4ssW6lZPA-oHOLSOwPrKCImniNI6HBJ4JU82hTmDhWagKuermUEuSbvEtpQaGeBl0lZf6QDtHQlcXwiMBVBVTsYS36MAolMrYSWSA7xdgjT_G_bxqtudk0mwEMqYbpIHYaeolMQhtsxcU5-_bA3WeXCqBexGcpY2WF4Slj6kh1gssulM6VPEb2s_BNu8iIBaCdXwyjOoDDgIsSgGh6UtOGqL9g_ip7fLgHp51ftKgXPoglJYuFUldr2YmVZ4Wi6UDPyBuQHB24R-0tWdIKDRKXlwgaRaeFY0azIIjucGaf4w4Y8z9GoLGI99kGgWXVqospscQIB3lBNrk6cfedStXX4wsk5hNZQQGNNOztjycagyafkSETs6_yjcFZzEEKA72xHytcuDXWdb4iC-vptmB_s148g70NhBWRCmZuUbZwgOoh9oVUNMITMxtsVZnUIAPU-OqXT9Ev0AfZkCOrPz7BDrKX5aZOGeugbzp1nV_sC20aCdjvnE7ajnydd9LPdxQ-23mw39Rejr9tO67kYYsuNXmNotAqG6iW1xluQfF_473r2lrs7soR_tOIaJHyQUfCuYucNjsFaEOuvhoRqjtsOh8ZehAPeSp3KR3RZzV4x98ivyCAC8uZtMQ2R-0000]--></g></svg>