<?plantuml 1.2026.2?><svg xmlns="http://www.w3.org/2000/svg" xmlns:xlink="http://www.w3.org/1999/xlink" contentStyleType="text/css" data-diagram-type="SEQUENCE" height="930px" preserveAspectRatio="none" style="width:682px;height:930px;background:#FEFEFE;" version="1.1" viewBox="0 0 682 930" width="682px" zoomAndPan="magnify"><title>POST /members/{guest_id}/redeem
Redeem loyalty points
&lt;size:10&gt;&lt;color:#7c3aed&gt;ARCHITECT OVERRIDE &#8212; enriched with ledger consistency and optimistic locking&lt;/color&gt;&lt;/size&gt;</title><defs/><g><rect fill="#FEFEFE" height="930" style="stroke:none;stroke-width:1;" width="682" x="0" y="0"/><text fill="#000000" font-family="'Segoe UI'" font-size="14" font-weight="bold" lengthAdjust="spacing" textLength="258.501" x="208.116" y="41.3125">POST /members/{guest_id}/redeem</text><text fill="#000000" font-family="'Segoe UI'" font-size="14" font-weight="bold" lengthAdjust="spacing" textLength="160.1797" x="257.2766" y="57.8008">Redeem loyalty points</text><text fill="#7C3AED" font-family="'Segoe UI'" font-size="10" font-weight="bold" lengthAdjust="spacing" textLength="420.0049" x="127.364" y="70.4219">ARCHITECT OVERRIDE &#8212; enriched with ledger consistency and optimistic locking</text><g><title>svc-loyalty-rewards</title><rect fill="#64748B" height="576.6738" style="stroke:#181818;stroke-width:1;" width="10" x="300.8784" y="243.2617"/></g><g><title>Couchbase</title><rect fill="#FEF9C3" height="44.6211" style="stroke:#181818;stroke-width:1;" width="10" x="600.5762" y="303.1934"/></g><g><title>Couchbase</title><rect fill="#FEF9C3" height="53.6211" style="stroke:#181818;stroke-width:1;" width="10" x="600.5762" y="572.875"/></g><rect fill="none" height="472.1211" rx="4" ry="4" style="stroke:#000000;stroke-width:1.5;" width="655.7329" x="10" y="362.8145"/><rect fill="none" height="240.0605" rx="4" ry="4" style="stroke:#000000;stroke-width:1.5;" width="635.7329" x="20" y="587.875"/><g class="participant-lifeline" data-entity-uid="part1" data-qualified-name="Client" id="part1-lifeline"><g><title>Client</title><rect fill="#000000" fill-opacity="0.00000" height="705.916" width="8" x="52.7524" y="146.0195"/><line style="stroke:#6B7280;stroke-width:0.5;stroke-dasharray:5,5;" x1="56" x2="56" y1="146.0195" y2="851.9355"/></g></g><g class="participant-lifeline" data-entity-uid="part2" data-qualified-name="Svc" id="part2-lifeline"><g><title>svc-loyalty-rewards</title><rect fill="#000000" fill-opacity="0.00000" height="705.916" width="8" x="301.8784" y="146.0195"/><line style="stroke:#6B7280;stroke-width:0.5;stroke-dasharray:5,5;" x1="304.9941" x2="304.9941" y1="146.0195" y2="851.9355"/></g></g><g class="participant-lifeline" data-entity-uid="part3" data-qualified-name="Kafka" id="part3-lifeline"><g><title>Kafka</title><rect fill="#000000" fill-opacity="0.00000" height="705.916" width="8" x="525.4531" y="146.0195"/><line style="stroke:#6B7280;stroke-width:0.5;stroke-dasharray:5,5;" x1="528.4868" x2="528.4868" y1="146.0195" y2="851.9355"/></g></g><g class="participant-lifeline" data-entity-uid="part4" data-qualified-name="DB" id="part4-lifeline"><g><title>Couchbase</title><rect fill="#000000" fill-opacity="0.00000" height="705.916" width="8" x="601.5762" y="146.0195"/><line style="stroke:#6B7280;stroke-width:0.5;stroke-dasharray:5,5;" x1="605.4194" x2="605.4194" y1="146.0195" y2="851.9355"/></g></g><g class="participant participant-head" data-entity-uid="part1" data-qualified-name="Client" id="part1-head"><a href="/applications/" target="_top" title="/applications/" xlink:actuate="onRequest" xlink:href="/applications/" xlink:show="new" xlink:title="/applications/" xlink:type="simple"><rect fill="#F9FAFB" height="30.4883" rx="4" ry="4" style="stroke:#374151;stroke-width:0.5;" width="53.5049" x="30" y="114.5313"/><text fill="#000000" font-family="'Segoe UI'" font-size="14" lengthAdjust="spacing" textLength="39.5049" x="37" y="135.0664">Client</text></a></g><g class="participant participant-tail" data-entity-uid="part1" data-qualified-name="Client" id="part1-tail"><a href="/applications/" target="_top" title="/applications/" xlink:actuate="onRequest" xlink:href="/applications/" xlink:show="new" xlink:title="/applications/" xlink:type="simple"><rect fill="#F9FAFB" height="30.4883" rx="4" ry="4" style="stroke:#374151;stroke-width:0.5;" width="53.5049" x="30" y="850.9355"/><text fill="#000000" font-family="'Segoe UI'" font-size="14" lengthAdjust="spacing" textLength="39.5049" x="37" y="871.4707">Client</text></a></g><g class="participant participant-head" data-entity-uid="part2" data-qualified-name="Svc" id="part2-head"><a href="/microservices/svc-loyalty-rewards/" target="_top" title="/microservices/svc-loyalty-rewards/" xlink:actuate="onRequest" xlink:href="/microservices/svc-loyalty-rewards/" xlink:show="new" xlink:title="/microservices/svc-loyalty-rewards/" xlink:type="simple"><rect fill="#F1F5F9" height="30.4883" rx="4" ry="4" style="stroke:#374151;stroke-width:0.5;" width="149.7686" x="230.9941" y="114.5313"/><text fill="#000000" font-family="'Segoe UI'" font-size="14" lengthAdjust="spacing" textLength="135.7686" x="237.9941" y="135.0664">svc-loyalty-rewards</text></a></g><g class="participant participant-tail" data-entity-uid="part2" data-qualified-name="Svc" id="part2-tail"><a href="/microservices/svc-loyalty-rewards/" target="_top" title="/microservices/svc-loyalty-rewards/" xlink:actuate="onRequest" xlink:href="/microservices/svc-loyalty-rewards/" xlink:show="new" xlink:title="/microservices/svc-loyalty-rewards/" xlink:type="simple"><rect fill="#F1F5F9" height="30.4883" rx="4" ry="4" style="stroke:#374151;stroke-width:0.5;" width="149.7686" x="230.9941" y="850.9355"/><text fill="#000000" font-family="'Segoe UI'" font-size="14" lengthAdjust="spacing" textLength="135.7686" x="237.9941" y="871.4707">svc-loyalty-rewards</text></a></g><g class="participant participant-head" data-entity-uid="part3" data-qualified-name="Kafka" id="part3-head"><a href="/architecture/events/" target="_top" title="/architecture/events/" xlink:actuate="onRequest" xlink:href="/architecture/events/" xlink:show="new" xlink:title="/architecture/events/" xlink:type="simple"><rect fill="#F5F3FF" height="30.4883" rx="4" ry="4" style="stroke:#374151;stroke-width:0.5;" width="51.9326" x="503.4868" y="114.5313"/><text fill="#000000" font-family="'Segoe UI'" font-size="14" lengthAdjust="spacing" textLength="37.9326" x="510.4868" y="135.0664">Kafka</text></a></g><g class="participant participant-tail" data-entity-uid="part3" data-qualified-name="Kafka" id="part3-tail"><a href="/architecture/events/" target="_top" title="/architecture/events/" xlink:actuate="onRequest" xlink:href="/architecture/events/" xlink:show="new" xlink:title="/architecture/events/" xlink:type="simple"><rect fill="#F5F3FF" height="30.4883" rx="4" ry="4" style="stroke:#374151;stroke-width:0.5;" width="51.9326" x="503.4868" y="850.9355"/><text fill="#000000" font-family="'Segoe UI'" font-size="14" lengthAdjust="spacing" textLength="37.9326" x="510.4868" y="871.4707">Kafka</text></a></g><g class="participant participant-head" data-entity-uid="part4" data-qualified-name="DB" id="part4-head"><a href="/microservices/svc-loyalty-rewards/#data-store" target="_top" title="/microservices/svc-loyalty-rewards/#data-store" xlink:actuate="onRequest" xlink:href="/microservices/svc-loyalty-rewards/#data-store" xlink:show="new" xlink:title="/microservices/svc-loyalty-rewards/#data-store" xlink:type="simple"><text fill="#000000" font-family="'Segoe UI'" font-size="14" lengthAdjust="spacing" textLength="74.3135" x="565.4194" y="143.0664">Couchbase</text><path d="M587.5762,93.5313 C587.5762,83.5313 605.5762,83.5313 605.5762,83.5313 C605.5762,83.5313 623.5762,83.5313 623.5762,93.5313 L623.5762,119.5313 C623.5762,129.5313 605.5762,129.5313 605.5762,129.5313 C605.5762,129.5313 587.5762,129.5313 587.5762,119.5313 L587.5762,93.5313" fill="#FEF9C3" style="stroke:#181818;stroke-width:0.5;"/><path d="M587.5762,93.5313 C587.5762,103.5313 605.5762,103.5313 605.5762,103.5313 C605.5762,103.5313 623.5762,103.5313 623.5762,93.5313" fill="none" style="stroke:#181818;stroke-width:0.5;"/></a></g><g class="participant participant-tail" data-entity-uid="part4" data-qualified-name="DB" id="part4-tail"><a href="/microservices/svc-loyalty-rewards/#data-store" target="_top" title="/microservices/svc-loyalty-rewards/#data-store" xlink:actuate="onRequest" xlink:href="/microservices/svc-loyalty-rewards/#data-store" xlink:show="new" xlink:title="/microservices/svc-loyalty-rewards/#data-store" xlink:type="simple"><text fill="#000000" font-family="'Segoe UI'" font-size="14" lengthAdjust="spacing" textLength="74.3135" x="565.4194" y="864.4707">Couchbase</text><path d="M587.5762,877.4238 C587.5762,867.4238 605.5762,867.4238 605.5762,867.4238 C605.5762,867.4238 623.5762,867.4238 623.5762,877.4238 L623.5762,903.4238 C623.5762,913.4238 605.5762,913.4238 605.5762,913.4238 C605.5762,913.4238 587.5762,913.4238 587.5762,903.4238 L587.5762,877.4238" fill="#FEF9C3" style="stroke:#181818;stroke-width:0.5;"/><path d="M587.5762,877.4238 C587.5762,887.4238 605.5762,887.4238 605.5762,887.4238 C605.5762,887.4238 623.5762,887.4238 623.5762,877.4238" fill="none" style="stroke:#181818;stroke-width:0.5;"/></a></g><g><title>svc-loyalty-rewards</title><rect fill="#64748B" height="576.6738" style="stroke:#181818;stroke-width:1;" width="10" x="300.8784" y="243.2617"/></g><g><title>Couchbase</title><rect fill="#FEF9C3" height="44.6211" style="stroke:#181818;stroke-width:1;" width="10" x="600.5762" y="303.1934"/></g><g><title>Couchbase</title><rect fill="#FEF9C3" height="53.6211" style="stroke:#181818;stroke-width:1;" width="10" x="600.5762" y="572.875"/></g><path d="M235,165.0195 L235,182.0195 A4,4 0 0 0 239,186.0195 L371,186.0195 A4,4 0 0 0 375,182.0195 L375,171.0195 L365,161.0195 L239,161.0195 A4,4 0 0 0 235,165.0195" fill="#FEFFDD" style="stroke:#181818;stroke-width:0.5;"/><path d="M365,161.0195 L365,169.0195 A2,2 0 0 0 367,171.0195 L375,171.0195 L365,161.0195" fill="#FEFFDD" style="stroke:#181818;stroke-width:0.5;"/><a href="/services/api/svc-loyalty-rewards.html" target="_top" title="/services/api/svc-loyalty-rewards.html" xlink:actuate="onRequest" xlink:href="/services/api/svc-loyalty-rewards.html" xlink:show="new" xlink:title="/services/api/svc-loyalty-rewards.html" xlink:type="simple"><text fill="#0000FF" font-family="'Segoe UI'" font-size="13" lengthAdjust="spacing" text-decoration="underline" textLength="119.4058" x="241" y="178.5879">View in Swagger UI</text></a><g class="message" data-entity-1="part1" data-entity-2="part2" id="msg1"><polygon fill="#64748B" points="288.8784,239.2617,298.8784,243.2617,288.8784,247.2617,292.8784,243.2617" style="stroke:#64748B;stroke-width:1;"/><line style="stroke:#64748B;stroke-width:1;" x1="56.7524" x2="294.8784" y1="243.2617" y2="243.2617"/><text fill="#000000" font-family="'Segoe UI'" font-size="13" lengthAdjust="spacing" textLength="225.126" x="63.7524" y="207.8984">POST /members/{guest_id}/redeem</text><text fill="#000000" font-family="'Segoe UI'" font-size="13" lengthAdjust="spacing" textLength="137.0015" x="63.7524" y="223.209">{ points, reward_type,</text><text fill="#000000" font-family="'Segoe UI'" font-size="13" lengthAdjust="spacing" textLength="117.8887" x="63.7524" y="238.5195">redemption_code }</text></g><g class="message" data-entity-1="part2" data-entity-2="part4" id="msg2"><polygon fill="#64748B" points="588.5762,299.1934,598.5762,303.1934,588.5762,307.1934,592.5762,303.1934" style="stroke:#64748B;stroke-width:1;"/><line style="stroke:#64748B;stroke-width:1;" x1="310.8784" x2="594.5762" y1="303.1934" y2="303.1934"/><text fill="#000000" font-family="'Segoe UI'" font-size="13" lengthAdjust="spacing" textLength="146.9482" x="317.8784" y="267.8301">GET member:{guest_id}</text><text fill="#000000" font-family="'Segoe UI'" font-size="13" lengthAdjust="spacing" textLength="119.2979" x="317.8784" y="283.1406">(with CAS value for</text><text fill="#000000" font-family="'Segoe UI'" font-size="13" lengthAdjust="spacing" textLength="116.8604" x="317.8784" y="298.4512">optimistic locking)</text></g><g class="message" data-entity-1="part4" data-entity-2="part2" id="msg3"><polygon fill="#64748B" points="321.8784,343.8145,311.8784,347.8145,321.8784,351.8145,317.8784,347.8145" style="stroke:#64748B;stroke-width:1;"/><line style="stroke:#64748B;stroke-width:1;stroke-dasharray:2,2;" x1="315.8784" x2="604.5762" y1="347.8145" y2="347.8145"/><text fill="#000000" font-family="'Segoe UI'" font-size="13" lengthAdjust="spacing" textLength="78.2603" x="327.8784" y="327.7617">Member doc</text><text fill="#000000" font-family="'Segoe UI'" font-size="13" lengthAdjust="spacing" textLength="121.3228" x="327.8784" y="343.0723">(balance, tier, _cas)</text></g><path d="M14,362.8145 L72.1387,362.8145 L72.1387,370.125 L62.1387,380.125 L10,380.125 L10,366.8145 A4,4 0 0 1 14,362.8145" fill="#EEEEEE" style="stroke:#000000;stroke-width:1.5;"/><rect fill="none" height="472.1211" rx="4" ry="4" style="stroke:#000000;stroke-width:1.5;" width="655.7329" x="10" y="362.8145"/><text fill="#000000" font-family="'Segoe UI'" font-size="13" font-weight="bold" lengthAdjust="spacing" textLength="17.1387" x="25" y="376.3828">alt</text><text fill="#000000" font-family="'Segoe UI'" font-size="11" font-weight="bold" lengthAdjust="spacing" textLength="119.6733" x="87.1387" y="375.4492">[Insufficient balance]</text><g class="message" data-entity-1="part2" data-entity-2="part1" id="msg4"><polygon fill="#64748B" points="67.7524,428.0566,57.7524,432.0566,67.7524,436.0566,63.7524,432.0566" style="stroke:#64748B;stroke-width:1;"/><line style="stroke:#64748B;stroke-width:1;stroke-dasharray:2,2;" x1="61.7524" x2="299.8784" y1="432.0566" y2="432.0566"/><text fill="#000000" font-family="'Segoe UI'" font-size="13" lengthAdjust="spacing" textLength="120.853" x="73.7524" y="396.6934">422 Unprocessable</text><text fill="#000000" font-family="'Segoe UI'" font-size="13" lengthAdjust="spacing" textLength="124.7505" x="73.7524" y="412.0039">(insufficient_points,</text><text fill="#000000" font-family="'Segoe UI'" font-size="13" lengthAdjust="spacing" textLength="126.02" x="73.7524" y="427.3145">available = balance)</text></g><line style="stroke:#000000;stroke-width:1;stroke-dasharray:2,2;" x1="10" x2="665.7329" y1="441.0566" y2="441.0566"/><text fill="#000000" font-family="'Segoe UI'" font-size="11" font-weight="bold" lengthAdjust="spacing" textLength="108.8667" x="15" y="451.6914">[Sufficient balance]</text><path d="M315,464.0117 L315,511.0117 A4,4 0 0 0 319,515.0117 L477,515.0117 A4,4 0 0 0 481,511.0117 L481,470.0117 L471,460.0117 L319,460.0117 A4,4 0 0 0 315,464.0117" fill="#FEFFDD" style="stroke:#181818;stroke-width:0.5;"/><path d="M471,460.0117 L471,468.0117 A2,2 0 0 0 473,470.0117 L481,470.0117 L471,460.0117" fill="#FEFFDD" style="stroke:#181818;stroke-width:0.5;"/><text fill="#000000" font-family="'Segoe UI'" font-size="13" lengthAdjust="spacing" textLength="145.5581" x="321" y="477.5801">Debit points atomically</text><text fill="#000000" font-family="'Segoe UI'" font-size="13" lengthAdjust="spacing" textLength="113.8325" x="321" y="492.8906">balance -= points</text><text fill="#000000" font-family="'Segoe UI'" font-size="13" lengthAdjust="spacing" textLength="145.6533" x="321" y="508.2012">Append to ledger array</text><g class="message" data-entity-1="part2" data-entity-2="part4" id="msg5"><polygon fill="#64748B" points="588.5762,568.875,598.5762,572.875,588.5762,576.875,592.5762,572.875" style="stroke:#64748B;stroke-width:1;"/><line style="stroke:#64748B;stroke-width:1;" x1="310.8784" x2="594.5762" y1="572.875" y2="572.875"/><text fill="#000000" font-family="'Segoe UI'" font-size="13" lengthAdjust="spacing" textLength="176.6807" x="317.8784" y="537.5117">REPLACE member:{guest_id}</text><text fill="#000000" font-family="'Segoe UI'" font-size="13" lengthAdjust="spacing" textLength="102.0576" x="317.8784" y="552.8223">WITH CAS check</text><text fill="#000000" font-family="'Segoe UI'" font-size="13" lengthAdjust="spacing" textLength="197.209" x="317.8784" y="568.1328">(updated balance, ledger entry)</text></g><path d="M24,587.875 L82.1387,587.875 L82.1387,595.1855 L72.1387,605.1855 L20,605.1855 L20,591.875 A4,4 0 0 1 24,587.875" fill="#EEEEEE" style="stroke:#000000;stroke-width:1.5;"/><rect fill="none" height="240.0605" rx="4" ry="4" style="stroke:#000000;stroke-width:1.5;" width="635.7329" x="20" y="587.875"/><text fill="#000000" font-family="'Segoe UI'" font-size="13" font-weight="bold" lengthAdjust="spacing" textLength="17.1387" x="35" y="601.4434">alt</text><text fill="#000000" font-family="'Segoe UI'" font-size="11" font-weight="bold" lengthAdjust="spacing" textLength="237.1499" x="97.1387" y="600.5098">[CAS mismatch (concurrent modification)]</text><g class="message" data-entity-1="part4" data-entity-2="part2" id="msg6"><polygon fill="#64748B" points="321.8784,622.4961,311.8784,626.4961,321.8784,630.4961,317.8784,626.4961" style="stroke:#64748B;stroke-width:1;"/><line style="stroke:#64748B;stroke-width:1;stroke-dasharray:2,2;" x1="315.8784" x2="604.5762" y1="626.4961" y2="626.4961"/><text fill="#000000" font-family="'Segoe UI'" font-size="13" lengthAdjust="spacing" textLength="100.3438" x="327.8784" y="621.7539">CAS_MISMATCH</text></g><g class="message" data-entity-1="part2" data-entity-2="part1" id="msg7"><polygon fill="#64748B" points="67.7524,667.1172,57.7524,671.1172,67.7524,675.1172,63.7524,671.1172" style="stroke:#64748B;stroke-width:1;"/><line style="stroke:#64748B;stroke-width:1;stroke-dasharray:2,2;" x1="61.7524" x2="299.8784" y1="671.1172" y2="671.1172"/><text fill="#000000" font-family="'Segoe UI'" font-size="13" lengthAdjust="spacing" textLength="77.6382" x="73.7524" y="651.0645">409 Conflict</text><text fill="#000000" font-family="'Segoe UI'" font-size="13" lengthAdjust="spacing" textLength="97.8047" x="73.7524" y="666.375">(retry_required)</text></g><line style="stroke:#000000;stroke-width:1;stroke-dasharray:2,2;" x1="20" x2="655.7329" y1="680.1172" y2="680.1172"/><text fill="#000000" font-family="'Segoe UI'" font-size="11" font-weight="bold" lengthAdjust="spacing" textLength="68.6694" x="25" y="690.752">[CAS match]</text><g class="message" data-entity-1="part4" data-entity-2="part2" id="msg8"><polygon fill="#64748B" points="321.8784,711.3828,311.8784,715.3828,321.8784,719.3828,317.8784,715.3828" style="stroke:#64748B;stroke-width:1;"/><line style="stroke:#64748B;stroke-width:1;stroke-dasharray:2,2;" x1="315.8784" x2="604.5762" y1="715.3828" y2="715.3828"/><text fill="#000000" font-family="'Segoe UI'" font-size="13" lengthAdjust="spacing" textLength="48.8833" x="327.8784" y="710.6406">Success</text></g><g class="message" data-entity-1="part2" data-entity-2="part3" id="msg9"><line style="stroke:#64748B;stroke-width:1;" x1="527.4531" x2="517.4531" y1="760.0039" y2="756.0039"/><line style="stroke:#64748B;stroke-width:1;" x1="527.4531" x2="517.4531" y1="760.0039" y2="764.0039"/><line style="stroke:#64748B;stroke-width:1;" x1="310.8784" x2="528.4531" y1="760.0039" y2="760.0039"/><text fill="#000000" font-family="'Segoe UI'" font-size="13" lengthAdjust="spacing" textLength="151.6265" x="317.8784" y="739.9512">loyalty.points.redeemed</text><text fill="#000000" font-family="'Segoe UI'" font-size="13" lengthAdjust="spacing" textLength="194.5747" x="317.8784" y="755.2617">(guest_id, points, reward_type)</text></g><g class="message" data-entity-1="part2" data-entity-2="part1" id="msg10"><polygon fill="#64748B" points="67.7524,815.9355,57.7524,819.9355,67.7524,823.9355,63.7524,819.9355" style="stroke:#64748B;stroke-width:1;"/><line style="stroke:#64748B;stroke-width:1;stroke-dasharray:2,2;" x1="61.7524" x2="304.8784" y1="819.9355" y2="819.9355"/><text fill="#000000" font-family="'Segoe UI'" font-size="13" lengthAdjust="spacing" textLength="47.3599" x="73.7524" y="784.5723">200 OK</text><text fill="#000000" font-family="'Segoe UI'" font-size="13" lengthAdjust="spacing" textLength="188.0811" x="73.7524" y="799.8828">(redemption_id, new_balance,</text><text fill="#000000" font-family="'Segoe UI'" font-size="13" lengthAdjust="spacing" textLength="25.4097" x="73.7524" y="815.1934">tier)</text></g><a href="/microservices/svc-loyalty-rewards/#integration-context" target="_top" title="/microservices/svc-loyalty-rewards/#integration-context" xlink:actuate="onRequest" xlink:href="/microservices/svc-loyalty-rewards/#integration-context" xlink:show="new" xlink:title="/microservices/svc-loyalty-rewards/#integration-context" xlink:type="simple"><text fill="#0000FF" font-family="'Segoe UI'" font-size="10" lengthAdjust="spacing" text-decoration="underline" textLength="208.1494" x="466.5835" y="14.668">&#11014; svc-loyalty-rewards Integration Context</text></a><?plantuml-src ZLJ1Rjj64BtlLqpZImH8ecCxJIqu0bHQgeNKS20fwI4oXDLo92vCxhAxIwcgOQ2dVa4_er-LB-diaf8ZX473YvRKpfjvxytC3rA9h4mGkjt8fPXZjoZpZDa7gGfkU0uMVozH2OH71lGCZD7RM6VQmCcF5sykVbgo9yPIv0aQ-FGfogKmsgBPI84siXlHoVIEPsxNCRZb9h7HYLGEruOxgLL7Q7hvmy7dV_-6XiimVhuBSNNt_fun9rs6yFvkEeCento9naQFwnAjMyZaAJAO8EPpDGc_K8D2eIcrdQihA__4tglJ_fNmH7edRyGvnwG_cCGtuzamdi7Tn-5aChuUmkU__W5KHeeK4zXAbqA6oPgeKk5MMaVAx82h17JXP4uVfA1qWjHRNqK1lNyL-NHznaXF-biMN3bu4MSIbNi1t49rzEBneiYa26njH3oF8Xha2U7JZVW-uU_luMJqQlHwT7aC_8wl7dY02gTGY16fT2XSQJ323PLNXxyUdOz6BE6EBxb5eg5BaVfZYB_--JjRm0DqhDC60-fmT1cVCwQqGz0RKfSuKRSHrW665x89gfkwF8EF4hSW5KotVEtD-J0cyP1SyOYCrG9t-a6htl_tpMFTAcseqYpShi3sNFd_yyBRin2QPkQ9SU7aXbFP7da_4Co_K3QIemU_36TGfUezPvghbw6Pui4KDZmh4LRQpDNNJTHwpa1eUwNes3cmkGtWa6X1g4kUSHhMDZY9fWqBmMsB9VW526Ea7ysLBLShQW4lJ1qKvZkKJjYrPZsuE3k33wemcbomV9aXPP5VH2zggUQARxZC_0rukuTiCSoeJQRDkOBVHgvJ1tfLixd6fNIr_C2TfcRYMRQRgpeGEcyFSpme2c-oq_kXvCRm7NlcKLim6Rx_TH0FcspuRJox2IxGW8i7ebOMr9iqwmSXQsYgtUnQ0Rh9aV2TTFLGv63EdKZX9Iq9KHhZUUSwaQjwjYiO_nmPIR6Bs_7qTZ2BRmutZhtRV_tQfTDBlnzNj3uSiJ18rIuChMv9FLlb2qw4-dnnpILCI-5j_aRsu_JzVhqlUli5swsCwLPZX0aLifUwtJHHBVPjGcUdft3tBb0vp9o7KRXTxBsPAz_bhQPggmL2f5NY5m7x3m00?></g></svg>