<svg xmlns="http://www.w3.org/2000/svg" xmlns:xlink="http://www.w3.org/1999/xlink" contentStyleType="text/css" data-diagram-type="SEQUENCE" height="474px" preserveAspectRatio="none" style="width:679px;height:474px;background:#FEFEFE;" version="1.1" viewBox="0 0 679 474" width="679px" zoomAndPan="magnify"><title>GET /guides/{guide_id}/ratings</title><defs/><g><rect fill="#FEFEFE" height="474" style="stroke:none;stroke-width:1;" width="679" x="0" y="0"/><text fill="#000000" font-family="Segoe UI" font-size="14" font-weight="bold" lengthAdjust="spacing" textLength="228.0811" x="221.5991" y="28.5352">GET /guides/{guide_id}/ratings</text><text fill="#000000" font-family="Segoe UI" font-size="14" font-weight="bold" lengthAdjust="spacing" textLength="216.4873" x="227.396" y="45.0234">Get guest ratings and reviews</text><g><title>API Gateway</title><rect fill="#2563EB" height="189.8633" style="stroke:#A23B72;stroke-width:1;" width="10" x="248.1328" y="188.0859"/></g><g><title>svc-guide-management</title><rect fill="#2563EB" height="131.2422" style="stroke:#A23B72;stroke-width:1;" width="10" x="395.6104" y="217.3965"/></g><g><title>PostgreSQL</title><rect fill="#FCE4EC" height="29.3105" style="stroke:#A23B72;stroke-width:1;" width="10" x="620.8545" y="290.0176"/></g><g><title>Client</title><rect fill="#000000" fill-opacity="0.00000" height="274.4844" width="8" x="27.7524" y="121.4648"/><line style="stroke:#A23B72;stroke-width:0.5;stroke-dasharray:5,5;" x1="31" x2="31" y1="121.4648" y2="395.9492"/></g><g><title>API Gateway</title><rect fill="#000000" fill-opacity="0.00000" height="274.4844" width="8" x="249.1328" y="121.4648"/><line style="stroke:#A23B72;stroke-width:0.5;stroke-dasharray:5,5;" x1="252.8438" x2="252.8438" y1="121.4648" y2="395.9492"/></g><g><title>svc-guide-management</title><rect fill="#000000" fill-opacity="0.00000" height="274.4844" width="8" x="396.6104" y="121.4648"/><line style="stroke:#A23B72;stroke-width:0.5;stroke-dasharray:5,5;" x1="400.4219" x2="400.4219" y1="121.4648" y2="395.9492"/></g><g><title>PostgreSQL</title><rect fill="#000000" fill-opacity="0.00000" height="274.4844" width="8" x="621.8545" y="121.4648"/><line style="stroke:#A23B72;stroke-width:0.5;stroke-dasharray:5,5;" x1="625.4297" x2="625.4297" y1="121.4648" y2="395.9492"/></g><g class="participant participant-head" data-participant="Client"><rect fill="#E8F4F8" height="30.4883" rx="2.5" ry="2.5" style="stroke:#2E86AB;stroke-width:0.5;" width="53.5049" x="5" y="89.9766"/><text fill="#000000" font-family="Segoe UI" font-size="14" lengthAdjust="spacing" textLength="39.5049" x="12" y="110.5117">Client</text></g><g class="participant participant-tail" data-participant="Client"><rect fill="#E8F4F8" height="30.4883" rx="2.5" ry="2.5" style="stroke:#2E86AB;stroke-width:0.5;" width="53.5049" x="5" y="394.9492"/><text fill="#000000" font-family="Segoe UI" font-size="14" lengthAdjust="spacing" textLength="39.5049" x="12" y="415.4844">Client</text></g><g class="participant participant-head" data-participant="GW"><rect fill="#DBEAFE" height="30.4883" rx="2.5" ry="2.5" style="stroke:#2E86AB;stroke-width:0.5;" width="96.5781" x="204.8438" y="89.9766"/><text fill="#000000" font-family="Segoe UI" font-size="14" lengthAdjust="spacing" textLength="82.5781" x="211.8438" y="110.5117">API Gateway</text></g><g class="participant participant-tail" data-participant="GW"><rect fill="#DBEAFE" height="30.4883" rx="2.5" ry="2.5" style="stroke:#2E86AB;stroke-width:0.5;" width="96.5781" x="204.8438" y="394.9492"/><text fill="#000000" font-family="Segoe UI" font-size="14" lengthAdjust="spacing" textLength="82.5781" x="211.8438" y="415.4844">API Gateway</text></g><g class="participant participant-head" data-participant="Svc"><a href="/microservices/svc-guide-management/" target="_top" title="/microservices/svc-guide-management/" xlink:actuate="onRequest" xlink:href="/microservices/svc-guide-management/" xlink:show="new" xlink:title="/microservices/svc-guide-management/" xlink:type="simple"><rect fill="#E8F4F8" height="30.4883" rx="2.5" ry="2.5" style="stroke:#2E86AB;stroke-width:0.5;" width="178.377" x="311.4219" y="89.9766"/><text fill="#000000" font-family="Segoe UI" font-size="14" lengthAdjust="spacing" textLength="164.377" x="318.4219" y="110.5117">svc-guide-management</text></a></g><g class="participant participant-tail" data-participant="Svc"><a href="/microservices/svc-guide-management/" target="_top" title="/microservices/svc-guide-management/" xlink:actuate="onRequest" xlink:href="/microservices/svc-guide-management/" xlink:show="new" xlink:title="/microservices/svc-guide-management/" xlink:type="simple"><rect fill="#E8F4F8" height="30.4883" rx="2.5" ry="2.5" style="stroke:#2E86AB;stroke-width:0.5;" width="178.377" x="311.4219" y="394.9492"/><text fill="#000000" font-family="Segoe UI" font-size="14" lengthAdjust="spacing" textLength="164.377" x="318.4219" y="415.4844">svc-guide-management</text></a></g><g class="participant participant-head" data-participant="DB"><text fill="#000000" font-family="Segoe UI" font-size="14" lengthAdjust="spacing" textLength="76.8496" x="584.4297" y="118.5117">PostgreSQL</text><path d="M607.8545,68.9766 C607.8545,58.9766 625.8545,58.9766 625.8545,58.9766 C625.8545,58.9766 643.8545,58.9766 643.8545,68.9766 L643.8545,94.9766 C643.8545,104.9766 625.8545,104.9766 625.8545,104.9766 C625.8545,104.9766 607.8545,104.9766 607.8545,94.9766 L607.8545,68.9766" fill="#FCE4EC" style="stroke:#181818;stroke-width:0.5;"/><path d="M607.8545,68.9766 C607.8545,78.9766 625.8545,78.9766 625.8545,78.9766 C625.8545,78.9766 643.8545,78.9766 643.8545,68.9766" fill="none" style="stroke:#181818;stroke-width:0.5;"/></g><g class="participant participant-tail" data-participant="DB"><text fill="#000000" font-family="Segoe UI" font-size="14" lengthAdjust="spacing" textLength="76.8496" x="584.4297" y="408.4844">PostgreSQL</text><path d="M607.8545,421.4375 C607.8545,411.4375 625.8545,411.4375 625.8545,411.4375 C625.8545,411.4375 643.8545,411.4375 643.8545,421.4375 L643.8545,447.4375 C643.8545,457.4375 625.8545,457.4375 625.8545,457.4375 C625.8545,457.4375 607.8545,457.4375 607.8545,447.4375 L607.8545,421.4375" fill="#FCE4EC" style="stroke:#181818;stroke-width:0.5;"/><path d="M607.8545,421.4375 C607.8545,431.4375 625.8545,431.4375 625.8545,431.4375 C625.8545,431.4375 643.8545,431.4375 643.8545,421.4375" fill="none" style="stroke:#181818;stroke-width:0.5;"/></g><g><title>API Gateway</title><rect fill="#2563EB" height="189.8633" style="stroke:#A23B72;stroke-width:1;" width="10" x="248.1328" y="188.0859"/></g><g><title>svc-guide-management</title><rect fill="#2563EB" height="131.2422" style="stroke:#A23B72;stroke-width:1;" width="10" x="395.6104" y="217.3965"/></g><g><title>PostgreSQL</title><rect fill="#FCE4EC" height="29.3105" style="stroke:#A23B72;stroke-width:1;" width="10" x="620.8545" y="290.0176"/></g><path d="M330,136.4648 L330,161.4648 L470,161.4648 L470,146.4648 L460,136.4648 L330,136.4648" fill="#FEFFDD" style="stroke:#181818;stroke-width:0.5;"/><path d="M460,136.4648 L460,146.4648 L470,146.4648 L460,136.4648" fill="#FEFFDD" style="stroke:#181818;stroke-width:0.5;"/><a href="/services/api/svc-guide-management.html#/Ratings/getGuideRatings" target="_top" title="/services/api/svc-guide-management.html#/Ratings/getGuideRatings" xlink:actuate="onRequest" xlink:href="/services/api/svc-guide-management.html#/Ratings/getGuideRatings" xlink:show="new" xlink:title="/services/api/svc-guide-management.html#/Ratings/getGuideRatings" xlink:type="simple"><text fill="#0000FF" font-family="Segoe UI" font-size="13" lengthAdjust="spacing" text-decoration="underline" textLength="119.4058" x="336" y="154.0332">View in Swagger UI</text></a><g class="message" data-participant-1="Client" data-participant-2="GW"><polygon fill="#2563EB" points="236.1328,184.0859,246.1328,188.0859,236.1328,192.0859,240.1328,188.0859" style="stroke:#2563EB;stroke-width:1;"/><line style="stroke:#2563EB;stroke-width:1;" x1="31.7524" x2="242.1328" y1="188.0859" y2="188.0859"/><text fill="#000000" font-family="Segoe UI" font-size="13" lengthAdjust="spacing" textLength="197.3804" x="38.7524" y="183.3438">GET /guides/{guide_id}/ratings</text></g><g class="message" data-participant-1="GW" data-participant-2="Svc"><polygon fill="#2563EB" points="383.6104,213.3965,393.6104,217.3965,383.6104,221.3965,387.6104,217.3965" style="stroke:#2563EB;stroke-width:1;"/><line style="stroke:#2563EB;stroke-width:1;" x1="258.1328" x2="389.6104" y1="217.3965" y2="217.3965"/><text fill="#000000" font-family="Segoe UI" font-size="13" lengthAdjust="spacing" textLength="85.1348" x="265.1328" y="212.6543">route request</text></g><rect fill="#EEEEEE" height="3" style="stroke:#EEEEEE;stroke-width:1;" width="672.2793" x="0" y="246.0518"/><line style="stroke:#000000;stroke-width:1;" x1="0" x2="672.2793" y1="246.0518" y2="246.0518"/><line style="stroke:#000000;stroke-width:1;" x1="0" x2="672.2793" y1="249.0518" y2="249.0518"/><rect fill="#EEEEEE" height="23.3105" style="stroke:#000000;stroke-width:2;" width="80.3711" x="295.9541" y="235.3965"/><text fill="#000000" font-family="Segoe UI" font-size="13" font-weight="bold" lengthAdjust="spacing" textLength="62.0864" x="301.9541" y="251.9648">Database</text><g class="message" data-participant-1="Svc" data-participant-2="DB"><polygon fill="#2563EB" points="608.8545,286.0176,618.8545,290.0176,608.8545,294.0176,612.8545,290.0176" style="stroke:#2563EB;stroke-width:1;"/><line style="stroke:#2563EB;stroke-width:1;" x1="405.6104" x2="614.8545" y1="290.0176" y2="290.0176"/><text fill="#000000" font-family="Segoe UI" font-size="13" lengthAdjust="spacing" textLength="196.2441" x="412.6104" y="285.2754">SELECT ... WHERE parent_id = ?</text></g><g class="message" data-participant-1="DB" data-participant-2="Svc"><polygon fill="#2563EB" points="416.6104,315.3281,406.6104,319.3281,416.6104,323.3281,412.6104,319.3281" style="stroke:#2563EB;stroke-width:1;"/><line style="stroke:#2563EB;stroke-width:1;stroke-dasharray:2,2;" x1="410.6104" x2="624.8545" y1="319.3281" y2="319.3281"/><text fill="#000000" font-family="Segoe UI" font-size="13" lengthAdjust="spacing" textLength="57.8843" x="422.6104" y="314.5859">ResultSet</text></g><g class="message" data-participant-1="Svc" data-participant-2="GW"><polygon fill="#2563EB" points="269.1328,344.6387,259.1328,348.6387,269.1328,352.6387,265.1328,348.6387" style="stroke:#2563EB;stroke-width:1;"/><line style="stroke:#2563EB;stroke-width:1;stroke-dasharray:2,2;" x1="263.1328" x2="399.6104" y1="348.6387" y2="348.6387"/><text fill="#000000" font-family="Segoe UI" font-size="13" lengthAdjust="spacing" textLength="47.3599" x="275.1328" y="343.8965">200 OK</text></g><g class="message" data-participant-1="GW" data-participant-2="Client"><polygon fill="#2563EB" points="42.7524,373.9492,32.7524,377.9492,42.7524,381.9492,38.7524,377.9492" style="stroke:#2563EB;stroke-width:1;"/><line style="stroke:#2563EB;stroke-width:1;stroke-dasharray:2,2;" x1="36.7524" x2="252.1328" y1="377.9492" y2="377.9492"/><text fill="#000000" font-family="Segoe UI" font-size="13" lengthAdjust="spacing" textLength="47.3599" x="48.7524" y="373.207">200 OK</text></g><!--SRC=[XPDHRzem58NV_Ikku1b2eIi8YKq4aWmDTOoquw53aqakgTLWCzk4JLN_-sv2WB0YBNc8atDyp_Ldnxm8kUMQRs35evT4gvsCHofL6kg-bz_Cd1pccSTgBsG2QvuQh2WnhlakjRwIzfvl46eX9WhXSLAhJiTVEvGHmYi3kePQgtqPrVvmry5LyNd6jHMHs79fNQLZr4UBrxiRkkyi_pRjzVnRlrVOfcADKo7neiomtN6xxK9trUyBoR_f-QsRa_GEX- -JNiZtobvMZRhTLQUYNK7PyRhiZJ4hR8eGU0_W93iHet5UY-TF4RyvcbkYQtx802qaEpGMoa_0PGmQCu5xmzZs301gerIWj3NW1Wx3Itaucq30BUxvdy8JBA0-ThqXxUo5psHHe-YaiU6I9xWv5Wsp29wUd8s8j3AeCn5HqzVSpd9vuXzporVSq4cOAMCJZU6tQL5jx1ADaNVhZHYJX0fKXZhF87YKSWhWMt4rfFbiDsdTcH-mE0dQ87UKx_2T086G4Evvab3XnybooP3OvLcC7G11usEEeV-VRM0yiY8ZT0MpyeZIa6RdJFf0EqoYpe-riMTtBXxjR320yP75OC1OBb81mj27q9jwemTeDfkm-EpDFQ0DeVQe1nZ0ftF12ZCQDaxvSpJqquLeMOmLSnboN6IxrOAlNwgMd7Q-3dAKGAwvWWNx2m00]--></g></svg>