<?xml version="1.0" encoding="UTF-8" standalone="no"?><svg xmlns="http://www.w3.org/2000/svg" xmlns:xlink="http://www.w3.org/1999/xlink" contentScriptType="application/ecmascript" contentStyleType="text/css" height="610px" preserveAspectRatio="none" style="width:659px;height:610px;background:#FEFEFE;" version="1.1" viewBox="0 0 659 610" width="659px" zoomAndPan="magnify"><defs/><g><text fill="#000000" font-family="Segoe UI" font-size="18" lengthAdjust="spacingAndGlyphs" textLength="337" x="156.75" y="41.3486">PATCH /reservations/{reservation_id}</text><text fill="#000000" font-family="Segoe UI" font-size="18" lengthAdjust="spacingAndGlyphs" textLength="187" x="231.75" y="62.3018">Update a reservation</text><rect fill="#7C3AED" height="317.3281" style="stroke: #6B7280; stroke-width: 1.0;" width="10" x="293.5" y="202.1094"/><rect fill="#7C3AED" height="259.0625" style="stroke: #6B7280; stroke-width: 1.0;" width="10" x="416" y="231.2422"/><rect fill="#FEF9C3" height="29.1328" style="stroke: #6B7280; stroke-width: 1.0;" width="10" x="594" y="338.6406"/><rect fill="#FEF9C3" height="29.1328" style="stroke: #6B7280; stroke-width: 1.0;" width="10" x="594" y="432.0391"/><line style="stroke: #6B7280; stroke-width: 1.0; stroke-dasharray: 5.0,5.0;" x1="34" x2="34" y1="135.8438" y2="537.4375"/><line style="stroke: #6B7280; stroke-width: 1.0; stroke-dasharray: 5.0,5.0;" x1="298.5" x2="298.5" y1="135.8438" y2="537.4375"/><line style="stroke: #6B7280; stroke-width: 1.0; stroke-dasharray: 5.0,5.0;" x1="420.5" x2="420.5" y1="135.8438" y2="537.4375"/><line style="stroke: #6B7280; stroke-width: 1.0; stroke-dasharray: 5.0,5.0;" x1="598.5" x2="598.5" y1="135.8438" y2="537.4375"/><a href="/applications/" target="_top" title="/applications/" xlink:actuate="onRequest" xlink:href="/applications/" xlink:show="new" xlink:title="/applications/" xlink:type="simple"><rect fill="#F9FAFB" height="30.2969" style="stroke: #374151; stroke-width: 1.5;" width="53" x="8" y="104.5469"/><text fill="#000000" font-family="Segoe UI" font-size="14" lengthAdjust="spacingAndGlyphs" textLength="39" x="15" y="124.542">Client</text><rect fill="#F9FAFB" height="30.2969" style="stroke: #374151; stroke-width: 1.5;" width="53" x="8" y="536.4375"/><text fill="#000000" font-family="Segoe UI" font-size="14" lengthAdjust="spacingAndGlyphs" textLength="39" x="15" y="556.4326">Client</text></a><a href="/actors/#api-gateway" target="_top" title="/actors/#api-gateway" xlink:actuate="onRequest" xlink:href="/actors/#api-gateway" xlink:show="new" xlink:title="/actors/#api-gateway" xlink:type="simple"><rect fill="#E0F2FE" height="30.2969" style="stroke: #374151; stroke-width: 1.5;" width="98" x="249.5" y="104.5469"/><text fill="#000000" font-family="Segoe UI" font-size="14" lengthAdjust="spacingAndGlyphs" textLength="84" x="256.5" y="124.542">API Gateway</text><rect fill="#E0F2FE" height="30.2969" style="stroke: #374151; stroke-width: 1.5;" width="98" x="249.5" y="536.4375"/><text fill="#000000" font-family="Segoe UI" font-size="14" lengthAdjust="spacingAndGlyphs" textLength="84" x="256.5" y="556.4326">API Gateway</text></a><a href="/microservices/svc-reservations/" target="_top" title="/microservices/svc-reservations/" xlink:actuate="onRequest" xlink:href="/microservices/svc-reservations/" xlink:show="new" xlink:title="/microservices/svc-reservations/" xlink:type="simple"><rect fill="#D1FAE5" height="30.2969" style="stroke: #374151; stroke-width: 1.5;" width="127" x="357.5" y="104.5469"/><text fill="#000000" font-family="Segoe UI" font-size="14" lengthAdjust="spacingAndGlyphs" textLength="113" x="364.5" y="124.542">svc-reservations</text><rect fill="#D1FAE5" height="30.2969" style="stroke: #374151; stroke-width: 1.5;" width="127" x="357.5" y="536.4375"/><text fill="#000000" font-family="Segoe UI" font-size="14" lengthAdjust="spacingAndGlyphs" textLength="113" x="364.5" y="556.4326">svc-reservations</text></a><a href="/microservices/svc-reservations/#data-store" target="_top" title="/microservices/svc-reservations/#data-store" xlink:actuate="onRequest" xlink:href="/microservices/svc-reservations/#data-store" xlink:show="new" xlink:title="/microservices/svc-reservations/#data-store" xlink:type="simple"><text fill="#000000" font-family="Segoe UI" font-size="14" lengthAdjust="spacingAndGlyphs" textLength="81" x="555.5" y="132.542">PostgreSQL</text><path d="M581,83.5469 C581,73.5469 599,73.5469 599,73.5469 C599,73.5469 617,73.5469 617,83.5469 L617,109.5469 C617,119.5469 599,119.5469 599,119.5469 C599,119.5469 581,119.5469 581,109.5469 L581,83.5469 " fill="#FEF9C3" style="stroke: #000000; stroke-width: 1.5;"/><path d="M581,83.5469 C581,93.5469 599,93.5469 599,93.5469 C599,93.5469 617,93.5469 617,83.5469 " fill="none" style="stroke: #000000; stroke-width: 1.5;"/><text fill="#000000" font-family="Segoe UI" font-size="14" lengthAdjust="spacingAndGlyphs" textLength="81" x="555.5" y="549.4326">PostgreSQL</text><path d="M581,562.7344 C581,552.7344 599,552.7344 599,552.7344 C599,552.7344 617,552.7344 617,562.7344 L617,588.7344 C617,598.7344 599,598.7344 599,598.7344 C599,598.7344 581,598.7344 581,588.7344 L581,562.7344 " fill="#FEF9C3" style="stroke: #000000; stroke-width: 1.5;"/><path d="M581,562.7344 C581,572.7344 599,572.7344 599,572.7344 C599,572.7344 617,572.7344 617,562.7344 " fill="none" style="stroke: #000000; stroke-width: 1.5;"/></a><rect fill="#7C3AED" height="317.3281" style="stroke: #6B7280; stroke-width: 1.0;" width="10" x="293.5" y="202.1094"/><rect fill="#7C3AED" height="259.0625" style="stroke: #6B7280; stroke-width: 1.0;" width="10" x="416" y="231.2422"/><rect fill="#FEF9C3" height="29.1328" style="stroke: #6B7280; stroke-width: 1.0;" width="10" x="594" y="338.6406"/><rect fill="#FEF9C3" height="29.1328" style="stroke: #6B7280; stroke-width: 1.0;" width="10" x="594" y="432.0391"/><path d="M350,150.8438 L350,175.8438 L491,175.8438 L491,160.8438 L481,150.8438 L350,150.8438 " fill="#FBFB77" style="stroke: #A80036; stroke-width: 1.0;"/><path d="M481,150.8438 L481,160.8438 L491,160.8438 L481,150.8438 " fill="#FBFB77" style="stroke: #A80036; stroke-width: 1.0;"/><a href="/services/api/svc-reservations.html#/Reservations/updateReservation" target="_top" title="/services/api/svc-reservations.html#/Reservations/updateReservation" xlink:actuate="onRequest" xlink:href="/services/api/svc-reservations.html#/Reservations/updateReservation" xlink:show="new" xlink:title="/services/api/svc-reservations.html#/Reservations/updateReservation" xlink:type="simple"><text fill="#0000FF" font-family="Segoe UI" font-size="13" lengthAdjust="spacingAndGlyphs" text-decoration="underline" textLength="120" x="356" y="167.9106">View in Swagger UI</text></a><polygon fill="#7C3AED" points="281.5,198.1094,291.5,202.1094,281.5,206.1094,285.5,202.1094" style="stroke: #7C3AED; stroke-width: 1.0;"/><line style="stroke: #7C3AED; stroke-width: 1.0;" x1="34.5" x2="287.5" y1="202.1094" y2="202.1094"/><text fill="#000000" font-family="Segoe UI" font-size="13" lengthAdjust="spacingAndGlyphs" textLength="240" x="41.5" y="197.0435">PATCH /reservations/{reservation_id}</text><polygon fill="#7C3AED" points="404,227.2422,414,231.2422,404,235.2422,408,231.2422" style="stroke: #7C3AED; stroke-width: 1.0;"/><line style="stroke: #7C3AED; stroke-width: 1.0;" x1="303.5" x2="410" y1="231.2422" y2="231.2422"/><text fill="#000000" font-family="Segoe UI" font-size="13" lengthAdjust="spacingAndGlyphs" textLength="87" x="310.5" y="226.1763">route request</text><path d="M431,244.2422 L431,269.2422 L592,269.2422 L592,254.2422 L582,244.2422 L431,244.2422 " fill="#FBFB77" style="stroke: #A80036; stroke-width: 1.0;"/><path d="M582,244.2422 L582,254.2422 L592,254.2422 L582,244.2422 " fill="#FBFB77" style="stroke: #A80036; stroke-width: 1.0;"/><text fill="#000000" font-family="Segoe UI" font-size="13" lengthAdjust="spacingAndGlyphs" textLength="140" x="437" y="261.3091">Validate request body</text><rect fill="#EEEEEE" height="3" style="stroke: #EEEEEE; stroke-width: 1.0;" width="644.5" x="3" y="294.9414"/><line style="stroke: #000000; stroke-width: 1.0;" x1="3" x2="647.5" y1="294.9414" y2="294.9414"/><line style="stroke: #000000; stroke-width: 1.0;" x1="3" x2="647.5" y1="297.9414" y2="297.9414"/><rect fill="#EEEEEE" height="23.1328" style="stroke: #000000; stroke-width: 2.0;" width="90" x="280.25" y="284.375"/><text fill="#000000" font-family="Segoe UI" font-size="13" font-weight="bold" lengthAdjust="spacingAndGlyphs" textLength="71" x="286.25" y="300.4419">Database</text><polygon fill="#7C3AED" points="582,334.6406,592,338.6406,582,342.6406,586,338.6406" style="stroke: #7C3AED; stroke-width: 1.0;"/><line style="stroke: #7C3AED; stroke-width: 1.0;" x1="426" x2="588" y1="338.6406" y2="338.6406"/><text fill="#000000" font-family="Segoe UI" font-size="13" lengthAdjust="spacingAndGlyphs" textLength="149" x="433" y="333.5747">SELECT ... FOR UPDATE</text><polygon fill="#7C3AED" points="437,363.7734,427,367.7734,437,371.7734,433,367.7734" style="stroke: #7C3AED; stroke-width: 1.0;"/><line style="stroke: #7C3AED; stroke-width: 1.0; stroke-dasharray: 2.0,2.0;" x1="431" x2="598" y1="367.7734" y2="367.7734"/><text fill="#000000" font-family="Segoe UI" font-size="13" lengthAdjust="spacingAndGlyphs" textLength="74" x="443" y="362.7075">Current row</text><path d="M431,380.7734 L431,405.7734 L618,405.7734 L618,390.7734 L608,380.7734 L431,380.7734 " fill="#FBFB77" style="stroke: #A80036; stroke-width: 1.0;"/><path d="M608,380.7734 L608,390.7734 L618,390.7734 L608,380.7734 " fill="#FBFB77" style="stroke: #A80036; stroke-width: 1.0;"/><text fill="#000000" font-family="Segoe UI" font-size="13" lengthAdjust="spacingAndGlyphs" textLength="166" x="437" y="397.8403">Merge changed fields only</text><polygon fill="#7C3AED" points="582,428.0391,592,432.0391,582,436.0391,586,432.0391" style="stroke: #7C3AED; stroke-width: 1.0;"/><line style="stroke: #7C3AED; stroke-width: 1.0;" x1="426" x2="588" y1="432.0391" y2="432.0391"/><text fill="#000000" font-family="Segoe UI" font-size="13" lengthAdjust="spacingAndGlyphs" textLength="112" x="433" y="426.9731">UPDATE ... SET ...</text><polygon fill="#7C3AED" points="437,457.1719,427,461.1719,437,465.1719,433,461.1719" style="stroke: #7C3AED; stroke-width: 1.0;"/><line style="stroke: #7C3AED; stroke-width: 1.0; stroke-dasharray: 2.0,2.0;" x1="431" x2="598" y1="461.1719" y2="461.1719"/><text fill="#000000" font-family="Segoe UI" font-size="13" lengthAdjust="spacingAndGlyphs" textLength="81" x="443" y="456.106">Updated row</text><polygon fill="#7C3AED" points="314.5,486.3047,304.5,490.3047,314.5,494.3047,310.5,490.3047" style="stroke: #7C3AED; stroke-width: 1.0;"/><line style="stroke: #7C3AED; stroke-width: 1.0; stroke-dasharray: 2.0,2.0;" x1="308.5" x2="420" y1="490.3047" y2="490.3047"/><text fill="#000000" font-family="Segoe UI" font-size="13" lengthAdjust="spacingAndGlyphs" textLength="46" x="320.5" y="485.2388">200 OK</text><polygon fill="#7C3AED" points="45.5,515.4375,35.5,519.4375,45.5,523.4375,41.5,519.4375" style="stroke: #7C3AED; stroke-width: 1.0;"/><line style="stroke: #7C3AED; stroke-width: 1.0; stroke-dasharray: 2.0,2.0;" x1="39.5" x2="297.5" y1="519.4375" y2="519.4375"/><text fill="#000000" font-family="Segoe UI" font-size="13" lengthAdjust="spacingAndGlyphs" textLength="46" x="51.5" y="514.3716">200 OK</text><a href="/microservices/svc-reservations/#integration-context" target="_top" title="/microservices/svc-reservations/#integration-context" xlink:actuate="onRequest" xlink:href="/microservices/svc-reservations/#integration-context" xlink:show="new" xlink:title="/microservices/svc-reservations/#integration-context" xlink:type="simple"><text fill="#0000FF" font-family="Segoe UI" font-size="10" lengthAdjust="spacingAndGlyphs" text-decoration="underline" textLength="190" x="457.5" y="12.2822">⬆ svc-reservations Integration Context</text></a><!--MD5=[d256f00482f02c0de85117faeb112bab]
@startuml svc-reservations- -patch-reservations-reservation_id

skinparam backgroundColor #FEFEFE
skinparam shadowing false
skinparam defaultFontName "Segoe UI"
skinparam sequence {
    ArrowColor #7c3aed
    ParticipantBorderColor #374151
    ParticipantBackgroundColor #F9FAFB
    LifeLineBorderColor #6B7280
    BoxBorderColor #94A3B8
    BoxBackgroundColor #F8FAFC
    NoteBorderColor #64748B
    NoteBackgroundColor #F8FAFC
}

header [[/microservices/svc-reservations/#integration-context ⬆ svc-reservations Integration Context]]

title PATCH /reservations/{reservation_id}\nUpdate a reservation

participant "Client" as Client [[/applications/]]
participant "API Gateway" as GW [[/actors/#api-gateway]] #E0F2FE
participant "svc-reservations" as Svc [[/microservices/svc-reservations/]] #D1FAE5
database "PostgreSQL" as DB [[/microservices/svc-reservations/#data-store]] #FEF9C3

note over Svc
  [[/services/api/svc-reservations.html#/Reservations/updateReservation View in Swagger UI]]
end note

Client -> GW : PATCH /reservations/{reservation_id}
activate GW #7c3aed
GW -> Svc : route request
activate Svc #7c3aed

note right of Svc : Validate request body

== Database ==

Svc -> DB : SELECT ... FOR UPDATE
activate DB #FEF9C3
DB - -> Svc : Current row
deactivate DB
note right of Svc : Merge changed fields only

Svc -> DB : UPDATE ... SET ...
activate DB #FEF9C3
DB - -> Svc : Updated row
deactivate DB

Svc - -> GW : 200 OK
deactivate Svc
GW - -> Client : 200 OK
deactivate GW

@enduml

PlantUML version 1.2020.02(Sun Mar 01 10:22:07 UTC 2020)
(GPL source distribution)
Java Runtime: OpenJDK Runtime Environment
JVM: OpenJDK 64-Bit Server VM
Java Version: 17.0.18+8
Operating System: Linux
Default Encoding: UTF-8
Language: en
Country: null
--></g></svg>