<svg xmlns="http://www.w3.org/2000/svg" xmlns:xlink="http://www.w3.org/1999/xlink" contentStyleType="text/css" data-diagram-type="SEQUENCE" height="603px" preserveAspectRatio="none" style="width:793px;height:603px;background:#FEFEFE;" version="1.1" viewBox="0 0 793 603" width="793px" zoomAndPan="magnify"><title>POST /trails/{trail_id}/waypoints</title><defs/><g><rect fill="#FEFEFE" height="603" style="stroke:none;stroke-width:1;" width="793" x="0" y="0"/><text fill="#000000" font-family="Segoe UI" font-size="14" font-weight="bold" lengthAdjust="spacing" textLength="238.0273" x="273.738" y="28.5352">POST /trails/{trail_id}/waypoints</text><text fill="#000000" font-family="Segoe UI" font-size="14" font-weight="bold" lengthAdjust="spacing" textLength="178.4932" x="303.5051" y="45.0234">Add a waypoint to a trail</text><g><title>API Gateway</title><rect fill="#059669" height="319.1055" style="stroke:#A23B72;stroke-width:1;" width="10" x="254.5693" y="188.0859"/></g><g><title>svc-trail-management</title><rect fill="#059669" height="260.4844" style="stroke:#A23B72;stroke-width:1;" width="10" x="396.4038" y="217.3965"/></g><g><title>PostGIS</title><rect fill="#FCE4EC" height="29.3105" style="stroke:#A23B72;stroke-width:1;" width="10" x="602.8081" y="325.3281"/></g><g><title>PostGIS</title><rect fill="#FCE4EC" height="29.3105" style="stroke:#A23B72;stroke-width:1;" width="10" x="602.8081" y="419.2598"/></g><g><title>Client</title><rect fill="#000000" fill-opacity="0.00000" height="403.7266" width="8" x="27.7524" y="121.4648"/><line style="stroke:#A23B72;stroke-width:0.5;stroke-dasharray:5,5;" x1="31" x2="31" y1="121.4648" y2="525.1914"/></g><g><title>API Gateway</title><rect fill="#000000" fill-opacity="0.00000" height="403.7266" width="8" x="255.5693" y="121.4648"/><line style="stroke:#A23B72;stroke-width:0.5;stroke-dasharray:5,5;" x1="259.2803" x2="259.2803" y1="121.4648" y2="525.1914"/></g><g><title>svc-trail-management</title><rect fill="#000000" fill-opacity="0.00000" height="403.7266" width="8" x="397.4038" y="121.4648"/><line style="stroke:#A23B72;stroke-width:0.5;stroke-dasharray:5,5;" x1="400.8584" x2="400.8584" y1="121.4648" y2="525.1914"/></g><g><title>PostGIS</title><rect fill="#000000" fill-opacity="0.00000" height="403.7266" width="8" x="603.8081" y="121.4648"/><line style="stroke:#A23B72;stroke-width:0.5;stroke-dasharray:5,5;" x1="607.6074" x2="607.6074" y1="121.4648" y2="525.1914"/></g><g class="participant participant-head" data-participant="Client"><rect fill="#E8F4F8" height="30.4883" rx="2.5" ry="2.5" style="stroke:#2E86AB;stroke-width:0.5;" width="53.5049" x="5" y="89.9766"/><text fill="#000000" font-family="Segoe UI" font-size="14" lengthAdjust="spacing" textLength="39.5049" x="12" y="110.5117">Client</text></g><g class="participant participant-tail" data-participant="Client"><rect fill="#E8F4F8" height="30.4883" rx="2.5" ry="2.5" style="stroke:#2E86AB;stroke-width:0.5;" width="53.5049" x="5" y="524.1914"/><text fill="#000000" font-family="Segoe UI" font-size="14" lengthAdjust="spacing" textLength="39.5049" x="12" y="544.7266">Client</text></g><g class="participant participant-head" data-participant="GW"><rect fill="#DBEAFE" height="30.4883" rx="2.5" ry="2.5" style="stroke:#2E86AB;stroke-width:0.5;" width="96.5781" x="211.2803" y="89.9766"/><text fill="#000000" font-family="Segoe UI" font-size="14" lengthAdjust="spacing" textLength="82.5781" x="218.2803" y="110.5117">API Gateway</text></g><g class="participant participant-tail" data-participant="GW"><rect fill="#DBEAFE" height="30.4883" rx="2.5" ry="2.5" style="stroke:#2E86AB;stroke-width:0.5;" width="96.5781" x="211.2803" y="524.1914"/><text fill="#000000" font-family="Segoe UI" font-size="14" lengthAdjust="spacing" textLength="82.5781" x="218.2803" y="544.7266">API Gateway</text></g><g class="participant participant-head" data-participant="Svc"><a href="/microservices/svc-trail-management/" target="_top" title="/microservices/svc-trail-management/" xlink:actuate="onRequest" xlink:href="/microservices/svc-trail-management/" xlink:show="new" xlink:title="/microservices/svc-trail-management/" xlink:type="simple"><rect fill="#E8F4F8" height="30.4883" rx="2.5" ry="2.5" style="stroke:#2E86AB;stroke-width:0.5;" width="167.0908" x="317.8584" y="89.9766"/><text fill="#000000" font-family="Segoe UI" font-size="14" lengthAdjust="spacing" textLength="153.0908" x="324.8584" y="110.5117">svc-trail-management</text></a></g><g class="participant participant-tail" data-participant="Svc"><a href="/microservices/svc-trail-management/" target="_top" title="/microservices/svc-trail-management/" xlink:actuate="onRequest" xlink:href="/microservices/svc-trail-management/" xlink:show="new" xlink:title="/microservices/svc-trail-management/" xlink:type="simple"><rect fill="#E8F4F8" height="30.4883" rx="2.5" ry="2.5" style="stroke:#2E86AB;stroke-width:0.5;" width="167.0908" x="317.8584" y="524.1914"/><text fill="#000000" font-family="Segoe UI" font-size="14" lengthAdjust="spacing" textLength="153.0908" x="324.8584" y="544.7266">svc-trail-management</text></a></g><g class="participant participant-head" data-participant="DB"><text fill="#000000" font-family="Segoe UI" font-size="14" lengthAdjust="spacing" textLength="50.4014" x="579.6074" y="118.5117">PostGIS</text><path d="M589.8081,68.9766 C589.8081,58.9766 607.8081,58.9766 607.8081,58.9766 C607.8081,58.9766 625.8081,58.9766 625.8081,68.9766 L625.8081,94.9766 C625.8081,104.9766 607.8081,104.9766 607.8081,104.9766 C607.8081,104.9766 589.8081,104.9766 589.8081,94.9766 L589.8081,68.9766" fill="#FCE4EC" style="stroke:#181818;stroke-width:0.5;"/><path d="M589.8081,68.9766 C589.8081,78.9766 607.8081,78.9766 607.8081,78.9766 C607.8081,78.9766 625.8081,78.9766 625.8081,68.9766" fill="none" style="stroke:#181818;stroke-width:0.5;"/></g><g class="participant participant-tail" data-participant="DB"><text fill="#000000" font-family="Segoe UI" font-size="14" lengthAdjust="spacing" textLength="50.4014" x="579.6074" y="537.7266">PostGIS</text><path d="M589.8081,550.6797 C589.8081,540.6797 607.8081,540.6797 607.8081,540.6797 C607.8081,540.6797 625.8081,540.6797 625.8081,550.6797 L625.8081,576.6797 C625.8081,586.6797 607.8081,586.6797 607.8081,586.6797 C607.8081,586.6797 589.8081,586.6797 589.8081,576.6797 L589.8081,550.6797" fill="#FCE4EC" style="stroke:#181818;stroke-width:0.5;"/><path d="M589.8081,550.6797 C589.8081,560.6797 607.8081,560.6797 607.8081,560.6797 C607.8081,560.6797 625.8081,560.6797 625.8081,550.6797" fill="none" style="stroke:#181818;stroke-width:0.5;"/></g><g><title>API Gateway</title><rect fill="#059669" height="319.1055" style="stroke:#A23B72;stroke-width:1;" width="10" x="254.5693" y="188.0859"/></g><g><title>svc-trail-management</title><rect fill="#059669" height="260.4844" style="stroke:#A23B72;stroke-width:1;" width="10" x="396.4038" y="217.3965"/></g><g><title>PostGIS</title><rect fill="#FCE4EC" height="29.3105" style="stroke:#A23B72;stroke-width:1;" width="10" x="602.8081" y="325.3281"/></g><g><title>PostGIS</title><rect fill="#FCE4EC" height="29.3105" style="stroke:#A23B72;stroke-width:1;" width="10" x="602.8081" y="419.2598"/></g><path d="M331,136.4648 L331,161.4648 L471,161.4648 L471,146.4648 L461,136.4648 L331,136.4648" fill="#FEFFDD" style="stroke:#181818;stroke-width:0.5;"/><path d="M461,136.4648 L461,146.4648 L471,146.4648 L461,136.4648" fill="#FEFFDD" style="stroke:#181818;stroke-width:0.5;"/><a href="/services/api/svc-trail-management.html#/Waypoints/addWaypoint" target="_top" title="/services/api/svc-trail-management.html#/Waypoints/addWaypoint" xlink:actuate="onRequest" xlink:href="/services/api/svc-trail-management.html#/Waypoints/addWaypoint" xlink:show="new" xlink:title="/services/api/svc-trail-management.html#/Waypoints/addWaypoint" xlink:type="simple"><text fill="#0000FF" font-family="Segoe UI" font-size="13" lengthAdjust="spacing" text-decoration="underline" textLength="119.4058" x="337" y="154.0332">View in Swagger UI</text></a><g class="message" data-participant-1="Client" data-participant-2="GW"><polygon fill="#059669" points="242.5693,184.0859,252.5693,188.0859,242.5693,192.0859,246.5693,188.0859" style="stroke:#059669;stroke-width:1;"/><line style="stroke:#059669;stroke-width:1;" x1="31.7524" x2="248.5693" y1="188.0859" y2="188.0859"/><text fill="#000000" font-family="Segoe UI" font-size="13" lengthAdjust="spacing" textLength="203.8169" x="38.7524" y="183.3438">POST /trails/{trail_id}/waypoints</text></g><g class="message" data-participant-1="GW" data-participant-2="Svc"><polygon fill="#059669" points="384.4038,213.3965,394.4038,217.3965,384.4038,221.3965,388.4038,217.3965" style="stroke:#059669;stroke-width:1;"/><line style="stroke:#059669;stroke-width:1;" x1="264.5693" x2="390.4038" y1="217.3965" y2="217.3965"/><a href="/microservices/svc-trail-management/#post-trailstrail_idwaypoints-add-a-waypoint-to-a-trail" target="_top" title="/microservices/svc-trail-management/#post-trailstrail_idwaypoints-add-a-waypoint-to-a-trail" xlink:actuate="onRequest" xlink:href="/microservices/svc-trail-management/#post-trailstrail_idwaypoints-add-a-waypoint-to-a-trail" xlink:show="new" xlink:title="/microservices/svc-trail-management/#post-trailstrail_idwaypoints-add-a-waypoint-to-a-trail" xlink:type="simple"><text fill="#0000FF" font-family="Segoe UI" font-size="13" lengthAdjust="spacing" text-decoration="underline" textLength="85.1348" x="271.5693" y="212.6543">route request</text></a></g><path d="M411,230.3965 L411,255.3965 L569,255.3965 L569,240.3965 L559,230.3965 L411,230.3965" fill="#FEFFDD" style="stroke:#181818;stroke-width:0.5;"/><path d="M559,230.3965 L559,240.3965 L569,240.3965 L559,230.3965" fill="#FEFFDD" style="stroke:#181818;stroke-width:0.5;"/><text fill="#000000" font-family="Segoe UI" font-size="13" lengthAdjust="spacing" textLength="137.5728" x="417" y="247.9648">Validate request body</text><rect fill="#EEEEEE" height="3" style="stroke:#EEEEEE;stroke-width:1;" width="786.5034" x="0" y="281.3623"/><line style="stroke:#000000;stroke-width:1;" x1="0" x2="786.5034" y1="281.3623" y2="281.3623"/><line style="stroke:#000000;stroke-width:1;" x1="0" x2="786.5034" y1="284.3623" y2="284.3623"/><rect fill="#EEEEEE" height="23.3105" style="stroke:#000000;stroke-width:2;" width="80.3711" x="353.0662" y="270.707"/><text fill="#000000" font-family="Segoe UI" font-size="13" font-weight="bold" lengthAdjust="spacing" textLength="62.0864" x="359.0662" y="287.2754">Database</text><g class="message" data-participant-1="Svc" data-participant-2="DB"><polygon fill="#059669" points="590.8081,321.3281,600.8081,325.3281,590.8081,329.3281,594.8081,325.3281" style="stroke:#059669;stroke-width:1;"/><line style="stroke:#059669;stroke-width:1;" x1="406.4038" x2="596.8081" y1="325.3281" y2="325.3281"/><text fill="#000000" font-family="Segoe UI" font-size="13" lengthAdjust="spacing" textLength="177.4043" x="413.4038" y="320.5859">SELECT parent WHERE id = ?</text></g><g class="message" data-participant-1="DB" data-participant-2="Svc"><polygon fill="#059669" points="417.4038,350.6387,407.4038,354.6387,417.4038,358.6387,413.4038,354.6387" style="stroke:#059669;stroke-width:1;"/><line style="stroke:#059669;stroke-width:1;stroke-dasharray:2,2;" x1="411.4038" x2="606.8081" y1="354.6387" y2="354.6387"/><text fill="#000000" font-family="Segoe UI" font-size="13" lengthAdjust="spacing" textLength="67.2915" x="423.4038" y="349.8965">Parent row</text></g><path d="M612,367.6387 L612,392.6387 L781,392.6387 L781,377.6387 L771,367.6387 L612,367.6387" fill="#FEFFDD" style="stroke:#181818;stroke-width:0.5;"/><path d="M771,367.6387 L771,377.6387 L781,377.6387 L771,367.6387" fill="#FEFFDD" style="stroke:#181818;stroke-width:0.5;"/><text fill="#000000" font-family="Segoe UI" font-size="13" lengthAdjust="spacing" textLength="148.5034" x="618" y="385.207">404 if parent not found</text><g class="message" data-participant-1="Svc" data-participant-2="DB"><polygon fill="#059669" points="590.8081,415.2598,600.8081,419.2598,590.8081,423.2598,594.8081,419.2598" style="stroke:#059669;stroke-width:1;"/><line style="stroke:#059669;stroke-width:1;" x1="406.4038" x2="596.8081" y1="419.2598" y2="419.2598"/><text fill="#000000" font-family="Segoe UI" font-size="13" lengthAdjust="spacing" textLength="96.0718" x="413.4038" y="414.5176">INSERT INTO ...</text></g><g class="message" data-participant-1="DB" data-participant-2="Svc"><polygon fill="#059669" points="417.4038,444.5703,407.4038,448.5703,417.4038,452.5703,413.4038,448.5703" style="stroke:#059669;stroke-width:1;"/><line style="stroke:#059669;stroke-width:1;stroke-dasharray:2,2;" x1="411.4038" x2="606.8081" y1="448.5703" y2="448.5703"/><text fill="#000000" font-family="Segoe UI" font-size="13" lengthAdjust="spacing" textLength="76.4575" x="423.4038" y="443.8281">Created row</text></g><g class="message" data-participant-1="Svc" data-participant-2="GW"><polygon fill="#059669" points="275.5693,473.8809,265.5693,477.8809,275.5693,481.8809,271.5693,477.8809" style="stroke:#059669;stroke-width:1;"/><line style="stroke:#059669;stroke-width:1;stroke-dasharray:2,2;" x1="269.5693" x2="400.4038" y1="477.8809" y2="477.8809"/><text fill="#000000" font-family="Segoe UI" font-size="13" lengthAdjust="spacing" textLength="77.7969" x="281.5693" y="473.1387">201 Created</text></g><g class="message" data-participant-1="GW" data-participant-2="Client"><polygon fill="#059669" points="42.7524,503.1914,32.7524,507.1914,42.7524,511.1914,38.7524,507.1914" style="stroke:#059669;stroke-width:1;"/><line style="stroke:#059669;stroke-width:1;stroke-dasharray:2,2;" x1="36.7524" x2="258.5693" y1="507.1914" y2="507.1914"/><text fill="#000000" font-family="Segoe UI" font-size="13" lengthAdjust="spacing" textLength="77.7969" x="48.7524" y="502.4492">201 Created</text></g><!--SRC=[ZLDTR-8m47pthrZ1SmYbNA6Lk1FGX4EgMjJGyj13foKsgTLWSxQ1LbN_-sq2IQ7br4iU_B7ZcVNisZv9jKI32vXX_9GOlLAyhrDje1e6sSziYR2FoFL6gWJcc5gn5-5YZglKXLgvQrm8g4GYqGBkXfNzu-BFIgXOm2i3-hh6wCrEglxj_EpiFDyUeN4obajKhgSD5sO7QGJjisxl4-HZqa4xR8Rj77Obv-9AAd50qssSzbgDFDxJpmUXyAGTra_Aq2Sxmf3YUVXQkqFMkDMQdUx5ZbXv6hJO6sDEkbJ0w2OQW-yCojJwh_duM_8tVuClIosLixzKbtD0A3R0QLhbGCQMx_U7IZ-LGhaAe8Njz33S7GrXW4uGKOuPJA1wsGkwLDW3d5t7NaxlBL1X8XO5QRIEuU71NyZOQ2lCMiR2-iVG_dHQsi_HuGmjDS98MpSOHZdLPO-Sw0VDeC-O8fj0huN91CWuaYZPSIcFAjGUtIAj-fF291yvBnPmByK6f89eWqb2j7V3wPG9nI5JOcph3NZVCmSklYu0mzZ9DHcNExRhJveIGUR8nNzwKbtI_RVRjb0fDJpAtqElM7jEqof70JKFIPlinLX75ocpoSIBTBOc6fayEj3pNLxtc4gExuTXflaBOvqEN1P5wNGOoy1q5oh91KJ1LT0V0_L3Pj7aPt0RWEJGWH_lkdkrewbNsZ3Q7gAdpBZOGt_8BTTfrfiWvuKE0M2UlP73P8RNKN0xfc5y0xLQxUiC-aPGc1z9OSjRbBnHFocm-xYi_RAw4cpN8_-43YRiBm00]--></g></svg>