<?xml version="1.0" encoding="UTF-8" standalone="no"?><svg xmlns="http://www.w3.org/2000/svg" xmlns:xlink="http://www.w3.org/1999/xlink" contentScriptType="application/ecmascript" contentStyleType="text/css" height="610px" preserveAspectRatio="none" style="width:617px;height:610px;background:#FEFEFE;" version="1.1" viewBox="0 0 617 610" width="617px" zoomAndPan="magnify"><defs/><g><text fill="#000000" font-family="Segoe UI" font-size="18" lengthAdjust="spacingAndGlyphs" textLength="273" x="167.75" y="41.3486">PATCH /locations/{location_id}</text><text fill="#000000" font-family="Segoe UI" font-size="18" lengthAdjust="spacingAndGlyphs" textLength="202" x="203.25" y="62.3018">Update location details</text><rect fill="#7C3AED" height="317.3281" style="stroke: #6B7280; stroke-width: 1.0;" width="10" x="249.5" y="202.1094"/><rect fill="#7C3AED" height="259.0625" style="stroke: #6B7280; stroke-width: 1.0;" width="10" x="387.5" y="231.2422"/><rect fill="#FEF9C3" height="29.1328" style="stroke: #6B7280; stroke-width: 1.0;" width="10" x="565.5" y="338.6406"/><rect fill="#FEF9C3" height="29.1328" style="stroke: #6B7280; stroke-width: 1.0;" width="10" x="565.5" y="432.0391"/><line style="stroke: #6B7280; stroke-width: 1.0; stroke-dasharray: 5.0,5.0;" x1="34" x2="34" y1="135.8438" y2="537.4375"/><line style="stroke: #6B7280; stroke-width: 1.0; stroke-dasharray: 5.0,5.0;" x1="254.5" x2="254.5" y1="135.8438" y2="537.4375"/><line style="stroke: #6B7280; stroke-width: 1.0; stroke-dasharray: 5.0,5.0;" x1="392.5" x2="392.5" y1="135.8438" y2="537.4375"/><line style="stroke: #6B7280; stroke-width: 1.0; stroke-dasharray: 5.0,5.0;" x1="570.5" x2="570.5" y1="135.8438" y2="537.4375"/><a href="/applications/" target="_top" title="/applications/" xlink:actuate="onRequest" xlink:href="/applications/" xlink:show="new" xlink:title="/applications/" xlink:type="simple"><rect fill="#F9FAFB" height="30.2969" style="stroke: #374151; stroke-width: 1.5;" width="53" x="8" y="104.5469"/><text fill="#000000" font-family="Segoe UI" font-size="14" lengthAdjust="spacingAndGlyphs" textLength="39" x="15" y="124.542">Client</text><rect fill="#F9FAFB" height="30.2969" style="stroke: #374151; stroke-width: 1.5;" width="53" x="8" y="536.4375"/><text fill="#000000" font-family="Segoe UI" font-size="14" lengthAdjust="spacingAndGlyphs" textLength="39" x="15" y="556.4326">Client</text></a><a href="/actors/#api-gateway" target="_top" title="/actors/#api-gateway" xlink:actuate="onRequest" xlink:href="/actors/#api-gateway" xlink:show="new" xlink:title="/actors/#api-gateway" xlink:type="simple"><rect fill="#E0F2FE" height="30.2969" style="stroke: #374151; stroke-width: 1.5;" width="98" x="205.5" y="104.5469"/><text fill="#000000" font-family="Segoe UI" font-size="14" lengthAdjust="spacingAndGlyphs" textLength="84" x="212.5" y="124.542">API Gateway</text><rect fill="#E0F2FE" height="30.2969" style="stroke: #374151; stroke-width: 1.5;" width="98" x="205.5" y="536.4375"/><text fill="#000000" font-family="Segoe UI" font-size="14" lengthAdjust="spacingAndGlyphs" textLength="84" x="212.5" y="556.4326">API Gateway</text></a><a href="/microservices/svc-location-services/" target="_top" title="/microservices/svc-location-services/" xlink:actuate="onRequest" xlink:href="/microservices/svc-location-services/" xlink:show="new" xlink:title="/microservices/svc-location-services/" xlink:type="simple"><rect fill="#F1F5F9" height="30.2969" style="stroke: #374151; stroke-width: 1.5;" width="158" x="313.5" y="104.5469"/><text fill="#000000" font-family="Segoe UI" font-size="14" lengthAdjust="spacingAndGlyphs" textLength="144" x="320.5" y="124.542">svc-location-services</text><rect fill="#F1F5F9" height="30.2969" style="stroke: #374151; stroke-width: 1.5;" width="158" x="313.5" y="536.4375"/><text fill="#000000" font-family="Segoe UI" font-size="14" lengthAdjust="spacingAndGlyphs" textLength="144" x="320.5" y="556.4326">svc-location-services</text></a><a href="/microservices/svc-location-services/#data-store" target="_top" title="/microservices/svc-location-services/#data-store" xlink:actuate="onRequest" xlink:href="/microservices/svc-location-services/#data-store" xlink:show="new" xlink:title="/microservices/svc-location-services/#data-store" xlink:type="simple"><text fill="#000000" font-family="Segoe UI" font-size="14" lengthAdjust="spacingAndGlyphs" textLength="54" x="540.5" y="132.542">PostGIS</text><path d="M552.5,83.5469 C552.5,73.5469 570.5,73.5469 570.5,73.5469 C570.5,73.5469 588.5,73.5469 588.5,83.5469 L588.5,109.5469 C588.5,119.5469 570.5,119.5469 570.5,119.5469 C570.5,119.5469 552.5,119.5469 552.5,109.5469 L552.5,83.5469 " fill="#FEF9C3" style="stroke: #000000; stroke-width: 1.5;"/><path d="M552.5,83.5469 C552.5,93.5469 570.5,93.5469 570.5,93.5469 C570.5,93.5469 588.5,93.5469 588.5,83.5469 " fill="none" style="stroke: #000000; stroke-width: 1.5;"/><text fill="#000000" font-family="Segoe UI" font-size="14" lengthAdjust="spacingAndGlyphs" textLength="54" x="540.5" y="549.4326">PostGIS</text><path d="M552.5,562.7344 C552.5,552.7344 570.5,552.7344 570.5,552.7344 C570.5,552.7344 588.5,552.7344 588.5,562.7344 L588.5,588.7344 C588.5,598.7344 570.5,598.7344 570.5,598.7344 C570.5,598.7344 552.5,598.7344 552.5,588.7344 L552.5,562.7344 " fill="#FEF9C3" style="stroke: #000000; stroke-width: 1.5;"/><path d="M552.5,562.7344 C552.5,572.7344 570.5,572.7344 570.5,572.7344 C570.5,572.7344 588.5,572.7344 588.5,562.7344 " fill="none" style="stroke: #000000; stroke-width: 1.5;"/></a><rect fill="#7C3AED" height="317.3281" style="stroke: #6B7280; stroke-width: 1.0;" width="10" x="249.5" y="202.1094"/><rect fill="#7C3AED" height="259.0625" style="stroke: #6B7280; stroke-width: 1.0;" width="10" x="387.5" y="231.2422"/><rect fill="#FEF9C3" height="29.1328" style="stroke: #6B7280; stroke-width: 1.0;" width="10" x="565.5" y="338.6406"/><rect fill="#FEF9C3" height="29.1328" style="stroke: #6B7280; stroke-width: 1.0;" width="10" x="565.5" y="432.0391"/><path d="M322,150.8438 L322,175.8438 L463,175.8438 L463,160.8438 L453,150.8438 L322,150.8438 " fill="#FBFB77" style="stroke: #A80036; stroke-width: 1.0;"/><path d="M453,150.8438 L453,160.8438 L463,160.8438 L453,150.8438 " fill="#FBFB77" style="stroke: #A80036; stroke-width: 1.0;"/><a href="/services/api/svc-location-services.html" target="_top" title="/services/api/svc-location-services.html" xlink:actuate="onRequest" xlink:href="/services/api/svc-location-services.html" xlink:show="new" xlink:title="/services/api/svc-location-services.html" xlink:type="simple"><text fill="#0000FF" font-family="Segoe UI" font-size="13" lengthAdjust="spacingAndGlyphs" text-decoration="underline" textLength="120" x="328" y="167.9106">View in Swagger UI</text></a><polygon fill="#7C3AED" points="237.5,198.1094,247.5,202.1094,237.5,206.1094,241.5,202.1094" style="stroke: #7C3AED; stroke-width: 1.0;"/><line style="stroke: #7C3AED; stroke-width: 1.0;" x1="34.5" x2="243.5" y1="202.1094" y2="202.1094"/><text fill="#000000" font-family="Segoe UI" font-size="13" lengthAdjust="spacingAndGlyphs" textLength="196" x="41.5" y="197.0435">PATCH /locations/{location_id}</text><polygon fill="#7C3AED" points="375.5,227.2422,385.5,231.2422,375.5,235.2422,379.5,231.2422" style="stroke: #7C3AED; stroke-width: 1.0;"/><line style="stroke: #7C3AED; stroke-width: 1.0;" x1="259.5" x2="381.5" y1="231.2422" y2="231.2422"/><text fill="#000000" font-family="Segoe UI" font-size="13" lengthAdjust="spacingAndGlyphs" textLength="87" x="266.5" y="226.1763">route request</text><path d="M402,244.2422 L402,269.2422 L563,269.2422 L563,254.2422 L553,244.2422 L402,244.2422 " fill="#FBFB77" style="stroke: #A80036; stroke-width: 1.0;"/><path d="M553,244.2422 L553,254.2422 L563,254.2422 L553,244.2422 " fill="#FBFB77" style="stroke: #A80036; stroke-width: 1.0;"/><text fill="#000000" font-family="Segoe UI" font-size="13" lengthAdjust="spacingAndGlyphs" textLength="140" x="408" y="261.3091">Validate request body</text><rect fill="#EEEEEE" height="3" style="stroke: #EEEEEE; stroke-width: 1.0;" width="602.5" x="3" y="294.9414"/><line style="stroke: #000000; stroke-width: 1.0;" x1="3" x2="605.5" y1="294.9414" y2="294.9414"/><line style="stroke: #000000; stroke-width: 1.0;" x1="3" x2="605.5" y1="297.9414" y2="297.9414"/><rect fill="#EEEEEE" height="23.1328" style="stroke: #000000; stroke-width: 2.0;" width="90" x="259.25" y="284.375"/><text fill="#000000" font-family="Segoe UI" font-size="13" font-weight="bold" lengthAdjust="spacingAndGlyphs" textLength="71" x="265.25" y="300.4419">Database</text><polygon fill="#7C3AED" points="553.5,334.6406,563.5,338.6406,553.5,342.6406,557.5,338.6406" style="stroke: #7C3AED; stroke-width: 1.0;"/><line style="stroke: #7C3AED; stroke-width: 1.0;" x1="397.5" x2="559.5" y1="338.6406" y2="338.6406"/><text fill="#000000" font-family="Segoe UI" font-size="13" lengthAdjust="spacingAndGlyphs" textLength="149" x="404.5" y="333.5747">SELECT ... FOR UPDATE</text><polygon fill="#7C3AED" points="408.5,363.7734,398.5,367.7734,408.5,371.7734,404.5,367.7734" style="stroke: #7C3AED; stroke-width: 1.0;"/><line style="stroke: #7C3AED; stroke-width: 1.0; stroke-dasharray: 2.0,2.0;" x1="402.5" x2="569.5" y1="367.7734" y2="367.7734"/><text fill="#000000" font-family="Segoe UI" font-size="13" lengthAdjust="spacingAndGlyphs" textLength="74" x="414.5" y="362.7075">Current row</text><path d="M402,380.7734 L402,405.7734 L589,405.7734 L589,390.7734 L579,380.7734 L402,380.7734 " fill="#FBFB77" style="stroke: #A80036; stroke-width: 1.0;"/><path d="M579,380.7734 L579,390.7734 L589,390.7734 L579,380.7734 " fill="#FBFB77" style="stroke: #A80036; stroke-width: 1.0;"/><text fill="#000000" font-family="Segoe UI" font-size="13" lengthAdjust="spacingAndGlyphs" textLength="166" x="408" y="397.8403">Merge changed fields only</text><polygon fill="#7C3AED" points="553.5,428.0391,563.5,432.0391,553.5,436.0391,557.5,432.0391" style="stroke: #7C3AED; stroke-width: 1.0;"/><line style="stroke: #7C3AED; stroke-width: 1.0;" x1="397.5" x2="559.5" y1="432.0391" y2="432.0391"/><text fill="#000000" font-family="Segoe UI" font-size="13" lengthAdjust="spacingAndGlyphs" textLength="112" x="404.5" y="426.9731">UPDATE ... SET ...</text><polygon fill="#7C3AED" points="408.5,457.1719,398.5,461.1719,408.5,465.1719,404.5,461.1719" style="stroke: #7C3AED; stroke-width: 1.0;"/><line style="stroke: #7C3AED; stroke-width: 1.0; stroke-dasharray: 2.0,2.0;" x1="402.5" x2="569.5" y1="461.1719" y2="461.1719"/><text fill="#000000" font-family="Segoe UI" font-size="13" lengthAdjust="spacingAndGlyphs" textLength="81" x="414.5" y="456.106">Updated row</text><polygon fill="#7C3AED" points="270.5,486.3047,260.5,490.3047,270.5,494.3047,266.5,490.3047" style="stroke: #7C3AED; stroke-width: 1.0;"/><line style="stroke: #7C3AED; stroke-width: 1.0; stroke-dasharray: 2.0,2.0;" x1="264.5" x2="391.5" y1="490.3047" y2="490.3047"/><text fill="#000000" font-family="Segoe UI" font-size="13" lengthAdjust="spacingAndGlyphs" textLength="46" x="276.5" y="485.2388">200 OK</text><polygon fill="#7C3AED" points="45.5,515.4375,35.5,519.4375,45.5,523.4375,41.5,519.4375" style="stroke: #7C3AED; stroke-width: 1.0;"/><line style="stroke: #7C3AED; stroke-width: 1.0; stroke-dasharray: 2.0,2.0;" x1="39.5" x2="253.5" y1="519.4375" y2="519.4375"/><text fill="#000000" font-family="Segoe UI" font-size="13" lengthAdjust="spacingAndGlyphs" textLength="46" x="51.5" y="514.3716">200 OK</text><a href="/microservices/svc-location-services/#integration-context" target="_top" title="/microservices/svc-location-services/#integration-context" xlink:actuate="onRequest" xlink:href="/microservices/svc-location-services/#integration-context" xlink:show="new" xlink:title="/microservices/svc-location-services/#integration-context" xlink:type="simple"><text fill="#0000FF" font-family="Segoe UI" font-size="10" lengthAdjust="spacingAndGlyphs" text-decoration="underline" textLength="210" x="395.5" y="12.2822">⬆ svc-location-services Integration Context</text></a><!--MD5=[90fe9d4021b498de81207280056964fd]
@startuml svc-location-services- -patch-locations-location_id

skinparam backgroundColor #FEFEFE
skinparam shadowing false
skinparam defaultFontName "Segoe UI"
skinparam sequence {
    ArrowColor #7c3aed
    ParticipantBorderColor #374151
    ParticipantBackgroundColor #F9FAFB
    LifeLineBorderColor #6B7280
    BoxBorderColor #94A3B8
    BoxBackgroundColor #F8FAFC
    NoteBorderColor #64748B
    NoteBackgroundColor #F8FAFC
}

header [[/microservices/svc-location-services/#integration-context ⬆ svc-location-services Integration Context]]

title PATCH /locations/{location_id}\nUpdate location details

participant "Client" as Client [[/applications/]]
participant "API Gateway" as GW [[/actors/#api-gateway]] #E0F2FE
participant "svc-location-services" as Svc [[/microservices/svc-location-services/]] #F1F5F9
database "PostGIS" as DB [[/microservices/svc-location-services/#data-store]] #FEF9C3

note over Svc
  [[/services/api/svc-location-services.html View in Swagger UI]]
end note

Client -> GW : PATCH /locations/{location_id}
activate GW #7c3aed
GW -> Svc : route request
activate Svc #7c3aed

note right of Svc : Validate request body

== Database ==

Svc -> DB : SELECT ... FOR UPDATE
activate DB #FEF9C3
DB - -> Svc : Current row
deactivate DB
note right of Svc : Merge changed fields only

Svc -> DB : UPDATE ... SET ...
activate DB #FEF9C3
DB - -> Svc : Updated row
deactivate DB

Svc - -> GW : 200 OK
deactivate Svc
GW - -> Client : 200 OK
deactivate GW

@enduml

PlantUML version 1.2020.02(Sun Mar 01 10:22:07 UTC 2020)
(GPL source distribution)
Java Runtime: OpenJDK Runtime Environment
JVM: OpenJDK 64-Bit Server VM
Java Version: 17.0.18+8
Operating System: Linux
Default Encoding: UTF-8
Language: en
Country: null
--></g></svg>