<?xml version="1.0" encoding="UTF-8" standalone="no"?><svg xmlns="http://www.w3.org/2000/svg" xmlns:xlink="http://www.w3.org/1999/xlink" contentScriptType="application/ecmascript" contentStyleType="text/css" height="836px" preserveAspectRatio="none" style="width:1044px;height:836px;background:#FEFEFE;" version="1.1" viewBox="0 0 1044 836" width="1044px" zoomAndPan="magnify"><defs/><g><text fill="#000000" font-family="Segoe UI" font-size="18" lengthAdjust="spacingAndGlyphs" textLength="169" x="433" y="41.3486">POST /reservations</text><text fill="#000000" font-family="Segoe UI" font-size="18" lengthAdjust="spacingAndGlyphs" textLength="227" x="404" y="62.3018">Create a new reservation</text><rect fill="#059669" height="543.2578" style="stroke: #6B7280; stroke-width: 1.0;" width="10" x="174.5" y="202.1094"/><rect fill="#059669" height="484.9922" style="stroke: #6B7280; stroke-width: 1.0;" width="10" x="297" y="231.2422"/><rect fill="#EDE9FE" height="29.1328" style="stroke: #6B7280; stroke-width: 1.0;" width="10" x="469" y="338.6406"/><rect fill="#FEF3C7" height="29.1328" style="stroke: #6B7280; stroke-width: 1.0;" width="10" x="582" y="396.9063"/><rect fill="#F1F5F9" height="29.1328" style="stroke: #6B7280; stroke-width: 1.0;" width="10" x="695" y="455.1719"/><rect fill="#FEF9C3" height="29.1328" style="stroke: #6B7280; stroke-width: 1.0;" width="10" x="978.5" y="556.5703"/><line style="stroke: #6B7280; stroke-width: 1.0; stroke-dasharray: 5.0,5.0;" x1="34" x2="34" y1="135.8438" y2="763.3672"/><line style="stroke: #6B7280; stroke-width: 1.0; stroke-dasharray: 5.0,5.0;" x1="179.5" x2="179.5" y1="135.8438" y2="763.3672"/><line style="stroke: #6B7280; stroke-width: 1.0; stroke-dasharray: 5.0,5.0;" x1="301.5" x2="301.5" y1="135.8438" y2="763.3672"/><line style="stroke: #6B7280; stroke-width: 1.0; stroke-dasharray: 5.0,5.0;" x1="474" x2="474" y1="135.8438" y2="763.3672"/><line style="stroke: #6B7280; stroke-width: 1.0; stroke-dasharray: 5.0,5.0;" x1="587" x2="587" y1="135.8438" y2="763.3672"/><line style="stroke: #6B7280; stroke-width: 1.0; stroke-dasharray: 5.0,5.0;" x1="700" x2="700" y1="135.8438" y2="763.3672"/><line style="stroke: #6B7280; stroke-width: 1.0; stroke-dasharray: 5.0,5.0;" x1="793" x2="793" y1="135.8438" y2="763.3672"/><line style="stroke: #6B7280; stroke-width: 1.0; stroke-dasharray: 5.0,5.0;" x1="881" x2="881" y1="135.8438" y2="763.3672"/><line style="stroke: #6B7280; stroke-width: 1.0; stroke-dasharray: 5.0,5.0;" x1="983" x2="983" y1="135.8438" y2="763.3672"/><a href="/applications/" target="_top" title="/applications/" xlink:actuate="onRequest" xlink:href="/applications/" xlink:show="new" xlink:title="/applications/" xlink:type="simple"><rect fill="#F9FAFB" height="30.2969" style="stroke: #374151; stroke-width: 1.5;" width="53" x="8" y="104.5469"/><text fill="#000000" font-family="Segoe UI" font-size="14" lengthAdjust="spacingAndGlyphs" textLength="39" x="15" y="124.542">Client</text><rect fill="#F9FAFB" height="30.2969" style="stroke: #374151; stroke-width: 1.5;" width="53" x="8" y="762.3672"/><text fill="#000000" font-family="Segoe UI" font-size="14" lengthAdjust="spacingAndGlyphs" textLength="39" x="15" y="782.3623">Client</text></a><a href="/actors/#api-gateway" target="_top" title="/actors/#api-gateway" xlink:actuate="onRequest" xlink:href="/actors/#api-gateway" xlink:show="new" xlink:title="/actors/#api-gateway" xlink:type="simple"><rect fill="#E0F2FE" height="30.2969" style="stroke: #374151; stroke-width: 1.5;" width="98" x="130.5" y="104.5469"/><text fill="#000000" font-family="Segoe UI" font-size="14" lengthAdjust="spacingAndGlyphs" textLength="84" x="137.5" y="124.542">API Gateway</text><rect fill="#E0F2FE" height="30.2969" style="stroke: #374151; stroke-width: 1.5;" width="98" x="130.5" y="762.3672"/><text fill="#000000" font-family="Segoe UI" font-size="14" lengthAdjust="spacingAndGlyphs" textLength="84" x="137.5" y="782.3623">API Gateway</text></a><a href="/microservices/svc-reservations/" target="_top" title="/microservices/svc-reservations/" xlink:actuate="onRequest" xlink:href="/microservices/svc-reservations/" xlink:show="new" xlink:title="/microservices/svc-reservations/" xlink:type="simple"><rect fill="#D1FAE5" height="30.2969" style="stroke: #374151; stroke-width: 1.5;" width="127" x="238.5" y="104.5469"/><text fill="#000000" font-family="Segoe UI" font-size="14" lengthAdjust="spacingAndGlyphs" textLength="113" x="245.5" y="124.542">svc-reservations</text><rect fill="#D1FAE5" height="30.2969" style="stroke: #374151; stroke-width: 1.5;" width="127" x="238.5" y="762.3672"/><text fill="#000000" font-family="Segoe UI" font-size="14" lengthAdjust="spacingAndGlyphs" textLength="113" x="245.5" y="782.3623">svc-reservations</text></a><a href="/microservices/svc-guest-profiles/" target="_top" title="/microservices/svc-guest-profiles/" xlink:actuate="onRequest" xlink:href="/microservices/svc-guest-profiles/" xlink:show="new" xlink:title="/microservices/svc-guest-profiles/" xlink:type="simple"><rect fill="#EDE9FE" height="30.2969" style="stroke: #374151; stroke-width: 1.5;" width="110" x="419" y="104.5469"/><text fill="#000000" font-family="Segoe UI" font-size="14" lengthAdjust="spacingAndGlyphs" textLength="96" x="426" y="124.542">Guest Profiles</text><rect fill="#EDE9FE" height="30.2969" style="stroke: #374151; stroke-width: 1.5;" width="110" x="419" y="762.3672"/><text fill="#000000" font-family="Segoe UI" font-size="14" lengthAdjust="spacingAndGlyphs" textLength="96" x="426" y="782.3623">Guest Profiles</text></a><a href="/microservices/svc-trip-catalog/" target="_top" title="/microservices/svc-trip-catalog/" xlink:actuate="onRequest" xlink:href="/microservices/svc-trip-catalog/" xlink:show="new" xlink:title="/microservices/svc-trip-catalog/" xlink:type="simple"><rect fill="#FEF3C7" height="30.2969" style="stroke: #374151; stroke-width: 1.5;" width="96" x="539" y="104.5469"/><text fill="#000000" font-family="Segoe UI" font-size="14" lengthAdjust="spacingAndGlyphs" textLength="82" x="546" y="124.542">Trip Catalog</text><rect fill="#FEF3C7" height="30.2969" style="stroke: #374151; stroke-width: 1.5;" width="96" x="539" y="762.3672"/><text fill="#000000" font-family="Segoe UI" font-size="14" lengthAdjust="spacingAndGlyphs" textLength="82" x="546" y="782.3623">Trip Catalog</text></a><a href="/microservices/svc-payments/" target="_top" title="/microservices/svc-payments/" xlink:actuate="onRequest" xlink:href="/microservices/svc-payments/" xlink:show="new" xlink:title="/microservices/svc-payments/" xlink:type="simple"><rect fill="#FEE2E2" height="30.2969" style="stroke: #374151; stroke-width: 1.5;" width="110" x="645" y="104.5469"/><text fill="#000000" font-family="Segoe UI" font-size="14" lengthAdjust="spacingAndGlyphs" textLength="96" x="652" y="124.542">Payments Svc</text><rect fill="#FEE2E2" height="30.2969" style="stroke: #374151; stroke-width: 1.5;" width="110" x="645" y="762.3672"/><text fill="#000000" font-family="Segoe UI" font-size="14" lengthAdjust="spacingAndGlyphs" textLength="96" x="652" y="782.3623">Payments Svc</text></a><a href="/actors/#event-bus" target="_top" title="/actors/#event-bus" xlink:actuate="onRequest" xlink:href="/actors/#event-bus" xlink:show="new" xlink:title="/actors/#event-bus" xlink:type="simple"><path d="M770,109.5469 L817,109.5469 C822,109.5469 822,122.6953 822,122.6953 C822,122.6953 822,135.8438 817,135.8438 L770,135.8438 C765,135.8438 765,122.6953 765,122.6953 C765,122.6953 765,109.5469 770,109.5469 " fill="#F5F3FF" style="stroke: #A80036; stroke-width: 2.0;"/><path d="M817,109.5469 C812,109.5469 812,122.6953 812,122.6953 C812,135.8438 817,135.8438 817,135.8438 " fill="none" style="stroke: #A80036; stroke-width: 2.0;"/><text fill="#000000" font-family="Segoe UI" font-size="14" lengthAdjust="spacingAndGlyphs" textLength="37" x="770" y="127.542">Kafka</text><path d="M770,762.3672 L817,762.3672 C822,762.3672 822,775.5156 822,775.5156 C822,775.5156 822,788.6641 817,788.6641 L770,788.6641 C765,788.6641 765,775.5156 765,775.5156 C765,775.5156 765,762.3672 770,762.3672 " fill="#F5F3FF" style="stroke: #A80036; stroke-width: 2.0;"/><path d="M817,762.3672 C812,762.3672 812,775.5156 812,775.5156 C812,788.6641 817,788.6641 817,788.6641 " fill="none" style="stroke: #A80036; stroke-width: 2.0;"/><text fill="#000000" font-family="Segoe UI" font-size="14" lengthAdjust="spacingAndGlyphs" textLength="37" x="770" y="780.3623">Kafka</text></a><a href="/microservices/svc-notifications/" target="_top" title="/microservices/svc-notifications/" xlink:actuate="onRequest" xlink:href="/microservices/svc-notifications/" xlink:show="new" xlink:title="/microservices/svc-notifications/" xlink:type="simple"><rect fill="#F1F5F9" height="30.2969" style="stroke: #374151; stroke-width: 1.5;" width="98" x="832" y="104.5469"/><text fill="#000000" font-family="Segoe UI" font-size="14" lengthAdjust="spacingAndGlyphs" textLength="84" x="839" y="124.542">Notifications</text><rect fill="#F1F5F9" height="30.2969" style="stroke: #374151; stroke-width: 1.5;" width="98" x="832" y="762.3672"/><text fill="#000000" font-family="Segoe UI" font-size="14" lengthAdjust="spacingAndGlyphs" textLength="84" x="839" y="782.3623">Notifications</text></a><a href="/microservices/svc-reservations/#data-store" target="_top" title="/microservices/svc-reservations/#data-store" xlink:actuate="onRequest" xlink:href="/microservices/svc-reservations/#data-store" xlink:show="new" xlink:title="/microservices/svc-reservations/#data-store" xlink:type="simple"><text fill="#000000" font-family="Segoe UI" font-size="14" lengthAdjust="spacingAndGlyphs" textLength="81" x="940" y="132.542">PostgreSQL</text><path d="M965.5,83.5469 C965.5,73.5469 983.5,73.5469 983.5,73.5469 C983.5,73.5469 1001.5,73.5469 1001.5,83.5469 L1001.5,109.5469 C1001.5,119.5469 983.5,119.5469 983.5,119.5469 C983.5,119.5469 965.5,119.5469 965.5,109.5469 L965.5,83.5469 " fill="#FEF9C3" style="stroke: #000000; stroke-width: 1.5;"/><path d="M965.5,83.5469 C965.5,93.5469 983.5,93.5469 983.5,93.5469 C983.5,93.5469 1001.5,93.5469 1001.5,83.5469 " fill="none" style="stroke: #000000; stroke-width: 1.5;"/><text fill="#000000" font-family="Segoe UI" font-size="14" lengthAdjust="spacingAndGlyphs" textLength="81" x="940" y="775.3623">PostgreSQL</text><path d="M965.5,788.6641 C965.5,778.6641 983.5,778.6641 983.5,778.6641 C983.5,778.6641 1001.5,778.6641 1001.5,788.6641 L1001.5,814.6641 C1001.5,824.6641 983.5,824.6641 983.5,824.6641 C983.5,824.6641 965.5,824.6641 965.5,814.6641 L965.5,788.6641 " fill="#FEF9C3" style="stroke: #000000; stroke-width: 1.5;"/><path d="M965.5,788.6641 C965.5,798.6641 983.5,798.6641 983.5,798.6641 C983.5,798.6641 1001.5,798.6641 1001.5,788.6641 " fill="none" style="stroke: #000000; stroke-width: 1.5;"/></a><rect fill="#059669" height="543.2578" style="stroke: #6B7280; stroke-width: 1.0;" width="10" x="174.5" y="202.1094"/><rect fill="#059669" height="484.9922" style="stroke: #6B7280; stroke-width: 1.0;" width="10" x="297" y="231.2422"/><rect fill="#EDE9FE" height="29.1328" style="stroke: #6B7280; stroke-width: 1.0;" width="10" x="469" y="338.6406"/><rect fill="#FEF3C7" height="29.1328" style="stroke: #6B7280; stroke-width: 1.0;" width="10" x="582" y="396.9063"/><rect fill="#F1F5F9" height="29.1328" style="stroke: #6B7280; stroke-width: 1.0;" width="10" x="695" y="455.1719"/><rect fill="#FEF9C3" height="29.1328" style="stroke: #6B7280; stroke-width: 1.0;" width="10" x="978.5" y="556.5703"/><path d="M231,150.8438 L231,175.8438 L372,175.8438 L372,160.8438 L362,150.8438 L231,150.8438 " fill="#FBFB77" style="stroke: #A80036; stroke-width: 1.0;"/><path d="M362,150.8438 L362,160.8438 L372,160.8438 L362,150.8438 " fill="#FBFB77" style="stroke: #A80036; stroke-width: 1.0;"/><a href="/services/api/svc-reservations.html#/Reservations/createReservation" target="_top" title="/services/api/svc-reservations.html#/Reservations/createReservation" xlink:actuate="onRequest" xlink:href="/services/api/svc-reservations.html#/Reservations/createReservation" xlink:show="new" xlink:title="/services/api/svc-reservations.html#/Reservations/createReservation" xlink:type="simple"><text fill="#0000FF" font-family="Segoe UI" font-size="13" lengthAdjust="spacingAndGlyphs" text-decoration="underline" textLength="120" x="237" y="167.9106">View in Swagger UI</text></a><polygon fill="#059669" points="162.5,198.1094,172.5,202.1094,162.5,206.1094,166.5,202.1094" style="stroke: #059669; stroke-width: 1.0;"/><line style="stroke: #059669; stroke-width: 1.0;" x1="34.5" x2="168.5" y1="202.1094" y2="202.1094"/><text fill="#000000" font-family="Segoe UI" font-size="13" lengthAdjust="spacingAndGlyphs" textLength="121" x="41.5" y="197.0435">POST /reservations</text><polygon fill="#059669" points="285,227.2422,295,231.2422,285,235.2422,289,231.2422" style="stroke: #059669; stroke-width: 1.0;"/><line style="stroke: #059669; stroke-width: 1.0;" x1="184.5" x2="291" y1="231.2422" y2="231.2422"/><text fill="#000000" font-family="Segoe UI" font-size="13" lengthAdjust="spacingAndGlyphs" textLength="87" x="191.5" y="226.1763">route request</text><path d="M312,244.2422 L312,269.2422 L473,269.2422 L473,254.2422 L463,244.2422 L312,244.2422 " fill="#FBFB77" style="stroke: #A80036; stroke-width: 1.0;"/><path d="M463,244.2422 L463,254.2422 L473,254.2422 L463,244.2422 " fill="#FBFB77" style="stroke: #A80036; stroke-width: 1.0;"/><text fill="#000000" font-family="Segoe UI" font-size="13" lengthAdjust="spacingAndGlyphs" textLength="140" x="318" y="261.3091">Validate request body</text><rect fill="#EEEEEE" height="3" style="stroke: #EEEEEE; stroke-width: 1.0;" width="1029" x="3" y="294.9414"/><line style="stroke: #000000; stroke-width: 1.0;" x1="3" x2="1032" y1="294.9414" y2="294.9414"/><line style="stroke: #000000; stroke-width: 1.0;" x1="3" x2="1032" y1="297.9414" y2="297.9414"/><rect fill="#EEEEEE" height="23.1328" style="stroke: #000000; stroke-width: 2.0;" width="204" x="415.5" y="284.375"/><text fill="#000000" font-family="Segoe UI" font-size="13" font-weight="bold" lengthAdjust="spacingAndGlyphs" textLength="185" x="421.5" y="300.4419">Cross-Service Integration</text><polygon fill="#059669" points="457,334.6406,467,338.6406,457,342.6406,461,338.6406" style="stroke: #059669; stroke-width: 1.0;"/><line style="stroke: #059669; stroke-width: 1.0;" x1="307" x2="463" y1="338.6406" y2="338.6406"/><a href="/microservices/svc-guest-profiles/#get-guestsguest_id-get-guest-profile" target="_top" title="/microservices/svc-guest-profiles/#get-guestsguest_id-get-guest-profile" xlink:actuate="onRequest" xlink:href="/microservices/svc-guest-profiles/#get-guestsguest_id-get-guest-profile" xlink:show="new" xlink:title="/microservices/svc-guest-profiles/#get-guestsguest_id-get-guest-profile" xlink:type="simple"><text fill="#0000FF" font-family="Segoe UI" font-size="13" lengthAdjust="spacingAndGlyphs" text-decoration="underline" textLength="143" x="314" y="333.5747">Validate guest identity</text></a><polygon fill="#059669" points="318,363.7734,308,367.7734,318,371.7734,314,367.7734" style="stroke: #059669; stroke-width: 1.0;"/><line style="stroke: #059669; stroke-width: 1.0; stroke-dasharray: 2.0,2.0;" x1="312" x2="473" y1="367.7734" y2="367.7734"/><text fill="#000000" font-family="Segoe UI" font-size="13" lengthAdjust="spacingAndGlyphs" textLength="18" x="324" y="362.7075">OK</text><polygon fill="#059669" points="570,392.9063,580,396.9063,570,400.9063,574,396.9063" style="stroke: #059669; stroke-width: 1.0;"/><line style="stroke: #059669; stroke-width: 1.0;" x1="307" x2="576" y1="396.9063" y2="396.9063"/><a href="/microservices/svc-trip-catalog/#get-tripstrip_id-get-trip-details" target="_top" title="/microservices/svc-trip-catalog/#get-tripstrip_id-get-trip-details" xlink:actuate="onRequest" xlink:href="/microservices/svc-trip-catalog/#get-tripstrip_id-get-trip-details" xlink:show="new" xlink:title="/microservices/svc-trip-catalog/#get-tripstrip_id-get-trip-details" xlink:type="simple"><text fill="#0000FF" font-family="Segoe UI" font-size="13" lengthAdjust="spacingAndGlyphs" text-decoration="underline" textLength="134" x="314" y="391.8403">Check trip availability</text></a><polygon fill="#059669" points="318,422.0391,308,426.0391,318,430.0391,314,426.0391" style="stroke: #059669; stroke-width: 1.0;"/><line style="stroke: #059669; stroke-width: 1.0; stroke-dasharray: 2.0,2.0;" x1="312" x2="586" y1="426.0391" y2="426.0391"/><text fill="#000000" font-family="Segoe UI" font-size="13" lengthAdjust="spacingAndGlyphs" textLength="18" x="324" y="420.9731">OK</text><polygon fill="#DC2626" points="683,451.1719,693,455.1719,683,459.1719,687,455.1719" style="stroke: #DC2626; stroke-width: 1.0;"/><line style="stroke: #DC2626; stroke-width: 1.0;" x1="307" x2="689" y1="455.1719" y2="455.1719"/><a href="/microservices/svc-payments/#post-payments-process-a-payment" target="_top" title="/microservices/svc-payments/#post-payments-process-a-payment" xlink:actuate="onRequest" xlink:href="/microservices/svc-payments/#post-payments-process-a-payment" xlink:show="new" xlink:title="/microservices/svc-payments/#post-payments-process-a-payment" xlink:type="simple"><text fill="#0000FF" font-family="Segoe UI" font-size="13" lengthAdjust="spacingAndGlyphs" text-decoration="underline" textLength="162" x="314" y="450.106">Process deposit payment</text></a><polygon fill="#DC2626" points="318,480.3047,308,484.3047,318,488.3047,314,484.3047" style="stroke: #DC2626; stroke-width: 1.0;"/><line style="stroke: #DC2626; stroke-width: 1.0; stroke-dasharray: 2.0,2.0;" x1="312" x2="699" y1="484.3047" y2="484.3047"/><text fill="#000000" font-family="Segoe UI" font-size="13" lengthAdjust="spacingAndGlyphs" textLength="18" x="324" y="479.2388">OK</text><rect fill="#EEEEEE" height="3" style="stroke: #EEEEEE; stroke-width: 1.0;" width="1029" x="3" y="512.8711"/><line style="stroke: #000000; stroke-width: 1.0;" x1="3" x2="1032" y1="512.8711" y2="512.8711"/><line style="stroke: #000000; stroke-width: 1.0;" x1="3" x2="1032" y1="515.8711" y2="515.8711"/><rect fill="#EEEEEE" height="23.1328" style="stroke: #000000; stroke-width: 2.0;" width="90" x="472.5" y="502.3047"/><text fill="#000000" font-family="Segoe UI" font-size="13" font-weight="bold" lengthAdjust="spacingAndGlyphs" textLength="71" x="478.5" y="518.3716">Database</text><polygon fill="#059669" points="966.5,552.5703,976.5,556.5703,966.5,560.5703,970.5,556.5703" style="stroke: #059669; stroke-width: 1.0;"/><line style="stroke: #059669; stroke-width: 1.0;" x1="307" x2="972.5" y1="556.5703" y2="556.5703"/><text fill="#000000" font-family="Segoe UI" font-size="13" lengthAdjust="spacingAndGlyphs" textLength="95" x="314" y="551.5044">INSERT INTO ...</text><polygon fill="#059669" points="318,581.7031,308,585.7031,318,589.7031,314,585.7031" style="stroke: #059669; stroke-width: 1.0;"/><line style="stroke: #059669; stroke-width: 1.0; stroke-dasharray: 2.0,2.0;" x1="312" x2="982.5" y1="585.7031" y2="585.7031"/><text fill="#000000" font-family="Segoe UI" font-size="13" lengthAdjust="spacingAndGlyphs" textLength="77" x="324" y="580.6372">Created row</text><rect fill="#EEEEEE" height="3" style="stroke: #EEEEEE; stroke-width: 1.0;" width="1029" x="3" y="614.2695"/><line style="stroke: #000000; stroke-width: 1.0;" x1="3" x2="1032" y1="614.2695" y2="614.2695"/><line style="stroke: #000000; stroke-width: 1.0;" x1="3" x2="1032" y1="617.2695" y2="617.2695"/><rect fill="#EEEEEE" height="23.1328" style="stroke: #000000; stroke-width: 2.0;" width="116" x="459.5" y="603.7031"/><text fill="#000000" font-family="Segoe UI" font-size="13" font-weight="bold" lengthAdjust="spacingAndGlyphs" textLength="97" x="465.5" y="619.77">Async Events</text><line style="stroke: #059669; stroke-width: 1.0;" x1="791.5" x2="781.5" y1="657.9688" y2="653.9688"/><line style="stroke: #059669; stroke-width: 1.0;" x1="791.5" x2="781.5" y1="657.9688" y2="661.9688"/><line style="stroke: #059669; stroke-width: 1.0;" x1="307" x2="792.5" y1="657.9688" y2="657.9688"/><a href="/events/#reservationcreated" target="_top" title="/events/#reservationcreated" xlink:actuate="onRequest" xlink:href="/events/#reservationcreated" xlink:show="new" xlink:title="/events/#reservationcreated" xlink:type="simple"><text fill="#0000FF" font-family="Segoe UI" font-size="13" lengthAdjust="spacingAndGlyphs" text-decoration="underline" textLength="125" x="314" y="652.9028">reservation.created</text></a><line style="stroke: #059669; stroke-width: 1.0;" x1="879" x2="869" y1="687.1016" y2="683.1016"/><line style="stroke: #059669; stroke-width: 1.0;" x1="879" x2="869" y1="687.1016" y2="691.1016"/><line style="stroke: #059669; stroke-width: 1.0;" x1="307" x2="880" y1="687.1016" y2="687.1016"/><a href="/microservices/svc-notifications/#post-notifications-send-a-notification" target="_top" title="/microservices/svc-notifications/#post-notifications-send-a-notification" xlink:actuate="onRequest" xlink:href="/microservices/svc-notifications/#post-notifications-send-a-notification" xlink:show="new" xlink:title="/microservices/svc-notifications/#post-notifications-send-a-notification" xlink:type="simple"><text fill="#0000FF" font-family="Segoe UI" font-size="13" lengthAdjust="spacingAndGlyphs" text-decoration="underline" textLength="171" x="314" y="682.0356">Send booking confirmation</text></a><polygon fill="#059669" points="195.5,712.2344,185.5,716.2344,195.5,720.2344,191.5,716.2344" style="stroke: #059669; stroke-width: 1.0;"/><line style="stroke: #059669; stroke-width: 1.0; stroke-dasharray: 2.0,2.0;" x1="189.5" x2="301" y1="716.2344" y2="716.2344"/><text fill="#000000" font-family="Segoe UI" font-size="13" lengthAdjust="spacingAndGlyphs" textLength="79" x="201.5" y="711.1685">201 Created</text><polygon fill="#059669" points="45.5,741.3672,35.5,745.3672,45.5,749.3672,41.5,745.3672" style="stroke: #059669; stroke-width: 1.0;"/><line style="stroke: #059669; stroke-width: 1.0; stroke-dasharray: 2.0,2.0;" x1="39.5" x2="178.5" y1="745.3672" y2="745.3672"/><text fill="#000000" font-family="Segoe UI" font-size="13" lengthAdjust="spacingAndGlyphs" textLength="79" x="51.5" y="740.3013">201 Created</text><a href="/microservices/svc-reservations/#integration-context" target="_top" title="/microservices/svc-reservations/#integration-context" xlink:actuate="onRequest" xlink:href="/microservices/svc-reservations/#integration-context" xlink:show="new" xlink:title="/microservices/svc-reservations/#integration-context" xlink:type="simple"><text fill="#0000FF" font-family="Segoe UI" font-size="10" lengthAdjust="spacingAndGlyphs" text-decoration="underline" textLength="190" x="842" y="12.2822">⬆ svc-reservations Integration Context</text></a><!--MD5=[aa014084672a9cb39a31e91e4da5ee3f]
@startuml svc-reservations- -post-reservations

skinparam backgroundColor #FEFEFE
skinparam shadowing false
skinparam defaultFontName "Segoe UI"
skinparam sequence {
    ArrowColor #059669
    ParticipantBorderColor #374151
    ParticipantBackgroundColor #F9FAFB
    LifeLineBorderColor #6B7280
    BoxBorderColor #94A3B8
    BoxBackgroundColor #F8FAFC
    NoteBorderColor #64748B
    NoteBackgroundColor #F8FAFC
}

header [[/microservices/svc-reservations/#integration-context ⬆ svc-reservations Integration Context]]

title POST /reservations\nCreate a new reservation

participant "Client" as Client [[/applications/]]
participant "API Gateway" as GW [[/actors/#api-gateway]] #E0F2FE
participant "svc-reservations" as Svc [[/microservices/svc-reservations/]] #D1FAE5
participant "Guest Profiles" as GP [[/microservices/svc-guest-profiles/]] #EDE9FE
participant "Trip Catalog" as TC [[/microservices/svc-trip-catalog/]] #FEF3C7
participant "Payments Svc" as Pay [[/microservices/svc-payments/]] #FEE2E2
queue "Kafka" as Kafka [[/actors/#event-bus]] #F5F3FF
participant "Notifications" as Ntfy [[/microservices/svc-notifications/]] #F1F5F9
database "PostgreSQL" as DB [[/microservices/svc-reservations/#data-store]] #FEF9C3

note over Svc
  [[/services/api/svc-reservations.html#/Reservations/createReservation View in Swagger UI]]
end note

Client -> GW : POST /reservations
activate GW #059669
GW -> Svc : route request
activate Svc #059669

note right of Svc : Validate request body

== Cross-Service Integration ==

Svc -> GP : [[/microservices/svc-guest-profiles/#get-guestsguest_id-get-guest-profile Validate guest identity]]
activate GP #EDE9FE
GP - -> Svc : OK
deactivate GP

Svc -> TC : [[/microservices/svc-trip-catalog/#get-tripstrip_id-get-trip-details Check trip availability]]
activate TC #FEF3C7
TC - -> Svc : OK
deactivate TC

Svc -[#DC2626]> Pay : [[/microservices/svc-payments/#post-payments-process-a-payment Process deposit payment]]
activate Pay #F1F5F9
Pay - -[#DC2626]> Svc : OK
deactivate Pay

== Database ==

Svc -> DB : INSERT INTO ...
activate DB #FEF9C3
DB - -> Svc : Created row
deactivate DB

== Async Events ==

Svc ->> Kafka : [[/events/#reservationcreated reservation.created]]
Svc ->> Ntfy : [[/microservices/svc-notifications/#post-notifications-send-a-notification Send booking confirmation]]

Svc - -> GW : 201 Created
deactivate Svc
GW - -> Client : 201 Created
deactivate GW

@enduml

PlantUML version 1.2020.02(Sun Mar 01 10:22:07 UTC 2020)
(GPL source distribution)
Java Runtime: OpenJDK Runtime Environment
JVM: OpenJDK 64-Bit Server VM
Java Version: 17.0.18+8
Operating System: Linux
Default Encoding: UTF-8
Language: en
Country: null
--></g></svg>