<svg xmlns="http://www.w3.org/2000/svg" xmlns:xlink="http://www.w3.org/1999/xlink" contentStyleType="text/css" data-diagram-type="SEQUENCE" height="509px" preserveAspectRatio="none" style="width:726px;height:509px;background:#FEFEFE;" version="1.1" viewBox="0 0 726 509" width="726px" zoomAndPan="magnify"><title>GET /payments/{payment_id}</title><defs/><g><rect fill="#FEFEFE" height="509" style="stroke:none;stroke-width:1;" width="726" x="0" y="0"/><text fill="#000000" font-family="Segoe UI" font-size="14" font-weight="bold" lengthAdjust="spacing" textLength="212.707" x="252.675" y="28.5352">GET /payments/{payment_id}</text><text fill="#000000" font-family="Segoe UI" font-size="14" font-weight="bold" lengthAdjust="spacing" textLength="179.1152" x="269.4709" y="45.0234">Retrieve payment details</text><g><title>API Gateway</title><rect fill="#2563EB" height="225.1738" style="stroke:#A23B72;stroke-width:1;" width="10" x="235.6089" y="188.0859"/></g><g><title>svc-payments</title><rect fill="#2563EB" height="166.5527" style="stroke:#A23B72;stroke-width:1;" width="10" x="349.7437" y="217.3965"/></g><g><title>PostgreSQL</title><rect fill="#FCE4EC" height="29.3105" style="stroke:#A23B72;stroke-width:1;" width="10" x="527.6343" y="290.0176"/></g><g><title>Client</title><rect fill="#000000" fill-opacity="0.00000" height="309.7949" width="8" x="27.7524" y="121.4648"/><line style="stroke:#A23B72;stroke-width:0.5;stroke-dasharray:5,5;" x1="31" x2="31" y1="121.4648" y2="431.2598"/></g><g><title>API Gateway</title><rect fill="#000000" fill-opacity="0.00000" height="309.7949" width="8" x="236.6089" y="121.4648"/><line style="stroke:#A23B72;stroke-width:0.5;stroke-dasharray:5,5;" x1="240.3198" x2="240.3198" y1="121.4648" y2="431.2598"/></g><g><title>svc-payments</title><rect fill="#000000" fill-opacity="0.00000" height="309.7949" width="8" x="350.7437" y="121.4648"/><line style="stroke:#A23B72;stroke-width:0.5;stroke-dasharray:5,5;" x1="354.022" x2="354.022" y1="121.4648" y2="431.2598"/></g><g><title>PostgreSQL</title><rect fill="#000000" fill-opacity="0.00000" height="309.7949" width="8" x="528.6343" y="121.4648"/><line style="stroke:#A23B72;stroke-width:0.5;stroke-dasharray:5,5;" x1="532.2095" x2="532.2095" y1="121.4648" y2="431.2598"/></g><g class="participant participant-head" data-participant="Client"><rect fill="#E8F4F8" height="30.4883" rx="2.5" ry="2.5" style="stroke:#2E86AB;stroke-width:0.5;" width="53.5049" x="5" y="89.9766"/><text fill="#000000" font-family="Segoe UI" font-size="14" lengthAdjust="spacing" textLength="39.5049" x="12" y="110.5117">Client</text></g><g class="participant participant-tail" data-participant="Client"><rect fill="#E8F4F8" height="30.4883" rx="2.5" ry="2.5" style="stroke:#2E86AB;stroke-width:0.5;" width="53.5049" x="5" y="430.2598"/><text fill="#000000" font-family="Segoe UI" font-size="14" lengthAdjust="spacing" textLength="39.5049" x="12" y="450.7949">Client</text></g><g class="participant participant-head" data-participant="GW"><rect fill="#DBEAFE" height="30.4883" rx="2.5" ry="2.5" style="stroke:#2E86AB;stroke-width:0.5;" width="96.5781" x="192.3198" y="89.9766"/><text fill="#000000" font-family="Segoe UI" font-size="14" lengthAdjust="spacing" textLength="82.5781" x="199.3198" y="110.5117">API Gateway</text></g><g class="participant participant-tail" data-participant="GW"><rect fill="#DBEAFE" height="30.4883" rx="2.5" ry="2.5" style="stroke:#2E86AB;stroke-width:0.5;" width="96.5781" x="192.3198" y="430.2598"/><text fill="#000000" font-family="Segoe UI" font-size="14" lengthAdjust="spacing" textLength="82.5781" x="199.3198" y="450.7949">API Gateway</text></g><g class="participant participant-head" data-participant="Svc"><a href="/microservices/svc-payments/" target="_top" title="/microservices/svc-payments/" xlink:actuate="onRequest" xlink:href="/microservices/svc-payments/" xlink:show="new" xlink:title="/microservices/svc-payments/" xlink:type="simple"><rect fill="#E8F4F8" height="30.4883" rx="2.5" ry="2.5" style="stroke:#2E86AB;stroke-width:0.5;" width="109.4434" x="300.022" y="89.9766"/><text fill="#000000" font-family="Segoe UI" font-size="14" lengthAdjust="spacing" textLength="95.4434" x="307.022" y="110.5117">svc-payments</text></a></g><g class="participant participant-tail" data-participant="Svc"><a href="/microservices/svc-payments/" target="_top" title="/microservices/svc-payments/" xlink:actuate="onRequest" xlink:href="/microservices/svc-payments/" xlink:show="new" xlink:title="/microservices/svc-payments/" xlink:type="simple"><rect fill="#E8F4F8" height="30.4883" rx="2.5" ry="2.5" style="stroke:#2E86AB;stroke-width:0.5;" width="109.4434" x="300.022" y="430.2598"/><text fill="#000000" font-family="Segoe UI" font-size="14" lengthAdjust="spacing" textLength="95.4434" x="307.022" y="450.7949">svc-payments</text></a></g><g class="participant participant-head" data-participant="DB"><text fill="#000000" font-family="Segoe UI" font-size="14" lengthAdjust="spacing" textLength="76.8496" x="491.2095" y="118.5117">PostgreSQL</text><path d="M514.6343,68.9766 C514.6343,58.9766 532.6343,58.9766 532.6343,58.9766 C532.6343,58.9766 550.6343,58.9766 550.6343,68.9766 L550.6343,94.9766 C550.6343,104.9766 532.6343,104.9766 532.6343,104.9766 C532.6343,104.9766 514.6343,104.9766 514.6343,94.9766 L514.6343,68.9766" fill="#FCE4EC" style="stroke:#181818;stroke-width:0.5;"/><path d="M514.6343,68.9766 C514.6343,78.9766 532.6343,78.9766 532.6343,78.9766 C532.6343,78.9766 550.6343,78.9766 550.6343,68.9766" fill="none" style="stroke:#181818;stroke-width:0.5;"/></g><g class="participant participant-tail" data-participant="DB"><text fill="#000000" font-family="Segoe UI" font-size="14" lengthAdjust="spacing" textLength="76.8496" x="491.2095" y="443.7949">PostgreSQL</text><path d="M514.6343,456.748 C514.6343,446.748 532.6343,446.748 532.6343,446.748 C532.6343,446.748 550.6343,446.748 550.6343,456.748 L550.6343,482.748 C550.6343,492.748 532.6343,492.748 532.6343,492.748 C532.6343,492.748 514.6343,492.748 514.6343,482.748 L514.6343,456.748" fill="#FCE4EC" style="stroke:#181818;stroke-width:0.5;"/><path d="M514.6343,456.748 C514.6343,466.748 532.6343,466.748 532.6343,466.748 C532.6343,466.748 550.6343,466.748 550.6343,456.748" fill="none" style="stroke:#181818;stroke-width:0.5;"/></g><g><title>API Gateway</title><rect fill="#2563EB" height="225.1738" style="stroke:#A23B72;stroke-width:1;" width="10" x="235.6089" y="188.0859"/></g><g><title>svc-payments</title><rect fill="#2563EB" height="166.5527" style="stroke:#A23B72;stroke-width:1;" width="10" x="349.7437" y="217.3965"/></g><g><title>PostgreSQL</title><rect fill="#FCE4EC" height="29.3105" style="stroke:#A23B72;stroke-width:1;" width="10" x="527.6343" y="290.0176"/></g><path d="M284,136.4648 L284,161.4648 L424,161.4648 L424,146.4648 L414,136.4648 L284,136.4648" fill="#FEFFDD" style="stroke:#181818;stroke-width:0.5;"/><path d="M414,136.4648 L414,146.4648 L424,146.4648 L414,136.4648" fill="#FEFFDD" style="stroke:#181818;stroke-width:0.5;"/><a href="/services/api/svc-payments.html#/Payments/getPayment" target="_top" title="/services/api/svc-payments.html#/Payments/getPayment" xlink:actuate="onRequest" xlink:href="/services/api/svc-payments.html#/Payments/getPayment" xlink:show="new" xlink:title="/services/api/svc-payments.html#/Payments/getPayment" xlink:type="simple"><text fill="#0000FF" font-family="Segoe UI" font-size="13" lengthAdjust="spacing" text-decoration="underline" textLength="119.4058" x="290" y="154.0332">View in Swagger UI</text></a><g class="message" data-participant-1="Client" data-participant-2="GW"><polygon fill="#2563EB" points="223.6089,184.0859,233.6089,188.0859,223.6089,192.0859,227.6089,188.0859" style="stroke:#2563EB;stroke-width:1;"/><line style="stroke:#2563EB;stroke-width:1;" x1="31.7524" x2="229.6089" y1="188.0859" y2="188.0859"/><text fill="#000000" font-family="Segoe UI" font-size="13" lengthAdjust="spacing" textLength="184.8564" x="38.7524" y="183.3438">GET /payments/{payment_id}</text></g><g class="message" data-participant-1="GW" data-participant-2="Svc"><polygon fill="#2563EB" points="337.7437,213.3965,347.7437,217.3965,337.7437,221.3965,341.7437,217.3965" style="stroke:#2563EB;stroke-width:1;"/><line style="stroke:#2563EB;stroke-width:1;" x1="245.6089" x2="343.7437" y1="217.3965" y2="217.3965"/><a href="/microservices/svc-payments/#get-paymentspayment_id-retrieve-payment-details" target="_top" title="/microservices/svc-payments/#get-paymentspayment_id-retrieve-payment-details" xlink:actuate="onRequest" xlink:href="/microservices/svc-payments/#get-paymentspayment_id-retrieve-payment-details" xlink:show="new" xlink:title="/microservices/svc-payments/#get-paymentspayment_id-retrieve-payment-details" xlink:type="simple"><text fill="#0000FF" font-family="Segoe UI" font-size="13" lengthAdjust="spacing" text-decoration="underline" textLength="85.1348" x="252.6089" y="212.6543">route request</text></a></g><rect fill="#EEEEEE" height="3" style="stroke:#EEEEEE;stroke-width:1;" width="719.0571" x="0" y="246.0518"/><line style="stroke:#000000;stroke-width:1;" x1="0" x2="719.0571" y1="246.0518" y2="246.0518"/><line style="stroke:#000000;stroke-width:1;" x1="0" x2="719.0571" y1="249.0518" y2="249.0518"/><rect fill="#EEEEEE" height="23.3105" style="stroke:#000000;stroke-width:2;" width="80.3711" x="319.343" y="235.3965"/><text fill="#000000" font-family="Segoe UI" font-size="13" font-weight="bold" lengthAdjust="spacing" textLength="62.0864" x="325.343" y="251.9648">Database</text><g class="message" data-participant-1="Svc" data-participant-2="DB"><polygon fill="#2563EB" points="515.6343,286.0176,525.6343,290.0176,515.6343,294.0176,519.6343,290.0176" style="stroke:#2563EB;stroke-width:1;"/><line style="stroke:#2563EB;stroke-width:1;" x1="359.7437" x2="521.6343" y1="290.0176" y2="290.0176"/><text fill="#000000" font-family="Segoe UI" font-size="13" lengthAdjust="spacing" textLength="148.8906" x="366.7437" y="285.2754">SELECT ... WHERE id = ?</text></g><g class="message" data-participant-1="DB" data-participant-2="Svc"><polygon fill="#2563EB" points="370.7437,315.3281,360.7437,319.3281,370.7437,323.3281,366.7437,319.3281" style="stroke:#2563EB;stroke-width:1;"/><line style="stroke:#2563EB;stroke-width:1;stroke-dasharray:2,2;" x1="364.7437" x2="531.6343" y1="319.3281" y2="319.3281"/><text fill="#000000" font-family="Segoe UI" font-size="13" lengthAdjust="spacing" textLength="26.2222" x="376.7437" y="314.5859">Row</text></g><path d="M537,332.3281 L537,357.3281 L714,357.3281 L714,342.3281 L704,332.3281 L537,332.3281" fill="#FEFFDD" style="stroke:#181818;stroke-width:0.5;"/><path d="M704,332.3281 L704,342.3281 L714,342.3281 L704,332.3281" fill="#FEFFDD" style="stroke:#181818;stroke-width:0.5;"/><text fill="#000000" font-family="Segoe UI" font-size="13" lengthAdjust="spacing" textLength="156.0571" x="543" y="349.8965">Returns 404 if not found</text><g class="message" data-participant-1="Svc" data-participant-2="GW"><polygon fill="#2563EB" points="256.6089,379.9492,246.6089,383.9492,256.6089,387.9492,252.6089,383.9492" style="stroke:#2563EB;stroke-width:1;"/><line style="stroke:#2563EB;stroke-width:1;stroke-dasharray:2,2;" x1="250.6089" x2="353.7437" y1="383.9492" y2="383.9492"/><text fill="#000000" font-family="Segoe UI" font-size="13" lengthAdjust="spacing" textLength="47.3599" x="262.6089" y="379.207">200 OK</text></g><g class="message" data-participant-1="GW" data-participant-2="Client"><polygon fill="#2563EB" points="42.7524,409.2598,32.7524,413.2598,42.7524,417.2598,38.7524,413.2598" style="stroke:#2563EB;stroke-width:1;"/><line style="stroke:#2563EB;stroke-width:1;stroke-dasharray:2,2;" x1="36.7524" x2="239.6089" y1="413.2598" y2="413.2598"/><text fill="#000000" font-family="Segoe UI" font-size="13" lengthAdjust="spacing" textLength="47.3599" x="48.7524" y="408.5176">200 OK</text></g><!--SRC=[XL9HRzem47xthpZ1CuG2AmY9JGGIXeOw1kruwD1aaakm6cnccsHLrVy-9oGXMQijUJdx-_pTtNUddXW_KKcFiAVUKoZ5cVjJ4Ga9JTT9Vw9AXZfGNoICXn3GI645yJ6WvqYxWkixUaHeR30K20-BHlKv_ZeZzn1U29Xl8gL8ybJT3xSzt6VNAoeryzY9ScqBwQCiACxmTcA_eVnTj3Dq- -umeorPW4l6iIOpwVRiGJV3RV6x1hatGxTpKq9lx71TWsVmdT1rLMymsFSgs3jMzfm1UIL4CnqXp9rxi4xq-OXSA-ibZtuo__K7NwEM36E4_DQOgocB526dQz_Gc4RCW0sW2YvX7Pwi5Z2d6XFwd77cMsZER6TY1bhZgTXh5OLan4timUEZTMIU50fbp3nKLfLbxNQbpJxLT4-L6VXAA1rAt7nRPYepspGzTVhEb11k704HeqorZKT6lHIc9rOJRn_qCMfQgo9NY3gFuJl311Y7JKB3q8WzB7OxWjo7L9-GYmdG-fYsElg7muHwciN6cioJVFDCQ5wclO_-qttJb5IUhh8jcO-jm5hvsC3iWSabq-LNsfHSfa-p5Vd9U0opmipnc90KD1KP7qUmSPREz1xQxJPiFpjh1vWFO_XqLQguRS9MsSbQ9CJ72kqo2yd2WmOHNDJDlfqbLz3lz845gPiGfAkRrr0OskrquEkNgbmwpTGtmyZDVuyrtv8_]--></g></svg>