<svg xmlns="http://www.w3.org/2000/svg" xmlns:xlink="http://www.w3.org/1999/xlink" contentStyleType="text/css" data-diagram-type="SEQUENCE" height="603px" preserveAspectRatio="none" style="width:599px;height:603px;background:#FEFEFE;" version="1.1" viewBox="0 0 599 603" width="599px" zoomAndPan="magnify"><title>PATCH /gear-items/{item_id}</title><defs/><g><rect fill="#FEFEFE" height="603" style="stroke:none;stroke-width:1;" width="599" x="0" y="0"/><text fill="#000000" font-family="Segoe UI" font-size="14" font-weight="bold" lengthAdjust="spacing" textLength="214.0059" x="188.9709" y="28.5352">PATCH /gear-items/{item_id}</text><text fill="#000000" font-family="Segoe UI" font-size="14" font-weight="bold" lengthAdjust="spacing" textLength="124.2363" x="233.8557" y="45.0234">Update gear item</text><g><title>API Gateway</title><rect fill="#7C3AED" height="319.1055" style="stroke:#A23B72;stroke-width:1;" width="10" x="236.3135" y="188.0859"/></g><g><title>svc-gear-inventory</title><rect fill="#7C3AED" height="260.4844" style="stroke:#A23B72;stroke-width:1;" width="10" x="367.1489" y="217.3965"/></g><g><title>PostgreSQL</title><rect fill="#FCE4EC" height="29.3105" style="stroke:#A23B72;stroke-width:1;" width="10" x="541.5229" y="325.3281"/></g><g><title>PostgreSQL</title><rect fill="#FCE4EC" height="29.3105" style="stroke:#A23B72;stroke-width:1;" width="10" x="541.5229" y="419.2598"/></g><g><title>Client</title><rect fill="#000000" fill-opacity="0.00000" height="403.7266" width="8" x="27.7524" y="121.4648"/><line style="stroke:#A23B72;stroke-width:0.5;stroke-dasharray:5,5;" x1="31" x2="31" y1="121.4648" y2="525.1914"/></g><g><title>API Gateway</title><rect fill="#000000" fill-opacity="0.00000" height="403.7266" width="8" x="237.3135" y="121.4648"/><line style="stroke:#A23B72;stroke-width:0.5;stroke-dasharray:5,5;" x1="241.0244" x2="241.0244" y1="121.4648" y2="525.1914"/></g><g><title>svc-gear-inventory</title><rect fill="#000000" fill-opacity="0.00000" height="403.7266" width="8" x="368.1489" y="121.4648"/><line style="stroke:#A23B72;stroke-width:0.5;stroke-dasharray:5,5;" x1="371.6025" x2="371.6025" y1="121.4648" y2="525.1914"/></g><g><title>PostgreSQL</title><rect fill="#000000" fill-opacity="0.00000" height="403.7266" width="8" x="542.5229" y="121.4648"/><line style="stroke:#A23B72;stroke-width:0.5;stroke-dasharray:5,5;" x1="546.0981" x2="546.0981" y1="121.4648" y2="525.1914"/></g><g class="participant participant-head" data-participant="Client"><rect fill="#E8F4F8" height="30.4883" rx="2.5" ry="2.5" style="stroke:#2E86AB;stroke-width:0.5;" width="53.5049" x="5" y="89.9766"/><text fill="#000000" font-family="Segoe UI" font-size="14" lengthAdjust="spacing" textLength="39.5049" x="12" y="110.5117">Client</text></g><g class="participant participant-tail" data-participant="Client"><rect fill="#E8F4F8" height="30.4883" rx="2.5" ry="2.5" style="stroke:#2E86AB;stroke-width:0.5;" width="53.5049" x="5" y="524.1914"/><text fill="#000000" font-family="Segoe UI" font-size="14" lengthAdjust="spacing" textLength="39.5049" x="12" y="544.7266">Client</text></g><g class="participant participant-head" data-participant="GW"><rect fill="#DBEAFE" height="30.4883" rx="2.5" ry="2.5" style="stroke:#2E86AB;stroke-width:0.5;" width="96.5781" x="193.0244" y="89.9766"/><text fill="#000000" font-family="Segoe UI" font-size="14" lengthAdjust="spacing" textLength="82.5781" x="200.0244" y="110.5117">API Gateway</text></g><g class="participant participant-tail" data-participant="GW"><rect fill="#DBEAFE" height="30.4883" rx="2.5" ry="2.5" style="stroke:#2E86AB;stroke-width:0.5;" width="96.5781" x="193.0244" y="524.1914"/><text fill="#000000" font-family="Segoe UI" font-size="14" lengthAdjust="spacing" textLength="82.5781" x="200.0244" y="544.7266">API Gateway</text></g><g class="participant participant-head" data-participant="Svc"><a href="/microservices/svc-gear-inventory/" target="_top" title="/microservices/svc-gear-inventory/" xlink:actuate="onRequest" xlink:href="/microservices/svc-gear-inventory/" xlink:show="new" xlink:title="/microservices/svc-gear-inventory/" xlink:type="simple"><rect fill="#E8F4F8" height="30.4883" rx="2.5" ry="2.5" style="stroke:#2E86AB;stroke-width:0.5;" width="145.0928" x="299.6025" y="89.9766"/><text fill="#000000" font-family="Segoe UI" font-size="14" lengthAdjust="spacing" textLength="131.0928" x="306.6025" y="110.5117">svc-gear-inventory</text></a></g><g class="participant participant-tail" data-participant="Svc"><a href="/microservices/svc-gear-inventory/" target="_top" title="/microservices/svc-gear-inventory/" xlink:actuate="onRequest" xlink:href="/microservices/svc-gear-inventory/" xlink:show="new" xlink:title="/microservices/svc-gear-inventory/" xlink:type="simple"><rect fill="#E8F4F8" height="30.4883" rx="2.5" ry="2.5" style="stroke:#2E86AB;stroke-width:0.5;" width="145.0928" x="299.6025" y="524.1914"/><text fill="#000000" font-family="Segoe UI" font-size="14" lengthAdjust="spacing" textLength="131.0928" x="306.6025" y="544.7266">svc-gear-inventory</text></a></g><g class="participant participant-head" data-participant="DB"><text fill="#000000" font-family="Segoe UI" font-size="14" lengthAdjust="spacing" textLength="76.8496" x="505.0981" y="118.5117">PostgreSQL</text><path d="M528.5229,68.9766 C528.5229,58.9766 546.5229,58.9766 546.5229,58.9766 C546.5229,58.9766 564.5229,58.9766 564.5229,68.9766 L564.5229,94.9766 C564.5229,104.9766 546.5229,104.9766 546.5229,104.9766 C546.5229,104.9766 528.5229,104.9766 528.5229,94.9766 L528.5229,68.9766" fill="#FCE4EC" style="stroke:#181818;stroke-width:0.5;"/><path d="M528.5229,68.9766 C528.5229,78.9766 546.5229,78.9766 546.5229,78.9766 C546.5229,78.9766 564.5229,78.9766 564.5229,68.9766" fill="none" style="stroke:#181818;stroke-width:0.5;"/></g><g class="participant participant-tail" data-participant="DB"><text fill="#000000" font-family="Segoe UI" font-size="14" lengthAdjust="spacing" textLength="76.8496" x="505.0981" y="537.7266">PostgreSQL</text><path d="M528.5229,550.6797 C528.5229,540.6797 546.5229,540.6797 546.5229,540.6797 C546.5229,540.6797 564.5229,540.6797 564.5229,550.6797 L564.5229,576.6797 C564.5229,586.6797 546.5229,586.6797 546.5229,586.6797 C546.5229,586.6797 528.5229,586.6797 528.5229,576.6797 L528.5229,550.6797" fill="#FCE4EC" style="stroke:#181818;stroke-width:0.5;"/><path d="M528.5229,550.6797 C528.5229,560.6797 546.5229,560.6797 546.5229,560.6797 C546.5229,560.6797 564.5229,560.6797 564.5229,550.6797" fill="none" style="stroke:#181818;stroke-width:0.5;"/></g><g><title>API Gateway</title><rect fill="#7C3AED" height="319.1055" style="stroke:#A23B72;stroke-width:1;" width="10" x="236.3135" y="188.0859"/></g><g><title>svc-gear-inventory</title><rect fill="#7C3AED" height="260.4844" style="stroke:#A23B72;stroke-width:1;" width="10" x="367.1489" y="217.3965"/></g><g><title>PostgreSQL</title><rect fill="#FCE4EC" height="29.3105" style="stroke:#A23B72;stroke-width:1;" width="10" x="541.5229" y="325.3281"/></g><g><title>PostgreSQL</title><rect fill="#FCE4EC" height="29.3105" style="stroke:#A23B72;stroke-width:1;" width="10" x="541.5229" y="419.2598"/></g><path d="M301,136.4648 L301,161.4648 L441,161.4648 L441,146.4648 L431,136.4648 L301,136.4648" fill="#FEFFDD" style="stroke:#181818;stroke-width:0.5;"/><path d="M431,136.4648 L431,146.4648 L441,146.4648 L431,136.4648" fill="#FEFFDD" style="stroke:#181818;stroke-width:0.5;"/><a href="/services/api/svc-gear-inventory.html#/Gear%20Items/updateGearItem" target="_top" title="/services/api/svc-gear-inventory.html#/Gear%20Items/updateGearItem" xlink:actuate="onRequest" xlink:href="/services/api/svc-gear-inventory.html#/Gear%20Items/updateGearItem" xlink:show="new" xlink:title="/services/api/svc-gear-inventory.html#/Gear%20Items/updateGearItem" xlink:type="simple"><text fill="#0000FF" font-family="Segoe UI" font-size="13" lengthAdjust="spacing" text-decoration="underline" textLength="119.4058" x="307" y="154.0332">View in Swagger UI</text></a><g class="message" data-participant-1="Client" data-participant-2="GW"><polygon fill="#7C3AED" points="224.3135,184.0859,234.3135,188.0859,224.3135,192.0859,228.3135,188.0859" style="stroke:#7C3AED;stroke-width:1;"/><line style="stroke:#7C3AED;stroke-width:1;" x1="31.7524" x2="230.3135" y1="188.0859" y2="188.0859"/><text fill="#000000" font-family="Segoe UI" font-size="13" lengthAdjust="spacing" textLength="185.561" x="38.7524" y="183.3438">PATCH /gear-items/{item_id}</text></g><g class="message" data-participant-1="GW" data-participant-2="Svc"><polygon fill="#7C3AED" points="355.1489,213.3965,365.1489,217.3965,355.1489,221.3965,359.1489,217.3965" style="stroke:#7C3AED;stroke-width:1;"/><line style="stroke:#7C3AED;stroke-width:1;" x1="246.3135" x2="361.1489" y1="217.3965" y2="217.3965"/><text fill="#000000" font-family="Segoe UI" font-size="13" lengthAdjust="spacing" textLength="85.1348" x="253.3135" y="212.6543">route request</text></g><path d="M382,230.3965 L382,255.3965 L540,255.3965 L540,240.3965 L530,230.3965 L382,230.3965" fill="#FEFFDD" style="stroke:#181818;stroke-width:0.5;"/><path d="M530,230.3965 L530,240.3965 L540,240.3965 L530,230.3965" fill="#FEFFDD" style="stroke:#181818;stroke-width:0.5;"/><text fill="#000000" font-family="Segoe UI" font-size="13" lengthAdjust="spacing" textLength="137.5728" x="388" y="247.9648">Validate request body</text><rect fill="#EEEEEE" height="3" style="stroke:#EEEEEE;stroke-width:1;" width="592.9478" x="0" y="281.3623"/><line style="stroke:#000000;stroke-width:1;" x1="0" x2="592.9478" y1="281.3623" y2="281.3623"/><line style="stroke:#000000;stroke-width:1;" x1="0" x2="592.9478" y1="284.3623" y2="284.3623"/><rect fill="#EEEEEE" height="23.3105" style="stroke:#000000;stroke-width:2;" width="80.3711" x="256.2883" y="270.707"/><text fill="#000000" font-family="Segoe UI" font-size="13" font-weight="bold" lengthAdjust="spacing" textLength="62.0864" x="262.2883" y="287.2754">Database</text><g class="message" data-participant-1="Svc" data-participant-2="DB"><polygon fill="#7C3AED" points="529.5229,321.3281,539.5229,325.3281,529.5229,329.3281,533.5229,325.3281" style="stroke:#7C3AED;stroke-width:1;"/><line style="stroke:#7C3AED;stroke-width:1;" x1="377.1489" x2="535.5229" y1="325.3281" y2="325.3281"/><text fill="#000000" font-family="Segoe UI" font-size="13" lengthAdjust="spacing" textLength="145.374" x="384.1489" y="320.5859">SELECT ... FOR UPDATE</text></g><g class="message" data-participant-1="DB" data-participant-2="Svc"><polygon fill="#7C3AED" points="388.1489,350.6387,378.1489,354.6387,388.1489,358.6387,384.1489,354.6387" style="stroke:#7C3AED;stroke-width:1;"/><line style="stroke:#7C3AED;stroke-width:1;stroke-dasharray:2,2;" x1="382.1489" x2="545.5229" y1="354.6387" y2="354.6387"/><text fill="#000000" font-family="Segoe UI" font-size="13" lengthAdjust="spacing" textLength="75.3086" x="394.1489" y="349.8965">Current row</text></g><path d="M382,367.6387 L382,392.6387 L568,392.6387 L568,377.6387 L558,367.6387 L382,367.6387" fill="#FEFFDD" style="stroke:#181818;stroke-width:0.5;"/><path d="M558,367.6387 L558,377.6387 L568,377.6387 L558,367.6387" fill="#FEFFDD" style="stroke:#181818;stroke-width:0.5;"/><text fill="#000000" font-family="Segoe UI" font-size="13" lengthAdjust="spacing" textLength="165.9023" x="388" y="385.207">Merge changed fields only</text><g class="message" data-participant-1="Svc" data-participant-2="DB"><polygon fill="#7C3AED" points="529.5229,415.2598,539.5229,419.2598,529.5229,423.2598,533.5229,419.2598" style="stroke:#7C3AED;stroke-width:1;"/><line style="stroke:#7C3AED;stroke-width:1;" x1="377.1489" x2="535.5229" y1="419.2598" y2="419.2598"/><text fill="#000000" font-family="Segoe UI" font-size="13" lengthAdjust="spacing" textLength="109.4526" x="384.1489" y="414.5176">UPDATE ... SET ...</text></g><g class="message" data-participant-1="DB" data-participant-2="Svc"><polygon fill="#7C3AED" points="388.1489,444.5703,378.1489,448.5703,388.1489,452.5703,384.1489,448.5703" style="stroke:#7C3AED;stroke-width:1;"/><line style="stroke:#7C3AED;stroke-width:1;stroke-dasharray:2,2;" x1="382.1489" x2="545.5229" y1="448.5703" y2="448.5703"/><text fill="#000000" font-family="Segoe UI" font-size="13" lengthAdjust="spacing" textLength="80.2725" x="394.1489" y="443.8281">Updated row</text></g><g class="message" data-participant-1="Svc" data-participant-2="GW"><polygon fill="#7C3AED" points="257.3135,473.8809,247.3135,477.8809,257.3135,481.8809,253.3135,477.8809" style="stroke:#7C3AED;stroke-width:1;"/><line style="stroke:#7C3AED;stroke-width:1;stroke-dasharray:2,2;" x1="251.3135" x2="371.1489" y1="477.8809" y2="477.8809"/><text fill="#000000" font-family="Segoe UI" font-size="13" lengthAdjust="spacing" textLength="47.3599" x="263.3135" y="473.1387">200 OK</text></g><g class="message" data-participant-1="GW" data-participant-2="Client"><polygon fill="#7C3AED" points="42.7524,503.1914,32.7524,507.1914,42.7524,511.1914,38.7524,507.1914" style="stroke:#7C3AED;stroke-width:1;"/><line style="stroke:#7C3AED;stroke-width:1;stroke-dasharray:2,2;" x1="36.7524" x2="240.3135" y1="507.1914" y2="507.1914"/><text fill="#000000" font-family="Segoe UI" font-size="13" lengthAdjust="spacing" textLength="47.3599" x="48.7524" y="502.4492">200 OK</text></g><!--SRC=[XLDTZzem47pthrY1-WZXu5GG4fL2I2WglQC5xXwkg3Bn4gmBDhKD59tklzTE-0W5jU4XnZExCvvrz2iNQwhe2kOqVasKt0WMo5GgA4UX-n5zOkWbPNB7HG8Bccei80mNT9EQI0hpG5S8fJ4c4c4wA1NByTS6HOpmHi0-lb9oTv1gnWsABDiUKMLupDTKcAvK3DM1KWzR7_tk5ULlqs4hkezQ6Mt85pZa0Y_Q-FL6jrdFyAxyVG55TwseTdU2hkA88ejdy8CqbrtZPdFUA60teco4JV9EYE4cHHZva-0pU0bILU46LzfxSw-VdBt_4DCremR1WU1s2LcV3mob8EKeJ0ceXdnv2VkZ0VHj_OxkCqx_6SgzRkZRILxmz3QkvFfYQvj8bTF7snXUNhmLZvNKgBOyHkrTSxtPx9IrTKldLDkfZwGsYSBnjs7MgzUr9m_2-p0WHDXOG6vHEGKRbDKujQThVaEYkZIhjEprxUQ7UcsGfRJ9ed5RxZyySTm15p3UqIInhQU3sOoWOE3K2CdZWSed5qBxNw4J6Xk-TQcxk0wtqIvjgGka3NQO5bJk1cjpPZlmIC-Fg7YoD20NXxedcl9iceTIc4ks9wJJWTunjKw744UsMZQmDep3OHXCe5gjGlJu7QQZdZy9pvA5KEsoSd8OR9HofxKV5M5OeD_qzHLLWX0lgKYGmO9ZoZH8aUullUJYcPTnc7dwlv7y-h8RHlBMnt7KQpLu_5Aak9lXGhUCm-XkiVhFv0y0]--></g></svg>