<svg xmlns="http://www.w3.org/2000/svg" xmlns:xlink="http://www.w3.org/1999/xlink" contentStyleType="text/css" data-diagram-type="SEQUENCE" height="830px" preserveAspectRatio="none" style="width:1027px;height:830px;background:#FEFEFE;" version="1.1" viewBox="0 0 1027 830" width="1027px" zoomAndPan="magnify"><title>POST /reservations</title><defs/><g><rect fill="#FEFEFE" height="830" style="stroke:none;stroke-width:1;" width="1027" x="0" y="0"/><text fill="#000000" font-family="Segoe UI" font-size="14" font-weight="bold" lengthAdjust="spacing" textLength="140.1641" x="439.615" y="28.5352">POST /reservations</text><text fill="#000000" font-family="Segoe UI" font-size="14" font-weight="bold" lengthAdjust="spacing" textLength="180.1475" x="419.6233" y="45.0234">Create a new reservation</text><g><title>API Gateway</title><rect fill="#059669" height="546.2793" style="stroke:#A23B72;stroke-width:1;" width="10" x="171.1484" y="188.0859"/></g><g><title>svc-reservations</title><rect fill="#059669" height="487.6582" style="stroke:#A23B72;stroke-width:1;" width="10" x="292.7041" y="217.3965"/></g><g><title>Guest Profiles</title><rect fill="#DBEAFE" height="29.3105" style="stroke:#A23B72;stroke-width:1;" width="10" x="463.022" y="325.3281"/></g><g><title>Trip Catalog</title><rect fill="#DBEAFE" height="29.3105" style="stroke:#A23B72;stroke-width:1;" width="10" x="575.6636" y="383.9492"/></g><g><title>Payments Svc</title><rect fill="#DBEAFE" height="29.3105" style="stroke:#A23B72;stroke-width:1;" width="10" x="687.0303" y="442.5703"/></g><g><title>PostgreSQL</title><rect fill="#FCE4EC" height="29.3105" style="stroke:#A23B72;stroke-width:1;" width="10" x="968.9692" y="544.502"/></g><g><title>Client</title><rect fill="#000000" fill-opacity="0.00000" height="630.9004" width="8" x="27.7524" y="121.4648"/><line style="stroke:#A23B72;stroke-width:0.5;stroke-dasharray:5,5;" x1="31" x2="31" y1="121.4648" y2="752.3652"/></g><g><title>API Gateway</title><rect fill="#000000" fill-opacity="0.00000" height="630.9004" width="8" x="172.1484" y="121.4648"/><line style="stroke:#A23B72;stroke-width:0.5;stroke-dasharray:5,5;" x1="175.8594" x2="175.8594" y1="121.4648" y2="752.3652"/></g><g><title>svc-reservations</title><rect fill="#000000" fill-opacity="0.00000" height="630.9004" width="8" x="293.7041" y="121.4648"/><line style="stroke:#A23B72;stroke-width:0.5;stroke-dasharray:5,5;" x1="297.4375" x2="297.4375" y1="121.4648" y2="752.3652"/></g><g><title>Guest Profiles</title><rect fill="#000000" fill-opacity="0.00000" height="630.9004" width="8" x="464.022" y="121.4648"/><line style="stroke:#A23B72;stroke-width:0.5;stroke-dasharray:5,5;" x1="467.1958" x2="467.1958" y1="121.4648" y2="752.3652"/></g><g><title>Trip Catalog</title><rect fill="#000000" fill-opacity="0.00000" height="630.9004" width="8" x="576.6636" y="121.4648"/><line style="stroke:#A23B72;stroke-width:0.5;stroke-dasharray:5,5;" x1="579.8481" x2="579.8481" y1="121.4648" y2="752.3652"/></g><g><title>Payments Svc</title><rect fill="#000000" fill-opacity="0.00000" height="630.9004" width="8" x="688.0303" y="121.4648"/><line style="stroke:#A23B72;stroke-width:0.5;stroke-dasharray:5,5;" x1="691.479" x2="691.479" y1="121.4648" y2="752.3652"/></g><g><title>Kafka</title><rect fill="#000000" fill-opacity="0.00000" height="630.9004" width="8" x="779.5479" y="121.4648"/><line style="stroke:#A23B72;stroke-width:0.5;stroke-dasharray:5,5;" x1="782.5815" x2="782.5815" y1="121.4648" y2="752.3652"/></g><g><title>Notifications</title><rect fill="#000000" fill-opacity="0.00000" height="630.9004" width="8" x="868.5293" y="121.4648"/><line style="stroke:#A23B72;stroke-width:0.5;stroke-dasharray:5,5;" x1="872.5142" x2="872.5142" y1="121.4648" y2="752.3652"/></g><g><title>PostgreSQL</title><rect fill="#000000" fill-opacity="0.00000" height="630.9004" width="8" x="969.9692" y="121.4648"/><line style="stroke:#A23B72;stroke-width:0.5;stroke-dasharray:5,5;" x1="973.5444" x2="973.5444" y1="121.4648" y2="752.3652"/></g><g class="participant participant-head" data-participant="Client"><rect fill="#E8F4F8" height="30.4883" rx="2.5" ry="2.5" style="stroke:#2E86AB;stroke-width:0.5;" width="53.5049" x="5" y="89.9766"/><text fill="#000000" font-family="Segoe UI" font-size="14" lengthAdjust="spacing" textLength="39.5049" x="12" y="110.5117">Client</text></g><g class="participant participant-tail" data-participant="Client"><rect fill="#E8F4F8" height="30.4883" rx="2.5" ry="2.5" style="stroke:#2E86AB;stroke-width:0.5;" width="53.5049" x="5" y="751.3652"/><text fill="#000000" font-family="Segoe UI" font-size="14" lengthAdjust="spacing" textLength="39.5049" x="12" y="771.9004">Client</text></g><g class="participant participant-head" data-participant="GW"><rect fill="#DBEAFE" height="30.4883" rx="2.5" ry="2.5" style="stroke:#2E86AB;stroke-width:0.5;" width="96.5781" x="127.8594" y="89.9766"/><text fill="#000000" font-family="Segoe UI" font-size="14" lengthAdjust="spacing" textLength="82.5781" x="134.8594" y="110.5117">API Gateway</text></g><g class="participant participant-tail" data-participant="GW"><rect fill="#DBEAFE" height="30.4883" rx="2.5" ry="2.5" style="stroke:#2E86AB;stroke-width:0.5;" width="96.5781" x="127.8594" y="751.3652"/><text fill="#000000" font-family="Segoe UI" font-size="14" lengthAdjust="spacing" textLength="82.5781" x="134.8594" y="771.9004">API Gateway</text></g><g class="participant participant-head" data-participant="Svc"><a href="/microservices/svc-reservations/" target="_top" title="/microservices/svc-reservations/" xlink:actuate="onRequest" xlink:href="/microservices/svc-reservations/" xlink:show="new" xlink:title="/microservices/svc-reservations/" xlink:type="simple"><rect fill="#E8F4F8" height="30.4883" rx="2.5" ry="2.5" style="stroke:#2E86AB;stroke-width:0.5;" width="126.5332" x="234.4375" y="89.9766"/><text fill="#000000" font-family="Segoe UI" font-size="14" lengthAdjust="spacing" textLength="112.5332" x="241.4375" y="110.5117">svc-reservations</text></a></g><g class="participant participant-tail" data-participant="Svc"><a href="/microservices/svc-reservations/" target="_top" title="/microservices/svc-reservations/" xlink:actuate="onRequest" xlink:href="/microservices/svc-reservations/" xlink:show="new" xlink:title="/microservices/svc-reservations/" xlink:type="simple"><rect fill="#E8F4F8" height="30.4883" rx="2.5" ry="2.5" style="stroke:#2E86AB;stroke-width:0.5;" width="126.5332" x="234.4375" y="751.3652"/><text fill="#000000" font-family="Segoe UI" font-size="14" lengthAdjust="spacing" textLength="112.5332" x="241.4375" y="771.9004">svc-reservations</text></a></g><g class="participant participant-head" data-participant="GP"><a href="/microservices/svc-guest-profiles/" target="_top" title="/microservices/svc-guest-profiles/" xlink:actuate="onRequest" xlink:href="/microservices/svc-guest-profiles/" xlink:show="new" xlink:title="/microservices/svc-guest-profiles/" xlink:type="simple"><rect fill="#FFF8F0" height="30.4883" rx="2.5" ry="2.5" style="stroke:#2E86AB;stroke-width:0.5;" width="107.6523" x="414.1958" y="89.9766"/><text fill="#000000" font-family="Segoe UI" font-size="14" lengthAdjust="spacing" textLength="93.6523" x="421.1958" y="110.5117">Guest Profiles</text></a></g><g class="participant participant-tail" data-participant="GP"><a href="/microservices/svc-guest-profiles/" target="_top" title="/microservices/svc-guest-profiles/" xlink:actuate="onRequest" xlink:href="/microservices/svc-guest-profiles/" xlink:show="new" xlink:title="/microservices/svc-guest-profiles/" xlink:type="simple"><rect fill="#FFF8F0" height="30.4883" rx="2.5" ry="2.5" style="stroke:#2E86AB;stroke-width:0.5;" width="107.6523" x="414.1958" y="751.3652"/><text fill="#000000" font-family="Segoe UI" font-size="14" lengthAdjust="spacing" textLength="93.6523" x="421.1958" y="771.9004">Guest Profiles</text></a></g><g class="participant participant-head" data-participant="TC"><a href="/microservices/svc-trip-catalog/" target="_top" title="/microservices/svc-trip-catalog/" xlink:actuate="onRequest" xlink:href="/microservices/svc-trip-catalog/" xlink:show="new" xlink:title="/microservices/svc-trip-catalog/" xlink:type="simple"><rect fill="#FFF8F0" height="30.4883" rx="2.5" ry="2.5" style="stroke:#2E86AB;stroke-width:0.5;" width="97.6309" x="531.8481" y="89.9766"/><text fill="#000000" font-family="Segoe UI" font-size="14" lengthAdjust="spacing" textLength="83.6309" x="538.8481" y="110.5117">Trip Catalog</text></a></g><g class="participant participant-tail" data-participant="TC"><a href="/microservices/svc-trip-catalog/" target="_top" title="/microservices/svc-trip-catalog/" xlink:actuate="onRequest" xlink:href="/microservices/svc-trip-catalog/" xlink:show="new" xlink:title="/microservices/svc-trip-catalog/" xlink:type="simple"><rect fill="#FFF8F0" height="30.4883" rx="2.5" ry="2.5" style="stroke:#2E86AB;stroke-width:0.5;" width="97.6309" x="531.8481" y="751.3652"/><text fill="#000000" font-family="Segoe UI" font-size="14" lengthAdjust="spacing" textLength="83.6309" x="538.8481" y="771.9004">Trip Catalog</text></a></g><g class="participant participant-head" data-participant="Pay"><a href="/microservices/svc-payments/" target="_top" title="/microservices/svc-payments/" xlink:actuate="onRequest" xlink:href="/microservices/svc-payments/" xlink:show="new" xlink:title="/microservices/svc-payments/" xlink:type="simple"><rect fill="#FFF8F0" height="30.4883" rx="2.5" ry="2.5" style="stroke:#2E86AB;stroke-width:0.5;" width="105.1025" x="639.479" y="89.9766"/><text fill="#000000" font-family="Segoe UI" font-size="14" lengthAdjust="spacing" textLength="91.1025" x="646.479" y="110.5117">Payments Svc</text></a></g><g class="participant participant-tail" data-participant="Pay"><a href="/microservices/svc-payments/" target="_top" title="/microservices/svc-payments/" xlink:actuate="onRequest" xlink:href="/microservices/svc-payments/" xlink:show="new" xlink:title="/microservices/svc-payments/" xlink:type="simple"><rect fill="#FFF8F0" height="30.4883" rx="2.5" ry="2.5" style="stroke:#2E86AB;stroke-width:0.5;" width="105.1025" x="639.479" y="751.3652"/><text fill="#000000" font-family="Segoe UI" font-size="14" lengthAdjust="spacing" textLength="91.1025" x="646.479" y="771.9004">Payments Svc</text></a></g><g class="participant participant-head" data-participant="Kafka"><path d="M759.5815,94.9766 L807.5142,94.9766 C812.5142,94.9766 812.5142,108.2207 812.5142,108.2207 C812.5142,108.2207 812.5142,121.4648 807.5142,121.4648 L759.5815,121.4648 C754.5815,121.4648 754.5815,108.2207 754.5815,108.2207 C754.5815,108.2207 754.5815,94.9766 759.5815,94.9766" fill="#F0E6FF" style="stroke:#181818;stroke-width:0.5;"/><path d="M807.5142,94.9766 C802.5142,94.9766 802.5142,108.2207 802.5142,108.2207 C802.5142,121.4648 807.5142,121.4648 807.5142,121.4648" fill="none" style="stroke:#181818;stroke-width:0.5;"/><text fill="#000000" font-family="Segoe UI" font-size="14" lengthAdjust="spacing" textLength="37.9326" x="759.5815" y="113.5117">Kafka</text></g><g class="participant participant-tail" data-participant="Kafka"><path d="M759.5815,751.3652 L807.5142,751.3652 C812.5142,751.3652 812.5142,764.6094 812.5142,764.6094 C812.5142,764.6094 812.5142,777.8535 807.5142,777.8535 L759.5815,777.8535 C754.5815,777.8535 754.5815,764.6094 754.5815,764.6094 C754.5815,764.6094 754.5815,751.3652 759.5815,751.3652" fill="#F0E6FF" style="stroke:#181818;stroke-width:0.5;"/><path d="M807.5142,751.3652 C802.5142,751.3652 802.5142,764.6094 802.5142,764.6094 C802.5142,777.8535 807.5142,777.8535 807.5142,777.8535" fill="none" style="stroke:#181818;stroke-width:0.5;"/><text fill="#000000" font-family="Segoe UI" font-size="14" lengthAdjust="spacing" textLength="37.9326" x="759.5815" y="769.9004">Kafka</text></g><g class="participant participant-head" data-participant="Ntfy"><a href="/microservices/svc-notifications/" target="_top" title="/microservices/svc-notifications/" xlink:actuate="onRequest" xlink:href="/microservices/svc-notifications/" xlink:show="new" xlink:title="/microservices/svc-notifications/" xlink:type="simple"><rect fill="#FFF8F0" height="30.4883" rx="2.5" ry="2.5" style="stroke:#2E86AB;stroke-width:0.5;" width="100.0303" x="822.5142" y="89.9766"/><text fill="#000000" font-family="Segoe UI" font-size="14" lengthAdjust="spacing" textLength="86.0303" x="829.5142" y="110.5117">Notifications</text></a></g><g class="participant participant-tail" data-participant="Ntfy"><a href="/microservices/svc-notifications/" target="_top" title="/microservices/svc-notifications/" xlink:actuate="onRequest" xlink:href="/microservices/svc-notifications/" xlink:show="new" xlink:title="/microservices/svc-notifications/" xlink:type="simple"><rect fill="#FFF8F0" height="30.4883" rx="2.5" ry="2.5" style="stroke:#2E86AB;stroke-width:0.5;" width="100.0303" x="822.5142" y="751.3652"/><text fill="#000000" font-family="Segoe UI" font-size="14" lengthAdjust="spacing" textLength="86.0303" x="829.5142" y="771.9004">Notifications</text></a></g><g class="participant participant-head" data-participant="DB"><text fill="#000000" font-family="Segoe UI" font-size="14" lengthAdjust="spacing" textLength="76.8496" x="932.5444" y="118.5117">PostgreSQL</text><path d="M955.9692,68.9766 C955.9692,58.9766 973.9692,58.9766 973.9692,58.9766 C973.9692,58.9766 991.9692,58.9766 991.9692,68.9766 L991.9692,94.9766 C991.9692,104.9766 973.9692,104.9766 973.9692,104.9766 C973.9692,104.9766 955.9692,104.9766 955.9692,94.9766 L955.9692,68.9766" fill="#FCE4EC" style="stroke:#181818;stroke-width:0.5;"/><path d="M955.9692,68.9766 C955.9692,78.9766 973.9692,78.9766 973.9692,78.9766 C973.9692,78.9766 991.9692,78.9766 991.9692,68.9766" fill="none" style="stroke:#181818;stroke-width:0.5;"/></g><g class="participant participant-tail" data-participant="DB"><text fill="#000000" font-family="Segoe UI" font-size="14" lengthAdjust="spacing" textLength="76.8496" x="932.5444" y="764.9004">PostgreSQL</text><path d="M955.9692,777.8535 C955.9692,767.8535 973.9692,767.8535 973.9692,767.8535 C973.9692,767.8535 991.9692,767.8535 991.9692,777.8535 L991.9692,803.8535 C991.9692,813.8535 973.9692,813.8535 973.9692,813.8535 C973.9692,813.8535 955.9692,813.8535 955.9692,803.8535 L955.9692,777.8535" fill="#FCE4EC" style="stroke:#181818;stroke-width:0.5;"/><path d="M955.9692,777.8535 C955.9692,787.8535 973.9692,787.8535 973.9692,787.8535 C973.9692,787.8535 991.9692,787.8535 991.9692,777.8535" fill="none" style="stroke:#181818;stroke-width:0.5;"/></g><g><title>API Gateway</title><rect fill="#059669" height="546.2793" style="stroke:#A23B72;stroke-width:1;" width="10" x="171.1484" y="188.0859"/></g><g><title>svc-reservations</title><rect fill="#059669" height="487.6582" style="stroke:#A23B72;stroke-width:1;" width="10" x="292.7041" y="217.3965"/></g><g><title>Guest Profiles</title><rect fill="#DBEAFE" height="29.3105" style="stroke:#A23B72;stroke-width:1;" width="10" x="463.022" y="325.3281"/></g><g><title>Trip Catalog</title><rect fill="#DBEAFE" height="29.3105" style="stroke:#A23B72;stroke-width:1;" width="10" x="575.6636" y="383.9492"/></g><g><title>Payments Svc</title><rect fill="#DBEAFE" height="29.3105" style="stroke:#A23B72;stroke-width:1;" width="10" x="687.0303" y="442.5703"/></g><g><title>PostgreSQL</title><rect fill="#FCE4EC" height="29.3105" style="stroke:#A23B72;stroke-width:1;" width="10" x="968.9692" y="544.502"/></g><path d="M227,136.4648 L227,161.4648 L367,161.4648 L367,146.4648 L357,136.4648 L227,136.4648" fill="#FEFFDD" style="stroke:#181818;stroke-width:0.5;"/><path d="M357,136.4648 L357,146.4648 L367,146.4648 L357,136.4648" fill="#FEFFDD" style="stroke:#181818;stroke-width:0.5;"/><a href="/services/api/svc-reservations.html#/Reservations/createReservation" target="_top" title="/services/api/svc-reservations.html#/Reservations/createReservation" xlink:actuate="onRequest" xlink:href="/services/api/svc-reservations.html#/Reservations/createReservation" xlink:show="new" xlink:title="/services/api/svc-reservations.html#/Reservations/createReservation" xlink:type="simple"><text fill="#0000FF" font-family="Segoe UI" font-size="13" lengthAdjust="spacing" text-decoration="underline" textLength="119.4058" x="233" y="154.0332">View in Swagger UI</text></a><g class="message" data-participant-1="Client" data-participant-2="GW"><polygon fill="#059669" points="159.1484,184.0859,169.1484,188.0859,159.1484,192.0859,163.1484,188.0859" style="stroke:#059669;stroke-width:1;"/><line style="stroke:#059669;stroke-width:1;" x1="31.7524" x2="165.1484" y1="188.0859" y2="188.0859"/><text fill="#000000" font-family="Segoe UI" font-size="13" lengthAdjust="spacing" textLength="120.396" x="38.7524" y="183.3438">POST /reservations</text></g><g class="message" data-participant-1="GW" data-participant-2="Svc"><polygon fill="#059669" points="280.7041,213.3965,290.7041,217.3965,280.7041,221.3965,284.7041,217.3965" style="stroke:#059669;stroke-width:1;"/><line style="stroke:#059669;stroke-width:1;" x1="181.1484" x2="286.7041" y1="217.3965" y2="217.3965"/><text fill="#000000" font-family="Segoe UI" font-size="13" lengthAdjust="spacing" textLength="85.1348" x="188.1484" y="212.6543">route request</text></g><path d="M307,230.3965 L307,255.3965 L465,255.3965 L465,240.3965 L455,230.3965 L307,230.3965" fill="#FEFFDD" style="stroke:#181818;stroke-width:0.5;"/><path d="M455,230.3965 L455,240.3965 L465,240.3965 L455,230.3965" fill="#FEFFDD" style="stroke:#181818;stroke-width:0.5;"/><text fill="#000000" font-family="Segoe UI" font-size="13" lengthAdjust="spacing" textLength="137.5728" x="313" y="247.9648">Validate request body</text><rect fill="#EEEEEE" height="3" style="stroke:#EEEEEE;stroke-width:1;" width="1020.394" x="0" y="281.3623"/><line style="stroke:#000000;stroke-width:1;" x1="0" x2="1020.394" y1="281.3623" y2="281.3623"/><line style="stroke:#000000;stroke-width:1;" x1="0" x2="1020.394" y1="284.3623" y2="284.3623"/><rect fill="#EEEEEE" height="23.3105" style="stroke:#000000;stroke-width:2;" width="190.6743" x="414.8599" y="270.707"/><text fill="#000000" font-family="Segoe UI" font-size="13" font-weight="bold" lengthAdjust="spacing" textLength="172.3896" x="420.8599" y="287.2754">Cross-Service Integration</text><g class="message" data-participant-1="Svc" data-participant-2="GP"><polygon fill="#059669" points="451.022,321.3281,461.022,325.3281,451.022,329.3281,455.022,325.3281" style="stroke:#059669;stroke-width:1;"/><line style="stroke:#059669;stroke-width:1;" x1="302.7041" x2="457.022" y1="325.3281" y2="325.3281"/><a href="/microservices/svc-guest-profiles/#get-guestsguest_id-get-guest-profile" target="_top" title="/microservices/svc-guest-profiles/#get-guestsguest_id-get-guest-profile" xlink:actuate="onRequest" xlink:href="/microservices/svc-guest-profiles/#get-guestsguest_id-get-guest-profile" xlink:show="new" xlink:title="/microservices/svc-guest-profiles/#get-guestsguest_id-get-guest-profile" xlink:type="simple"><text fill="#0000FF" font-family="Segoe UI" font-size="13" lengthAdjust="spacing" text-decoration="underline" textLength="141.3179" x="309.7041" y="320.5859">Validate guest identity</text></a></g><g class="message" data-participant-1="GP" data-participant-2="Svc"><polygon fill="#059669" points="313.7041,350.6387,303.7041,354.6387,313.7041,358.6387,309.7041,354.6387" style="stroke:#059669;stroke-width:1;"/><line style="stroke:#059669;stroke-width:1;stroke-dasharray:2,2;" x1="307.7041" x2="467.022" y1="354.6387" y2="354.6387"/><text fill="#000000" font-family="Segoe UI" font-size="13" lengthAdjust="spacing" textLength="18.5859" x="319.7041" y="349.8965">OK</text></g><g class="message" data-participant-1="Svc" data-participant-2="TC"><polygon fill="#059669" points="563.6636,379.9492,573.6636,383.9492,563.6636,387.9492,567.6636,383.9492" style="stroke:#059669;stroke-width:1;"/><line style="stroke:#059669;stroke-width:1;" x1="302.7041" x2="569.6636" y1="383.9492" y2="383.9492"/><a href="/microservices/svc-trip-catalog/#get-tripstrip_id-get-trip-details" target="_top" title="/microservices/svc-trip-catalog/#get-tripstrip_id-get-trip-details" xlink:actuate="onRequest" xlink:href="/microservices/svc-trip-catalog/#get-tripstrip_id-get-trip-details" xlink:show="new" xlink:title="/microservices/svc-trip-catalog/#get-tripstrip_id-get-trip-details" xlink:type="simple"><text fill="#0000FF" font-family="Segoe UI" font-size="13" lengthAdjust="spacing" text-decoration="underline" textLength="135.8018" x="309.7041" y="379.207">Check trip availability</text></a></g><g class="message" data-participant-1="TC" data-participant-2="Svc"><polygon fill="#059669" points="313.7041,409.2598,303.7041,413.2598,313.7041,417.2598,309.7041,413.2598" style="stroke:#059669;stroke-width:1;"/><line style="stroke:#059669;stroke-width:1;stroke-dasharray:2,2;" x1="307.7041" x2="579.6636" y1="413.2598" y2="413.2598"/><text fill="#000000" font-family="Segoe UI" font-size="13" lengthAdjust="spacing" textLength="18.5859" x="319.7041" y="408.5176">OK</text></g><g class="message" data-participant-1="Svc" data-participant-2="Pay"><polygon fill="#059669" points="675.0303,438.5703,685.0303,442.5703,675.0303,446.5703,679.0303,442.5703" style="stroke:#059669;stroke-width:1;"/><line style="stroke:#059669;stroke-width:1;" x1="302.7041" x2="681.0303" y1="442.5703" y2="442.5703"/><a href="/microservices/svc-payments/#post-payments-process-a-payment" target="_top" title="/microservices/svc-payments/#post-payments-process-a-payment" xlink:actuate="onRequest" xlink:href="/microservices/svc-payments/#post-payments-process-a-payment" xlink:show="new" xlink:title="/microservices/svc-payments/#post-payments-process-a-payment" xlink:type="simple"><text fill="#0000FF" font-family="Segoe UI" font-size="13" lengthAdjust="spacing" text-decoration="underline" textLength="157.1743" x="309.7041" y="437.8281">Process deposit payment</text></a></g><g class="message" data-participant-1="Pay" data-participant-2="Svc"><polygon fill="#059669" points="313.7041,467.8809,303.7041,471.8809,313.7041,475.8809,309.7041,471.8809" style="stroke:#059669;stroke-width:1;"/><line style="stroke:#059669;stroke-width:1;stroke-dasharray:2,2;" x1="307.7041" x2="691.0303" y1="471.8809" y2="471.8809"/><text fill="#000000" font-family="Segoe UI" font-size="13" lengthAdjust="spacing" textLength="18.5859" x="319.7041" y="467.1387">OK</text></g><rect fill="#EEEEEE" height="3" style="stroke:#EEEEEE;stroke-width:1;" width="1020.394" x="0" y="500.5361"/><line style="stroke:#000000;stroke-width:1;" x1="0" x2="1020.394" y1="500.5361" y2="500.5361"/><line style="stroke:#000000;stroke-width:1;" x1="0" x2="1020.394" y1="503.5361" y2="503.5361"/><rect fill="#EEEEEE" height="23.3105" style="stroke:#000000;stroke-width:2;" width="80.3711" x="470.0115" y="489.8809"/><text fill="#000000" font-family="Segoe UI" font-size="13" font-weight="bold" lengthAdjust="spacing" textLength="62.0864" x="476.0115" y="506.4492">Database</text><g class="message" data-participant-1="Svc" data-participant-2="DB"><polygon fill="#059669" points="956.9692,540.502,966.9692,544.502,956.9692,548.502,960.9692,544.502" style="stroke:#059669;stroke-width:1;"/><line style="stroke:#059669;stroke-width:1;" x1="302.7041" x2="962.9692" y1="544.502" y2="544.502"/><text fill="#000000" font-family="Segoe UI" font-size="13" lengthAdjust="spacing" textLength="96.0718" x="309.7041" y="539.7598">INSERT INTO ...</text></g><g class="message" data-participant-1="DB" data-participant-2="Svc"><polygon fill="#059669" points="313.7041,569.8125,303.7041,573.8125,313.7041,577.8125,309.7041,573.8125" style="stroke:#059669;stroke-width:1;"/><line style="stroke:#059669;stroke-width:1;stroke-dasharray:2,2;" x1="307.7041" x2="972.9692" y1="573.8125" y2="573.8125"/><text fill="#000000" font-family="Segoe UI" font-size="13" lengthAdjust="spacing" textLength="76.4575" x="319.7041" y="569.0703">Created row</text></g><rect fill="#EEEEEE" height="3" style="stroke:#EEEEEE;stroke-width:1;" width="1020.394" x="0" y="602.4678"/><line style="stroke:#000000;stroke-width:1;" x1="0" x2="1020.394" y1="602.4678" y2="602.4678"/><line style="stroke:#000000;stroke-width:1;" x1="0" x2="1020.394" y1="605.4678" y2="605.4678"/><rect fill="#EEEEEE" height="23.3105" style="stroke:#000000;stroke-width:2;" width="106.8218" x="456.7861" y="591.8125"/><text fill="#000000" font-family="Segoe UI" font-size="13" font-weight="bold" lengthAdjust="spacing" textLength="88.5371" x="462.7861" y="608.3809">Async Events</text><g class="message" data-participant-1="Svc" data-participant-2="Kafka"><line style="stroke:#059669;stroke-width:1;" x1="781.5479" x2="771.5479" y1="646.4336" y2="642.4336"/><line style="stroke:#059669;stroke-width:1;" x1="781.5479" x2="771.5479" y1="646.4336" y2="650.4336"/><line style="stroke:#059669;stroke-width:1;" x1="302.7041" x2="782.5479" y1="646.4336" y2="646.4336"/><text fill="#000000" font-family="Segoe UI" font-size="13" lengthAdjust="spacing" textLength="121.1323" x="309.7041" y="641.6914">reservation.created</text></g><g class="message" data-participant-1="Svc" data-participant-2="Ntfy"><line style="stroke:#059669;stroke-width:1;" x1="870.5293" x2="860.5293" y1="675.7441" y2="671.7441"/><line style="stroke:#059669;stroke-width:1;" x1="870.5293" x2="860.5293" y1="675.7441" y2="679.7441"/><line style="stroke:#059669;stroke-width:1;" x1="302.7041" x2="871.5293" y1="675.7441" y2="675.7441"/><a href="/microservices/svc-notifications/#post-notifications-send-a-notification" target="_top" title="/microservices/svc-notifications/#post-notifications-send-a-notification" xlink:actuate="onRequest" xlink:href="/microservices/svc-notifications/#post-notifications-send-a-notification" xlink:show="new" xlink:title="/microservices/svc-notifications/#post-notifications-send-a-notification" xlink:type="simple"><text fill="#0000FF" font-family="Segoe UI" font-size="13" lengthAdjust="spacing" text-decoration="underline" textLength="170.9614" x="309.7041" y="671.002">Send booking confirmation</text></a></g><g class="message" data-participant-1="Svc" data-participant-2="GW"><polygon fill="#059669" points="192.1484,701.0547,182.1484,705.0547,192.1484,709.0547,188.1484,705.0547" style="stroke:#059669;stroke-width:1;"/><line style="stroke:#059669;stroke-width:1;stroke-dasharray:2,2;" x1="186.1484" x2="296.7041" y1="705.0547" y2="705.0547"/><text fill="#000000" font-family="Segoe UI" font-size="13" lengthAdjust="spacing" textLength="77.7969" x="198.1484" y="700.3125">201 Created</text></g><g class="message" data-participant-1="GW" data-participant-2="Client"><polygon fill="#059669" points="42.7524,730.3652,32.7524,734.3652,42.7524,738.3652,38.7524,734.3652" style="stroke:#059669;stroke-width:1;"/><line style="stroke:#059669;stroke-width:1;stroke-dasharray:2,2;" x1="36.7524" x2="175.1484" y1="734.3652" y2="734.3652"/><text fill="#000000" font-family="Segoe UI" font-size="13" lengthAdjust="spacing" textLength="77.7969" x="48.7524" y="729.623">201 Created</text></g><!--SRC=[ZLNRRY8v47ttLvJ2SqCkixaWPIJeT2CqKT8xC3CFiz7ATBix5etDsWO6ZVRVj-o-u4v0cqGYJjNngOjF5Nh9nPegke85JPU5aXkHXRAK2dfnP7-9RX7wbMPonqK1EIqrypmPo-ccDB4Kveck69pDM24PV9kU-TVPFnicKWQ_2U3FI2cvgqET_t5tVNtdp0bLXgTyJOKPIvKnLKCkezlhqVWTv6tIqMtyARvri4UUiqSkM8TcT7arlhbq_h7yrN755xVn-KNhUjUEE4Q_Spz9qsLDRsuMLvxlI2kleXloBo66cv91yZoRmq0npTIM6Yw5_ak4Yb73W89WE_1SXAmFzS9PM78cp1bG3TMnwnubKvWWpuxk7MRo0teFusY43zd1wMqQ-F4TUBPDuUVFmOgdIbeNJvaUl4KENbxQDdSe9nkc3IHAvhna5U4aESvNM6Ymhg6EiMvlXt6k-1f2QcWf2ySt3u_p6GG6QGKyoPRG_GhxvSfqR6WuJhUkaJuLQdU3mlv2yoLrjzq9tUVHTHnt8w46UCvJhxDF9ZyHI_XOFs26vIoenfY9rAPGRFRde-Dw62CcZ3v58I5ucu7SCcMBGlrXY9QThlcxn-k_cbNP6tprtpDrmlDCy9sZ1Bc0sOuM1N9_cxwy42OoiE48gNG7mMUhhk4HCHEQ6hwrQhRoguSRZtZ3Icm8E1leL7OXQ7D0MsS3hqfJl7Wr8FFwtdTQyemUhi92Pdj2xkyXnBRgO5RL3bDXMA6gOkxl2R6tRRe9Sdn4aBs2cSgctUVVF0jQKmCxPEFCm3Fi2ZTxxDMX_gGTFpm6RGEUlv2CUQWsHLJuy0CQTmbQYxOVJNeEaZ53UOdRuPMbIx0ce5kqq0KltsI7mPhiy7WgktdOPcSdPlW_CzDRIzkZ-b_RB8JeW3Ocko6i1Ryq4CaDr7O_CHkdoSoUJwM6FlVw3ysiU8-DOpA4wTCi-Zh7F_DdwFVxXmZU4E7nm5zjuGmLklC3FOnTd97UYnIYhLiZXrYVwsKmzFTslvghhCMu7J3yo1QeMjYn1Hhd3vle6s5cPt8XvT9-9wTIv5ojd0TxMOLjPlJo_A8fpI_BBWqxbmYhX_eaTFA3_0S0]--></g></svg>