<svg xmlns="http://www.w3.org/2000/svg" xmlns:xlink="http://www.w3.org/1999/xlink" contentStyleType="text/css" data-diagram-type="SEQUENCE" height="487px" preserveAspectRatio="none" style="width:582px;height:487px;background:#FEFEFE;" version="1.1" viewBox="0 0 582 487" width="582px" zoomAndPan="magnify"><title>GET /safety-inspections</title><defs/><g><rect fill="#FEFEFE" height="487" style="stroke:none;stroke-width:1;" width="582" x="0" y="0"/><text fill="#000000" font-family="Segoe UI" font-size="14" font-weight="bold" lengthAdjust="spacing" textLength="176.8389" x="198.9707" y="41.3125">GET /safety-inspections</text><text fill="#000000" font-family="Segoe UI" font-size="14" font-weight="bold" lengthAdjust="spacing" textLength="263.0947" x="155.8428" y="57.8008">List safety inspections for a location</text><g><title>API Gateway</title><rect fill="#2563EB" height="189.8633" style="stroke:#A23B72;stroke-width:1;" width="10" x="203.1851" y="200.8633"/></g><g><title>svc-safety-compliance</title><rect fill="#2563EB" height="131.2422" style="stroke:#A23B72;stroke-width:1;" width="10" x="346.103" y="230.1738"/></g><g><title>PostgreSQL</title><rect fill="#FCE4EC" height="29.3105" style="stroke:#A23B72;stroke-width:1;" width="10" x="524.3555" y="302.7949"/></g><g><title>Client</title><rect fill="#000000" fill-opacity="0.00000" height="274.4844" width="8" x="27.7524" y="134.2422"/><line style="stroke:#A23B72;stroke-width:0.5;stroke-dasharray:5,5;" x1="31" x2="31" y1="134.2422" y2="408.7266"/></g><g><title>API Gateway</title><rect fill="#000000" fill-opacity="0.00000" height="274.4844" width="8" x="204.1851" y="134.2422"/><line style="stroke:#A23B72;stroke-width:0.5;stroke-dasharray:5,5;" x1="207.896" x2="207.896" y1="134.2422" y2="408.7266"/></g><g><title>svc-safety-compliance</title><rect fill="#000000" fill-opacity="0.00000" height="274.4844" width="8" x="347.103" y="134.2422"/><line style="stroke:#A23B72;stroke-width:0.5;stroke-dasharray:5,5;" x1="350.4741" x2="350.4741" y1="134.2422" y2="408.7266"/></g><g><title>PostgreSQL</title><rect fill="#000000" fill-opacity="0.00000" height="274.4844" width="8" x="525.3555" y="134.2422"/><line style="stroke:#A23B72;stroke-width:0.5;stroke-dasharray:5,5;" x1="528.9307" x2="528.9307" y1="134.2422" y2="408.7266"/></g><g class="participant participant-head" data-participant="Client"><a href="/applications/" target="_top" title="/applications/" xlink:actuate="onRequest" xlink:href="/applications/" xlink:show="new" xlink:title="/applications/" xlink:type="simple"><rect fill="#E8F4F8" height="30.4883" rx="2.5" ry="2.5" style="stroke:#2E86AB;stroke-width:0.5;" width="53.5049" x="5" y="102.7539"/><text fill="#000000" font-family="Segoe UI" font-size="14" lengthAdjust="spacing" textLength="39.5049" x="12" y="123.2891">Client</text></a></g><g class="participant participant-tail" data-participant="Client"><a href="/applications/" target="_top" title="/applications/" xlink:actuate="onRequest" xlink:href="/applications/" xlink:show="new" xlink:title="/applications/" xlink:type="simple"><rect fill="#E8F4F8" height="30.4883" rx="2.5" ry="2.5" style="stroke:#2E86AB;stroke-width:0.5;" width="53.5049" x="5" y="407.7266"/><text fill="#000000" font-family="Segoe UI" font-size="14" lengthAdjust="spacing" textLength="39.5049" x="12" y="428.2617">Client</text></a></g><g class="participant participant-head" data-participant="GW"><rect fill="#DBEAFE" height="30.4883" rx="2.5" ry="2.5" style="stroke:#2E86AB;stroke-width:0.5;" width="96.5781" x="159.896" y="102.7539"/><text fill="#000000" font-family="Segoe UI" font-size="14" lengthAdjust="spacing" textLength="82.5781" x="166.896" y="123.2891">API Gateway</text></g><g class="participant participant-tail" data-participant="GW"><rect fill="#DBEAFE" height="30.4883" rx="2.5" ry="2.5" style="stroke:#2E86AB;stroke-width:0.5;" width="96.5781" x="159.896" y="407.7266"/><text fill="#000000" font-family="Segoe UI" font-size="14" lengthAdjust="spacing" textLength="82.5781" x="166.896" y="428.2617">API Gateway</text></g><g class="participant participant-head" data-participant="Svc"><a href="/microservices/svc-safety-compliance/" target="_top" title="/microservices/svc-safety-compliance/" xlink:actuate="onRequest" xlink:href="/microservices/svc-safety-compliance/" xlink:show="new" xlink:title="/microservices/svc-safety-compliance/" xlink:type="simple"><rect fill="#E8F4F8" height="30.4883" rx="2.5" ry="2.5" style="stroke:#2E86AB;stroke-width:0.5;" width="169.2578" x="266.4741" y="102.7539"/><text fill="#000000" font-family="Segoe UI" font-size="14" lengthAdjust="spacing" textLength="155.2578" x="273.4741" y="123.2891">svc-safety-compliance</text></a></g><g class="participant participant-tail" data-participant="Svc"><a href="/microservices/svc-safety-compliance/" target="_top" title="/microservices/svc-safety-compliance/" xlink:actuate="onRequest" xlink:href="/microservices/svc-safety-compliance/" xlink:show="new" xlink:title="/microservices/svc-safety-compliance/" xlink:type="simple"><rect fill="#E8F4F8" height="30.4883" rx="2.5" ry="2.5" style="stroke:#2E86AB;stroke-width:0.5;" width="169.2578" x="266.4741" y="407.7266"/><text fill="#000000" font-family="Segoe UI" font-size="14" lengthAdjust="spacing" textLength="155.2578" x="273.4741" y="428.2617">svc-safety-compliance</text></a></g><g class="participant participant-head" data-participant="DB"><text fill="#000000" font-family="Segoe UI" font-size="14" lengthAdjust="spacing" textLength="76.8496" x="487.9307" y="131.2891">PostgreSQL</text><path d="M511.3555,81.7539 C511.3555,71.7539 529.3555,71.7539 529.3555,71.7539 C529.3555,71.7539 547.3555,71.7539 547.3555,81.7539 L547.3555,107.7539 C547.3555,117.7539 529.3555,117.7539 529.3555,117.7539 C529.3555,117.7539 511.3555,117.7539 511.3555,107.7539 L511.3555,81.7539" fill="#FCE4EC" style="stroke:#181818;stroke-width:0.5;"/><path d="M511.3555,81.7539 C511.3555,91.7539 529.3555,91.7539 529.3555,91.7539 C529.3555,91.7539 547.3555,91.7539 547.3555,81.7539" fill="none" style="stroke:#181818;stroke-width:0.5;"/></g><g class="participant participant-tail" data-participant="DB"><text fill="#000000" font-family="Segoe UI" font-size="14" lengthAdjust="spacing" textLength="76.8496" x="487.9307" y="421.2617">PostgreSQL</text><path d="M511.3555,434.2148 C511.3555,424.2148 529.3555,424.2148 529.3555,424.2148 C529.3555,424.2148 547.3555,424.2148 547.3555,434.2148 L547.3555,460.2148 C547.3555,470.2148 529.3555,470.2148 529.3555,470.2148 C529.3555,470.2148 511.3555,470.2148 511.3555,460.2148 L511.3555,434.2148" fill="#FCE4EC" style="stroke:#181818;stroke-width:0.5;"/><path d="M511.3555,434.2148 C511.3555,444.2148 529.3555,444.2148 529.3555,444.2148 C529.3555,444.2148 547.3555,444.2148 547.3555,434.2148" fill="none" style="stroke:#181818;stroke-width:0.5;"/></g><g><title>API Gateway</title><rect fill="#2563EB" height="189.8633" style="stroke:#A23B72;stroke-width:1;" width="10" x="203.1851" y="200.8633"/></g><g><title>svc-safety-compliance</title><rect fill="#2563EB" height="131.2422" style="stroke:#A23B72;stroke-width:1;" width="10" x="346.103" y="230.1738"/></g><g><title>PostgreSQL</title><rect fill="#FCE4EC" height="29.3105" style="stroke:#A23B72;stroke-width:1;" width="10" x="524.3555" y="302.7949"/></g><path d="M280,149.2422 L280,174.2422 L420,174.2422 L420,159.2422 L410,149.2422 L280,149.2422" fill="#FEFFDD" style="stroke:#181818;stroke-width:0.5;"/><path d="M410,149.2422 L410,159.2422 L420,159.2422 L410,149.2422" fill="#FEFFDD" style="stroke:#181818;stroke-width:0.5;"/><a href="/services/api/svc-safety-compliance.html#/Inspections/listSafetyInspections" target="_top" title="/services/api/svc-safety-compliance.html#/Inspections/listSafetyInspections" xlink:actuate="onRequest" xlink:href="/services/api/svc-safety-compliance.html#/Inspections/listSafetyInspections" xlink:show="new" xlink:title="/services/api/svc-safety-compliance.html#/Inspections/listSafetyInspections" xlink:type="simple"><text fill="#0000FF" font-family="Segoe UI" font-size="13" lengthAdjust="spacing" text-decoration="underline" textLength="119.4058" x="286" y="166.8105">View in Swagger UI</text></a><g class="message" data-participant-1="Client" data-participant-2="GW"><polygon fill="#2563EB" points="191.1851,196.8633,201.1851,200.8633,191.1851,204.8633,195.1851,200.8633" style="stroke:#2563EB;stroke-width:1;"/><line style="stroke:#2563EB;stroke-width:1;" x1="31.7524" x2="197.1851" y1="200.8633" y2="200.8633"/><text fill="#000000" font-family="Segoe UI" font-size="13" lengthAdjust="spacing" textLength="152.4326" x="38.7524" y="196.1211">GET /safety-inspections</text></g><g class="message" data-participant-1="GW" data-participant-2="Svc"><polygon fill="#2563EB" points="334.103,226.1738,344.103,230.1738,334.103,234.1738,338.103,230.1738" style="stroke:#2563EB;stroke-width:1;"/><line style="stroke:#2563EB;stroke-width:1;" x1="213.1851" x2="340.103" y1="230.1738" y2="230.1738"/><text fill="#000000" font-family="Segoe UI" font-size="13" lengthAdjust="spacing" textLength="85.1348" x="220.1851" y="225.4316">route request</text></g><rect fill="#EEEEEE" height="3" style="stroke:#EEEEEE;stroke-width:1;" width="575.7803" x="0" y="258.8291"/><line style="stroke:#000000;stroke-width:1;" x1="0" x2="575.7803" y1="258.8291" y2="258.8291"/><line style="stroke:#000000;stroke-width:1;" x1="0" x2="575.7803" y1="261.8291" y2="261.8291"/><rect fill="#EEEEEE" height="23.3105" style="stroke:#000000;stroke-width:2;" width="80.3711" x="247.7046" y="248.1738"/><text fill="#000000" font-family="Segoe UI" font-size="13" font-weight="bold" lengthAdjust="spacing" textLength="62.0864" x="253.7046" y="264.7422">Database</text><g class="message" data-participant-1="Svc" data-participant-2="DB"><polygon fill="#2563EB" points="512.3555,298.7949,522.3555,302.7949,512.3555,306.7949,516.3555,302.7949" style="stroke:#2563EB;stroke-width:1;"/><line style="stroke:#2563EB;stroke-width:1;" x1="356.103" x2="518.3555" y1="302.7949" y2="302.7949"/><text fill="#000000" font-family="Segoe UI" font-size="13" lengthAdjust="spacing" textLength="149.2524" x="363.103" y="298.0527">SELECT ... WHERE filters</text></g><g class="message" data-participant-1="DB" data-participant-2="Svc"><polygon fill="#2563EB" points="367.103,328.1055,357.103,332.1055,367.103,336.1055,363.103,332.1055" style="stroke:#2563EB;stroke-width:1;"/><line style="stroke:#2563EB;stroke-width:1;stroke-dasharray:2,2;" x1="361.103" x2="528.3555" y1="332.1055" y2="332.1055"/><text fill="#000000" font-family="Segoe UI" font-size="13" lengthAdjust="spacing" textLength="93.209" x="373.103" y="327.3633">Page of results</text></g><g class="message" data-participant-1="Svc" data-participant-2="GW"><polygon fill="#2563EB" points="224.1851,357.416,214.1851,361.416,224.1851,365.416,220.1851,361.416" style="stroke:#2563EB;stroke-width:1;"/><line style="stroke:#2563EB;stroke-width:1;stroke-dasharray:2,2;" x1="218.1851" x2="350.103" y1="361.416" y2="361.416"/><text fill="#000000" font-family="Segoe UI" font-size="13" lengthAdjust="spacing" textLength="47.3599" x="230.1851" y="356.6738">200 OK</text></g><g class="message" data-participant-1="GW" data-participant-2="Client"><polygon fill="#2563EB" points="42.7524,386.7266,32.7524,390.7266,42.7524,394.7266,38.7524,390.7266" style="stroke:#2563EB;stroke-width:1;"/><line style="stroke:#2563EB;stroke-width:1;stroke-dasharray:2,2;" x1="36.7524" x2="207.1851" y1="390.7266" y2="390.7266"/><text fill="#000000" font-family="Segoe UI" font-size="13" lengthAdjust="spacing" textLength="47.3599" x="48.7524" y="385.9844">200 OK</text></g><a href="/microservices/svc-safety-compliance/#integration-context" target="_top" title="/microservices/svc-safety-compliance/#integration-context" xlink:actuate="onRequest" xlink:href="/microservices/svc-safety-compliance/#integration-context" xlink:show="new" xlink:title="/microservices/svc-safety-compliance/#integration-context" xlink:type="simple"><text fill="#0000FF" font-family="Segoe UI" font-size="10" lengthAdjust="spacing" text-decoration="underline" textLength="222.0703" x="352.71" y="14.668">&#11014; svc-safety-compliance Integration Context</text></a><!--SRC=[ZPJVRjem5CRl_HH7S0sXq1LKYKdyIHWQQjberukEYqDo4gm6ExDTQ3NjTa-pfzgJx2Jy2okJ1XSOVzyvd_sp4_iaLOO6Lx30y2an-bb50vrg0zN0px_27XnsYP7UI9L0ZAcbaX9HZC-f2xHoDxWYgCmeqGJtuqgvdBuzame9lWlWJyyOlTb5DTzTjMXHJ4_HE1dA39NhQnEHsLlypbMl_yRozwBzJd0PT0hRHCOqaOfEslIQhNwxMUXz_N8Y1HUTe75naDxW20BM2_b6kzEkORkzQ9MqCoXRVbly4699o6Nm-EYjP6Yq9REM8LdFhiEQnPZSQotKgooLoAIygbIE4eDEQiNp_EV5mUzVF-6i7SP7DmosxlbS22TTIZ3oxy3RrKXbCmfpd_sg9j8ws0fG4Y3cbIEaEYmQ2f4TiKDba4fIhW9eOJlCjuGPhsHhjnuddrJqfcCOeQCDlXPbemUe3lj-Zw_OYU_iregAsJhyNt3p-U4gHEXmWPOlvLHRbnYQVPeKxOPzFfY1V-aFX51yQg3NV38SmkV8COS4pEJvbFhIhTAgDpuoyr9cEIjyfLdu8cd3Q66smIJXZFinmo4LGHuhn0vWxNtEvFfV1oMGVzSCi22tUs9uo6Kvc6lW2yUYoPyowuxkNDpRHRSBmpsFRbU8NEG6ZE8QPlx47zn1lLw7Xm_-PnzYcJeofU0ICHxM3ibJJ9XUpDcMtm9MH5GgsONiTzTiDE3sOzcI4y_tmOuTYNEkqOFu0m00]--></g></svg>