<?xml version="1.0" encoding="UTF-8" standalone="no"?><svg xmlns="http://www.w3.org/2000/svg" xmlns:xlink="http://www.w3.org/1999/xlink" contentScriptType="application/ecmascript" contentStyleType="text/css" height="610px" preserveAspectRatio="none" style="width:793px;height:610px;background:#FEFEFE;" version="1.1" viewBox="0 0 793 610" width="793px" zoomAndPan="magnify"><defs/><g><text fill="#000000" font-family="Segoe UI" font-size="18" lengthAdjust="spacingAndGlyphs" textLength="268" x="258" y="41.3486">POST /trails/{trail_id}/closures</text><text fill="#000000" font-family="Segoe UI" font-size="18" lengthAdjust="spacingAndGlyphs" textLength="186" x="299" y="62.3018">Create a trail closure</text><rect fill="#059669" height="317.3281" style="stroke: #6B7280; stroke-width: 1.0;" width="10" x="245.5" y="202.1094"/><rect fill="#059669" height="259.0625" style="stroke: #6B7280; stroke-width: 1.0;" width="10" x="386" y="231.2422"/><rect fill="#FEF9C3" height="29.1328" style="stroke: #6B7280; stroke-width: 1.0;" width="10" x="599" y="338.6406"/><rect fill="#FEF9C3" height="29.1328" style="stroke: #6B7280; stroke-width: 1.0;" width="10" x="599" y="432.0391"/><line style="stroke: #6B7280; stroke-width: 1.0; stroke-dasharray: 5.0,5.0;" x1="34" x2="34" y1="135.8438" y2="537.4375"/><line style="stroke: #6B7280; stroke-width: 1.0; stroke-dasharray: 5.0,5.0;" x1="250.5" x2="250.5" y1="135.8438" y2="537.4375"/><line style="stroke: #6B7280; stroke-width: 1.0; stroke-dasharray: 5.0,5.0;" x1="390.5" x2="390.5" y1="135.8438" y2="537.4375"/><line style="stroke: #6B7280; stroke-width: 1.0; stroke-dasharray: 5.0,5.0;" x1="604" x2="604" y1="135.8438" y2="537.4375"/><a href="/applications/" target="_top" title="/applications/" xlink:actuate="onRequest" xlink:href="/applications/" xlink:show="new" xlink:title="/applications/" xlink:type="simple"><rect fill="#F9FAFB" height="30.2969" style="stroke: #374151; stroke-width: 1.5;" width="53" x="8" y="104.5469"/><text fill="#000000" font-family="Segoe UI" font-size="14" lengthAdjust="spacingAndGlyphs" textLength="39" x="15" y="124.542">Client</text><rect fill="#F9FAFB" height="30.2969" style="stroke: #374151; stroke-width: 1.5;" width="53" x="8" y="536.4375"/><text fill="#000000" font-family="Segoe UI" font-size="14" lengthAdjust="spacingAndGlyphs" textLength="39" x="15" y="556.4326">Client</text></a><a href="/actors/#api-gateway" target="_top" title="/actors/#api-gateway" xlink:actuate="onRequest" xlink:href="/actors/#api-gateway" xlink:show="new" xlink:title="/actors/#api-gateway" xlink:type="simple"><rect fill="#E0F2FE" height="30.2969" style="stroke: #374151; stroke-width: 1.5;" width="98" x="201.5" y="104.5469"/><text fill="#000000" font-family="Segoe UI" font-size="14" lengthAdjust="spacingAndGlyphs" textLength="84" x="208.5" y="124.542">API Gateway</text><rect fill="#E0F2FE" height="30.2969" style="stroke: #374151; stroke-width: 1.5;" width="98" x="201.5" y="536.4375"/><text fill="#000000" font-family="Segoe UI" font-size="14" lengthAdjust="spacingAndGlyphs" textLength="84" x="208.5" y="556.4326">API Gateway</text></a><a href="/microservices/svc-trail-management/" target="_top" title="/microservices/svc-trail-management/" xlink:actuate="onRequest" xlink:href="/microservices/svc-trail-management/" xlink:show="new" xlink:title="/microservices/svc-trail-management/" xlink:type="simple"><rect fill="#FEF3C7" height="30.2969" style="stroke: #374151; stroke-width: 1.5;" width="163" x="309.5" y="104.5469"/><text fill="#000000" font-family="Segoe UI" font-size="14" lengthAdjust="spacingAndGlyphs" textLength="149" x="316.5" y="124.542">svc-trail-management</text><rect fill="#FEF3C7" height="30.2969" style="stroke: #374151; stroke-width: 1.5;" width="163" x="309.5" y="536.4375"/><text fill="#000000" font-family="Segoe UI" font-size="14" lengthAdjust="spacingAndGlyphs" textLength="149" x="316.5" y="556.4326">svc-trail-management</text></a><a href="/microservices/svc-trail-management/#data-store" target="_top" title="/microservices/svc-trail-management/#data-store" xlink:actuate="onRequest" xlink:href="/microservices/svc-trail-management/#data-store" xlink:show="new" xlink:title="/microservices/svc-trail-management/#data-store" xlink:type="simple"><text fill="#000000" font-family="Segoe UI" font-size="14" lengthAdjust="spacingAndGlyphs" textLength="54" x="574" y="132.542">PostGIS</text><path d="M586,83.5469 C586,73.5469 604,73.5469 604,73.5469 C604,73.5469 622,73.5469 622,83.5469 L622,109.5469 C622,119.5469 604,119.5469 604,119.5469 C604,119.5469 586,119.5469 586,109.5469 L586,83.5469 " fill="#FEF9C3" style="stroke: #000000; stroke-width: 1.5;"/><path d="M586,83.5469 C586,93.5469 604,93.5469 604,93.5469 C604,93.5469 622,93.5469 622,83.5469 " fill="none" style="stroke: #000000; stroke-width: 1.5;"/><text fill="#000000" font-family="Segoe UI" font-size="14" lengthAdjust="spacingAndGlyphs" textLength="54" x="574" y="549.4326">PostGIS</text><path d="M586,562.7344 C586,552.7344 604,552.7344 604,552.7344 C604,552.7344 622,552.7344 622,562.7344 L622,588.7344 C622,598.7344 604,598.7344 604,598.7344 C604,598.7344 586,598.7344 586,588.7344 L586,562.7344 " fill="#FEF9C3" style="stroke: #000000; stroke-width: 1.5;"/><path d="M586,562.7344 C586,572.7344 604,572.7344 604,572.7344 C604,572.7344 622,572.7344 622,562.7344 " fill="none" style="stroke: #000000; stroke-width: 1.5;"/></a><rect fill="#059669" height="317.3281" style="stroke: #6B7280; stroke-width: 1.0;" width="10" x="245.5" y="202.1094"/><rect fill="#059669" height="259.0625" style="stroke: #6B7280; stroke-width: 1.0;" width="10" x="386" y="231.2422"/><rect fill="#FEF9C3" height="29.1328" style="stroke: #6B7280; stroke-width: 1.0;" width="10" x="599" y="338.6406"/><rect fill="#FEF9C3" height="29.1328" style="stroke: #6B7280; stroke-width: 1.0;" width="10" x="599" y="432.0391"/><path d="M320,150.8438 L320,175.8438 L461,175.8438 L461,160.8438 L451,150.8438 L320,150.8438 " fill="#FBFB77" style="stroke: #A80036; stroke-width: 1.0;"/><path d="M451,150.8438 L451,160.8438 L461,160.8438 L451,150.8438 " fill="#FBFB77" style="stroke: #A80036; stroke-width: 1.0;"/><a href="/services/api/svc-trail-management.html#/Closures/createTrailClosure" target="_top" title="/services/api/svc-trail-management.html#/Closures/createTrailClosure" xlink:actuate="onRequest" xlink:href="/services/api/svc-trail-management.html#/Closures/createTrailClosure" xlink:show="new" xlink:title="/services/api/svc-trail-management.html#/Closures/createTrailClosure" xlink:type="simple"><text fill="#0000FF" font-family="Segoe UI" font-size="13" lengthAdjust="spacingAndGlyphs" text-decoration="underline" textLength="120" x="326" y="167.9106">View in Swagger UI</text></a><polygon fill="#059669" points="233.5,198.1094,243.5,202.1094,233.5,206.1094,237.5,202.1094" style="stroke: #059669; stroke-width: 1.0;"/><line style="stroke: #059669; stroke-width: 1.0;" x1="34.5" x2="239.5" y1="202.1094" y2="202.1094"/><text fill="#000000" font-family="Segoe UI" font-size="13" lengthAdjust="spacingAndGlyphs" textLength="192" x="41.5" y="197.0435">POST /trails/{trail_id}/closures</text><polygon fill="#059669" points="374,227.2422,384,231.2422,374,235.2422,378,231.2422" style="stroke: #059669; stroke-width: 1.0;"/><line style="stroke: #059669; stroke-width: 1.0;" x1="255.5" x2="380" y1="231.2422" y2="231.2422"/><text fill="#000000" font-family="Segoe UI" font-size="13" lengthAdjust="spacingAndGlyphs" textLength="87" x="262.5" y="226.1763">route request</text><path d="M401,244.2422 L401,269.2422 L562,269.2422 L562,254.2422 L552,244.2422 L401,244.2422 " fill="#FBFB77" style="stroke: #A80036; stroke-width: 1.0;"/><path d="M552,244.2422 L552,254.2422 L562,254.2422 L552,244.2422 " fill="#FBFB77" style="stroke: #A80036; stroke-width: 1.0;"/><text fill="#000000" font-family="Segoe UI" font-size="13" lengthAdjust="spacingAndGlyphs" textLength="140" x="407" y="261.3091">Validate request body</text><rect fill="#EEEEEE" height="3" style="stroke: #EEEEEE; stroke-width: 1.0;" width="778" x="3" y="294.9414"/><line style="stroke: #000000; stroke-width: 1.0;" x1="3" x2="781" y1="294.9414" y2="294.9414"/><line style="stroke: #000000; stroke-width: 1.0;" x1="3" x2="781" y1="297.9414" y2="297.9414"/><rect fill="#EEEEEE" height="23.1328" style="stroke: #000000; stroke-width: 2.0;" width="90" x="347" y="284.375"/><text fill="#000000" font-family="Segoe UI" font-size="13" font-weight="bold" lengthAdjust="spacingAndGlyphs" textLength="71" x="353" y="300.4419">Database</text><polygon fill="#059669" points="587,334.6406,597,338.6406,587,342.6406,591,338.6406" style="stroke: #059669; stroke-width: 1.0;"/><line style="stroke: #059669; stroke-width: 1.0;" x1="396" x2="593" y1="338.6406" y2="338.6406"/><text fill="#000000" font-family="Segoe UI" font-size="13" lengthAdjust="spacingAndGlyphs" textLength="184" x="403" y="333.5747">SELECT parent WHERE id = ?</text><polygon fill="#059669" points="407,363.7734,397,367.7734,407,371.7734,403,367.7734" style="stroke: #059669; stroke-width: 1.0;"/><line style="stroke: #059669; stroke-width: 1.0; stroke-dasharray: 2.0,2.0;" x1="401" x2="603" y1="367.7734" y2="367.7734"/><text fill="#000000" font-family="Segoe UI" font-size="13" lengthAdjust="spacingAndGlyphs" textLength="68" x="413" y="362.7075">Parent row</text><path d="M609,380.7734 L609,405.7734 L776,405.7734 L776,390.7734 L766,380.7734 L609,380.7734 " fill="#FBFB77" style="stroke: #A80036; stroke-width: 1.0;"/><path d="M766,380.7734 L766,390.7734 L776,390.7734 L766,380.7734 " fill="#FBFB77" style="stroke: #A80036; stroke-width: 1.0;"/><text fill="#000000" font-family="Segoe UI" font-size="13" lengthAdjust="spacingAndGlyphs" textLength="146" x="615" y="397.8403">404 if parent not found</text><polygon fill="#059669" points="587,428.0391,597,432.0391,587,436.0391,591,432.0391" style="stroke: #059669; stroke-width: 1.0;"/><line style="stroke: #059669; stroke-width: 1.0;" x1="396" x2="593" y1="432.0391" y2="432.0391"/><text fill="#000000" font-family="Segoe UI" font-size="13" lengthAdjust="spacingAndGlyphs" textLength="95" x="403" y="426.9731">INSERT INTO ...</text><polygon fill="#059669" points="407,457.1719,397,461.1719,407,465.1719,403,461.1719" style="stroke: #059669; stroke-width: 1.0;"/><line style="stroke: #059669; stroke-width: 1.0; stroke-dasharray: 2.0,2.0;" x1="401" x2="603" y1="461.1719" y2="461.1719"/><text fill="#000000" font-family="Segoe UI" font-size="13" lengthAdjust="spacingAndGlyphs" textLength="77" x="413" y="456.106">Created row</text><polygon fill="#059669" points="266.5,486.3047,256.5,490.3047,266.5,494.3047,262.5,490.3047" style="stroke: #059669; stroke-width: 1.0;"/><line style="stroke: #059669; stroke-width: 1.0; stroke-dasharray: 2.0,2.0;" x1="260.5" x2="390" y1="490.3047" y2="490.3047"/><text fill="#000000" font-family="Segoe UI" font-size="13" lengthAdjust="spacingAndGlyphs" textLength="79" x="272.5" y="485.2388">201 Created</text><polygon fill="#059669" points="45.5,515.4375,35.5,519.4375,45.5,523.4375,41.5,519.4375" style="stroke: #059669; stroke-width: 1.0;"/><line style="stroke: #059669; stroke-width: 1.0; stroke-dasharray: 2.0,2.0;" x1="39.5" x2="249.5" y1="519.4375" y2="519.4375"/><text fill="#000000" font-family="Segoe UI" font-size="13" lengthAdjust="spacingAndGlyphs" textLength="79" x="51.5" y="514.3716">201 Created</text><a href="/microservices/svc-trail-management/#integration-context" target="_top" title="/microservices/svc-trail-management/#integration-context" xlink:actuate="onRequest" xlink:href="/microservices/svc-trail-management/#integration-context" xlink:show="new" xlink:title="/microservices/svc-trail-management/#integration-context" xlink:type="simple"><text fill="#0000FF" font-family="Segoe UI" font-size="10" lengthAdjust="spacingAndGlyphs" text-decoration="underline" textLength="218" x="563" y="12.2822">⬆ svc-trail-management Integration Context</text></a><!--MD5=[3230710abdacc3b1c5ec215e52aee96f]
@startuml svc-trail-management- -post-trails-trail_id-closures

skinparam backgroundColor #FEFEFE
skinparam shadowing false
skinparam defaultFontName "Segoe UI"
skinparam sequence {
    ArrowColor #059669
    ParticipantBorderColor #374151
    ParticipantBackgroundColor #F9FAFB
    LifeLineBorderColor #6B7280
    BoxBorderColor #94A3B8
    BoxBackgroundColor #F8FAFC
    NoteBorderColor #64748B
    NoteBackgroundColor #F8FAFC
}

header [[/microservices/svc-trail-management/#integration-context ⬆ svc-trail-management Integration Context]]

title POST /trails/{trail_id}/closures\nCreate a trail closure

participant "Client" as Client [[/applications/]]
participant "API Gateway" as GW [[/actors/#api-gateway]] #E0F2FE
participant "svc-trail-management" as Svc [[/microservices/svc-trail-management/]] #FEF3C7
database "PostGIS" as DB [[/microservices/svc-trail-management/#data-store]] #FEF9C3

note over Svc
  [[/services/api/svc-trail-management.html#/Closures/createTrailClosure View in Swagger UI]]
end note

Client -> GW : POST /trails/{trail_id}/closures
activate GW #059669
GW -> Svc : route request
activate Svc #059669

note right of Svc : Validate request body

== Database ==

Svc -> DB : SELECT parent WHERE id = ?
activate DB #FEF9C3
DB - -> Svc : Parent row
deactivate DB
note right of DB : 404 if parent not found

Svc -> DB : INSERT INTO ...
activate DB #FEF9C3
DB - -> Svc : Created row
deactivate DB

Svc - -> GW : 201 Created
deactivate Svc
GW - -> Client : 201 Created
deactivate GW

@enduml

PlantUML version 1.2020.02(Sun Mar 01 10:22:07 UTC 2020)
(GPL source distribution)
Java Runtime: OpenJDK Runtime Environment
JVM: OpenJDK 64-Bit Server VM
Java Version: 17.0.18+8
Operating System: Linux
Default Encoding: UTF-8
Language: en
Country: null
--></g></svg>