<svg xmlns="http://www.w3.org/2000/svg" xmlns:xlink="http://www.w3.org/1999/xlink" contentStyleType="text/css" data-diagram-type="SEQUENCE" height="509px" preserveAspectRatio="none" style="width:747px;height:509px;background:#FEFEFE;" version="1.1" viewBox="0 0 747 509" width="747px" zoomAndPan="magnify"><title>GET /incidents/{incident_id}</title><defs/><g><rect fill="#FEFEFE" height="509" style="stroke:none;stroke-width:1;" width="747" x="0" y="0"/><text fill="#000000" font-family="Segoe UI" font-size="14" font-weight="bold" lengthAdjust="spacing" textLength="204.2715" x="267.3928" y="28.5352">GET /incidents/{incident_id}</text><text fill="#000000" font-family="Segoe UI" font-size="14" font-weight="bold" lengthAdjust="spacing" textLength="158.5049" x="290.2761" y="45.0234">Get an incident report</text><g><title>API Gateway</title><rect fill="#2563EB" height="225.1738" style="stroke:#A23B72;stroke-width:1;" width="10" x="227.8774" y="188.0859"/></g><g><title>svc-safety-compliance</title><rect fill="#2563EB" height="166.5527" style="stroke:#A23B72;stroke-width:1;" width="10" x="370.7954" y="217.3965"/></g><g><title>PostgreSQL</title><rect fill="#FCE4EC" height="29.3105" style="stroke:#A23B72;stroke-width:1;" width="10" x="548.686" y="290.0176"/></g><g><title>Client</title><rect fill="#000000" fill-opacity="0.00000" height="309.7949" width="8" x="27.7524" y="121.4648"/><line style="stroke:#A23B72;stroke-width:0.5;stroke-dasharray:5,5;" x1="31" x2="31" y1="121.4648" y2="431.2598"/></g><g><title>API Gateway</title><rect fill="#000000" fill-opacity="0.00000" height="309.7949" width="8" x="228.8774" y="121.4648"/><line style="stroke:#A23B72;stroke-width:0.5;stroke-dasharray:5,5;" x1="232.5884" x2="232.5884" y1="121.4648" y2="431.2598"/></g><g><title>svc-safety-compliance</title><rect fill="#000000" fill-opacity="0.00000" height="309.7949" width="8" x="371.7954" y="121.4648"/><line style="stroke:#A23B72;stroke-width:0.5;stroke-dasharray:5,5;" x1="375.1665" x2="375.1665" y1="121.4648" y2="431.2598"/></g><g><title>PostgreSQL</title><rect fill="#000000" fill-opacity="0.00000" height="309.7949" width="8" x="549.686" y="121.4648"/><line style="stroke:#A23B72;stroke-width:0.5;stroke-dasharray:5,5;" x1="553.2612" x2="553.2612" y1="121.4648" y2="431.2598"/></g><g class="participant participant-head" data-participant="Client"><rect fill="#E8F4F8" height="30.4883" rx="2.5" ry="2.5" style="stroke:#2E86AB;stroke-width:0.5;" width="53.5049" x="5" y="89.9766"/><text fill="#000000" font-family="Segoe UI" font-size="14" lengthAdjust="spacing" textLength="39.5049" x="12" y="110.5117">Client</text></g><g class="participant participant-tail" data-participant="Client"><rect fill="#E8F4F8" height="30.4883" rx="2.5" ry="2.5" style="stroke:#2E86AB;stroke-width:0.5;" width="53.5049" x="5" y="430.2598"/><text fill="#000000" font-family="Segoe UI" font-size="14" lengthAdjust="spacing" textLength="39.5049" x="12" y="450.7949">Client</text></g><g class="participant participant-head" data-participant="GW"><rect fill="#DBEAFE" height="30.4883" rx="2.5" ry="2.5" style="stroke:#2E86AB;stroke-width:0.5;" width="96.5781" x="184.5884" y="89.9766"/><text fill="#000000" font-family="Segoe UI" font-size="14" lengthAdjust="spacing" textLength="82.5781" x="191.5884" y="110.5117">API Gateway</text></g><g class="participant participant-tail" data-participant="GW"><rect fill="#DBEAFE" height="30.4883" rx="2.5" ry="2.5" style="stroke:#2E86AB;stroke-width:0.5;" width="96.5781" x="184.5884" y="430.2598"/><text fill="#000000" font-family="Segoe UI" font-size="14" lengthAdjust="spacing" textLength="82.5781" x="191.5884" y="450.7949">API Gateway</text></g><g class="participant participant-head" data-participant="Svc"><a href="/microservices/svc-safety-compliance/" target="_top" title="/microservices/svc-safety-compliance/" xlink:actuate="onRequest" xlink:href="/microservices/svc-safety-compliance/" xlink:show="new" xlink:title="/microservices/svc-safety-compliance/" xlink:type="simple"><rect fill="#E8F4F8" height="30.4883" rx="2.5" ry="2.5" style="stroke:#2E86AB;stroke-width:0.5;" width="169.2578" x="291.1665" y="89.9766"/><text fill="#000000" font-family="Segoe UI" font-size="14" lengthAdjust="spacing" textLength="155.2578" x="298.1665" y="110.5117">svc-safety-compliance</text></a></g><g class="participant participant-tail" data-participant="Svc"><a href="/microservices/svc-safety-compliance/" target="_top" title="/microservices/svc-safety-compliance/" xlink:actuate="onRequest" xlink:href="/microservices/svc-safety-compliance/" xlink:show="new" xlink:title="/microservices/svc-safety-compliance/" xlink:type="simple"><rect fill="#E8F4F8" height="30.4883" rx="2.5" ry="2.5" style="stroke:#2E86AB;stroke-width:0.5;" width="169.2578" x="291.1665" y="430.2598"/><text fill="#000000" font-family="Segoe UI" font-size="14" lengthAdjust="spacing" textLength="155.2578" x="298.1665" y="450.7949">svc-safety-compliance</text></a></g><g class="participant participant-head" data-participant="DB"><text fill="#000000" font-family="Segoe UI" font-size="14" lengthAdjust="spacing" textLength="76.8496" x="512.2612" y="118.5117">PostgreSQL</text><path d="M535.686,68.9766 C535.686,58.9766 553.686,58.9766 553.686,58.9766 C553.686,58.9766 571.686,58.9766 571.686,68.9766 L571.686,94.9766 C571.686,104.9766 553.686,104.9766 553.686,104.9766 C553.686,104.9766 535.686,104.9766 535.686,94.9766 L535.686,68.9766" fill="#FCE4EC" style="stroke:#181818;stroke-width:0.5;"/><path d="M535.686,68.9766 C535.686,78.9766 553.686,78.9766 553.686,78.9766 C553.686,78.9766 571.686,78.9766 571.686,68.9766" fill="none" style="stroke:#181818;stroke-width:0.5;"/></g><g class="participant participant-tail" data-participant="DB"><text fill="#000000" font-family="Segoe UI" font-size="14" lengthAdjust="spacing" textLength="76.8496" x="512.2612" y="443.7949">PostgreSQL</text><path d="M535.686,456.748 C535.686,446.748 553.686,446.748 553.686,446.748 C553.686,446.748 571.686,446.748 571.686,456.748 L571.686,482.748 C571.686,492.748 553.686,492.748 553.686,492.748 C553.686,492.748 535.686,492.748 535.686,482.748 L535.686,456.748" fill="#FCE4EC" style="stroke:#181818;stroke-width:0.5;"/><path d="M535.686,456.748 C535.686,466.748 553.686,466.748 553.686,466.748 C553.686,466.748 571.686,466.748 571.686,456.748" fill="none" style="stroke:#181818;stroke-width:0.5;"/></g><g><title>API Gateway</title><rect fill="#2563EB" height="225.1738" style="stroke:#A23B72;stroke-width:1;" width="10" x="227.8774" y="188.0859"/></g><g><title>svc-safety-compliance</title><rect fill="#2563EB" height="166.5527" style="stroke:#A23B72;stroke-width:1;" width="10" x="370.7954" y="217.3965"/></g><g><title>PostgreSQL</title><rect fill="#FCE4EC" height="29.3105" style="stroke:#A23B72;stroke-width:1;" width="10" x="548.686" y="290.0176"/></g><path d="M305,136.4648 L305,161.4648 L445,161.4648 L445,146.4648 L435,136.4648 L305,136.4648" fill="#FEFFDD" style="stroke:#181818;stroke-width:0.5;"/><path d="M435,136.4648 L435,146.4648 L445,146.4648 L435,136.4648" fill="#FEFFDD" style="stroke:#181818;stroke-width:0.5;"/><a href="/services/api/svc-safety-compliance.html#/Incidents/getIncident" target="_top" title="/services/api/svc-safety-compliance.html#/Incidents/getIncident" xlink:actuate="onRequest" xlink:href="/services/api/svc-safety-compliance.html#/Incidents/getIncident" xlink:show="new" xlink:title="/services/api/svc-safety-compliance.html#/Incidents/getIncident" xlink:type="simple"><text fill="#0000FF" font-family="Segoe UI" font-size="13" lengthAdjust="spacing" text-decoration="underline" textLength="119.4058" x="311" y="154.0332">View in Swagger UI</text></a><g class="message" data-participant-1="Client" data-participant-2="GW"><polygon fill="#2563EB" points="215.8774,184.0859,225.8774,188.0859,215.8774,192.0859,219.8774,188.0859" style="stroke:#2563EB;stroke-width:1;"/><line style="stroke:#2563EB;stroke-width:1;" x1="31.7524" x2="221.8774" y1="188.0859" y2="188.0859"/><text fill="#000000" font-family="Segoe UI" font-size="13" lengthAdjust="spacing" textLength="177.125" x="38.7524" y="183.3438">GET /incidents/{incident_id}</text></g><g class="message" data-participant-1="GW" data-participant-2="Svc"><polygon fill="#2563EB" points="358.7954,213.3965,368.7954,217.3965,358.7954,221.3965,362.7954,217.3965" style="stroke:#2563EB;stroke-width:1;"/><line style="stroke:#2563EB;stroke-width:1;" x1="237.8774" x2="364.7954" y1="217.3965" y2="217.3965"/><a href="/microservices/svc-safety-compliance/#get-incidentsincident_id-get-an-incident-report" target="_top" title="/microservices/svc-safety-compliance/#get-incidentsincident_id-get-an-incident-report" xlink:actuate="onRequest" xlink:href="/microservices/svc-safety-compliance/#get-incidentsincident_id-get-an-incident-report" xlink:show="new" xlink:title="/microservices/svc-safety-compliance/#get-incidentsincident_id-get-an-incident-report" xlink:type="simple"><text fill="#0000FF" font-family="Segoe UI" font-size="13" lengthAdjust="spacing" text-decoration="underline" textLength="85.1348" x="244.8774" y="212.6543">route request</text></a></g><rect fill="#EEEEEE" height="3" style="stroke:#EEEEEE;stroke-width:1;" width="740.0571" x="0" y="246.0518"/><line style="stroke:#000000;stroke-width:1;" x1="0" x2="740.0571" y1="246.0518" y2="246.0518"/><line style="stroke:#000000;stroke-width:1;" x1="0" x2="740.0571" y1="249.0518" y2="249.0518"/><rect fill="#EEEEEE" height="23.3105" style="stroke:#000000;stroke-width:2;" width="80.3711" x="329.843" y="235.3965"/><text fill="#000000" font-family="Segoe UI" font-size="13" font-weight="bold" lengthAdjust="spacing" textLength="62.0864" x="335.843" y="251.9648">Database</text><g class="message" data-participant-1="Svc" data-participant-2="DB"><polygon fill="#2563EB" points="536.686,286.0176,546.686,290.0176,536.686,294.0176,540.686,290.0176" style="stroke:#2563EB;stroke-width:1;"/><line style="stroke:#2563EB;stroke-width:1;" x1="380.7954" x2="542.686" y1="290.0176" y2="290.0176"/><text fill="#000000" font-family="Segoe UI" font-size="13" lengthAdjust="spacing" textLength="148.8906" x="387.7954" y="285.2754">SELECT ... WHERE id = ?</text></g><g class="message" data-participant-1="DB" data-participant-2="Svc"><polygon fill="#2563EB" points="391.7954,315.3281,381.7954,319.3281,391.7954,323.3281,387.7954,319.3281" style="stroke:#2563EB;stroke-width:1;"/><line style="stroke:#2563EB;stroke-width:1;stroke-dasharray:2,2;" x1="385.7954" x2="552.686" y1="319.3281" y2="319.3281"/><text fill="#000000" font-family="Segoe UI" font-size="13" lengthAdjust="spacing" textLength="26.2222" x="397.7954" y="314.5859">Row</text></g><path d="M558,332.3281 L558,357.3281 L735,357.3281 L735,342.3281 L725,332.3281 L558,332.3281" fill="#FEFFDD" style="stroke:#181818;stroke-width:0.5;"/><path d="M725,332.3281 L725,342.3281 L735,342.3281 L725,332.3281" fill="#FEFFDD" style="stroke:#181818;stroke-width:0.5;"/><text fill="#000000" font-family="Segoe UI" font-size="13" lengthAdjust="spacing" textLength="156.0571" x="564" y="349.8965">Returns 404 if not found</text><g class="message" data-participant-1="Svc" data-participant-2="GW"><polygon fill="#2563EB" points="248.8774,379.9492,238.8774,383.9492,248.8774,387.9492,244.8774,383.9492" style="stroke:#2563EB;stroke-width:1;"/><line style="stroke:#2563EB;stroke-width:1;stroke-dasharray:2,2;" x1="242.8774" x2="374.7954" y1="383.9492" y2="383.9492"/><text fill="#000000" font-family="Segoe UI" font-size="13" lengthAdjust="spacing" textLength="47.3599" x="254.8774" y="379.207">200 OK</text></g><g class="message" data-participant-1="GW" data-participant-2="Client"><polygon fill="#2563EB" points="42.7524,409.2598,32.7524,413.2598,42.7524,417.2598,38.7524,413.2598" style="stroke:#2563EB;stroke-width:1;"/><line style="stroke:#2563EB;stroke-width:1;stroke-dasharray:2,2;" x1="36.7524" x2="231.8774" y1="413.2598" y2="413.2598"/><text fill="#000000" font-family="Segoe UI" font-size="13" lengthAdjust="spacing" textLength="47.3599" x="48.7524" y="408.5176">200 OK</text></g><!--SRC=[ZPDHRzem58NV_Ikku3b0WHM4n2O22KD37ODsF7HeCibDi1hip3PaLTN_FZkGDAneMlBYv1pVS_DTHpqndb99zx2bmLCinO67Ov482NNVipTHfKFjQ2WoncE8QAAmeeGOqKEYVS7r7TqZr5OO2uI7MQsw7NyTa0S8BmJCDP9IPEUezeVR3cxprmigDGjOIhbsXGnH5XQlVpjotrd-Rjhh-rs_dzlcBC8vutXHPjJkkBrshhlYzuNat_JzraqflSFX-qRFvJkXBwi6lTwsKz6keEnuFV9AY6OwGPXwzz1aF60XSgsQByNo9mjVV_0fQg0SYfSWCHLI4vA-VJVKnWapMWseWjFoKXujPZ2b6ZFwd7kcQwXFN6za1dhXKyV0KJH2_Um4OfycZ9e9vJjMnm0U7vjx5aYXK1vPWAfvrTxSR4hm8TLqIvKv0WkXT2nnzMsUbvku1iFOwtfZGhXX1EA8qeOOQYQcJA0fkvxIsEbzKc_EIcenwk81lZFC331OPJIEJTs7sMP3a8TWemWv4GBde-Km-2T-GWFDZePSZknyCCtIxBL41l_Bf6xQSygCIe9Z1SfBpJcD5ynvCQ7I_YHAc-xBFcniqGWP3c5I81uE2R6YQStG7S3ActlZUsWq6h3-x2qzO24CuTDRfSeCpD8fFsafCX9YnNQQa6JnJeE8JjMNg0-IA-Yski0Y2nOYUyJFFHHiswqMVFrIBMTdR04QntaErrpJDVa3]--></g></svg>