<svg xmlns="http://www.w3.org/2000/svg" xmlns:xlink="http://www.w3.org/1999/xlink" contentStyleType="text/css" data-diagram-type="SEQUENCE" height="611px" preserveAspectRatio="none" style="width:580px;height:611px;background:#FEFEFE;" version="1.1" viewBox="0 0 580 611" width="580px" zoomAndPan="magnify"><title>POST /payments</title><defs/><g><rect fill="#FEFEFE" height="611" style="stroke:none;stroke-width:1;" width="580" x="0" y="0"/><text fill="#000000" font-family="Segoe UI" font-size="14" font-weight="bold" lengthAdjust="spacing" textLength="120.5313" x="226.1587" y="28.5352">POST /payments</text><text fill="#000000" font-family="Segoe UI" font-size="14" font-weight="bold" lengthAdjust="spacing" textLength="135.1533" x="218.8477" y="45.0234">Process a payment</text><g><title>API Gateway</title><rect fill="#059669" height="327.1055" style="stroke:#A23B72;stroke-width:1;" width="10" x="155.2793" y="188.0859"/></g><g><title>svc-payments</title><rect fill="#059669" height="268.4844" style="stroke:#A23B72;stroke-width:1;" width="10" x="269.4141" y="217.3965"/></g><g><title>Payment Gateway</title><rect fill="#DBEAFE" height="29.3105" style="stroke:#A23B72;stroke-width:1;" width="10" x="404.6357" y="325.3281"/></g><g><title>PostgreSQL</title><rect fill="#FCE4EC" height="29.3105" style="stroke:#A23B72;stroke-width:1;" width="10" x="522.4238" y="427.2598"/></g><g><title>Client</title><rect fill="#000000" fill-opacity="0.00000" height="411.7266" width="8" x="27.7524" y="121.4648"/><line style="stroke:#A23B72;stroke-width:0.5;stroke-dasharray:5,5;" x1="31" x2="31" y1="121.4648" y2="533.1914"/></g><g><title>API Gateway</title><rect fill="#000000" fill-opacity="0.00000" height="411.7266" width="8" x="156.2793" y="121.4648"/><line style="stroke:#A23B72;stroke-width:0.5;stroke-dasharray:5,5;" x1="159.9902" x2="159.9902" y1="121.4648" y2="533.1914"/></g><g><title>svc-payments</title><rect fill="#000000" fill-opacity="0.00000" height="411.7266" width="8" x="270.4141" y="121.4648"/><line style="stroke:#A23B72;stroke-width:0.5;stroke-dasharray:5,5;" x1="273.6924" x2="273.6924" y1="121.4648" y2="533.1914"/></g><g><title>Payment Gateway</title><rect fill="#000000" fill-opacity="0.00000" height="411.7266" width="8" x="405.6357" y="121.4648"/><line style="stroke:#A23B72;stroke-width:0.5;stroke-dasharray:5,5;" x1="409.2725" x2="409.2725" y1="121.4648" y2="533.1914"/></g><g><title>PostgreSQL</title><rect fill="#000000" fill-opacity="0.00000" height="411.7266" width="8" x="523.4238" y="121.4648"/><line style="stroke:#A23B72;stroke-width:0.5;stroke-dasharray:5,5;" x1="526.999" x2="526.999" y1="121.4648" y2="533.1914"/></g><g class="participant participant-head" data-participant="Client"><rect fill="#E8F4F8" height="30.4883" rx="2.5" ry="2.5" style="stroke:#2E86AB;stroke-width:0.5;" width="53.5049" x="5" y="89.9766"/><text fill="#000000" font-family="Segoe UI" font-size="14" lengthAdjust="spacing" textLength="39.5049" x="12" y="110.5117">Client</text></g><g class="participant participant-tail" data-participant="Client"><rect fill="#E8F4F8" height="30.4883" rx="2.5" ry="2.5" style="stroke:#2E86AB;stroke-width:0.5;" width="53.5049" x="5" y="532.1914"/><text fill="#000000" font-family="Segoe UI" font-size="14" lengthAdjust="spacing" textLength="39.5049" x="12" y="552.7266">Client</text></g><g class="participant participant-head" data-participant="GW"><rect fill="#DBEAFE" height="30.4883" rx="2.5" ry="2.5" style="stroke:#2E86AB;stroke-width:0.5;" width="96.5781" x="111.9902" y="89.9766"/><text fill="#000000" font-family="Segoe UI" font-size="14" lengthAdjust="spacing" textLength="82.5781" x="118.9902" y="110.5117">API Gateway</text></g><g class="participant participant-tail" data-participant="GW"><rect fill="#DBEAFE" height="30.4883" rx="2.5" ry="2.5" style="stroke:#2E86AB;stroke-width:0.5;" width="96.5781" x="111.9902" y="532.1914"/><text fill="#000000" font-family="Segoe UI" font-size="14" lengthAdjust="spacing" textLength="82.5781" x="118.9902" y="552.7266">API Gateway</text></g><g class="participant participant-head" data-participant="Svc"><a href="/microservices/svc-payments/" target="_top" title="/microservices/svc-payments/" xlink:actuate="onRequest" xlink:href="/microservices/svc-payments/" xlink:show="new" xlink:title="/microservices/svc-payments/" xlink:type="simple"><rect fill="#E8F4F8" height="30.4883" rx="2.5" ry="2.5" style="stroke:#2E86AB;stroke-width:0.5;" width="109.4434" x="219.6924" y="89.9766"/><text fill="#000000" font-family="Segoe UI" font-size="14" lengthAdjust="spacing" textLength="95.4434" x="226.6924" y="110.5117">svc-payments</text></a></g><g class="participant participant-tail" data-participant="Svc"><a href="/microservices/svc-payments/" target="_top" title="/microservices/svc-payments/" xlink:actuate="onRequest" xlink:href="/microservices/svc-payments/" xlink:show="new" xlink:title="/microservices/svc-payments/" xlink:type="simple"><rect fill="#E8F4F8" height="30.4883" rx="2.5" ry="2.5" style="stroke:#2E86AB;stroke-width:0.5;" width="109.4434" x="219.6924" y="532.1914"/><text fill="#000000" font-family="Segoe UI" font-size="14" lengthAdjust="spacing" textLength="95.4434" x="226.6924" y="552.7266">svc-payments</text></a></g><g class="participant participant-head" data-participant="ExtPay"><rect fill="#F5F5F5" height="30.4883" rx="2.5" ry="2.5" style="stroke:#2E86AB;stroke-width:0.5;" width="132.7266" x="343.2725" y="89.9766"/><text fill="#000000" font-family="Segoe UI" font-size="14" lengthAdjust="spacing" textLength="118.7266" x="350.2725" y="110.5117">Payment Gateway</text></g><g class="participant participant-tail" data-participant="ExtPay"><rect fill="#F5F5F5" height="30.4883" rx="2.5" ry="2.5" style="stroke:#2E86AB;stroke-width:0.5;" width="132.7266" x="343.2725" y="532.1914"/><text fill="#000000" font-family="Segoe UI" font-size="14" lengthAdjust="spacing" textLength="118.7266" x="350.2725" y="552.7266">Payment Gateway</text></g><g class="participant participant-head" data-participant="DB"><text fill="#000000" font-family="Segoe UI" font-size="14" lengthAdjust="spacing" textLength="76.8496" x="485.999" y="118.5117">PostgreSQL</text><path d="M509.4238,68.9766 C509.4238,58.9766 527.4238,58.9766 527.4238,58.9766 C527.4238,58.9766 545.4238,58.9766 545.4238,68.9766 L545.4238,94.9766 C545.4238,104.9766 527.4238,104.9766 527.4238,104.9766 C527.4238,104.9766 509.4238,104.9766 509.4238,94.9766 L509.4238,68.9766" fill="#FCE4EC" style="stroke:#181818;stroke-width:0.5;"/><path d="M509.4238,68.9766 C509.4238,78.9766 527.4238,78.9766 527.4238,78.9766 C527.4238,78.9766 545.4238,78.9766 545.4238,68.9766" fill="none" style="stroke:#181818;stroke-width:0.5;"/></g><g class="participant participant-tail" data-participant="DB"><text fill="#000000" font-family="Segoe UI" font-size="14" lengthAdjust="spacing" textLength="76.8496" x="485.999" y="545.7266">PostgreSQL</text><path d="M509.4238,558.6797 C509.4238,548.6797 527.4238,548.6797 527.4238,548.6797 C527.4238,548.6797 545.4238,548.6797 545.4238,558.6797 L545.4238,584.6797 C545.4238,594.6797 527.4238,594.6797 527.4238,594.6797 C527.4238,594.6797 509.4238,594.6797 509.4238,584.6797 L509.4238,558.6797" fill="#FCE4EC" style="stroke:#181818;stroke-width:0.5;"/><path d="M509.4238,558.6797 C509.4238,568.6797 527.4238,568.6797 527.4238,568.6797 C527.4238,568.6797 545.4238,568.6797 545.4238,558.6797" fill="none" style="stroke:#181818;stroke-width:0.5;"/></g><g><title>API Gateway</title><rect fill="#059669" height="327.1055" style="stroke:#A23B72;stroke-width:1;" width="10" x="155.2793" y="188.0859"/></g><g><title>svc-payments</title><rect fill="#059669" height="268.4844" style="stroke:#A23B72;stroke-width:1;" width="10" x="269.4141" y="217.3965"/></g><g><title>Payment Gateway</title><rect fill="#DBEAFE" height="29.3105" style="stroke:#A23B72;stroke-width:1;" width="10" x="404.6357" y="325.3281"/></g><g><title>PostgreSQL</title><rect fill="#FCE4EC" height="29.3105" style="stroke:#A23B72;stroke-width:1;" width="10" x="522.4238" y="427.2598"/></g><path d="M204,136.4648 L204,161.4648 L344,161.4648 L344,146.4648 L334,136.4648 L204,136.4648" fill="#FEFFDD" style="stroke:#181818;stroke-width:0.5;"/><path d="M334,136.4648 L334,146.4648 L344,146.4648 L334,136.4648" fill="#FEFFDD" style="stroke:#181818;stroke-width:0.5;"/><a href="/services/api/svc-payments.html#/Payments/processPayment" target="_top" title="/services/api/svc-payments.html#/Payments/processPayment" xlink:actuate="onRequest" xlink:href="/services/api/svc-payments.html#/Payments/processPayment" xlink:show="new" xlink:title="/services/api/svc-payments.html#/Payments/processPayment" xlink:type="simple"><text fill="#0000FF" font-family="Segoe UI" font-size="13" lengthAdjust="spacing" text-decoration="underline" textLength="119.4058" x="210" y="154.0332">View in Swagger UI</text></a><g class="message" data-participant-1="Client" data-participant-2="GW"><polygon fill="#059669" points="143.2793,184.0859,153.2793,188.0859,143.2793,192.0859,147.2793,188.0859" style="stroke:#059669;stroke-width:1;"/><line style="stroke:#059669;stroke-width:1;" x1="31.7524" x2="149.2793" y1="188.0859" y2="188.0859"/><text fill="#000000" font-family="Segoe UI" font-size="13" lengthAdjust="spacing" textLength="104.5269" x="38.7524" y="183.3438">POST /payments</text></g><g class="message" data-participant-1="GW" data-participant-2="Svc"><polygon fill="#059669" points="257.4141,213.3965,267.4141,217.3965,257.4141,221.3965,261.4141,217.3965" style="stroke:#059669;stroke-width:1;"/><line style="stroke:#059669;stroke-width:1;" x1="165.2793" x2="263.4141" y1="217.3965" y2="217.3965"/><a href="/microservices/svc-payments/#post-payments-process-a-payment" target="_top" title="/microservices/svc-payments/#post-payments-process-a-payment" xlink:actuate="onRequest" xlink:href="/microservices/svc-payments/#post-payments-process-a-payment" xlink:show="new" xlink:title="/microservices/svc-payments/#post-payments-process-a-payment" xlink:type="simple"><text fill="#0000FF" font-family="Segoe UI" font-size="13" lengthAdjust="spacing" text-decoration="underline" textLength="85.1348" x="172.2793" y="212.6543">route request</text></a></g><path d="M284,230.3965 L284,255.3965 L442,255.3965 L442,240.3965 L432,230.3965 L284,230.3965" fill="#FEFFDD" style="stroke:#181818;stroke-width:0.5;"/><path d="M432,230.3965 L432,240.3965 L442,240.3965 L432,230.3965" fill="#FEFFDD" style="stroke:#181818;stroke-width:0.5;"/><text fill="#000000" font-family="Segoe UI" font-size="13" lengthAdjust="spacing" textLength="137.5728" x="290" y="247.9648">Validate request body</text><rect fill="#EEEEEE" height="3" style="stroke:#EEEEEE;stroke-width:1;" width="573.8486" x="0" y="281.3623"/><line style="stroke:#000000;stroke-width:1;" x1="0" x2="573.8486" y1="281.3623" y2="281.3623"/><line style="stroke:#000000;stroke-width:1;" x1="0" x2="573.8486" y1="284.3623" y2="284.3623"/><rect fill="#EEEEEE" height="23.3105" style="stroke:#000000;stroke-width:2;" width="190.6743" x="191.5872" y="270.707"/><text fill="#000000" font-family="Segoe UI" font-size="13" font-weight="bold" lengthAdjust="spacing" textLength="172.3896" x="197.5872" y="287.2754">Cross-Service Integration</text><g class="message" data-participant-1="Svc" data-participant-2="ExtPay"><polygon fill="#059669" points="392.6357,321.3281,402.6357,325.3281,392.6357,329.3281,396.6357,325.3281" style="stroke:#059669;stroke-width:1;"/><line style="stroke:#059669;stroke-width:1;" x1="279.4141" x2="398.6357" y1="325.3281" y2="325.3281"/><text fill="#000000" font-family="Segoe UI" font-size="13" lengthAdjust="spacing" textLength="106.2217" x="286.4141" y="320.5859">Process payment</text></g><g class="message" data-participant-1="ExtPay" data-participant-2="Svc"><polygon fill="#059669" points="290.4141,350.6387,280.4141,354.6387,290.4141,358.6387,286.4141,354.6387" style="stroke:#059669;stroke-width:1;"/><line style="stroke:#059669;stroke-width:1;stroke-dasharray:2,2;" x1="284.4141" x2="408.6357" y1="354.6387" y2="354.6387"/><text fill="#000000" font-family="Segoe UI" font-size="13" lengthAdjust="spacing" textLength="18.5859" x="296.4141" y="349.8965">OK</text></g><rect fill="#EEEEEE" height="3" style="stroke:#EEEEEE;stroke-width:1;" width="573.8486" x="0" y="383.2939"/><line style="stroke:#000000;stroke-width:1;" x1="0" x2="573.8486" y1="383.2939" y2="383.2939"/><line style="stroke:#000000;stroke-width:1;" x1="0" x2="573.8486" y1="386.2939" y2="386.2939"/><rect fill="#EEEEEE" height="23.3105" style="stroke:#000000;stroke-width:2;" width="80.3711" x="246.7388" y="372.6387"/><text fill="#000000" font-family="Segoe UI" font-size="13" font-weight="bold" lengthAdjust="spacing" textLength="62.0864" x="252.7388" y="389.207">Database</text><g class="message" data-participant-1="Svc" data-participant-2="DB"><polygon fill="#059669" points="510.4238,423.2598,520.4238,427.2598,510.4238,431.2598,514.4238,427.2598" style="stroke:#059669;stroke-width:1;"/><line style="stroke:#059669;stroke-width:1;" x1="279.4141" x2="516.4238" y1="427.2598" y2="427.2598"/><text fill="#000000" font-family="Segoe UI" font-size="13" lengthAdjust="spacing" textLength="96.0718" x="286.4141" y="422.5176">INSERT INTO ...</text></g><g class="message" data-participant-1="DB" data-participant-2="Svc"><polygon fill="#059669" points="290.4141,452.5703,280.4141,456.5703,290.4141,460.5703,286.4141,456.5703" style="stroke:#059669;stroke-width:1;"/><line style="stroke:#059669;stroke-width:1;stroke-dasharray:2,2;" x1="284.4141" x2="526.4238" y1="456.5703" y2="456.5703"/><text fill="#000000" font-family="Segoe UI" font-size="13" lengthAdjust="spacing" textLength="76.4575" x="296.4141" y="451.8281">Created row</text></g><g class="message" data-participant-1="Svc" data-participant-2="GW"><polygon fill="#059669" points="176.2793,481.8809,166.2793,485.8809,176.2793,489.8809,172.2793,485.8809" style="stroke:#059669;stroke-width:1;"/><line style="stroke:#059669;stroke-width:1;stroke-dasharray:2,2;" x1="170.2793" x2="273.4141" y1="485.8809" y2="485.8809"/><text fill="#000000" font-family="Segoe UI" font-size="13" lengthAdjust="spacing" textLength="77.7969" x="182.2793" y="481.1387">201 Created</text></g><g class="message" data-participant-1="GW" data-participant-2="Client"><polygon fill="#059669" points="42.7524,511.1914,32.7524,515.1914,42.7524,519.1914,38.7524,515.1914" style="stroke:#059669;stroke-width:1;"/><line style="stroke:#059669;stroke-width:1;stroke-dasharray:2,2;" x1="36.7524" x2="159.2793" y1="515.1914" y2="515.1914"/><text fill="#000000" font-family="Segoe UI" font-size="13" lengthAdjust="spacing" textLength="77.7969" x="48.7524" y="510.4492">201 Created</text></g><!--SRC=[XLDDZzem4BtxLupW763PNM1NeXA11A4YI9lzE6mvcCG4QuETsWOMLVtldOGa96ohaWFEpFEyDsyc-fsBX2gwWpKDtYCbzo8SorWgQBfE-X1T8lIMXlB8HGGR6cjMoOHiG_UnSQKm2xfZqF1P91aypnhLw-pddec0mIy2-1if9OyvLUV-eTTxoC8ULOO7FA72s5A5JEMGhZFeZUnFa6lHpi2zSmSPRCutRCu5gvKPTM_jVZVBs_AZbd9l1cxdfanziiDrCP-b5zBKgmRz_lgsalkBbRTEd_mcn70JC_2M_XEq4thQCM7q3-4f6J2jWK8U8oIvD0cDSSmns02guNoifqVU3ARKi2CzPPZfApGdjZF2wTLm-X1O1Ma6z0y1lBsrTpnGKZDruAYYNKMrLwlIqrefxmoeqJeV1iFOxNtwa90QkgOQjy6JsaIA-T_c6MvY8sRit3bZGWJQ1VB0LAe53KGrfH2Qy9gOrjRiucRRAxGbPzSAAI-S7O4By8yqYh3Wysor8ao4a78GSZOEh2-fFOzN8o0qCFo0lMJUvUk8HqId7Zt-nwLcWXsMhrOkpA95270PiBPAlm1jK5P9brOl-CvcA1vj3SXDJln2OnxIosLOo_14o708OrIZBVyi26R2i4XHmwM0uP2Gz3QgpsU2_UOhLYnOgQ2OMhum-QjLThxyIa9sXSxu9yLyAtGusaUOBNpd-nF-FIsXrMfTg2g3n-E5OgmOfaDqwLZbcjXvtM9ctSvDWQtYqir9PuMmVCZ_X4vVoHy0]--></g></svg>