<svg xmlns="http://www.w3.org/2000/svg" xmlns:xlink="http://www.w3.org/1999/xlink" contentStyleType="text/css" data-diagram-type="SEQUENCE" height="487px" preserveAspectRatio="none" style="width:506px;height:487px;background:#FEFEFE;" version="1.1" viewBox="0 0 506 487" width="506px" zoomAndPan="magnify"><title>GET /routes</title><defs/><g><rect fill="#FEFEFE" height="487" style="stroke:none;stroke-width:1;" width="506" x="0" y="0"/><text fill="#000000" font-family="Segoe UI" font-size="14" font-weight="bold" lengthAdjust="spacing" textLength="87.3291" x="205.7434" y="41.3125">GET /routes</text><text fill="#000000" font-family="Segoe UI" font-size="14" font-weight="bold" lengthAdjust="spacing" textLength="149.4404" x="174.6877" y="57.8008">List transport routes</text><g><title>API Gateway</title><rect fill="#2563EB" height="189.8633" style="stroke:#A23B72;stroke-width:1;" width="10" x="126.4482" y="200.8633"/></g><g><title>svc-transport-logistics</title><rect fill="#2563EB" height="131.2422" style="stroke:#A23B72;stroke-width:1;" width="10" x="270.1387" y="230.1738"/></g><g><title>PostgreSQL</title><rect fill="#FCE4EC" height="29.3105" style="stroke:#A23B72;stroke-width:1;" width="10" x="448.3911" y="302.7949"/></g><g><title>Client</title><rect fill="#000000" fill-opacity="0.00000" height="274.4844" width="8" x="27.7524" y="134.2422"/><line style="stroke:#A23B72;stroke-width:0.5;stroke-dasharray:5,5;" x1="31" x2="31" y1="134.2422" y2="408.7266"/></g><g><title>API Gateway</title><rect fill="#000000" fill-opacity="0.00000" height="274.4844" width="8" x="127.4482" y="134.2422"/><line style="stroke:#A23B72;stroke-width:0.5;stroke-dasharray:5,5;" x1="131.1592" x2="131.1592" y1="134.2422" y2="408.7266"/></g><g><title>svc-transport-logistics</title><rect fill="#000000" fill-opacity="0.00000" height="274.4844" width="8" x="271.1387" y="134.2422"/><line style="stroke:#A23B72;stroke-width:0.5;stroke-dasharray:5,5;" x1="274.7373" x2="274.7373" y1="134.2422" y2="408.7266"/></g><g><title>PostgreSQL</title><rect fill="#000000" fill-opacity="0.00000" height="274.4844" width="8" x="449.3911" y="134.2422"/><line style="stroke:#A23B72;stroke-width:0.5;stroke-dasharray:5,5;" x1="452.9663" x2="452.9663" y1="134.2422" y2="408.7266"/></g><g class="participant participant-head" data-participant="Client"><a href="/applications/" target="_top" title="/applications/" xlink:actuate="onRequest" xlink:href="/applications/" xlink:show="new" xlink:title="/applications/" xlink:type="simple"><rect fill="#E8F4F8" height="30.4883" rx="2.5" ry="2.5" style="stroke:#2E86AB;stroke-width:0.5;" width="53.5049" x="5" y="102.7539"/><text fill="#000000" font-family="Segoe UI" font-size="14" lengthAdjust="spacing" textLength="39.5049" x="12" y="123.2891">Client</text></a></g><g class="participant participant-tail" data-participant="Client"><a href="/applications/" target="_top" title="/applications/" xlink:actuate="onRequest" xlink:href="/applications/" xlink:show="new" xlink:title="/applications/" xlink:type="simple"><rect fill="#E8F4F8" height="30.4883" rx="2.5" ry="2.5" style="stroke:#2E86AB;stroke-width:0.5;" width="53.5049" x="5" y="407.7266"/><text fill="#000000" font-family="Segoe UI" font-size="14" lengthAdjust="spacing" textLength="39.5049" x="12" y="428.2617">Client</text></a></g><g class="participant participant-head" data-participant="GW"><rect fill="#DBEAFE" height="30.4883" rx="2.5" ry="2.5" style="stroke:#2E86AB;stroke-width:0.5;" width="96.5781" x="83.1592" y="102.7539"/><text fill="#000000" font-family="Segoe UI" font-size="14" lengthAdjust="spacing" textLength="82.5781" x="90.1592" y="123.2891">API Gateway</text></g><g class="participant participant-tail" data-participant="GW"><rect fill="#DBEAFE" height="30.4883" rx="2.5" ry="2.5" style="stroke:#2E86AB;stroke-width:0.5;" width="96.5781" x="83.1592" y="407.7266"/><text fill="#000000" font-family="Segoe UI" font-size="14" lengthAdjust="spacing" textLength="82.5781" x="90.1592" y="428.2617">API Gateway</text></g><g class="participant participant-head" data-participant="Svc"><a href="/microservices/svc-transport-logistics/" target="_top" title="/microservices/svc-transport-logistics/" xlink:actuate="onRequest" xlink:href="/microservices/svc-transport-logistics/" xlink:show="new" xlink:title="/microservices/svc-transport-logistics/" xlink:type="simple"><rect fill="#E8F4F8" height="30.4883" rx="2.5" ry="2.5" style="stroke:#2E86AB;stroke-width:0.5;" width="170.8027" x="189.7373" y="102.7539"/><text fill="#000000" font-family="Segoe UI" font-size="14" lengthAdjust="spacing" textLength="156.8027" x="196.7373" y="123.2891">svc-transport-logistics</text></a></g><g class="participant participant-tail" data-participant="Svc"><a href="/microservices/svc-transport-logistics/" target="_top" title="/microservices/svc-transport-logistics/" xlink:actuate="onRequest" xlink:href="/microservices/svc-transport-logistics/" xlink:show="new" xlink:title="/microservices/svc-transport-logistics/" xlink:type="simple"><rect fill="#E8F4F8" height="30.4883" rx="2.5" ry="2.5" style="stroke:#2E86AB;stroke-width:0.5;" width="170.8027" x="189.7373" y="407.7266"/><text fill="#000000" font-family="Segoe UI" font-size="14" lengthAdjust="spacing" textLength="156.8027" x="196.7373" y="428.2617">svc-transport-logistics</text></a></g><g class="participant participant-head" data-participant="DB"><text fill="#000000" font-family="Segoe UI" font-size="14" lengthAdjust="spacing" textLength="76.8496" x="411.9663" y="131.2891">PostgreSQL</text><path d="M435.3911,81.7539 C435.3911,71.7539 453.3911,71.7539 453.3911,71.7539 C453.3911,71.7539 471.3911,71.7539 471.3911,81.7539 L471.3911,107.7539 C471.3911,117.7539 453.3911,117.7539 453.3911,117.7539 C453.3911,117.7539 435.3911,117.7539 435.3911,107.7539 L435.3911,81.7539" fill="#FCE4EC" style="stroke:#181818;stroke-width:0.5;"/><path d="M435.3911,81.7539 C435.3911,91.7539 453.3911,91.7539 453.3911,91.7539 C453.3911,91.7539 471.3911,91.7539 471.3911,81.7539" fill="none" style="stroke:#181818;stroke-width:0.5;"/></g><g class="participant participant-tail" data-participant="DB"><text fill="#000000" font-family="Segoe UI" font-size="14" lengthAdjust="spacing" textLength="76.8496" x="411.9663" y="421.2617">PostgreSQL</text><path d="M435.3911,434.2148 C435.3911,424.2148 453.3911,424.2148 453.3911,424.2148 C453.3911,424.2148 471.3911,424.2148 471.3911,434.2148 L471.3911,460.2148 C471.3911,470.2148 453.3911,470.2148 453.3911,470.2148 C453.3911,470.2148 435.3911,470.2148 435.3911,460.2148 L435.3911,434.2148" fill="#FCE4EC" style="stroke:#181818;stroke-width:0.5;"/><path d="M435.3911,434.2148 C435.3911,444.2148 453.3911,444.2148 453.3911,444.2148 C453.3911,444.2148 471.3911,444.2148 471.3911,434.2148" fill="none" style="stroke:#181818;stroke-width:0.5;"/></g><g><title>API Gateway</title><rect fill="#2563EB" height="189.8633" style="stroke:#A23B72;stroke-width:1;" width="10" x="126.4482" y="200.8633"/></g><g><title>svc-transport-logistics</title><rect fill="#2563EB" height="131.2422" style="stroke:#A23B72;stroke-width:1;" width="10" x="270.1387" y="230.1738"/></g><g><title>PostgreSQL</title><rect fill="#FCE4EC" height="29.3105" style="stroke:#A23B72;stroke-width:1;" width="10" x="448.3911" y="302.7949"/></g><path d="M204,149.2422 L204,174.2422 L344,174.2422 L344,159.2422 L334,149.2422 L204,149.2422" fill="#FEFFDD" style="stroke:#181818;stroke-width:0.5;"/><path d="M334,149.2422 L334,159.2422 L344,159.2422 L334,149.2422" fill="#FEFFDD" style="stroke:#181818;stroke-width:0.5;"/><a href="/services/api/svc-transport-logistics.html" target="_top" title="/services/api/svc-transport-logistics.html" xlink:actuate="onRequest" xlink:href="/services/api/svc-transport-logistics.html" xlink:show="new" xlink:title="/services/api/svc-transport-logistics.html" xlink:type="simple"><text fill="#0000FF" font-family="Segoe UI" font-size="13" lengthAdjust="spacing" text-decoration="underline" textLength="119.4058" x="210" y="166.8105">View in Swagger UI</text></a><g class="message" data-participant-1="Client" data-participant-2="GW"><polygon fill="#2563EB" points="114.4482,196.8633,124.4482,200.8633,114.4482,204.8633,118.4482,200.8633" style="stroke:#2563EB;stroke-width:1;"/><line style="stroke:#2563EB;stroke-width:1;" x1="31.7524" x2="120.4482" y1="200.8633" y2="200.8633"/><text fill="#000000" font-family="Segoe UI" font-size="13" lengthAdjust="spacing" textLength="75.6958" x="38.7524" y="196.1211">GET /routes</text></g><g class="message" data-participant-1="GW" data-participant-2="Svc"><polygon fill="#2563EB" points="258.1387,226.1738,268.1387,230.1738,258.1387,234.1738,262.1387,230.1738" style="stroke:#2563EB;stroke-width:1;"/><line style="stroke:#2563EB;stroke-width:1;" x1="136.4482" x2="264.1387" y1="230.1738" y2="230.1738"/><text fill="#000000" font-family="Segoe UI" font-size="13" lengthAdjust="spacing" textLength="85.1348" x="143.4482" y="225.4316">route request</text></g><rect fill="#EEEEEE" height="3" style="stroke:#EEEEEE;stroke-width:1;" width="499.8159" x="0" y="258.8291"/><line style="stroke:#000000;stroke-width:1;" x1="0" x2="499.8159" y1="258.8291" y2="258.8291"/><line style="stroke:#000000;stroke-width:1;" x1="0" x2="499.8159" y1="261.8291" y2="261.8291"/><rect fill="#EEEEEE" height="23.3105" style="stroke:#000000;stroke-width:2;" width="80.3711" x="209.7224" y="248.1738"/><text fill="#000000" font-family="Segoe UI" font-size="13" font-weight="bold" lengthAdjust="spacing" textLength="62.0864" x="215.7224" y="264.7422">Database</text><g class="message" data-participant-1="Svc" data-participant-2="DB"><polygon fill="#2563EB" points="436.3911,298.7949,446.3911,302.7949,436.3911,306.7949,440.3911,302.7949" style="stroke:#2563EB;stroke-width:1;"/><line style="stroke:#2563EB;stroke-width:1;" x1="280.1387" x2="442.3911" y1="302.7949" y2="302.7949"/><text fill="#000000" font-family="Segoe UI" font-size="13" lengthAdjust="spacing" textLength="149.2524" x="287.1387" y="298.0527">SELECT ... WHERE filters</text></g><g class="message" data-participant-1="DB" data-participant-2="Svc"><polygon fill="#2563EB" points="291.1387,328.1055,281.1387,332.1055,291.1387,336.1055,287.1387,332.1055" style="stroke:#2563EB;stroke-width:1;"/><line style="stroke:#2563EB;stroke-width:1;stroke-dasharray:2,2;" x1="285.1387" x2="452.3911" y1="332.1055" y2="332.1055"/><text fill="#000000" font-family="Segoe UI" font-size="13" lengthAdjust="spacing" textLength="93.209" x="297.1387" y="327.3633">Page of results</text></g><g class="message" data-participant-1="Svc" data-participant-2="GW"><polygon fill="#2563EB" points="147.4482,357.416,137.4482,361.416,147.4482,365.416,143.4482,361.416" style="stroke:#2563EB;stroke-width:1;"/><line style="stroke:#2563EB;stroke-width:1;stroke-dasharray:2,2;" x1="141.4482" x2="274.1387" y1="361.416" y2="361.416"/><text fill="#000000" font-family="Segoe UI" font-size="13" lengthAdjust="spacing" textLength="47.3599" x="153.4482" y="356.6738">200 OK</text></g><g class="message" data-participant-1="GW" data-participant-2="Client"><polygon fill="#2563EB" points="42.7524,386.7266,32.7524,390.7266,42.7524,394.7266,38.7524,390.7266" style="stroke:#2563EB;stroke-width:1;"/><line style="stroke:#2563EB;stroke-width:1;stroke-dasharray:2,2;" x1="36.7524" x2="130.4482" y1="390.7266" y2="390.7266"/><text fill="#000000" font-family="Segoe UI" font-size="13" lengthAdjust="spacing" textLength="47.3599" x="48.7524" y="385.9844">200 OK</text></g><a href="/microservices/svc-transport-logistics/#integration-context" target="_top" title="/microservices/svc-transport-logistics/#integration-context" xlink:actuate="onRequest" xlink:href="/microservices/svc-transport-logistics/#integration-context" xlink:show="new" xlink:title="/microservices/svc-transport-logistics/#integration-context" xlink:type="simple"><text fill="#0000FF" font-family="Segoe UI" font-size="10" lengthAdjust="spacing" text-decoration="underline" textLength="223.1738" x="275.6421" y="14.668">&#11014; svc-transport-logistics Integration Context</text></a><!--SRC=[ZLDTRzem57tthxY2PpuANK58J2B1OMYePQCT3nqF9ha4gy7ER1SwJNlThzclsY_PJO0GrY8jUR5ypht7vrpRFacL2YCsi1JXKspqiufydMW3rO1dFxC5mwv5f7TInR0IYSKI4k5AF2SkqChTYWr2POQnHdWOLyhb-EqPLOZmWm5z0sFqxY3LUdVJncM-FHN6oL2cGZbFcmZDaSAxDmFl5UNVG_DkS1rqSzf4hd0Y5Pwr6RJQNgULuvv-EOE2gsxGl2gWLt440U4vVAlTUTUmqrcsIzWRKRPvX_raR8s2ok3niR6HeT4MpLQ6Q1js6zQS4SgcshXQecDfoQDjLALo61lXf5QraFB55mT_Vl-22mKmFl71t_CN2yQST0d2YDz3Wmxcq7vL4wg0eWNijnbBJ-b2nKyaAbS1OM6_p4ukqZIHOIvX6zJyh68m7SD8EDo9xtdPQ0xLeSS7T9FEU1VEdzVCjk7_9xHO55EFX1DBOUd-JRLriS7PfqdUSEZH37n-pNt650q8z9Q6G38qCX8gD4GgB-dKrswJm1U9Ev0APZiHnzJYOKp-KKMGTMNia57jVMQxLuwRYT39BUMI1tAuxxGaQkQsjuyVJFP6h3knC_18P_q-38yM-tt6Cf0QaBiUpFY4-_TGhzTX_e5_vh2IYKDJ4Yw5GCjQeJmLCGMo8crBRzYo24ib1v6ZerQp2NSVovGinCm7CGxktsADvkml]--></g></svg>