<svg xmlns="http://www.w3.org/2000/svg" xmlns:xlink="http://www.w3.org/1999/xlink" contentStyleType="text/css" data-diagram-type="SEQUENCE" height="474px" preserveAspectRatio="none" style="width:754px;height:474px;background:#FEFEFE;" version="1.1" viewBox="0 0 754 474" width="754px" zoomAndPan="magnify"><title>GET /reservations/{reservation_id}/participants</title><defs/><g><rect fill="#FEFEFE" height="474" style="stroke:none;stroke-width:1;" width="754" x="0" y="0"/><text fill="#000000" font-family="Segoe UI" font-size="14" font-weight="bold" lengthAdjust="spacing" textLength="346.2813" x="199.8718" y="28.5352">GET /reservations/{reservation_id}/participants</text><text fill="#000000" font-family="Segoe UI" font-size="14" font-weight="bold" lengthAdjust="spacing" textLength="201.8857" x="272.0696" y="45.0234">Get reservation participants</text><g><title>API Gateway</title><rect fill="#2563EB" height="189.8633" style="stroke:#A23B72;stroke-width:1;" width="10" x="348.8003" y="188.0859"/></g><g><title>svc-reservations</title><rect fill="#2563EB" height="131.2422" style="stroke:#A23B72;stroke-width:1;" width="10" x="470.356" y="217.3965"/></g><g><title>PostgreSQL</title><rect fill="#FCE4EC" height="29.3105" style="stroke:#A23B72;stroke-width:1;" width="10" x="695.6001" y="290.0176"/></g><g><title>Client</title><rect fill="#000000" fill-opacity="0.00000" height="274.4844" width="8" x="27.7524" y="121.4648"/><line style="stroke:#A23B72;stroke-width:0.5;stroke-dasharray:5,5;" x1="31" x2="31" y1="121.4648" y2="395.9492"/></g><g><title>API Gateway</title><rect fill="#000000" fill-opacity="0.00000" height="274.4844" width="8" x="349.8003" y="121.4648"/><line style="stroke:#A23B72;stroke-width:0.5;stroke-dasharray:5,5;" x1="353.5112" x2="353.5112" y1="121.4648" y2="395.9492"/></g><g><title>svc-reservations</title><rect fill="#000000" fill-opacity="0.00000" height="274.4844" width="8" x="471.356" y="121.4648"/><line style="stroke:#A23B72;stroke-width:0.5;stroke-dasharray:5,5;" x1="475.0894" x2="475.0894" y1="121.4648" y2="395.9492"/></g><g><title>PostgreSQL</title><rect fill="#000000" fill-opacity="0.00000" height="274.4844" width="8" x="696.6001" y="121.4648"/><line style="stroke:#A23B72;stroke-width:0.5;stroke-dasharray:5,5;" x1="700.1753" x2="700.1753" y1="121.4648" y2="395.9492"/></g><g class="participant participant-head" data-participant="Client"><rect fill="#E8F4F8" height="30.4883" rx="2.5" ry="2.5" style="stroke:#2E86AB;stroke-width:0.5;" width="53.5049" x="5" y="89.9766"/><text fill="#000000" font-family="Segoe UI" font-size="14" lengthAdjust="spacing" textLength="39.5049" x="12" y="110.5117">Client</text></g><g class="participant participant-tail" data-participant="Client"><rect fill="#E8F4F8" height="30.4883" rx="2.5" ry="2.5" style="stroke:#2E86AB;stroke-width:0.5;" width="53.5049" x="5" y="394.9492"/><text fill="#000000" font-family="Segoe UI" font-size="14" lengthAdjust="spacing" textLength="39.5049" x="12" y="415.4844">Client</text></g><g class="participant participant-head" data-participant="GW"><rect fill="#DBEAFE" height="30.4883" rx="2.5" ry="2.5" style="stroke:#2E86AB;stroke-width:0.5;" width="96.5781" x="305.5112" y="89.9766"/><text fill="#000000" font-family="Segoe UI" font-size="14" lengthAdjust="spacing" textLength="82.5781" x="312.5112" y="110.5117">API Gateway</text></g><g class="participant participant-tail" data-participant="GW"><rect fill="#DBEAFE" height="30.4883" rx="2.5" ry="2.5" style="stroke:#2E86AB;stroke-width:0.5;" width="96.5781" x="305.5112" y="394.9492"/><text fill="#000000" font-family="Segoe UI" font-size="14" lengthAdjust="spacing" textLength="82.5781" x="312.5112" y="415.4844">API Gateway</text></g><g class="participant participant-head" data-participant="Svc"><a href="/microservices/svc-reservations/" target="_top" title="/microservices/svc-reservations/" xlink:actuate="onRequest" xlink:href="/microservices/svc-reservations/" xlink:show="new" xlink:title="/microservices/svc-reservations/" xlink:type="simple"><rect fill="#E8F4F8" height="30.4883" rx="2.5" ry="2.5" style="stroke:#2E86AB;stroke-width:0.5;" width="126.5332" x="412.0894" y="89.9766"/><text fill="#000000" font-family="Segoe UI" font-size="14" lengthAdjust="spacing" textLength="112.5332" x="419.0894" y="110.5117">svc-reservations</text></a></g><g class="participant participant-tail" data-participant="Svc"><a href="/microservices/svc-reservations/" target="_top" title="/microservices/svc-reservations/" xlink:actuate="onRequest" xlink:href="/microservices/svc-reservations/" xlink:show="new" xlink:title="/microservices/svc-reservations/" xlink:type="simple"><rect fill="#E8F4F8" height="30.4883" rx="2.5" ry="2.5" style="stroke:#2E86AB;stroke-width:0.5;" width="126.5332" x="412.0894" y="394.9492"/><text fill="#000000" font-family="Segoe UI" font-size="14" lengthAdjust="spacing" textLength="112.5332" x="419.0894" y="415.4844">svc-reservations</text></a></g><g class="participant participant-head" data-participant="DB"><text fill="#000000" font-family="Segoe UI" font-size="14" lengthAdjust="spacing" textLength="76.8496" x="659.1753" y="118.5117">PostgreSQL</text><path d="M682.6001,68.9766 C682.6001,58.9766 700.6001,58.9766 700.6001,58.9766 C700.6001,58.9766 718.6001,58.9766 718.6001,68.9766 L718.6001,94.9766 C718.6001,104.9766 700.6001,104.9766 700.6001,104.9766 C700.6001,104.9766 682.6001,104.9766 682.6001,94.9766 L682.6001,68.9766" fill="#FCE4EC" style="stroke:#181818;stroke-width:0.5;"/><path d="M682.6001,68.9766 C682.6001,78.9766 700.6001,78.9766 700.6001,78.9766 C700.6001,78.9766 718.6001,78.9766 718.6001,68.9766" fill="none" style="stroke:#181818;stroke-width:0.5;"/></g><g class="participant participant-tail" data-participant="DB"><text fill="#000000" font-family="Segoe UI" font-size="14" lengthAdjust="spacing" textLength="76.8496" x="659.1753" y="408.4844">PostgreSQL</text><path d="M682.6001,421.4375 C682.6001,411.4375 700.6001,411.4375 700.6001,411.4375 C700.6001,411.4375 718.6001,411.4375 718.6001,421.4375 L718.6001,447.4375 C718.6001,457.4375 700.6001,457.4375 700.6001,457.4375 C700.6001,457.4375 682.6001,457.4375 682.6001,447.4375 L682.6001,421.4375" fill="#FCE4EC" style="stroke:#181818;stroke-width:0.5;"/><path d="M682.6001,421.4375 C682.6001,431.4375 700.6001,431.4375 700.6001,431.4375 C700.6001,431.4375 718.6001,431.4375 718.6001,421.4375" fill="none" style="stroke:#181818;stroke-width:0.5;"/></g><g><title>API Gateway</title><rect fill="#2563EB" height="189.8633" style="stroke:#A23B72;stroke-width:1;" width="10" x="348.8003" y="188.0859"/></g><g><title>svc-reservations</title><rect fill="#2563EB" height="131.2422" style="stroke:#A23B72;stroke-width:1;" width="10" x="470.356" y="217.3965"/></g><g><title>PostgreSQL</title><rect fill="#FCE4EC" height="29.3105" style="stroke:#A23B72;stroke-width:1;" width="10" x="695.6001" y="290.0176"/></g><path d="M405,136.4648 L405,161.4648 L545,161.4648 L545,146.4648 L535,136.4648 L405,136.4648" fill="#FEFFDD" style="stroke:#181818;stroke-width:0.5;"/><path d="M535,136.4648 L535,146.4648 L545,146.4648 L535,136.4648" fill="#FEFFDD" style="stroke:#181818;stroke-width:0.5;"/><a href="/services/api/svc-reservations.html#/Reservations/getParticipants" target="_top" title="/services/api/svc-reservations.html#/Reservations/getParticipants" xlink:actuate="onRequest" xlink:href="/services/api/svc-reservations.html#/Reservations/getParticipants" xlink:show="new" xlink:title="/services/api/svc-reservations.html#/Reservations/getParticipants" xlink:type="simple"><text fill="#0000FF" font-family="Segoe UI" font-size="13" lengthAdjust="spacing" text-decoration="underline" textLength="119.4058" x="411" y="154.0332">View in Swagger UI</text></a><g class="message" data-participant-1="Client" data-participant-2="GW"><polygon fill="#2563EB" points="336.8003,184.0859,346.8003,188.0859,336.8003,192.0859,340.8003,188.0859" style="stroke:#2563EB;stroke-width:1;"/><line style="stroke:#2563EB;stroke-width:1;" x1="31.7524" x2="342.8003" y1="188.0859" y2="188.0859"/><text fill="#000000" font-family="Segoe UI" font-size="13" lengthAdjust="spacing" textLength="298.0479" x="38.7524" y="183.3438">GET /reservations/{reservation_id}/participants</text></g><g class="message" data-participant-1="GW" data-participant-2="Svc"><polygon fill="#2563EB" points="458.356,213.3965,468.356,217.3965,458.356,221.3965,462.356,217.3965" style="stroke:#2563EB;stroke-width:1;"/><line style="stroke:#2563EB;stroke-width:1;" x1="358.8003" x2="464.356" y1="217.3965" y2="217.3965"/><text fill="#000000" font-family="Segoe UI" font-size="13" lengthAdjust="spacing" textLength="85.1348" x="365.8003" y="212.6543">route request</text></g><rect fill="#EEEEEE" height="3" style="stroke:#EEEEEE;stroke-width:1;" width="747.0249" x="0" y="246.0518"/><line style="stroke:#000000;stroke-width:1;" x1="0" x2="747.0249" y1="246.0518" y2="246.0518"/><line style="stroke:#000000;stroke-width:1;" x1="0" x2="747.0249" y1="249.0518" y2="249.0518"/><rect fill="#EEEEEE" height="23.3105" style="stroke:#000000;stroke-width:2;" width="80.3711" x="333.3269" y="235.3965"/><text fill="#000000" font-family="Segoe UI" font-size="13" font-weight="bold" lengthAdjust="spacing" textLength="62.0864" x="339.3269" y="251.9648">Database</text><g class="message" data-participant-1="Svc" data-participant-2="DB"><polygon fill="#2563EB" points="683.6001,286.0176,693.6001,290.0176,683.6001,294.0176,687.6001,290.0176" style="stroke:#2563EB;stroke-width:1;"/><line style="stroke:#2563EB;stroke-width:1;" x1="480.356" x2="689.6001" y1="290.0176" y2="290.0176"/><text fill="#000000" font-family="Segoe UI" font-size="13" lengthAdjust="spacing" textLength="196.2441" x="487.356" y="285.2754">SELECT ... WHERE parent_id = ?</text></g><g class="message" data-participant-1="DB" data-participant-2="Svc"><polygon fill="#2563EB" points="491.356,315.3281,481.356,319.3281,491.356,323.3281,487.356,319.3281" style="stroke:#2563EB;stroke-width:1;"/><line style="stroke:#2563EB;stroke-width:1;stroke-dasharray:2,2;" x1="485.356" x2="699.6001" y1="319.3281" y2="319.3281"/><text fill="#000000" font-family="Segoe UI" font-size="13" lengthAdjust="spacing" textLength="57.8843" x="497.356" y="314.5859">ResultSet</text></g><g class="message" data-participant-1="Svc" data-participant-2="GW"><polygon fill="#2563EB" points="369.8003,344.6387,359.8003,348.6387,369.8003,352.6387,365.8003,348.6387" style="stroke:#2563EB;stroke-width:1;"/><line style="stroke:#2563EB;stroke-width:1;stroke-dasharray:2,2;" x1="363.8003" x2="474.356" y1="348.6387" y2="348.6387"/><text fill="#000000" font-family="Segoe UI" font-size="13" lengthAdjust="spacing" textLength="47.3599" x="375.8003" y="343.8965">200 OK</text></g><g class="message" data-participant-1="GW" data-participant-2="Client"><polygon fill="#2563EB" points="42.7524,373.9492,32.7524,377.9492,42.7524,381.9492,38.7524,377.9492" style="stroke:#2563EB;stroke-width:1;"/><line style="stroke:#2563EB;stroke-width:1;stroke-dasharray:2,2;" x1="36.7524" x2="352.8003" y1="377.9492" y2="377.9492"/><text fill="#000000" font-family="Segoe UI" font-size="13" lengthAdjust="spacing" textLength="47.3599" x="48.7524" y="373.207">200 OK</text></g><!--SRC=[bLDTRzem57tthxY2PmY5hY2aT2BWC3JKigOj3nsQJ799hGQRsGOsLVtlirC-JEdBaXSdv-ISUy-zqIzSh9XYIvYpz2LNSYsolYoaWcfCtKtqWQ6VMIQtNEImO8L63ybmmTQ5YQKmDso9K4ambmWFeuh_EVvUeqWHNWdOgwUKtEwicb-kMZWlNq-OCZpbAoPC95M6Qa-XdQjUT4RvM3Jjn9TnfwID-GB7NE29JA_PYjhD4e_adnCelkZ4ZOi3T1P775kyX6-aELLDs-rvoyC-YR95s-ID4CDDWJ2azn0erAWsp70fTF3gFVtYsLkmEZQfVueX6l0OuAE4U4zGwHSSXQa0q_1-F8Lxan4CcS4j-rjoXbEe3YBQivC-uUbDMlChBCd99eMdfs39KoKTn5FKmKTcC9iTvf0nm-PCsusOI6roXScFSQaqY6mgVNf9-uG86nd83IgdRqEq3WTnjk9d1lLdioogmPtlcQFnraB38ySjS079bkMvLNuOpMO4HGREZ93tPA1sxVhl_kyy24iDjnYMwUsMrnwjd4ke2tRs5bHkuRKviXsufvCmXC4-dJ0an85Mm0RJXOIEQVyUwlKwJB_HE-hcRUkrXK08Nu-2NehsM3lussZixvYW8Hbwv9t9lkjcem6tttsAoz_rOHcxX3vZ3QVa7m00]--></g></svg>