<svg xmlns="http://www.w3.org/2000/svg" xmlns:xlink="http://www.w3.org/1999/xlink" contentStyleType="text/css" data-diagram-type="SEQUENCE" height="611px" preserveAspectRatio="none" style="width:697px;height:611px;background:#FEFEFE;" version="1.1" viewBox="0 0 697 611" width="697px" zoomAndPan="magnify"><title>POST /transport-requests</title><defs/><g><rect fill="#FEFEFE" height="611" style="stroke:none;stroke-width:1;" width="697" x="0" y="0"/><text fill="#000000" font-family="Segoe UI" font-size="14" font-weight="bold" lengthAdjust="spacing" textLength="189.6221" x="249.8779" y="28.5352">POST /transport-requests</text><text fill="#000000" font-family="Segoe UI" font-size="14" font-weight="bold" lengthAdjust="spacing" textLength="255.5068" x="216.9355" y="45.0234">Request transport for a reservation</text><g><title>API Gateway</title><rect fill="#059669" height="327.1055" style="stroke:#A23B72;stroke-width:1;" width="10" x="214.2871" y="188.0859"/></g><g><title>svc-transport-logistics</title><rect fill="#059669" height="268.4844" style="stroke:#A23B72;stroke-width:1;" width="10" x="357.9775" y="217.3965"/></g><g><title>Location Svc</title><rect fill="#DBEAFE" height="29.3105" style="stroke:#A23B72;stroke-width:1;" width="10" x="538.5659" y="325.3281"/></g><g><title>PostgreSQL</title><rect fill="#FCE4EC" height="29.3105" style="stroke:#A23B72;stroke-width:1;" width="10" x="638.9531" y="427.2598"/></g><g><title>Client</title><rect fill="#000000" fill-opacity="0.00000" height="411.7266" width="8" x="27.7524" y="121.4648"/><line style="stroke:#A23B72;stroke-width:0.5;stroke-dasharray:5,5;" x1="31" x2="31" y1="121.4648" y2="533.1914"/></g><g><title>API Gateway</title><rect fill="#000000" fill-opacity="0.00000" height="411.7266" width="8" x="215.2871" y="121.4648"/><line style="stroke:#A23B72;stroke-width:0.5;stroke-dasharray:5,5;" x1="218.998" x2="218.998" y1="121.4648" y2="533.1914"/></g><g><title>svc-transport-logistics</title><rect fill="#000000" fill-opacity="0.00000" height="411.7266" width="8" x="358.9775" y="121.4648"/><line style="stroke:#A23B72;stroke-width:0.5;stroke-dasharray:5,5;" x1="362.5762" x2="362.5762" y1="121.4648" y2="533.1914"/></g><g><title>Location Svc</title><rect fill="#000000" fill-opacity="0.00000" height="411.7266" width="8" x="539.5659" y="121.4648"/><line style="stroke:#A23B72;stroke-width:0.5;stroke-dasharray:5,5;" x1="542.6035" x2="542.6035" y1="121.4648" y2="533.1914"/></g><g><title>PostgreSQL</title><rect fill="#000000" fill-opacity="0.00000" height="411.7266" width="8" x="639.9531" y="121.4648"/><line style="stroke:#A23B72;stroke-width:0.5;stroke-dasharray:5,5;" x1="643.5283" x2="643.5283" y1="121.4648" y2="533.1914"/></g><g class="participant participant-head" data-participant="Client"><rect fill="#E8F4F8" height="30.4883" rx="2.5" ry="2.5" style="stroke:#2E86AB;stroke-width:0.5;" width="53.5049" x="5" y="89.9766"/><text fill="#000000" font-family="Segoe UI" font-size="14" lengthAdjust="spacing" textLength="39.5049" x="12" y="110.5117">Client</text></g><g class="participant participant-tail" data-participant="Client"><rect fill="#E8F4F8" height="30.4883" rx="2.5" ry="2.5" style="stroke:#2E86AB;stroke-width:0.5;" width="53.5049" x="5" y="532.1914"/><text fill="#000000" font-family="Segoe UI" font-size="14" lengthAdjust="spacing" textLength="39.5049" x="12" y="552.7266">Client</text></g><g class="participant participant-head" data-participant="GW"><rect fill="#DBEAFE" height="30.4883" rx="2.5" ry="2.5" style="stroke:#2E86AB;stroke-width:0.5;" width="96.5781" x="170.998" y="89.9766"/><text fill="#000000" font-family="Segoe UI" font-size="14" lengthAdjust="spacing" textLength="82.5781" x="177.998" y="110.5117">API Gateway</text></g><g class="participant participant-tail" data-participant="GW"><rect fill="#DBEAFE" height="30.4883" rx="2.5" ry="2.5" style="stroke:#2E86AB;stroke-width:0.5;" width="96.5781" x="170.998" y="532.1914"/><text fill="#000000" font-family="Segoe UI" font-size="14" lengthAdjust="spacing" textLength="82.5781" x="177.998" y="552.7266">API Gateway</text></g><g class="participant participant-head" data-participant="Svc"><a href="/microservices/svc-transport-logistics/" target="_top" title="/microservices/svc-transport-logistics/" xlink:actuate="onRequest" xlink:href="/microservices/svc-transport-logistics/" xlink:show="new" xlink:title="/microservices/svc-transport-logistics/" xlink:type="simple"><rect fill="#E8F4F8" height="30.4883" rx="2.5" ry="2.5" style="stroke:#2E86AB;stroke-width:0.5;" width="170.8027" x="277.5762" y="89.9766"/><text fill="#000000" font-family="Segoe UI" font-size="14" lengthAdjust="spacing" textLength="156.8027" x="284.5762" y="110.5117">svc-transport-logistics</text></a></g><g class="participant participant-tail" data-participant="Svc"><a href="/microservices/svc-transport-logistics/" target="_top" title="/microservices/svc-transport-logistics/" xlink:actuate="onRequest" xlink:href="/microservices/svc-transport-logistics/" xlink:show="new" xlink:title="/microservices/svc-transport-logistics/" xlink:type="simple"><rect fill="#E8F4F8" height="30.4883" rx="2.5" ry="2.5" style="stroke:#2E86AB;stroke-width:0.5;" width="170.8027" x="277.5762" y="532.1914"/><text fill="#000000" font-family="Segoe UI" font-size="14" lengthAdjust="spacing" textLength="156.8027" x="284.5762" y="552.7266">svc-transport-logistics</text></a></g><g class="participant participant-head" data-participant="LS"><a href="/microservices/svc-location-services/" target="_top" title="/microservices/svc-location-services/" xlink:actuate="onRequest" xlink:href="/microservices/svc-location-services/" xlink:show="new" xlink:title="/microservices/svc-location-services/" xlink:type="simple"><rect fill="#FFF8F0" height="30.4883" rx="2.5" ry="2.5" style="stroke:#2E86AB;stroke-width:0.5;" width="97.9248" x="494.6035" y="89.9766"/><text fill="#000000" font-family="Segoe UI" font-size="14" lengthAdjust="spacing" textLength="83.9248" x="501.6035" y="110.5117">Location Svc</text></a></g><g class="participant participant-tail" data-participant="LS"><a href="/microservices/svc-location-services/" target="_top" title="/microservices/svc-location-services/" xlink:actuate="onRequest" xlink:href="/microservices/svc-location-services/" xlink:show="new" xlink:title="/microservices/svc-location-services/" xlink:type="simple"><rect fill="#FFF8F0" height="30.4883" rx="2.5" ry="2.5" style="stroke:#2E86AB;stroke-width:0.5;" width="97.9248" x="494.6035" y="532.1914"/><text fill="#000000" font-family="Segoe UI" font-size="14" lengthAdjust="spacing" textLength="83.9248" x="501.6035" y="552.7266">Location Svc</text></a></g><g class="participant participant-head" data-participant="DB"><text fill="#000000" font-family="Segoe UI" font-size="14" lengthAdjust="spacing" textLength="76.8496" x="602.5283" y="118.5117">PostgreSQL</text><path d="M625.9531,68.9766 C625.9531,58.9766 643.9531,58.9766 643.9531,58.9766 C643.9531,58.9766 661.9531,58.9766 661.9531,68.9766 L661.9531,94.9766 C661.9531,104.9766 643.9531,104.9766 643.9531,104.9766 C643.9531,104.9766 625.9531,104.9766 625.9531,94.9766 L625.9531,68.9766" fill="#FCE4EC" style="stroke:#181818;stroke-width:0.5;"/><path d="M625.9531,68.9766 C625.9531,78.9766 643.9531,78.9766 643.9531,78.9766 C643.9531,78.9766 661.9531,78.9766 661.9531,68.9766" fill="none" style="stroke:#181818;stroke-width:0.5;"/></g><g class="participant participant-tail" data-participant="DB"><text fill="#000000" font-family="Segoe UI" font-size="14" lengthAdjust="spacing" textLength="76.8496" x="602.5283" y="545.7266">PostgreSQL</text><path d="M625.9531,558.6797 C625.9531,548.6797 643.9531,548.6797 643.9531,548.6797 C643.9531,548.6797 661.9531,548.6797 661.9531,558.6797 L661.9531,584.6797 C661.9531,594.6797 643.9531,594.6797 643.9531,594.6797 C643.9531,594.6797 625.9531,594.6797 625.9531,584.6797 L625.9531,558.6797" fill="#FCE4EC" style="stroke:#181818;stroke-width:0.5;"/><path d="M625.9531,558.6797 C625.9531,568.6797 643.9531,568.6797 643.9531,568.6797 C643.9531,568.6797 661.9531,568.6797 661.9531,558.6797" fill="none" style="stroke:#181818;stroke-width:0.5;"/></g><g><title>API Gateway</title><rect fill="#059669" height="327.1055" style="stroke:#A23B72;stroke-width:1;" width="10" x="214.2871" y="188.0859"/></g><g><title>svc-transport-logistics</title><rect fill="#059669" height="268.4844" style="stroke:#A23B72;stroke-width:1;" width="10" x="357.9775" y="217.3965"/></g><g><title>Location Svc</title><rect fill="#DBEAFE" height="29.3105" style="stroke:#A23B72;stroke-width:1;" width="10" x="538.5659" y="325.3281"/></g><g><title>PostgreSQL</title><rect fill="#FCE4EC" height="29.3105" style="stroke:#A23B72;stroke-width:1;" width="10" x="638.9531" y="427.2598"/></g><path d="M292,136.4648 L292,161.4648 L432,161.4648 L432,146.4648 L422,136.4648 L292,136.4648" fill="#FEFFDD" style="stroke:#181818;stroke-width:0.5;"/><path d="M422,136.4648 L422,146.4648 L432,146.4648 L422,136.4648" fill="#FEFFDD" style="stroke:#181818;stroke-width:0.5;"/><a href="/services/api/svc-transport-logistics.html" target="_top" title="/services/api/svc-transport-logistics.html" xlink:actuate="onRequest" xlink:href="/services/api/svc-transport-logistics.html" xlink:show="new" xlink:title="/services/api/svc-transport-logistics.html" xlink:type="simple"><text fill="#0000FF" font-family="Segoe UI" font-size="13" lengthAdjust="spacing" text-decoration="underline" textLength="119.4058" x="298" y="154.0332">View in Swagger UI</text></a><g class="message" data-participant-1="Client" data-participant-2="GW"><polygon fill="#059669" points="202.2871,184.0859,212.2871,188.0859,202.2871,192.0859,206.2871,188.0859" style="stroke:#059669;stroke-width:1;"/><line style="stroke:#059669;stroke-width:1;" x1="31.7524" x2="208.2871" y1="188.0859" y2="188.0859"/><text fill="#000000" font-family="Segoe UI" font-size="13" lengthAdjust="spacing" textLength="163.5347" x="38.7524" y="183.3438">POST /transport-requests</text></g><g class="message" data-participant-1="GW" data-participant-2="Svc"><polygon fill="#059669" points="345.9775,213.3965,355.9775,217.3965,345.9775,221.3965,349.9775,217.3965" style="stroke:#059669;stroke-width:1;"/><line style="stroke:#059669;stroke-width:1;" x1="224.2871" x2="351.9775" y1="217.3965" y2="217.3965"/><text fill="#000000" font-family="Segoe UI" font-size="13" lengthAdjust="spacing" textLength="85.1348" x="231.2871" y="212.6543">route request</text></g><path d="M372,230.3965 L372,255.3965 L530,255.3965 L530,240.3965 L520,230.3965 L372,230.3965" fill="#FEFFDD" style="stroke:#181818;stroke-width:0.5;"/><path d="M520,230.3965 L520,240.3965 L530,240.3965 L520,230.3965" fill="#FEFFDD" style="stroke:#181818;stroke-width:0.5;"/><text fill="#000000" font-family="Segoe UI" font-size="13" lengthAdjust="spacing" textLength="137.5728" x="378" y="247.9648">Validate request body</text><rect fill="#EEEEEE" height="3" style="stroke:#EEEEEE;stroke-width:1;" width="690.3779" x="0" y="281.3623"/><line style="stroke:#000000;stroke-width:1;" x1="0" x2="690.3779" y1="281.3623" y2="281.3623"/><line style="stroke:#000000;stroke-width:1;" x1="0" x2="690.3779" y1="284.3623" y2="284.3623"/><rect fill="#EEEEEE" height="23.3105" style="stroke:#000000;stroke-width:2;" width="190.6743" x="249.8518" y="270.707"/><text fill="#000000" font-family="Segoe UI" font-size="13" font-weight="bold" lengthAdjust="spacing" textLength="172.3896" x="255.8518" y="287.2754">Cross-Service Integration</text><g class="message" data-participant-1="Svc" data-participant-2="LS"><polygon fill="#059669" points="526.5659,321.3281,536.5659,325.3281,526.5659,329.3281,530.5659,325.3281" style="stroke:#059669;stroke-width:1;"/><line style="stroke:#059669;stroke-width:1;" x1="367.9775" x2="532.5659" y1="325.3281" y2="325.3281"/><a href="/microservices/svc-location-services/#get-locationslocation_id-get-location-details" target="_top" title="/microservices/svc-location-services/#get-locationslocation_id-get-location-details" xlink:actuate="onRequest" xlink:href="/microservices/svc-location-services/#get-locationslocation_id-get-location-details" xlink:show="new" xlink:title="/microservices/svc-location-services/#get-locationslocation_id-get-location-details" xlink:type="simple"><text fill="#0000FF" font-family="Segoe UI" font-size="13" lengthAdjust="spacing" text-decoration="underline" textLength="151.5884" x="374.9775" y="320.5859">Validate pickup location</text></a></g><g class="message" data-participant-1="LS" data-participant-2="Svc"><polygon fill="#059669" points="378.9775,350.6387,368.9775,354.6387,378.9775,358.6387,374.9775,354.6387" style="stroke:#059669;stroke-width:1;"/><line style="stroke:#059669;stroke-width:1;stroke-dasharray:2,2;" x1="372.9775" x2="542.5659" y1="354.6387" y2="354.6387"/><text fill="#000000" font-family="Segoe UI" font-size="13" lengthAdjust="spacing" textLength="18.5859" x="384.9775" y="349.8965">OK</text></g><rect fill="#EEEEEE" height="3" style="stroke:#EEEEEE;stroke-width:1;" width="690.3779" x="0" y="383.2939"/><line style="stroke:#000000;stroke-width:1;" x1="0" x2="690.3779" y1="383.2939" y2="383.2939"/><line style="stroke:#000000;stroke-width:1;" x1="0" x2="690.3779" y1="386.2939" y2="386.2939"/><rect fill="#EEEEEE" height="23.3105" style="stroke:#000000;stroke-width:2;" width="80.3711" x="305.0034" y="372.6387"/><text fill="#000000" font-family="Segoe UI" font-size="13" font-weight="bold" lengthAdjust="spacing" textLength="62.0864" x="311.0034" y="389.207">Database</text><g class="message" data-participant-1="Svc" data-participant-2="DB"><polygon fill="#059669" points="626.9531,423.2598,636.9531,427.2598,626.9531,431.2598,630.9531,427.2598" style="stroke:#059669;stroke-width:1;"/><line style="stroke:#059669;stroke-width:1;" x1="367.9775" x2="632.9531" y1="427.2598" y2="427.2598"/><text fill="#000000" font-family="Segoe UI" font-size="13" lengthAdjust="spacing" textLength="96.0718" x="374.9775" y="422.5176">INSERT INTO ...</text></g><g class="message" data-participant-1="DB" data-participant-2="Svc"><polygon fill="#059669" points="378.9775,452.5703,368.9775,456.5703,378.9775,460.5703,374.9775,456.5703" style="stroke:#059669;stroke-width:1;"/><line style="stroke:#059669;stroke-width:1;stroke-dasharray:2,2;" x1="372.9775" x2="642.9531" y1="456.5703" y2="456.5703"/><text fill="#000000" font-family="Segoe UI" font-size="13" lengthAdjust="spacing" textLength="76.4575" x="384.9775" y="451.8281">Created row</text></g><g class="message" data-participant-1="Svc" data-participant-2="GW"><polygon fill="#059669" points="235.2871,481.8809,225.2871,485.8809,235.2871,489.8809,231.2871,485.8809" style="stroke:#059669;stroke-width:1;"/><line style="stroke:#059669;stroke-width:1;stroke-dasharray:2,2;" x1="229.2871" x2="361.9775" y1="485.8809" y2="485.8809"/><text fill="#000000" font-family="Segoe UI" font-size="13" lengthAdjust="spacing" textLength="77.7969" x="241.2871" y="481.1387">201 Created</text></g><g class="message" data-participant-1="GW" data-participant-2="Client"><polygon fill="#059669" points="42.7524,511.1914,32.7524,515.1914,42.7524,519.1914,38.7524,515.1914" style="stroke:#059669;stroke-width:1;"/><line style="stroke:#059669;stroke-width:1;stroke-dasharray:2,2;" x1="36.7524" x2="218.2871" y1="515.1914" y2="515.1914"/><text fill="#000000" font-family="Segoe UI" font-size="13" lengthAdjust="spacing" textLength="77.7969" x="48.7524" y="510.4492">201 Created</text></g><!--SRC=[ZL9TRzf047o_Nx4YpuQ4f84WKGc37Q6YXCRvU4XHTTYBSugvS-yEI5JrltTj_4KJfE87LZUpitipPrw5JBdcQrZoy3NMQYEZiKgKXXFVopvcAePvuP7Q2Hd3YYS66qY4Axv9hA-alU5hX5Q0iK9ucBQQxVXhWp94-Cs0VYEjrQuOTVhbwlBoAZ-USsr5A58khQjqXBgWTBt-vSZzGFbtQQ_lN_Zzd3OJAvm9YGSoe-wvs-lckAlU3Y3_hE-VdbNG1pjyd_0Slb7sK3NizPRd3UmJAy-z7ll3c1KsGPZV1lVGiPfBaofj7PrPOwpv8U_s5LGOh4Y0WqQ3UikjK9Anj3O0MkD4eBGju0RsvI4yca_XcblSyVUSS_q49nFN6r6o1pop3PrweKJ5mX1eyfvW6yBpSsSjGgsoDKI8fdEaeRDOL2aS39YfC5y_KyjLPy7deab1TAhJJBAmF-AMBxcX9pPNniOQW- -pN6tY4cViNNXZnYHb06gBEfj5gT2OIekdujZgxHUxJk1Hu0u4hRdZSKmI3zF5Wg6C85DbREynE5yp9mT7asGyj8BomjpmudrJINsPcmEWvq5WGQ_P6LZIz_VG8dwne5P5toDFHCJhLbYgw9snuH36vADnWlr5OIejndhl-738MDPDmydqmV_QVXAZhOvDMVmKaTC4d0Wj5ucfDqj5-Bf9eIIGVTNrQ7pv-gXqAZTklx486wpyGfCowyR-5FC0fZU1TtTFV_Utq6wtQ_d68w2obXzh93WYqtVDEHEtq2tJx9wUbTmcBtj5MNP4A-8_Ihr-Ody1]--></g></svg>