<svg xmlns="http://www.w3.org/2000/svg" xmlns:xlink="http://www.w3.org/1999/xlink" contentStyleType="text/css" data-diagram-type="SEQUENCE" height="611px" preserveAspectRatio="none" style="width:744px;height:611px;background:#FEFEFE;" version="1.1" viewBox="0 0 744 611" width="744px" zoomAndPan="magnify"><title>POST /schedule-conflicts/resolve</title><defs/><g><rect fill="#FEFEFE" height="611" style="stroke:none;stroke-width:1;" width="744" x="0" y="0"/><text fill="#000000" font-family="Segoe UI" font-size="14" font-weight="bold" lengthAdjust="spacing" textLength="245.1709" x="245.4895" y="28.5352">POST /schedule-conflicts/resolve</text><text fill="#000000" font-family="Segoe UI" font-size="14" font-weight="bold" lengthAdjust="spacing" textLength="210.2461" x="262.9519" y="45.0234">Resolve a scheduling conflict</text><g><title>API Gateway</title><rect fill="#059669" height="327.1055" style="stroke:#A23B72;stroke-width:1;" width="10" x="262.4341" y="188.0859"/></g><g><title>svc-scheduling-orchestrator</title><rect fill="#059669" height="268.4844" style="stroke:#A23B72;stroke-width:1;" width="10" x="425.1968" y="217.3965"/></g><g><title>Guide Mgmt</title><rect fill="#DBEAFE" height="29.3105" style="stroke:#A23B72;stroke-width:1;" width="10" x="588.1646" y="325.3281"/></g><g><title>PG . Redis</title><rect fill="#FCE4EC" height="29.3105" style="stroke:#A23B72;stroke-width:1;" width="10" x="686.9043" y="427.2598"/></g><g><title>Client</title><rect fill="#000000" fill-opacity="0.00000" height="411.7266" width="8" x="27.7524" y="121.4648"/><line style="stroke:#A23B72;stroke-width:0.5;stroke-dasharray:5,5;" x1="31" x2="31" y1="121.4648" y2="533.1914"/></g><g><title>API Gateway</title><rect fill="#000000" fill-opacity="0.00000" height="411.7266" width="8" x="263.4341" y="121.4648"/><line style="stroke:#A23B72;stroke-width:0.5;stroke-dasharray:5,5;" x1="267.145" x2="267.145" y1="121.4648" y2="533.1914"/></g><g><title>svc-scheduling-orchestrator</title><rect fill="#000000" fill-opacity="0.00000" height="411.7266" width="8" x="426.1968" y="121.4648"/><line style="stroke:#A23B72;stroke-width:0.5;stroke-dasharray:5,5;" x1="429.7231" x2="429.7231" y1="121.4648" y2="533.1914"/></g><g><title>Guide Mgmt</title><rect fill="#000000" fill-opacity="0.00000" height="411.7266" width="8" x="589.1646" y="121.4648"/><line style="stroke:#A23B72;stroke-width:0.5;stroke-dasharray:5,5;" x1="592.6704" x2="592.6704" y1="121.4648" y2="533.1914"/></g><g><title>PG . Redis</title><rect fill="#000000" fill-opacity="0.00000" height="411.7266" width="8" x="687.9043" y="121.4648"/><line style="stroke:#A23B72;stroke-width:0.5;stroke-dasharray:5,5;" x1="691.6587" x2="691.6587" y1="121.4648" y2="533.1914"/></g><g class="participant participant-head" data-participant="Client"><rect fill="#E8F4F8" height="30.4883" rx="2.5" ry="2.5" style="stroke:#2E86AB;stroke-width:0.5;" width="53.5049" x="5" y="89.9766"/><text fill="#000000" font-family="Segoe UI" font-size="14" lengthAdjust="spacing" textLength="39.5049" x="12" y="110.5117">Client</text></g><g class="participant participant-tail" data-participant="Client"><rect fill="#E8F4F8" height="30.4883" rx="2.5" ry="2.5" style="stroke:#2E86AB;stroke-width:0.5;" width="53.5049" x="5" y="532.1914"/><text fill="#000000" font-family="Segoe UI" font-size="14" lengthAdjust="spacing" textLength="39.5049" x="12" y="552.7266">Client</text></g><g class="participant participant-head" data-participant="GW"><rect fill="#DBEAFE" height="30.4883" rx="2.5" ry="2.5" style="stroke:#2E86AB;stroke-width:0.5;" width="96.5781" x="219.145" y="89.9766"/><text fill="#000000" font-family="Segoe UI" font-size="14" lengthAdjust="spacing" textLength="82.5781" x="226.145" y="110.5117">API Gateway</text></g><g class="participant participant-tail" data-participant="GW"><rect fill="#DBEAFE" height="30.4883" rx="2.5" ry="2.5" style="stroke:#2E86AB;stroke-width:0.5;" width="96.5781" x="219.145" y="532.1914"/><text fill="#000000" font-family="Segoe UI" font-size="14" lengthAdjust="spacing" textLength="82.5781" x="226.145" y="552.7266">API Gateway</text></g><g class="participant participant-head" data-participant="Svc"><a href="/microservices/svc-scheduling-orchestrator/" target="_top" title="/microservices/svc-scheduling-orchestrator/" xlink:actuate="onRequest" xlink:href="/microservices/svc-scheduling-orchestrator/" xlink:show="new" xlink:title="/microservices/svc-scheduling-orchestrator/" xlink:type="simple"><rect fill="#E8F4F8" height="30.4883" rx="2.5" ry="2.5" style="stroke:#2E86AB;stroke-width:0.5;" width="208.9473" x="325.7231" y="89.9766"/><text fill="#000000" font-family="Segoe UI" font-size="14" lengthAdjust="spacing" textLength="194.9473" x="332.7231" y="110.5117">svc-scheduling-orchestrator</text></a></g><g class="participant participant-tail" data-participant="Svc"><a href="/microservices/svc-scheduling-orchestrator/" target="_top" title="/microservices/svc-scheduling-orchestrator/" xlink:actuate="onRequest" xlink:href="/microservices/svc-scheduling-orchestrator/" xlink:show="new" xlink:title="/microservices/svc-scheduling-orchestrator/" xlink:type="simple"><rect fill="#E8F4F8" height="30.4883" rx="2.5" ry="2.5" style="stroke:#2E86AB;stroke-width:0.5;" width="208.9473" x="325.7231" y="532.1914"/><text fill="#000000" font-family="Segoe UI" font-size="14" lengthAdjust="spacing" textLength="194.9473" x="332.7231" y="552.7266">svc-scheduling-orchestrator</text></a></g><g class="participant participant-head" data-participant="GM"><a href="/microservices/svc-guide-management/" target="_top" title="/microservices/svc-guide-management/" xlink:actuate="onRequest" xlink:href="/microservices/svc-guide-management/" xlink:show="new" xlink:title="/microservices/svc-guide-management/" xlink:type="simple"><rect fill="#FFF8F0" height="30.4883" rx="2.5" ry="2.5" style="stroke:#2E86AB;stroke-width:0.5;" width="96.9883" x="544.6704" y="89.9766"/><text fill="#000000" font-family="Segoe UI" font-size="14" lengthAdjust="spacing" textLength="82.9883" x="551.6704" y="110.5117">Guide Mgmt</text></a></g><g class="participant participant-tail" data-participant="GM"><a href="/microservices/svc-guide-management/" target="_top" title="/microservices/svc-guide-management/" xlink:actuate="onRequest" xlink:href="/microservices/svc-guide-management/" xlink:show="new" xlink:title="/microservices/svc-guide-management/" xlink:type="simple"><rect fill="#FFF8F0" height="30.4883" rx="2.5" ry="2.5" style="stroke:#2E86AB;stroke-width:0.5;" width="96.9883" x="544.6704" y="532.1914"/><text fill="#000000" font-family="Segoe UI" font-size="14" lengthAdjust="spacing" textLength="82.9883" x="551.6704" y="552.7266">Guide Mgmt</text></a></g><g class="participant participant-head" data-participant="DB"><text fill="#000000" font-family="Segoe UI" font-size="14" lengthAdjust="spacing" textLength="74.4912" x="651.6587" y="118.5117">PG + Redis</text><path d="M673.9043,68.9766 C673.9043,58.9766 691.9043,58.9766 691.9043,58.9766 C691.9043,58.9766 709.9043,58.9766 709.9043,68.9766 L709.9043,94.9766 C709.9043,104.9766 691.9043,104.9766 691.9043,104.9766 C691.9043,104.9766 673.9043,104.9766 673.9043,94.9766 L673.9043,68.9766" fill="#FCE4EC" style="stroke:#181818;stroke-width:0.5;"/><path d="M673.9043,68.9766 C673.9043,78.9766 691.9043,78.9766 691.9043,78.9766 C691.9043,78.9766 709.9043,78.9766 709.9043,68.9766" fill="none" style="stroke:#181818;stroke-width:0.5;"/></g><g class="participant participant-tail" data-participant="DB"><text fill="#000000" font-family="Segoe UI" font-size="14" lengthAdjust="spacing" textLength="74.4912" x="651.6587" y="545.7266">PG + Redis</text><path d="M673.9043,558.6797 C673.9043,548.6797 691.9043,548.6797 691.9043,548.6797 C691.9043,548.6797 709.9043,548.6797 709.9043,558.6797 L709.9043,584.6797 C709.9043,594.6797 691.9043,594.6797 691.9043,594.6797 C691.9043,594.6797 673.9043,594.6797 673.9043,584.6797 L673.9043,558.6797" fill="#FCE4EC" style="stroke:#181818;stroke-width:0.5;"/><path d="M673.9043,558.6797 C673.9043,568.6797 691.9043,568.6797 691.9043,568.6797 C691.9043,568.6797 709.9043,568.6797 709.9043,558.6797" fill="none" style="stroke:#181818;stroke-width:0.5;"/></g><g><title>API Gateway</title><rect fill="#059669" height="327.1055" style="stroke:#A23B72;stroke-width:1;" width="10" x="262.4341" y="188.0859"/></g><g><title>svc-scheduling-orchestrator</title><rect fill="#059669" height="268.4844" style="stroke:#A23B72;stroke-width:1;" width="10" x="425.1968" y="217.3965"/></g><g><title>Guide Mgmt</title><rect fill="#DBEAFE" height="29.3105" style="stroke:#A23B72;stroke-width:1;" width="10" x="588.1646" y="325.3281"/></g><g><title>PG . Redis</title><rect fill="#FCE4EC" height="29.3105" style="stroke:#A23B72;stroke-width:1;" width="10" x="686.9043" y="427.2598"/></g><path d="M359,136.4648 L359,161.4648 L499,161.4648 L499,146.4648 L489,136.4648 L359,136.4648" fill="#FEFFDD" style="stroke:#181818;stroke-width:0.5;"/><path d="M489,136.4648 L489,146.4648 L499,146.4648 L489,136.4648" fill="#FEFFDD" style="stroke:#181818;stroke-width:0.5;"/><a href="/services/api/svc-scheduling-orchestrator.html" target="_top" title="/services/api/svc-scheduling-orchestrator.html" xlink:actuate="onRequest" xlink:href="/services/api/svc-scheduling-orchestrator.html" xlink:show="new" xlink:title="/services/api/svc-scheduling-orchestrator.html" xlink:type="simple"><text fill="#0000FF" font-family="Segoe UI" font-size="13" lengthAdjust="spacing" text-decoration="underline" textLength="119.4058" x="365" y="154.0332">View in Swagger UI</text></a><g class="message" data-participant-1="Client" data-participant-2="GW"><polygon fill="#059669" points="250.4341,184.0859,260.4341,188.0859,250.4341,192.0859,254.4341,188.0859" style="stroke:#059669;stroke-width:1;"/><line style="stroke:#059669;stroke-width:1;" x1="31.7524" x2="256.4341" y1="188.0859" y2="188.0859"/><text fill="#000000" font-family="Segoe UI" font-size="13" lengthAdjust="spacing" textLength="211.6816" x="38.7524" y="183.3438">POST /schedule-conflicts/resolve</text></g><g class="message" data-participant-1="GW" data-participant-2="Svc"><polygon fill="#059669" points="413.1968,213.3965,423.1968,217.3965,413.1968,221.3965,417.1968,217.3965" style="stroke:#059669;stroke-width:1;"/><line style="stroke:#059669;stroke-width:1;" x1="272.4341" x2="419.1968" y1="217.3965" y2="217.3965"/><a href="/microservices/svc-scheduling-orchestrator/#post-schedule-conflictsresolve-resolve-a-scheduling-conflict" target="_top" title="/microservices/svc-scheduling-orchestrator/#post-schedule-conflictsresolve-resolve-a-scheduling-conflict" xlink:actuate="onRequest" xlink:href="/microservices/svc-scheduling-orchestrator/#post-schedule-conflictsresolve-resolve-a-scheduling-conflict" xlink:show="new" xlink:title="/microservices/svc-scheduling-orchestrator/#post-schedule-conflictsresolve-resolve-a-scheduling-conflict" xlink:type="simple"><text fill="#0000FF" font-family="Segoe UI" font-size="13" lengthAdjust="spacing" text-decoration="underline" textLength="85.1348" x="279.4341" y="212.6543">route request</text></a></g><path d="M440,230.3965 L440,255.3965 L598,255.3965 L598,240.3965 L588,230.3965 L440,230.3965" fill="#FEFFDD" style="stroke:#181818;stroke-width:0.5;"/><path d="M588,230.3965 L588,240.3965 L598,240.3965 L588,230.3965" fill="#FEFFDD" style="stroke:#181818;stroke-width:0.5;"/><text fill="#000000" font-family="Segoe UI" font-size="13" lengthAdjust="spacing" textLength="137.5728" x="446" y="247.9648">Validate request body</text><rect fill="#EEEEEE" height="3" style="stroke:#EEEEEE;stroke-width:1;" width="737.1499" x="0" y="281.3623"/><line style="stroke:#000000;stroke-width:1;" x1="0" x2="737.1499" y1="281.3623" y2="281.3623"/><line style="stroke:#000000;stroke-width:1;" x1="0" x2="737.1499" y1="284.3623" y2="284.3623"/><rect fill="#EEEEEE" height="23.3105" style="stroke:#000000;stroke-width:2;" width="190.6743" x="273.2378" y="270.707"/><text fill="#000000" font-family="Segoe UI" font-size="13" font-weight="bold" lengthAdjust="spacing" textLength="172.3896" x="279.2378" y="287.2754">Cross-Service Integration</text><g class="message" data-participant-1="Svc" data-participant-2="GM"><polygon fill="#059669" points="576.1646,321.3281,586.1646,325.3281,576.1646,329.3281,580.1646,325.3281" style="stroke:#059669;stroke-width:1;"/><line style="stroke:#059669;stroke-width:1;" x1="435.1968" x2="582.1646" y1="325.3281" y2="325.3281"/><a href="/microservices/svc-guide-management/#patch-guidesguide_id-update-guide-profile" target="_top" title="/microservices/svc-guide-management/#patch-guidesguide_id-update-guide-profile" xlink:actuate="onRequest" xlink:href="/microservices/svc-guide-management/#patch-guidesguide_id-update-guide-profile" xlink:show="new" xlink:title="/microservices/svc-guide-management/#patch-guidesguide_id-update-guide-profile" xlink:type="simple"><text fill="#0000FF" font-family="Segoe UI" font-size="13" lengthAdjust="spacing" text-decoration="underline" textLength="95.2974" x="442.1968" y="320.5859">Reassign guide</text></a></g><g class="message" data-participant-1="GM" data-participant-2="Svc"><polygon fill="#059669" points="446.1968,350.6387,436.1968,354.6387,446.1968,358.6387,442.1968,354.6387" style="stroke:#059669;stroke-width:1;"/><line style="stroke:#059669;stroke-width:1;stroke-dasharray:2,2;" x1="440.1968" x2="592.1646" y1="354.6387" y2="354.6387"/><text fill="#000000" font-family="Segoe UI" font-size="13" lengthAdjust="spacing" textLength="18.5859" x="452.1968" y="349.8965">OK</text></g><rect fill="#EEEEEE" height="3" style="stroke:#EEEEEE;stroke-width:1;" width="737.1499" x="0" y="383.2939"/><line style="stroke:#000000;stroke-width:1;" x1="0" x2="737.1499" y1="383.2939" y2="383.2939"/><line style="stroke:#000000;stroke-width:1;" x1="0" x2="737.1499" y1="386.2939" y2="386.2939"/><rect fill="#EEEEEE" height="23.3105" style="stroke:#000000;stroke-width:2;" width="80.3711" x="328.3894" y="372.6387"/><text fill="#000000" font-family="Segoe UI" font-size="13" font-weight="bold" lengthAdjust="spacing" textLength="62.0864" x="334.3894" y="389.207">Database</text><g class="message" data-participant-1="Svc" data-participant-2="DB"><polygon fill="#059669" points="674.9043,423.2598,684.9043,427.2598,674.9043,431.2598,678.9043,427.2598" style="stroke:#059669;stroke-width:1;"/><line style="stroke:#059669;stroke-width:1;" x1="435.1968" x2="680.9043" y1="427.2598" y2="427.2598"/><text fill="#000000" font-family="Segoe UI" font-size="13" lengthAdjust="spacing" textLength="96.0718" x="442.1968" y="422.5176">INSERT INTO ...</text></g><g class="message" data-participant-1="DB" data-participant-2="Svc"><polygon fill="#059669" points="446.1968,452.5703,436.1968,456.5703,446.1968,460.5703,442.1968,456.5703" style="stroke:#059669;stroke-width:1;"/><line style="stroke:#059669;stroke-width:1;stroke-dasharray:2,2;" x1="440.1968" x2="690.9043" y1="456.5703" y2="456.5703"/><text fill="#000000" font-family="Segoe UI" font-size="13" lengthAdjust="spacing" textLength="76.4575" x="452.1968" y="451.8281">Created row</text></g><g class="message" data-participant-1="Svc" data-participant-2="GW"><polygon fill="#059669" points="283.4341,481.8809,273.4341,485.8809,283.4341,489.8809,279.4341,485.8809" style="stroke:#059669;stroke-width:1;"/><line style="stroke:#059669;stroke-width:1;stroke-dasharray:2,2;" x1="277.4341" x2="429.1968" y1="485.8809" y2="485.8809"/><text fill="#000000" font-family="Segoe UI" font-size="13" lengthAdjust="spacing" textLength="77.7969" x="289.4341" y="481.1387">201 Created</text></g><g class="message" data-participant-1="GW" data-participant-2="Client"><polygon fill="#059669" points="42.7524,511.1914,32.7524,515.1914,42.7524,519.1914,38.7524,515.1914" style="stroke:#059669;stroke-width:1;"/><line style="stroke:#059669;stroke-width:1;stroke-dasharray:2,2;" x1="36.7524" x2="266.4341" y1="515.1914" y2="515.1914"/><text fill="#000000" font-family="Segoe UI" font-size="13" lengthAdjust="spacing" textLength="77.7969" x="48.7524" y="510.4492">201 Created</text></g><!--SRC=[bLDjRzem4FxkNt62ZrEWfLsXbPX4845eVK7GbmyTcany1Ak9dTa6LatxxxD30c6qdKOaSl8zT_VukIVwXOkCAfh2d4OliP8hmVeoaGhgOU0UedS8lQHCRhY8OK4JZPKCmmLT9IQKmjpI5A4snLWYF8ngrNByiK8H8VmYO7yzfUIc67No-VBYuZ8_7bDbUCGpAeml5KDLG5f1vwBd7q7-9XrqmlEmayEk-GAlkS23DhtMcTzkvNbV_Zn8XQUTyEHqbpgI8mnjFa_VIdFODMgtvsULt1jIdWLjyfiGmqs2CBwRtaDJHqjagmIzI8f5mYEZcmgrJDRuJKos0L0eK4xs4aT8jfS0Qls4ep0re1gsuM6wDnx1a1hSqDSSCto2-i0FUdQt1pYzZhpzC4yg6skZg94ghvkk8tX-RgOyKbAZMlC8TVE3ekPijjl7mQ3XYZE4cpZTSXxUlDqsTZ0lfOB6cDfRvVsABJ1gw9ngwxJn43x111dNURE1Rp7zu3pe4oBiAa2kKJdgTZbsocu0pVX7t1jBaoRmo743NC1qG-FOjdaOpMO41GFNcP2jsE1zSP9U_NEfX4Q6h-qYyWqKbhUXhNVINlsVkFLCQkCTJok6UUMRLZkKAB3cj3oK-oAriPVQKNDCIcvR0HMFbmRaeY3vI1FEwBuOvfAz4jBjGjyorzvqInv6mc1igN8feDibn5KxfMxUk-ZHkkiPDT5oUwxp_- -SUQlCJI_GcP8BRh-d2LAjUImWFwxUnyuhpMv3RwVrtLV2i8BARp0eNLKXR0rr1QFRQJ2vjw_xEsWq6lls5RlPSD- -hz2ccTLvKvqpy8k-fMTQ9wSbjefpVdNEiB32PEz2Xq_a3m00]--></g></svg>