<svg xmlns="http://www.w3.org/2000/svg" xmlns:xlink="http://www.w3.org/1999/xlink" contentStyleType="text/css" data-diagram-type="SEQUENCE" height="487px" preserveAspectRatio="none" style="width:525px;height:487px;background:#FEFEFE;" version="1.1" viewBox="0 0 525 487" width="525px" zoomAndPan="magnify"><title>GET /partners</title><defs/><g><rect fill="#FEFEFE" height="487" style="stroke:none;stroke-width:1;" width="525" x="0" y="0"/><text fill="#000000" font-family="Segoe UI" font-size="14" font-weight="bold" lengthAdjust="spacing" textLength="102.2588" x="207.7126" y="41.3125">GET /partners</text><text fill="#000000" font-family="Segoe UI" font-size="14" font-weight="bold" lengthAdjust="spacing" textLength="170.7275" x="173.4783" y="57.8008">List registered partners</text><g><title>API Gateway</title><rect fill="#2563EB" height="189.8633" style="stroke:#A23B72;stroke-width:1;" width="10" x="139.1436" y="200.8633"/></g><g><title>svc-partner-integrations</title><rect fill="#2563EB" height="131.2422" style="stroke:#A23B72;stroke-width:1;" width="10" x="289.0068" y="230.1738"/></g><g><title>PostgreSQL</title><rect fill="#FCE4EC" height="29.3105" style="stroke:#A23B72;stroke-width:1;" width="10" x="467.2593" y="302.7949"/></g><g><title>Client</title><rect fill="#000000" fill-opacity="0.00000" height="274.4844" width="8" x="27.7524" y="134.2422"/><line style="stroke:#A23B72;stroke-width:0.5;stroke-dasharray:5,5;" x1="31" x2="31" y1="134.2422" y2="408.7266"/></g><g><title>API Gateway</title><rect fill="#000000" fill-opacity="0.00000" height="274.4844" width="8" x="140.1436" y="134.2422"/><line style="stroke:#A23B72;stroke-width:0.5;stroke-dasharray:5,5;" x1="143.8545" x2="143.8545" y1="134.2422" y2="408.7266"/></g><g><title>svc-partner-integrations</title><rect fill="#000000" fill-opacity="0.00000" height="274.4844" width="8" x="290.0068" y="134.2422"/><line style="stroke:#A23B72;stroke-width:0.5;stroke-dasharray:5,5;" x1="293.4326" x2="293.4326" y1="134.2422" y2="408.7266"/></g><g><title>PostgreSQL</title><rect fill="#000000" fill-opacity="0.00000" height="274.4844" width="8" x="468.2593" y="134.2422"/><line style="stroke:#A23B72;stroke-width:0.5;stroke-dasharray:5,5;" x1="471.8345" x2="471.8345" y1="134.2422" y2="408.7266"/></g><g class="participant participant-head" data-participant="Client"><rect fill="#E8F4F8" height="30.4883" rx="2.5" ry="2.5" style="stroke:#2E86AB;stroke-width:0.5;" width="53.5049" x="5" y="102.7539"/><text fill="#000000" font-family="Segoe UI" font-size="14" lengthAdjust="spacing" textLength="39.5049" x="12" y="123.2891">Client</text></g><g class="participant participant-tail" data-participant="Client"><rect fill="#E8F4F8" height="30.4883" rx="2.5" ry="2.5" style="stroke:#2E86AB;stroke-width:0.5;" width="53.5049" x="5" y="407.7266"/><text fill="#000000" font-family="Segoe UI" font-size="14" lengthAdjust="spacing" textLength="39.5049" x="12" y="428.2617">Client</text></g><g class="participant participant-head" data-participant="GW"><rect fill="#DBEAFE" height="30.4883" rx="2.5" ry="2.5" style="stroke:#2E86AB;stroke-width:0.5;" width="96.5781" x="95.8545" y="102.7539"/><text fill="#000000" font-family="Segoe UI" font-size="14" lengthAdjust="spacing" textLength="82.5781" x="102.8545" y="123.2891">API Gateway</text></g><g class="participant participant-tail" data-participant="GW"><rect fill="#DBEAFE" height="30.4883" rx="2.5" ry="2.5" style="stroke:#2E86AB;stroke-width:0.5;" width="96.5781" x="95.8545" y="407.7266"/><text fill="#000000" font-family="Segoe UI" font-size="14" lengthAdjust="spacing" textLength="82.5781" x="102.8545" y="428.2617">API Gateway</text></g><g class="participant participant-head" data-participant="Svc"><a href="/microservices/svc-partner-integrations/" target="_top" title="/microservices/svc-partner-integrations/" xlink:actuate="onRequest" xlink:href="/microservices/svc-partner-integrations/" xlink:show="new" xlink:title="/microservices/svc-partner-integrations/" xlink:type="simple"><rect fill="#E8F4F8" height="30.4883" rx="2.5" ry="2.5" style="stroke:#2E86AB;stroke-width:0.5;" width="183.1484" x="202.4326" y="102.7539"/><text fill="#000000" font-family="Segoe UI" font-size="14" lengthAdjust="spacing" textLength="169.1484" x="209.4326" y="123.2891">svc-partner-integrations</text></a></g><g class="participant participant-tail" data-participant="Svc"><a href="/microservices/svc-partner-integrations/" target="_top" title="/microservices/svc-partner-integrations/" xlink:actuate="onRequest" xlink:href="/microservices/svc-partner-integrations/" xlink:show="new" xlink:title="/microservices/svc-partner-integrations/" xlink:type="simple"><rect fill="#E8F4F8" height="30.4883" rx="2.5" ry="2.5" style="stroke:#2E86AB;stroke-width:0.5;" width="183.1484" x="202.4326" y="407.7266"/><text fill="#000000" font-family="Segoe UI" font-size="14" lengthAdjust="spacing" textLength="169.1484" x="209.4326" y="428.2617">svc-partner-integrations</text></a></g><g class="participant participant-head" data-participant="DB"><text fill="#000000" font-family="Segoe UI" font-size="14" lengthAdjust="spacing" textLength="76.8496" x="430.8345" y="131.2891">PostgreSQL</text><path d="M454.2593,81.7539 C454.2593,71.7539 472.2593,71.7539 472.2593,71.7539 C472.2593,71.7539 490.2593,71.7539 490.2593,81.7539 L490.2593,107.7539 C490.2593,117.7539 472.2593,117.7539 472.2593,117.7539 C472.2593,117.7539 454.2593,117.7539 454.2593,107.7539 L454.2593,81.7539" fill="#FCE4EC" style="stroke:#181818;stroke-width:0.5;"/><path d="M454.2593,81.7539 C454.2593,91.7539 472.2593,91.7539 472.2593,91.7539 C472.2593,91.7539 490.2593,91.7539 490.2593,81.7539" fill="none" style="stroke:#181818;stroke-width:0.5;"/></g><g class="participant participant-tail" data-participant="DB"><text fill="#000000" font-family="Segoe UI" font-size="14" lengthAdjust="spacing" textLength="76.8496" x="430.8345" y="421.2617">PostgreSQL</text><path d="M454.2593,434.2148 C454.2593,424.2148 472.2593,424.2148 472.2593,424.2148 C472.2593,424.2148 490.2593,424.2148 490.2593,434.2148 L490.2593,460.2148 C490.2593,470.2148 472.2593,470.2148 472.2593,470.2148 C472.2593,470.2148 454.2593,470.2148 454.2593,460.2148 L454.2593,434.2148" fill="#FCE4EC" style="stroke:#181818;stroke-width:0.5;"/><path d="M454.2593,434.2148 C454.2593,444.2148 472.2593,444.2148 472.2593,444.2148 C472.2593,444.2148 490.2593,444.2148 490.2593,434.2148" fill="none" style="stroke:#181818;stroke-width:0.5;"/></g><g><title>API Gateway</title><rect fill="#2563EB" height="189.8633" style="stroke:#A23B72;stroke-width:1;" width="10" x="139.1436" y="200.8633"/></g><g><title>svc-partner-integrations</title><rect fill="#2563EB" height="131.2422" style="stroke:#A23B72;stroke-width:1;" width="10" x="289.0068" y="230.1738"/></g><g><title>PostgreSQL</title><rect fill="#FCE4EC" height="29.3105" style="stroke:#A23B72;stroke-width:1;" width="10" x="467.2593" y="302.7949"/></g><path d="M223,149.2422 L223,174.2422 L363,174.2422 L363,159.2422 L353,149.2422 L223,149.2422" fill="#FEFFDD" style="stroke:#181818;stroke-width:0.5;"/><path d="M353,149.2422 L353,159.2422 L363,159.2422 L353,149.2422" fill="#FEFFDD" style="stroke:#181818;stroke-width:0.5;"/><a href="/services/api/svc-partner-integrations.html#/Partners/listPartners" target="_top" title="/services/api/svc-partner-integrations.html#/Partners/listPartners" xlink:actuate="onRequest" xlink:href="/services/api/svc-partner-integrations.html#/Partners/listPartners" xlink:show="new" xlink:title="/services/api/svc-partner-integrations.html#/Partners/listPartners" xlink:type="simple"><text fill="#0000FF" font-family="Segoe UI" font-size="13" lengthAdjust="spacing" text-decoration="underline" textLength="119.4058" x="229" y="166.8105">View in Swagger UI</text></a><g class="message" data-participant-1="Client" data-participant-2="GW"><polygon fill="#2563EB" points="127.1436,196.8633,137.1436,200.8633,127.1436,204.8633,131.1436,200.8633" style="stroke:#2563EB;stroke-width:1;"/><line style="stroke:#2563EB;stroke-width:1;" x1="31.7524" x2="133.1436" y1="200.8633" y2="200.8633"/><text fill="#000000" font-family="Segoe UI" font-size="13" lengthAdjust="spacing" textLength="88.3911" x="38.7524" y="196.1211">GET /partners</text></g><g class="message" data-participant-1="GW" data-participant-2="Svc"><polygon fill="#2563EB" points="277.0068,226.1738,287.0068,230.1738,277.0068,234.1738,281.0068,230.1738" style="stroke:#2563EB;stroke-width:1;"/><line style="stroke:#2563EB;stroke-width:1;" x1="149.1436" x2="283.0068" y1="230.1738" y2="230.1738"/><text fill="#000000" font-family="Segoe UI" font-size="13" lengthAdjust="spacing" textLength="85.1348" x="156.1436" y="225.4316">route request</text></g><rect fill="#EEEEEE" height="3" style="stroke:#EEEEEE;stroke-width:1;" width="518.6841" x="0" y="258.8291"/><line style="stroke:#000000;stroke-width:1;" x1="0" x2="518.6841" y1="258.8291" y2="258.8291"/><line style="stroke:#000000;stroke-width:1;" x1="0" x2="518.6841" y1="261.8291" y2="261.8291"/><rect fill="#EEEEEE" height="23.3105" style="stroke:#000000;stroke-width:2;" width="80.3711" x="219.1565" y="248.1738"/><text fill="#000000" font-family="Segoe UI" font-size="13" font-weight="bold" lengthAdjust="spacing" textLength="62.0864" x="225.1565" y="264.7422">Database</text><g class="message" data-participant-1="Svc" data-participant-2="DB"><polygon fill="#2563EB" points="455.2593,298.7949,465.2593,302.7949,455.2593,306.7949,459.2593,302.7949" style="stroke:#2563EB;stroke-width:1;"/><line style="stroke:#2563EB;stroke-width:1;" x1="299.0068" x2="461.2593" y1="302.7949" y2="302.7949"/><text fill="#000000" font-family="Segoe UI" font-size="13" lengthAdjust="spacing" textLength="149.2524" x="306.0068" y="298.0527">SELECT ... WHERE filters</text></g><g class="message" data-participant-1="DB" data-participant-2="Svc"><polygon fill="#2563EB" points="310.0068,328.1055,300.0068,332.1055,310.0068,336.1055,306.0068,332.1055" style="stroke:#2563EB;stroke-width:1;"/><line style="stroke:#2563EB;stroke-width:1;stroke-dasharray:2,2;" x1="304.0068" x2="471.2593" y1="332.1055" y2="332.1055"/><text fill="#000000" font-family="Segoe UI" font-size="13" lengthAdjust="spacing" textLength="93.209" x="316.0068" y="327.3633">Page of results</text></g><g class="message" data-participant-1="Svc" data-participant-2="GW"><polygon fill="#2563EB" points="160.1436,357.416,150.1436,361.416,160.1436,365.416,156.1436,361.416" style="stroke:#2563EB;stroke-width:1;"/><line style="stroke:#2563EB;stroke-width:1;stroke-dasharray:2,2;" x1="154.1436" x2="293.0068" y1="361.416" y2="361.416"/><text fill="#000000" font-family="Segoe UI" font-size="13" lengthAdjust="spacing" textLength="47.3599" x="166.1436" y="356.6738">200 OK</text></g><g class="message" data-participant-1="GW" data-participant-2="Client"><polygon fill="#2563EB" points="42.7524,386.7266,32.7524,390.7266,42.7524,394.7266,38.7524,390.7266" style="stroke:#2563EB;stroke-width:1;"/><line style="stroke:#2563EB;stroke-width:1;stroke-dasharray:2,2;" x1="36.7524" x2="143.1436" y1="390.7266" y2="390.7266"/><text fill="#000000" font-family="Segoe UI" font-size="13" lengthAdjust="spacing" textLength="47.3599" x="48.7524" y="385.9844">200 OK</text></g><a href="/microservices/svc-partner-integrations/#integration-context" target="_top" title="/microservices/svc-partner-integrations/#integration-context" xlink:actuate="onRequest" xlink:href="/microservices/svc-partner-integrations/#integration-context" xlink:show="new" xlink:title="/microservices/svc-partner-integrations/#integration-context" xlink:type="simple"><text fill="#0000FF" font-family="Segoe UI" font-size="10" lengthAdjust="spacing" text-decoration="underline" textLength="231.9922" x="285.6919" y="14.668">&#11014; svc-partner-integrations Integration Context</text></a><!--SRC=[bPF1Sjem48RlUeeTE8C9f85XXivWOrEcJ49BKWuf1s4lHXCZKKc1T3gzzcdwL7sIheqDTXCEXGCI_x_xUp_9vad87TTy2oiUFiLQFSl8KudIK0_yzClCoM4sF5878MDOyyHWIObmpPyJ6oXfR_aMeJR7M24yJ6hbSlpsZ394-C60FaEjrI6FQh-xwU0g-tl6jHMXs75fNQKZr8N5xzqCtLUMVn_QxmNNGI-pJSKQfq9YfSsmtN6xxKntrKj52gvwGUlg9Bt24GIaP_AjijMkORUxwfIqDr1s_2xxoTW6EPN1uwEp5Q5M1lLUX6WSimyRXCbAr0qXBSQQMw6aSUgbNICamFXYuS_lNt2f0YRd3NZ7WkMICIjiWZ3sxy79oynNEHN6WiQOVb1Z18N2sEuC6MfU8b3Q6d03nsLL7iucCEOM3_nxvXale3vo_I7TdehlqYDdHVDz-1zObilJMKVSyXKtTEjcojXOu_pJDEiuSecyvr_x7cEIZWNKdj1J3XqK9Pr2-4vS36fkx3QfExESYvCGgM83NmGUG4YO7tWSK-k72O566K6QnjWH5JJUfq3wLVICXrRiYLa6Ax__j2Hp2g8FT7r8rEaxO-pPdOg5dGq6C2g67mmOIqLgG7FtOUvFVUyUciqcB3xudtrOYyHMWajuQDau9SzuJAZMb6tedJOimb997bBCr6wruEvZsPBYJUSWHpx_MwxnWlq5]--></g></svg>