<svg xmlns="http://www.w3.org/2000/svg" xmlns:xlink="http://www.w3.org/1999/xlink" contentStyleType="text/css" data-diagram-type="SEQUENCE" height="487px" preserveAspectRatio="none" style="width:596px;height:487px;background:#FEFEFE;" version="1.1" viewBox="0 0 596 487" width="596px" zoomAndPan="magnify"><title>GET /analytics/guest-satisfaction</title><defs/><g><rect fill="#FEFEFE" height="487" style="stroke:none;stroke-width:1;" width="596" x="0" y="0"/><text fill="#000000" font-family="Segoe UI" font-size="14" font-weight="bold" lengthAdjust="spacing" textLength="246.2168" x="171.3311" y="41.3125">GET /analytics/guest-satisfaction</text><text fill="#000000" font-family="Segoe UI" font-size="14" font-weight="bold" lengthAdjust="spacing" textLength="216.2549" x="186.312" y="57.8008">Get guest satisfaction metrics</text><g><title>API Gateway</title><rect fill="#2563EB" height="189.8633" style="stroke:#A23B72;stroke-width:1;" width="10" x="262.8149" y="200.8633"/></g><g><title>svc-analytics</title><rect fill="#2563EB" height="131.2422" style="stroke:#A23B72;stroke-width:1;" width="10" x="376.9497" y="230.1738"/></g><g><title>Oracle</title><rect fill="#FCE4EC" height="29.3105" style="stroke:#A23B72;stroke-width:1;" width="10" x="555.2021" y="302.7949"/></g><g><title>Client</title><rect fill="#000000" fill-opacity="0.00000" height="274.4844" width="8" x="27.7524" y="134.2422"/><line style="stroke:#A23B72;stroke-width:0.5;stroke-dasharray:5,5;" x1="31" x2="31" y1="134.2422" y2="408.7266"/></g><g><title>API Gateway</title><rect fill="#000000" fill-opacity="0.00000" height="274.4844" width="8" x="263.8149" y="134.2422"/><line style="stroke:#A23B72;stroke-width:0.5;stroke-dasharray:5,5;" x1="267.5259" x2="267.5259" y1="134.2422" y2="408.7266"/></g><g><title>svc-analytics</title><rect fill="#000000" fill-opacity="0.00000" height="274.4844" width="8" x="377.9497" y="134.2422"/><line style="stroke:#A23B72;stroke-width:0.5;stroke-dasharray:5,5;" x1="381.5708" x2="381.5708" y1="134.2422" y2="408.7266"/></g><g><title>Oracle</title><rect fill="#000000" fill-opacity="0.00000" height="274.4844" width="8" x="556.2021" y="134.2422"/><line style="stroke:#A23B72;stroke-width:0.5;stroke-dasharray:5,5;" x1="559.5254" x2="559.5254" y1="134.2422" y2="408.7266"/></g><g class="participant participant-head" data-participant="Client"><a href="/applications/" target="_top" title="/applications/" xlink:actuate="onRequest" xlink:href="/applications/" xlink:show="new" xlink:title="/applications/" xlink:type="simple"><rect fill="#E8F4F8" height="30.4883" rx="2.5" ry="2.5" style="stroke:#2E86AB;stroke-width:0.5;" width="53.5049" x="5" y="102.7539"/><text fill="#000000" font-family="Segoe UI" font-size="14" lengthAdjust="spacing" textLength="39.5049" x="12" y="123.2891">Client</text></a></g><g class="participant participant-tail" data-participant="Client"><a href="/applications/" target="_top" title="/applications/" xlink:actuate="onRequest" xlink:href="/applications/" xlink:show="new" xlink:title="/applications/" xlink:type="simple"><rect fill="#E8F4F8" height="30.4883" rx="2.5" ry="2.5" style="stroke:#2E86AB;stroke-width:0.5;" width="53.5049" x="5" y="407.7266"/><text fill="#000000" font-family="Segoe UI" font-size="14" lengthAdjust="spacing" textLength="39.5049" x="12" y="428.2617">Client</text></a></g><g class="participant participant-head" data-participant="GW"><rect fill="#DBEAFE" height="30.4883" rx="2.5" ry="2.5" style="stroke:#2E86AB;stroke-width:0.5;" width="96.5781" x="219.5259" y="102.7539"/><text fill="#000000" font-family="Segoe UI" font-size="14" lengthAdjust="spacing" textLength="82.5781" x="226.5259" y="123.2891">API Gateway</text></g><g class="participant participant-tail" data-participant="GW"><rect fill="#DBEAFE" height="30.4883" rx="2.5" ry="2.5" style="stroke:#2E86AB;stroke-width:0.5;" width="96.5781" x="219.5259" y="407.7266"/><text fill="#000000" font-family="Segoe UI" font-size="14" lengthAdjust="spacing" textLength="82.5781" x="226.5259" y="428.2617">API Gateway</text></g><g class="participant participant-head" data-participant="Svc"><a href="/microservices/svc-analytics/" target="_top" title="/microservices/svc-analytics/" xlink:actuate="onRequest" xlink:href="/microservices/svc-analytics/" xlink:show="new" xlink:title="/microservices/svc-analytics/" xlink:type="simple"><rect fill="#E8F4F8" height="30.4883" rx="2.5" ry="2.5" style="stroke:#2E86AB;stroke-width:0.5;" width="102.7578" x="330.5708" y="102.7539"/><text fill="#000000" font-family="Segoe UI" font-size="14" lengthAdjust="spacing" textLength="88.7578" x="337.5708" y="123.2891">svc-analytics</text></a></g><g class="participant participant-tail" data-participant="Svc"><a href="/microservices/svc-analytics/" target="_top" title="/microservices/svc-analytics/" xlink:actuate="onRequest" xlink:href="/microservices/svc-analytics/" xlink:show="new" xlink:title="/microservices/svc-analytics/" xlink:type="simple"><rect fill="#E8F4F8" height="30.4883" rx="2.5" ry="2.5" style="stroke:#2E86AB;stroke-width:0.5;" width="102.7578" x="330.5708" y="407.7266"/><text fill="#000000" font-family="Segoe UI" font-size="14" lengthAdjust="spacing" textLength="88.7578" x="337.5708" y="428.2617">svc-analytics</text></a></g><g class="participant participant-head" data-participant="DB"><text fill="#000000" font-family="Segoe UI" font-size="14" lengthAdjust="spacing" textLength="43.3535" x="535.5254" y="131.2891">Oracle</text><path d="M542.2021,81.7539 C542.2021,71.7539 560.2021,71.7539 560.2021,71.7539 C560.2021,71.7539 578.2021,71.7539 578.2021,81.7539 L578.2021,107.7539 C578.2021,117.7539 560.2021,117.7539 560.2021,117.7539 C560.2021,117.7539 542.2021,117.7539 542.2021,107.7539 L542.2021,81.7539" fill="#FCE4EC" style="stroke:#181818;stroke-width:0.5;"/><path d="M542.2021,81.7539 C542.2021,91.7539 560.2021,91.7539 560.2021,91.7539 C560.2021,91.7539 578.2021,91.7539 578.2021,81.7539" fill="none" style="stroke:#181818;stroke-width:0.5;"/></g><g class="participant participant-tail" data-participant="DB"><text fill="#000000" font-family="Segoe UI" font-size="14" lengthAdjust="spacing" textLength="43.3535" x="535.5254" y="421.2617">Oracle</text><path d="M542.2021,434.2148 C542.2021,424.2148 560.2021,424.2148 560.2021,424.2148 C560.2021,424.2148 578.2021,424.2148 578.2021,434.2148 L578.2021,460.2148 C578.2021,470.2148 560.2021,470.2148 560.2021,470.2148 C560.2021,470.2148 542.2021,470.2148 542.2021,460.2148 L542.2021,434.2148" fill="#FCE4EC" style="stroke:#181818;stroke-width:0.5;"/><path d="M542.2021,434.2148 C542.2021,444.2148 560.2021,444.2148 560.2021,444.2148 C560.2021,444.2148 578.2021,444.2148 578.2021,434.2148" fill="none" style="stroke:#181818;stroke-width:0.5;"/></g><g><title>API Gateway</title><rect fill="#2563EB" height="189.8633" style="stroke:#A23B72;stroke-width:1;" width="10" x="262.8149" y="200.8633"/></g><g><title>svc-analytics</title><rect fill="#2563EB" height="131.2422" style="stroke:#A23B72;stroke-width:1;" width="10" x="376.9497" y="230.1738"/></g><g><title>Oracle</title><rect fill="#FCE4EC" height="29.3105" style="stroke:#A23B72;stroke-width:1;" width="10" x="555.2021" y="302.7949"/></g><path d="M311,149.2422 L311,174.2422 L451,174.2422 L451,159.2422 L441,149.2422 L311,149.2422" fill="#FEFFDD" style="stroke:#181818;stroke-width:0.5;"/><path d="M441,149.2422 L441,159.2422 L451,159.2422 L441,149.2422" fill="#FEFFDD" style="stroke:#181818;stroke-width:0.5;"/><a href="/services/api/svc-analytics.html#/Guest%20Experience/getGuestSatisfaction" target="_top" title="/services/api/svc-analytics.html#/Guest%20Experience/getGuestSatisfaction" xlink:actuate="onRequest" xlink:href="/services/api/svc-analytics.html#/Guest%20Experience/getGuestSatisfaction" xlink:show="new" xlink:title="/services/api/svc-analytics.html#/Guest%20Experience/getGuestSatisfaction" xlink:type="simple"><text fill="#0000FF" font-family="Segoe UI" font-size="13" lengthAdjust="spacing" text-decoration="underline" textLength="119.4058" x="317" y="166.8105">View in Swagger UI</text></a><g class="message" data-participant-1="Client" data-participant-2="GW"><polygon fill="#2563EB" points="250.8149,196.8633,260.8149,200.8633,250.8149,204.8633,254.8149,200.8633" style="stroke:#2563EB;stroke-width:1;"/><line style="stroke:#2563EB;stroke-width:1;" x1="31.7524" x2="256.8149" y1="200.8633" y2="200.8633"/><text fill="#000000" font-family="Segoe UI" font-size="13" lengthAdjust="spacing" textLength="212.0625" x="38.7524" y="196.1211">GET /analytics/guest-satisfaction</text></g><g class="message" data-participant-1="GW" data-participant-2="Svc"><polygon fill="#2563EB" points="364.9497,226.1738,374.9497,230.1738,364.9497,234.1738,368.9497,230.1738" style="stroke:#2563EB;stroke-width:1;"/><line style="stroke:#2563EB;stroke-width:1;" x1="272.8149" x2="370.9497" y1="230.1738" y2="230.1738"/><text fill="#000000" font-family="Segoe UI" font-size="13" lengthAdjust="spacing" textLength="85.1348" x="279.8149" y="225.4316">route request</text></g><rect fill="#EEEEEE" height="3" style="stroke:#EEEEEE;stroke-width:1;" width="589.8789" x="0" y="258.8291"/><line style="stroke:#000000;stroke-width:1;" x1="0" x2="589.8789" y1="258.8291" y2="258.8291"/><line style="stroke:#000000;stroke-width:1;" x1="0" x2="589.8789" y1="261.8291" y2="261.8291"/><rect fill="#EEEEEE" height="23.3105" style="stroke:#000000;stroke-width:2;" width="80.3711" x="254.7539" y="248.1738"/><text fill="#000000" font-family="Segoe UI" font-size="13" font-weight="bold" lengthAdjust="spacing" textLength="62.0864" x="260.7539" y="264.7422">Database</text><g class="message" data-participant-1="Svc" data-participant-2="DB"><polygon fill="#2563EB" points="543.2021,298.7949,553.2021,302.7949,543.2021,306.7949,547.2021,302.7949" style="stroke:#2563EB;stroke-width:1;"/><line style="stroke:#2563EB;stroke-width:1;" x1="386.9497" x2="549.2021" y1="302.7949" y2="302.7949"/><text fill="#000000" font-family="Segoe UI" font-size="13" lengthAdjust="spacing" textLength="149.2524" x="393.9497" y="298.0527">SELECT ... WHERE filters</text></g><g class="message" data-participant-1="DB" data-participant-2="Svc"><polygon fill="#2563EB" points="397.9497,328.1055,387.9497,332.1055,397.9497,336.1055,393.9497,332.1055" style="stroke:#2563EB;stroke-width:1;"/><line style="stroke:#2563EB;stroke-width:1;stroke-dasharray:2,2;" x1="391.9497" x2="559.2021" y1="332.1055" y2="332.1055"/><text fill="#000000" font-family="Segoe UI" font-size="13" lengthAdjust="spacing" textLength="93.209" x="403.9497" y="327.3633">Page of results</text></g><g class="message" data-participant-1="Svc" data-participant-2="GW"><polygon fill="#2563EB" points="283.8149,357.416,273.8149,361.416,283.8149,365.416,279.8149,361.416" style="stroke:#2563EB;stroke-width:1;"/><line style="stroke:#2563EB;stroke-width:1;stroke-dasharray:2,2;" x1="277.8149" x2="380.9497" y1="361.416" y2="361.416"/><text fill="#000000" font-family="Segoe UI" font-size="13" lengthAdjust="spacing" textLength="47.3599" x="289.8149" y="356.6738">200 OK</text></g><g class="message" data-participant-1="GW" data-participant-2="Client"><polygon fill="#2563EB" points="42.7524,386.7266,32.7524,390.7266,42.7524,394.7266,38.7524,390.7266" style="stroke:#2563EB;stroke-width:1;"/><line style="stroke:#2563EB;stroke-width:1;stroke-dasharray:2,2;" x1="36.7524" x2="266.8149" y1="390.7266" y2="390.7266"/><text fill="#000000" font-family="Segoe UI" font-size="13" lengthAdjust="spacing" textLength="47.3599" x="48.7524" y="385.9844">200 OK</text></g><a href="/microservices/svc-analytics/#integration-context" target="_top" title="/microservices/svc-analytics/#integration-context" xlink:actuate="onRequest" xlink:href="/microservices/svc-analytics/#integration-context" xlink:show="new" xlink:title="/microservices/svc-analytics/#integration-context" xlink:type="simple"><text fill="#0000FF" font-family="Segoe UI" font-size="10" lengthAdjust="spacing" text-decoration="underline" textLength="174.5703" x="414.3086" y="14.668">&#11014; svc-analytics Integration Context</text></a><!--SRC=[XPFVRjem5CRl_HH7e5r2A7G5LM8IeGv3GsqrslMYuy8aXs0rs9bj_bJJRlSqUwezoOvJ_YHhfP8B8d_V-KxEpxPzaYeNHgnWBkAdrEYrIeOwqmRg4VSFiqU7NOf4RwLAOI4oYoKbmOLOPoxIobsB5K9jYgb6k1_NokNuOuqgHlZ9W7u3O_HstwhzyQA3ysBvLXWdOvaBvK9j4ZG72-zT3C9Nbly_clUYywXNs2PoWHEfi18pQ7V2RhlGGxshID5PBsgT7QLNEAA8z4A-rgwQ6dUxyqv9UmDbXtVPByQMAAWC7X-3bOoDjcWsCaORs4tS44fappIP3UfIEKoDS5AhHanKSUVWxv_VKB71-EI2uOjhDcFCIPSXZFWT1AV8T8tMDIoPxKB4lkIx6g63OXtAwx12PwY4iVm46ch3JA9oDH0MNbxz42BFCnaNNs03wbsf6DoEOIGSRiLpKJPwWFfLo0Tqg2g-ob25Sxg9tqCqcnqtEn5Ep8MbOtTZH9nX4N4L4lOXF-T3nXJj2UWDSQTWsYMAFgQAN5QJcqktokh1o7Fvq6xnNOv6-dCRfEYArMaPrZU9Mv0AfbkHfjJXVamOK2NWcpAsHzNuvAU_V7zJcF_R4BI2rlvUq2i5U2YNGCUAHEFladKdjnSFTjRlmzM1IR_Fc1SfW91SmfHF-F0EciqcF7pcNpaiPERGs5DKYHozDewTRqLA51VKsz9Tjop1Kic-oM7ETgi5Dr_A5a_Upq6EFPEtNAC7zWy0]--></g></svg>