<svg xmlns="http://www.w3.org/2000/svg" xmlns:xlink="http://www.w3.org/1999/xlink" contentStyleType="text/css" data-diagram-type="SEQUENCE" height="689px" preserveAspectRatio="none" style="width:795px;height:689px;background:#FEFEFE;" version="1.1" viewBox="0 0 795 689" width="795px" zoomAndPan="magnify"><title>POST /media/{media_id}/share</title><defs/><g><rect fill="#FEFEFE" height="689" style="stroke:none;stroke-width:1;" width="795" x="0" y="0"/><text fill="#000000" font-family="Segoe UI" font-size="14" font-weight="bold" lengthAdjust="spacing" textLength="224.9229" x="281.2903" y="41.3125">POST /media/{media_id}/share</text><text fill="#000000" font-family="Segoe UI" font-size="14" font-weight="bold" lengthAdjust="spacing" textLength="289.6934" x="248.905" y="57.8008">Create a shareable link for a media item</text><g><title>API Gateway</title><rect fill="#059669" height="391.7266" style="stroke:#A23B72;stroke-width:1;" width="10" x="246.1523" y="200.8633"/></g><g><title>svc-media-gallery</title><rect fill="#059669" height="333.1055" style="stroke:#A23B72;stroke-width:1;" width="10" x="373.7476" y="230.1738"/></g><g><title>PostgreSQL</title><rect fill="#FCE4EC" height="29.3105" style="stroke:#A23B72;stroke-width:1;" width="10" x="604.5088" y="338.1055"/></g><g><title>PostgreSQL</title><rect fill="#FCE4EC" height="29.3105" style="stroke:#A23B72;stroke-width:1;" width="10" x="604.5088" y="432.0371"/></g><g><title>Client</title><rect fill="#000000" fill-opacity="0.00000" height="476.3477" width="8" x="27.7524" y="134.2422"/><line style="stroke:#A23B72;stroke-width:0.5;stroke-dasharray:5,5;" x1="31" x2="31" y1="134.2422" y2="610.5898"/></g><g><title>API Gateway</title><rect fill="#000000" fill-opacity="0.00000" height="476.3477" width="8" x="247.1523" y="134.2422"/><line style="stroke:#A23B72;stroke-width:0.5;stroke-dasharray:5,5;" x1="250.8633" x2="250.8633" y1="134.2422" y2="610.5898"/></g><g><title>svc-media-gallery</title><rect fill="#000000" fill-opacity="0.00000" height="476.3477" width="8" x="374.7476" y="134.2422"/><line style="stroke:#A23B72;stroke-width:0.5;stroke-dasharray:5,5;" x1="378.4414" x2="378.4414" y1="134.2422" y2="610.5898"/></g><g><title>Notifications</title><rect fill="#000000" fill-opacity="0.00000" height="476.3477" width="8" x="504.0688" y="134.2422"/><line style="stroke:#A23B72;stroke-width:0.5;stroke-dasharray:5,5;" x1="508.0537" x2="508.0537" y1="134.2422" y2="610.5898"/></g><g><title>PostgreSQL</title><rect fill="#000000" fill-opacity="0.00000" height="476.3477" width="8" x="605.5088" y="134.2422"/><line style="stroke:#A23B72;stroke-width:0.5;stroke-dasharray:5,5;" x1="609.084" x2="609.084" y1="134.2422" y2="610.5898"/></g><g class="participant participant-head" data-participant="Client"><a href="/applications/" target="_top" title="/applications/" xlink:actuate="onRequest" xlink:href="/applications/" xlink:show="new" xlink:title="/applications/" xlink:type="simple"><rect fill="#E8F4F8" height="30.4883" rx="2.5" ry="2.5" style="stroke:#2E86AB;stroke-width:0.5;" width="53.5049" x="5" y="102.7539"/><text fill="#000000" font-family="Segoe UI" font-size="14" lengthAdjust="spacing" textLength="39.5049" x="12" y="123.2891">Client</text></a></g><g class="participant participant-tail" data-participant="Client"><a href="/applications/" target="_top" title="/applications/" xlink:actuate="onRequest" xlink:href="/applications/" xlink:show="new" xlink:title="/applications/" xlink:type="simple"><rect fill="#E8F4F8" height="30.4883" rx="2.5" ry="2.5" style="stroke:#2E86AB;stroke-width:0.5;" width="53.5049" x="5" y="609.5898"/><text fill="#000000" font-family="Segoe UI" font-size="14" lengthAdjust="spacing" textLength="39.5049" x="12" y="630.125">Client</text></a></g><g class="participant participant-head" data-participant="GW"><rect fill="#DBEAFE" height="30.4883" rx="2.5" ry="2.5" style="stroke:#2E86AB;stroke-width:0.5;" width="96.5781" x="202.8633" y="102.7539"/><text fill="#000000" font-family="Segoe UI" font-size="14" lengthAdjust="spacing" textLength="82.5781" x="209.8633" y="123.2891">API Gateway</text></g><g class="participant participant-tail" data-participant="GW"><rect fill="#DBEAFE" height="30.4883" rx="2.5" ry="2.5" style="stroke:#2E86AB;stroke-width:0.5;" width="96.5781" x="202.8633" y="609.5898"/><text fill="#000000" font-family="Segoe UI" font-size="14" lengthAdjust="spacing" textLength="82.5781" x="209.8633" y="630.125">API Gateway</text></g><g class="participant participant-head" data-participant="Svc"><a href="/microservices/svc-media-gallery/" target="_top" title="/microservices/svc-media-gallery/" xlink:actuate="onRequest" xlink:href="/microservices/svc-media-gallery/" xlink:show="new" xlink:title="/microservices/svc-media-gallery/" xlink:type="simple"><rect fill="#E8F4F8" height="30.4883" rx="2.5" ry="2.5" style="stroke:#2E86AB;stroke-width:0.5;" width="138.6123" x="309.4414" y="102.7539"/><text fill="#000000" font-family="Segoe UI" font-size="14" lengthAdjust="spacing" textLength="124.6123" x="316.4414" y="123.2891">svc-media-gallery</text></a></g><g class="participant participant-tail" data-participant="Svc"><a href="/microservices/svc-media-gallery/" target="_top" title="/microservices/svc-media-gallery/" xlink:actuate="onRequest" xlink:href="/microservices/svc-media-gallery/" xlink:show="new" xlink:title="/microservices/svc-media-gallery/" xlink:type="simple"><rect fill="#E8F4F8" height="30.4883" rx="2.5" ry="2.5" style="stroke:#2E86AB;stroke-width:0.5;" width="138.6123" x="309.4414" y="609.5898"/><text fill="#000000" font-family="Segoe UI" font-size="14" lengthAdjust="spacing" textLength="124.6123" x="316.4414" y="630.125">svc-media-gallery</text></a></g><g class="participant participant-head" data-participant="Ntfy"><a href="/microservices/svc-notifications/" target="_top" title="/microservices/svc-notifications/" xlink:actuate="onRequest" xlink:href="/microservices/svc-notifications/" xlink:show="new" xlink:title="/microservices/svc-notifications/" xlink:type="simple"><rect fill="#FFF8F0" height="30.4883" rx="2.5" ry="2.5" style="stroke:#2E86AB;stroke-width:0.5;" width="100.0303" x="458.0537" y="102.7539"/><text fill="#000000" font-family="Segoe UI" font-size="14" lengthAdjust="spacing" textLength="86.0303" x="465.0537" y="123.2891">Notifications</text></a></g><g class="participant participant-tail" data-participant="Ntfy"><a href="/microservices/svc-notifications/" target="_top" title="/microservices/svc-notifications/" xlink:actuate="onRequest" xlink:href="/microservices/svc-notifications/" xlink:show="new" xlink:title="/microservices/svc-notifications/" xlink:type="simple"><rect fill="#FFF8F0" height="30.4883" rx="2.5" ry="2.5" style="stroke:#2E86AB;stroke-width:0.5;" width="100.0303" x="458.0537" y="609.5898"/><text fill="#000000" font-family="Segoe UI" font-size="14" lengthAdjust="spacing" textLength="86.0303" x="465.0537" y="630.125">Notifications</text></a></g><g class="participant participant-head" data-participant="DB"><text fill="#000000" font-family="Segoe UI" font-size="14" lengthAdjust="spacing" textLength="76.8496" x="568.084" y="131.2891">PostgreSQL</text><path d="M591.5088,81.7539 C591.5088,71.7539 609.5088,71.7539 609.5088,71.7539 C609.5088,71.7539 627.5088,71.7539 627.5088,81.7539 L627.5088,107.7539 C627.5088,117.7539 609.5088,117.7539 609.5088,117.7539 C609.5088,117.7539 591.5088,117.7539 591.5088,107.7539 L591.5088,81.7539" fill="#FCE4EC" style="stroke:#181818;stroke-width:0.5;"/><path d="M591.5088,81.7539 C591.5088,91.7539 609.5088,91.7539 609.5088,91.7539 C609.5088,91.7539 627.5088,91.7539 627.5088,81.7539" fill="none" style="stroke:#181818;stroke-width:0.5;"/></g><g class="participant participant-tail" data-participant="DB"><text fill="#000000" font-family="Segoe UI" font-size="14" lengthAdjust="spacing" textLength="76.8496" x="568.084" y="623.125">PostgreSQL</text><path d="M591.5088,636.0781 C591.5088,626.0781 609.5088,626.0781 609.5088,626.0781 C609.5088,626.0781 627.5088,626.0781 627.5088,636.0781 L627.5088,662.0781 C627.5088,672.0781 609.5088,672.0781 609.5088,672.0781 C609.5088,672.0781 591.5088,672.0781 591.5088,662.0781 L591.5088,636.0781" fill="#FCE4EC" style="stroke:#181818;stroke-width:0.5;"/><path d="M591.5088,636.0781 C591.5088,646.0781 609.5088,646.0781 609.5088,646.0781 C609.5088,646.0781 627.5088,646.0781 627.5088,636.0781" fill="none" style="stroke:#181818;stroke-width:0.5;"/></g><g><title>API Gateway</title><rect fill="#059669" height="391.7266" style="stroke:#A23B72;stroke-width:1;" width="10" x="246.1523" y="200.8633"/></g><g><title>svc-media-gallery</title><rect fill="#059669" height="333.1055" style="stroke:#A23B72;stroke-width:1;" width="10" x="373.7476" y="230.1738"/></g><g><title>PostgreSQL</title><rect fill="#FCE4EC" height="29.3105" style="stroke:#A23B72;stroke-width:1;" width="10" x="604.5088" y="338.1055"/></g><g><title>PostgreSQL</title><rect fill="#FCE4EC" height="29.3105" style="stroke:#A23B72;stroke-width:1;" width="10" x="604.5088" y="432.0371"/></g><path d="M308,149.2422 L308,174.2422 L448,174.2422 L448,159.2422 L438,149.2422 L308,149.2422" fill="#FEFFDD" style="stroke:#181818;stroke-width:0.5;"/><path d="M438,149.2422 L438,159.2422 L448,159.2422 L438,149.2422" fill="#FEFFDD" style="stroke:#181818;stroke-width:0.5;"/><a href="/services/api/svc-media-gallery.html#/Sharing/createShareLink" target="_top" title="/services/api/svc-media-gallery.html#/Sharing/createShareLink" xlink:actuate="onRequest" xlink:href="/services/api/svc-media-gallery.html#/Sharing/createShareLink" xlink:show="new" xlink:title="/services/api/svc-media-gallery.html#/Sharing/createShareLink" xlink:type="simple"><text fill="#0000FF" font-family="Segoe UI" font-size="13" lengthAdjust="spacing" text-decoration="underline" textLength="119.4058" x="314" y="166.8105">View in Swagger UI</text></a><g class="message" data-participant-1="Client" data-participant-2="GW"><polygon fill="#059669" points="234.1523,196.8633,244.1523,200.8633,234.1523,204.8633,238.1523,200.8633" style="stroke:#059669;stroke-width:1;"/><line style="stroke:#059669;stroke-width:1;" x1="31.7524" x2="240.1523" y1="200.8633" y2="200.8633"/><text fill="#000000" font-family="Segoe UI" font-size="13" lengthAdjust="spacing" textLength="195.3999" x="38.7524" y="196.1211">POST /media/{media_id}/share</text></g><g class="message" data-participant-1="GW" data-participant-2="Svc"><polygon fill="#059669" points="361.7476,226.1738,371.7476,230.1738,361.7476,234.1738,365.7476,230.1738" style="stroke:#059669;stroke-width:1;"/><line style="stroke:#059669;stroke-width:1;" x1="256.1523" x2="367.7476" y1="230.1738" y2="230.1738"/><text fill="#000000" font-family="Segoe UI" font-size="13" lengthAdjust="spacing" textLength="85.1348" x="263.1523" y="225.4316">route request</text></g><path d="M388,243.1738 L388,268.1738 L546,268.1738 L546,253.1738 L536,243.1738 L388,243.1738" fill="#FEFFDD" style="stroke:#181818;stroke-width:0.5;"/><path d="M536,243.1738 L536,253.1738 L546,253.1738 L536,243.1738" fill="#FEFFDD" style="stroke:#181818;stroke-width:0.5;"/><text fill="#000000" font-family="Segoe UI" font-size="13" lengthAdjust="spacing" textLength="137.5728" x="394" y="260.7422">Validate request body</text><rect fill="#EEEEEE" height="3" style="stroke:#EEEEEE;stroke-width:1;" width="788.5034" x="0" y="294.1396"/><line style="stroke:#000000;stroke-width:1;" x1="0" x2="788.5034" y1="294.1396" y2="294.1396"/><line style="stroke:#000000;stroke-width:1;" x1="0" x2="788.5034" y1="297.1396" y2="297.1396"/><rect fill="#EEEEEE" height="23.3105" style="stroke:#000000;stroke-width:2;" width="80.3711" x="354.0662" y="283.4844"/><text fill="#000000" font-family="Segoe UI" font-size="13" font-weight="bold" lengthAdjust="spacing" textLength="62.0864" x="360.0662" y="300.0527">Database</text><g class="message" data-participant-1="Svc" data-participant-2="DB"><polygon fill="#059669" points="592.5088,334.1055,602.5088,338.1055,592.5088,342.1055,596.5088,338.1055" style="stroke:#059669;stroke-width:1;"/><line style="stroke:#059669;stroke-width:1;" x1="383.7476" x2="598.5088" y1="338.1055" y2="338.1055"/><text fill="#000000" font-family="Segoe UI" font-size="13" lengthAdjust="spacing" textLength="177.4043" x="390.7476" y="333.3633">SELECT parent WHERE id = ?</text></g><g class="message" data-participant-1="DB" data-participant-2="Svc"><polygon fill="#059669" points="394.7476,363.416,384.7476,367.416,394.7476,371.416,390.7476,367.416" style="stroke:#059669;stroke-width:1;"/><line style="stroke:#059669;stroke-width:1;stroke-dasharray:2,2;" x1="388.7476" x2="608.5088" y1="367.416" y2="367.416"/><text fill="#000000" font-family="Segoe UI" font-size="13" lengthAdjust="spacing" textLength="67.2915" x="400.7476" y="362.6738">Parent row</text></g><path d="M614,380.416 L614,405.416 L783,405.416 L783,390.416 L773,380.416 L614,380.416" fill="#FEFFDD" style="stroke:#181818;stroke-width:0.5;"/><path d="M773,380.416 L773,390.416 L783,390.416 L773,380.416" fill="#FEFFDD" style="stroke:#181818;stroke-width:0.5;"/><text fill="#000000" font-family="Segoe UI" font-size="13" lengthAdjust="spacing" textLength="148.5034" x="620" y="397.9844">404 if parent not found</text><g class="message" data-participant-1="Svc" data-participant-2="DB"><polygon fill="#059669" points="592.5088,428.0371,602.5088,432.0371,592.5088,436.0371,596.5088,432.0371" style="stroke:#059669;stroke-width:1;"/><line style="stroke:#059669;stroke-width:1;" x1="383.7476" x2="598.5088" y1="432.0371" y2="432.0371"/><text fill="#000000" font-family="Segoe UI" font-size="13" lengthAdjust="spacing" textLength="96.0718" x="390.7476" y="427.2949">INSERT INTO ...</text></g><g class="message" data-participant-1="DB" data-participant-2="Svc"><polygon fill="#059669" points="394.7476,457.3477,384.7476,461.3477,394.7476,465.3477,390.7476,461.3477" style="stroke:#059669;stroke-width:1;"/><line style="stroke:#059669;stroke-width:1;stroke-dasharray:2,2;" x1="388.7476" x2="608.5088" y1="461.3477" y2="461.3477"/><text fill="#000000" font-family="Segoe UI" font-size="13" lengthAdjust="spacing" textLength="76.4575" x="400.7476" y="456.6055">Created row</text></g><rect fill="#EEEEEE" height="3" style="stroke:#EEEEEE;stroke-width:1;" width="788.5034" x="0" y="490.0029"/><line style="stroke:#000000;stroke-width:1;" x1="0" x2="788.5034" y1="490.0029" y2="490.0029"/><line style="stroke:#000000;stroke-width:1;" x1="0" x2="788.5034" y1="493.0029" y2="493.0029"/><rect fill="#EEEEEE" height="23.3105" style="stroke:#000000;stroke-width:2;" width="106.8218" x="340.8408" y="479.3477"/><text fill="#000000" font-family="Segoe UI" font-size="13" font-weight="bold" lengthAdjust="spacing" textLength="88.5371" x="346.8408" y="495.916">Async Events</text><g class="message" data-participant-1="Svc" data-participant-2="Ntfy"><line style="stroke:#059669;stroke-width:1;" x1="506.0688" x2="496.0688" y1="533.9688" y2="529.9688"/><line style="stroke:#059669;stroke-width:1;" x1="506.0688" x2="496.0688" y1="533.9688" y2="537.9688"/><line style="stroke:#059669;stroke-width:1;" x1="383.7476" x2="507.0688" y1="533.9688" y2="533.9688"/><a href="/microservices/svc-notifications/#post-notifications-send-a-notification" target="_top" title="/microservices/svc-notifications/#post-notifications-send-a-notification" xlink:actuate="onRequest" xlink:href="/microservices/svc-notifications/#post-notifications-send-a-notification" xlink:show="new" xlink:title="/microservices/svc-notifications/#post-notifications-send-a-notification" xlink:type="simple"><text fill="#0000FF" font-family="Segoe UI" font-size="13" lengthAdjust="spacing" text-decoration="underline" textLength="96.3384" x="390.7476" y="529.2266">Send share link</text></a></g><g class="message" data-participant-1="Svc" data-participant-2="GW"><polygon fill="#059669" points="267.1523,559.2793,257.1523,563.2793,267.1523,567.2793,263.1523,563.2793" style="stroke:#059669;stroke-width:1;"/><line style="stroke:#059669;stroke-width:1;stroke-dasharray:2,2;" x1="261.1523" x2="377.7476" y1="563.2793" y2="563.2793"/><text fill="#000000" font-family="Segoe UI" font-size="13" lengthAdjust="spacing" textLength="77.7969" x="273.1523" y="558.5371">201 Created</text></g><g class="message" data-participant-1="GW" data-participant-2="Client"><polygon fill="#059669" points="42.7524,588.5898,32.7524,592.5898,42.7524,596.5898,38.7524,592.5898" style="stroke:#059669;stroke-width:1;"/><line style="stroke:#059669;stroke-width:1;stroke-dasharray:2,2;" x1="36.7524" x2="250.1523" y1="592.5898" y2="592.5898"/><text fill="#000000" font-family="Segoe UI" font-size="13" lengthAdjust="spacing" textLength="77.7969" x="48.7524" y="587.8477">201 Created</text></g><a href="/microservices/svc-media-gallery/#integration-context" target="_top" title="/microservices/svc-media-gallery/#integration-context" xlink:actuate="onRequest" xlink:href="/microservices/svc-media-gallery/#integration-context" xlink:show="new" xlink:title="/microservices/svc-media-gallery/#integration-context" xlink:type="simple"><text fill="#0000FF" font-family="Segoe UI" font-size="10" lengthAdjust="spacing" text-decoration="underline" textLength="200.1807" x="587.3228" y="14.668">&#11014; svc-media-gallery Integration Context</text></a><!--SRC=[ZLJRRjf047tVhnZ1CvWG6WWIgO3OAH8YD2R9GuggnLwR5MQNhXS8YlBQh-bNzKiwkzpiaBQ11r_cpCpPCsUSphXOK4NdCA71B5PoASAkJAI2ekUQFqaFY7HAGxdc8eQ89YdBH48MqMMYFIdqWCuP57mMImRtlK8sdVrOCX4mU260lxPIShrhLVbqUN5nQLyFgT8yu0igT4UgaAaTfEesBjgT4yXRqcx3gtaD2-lpYFMvOBaoxUfvfrwryOvypeMyiuPNEJk4JkJmF8pRy43gVDMWNf-SPsBlI7dkriah8LD6CGsUdfmv3vHCcLhnWALEkWfASnPoMeffaZ2rSOfSQ1OhghaKfG2LPSyQVl_w2ITGw1sHqDqYnsD2DDS9W-6jFmB79ZWlzlATXwyE3bEnRwAh6DKCADXdEi64X8iPH4YRWeK3rsnEoEAeEXIw2MT25u2ciBqr9wABHS83IoDra40keptimGssMjEDJRjvXE9rnssZmtAuazDPjByAFgBPU7nmGAue3eL7Usgsu417c_ShYYpMLjnDFgIQJcYAxXxALCUA-L_xjjPr1p5Tj-Ps2S5i1dA58qRAQ0XiSQXE5_oKStcgvqdHyL5-t2mdiFCmJyQxCtZWR0rSWB-cSOnLxtieB1CXc4Q4xCGlNHazc_-SDQ61vYipR2FzRkFm5dEDkar0ms9GcIrDzH5jWdluzdYAnrCDCjhbFT24X_IO2XCPRWXfjU1whrYhHOW1OoyKgmc-stUx8y0P6VQFNzmx5tW8BVXyx9jH5MzB1vh3RH9-F4Z8CkWtt6oVMgK6FDhtGG3w6hSoJwOtyDsx4Lv6jr0kb__FOBipuJiKpA7RwKO4uAwmOvev-DNMSisFcAwuG8FbtvLI77g9vbw2RunWXskNrkoyRRQtGxLojYUR9MgSQGQFi9r__WgzUIH_0000]--></g></svg>