<svg xmlns="http://www.w3.org/2000/svg" xmlns:xlink="http://www.w3.org/1999/xlink" contentStyleType="text/css" data-diagram-type="SEQUENCE" height="474px" preserveAspectRatio="none" style="width:567px;height:474px;background:#FEFEFE;" version="1.1" viewBox="0 0 567 474" width="567px" zoomAndPan="magnify"><title>GET /analytics/utilization</title><defs/><g><rect fill="#FEFEFE" height="474" style="stroke:none;stroke-width:1;" width="567" x="0" y="0"/><text fill="#000000" font-family="Segoe UI" font-size="14" font-weight="bold" lengthAdjust="spacing" textLength="186.3066" x="186.3645" y="28.5352">GET /analytics/utilization</text><text fill="#000000" font-family="Segoe UI" font-size="14" font-weight="bold" lengthAdjust="spacing" textLength="238.1504" x="160.4426" y="45.0234">Get resource utilization analytics</text><g><title>API Gateway</title><rect fill="#2563EB" height="189.8633" style="stroke:#A23B72;stroke-width:1;" width="10" x="211.5513" y="188.0859"/></g><g><title>svc-analytics</title><rect fill="#2563EB" height="131.2422" style="stroke:#A23B72;stroke-width:1;" width="10" x="325.686" y="217.3965"/></g><g><title>TimescaleDB</title><rect fill="#FCE4EC" height="29.3105" style="stroke:#A23B72;stroke-width:1;" width="10" x="503.9385" y="290.0176"/></g><g><title>Client</title><rect fill="#000000" fill-opacity="0.00000" height="274.4844" width="8" x="27.7524" y="121.4648"/><line style="stroke:#A23B72;stroke-width:0.5;stroke-dasharray:5,5;" x1="31" x2="31" y1="121.4648" y2="395.9492"/></g><g><title>API Gateway</title><rect fill="#000000" fill-opacity="0.00000" height="274.4844" width="8" x="212.5513" y="121.4648"/><line style="stroke:#A23B72;stroke-width:0.5;stroke-dasharray:5,5;" x1="216.2622" x2="216.2622" y1="121.4648" y2="395.9492"/></g><g><title>svc-analytics</title><rect fill="#000000" fill-opacity="0.00000" height="274.4844" width="8" x="326.686" y="121.4648"/><line style="stroke:#A23B72;stroke-width:0.5;stroke-dasharray:5,5;" x1="330.3071" x2="330.3071" y1="121.4648" y2="395.9492"/></g><g><title>TimescaleDB</title><rect fill="#000000" fill-opacity="0.00000" height="274.4844" width="8" x="504.9385" y="121.4648"/><line style="stroke:#A23B72;stroke-width:0.5;stroke-dasharray:5,5;" x1="508.8413" x2="508.8413" y1="121.4648" y2="395.9492"/></g><g class="participant participant-head" data-participant="Client"><rect fill="#E8F4F8" height="30.4883" rx="2.5" ry="2.5" style="stroke:#2E86AB;stroke-width:0.5;" width="53.5049" x="5" y="89.9766"/><text fill="#000000" font-family="Segoe UI" font-size="14" lengthAdjust="spacing" textLength="39.5049" x="12" y="110.5117">Client</text></g><g class="participant participant-tail" data-participant="Client"><rect fill="#E8F4F8" height="30.4883" rx="2.5" ry="2.5" style="stroke:#2E86AB;stroke-width:0.5;" width="53.5049" x="5" y="394.9492"/><text fill="#000000" font-family="Segoe UI" font-size="14" lengthAdjust="spacing" textLength="39.5049" x="12" y="415.4844">Client</text></g><g class="participant participant-head" data-participant="GW"><rect fill="#DBEAFE" height="30.4883" rx="2.5" ry="2.5" style="stroke:#2E86AB;stroke-width:0.5;" width="96.5781" x="168.2622" y="89.9766"/><text fill="#000000" font-family="Segoe UI" font-size="14" lengthAdjust="spacing" textLength="82.5781" x="175.2622" y="110.5117">API Gateway</text></g><g class="participant participant-tail" data-participant="GW"><rect fill="#DBEAFE" height="30.4883" rx="2.5" ry="2.5" style="stroke:#2E86AB;stroke-width:0.5;" width="96.5781" x="168.2622" y="394.9492"/><text fill="#000000" font-family="Segoe UI" font-size="14" lengthAdjust="spacing" textLength="82.5781" x="175.2622" y="415.4844">API Gateway</text></g><g class="participant participant-head" data-participant="Svc"><a href="/microservices/svc-analytics/" target="_top" title="/microservices/svc-analytics/" xlink:actuate="onRequest" xlink:href="/microservices/svc-analytics/" xlink:show="new" xlink:title="/microservices/svc-analytics/" xlink:type="simple"><rect fill="#E8F4F8" height="30.4883" rx="2.5" ry="2.5" style="stroke:#2E86AB;stroke-width:0.5;" width="102.7578" x="279.3071" y="89.9766"/><text fill="#000000" font-family="Segoe UI" font-size="14" lengthAdjust="spacing" textLength="88.7578" x="286.3071" y="110.5117">svc-analytics</text></a></g><g class="participant participant-tail" data-participant="Svc"><a href="/microservices/svc-analytics/" target="_top" title="/microservices/svc-analytics/" xlink:actuate="onRequest" xlink:href="/microservices/svc-analytics/" xlink:show="new" xlink:title="/microservices/svc-analytics/" xlink:type="simple"><rect fill="#E8F4F8" height="30.4883" rx="2.5" ry="2.5" style="stroke:#2E86AB;stroke-width:0.5;" width="102.7578" x="279.3071" y="394.9492"/><text fill="#000000" font-family="Segoe UI" font-size="14" lengthAdjust="spacing" textLength="88.7578" x="286.3071" y="415.4844">svc-analytics</text></a></g><g class="participant participant-head" data-participant="DB"><text fill="#000000" font-family="Segoe UI" font-size="14" lengthAdjust="spacing" textLength="86.1943" x="462.8413" y="118.5117">TimescaleDB</text><path d="M490.9385,68.9766 C490.9385,58.9766 508.9385,58.9766 508.9385,58.9766 C508.9385,58.9766 526.9385,58.9766 526.9385,68.9766 L526.9385,94.9766 C526.9385,104.9766 508.9385,104.9766 508.9385,104.9766 C508.9385,104.9766 490.9385,104.9766 490.9385,94.9766 L490.9385,68.9766" fill="#FCE4EC" style="stroke:#181818;stroke-width:0.5;"/><path d="M490.9385,68.9766 C490.9385,78.9766 508.9385,78.9766 508.9385,78.9766 C508.9385,78.9766 526.9385,78.9766 526.9385,68.9766" fill="none" style="stroke:#181818;stroke-width:0.5;"/></g><g class="participant participant-tail" data-participant="DB"><text fill="#000000" font-family="Segoe UI" font-size="14" lengthAdjust="spacing" textLength="86.1943" x="462.8413" y="408.4844">TimescaleDB</text><path d="M490.9385,421.4375 C490.9385,411.4375 508.9385,411.4375 508.9385,411.4375 C508.9385,411.4375 526.9385,411.4375 526.9385,421.4375 L526.9385,447.4375 C526.9385,457.4375 508.9385,457.4375 508.9385,457.4375 C508.9385,457.4375 490.9385,457.4375 490.9385,447.4375 L490.9385,421.4375" fill="#FCE4EC" style="stroke:#181818;stroke-width:0.5;"/><path d="M490.9385,421.4375 C490.9385,431.4375 508.9385,431.4375 508.9385,431.4375 C508.9385,431.4375 526.9385,431.4375 526.9385,421.4375" fill="none" style="stroke:#181818;stroke-width:0.5;"/></g><g><title>API Gateway</title><rect fill="#2563EB" height="189.8633" style="stroke:#A23B72;stroke-width:1;" width="10" x="211.5513" y="188.0859"/></g><g><title>svc-analytics</title><rect fill="#2563EB" height="131.2422" style="stroke:#A23B72;stroke-width:1;" width="10" x="325.686" y="217.3965"/></g><g><title>TimescaleDB</title><rect fill="#FCE4EC" height="29.3105" style="stroke:#A23B72;stroke-width:1;" width="10" x="503.9385" y="290.0176"/></g><path d="M260,136.4648 L260,161.4648 L400,161.4648 L400,146.4648 L390,136.4648 L260,136.4648" fill="#FEFFDD" style="stroke:#181818;stroke-width:0.5;"/><path d="M390,136.4648 L390,146.4648 L400,146.4648 L390,136.4648" fill="#FEFFDD" style="stroke:#181818;stroke-width:0.5;"/><a href="/services/api/svc-analytics.html#/Utilization/getUtilizationAnalytics" target="_top" title="/services/api/svc-analytics.html#/Utilization/getUtilizationAnalytics" xlink:actuate="onRequest" xlink:href="/services/api/svc-analytics.html#/Utilization/getUtilizationAnalytics" xlink:show="new" xlink:title="/services/api/svc-analytics.html#/Utilization/getUtilizationAnalytics" xlink:type="simple"><text fill="#0000FF" font-family="Segoe UI" font-size="13" lengthAdjust="spacing" text-decoration="underline" textLength="119.4058" x="266" y="154.0332">View in Swagger UI</text></a><g class="message" data-participant-1="Client" data-participant-2="GW"><polygon fill="#2563EB" points="199.5513,184.0859,209.5513,188.0859,199.5513,192.0859,203.5513,188.0859" style="stroke:#2563EB;stroke-width:1;"/><line style="stroke:#2563EB;stroke-width:1;" x1="31.7524" x2="205.5513" y1="188.0859" y2="188.0859"/><text fill="#000000" font-family="Segoe UI" font-size="13" lengthAdjust="spacing" textLength="160.7988" x="38.7524" y="183.3438">GET /analytics/utilization</text></g><g class="message" data-participant-1="GW" data-participant-2="Svc"><polygon fill="#2563EB" points="313.686,213.3965,323.686,217.3965,313.686,221.3965,317.686,217.3965" style="stroke:#2563EB;stroke-width:1;"/><line style="stroke:#2563EB;stroke-width:1;" x1="221.5513" x2="319.686" y1="217.3965" y2="217.3965"/><a href="/microservices/svc-analytics/#get-analyticsutilization-get-resource-utilization-analytics" target="_top" title="/microservices/svc-analytics/#get-analyticsutilization-get-resource-utilization-analytics" xlink:actuate="onRequest" xlink:href="/microservices/svc-analytics/#get-analyticsutilization-get-resource-utilization-analytics" xlink:show="new" xlink:title="/microservices/svc-analytics/#get-analyticsutilization-get-resource-utilization-analytics" xlink:type="simple"><text fill="#0000FF" font-family="Segoe UI" font-size="13" lengthAdjust="spacing" text-decoration="underline" textLength="85.1348" x="228.5513" y="212.6543">route request</text></a></g><rect fill="#EEEEEE" height="3" style="stroke:#EEEEEE;stroke-width:1;" width="560.0356" x="0" y="246.0518"/><line style="stroke:#000000;stroke-width:1;" x1="0" x2="560.0356" y1="246.0518" y2="246.0518"/><line style="stroke:#000000;stroke-width:1;" x1="0" x2="560.0356" y1="249.0518" y2="249.0518"/><rect fill="#EEEEEE" height="23.3105" style="stroke:#000000;stroke-width:2;" width="80.3711" x="239.8323" y="235.3965"/><text fill="#000000" font-family="Segoe UI" font-size="13" font-weight="bold" lengthAdjust="spacing" textLength="62.0864" x="245.8323" y="251.9648">Database</text><g class="message" data-participant-1="Svc" data-participant-2="DB"><polygon fill="#2563EB" points="491.9385,286.0176,501.9385,290.0176,491.9385,294.0176,495.9385,290.0176" style="stroke:#2563EB;stroke-width:1;"/><line style="stroke:#2563EB;stroke-width:1;" x1="335.686" x2="497.9385" y1="290.0176" y2="290.0176"/><text fill="#000000" font-family="Segoe UI" font-size="13" lengthAdjust="spacing" textLength="149.2524" x="342.686" y="285.2754">SELECT ... WHERE filters</text></g><g class="message" data-participant-1="DB" data-participant-2="Svc"><polygon fill="#2563EB" points="346.686,315.3281,336.686,319.3281,346.686,323.3281,342.686,319.3281" style="stroke:#2563EB;stroke-width:1;"/><line style="stroke:#2563EB;stroke-width:1;stroke-dasharray:2,2;" x1="340.686" x2="507.9385" y1="319.3281" y2="319.3281"/><text fill="#000000" font-family="Segoe UI" font-size="13" lengthAdjust="spacing" textLength="93.209" x="352.686" y="314.5859">Page of results</text></g><g class="message" data-participant-1="Svc" data-participant-2="GW"><polygon fill="#2563EB" points="232.5513,344.6387,222.5513,348.6387,232.5513,352.6387,228.5513,348.6387" style="stroke:#2563EB;stroke-width:1;"/><line style="stroke:#2563EB;stroke-width:1;stroke-dasharray:2,2;" x1="226.5513" x2="329.686" y1="348.6387" y2="348.6387"/><text fill="#000000" font-family="Segoe UI" font-size="13" lengthAdjust="spacing" textLength="47.3599" x="238.5513" y="343.8965">200 OK</text></g><g class="message" data-participant-1="GW" data-participant-2="Client"><polygon fill="#2563EB" points="42.7524,373.9492,32.7524,377.9492,42.7524,381.9492,38.7524,377.9492" style="stroke:#2563EB;stroke-width:1;"/><line style="stroke:#2563EB;stroke-width:1;stroke-dasharray:2,2;" x1="36.7524" x2="215.5513" y1="377.9492" y2="377.9492"/><text fill="#000000" font-family="Segoe UI" font-size="13" lengthAdjust="spacing" textLength="47.3599" x="48.7524" y="373.207">200 OK</text></g><!--SRC=[XPDHRzem58NV_Ikku1b2eIi8YKa990mDTMZ0UEXuCCabjHfiPXjeD-s_xpg5aApL1YzEpl6vrzzrp9EGUwxv3ZOyVagrEiXag3AbeHw5xizCuJ2FF54d8LFOyinWIKbmom-PZPIqzto7K9jZgX2MarfvE_uue8mHVZ6Wdw-rEfrBjJ_STN2JlvvnRKKizbpQGEa4zSKIzkxyu8tbxwR3NdGRzNBRL6nnAYHMOlns9-YsSprGpnKfkkb5hPj2UeCZYaZFvNjbgwbnjxlfbBHtK7R2BllDc1KsGnY72_2uvDaB7SHu1oioyPDReUHtEKOB6eqwQ49LKg3mCxQ_4e3QC1CeRGsuWTTbLVPd4nXpYoV-adl6AwYFWj2dqLPyvXWtYXAvStwCuU71subOAuFwA68qNiNchTS5yeHRlk66XhyGEpGnpt0Kv3cZW0WCmzjmo9WaFA2Eg5qw0QFy8fhlHJM- -MXtMTrRNY5uAThIetznmZU19n0IvYUUffI-dApN36K2hY1Zhs2WyT4Tl_yF_ep7LXm9LyxfV2zfIJiTZlx_WDIfmUjZARZXXCjS6sMXS0DT6IgitNTYBFLVzE9ANvfXWm6CBgm70yQSIEqHvJxCmsauN42psOJLf_1h25kHMTJc6bKQ1YqRnRbcFAN1RDtLeo_Pi0HBMyv5BlZQhHPy-Losk64wIkGuetxFDLwnFm00]--></g></svg>