<svg xmlns="http://www.w3.org/2000/svg" viewBox="-20 -20 940 705" width="100%">
<rect x="-20" y="-20" width="940" height="705" fill="#fafafa" stroke="#e0e0e0" stroke-width="1"/>
<rect x="0" y="0" width="900" height="56" fill="#2563eb" stroke="#2563eb" stroke-width="2" rx="4"/>
<text x="20" y="34" font-size="20" fill="#FFFFFF" font-family="sans-serif">NovaTrek Adventures</text>
<text x="500" y="32" font-size="14" fill="#FFFFFF" font-family="sans-serif">Trips    My Bookings    Profile    Loyalty</text>
<rect x="150" y="76" width="600" height="40" fill="#f1f5f9" stroke="#e2e8f0" stroke-width="2" rx="4"/>
<text x="180" y="99" font-size="13" fill="#22c55e" font-family="sans-serif">1. Select Trip</text>
<text x="330" y="99" font-size="13" fill="#22c55e" font-family="sans-serif">2. Guest Info</text>
<text x="470" y="99" font-size="13" fill="#2563eb" font-family="sans-serif">3. Payment</text>
<text x="610" y="99" font-size="13" fill="#94a3b8" font-family="sans-serif">4. Confirm</text>
<text x="50" y="164" font-size="24" fill="#1e293b" font-family="sans-serif">Complete Your Booking</text>
<rect x="50" y="185" width="520" height="480" fill="#FFFFFF" stroke="#e2e8f0" stroke-width="2" rx="4"/>
<text x="75" y="218" font-size="18" fill="#1e293b" font-family="sans-serif">Payment Details</text>
<text x="75" y="252" font-size="12" fill="#475569" font-family="sans-serif">Card Number</text>
<rect x="75" y="258" width="460" height="38" fill="#FFFFFF" stroke="#cbd5e1" stroke-width="2" rx="4"/>
<text x="90" y="282" font-size="14" fill="#334155" font-family="sans-serif">**** **** **** 4242</text>
<text x="75" y="322" font-size="12" fill="#475569" font-family="sans-serif">Expiry Date</text>
<rect x="75" y="328" width="200" height="38" fill="#FFFFFF" stroke="#cbd5e1" stroke-width="2" rx="4"/>
<text x="90" y="352" font-size="14" fill="#334155" font-family="sans-serif">12 / 27</text>
<text x="310" y="322" font-size="12" fill="#475569" font-family="sans-serif">CVV</text>
<rect x="310" y="328" width="120" height="38" fill="#FFFFFF" stroke="#cbd5e1" stroke-width="2" rx="4"/>
<text x="325" y="352" font-size="14" fill="#334155" font-family="sans-serif">***</text>
<text x="75" y="397" font-size="12" fill="#475569" font-family="sans-serif">Cardholder Name</text>
<rect x="75" y="403" width="460" height="38" fill="#FFFFFF" stroke="#cbd5e1" stroke-width="2" rx="4"/>
<text x="90" y="427" font-size="14" fill="#334155" font-family="sans-serif">Alex Thompson</text>
<text x="75" y="472" font-size="12" fill="#475569" font-family="sans-serif">Billing Address</text>
<rect x="75" y="478" width="460" height="38" fill="#FFFFFF" stroke="#cbd5e1" stroke-width="2" rx="4"/>
<text x="90" y="502" font-size="14" fill="#334155" font-family="sans-serif">123 Adventure Lane, Boulder, CO 80302</text>
<rect x="75" y="540" width="180" height="30" fill="#f1f5f9" stroke="#e2e8f0" stroke-width="2" rx="4"/>
<text x="90" y="558" font-size="12" fill="#64748b" font-family="sans-serif">Secured by Stripe</text>
<rect x="75" y="590" width="460" height="48" fill="#2563eb" stroke="#1d4ed8" stroke-width="2" rx="4"/>
<text x="230" y="618" font-size="16" fill="#FFFFFF" font-family="sans-serif">Pay $129.00</text>
<rect x="600" y="185" width="280" height="350" fill="#f8fafc" stroke="#e2e8f0" stroke-width="2" rx="4"/>
<text x="625" y="216" font-size="16" fill="#1e293b" font-family="sans-serif">Booking Summary</text>
<text x="625" y="249" font-size="14" fill="#334155" font-family="sans-serif">Sunrise Ridge Trail</text>
<text x="625" y="272" font-size="12" fill="#64748b" font-family="sans-serif">Date: March 25, 2026</text>
<text x="625" y="294" font-size="12" fill="#64748b" font-family="sans-serif">Guests: 2 adults</text>
<text x="625" y="316" font-size="12" fill="#64748b" font-family="sans-serif">Difficulty: Moderate</text>
<line x1="625" y1="340" x2="625" y2="340" stroke="#e2e8f0" stroke-width="2"/>
<text x="625" y="368" font-size="13" fill="#475569" font-family="sans-serif">Subtotal:              $258.00</text>
<text x="625" y="391" font-size="13" fill="#22c55e" font-family="sans-serif">Loyalty Discount:     -$25.80</text>
<text x="625" y="414" font-size="13" fill="#475569" font-family="sans-serif">Tax:                    $18.57</text>
<line x1="625" y1="430" x2="625" y2="430" stroke="#1e293b" stroke-width="2"/>
<text x="625" y="461" font-size="16" fill="#1e293b" font-family="sans-serif">Total:                 $250.77</text>
<text x="625" y="497" font-size="12" fill="#2563eb" font-family="sans-serif">Earning 251 loyalty points</text>
</svg>