<svg xmlns="http://www.w3.org/2000/svg" viewBox="-20 -20 940 600" width="100%">
<rect x="-20" y="-20" width="940" height="600" fill="#fafafa" stroke="#e0e0e0" stroke-width="1"/>
<rect x="0" y="0" width="900" height="56" fill="#2563eb" stroke="#2563eb" stroke-width="2" rx="4"/>
<rect x="50" y="125" width="830" height="40" fill="#f8fafc" stroke="#e2e8f0" stroke-width="2" rx="4"/>
<rect x="50" y="185" width="830" height="160" fill="#FFFFFF" stroke="#e2e8f0" stroke-width="2" rx="4"/>
<rect x="70" y="200" width="130" height="120" fill="#dbeafe" stroke="#bfdbfe" stroke-width="2" rx="4"/>
<rect x="220" y="233" width="90" height="22" fill="#dcfce7" stroke="#86efac" stroke-width="2" rx="4"/>
<rect x="650" y="210" width="100" height="32" fill="#FFFFFF" stroke="#2563eb" stroke-width="2" rx="4"/>
<rect x="770" y="210" width="90" height="32" fill="#FFFFFF" stroke="#ef4444" stroke-width="2" rx="4"/>
<rect x="50" y="365" width="830" height="160" fill="#FFFFFF" stroke="#e2e8f0" stroke-width="2" rx="4"/>
<rect x="70" y="380" width="130" height="120" fill="#fef3c7" stroke="#fde68a" stroke-width="2" rx="4"/>
<rect x="220" y="413" width="120" height="22" fill="#fef3c7" stroke="#fbbf24" stroke-width="2" rx="4"/>
<rect x="650" y="390" width="130" height="32" fill="#f59e0b" stroke="#d97706" stroke-width="2" rx="4"/>
<rect x="800" y="390" width="60" height="32" fill="#FFFFFF" stroke="#ef4444" stroke-width="2" rx="4"/>
</svg>