<svg xmlns="http://www.w3.org/2000/svg" viewBox="-20 -20 940 600" width="100%">
<rect x="-20" y="-20" width="940" height="600" fill="#fafafa" stroke="#e0e0e0" stroke-width="1"/>
<rect x="0" y="0" width="900" height="56" fill="#2563eb" stroke="#2563eb" stroke-width="2" rx="4"/>
<text x="20" y="34" font-size="20" fill="#FFFFFF" font-family="sans-serif">NovaTrek Adventures</text>
<text x="500" y="32" font-size="14" fill="#FFFFFF" font-family="sans-serif">Trips    My Bookings    Profile    Loyalty</text>
<text x="50" y="104" font-size="24" fill="#1e293b" font-family="sans-serif">My Reservations</text>
<rect x="50" y="125" width="830" height="40" fill="#f8fafc" stroke="#e2e8f0" stroke-width="2" rx="4"/>
<text x="80" y="149" font-size="14" fill="#2563eb" font-family="sans-serif">Upcoming (2)</text>
<text x="230" y="149" font-size="14" fill="#64748b" font-family="sans-serif">Past (8)</text>
<text x="350" y="149" font-size="14" fill="#64748b" font-family="sans-serif">Cancelled (1)</text>
<rect x="50" y="185" width="830" height="160" fill="#FFFFFF" stroke="#e2e8f0" stroke-width="2" rx="4"/>
<rect x="70" y="200" width="130" height="120" fill="#dbeafe" stroke="#bfdbfe" stroke-width="2" rx="4"/>
<text x="100" y="262" font-size="12" fill="#64748b" font-family="sans-serif">[ Photo ]</text>
<text x="220" y="223" font-size="18" fill="#1e293b" font-family="sans-serif">Desert Canyon Expedition</text>
<rect x="220" y="233" width="90" height="22" fill="#dcfce7" stroke="#86efac" stroke-width="2" rx="4"/>
<text x="233" y="248" font-size="11" fill="#166534" font-family="sans-serif">Confirmed</text>
<text x="220" y="280" font-size="12" fill="#475569" font-family="sans-serif">Date: March 25, 2026
Guests: 2 adults
Difficulty: Challenging
Confirmation: RES-2026-0042</text>
<rect x="650" y="210" width="100" height="32" fill="#FFFFFF" stroke="#2563eb" stroke-width="2" rx="4"/>
<text x="670" y="230" font-size="12" fill="#2563eb" font-family="sans-serif">Modify</text>
<rect x="770" y="210" width="90" height="32" fill="#FFFFFF" stroke="#ef4444" stroke-width="2" rx="4"/>
<text x="790" y="230" font-size="12" fill="#ef4444" font-family="sans-serif">Cancel</text>
<text x="650" y="292" font-size="12" fill="#475569" font-family="sans-serif">Total: $398.00
Paid: $398.00</text>
<text x="650" y="326" font-size="11" fill="#22c55e" font-family="sans-serif">Free cancellation until Mar 23</text>
<rect x="50" y="365" width="830" height="160" fill="#FFFFFF" stroke="#e2e8f0" stroke-width="2" rx="4"/>
<rect x="70" y="380" width="130" height="120" fill="#fef3c7" stroke="#fde68a" stroke-width="2" rx="4"/>
<text x="100" y="442" font-size="12" fill="#64748b" font-family="sans-serif">[ Photo ]</text>
<text x="220" y="403" font-size="18" fill="#1e293b" font-family="sans-serif">Mountain Summit Challenge</text>
<rect x="220" y="413" width="120" height="22" fill="#fef3c7" stroke="#fbbf24" stroke-width="2" rx="4"/>
<text x="233" y="428" font-size="11" fill="#92400e" font-family="sans-serif">Pending Waiver</text>
<text x="220" y="460" font-size="12" fill="#475569" font-family="sans-serif">Date: April 10, 2026
Guests: 1 adult
Difficulty: Expert
Confirmation: RES-2026-0058</text>
<rect x="650" y="390" width="130" height="32" fill="#f59e0b" stroke="#d97706" stroke-width="2" rx="4"/>
<text x="670" y="410" font-size="12" fill="#FFFFFF" font-family="sans-serif">Sign Waiver</text>
<rect x="800" y="390" width="60" height="32" fill="#FFFFFF" stroke="#ef4444" stroke-width="2" rx="4"/>
<text x="810" y="410" font-size="12" fill="#ef4444" font-family="sans-serif">Cancel</text>
<text x="650" y="472" font-size="12" fill="#475569" font-family="sans-serif">Total: $299.00
Deposit: $75.00</text>
</svg>