<svg xmlns="http://www.w3.org/2000/svg" viewBox="-20 -20 940 703" width="100%">
<rect x="-20" y="-20" width="940" height="703" fill="#fafafa" stroke="#e0e0e0" stroke-width="1"/>
<rect x="0" y="0" width="900" height="56" fill="#2563eb" stroke="#2563eb" stroke-width="2" rx="4"/>
<rect x="50" y="125" width="800" height="44" fill="#FFFFFF" stroke="#e2e8f0" stroke-width="2" rx="4"/>
<rect x="760" y="132" width="80" height="30" fill="#2563eb" stroke="#1d4ed8" stroke-width="2" rx="4"/>
<rect x="50" y="188" width="270" height="200" fill="#dbeafe" stroke="#bfdbfe" stroke-width="2" rx="4"/>
<rect x="50" y="348" width="270" height="40" fill="#1e293b" stroke="#1e293b" stroke-width="2" rx="4"/>
<rect x="340" y="188" width="270" height="200" fill="#dcfce7" stroke="#bbf7d0" stroke-width="2" rx="4"/>
<rect x="340" y="348" width="270" height="40" fill="#1e293b" stroke="#1e293b" stroke-width="2" rx="4"/>
<rect x="630" y="188" width="220" height="200" fill="#fef3c7" stroke="#fde68a" stroke-width="2" rx="4"/>
<rect x="630" y="348" width="220" height="40" fill="#1e293b" stroke="#1e293b" stroke-width="2" rx="4"/>
<rect x="50" y="408" width="220" height="200" fill="#e0e7ff" stroke="#c7d2fe" stroke-width="2" rx="4"/>
<rect x="50" y="568" width="220" height="40" fill="#1e293b" stroke="#1e293b" stroke-width="2" rx="4"/>
<rect x="290" y="408" width="270" height="200" fill="#fce7f3" stroke="#fbcfe8" stroke-width="2" rx="4"/>
<rect x="290" y="568" width="270" height="40" fill="#1e293b" stroke="#1e293b" stroke-width="2" rx="4"/>
<rect x="580" y="408" width="270" height="200" fill="#ccfbf1" stroke="#99f6e4" stroke-width="2" rx="4"/>
<rect x="580" y="568" width="270" height="40" fill="#1e293b" stroke="#1e293b" stroke-width="2" rx="4"/>
<rect x="660" y="635" width="180" height="28" fill="#f1f5f9" stroke="#e2e8f0" stroke-width="2" rx="4"/>
</svg>