<svg xmlns="http://www.w3.org/2000/svg" xmlns:xlink="http://www.w3.org/1999/xlink" contentStyleType="text/css" data-diagram-type="ACTIVITY" height="1026px" preserveAspectRatio="none" style="width:1163px;height:1026px;background:#FFFFFF;" version="1.1" viewBox="0 0 1163 1026" width="1163px" zoomAndPan="magnify"><title>Adventure Category Classification - Decision Flow</title><defs/><g><g class="title" data-source-line="1"><text fill="#000000" font-family="sans-serif" font-size="14" font-weight="bold" lengthAdjust="spacing" textLength="364.5879" x="398.2024" y="33.5352">Adventure Category Classification - Decision Flow</text></g><ellipse cx="725.4158" cy="57.4883" fill="#222222" rx="10" ry="10" style="stroke:#222222;stroke-width:1;"/><rect fill="#F5F5F5" height="34.1328" rx="12.5" ry="12.5" style="stroke:#333333;stroke-width:0.5;" width="158.5625" x="646.1345" y="87.4883"/><text fill="#000000" font-family="sans-serif" font-size="12" lengthAdjust="spacing" textLength="138.5625" x="656.1345" y="109.0898">Guest initiates check-in</text><path d="M834.239,131.6211 L834.239,170.8975 L814.239,174.8975 L834.239,178.8975 L834.239,218.1738 A0,0 0 0 0 834.239,218.1738 L997.3567,218.1738 A0,0 0 0 0 997.3567,218.1738 L997.3567,141.6211 L987.3567,131.6211 L834.239,131.6211 A0,0 0 0 0 834.239,131.6211" fill="#FEFFDD" style="stroke:#181818;stroke-width:0.5;"/><path d="M987.3567,131.6211 L987.3567,141.6211 L997.3567,141.6211 L987.3567,131.6211" fill="#FEFFDD" style="stroke:#181818;stroke-width:0.5;"/><text fill="#000000" font-family="sans-serif" font-size="13" lengthAdjust="spacing" textLength="133.8213" x="840.239" y="149.1895">Reservation includes:</text><text fill="#000000" font-family="sans-serif" font-size="13" lengthAdjust="spacing" textLength="100.4072" x="840.239" y="164.5">- reservation_id</text><text fill="#000000" font-family="sans-serif" font-size="13" lengthAdjust="spacing" textLength="111.7188" x="840.239" y="179.8105">- booking_source</text><text fill="#000000" font-family="sans-serif" font-size="13" lengthAdjust="spacing" textLength="135.1733" x="840.239" y="195.1211">- adventure_category</text><text fill="#000000" font-family="sans-serif" font-size="13" lengthAdjust="spacing" textLength="142.1177" x="840.239" y="210.4316">- activity_type (legacy)</text><rect fill="#F5F5F5" height="48.2656" rx="12.5" ry="12.5" style="stroke:#333333;stroke-width:0.5;" width="177.6465" x="636.5925" y="150.7646"/><text fill="#000000" font-family="sans-serif" font-size="12" lengthAdjust="spacing" textLength="157.6465" x="646.5925" y="172.3662">Retrieve reservation details</text><text fill="#000000" font-family="sans-serif" font-size="12" lengthAdjust="spacing" textLength="27.8965" x="646.5925" y="186.499">from</text><text fill="#000000" font-family="sans-serif" font-size="12" font-weight="bold" lengthAdjust="spacing" textLength="104.9824" x="678.2859" y="186.499">svc-reservations</text><rect fill="#F5F5F5" height="48.2656" rx="12.5" ry="12.5" style="stroke:#333333;stroke-width:0.5;" width="150.0254" x="650.4031" y="238.1738"/><text fill="#000000" font-family="sans-serif" font-size="12" lengthAdjust="spacing" textLength="28.4531" x="660.4031" y="259.7754">Read</text><text fill="#000000" font-family="sans-serif" font-size="12" font-weight="bold" lengthAdjust="spacing" textLength="97.7754" x="692.6531" y="259.7754">booking_source</text><text fill="#000000" font-family="sans-serif" font-size="12" lengthAdjust="spacing" textLength="96.6152" x="660.4031" y="273.9082">from reservation</text><polygon fill="#F5F5F5" points="646.6567,306.4395,804.1748,306.4395,816.1748,325.8721,804.1748,345.3047,646.6567,345.3047,634.6567,325.8721,646.6567,306.4395" style="stroke:#333333;stroke-width:0.5;"/><text fill="#000000" font-family="sans-serif" font-size="11" lengthAdjust="spacing" textLength="63.3091" x="646.6567" y="317.0742">Feature flag</text><text fill="#000000" font-family="sans-serif" font-size="11" font-weight="bold" lengthAdjust="spacing" textLength="157.5181" x="646.6567" y="330.0293">use-category-classification</text><text fill="#000000" font-family="sans-serif" font-size="11" lengthAdjust="spacing" textLength="46.8252" x="646.6567" y="342.9844">enabled?</text><text fill="#000000" font-family="sans-serif" font-size="11" lengthAdjust="spacing" textLength="17.4829" x="617.1738" y="323.5518">yes</text><text fill="#000000" font-family="sans-serif" font-size="11" lengthAdjust="spacing" textLength="13.5835" x="816.1748" y="323.5518">no</text><polygon fill="#F5F5F5" points="323.2786,355.3047,429.9539,355.3047,441.9539,368.2598,429.9539,381.2148,323.2786,381.2148,311.2786,368.2598,323.2786,355.3047" style="stroke:#333333;stroke-width:0.5;"/><text fill="#000000" font-family="sans-serif" font-size="11" lengthAdjust="spacing" textLength="106.6753" x="323.2786" y="365.9395">booking_source has</text><text fill="#000000" font-family="sans-serif" font-size="11" lengthAdjust="spacing" textLength="72.5688" x="323.2786" y="378.8945">override rule?</text><text fill="#000000" font-family="sans-serif" font-size="11" lengthAdjust="spacing" textLength="17.4829" x="293.7957" y="365.9395">yes</text><text fill="#000000" font-family="sans-serif" font-size="11" lengthAdjust="spacing" textLength="13.5835" x="441.9539" y="365.9395">no</text><path d="M229.6934,391.2148 L229.6934,407.5254 L209.6934,411.5254 L229.6934,415.5254 L229.6934,431.8359 A0,0 0 0 0 229.6934,431.8359 L417.6938,431.8359 A0,0 0 0 0 417.6938,431.8359 L417.6938,401.2148 L407.6938,391.2148 L229.6934,391.2148 A0,0 0 0 0 229.6934,391.2148" fill="#FEFFDD" style="stroke:#181818;stroke-width:0.5;"/><path d="M407.6938,391.2148 L407.6938,401.2148 L417.6938,401.2148 L407.6938,391.2148" fill="#FEFFDD" style="stroke:#181818;stroke-width:0.5;"/><text fill="#000000" font-family="sans-serif" font-size="13" lengthAdjust="spacing" textLength="167.0005" x="235.6934" y="408.7832">PARTNER_API -&gt; Pattern 1</text><text fill="#000000" font-family="sans-serif" font-size="13" lengthAdjust="spacing" textLength="138.4932" x="235.6934" y="424.0938">WALK_IN -&gt; Pattern 3</text><rect fill="#F5F5F5" height="34.1328" rx="12.5" ry="12.5" style="stroke:#333333;stroke-width:0.5;" width="198.6934" x="11" y="394.459"/><text fill="#000000" font-family="sans-serif" font-size="12" lengthAdjust="spacing" textLength="178.6934" x="21" y="416.0605">Apply booking source override</text><rect fill="#F5F5F5" height="34.1328" rx="12.5" ry="12.5" style="stroke:#333333;stroke-width:0.5;" width="156.1543" x="32.2695" y="466.8359"/><text fill="#000000" font-family="sans-serif" font-size="12" lengthAdjust="spacing" textLength="136.1543" x="42.2695" y="488.4375">Return override pattern</text><rect fill="#F5F5F5" height="48.2656" rx="12.5" ry="12.5" style="stroke:#333333;stroke-width:0.5;" width="173.8848" x="555.9434" y="391.2148"/><text fill="#000000" font-family="sans-serif" font-size="12" lengthAdjust="spacing" textLength="28.4531" x="565.9434" y="412.8164">Read</text><text fill="#000000" font-family="sans-serif" font-size="12" font-weight="bold" lengthAdjust="spacing" textLength="121.6348" x="598.1934" y="412.8164">adventure_category</text><text fill="#000000" font-family="sans-serif" font-size="12" lengthAdjust="spacing" textLength="96.6152" x="565.9434" y="426.9492">from reservation</text><polygon fill="#F5F5F5" points="584.4858,474.4805,701.2856,474.4805,713.2856,487.4355,701.2856,500.3906,584.4858,500.3906,572.4858,487.4355,584.4858,474.4805" style="stroke:#333333;stroke-width:0.5;"/><text fill="#000000" font-family="sans-serif" font-size="11" lengthAdjust="spacing" textLength="116.7998" x="584.4858" y="485.1152">adventure_category is</text><text fill="#000000" font-family="sans-serif" font-size="11" lengthAdjust="spacing" textLength="76.0547" x="584.4858" y="498.0703">null or empty?</text><text fill="#000000" font-family="sans-serif" font-size="11" lengthAdjust="spacing" textLength="17.4829" x="555.0029" y="485.1152">yes</text><text fill="#000000" font-family="sans-serif" font-size="11" lengthAdjust="spacing" textLength="13.5835" x="713.2856" y="485.1152">no</text><rect fill="#F5F5F5" height="34.1328" rx="12.5" ry="12.5" style="stroke:#333333;stroke-width:0.5;" width="128.5449" x="447.6938" y="510.3906"/><text fill="#000000" font-family="sans-serif" font-size="12" lengthAdjust="spacing" textLength="108.5449" x="457.6938" y="531.9922">Apply fallback rule</text><rect fill="#F5F5F5" height="48.2656" rx="12.5" ry="12.5" style="stroke:#333333;stroke-width:0.5;" width="118.7422" x="452.5952" y="578.6563"/><text fill="#000000" font-family="sans-serif" font-size="12" lengthAdjust="spacing" textLength="38.5664" x="462.5952" y="600.2578">Return</text><text fill="#000000" font-family="sans-serif" font-size="12" font-weight="bold" lengthAdjust="spacing" textLength="56.3789" x="504.9585" y="600.2578">Pattern 3</text><text fill="#000000" font-family="sans-serif" font-size="12" lengthAdjust="spacing" textLength="72.9902" x="462.5952" y="614.3906">(Full Service)</text><rect fill="#F5F5F5" height="48.2656" rx="12.5" ry="12.5" style="stroke:#333333;stroke-width:0.5;" width="180.9863" x="683.312" y="510.3906"/><text fill="#000000" font-family="sans-serif" font-size="12" lengthAdjust="spacing" textLength="160.9863" x="693.312" y="531.9922">Lookup adventure_category</text><text fill="#000000" font-family="sans-serif" font-size="12" lengthAdjust="spacing" textLength="122.707" x="693.312" y="546.125">in classification table</text><polygon fill="#F5F5F5" points="732.48,592.7891,815.1304,592.7891,827.1304,605.7441,815.1304,618.6992,732.48,618.6992,720.48,605.7441,732.48,592.7891" style="stroke:#333333;stroke-width:0.5;"/><text fill="#000000" font-family="sans-serif" font-size="11" lengthAdjust="spacing" textLength="82.6504" x="732.48" y="603.4238">Category found</text><text fill="#000000" font-family="sans-serif" font-size="11" lengthAdjust="spacing" textLength="44.5479" x="732.48" y="616.3789">in table?</text><text fill="#000000" font-family="sans-serif" font-size="11" lengthAdjust="spacing" textLength="17.4829" x="702.9971" y="603.4238">yes</text><text fill="#000000" font-family="sans-serif" font-size="11" lengthAdjust="spacing" textLength="13.5835" x="827.1304" y="603.4238">no</text><rect fill="#F5F5F5" height="34.1328" rx="12.5" ry="12.5" style="stroke:#333333;stroke-width:0.5;" width="155.5332" x="606.2388" y="628.6992"/><text fill="#000000" font-family="sans-serif" font-size="12" lengthAdjust="spacing" textLength="135.5332" x="616.2388" y="650.3008">Return mapped pattern</text><rect fill="#F5F5F5" height="34.1328" rx="12.5" ry="12.5" style="stroke:#333333;stroke-width:0.5;" width="163.666" x="781.772" y="628.6992"/><text fill="#000000" font-family="sans-serif" font-size="12" lengthAdjust="spacing" textLength="143.666" x="791.772" y="650.3008">Category not recognized</text><rect fill="#F5F5F5" height="34.1328" rx="12.5" ry="12.5" style="stroke:#333333;stroke-width:0.5;" width="128.5449" x="799.3325" y="682.832"/><text fill="#000000" font-family="sans-serif" font-size="12" lengthAdjust="spacing" textLength="108.5449" x="809.3325" y="704.4336">Apply fallback rule</text><rect fill="#F5F5F5" height="48.2656" rx="12.5" ry="12.5" style="stroke:#333333;stroke-width:0.5;" width="118.7422" x="804.2339" y="736.9648"/><text fill="#000000" font-family="sans-serif" font-size="12" lengthAdjust="spacing" textLength="38.5664" x="814.2339" y="758.5664">Return</text><text fill="#000000" font-family="sans-serif" font-size="12" font-weight="bold" lengthAdjust="spacing" textLength="56.3789" x="856.5972" y="758.5664">Pattern 3</text><text fill="#000000" font-family="sans-serif" font-size="12" lengthAdjust="spacing" textLength="72.9902" x="814.2339" y="772.6992">(Full Service)</text><polygon fill="#F5F5F5" points="773.8052,791.2305,785.8052,803.2305,773.8052,815.2305,761.8052,803.2305,773.8052,791.2305" style="stroke:#333333;stroke-width:0.5;"/><polygon fill="#F5F5F5" points="642.8857,821.2305,654.8857,833.2305,642.8857,845.2305,630.8857,833.2305,642.8857,821.2305" style="stroke:#333333;stroke-width:0.5;"/><polygon fill="#F5F5F5" points="376.6162,851.2305,388.6162,863.2305,376.6162,875.2305,364.6162,863.2305,376.6162,851.2305" style="stroke:#333333;stroke-width:0.5;"/><rect fill="#F5F5F5" height="48.2656" rx="12.5" ry="12.5" style="stroke:#333333;stroke-width:0.5;" width="157.5547" x="995.438" y="355.3047"/><text fill="#000000" font-family="sans-serif" font-size="12" lengthAdjust="spacing" textLength="137.5547" x="1005.438" y="376.9063">Use legacy activity_type</text><text fill="#000000" font-family="sans-serif" font-size="12" lengthAdjust="spacing" textLength="113.707" x="1005.438" y="391.0391">based classification</text><rect fill="#F5F5F5" height="34.1328" rx="12.5" ry="12.5" style="stroke:#333333;stroke-width:0.5;" width="145.0391" x="1001.6958" y="438.5703"/><text fill="#000000" font-family="sans-serif" font-size="12" lengthAdjust="spacing" textLength="125.0391" x="1011.6958" y="460.1719">Return legacy pattern</text><polygon fill="#F5F5F5" points="725.4158,881.2305,737.4158,893.2305,725.4158,905.2305,713.4158,893.2305,725.4158,881.2305" style="stroke:#333333;stroke-width:0.5;"/><rect fill="#F5F5F5" height="48.2656" rx="12.5" ry="12.5" style="stroke:#333333;stroke-width:0.5;" width="189.623" x="630.6042" y="925.2305"/><text fill="#000000" font-family="sans-serif" font-size="12" lengthAdjust="spacing" textLength="139.8281" x="640.6042" y="946.832">Render check-in UI flow</text><text fill="#000000" font-family="sans-serif" font-size="12" lengthAdjust="spacing" textLength="169.623" x="640.6042" y="960.9648">based on determined pattern</text><ellipse cx="725.4158" cy="1004.4961" fill="none" rx="11" ry="11" style="stroke:#222222;stroke-width:1;"/><ellipse cx="725.4158" cy="1004.4961" fill="#222222" rx="6" ry="6" style="stroke:#222222;stroke-width:1;"/><line style="stroke:#181818;stroke-width:1;" x1="725.4158" x2="725.4158" y1="67.4883" y2="87.4883"/><polygon fill="#181818" points="721.4158,77.4883,725.4158,87.4883,729.4158,77.4883,725.4158,81.4883" style="stroke:#181818;stroke-width:1;"/><line style="stroke:#181818;stroke-width:1;" x1="725.4158" x2="725.4158" y1="121.6211" y2="150.7646"/><polygon fill="#181818" points="721.4158,140.7646,725.4158,150.7646,729.4158,140.7646,725.4158,144.7646" style="stroke:#181818;stroke-width:1;"/><line style="stroke:#181818;stroke-width:1;" x1="725.4158" x2="725.4158" y1="199.0303" y2="238.1738"/><polygon fill="#181818" points="721.4158,228.1738,725.4158,238.1738,729.4158,228.1738,725.4158,232.1738" style="stroke:#181818;stroke-width:1;"/><line style="stroke:#181818;stroke-width:1;" x1="110.3467" x2="110.3467" y1="428.5918" y2="466.8359"/><polygon fill="#181818" points="106.3467,456.8359,110.3467,466.8359,114.3467,456.8359,110.3467,460.8359" style="stroke:#181818;stroke-width:1;"/><line style="stroke:#181818;stroke-width:1;" x1="511.9663" x2="511.9663" y1="544.5234" y2="578.6563"/><polygon fill="#181818" points="507.9663,568.6563,511.9663,578.6563,515.9663,568.6563,511.9663,572.6563" style="stroke:#181818;stroke-width:1;"/><line style="stroke:#181818;stroke-width:1;" x1="863.605" x2="863.605" y1="662.832" y2="682.832"/><polygon fill="#181818" points="859.605,672.832,863.605,682.832,867.605,672.832,863.605,676.832" style="stroke:#181818;stroke-width:1;"/><line style="stroke:#181818;stroke-width:1;" x1="863.605" x2="863.605" y1="716.9648" y2="736.9648"/><polygon fill="#181818" points="859.605,726.9648,863.605,736.9648,867.605,726.9648,863.605,730.9648" style="stroke:#181818;stroke-width:1;"/><line style="stroke:#181818;stroke-width:1;" x1="720.48" x2="684.0054" y1="605.7441" y2="605.7441"/><line style="stroke:#181818;stroke-width:1;" x1="684.0054" x2="684.0054" y1="605.7441" y2="628.6992"/><polygon fill="#181818" points="680.0054,618.6992,684.0054,628.6992,688.0054,618.6992,684.0054,622.6992" style="stroke:#181818;stroke-width:1;"/><line style="stroke:#181818;stroke-width:1;" x1="827.1304" x2="863.605" y1="605.7441" y2="605.7441"/><line style="stroke:#181818;stroke-width:1;" x1="863.605" x2="863.605" y1="605.7441" y2="628.6992"/><polygon fill="#181818" points="859.605,618.6992,863.605,628.6992,867.605,618.6992,863.605,622.6992" style="stroke:#181818;stroke-width:1;"/><line style="stroke:#181818;stroke-width:1;" x1="684.0054" x2="684.0054" y1="662.832" y2="803.2305"/><line style="stroke:#181818;stroke-width:1;" x1="684.0054" x2="761.8052" y1="803.2305" y2="803.2305"/><polygon fill="#181818" points="751.8052,799.2305,761.8052,803.2305,751.8052,807.2305,755.8052,803.2305" style="stroke:#181818;stroke-width:1;"/><line style="stroke:#181818;stroke-width:1;" x1="863.605" x2="863.605" y1="785.2305" y2="803.2305"/><line style="stroke:#181818;stroke-width:1;" x1="863.605" x2="785.8052" y1="803.2305" y2="803.2305"/><polygon fill="#181818" points="795.8052,799.2305,785.8052,803.2305,795.8052,807.2305,791.8052,803.2305" style="stroke:#181818;stroke-width:1;"/><line style="stroke:#181818;stroke-width:1;" x1="773.8052" x2="773.8052" y1="558.6563" y2="592.7891"/><polygon fill="#181818" points="769.8052,582.7891,773.8052,592.7891,777.8052,582.7891,773.8052,586.7891" style="stroke:#181818;stroke-width:1;"/><line style="stroke:#181818;stroke-width:1;" x1="572.4858" x2="511.9663" y1="487.4355" y2="487.4355"/><line style="stroke:#181818;stroke-width:1;" x1="511.9663" x2="511.9663" y1="487.4355" y2="510.3906"/><polygon fill="#181818" points="507.9663,500.3906,511.9663,510.3906,515.9663,500.3906,511.9663,504.3906" style="stroke:#181818;stroke-width:1;"/><line style="stroke:#181818;stroke-width:1;" x1="713.2856" x2="773.8052" y1="487.4355" y2="487.4355"/><line style="stroke:#181818;stroke-width:1;" x1="773.8052" x2="773.8052" y1="487.4355" y2="510.3906"/><polygon fill="#181818" points="769.8052,500.3906,773.8052,510.3906,777.8052,500.3906,773.8052,504.3906" style="stroke:#181818;stroke-width:1;"/><line style="stroke:#181818;stroke-width:1;" x1="511.9663" x2="511.9663" y1="626.9219" y2="833.2305"/><line style="stroke:#181818;stroke-width:1;" x1="511.9663" x2="630.8857" y1="833.2305" y2="833.2305"/><polygon fill="#181818" points="620.8857,829.2305,630.8857,833.2305,620.8857,837.2305,624.8857,833.2305" style="stroke:#181818;stroke-width:1;"/><line style="stroke:#181818;stroke-width:1;" x1="773.8052" x2="773.8052" y1="815.2305" y2="833.2305"/><line style="stroke:#181818;stroke-width:1;" x1="773.8052" x2="654.8857" y1="833.2305" y2="833.2305"/><polygon fill="#181818" points="664.8857,829.2305,654.8857,833.2305,664.8857,837.2305,660.8857,833.2305" style="stroke:#181818;stroke-width:1;"/><line style="stroke:#181818;stroke-width:1;" x1="642.8857" x2="642.8857" y1="439.4805" y2="474.4805"/><polygon fill="#181818" points="638.8857,464.4805,642.8857,474.4805,646.8857,464.4805,642.8857,468.4805" style="stroke:#181818;stroke-width:1;"/><line style="stroke:#181818;stroke-width:1;" x1="311.2786" x2="110.3467" y1="368.2598" y2="368.2598"/><line style="stroke:#181818;stroke-width:1;" x1="110.3467" x2="110.3467" y1="368.2598" y2="394.459"/><polygon fill="#181818" points="106.3467,384.459,110.3467,394.459,114.3467,384.459,110.3467,388.459" style="stroke:#181818;stroke-width:1;"/><line style="stroke:#181818;stroke-width:1;" x1="441.9539" x2="642.8857" y1="368.2598" y2="368.2598"/><line style="stroke:#181818;stroke-width:1;" x1="642.8857" x2="642.8857" y1="368.2598" y2="391.2148"/><polygon fill="#181818" points="638.8857,381.2148,642.8857,391.2148,646.8857,381.2148,642.8857,385.2148" style="stroke:#181818;stroke-width:1;"/><line style="stroke:#181818;stroke-width:1;" x1="110.3467" x2="110.3467" y1="500.9688" y2="863.2305"/><line style="stroke:#181818;stroke-width:1;" x1="110.3467" x2="364.6162" y1="863.2305" y2="863.2305"/><polygon fill="#181818" points="354.6162,859.2305,364.6162,863.2305,354.6162,867.2305,358.6162,863.2305" style="stroke:#181818;stroke-width:1;"/><line style="stroke:#181818;stroke-width:1;" x1="642.8857" x2="642.8857" y1="845.2305" y2="863.2305"/><line style="stroke:#181818;stroke-width:1;" x1="642.8857" x2="388.6162" y1="863.2305" y2="863.2305"/><polygon fill="#181818" points="398.6162,859.2305,388.6162,863.2305,398.6162,867.2305,394.6162,863.2305" style="stroke:#181818;stroke-width:1;"/><line style="stroke:#181818;stroke-width:1;" x1="1074.2153" x2="1074.2153" y1="403.5703" y2="438.5703"/><polygon fill="#181818" points="1070.2153,428.5703,1074.2153,438.5703,1078.2153,428.5703,1074.2153,432.5703" style="stroke:#181818;stroke-width:1;"/><line style="stroke:#181818;stroke-width:1;" x1="634.6567" x2="376.6162" y1="325.8721" y2="325.8721"/><line style="stroke:#181818;stroke-width:1;" x1="376.6162" x2="376.6162" y1="325.8721" y2="355.3047"/><polygon fill="#181818" points="372.6162,345.3047,376.6162,355.3047,380.6162,345.3047,376.6162,349.3047" style="stroke:#181818;stroke-width:1;"/><line style="stroke:#181818;stroke-width:1;" x1="816.1748" x2="1074.2153" y1="325.8721" y2="325.8721"/><line style="stroke:#181818;stroke-width:1;" x1="1074.2153" x2="1074.2153" y1="325.8721" y2="355.3047"/><polygon fill="#181818" points="1070.2153,345.3047,1074.2153,355.3047,1078.2153,345.3047,1074.2153,349.3047" style="stroke:#181818;stroke-width:1;"/><line style="stroke:#181818;stroke-width:1;" x1="376.6162" x2="376.6162" y1="875.2305" y2="893.2305"/><line style="stroke:#181818;stroke-width:1;" x1="376.6162" x2="713.4158" y1="893.2305" y2="893.2305"/><polygon fill="#181818" points="703.4158,889.2305,713.4158,893.2305,703.4158,897.2305,707.4158,893.2305" style="stroke:#181818;stroke-width:1;"/><line style="stroke:#181818;stroke-width:1;" x1="1074.2153" x2="1074.2153" y1="472.7031" y2="893.2305"/><line style="stroke:#181818;stroke-width:1;" x1="1074.2153" x2="737.4158" y1="893.2305" y2="893.2305"/><polygon fill="#181818" points="747.4158,889.2305,737.4158,893.2305,747.4158,897.2305,743.4158,893.2305" style="stroke:#181818;stroke-width:1;"/><line style="stroke:#181818;stroke-width:1;" x1="725.4158" x2="725.4158" y1="286.4395" y2="306.4395"/><polygon fill="#181818" points="721.4158,296.4395,725.4158,306.4395,729.4158,296.4395,725.4158,300.4395" style="stroke:#181818;stroke-width:1;"/><line style="stroke:#181818;stroke-width:1;" x1="725.4158" x2="725.4158" y1="905.2305" y2="925.2305"/><polygon fill="#181818" points="721.4158,915.2305,725.4158,925.2305,729.4158,915.2305,725.4158,919.2305" style="stroke:#181818;stroke-width:1;"/><line style="stroke:#181818;stroke-width:1;" x1="725.4158" x2="725.4158" y1="973.4961" y2="993.4961"/><polygon fill="#181818" points="721.4158,983.4961,725.4158,993.4961,729.4158,983.4961,725.4158,987.4961" style="stroke:#181818;stroke-width:1;"/><!--SRC=[bLJ1Yjim4BtxAmPwIGm-bAMN15goQLD2bsL9k_GIC8eyTeOeaf7aBExNTwJOJjoaXSeNMJDlviqRZJnvXR0eJgXzOn6MmcDbR0jB9PoZagJmP3Hay1abkR1TAVEMk0FfMbXn124zdSYtZq8UAciQNIoDCXRUhJw4xvwdiGNQpkiXhYHnNbYV9BEl3JeFfCaJKt4WzoWF6UavspReBU49mQ93UpepAz0BKcwhIskEaARk9BChkqjJXchZ6KNLtYS0coiqQQcQ0jsCpxFhk3aLyMXd31TGvSuqLc8y4hrQkUpKEXztvUM-hH4c2YiXssc2ke2GFl8N1JCSXqpJZlfLScPC9KnMA69JIYMghKxJnc7Mfypag44X2cgnKrXyceBVeuP9YswQCBKGQfmJze85CoUqbWeMfb5uWmAOBUfQjRq2q45xrFpiD58sh9V5viVpbqs-U5b3zX5UXFTeDRplp3yNJz_ozVErwI6QBZh5tDphXcq3n_hi7BEYSYomDjF1D-fwsvU_Q1j0GPHR013heXkbWEyc7clVtj5bKAOKIktusaS1vxsjOvwcGts1ncGLedvd5YHnsf7uen06Fx7OJNtdYcqrQHZt77pezxp7Xeg6yIt384PCTBfRnONhKTGr5YEDxz9Zn921UyMoIbDf-eN5_EBn3st-Jvru9wXCaj6ssuoupLxvvpnmup7SwfrmNDbOk42d9zAXBgLtyTck-PKQtXzuNVCSchS-uldbGNiaFLBEULCdlm40]--></g></svg>